<?xml version="1.0" encoding="UTF-8"?>
<svg id="a" version="1.1" viewBox="0 0 48 48" xmlns="http://www.w3.org/2000/svg">
 <defs id="defs1">
  <style id="style1">.b{fill:none;stroke:#fff;stroke-width:2px;stroke-linecap:round;stroke-linejoin:round;}</style>
 </defs>
 <path id="path1" d="m24 4.4746c-1.1846 0-2.4224 0.74529-2.8535 2.0723l-3.4316 10.561h-11.104c-1.3953 0-2.4875 0.9476-2.8535 2.0742-0.36606 1.1266-0.038933 2.5334 1.0898 3.3535l8.9844 6.5254-3.4316 10.561c-0.43115 1.327 0.13147 2.6592 1.0898 3.3555 0.95837 0.69629 2.3986 0.82012 3.5273 0l8.9824-6.5273 8.9824 6.5273c1.1288 0.82013 2.569 0.6963 3.5273 0 0.95836-0.6963 1.521-2.0285 1.0898-3.3555l-3.4316-10.561 8.9824-6.5254c1.1288-0.82012 1.4559-2.2269 1.0898-3.3535-0.36607-1.1266-1.4563-2.0742-2.8516-2.0742h-11.104l-3.4316-10.561c-0.43116-1.327-1.6689-2.0723-2.8535-2.0723zm0 2c0.41816 0 0.78363 0.17578 0.95117 0.69141l3.6562 11.25a1.0001 1.0001 0 0 0 0.95117 0.69141h11.83c0.54215 0 0.82195 0.29371 0.95117 0.69141 0.12922 0.3977 0.07533 0.79851-0.36328 1.1172l-9.5723 6.9551a1.0001 1.0001 0 0 0-0.36328 1.1172l3.6562 11.252c0.16754 0.51562-0.02497 0.87138-0.36328 1.1172-0.33832 0.2458-0.73718 0.31867-1.1758 0l-9.5703-6.9531a1.0001 1.0001 0 0 0-1.1758 0l-9.5703 6.9531c-0.43862 0.31868-0.83748 0.24579-1.1758 0-0.3383-0.24579-0.53083-0.6015-0.36328-1.1172l3.6562-11.252a1.0001 1.0001 0 0 0-0.36328-1.1172l-9.5723-6.9551c-0.43862-0.31868-0.4925-0.71951-0.36328-1.1172 0.12921-0.39768 0.40895-0.69141 0.95117-0.69141h11.83a1.0001 1.0001 0 0 0 0.95117-0.69141l3.6562-11.25c0.16754-0.51563 0.53301-0.69141 0.95117-0.69141z" fill="#fff" stroke-linecap="round" stroke-linejoin="round"/>
</svg>
