<?xml version="1.0" encoding="UTF-8"?>
<svg id="b" version="1.1" viewBox="0 0 48 48" xmlns="http://www.w3.org/2000/svg">
 <defs id="defs1">
  <style id="style1">.c{fill:none;stroke:#fff;stroke-linecap:round;stroke-linejoin:round;}.d{fill:#fff;stroke-width:2px;}</style>
 </defs>
 <path id="path1" d="m6.4023 19.605c-0.76887 0-1.4023 0.63393-1.4023 1.4023v13.504c0 0.76894 0.63341 1.4023 1.4023 1.4023h8.1152a0.5 0.5 0 0 0 0.5-0.5 0.5 0.5 0 0 0-0.5-0.5h-8.1152c-0.22846 0-0.40234-0.17388-0.40234-0.40234v-13.504c0-0.22758 0.17322-0.40234 0.40234-0.40234h35.195c0.22913 0 0.40234 0.17476 0.40234 0.40234v13.504c0 0.22846-0.17388 0.40234-0.40234 0.40234h-8.1152a0.5 0.5 0 0 0-0.5 0.5 0.5 0.5 0 0 0 0.5 0.5h8.1152c0.76894 0 1.4023-0.63341 1.4023-1.4023v-13.504c0-0.76841-0.63347-1.4023-1.4023-1.4023z" fill="#fff" stroke-linecap="round" stroke-linejoin="round"/>
 <path id="path2" d="m14.518 5.9336a0.50005 0.50005 0 0 0-0.5 0.5v13.672a0.5 0.5 0 0 0 0.5 0.5 0.5 0.5 0 0 0 0.5-0.5v-13.172h14.258l3.707 3.707v9.4648a0.5 0.5 0 0 0 0.5 0.5 0.5 0.5 0 0 0 0.5-0.5v-9.6719a0.50005 0.50005 0 0 0-0.14648-0.35352l-4-4a0.50005 0.50005 0 0 0-0.35352-0.14648zm0 25.004a0.50005 0.50005 0 0 0-0.5 0.5v10.129a0.50005 0.50005 0 0 0 0.5 0.5h18.965a0.50005 0.50005 0 0 0 0.5-0.5v-10.129a0.50005 0.50005 0 0 0-0.5-0.5zm0.5 1h17.965v9.1289h-17.965z" fill="#fff" stroke-linecap="round" stroke-linejoin="round"/>
 <path id="path3" d="m29.482 5.9336a0.5 0.5 0 0 0-0.5 0.5v4a0.50005 0.50005 0 0 0 0.5 0.5h4a0.5 0.5 0 0 0 0.5-0.5 0.5 0.5 0 0 0-0.5-0.5h-3.5v-3.5a0.5 0.5 0 0 0-0.5-0.5z" fill="#fff" stroke-linecap="round" stroke-linejoin="round"/>
 <circle id="circle3" class="d" cx="39.852" cy="22.898" r="1.5"/>
 <circle id="circle4" class="d" cx="36.835" cy="22.898" r="1.5"/>
 <circle id="circle5" class="d" cx="33.819" cy="22.898" r="1.5"/>
</svg>
