<?xml version="1.0" encoding="UTF-8" standalone="no"?>
<svg
   id="a"
   viewBox="0 0 48 48"
   version="1.1"
   sodipodi:docname="document-print.svg"
   xmlns:inkscape="http://www.inkscape.org/namespaces/inkscape"
   xmlns:sodipodi="http://sodipodi.sourceforge.net/DTD/sodipodi-0.dtd"
   xmlns="http://www.w3.org/2000/svg"
   xmlns:svg="http://www.w3.org/2000/svg">
  <sodipodi:namedview
     id="namedview4"
     pagecolor="#ffffff"
     bordercolor="#666666"
     borderopacity="1.0"
     inkscape:showpageshadow="2"
     inkscape:pageopacity="0.0"
     inkscape:pagecheckerboard="0"
     inkscape:deskcolor="#d1d1d1" />
  <defs
     id="defs1">
    <style
       id="style1">.b{fill:#fff;}.c{fill:none;stroke:#fff;stroke-linecap:round;stroke-linejoin:round;stroke-width:2px;}</style>
  </defs>
  <path
     style="color:#000000;fill:#ffffff;stroke-linecap:round;stroke-linejoin:round;-inkscape-stroke:none"
     d="M 6.4023437,19.105469 C 5.3634235,19.105469 4.5,19.968892 4.5,21.007812 v 13.503907 c 0,1.03892 0.8634235,1.902343 1.9023437,1.902343 h 8.1152343 a 1,1 0 0 0 1,-1 1,1 0 0 0 -1,-1 H 6.5 V 21.105469 h 35 v 13.308593 h -8.017578 a 1,1 0 0 0 -1,1 1,1 0 0 0 1,1 h 8.115234 c 1.03892,0 1.902344,-0.863423 1.902344,-1.902343 V 21.007812 c 0,-1.03892 -0.863424,-1.902343 -1.902344,-1.902343 z"
     id="path1" />
  <path
     style="color:#000000;fill:#ffffff;stroke-linecap:round;stroke-linejoin:round;-inkscape-stroke:none"
     d="m 14.517578,30.4375 a 1.0001,1.0001 0 0 0 -1,1 v 10.128906 a 1.0001,1.0001 0 0 0 1,1 h 18.964844 a 1.0001,1.0001 0 0 0 1,-1 V 31.4375 a 1.0001,1.0001 0 0 0 -1,-1 z m 1,2 h 16.964844 v 8.128906 H 15.517578 Z"
     id="rect1" />
  <path
     style="color:#000000;fill:#ffffff;stroke-linecap:round;stroke-linejoin:round;-inkscape-stroke:none"
     d="m 14.517578,5.4335937 a 1.0001,1.0001 0 0 0 -1,1 V 20.105469 a 1.0001,1.0001 0 0 0 1,1 H 33.482422 L 32.775391,20.8125 a 1.0001,1.0001 0 0 0 1.707031,-0.707031 V 10.433594 A 1.0001,1.0001 0 0 0 34.189453,9.7265625 l -4,-4 A 1.0001,1.0001 0 0 0 29.482422,5.4335937 Z m 1,2 h 13.550781 l 3.414063,3.4140623 v 8.257813 H 15.517578 Z"
     id="path2" />
  <path
     style="color:#000000;fill:#ffffff;stroke-linecap:round;stroke-linejoin:round;-inkscape-stroke:none"
     d="m 29.873047,5.4335937 a 1,1 0 0 0 -1,1 v 3.6093753 a 1.0001,1.0001 0 0 0 1,1 h 3.609375 a 1,1 0 0 0 1,-1 1,1 0 0 0 -1,-1.0000002 H 30.873047 V 6.4335937 a 1,1 0 0 0 -1,-1 z"
     id="polyline2" />
  <circle
     class="b"
     cx="39.8515"
     cy="22.8983"
     r=".75"
     id="circle2" />
  <circle
     class="b"
     cx="36.8351"
     cy="22.8983"
     r=".75"
     id="circle3" />
  <circle
     class="b"
     cx="33.8187"
     cy="22.8983"
     r=".75"
     id="circle4" />
</svg>
