<?xml version="1.0" encoding="UTF-8" standalone="no"?>
<svg
   viewBox="0 0 48 48"
   version="1.1"
   id="svg1"
   sodipodi:docname="steamdeck-gaming-return.svg"
   xmlns:inkscape="http://www.inkscape.org/namespaces/inkscape"
   xmlns:sodipodi="http://sodipodi.sourceforge.net/DTD/sodipodi-0.dtd"
   xmlns="http://www.w3.org/2000/svg"
   xmlns:svg="http://www.w3.org/2000/svg">
  <sodipodi:namedview
     id="namedview1"
     pagecolor="#ffffff"
     bordercolor="#666666"
     borderopacity="1.0"
     inkscape:showpageshadow="2"
     inkscape:pageopacity="0.0"
     inkscape:pagecheckerboard="0"
     inkscape:deskcolor="#d1d1d1" />
  <defs
     id="defs1">
    <style
       id="style1">.a{fill:none;stroke:#fff;stroke-width:2px;stroke-linecap:round;stroke-linejoin:round;}</style>
  </defs>
  <path
     style="color:#000000;fill:#ffffff;stroke-linecap:round;stroke-linejoin:round;-inkscape-stroke:none"
     d="m 24,12.5 c -6.339424,0 -11.5,5.160576 -11.5,11.5 0,6.339424 5.160576,11.5 11.5,11.5 6.339424,0 11.5,-5.160576 11.5,-11.5 0,-6.339424 -5.160576,-11.5 -11.5,-11.5 z m 0,2 c 5.258544,0 9.5,4.241456 9.5,9.5 0,5.258544 -4.241456,9.5 -9.5,9.5 -5.258544,0 -9.5,-4.241456 -9.5,-9.5 0,-5.258544 4.241456,-9.5 9.5,-9.5 z"
     id="circle1" />
  <path
     style="color:#000000;fill:#ffffff;stroke-linecap:round;stroke-linejoin:round;-inkscape-stroke:none"
     d="M 24,1.5 C 11.585442,1.5 1.5,11.585451 1.5,24 1.5,36.414549 11.585442,46.5 24,46.5 a 1.0001,1.0001 0 0 0 1,-1 v -11 a 1,1 0 0 0 -1,-1 1,1 0 0 0 -1,1 v 9.898437 C 12.142288,43.867126 3.5,34.991006 3.5,24 3.5,13.008994 12.142288,4.1328741 23,3.6015625 V 13.5 a 1,1 0 0 0 1,1 1,1 0 0 0 1,-1 v -11 a 1.0001,1.0001 0 0 0 -1,-1 z"
     id="path1" />
</svg>
