<svg viewBox="0 0 48 48" xmlns="http://www.w3.org/2000/svg">
 <defs>
  <style>.a{fill:none;stroke:#fff;stroke-linecap:round;stroke-linejoin:round;}</style>
 </defs>
 <path class="a" d="m43.5 37.5v-27a2 2 0 0 0-2-2h-35a2 2 0 0 0-2 2v27a2 2 0 0 0 2 2h35a2 2 0 0 0 2-2z"/>
 <polyline class="a" points="19.7 30.13 19.7 17.87 27.82 30.13 27.82 17.87"/>
 <polyline class="a" points="16.63 17.87 12.56 30.13 8.5 17.87"/>
 <path class="a" d="m39.5 26v0.05a4.06 4.06 0 0 1-4.06 4.06 4.07 4.07 0 0 1-4.07-4.06v-4.12a4.07 4.07 0 0 1 4.07-4.06 4.06 4.06 0 0 1 4.06 4.06v0.07"/>
</svg>
