<svg viewBox="0 0 48 48" xmlns="http://www.w3.org/2000/svg">
 <defs>
  <style>.a{fill:none;stroke:#fff;stroke-linecap:round;stroke-linejoin:round;}</style>
 </defs>
 <rect class="a" x="21.63" y="21.07" width="20.87" height="20.87" rx="2.03"/>
 <rect class="a" x="23.99" y="23.43" width="3.71" height="3.71"/>
 <rect class="a" x="23.99" y="36.1" width="3.71" height="3.71"/>
 <rect class="a" x="23.99" y="29.39" width="3.71" height="4.45"/>
 <path class="a" d="M38.67,31.27l-7.94-4.58a.41.41,0,0,0-.61.35V36.2a.41.41,0,0,0,.61.35L38.67,32A.4.4,0,0,0,38.67,31.27Z"/>
 <path class="a" d="m28.68 9.32-11.4-3.19a2 2 0 0 0-2.58 2v19.27a6.2 6.2 0 1 0 3.2 5.43v-0.3-17.41l10.43 2.88a2 2 0 0 0 2.58-2v-3.74a3.05 3.05 0 0 0-2.23-2.94z"/>
</svg>
