<svg viewBox="0 0 48 48" xmlns="http://www.w3.org/2000/svg">
 <defs>
  <style>.a{fill:none;stroke:#fff;stroke-linecap:round;stroke-linejoin:round;}</style>
 </defs>
 <path class="a" d="m16 36.44a21.34 21.34 0 0 0 18.5 0.16m-21.39-7.11c6.8 3.51 15.13 4.72 22.36 0.81m-4.69-9.79c0.13 1 0.19 1.76-0.82 2.33a8.88 8.88 0 0 1-5 0.43c-1.14-0.4-1.22-1.06-1.34-2m11.93-2.73c0 8.1 1 14.16-1.35 20.22s-9.77 5.82-14.51 2-7.64-10.94-7.52-19m2-17 21.67-0.29m-2.1 15.53a8.69 8.69 0 0 1-2.86 7.41 6.06 6.06 0 0 1-6.91 0.74 8.16 8.16 0 0 1-4-6.67l6.88-0.65zm4.82-8.55a3.11 3.11 0 0 1-6.22 0 3.1 3.1 0 0 1 3.11-3.1 3.1 3.1 0 0 1 3.11 3.08zm3.75-0.11a6.85 6.85 0 1 1-6.84-6.84 6.84 6.84 0 0 1 6.84 6.82zm-19.51 2a8.54 8.54 0 0 1-8.55 8.54 8.55 8.55 0 1 1 0-17.09 8.55 8.55 0 0 1 8.55 8.55zm-4.2-0.17a4.39 4.39 0 0 1-8.77 0 4.38 4.38 0 0 1 4.38-4.38 4.38 4.38 0 0 1 4.39 4.35z"/>
</svg>
