<svg viewBox="0 0 48 48" xmlns="http://www.w3.org/2000/svg">
 <defs>
  <style>.a,.b{fill:none;stroke:#fff;stroke-linecap:round;stroke-linejoin:round;}.b{stroke-width:0.87px;}</style>
 </defs>
 <path class="a" d="m40.5 42.5h-33a2 2 0 0 1-2-2v-33a2 2 0 0 1 2-2h33a2 2 0 0 1 2 2v33a2 2 0 0 1-2 2z"/>
 <path class="a" d="m27.68 25.54a4.42 4.42 0 0 1 4.41-4.41 4.41 4.41 0 0 1 4.41 4.41v2.87a4.41 4.41 0 0 1-4.41 4.41 4.42 4.42 0 0 1-4.41-4.41"/>
 <line class="a" x1="27.68" x2="27.68" y1="32.82" y2="15.18"/>
 <path class="b" d="M18.77,24a4.41,4.41,0,0,1,0,8.82H11.5V15.18h7.27a4.41,4.41,0,0,1,0,8.82Z"/>
 <line class="b" x1="18.77" x2="11.5" y1="24" y2="24"/>
</svg>
