<svg viewBox="0 0 48 48" xmlns="http://www.w3.org/2000/svg">
 <defs>
  <style>.a{fill:none;stroke:#fff;stroke-linecap:round;stroke-linejoin:round;}</style>
 </defs>
 <path class="a" d="M19.77,9.5,20.93,21a1.63,1.63,0,0,0,1.8,1.47l.49-.05"/>
 <path class="a" d="m32.16 18.17a3.29 3.29 0 0 1-2.94 3.6 3.29 3.29 0 0 1-3.6-2.94l-0.22-2.13a3.29 3.29 0 0 1 3-3.6 3.29 3.29 0 0 1 3.6 2.9"/>
 <line class="a" x1="32.49" x2="31.62" y1="21.44" y2="12.77"/>
 <path class="a" d="m10.55 18.2a3.27 3.27 0 0 1 2.94-3.6 3.27 3.27 0 0 1 3.6 2.94l0.22 2.12a3.3 3.3 0 0 1-2.95 3.61 3.3 3.3 0 0 1-3.6-2.95"/>
 <line class="a" x1="11.09" x2="9.77" y1="23.6" y2="10.51"/>
 <path class="a" d="m25.51 24.4 1.15 11.46a1.65 1.65 0 0 0 1.8 1.47h0.49"/>
 <path class="a" d="m37.9 33.07a3.29 3.29 0 0 1-2.9 3.6 3.29 3.29 0 0 1-3.61-2.94l-0.21-2.13a3.29 3.29 0 0 1 2.9-3.6 3.29 3.29 0 0 1 3.6 2.94"/>
 <line class="a" x1="38.23" x2="37.35" y1="36.34" y2="27.67"/>
 <path class="a" d="m16.28 33.1a3.29 3.29 0 0 1 2.95-3.6 3.29 3.29 0 0 1 3.6 2.94l0.17 2.13a3.28 3.28 0 0 1-2.94 3.6 3.28 3.28 0 0 1-3.6-2.94"/>
 <line class="a" x1="16.83" x2="15.51" y1="38.5" y2="25.41"/>
 <path class="a" d="m40.5 5.5h-33a2 2 0 0 0-2 2v33a2 2 0 0 0 2 2h33a2 2 0 0 0 2-2v-33a2 2 0 0 0-2-2z"/>
</svg>
