<!-- Generator: Adobe Illustrator 25.3.0, SVG Export Plug-In . SVG Version: 6.00 Build 0)  -->
<svg id="Layer_1" style="enable-background:new 0 0 48 48" version="1.1" viewBox="0 0 48 48" xmlns="http://www.w3.org/2000/svg">
 <style type="text/css">.st0{fill:none;stroke:#FFFFFF;stroke-linecap:round;stroke-linejoin:round;}</style>
 <path class="st0" d="m24 42.5-5.9-5.9h-6.3c-3.5 0-6.3-2.6-6.3-5.9v-19.3c0-3.3 2.6-5.9 5.9-5.9h25.2c3.2 0 5.9 2.6 5.9 5.9v19.3c0 3.3-2.6 5.9-5.9 5.9h-6.7l-5.9 5.9z"/>
 <path class="st0" d="m24 17.7c1.6 0 2.9 1.3 2.9 2.9s-1.3 2.9-2.9 2.9-2.9-1.3-2.9-2.9 1.3-2.9 2.9-2.9zm-8.4 0c-1.6 0-2.9 1.3-2.9 2.9s1.3 2.9 2.9 2.9 2.9-1.3 2.9-2.9-1.3-2.9-2.9-2.9z"/>
 <path class="st0" d="m32.4 17.7c1.6 0 2.9 1.3 2.9 2.9s-1.3 2.9-2.9 2.9-2.9-1.3-2.9-2.9 1.3-2.9 2.9-2.9z"/>
</svg>
