<svg id="Layer_1" data-name="Layer 1" viewBox="0 0 48 48" xmlns="http://www.w3.org/2000/svg">
 <defs>
  <style>.cls-1{fill:none;stroke:#fff;stroke-linecap:round;stroke-linejoin:round;}</style>
 </defs>
 <path class="cls-1" d="m15.8 8.58a2.51 2.51 0 1 1-2.51 2.51 2.51 2.51 0 0 1 2.51-2.51zm16.4 0a2.51 2.51 0 0 1 2.51 2.51 2.51 2.51 0 0 1-2.51 2.51 2.51 2.51 0 1 1 0-5z"/>
 <path class="cls-1" d="m7.5 5.5a2 2 0 0 0-2 2v33a2 2 0 0 0 2 2h33a2 2 0 0 0 2-2v-33a2 2 0 0 0-2-2z"/>
 <line class="cls-1" x1="11.94" x2="20.94" y1="37" y2="37"/>
 <line class="cls-1" x1="11.94" x2="16.44" y1="21.47" y2="19"/>
 <line class="cls-1" x1="16.44" x2="16.44" y1="19" y2="37"/>
 <circle class="cls-1" cx="30.17" cy="25" r="6"/>
 <path class="cls-1" d="M24.84,34.78c.89,1.33,2.44,2.22,4.89,2.22h.44a6,6,0,0,0,6-6V25"/>
</svg>
