<svg id="Layer_1" data-name="Layer 1" viewBox="0 0 48 48" xmlns="http://www.w3.org/2000/svg">
 <defs>
  <style>.cls-1{fill:none;stroke:#fff;stroke-linecap:round;stroke-linejoin:round;}</style>
 </defs>
 <circle class="cls-1" cx="24" cy="31" r="6"/>
 <path class="cls-1" d="M29.33,21.22C28.44,19.89,26.89,19,24.44,19H24a6,6,0,0,0-6,6v6"/>
 <path class="cls-1" d="m15.8 8.58a2.51 2.51 0 1 1-2.51 2.51 2.51 2.51 0 0 1 2.51-2.51zm16.4 0a2.51 2.51 0 0 1 2.51 2.51 2.51 2.51 0 0 1-2.51 2.51 2.51 2.51 0 1 1 0-5z"/>
 <path class="cls-1" d="m7.5 5.5a2 2 0 0 0-2 2v33a2 2 0 0 0 2 2h33a2 2 0 0 0 2-2v-33a2 2 0 0 0-2-2z"/>
</svg>
