<svg viewBox="0 0 48 48" xmlns="http://www.w3.org/2000/svg">
 <defs>
  <style>.a,.b{fill:none;stroke:#fff;stroke-linecap:round;stroke-linejoin:round;}.b{stroke-width:0.96px;}</style>
 </defs>
 <path class="a" d="m37 28.6a8.46 8.46 0 1 0 8.46 8.46 8.45 8.45 0 0 0-8.46-8.46z"/>
 <line class="a" x1="34.48" x2="34.48" y1="32.83" y2="41.28"/>
 <line class="a" x1="31.73" x2="34.48" y1="35.72" y2="32.83"/>
 <line class="a" x1="37.22" x2="34.48" y1="35.72" y2="32.83"/>
 <line class="a" x1="39.56" x2="39.56" y1="41.28" y2="32.83"/>
 <line class="a" x1="42.31" x2="39.56" y1="38.4" y2="41.28"/>
 <line class="a" x1="36.82" x2="39.56" y1="38.4" y2="41.28"/>
 <path class="a" d="m15.8 8.58a2.51 2.51 0 1 1-2.51 2.51 2.51 2.51 0 0 1 2.51-2.51zm16.4 0a2.51 2.51 0 0 1 2.51 2.51 2.51 2.51 0 0 1-2.51 2.51 2.51 2.51 0 1 1 0-5z"/>
 <path class="a" d="M42.5,30.63V7.45a2,2,0,0,0-2-1.95H7.45a2,2,0,0,0-1.95,2v33.1a2,2,0,0,0,2,2H30.52"/>
 <line class="b" x1="27.75" x2="32.25" y1="22.22" y2="19.77"/>
 <line class="b" x1="32.25" x2="32.25" y1="19.77" y2="30.06"/>
 <path class="b" d="m18.37 37.77a4.5 4.5 0 0 0 4.5-4.5 4.49 4.49 0 0 0-4.5-4.5 4.5 4.5 0 0 0 4.5-4.5 4.5 4.5 0 0 0-4.5-4.5"/>
 <path class="b" d="m11.25 36.25c1.24 1 2.58 1.52 5.6 1.52h1.52"/>
 <path class="b" d="m11.25 21.27c1.24-1 2.59-1.51 5.6-1.5h1.52"/>
</svg>
