<svg id="Layer_2" data-name="Layer 2" viewBox="0 0 48 48" xmlns="http://www.w3.org/2000/svg">
 <defs>
  <style>.cls-1{fill:none;stroke:#fff;stroke-linecap:round;stroke-linejoin:round;}</style>
 </defs>
 <path class="cls-1" d="m24 5.38a13 13 0 0 0-13 13 12.93 12.93 0 0 1 13 0 12.93 12.93 0 0 1 13 0 13 13 0 0 0-13-13z"/>
 <path class="cls-1" d="m11 18.39a13 13 0 1 0 13 22.48 13 13 0 0 1-6.5-11.23 13 13 0 0 1-6.5-11.25z"/>
 <path class="cls-1" d="m37 18.39a13 13 0 0 1-6.5 11.24 13 13 0 0 1-6.5 11.23 13 13 0 1 0 13-22.46z"/>
 <path class="cls-1" d="M24,18.39a13,13,0,0,0-6.49,11.24,12.93,12.93,0,0,0,13,0A13,13,0,0,0,24,18.39Z"/>
</svg>
