<svg viewBox="0 0 48 48" xmlns="http://www.w3.org/2000/svg">
 <defs>
  <style>.a{fill:none;stroke:#fff;stroke-linecap:round;stroke-linejoin:round;}</style>
 </defs>
 <path class="a" d="m20.3261 8.1739a15.8261 15.8261 0 0 0 0 31.6522h19.2174a3.9565 3.9565 0 0 0 3.9565-3.9561 3.9565 3.9565 0 0 0-3.9565-3.9566h-19.1114q-0.0531 0-0.106 0a7.9134 7.9134 0 0 1-0.106-15.826h0.106 19.2174a3.9565 3.9565 0 0 0 3.9565-3.9574 3.9565 3.9565 0 0 0-3.9565-3.9565h-19.2174z"/>
 <path class="a" d="M20.3261,20.0435A3.9565,3.9565,0,0,0,16.37,24h0a3.9565,3.9565,0,0,0,3.9565,3.9565H39.5435A3.9565,3.9565,0,0,0,43.5,24h0a3.9565,3.9565,0,0,0-3.9565-3.9565H20.3261Z"/>
</svg>
