<svg viewBox="0 0 48 48" xmlns="http://www.w3.org/2000/svg">
 <defs>
  <style>.a,.b,.c,.d{fill:none;stroke:#fff;}.a,.b{stroke-linecap:square;}.a{stroke-width:1px;}.d{stroke-linecap:round;stroke-linejoin:round;}</style>
 </defs>
 <path class="a" d="M10.3,5.5H37.6a4.23,4.23,0,0,1,4.2,4.2V38.4a4.23,4.23,0,0,1-4.2,4.2H10.3a4.23,4.23,0,0,1-4.2-4.2V9.7A4.29,4.29,0,0,1,10.3,5.5Z"/>
 <path class="b" d="M12.8,8.2H35.5a3.33,3.33,0,0,1,3.3,3.3V34.2a3.33,3.33,0,0,1-3.3,3.3H12.8a3.33,3.33,0,0,1-3.3-3.3V11.5A3.4,3.4,0,0,1,12.8,8.2Z"/>
 <path class="c" d="m10.3 9.5-3.4-2.8"/>
 <path class="c" d="m37.6 9.1 3-2.6"/>
 <path class="c" d="M37.6,36.5c.1.3,3.1,4.5,3.1,4.5"/>
 <path class="c" d="m10.6 36.8-3.4 4.4"/>
 <path class="d" d="m31.8 26.3a3.69 3.69 0 0 1-3.7 3.7 3.69 3.69 0 0 1-3.7-3.7v-2.4a3.69 3.69 0 0 1 3.7-3.7 3.69 3.69 0 0 1 3.7 3.7"/>
 <path class="d" d="m33.3 30a1.54 1.54 0 0 1-1.5-1.5v-8.4"/>
 <line class="d" x1="26.9" x2="29.3" y1="18.1" y2="17.3"/>
</svg>
