<svg viewBox="0 0 48 48" xmlns="http://www.w3.org/2000/svg">
 <defs>
  <style>.a{fill:none;stroke:#fff;stroke-linecap:round;stroke-linejoin:round;}</style>
 </defs>
 <line class="a" x1="40.9065" x2="7.0996" y1="30.1494" y2="10.6309"/>
 <line class="a" x1="7.0935" x2="40.9065" y1="37.3287" y2="17.8068"/>
 <line class="a" x1="17.8706" x2="17.8706" y1="4.5001" y2="43.4968"/>
 <path class="a" d="m41.3181 28.6131v-9.27a3.0726 3.0726 0 0 0-1.5363-2.661l-20.387-11.77a3.0726 3.0726 0 0 0-3.0543-0.01l-8.1041 4.6043a3.0725 3.0725 0 0 0-1.5545 2.6714v23.6146a3.0727 3.0727 0 0 0 1.5363 2.661l8.028 4.635a3.0729 3.0729 0 0 0 3.0726 0l20.463-11.8144a3.0725 3.0725 0 0 0 1.5363-2.6609z"/>
</svg>
