<svg viewBox="0 0 48 48" xmlns="http://www.w3.org/2000/svg">
 <defs>
  <style>.a{fill:none;stroke:#fff;stroke-linecap:round;stroke-linejoin:round;stroke-width:1.05px;}</style>
 </defs>
 <ellipse class="a" transform="translate(-6.67 11.9) rotate(-25.08)" cx="23.41" cy="20.93" rx="19.97" ry="13.02"/>
 <line class="a" x1="20.77" x2="5.31" y1="22.16" y2="29.36"/>
 <line class="a" x1="41.51" x2="26.05" y1="12.51" y2="19.71"/>
 <line class="a" x1="21.3" x2="8.12" y1="20.34" y2="16.61"/>
 <line class="a" x1="38.7" x2="25.52" y1="25.26" y2="21.53"/>
 <line class="a" x1="22.68" x2="17.95" y1="19.35" y2="9.11"/>
 <line class="a" x1="28.87" x2="24.14" y1="32.75" y2="22.52"/>
 <line class="a" x1="24.37" x2="30.01" y1="18.83" y2="6.43"/>
 <line class="a" x1="16.82" x2="22.5" y1="35.44" y2="22.94"/>
 <ellipse class="a" transform="translate(-6.66 11.88) rotate(-25.05)" cx="23.41" cy="20.93" rx="2.91" ry="1.75"/>
 <path class="a" d="M41.51,12.51c4.81,10.41.6,22.62-9.4,27.27s-22,0-26.8-10.42"/>
 <path class="a" d="m16.82 38.63c-2 0 0-3.19 0-3.19s2.09 3.19 0 3.19z"/>
</svg>
