<svg viewBox="0 0 48 48" xmlns="http://www.w3.org/2000/svg">
 <defs>
  <style>.a{fill:none;stroke:#fff;stroke-linecap:round;stroke-linejoin:round;}</style>
 </defs>
 <circle class="a" cx="10.77" cy="11.41" r="1.21"/>
 <circle class="a" cx="22.09" cy="6.92" r="1.21"/>
 <circle class="a" cx="39.25" cy="14.7" r="2.08"/>
 <circle class="a" cx="37.76" cy="25.52" r="2.13"/>
 <circle class="a" cx="39.34" cy="34.82" r="1.21"/>
 <circle class="a" cx="29.19" cy="36.8" r="1.11"/>
 <circle class="a" cx="19.09" cy="40.62" r="2.09"/>
 <circle class="a" cx="28.08" cy="26.11" r="1.1"/>
 <circle class="a" cx="21.64" cy="15.44" r="1.95"/>
 <circle class="a" cx="10.7" cy="26.08" r="3.67"/>
 <path class="a" d="M23.47,7.55,37,13.7"/>
 <path class="a" d="m38.92 17.05-0.84 6.1"/>
 <path class="a" d="M38.18,28l.94,5.51"/>
 <path class="a" d="m37.91 35.1-7.28 1.42"/>
 <path class="a" d="m27.91 37.29-6.54 2.47"/>
 <path class="a" d="m29 35.32-0.8-7.72"/>
 <path class="a" d="m17.85 38.48-5.16-8.95"/>
 <path class="a" d="m14.11 28.06 13.85 8"/>
 <path class="a" d="m14.67 26.09h12"/>
 <path class="a" d="m22.79 17.34 4.55 7.55"/>
 <path class="a" d="m13.52 23.34 6.42-6.24"/>
 <path class="a" d="m10.76 12.87v9.31"/>
 <path class="a" d="m12.11 10.88 8.62-3.42"/>
 <path class="a" d="m22 8.3-0.26 4.82"/>
 <path class="a" d="M23.88,15.35l13.18-.56"/>
 <path class="a" d="M35.32,25.67,29.46,26"/>
</svg>
