<svg id="Layer_2" data-name="Layer 2" viewBox="0 0 48 48" xmlns="http://www.w3.org/2000/svg">
 <defs>
  <style>.cls-1{fill:none;stroke:#fff;stroke-linecap:round;stroke-linejoin:round;}</style>
 </defs>
 <path class="cls-1" d="m7.45 5.5a2 2 0 0 0-1.95 2v33.1a2 2 0 0 0 2 2h33.1a2 2 0 0 0 2-2v-33.15a2 2 0 0 0-2-1.95zm9.73 2.92a2.44 2.44 0 1 1-2.43 2.44 2.44 2.44 0 0 1 2.43-2.44zm6.82 0a2.44 2.44 0 1 1-2.43 2.44 2.43 2.43 0 0 1 2.43-2.44zm6.82 0a2.44 2.44 0 1 1-2.44 2.44 2.43 2.43 0 0 1 2.44-2.44zm-20 6.33a2.44 2.44 0 1 1-2.44 2.43 2.43 2.43 0 0 1 2.48-2.43zm26.28 0a2.44 2.44 0 1 1-2.43 2.43 2.43 2.43 0 0 1 2.47-2.43zm-19 1.46h11.74a2 2 0 0 1 1.95 1.95v11.68a2 2 0 0 1-1.95 1.95h-11.68a2 2 0 0 1-1.95-1.95v-11.68a2 2 0 0 1 1.95-1.95zm-7.3 5.36a2.43 2.43 0 1 1-2.38 2.43 2.43 2.43 0 0 1 2.44-2.43zm26.28 0a2.43 2.43 0 1 1-2.37 2.43 2.43 2.43 0 0 1 2.43-2.43zm-26.22 6.81a2.44 2.44 0 1 1-2.44 2.44 2.43 2.43 0 0 1 2.44-2.44zm26.28 0a2.44 2.44 0 1 1-2.43 2.44 2.44 2.44 0 0 1 2.43-2.44zm-20 6.33a2.44 2.44 0 1 1-2.43 2.43 2.43 2.43 0 0 1 2.47-2.43zm6.82 0a2.44 2.44 0 1 1-2.43 2.43 2.43 2.43 0 0 1 2.47-2.43zm6.82 0a2.44 2.44 0 1 1-2.44 2.43 2.43 2.43 0 0 1 2.48-2.43z"/>
</svg>
