<svg viewBox="0 0 48 48" xmlns="http://www.w3.org/2000/svg">
 <defs>
  <style>.a{fill:none;stroke:#fff;stroke-linecap:round;stroke-linejoin:round;}</style>
 </defs>
 <path class="a" d="M11.9986,23.3949C7.4377,24.8219,4.5,27.06,4.5,29.5764c0,4.31,8.6183,7.8039,19.25,7.8039s19.25-3.4939,19.25-7.8039c0-2.5163-2.9377-4.7544-7.4985-6.1815"/>
 <path class="a" d="m4.5 29.786c0 4.31 4.6823 9.885 19.25 9.885s19.25-5.7846 19.25-10.0946"/>
 <path class="a" d="m9.1823 12.9906c0 6.1144 4.0789 18.0634 14.5673 18.0634s14.5673-11.949 14.5673-18.0634"/>
 <ellipse class="a" cx="23.7496" cy="12.9906" rx="14.5673" ry="4.6615"/>
 <path class="a" d="m37.652 14.3863c-1.7044-1.9439-7.2832-3.3693-13.902-3.3693s-12.1985 1.4254-13.9028 3.3693"/>
 <path class="a" d="M36.1468,22.1258c6.04,1.0811,7.3532-2.3572,7.3532-4.9432s-.9919-4.192-3.2762-4.192a2.4811,2.4811,0,0,0-1.9378.9441"/>
</svg>
