<svg id="Layer_2" data-name="Layer 2" viewBox="0 0 48 48" xmlns="http://www.w3.org/2000/svg">
 <defs>
  <style>.cls-1{fill:none;stroke:#fff;stroke-linecap:round;stroke-linejoin:round;}</style>
 </defs>
 <path class="cls-1" d="M7.45,5.5a2,2,0,0,0-1.95,2v33.1a2,2,0,0,0,2,2h33.1a2,2,0,0,0,2-2V7.45a2,2,0,0,0-2-1.95Z"/>
 <path class="cls-1" d="m20.09 30v-12h2a6 6 0 0 1 6 6 6 6 0 0 1-6 6z"/>
 <line class="cls-1" x1="32.48" x2="38.46" y1="18.04" y2="18.04"/>
 <line class="cls-1" x1="32.48" x2="36.38" y1="24.02" y2="24.02"/>
 <line class="cls-1" x1="32.48" x2="32.48" y1="18.04" y2="30"/>
 <path class="cls-1" d="M9.54,30V18h4a4,4,0,0,1,0,8h-4"/>
</svg>
