<svg viewBox="0 0 48 48" xmlns="http://www.w3.org/2000/svg">
 <defs>
  <style>.a,.b{fill:none;stroke:#fff;stroke-linecap:round;}.a{stroke-linejoin:round;}.b{stroke-miterlimit:4.75;}.c{fill:#fff;}</style>
 </defs>
 <path class="a" d="M11.89,18.9441,14.6807,43.5H34.7719l2.79-24.5559Z"/>
 <path class="b" d="M37.5624,18.9441,16.9865,4.5"/>
 <path class="c" d="m14.2526 13.747a0.75 0.75 0 1 1 1.0607 0 0.75 0.75 0 0 1-1.0607 0z"/>
 <path class="c" d="m18.0745 17.5689a0.75 0.75 0 1 1 1.0606 0 0.75 0.75 0 0 1-1.0606 0z"/>
 <path class="a" d="m21.5164 18.9443a6.6219 6.6219 0 0 0-1.44-7.2066 6.62 6.62 0 0 0-9.362 0 0.945 0.945 0 0 0 0 1.3364l5.87 5.87"/>
 <line class="a" x1="16.734" x2="16.4985" y1="6.9958" y2="9.891"/>
 <line class="a" x1="24.8183" x2="21.9231" y1="15.0802" y2="15.3156"/>
</svg>
