<svg id="Layer_2" data-name="Layer 2" viewBox="0 0 48 48" xmlns="http://www.w3.org/2000/svg">
 <defs>
  <style>.cls-1{fill:none;stroke:#fff;stroke-linecap:round;stroke-linejoin:round;}</style>
 </defs>
 <path class="cls-1" d="m7.5 5.5a2 2 0 0 0-2 2v33a2 2 0 0 0 2 2h33a2 2 0 0 0 2-2v-33a2 2 0 0 0-2-2zm5.3 3.65a3.65 3.65 0 1 1-3.65 3.65 3.65 3.65 0 0 1 3.65-3.65zm22.4 0a3.65 3.65 0 1 1-3.65 3.65 3.66 3.66 0 0 1 3.65-3.65zm-11.2 11.2a3.64 3.64 0 0 1 3.65 3.65 3.64 3.64 0 0 1-3.65 3.65 3.64 3.64 0 0 1-3.65-3.65 3.64 3.64 0 0 1 3.65-3.65zm-11.2 11.2a3.64 3.64 0 0 1 3.65 3.65 3.65 3.65 0 0 1-3.65 3.65 3.66 3.66 0 0 1-3.65-3.65 3.65 3.65 0 0 1 3.65-3.65zm22.4 0a3.65 3.65 0 0 1 3.65 3.65 3.66 3.66 0 0 1-3.65 3.65 3.65 3.65 0 0 1-3.65-3.65 3.64 3.64 0 0 1 3.65-3.65z"/>
</svg>
