<svg id="Layer_2" data-name="Layer 2" viewBox="0 0 48 48" xmlns="http://www.w3.org/2000/svg">
 <defs>
  <style>.cls-1{fill:none;stroke:#fff;stroke-linecap:round;stroke-linejoin:round;}</style>
 </defs>
 <path class="cls-1" d="m24 15.94-3.5 3.5h-4.94v4.95l-3.5 3.5 3.5 3.49v4.95h4.94l3.5 3.5 3.5-3.5h4.94v-4.95l3.5-3.49-3.5-3.5v-4.95h-4.94z"/>
 <path class="cls-1" d="M38.36,6.19H37.29a1.79,1.79,0,0,0-3.57,0H14.3a1.79,1.79,0,0,0-3.57,0H9.66A2.88,2.88,0,0,0,6.76,9v3.68H41.24V9.06a2.87,2.87,0,0,0-2.86-2.87Z"/>
 <path class="cls-1" d="m41.24 12.71h-34.48v28a2.85 2.85 0 0 0 2.86 2.86h28.74a2.86 2.86 0 0 0 2.88-2.85z"/>
 <path class="cls-1" d="M28.47,30.9A5.39,5.39,0,0,0,24,22.5"/>
 <path class="cls-1" d="M19.53,24.87A5.4,5.4,0,0,0,24,33.28"/>
 <polygon class="cls-1" points="24 23.33 24 25.36 21.21 22.57 24 19.79 24 19.79 24 21.81"/>
 <polygon class="cls-1" points="24 32.44 24 30.42 26.79 33.2 24 35.99 24 33.96"/>
</svg>
