<svg viewBox="0 0 48 48" xmlns="http://www.w3.org/2000/svg">
 <defs>
  <style>.a{fill:none;stroke:#fff;stroke-linecap:round;stroke-linejoin:round;}</style>
 </defs>
 <rect class="a" x="12.3" y="18.81" width="23.4" height="21"/>
 <rect class="a" x="35.7" y="10.19" width="7.8" height="29.63"/>
 <rect class="a" x="4.5" y="10.19" width="7.8" height="29.63"/>
 <line class="a" x1="4.5" x2="4.5" y1="10.19" y2="8.19"/>
 <line class="a" x1="8.4" x2="8.4" y1="10.19" y2="8.19"/>
 <line class="a" x1="8.4" x2="8.4" y1="16.81" y2="14.81"/>
 <line class="a" x1="39.6" x2="39.6" y1="16.81" y2="14.81"/>
 <line class="a" x1="19.5" x2="19.5" y1="26" y2="24"/>
 <line class="a" x1="28.5" x2="28.5" y1="26" y2="24"/>
 <line class="a" x1="12.3" x2="12.3" y1="10.19" y2="8.19"/>
 <line class="a" x1="35.7" x2="35.7" y1="10.19" y2="8.19"/>
 <line class="a" x1="39.6" x2="39.6" y1="10.19" y2="8.19"/>
 <line class="a" x1="43.5" x2="43.5" y1="10.19" y2="8.19"/>
 <line class="a" x1="20.1" x2="20.1" y1="18.81" y2="16.81"/>
 <line class="a" x1="16.2" x2="16.2" y1="18.81" y2="16.81"/>
 <line class="a" x1="24" x2="24" y1="18.81" y2="16.81"/>
 <line class="a" x1="27.9" x2="27.9" y1="18.81" y2="16.81"/>
 <line class="a" x1="31.8" x2="31.8" y1="18.81" y2="16.81"/>
 <path class="a" d="m24 29.81a4.5 4.5 0 0 1 4.5 4.5v5.5h-9v-5.5a4.5 4.5 0 0 1 4.5-4.5z"/>
</svg>
