<svg viewBox="0 0 48 48" xmlns="http://www.w3.org/2000/svg">
 <defs>
  <style>.a{fill:none;stroke:#fff;stroke-linecap:round;stroke-linejoin:round;}</style>
 </defs>
 <path class="a" d="m21.14 16.22a2.8 2.8 0 0 0-2.47 3 2.8 2.8 0 0 0 2.47 3 2.8 2.8 0 0 0 2.47-3 2.8 2.8 0 0 0-2.47-3zm9.06 0a2.81 2.81 0 0 0-2.47 3 2.8 2.8 0 0 0 2.47 3 2.79 2.79 0 0 0 2.47-3 2.8 2.8 0 0 0-2.47-3z"/>
 <path class="a" d="m38.29 19.26a12.61 12.61 0 0 0-25.21 0v2a2.52 2.52 0 0 1-2.52 2.53 2.52 2.52 0 0 1-2.56-2.5 1.92 1.92 0 0 0-1.92-1.92 1.92 1.92 0 0 0-1.93 1.92 1 1 0 0 0 0 0.17 6.37 6.37 0 0 0 6.36 6.21 6.47 6.47 0 0 0 2.53-0.52v10.65a2.1 2.1 0 0 0 4.2 0v-3.31a1.4 1.4 0 0 1 2.8 0v7.29a2.12 2.12 0 0 0 4.16 0v-7.29a1.4 1.4 0 0 1 2.8 0v7.29a2.11 2.11 0 0 0 4.15 0v-7.29a1.4 1.4 0 0 1 2.8 0v3.31a2 2 0 0 0 2.1 2 2 2 0 0 0 2.1-2z"/>
 <line class="a" x1="35.95" x2="32.28" y1="4.84" y2="8.51"/>
 <line class="a" x1="15.41" x2="19.08" y1="4.84" y2="8.51"/>
</svg>
