<svg viewBox="0 0 48 48" xmlns="http://www.w3.org/2000/svg">
 <defs>
  <style>.a{fill:none;stroke:#fff;stroke-linecap:round;stroke-linejoin:round;}</style>
 </defs>
 <path class="a" d="m31.53 28.23 11.55-6-12.22-1.1a20.26 20.26 0 0 1 0.67 7.1z"/>
 <path class="a" d="m20.19 27.59a29.39 29.39 0 0 0 5.61 5.15l-9.06 7.68z"/>
 <path class="a" d="M37.12,21.71c-.3-.73-.41-.95-.91-2.25l7.29.87L40.39,22"/>
 <path class="a" d="M18.78,32.88,14,35,4.5,34.89l7.66-5,5.28-1.09,1.8,2.3"/>
 <path class="a" d="M23.78,34.46l1.85.06-4.94,4.16L20.8,37"/>
 <path class="a" d="M25.63,34.52l10.63-7.36.31-1.52"/>
 <path class="a" d="M12.16,29.89c-1.07,2.33.2,3.8,1.8,5.15"/>
 <path class="a" d="m29.54 18.76 9.58-1.35 4.08-7.63-9.89-0.55-2.81 3.49"/>
 <path class="a" d="m33.31 9.23-5.76-1.65 0.93 5.19"/>
 <path class="a" d="m29.54 18.76-6.4-5.84 7.36-0.2a9.94 9.94 0 0 0-0.96 6.04z"/>
 <path class="a" d="M17.44,28.8,30.91,19"/>
 <path class="a" d="m29.54 18.76a6.67 6.67 0 0 1 4.8 2.69"/>
 <path class="a" d="m36.21 19.46-1.1-1.46"/>
</svg>
