<svg viewBox="0 0 48 48" xmlns="http://www.w3.org/2000/svg">
 <defs>
  <style>.a,.b{fill:none;stroke:#fff;}.a{stroke-miterlimit:7;stroke-width:0.97px;}.b{stroke-linecap:round;stroke-linejoin:round;}</style>
 </defs>
 <circle class="a" cx="24" cy="24" r="21.5"/>
 <line class="b" x1="6" x2="10" y1="18.7" y2="18.7"/>
 <line class="b" x1="6" x2="8.6" y1="22.7" y2="22.7"/>
 <line class="b" x1="6" x2="6" y1="18.7" y2="26.7"/>
 <path class="b" d="m12.7 26.7a2 2 0 0 1-2-2v-1.3a2 2 0 0 1 2-2 2 2 0 0 1 2 2v1.3a2 2 0 0 1-2 2z"/>
 <path class="b" d="m25.4 21.4v3.3a2 2 0 0 0 2 2 2 2 0 0 0 2-2v-3.3"/>
 <line class="b" x1="29.4" x2="29.4" y1="24.7" y2="26.7"/>
 <path class="b" d="m16.8 23.4a2 2 0 0 1 2-2"/>
 <line class="b" x1="16.8" x2="16.8" y1="21.4" y2="26.7"/>
 <path class="b" d="m41.7 25.7a1.94 1.94 0 0 1-1.7 1 2 2 0 0 1-2-2v-1.3a2 2 0 0 1 2-2 2 2 0 0 1 2 2v0.6h-4"/>
 <path class="b" d="m35.7 26.7v-3.3a2 2 0 0 0-2-2 2 2 0 0 0-2 2v3.3"/>
 <line class="b" x1="31.7" x2="31.7" y1="23.4" y2="21.4"/>
 <path class="b" d="M21.7,19.7v6a.94.94,0,0,0,1,1H23"/>
 <line class="b" x1="20.7" x2="22.8" y1="21.4" y2="21.4"/>
</svg>
