<svg viewBox="0 0 48 48" xmlns="http://www.w3.org/2000/svg">
 <defs>
  <style>.a{fill:none;stroke:#fff;stroke-linecap:round;stroke-linejoin:round;}.b{fill:#fff;}</style>
 </defs>
 <path class="a" d="m40.5 5.5h-33a2 2 0 0 0-2 2v33a2 2 0 0 0 2 2h33a2 2 0 0 0 2-2v-33a2 2 0 0 0-2-2z"/>
 <circle class="a" cx="24" cy="24" r="9.5"/>
 <circle class="a" cx="36.5" cy="11.5" r="2.5"/>
 <circle class="a" cx="24" cy="24" r="3.5"/>
 <line class="a" x1="31.1477" x2="42.5" y1="30.25" y2="30.25"/>
 <line class="a" x1="5.5" x2="16.8548" y1="30.25" y2="30.25"/>
 <line class="a" x1="31.1525" x2="42.5" y1="17.75" y2="17.75"/>
 <line class="a" x1="5.5" x2="16.8518" y1="17.75" y2="17.75"/>
 <circle class="b" cx="24" cy="24" r=".75"/>
</svg>
