<svg viewBox="0 0 48 48" xmlns="http://www.w3.org/2000/svg">
 <defs>
  <style>.a{fill:none;stroke:#fff;stroke-linecap:round;stroke-linejoin:round;}</style>
 </defs>
 <path class="a" d="m40.5 42.5h-33a2 2 0 0 1-2-2v-33a2 2 0 0 1 2-2h33a2 2 0 0 1 2 2v33a2 2 0 0 1-2 2z"/>
 <polyline class="a" points="20.35 19.23 17.96 28.77 15.57 19.23 13.19 28.77 10.8 19.23"/>
 <path class="a" d="m34.81 24.83a2.39 2.39 0 0 1 2.39-2.38"/>
 <line class="a" x1="34.81" x2="34.81" y1="22.45" y2="28.77"/>
 <path class="a" d="m25.64 27.57a2.39 2.39 0 0 1-2.08 1.2 2.39 2.39 0 0 1-2.38-2.38v-1.56a2.39 2.39 0 0 1 2.38-2.38 2.39 2.39 0 0 1 2.44 2.38v0.78h-4.82"/>
 <path class="a" d="m32.72 26.39a2.39 2.39 0 0 1-2.38 2.38 2.39 2.39 0 0 1-2.34-2.38v-1.56a2.39 2.39 0 0 1 2.39-2.38 2.39 2.39 0 0 1 2.38 2.38"/>
 <line class="a" x1="32.72" x2="32.72" y1="28.77" y2="22.45"/>
</svg>
