<svg id="Layer_2" data-name="Layer 2" viewBox="0 0 48 48" xmlns="http://www.w3.org/2000/svg">
 <defs>
  <style>.cls-1{fill:none;stroke:#fff;stroke-linecap:round;stroke-linejoin:round;}</style>
 </defs>
 <path class="cls-1" d="m7.48 5.5a2 2 0 0 0-2 2v33a2 2 0 0 0 2 2h33.04a2 2 0 0 0 2-2v-33a2 2 0 0 0-2-2h-33.04z"/>
 <path class="cls-1" d="M31.32,12.12a4.47,4.47,0,1,1-4.47,4.47A4.47,4.47,0,0,1,31.32,12.12ZM20,21l7.22,7.22a.7.7,0,0,0,1,0l1.38-1.38a.71.71,0,0,1,1,0l7.81,7.81a.7.7,0,0,1-.5,1.2H10.08a.7.7,0,0,1-.58-1.1L19,21.13A.7.7,0,0,1,20,21Z"/>
</svg>
