<svg viewBox="0 0 48 48" xmlns="http://www.w3.org/2000/svg">
 <defs>
  <style>.a{fill:none;stroke:#fff;stroke-linecap:round;stroke-linejoin:round;}</style>
 </defs>
 <path class="a" d="m10.66 16.83a2.78 2.78 0 0 1 2.79 2.78v9.86a2.79 2.79 0 0 1-5.57 0v-9.86a2.77 2.77 0 0 1 2.78-2.78z"/>
 <path class="a" d="m37.34 16.83a2.77 2.77 0 0 1 2.78 2.78v9.86a2.79 2.79 0 0 1-5.57 0v-9.86a2.78 2.78 0 0 1 2.79-2.78z"/>
 <path class="a" d="M24,6.82A10.55,10.55,0,0,0,13.45,17.37V33.49a2,2,0,0,0,2,2h17.1a2,2,0,0,0,2-2V17.37A10.55,10.55,0,0,0,24,6.82Z"/>
 <path class="a" d="m22.84 35.5v5.22a2.79 2.79 0 0 1-2.78 2.78 2.8 2.8 0 0 1-2.79-2.78v-5.22"/>
 <path class="a" d="m30.73 35.5v5.22a2.8 2.8 0 0 1-2.79 2.78 2.79 2.79 0 0 1-2.78-2.78v-5.22"/>
 <line class="a" x1="17.27" x2="30.73" y1="35.5" y2="35.5"/>
 <line class="a" x1="17.09" x2="19.01" y1="4.5" y2="8.07"/>
 <line class="a" x1="30.91" x2="28.89" y1="4.5" y2="8.02"/>
</svg>
