<svg id="Layer_2" data-name="Layer 2" viewBox="0 0 48 48" xmlns="http://www.w3.org/2000/svg">
 <defs>
  <style>.cls-1{fill:none;stroke:#fff;stroke-linecap:round;stroke-linejoin:round;}</style>
 </defs>
 <path class="cls-1" d="m15.89 22.47a3.11 3.11 0 0 0-3.28-3.11 3.23 3.23 0 0 0-2.94 3.28v2.88a3.11 3.11 0 0 0 3.11 3.11 3.11 3.11 0 0 0 3.11-3.11h-3.11"/>
 <polyline class="cls-1" points="19.28 28.63 19.28 19.36 23.91 28.64 28.54 19.37 28.54 28.64"/>
 <polyline class="cls-1" points="31.93 19.36 35.04 24 31.93 28.64"/>
 <polyline class="cls-1" points="38.15 19.36 35.04 24 38.15 28.64"/>
 <path class="cls-1" d="m43.5 37.5v-27a2 2 0 0 0-2-2h-35a2 2 0 0 0-2 2v27a2 2 0 0 0 2 2h35a2 2 0 0 0 2-2z"/>
</svg>
