<svg id="Layer_2" data-name="Layer 2" viewBox="0 0 48 48" xmlns="http://www.w3.org/2000/svg">
 <defs>
  <style>.cls-1{fill:none;stroke:#fff;stroke-linecap:round;stroke-linejoin:round;}</style>
 </defs>
 <path class="cls-1" d="m21.05 30.31h-2.81v7.13a5.61 5.61 0 0 1-11.13 0v-12.62a5.61 5.61 0 0 1 5.61-5.61h8.41a5.61 5.61 0 0 1 0 11.13zm14.56-14.37h-23a5.61 5.61 0 0 1-1.35-11.13 6.27 6.27 0 0 1 1.37 0h23m5.57 32.63a5.61 5.61 0 0 1-11.13 1.37 5.24 5.24 0 0 1 0-1.37v-12.62a5.61 5.61 0 1 1 11.13-1.37 6.27 6.27 0 0 1 0 1.37zm-5.61-21.5a5.57 5.57 0 1 1 5.57-5.56 5.57 5.57 0 0 1-5.57 5.56z"/>
</svg>
