<svg viewBox="0 0 48 48" xmlns="http://www.w3.org/2000/svg">
 <defs>
  <style>.a{fill:none;stroke:#fff;stroke-linecap:round;stroke-linejoin:round;}</style>
 </defs>
 <line class="a" x1="21.4" x2="25.57" y1="42.49" y2="42.49"/>
 <line class="a" x1="21.4" x2="25.57" y1="34.15" y2="34.15"/>
 <line class="a" x1="21.4" x2="24.11" y1="38.32" y2="38.32"/>
 <line class="a" x1="21.4" x2="21.4" y1="34.15" y2="42.49"/>
 <line class="a" x1="7.5" x2="11.67" y1="34.15" y2="34.15"/>
 <line class="a" x1="7.5" x2="10.21" y1="38.32" y2="38.32"/>
 <line class="a" x1="7.5" x2="7.5" y1="34.15" y2="42.49"/>
 <line class="a" x1="34.98" x2="34.98" y1="34.15" y2="42.49"/>
 <line class="a" x1="40.5" x2="40.5" y1="34.15" y2="42.49"/>
 <line class="a" x1="34.98" x2="40.5" y1="38.32" y2="38.32"/>
 <path class="a" d="m27.34 41.55a2.49 2.49 0 0 0 2.09 0.94h1.25a2.08 2.08 0 0 0 2.08-2.08 2.09 2.09 0 0 0-2.08-2.09h-1.36a2.09 2.09 0 0 1-2.08-2.08 2.09 2.09 0 0 1 2.08-2.09h1.25a2.24 2.24 0 0 1 2.09 0.94"/>
 <path class="a" d="m13.73 42.49v-8.34h2.71a2.82 2.82 0 0 1 0 5.63h-2.71"/>
 <line class="a" x1="16.63" x2="19.25" y1="39.77" y2="42.49"/>
 <path class="a" d="m16.85 15.44a3 3 0 0 0-3.09-3 3.12 3.12 0 0 0-2.76 3.11v2.76a3 3 0 0 0 3 3 3 3 0 0 0 3-3h-3"/>
 <path class="a" d="m29.47 19.08a2.22 2.22 0 0 1-2.21 2.21 2.22 2.22 0 0 1-2.2-2.21v-1.43a2.21 2.21 0 0 1 2.2-2.21 2.21 2.21 0 0 1 2.21 2.21"/>
 <line class="a" x1="29.47" x2="29.47" y1="21.29" y2="15.44"/>
 <path class="a" d="m36.26 21.29v-3.64a2.21 2.21 0 0 0-2.2-2.21 2.21 2.21 0 0 0-2.21 2.21v3.64"/>
 <line class="a" x1="31.85" x2="31.85" y1="17.65" y2="15.44"/>
 <ellipse class="a" cx="24" cy="18.36" rx="18.5" ry="12.85"/>
 <line class="a" x1="21.23" x2="18.92" y1="21.29" y2="15.44"/>
 <path class="a" d="M33.22,7.22c-6-1.51-8.53,4.46-9.89,8.22l-2.76,7.94a1.3,1.3,0,0,1-1.21.89H19"/>
</svg>
