<svg id="Layer_2" data-name="Layer 2" viewBox="0 0 48 48" xmlns="http://www.w3.org/2000/svg">
 <defs>
  <style>.cls-1{fill:none;stroke:#fff;stroke-linecap:round;stroke-linejoin:round;}</style>
 </defs>
 <path class="cls-1" d="m43.5 22.83c0-8.68-8.73-15.71-19.5-15.71-10.26 0-18.76 6.41-19.45 14.66v1c-0.05 8.22 7.62 14.86 17.45 15.67 2 0.1 1.82 0.31 1.82 1.62s-0.05 2.83-0.05 2.83c0 0.92 0.51 1 1.19 1 1.3 0 6.37-3.19 9.07-5.46a30.93 30.93 0 0 0 7.79-9.21 13.28 13.28 0 0 0 1.65-5.32c0.01-0.38 0.03-0.73 0.03-1.08zm-13.14 9.39a3.06 3.06 0 0 1-3.06-3.06 3.07 3.07 0 1 1 3.06 3.06zm-6.02-13.22a4.35 4.35 0 0 1 4.35-4.35 4.35 4.35 0 0 1 4.31 4.35 4.35 4.35 0 1 1-8.7 0zm-7 11.72a5.66 5.66 0 1 1 5.66-5.62 5.66 5.66 0 0 1-5.63 5.66z"/>
</svg>
