<svg viewBox="0 0 48 48" xmlns="http://www.w3.org/2000/svg">
 <defs>
  <style>.a{fill:none;stroke:#fff;stroke-linecap:round;stroke-linejoin:round;}</style>
 </defs>
 <path class="a" d="m40.5 5.5h-33a2 2 0 0 0-2 2v33a2 2 0 0 0 2 2h33a2 2 0 0 0 2-2v-33a2 2 0 0 0-2-2z"/>
 <polyline class="a" points="24.73 12.5 24.73 35.5 36.23 35.5"/>
 <line class="a" x1="11.77" x2="16.77" y1="35.5" y2="35.5"/>
 <line class="a" x1="11.77" x2="16.77" y1="12.5" y2="12.5"/>
 <line class="a" x1="22.23" x2="27.23" y1="12.5" y2="12.5"/>
 <line class="a" x1="36.23" x2="36.23" y1="29.99" y2="35.5"/>
 <line class="a" x1="14.27" x2="14.27" y1="12.5" y2="35.5"/>
 <line class="a" x1="22.23" x2="24.73" y1="35.5" y2="35.5"/>
</svg>
