<svg id="Layer_2" data-name="Layer 2" viewBox="0 0 48 48" xmlns="http://www.w3.org/2000/svg">
 <defs>
  <style>.cls-1{fill:none;stroke:#fff;stroke-linecap:round;stroke-linejoin:round;}</style>
 </defs>
 <path class="cls-1" d="m35.38 10.46a2.19 2.19 0 1 0 2.16 2.22v-0.06a2.18 2.18 0 0 0-2.16-2.16z"/>
 <path class="cls-1" d="M40.55,5.5H7.45a2,2,0,0,0-1.95,2v33.1a2,2,0,0,0,2,2h33.1a2,2,0,0,0,2-2V7.45A2,2,0,0,0,40.55,5.5Z"/>
 <path class="cls-1" d="m24 15.72a8.28 8.28 0 1 0 8.28 8.28 8.28 8.28 0 0 0-8.28-8.28z"/>
</svg>
