<svg viewBox="0 0 48 48" xmlns="http://www.w3.org/2000/svg">
 <defs>
  <style>.a{fill:none;stroke:#fff;stroke-linecap:round;stroke-linejoin:round;}</style>
 </defs>
 <rect class="a" x="8.4" y="4.5" width="31.2" height="39" rx="1.95"/>
 <line class="a" x1="11.4" x2="15.01" y1="8.5" y2="8.5"/>
 <line class="a" x1="11.4" x2="15.01" y1="13.32" y2="13.32"/>
 <line class="a" x1="11.4" x2="15.01" y1="18.14" y2="18.14"/>
 <line class="a" x1="18.6" x2="22.2" y1="8.5" y2="8.5"/>
 <line class="a" x1="18.6" x2="22.2" y1="13.32" y2="13.32"/>
 <line class="a" x1="18.6" x2="22.2" y1="18.14" y2="18.14"/>
 <line class="a" x1="25.8" x2="29.4" y1="8.5" y2="8.5"/>
 <line class="a" x1="25.8" x2="29.4" y1="13.32" y2="13.32"/>
 <line class="a" x1="25.8" x2="29.4" y1="18.14" y2="18.14"/>
 <line class="a" x1="32.99" x2="36.6" y1="8.5" y2="8.5"/>
 <line class="a" x1="32.99" x2="36.6" y1="13.32" y2="13.32"/>
 <line class="a" x1="32.99" x2="36.6" y1="18.14" y2="18.14"/>
 <line class="a" x1="11.4" x2="15.01" y1="25.04" y2="25.04"/>
 <line class="a" x1="11.4" x2="15.01" y1="29.86" y2="29.86"/>
 <line class="a" x1="11.4" x2="15.01" y1="34.68" y2="34.68"/>
 <line class="a" x1="11.4" x2="15.01" y1="39.5" y2="39.5"/>
 <line class="a" x1="18.6" x2="22.2" y1="25.04" y2="25.04"/>
 <line class="a" x1="18.6" x2="22.2" y1="29.86" y2="29.86"/>
 <line class="a" x1="18.6" x2="22.2" y1="34.68" y2="34.68"/>
 <line class="a" x1="18.6" x2="22.2" y1="39.5" y2="39.5"/>
 <line class="a" x1="25.8" x2="29.4" y1="25.04" y2="25.04"/>
 <line class="a" x1="25.8" x2="29.4" y1="29.86" y2="29.86"/>
 <line class="a" x1="25.8" x2="29.4" y1="34.68" y2="34.68"/>
 <line class="a" x1="25.8" x2="29.4" y1="39.5" y2="39.5"/>
 <line class="a" x1="32.99" x2="36.6" y1="25.04" y2="25.04"/>
 <line class="a" x1="32.99" x2="36.6" y1="29.86" y2="29.86"/>
 <line class="a" x1="32.99" x2="36.6" y1="34.68" y2="34.68"/>
 <line class="a" x1="32.99" x2="36.6" y1="39.5" y2="39.5"/>
</svg>
