<svg viewBox="0 0 48 48" xmlns="http://www.w3.org/2000/svg">
 <defs>
  <style>.a{fill:none;stroke:#fff;stroke-linecap:round;stroke-linejoin:round;}.b{fill:#fff;}</style>
 </defs>
 <path class="a" d="M7.1767,19.3446h6.5185A1.9859,1.9859,0,0,1,15.6811,21.33v5.9341A1.9859,1.9859,0,0,1,13.6952,29.25H7.1767a1.9858,1.9858,0,0,1-1.9858-1.9858V21.33A1.9858,1.9858,0,0,1,7.1767,19.3446Z"/>
 <path class="a" d="m20.74 19.3446h6.5184a1.9859 1.9859 0 0 1 1.9863 1.9854v5.9341a1.9859 1.9859 0 0 1-1.9859 1.9859h-6.5188a1.9859 1.9859 0 0 1-1.9859-1.9858v-5.9342a1.9859 1.9859 0 0 1 1.9859-1.9854z"/>
 <path class="a" d="m34.3048 19.3446h6.5185a1.9858 1.9858 0 0 1 1.9858 1.9854v5.9341a1.9858 1.9858 0 0 1-1.9858 1.9859h-6.5185a1.9859 1.9859 0 0 1-1.9859-1.9858v-5.9342a1.9859 1.9859 0 0 1 1.9859-1.9854z"/>
 <path class="a" d="M28.0027,32.5942h6.5184A1.9859,1.9859,0,0,1,36.507,34.58v5.934A1.9859,1.9859,0,0,1,34.5211,42.5H28.0027a1.9859,1.9859,0,0,1-1.9859-1.9859h0V34.58a1.9859,1.9859,0,0,1,1.9859-1.9859Z"/>
 <path class="a" d="m28.0027 6.0959h6.5184a1.9859 1.9859 0 0 1 1.9859 1.9858v5.9341a1.9859 1.9859 0 0 1-1.9859 1.9859h-6.5184a1.9859 1.9859 0 0 1-1.9859-1.9859v-5.9341a1.9859 1.9859 0 0 1 1.9859-1.9858z"/>
 <line class="a" x1="22.7375" x2="25.2623" y1="26.822" y2="26.822"/>
 <line class="a" x1="22.7375" x2="25.2623" y1="21.7724" y2="21.7724"/>
 <line class="a" x1="22.7375" x2="24.3786" y1="24.2972" y2="24.2972"/>
 <line class="a" x1="22.7375" x2="22.7375" y1="21.7724" y2="26.822"/>
 <path class="a" d="m39.203 23.4794a1.7112 1.7112 0 0 0-1.7674-1.7042 1.7781 1.7781 0 0 0-1.578 1.7674v1.578a1.7043 1.7043 0 0 0 3.4085 0h-1.7042"/>
 <line class="a" x1="29.5894" x2="32.9345" y1="35.0219" y2="40.072"/>
 <line class="a" x1="32.9345" x2="29.5894" y1="35.0219" y2="40.072"/>
 <path class="a" d="M29.589,13.5731V8.5236H31.23a1.7043,1.7043,0,1,1,0,3.4085H29.589"/>
 <line class="a" x1="31.2931" x2="32.9343" y1="11.8696" y2="13.5738"/>
 <circle class="b" cx="34.4388" cy="8.3002" r=".75"/>
 <path class="a" d="M8.7636,26.8223V21.7728h1.6411a1.7043,1.7043,0,1,1,0,3.4085H8.7636"/>
 <line class="a" x1="10.4678" x2="12.1089" y1="25.1188" y2="26.823"/>
 <line class="a" x1="16.4354" x2="18.9602" y1="40.0717" y2="40.0717"/>
 <line class="a" x1="16.4354" x2="18.9602" y1="35.0221" y2="35.0221"/>
 <line class="a" x1="16.4354" x2="18.0766" y1="37.5469" y2="37.5469"/>
 <line class="a" x1="16.4354" x2="16.4354" y1="35.0221" y2="40.0717"/>
 <line class="a" x1="17.0441" x2="18.351" y1="8.7596" y2="13.6371"/>
 <path class="a" d="m13.2674 7.2553 6.2964-1.6871a1.9859 1.9859 0 0 1 2.4322 1.4042l1.5358 5.7318a1.9859 1.9859 0 0 1-1.4042 2.4322l-6.2964 1.6871a1.9859 1.9859 0 0 1-2.4322-1.4042l-1.5358-5.7319a1.9857 1.9857 0 0 1 1.4042-2.4321z"/>
 <path class="a" d="m14.4382 32.5942h6.5185a1.9859 1.9859 0 0 1 1.9859 1.9858v5.934a1.9859 1.9859 0 0 1-1.9859 1.986h-6.5185a1.9859 1.9859 0 0 1-1.9858-1.9859v-5.9341a1.9859 1.9859 0 0 1 1.9858-1.9858z"/>
 <circle class="b" cx="19.9559" cy="7.7132" r=".75"/>
</svg>
