<svg viewBox="0 0 48 48" xmlns="http://www.w3.org/2000/svg">
 <defs>
  <style>.a{fill:none;stroke:#fff;stroke-linecap:round;stroke-linejoin:round;}</style>
 </defs>
 <path class="a" d="m40 5.5h-33a2 2 0 0 0-2 2v33a2 2 0 0 0 2 2h33a2 2 0 0 0 2-2v-33a2 2 0 0 0-2-2z"/>
 <polyline class="a" points="25.5 9 25.5 28.77 35.39 28.77"/>
 <path class="a" d="m12.61 9h9.89v14.83a5 5 0 0 1-4.95 4.94 4.94 4.94 0 0 1-4.94-4.94v-1.64"/>
 <line class="a" x1="30.1" x2="33.71" y1="38.98" y2="38.98"/>
 <line class="a" x1="30.1" x2="33.71" y1="31.77" y2="31.77"/>
 <line class="a" x1="30.1" x2="32.45" y1="35.38" y2="35.38"/>
 <line class="a" x1="30.1" x2="30.1" y1="31.77" y2="38.98"/>
 <polyline class="a" points="20.93 38.99 20.93 31.79 24.53 39 28.14 31.8 28.14 39"/>
 <path class="a" d="M14.29,34.18a2.39,2.39,0,0,1,4.78,0,2.24,2.24,0,0,1-.7,1.69c-1,.85-4.08,3.13-4.08,3.13h4.78"/>
</svg>
