<svg viewBox="0 0 48 48" xmlns="http://www.w3.org/2000/svg">
 <defs>
  <style>.a{fill:none;stroke:#fffff5;stroke-linecap:round;stroke-linejoin:round;}</style>
 </defs>
 <path class="a" d="m6.66 19.22h35.84v19.55a3.66 3.66 0 0 1-3.66 3.66h-28.52a3.66 3.66 0 0 1-3.66-3.66v-19.55z"/>
 <path class="a" d="M30,30.42l-7.76-4.87a.49.49,0,0,0-.75.41V35.7a.49.49,0,0,0,.75.41L30,31.24A.49.49,0,0,0,30,30.42Z"/>
 <path class="a" d="m37.52 5.92-1.06 4.27-5.22 1 1.06-4.31-5.45 1-1.06 4.26-5.22 1 1.05-4.26-5.44 1-1.06 4.27-5.23 1 1.11-4.34-4.45 0.82a1.22 1.22 0 0 0-1 1.42l1.14 6.17 35.25-6.48-1.17-6.18a1.22 1.22 0 0 0-1.42-1z"/>
</svg>
