<svg id="Layer_2" data-name="Layer 2" viewBox="0 0 48 48" xmlns="http://www.w3.org/2000/svg">
 <defs>
  <style>.cls-1{fill:none;stroke:#fff;stroke-linecap:round;stroke-linejoin:round;stroke-width:1.05px;}</style>
 </defs>
 <ellipse class="cls-1" transform="translate(-9.23 31.82) rotate(-64.44)" cx="20.63" cy="23.24" rx="18.48" ry="14.02"/>
 <line class="cls-1" x1="19.47" x2="12.66" y1="25.67" y2="39.91"/>
 <line class="cls-1" x1="28.6" x2="21.79" y1="6.57" y2="20.81"/>
 <line class="cls-1" x1="18.57" x2="5.74" y1="23.96" y2="28.5"/>
 <line class="cls-1" x1="35.53" x2="22.69" y1="17.98" y2="22.51"/>
 <line class="cls-1" x1="18.93" x2="7.98" y1="22.43" y2="17.19"/>
 <line class="cls-1" x1="33.28" x2="22.33" y1="29.29" y2="24.05"/>
 <line class="cls-1" x1="19.87" x2="15.37" y1="21.08" y2="8.34"/>
 <line class="cls-1" x1="25.89" x2="21.36" y1="38.13" y2="25.3"/>
 <ellipse class="cls-1" transform="translate(-9.23 31.82) rotate(-64.44)" cx="20.63" cy="23.24" rx="2.7" ry="1.88"/>
 <path class="cls-1" d="M19.47,25.67c-.51,1.07-3.93,2-4.52,3.22a1.24,1.24,0,0,0,.66,1.87A1.29,1.29,0,0,0,17.39,30"/>
 <path class="cls-1" d="m28.6 6.57c11.14 5.33 16.6 17.11 12.2 26.31s-17 12.35-28.14 7"/>
</svg>
