<svg viewBox="0 0 48 48" xmlns="http://www.w3.org/2000/svg">
 <defs>
  <style>.a{fill:none;stroke:#fff;stroke-linecap:round;stroke-linejoin:round;}</style>
 </defs>
 <path class="a" d="m10.35 4.5a2 2 0 0 0-1.95 2v35.1a2 2 0 0 0 1.95 2h27.3a2 2 0 0 0 2-2v-35.15a2 2 0 0 0-2-1.95zm7.19 5.21a3.75 3.75 0 0 1 3.75 3.75 3.75 3.75 0 1 1-3.75-3.75z"/>
 <line class="a" x1="13.8" x2="34.2" y1="24" y2="24"/>
 <line class="a" x1="13.8" x2="34.2" y1="30.32" y2="30.32"/>
 <line class="a" x1="13.8" x2="34.2" y1="36.64" y2="36.64"/>
</svg>
