<svg viewBox="0 0 48 48" xmlns="http://www.w3.org/2000/svg">
 <defs>
  <style>.a{fill:none;stroke:#fff;stroke-linecap:round;stroke-linejoin:round;}</style>
 </defs>
 <path class="a" d="m41.5 7.59h-35a2 2 0 0 0-2 2v22.5a2 2 0 0 0 2 2h3.16v6.32l6.34-6.32h25.5a2 2 0 0 0 2-2v-22.5a2 2 0 0 0-2-2z"/>
 <line class="a" x1="8.56" x2="8.56" y1="12.4" y2="29.4"/>
 <line class="a" x1="8.57" x2="16.26" y1="25.78" y2="18.13"/>
 <line class="a" x1="11.01" x2="17.06" y1="23.35" y2="29.37"/>
 <line class="a" x1="27.54" x2="27.54" y1="12.4" y2="29.4"/>
 <line class="a" x1="27.54" x2="35.23" y1="25.78" y2="18.13"/>
 <line class="a" x1="29.99" x2="36.04" y1="23.35" y2="29.37"/>
 <line class="a" x1="22.3" x2="22.3" y1="18.13" y2="29.4"/>
 <circle class="a" cx="39.02" cy="23.97" r="1.98"/>
</svg>
