<svg id="Layer_2" data-name="Layer 2" viewBox="0 0 48 48" xmlns="http://www.w3.org/2000/svg">
 <defs>
  <style>.cls-1{fill:none;stroke:#fff;stroke-linecap:round;stroke-linejoin:round;}</style>
 </defs>
 <path class="cls-1" d="m40.5 5.5h-33a2 2 0 0 0-2 2v33a2 2 0 0 0 2 2h33a2 2 0 0 0 2-2v-33a2 2 0 0 0-2-2z"/>
 <line class="cls-1" x1="14.98" x2="14.98" y1="37.5" y2="10.5"/>
 <path class="cls-1" d="M15,10.5H26.29A6.74,6.74,0,0,1,33,17.25h0A6.74,6.74,0,0,1,26.29,24H15"/>
 <path class="cls-1" d="M15,24H26.29A6.74,6.74,0,0,1,33,30.75h0a6.74,6.74,0,0,1-6.73,6.75H15"/>
</svg>
