<svg id="Layer_2" data-name="Layer 2" viewBox="0 0 48 48" xmlns="http://www.w3.org/2000/svg">
 <defs>
  <style>.cls-1,.cls-2{fill:none;stroke:#fff;}.cls-2{stroke-linecap:round;stroke-linejoin:round;}</style>
 </defs>
 <path class="cls-1" d="m38.3 23.47-3.38-3.47a1.14 1.14 0 0 0-1.63-0.23 34.74 34.74 0 0 1-3 2.05 1.81 1.81 0 0 0-1 1.44v2.92a16.58 16.58 0 0 1-5.29 0.82 17.18 17.18 0 0 1-5.27-0.93v-2.91a1.8 1.8 0 0 0-1-1.46 34.91 34.91 0 0 1-3-2.12 1.15 1.15 0 0 0-1.64 0.19l-3.39 3.4a0.85 0.85 0 0 0 0 1.1c2.82 3.35 7.84 5 8.82 5.27l0.15 0.05a20.23 20.23 0 0 0 10.45 0.1s5.9-1.48 9.12-5.13a0.86 0.86 0 0 0 0.06-1.09z"/>
 <path class="cls-2" d="M38.19,34.26A17.5,17.5,0,0,0,16.62,8.12L7.45,5.5,9.8,13.75A17.5,17.5,0,0,0,31.38,39.88l9.16,2.62Z"/>
</svg>
