<svg viewBox="0 0 48 48" xmlns="http://www.w3.org/2000/svg">
 <defs>
  <style>.a{fill:none;stroke:#fff;stroke-linecap:round;stroke-linejoin:round;}</style>
 </defs>
 <path class="a" d="m40.5 5.5h-33a2 2 0 0 0-2 2v33a2 2 0 0 0 2 2h33a2 2 0 0 0 2-2v-33a2 2 0 0 0-2-2z"/>
 <circle class="a" cx="24" cy="24" r="4.87"/>
 <line class="a" x1="19.13" x2="5.5" y1="24" y2="24"/>
 <line class="a" x1="24" x2="24" y1="19.13" y2="5.5"/>
 <line class="a" x1="28.87" x2="42.5" y1="24" y2="24"/>
 <line class="a" x1="24" x2="24" y1="28.87" y2="42.5"/>
 <line class="a" x1="27.44" x2="41.91" y1="20.56" y2="6.09"/>
 <line class="a" x1="20.56" x2="6.09" y1="27.44" y2="41.91"/>
</svg>
