<svg viewBox="0 0 48 48" xmlns="http://www.w3.org/2000/svg">
 <defs>
  <style>.a{fill:none;stroke:#fff;stroke-linecap:round;stroke-linejoin:round;}</style>
 </defs>
 <path class="a" d="m40.5 42.5h-33a2.0059 2.0059 0 0 1-2-2v-33a2.0059 2.0059 0 0 1 2-2h33a2.0059 2.0059 0 0 1 2 2v33a2.0059 2.0059 0 0 1-2 2z"/>
 <polyline class="a" points="15.58 16.976 12.217 31.024 19.241 31.024"/>
 <path class="a" d="m23.5413 31.0245 3.3628-14.049h4.5993a3.5978 3.5978 0 0 1 3.5787 4.7183 6.357 6.357 0 0 1-5.8374 4.7182h-4.5994"/>
</svg>
