<svg viewBox="0 0 48 48" xmlns="http://www.w3.org/2000/svg">
 <defs>
  <style>.a,.b{fill:none;stroke:#fff;}.a{stroke-linecap:round;stroke-linejoin:round;}</style>
 </defs>
 <path class="a" d="M17.13,18.75a8.06,8.06,0,0,1-2.3-9,8.14,8.14,0,0,1,15.3.1,8.31,8.31,0,0,1-2.5,9"/>
 <path class="b" d="m13.53 32.25 6.5 1.4v-20.65a2.36 2.36 0 1 1 4.7 0v11.6h2.4l9.5 4.8a2.53 2.53 0 0 1 0.9 2.2l-1.53 10.25a2.74 2.74 0 0 1-1.9 1.7h-13.17a2.06 2.06 0 0 1-1.8-1l-8.7-8.7 1.1-1.1c0.4-0.7 1.1-0.6 2-0.5z"/>
</svg>
