<svg viewBox="0 0 48 48" xmlns="http://www.w3.org/2000/svg">
 <defs>
  <style>.a{fill:none;stroke:#fff;stroke-linecap:round;stroke-linejoin:round;}</style>
 </defs>
 <path class="a" d="m13.78 8.56 18.82-2.89a6.71 6.71 0 0 1 7.68 6l2.31 25a5 5 0 0 1-5.39 5.47l-24.64-1.93a7.53 7.53 0 0 1-6.87-8.56l2.47-17.41a6.7 6.7 0 0 1 5.62-5.68z"/>
 <path class="a" d="m10.82 24.13a2 2 0 0 1 2-2 2 2 0 0 1 2 2v3.13"/>
 <line class="a" x1="10.82" x2="10.82" y1="22.17" y2="27.26"/>
 <path class="a" d="m14.73 24.13a2 2 0 0 1 2-2 2 2 0 0 1 2 2v3.13"/>
 <path class="a" d="m26.08 24a2 2 0 0 1 2-2"/>
 <line class="a" x1="26.08" x2="26.08" y1="22.08" y2="27.26"/>
 <line class="a" x1="29.5" x2="29.5" y1="19.43" y2="27.26"/>
 <line class="a" x1="29.5" x2="33.04" y1="25.6" y2="22.07"/>
 <line class="a" x1="30.63" x2="33.41" y1="24.48" y2="27.25"/>
 <path class="a" d="m24.29 25.3a2 2 0 0 1-1.95 2 2 2 0 0 1-2-2v-1.3a2 2 0 0 1 2-2 2 2 0 0 1 1.95 2"/>
 <line class="a" x1="24.29" x2="24.29" y1="27.26" y2="22.08"/>
 <path class="a" d="M35.91,20.46v5.82a1,1,0,0,0,1,1h.3"/>
 <line class="a" x1="34.88" x2="36.93" y1="22.08" y2="22.08"/>
</svg>
