<svg viewBox="0 0 48 48" xmlns="http://www.w3.org/2000/svg">
 <defs>
  <style>.a{fill:none;stroke:#fff;stroke-linecap:round;stroke-linejoin:round;}</style>
 </defs>
 <path class="a" d="m40.5 5.5h-33a2 2 0 0 0-2 2v33a2 2 0 0 0 2 2h33a2 2 0 0 0 2-2v-33a2 2 0 0 0-2-2z"/>
 <path class="a" d="M26.83,21.77a5.14,5.14,0,1,1,0,10.27H18.36V11.5h8.47a5.14,5.14,0,1,1,0,10.27Z"/>
 <line class="a" x1="26.83" x2="18.36" y1="21.77" y2="21.77"/>
 <line class="a" x1="16.03" x2="31.97" y1="36.5" y2="36.5"/>
 <line class="a" x1="18.36" x2="16.03" y1="11.5" y2="11.5"/>
 <line class="a" x1="18.36" x2="16.03" y1="32.04" y2="32.04"/>
</svg>
