<svg viewBox="0 0 48 48" xmlns="http://www.w3.org/2000/svg">
 <defs>
  <style>.a{fill:none;stroke:#fff;stroke-linecap:round;stroke-linejoin:round;}</style>
 </defs>
 <path class="a" d="M22.46,22.69A7.21,7.21,0,0,0,9.57,26.9,6.45,6.45,0,0,0,4.5,33.2c0,2.74,1.64,6.46,6.92,6.46h17a5.05,5.05,0,0,0,4.46-7.44"/>
 <circle class="a" cx="30.41" cy="24.43" r="6.25"/>
 <line class="a" x1="30.41" x2="30.41" y1="11.34" y2="16.63"/>
 <line class="a" x1="39.67" x2="35.93" y1="15.17" y2="18.91"/>
 <line class="a" x1="43.5" x2="38.21" y1="24.43" y2="24.43"/>
 <line class="a" x1="39.67" x2="35.93" y1="33.68" y2="29.94"/>
 <line class="a" x1="21.16" x2="24.9" y1="15.17" y2="18.91"/>
 <line class="a" x1="8.95" x2="8.95" y1="15.71" y2="10.94"/>
 <line class="a" x1="6.56" x2="11.34" y1="13.33" y2="13.33"/>
 <path class="a" d="m9 18.89c4.71-1.81 4.47-5.42 4.44-7.6v-1.64a16.81 16.81 0 0 0-4.44-0.76 16.81 16.81 0 0 0-4.44 0.76s0 1.22 0 1.64c-0.08 2.18-0.32 5.79 4.44 7.6z"/>
</svg>
