<svg viewBox="0 0 48 48" xmlns="http://www.w3.org/2000/svg">
 <defs>
  <style>.a{fill:none;stroke:#fff;stroke-linecap:round;stroke-linejoin:round;}</style>
 </defs>
 <path class="a" d="M33.67,4.84v23h6.89V10.43"/>
 <path class="a" d="M18.24,45.45A21.87,21.87,0,0,1,2.71,21.37,21.61,21.61,0,0,1,24.09,2.5,21.63,21.63,0,0,1,45.32,21.56,21.87,21.87,0,0,1,29.58,45.5"/>
 <path class="a" d="m29.58 45.5-1-4.18h-9.41l-0.93 4.13"/>
 <path class="a" d="M14,5v22.8H7.12v-17"/>
 <path class="a" d="m27.23 2.76v25.06h-6.84v-25"/>
 <path class="a" d="m10.7 27.82v13.74"/>
 <path class="a" d="m36.89 27.82v14.07"/>
 <path class="a" d="m23.84 27.82v13.49"/>
</svg>
