<svg viewBox="0 0 48 48" xmlns="http://www.w3.org/2000/svg">
 <defs>
  <style>.a,.b{fill:none;stroke:#fff;}.a{stroke-linecap:round;stroke-linejoin:round;}.b{stroke-miterlimit:10;}</style>
 </defs>
 <path class="a" d="m13.1 16.35c0.5-13.2 20.7-14.5 22 0-5.7 2.5-16.8 2-22 0z"/>
 <path class="a" d="m18.5 7.45-2.1-3"/>
 <path class="a" d="m29.8 7.45 2.1-3"/>
 <circle class="b" cx="19.1" cy="12.35" r="1.1"/>
 <circle class="b" cx="28.9" cy="12.35" r="1.1"/>
 <path class="a" d="M35.1,16.35l-.2,18.9a19.49,19.49,0,0,1-21.7,0l-.1-18.9"/>
 <path class="a" d="M16.6,37.35V42a1.58,1.58,0,0,0,1.6,1.6H20A1.58,1.58,0,0,0,21.6,42v-3.4"/>
 <path class="a" d="m27.1 38.35v3.5a1.58 1.58 0 0 0 1.6 1.6h1.8a1.58 1.58 0 0 0 1.6-1.6v-5"/>
 <path class="a" d="m23.9 21.05-5.5 2.8 5.5 2.8 5.7-2.8z"/>
 <path class="a" d="m29.6 23.85v6.3l-5.6 3-5.5-3v-6.3"/>
 <line class="a" x1="23.9" x2="23.9" y1="26.65" y2="33.05"/>
 <path class="a" d="m10.2 33.45h-2.2a1.11 1.11 0 0 1-1.1-1.1v-14a1.11 1.11 0 0 1 1.1-1.1h2.1a1.11 1.11 0 0 1 1.1 1.1v14a1 1 0 0 1-1 1.1z"/>
 <path class="a" d="m40 33.45h-2.1a1.11 1.11 0 0 1-1.1-1.1v-14a1.11 1.11 0 0 1 1.1-1.1h2.1a1.11 1.11 0 0 1 1.1 1.1v14a1.11 1.11 0 0 1-1.1 1.1z"/>
</svg>
