<svg viewBox="0 0 48 48" xmlns="http://www.w3.org/2000/svg">
 <defs>
  <style>.a{fill:none;stroke:#fff;stroke-linecap:round;stroke-linejoin:round;}</style>
 </defs>
 <path class="a" d="m28.68 19.4a3.15 3.15 0 0 0-3.31-3.14 3.27 3.27 0 0 0-3 3.32v2.91a3.15 3.15 0 0 0 3.15 3.14 3.15 3.15 0 0 0 3.14-3.14v-3.09"/>
 <polyline class="a" points="10.84 25.63 10.84 16.26 15.51 25.64 20.19 16.27 20.19 25.64"/>
 <path class="a" d="m30.88 25.63v-9.39h1.59a4.69 4.69 0 0 1 4.69 4.7 4.69 4.69 0 0 1-4.69 4.69z"/>
 <path class="a" d="M22.2,4.86,6.69,11.25V27C6.69,35.44,24,43.5,24,43.5S41.31,35.44,41.31,27V11.25L25.8,4.86A4.68,4.68,0,0,0,22.2,4.86Z"/>
</svg>
