<svg id="Layer_2" data-name="Layer 2" viewBox="0 0 48 48" xmlns="http://www.w3.org/2000/svg">
 <defs>
  <style>.cls-1{fill:none;stroke:#fff;stroke-linecap:round;stroke-linejoin:round;}.cls-2{fill:#fff;}</style>
 </defs>
 <rect class="cls-1" x="4.5" y="8.5" width="39" height="31" rx="2"/>
 <path class="cls-1" d="m18.34 16.8a3.6 3.6 0 0 0-3.59 3.6 3.6 3.6 0 0 0 3.59 3.6h1.22"/>
 <path class="cls-1" d="m19.56 24h1.22a3.59 3.59 0 0 1 3.59 3.6 3.59 3.59 0 0 1-3.59 3.6"/>
 <path class="cls-1" d="M24,18c-1-.83-2.06-1.21-4.47-1.21H18.34"/>
 <path class="cls-1" d="M15.09,30c1,.83,2.07,1.21,4.47,1.21h1.22"/>
 <line class="cls-1" x1="19.56" x2="19.56" y1="33" y2="15"/>
 <path class="cls-1" d="m36.35 20.4h7.15v7.2h-7.15a2.85 2.85 0 0 1-2.85-2.85v-1.5a2.85 2.85 0 0 1 2.85-2.85z"/>
 <circle class="cls-2" cx="36.47" cy="24" r=".8"/>
</svg>
