<svg id="Layer_2" data-name="Layer 2" viewBox="0 0 48 48" xmlns="http://www.w3.org/2000/svg">
 <defs>
  <style>.cls-1{fill:none;stroke:#fff;stroke-linecap:round;stroke-linejoin:round;}</style>
 </defs>
 <path class="cls-1" d="m39.5 15.5h-9a2 2 0 0 1-2-2v-9h-18a2 2 0 0 0-2 2v35a2 2 0 0 0 2 2h27a2 2 0 0 0 2-2z"/>
 <line class="cls-1" x1="28.5" x2="39.5" y1="4.5" y2="15.5"/>
 <line class="cls-1" x1="24.37" x2="35.58" y1="22.52" y2="22.52"/>
 <line class="cls-1" x1="24.37" x2="35.58" y1="34.84" y2="34.84"/>
 <line class="cls-1" x1="13.17" x2="16.27" y1="34.75" y2="37.85"/>
 <line class="cls-1" x1="16.27" x2="22.3" y1="37.85" y2="31.82"/>
 <line class="cls-1" x1="13.17" x2="16.27" y1="22.43" y2="25.53"/>
 <line class="cls-1" x1="16.27" x2="22.3" y1="25.53" y2="19.51"/>
</svg>
