<svg viewBox="0 0 48 48" xmlns="http://www.w3.org/2000/svg">
 <defs>
  <style>.a{fill:none;stroke:#fff;stroke-linecap:round;stroke-linejoin:round;}</style>
 </defs>
 <path class="a" d="m12.2038 30.2469a4.4754 4.4754 0 0 0 3.923 1.7531h2.3687a3.9957 3.9957 0 0 0 3.9914-4 3.9957 3.9957 0 0 0-3.9914-4h-2.6172a3.9957 3.9957 0 0 1-3.9914-4 3.9957 3.9957 0 0 1 3.9914-4h2.3688a4.4755 4.4755 0 0 1 3.923 1.7531"/>
 <line class="a" x1="17.1869" x2="17.1869" y1="16" y2="14"/>
 <line class="a" x1="17.1869" x2="17.1869" y1="34" y2="32"/>
 <line class="a" x1="25.5131" x2="36.1131" y1="34" y2="34"/>
 <circle class="a" cx="24" cy="24" r="21.5"/>
</svg>
