<svg viewBox="0 0 48 48" xmlns="http://www.w3.org/2000/svg">
 <defs>
  <style>.a,.b,.c{fill:none;stroke:#fff;}.a,.b{stroke-linecap:round;stroke-linejoin:round;}.b{stroke-dasharray:3 3;}</style>
 </defs>
 <path class="a" d="m18.0564 7.1819v29.843"/>
 <path class="a" d="m30.6369 12.2782v29.8431"/>
 <path class="a" d="M42.5,35.7218,30.6369,42.12l-12.58-5.0959L5.5,41.335V11.492L18.0564,7.1813l12.5805,5.0958L42.5,5.8787Z"/>
 <path class="a" d="M8.6774,28.7753S11.78,19.3089,11.78,15.244"/>
 <path class="a" d="m14.7069 26.3656a26.0319 26.0319 0 0 1-2.9277-11.1206"/>
 <ellipse class="a" transform="translate(-7.4751 14.0865) rotate(-48.8276)" cx="11.7792" cy="15.2773" rx=".8279" ry=".6333"/>
 <path class="b" d="m9.5006 35.81s2.065-11.2128 15.5793-7.6965c15.6124 4.0623 13.876-8.4943 13.2508-12.7668"/>
 <path class="c" d="m9.6144 26.3506 4.2705-1.7193"/>
 <path class="c" d="m10.3474 23.8718 2.579-1.0383"/>
 <path class="a" d="m10.0391 18.3847a2.2926 2.2926 0 0 1-1.5949-2.3238 4.3836 4.3836 0 0 1 1.5958-3.2027"/>
 <path class="a" d="m13.28 17.4918a4.3837 4.3837 0 0 0 1.5948-3.2024 2.2924 2.2924 0 0 0-1.5948-2.3239"/>
</svg>
