<svg viewBox="0 0 48 48" xmlns="http://www.w3.org/2000/svg">
 <defs>
  <style>.a{fill:none;stroke:#fff;stroke-linecap:round;stroke-linejoin:round;}</style>
 </defs>
 <path class="a" d="m28 26.33h-8l4-6.98 2 3.49zm9.76-16.12a19.5 19.5 0 0 1 5.74 13.79 19.5 19.5 0 0 1-5.71 13.79m-27.58 0a19.51 19.51 0 0 1 0-27.58m24.41 3.17a15 15 0 0 1 4.38 10.62 15 15 0 0 1-4.4 10.62m-21.24 0a15 15 0 0 1 0-21.24m18.16 3.08a10.67 10.67 0 0 1 3.15 7.54 10.67 10.67 0 0 1-3.13 7.54m-15.08 0a10.65 10.65 0 0 1 0-15.08m14.21 7.54a6.67 6.67 0 1 1-6.67-6.67 6.66 6.66 0 0 1 6.67 6.67z"/>
</svg>
