<svg viewBox="0 0 48 48" xmlns="http://www.w3.org/2000/svg">
 <defs>
  <style>.a{fill:none;stroke:#fff;stroke-linecap:round;stroke-linejoin:round;}</style>
 </defs>
 <path class="a" d="M35.74,29.66A6.71,6.71,0,0,0,29.05,23H27.49V8.11a3.57,3.57,0,0,0-2.75-3.53A3.5,3.5,0,0,0,20.51,8V23H19a6.71,6.71,0,0,0-6.69,6.69L8.74,40.9a2,2,0,0,0,1.91,2.6h26.7a2,2,0,0,0,1.91-2.6Z"/>
 <line class="a" x1="12.26" x2="35.74" y1="29.66" y2="29.66"/>
 <line class="a" x1="24" x2="24" y1="39.59" y2="29.66"/>
 <line class="a" x1="30.15" x2="31.97" y1="29.66" y2="39.59"/>
 <line class="a" x1="17.85" x2="16.03" y1="29.66" y2="39.59"/>
</svg>
