<svg viewBox="0 0 48 48" xmlns="http://www.w3.org/2000/svg">
 <defs>
  <style>.a{fill:none;stroke:#fff;stroke-linecap:round;stroke-linejoin:round;}</style>
 </defs>
 <path class="a" d="m24.51 19a5 5 0 1 0 5 5 5 5 0 0 0-5-5z"/>
 <polyline class="a" points="9 28.82 9 19.22 16.39 28.82 16.39 19.22"/>
 <path class="a" d="m32.31 27.91a2.76 2.76 0 0 0 2.43 1.09h1.78a2.48 2.48 0 0 0 2.48-2.49 2.48 2.48 0 0 0-2.48-2.51h-1.93a2.48 2.48 0 0 1-2.48-2.48 2.48 2.48 0 0 1 2.48-2.48h1.78a2.76 2.76 0 0 1 2.43 1.09"/>
 <path class="a" d="M24,2.5A21.51,21.51,0,0,0,2.5,24h0A21.51,21.51,0,0,0,24,45.5h0a21.5,21.5,0,0,0,0-43Z"/>
</svg>
