<svg viewBox="0 0 48 48" xmlns="http://www.w3.org/2000/svg">
 <defs>
  <style>.a{fill:none;stroke:#fcfcfc;stroke-linecap:round;stroke-linejoin:round;}</style>
 </defs>
 <path class="a" d="m30.35 11.35-3.6-3.6h-20.2v35.8h29.6v-18.7"/>
 <path class="a" d="m31 10.55-13 18.2-1.5 12.6 11.5-5.3 13.3-18.4a1 1 0 0 0-0.2-1.4l-8.4-6a1.27 1.27 0 0 0-1.7 0.3z"/>
 <path class="a" d="m17 36.85a4.4 4.4 0 0 1 3.5 2.6"/>
 <path class="a" d="m18 28.75 10 7.3"/>
 <path class="a" d="m29.15 13.15 10 7.4"/>
 <path class="a" d="m27.75 15 10.1 7.4"/>
 <path class="a" d="M11.25,20.55v-9.5c0-1.4,2.5-1.3,2.5,0v10.7c0,2.5-4.7,2.5-4.7,0V7.45c0-4,5.6-4,5.9,0"/>
</svg>
