<svg id="Layer_2" data-name="Layer 2" viewBox="0 0 48 48" xmlns="http://www.w3.org/2000/svg">
 <defs>
  <style>.cls-1{fill:none;stroke:#fff;stroke-linecap:round;stroke-linejoin:round;}</style>
 </defs>
 <path class="cls-1" d="m29.38 25.37a3 3 0 0 1-2.94 2.57 3 3 0 0 1-3-3v-1.94a3 3 0 0 1 3-3 3 3 0 0 1 2.93 2.56"/>
 <path class="cls-1" d="m9.35 23a3 3 0 0 1 3-3 3 3 0 0 1 3 3v4.92"/>
 <line class="cls-1" x1="9.35" x2="9.35" y1="20.06" y2="27.94"/>
 <path class="cls-1" d="m18.49 23a3 3 0 0 1 3-3"/>
 <line class="cls-1" x1="18.49" x2="18.49" y1="20.06" y2="27.94"/>
 <polygon class="cls-1" points="33.18 20.06 38.65 24 33.18 27.94 34.61 24"/>
 <circle class="cls-1" cx="24" cy="24" r="21.5"/>
</svg>
