<svg id="Layer_2" data-name="Layer 2" viewBox="0 0 48 48" xmlns="http://www.w3.org/2000/svg">
 <defs>
  <style>.cls-1{fill:none;stroke:#fff;stroke-linecap:round;stroke-linejoin:round;}</style>
 </defs>
 <path class="cls-1" d="m24.49 37.5c4.89-0.26 8.57-4.65 8.57-9.55v-8.4a9.06 9.06 0 0 0-9.06-9 9.06 9.06 0 0 0-9.06 9.06"/>
 <path class="cls-1" d="m14.94 19.56a9.06 9.06 0 0 0 9.06 9.05 9.06 9.06 0 0 0 9.06-9.06"/>
 <path class="cls-1" d="m16.54 34.54c1.65 2.16 3.73 3 6.62 3h1.33"/>
 <path class="cls-1" d="m40.5 5.5h-33a2 2 0 0 0-2 2v33a2 2 0 0 0 2 2h33a2 2 0 0 0 2-2v-33a2 2 0 0 0-2-2z"/>
</svg>
