<svg id="Layer_2" data-name="Layer 2" viewBox="0 0 48 48" xmlns="http://www.w3.org/2000/svg">
 <defs>
  <style>.cls-1{fill:none;stroke:#fff;stroke-linecap:round;stroke-linejoin:round;}</style>
 </defs>
 <path class="cls-1" d="m26.24 24a6.75 6.75 0 0 0 6.76-6.75 6.75 6.75 0 0 0-6.75-6.75h-4.49a6.75 6.75 0 0 0-6.76 6.75 6.75 6.75 0 0 0 6.76 6.75 6.75 6.75 0 0 0-6.76 6.75 6.75 6.75 0 0 0 6.75 6.75h4.48a6.75 6.75 0 0 0 6.77-6.75 6.75 6.75 0 0 0-6.76-6.75"/>
 <path class="cls-1" d="m40.5 5.5h-33a2 2 0 0 0-2 2v33a2 2 0 0 0 2 2h33a2 2 0 0 0 2-2v-33a2 2 0 0 0-2-2z"/>
</svg>
