<svg id="Layer_2" data-name="Layer 2" viewBox="0 0 48 48" xmlns="http://www.w3.org/2000/svg">
 <defs>
  <style>.cls-1{fill:none;stroke:#fff;stroke-linecap:round;stroke-linejoin:round;}</style>
 </defs>
 <path class="cls-1" d="m26 37.5a6.75 6.75 0 0 0 6.75-6.75 6.75 6.75 0 0 0-6.75-6.75 6.75 6.75 0 0 0 6.75-6.75 6.75 6.75 0 0 0-6.75-6.74"/>
 <path class="cls-1" d="M15.28,35.22c1.87,1.56,3.88,2.28,8.4,2.28H26"/>
 <path class="cls-1" d="M15.28,12.76c1.87-1.56,3.88-2.27,8.4-2.26H26"/>
 <path class="cls-1" d="m40.5 5.5h-33a2 2 0 0 0-2 2v33a2 2 0 0 0 2 2h33a2 2 0 0 0 2-2v-33a2 2 0 0 0-2-2z"/>
</svg>
