<svg viewBox="0 0 48 48" xmlns="http://www.w3.org/2000/svg">
 <defs>
  <style>.a{fill:none;stroke:#fff;stroke-linecap:round;stroke-linejoin:round;}</style>
 </defs>
 <path class="a" d="m7.14 34.07a2.64 2.64 0 1 1 2.64-2.64 2.64 2.64 0 0 1-2.64 2.64zm0-7.43a2.65 2.65 0 1 1 2.64-2.64 2.65 2.65 0 0 1-2.64 2.65zm0-7.43a2.64 2.64 0 1 1 2.64-2.64 2.64 2.64 0 0 1-2.64 2.64z"/>
 <line class="a" x1="12.75" x2="43.5" y1="31.38" y2="31.38"/>
 <line class="a" x1="12.76" x2="32.33" y1="23.95" y2="23.95"/>
 <line class="a" x1="12.75" x2="21.76" y1="16.52" y2="16.52"/>
</svg>
