<svg viewBox="0 0 48 48" xmlns="http://www.w3.org/2000/svg">
 <defs>
  <style>.a{fill:none;stroke:#fff;stroke-linecap:round;stroke-linejoin:round;}</style>
 </defs>
 <path class="a" d="m40.5 42.5h-33a2 2 0 0 1-2-2v-33a2 2 0 0 1 2-2h33a2 2 0 0 1 2 2v33a2 2 0 0 1-2 2z"/>
 <rect class="a" transform="translate(-8.11 7.13) rotate(-20)" x="10.17" y="18.61" width="11.98" height="15.87" rx="5.99"/>
 <path class="a" d="m38.5 26.86-3.38-9.29a6 6 0 0 0-7.67-3.57 6 6 0 0 0-3.58 7.67l3.38 9.33"/>
 <line class="a" x1="23.87" x2="21.82" y1="21.67" y2="16.04"/>
</svg>
