<svg viewBox="0 0 48 48" xmlns="http://www.w3.org/2000/svg">
 <defs>
  <style>.a{fill:none;stroke:#fff;stroke-linecap:round;stroke-linejoin:round;}</style>
 </defs>
 <path class="a" d="m40.5 42.5h-33a2.0059 2.0059 0 0 1-2-2v-33a2.0059 2.0059 0 0 1 2-2h33a2.0059 2.0059 0 0 1 2 2v33a2.0059 2.0059 0 0 1-2 2z"/>
 <path class="a" d="m21.9225 29.5179a4.2721 4.2721 0 0 0-4.4974-4.271 4.4367 4.4367 0 0 0-4.0383 4.513v3.9631a4.2724 4.2724 0 0 0 4.2678 4.277 4.2725 4.2725 0 0 0 4.2679-4.277h-4.2679"/>
 <path class="a" d="m34.6132 29.5179a4.2721 4.2721 0 0 0-4.4974-4.271 4.4367 4.4367 0 0 0-4.0383 4.513v3.9631a4.2725 4.2725 0 0 0 4.2679 4.277 4.2724 4.2724 0 0 0 4.2678-4.277h-4.2678"/>
 <path class="a" d="M26.16,22.7591V10h4.1771a4.2851,4.2851,0,0,1,0,8.57H26.16"/>
 <path class="a" d="m13.4282 18.5327a4.2265 4.2265 0 0 0 8.4529 0v-4.3062a4.2265 4.2265 0 1 0-8.4529 0z"/>
</svg>
