<svg viewBox="0 0 48 48" xmlns="http://www.w3.org/2000/svg">
 <defs>
  <style>.a{fill:none;stroke:#fff;stroke-linecap:round;stroke-linejoin:round;}</style>
 </defs>
 <path class="a" d="m24.64 40.4878a16.5009 16.5009 0 0 0 15.8477-15.8455"/>
 <path class="a" d="M7.5123,24.6424A16.5008,16.5008,0,0,0,23.36,40.4878"/>
 <path class="a" d="M23.3577,7.5123A16.5008,16.5008,0,0,0,7.5123,23.3577"/>
 <path class="a" d="M40.4877,23.3577A16.5008,16.5008,0,0,0,24.6423,7.5123"/>
 <polyline class="a" points="25.823 16.725 24 2.5 22.177 16.724"/>
 <polyline class="a" points="22.177 31.275 24 45.5 25.823 31.275"/>
 <polyline class="a" points="16.725 22.177 2.5 24 16.725 25.823"/>
 <polyline class="a" points="31.276 25.823 45.5 24 31.275 22.177"/>
 <circle class="a" cx="24" cy="24" r="7.5"/>
 <line class="a" x1="29.3027" x2="38.5" y1="29.3027" y2="38.5"/>
 <line class="a" x1="9.5" x2="18.6976" y1="9.5" y2="18.6976"/>
 <line class="a" x1="18.6975" x2="9.5" y1="29.3025" y2="38.5"/>
 <line class="a" x1="38.5" x2="29.3033" y1="9.5" y2="18.6967"/>
</svg>
