<svg viewBox="0 0 48 48" xmlns="http://www.w3.org/2000/svg">
 <defs>
  <style>.a{fill:none;stroke:#fff;stroke-linecap:round;stroke-linejoin:round;}</style>
 </defs>
 <path class="a" d="m5.7053 22.7221 8e-4 0.0015 0.0016 0.0032 9e-4 0.0016 8e-4 0.0015a2.7727 2.7727 0 0 1-1.2094 3.7301l5.8939 11.5485a2.7726 2.7726 0 0 1 3.717 1.1876l27.2773-13.9204a2.7728 2.7728 0 0 1 1.2176-3.706l-5.8938-11.5485a2.7727 2.7727 0 0 1-3.73-1.2092l-4e-3 -0.0081z"/>
 <path class="a" d="M19.6543,36.3765l21.9184-6.0072A2.7727,2.7727,0,0,1,43.5,26.9779l-1.374-4.9151"/>
 <path class="a" d="M30.5248,28.179l.46-1.5143-4.9072-5.6262,1.2652-4.1643a1.187,1.187,0,1,0-2.2715-.69l-1.2652,4.1644L16.5987,22.294l-.46,1.5144,6.6325-.0527L21.5059,27.92l-1.8594.6757-.345,1.1357,2.88.048,2.42,1.5623.3451-1.1357L23.7775,28.61l1.2652-4.1644Z"/>
</svg>
