<svg viewBox="0 0 48 48" xmlns="http://www.w3.org/2000/svg">
 <defs>
  <style>.a{fill:none;stroke:#fff;stroke-linecap:round;stroke-linejoin:round;}</style>
 </defs>
 <path class="a" d="m42.1 19.05 1.4-0.9-5.9-4.8-6.1 3.2-13.5-2.3-2.9 1.6"/>
 <path class="a" d="M23.3,31.15l2-1.3-1.6-1.7,6.3-3.9,1.6,1.6,10.5-6.8-.8-.7"/>
 <path class="a" d="M4.7,16.55l-.2-3.7,2.4-1,16.3,19.2v1.4l1.7,1.7v2l-1.5-1.4-1.3-.2L7,15.85Z"/>
 <path class="a" d="M7,15.85,6.9,12"/>
 <path class="a" d="m9.6 15.05 3.1-1.6 5.9 5.9-3.5 2.2"/>
 <path class="a" d="M18.6,19.35l.1,2.8-1.9,1.3"/>
 <path class="a" d="M18.7,22.15l4.7,5-.1,4"/>
 <path class="a" d="m11.5 17.35 3.2-1.8"/>
 <path class="a" d="m13.3 19.45 3.2-2.1"/>
 <path class="a" d="m26.2 17.35 1.2 1.1-1.4 1-1.3-1.2z"/>
 <path class="a" d="m35.8 16.15-2.3 1.3 2 1.8 2.4-1.4z"/>
 <path class="a" d="M20.6,20.15l1.1,1.2,1.3-.9-1.2-1.1Z"/>
</svg>
