<svg viewBox="0 0 48 48" xmlns="http://www.w3.org/2000/svg">
 <defs>
  <style>.a{fill:none;stroke:#fff;stroke-linecap:round;stroke-linejoin:round;}</style>
 </defs>
 <path class="a" d="m40.5 42.5h-33a2 2 0 0 1-2-2v-33a2 2 0 0 1 2-2h33a2 2 0 0 1 2 2v33a2 2 0 0 1-2 2z"/>
 <path class="a" d="M10.5,33V15h5.9a6.05,6.05,0,0,1,0,12.1H10.5"/>
 <polyline class="a" points="31.53 24 37.5 24 31.53 33.01 37.5 33.01"/>
 <path class="a" d="m29.4 30a3 3 0 0 1-3 3 3 3 0 0 1-3-3v-3a3 3 0 0 1 3-3 3 3 0 0 1 3 3"/>
</svg>
