<svg viewBox="0 0 48 48" xmlns="http://www.w3.org/2000/svg">
 <defs>
  <style>.a{fill:none;stroke:#fff;stroke-linecap:round;stroke-linejoin:round;}</style>
 </defs>
 <path class="a" d="M40.3,42.5H7.7a2.22,2.22,0,0,1-2.2-2.2V7.7A2.22,2.22,0,0,1,7.7,5.5H40.3a2.22,2.22,0,0,1,2.2,2.2V40.3A2.22,2.22,0,0,1,40.3,42.5Z"/>
 <line class="a" x1="26.22" x2="26.22" y1="12.5" y2="29.7"/>
 <path class="a" d="m26.22 22.6a4.31 4.31 0 0 1 4.3-4.3 4.31 4.31 0 0 1 4.3 4.3v7.1"/>
 <path class="a" d="m13.18 25.4a4.31 4.31 0 0 0 4.3 4.3 4.31 4.31 0 0 0 4.3-4.3v-2.8a4.31 4.31 0 0 0-4.3-4.3 4.31 4.31 0 0 0-4.3 4.3"/>
 <line class="a" x1="13.18" x2="13.18" y1="18.3" y2="35.5"/>
</svg>
