<svg id="Layer_2" data-name="Layer 2" viewBox="0 0 48 48" xmlns="http://www.w3.org/2000/svg">
 <defs>
  <style>.cls-1{fill:none;stroke:#fff;stroke-linecap:round;stroke-linejoin:round;}</style>
 </defs>
 <path class="cls-1" d="M13.78,5.5H5.5v8.28"/>
 <path class="cls-1" d="M42.5,13.78V5.5H34.22"/>
 <path class="cls-1" d="m34.22 42.5h8.28v-8.28"/>
 <path class="cls-1" d="m10.55 26.41v11h11v-11h-11zm3.22 3.22h4.6v4.6h-4.6z"/>
 <path class="cls-1" d="m10.55 10.55v11h11v-11h-11zm3.22 3.22h4.6v4.6h-4.6z"/>
 <path class="cls-1" d="m26.41 10.55v11h11v-11h-11zm3.22 3.22h4.6v4.6h-4.6z"/>
 <path class="cls-1" d="m31.93 37.45a5.79 5.79 0 0 0 3.47-2.1 8.37 8.37 0 0 0 2.05-5.72v-3.22h-11v3.22a8.39 8.39 0 0 0 2.05 5.72 5.79 5.79 0 0 0 3.43 2.1z"/>
 <path class="cls-1" d="M31.93,34.23a5.82,5.82,0,0,1-1.08-.86,5.4,5.4,0,0,1-1.22-3.74h4.6A5.4,5.4,0,0,1,33,33.37a5.82,5.82,0,0,1-1.08.86Z"/>
 <path class="cls-1" d="m5.5 34.22v8.28h8.28"/>
</svg>
