<svg id="Layer_2" data-name="Layer 2" version="1.1" viewBox="0 0 48 48" xmlns="http://www.w3.org/2000/svg">
 <defs>
  <style id="style2">.cls-1{fill:none;stroke:#fff;stroke-linecap:round;stroke-linejoin:round;}</style>
 </defs>
 <path class="cls-1" d="m20.43 17.33c4.46-0.24 9.1 2.33 10.64 8.21a6.88 6.88 0 0 1 0.05 13.71h-19.23c-9.21-1.25-10.47-14.66 0-16.46a10.14 10.14 0 0 1 8.54-5.46z"/>
 <line id="line10" class="cls-1" x1="31.129999" x2="31.129999" y1="12.28" y2="8.75"/>
 <line id="line12" class="cls-1" x1="24.88" x2="22.38" y1="14.87" y2="12.37"/>
 <line id="line14" class="cls-1" x1="37.38" x2="39.88" y1="27.38" y2="29.87"/>
 <line id="line16" class="cls-1" x1="39.97" x2="43.5" y1="21.12" y2="21.12"/>
 <line id="line18" class="cls-1" x1="37.38" x2="39.88" y1="14.87" y2="12.37"/>
 <path class="cls-1" d="m27.12797 16.390543a6.1999998 6.1999998 0 0 1 8.050406 0.03083 6.1999998 6.1999998 0 0 1 1.233445 7.955413"/>
</svg>
