<svg id="Layer_2" data-name="Layer 2" viewBox="0 0 48 48" xmlns="http://www.w3.org/2000/svg">
 <defs>
  <style>.cls-1{fill:none;stroke:#fff;stroke-linecap:round;stroke-linejoin:round;}</style>
 </defs>
 <path class="cls-1" d="M9.21,7.47A1.73,1.73,0,0,0,7.47,9.21v7.14H40.53V9.21a1.73,1.73,0,0,0-1.74-1.74ZM7.47,31.65v7.14a1.73,1.73,0,0,0,1.74,1.74H38.79a1.73,1.73,0,0,0,1.74-1.74V31.65Z"/>
 <path class="cls-1" d="m6.22 16.35a1.72 1.72 0 0 0-1.72 1.73v11.84a1.72 1.72 0 0 0 1.72 1.73h35.56a1.72 1.72 0 0 0 1.72-1.73v-11.84a1.72 1.72 0 0 0-1.72-1.73zm5.11 3.07a4.58 4.58 0 0 1 4.58 4.58 4.58 4.58 0 0 1-4.58 4.58 4.58 4.58 0 0 1-4.58-4.58 4.58 4.58 0 0 1 4.58-4.58z"/>
 <line class="cls-1" x1="19.15" x2="36.54" y1="26.31" y2="26.31"/>
 <line class="cls-1" x1="19.15" x2="40.88" y1="21.69" y2="21.69"/>
</svg>
