<svg viewBox="0 0 48 48" xmlns="http://www.w3.org/2000/svg">
 <defs>
  <style>.a{fill:none;stroke:#fff;stroke-linecap:round;stroke-linejoin:round;}</style>
 </defs>
 <line class="a" x1="8.3642" x2="12.0555" y1="29.1504" y2="29.1504"/>
 <line class="a" x1="8.3642" x2="12.0555" y1="34.9179" y2="34.9179"/>
 <line class="a" x1="4.5" x2="8.1912" y1="40.8354" y2="40.8354"/>
 <line class="a" x1="12.4246" x2="16.1158" y1="27.1202" y2="27.1202"/>
 <line class="a" x1="16.4849" x2="20.1761" y1="25.0901" y2="25.0901"/>
 <line class="a" x1="26.1744" x2="29.8656" y1="18.9996" y2="18.9996"/>
 <line class="a" x1="20.5453" x2="22.3909" y1="23.0599" y2="23.0599"/>
 <line class="a" x1="26.6358" x2="28.4814" y1="23.0599" y2="23.0599"/>
 <line class="a" x1="31.8957" x2="33.7413" y1="15.4006" y2="15.4006"/>
 <line class="a" x1="35.7023" x2="37.5479" y1="11.2826" y2="11.2826"/>
 <line class="a" x1="41.6544" x2="43.5" y1="7.1646" y2="7.1646"/>
 <line class="a" x1="24.5133" x2="26.3589" y1="25.0901" y2="25.0901"/>
 <line class="a" x1="24.5133" x2="26.3589" y1="27.1202" y2="27.1202"/>
 <line class="a" x1="22.1448" x2="23.9904" y1="29.1504" y2="29.1504"/>
 <line class="a" x1="21.9295" x2="28.4814" y1="21.0297" y2="21.0297"/>
 <line class="a" x1="22.1448" x2="23.9904" y1="31.1806" y2="31.1806"/>
 <line class="a" x1="20.1761" x2="22.0217" y1="32.9454" y2="32.9454"/>
 <line class="a" x1="18.3305" x2="20.1761" y1="34.9179" y2="34.9179"/>
 <line class="a" x1="18.3305" x2="20.1761" y1="36.8904" y2="36.8904"/>
 <line class="a" x1="16.4849" x2="18.3305" y1="40.8354" y2="40.8354"/>
 <line class="a" x1="6.3456" x2="18.3305" y1="39.0013" y2="39.0013"/>
 <line class="a" x1="6.1111" x2="7.9567" y1="31.1806" y2="31.1806"/>
 <line class="a" x1="8.3642" x2="10.2098" y1="32.9454" y2="32.9454"/>
 <line class="a" x1="6.3456" x2="8.1912" y1="36.8904" y2="36.8904"/>
 <line class="a" x1="12.6091" x2="14.4547" y1="36.8904" y2="36.8904"/>
</svg>
