<svg viewBox="0 0 48 48" xmlns="http://www.w3.org/2000/svg">
 <defs>
  <style>.a{fill:none;stroke:#fff;stroke-linecap:round;stroke-linejoin:round;}.b{fill:#fff;}</style>
 </defs>
 <path class="a" d="m40.5 42.5h-33a2.0059 2.0059 0 0 1-2-2v-33a2.0059 2.0059 0 0 1 2-2h33a2.0059 2.0059 0 0 1 2 2v33a2.0059 2.0059 0 0 1-2 2z"/>
 <path class="a" d="M8,27.5406V20.8365h2.1948a2.2516,2.2516,0,0,1,0,4.5031H8"/>
 <line class="a" x1="10.1948" x2="12.3894" y1="25.3396" y2="27.5389"/>
 <line class="a" x1="14.0671" x2="14.0671" y1="20.8365" y2="27.5406"/>
 <line class="a" x1="18.5086" x2="18.5086" y1="20.8365" y2="27.5406"/>
 <line class="a" x1="14.0671" x2="18.5086" y1="24.1759" y2="24.1759"/>
 <polyline class="a" points="24.545 20.836 22.324 27.541 20.103 20.836"/>
 <rect class="a" x="25.1094" y="23.0991" width="3.3521" height="4.4415" rx="1.676"/>
 <circle class="b" cx="30.2095" cy="21.046" r=".75"/>
 <line class="a" x1="30.2095" x2="30.2095" y1="23.0991" y2="27.5406"/>
 <path class="a" d="M39.78,26.6948a1.6755,1.6755,0,0,1-1.4563.8458h0a1.6761,1.6761,0,0,1-1.6761-1.676V24.7752a1.6761,1.6761,0,0,1,1.6761-1.6761h0A1.6761,1.6761,0,0,1,40,24.7752V25.32H36.6479"/>
 <path class="a" d="m35.0743 26.6964a1.6753 1.6753 0 0 1-1.4553 0.8442 1.6761 1.6761 0 0 1-1.6761-1.676v-1.0894a1.6761 1.6761 0 0 1 1.6761-1.6761 1.6752 1.6752 0 0 1 1.4536 0.8413"/>
</svg>
