<svg viewBox="0 0 48 48" xmlns="http://www.w3.org/2000/svg">
 <defs>
  <style>.a{fill:none;stroke:#fff;stroke-linecap:round;stroke-linejoin:round;}</style>
 </defs>
 <circle class="a" cx="9.42" cy="26.15" r="3.92"/>
 <path class="a" d="m22.87 20.46c2.48-2.14 3.06-5.52 1.31-7.54s-5.18-1.92-7.66 0.23-3.42 5.68-1.66 7.7 5.54 1.76 8.01-0.39z"/>
 <path class="a" d="M8.85,16.81c0-5.52,6.71-11.41,15.29-11.41,6.47,0,10.71,4.44,10.71,10.7S27.83,32,17.33,32V27c3.22,0,12.14-2.15,12.14-11.26,0-6-4.17-7.33-7.37-7.33-5,0-10.76,4-10.76,8.36Z"/>
 <path class="a" d="m13.34 36.53c7.66 0 24.92-6.07 24.92-20.24a11.42 11.42 0 0 0-1.39-6.07l2.47-1.71s3.16 2.49 3.16 9.3c0 9.93-9.5 24.79-29.16 24.79z"/>
</svg>
