<svg version="1.1" viewBox="0 0 48 48" xmlns="http://www.w3.org/2000/svg">
 <path transform="rotate(43.537621)" d="m26.945839 2.3986142h1.677231v3.6266725h-1.677231zm1.669707 4.8966714-0.08727 1.3418665-5.40741-0.3516735 0.08727-1.3418665zm3.221138-16.892449 0.0063 1.3446866-5.418774 0.025308-0.0063-1.3446867zm-5.288768 2.6273074 1.640457-0.083821 0.153408 3.0023285-1.640457 0.083821zm18.316568 8.6755556 1.020448 1.2720542-3.705079 2.9722336-1.020449-1.2720543zm-7.102662-3.9499172 2.073114-0.051148 0.197418 8.0016935-2.073115 0.051148zm3.794089 2.2144524 0.102705-1.9174683 9.2882 0.4975027-0.102705 1.9174683zm-14.6917 1.1253895 0.07648-3.7330707 9.546586 0.1955792-0.07648 3.7330707zm-1.760608-3.2069345a2.1455126 2.1455126 0 0 1-0.07744 3.0332239 2.1455126 2.1455126 0 0 1-3.033225-0.0774341 2.1455126 2.1455126 0 0 1 0.07744-3.0332253 2.1455126 2.1455126 0 0 1 3.033225 0.077435z" style="fill:none;stroke-linecap:round;stroke-linejoin:round;stroke:#ffffff"/>
</svg>
