<svg id="Layer_2" data-name="Layer 2" viewBox="0 0 48 48" xmlns="http://www.w3.org/2000/svg">
 <defs>
  <style>.cls-1{fill:none;stroke:#fff;stroke-linecap:round;stroke-linejoin:round;}</style>
 </defs>
 <g>
  <path class="cls-1" d="m3.87 25.92v-3.75"/>
  <path class="cls-1" d="m5.81 25.92v-3.75"/>
  <path class="cls-1" d="m7.75 25.92v-3.75"/>
 </g>
 <g>
  <path class="cls-1" d="M17.58,37.78V34"/>
  <path class="cls-1" d="M19.52,37.78V34"/>
  <path class="cls-1" d="M21.45,37.78V34"/>
 </g>
 <g>
  <path class="cls-1" d="m17.56 14v-3.78"/>
  <path class="cls-1" d="m19.49 14v-3.78"/>
  <path class="cls-1" d="m21.43 14v-3.78"/>
 </g>
 <g>
  <path class="cls-1" d="M42.12,17.49l.05,13"/>
  <path class="cls-1" d="m40.18 17.49v13"/>
 </g>
 <path class="cls-1" d="m38.24 32.88h4.63"/>
 <path class="cls-1" d="m38.24 15.15h4.63"/>
 <path class="cls-1" d="M38.24,10.22H23.37v5.86L9.68,18.47V29.53l13.69,2.39v5.86H38.24Z"/>
 <g>
  <circle class="cls-1" cx="15.25" cy="23.95" r="2.16"/>
  <path class="cls-1" d="M22.18,24a1.4,1.4,0,0,1,.79.3l2.7,2.86h0a2.44,2.44,0,0,0,1.56.69h2"/>
  <path class="cls-1" d="m17.71 24h16"/>
  <path class="cls-1" d="m33.83 25.43 2.56-1.43-2.56-1.48z"/>
  <circle class="cls-1" cx="27.37" cy="20.1" r="1.27"/>
  <path class="cls-1" d="M26.07,20.1H24a2.41,2.41,0,0,0-1.56.69l-2.71,2.86a1.37,1.37,0,0,1-.79.3"/>
  <path class="cls-1" d="m31.9 29.08h-2.56v-2.57h2.56z"/>
 </g>
</svg>
