<svg viewBox="0 0 48 48" xmlns="http://www.w3.org/2000/svg">
 <defs>
  <style>.a{fill:none;stroke:#fff;stroke-linecap:round;stroke-linejoin:round;}.b{fill:#fff;}</style>
 </defs>
 <path class="a" d="m30.7063 25.402a91.0613 91.0613 0 0 1-29.0335-6.2477"/>
 <path class="a" d="m22.1582 23.6943-0.2971 1.8468"/>
 <circle class="a" cx="29.3451" cy="11.8456" r="2.4607"/>
 <path class="a" d="m29.5291 25.3011 1.5583-4.2038-2.6-5.6521-7.5964 4.48 3.305 4.9207"/>
 <path class="a" d="m28.7255 14.2893-3.7582 15.6452"/>
 <path class="a" d="m13.4828 42.7327 11.4845-12.7982 8.0281 4.5109 1.08 8.51"/>
 <circle class="b" cx="24.1961" cy="24.8456" r=".75"/>
 <circle class="b" cx="29.5291" cy="25.3011" r=".75"/>
 <path class="a" d="m6.3981 17.3494a18.7009 18.7009 0 1 1 30.7967 19.62"/>
 <path class="a" d="M11.9506,38.0714A18.7014,18.7014,0,0,1,5.27,23.7456"/>
</svg>
