<svg viewBox="0 0 48 48" xmlns="http://www.w3.org/2000/svg">
 <defs>
  <style>.a,.b{fill:none;}.a{stroke:#fff;stroke-linecap:round;stroke-linejoin:round;}.b{stroke:#fdfdfd;}.c{fill:#fff;}</style>
 </defs>
 <path class="a" d="m40.5 5.5h-33a2 2 0 0 0-2 2v33a2 2 0 0 0 2 2h33a2 2 0 0 0 2-2v-33a2 2 0 0 0-2-2z"/>
 <path class="b" d="m5.5 17.2 37-8"/>
 <polyline class="a" points="14.7 18.9 12.7 24.2 10.7 18.9"/>
 <path class="a" d="m31.3 24.2a2 2 0 0 0 2-2 2 2 0 0 0-2-2 2 2 0 0 0 2-2 2 2 0 0 0-2-2"/>
 <path class="a" d="M28,23.5a3.25,3.25,0,0,0,2.5.7h.8"/>
 <path class="a" d="M28,16.9a3.4,3.4,0,0,1,2.5-.7h.8"/>
 <path class="a" d="m20.2 23.2a1.94 1.94 0 0 1-1.7 1 2 2 0 0 1-2-2v-1.3a2 2 0 0 1 2-2 2 2 0 0 1 2 2v0.7h-4"/>
 <path class="a" d="m25.9 23.2a1.94 1.94 0 0 1-1.7 1 2 2 0 0 1-2-2v-1.3a2 2 0 0 1 2-2 1.94 1.94 0 0 1 1.7 1"/>
 <path class="a" d="m37.3 15.1a8.79 8.79 0 0 0-2 5.1 8.79 8.79 0 0 0 2 5.1"/>
 <line class="a" x1="19.2" x2="23.2" y1="37.9" y2="37.9"/>
 <line class="a" x1="19.2" x2="21.2" y1="31" y2="29.9"/>
 <line class="a" x1="21.2" x2="21.2" y1="29.9" y2="37.9"/>
 <circle class="c" cx="26" cy="37.9" r=".8"/>
 <line class="a" x1="28.8" x2="28.8" y1="27.8" y2="40.3"/>
</svg>
