<svg viewBox="0 0 48 48" xmlns="http://www.w3.org/2000/svg">
 <defs>
  <style>.a{fill:none;stroke:#fff;stroke-linecap:round;stroke-linejoin:round;}</style>
 </defs>
 <path class="a" d="M14.21,40.09,10.28,39A2.57,2.57,0,0,1,8.5,37.21L7.4,33.28,31.21,9.47,38,16.27Z"/>
 <line class="a" x1="9.16" x2="34.62" y1="38.33" y2="12.87"/>
 <path class="a" transform="translate(18.14 -23.37) rotate(45)" d="m36.25 6.44h2.07a3.78 3.78 0 0 1 3.78 3.78v3.78h-9.63v-3.78a3.78 3.78 0 0 1 3.78-3.78z"/>
 <path class="a" d="m7.4 33.28-2.57 8.16a1 1 0 0 0 1.22 1.22l8.16-2.57"/>
 <path class="a" d="m6.8 42.42a1.22 1.22 0 1 0-1.73-1.73"/>
</svg>
