<svg viewBox="0 0 48 48" xmlns="http://www.w3.org/2000/svg">
 <defs>
  <style>.a{fill:none;stroke:#fff;stroke-linecap:round;stroke-linejoin:round;}</style>
 </defs>
 <path class="a" d="m18.71 30.64a4.76 4.76 0 0 0 4.16 1.86h2.52a4.24 4.24 0 0 0 4.24-4.25 4.24 4.24 0 0 0-4.24-4.25h-2.78a4.24 4.24 0 0 1-4.24-4.25 4.24 4.24 0 0 1 4.24-4.25h2.52a4.76 4.76 0 0 1 4.16 1.86"/>
 <circle class="a" cx="24" cy="24" r="17.55"/>
 <path class="a" d="M20.43,6.81A9.75,9.75,0,0,0,6.62,20.16"/>
 <path class="a" d="m27.57 41.19a9.75 9.75 0 0 0 13.62-13.62"/>
</svg>
