<!-- Generator: Adobe Illustrator 25.0.1, SVG Export Plug-In . SVG Version: 6.00 Build 0)  -->
<svg id="Layer_1" style="enable-background:new 0 0 48 48" version="1.1" viewBox="0 0 48 48" xmlns="http://www.w3.org/2000/svg">
 <style type="text/css">.st0{fill:none;stroke:#FFFFFF;stroke-linecap:round;stroke-linejoin:round;}
	.st1{fill:none;stroke:#FFFFFF;stroke-linecap:round;stroke-linejoin:round;stroke-miterlimit:10;}</style>
 <path class="st0" d="m12.1 23.7v-7.3c0-1.2 1-2.1 2.2-2.1h19.4c1.2 0 2.2 1 2.2 2.1v7.3"/>
 <path class="st1" d="m13 29.5c-0.5 0-0.9-0.4-0.9-0.9v-5c0-0.5-0.4-0.9-0.9-0.9h-3.8c-1.9 0-3.3 1.3-2.9 2.4 1 2.4 4.2 9.3 4.2 9.3 0.4 0.8 1.4 1.2 2 1.2h25.8c1.2 0 2.3-0.5 2.7-1.2 0 0 3.2-7 4.2-9.3 0.4-1-0.9-2.4-2.9-2.4h-3.8c-0.5 0-0.9 0.4-0.9 0.9v5c0 0.5-0.4 0.9-0.9 0.9h-21.9z"/>
</svg>
