<svg id="Layer_2" data-name="Layer 2" viewBox="0 0 48 48" xmlns="http://www.w3.org/2000/svg">
 <defs>
  <style>.cls-1{fill:none;stroke:#fff;stroke-linecap:round;stroke-linejoin:round;}</style>
 </defs>
 <path class="cls-1" d="m19.12 22.73a2.57 2.57 0 0 0-2.72-2.57 2.67 2.67 0 0 0-2.4 2.72v2.39a2.58 2.58 0 0 0 2.58 2.57 2.58 2.58 0 0 0 2.58-2.57v-2.54"/>
 <path class="cls-1" d="m34 22.73a2.57 2.57 0 0 0-2.72-2.57 2.67 2.67 0 0 0-2.44 2.72v2.39a2.58 2.58 0 0 0 2.58 2.57 2.58 2.58 0 0 0 2.58-2.57v-2.54"/>
 <line class="cls-1" x1="21.42" x2="21.42" y1="20.16" y2="27.84"/>
 <line class="cls-1" x1="26.58" x2="26.58" y1="27.84" y2="20.16"/>
 <line class="cls-1" x1="21.42" x2="26.58" y1="20.16" y2="27.84"/>
 <path class="cls-1" d="M8.43,20.15a1.92,1.92,0,0,0-1.92,1.93h0A1.92,1.92,0,0,0,8.43,24h.65"/>
 <path class="cls-1" d="m9.08 24h0.65a1.92 1.92 0 0 1 1.92 1.92 1.92 1.92 0 0 1-1.92 1.93"/>
 <path class="cls-1" d="M11.47,20.8a3.26,3.26,0,0,0-2.39-.65H8.43"/>
 <path class="cls-1" d="M6.69,27.2a3.24,3.24,0,0,0,2.39.65h.65"/>
 <path class="cls-1" d="m38.27 20.15a1.92 1.92 0 0 0-1.92 1.93 1.92 1.92 0 0 0 1.92 1.92h0.65"/>
 <path class="cls-1" d="m38.92 24h0.65a1.92 1.92 0 0 1 1.92 1.92 1.92 1.92 0 0 1-1.92 1.93"/>
 <path class="cls-1" d="M41.31,20.8a3.24,3.24,0,0,0-2.39-.65h-.65"/>
 <path class="cls-1" d="M36.53,27.2a3.26,3.26,0,0,0,2.39.65h.65"/>
 <path class="cls-1" d="M24,2.5A21.5,21.5,0,1,0,45.5,24,21.44,21.44,0,0,0,24,2.5Z"/>
</svg>
