<svg viewBox="0 0 48 48" xmlns="http://www.w3.org/2000/svg">
 <defs>
  <style>.a{fill:none;stroke:#fff;stroke-linecap:round;stroke-linejoin:round;}</style>
 </defs>
 <path class="a" d="m41.59 18a7.28 7.28 0 0 0-12.24-4.34h-10.68a7.29 7.29 0 0 0-5-2 7.3 7.3 0 0 0-7.25 6.34l-1.91 15.24c-0.32 3.89 6.53 4 7.81 1.32l3.09-4.9a4.32 4.32 0 0 1 3.59-2.3h10a4.24 4.24 0 0 1 3.62 2.3l3.09 4.9c1.28 2.66 8.13 2.57 7.81-1.32z"/>
 <circle class="a" cx="13.65" cy="18.84" r="4.11"/>
 <circle class="a" cx="34.35" cy="18.84" r="4.11"/>
</svg>
