<svg viewBox="0 0 48 48" xmlns="http://www.w3.org/2000/svg">
 <defs>
  <style>.a{fill:none;stroke:#fff;stroke-linecap:round;stroke-linejoin:round;}</style>
 </defs>
 <path class="a" d="m40.5 42.5h-33a2 2 0 0 1-2-2v-33a2 2 0 0 1 2-2h33a2 2 0 0 1 2 2v33a2 2 0 0 1-2 2z"/>
 <polyline class="a" points="24.17 21.12 21.01 29.48 17.86 21.12"/>
 <path class="a" d="M9.7,28.78a3.57,3.57,0,0,0,2.59.7H13a2.08,2.08,0,0,0,2.09-2.09h0A2.09,2.09,0,0,0,13,25.3H11.59A2.08,2.08,0,0,1,9.5,23.21h0a2.09,2.09,0,0,1,2.09-2.09h.7a3.53,3.53,0,0,1,2.6.71"/>
 <path class="a" d="M27.18,18.52v9.39a1.57,1.57,0,0,0,1.57,1.57h.48"/>
 <line class="a" x1="27.18" x2="28.83" y1="21.12" y2="21.12"/>
 <polygon class="a" points="38.5 25.3 32.25 21.12 32.25 29.48"/>
</svg>
