<svg viewBox="0 0 48 48" xmlns="http://www.w3.org/2000/svg">
 <defs>
  <style>.a{fill:none;stroke:#fff;stroke-linecap:round;stroke-linejoin:round;}</style>
 </defs>
 <line class="a" x1="43.5" x2="4.5" y1="5.21" y2="5.21"/>
 <line class="a" x1="41.55" x2="41.55" y1="36.41" y2="5.21"/>
 <line class="a" x1="4.5" x2="43.5" y1="36.41" y2="36.41"/>
 <line class="a" x1="6.45" x2="6.45" y1="5.21" y2="36.41"/>
 <path class="a" d="m33.2 15.64a2.32 2.32 0 1 1-4.64 0v-4.13a2.32 2.32 0 0 1 4.64 0z"/>
 <path class="a" d="M19.44,23.12a2.32,2.32,0,0,1-4.64,0V19a2.32,2.32,0,0,1,4.64,0Z"/>
 <path class="a" d="m33.2 30.6a2.32 2.32 0 0 1-4.64 0v-4.13a2.32 2.32 0 0 1 4.64 0z"/>
 <line class="a" x1="11.33" x2="28.56" y1="13.58" y2="13.58"/>
 <line class="a" x1="11.33" x2="28.56" y1="28.53" y2="28.53"/>
 <line class="a" x1="33.2" x2="36.67" y1="13.58" y2="13.58"/>
 <line class="a" x1="33.2" x2="36.67" y1="28.53" y2="28.53"/>
 <line class="a" x1="19.44" x2="36.67" y1="21.06" y2="21.06"/>
 <line class="a" x1="14.8" x2="11.33" y1="21.06" y2="21.06"/>
 <line class="a" x1="11.93" x2="17.96" y1="42.46" y2="36.41"/>
 <line class="a" x1="24" x2="24" y1="36.41" y2="42.79"/>
 <line class="a" x1="36.07" x2="30.04" y1="42.46" y2="36.41"/>
</svg>
