<svg id="Layer_2" data-name="Layer 2" viewBox="0 0 48 48" xmlns="http://www.w3.org/2000/svg">
 <defs>
  <style>.cls-1{fill:none;stroke:#fff;stroke-linecap:round;stroke-linejoin:round;}</style>
 </defs>
 <path class="cls-1" d="m33.12 33.11a12.88 12.88 0 0 1-18.21 0l-10.44-10.4 4.53-4.57a2.77 2.77 0 0 1 3.9 0l8.5 8.46a3.67 3.67 0 0 0 6.2-1.6l6.78 6.77a13.86 13.86 0 0 1-1.26 1.34zm5.88-3.25a2.77 2.77 0 0 1-3.9 0l-8.49-8.46a3.67 3.67 0 0 0-6.2 1.65l-6.78-6.76a14.53 14.53 0 0 1 1.2-1.4 12.88 12.88 0 0 1 18.21 0l10.41 10.4z"/>
</svg>
