<svg viewBox="0 0 48 48" xmlns="http://www.w3.org/2000/svg">
 <defs>
  <style>.a{fill:none;stroke:#fff;stroke-linecap:round;stroke-linejoin:round;}</style>
 </defs>
 <path class="a" d="m40.5 42.5h-33a2 2 0 0 1-2-2v-33a2 2 0 0 1 2-2h33a2 2 0 0 1 2 2v33a2 2 0 0 1-2 2z"/>
 <polyline class="a" points="19.3 28.69 19.3 19.3 24 28.7 28.7 19.32 28.7 28.7"/>
 <line class="a" x1="10.5" x2="16.72" y1="19.3" y2="19.3"/>
 <line class="a" x1="13.61" x2="13.61" y1="28.7" y2="19.3"/>
 <path class="a" d="m31.46 27.67a2.64 2.64 0 0 0 2.31 1h1.39a2.35 2.35 0 0 0 2.34-2.35 2.35 2.35 0 0 0-2.34-2.32h-1.54a2.35 2.35 0 0 1-2.34-2.35 2.35 2.35 0 0 1 2.34-2.35h1.38a2.61 2.61 0 0 1 2.3 1"/>
</svg>
