<svg id="Layer_2" data-name="Layer 2" viewBox="0 0 48 48" xmlns="http://www.w3.org/2000/svg">
 <defs>
  <style>.cls-1{fill:none;stroke:#fff;stroke-linecap:round;stroke-linejoin:round;}</style>
 </defs>
 <path class="cls-1" d="m7.5 5.5h33a2 2 0 0 1 2 2v33a2 2 0 0 1-2 2h-33a2 2 0 0 1-2-2v-33a2 2 0 0 1 2-2zm5 4.81a2.21 2.21 0 0 0-2.22 2.22v21a2.22 2.22 0 0 0 2.22 2.22h6.85a2.22 2.22 0 0 0 2.21-2.22v-21a2.21 2.21 0 0 0-2.21-2.22zm16.09 0a2.22 2.22 0 0 0-2.22 2.22v11.75a2.23 2.23 0 0 0 2.22 2.22h6.85a2.22 2.22 0 0 0 2.22-2.22v-11.75a2.21 2.21 0 0 0-2.22-2.22z"/>
</svg>
