<!-- Created with Inkscape (http://www.inkscape.org/) -->
<svg width="48" height="48" version="1.1" viewBox="0 0 48 48" xmlns="http://www.w3.org/2000/svg">
 <defs>
  <style id="style5307">.a{fill:none;stroke:#fff;stroke-linecap:round;stroke-linejoin:round;}</style>
 </defs>
 <g>
  <path d="m37.971405 23.632362c0-3.325314-2.695699-6.021015-6.021015-6.021015s-6.021016 2.695701-6.021016 6.021015l1e-6 0.735274c0 5.64141-4.573265 10.214676-10.214675 10.214676-5.641408 0-10.214674-4.573265-10.214674-10.214675l9e-7 -8.685664c3e-7 -1.250529 1.0137546-2.264284 2.264284-2.264284 1.2505297 0 2.2642839 1.013754 2.2642839 2.264284m27.94281 16.636054v-8.685665m-27.94281-7.950389v8.685664c0 3.325316 2.6957 6.021015 6.021016 6.021015s6.021015-2.6957 6.021015-6.021016v-0.735274c-1e-6 -5.641408 4.573265-10.214674 10.214674-10.214674s10.214674 4.573266 10.214674 10.214674l-1e-6 8.685665c0 1.25053-1.013754 2.264284-2.264283 2.264284-1.250531 0-2.264285-1.013753-2.264285-2.264284" style="fill:none;stroke:#ffffff"/>
 </g>
</svg>
