<svg viewBox="0 0 48 48" xmlns="http://www.w3.org/2000/svg">
 <defs>
  <style>.a{fill:none;stroke:#fff;stroke-linecap:round;stroke-linejoin:round;}</style>
 </defs>
 <path class="a" d="M4.5,19.75l4.57,6.66L21,8.58"/>
 <path class="a" d="M12.48,24.78l1.12,1.63L25.52,8.58"/>
 <path class="a" d="m9 19.75 1.12 1.63"/>
 <line class="a" x1="9.66" x2="21.69" y1="39.37" y2="20.89"/>
 <line class="a" x1="21.69" x2="21.69" y1="39.42" y2="20.89"/>
 <line class="a" x1="21.69" x2="13.66" y1="33.22" y2="33.22"/>
 <circle class="a" cx="33.97" cy="21.89" r="9.53"/>
 <path class="a" d="m28.89 13.83a22 22 0 0 0 13.55 3.7"/>
 <path class="a" d="m26 16.65a24 24 0 0 0 17.5 4.89"/>
 <path class="a" d="m24.56 20.36c4.08 3.23 12.34 7.11 18.37 4.79"/>
 <path class="a" d="m24.73 24.26c4.72 3.87 10.61 5.65 16 4.38"/>
 <path class="a" d="m35.28 12.45c-7.79 2.65-10.9 12.49-7.59 16.6"/>
 <path class="a" d="m36.46 12.68a55.13 55.13 0 0 1-4.52 18.52"/>
 <path class="a" d="M37.16,12.91c4.14,6.47.91,15.41-2.81,18.5"/>
 <path class="a" d="M37.77,13.15c4.24,4.41,6.46,11.31-.14,17.54"/>
 <path class="a" d="m36.1 12.6c-5.64 4.39-8.5 14.94-6 18"/>
</svg>
