<svg viewBox="0 0 48 48" xmlns="http://www.w3.org/2000/svg">
 <defs>
  <style>.a{fill:none;stroke:#fff;stroke-linecap:round;stroke-linejoin:round;}</style>
 </defs>
 <path class="a" d="M16.36,24.17l-5.21.69c-1.12.15-1.27-.42-1.37-1L7.62,7.88a1,1,0,0,1,.63-1.2L18,4.57c.65-.21,1.12,0,1.34.88l1.89,12.61"/>
 <path class="a" d="M21.24,18.06l1.17-1.33.78,1-.48,2.45-2.8,4.47-2.16,1L17,35.5l-.87-.6-1.21-9Z"/>
 <path class="a" d="M19.91,24.69l4.56-2.57,5.38-.71-.05,1.78-3.95,1.43L23,26.9l-1.35.17L20,34.44l1.67-7.37L23,26.9l4.2-1.52,5.8-.2-1.45,2.53-2.6.18-4.06,2.18-2.18,5.67,2.17-5.66,3.71-1.46,4.31.43-1.7,2.12-1.72,0-1.89,1.63-2,5.13,2-5.13,1.89-1.63,1.72,0,3.52,5.65,5.67,2.33V43.5l-8.76-.22-13.53-5-1.25-1.46L17,35.5"/>
 <path class="a" d="m11.16 16c1.28-4.14 4.64-5.06 6.92-1.37-1.48 2.44-4 3.48-6.92 1.37z"/>
 <path class="a" d="m13.82 12.58a2.85 2.85 0 0 1 1.8 4.3"/>
 <path class="a" d="M13.82,12.58c-1.84,2.45.32,4,1.8,4.3"/>
 <path class="a" d="M11,13.08l-.92-.62"/>
 <path class="a" d="m12.32 11.82-0.88-1.16"/>
 <path class="a" d="m13.92 11.1-0.32-1.35"/>
 <path class="a" d="M15.72,11.07l.44-1.2"/>
 <path class="a" d="M17.41,11.72l.69-.93"/>
 <path class="a" d="M18.13,17l1.14.84"/>
 <path class="a" d="M16.41,18.15l.66.94"/>
 <path class="a" d="M14.5,18.57V20"/>
 <path class="a" d="m12.22 18.24-0.88 1.08"/>
 <path class="a" d="m14.45 14.25a1.16 1.16 0 0 1 0.33 1c-0.29-0.39-0.48-0.58-0.33-1z"/>
</svg>
