<svg viewBox="0 0 48 48" xmlns="http://www.w3.org/2000/svg">
 <defs>
  <style>.a{fill:none;stroke:#fff;stroke-linecap:round;stroke-linejoin:round;}.b{fill:#fff;}</style>
 </defs>
 <path class="a" d="m40.5 5.5h-33a2 2 0 0 0-2 2v33a2 2 0 0 0 2 2h33a2 2 0 0 0 2-2v-33a2 2 0 0 0-2-2z"/>
 <path class="a" d="m28 34.3a2.63 2.63 0 0 1 2.63-2.63 2.62 2.62 0 0 1 2.62 2.63v4.2"/>
 <line class="a" x1="28" x2="28" y1="31.67" y2="38.5"/>
 <path class="a" d="m33.25 34.3a2.63 2.63 0 0 1 2.63-2.63 2.63 2.63 0 0 1 2.63 2.63v4.2"/>
 <circle class="b" cx="9.51" cy="10.39" r=".75"/>
 <line class="a" x1="9.51" x2="9.51" y1="13.61" y2="20.56"/>
 <path class="a" d="m24.91 37.18a2.64 2.64 0 0 1-2.28 1.32 2.63 2.63 0 0 1-2.63-2.63v-1.7a2.63 2.63 0 0 1 2.63-2.63 2.61 2.61 0 0 1 2.27 1.32"/>
 <path class="a" d="m17.86 20.56v-4.33a2.62 2.62 0 0 0-2.62-2.62 2.62 2.62 0 0 0-2.63 2.62v4.33"/>
 <line class="a" x1="12.61" x2="12.61" y1="16.23" y2="13.61"/>
 <path class="a" d="m17 35h-3a4.5 4.5 0 0 1-4.5-4.49 4.5 4.5 0 0 1 4.5-4.5h20a4.5 4.5 0 0 0 4.5-4.49 4.5 4.5 0 0 0-4.5-4.45h-13.18"/>
 <polyline class="a" points="15.32 33.34 17.02 35.04 15.32 36.74"/>
 <polyline class="a" points="22.52 18.77 20.82 17.07 22.52 15.37"/>
</svg>
