<svg id="Layer_2" data-name="Layer 2" viewBox="0 0 48 48" xmlns="http://www.w3.org/2000/svg">
 <defs>
  <style>.cls-1{fill:none;stroke:#fff;stroke-linecap:round;stroke-linejoin:round;}</style>
 </defs>
 <path class="cls-1" d="m25.9 2.5a22 22 0 0 1 6.87 1.8l-3 5.13a15.63 15.63 0 0 0-3.92-1v-5.93zm-4.06 0v5.89a15.63 15.63 0 0 0-3.92 1l-2.92-5.02a21.62 21.62 0 0 1 6.84-1.84zm14.47 3.8a21.51 21.51 0 0 1 5.1 5l-5.23 3a15.49 15.49 0 0 0-2.86-2.86l3-5.18zm-24.82 0.1 2.93 5.08a15.8 15.8 0 0 0-2.86 2.86l-5.11-2.95a21.32 21.32 0 0 1 5.04-4.99zm10.35 6.09v5.62a6 6 0 0 0-1.84 1.08l-4.88-2.81a11.45 11.45 0 0 1 6.76-3.89zm4.06 0a11.38 11.38 0 0 1 6.75 3.88l-4.87 2.82a6 6 0 0 0-1.88-1.08v-5.62zm17.58 2.32a21.82 21.82 0 0 1 1.94 7h-6.15a15.63 15.63 0 0 0-1-3.92zm-39.08 0.08 5.11 2.95a15.63 15.63 0 0 0-1 3.92h-6a21.4 21.4 0 0 1 1.89-6.87zm30.27 5a11.34 11.34 0 0 1 0 7.79l-4.86-2.81a5.57 5.57 0 0 0 0.1-1.08 5.67 5.67 0 0 0-0.1-1.09l4.86-2.81zm-21.6 0 4.86 2.8a6.59 6.59 0 0 0-0.1 1.09 5.57 5.57 0 0 0 0.1 1.08l-4.86 2.81a11.31 11.31 0 0 1 0-7.78zm32.36 2c0.08 0.71 0.12 1.42 0.13 2.13v0.57c0 0.42 0 0.83-0.07 1.25a21.53 21.53 0 0 1-1.82 7l-5.41-3.13a15.55 15.55 0 0 0 1-3.91h6.19c0-0.42 0-0.83 0.07-1.25v-0.57c0-0.71-0.05-1.42-0.13-2.13zm-43 3.95h6a15.55 15.55 0 0 0 1 3.91l-5.18 3.03a21.63 21.63 0 0 1-1.81-7zm25.34 2.57 4.87 2.81a11.4 11.4 0 0 1-6.75 3.89v-5.64a6 6 0 0 0 1.89-1.08zm-7.82 0a5.87 5.87 0 0 0 1.88 1.08v5.62a11.42 11.42 0 0 1-6.76-3.89l4.93-2.83zm-8.4 4.85a15.8 15.8 0 0 0 2.86 2.86l-3.11 5.39a21.5 21.5 0 0 1-5.07-5.18l5.32-3.07zm24.62 0 5.46 3.15a21.51 21.51 0 0 1-5.16 5.18l-3.15-5.49a16.13 16.13 0 0 0 2.86-2.86zm-18.26 4.9a15.12 15.12 0 0 0 3.92 1v6.34a21.49 21.49 0 0 1-7-2l3.11-5.4zm11.89 0 3.2 5.45a21.74 21.74 0 0 1-7.1 1.89v-6.31a15.44 15.44 0 0 0 3.91-1.04z"/>
</svg>
