<svg viewBox="0 0 48 48" xmlns="http://www.w3.org/2000/svg">
 <defs>
  <style>.a{fill:none;stroke:#fff;stroke-linecap:round;stroke-linejoin:round;}</style>
 </defs>
 <path class="a" d="m32.55 29.61a7.95 7.95 0 1 0 8 7.94 7.94 7.94 0 0 0-8-7.93z"/>
 <path class="a" d="M27.29,43.5H17.12a2.34,2.34,0,0,1-2.33-2.08L10.8,5.8A1.17,1.17,0,0,1,12,4.5H36A1.17,1.17,0,0,1,37.2,5.8L34.53,29.61"/>
 <path class="a" d="m12.21 17c7.42 0 7.42 2.9 14.79 2.9 4.63 0 6.37-1.15 8.83-2"/>
 <line class="a" x1="32.55" x2="32.55" y1="37.55" y2="32.09"/>
 <line class="a" x1="32.55" x2="35.77" y1="37.55" y2="39.65"/>
</svg>
