<svg viewBox="0 0 48 48" xmlns="http://www.w3.org/2000/svg">
 <defs>
  <style>.a{fill:none;stroke:#fff;stroke-linecap:round;stroke-linejoin:round;}</style>
 </defs>
 <path class="a" d="M22.51,15.44a6.94,6.94,0,0,0-12.42,4A6.23,6.23,0,0,0,8.38,31"/>
 <path class="a" d="M17.57,31.8H28.31a4.87,4.87,0,0,0,4.87-4.87,4.79,4.79,0,0,0-.58-2.3"/>
 <circle class="a" cx="30.18" cy="17.11" r="6.02"/>
 <line class="a" x1="30.18" x2="30.18" y1="4.5" y2="9.6"/>
 <line class="a" x1="39.1" x2="35.49" y1="8.19" y2="11.8"/>
 <line class="a" x1="42.79" x2="37.7" y1="17.11" y2="17.11"/>
 <line class="a" x1="39.1" x2="35.49" y1="26.03" y2="22.43"/>
 <line class="a" x1="21.26" x2="24.87" y1="8.19" y2="11.8"/>
 <path class="a" d="M16.12,33.31l-1.81-5.53-4.24,4a3.83,3.83,0,0,0,1.2,6.39l.36.11.38.08A3.83,3.83,0,0,0,16.12,33.31Z"/>
 <path class="a" d="m21.62 39.42-1.89-3.81-2.65 3.39a2.8 2.8 0 0 0 1.55 4.49h0.27 0.28a2.8 2.8 0 0 0 2.44-4.07z"/>
</svg>
