<?xml version="1.0" encoding="UTF-8"?>
<svg id="a" version="1.1" viewBox="0 0 48 48" xmlns="http://www.w3.org/2000/svg">
 <defs id="defs1">
  <style id="style1">.c{fill:none;stroke:#000;stroke-width:2px;stroke-linecap:round;stroke-linejoin:round;}</style>
 </defs>
 <path id="rect1" d="m7.5 4.5c-1.6447 0-3 1.3553-3 3v33c0 1.6447 1.3553 3 3 3h33c1.6447 0 3-1.3553 3-3v-33c0-1.6447-1.3553-3-3-3zm0 2h33c0.5713 0 1 0.4287 1 1v33c0 0.5713-0.4287 1-1 1h-33c-0.5713 0-1-0.4287-1-1v-33c0-0.5713 0.4287-1 1-1z" stroke-linecap="round" stroke-linejoin="round"/>
 <path id="line1" d="m5.5 34.5a1 1 0 0 0-1 1 1 1 0 0 0 1 1h37a1 1 0 0 0 1-1 1 1 0 0 0-1-1z" stroke-linecap="round" stroke-linejoin="round"/>
 <g id="b" stroke-linecap="round" stroke-linejoin="round">
  <path id="circle1" d="m22.053 10c-4.7117 0-8.5527 3.841-8.5527 8.5527 0 4.7117 3.841 8.5527 8.5527 8.5527 4.7117 0 8.5527-3.841 8.5527-8.5527 0-4.7117-3.841-8.5527-8.5527-8.5527zm0 2c3.6309 0 6.5527 2.9219 6.5527 6.5527 0 3.6309-2.9219 6.5527-6.5527 6.5527-3.6309 0-6.5527-2.9219-6.5527-6.5527 0-3.6309 2.9219-6.5527 6.5527-6.5527z"/>
  <path id="line2" d="m26.686 23.186a1 1 0 0 0 0 1.4141l6.1074 6.1074a1 1 0 0 0 1.4141 0 1 1 0 0 0 0-1.4141l-6.1074-6.1074a1 1 0 0 0-1.4141 0z"/>
 </g>
</svg>
