<?xml version="1.0" encoding="UTF-8"?>
<svg id="a" version="1.1" viewBox="0 0 48 48" xmlns="http://www.w3.org/2000/svg">
 <defs id="defs1">
  <style id="style1">.b{fill:none;stroke:#000;stroke-width:2px;stroke-linecap:round;stroke-linejoin:round;}</style>
 </defs>
 <path id="path1" d="m7.5 8.3008c-2.1973 0-4 1.8027-4 4v20c0 2.1973 1.8027 4 4 4h22.717l7.9766 7.1445a1.0001 1.0001 0 0 0 1.666-0.74609v-6.3984h0.64062c2.1973 0 4-1.8027 4-4v-20c0-2.1973-1.8027-4-4-4zm0 2h33c1.1165 0 2 0.88351 2 2v20c0 1.1165-0.88351 2-2 2h-1.6406a1.0001 1.0001 0 0 0-1 1v5.1602l-6.5918-5.9062a1.0001 1.0001 0 0 0-0.66797-0.25391h-23.1c-1.1165 0-2-0.88351-2-2v-20c0-1.1165 0.88351-2 2-2z" color="#000000" stroke-linecap="round" stroke-linejoin="round" style="-inkscape-stroke:none"/>
 <path id="rect1" d="m19.598 12.301a1.0001 1.0001 0 0 0-1 1v12.699a1.0001 1.0001 0 0 0 1 1h19.902a1.0001 1.0001 0 0 0 1-1v-12.699a1.0001 1.0001 0 0 0-1-1zm1 2h17.902v10.699h-17.902z" color="#000000" stroke-linecap="round" stroke-linejoin="round" style="-inkscape-stroke:none"/>
</svg>
