<?xml version="1.0" encoding="UTF-8"?>
<svg id="a" version="1.1" viewBox="0 0 48 48" xmlns="http://www.w3.org/2000/svg">
 <defs id="defs1">
  <style id="style1">.b{fill:none;stroke:#000;stroke-width:2px;stroke-linecap:round;stroke-linejoin:round;}</style>
 </defs>
 <path id="rect1" d="m7.5 4.5c-1.6447 0-3 1.3553-3 3v33c0 1.6447 1.3553 3 3 3h33c1.6447 0 3-1.3553 3-3v-33c0-1.6447-1.3553-3-3-3zm0 2h33c0.5713 0 1 0.4287 1 1v33c0 0.5713-0.4287 1-1 1h-33c-0.5713 0-1-0.4287-1-1v-33c0-0.5713 0.4287-1 1-1z" color="#000000" stroke-linecap="round" stroke-linejoin="round" style="-inkscape-stroke:none"/>
 <path id="line1" d="m5.5 34.5a1 1 0 0 0-1 1 1 1 0 0 0 1 1h37a1 1 0 0 0 1-1 1 1 0 0 0-1-1z" color="#000000" stroke-linecap="round" stroke-linejoin="round" style="-inkscape-stroke:none"/>
 <path id="path1" d="m24 10.014a1.0001 1.0001 0 0 0-1 0.98633c0 4.7063-3.7937 8.5-8.5 8.5a1.0001 1.0001 0 0 0 0 2c4.7063 0 8.5 3.7937 8.5 8.5a1.0001 1.0001 0 0 0 2 0c0-4.7063 3.7937-8.5 8.5-8.5a1.0001 1.0001 0 0 0 0-2c-4.7063 0-8.5-3.7937-8.5-8.5a1.0001 1.0001 0 0 0-1-0.98633zm0 5.3262c1.0494 2.2815 2.8787 4.1107 5.1602 5.1602-2.2815 1.0494-4.1107 2.8787-5.1602 5.1602-1.0494-2.2815-2.8787-4.1107-5.1602-5.1602 2.2815-1.0494 4.1107-2.8787 5.1602-5.1602z" color="#000000" stroke-linecap="round" stroke-linejoin="round" style="-inkscape-stroke:none"/>
</svg>
