<?xml version="1.0" encoding="UTF-8"?>
<svg id="a" version="1.1" viewBox="0 0 48 48" xmlns="http://www.w3.org/2000/svg">
 <defs id="defs1">
  <style id="style1">.b{fill:none;stroke:#000;stroke-width:2px;stroke-linecap:round;stroke-linejoin:round;}</style>
 </defs>
 <path id="path1" d="m7.5 8.3008c-2.1973 0-4 1.8027-4 4v20c0 2.1973 1.8027 4 4 4h0.64062v6.3984a1.0001 1.0001 0 0 0 1.666 0.74609l7.9766-7.1445h22.717c2.1973 0 4-1.8027 4-4v-20c0-2.1973-1.8027-4-4-4zm0 2h33c1.1165 0 2 0.88351 2 2v20c0 1.1165-0.88351 2-2 2h-23.1a1.0001 1.0001 0 0 0-0.66797 0.25391l-6.5918 5.9062v-5.1602a1.0001 1.0001 0 0 0-1-1h-1.6406c-1.1165 0-2-0.88351-2-2v-20c0-1.1165 0.88351-2 2-2z" color="#000000" stroke-linecap="round" stroke-linejoin="round" style="-inkscape-stroke:none"/>
 <path id="circle1" d="m24 18.051c-2.3354 0-4.25 1.9146-4.25 4.25s1.9146 4.25 4.25 4.25 4.25-1.9146 4.25-4.25-1.9146-4.25-4.25-4.25zm0 2c1.2545 0 2.25 0.99552 2.25 2.25s-0.99552 2.25-2.25 2.25-2.25-0.99552-2.25-2.25 0.99552-2.25 2.25-2.25z" color="#000000" stroke-linecap="round" stroke-linejoin="round" style="-inkscape-stroke:none"/>
 <path id="circle2" d="m14 18.051c-2.3354 0-4.25 1.9146-4.25 4.25s1.9146 4.25 4.25 4.25 4.25-1.9146 4.25-4.25-1.9146-4.25-4.25-4.25zm0 2c1.2545 0 2.25 0.99552 2.25 2.25s-0.99552 2.25-2.25 2.25-2.25-0.99552-2.25-2.25 0.99552-2.25 2.25-2.25z" color="#000000" stroke-linecap="round" stroke-linejoin="round" style="-inkscape-stroke:none"/>
 <path id="circle3" d="m34 18.051c-2.3354 0-4.25 1.9146-4.25 4.25s1.9146 4.25 4.25 4.25 4.25-1.9146 4.25-4.25-1.9146-4.25-4.25-4.25zm0 2c1.2545 0 2.25 0.99552 2.25 2.25s-0.99552 2.25-2.25 2.25-2.25-0.99552-2.25-2.25 0.99552-2.25 2.25-2.25z" color="#000000" stroke-linecap="round" stroke-linejoin="round" style="-inkscape-stroke:none"/>
</svg>
