<?xml version="1.0" encoding="UTF-8"?>
<svg id="a" version="1.1" viewBox="0 0 48 48" xmlns="http://www.w3.org/2000/svg">
 <defs id="defs1">
  <style id="style1">.b{fill:none;stroke:#000;stroke-width:2px;stroke-linecap:round;stroke-linejoin:round;}</style>
 </defs>
 <path id="rect1" d="m7.5 4.5c-1.6447 0-3 1.3553-3 3v33c0 1.6447 1.3553 3 3 3h33c1.6447 0 3-1.3553 3-3v-33c0-1.6447-1.3553-3-3-3zm0 2h33c0.5713 0 1 0.4287 1 1v33c0 0.5713-0.4287 1-1 1h-33c-0.5713 0-1-0.4287-1-1v-33c0-0.5713 0.4287-1 1-1z" stop-color="#000000" stroke-linecap="round" stroke-linejoin="round"/>
 <path id="line1" d="m5.5 34.5a1 1 0 0 0-1 1 1 1 0 0 0 1 1h37a1 1 0 0 0 1-1 1 1 0 0 0-1-1z" stop-color="#000000" stroke-linecap="round" stroke-linejoin="round"/>
 <path id="line2" d="m32.5 25.5a1 1 0 0 0-1 1 1 1 0 0 0 1 1h3a1 1 0 0 0 1-1 1 1 0 0 0-1-1z" stop-color="#000000" stroke-linecap="round" stroke-linejoin="round"/>
 <path id="line3" d="m12.5 25.5a1 1 0 0 0-1 1 1 1 0 0 0 1 1h14a1 1 0 0 0 1-1 1 1 0 0 0-1-1z" stop-color="#000000" stroke-linecap="round" stroke-linejoin="round"/>
 <path id="line4" d="m21.5 13.5a1 1 0 0 0-1 1 1 1 0 0 0 1 1h14a1 1 0 0 0 1-1 1 1 0 0 0-1-1z" stop-color="#000000" stroke-linecap="round" stroke-linejoin="round"/>
 <path id="line5" d="m12.5 13.5a1 1 0 0 0-1 1 1 1 0 0 0 1 1h3a1 1 0 0 0 1-1 1 1 0 0 0-1-1z" stop-color="#000000" stroke-linecap="round" stroke-linejoin="round"/>
 <path id="circle5" d="m18.5 10.5c-2.1973 0-4 1.8027-4 4s1.8027 4 4 4 4-1.8027 4-4-1.8027-4-4-4zm0 2c1.1164 0 2 0.88359 2 2s-0.88359 2-2 2-2-0.88359-2-2 0.88359-2 2-2z" stop-color="#000000" stroke-linecap="round" stroke-linejoin="round"/>
 <path id="circle6" d="m29.5 22.5c-2.1973 0-4 1.8027-4 4s1.8027 4 4 4 4-1.8027 4-4-1.8027-4-4-4zm0 2c1.1164 0 2 0.88359 2 2s-0.88359 2-2 2-2-0.88359-2-2 0.88359-2 2-2z" stop-color="#000000" stroke-linecap="round" stroke-linejoin="round"/>
</svg>
