<?xml version="1.0" encoding="UTF-8"?>
<svg id="a" version="1.1" viewBox="0 0 48 48" xmlns="http://www.w3.org/2000/svg">
 <defs id="defs1">
  <style id="style1">.b{fill:none;stroke:#000;stroke-width:2px;stroke-linecap:round;stroke-linejoin:round;}</style>
 </defs>
 <path id="path1" d="m24 1.5c-12.412 0.0057502-22.494 10.088-22.5 22.5 0 12.415 10.085 22.5 22.5 22.5s22.5-10.085 22.5-22.5-10.085-22.5-22.5-22.5zm0 2c11.334 0 20.5 9.1664 20.5 20.5s-9.1664 20.5-20.5 20.5-20.5-9.1664-20.5-20.5c0.0052498-11.332 9.1683-20.495 20.5-20.5z" color="#000000" stroke-linecap="round" stroke-linejoin="round" style="-inkscape-stroke:none"/>
 <path id="polyline1" d="m23.324 8.5488a1 1 0 0 0-1.2598 0.64258l-4.5332 13.928a1.0001 1.0001 0 0 0 0.97852 1.3086l9.5723-0.25976-5.0234 13.994a1 1 0 0 0 0.60352 1.2793 1 1 0 0 0 1.2793-0.60352l5.5176-15.371a1.0001 1.0001 0 0 0-0.96875-1.3379l-9.6172 0.25977 4.0918-12.58a1 1 0 0 0-0.64062-1.2598z" color="#000000" stroke-linecap="round" stroke-linejoin="round" style="-inkscape-stroke:none"/>
 <path id="polyline2" d="m21.936 32.918a1 1 0 0 0-0.76367 0.06055 1 1 0 0 0-0.43359 1.3457l2.3711 4.6309a1.0001 1.0001 0 0 0 1.3457 0.43555l4.6309-2.3711a1 1 0 0 0 0.43555-1.3477 1 1 0 0 0-1.3457-0.43359l-3.7422 1.916-1.9141-3.7402a1 1 0 0 0-0.58398-0.49609z" color="#000000" stroke-linecap="round" stroke-linejoin="round" style="-inkscape-stroke:none"/>
</svg>
