<?xml version="1.0" encoding="UTF-8"?>
<svg id="svg4" version="1.1" viewBox="0 0 48 48" xmlns="http://www.w3.org/2000/svg">
 <defs id="defs1">
  <style id="style1">.a{fill:none;stroke:#000;stroke-width:2px;stroke-linecap:round;stroke-linejoin:round;}</style>
 </defs>
 <path id="path1" d="m26.473 1.6172c-6.3418-0.73737-13.088 1.1821-18.381 6.4746-7.0567 7.0567-8.1172 16.701-4.8789 24.52 3.2383 7.819 10.806 13.889 20.787 13.889 12.412-0.005769 22.494-10.088 22.5-22.5 0-9.9809-6.0697-17.549-13.889-20.787-1.9548-0.80958-4.0248-1.3499-6.1387-1.5957zm-0.2207 1.9766c1.9226 0.22885 3.8072 0.72689 5.5938 1.4668 7.1461 2.9596 12.654 9.7646 12.654 18.939-0.005267 11.332-9.1683 20.495-20.5 20.5-9.1749 0-15.98-5.5082-18.939-12.654-2.9596-7.1461-2.0415-15.853 4.4453-22.34 4.8651-4.8651 10.978-6.5987 16.746-5.9121z" color="#000000" stroke-linecap="round" stroke-linejoin="round" style="-inkscape-stroke:none"/>
 <path id="line1" d="m35.861 10.611-12.301 8.9609a1 1 0 0 0-0.21875 1.3965 1 1 0 0 0 1.3965 0.21875l12.301-8.959a1 1 0 0 0 0.21875-1.3965 1 1 0 0 0-1.3965-0.2207z" color="#000000" stroke-linecap="round" stroke-linejoin="round" style="-inkscape-stroke:none"/>
 <path id="line2" d="m37.039 10.611a1 1 0 0 0-1.3984 0.2207l-8.959 12.309a1 1 0 0 0 0.2207 1.3984 1 1 0 0 0 1.3965-0.2207l8.959-12.311a1 1 0 0 0-0.21875-1.3965z" color="#000000" stroke-linecap="round" stroke-linejoin="round" style="-inkscape-stroke:none"/>
 <path id="circle2" d="m24 19.381c-2.4734 0-4.5 2.0266-4.5 4.5 0 2.4734 2.0266 4.5 4.5 4.5s4.5-2.0266 4.5-4.5c0-2.4734-2.0266-4.5-4.5-4.5zm0 2c1.3926 0 2.5 1.1074 2.5 2.5s-1.1074 2.5-2.5 2.5-2.5-1.1074-2.5-2.5 1.1074-2.5 2.5-2.5z" color="#000000" stroke-linecap="round" stroke-linejoin="round" style="-inkscape-stroke:none"/>
 <path id="line3" d="m23.252 26.572-12.301 8.959a1 1 0 0 0-0.21875 1.3984 1 1 0 0 0 1.3965 0.21875l12.301-8.9609a1 1 0 0 0 0.21875-1.3965 1 1 0 0 0-1.3965-0.21875z" color="#000000" stroke-linecap="round" stroke-linejoin="round" style="-inkscape-stroke:none"/>
 <path id="line4" d="m20.346 23.053a1 1 0 0 0-0.6543 0.39844l-8.959 12.301a1 1 0 0 0 0.21875 1.3965 1 1 0 0 0 1.3965-0.21875l8.9609-12.301a1 1 0 0 0-0.2207-1.3965 1 1 0 0 0-0.74219-0.17969z" color="#000000" stroke-linecap="round" stroke-linejoin="round" style="-inkscape-stroke:none"/>
</svg>
