<?xml version="1.0" encoding="UTF-8" standalone="no"?>
<svg
   viewBox="0 0 48 48"
   version="1.1"
   id="svg4"
   sodipodi:docname="emblem-documents.svg"
   xmlns:inkscape="http://www.inkscape.org/namespaces/inkscape"
   xmlns:sodipodi="http://sodipodi.sourceforge.net/DTD/sodipodi-0.dtd"
   xmlns="http://www.w3.org/2000/svg"
   xmlns:svg="http://www.w3.org/2000/svg">
  <sodipodi:namedview
     id="namedview4"
     pagecolor="#ffffff"
     bordercolor="#666666"
     borderopacity="1.0"
     inkscape:showpageshadow="2"
     inkscape:pageopacity="0.0"
     inkscape:pagecheckerboard="0"
     inkscape:deskcolor="#d1d1d1" />
  <defs
     id="defs1">
    <style
       id="style1">.a{fill:none;stroke:#fff;stroke-width:2px;stroke-linecap:round;stroke-linejoin:round;}</style>
  </defs>
  <path
     style="color:#000000;fill:#ffffff;stroke-linecap:round;stroke-linejoin:round;-inkscape-stroke:none"
     d="m 29.658203,3.5 -19.294922,0.00977 a 1.0001,1.0001 0 0 0 -0.02539,0 C 8.7244155,3.5500665 7.4175464,4.889928 7.4179687,6.5039062 V 41.505859 C 7.4175445,43.119838 8.7244171,44.45962 10.337891,44.5 a 1.0001,1.0001 0 0 0 0.02539,0 h 27.222656 c 1.641916,0 2.996094,-1.352225 2.996094,-2.994141 V 14.472656 a 1.0001,1.0001 0 0 0 -1,-1 h -7.953125 c -0.55044,-0.01378 -0.970848,-0.443528 -0.970703,-0.99414 a 1.0001,1.0001 0 0 0 0,-0.002 V 4.5 a 1.0001,1.0001 0 0 0 -1,-1 z m -1,2 v 6.976563 c -4.24e-4,1.613978 1.306448,2.95376 2.919922,2.99414 a 1.0001,1.0001 0 0 0 0.02539,0.002 h 6.978515 v 26.033203 c 0,0.561036 -0.435057,0.994141 -0.996094,0.994141 H 10.388672 C 9.838232,42.486224 9.417824,42.056472 9.4179688,41.505859 V 6.5039062 C 9.4178247,5.9533282 9.8382655,5.5235135 10.388672,5.5097656 Z"
     id="path1" />
  <path
     style="color:#000000;fill:#ffffff;stroke-linecap:round;stroke-linejoin:round;-inkscape-stroke:none"
     d="m 28.861328,3.8027344 a 1,1 0 0 0 0,1.4140625 l 9.962891,9.9628911 a 1,1 0 0 0 1.414062,0 1,1 0 0 0 0,-1.414063 L 30.277344,3.8027344 a 1,1 0 0 0 -1.416016,0 z"
     id="line1" />
  <path
     style="color:#000000;fill:#ffffff;stroke-linecap:round;stroke-linejoin:round;-inkscape-stroke:none"
     d="m 15.837891,21.927734 a 1,1 0 0 0 -1,1 1,1 0 0 0 1,1 h 16.273437 a 1,1 0 0 0 1,-1 1,1 0 0 0 -1,-1 z"
     id="line2" />
  <path
     style="color:#000000;fill:#ffffff;stroke-linecap:round;stroke-linejoin:round;-inkscape-stroke:none"
     d="m 15.837891,33.994141 a 1,1 0 0 0 -1,1 1,1 0 0 0 1,1 h 16.273437 a 1,1 0 0 0 1,-1 1,1 0 0 0 -1,-1 z"
     id="line3" />
  <path
     style="color:#000000;fill:#ffffff;stroke-linecap:round;stroke-linejoin:round;-inkscape-stroke:none"
     d="m 15.837891,27.960937 a 1,1 0 0 0 -1,1 1,1 0 0 0 1,1 h 16.273437 a 1,1 0 0 0 1,-1 1,1 0 0 0 -1,-1 z"
     id="line4" />
</svg>
