<?xml version="1.0" encoding="UTF-8"?>
<svg id="svg4" version="1.1" viewBox="0 0 48 48" xmlns="http://www.w3.org/2000/svg">
 <defs id="defs1">
  <style id="style1">.a{fill:none;stroke:#fff;stroke-width:2px;stroke-linecap:round;stroke-linejoin:round;}</style>
 </defs>
 <path id="circle1" d="m12.051 16.449c-4.1579 0-7.5508 3.3929-7.5508 7.5508s3.3929 7.5508 7.5508 7.5508c4.1579 0 7.5488-3.3929 7.5488-7.5508s-3.3909-7.5508-7.5488-7.5508zm0 2c3.077 0 5.5488 2.4738 5.5488 5.5508s-2.4718 5.5508-5.5488 5.5508c-3.077 0-5.5508-2.4738-5.5508-5.5508s2.4738-5.5508 5.5508-5.5508z" fill="#fff" stop-color="#000000" stroke-linecap="round" stroke-linejoin="round"/>
 <path id="circle2" d="m35.85 4.5195c-4.1579 0-7.5488 3.3929-7.5488 7.5508 0 4.1579 3.3909 7.5488 7.5488 7.5488 4.1579 0 7.5508-3.3909 7.5508-7.5488 0-4.1579-3.3929-7.5508-7.5508-7.5508zm0 2c3.077 0 5.5508 2.4738 5.5508 5.5508 0 3.077-2.4738 5.5488-5.5508 5.5488s-5.5488-2.4718-5.5488-5.5488c0-3.077 2.4718-5.5508 5.5488-5.5508z" fill="#fff" stop-color="#000000" stroke-linecap="round" stroke-linejoin="round"/>
 <path id="circle3" d="m35.949 28.381c-4.1579 0-7.5488 3.3909-7.5488 7.5488 0 4.1579 3.3909 7.5508 7.5488 7.5508 4.1579 0 7.5508-3.3929 7.5508-7.5508 0-4.1579-3.3929-7.5488-7.5508-7.5488zm0 2c3.077 0 5.5508 2.4718 5.5508 5.5488 0 3.077-2.4738 5.5508-5.5508 5.5508s-5.5488-2.4738-5.5488-5.5508c0-3.077 2.4718-5.5488 5.5488-5.5488z" fill="#fff" stop-color="#000000" stroke-linecap="round" stroke-linejoin="round"/>
 <path id="line3" d="m18.348 26.037a1 1 0 0 0-1.3418 0.44531 1 1 0 0 0 0.44531 1.3418l12.18 6.1094a1 1 0 0 0 1.3438-0.44531 1 1 0 0 0-0.44531-1.3418z" fill="#fff" stop-color="#000000" stroke-linecap="round" stroke-linejoin="round"/>
 <path id="line4" d="m29.551 14.105-12.1 6.0703a1 1 0 0 0-0.44531 1.3418 1 1 0 0 0 1.3418 0.44531l12.102-6.0684a1 1 0 0 0 0.44531-1.3438 1 1 0 0 0-1.3438-0.44531z" fill="#fff" stop-color="#000000" stroke-linecap="round" stroke-linejoin="round"/>
</svg>
