<?xml version="1.0" encoding="UTF-8" standalone="no"?>
<svg
   id="Layer_2"
   data-name="Layer 2"
   viewBox="0 0 48 48"
   version="1.1"
   sodipodi:docname="emblem-music.svg"
   xmlns:inkscape="http://www.inkscape.org/namespaces/inkscape"
   xmlns:sodipodi="http://sodipodi.sourceforge.net/DTD/sodipodi-0.dtd"
   xmlns="http://www.w3.org/2000/svg"
   xmlns:svg="http://www.w3.org/2000/svg">
  <sodipodi:namedview
     id="namedview3"
     pagecolor="#ffffff"
     bordercolor="#666666"
     borderopacity="1.0"
     inkscape:showpageshadow="2"
     inkscape:pageopacity="0.0"
     inkscape:pagecheckerboard="0"
     inkscape:deskcolor="#d1d1d1" />
  <defs
     id="defs1">
    <style
       id="style1">.cls-1{fill:none;stroke:#fff;stroke-width:2px;stroke-linecap:round;stroke-linejoin:round;}</style>
  </defs>
  <path
     style="color:#000000;fill:#ffffff;stroke-linecap:round;stroke-linejoin:round;-inkscape-stroke:none"
     d="M 42.171875,3.5097656 17.072266,6.9902344 a 1.0001,1.0001 0 0 0 -0.861329,0.9902343 v 8.8789063 a 1.0001,1.0001 0 0 0 1.136719,0.990234 l 25.09961,-3.478515 a 1.0001,1.0001 0 0 0 0.863281,-0.990235 V 4.5 A 1.0001,1.0001 0 0 0 42.171875,3.5097656 Z m -0.861328,2.1386719 v 6.8593755 l -23.09961,3.203125 V 8.8515625 Z"
     id="polygon1" />
  <path
     style="color:#000000;fill:#ffffff;stroke-linecap:round;stroke-linejoin:round;-inkscape-stroke:none"
     d="m 42.310547,12.380859 a 1,1 0 0 0 -1,1 v 17.148438 a 1,1 0 0 0 1,1 1,1 0 0 0 1,-1 V 13.380859 a 1,1 0 0 0 -1,-1 z"
     id="line1" />
  <path
     style="color:#000000;fill:#ffffff;stroke-linecap:round;stroke-linejoin:round;-inkscape-stroke:none"
     d="m 17.210937,15.859375 a 1,1 0 0 0 -1,1 v 20.880859 a 1,1 0 0 0 1,1 1,1 0 0 0 1,-1 V 16.859375 a 1,1 0 0 0 -1,-1 z"
     id="line2" />
  <path
     style="color:#000000;fill:#ffffff;stroke-linecap:round;stroke-linejoin:round;-inkscape-stroke:none"
     d="m 11.449219,30.980469 c -3.7215969,0 -6.7597659,3.038169 -6.7597659,6.759765 0,3.721597 3.038169,6.759766 6.7597659,6.759766 3.721596,0 6.761718,-3.038169 6.761718,-6.759766 0,-3.721596 -3.040122,-6.759765 -6.761718,-6.759765 z m 0,2 c 2.640717,0 4.761718,2.119048 4.761718,4.759765 0,2.640718 -2.121001,4.759766 -4.761718,4.759766 -2.6407178,0 -4.7597659,-2.119048 -4.7597659,-4.759766 0,-2.640717 2.1190481,-4.759765 4.7597659,-4.759765 z"
     id="circle2" />
  <path
     style="color:#000000;fill:#ffffff;stroke-linecap:round;stroke-linejoin:round;-inkscape-stroke:none"
     d="m 36.550781,23.769531 c -3.721596,0 -6.761719,3.038169 -6.761719,6.759766 0,3.721597 3.040123,6.759766 6.761719,6.759765 3.721597,0 6.759766,-3.038168 6.759766,-6.759765 0,-3.721597 -3.038169,-6.759766 -6.759766,-6.759766 z m 0,2 c 2.640718,0 4.759766,2.119048 4.759766,4.759766 0,2.640717 -2.119048,4.759765 -4.759766,4.759765 -2.640717,0 -4.761718,-2.119048 -4.761719,-4.759765 0,-2.640718 2.121002,-4.759766 4.761719,-4.759766 z"
     id="circle3" />
</svg>
