<?xml version="1.0" encoding="UTF-8"?>
<svg id="b" version="1.1" viewBox="0 0 48 48" xmlns="http://www.w3.org/2000/svg">
 <defs id="defs4">
  <style id="style2">.e{fill:none;stroke:#fff;stroke-linecap:round;stroke-linejoin:round;}</style>
 </defs>
 <g id="c">
  <path id="d" d="m17.256 22.955a1 1 0 0 0-1.002 0.99609 1 1 0 0 0 0.99609 1.0039l14.475 0.03516a1 1 0 0 0 1.0039-0.99609 1 1 0 0 0-0.99805-1.0039z" color="#000000" fill="#fff" stroke-linecap="round" stroke-linejoin="round" style="-inkscape-stroke:none"/>
 </g>
 <g id="g12" fill="#fff" stroke-linecap="round" stroke-linejoin="round">
  <path id="path8" d="m13.672 14.318c-5.3349 0-9.6816 4.3467-9.6816 9.6816s4.3467 9.6816 9.6816 9.6816h6.959a1 1 0 0 0 1-1 1 1 0 0 0-1-1h-6.959c-4.2541 0-7.6816-3.4276-7.6816-7.6816s3.4276-7.6816 7.6816-7.6816h6.6445a1 1 0 0 0 1-1 1 1 0 0 0-1-1z" color="#000000" style="-inkscape-stroke:none"/>
  <path id="path10" d="m28.35 14.318a1 1 0 0 0-1 1 1 1 0 0 0 1 1h6.959c4.2541 0 7.6816 3.4276 7.6816 7.6816s-3.4276 7.6816-7.6816 7.6816h-6.6426a1 1 0 0 0-1 1 1 1 0 0 0 1 1h6.6426c5.3349 0 9.6816-4.3467 9.6816-9.6816s-4.3467-9.6816-9.6816-9.6816z" color="#000000" style="-inkscape-stroke:none"/>
 </g>
</svg>
