<?xml version="1.0" encoding="UTF-8" standalone="no"?>
<svg
   viewBox="0 0 48 48"
   version="1.1"
   id="svg2"
   sodipodi:docname="emblem-photos.svg"
   xmlns:inkscape="http://www.inkscape.org/namespaces/inkscape"
   xmlns:sodipodi="http://sodipodi.sourceforge.net/DTD/sodipodi-0.dtd"
   xmlns="http://www.w3.org/2000/svg"
   xmlns:svg="http://www.w3.org/2000/svg">
  <sodipodi:namedview
     id="namedview2"
     pagecolor="#ffffff"
     bordercolor="#666666"
     borderopacity="1.0"
     inkscape:showpageshadow="2"
     inkscape:pageopacity="0.0"
     inkscape:pagecheckerboard="0"
     inkscape:deskcolor="#d1d1d1" />
  <defs
     id="defs1">
    <style
       id="style1">.a{fill:none;stroke:#fff;stroke-width:2px;stroke-linecap:round;stroke-linejoin:round;}</style>
  </defs>
  <path
     style="color:#000000;fill:#ffffff;stroke-linecap:round;stroke-linejoin:round;-inkscape-stroke:none"
     d="m 7.5,4.5 c -1.645008,0 -3,1.354992 -3,3 v 33 c 0,1.645008 1.354992,3 3,3 h 33 c 1.645008,0 3,-1.354992 3,-3 v -33 c 0,-1.645008 -1.354992,-3 -3,-3 z m 0,2 h 33 c 0.564129,0 1,0.4358712 1,1 v 33 c 0,0.564129 -0.435871,1 -1,1 h -33 c -0.5641288,0 -1,-0.435871 -1,-1 v -33 c 0,-0.5641288 0.4358712,-1 1,-1 z"
     id="path1" />
  <path
     style="color:#000000;fill:#ffffff;stroke-linecap:round;stroke-linejoin:round;-inkscape-stroke:none"
     d="m 16.699219,11.099609 c -2.407658,0 -4.292108,1.493908 -5.080078,3.396485 -0.787971,1.902577 -0.510904,4.289877 1.191406,5.992187 1.70231,1.70231 4.091564,1.98133 5.99414,1.19336 1.902577,-0.787971 3.394532,-2.674374 3.394532,-5.082032 a 1.0001,1.0001 0 0 0 0,-0.0098 c -0.03286,-3.006669 -2.481613,-5.457372 -5.488282,-5.490235 a 1.0001,1.0001 0 0 0 -0.01172,0 z m -0.0039,2.001954 c 1.935512,0.02452 3.476396,1.56671 3.501954,3.501953 -0.0019,1.599089 -0.929797,2.721712 -2.158204,3.230468 -1.229655,0.509274 -2.68207,0.372618 -3.814453,-0.759765 -1.132382,-1.132383 -1.267086,-2.584798 -0.757812,-3.814453 0.508756,-1.228406 1.629429,-2.156313 3.228515,-2.158203 z m 11.921875,6.767578 c -0.41497,-0.0415 -0.844316,0.06213 -1.201171,0.318359 a 1.0001,1.0001 0 0 0 -0.123047,0.105469 l -6.992188,6.992187 -1.193359,-1.191406 0.03906,0.04102 c -0.65295,-0.732038 -1.839236,-0.732038 -2.492187,0 l 0.03906,-0.04102 -7.7597652,7.759766 c -0.729692,0.650859 -0.7289228,1.830118 -0.00391,2.484375 0.3156871,0.287694 0.7251635,0.455049 1.1523435,0.46289 a 1.0001,1.0001 0 0 0 0.01758,0 h 27.800782 l -0.0293,-0.002 c 0.929347,0.02776 1.693494,-0.746047 1.705078,-1.667969 0.01982,-0.349635 -0.05078,-0.701178 -0.248047,-0.992187 a 1.0001,1.0001 0 0 0 -0.0078,-0.01172 l -9.5,-13.599609 a 1.0001,1.0001 0 0 0 -0.08789,-0.107422 c -0.299051,-0.321819 -0.700264,-0.509284 -1.115235,-0.550781 z m -0.207031,2.134765 8.939453,12.796875 H 10.8125 l 7.087891,-7.085937 1.193359,1.191406 -0.03906,-0.04102 c 0.652951,0.732038 1.839237,0.732038 2.492188,0 z"
     id="path2" />
</svg>
