<?xml version="1.0" encoding="UTF-8" standalone="no"?>
<svg
   id="Layer_2"
   data-name="Layer 2"
   viewBox="0 0 48 48"
   version="1.1"
   sodipodi:docname="image-bmp.svg"
   xmlns:inkscape="http://www.inkscape.org/namespaces/inkscape"
   xmlns:sodipodi="http://sodipodi.sourceforge.net/DTD/sodipodi-0.dtd"
   xmlns="http://www.w3.org/2000/svg"
   xmlns:svg="http://www.w3.org/2000/svg">
  <sodipodi:namedview
     id="namedview2"
     pagecolor="#ffffff"
     bordercolor="#666666"
     borderopacity="1.0"
     inkscape:showpageshadow="2"
     inkscape:pageopacity="0.0"
     inkscape:pagecheckerboard="0"
     inkscape:deskcolor="#d1d1d1" />
  <defs
     id="defs1">
    <style
       id="style1">.cls-1{fill:none;stroke:#000;stroke-width:2px;stroke-linecap:round;stroke-linejoin:round;}</style>
  </defs>
  <path
     style="color:#000000;fill:#000000;stroke-linecap:round;stroke-linejoin:round;-inkscape-stroke:none"
     d="m 7.4804687,4.5 c -1.6450079,0 -3,1.354992 -3,3 v 33 c 0,1.645008 1.3549921,3 3,3 H 40.519531 c 1.645008,0 3,-1.354992 3,-3 v -33 c 0,-1.645008 -1.354992,-3 -3,-3 z m 0,2 H 40.519531 c 0.564129,0 1,0.4358712 1,1 v 33 c 0,0.564129 -0.435871,1 -1,1 H 7.4804687 c -0.5641288,0 -1,-0.435871 -1,-1 v -33 c 0,-0.5641288 0.4358712,-1 1,-1 z"
     id="path1" />
  <path
     style="color:#000000;fill:#000000;stroke-linecap:round;stroke-linejoin:round;-inkscape-stroke:none"
     d="m 31.320312,11.119141 c -3.009149,0 -5.470703,2.461553 -5.470703,5.470703 0,2.394293 1.484817,4.271041 3.376953,5.054687 1.892137,0.783647 4.268077,0.505361 5.960938,-1.1875 1.692861,-1.692861 1.969193,-4.068801 1.185547,-5.960937 -0.783647,-1.892136 -2.658441,-3.376953 -5.052735,-3.376953 z m 0,2 c 1.588325,0 2.700129,0.923363 3.205079,2.142578 0.504949,1.219215 0.37098,2.658316 -0.751954,3.78125 -1.122933,1.122934 -2.562035,1.256902 -3.78125,0.751953 -1.219214,-0.50495 -2.142578,-1.616754 -2.142578,-3.205078 0,-1.928271 1.542433,-3.470703 3.470703,-3.470703 z M 19.34375,19.867187 c -0.443654,0.05767 -0.863646,0.285933 -1.146484,0.667969 a 1.0001,1.0001 0 0 0 -0.01758,0.02344 l -9.4999995,13.61914 c -0.7545024,1.083483 0.087938,2.682361 1.4082035,2.671875 h 27.80664 c 0.722804,0.01051 1.352006,-0.460049 1.595703,-1.044922 0.243697,-0.584872 0.13556,-1.363307 -0.380859,-1.86914 l -7.802734,-7.802735 a 1.0001,1.0001 0 0 0 -0.002,-0.002 c -0.658455,-0.653121 -1.749748,-0.653121 -2.408203,0 a 1.0001,1.0001 0 0 0 -0.0039,0.002 l -1.171875,1.173829 -7.013672,-7.013672 A 1.0001,1.0001 0 0 0 20.625,20.21875 c -0.371116,-0.297022 -0.837596,-0.409237 -1.28125,-0.351563 z m 0.257812,2.148438 6.904297,6.904297 c 0.657754,0.671317 1.769981,0.671317 2.427735,0 l 1.166015,-1.166016 7.095703,7.095703 H 10.650391 Z"
     id="path2" />
</svg>
