<?xml version="1.0" encoding="UTF-8"?>
<svg id="svg2" version="1.1" viewBox="0 0 48 48" xmlns="http://www.w3.org/2000/svg">
 <defs id="defs1">
  <style id="style1">.c{fill:none;stroke:#000;stroke-width:2px;stroke-linecap:round;stroke-linejoin:round;}</style>
 </defs>
 <g id="a" stroke-linecap="round" stroke-linejoin="round">
  <path id="path1" d="m10.5 3.5c-1.645 0-3 1.355-3 3v35c0 1.645 1.355 3 3 3h27c1.645 0 3-1.355 3-3v-26a1.0001 1.0001 0 0 0-1-1h-9c-0.56419 0-1-0.43581-1-1v-9a1.0001 1.0001 0 0 0-1-1zm0 2h17v8c0 1.645 1.355 3 3 3h8v25c0 0.56419-0.43581 1-1 1h-27c-0.56419 0-1-0.43581-1-1v-35c0-0.56419 0.43581-1 1-1z"/>
  <path id="line1" d="m27.793 3.793a1 1 0 0 0 0 1.4141l11 11a1 1 0 0 0 1.4141 0 1 1 0 0 0 0-1.4141l-11-11a1 1 0 0 0-1.4141 0z"/>
 </g>
 <g id="b">
  <path id="path2" d="m15.539 20.551c-1.3901 0-2.5391 1.1489-2.5391 2.5391v12.82c0 1.3901 1.1489 2.5391 2.5391 2.5391h16.922c1.3901 0 2.5391-1.1489 2.5391-2.5391v-10.256c0-1.3901-1.1489-2.5391-2.5391-2.5391h-7.5469c-0.21916 0-0.43295-0.0679-0.61133-0.19531l-2.5195-1.8008c-0.51743-0.36959-1.1376-0.56836-1.7734-0.56836zm0 2h4.4707c0.21916 0 0.43295 0.0679 0.61133 0.19531l2.5195 1.8008c0.51743 0.36959 1.1376 0.56836 1.7734 0.56836h7.5469c0.30927 0 0.53906 0.22979 0.53906 0.53906v10.256c0 0.30927-0.22979 0.53906-0.53906 0.53906h-16.922c-0.30927 0-0.53906-0.22979-0.53906-0.53906v-12.82c0-0.30927 0.22979-0.53906 0.53906-0.53906z" stroke-linecap="round" stroke-linejoin="round"/>
 </g>
</svg>
