<?xml version="1.0" encoding="UTF-8"?>
<svg id="svg4" version="1.1" viewBox="0 0 48 48" xmlns="http://www.w3.org/2000/svg">
 <defs id="defs1">
  <style id="style1">.c{fill:none;stroke:#000;stroke-width:2px;stroke-linecap:round;stroke-linejoin:round;}</style>
 </defs>
 <g id="a" stroke-linecap="round" stroke-linejoin="round">
  <path id="path1" d="m10.5 3.5c-1.645 0-3 1.355-3 3v35c0 1.645 1.355 3 3 3h27c1.645 0 3-1.355 3-3v-26a1.0001 1.0001 0 0 0-1-1h-9c-0.56419 0-1-0.43581-1-1v-9a1.0001 1.0001 0 0 0-1-1zm0 2h17v8c0 1.645 1.355 3 3 3h8v25c0 0.56419-0.43581 1-1 1h-27c-0.56419 0-1-0.43581-1-1v-35c0-0.56419 0.43581-1 1-1z"/>
  <path id="line1" d="m27.793 3.793a1 1 0 0 0 0 1.4141l11 11a1 1 0 0 0 1.4141 0 1 1 0 0 0 0-1.4141l-11-11a1 1 0 0 0-1.4141 0z"/>
 </g>
 <g id="b" stroke-linecap="round" stroke-linejoin="round">
  <path id="path2" d="m18.818 19.857c-2.0453 0-3.7246 1.6792-3.7246 3.7246v3.1934c0 0.96449-0.76012 1.7246-1.7246 1.7246a1.0001 1.0001 0 0 0 0 2c0.96453 0 1.7246 0.75999 1.7246 1.7246v3.1934c0 2.0453 1.6793 3.7246 3.7246 3.7246a1 1 0 0 0 1-1 1 1 0 0 0-1-1c-0.96449 0-1.7246-0.76012-1.7246-1.7246v-3.1934c0-1.0841-0.4903-2.0417-1.2383-2.7246 0.74798-0.68292 1.2383-1.6406 1.2383-2.7246v-3.1934c0-0.96462 0.76008-1.7246 1.7246-1.7246a1 1 0 0 0 1-1 1 1 0 0 0-1-1z"/>
  <path id="path3" d="m29.182 19.857a1 1 0 0 0-1 1 1 1 0 0 0 1 1c0.96449 0 1.7246 0.76012 1.7246 1.7246v3.1934c0 1.0841 0.4903 2.0417 1.2383 2.7246-0.74798 0.68292-1.2383 1.6406-1.2383 2.7246v3.1934c0 0.96462-0.76008 1.7246-1.7246 1.7246a1 1 0 0 0-1 1 1 1 0 0 0 1 1c2.0453 0 3.7246-1.6792 3.7246-3.7246v-3.1934c0-0.96449 0.76012-1.7246 1.7246-1.7246a1.0001 1.0001 0 0 0 0-2c-0.96453 0-1.7246-0.75999-1.7246-1.7246v-3.1934c0-2.0453-1.6793-3.7246-3.7246-3.7246z"/>
  <path id="circle3" d="m24 21.857c-1.7114 0-3.1211 1.4096-3.1211 3.1211 0 1.7114 1.4096 3.1191 3.1211 3.1191s3.1211-1.4077 3.1211-3.1191c0-1.7114-1.4096-3.1211-3.1211-3.1211zm0 2c0.63057 0 1.1211 0.49052 1.1211 1.1211 0 0.63057-0.49052 1.1191-1.1211 1.1191s-1.1211-0.48857-1.1211-1.1191c0-0.63057 0.49052-1.1211 1.1211-1.1211z"/>
  <path id="circle4" d="m24 30.902c-1.7114 0-3.1211 1.4077-3.1211 3.1191 0 1.7114 1.4096 3.1211 3.1211 3.1211s3.1211-1.4096 3.1211-3.1211c0-1.7114-1.4096-3.1191-3.1211-3.1191zm0 2c0.63057 0 1.1211 0.48857 1.1211 1.1191 0 0.63057-0.49052 1.1211-1.1211 1.1211s-1.1211-0.49052-1.1211-1.1211c0-0.63057 0.49052-1.1191 1.1211-1.1191z"/>
 </g>
</svg>
