<?xml version="1.0" encoding="UTF-8"?>
<svg id="svg2" version="1.1" viewBox="0 0 48 48" xmlns="http://www.w3.org/2000/svg">
 <defs id="defs1">
  <style id="style1">.c{fill:none;stroke:#000;stroke-width:2px;stroke-linecap:round;stroke-linejoin:round;}</style>
 </defs>
 <g id="a" stroke-linecap="round" stroke-linejoin="round">
  <path id="path1" d="m10.5 3.5c-1.645 0-3 1.355-3 3v35c0 1.645 1.355 3 3 3h27c1.645 0 3-1.355 3-3v-26a1.0001 1.0001 0 0 0-1-1h-9c-0.56419 0-1-0.43581-1-1v-9a1.0001 1.0001 0 0 0-1-1zm0 2h17v8c0 1.645 1.355 3 3 3h8v25c0 0.56419-0.43581 1-1 1h-27c-0.56419 0-1-0.43581-1-1v-35c0-0.56419 0.43581-1 1-1z" stop-color="#000000"/>
  <path id="line1" d="m27.793 3.793a1 1 0 0 0 0 1.4141l11 11a1 1 0 0 0 1.4141 0 1 1 0 0 0 0-1.4141l-11-11a1 1 0 0 0-1.4141 0z" stop-color="#000000"/>
 </g>
 <g id="b" stroke-linecap="round" stroke-linejoin="round">
  <path id="polyline1" d="m32.773 20.711a1 1 0 0 0-0.60742 0.4668l-8.166 14.146-8.166-14.146a1 1 0 0 0-1.3672-0.36719 1 1 0 0 0-0.36523 1.3672l9.0332 15.645a1.0001 1.0001 0 0 0 1.7305 0l9.0332-15.645a1 1 0 0 0-0.36523-1.3672 1 1 0 0 0-0.75977-0.09961z" stop-color="#000000"/>
  <path id="polyline2" d="m18.635 20.811a1 1 0 0 0-0.36524 1.3672l4.8652 8.4258a1.0001 1.0001 0 0 0 1.7305 0l4.8652-8.4258a1 1 0 0 0-0.36524-1.3672 1 1 0 0 0-1.3672 0.36719l-3.998 6.9258-3.998-6.9258a1 1 0 0 0-1.3672-0.36719z" stop-color="#000000"/>
 </g>
</svg>
