<?xml version="1.0" encoding="UTF-8"?>
<svg id="svg2" version="1.1" viewBox="0 0 48 48" xmlns="http://www.w3.org/2000/svg">
 <defs id="defs1">
  <style id="style1">.c{fill:none;stroke:#000;stroke-width:2px;stroke-linecap:round;stroke-linejoin:round;}</style>
 </defs>
 <g id="a" stroke-linecap="round" stroke-linejoin="round">
  <path id="path1" d="m10.5 3.5c-1.645 0-3 1.355-3 3v35c0 1.645 1.355 3 3 3h27c1.645 0 3-1.355 3-3v-26a1.0001 1.0001 0 0 0-1-1h-9c-0.56419 0-1-0.43581-1-1v-9a1.0001 1.0001 0 0 0-1-1zm0 2h17v8c0 1.645 1.355 3 3 3h8v25c0 0.56419-0.43581 1-1 1h-27c-0.56419 0-1-0.43581-1-1v-35c0-0.56419 0.43581-1 1-1z"/>
  <path id="line1" d="m27.793 3.793a1 1 0 0 0 0 1.4141l11 11a1 1 0 0 0 1.4141 0 1 1 0 0 0 0-1.4141l-11-11a1 1 0 0 0-1.4141 0z"/>
 </g>
 <g id="b" stroke-linecap="round" stroke-linejoin="round">
  <path id="polyline1" d="m12.965 20.721a1.0001 1.0001 0 0 0-1 1v15.559a1.0001 1.0001 0 0 0 1 1h3.6855a1 1 0 0 0 1-1 1 1 0 0 0-1-1h-2.6855v-13.559h2.6855a1 1 0 0 0 1-1 1 1 0 0 0-1-1z"/>
  <path id="polyline2" d="m31.35 20.721a1 1 0 0 0-1 1 1 1 0 0 0 1 1h2.6855v13.559h-2.6855a1 1 0 0 0-1 1 1 1 0 0 0 1 1h3.6855a1.0001 1.0001 0 0 0 1-1v-15.559a1.0001 1.0001 0 0 0-1-1z"/>
  <path id="circle2" d="m19.572 24.66c-2.7494 0-5 2.2486-5 4.998 0 2.7494 2.2506 5 5 5 2.7494 0 5-2.2506 5-5 0-2.7494-2.2506-4.998-5-4.998zm0 2c1.6685 0 3 1.3295 3 2.998s-1.3315 3-3 3c-1.6685 0-3-1.3315-3-3s1.3315-2.998 3-2.998z"/>
  <path id="rect2" d="m25.447 25.17a1.0001 1.0001 0 0 0-1 1v6.9785a1.0001 1.0001 0 0 0 1 1h6.9805a1.0001 1.0001 0 0 0 1-1v-6.9785a1.0001 1.0001 0 0 0-1-1zm1 2h4.9805v4.9785h-4.9805z"/>
 </g>
</svg>
