<?xml version="1.0" encoding="UTF-8"?>
<svg id="svg5" version="1.1" viewBox="0 0 48 48" xmlns="http://www.w3.org/2000/svg">
 <defs id="defs1">
  <style id="style1">.c{fill:none;stroke:#000;stroke-width:2px;stroke-linecap:round;stroke-linejoin:round;}</style>
 </defs>
 <g id="a" stroke-linecap="round" stroke-linejoin="round">
  <path id="path1" d="m10.5 3.5c-1.645 0-3 1.355-3 3v35c0 1.645 1.355 3 3 3h27c1.645 0 3-1.355 3-3v-26a1.0001 1.0001 0 0 0-1-1h-9c-0.56419 0-1-0.43581-1-1v-9a1.0001 1.0001 0 0 0-1-1zm0 2h17v8c0 1.645 1.355 3 3 3h8v25c0 0.56419-0.43581 1-1 1h-27c-0.56419 0-1-0.43581-1-1v-35c0-0.56419 0.43581-1 1-1z"/>
  <path id="line1" d="m27.793 3.793a1 1 0 0 0 0 1.4141l11 11a1 1 0 0 0 1.4141 0 1 1 0 0 0 0-1.4141l-11-11a1 1 0 0 0-1.4141 0z"/>
 </g>
 <g id="b" stroke-linecap="round" stroke-linejoin="round">
  <path id="path2" d="m18.646 21c-3.3018 0-6 2.6982-6 6s2.6982 6 6 6c3.3019 0 6-2.6982 6-6a1.0001 1.0001 0 0 0-1-1h-4v-4a1.0001 1.0001 0 0 0-1-1zm-1 2.1992v3.8008a1.0001 1.0001 0 0 0 1 1h3.8008c-0.4494 1.7181-1.9351 3-3.8008 3-2.2209 0-4-1.779-4-4 0-1.8657 1.2819-3.3514 3-3.8008z"/>
  <path id="line2" d="m26.859 21a1 1 0 0 0-1 1 1 1 0 0 0 1 1h7.4941a1 1 0 0 0 1-1 1 1 0 0 0-1-1z"/>
  <path id="line3" d="m26.859 26a1 1 0 0 0-1 1 1 1 0 0 0 1 1h7.4941a1 1 0 0 0 1-1 1 1 0 0 0-1-1z"/>
  <path id="line4" d="m26.859 31a1 1 0 0 0-1 1 1 1 0 0 0 1 1h7.4941a1 1 0 0 0 1-1 1 1 0 0 0-1-1z"/>
  <path id="line5" d="m13.646 36a1 1 0 0 0-1 1 1 1 0 0 0 1 1h20.707a1 1 0 0 0 1-1 1 1 0 0 0-1-1z"/>
 </g>
</svg>
