<?xml version="1.0" encoding="UTF-8"?>
<svg id="svg7" version="1.1" viewBox="0 0 48 48" xmlns="http://www.w3.org/2000/svg">
 <defs id="defs1">
  <style id="style1">.c{fill:none;stroke:#000;stroke-width:2px;stroke-linecap:round;stroke-linejoin:round;}</style>
 </defs>
 <g id="a" stroke-linecap="round" stroke-linejoin="round">
  <path id="path1" d="m10.5 3.5c-1.645 0-3 1.355-3 3v35c0 1.645 1.355 3 3 3h27c1.645 0 3-1.355 3-3v-26a1.0001 1.0001 0 0 0-1-1h-9c-0.56419 0-1-0.43581-1-1v-9a1.0001 1.0001 0 0 0-1-1zm0 2h17v8c0 1.645 1.355 3 3 3h8v25c0 0.56419-0.43581 1-1 1h-27c-0.56419 0-1-0.43581-1-1v-35c0-0.56419 0.43581-1 1-1z" stop-color="#000000"/>
  <path id="line1" d="m27.793 3.793a1 1 0 0 0 0 1.4141l11 11a1 1 0 0 0 1.4141 0 1 1 0 0 0 0-1.4141l-11-11a1 1 0 0 0-1.4141 0z" stop-color="#000000"/>
 </g>
 <g id="b" stroke-linecap="round" stroke-linejoin="round">
  <path id="line2" d="m14 26.807a1 1 0 0 0-1 1 1 1 0 0 0 1 1h7.6738a1 1 0 0 0 1-1 1 1 0 0 0-1-1z" stop-color="#000000"/>
  <path id="line3" d="m14 30.193a1 1 0 0 0-1 1 1 1 0 0 0 1 1h20a1 1 0 0 0 1-1 1 1 0 0 0-1-1z" stop-color="#000000"/>
  <path id="line4" d="m14 33.578a1 1 0 0 0-1 1 1 1 0 0 0 1 1h20a1 1 0 0 0 1-1 1 1 0 0 0-1-1z" stop-color="#000000"/>
  <path id="line5" d="m14 36.963a1 1 0 0 0-1 1 1 1 0 0 0 1 1h20a1 1 0 0 0 1-1 1 1 0 0 0-1-1z" stop-color="#000000"/>
  <path id="line6" d="m14 20.037a1 1 0 0 0-1 1 1 1 0 0 0 1 1h7.6738a1 1 0 0 0 1-1 1 1 0 0 0-1-1z" stop-color="#000000"/>
  <path id="line7" d="m14 23.422a1 1 0 0 0-1 1 1 1 0 0 0 1 1h7.6738a1 1 0 0 0 1-1 1 1 0 0 0-1-1z" stop-color="#000000"/>
  <path id="rect7" d="m24.674 20.037a1.0001 1.0001 0 0 0-1 1v6.7695a1.0001 1.0001 0 0 0 1 1h9.3262a1.0001 1.0001 0 0 0 1-1v-6.7695a1.0001 1.0001 0 0 0-1-1zm1 2h7.3262v4.7695h-7.3262z" stop-color="#000000"/>
 </g>
</svg>
