<?xml version="1.0" encoding="UTF-8"?>
<svg id="svg3" version="1.1" viewBox="0 0 48 48" xmlns="http://www.w3.org/2000/svg">
 <defs id="defs1">
  <style id="style1">.c{fill:none;stroke:#000;stroke-width:2px;stroke-linecap:round;stroke-linejoin:round;}</style>
 </defs>
 <g id="a" stroke-linecap="round" stroke-linejoin="round">
  <path id="path1" d="m10.5 3.5c-1.645 0-3 1.355-3 3v35c0 1.645 1.355 3 3 3h27c1.645 0 3-1.355 3-3v-26a1.0001 1.0001 0 0 0-1-1h-9c-0.56419 0-1-0.43581-1-1v-9a1.0001 1.0001 0 0 0-1-1zm0 2h17v8c0 1.645 1.355 3 3 3h8v25c0 0.56419-0.43581 1-1 1h-27c-0.56419 0-1-0.43581-1-1v-35c0-0.56419 0.43581-1 1-1z"/>
  <path id="line1" d="m27.793 3.793a1 1 0 0 0 0 1.4141l11 11a1 1 0 0 0 1.4141 0 1 1 0 0 0 0-1.4141l-11-11a1 1 0 0 0-1.4141 0z"/>
 </g>
 <g id="b" stroke-linecap="round" stroke-linejoin="round">
  <path id="path2" d="m32.531 20.502a1 1 0 0 0-0.75977 0.09961c-4.9458 2.8517-12.29 10.065-15.502 16.84a1 1 0 0 0 0.47461 1.332 1 1 0 0 0 1.332-0.47656c2.9286-6.1782 10.303-13.431 14.693-15.963a1 1 0 0 0 0.36719-1.3652 1 1 0 0 0-0.60547-0.4668z"/>
  <path id="path3" d="m17.844 20.135a1 1 0 0 0-0.91016 1.082c0.30442 3.5127 2.4423 6.7975 5.0723 9.6465s5.794 5.2706 8.3711 6.959a1 1 0 0 0 1.3848-0.28906 1 1 0 0 0-0.28906-1.3828c-2.4696-1.6179-5.5287-3.9696-7.998-6.6445s-4.3065-5.6652-4.5488-8.4609a1 1 0 0 0-1.082-0.91016z"/>
 </g>
</svg>
