<?xml version="1.0" encoding="UTF-8"?>
<svg id="svg16" version="1.1" viewBox="0 0 48 48" xmlns="http://www.w3.org/2000/svg">
 <defs id="defs4">
  <style id="style2">.c{fill:none;stroke:#000;stroke-linecap:round;stroke-linejoin:round;}.d{fill:#000;stroke-width:2px;}</style>
 </defs>
 <g id="a">
  <path id="path6" d="m7.5 7.5c-2.1973 0-4 1.8027-4 4v25c0 2.1973 1.8027 4 4 4h33c2.1973 0 4-1.8027 4-4v-20c0-2.1973-1.8027-4-4-4h-14.719c-0.62539 0-1.2333-0.19509-1.7422-0.55859l-4.9141-3.5098c-0.84794-0.60562-1.8642-0.93164-2.9062-0.93164zm0 2h8.7188c0.62539 0 1.2331 0.19501 1.7422 0.55859l4.9141 3.5098c0.84792 0.6057 1.8642 0.93164 2.9062 0.93164h14.719c1.1165 0 2 0.88351 2 2v20c0 1.1165-0.88351 2-2 2h-33c-1.1165 0-2-0.88351-2-2v-25c0-1.1165 0.88351-2 2-2z" color="#000000" stroke-linecap="round" stroke-linejoin="round" style="-inkscape-stroke:none"/>
 </g>
 <g id="b">
  <path id="rect9" d="m18.234 24.301a1.0001 1.0001 0 0 0-1 1v9.1992a1.0001 1.0001 0 0 0 1 1h11.531a1.0001 1.0001 0 0 0 1-1v-9.1992a1.0001 1.0001 0 0 0-1-1zm1 2h9.5312v7.1992h-9.5312z" color="#000000" stroke-linecap="round" stroke-linejoin="round" style="-inkscape-stroke:none"/>
  <path id="path11" d="m24 17.5c-3.0805 0-5.5996 2.5191-5.5996 5.5996v2.2012a1 1 0 0 0 1 1 1 1 0 0 0 1-1v-2.2012c0-1.9997 1.5999-3.5996 3.5996-3.5996s3.5996 1.5999 3.5996 3.5996v2.2012a1 1 0 0 0 1 1 1 1 0 0 0 1-1v-2.2012c0-3.0805-2.5191-5.5996-5.5996-5.5996z" color="#000000" stroke-linecap="round" stroke-linejoin="round" style="-inkscape-stroke:none"/>
  <circle id="circle13" class="d" cx="24" cy="29.901" r="1.5"/>
 </g>
</svg>
