<?xml version="1.0" encoding="UTF-8" standalone="no"?>
<svg
   viewBox="0 0 48 48"
   version="1.1"
   id="svg2"
   sodipodi:docname="certificate-server.svg"
   xmlns:inkscape="http://www.inkscape.org/namespaces/inkscape"
   xmlns:sodipodi="http://sodipodi.sourceforge.net/DTD/sodipodi-0.dtd"
   xmlns="http://www.w3.org/2000/svg"
   xmlns:svg="http://www.w3.org/2000/svg">
  <sodipodi:namedview
     id="namedview2"
     pagecolor="#ffffff"
     bordercolor="#666666"
     borderopacity="1.0"
     inkscape:showpageshadow="2"
     inkscape:pageopacity="0.0"
     inkscape:pagecheckerboard="0"
     inkscape:deskcolor="#d1d1d1" />
  <defs
     id="defs1">
    <style
       id="style1">.c{fill:none;stroke:#000;stroke-linecap:round;stroke-linejoin:round;}.d{fill:#000;stroke-width:2px;}</style>
  </defs>
  <g
     id="a">
    <path
       style="color:#000000;fill:#000000;stroke-linecap:round;stroke-linejoin:round;-inkscape-stroke:none"
       d="M 7.5,8 C 5.5728985,8 4,9.5728985 4,11.5 v 25 C 4,38.427101 5.5728985,40 7.5,40 h 33 c 1.927101,0 3.5,-1.572899 3.5,-3.5 v -20 C 44,14.572899 42.427101,13 40.5,13 H 25.78125 c -0.729545,0 -1.439566,-0.228292 -2.033203,-0.652344 L 18.833984,8.8378906 C 18.070764,8.2927814 17.156603,8 16.21875,8 Z m 0,1 h 8.71875 c 0.729545,0 1.439425,0.2282539 2.033203,0.6523438 l 4.914063,3.5097652 C 23.929177,13.707257 24.843397,14 25.78125,14 H 40.5 c 1.386695,0 2.5,1.113305 2.5,2.5 v 20 C 43,37.886695 41.886695,39 40.5,39 H 7.5 C 6.1133048,39 5,37.886695 5,36.5 v -25 C 5,10.113305 6.1133048,9 7.5,9 Z"
       id="path1" />
  </g>
  <g
     id="b">
    <path
       style="color:#000000;fill:#000000;stroke-linecap:round;stroke-linejoin:round;-inkscape-stroke:none"
       d="m 18.234375,24.800781 a 0.50005,0.50005 0 0 0 -0.5,0.5 V 34.5 a 0.50005,0.50005 0 0 0 0.5,0.5 h 11.53125 a 0.50005,0.50005 0 0 0 0.5,-0.5 v -9.199219 a 0.50005,0.50005 0 0 0 -0.5,-0.5 z m 0.5,1 h 10.53125 V 34 h -10.53125 z"
       id="rect1" />
    <path
       style="color:#000000;fill:#000000;stroke-linecap:round;stroke-linejoin:round;-inkscape-stroke:none"
       d="m 24,18 c -2.81031,0 -5.099609,2.2893 -5.099609,5.099609 v 2.201172 a 0.5,0.5 0 0 0 0.5,0.5 0.5,0.5 0 0 0 0.5,-0.5 V 23.099609 C 19.900391,20.829724 21.730115,19 24,19 c 2.269885,0 4.099609,1.829724 4.099609,4.099609 v 2.201172 a 0.5,0.5 0 0 0 0.5,0.5 0.5,0.5 0 0 0 0.5,-0.5 V 23.099609 C 29.099609,20.2893 26.81031,18 24,18 Z"
       id="path2" />
    <circle
       class="d"
       cx="24"
       cy="29.9008"
       r=".75"
       id="circle2" />
  </g>
</svg>
