<?xml version="1.0" encoding="UTF-8"?>
<svg id="svg2" version="1.1" viewBox="0 0 48 48" xmlns="http://www.w3.org/2000/svg">
 <defs id="defs1">
  <style id="style1">.c{fill:none;stroke:#000;stroke-width:2px;stroke-linecap:round;stroke-linejoin:round;}</style>
 </defs>
 <g id="a">
  <path id="path1" d="m7.5 7.5c-2.1973 0-4 1.8027-4 4v25c0 2.1973 1.8027 4 4 4h33c2.1973 0 4-1.8027 4-4v-20c0-2.1973-1.8027-4-4-4h-14.719c-0.62539 0-1.2333-0.19509-1.7422-0.55859l-4.9141-3.5098c-0.84794-0.60562-1.8642-0.93164-2.9062-0.93164zm0 2h8.7188c0.62539 0 1.2331 0.19501 1.7422 0.55859l4.9141 3.5098c0.84792 0.6057 1.8642 0.93164 2.9062 0.93164h14.719c1.1165 0 2 0.88351 2 2v20c0 1.1165-0.88351 2-2 2h-33c-1.1165 0-2-0.88351-2-2v-25c0-1.1165 0.88351-2 2-2z" stroke-linecap="round" stroke-linejoin="round"/>
 </g>
 <g id="b">
  <path id="path2" d="m23.369 20.168c-1.3327 0.07408-2.6779 0.55035-3.7227 1.498-0.82694 0.75014-1.3253 1.8742-1.543 3.1543-1.0414-0.01317-1.9927 0.18699-2.668 0.73047-0.8921 0.71804-1.3413 1.775-1.4219 2.8223-0.08057 1.0473 0.18953 2.123 0.84375 2.9883s1.7462 1.4805 3.043 1.4805h11.066c1.7526 0 3.1562-0.70231 4.002-1.7539s1.1503-2.3871 0.99219-3.6406c-0.15809-1.2535-0.79191-2.4699-1.9141-3.2188-0.87962-0.587-2.0758-0.70305-3.3652-0.50586-0.26749-1.0407-0.76931-1.9612-1.5645-2.5352-1.0711-0.77319-2.4154-1.0936-3.748-1.0195zm0.11133 1.998c0.92729-0.05155 1.843 0.19227 2.4668 0.64258 0.62383 0.45031 0.99805 1.0433 0.99805 1.998a1.0001 1.0001 0 0 0 1.3145 0.94922c1.2846-0.42739 2.1028-0.24761 2.6758 0.13477 0.57299 0.38238 0.94568 1.0507 1.041 1.8066 0.09534 0.75592-0.09933 1.556-0.56641 2.1367-0.46707 0.58073-1.1923 1.0078-2.4434 1.0078h-11.066c-0.71338 0-1.1298-0.26504-1.4492-0.6875s-0.48843-1.043-0.44336-1.6289c0.04507-0.58592 0.286-1.0995 0.68164-1.418 0.39564-0.31844 0.98321-0.52366 2.0195-0.31641a1.0001 1.0001 0 0 0 1.1953-0.98047c0-1.2561 0.43569-2.0742 1.0859-2.6641 0.65024-0.58986 1.5629-0.92892 2.4902-0.98047z" stroke-linecap="round" stroke-linejoin="round"/>
 </g>
</svg>
