<?xml version="1.0" encoding="UTF-8" standalone="no"?>
<svg
   viewBox="0 0 48 48"
   version="1.1"
   id="svg2"
   sodipodi:docname="folder-text.svg"
   xmlns:inkscape="http://www.inkscape.org/namespaces/inkscape"
   xmlns:sodipodi="http://sodipodi.sourceforge.net/DTD/sodipodi-0.dtd"
   xmlns="http://www.w3.org/2000/svg"
   xmlns:svg="http://www.w3.org/2000/svg">
  <sodipodi:namedview
     id="namedview2"
     pagecolor="#ffffff"
     bordercolor="#666666"
     borderopacity="1.0"
     inkscape:showpageshadow="2"
     inkscape:pageopacity="0.0"
     inkscape:pagecheckerboard="0"
     inkscape:deskcolor="#d1d1d1" />
  <defs
     id="defs1">
    <style
       id="style1">.c{fill:none;stroke:#000;stroke-width:2px;stroke-linecap:round;stroke-linejoin:round;}</style>
  </defs>
  <g
     id="a">
    <path
       style="color:#000000;fill:#000000;stroke-linecap:round;stroke-linejoin:round;-inkscape-stroke:none"
       d="m 7.5,7.5 c -2.1973046,0 -4,1.8026954 -4,4 v 25 c 0,2.197305 1.8026954,4 4,4 h 33 c 2.197305,0 4,-1.802695 4,-4 v -20 c 0,-2.197305 -1.802695,-4 -4,-4 H 25.78125 c -0.625391,0 -1.233313,-0.195091 -1.742188,-0.558594 L 19.125,8.4316406 C 18.277059,7.8260218 17.260757,7.5 16.21875,7.5 Z m 0,2 h 8.71875 c 0.625391,0 1.23313,0.1950136 1.742187,0.558594 L 22.875,13.568359 C 23.722924,14.174055 24.739243,14.5 25.78125,14.5 H 40.5 c 1.116492,0 2,0.883508 2,2 v 20 c 0,1.116492 -0.883508,2 -2,2 h -33 c -1.1164921,0 -2,-0.883508 -2,-2 v -25 c 0,-1.116492 0.8835079,-2 2,-2 z"
       id="path1" />
  </g>
  <g
     id="b">
    <path
       style="color:#000000;fill:#000000;stroke-linecap:round;stroke-linejoin:round;-inkscape-stroke:none"
       d="m 28.25,18.503906 c -0.617394,0.0484 -1.197926,0.318942 -1.630859,0.761719 l -2.011719,2.011719 -7.169922,7.193359 a 1.0001,1.0001 0 0 0 -0.261719,0.455078 L 16.058594,33.25 a 1.0001,1.0001 0 0 0 1.216797,1.21875 l 4.324218,-1.109375 a 1.0001,1.0001 0 0 0 0.458985,-0.263672 l 7.148437,-7.169922 a 1.0001,1.0001 0 0 0 0.02344,-0.0098 l 2.021484,-2.019532 a 1.0001,1.0001 0 0 0 0.0078,-0.0098 c 0.945027,-0.96745 0.945027,-2.540363 0,-3.507813 a 1.0001,1.0001 0 0 0 -0.0039,-0.002 l -1.0625,-1.076172 C 29.895356,18.979003 29.441865,18.949594 29.03125,18.824219 a 1.0001,1.0001 0 0 0 -0.75,-0.308594 1.0001,1.0001 0 0 0 -0.03125,-0.01172 z m 0.121094,2.009766 a 1.0001,1.0001 0 0 0 0.002,0 c 0.133987,-0.0061 0.262337,0.04608 0.353515,0.144531 a 1.0001,1.0001 0 0 0 0.02148,0.02344 l 1.080078,1.095703 c 0.201372,0.206149 0.201372,0.506741 0,0.71289 l -1.302734,1.302735 -1.798829,-1.806641 1.314454,-1.314453 a 1.0001,1.0001 0 0 0 0.0078,-0.0078 c 0.08543,-0.08737 0.202346,-0.132272 0.322266,-0.15039 z m -3.056641,2.886719 1.791016,1.800781 -6.269532,6.289062 -2.417968,0.619141 0.626953,-2.419922 z"
       id="path2" />
  </g>
</svg>
