<?xml version="1.0" encoding="UTF-8" standalone="no"?>
<svg
   viewBox="0 0 48 48"
   version="1.1"
   id="svg3"
   sodipodi:docname="folder-image.svg"
   xmlns:inkscape="http://www.inkscape.org/namespaces/inkscape"
   xmlns:sodipodi="http://sodipodi.sourceforge.net/DTD/sodipodi-0.dtd"
   xmlns="http://www.w3.org/2000/svg"
   xmlns:svg="http://www.w3.org/2000/svg">
  <sodipodi:namedview
     id="namedview3"
     pagecolor="#ffffff"
     bordercolor="#666666"
     borderopacity="1.0"
     inkscape:showpageshadow="2"
     inkscape:pageopacity="0.0"
     inkscape:pagecheckerboard="0"
     inkscape:deskcolor="#d1d1d1" />
  <defs
     id="defs1">
    <style
       id="style1">.c{fill:none;stroke:#000;stroke-width:2px;stroke-linecap:round;stroke-linejoin:round;}</style>
  </defs>
  <g
     id="a">
    <path
       style="color:#000000;fill:#000000;stroke-linecap:round;stroke-linejoin:round;-inkscape-stroke:none"
       d="m 7.5,7.5 c -2.1973046,0 -4,1.8026954 -4,4 v 25 c 0,2.197305 1.8026954,4 4,4 h 33 c 2.197305,0 4,-1.802695 4,-4 v -20 c 0,-2.197305 -1.802695,-4 -4,-4 H 25.78125 c -0.625391,0 -1.233313,-0.195091 -1.742188,-0.558594 L 19.125,8.4316406 C 18.277059,7.8260218 17.260757,7.5 16.21875,7.5 Z m 0,2 h 8.71875 c 0.625391,0 1.23313,0.1950136 1.742187,0.558594 L 22.875,13.568359 C 23.722924,14.174055 24.739243,14.5 25.78125,14.5 H 40.5 c 1.116492,0 2,0.883508 2,2 v 20 c 0,1.116492 -0.883508,2 -2,2 h -33 c -1.1164921,0 -2,-0.883508 -2,-2 v -25 c 0,-1.116492 0.8835079,-2 2,-2 z"
       id="path1" />
  </g>
  <g
     id="b">
    <path
       style="color:#000000;fill:#000000;stroke-linecap:round;stroke-linejoin:round;-inkscape-stroke:none"
       d="m 17.398437,25.142578 c -0.84552,0 -1.690447,0.349069 -2.283203,1.044922 l -4.322265,5.074219 c -1.0593593,1.243837 -0.112358,3.296875 1.521484,3.296875 h 10.167969 c 1.633842,0 2.582796,-2.053038 1.523437,-3.296875 L 19.683594,26.1875 c -0.592756,-0.695853 -1.439636,-1.044922 -2.285157,-1.044922 z m 0,1.978516 c 0.277729,0 0.555875,0.121635 0.761719,0.363281 l 4.322266,5.074219 H 12.314453 l 4.324219,-5.074219 c 0.205844,-0.241646 0.482037,-0.363281 0.759765,-0.363281 z"
       id="path2" />
    <path
       style="color:#000000;fill:#000000;stroke-linecap:round;stroke-linejoin:round;-inkscape-stroke:none"
       d="m 27.294922,21.261719 c -0.84552,0 -1.690448,0.347116 -2.283203,1.042968 l -5.080078,5.962891 a 1,1 0 0 0 0.113281,1.410156 1,1 0 0 0 1.410156,-0.113281 l 5.078125,-5.962891 c 0.411688,-0.483292 1.11175,-0.483292 1.523438,0 l 7.628906,8.957032 H 22.482422 a 1,1 0 0 0 -1,1 1,1 0 0 0 1,1 h 13.203125 c 1.633842,0 2.580843,-2.053038 1.521484,-3.296875 L 29.578125,22.304687 C 28.98537,21.608835 28.140442,21.261719 27.294922,21.261719 Z"
       id="path3" />
    <path
       style="color:#000000;fill:#000000;stroke-linecap:round;stroke-linejoin:round;-inkscape-stroke:none"
       d="m 15.119141,18.441406 c -1.799206,0 -3.279297,1.480091 -3.279297,3.279297 0,1.799206 1.480091,3.279297 3.279297,3.279297 1.799205,0 3.279296,-1.480091 3.279296,-3.279297 0,-1.799206 -1.480091,-3.279297 -3.279296,-3.279297 z m 0,2 c 0.718326,0 1.279296,0.560971 1.279296,1.279297 0,0.718327 -0.56097,1.279297 -1.279296,1.279297 -0.718327,0 -1.279297,-0.56097 -1.279297,-1.279297 0,-0.718326 0.56097,-1.279297 1.279297,-1.279297 z"
       id="circle3" />
  </g>
</svg>
