<?xml version="1.0" encoding="UTF-8"?>
<svg id="svg2" version="1.1" viewBox="0 0 48 48" xmlns="http://www.w3.org/2000/svg">
 <defs id="defs1">
  <style id="style1">.c{fill:none;stroke:#000;stroke-width:2px;stroke-linecap:round;stroke-linejoin:round;}</style>
 </defs>
 <g id="a">
  <path id="path1" d="m7.5 7.5c-2.1973 0-4 1.8027-4 4v25c0 2.1973 1.8027 4 4 4h33c2.1973 0 4-1.8027 4-4v-20c0-2.1973-1.8027-4-4-4h-14.719c-0.62539 0-1.2333-0.19509-1.7422-0.55859l-4.9141-3.5098c-0.84794-0.60562-1.8642-0.93164-2.9062-0.93164zm0 2h8.7188c0.62539 0 1.2331 0.19501 1.7422 0.55859l4.9141 3.5098c0.84792 0.6057 1.8642 0.93164 2.9062 0.93164h14.719c1.1165 0 2 0.88351 2 2v20c0 1.1165-0.88351 2-2 2h-33c-1.1165 0-2-0.88351-2-2v-25c0-1.1165 0.88351-2 2-2z" stroke-linecap="round" stroke-linejoin="round"/>
 </g>
 <g id="b" stroke-linecap="round" stroke-linejoin="round">
  <path id="polyline1" d="m29.496 19.51-7.7227 1.0703a1.0001 1.0001 0 0 0-0.86133 0.99023v9.1582a1 1 0 0 0 1 1 1 1 0 0 0 1-1v-8.2871l5.7207-0.79297v6.8613a1 1 0 0 0 1 1 1 1 0 0 0 1-1v-8.0098a1.0001 1.0001 0 0 0-1.1367-0.99023z"/>
  <path id="circle1" d="m20.139 27.957c-1.519 0-2.7715 1.2525-2.7715 2.7715 0 1.519 1.2525 2.7715 2.7715 2.7715 1.519 0 2.7734-1.2525 2.7734-2.7715 0-1.519-1.2544-2.7715-2.7734-2.7715zm0 2c0.43815 0 0.77344 0.33333 0.77344 0.77148 0 0.43815-0.33528 0.77148-0.77344 0.77148s-0.77148-0.33333-0.77148-0.77148c0-0.43815 0.33333-0.77148 0.77148-0.77148z"/>
  <path id="circle2" d="m27.861 25.738c-1.519 0-2.7734 1.2525-2.7734 2.7715 0 1.519 1.2544 2.7715 2.7734 2.7715 1.519 0 2.7715-1.2525 2.7715-2.7715 0-1.519-1.2524-2.7715-2.7715-2.7715zm0 2c0.43815 0 0.77148 0.33333 0.77148 0.77148 0 0.43815-0.33333 0.77148-0.77148 0.77148s-0.77344-0.33333-0.77344-0.77148c0-0.43815 0.33528-0.77148 0.77344-0.77148z"/>
 </g>
</svg>
