<?xml version="1.0" encoding="UTF-8" standalone="no"?>
<svg
   viewBox="0 0 48 48"
   version="1.1"
   id="svg1"
   sodipodi:docname="folder-mail.svg"
   xmlns:inkscape="http://www.inkscape.org/namespaces/inkscape"
   xmlns:sodipodi="http://sodipodi.sourceforge.net/DTD/sodipodi-0.dtd"
   xmlns="http://www.w3.org/2000/svg"
   xmlns:svg="http://www.w3.org/2000/svg">
  <sodipodi:namedview
     id="namedview1"
     pagecolor="#ffffff"
     bordercolor="#666666"
     borderopacity="1.0"
     inkscape:showpageshadow="2"
     inkscape:pageopacity="0.0"
     inkscape:pagecheckerboard="0"
     inkscape:deskcolor="#d1d1d1" />
  <defs
     id="defs1">
    <style
       id="style1">.c{fill:none;stroke:#000;stroke-width:2px;stroke-linecap:round;stroke-linejoin:round;}</style>
  </defs>
  <g
     id="a">
    <path
       style="color:#000000;fill:#000000;stroke-linecap:round;stroke-linejoin:round;-inkscape-stroke:none"
       d="m 7.5,7.5 c -2.1973046,0 -4,1.8026954 -4,4 v 25 c 0,2.197305 1.8026954,4 4,4 h 33 c 2.197305,0 4,-1.802695 4,-4 v -20 c 0,-2.197305 -1.802695,-4 -4,-4 H 25.78125 c -0.625391,0 -1.233313,-0.195091 -1.742188,-0.558594 L 19.125,8.4316406 C 18.277059,7.8260218 17.260757,7.5 16.21875,7.5 Z m 0,2 h 8.71875 c 0.625391,0 1.23313,0.1950136 1.742187,0.558594 L 22.875,13.568359 C 23.722924,14.174055 24.739243,14.5 25.78125,14.5 H 40.5 c 1.116492,0 2,0.883508 2,2 v 20 c 0,1.116492 -0.883508,2 -2,2 h -33 c -1.1164921,0 -2,-0.883508 -2,-2 v -25 c 0,-1.116492 0.8835079,-2 2,-2 z"
       id="path1" />
  </g>
  <g
     id="b">
    <path
       style="color:#000000;fill:#000000;stroke-linecap:round;stroke-linejoin:round;-inkscape-stroke:none"
       d="m 18,19.583984 c -1.644701,0 -3,1.355299 -3,3 v 8 c 0,1.644701 1.355299,3 3,3 h 12 c 1.644701,0 3,-1.355299 3,-3 v -8 c 0,-1.644701 -1.355299,-3 -3,-3 z m 0,2 h 12 c 0.571297,0 1,0.428704 1,1 v 8 c 0,0.571297 -0.428703,1 -1,1 H 18 c -0.571297,0 -1,-0.428703 -1,-1 v -8 c 0,-0.571296 0.428703,-1 1,-1 z"
       id="rect1" />
    <path
       style="color:#000000;fill:#000000;stroke-linecap:round;stroke-linejoin:round;-inkscape-stroke:none"
       d="m 17.892578,21.763672 a 1,1 0 0 0 -0.636719,0.425781 1,1 0 0 0 0.275391,1.386719 l 5.914062,3.951172 a 1.0001,1.0001 0 0 0 1.109375,0 l 5.914063,-3.951172 a 1,1 0 0 0 0.275391,-1.386719 1,1 0 0 0 -1.386719,-0.275391 L 24,25.492187 18.642578,21.914062 a 1,1 0 0 0 -0.75,-0.15039 z"
       id="polyline1" />
  </g>
</svg>
