<?xml version="1.0" encoding="UTF-8"?>
<svg id="svg2" version="1.1" viewBox="0 0 48 48" xmlns="http://www.w3.org/2000/svg">
 <defs id="defs1">
  <style id="style1">.c{fill:none;stroke:#000;stroke-width:2px;stroke-linecap:round;stroke-linejoin:round;}</style>
 </defs>
 <g id="a">
  <path id="path1" d="m7.5 7.5c-2.1973 0-4 1.8027-4 4v25c0 2.1973 1.8027 4 4 4h33c2.1973 0 4-1.8027 4-4v-20c0-2.1973-1.8027-4-4-4h-14.719c-0.62539 0-1.2333-0.19509-1.7422-0.55859l-4.9141-3.5098c-0.84794-0.60562-1.8642-0.93164-2.9062-0.93164zm0 2h8.7188c0.62539 0 1.2331 0.19501 1.7422 0.55859l4.9141 3.5098c0.84792 0.6057 1.8642 0.93164 2.9062 0.93164h14.719c1.1165 0 2 0.88351 2 2v20c0 1.1165-0.88351 2-2 2h-33c-1.1165 0-2-0.88351-2-2v-25c0-1.1165 0.88351-2 2-2z" stroke-linecap="round" stroke-linejoin="round"/>
 </g>
 <g id="b">
  <path id="path2" d="m28.25 18.504c-0.6174 0.0484-1.1979 0.31894-1.6309 0.76172l-2.0117 2.0117-7.1699 7.1934a1.0001 1.0001 0 0 0-0.26172 0.45508l-1.1172 4.3242a1.0001 1.0001 0 0 0 1.2168 1.2188l4.3242-1.1094a1.0001 1.0001 0 0 0 0.45898-0.26367l7.1484-7.1699a1.0001 1.0001 0 0 0 0.02344-0.0098l2.0215-2.0195a1.0001 1.0001 0 0 0 0.0078-0.0098c0.94503-0.96745 0.94503-2.5404 0-3.5078a1.0001 1.0001 0 0 0-0.0039-2e-3l-1.0625-1.0762c-0.298-0.32166-0.75149-0.35107-1.1621-0.47644a1.0001 1.0001 0 0 0-0.75-0.30859 1.0001 1.0001 0 0 0-0.03125-0.01172zm0.12109 2.0098a1.0001 1.0001 0 0 0 2e-3 0c0.13399-0.0061 0.26234 0.04608 0.35352 0.14453a1.0001 1.0001 0 0 0 0.02148 0.02344l1.0801 1.0957c0.20137 0.20615 0.20137 0.50674 0 0.71289l-1.3027 1.3027-1.7988-1.8066 1.3145-1.3145a1.0001 1.0001 0 0 0 0.0078-0.0078c0.08543-0.08737 0.20235-0.13227 0.32227-0.15039zm-3.0566 2.8867 1.791 1.8008-6.2695 6.2891-2.418 0.61914 0.62695-2.4199z" stroke-linecap="round" stroke-linejoin="round"/>
 </g>
</svg>
