<?xml version="1.0" encoding="UTF-8" standalone="no"?>
<svg
   viewBox="0 0 48 48"
   version="1.1"
   id="svg2"
   sodipodi:docname="user-home.svg"
   xmlns:inkscape="http://www.inkscape.org/namespaces/inkscape"
   xmlns:sodipodi="http://sodipodi.sourceforge.net/DTD/sodipodi-0.dtd"
   xmlns="http://www.w3.org/2000/svg"
   xmlns:svg="http://www.w3.org/2000/svg">
  <sodipodi:namedview
     id="namedview2"
     pagecolor="#ffffff"
     bordercolor="#666666"
     borderopacity="1.0"
     inkscape:showpageshadow="2"
     inkscape:pageopacity="0.0"
     inkscape:pagecheckerboard="0"
     inkscape:deskcolor="#d1d1d1" />
  <defs
     id="defs1">
    <style
       id="style1">.c{fill:none;stroke:#000;stroke-width:2px;stroke-linecap:round;stroke-linejoin:round;}</style>
  </defs>
  <g
     id="a">
    <path
       style="color:#000000;fill:#000000;stroke-linecap:round;stroke-linejoin:round;-inkscape-stroke:none"
       d="m 7.5,7.5 c -2.1973046,0 -4,1.8026954 -4,4 v 25 c 0,2.197305 1.8026954,4 4,4 h 33 c 2.197305,0 4,-1.802695 4,-4 v -20 c 0,-2.197305 -1.802695,-4 -4,-4 H 25.78125 c -0.625391,0 -1.233313,-0.195091 -1.742188,-0.558594 L 19.125,8.4316406 C 18.277059,7.8260218 17.260757,7.5 16.21875,7.5 Z m 0,2 h 8.71875 c 0.625391,0 1.23313,0.1950136 1.742187,0.558594 L 22.875,13.568359 C 23.722924,14.174055 24.739243,14.5 25.78125,14.5 H 40.5 c 1.116492,0 2,0.883508 2,2 v 20 c 0,1.116492 -0.883508,2 -2,2 h -33 c -1.1164921,0 -2,-0.883508 -2,-2 v -25 c 0,-1.116492 0.8835079,-2 2,-2 z"
       id="path1" />
  </g>
  <g
     id="b">
    <path
       style="color:#000000;fill:#000000;stroke-linecap:round;stroke-linejoin:round;-inkscape-stroke:none"
       d="m 23.292969,19.792969 -4.470703,4.470703 -1.851563,1.851562 a 1,1 0 0 0 0,1.414063 1,1 0 0 0 1.414063,0 l 0.144531,-0.144531 V 32.5 a 1.0001,1.0001 0 0 0 1,1 h 8.941406 a 1.0001,1.0001 0 0 0 1,-1 v -5.115234 l 0.144531,0.144531 a 1,1 0 0 0 1.414063,0 1,1 0 0 0 0,-1.414063 l -1.851563,-1.851562 -4.470703,-4.470703 a 1.0001,1.0001 0 0 0 -1.414062,0 z M 24,21.914062 27.470703,25.384766 V 31.5 h -6.941406 v -6.115234 z"
       id="path2" />
  </g>
</svg>
