<?xml version="1.0" encoding="UTF-8"?>
<svg id="a" version="1.1" viewBox="0 0 48 48" xmlns="http://www.w3.org/2000/svg">
 <defs id="defs4">
  <style id="style2">.b{fill:#000;}.c{fill:none;stroke:#000;stroke-linecap:round;stroke-linejoin:round;stroke-width:2px;}</style>
 </defs>
 <path id="path6" d="m6.4023 19.105c-1.0389 0-1.9023 0.86342-1.9023 1.9023v13.504c0 1.0389 0.86342 1.9023 1.9023 1.9023h8.1152a1 1 0 0 0 1-1 1 1 0 0 0-1-1h-8.0176v-13.309h35v13.309h-8.0176a1 1 0 0 0-1 1 1 1 0 0 0 1 1h8.1152c1.0389 0 1.9023-0.86342 1.9023-1.9023v-13.504c0-1.0389-0.86342-1.9023-1.9023-1.9023z" color="#000000" stroke-linecap="round" stroke-linejoin="round" style="-inkscape-stroke:none"/>
 <path id="rect8" d="m14.518 30.438a1.0001 1.0001 0 0 0-1 1v10.129a1.0001 1.0001 0 0 0 1 1h18.965a1.0001 1.0001 0 0 0 1-1v-10.129a1.0001 1.0001 0 0 0-1-1zm1 2h16.965v8.1289h-16.965z" color="#000000" stroke-linecap="round" stroke-linejoin="round" style="-inkscape-stroke:none"/>
 <path id="path10" d="m14.518 5.4336a1.0001 1.0001 0 0 0-1 1v13.672a1.0001 1.0001 0 0 0 1 1h18.965l-0.70703-0.29297a1.0001 1.0001 0 0 0 1.707-0.70703v-9.6719a1.0001 1.0001 0 0 0-0.29297-0.70703l-4-4a1.0001 1.0001 0 0 0-0.70703-0.29297zm1 2h13.551l3.4141 3.4141v8.2578h-16.965z" color="#000000" stroke-linecap="round" stroke-linejoin="round" style="-inkscape-stroke:none"/>
 <path id="polyline12" d="m29.873 5.4336a1 1 0 0 0-1 1v3.6094a1.0001 1.0001 0 0 0 1 1h3.6094a1 1 0 0 0 1-1 1 1 0 0 0-1-1h-2.6094v-2.6094a1 1 0 0 0-1-1z" color="#000000" stroke-linecap="round" stroke-linejoin="round" style="-inkscape-stroke:none"/>
 <circle id="circle14" class="b" cx="39.852" cy="22.898" r=".75"/>
 <circle id="circle16" class="b" cx="36.835" cy="22.898" r=".75"/>
 <circle id="circle18" class="b" cx="33.819" cy="22.898" r=".75"/>
</svg>
