<?xml version="1.0" encoding="UTF-8"?>
<svg id="a" version="1.1" viewBox="0 0 48 48" xmlns="http://www.w3.org/2000/svg">
 <defs id="defs1">
  <style id="style1">.b{fill:none;stroke:#000;stroke-width:2px;stroke-linecap:round;stroke-linejoin:round;}</style>
 </defs>
 <path id="path1" d="m23.955 3.5c-2.2356 0.012631-4.0654 1.8426-4.0781 4.0781a1.0001 1.0001 0 0 0 0 0.00586v0.35352c-5.9576 1.8211-10.149 7.2383-10.152 13.533v10.793l-3.9121 3.9121a1.0001 1.0001 0 0 0-0.29297 0.70703v1.9434a1.0001 1.0001 0 0 0 1 1h12.006c0.47874 2.6178 2.6707 4.6596 5.4238 4.6738 2.773 0.01436 4.9994-2.0332 5.4824-4.6738h12.049v-2l1 1v-1.9434a1.0001 1.0001 0 0 0-0.29297-0.70703l-3.9121-3.9121v-10.793c-0.003187-6.3126-4.2154-11.74-10.195-13.547v-0.33984a1.0001 1.0001 0 0 0 0-0.00586c-0.01276-2.2534-1.8717-4.0909-4.125-4.0781zm0.01172 2c1.1723-0.00664 2.1066 0.9174 2.1133 2.0898v0.97852a1.0001 1.0001 0 0 0 0.76758 0.97266c5.5295 1.3168 9.4249 6.2455 9.4277 11.93v11.207a1.0001 1.0001 0 0 0 0.29297 0.70703l3.9121 3.9121v0.5293h-11.852a1.0001 1.0001 0 0 0-1 1v0.04687c-0.01262 2.0262-1.6432 3.6374-3.6699 3.627-2.0281-0.0105-3.6433-1.6419-3.6328-3.6699a1.0001 1.0001 0 0 0-1-1.0039h-11.807v-0.5293l3.9121-3.9121a1.0001 1.0001 0 0 0 0.29297-0.70703v-11.207c0.0032-5.6684 3.8769-10.586 9.3867-11.918a1.0001 1.0001 0 0 0 0.76562-0.97266v-0.99023c0.006638-1.1628 0.92708-2.0833 2.0898-2.0898z" stroke-linecap="round" stroke-linejoin="round"/>
</svg>
