<?xml version="1.0" encoding="UTF-8" standalone="no"?>
<svg
   viewBox="0 0 48 48"
   version="1.1"
   id="svg2"
   sodipodi:docname="applications-office.svg"
   xmlns:inkscape="http://www.inkscape.org/namespaces/inkscape"
   xmlns:sodipodi="http://sodipodi.sourceforge.net/DTD/sodipodi-0.dtd"
   xmlns="http://www.w3.org/2000/svg"
   xmlns:svg="http://www.w3.org/2000/svg">
  <sodipodi:namedview
     id="namedview2"
     pagecolor="#ffffff"
     bordercolor="#666666"
     borderopacity="1.0"
     inkscape:showpageshadow="2"
     inkscape:pageopacity="0.0"
     inkscape:pagecheckerboard="0"
     inkscape:deskcolor="#d1d1d1" />
  <defs
     id="defs1">
    <style
       id="style1">.a{fill:none;stroke:#fff;stroke-width:2px;stroke-linecap:round;stroke-linejoin:round;}</style>
  </defs>
  <path
     style="color:#000000;fill:#ffffff;stroke-linecap:round;stroke-linejoin:round;-inkscape-stroke:none"
     d="m 10.5,3.5292969 c -1.645008,0 -3,1.354992 -3,3 V 41.529297 c 0,1.645008 1.354992,3 3,3 h 27 c 1.645008,0 3,-1.354992 3,-3 v -20 a 1.0001,1.0001 0 0 0 0,-0.0039 c -0.0033,-0.793099 -0.320874,-1.553701 -0.882813,-2.113282 L 24.619141,4.4140625 C 24.059384,3.8509517 23.29789,3.5326444 22.503906,3.5292969 a 1.0001,1.0001 0 0 0 -0.0039,0 z m 0,2 h 11.996094 c 0.265169,0.00112 0.518134,0.1068578 0.705078,0.2949218 a 1.0001,1.0001 0 0 0 0.002,0.00195 l 15,15.0000001 a 1.0001,1.0001 0 0 0 0.002,0.0039 c 0.188064,0.186944 0.293804,0.439909 0.294922,0.705078 v 19.994141 c 0,0.564129 -0.435871,1 -1,1 h -27 c -0.5641288,0 -1,-0.435871 -1,-1 V 6.5292969 c 0,-0.5641288 0.4358712,-1 1,-1 z"
     id="path1" />
  <path
     style="color:#000000;fill:#ffffff;stroke-linecap:round;stroke-linejoin:round;-inkscape-stroke:none"
     d="m 30.296875,3.5 c -0.663063,0.00931 -1.234296,0.4493054 -1.457031,0.9902344 -0.222736,0.540929 -0.128318,1.2569647 0.335937,1.7304687 a 1.0001,1.0001 0 0 0 0.0078,0.00586 l 8.589843,8.5898435 a 1.0001,1.0001 0 0 0 0.03906,0.03711 c 0.953931,0.855505 2.609034,0.160948 2.666016,-1.119141 a 1.0001,1.0001 0 0 0 0.002,-0.04492 V 6.5 c 0,-1.645008 -1.354992,-3 -3,-3 h -7.169922 a 1.0001,1.0001 0 0 0 -0.01367,0 z m 0.988281,2 h 6.195313 c 0.564129,0 1,0.4358712 1,1 v 6.195313 z"
     id="path2" />
</svg>
