<?xml version="1.0" encoding="UTF-8" standalone="no"?>
<svg
   viewBox="0 0 48 48"
   version="1.1"
   id="svg3"
   sodipodi:docname="applications-games.svg"
   xmlns:inkscape="http://www.inkscape.org/namespaces/inkscape"
   xmlns:sodipodi="http://sodipodi.sourceforge.net/DTD/sodipodi-0.dtd"
   xmlns="http://www.w3.org/2000/svg"
   xmlns:svg="http://www.w3.org/2000/svg">
  <sodipodi:namedview
     id="namedview3"
     pagecolor="#ffffff"
     bordercolor="#666666"
     borderopacity="1.0"
     inkscape:showpageshadow="2"
     inkscape:pageopacity="0.0"
     inkscape:pagecheckerboard="0"
     inkscape:deskcolor="#d1d1d1" />
  <defs
     id="defs1">
    <style
       id="style1">.a{fill:none;stroke:#fff;stroke-width:2px;stroke-linecap:round;stroke-linejoin:round;}</style>
  </defs>
  <path
     style="color:#000000;fill:#ffffff;stroke-linecap:round;stroke-linejoin:round;-inkscape-stroke:none"
     d="m 14.5,13 c -6.0766967,0 -11,4.923303 -11,11 0,6.076697 4.9233033,11 11,11 h 19 c 6.076697,0 11,-4.923303 11,-11 0,-6.076697 -4.923303,-11 -11,-11 z m 0,2 h 19 c 5.003292,0 9,3.996708 9,9 0,5.003292 -3.996708,9 -9,9 h -19 c -5.0032922,0 -9,-3.996708 -9,-9 0,-5.003292 3.9967078,-9 9,-9 z"
     id="rect1" />
  <path
     style="color:#000000;fill:#ffffff;stroke-linecap:round;stroke-linejoin:round;-inkscape-stroke:none"
     d="m 13.800781,18.570312 c -0.614721,10e-7 -1.243584,0.199593 -1.74414,0.644532 -0.500557,0.444939 -0.826172,1.152449 -0.826172,1.925781 v 0.289062 h -0.291016 c -0.773332,0 -1.4788892,0.325616 -1.923828,0.826172 C 8.5706862,22.756416 8.3691406,23.385278 8.3691406,24 c 0,0.614722 0.2015456,1.243584 0.6464844,1.744141 0.4449388,0.500556 1.150496,0.826171 1.923828,0.826171 h 0.291016 v 0.289063 c 0,0.773332 0.325615,1.480842 0.826172,1.925781 0.500556,0.444939 1.129419,0.644531 1.74414,0.644531 0.614722,0 1.241631,-0.199592 1.742188,-0.644531 0.500556,-0.444939 0.826172,-1.152449 0.826172,-1.925781 v -0.289063 h 0.291015 c 0.773333,0 1.47889,-0.325615 1.923828,-0.826171 0.444939,-0.500557 0.646485,-1.129419 0.646485,-1.744141 0,-0.614722 -0.201546,-1.243584 -0.646485,-1.744141 -0.444938,-0.500556 -1.150495,-0.826172 -1.923828,-0.826172 h -0.291015 v -0.289062 c 0,-0.773332 -0.325616,-1.480842 -0.826172,-1.925781 -0.500557,-0.444939 -1.127466,-0.644532 -1.742188,-0.644532 z m 0,2 c 0.170278,0 0.32587,0.06028 0.414063,0.138672 0.08819,0.07839 0.154297,0.158308 0.154297,0.431641 v 1.289062 a 1.0001,1.0001 0 0 0 1,1 h 1.291015 c 0.273333,0 0.351294,0.06806 0.429688,0.15625 0.07839,0.08819 0.140625,0.243785 0.140625,0.414063 0,0.170278 -0.06223,0.325869 -0.140625,0.414062 -0.07839,0.08819 -0.156355,0.15625 -0.429688,0.15625 h -1.291015 a 1.0001,1.0001 0 0 0 -1,1 v 1.289063 c 0,0.273333 -0.0661,0.353247 -0.154297,0.431641 -0.08819,0.07839 -0.243785,0.138672 -0.414063,0.138671 -0.170277,0 -0.327822,-0.06028 -0.416015,-0.138671 -0.08819,-0.07839 -0.154297,-0.158308 -0.154297,-0.431641 v -1.289063 a 1.0001,1.0001 0 0 0 -1,-1 h -1.291016 c -0.273333,0 -0.351294,-0.06806 -0.429687,-0.15625 C 10.431372,24.325869 10.369141,24.170278 10.369141,24 c 0,-0.170278 0.06223,-0.32587 0.140625,-0.414063 0.07839,-0.08819 0.156354,-0.15625 0.429687,-0.15625 h 1.291016 a 1.0001,1.0001 0 0 0 1,-1 v -1.289062 c 0,-0.273333 0.0661,-0.353247 0.154297,-0.431641 0.08819,-0.07839 0.245738,-0.138672 0.416015,-0.138672 z"
     id="path1" />
  <path
     style="color:#000000;fill:#ffffff;stroke-linecap:round;stroke-linejoin:round;-inkscape-stroke:none"
     d="m 30.199219,23.230469 c -1.871841,0 -3.410156,1.538315 -3.410157,3.410156 0,1.871841 1.538316,3.410156 3.410157,3.410156 1.871841,0 3.410156,-1.538315 3.410156,-3.410156 0,-1.871841 -1.538315,-3.410156 -3.410156,-3.410156 z m 0,2 c 0.798436,0 1.410156,0.61172 1.410156,1.410156 0,0.798436 -0.61172,1.410156 -1.410156,1.410156 -0.798437,0 -1.410157,-0.61172 -1.410157,-1.410156 0,-0.798436 0.61172,-1.410156 1.410157,-1.410156 z"
     id="rect2" />
  <path
     style="color:#000000;fill:#ffffff;stroke-linecap:round;stroke-linejoin:round;-inkscape-stroke:none"
     d="m 35.480469,17.949219 c -1.871841,0 -3.410156,1.538315 -3.410157,3.410156 0,1.871841 1.538316,3.410156 3.410157,3.410156 1.871841,0 3.410156,-1.538315 3.410156,-3.410156 0,-1.871841 -1.538315,-3.410156 -3.410156,-3.410156 z m 0,2 c 0.798436,0 1.410156,0.61172 1.410156,1.410156 0,0.798436 -0.61172,1.410156 -1.410156,1.410156 -0.798437,0 -1.410157,-0.61172 -1.410157,-1.410156 0,-0.798436 0.61172,-1.410156 1.410157,-1.410156 z"
     id="rect3" />
</svg>
