<?xml version="1.0" encoding="UTF-8"?>
<svg id="svg38" version="1.1" viewBox="0 0 48 48" xmlns="http://www.w3.org/2000/svg">
 <defs id="defs4">
  <style id="style2">.a{fill:none;stroke:#fff;stroke-width:2px;stroke-linecap:round;stroke-linejoin:round;}</style>
 </defs>
 <path id="line6" d="m4.5 4.2109a1 1 0 0 0-1 1 1 1 0 0 0 1 1h39a1 1 0 0 0 1-1 1 1 0 0 0-1-1z" color="#000000" fill="#fff" stroke-linecap="round" stroke-linejoin="round" style="-inkscape-stroke:none"/>
 <path id="line8" d="m41.551 4.2109a1 1 0 0 0-1 1v31.199a1 1 0 0 0 1 1 1 1 0 0 0 1-1v-31.199a1 1 0 0 0-1-1z" color="#000000" fill="#fff" stroke-linecap="round" stroke-linejoin="round" style="-inkscape-stroke:none"/>
 <path id="line10" d="m4.5 35.41a1 1 0 0 0-1 1 1 1 0 0 0 1 1h39a1 1 0 0 0 1-1 1 1 0 0 0-1-1z" color="#000000" fill="#fff" stroke-linecap="round" stroke-linejoin="round" style="-inkscape-stroke:none"/>
 <path id="line12" d="m6.4492 4.2109a1 1 0 0 0-1 1v31.199a1 1 0 0 0 1 1 1 1 0 0 0 1-1v-31.199a1 1 0 0 0-1-1z" color="#000000" fill="#fff" stroke-linecap="round" stroke-linejoin="round" style="-inkscape-stroke:none"/>
 <path id="path14" d="m30.881 8.1895c-0.80222 0-1.6186 0.26405-2.2598 0.83398-0.64118 0.56994-1.0605 1.463-1.0605 2.4863v4.1309c0 1.0233 0.41936 1.9164 1.0605 2.4863 0.64118 0.56994 1.4575 0.83398 2.2598 0.83398 0.80222 0 1.6166-0.26404 2.2578-0.83398s1.0605-1.463 1.0605-2.4863v-4.1309c0-1.0233-0.41937-1.9164-1.0605-2.4863s-1.4556-0.83398-2.2578-0.83398zm0 2c0.35778 0 0.70087 0.12473 0.92969 0.32812 0.22882 0.20339 0.38867 0.46886 0.38867 0.99219v4.1309c0 0.52333-0.15985 0.78879-0.38867 0.99219-0.22882 0.20339-0.57191 0.32812-0.92969 0.32812-0.35778 0-0.70282-0.12473-0.93164-0.32812-0.22882-0.20339-0.38867-0.46886-0.38867-0.99219v-4.1309c0-0.52333 0.15985-0.78879 0.38867-0.99219 0.22882-0.20339 0.57386-0.32812 0.93164-0.32812z" color="#000000" fill="#fff" stroke-linecap="round" stroke-linejoin="round" style="-inkscape-stroke:none"/>
 <path id="path16" d="m17.119 15.68c-0.80222 0-1.6166 0.26209-2.2578 0.83203-0.64118 0.56994-1.0605 1.4649-1.0605 2.4883v4.1191c0 1.0233 0.41937 1.9183 1.0605 2.4883s1.4556 0.83203 2.2578 0.83203c0.80222 0 1.6186-0.26209 2.2598-0.83203 0.64118-0.56994 1.0605-1.4649 1.0605-2.4883v-4.1191c0-1.0233-0.41936-1.9183-1.0605-2.4883-0.64118-0.56994-1.4575-0.83203-2.2598-0.83203zm0 2c0.35778 0 0.70282 0.12473 0.93164 0.32812 0.22882 0.20339 0.38867 0.46886 0.38867 0.99219v4.1191c0 0.52333-0.15985 0.79075-0.38867 0.99414-0.22882 0.20339-0.57386 0.32617-0.93164 0.32617-0.35778 0-0.70087-0.12278-0.92969-0.32617-0.22882-0.20339-0.38867-0.47081-0.38867-0.99414v-4.1191c0-0.52333 0.15985-0.78879 0.38867-0.99219 0.22882-0.20339 0.57191-0.32812 0.92969-0.32812z" color="#000000" fill="#fff" stroke-linecap="round" stroke-linejoin="round" style="-inkscape-stroke:none"/>
 <path id="path18" d="m30.881 23.15c-0.80222 0-1.6186 0.26209-2.2598 0.83203-0.64118 0.56994-1.0605 1.4649-1.0605 2.4883v4.1289c0 1.0233 0.41936 1.9183 1.0605 2.4883 0.64118 0.56994 1.4575 0.83203 2.2598 0.83203 0.80222 0 1.6166-0.26209 2.2578-0.83203 0.64118-0.56994 1.0605-1.465 1.0605-2.4883v-4.1289c0-1.0233-0.41937-1.9183-1.0605-2.4883s-1.4556-0.83203-2.2578-0.83203zm0 2c0.35778 0 0.70087 0.12278 0.92969 0.32617 0.22882 0.20339 0.38867 0.47081 0.38867 0.99414v4.1289c0 0.52333-0.15985 0.78879-0.38867 0.99219-0.22882 0.20339-0.57191 0.32812-0.92969 0.32812-0.35778 0-0.70282-0.12473-0.93164-0.32812-0.22882-0.20339-0.38867-0.46886-0.38867-0.99219v-4.1289c0-0.52333 0.15985-0.79075 0.38867-0.99414 0.22882-0.20339 0.57386-0.32617 0.93164-0.32617z" color="#000000" fill="#fff" stroke-linecap="round" stroke-linejoin="round" style="-inkscape-stroke:none"/>
 <path id="line20" d="m11.33 12.58a1 1 0 0 0-1 1 1 1 0 0 0 1 1h17.23a1 1 0 0 0 1-1 1 1 0 0 0-1-1z" color="#000000" fill="#fff" stroke-linecap="round" stroke-linejoin="round" style="-inkscape-stroke:none"/>
 <path id="line22" d="m11.33 27.529a1 1 0 0 0-1 1 1 1 0 0 0 1 1h17.23a1 1 0 0 0 1-1 1 1 0 0 0-1-1z" color="#000000" fill="#fff" stroke-linecap="round" stroke-linejoin="round" style="-inkscape-stroke:none"/>
 <path id="line24" d="m33.199 12.58a1 1 0 0 0-1 1 1 1 0 0 0 1 1h3.4707a1 1 0 0 0 1-1 1 1 0 0 0-1-1z" color="#000000" fill="#fff" stroke-linecap="round" stroke-linejoin="round" style="-inkscape-stroke:none"/>
 <path id="line26" d="m33.199 27.529a1 1 0 0 0-1 1 1 1 0 0 0 1 1h3.4707a1 1 0 0 0 1-1 1 1 0 0 0-1-1z" color="#000000" fill="#fff" stroke-linecap="round" stroke-linejoin="round" style="-inkscape-stroke:none"/>
 <path id="line28" d="m19.439 20.061a1 1 0 0 0-1 1 1 1 0 0 0 1 1h17.23a1 1 0 0 0 1-1 1 1 0 0 0-1-1z" color="#000000" fill="#fff" stroke-linecap="round" stroke-linejoin="round" style="-inkscape-stroke:none"/>
 <path id="line30" d="m11.33 20.061a1 1 0 0 0-1 1 1 1 0 0 0 1 1h3.4707a1 1 0 0 0 1-1 1 1 0 0 0-1-1z" color="#000000" fill="#fff" stroke-linecap="round" stroke-linejoin="round" style="-inkscape-stroke:none"/>
 <path id="line32" d="m17.959 35.41a1 1 0 0 0-0.70703 0.29297l-6.0293 6.0508a1 1 0 0 0 2e-3 1.4141 1 1 0 0 0 1.4141-2e-3l6.0293-6.0508a1 1 0 0 0-2e-3 -1.4141 1 1 0 0 0-0.70703-0.29102z" color="#000000" fill="#fff" stroke-linecap="round" stroke-linejoin="round" style="-inkscape-stroke:none"/>
 <path id="line34" d="m24 35.41a1 1 0 0 0-1 1v6.3789a1 1 0 0 0 1 1 1 1 0 0 0 1-1v-6.3789a1 1 0 0 0-1-1z" color="#000000" fill="#fff" stroke-linecap="round" stroke-linejoin="round" style="-inkscape-stroke:none"/>
 <path id="line36" d="m30.041 35.41a1 1 0 0 0-0.70703 0.29102 1 1 0 0 0-2e-3 1.4141l6.0293 6.0508a1 1 0 0 0 1.4141 2e-3 1 1 0 0 0 2e-3 -1.4141l-6.0293-6.0508a1 1 0 0 0-0.70703-0.29297z" color="#000000" fill="#fff" stroke-linecap="round" stroke-linejoin="round" style="-inkscape-stroke:none"/>
</svg>
