<?xml version="1.0" encoding="UTF-8"?>
<svg id="svg1" version="1.1" viewBox="0 0 48 48" xmlns="http://www.w3.org/2000/svg">
 <defs id="defs1">
  <style id="style1">.a{fill:none;stroke:#fff;stroke-width:2px;stroke-linecap:round;stroke-linejoin:round;}</style>
 </defs>
 <path id="path1" d="m35.402 4.4238c-1.2377 0.097091-2.3996 0.63965-3.2676 1.5273l-5.3418 5.3418a1.0001 1.0001 0 0 0 0 2e-3 1.0001 1.0001 0 0 0-2e-3 0l-17.338 17.398-1.6504 1.6504 0.064453-0.06055c-0.3756 0.31478-0.6639 0.72034-0.83984 1.1777a1.0001 1.0001 0 0 0-0.033203 0.10157l-2.4004 8.9961c-0.46454 1.7187 1.1875 3.3708 2.9062 2.9062l-0.00195 2e-3 9-2.4102a1.0001 1.0001 0 0 0 0.09375-0.03125c0.44971-0.16926 0.84982-0.44705 1.1641-0.81055l-0.04687 0.05078 4.3086-4.3301 14.623-14.66a1.0001 1.0001 0 0 0 0.06641-0.02734l5.3496-5.3516a1.0001 1.0001 0 0 0 0.0078-0.0078c1.8899-1.9348 1.8899-5.0535 0-6.9883a1.0001 1.0001 0 0 0-2e-3 -0.00195l-2.8496-2.8887c-0.93391-1.0084-2.2574-1.5392-3.627-1.5215a1.0001 1.0001 0 0 0-0.18359-0.064453zm0.08984 2.0234a1.0001 1.0001 0 0 0 0.0332 0.011719c0.83884-0.038231 1.6501 0.29407 2.2207 0.91016a1.0001 1.0001 0 0 0 0.02148 0.023437l2.8672 2.9062c1.1451 1.1724 1.1449 3.0158 2e-3 4.1895-0.0011 0.0011-8.52e-4 0.0028-2e-3 0.0039l-4.6152 4.6133-7.1055-7.1055 4.6426-4.6426a1.0001 1.0001 0 0 0 0.0078-0.00781c0.5122-0.52384 1.2006-0.82761 1.9277-0.90235zm-7.9922 6.9707 7.0664 7.1016-13.965 14.004a1.0001 1.0001 0 0 0 0 2e-3l-4.3105 4.3301a1.0001 1.0001 0 0 0-0.04687 0.05078c-0.09293 0.1075-0.21172 0.18808-0.34375 0.24023l-8.9199 2.3867a1.0001 1.0001 0 0 0-0.00195 2e-3c-0.32257 0.08709-0.54031-0.13261-0.45313-0.45517a1.0001 1.0001 0 0 0 0-2e-3l2.377-8.9121c0.054679-0.13442 0.13864-0.25628 0.25-0.34961a1.0001 1.0001 0 0 0 0.064453-0.05859l1.6504-1.6504a1.0001 1.0001 0 0 0 2e-3 -2e-3z" fill="#fff" stroke-linecap="round" stroke-linejoin="round"/>
</svg>
