<?xml version="1.0" encoding="UTF-8" standalone="no"?>
<svg
   viewBox="0 0 48 48"
   version="1.1"
   id="svg1"
   sodipodi:docname="applications-utilities.svg"
   xmlns:inkscape="http://www.inkscape.org/namespaces/inkscape"
   xmlns:sodipodi="http://sodipodi.sourceforge.net/DTD/sodipodi-0.dtd"
   xmlns="http://www.w3.org/2000/svg"
   xmlns:svg="http://www.w3.org/2000/svg">
  <sodipodi:namedview
     id="namedview1"
     pagecolor="#ffffff"
     bordercolor="#666666"
     borderopacity="1.0"
     inkscape:showpageshadow="2"
     inkscape:pageopacity="0.0"
     inkscape:pagecheckerboard="0"
     inkscape:deskcolor="#d1d1d1" />
  <defs
     id="defs1">
    <style
       id="style1">.a{fill:none;stroke:#fff;stroke-width:2px;stroke-miterlimit:10;}</style>
  </defs>
  <path
     style="color:#000000;fill:#ffffff;stroke-miterlimit:10;-inkscape-stroke:none"
     d="M 10.974609,7.3203125 C 9.3859459,7.3595566 8.0900253,8.6574303 8.0507813,10.246094 V 10.257813 11 H 6.4375 6.4257812 C 4.8534632,11.038079 3.5624501,12.309321 3.5,13.880859 v 0.01953 22.830078 c 0,1.645008 1.354992,3 3,3 h 35.099609 c 1.645008,0 3,-1.354992 3,-3 V 13.900391 13.880859 C 44.534981,12.252876 43.152161,10.957986 41.523437,11 h -1.583984 v -0.705078 -0.0039 C 39.924168,8.6907913 38.628876,7.3682484 37.029297,7.3203125 h -0.01367 -26.027344 z m 0.05078,2 h 25.945312 c 0.547125,0.016396 0.963522,0.4409361 0.96875,0.9882815 V 11 H 10.050781 v -0.708984 c 0.01574,-0.5407321 0.433148,-0.957328 0.97461,-0.9707035 z M 6.4746094,13 h 2.5859375 0.9902341 27.888672 1 2.623047 0.01367 c 0.556422,-0.01435 0.998942,0.399719 1.023437,0.955078 v 22.775391 c 0,0.564129 -0.435871,1 -1,1 H 6.5 c -0.5641288,0 -1,-0.435871 -1,-1 V 13.958984 C 5.5213281,13.422268 5.9376271,13.013005 6.4746094,13 Z m 8.3261716,4.050781 c -1.61704,-5.05e-4 -2.959574,1.307293 -3,2.923828 v 0.01367 2.583985 0.01367 c 0.04043,1.616536 1.38296,2.924334 3,2.923829 h 18.41211 0.01172 c 1.588664,-0.03924 2.886538,-1.337118 2.925782,-2.925782 v -0.01172 -0.01172 -2.572266 -0.01367 c -0.03924,-1.588663 -1.337118,-2.884584 -2.925782,-2.923828 h -0.01172 z m -0.002,2 h 0.002 18.378906 c 0.540732,0.01574 0.957328,0.433148 0.970704,0.97461 v 2.509765 c -0.01342,0.543052 -0.431558,0.961195 -0.97461,0.97461 h -18.375 -0.002 c -0.552031,1.72e-4 -0.981843,-0.419604 -0.998047,-0.970704 v -2.517578 c 0.0162,-0.551099 0.446016,-0.970875 0.998047,-0.970703 z"
     id="path1" />
</svg>
