<?xml version="1.0" encoding="UTF-8" standalone="no"?>
<svg
   id="Layer_2"
   data-name="Layer 2"
   viewBox="0 0 48 48"
   version="1.1"
   sodipodi:docname="applications-internet.svg"
   xmlns:inkscape="http://www.inkscape.org/namespaces/inkscape"
   xmlns:sodipodi="http://sodipodi.sourceforge.net/DTD/sodipodi-0.dtd"
   xmlns="http://www.w3.org/2000/svg"
   xmlns:svg="http://www.w3.org/2000/svg">
  <sodipodi:namedview
     id="namedview1"
     pagecolor="#ffffff"
     bordercolor="#666666"
     borderopacity="1.0"
     inkscape:showpageshadow="2"
     inkscape:pageopacity="0.0"
     inkscape:pagecheckerboard="0"
     inkscape:deskcolor="#d1d1d1" />
  <defs
     id="defs1">
    <style
       id="style1">.cls-1{fill:none;stroke:#fff;stroke-width:2px;stroke-linecap:round;stroke-linejoin:round;}</style>
  </defs>
  <path
     style="color:#000000;fill:#ffffff;stroke-linecap:round;stroke-linejoin:round;-inkscape-stroke:none"
     d="M 24,1.5 C 11.588065,1.505769 1.505769,11.588065 1.5,24 1.505769,36.411935 11.588065,46.494231 24,46.5 36.411935,46.494231 46.494231,36.411935 46.5,24 46.494231,11.588065 36.411935,1.505769 24,1.5 Z m 0,2 C 35.331713,3.5052669 44.494733,12.668287 44.5,24 44.494733,35.331713 35.331713,44.494733 24,44.5 12.668287,44.494733 3.5052669,35.331713 3.5,24 3.5052669,12.668287 12.668287,3.5052669 24,3.5 Z M 19.279297,5.5917969 C 12.941216,7.2291021 7.8899987,12.016384 5.9160156,18.257812 a 1.0001,1.0001 0 0 0 0.5527344,1.21875 l 4.828125,2.115235 -2.8925781,1.523437 a 1.0001,1.0001 0 0 0 -0.5273438,1.003907 l 1.3808594,11.548828 a 1.0001,1.0001 0 0 0 0.2265625,0.527343 c 0.866486,1.028345 1.839504,1.961348 2.902344,2.785157 a 1.0001,1.0001 0 0 0 1.449219,-0.240235 l 9.208984,-13.980468 a 1.0001,1.0001 0 0 0 -0.533203,-1.503907 l -7.677735,-2.433593 1.494141,-5.09961 4.65625,-2.71875 a 1.0001,1.0001 0 0 0 0.378906,-0.392578 L 22.882812,9.7597656 A 1.0001,1.0001 0 0 0 22.738281,8.6152344 l -2.460937,-2.6894532 0.18164,0.3378907 a 1.0001,1.0001 0 0 0 -1.179687,-0.671875 z m 13.164062,1.4316406 a 1.0001,1.0001 0 0 0 -1.292968,0.3691406 l -3,4.8300779 A 1.0001,1.0001 0 0 0 29.037109,13.75 L 37,13.458984 l -9.960938,4.5 a 1.0001,1.0001 0 0 0 -0.568359,1.111328 l 1.388672,6.800782 a 1.0001,1.0001 0 0 0 0.708984,0.761718 l 5.337891,1.511719 0.857422,9.525391 a 1.0001,1.0001 0 0 0 1.648437,0.667969 c 7.343642,-6.3245 8.71408,-17.202497 3.167969,-25.150391 a 1.0001,1.0001 0 0 0 -1.03125,-0.283203 1.0001,1.0001 0 0 0 -0.04297,-1.117188 c -1.67134,-1.9873171 -3.736177,-3.6099677 -6.0625,-4.7636715 z m -13.210937,0.7226562 1.552734,1.6972657 -1.054687,1.9765626 -4.753906,2.777344 a 1.0001,1.0001 0 0 0 -0.457032,0.582031 L 12.953125,20.134766 8.1992188,18.050781 C 10.070523,13.070059 14.119334,9.2598607 19.232422,7.7460937 Z m 13.08789,1.5527344 c 1.101503,0.622124 2.109547,1.3690479 3.042969,2.2187499 l -4.523437,0.164063 z m 6.023438,5.7460939 c 4.051243,6.449323 3.262793,14.702545 -1.783203,20.269531 l -0.72461,-8.035156 a 1.0001,1.0001 0 0 0 -0.722656,-0.871094 l -5.416015,-1.535156 -1.107422,-5.419922 z m -24.613281,7.52539 6.917968,2.19336 -7.826171,11.876953 C 12.259979,36.143743 11.693679,35.650914 11.201172,35.083984 L 9.9453125,24.564453 Z"
     id="path1" />
</svg>
