<?xml version="1.0" encoding="UTF-8"?>
<svg id="svg10" version="1.1" viewBox="0 0 48 48" xmlns="http://www.w3.org/2000/svg">
 <defs id="defs4">
  <style id="style2">.a{fill:none;stroke:#fff;stroke-width:2px;stroke-linecap:round;stroke-linejoin:round;}</style>
 </defs>
 <path id="path6" d="m10.5 3.5293c-1.645 0-3 1.355-3 3v35c0 1.645 1.355 3 3 3h27c1.645 0 3-1.355 3-3v-20a1.0001 1.0001 0 0 0 0-0.0039c-0.0033-0.7931-0.32087-1.5537-0.88281-2.1133l-14.998-14.998c-0.55976-0.56311-1.3213-0.88142-2.1152-0.88477a1.0001 1.0001 0 0 0-0.0039 0zm0 2h11.996c0.26517 0.00112 0.51813 0.10686 0.70508 0.29492a1.0001 1.0001 0 0 0 2e-3 0.00195l15 15a1.0001 1.0001 0 0 0 2e-3 0.0039c0.18806 0.18694 0.2938 0.43991 0.29492 0.70508v19.994c0 0.56413-0.43587 1-1 1h-27c-0.56413 0-1-0.43587-1-1v-35c0-0.56413 0.43587-1 1-1z" color="#000000" fill="#fff" stroke-linecap="round" stroke-linejoin="round" style="-inkscape-stroke:none"/>
 <path id="path8" d="m30.297 3.5c-0.66306 0.00931-1.2343 0.44931-1.457 0.99023-0.22274 0.54093-0.12832 1.257 0.33594 1.7305a1.0001 1.0001 0 0 0 0.0078 0.00586l8.5898 8.5898a1.0001 1.0001 0 0 0 0.03906 0.03711c0.95393 0.8555 2.609 0.16095 2.666-1.1191a1.0001 1.0001 0 0 0 2e-3 -0.04492v-7.1895c0-1.645-1.355-3-3-3h-7.1699a1.0001 1.0001 0 0 0-0.01367 0zm0.98828 2h6.1953c0.56413 0 1 0.43587 1 1v6.1953z" color="#000000" fill="#fff" stroke-linecap="round" stroke-linejoin="round" style="-inkscape-stroke:none"/>
</svg>
