<?xml version="1.0" encoding="UTF-8" standalone="no"?>
<svg
   id="b"
   viewBox="0 0 48 48"
   version="1.1"
   sodipodi:docname="emblem-favorite.svg"
   xmlns:inkscape="http://www.inkscape.org/namespaces/inkscape"
   xmlns:sodipodi="http://sodipodi.sourceforge.net/DTD/sodipodi-0.dtd"
   xmlns="http://www.w3.org/2000/svg"
   xmlns:svg="http://www.w3.org/2000/svg">
  <sodipodi:namedview
     id="namedview1"
     pagecolor="#ffffff"
     bordercolor="#666666"
     borderopacity="1.0"
     inkscape:showpageshadow="2"
     inkscape:pageopacity="0.0"
     inkscape:pagecheckerboard="0"
     inkscape:deskcolor="#d1d1d1" />
  <defs
     id="defs1">
    <style
       id="style1">.c{fill:none;stroke:#000;stroke-width:2px;stroke-linecap:round;stroke-linejoin:round;}</style>
  </defs>
  <path
     style="color:#000000;fill:#000000;stroke-linecap:round;stroke-linejoin:round;-inkscape-stroke:none"
     d="M 15.238281,5.8398437 C 9.0439463,5.8398438 4,10.881837 4,17.076172 c 0,1.418449 0.2759114,2.770739 0.7519531,4.013672 1.8104249,5.184586 6.4770359,10.311348 10.6777349,14.242187 4.206495,3.936264 7.988281,6.642578 7.988281,6.642578 a 1.0001,1.0001 0 0 0 1.164062,0 c 0,0 3.781799,-2.706315 7.988281,-6.642578 C 36.772504,31.399783 41.440927,26.270461 43.25,21.083984 43.724804,19.842599 44,18.492671 44,17.076172 44,10.881825 38.956054,5.8398437 32.761719,5.8398437 29.178862,5.8398437 26.05593,7.5840372 24,10.203125 21.94403,7.584059 18.821138,5.8398438 15.238281,5.8398437 Z m 0,2 c 3.365313,0 6.288245,1.7979695 7.90625,4.4804693 a 1.0001,1.0001 0 0 0 1.710938,0 C 26.473362,9.6378496 29.396406,7.8398437 32.761719,7.8398437 37.875173,7.8398438 42,11.96273 42,17.076172 c 0,1.163704 -0.222919,2.272334 -0.619141,3.304687 a 1.0001,1.0001 0 0 0 -0.01172,0.0293 C 39.789011,24.955058 35.307034,30.030814 31.203125,33.871094 27.406076,37.424225 24.492602,39.50594 24,39.863281 23.507395,39.50594 20.593934,37.424224 16.796875,33.871094 12.692954,30.030815 8.2109387,24.955049 6.6308594,20.410156 a 1.0001,1.0001 0 0 0 -0.00977,-0.0293 C 6.2248697,19.34841 6,18.239928 6,17.076172 6,11.962718 10.124827,7.8398438 15.238281,7.8398437 Z"
     id="path1" />
</svg>
