<?xml version="1.0" encoding="UTF-8"?>
<svg id="b" version="1.1" viewBox="0 0 48 48" xmlns="http://www.w3.org/2000/svg">
 <defs id="defs1">
  <style id="style1">.c{fill:none;stroke:#000;stroke-width:2px;stroke-linecap:round;stroke-linejoin:round;}</style>
 </defs>
 <path id="path1" d="m15.238 5.8398c-6.1943 1e-7 -11.238 5.042-11.238 11.236 0 1.4184 0.27591 2.7707 0.75195 4.0137 1.8104 5.1846 6.477 10.311 10.678 14.242 4.2065 3.9363 7.9883 6.6426 7.9883 6.6426a1.0001 1.0001 0 0 0 1.1641 0s3.7818-2.7063 7.9883-6.6426c4.2022-3.9322 8.8706-9.0616 10.68-14.248 0.4748-1.2414 0.75-2.5913 0.75-4.0078 0-6.1943-5.0439-11.236-11.238-11.236-3.5829 0-6.7058 1.7442-8.7617 4.3633-2.056-2.6191-5.1789-4.3633-8.7617-4.3633zm0 2c3.3653 0 6.2882 1.798 7.9062 4.4805a1.0001 1.0001 0 0 0 1.7109 0c1.6179-2.6825 4.5409-4.4805 7.9062-4.4805 5.1135 1e-7 9.2383 4.1229 9.2383 9.2363 0 1.1637-0.22292 2.2723-0.61914 3.3047a1.0001 1.0001 0 0 0-0.01172 0.0293c-1.5801 4.5449-6.0621 9.6207-10.166 13.461-3.797 3.5531-6.7105 5.6348-7.2031 5.9922-0.4926-0.35734-3.4061-2.4391-7.2031-5.9922-4.1039-3.8403-8.5859-8.916-10.166-13.461a1.0001 1.0001 0 0 0-0.00977-0.0293c-0.39622-1.0324-0.62109-2.1409-0.62109-3.3047 0-5.1135 4.1248-9.2363 9.2383-9.2363z" color="#000000" stroke-linecap="round" stroke-linejoin="round" style="-inkscape-stroke:none"/>
</svg>
