<?xml version="1.0" encoding="UTF-8"?>
<svg id="svg10" version="1.1" viewBox="0 0 48 48" xmlns="http://www.w3.org/2000/svg">
 <defs id="defs4">
  <style id="style2">.a{fill:none;stroke:#000;stroke-linecap:round;stroke-linejoin:round;}</style>
 </defs>
 <path id="path6" d="m7.5 4.5c-1.645 0-3 1.355-3 3v33c0 1.645 1.355 3 3 3h33c1.645 0 3-1.355 3-3v-33c0-1.645-1.355-3-3-3zm0 2h33c0.56413 0 1 0.43587 1 1v33c0 0.56413-0.43587 1-1 1h-33c-0.56413 0-1-0.43587-1-1v-33c0-0.56413 0.43587-1 1-1z" color="#000000" stroke-linecap="round" stroke-linejoin="round" style="-inkscape-stroke:none"/>
 <path id="path8" d="m16.699 11.1c-2.4077 0-4.2921 1.4939-5.0801 3.3965-0.78797 1.9026-0.5109 4.2899 1.1914 5.9922s4.0916 1.9813 5.9941 1.1934c1.9026-0.78797 3.3945-2.6744 3.3945-5.082a1.0001 1.0001 0 0 0 0-0.0098c-0.03286-3.0067-2.4816-5.4574-5.4883-5.4902a1.0001 1.0001 0 0 0-0.01172 0zm-0.0039 2.002c1.9355 0.02452 3.4764 1.5667 3.502 3.502-0.0019 1.5991-0.9298 2.7217-2.1582 3.2305-1.2297 0.50927-2.6821 0.37262-3.8145-0.75976-1.1324-1.1324-1.2671-2.5848-0.75781-3.8145 0.50876-1.2284 1.6294-2.1563 3.2285-2.1582zm11.922 6.7676c-0.41497-0.0415-0.84432 0.06213-1.2012 0.31836a1.0001 1.0001 0 0 0-0.12305 0.10547l-6.9922 6.9922-1.1934-1.1914 0.03906 0.04102c-0.65295-0.73204-1.8392-0.73204-2.4922 0l0.03906-0.04102-7.7598 7.7598c-0.72969 0.65086-0.72892 1.8301-0.00391 2.4844 0.31569 0.28769 0.72516 0.45505 1.1523 0.46289a1.0001 1.0001 0 0 0 0.01758 0h27.801l-0.0293-2e-3c0.92935 0.02776 1.6935-0.74605 1.7051-1.668 0.01982-0.34964-0.05078-0.70118-0.24805-0.99219a1.0001 1.0001 0 0 0-0.0078-0.01172l-9.5-13.6a1.0001 1.0001 0 0 0-0.08789-0.10742c-0.29905-0.32182-0.70026-0.50928-1.1152-0.55078zm-0.20703 2.1348 8.9395 12.797h-26.537l7.0879-7.0859 1.1934 1.1914-0.03906-0.04102c0.65295 0.73204 1.8392 0.73204 2.4922 0z" color="#000000" stroke-linecap="round" stroke-linejoin="round" style="-inkscape-stroke:none"/>
</svg>
