<?xml version="1.0" encoding="UTF-8"?>
<svg id="a" version="1.1" viewBox="0 0 48 48" xmlns="http://www.w3.org/2000/svg">
 <defs id="defs1">
  <style id="style1">.d{fill:none;stroke:#000;stroke-width:2px;stroke-linecap:round;stroke-linejoin:round;}</style>
 </defs>
 <path id="b" d="m16.699 11.1c-3.0333 0-5.5 2.4667-5.5 5.5 0 3.0333 2.4667 5.5 5.5 5.5 3.0333 0 5.5-2.4667 5.5-5.5 0-3.06-2.5444-5.5-5.5-5.5zm0 2c1.8444 0 3.5 1.56 3.5 3.5 0 1.9667-1.5333 3.5-3.5 3.5-1.9667 0-3.5-1.5333-3.5-3.5 0-1.9667 1.5333-3.5 3.5-3.5zm11.904 6.7656c-0.41119-0.02741-0.79486 0.0605-1.1582 0.30274a1.0001 1.0001 0 0 0-0.15234 0.125l-6.9922 6.9922-1.1934-1.1914c-0.30714-0.30714-0.74632-0.51953-1.207-0.51953-0.46071 0-0.8999 0.2124-1.207 0.51953l-7.8008 7.7988c-0.30713 0.30714-0.51758 0.74632-0.51758 1.207 0 0.46071 0.21044 0.8999 0.51758 1.207 0.3357 0.3357 0.6737 0.49414 1.207 0.49414h27.801c0.9 0 1.6992-0.80117 1.6992-1.7012 0-0.1 0.17883-0.53602-0.39258-1.1074l0.11328 0.13477-9.4883-13.582c-0.31335-0.47002-0.81732-0.65228-1.2285-0.67969zm-0.19336 2.1387 8.9395 12.797h-26.537l7.0879-7.0859 1.1934 1.1914c0.30714 0.30714 0.74632 0.51953 1.207 0.51953s0.8999-0.2124 1.207-0.51953z" color="#000000" stroke-linecap="round" stroke-linejoin="round" style="-inkscape-stroke:none"/>
 <path id="path1" d="m9 4.5c-2.7455 0-5 2.2545-5 5v29c0 2.7455 2.2545 5 5 5h29c2.7455 0 5-2.2545 5-5v-29c0-2.7455-2.2545-5-5-5zm0 2h29c1.6545 0 3 1.3455 3 3v29c0 1.6545-1.3455 3-3 3h-29c-1.6545 0-3-1.3455-3-3v-29c0-1.6545 1.3455-3 3-3z" color="#000000" stroke-linecap="round" stroke-linejoin="round" style="-inkscape-stroke:none"/>
</svg>
