<?xml version="1.0" encoding="UTF-8"?><svg xmlns="http://www.w3.org/2000/svg" viewBox="0 0 48 48"><defs><style>.c{fill:none;stroke:#000;stroke-linecap:round;stroke-linejoin:round;}</style></defs><g id="a"><path class="c" d="m39.5,15.5h-9c-1.1046,0-2-.8954-2-2V4.5H10.5c-1.1046,0-2,.8954-2,2v35c0,1.1046.8954,2,2,2h27c1.1046,0,2-.8954,2-2V15.5Z"/><line class="c" x1="28.5" y1="4.5" x2="39.5" y2="15.5"/></g><g id="b"><line class="c" x1="28.3088" y1="23.5" x2="33.6088" y2="31.5"/><line class="c" x1="33.6088" y1="23.5" x2="28.3088" y2="31.5"/><line class="c" x1="14.3912" y1="23.5" x2="19.6912" y2="23.5"/><line class="c" x1="17.0412" y1="31.5" x2="17.0412" y2="23.5"/><line class="c" x1="22" y1="31.5" x2="24.608" y2="31.5"/><polyline class="c" points="26 35.5 22 35.5 22 27.5 26 27.5"/></g></svg>