<?xml version="1.0" encoding="UTF-8"?><svg id="a" xmlns="http://www.w3.org/2000/svg" viewBox="0 0 48 48"><defs><style>.d{fill:none;stroke:#000;stroke-linecap:round;stroke-linejoin:round;}</style></defs><path class="d" d="m5.5 9.5c0-2.216 1.784-4 4-4h21c6.648 0 12 5.352 12 12v21c0 2.216-1.784 4-4 4h-21c-6.648 0-12-5.352-12-12z"/><path class="d" d="m5.5 24s4.2747 9.3338 13.111 9.3338c10.552 0 10.849-10.797 5.3889-9.3338s-5.1636-9.3338 5.3889-9.3338c8.8364 0 13.111 9.3338 13.111 9.3338"/><path class="d" d="m24 5.5s-9.3338 4.2747-9.3338 13.111c0 10.552 10.797 10.849 9.3338 5.3889s9.3338-5.1636 9.3338 5.3889c0 8.8364-9.3338 13.111-9.3338 13.111"/></svg>
