<?xml version="1.0" encoding="UTF-8"?><svg viewBox="0 0 48 48" xmlns="http://www.w3.org/2000/svg"><defs><style>.b{fill:none;stroke:#000;stroke-linecap:round;stroke-linejoin:round;}</style></defs><path class="b" d="m 30.034406,31.29193 1.693298,-0.357393 9.614142,10.359842 c 0.208856,0.226885 0.214438,0.560666 0.01248,0.745821 l -1.462298,1.340573 c -0.100999,0.09259 -0.234705,0.13042 -0.369211,0.116757 C 39.388249,43.48386 39.252852,43.4187 39.14844,43.305243 L 29.534296,32.945464 Z"/><path d="m 21.744579,29.716862 1.815272,-2.430195 -0.974671,-2.871852 c -0.06042,-0.178529 -0.01454,-0.376455 0.119261,-0.509803 0.133803,-0.133644 0.332215,-0.179153 0.51029,-0.119119 l 2.874595,0.973742 2.432514,-1.81354 c 0.151552,-0.112999 0.353861,-0.130139 0.522242,-0.04457 0.168382,0.08584 0.273372,0.259565 0.271142,0.448432 l -0.03877,3.031994 2.478423,1.751218 c 0.15414,0.109138 0.233291,0.296073 0.203587,0.482356 -0.02938,0.186609 -0.162555,0.339978 -0.34286,0.396149 l -2.898857,0.899835 -0.900693,2.896092 c -0.05623,0.180163 -0.209711,0.313153 -0.396528,0.342532 -0.02584,0.0042 -0.05174,0.0061 -0.07757,0.0061 -0.15964,0 -0.311193,-0.07473 -0.405271,-0.207491 l -1.752889,-2.47395 -3.03489,0.04286 c -0.0022,0 -0.0045,0 -0.0065,0 -0.18649,0 -0.35743,-0.108751 -0.442408,-0.275013 -0.08567,-0.168191 -0.06856,-0.374435 0.04454,-0.525843 z" class="b"/><path class="b" d="M 9.5415142,8.5003829 C 7.848238,8.5429972 6.4999995,9.920846 6.4999995,11.624591 v 23.743994 c 0,1.730796 1.3935545,3.124217 3.1245095,3.124217 h 21.71534 L 28.464323,35.368585 H 12.749017 c -1.730949,0 -3.124508,-1.393419 -3.124508,-3.124206 v -17.49558 h 28.745485 v 17.49558 c 0,0.597366 -0.165448,1.151993 -0.454031,1.625565 l 3.021989,3.280419 c 0.350714,-0.505126 0.556552,-1.117621 0.556552,-1.781778 V 11.624591 c 0,-1.7307882 -1.393554,-3.1242081 -3.12451,-3.1242081 H 9.624509 c -0.027046,0 -0.056118,-6.783e-4 -0.082995,0 z M 36.788213,10.077133 a 1.5622549,1.5621054 0 0 1 1.562255,1.5621 1.5622549,1.5621054 0 0 1 -1.562255,1.562108 1.5622549,1.5621054 0 0 1 -1.562255,-1.562108 1.5622549,1.5621054 0 0 1 1.562255,-1.5621 z"/></svg>
