<?xml version="1.0" encoding="UTF-8"?><svg viewBox="0 0 48 48" xmlns="http://www.w3.org/2000/svg"><defs><style>.b{fill:none;stroke:#000;stroke-linecap:round;stroke-linejoin:round;}</style></defs><path class="b" d="m 23.997742,10.51758 a 8.2506029,8.2506029 0 0 0 -8.246767,8.246766 c 0,0.115072 0,0.23398 0,0.34905 l 4.138727,1.515104 a 2.3014234,2.3014234 0 0 1 0.974269,-0.536999 2.3014234,2.3014234 0 0 1 0.690427,-0.08055 3.0685646,3.0685646 0 0 1 0.322199,0.03835 v 0 l 2.504716,-3.540355 a 2.9266434,2.9266434 0 0 1 2.167174,-2.834588 2.880615,2.880615 0 0 1 0.866869,-0.09589 2.9228078,2.9228078 0 0 1 0.644399,5.753558 v 0 a 2.8614364,2.8614364 0 0 1 -0.767141,0.09589 v 0 l -3.536522,2.500881 v 0 a 2.3244377,2.3244377 0 0 1 -4.529967,1.012627 v 0 a 2.163338,2.163338 0 0 1 -0.05753,-0.314529 L 16.24195,21.549066 a 8.2429316,8.2429316 0 1 0 7.755795,-11.031489 z m 3.425286,3.068563 a 2.880615,2.880615 0 0 0 -0.86687,0.09589 2.9266434,2.9266434 0 0 0 -2.067445,3.578715 v 0 a 2.9234522,2.9234522 0 0 0 5.646159,-1.51894 v 0 A 2.9113007,2.9113007 0 0 0 27.423028,13.57847 Z m -5.94918,6.424808 a 2.3206019,2.3206019 0 0 0 -2.320601,2.301424 v 0 a 2.3206019,2.3206019 0 0 0 2.320601,2.301423 v 0 a 2.3206019,2.3206019 0 0 0 2.324438,-2.301423 v 0 a 2.3206019,2.3206019 0 0 0 -2.320601,-2.324438 z"/><path class="b" d="m 36.464835,27.93431 5.661868,10.966777 c 0,0 0.852515,2.686902 -2.516913,1.642155 -1.984163,-0.615223 -2.96714,-0.751505 -2.96714,-0.751505 0,0 -1.434739,-0.366036 -2.036077,1.475757 -0.538688,1.649904 -0.898445,2.858811 -0.898445,2.858811 0,0 -1.07364,2.677039 -2.330285,0.145273 -0.945681,-1.905266 -4.861775,-10.113423 -4.861775,-10.113423"/><path class="b" d="M 11.466439,27.90962 5.8971584,39.197761 c 0,0 -0.852515,2.686902 2.516913,1.642155 1.9841626,-0.615223 2.9671396,-0.751505 2.9671396,-0.751505 0,0 1.434739,-0.366036 2.036077,1.475757 0.538688,1.649904 0.898445,2.858811 0.898445,2.858811 0,0 1.07364,2.677039 2.330285,0.145273 0.945681,-1.905266 4.809095,-10.3988 4.809095,-10.3988"/><ellipse class="b" cx="23.997938" cy="18.751966" rx="15.379983" ry="15.57311"/></svg>
