<?xml version="1.0" encoding="UTF-8"?><svg id="a" xmlns="http://www.w3.org/2000/svg" viewBox="0 0 48 48"><defs><style>.b{fill:none;stroke:#000;stroke-linecap:round;stroke-linejoin:round;}</style></defs><rect class="b" x="4.5" y="9" width="39" height="26" rx="2" ry="2"/><line class="b" x1="17.5" y1="39" x2="30.5" y2="39"/><line class="b" x1="24" y1="35" x2="24" y2="39"/><path class="b" d="m18.2644,20.7846h11.4712c.4351,0,.7877.3527.7877.7877v7.6399c0,.4351-.3527.7877-.7877.7877h-11.4712c-.4351,0-.7878-.3527-.7878-.7878v-7.6399c0-.4351.3527-.7877.7877-.7877h0Z"/><path class="b" d="m19.6825,17.3006c.0074-2.3825,1.9447-4.3079,4.3272-4.3006,2.3721.0073,4.2933,1.9285,4.3006,4.3006v3.484"/></svg>