<?xml version="1.0" encoding="UTF-8"?><svg id="a" xmlns="http://www.w3.org/2000/svg" viewBox="0 0 48 48"><defs><style>.d{fill:none;stroke:#000;stroke-linecap:round;stroke-linejoin:round;}</style></defs><path class="d" d="m22.175 33.093v1.6123c0 1.5037 4.0623 4.1799 5.2346 4.1799.72174 0 2.5389-1.0144 3.8291-2.1451"/><path class="d" d="m26.551 33.008c1.4876-.85887 1.8986-3.8675 1.8986-4.5362"/><path class="d" d="m23.901 30.945c1.8684-1.0407 2.465-3.4694 2.465-3.4694"/><path class="d" d="m30.014 30.174c.28692-1.0708.28503-3.4962.28502-4.323 2.532 2.532 2.7954 7.2944 1.7551 8.3348"/><path class="d" d="m26.9 36.16h1.019"/><path class="d" d="m18.188 32.317c2.6064-.69839 2.416-5.1439 4.4458-6.3158"/><path class="d" d="m9.1316 41.329c-1.8553-5.1521 7.9578.9127 10.739-3.3275"/><path class="d" d="m16.83 35.64c-1.1538.63934-2.5618 3.9344-5.2622 3.5375"/><path class="d" d="m7.75 37.913c.98836-1.7119 2.5365-1.7967 3.013-1.7967"/><path class="d" d="m7.1945 32.36c1.6991.98097 7.8112 2.5841 8.6787-.65328"/><path class="d" d="m25.226 37.952s1.0494 1.8244-2.3824 2.7439"/><path class="d" d="m30.409 40.056c.37224.23482.8798.45526 1.5671.63942"/><path class="d" d="m34.065 37.876c-.70404 2.6275-4.0831.8761-5.9984 4.1936"/><path class="d" d="m34.863 32.879c-.68528.80902-.30692 1.9016-.04539 2.8776"/><path class="d" d="m35.41 30.528c.0844.40311.44545.79241.70334.86151"/><path class="d" d="m18.157 29.264c0-7.3289 3.0929-10.767 9.2531-10.767s9.2531 3.4381 9.2531 10.767"/><path class="d" d="m34.804 39.917c3.4808-2.0096 3.458-5.088 1.9619-6.5842"/><path class="d" d="m13.883 23.532c-1.5668-.41982-7.1321-.13891-8.3814.19584.83034 3.0989 7.4902 6.0576 7.4902 6.0576 1.146-.30707 2.2908-.45157 3.0916-1.7537"/><path class="d" d="m16.39 24.727c-10.82-4.5145-9.4537-14.799-7.9097-14.799 1.7784-2e-4 7.063 4.3362 7.284 5.1608 2.0451-.54797 2.3494-.47026 2.85.39682 4.0332 0 5.1043-1.058 7.486 3.0673"/><path class="d" d="m27.41 18.497c2.0549-3.5592 6.2972-5.0646 6.2972-5.0646 1.1903-2.0616 2.108-5.9269 1.6872-7.4962 4.5614 4.5564 2.931 16.778 1.0852 20.469"/><path class="d" d="m16.698 10.195c5.4999 1.2254 9.0983 2.6455 9.993 6.3295"/><path class="d" d="m37.672 22.58c2.4709.66207 6.5542 4.56 4.0382 5.2342-2.516.67417-.06766 4.1821.30616 4.3979-3.4051-1.9659-5.5364-5.8077-5.5364-5.8077"/><path class="d" d="m20.474 35.976c-.13385-.49955-.97103-1.3021-1.6121-1.1303"/></svg>
