<?xml version="1.0" encoding="UTF-8" standalone="no"?>
<svg
   viewBox="0 0 48 48"
   version="1.1"
   id="svg7"
   sodipodi:docname="auth-sim.svg"
   xmlns:inkscape="http://www.inkscape.org/namespaces/inkscape"
   xmlns:sodipodi="http://sodipodi.sourceforge.net/DTD/sodipodi-0.dtd"
   xmlns="http://www.w3.org/2000/svg"
   xmlns:svg="http://www.w3.org/2000/svg">
  <sodipodi:namedview
     id="namedview7"
     pagecolor="#ffffff"
     bordercolor="#666666"
     borderopacity="1.0"
     inkscape:showpageshadow="2"
     inkscape:pageopacity="0.0"
     inkscape:pagecheckerboard="0"
     inkscape:deskcolor="#d1d1d1" />
  <defs
     id="defs1">
    <style
       id="style1">.a{fill:#fff;}.b{fill:none;stroke:#fff;stroke-width:2px;stroke-linecap:round;stroke-linejoin:round;}</style>
  </defs>
  <path
     class="a"
     d="M24.05,4l0,0V4h0Z"
     id="path1" />
  <path
     style="color:#000000;fill:#ffffff;stroke-linecap:round;stroke-linejoin:round;-inkscape-stroke:none"
     d="m 23.986328,3.5 c -0.705812,0.010054 -1.382588,0.2910674 -1.886719,0.7851562 a 1.0001,1.0001 0 0 0 -0.0059,0.00781 L 8.2226563,18.162109 a 1.0001,1.0001 0 0 0 -0.00977,0.0098 c -0.5101997,0.524278 -0.7948567,1.229386 -0.7929687,1.960937 v 21.396485 c -5.054e-4,1.617041 1.3092459,2.959574 2.9257811,3 a 1.0001,1.0001 0 0 0 0.02344,0 h 27.300781 c 1.645008,0 3,-1.354992 3,-3 V 20.390625 l -0.01172,0.15625 c 0.04639,-0.292564 0.04639,-0.590248 0,-0.882813 l 0.01172,0.15625 V 6.4492187 a 1.0001,1.0001 0 0 0 0,-0.023437 C 40.629496,4.8092459 39.286963,3.4994946 37.669922,3.5 H 24 a 1.0001,1.0001 0 0 0 -0.01367,0 z m 0.02734,2 h 13.65625 c 0.553626,-1.73e-4 0.986159,0.4211566 1,0.9746094 V 19.820312 a 1.0001,1.0001 0 0 0 0.01172,0.15625 c 0.01349,0.08508 0.01349,0.172736 0,0.257813 a 1.0001,1.0001 0 0 0 -0.01172,0.15625 v 21.138672 c 0,0.564129 -0.435871,1 -1,1 H 10.390625 C 9.8395257,42.513093 9.4197493,42.083281 9.4199219,41.53125 a 1.0001,1.0001 0 0 0 0,-0.002 V 20.130859 a 1.0001,1.0001 0 0 0 0,-0.0039 c -5.406e-4,-0.209475 0.08047,-0.40847 0.2265625,-0.558594 L 23.5,5.7148437 C 23.637789,5.5797995 23.82076,5.502748 24.013672,5.5 Z"
     id="path2" />
  <path
     style="color:#000000;fill:#ffffff;stroke-linecap:round;stroke-linejoin:round;-inkscape-stroke:none"
     d="m 15.839844,21.779297 a 1,1 0 0 0 -1,1 1,1 0 0 0 1,1 h 4.060547 a 1,1 0 0 0 1,-1 1,1 0 0 0 -1,-1 z"
     id="line2" />
  <path
     style="color:#000000;fill:#ffffff;stroke-linecap:round;stroke-linejoin:round;-inkscape-stroke:none"
     d="m 23.769531,21.779297 a 1,1 0 0 0 -1,1 1,1 0 0 0 1,1 h 8.419922 a 1,1 0 0 0 1,-1 1,1 0 0 0 -1,-1 z"
     id="line3" />
  <path
     style="color:#000000;fill:#ffffff;stroke-linecap:round;stroke-linejoin:round;-inkscape-stroke:none"
     d="m 15.839844,34.910156 a 1,1 0 0 0 -1,1 1,1 0 0 0 1,1 h 4.060547 a 1,1 0 0 0 1,-1 1,1 0 0 0 -1,-1 z"
     id="line4" />
  <path
     style="color:#000000;fill:#ffffff;stroke-linecap:round;stroke-linejoin:round;-inkscape-stroke:none"
     d="m 23.769531,34.910156 a 1,1 0 0 0 -1,1 1,1 0 0 0 1,1 h 8.419922 a 1,1 0 0 0 1,-1 1,1 0 0 0 -1,-1 z"
     id="line5" />
  <path
     style="color:#000000;fill:#ffffff;stroke-linecap:round;stroke-linejoin:round;-inkscape-stroke:none"
     d="m 28.130859,28.339844 a 1,1 0 0 0 -1,1 1,1 0 0 0 1,1 h 4.058594 a 1,1 0 0 0 1,-1 1,1 0 0 0 -1,-1 z"
     id="line6" />
  <path
     style="color:#000000;fill:#ffffff;stroke-linecap:round;stroke-linejoin:round;-inkscape-stroke:none"
     d="m 15.839844,28.339844 a 1,1 0 0 0 -1,1 1,1 0 0 0 1,1 H 24.25 a 1,1 0 0 0 1,-1 1,1 0 0 0 -1,-1 z"
     id="line7" />
</svg>
