<?xml version="1.0" encoding="UTF-8" standalone="no"?>
<svg
   viewBox="0 0 48 48"
   version="1.1"
   id="svg2"
   sodipodi:docname="battery.svg"
   xmlns:inkscape="http://www.inkscape.org/namespaces/inkscape"
   xmlns:sodipodi="http://sodipodi.sourceforge.net/DTD/sodipodi-0.dtd"
   xmlns="http://www.w3.org/2000/svg"
   xmlns:svg="http://www.w3.org/2000/svg">
  <sodipodi:namedview
     id="namedview2"
     pagecolor="#ffffff"
     bordercolor="#666666"
     borderopacity="1.0"
     inkscape:showpageshadow="2"
     inkscape:pageopacity="0.0"
     inkscape:pagecheckerboard="0"
     inkscape:deskcolor="#d1d1d1" />
  <defs
     id="defs1">
    <style
       id="style1">.a{fill:none;stroke:#fff;stroke-width:2px;stroke-linecap:round;stroke-linejoin:round;}</style>
  </defs>
  <path
     style="color:#000000;fill:#ffffff;stroke-linecap:round;stroke-linejoin:round;-inkscape-stroke:none"
     d="m 20.5,3.5 c -1.092724,0 -2,0.9072762 -2,2 v 2 h -3.310547 c -1.645008,0 -3,1.354992 -3,3 v 31 c 0,1.645008 1.354992,3 3,3 h 17.611328 c 1.645008,0 3,-1.354992 3,-3 v -31 c 0,-1.645008 -1.354992,-3 -3,-3 h -3.630859 v -2 c 0,-1.0927238 -0.907276,-2 -2,-2 z m 0,2 h 6.669922 v 3 a 1.0001,1.0001 0 0 0 1,1 h 4.630859 c 0.564129,0 1,0.4358712 1,1 v 31 c 0,0.564129 -0.435871,1 -1,1 H 15.189453 c -0.564129,0 -1,-0.435871 -1,-1 v -31 c 0,-0.5641288 0.435871,-1 1,-1 H 19.5 a 1.0001,1.0001 0 0 0 1,-1 z"
     id="path1" />
  <path
     style="color:#000000;fill:#ffffff;stroke-linecap:round;stroke-linejoin:round;-inkscape-stroke:none"
     d="m 13.189453,35.5 a 1,1 0 0 0 -1,1 1,1 0 0 0 1,1 h 21.611328 a 1,1 0 0 0 1,-1 1,1 0 0 0 -1,-1 z"
     id="line1" />
  <path
     style="color:#000000;fill:#ffffff;stroke-linecap:round;stroke-linejoin:round;-inkscape-stroke:none"
     d="m 19.5,7.5 a 1,1 0 0 0 -1,1 1,1 0 0 0 1,1 h 8.669922 a 1,1 0 0 0 1,-1 1,1 0 0 0 -1,-1 z"
     id="line2" />
</svg>
