<?xml version="1.0" encoding="UTF-8" standalone="no"?>
<svg
   id="Layer_2"
   data-name="Layer 2"
   viewBox="0 0 48 48"
   version="1.1"
   sodipodi:docname="camera-photo.svg"
   xmlns:inkscape="http://www.inkscape.org/namespaces/inkscape"
   xmlns:sodipodi="http://sodipodi.sourceforge.net/DTD/sodipodi-0.dtd"
   xmlns="http://www.w3.org/2000/svg"
   xmlns:svg="http://www.w3.org/2000/svg">
  <sodipodi:namedview
     id="namedview1"
     pagecolor="#ffffff"
     bordercolor="#666666"
     borderopacity="1.0"
     inkscape:showpageshadow="2"
     inkscape:pageopacity="0.0"
     inkscape:pagecheckerboard="0"
     inkscape:deskcolor="#d1d1d1" />
  <defs
     id="defs1">
    <style
       id="style1">.cls-1{fill:none;stroke:#fff;stroke-width:2px;stroke-linecap:round;stroke-linejoin:round;}</style>
  </defs>
  <path
     style="color:#000000;fill:#ffffff;stroke-linecap:round;stroke-linejoin:round;-inkscape-stroke:none"
     d="M 19.830078,7.7695312 A 1.0001,1.0001 0 0 0 19.113281,8.0722656 L 16.638672,10.609375 H 6.2890625 C 4.7600342,10.609375 3.5,11.871362 3.5,13.400391 v 23.21875 c -2.36e-5,1.5287 1.2564798,2.792288 2.7851562,2.800781 a 1.0001,1.0001 0 0 0 0.00391,0 H 41.710937 a 1.0001,1.0001 0 0 0 0.0039,0 c 1.528676,-0.0085 2.78518,-1.272081 2.785156,-2.800781 v -23.21875 c 0,-1.529029 -1.260034,-2.791016 -2.789063,-2.791016 H 31.361328 L 28.886719,8.0722656 A 1.0001,1.0001 0 0 0 28.169922,7.7695312 Z m 0.421875,2.0000001 h 7.496094 l 2.476562,2.5390627 a 1.0001,1.0001 0 0 0 0.714844,0.300781 h 10.771484 c 0.44815,0 0.789063,0.342866 0.789063,0.791016 v 23.21875 c 7e-6,0.451738 -0.34319,0.798271 -0.794922,0.800781 H 6.2949219 C 5.8431902,37.417412 5.499993,37.070879 5.5,36.619141 v -23.21875 c 0,-0.44815 0.3409134,-0.791016 0.7890625,-0.791016 H 17.060547 a 1.0001,1.0001 0 0 0 0.714844,-0.300781 z m 18.507813,3.7402347 c -0.863333,0 -1.637015,0.358975 -2.126954,0.910156 -0.489938,0.551181 -0.71289,1.247466 -0.71289,1.929687 0,0.682222 0.222952,1.378507 0.71289,1.929688 0.489939,0.551181 1.263621,0.910156 2.126954,0.910156 0.863332,0 1.637014,-0.358975 2.126953,-0.910156 0.489939,-0.551181 0.71289,-1.247466 0.71289,-1.929688 0,-0.682221 -0.222951,-1.378506 -0.71289,-1.929687 -0.489939,-0.551181 -1.263621,-0.910156 -2.126953,-0.910156 z m 0,2 c 0.363332,0 0.509418,0.101416 0.632812,0.240234 0.123394,0.138818 0.207031,0.361832 0.207031,0.599609 0,0.237778 -0.08364,0.462745 -0.207031,0.601563 -0.123394,0.138818 -0.26948,0.238281 -0.632812,0.238281 -0.363333,0 -0.509419,-0.09946 -0.632813,-0.238281 -0.123394,-0.138818 -0.207031,-0.363785 -0.207031,-0.601563 0,-0.237777 0.08364,-0.460791 0.207031,-0.599609 0.123394,-0.138818 0.26948,-0.240234 0.632813,-0.240234 z M 24,16.710937 c -5.240378,0 -9.509766,4.269388 -9.509766,9.509766 0,4.194045 2.572934,7.419191 5.871094,8.785156 3.298161,1.365965 7.397959,0.902823 10.363281,-2.0625 2.965323,-2.965322 3.426512,-7.06512 2.060547,-10.363281 C 31.419191,19.281918 28.194045,16.710937 24,16.710937 Z m 0,2 c 3.388075,0 5.850232,2.009527 6.9375,4.634766 1.087268,2.625239 0.768443,5.788198 -1.626953,8.183594 -2.395396,2.395396 -5.560308,2.716174 -8.185547,1.628906 -2.625239,-1.087268 -4.634766,-3.549424 -4.634766,-6.9375 0,-4.159499 3.350267,-7.509765 7.509766,-7.509766 z"
     id="path1" />
</svg>
