<?xml version="1.0" encoding="UTF-8"?>
<svg id="Layer_2" data-name="Layer 2" version="1.1" viewBox="0 0 48 48" xmlns="http://www.w3.org/2000/svg">
 <defs id="defs4">
  <style id="style2">.cls-1{fill:none;stroke:#fff;stroke-width:2px;stroke-linecap:round;stroke-linejoin:round;}</style>
 </defs>
 <path id="path6" d="m19.83 7.7695a1.0001 1.0001 0 0 0-0.7168 0.30273l-2.4746 2.5371h-10.35c-1.529 0-2.7891 1.262-2.7891 2.791v23.219c-2.36e-5 1.5287 1.2565 2.7923 2.7852 2.8008a1.0001 1.0001 0 0 0 0.00391 0h35.422a1.0001 1.0001 0 0 0 0.0039 0c1.5287-0.0085 2.7852-1.2721 2.7852-2.8008v-23.219c0-1.529-1.26-2.791-2.7891-2.791h-10.35l-2.4746-2.5371a1.0001 1.0001 0 0 0-0.7168-0.30273zm0.42188 2h7.4961l2.4766 2.5391a1.0001 1.0001 0 0 0 0.71484 0.30078h10.771c0.44815 0 0.78906 0.34287 0.78906 0.79102v23.219c7e-6 0.45174-0.34319 0.79827-0.79492 0.80078h-35.41c-0.45173-0.00251-0.79493-0.34904-0.79492-0.80078v-23.219c0-0.44815 0.34091-0.79102 0.78906-0.79102h10.771a1.0001 1.0001 0 0 0 0.71484-0.30078zm18.508 3.7402c-0.86333 0-1.637 0.35898-2.127 0.91016-0.48994 0.55118-0.71289 1.2475-0.71289 1.9297 0 0.68222 0.22295 1.3785 0.71289 1.9297 0.48994 0.55118 1.2636 0.91016 2.127 0.91016 0.86333 0 1.637-0.35898 2.127-0.91016s0.71289-1.2475 0.71289-1.9297c0-0.68222-0.22295-1.3785-0.71289-1.9297s-1.2636-0.91016-2.127-0.91016zm0 2c0.36333 0 0.50942 0.10142 0.63281 0.24023s0.20703 0.36183 0.20703 0.59961c0 0.23778-0.08364 0.46274-0.20703 0.60156-0.12339 0.13882-0.26948 0.23828-0.63281 0.23828-0.36333 0-0.50942-0.09946-0.63281-0.23828-0.12339-0.13882-0.20703-0.36378-0.20703-0.60156 0-0.23778 0.08364-0.46079 0.20703-0.59961 0.12339-0.13882 0.26948-0.24023 0.63281-0.24023zm-14.76 1.2012c-5.2404 0-9.5098 4.2694-9.5098 9.5098 0 4.194 2.5729 7.4192 5.8711 8.7852 3.2982 1.366 7.398 0.90282 10.363-2.0625 2.9653-2.9653 3.4265-7.0651 2.0605-10.363-1.366-3.2982-4.5911-5.8691-8.7852-5.8691zm0 2c3.3881 0 5.8502 2.0095 6.9375 4.6348s0.76844 5.7882-1.627 8.1836-5.5603 2.7162-8.1855 1.6289-4.6348-3.5494-4.6348-6.9375c0-4.1595 3.3503-7.5098 7.5098-7.5098z" color="#000000" fill="#fff" stroke-linecap="round" stroke-linejoin="round" style="-inkscape-stroke:none"/>
</svg>
