<?xml version="1.0" encoding="UTF-8" standalone="no"?>
<svg
   id="b"
   viewBox="0 0 48 48"
   version="1.1"
   sodipodi:docname="camera-video.svg"
   xmlns:inkscape="http://www.inkscape.org/namespaces/inkscape"
   xmlns:sodipodi="http://sodipodi.sourceforge.net/DTD/sodipodi-0.dtd"
   xmlns="http://www.w3.org/2000/svg"
   xmlns:svg="http://www.w3.org/2000/svg">
  <sodipodi:namedview
     id="namedview1"
     pagecolor="#ffffff"
     bordercolor="#666666"
     borderopacity="1.0"
     inkscape:showpageshadow="2"
     inkscape:pageopacity="0.0"
     inkscape:pagecheckerboard="0"
     inkscape:deskcolor="#d1d1d1" />
  <defs
     id="defs1">
    <style
       id="style1">.d{fill:none;stroke:#fff;stroke-width:2px;stroke-linecap:round;stroke-linejoin:round;}</style>
  </defs>
  <path
     style="color:#000000;fill:#ffffff;stroke-linecap:round;stroke-linejoin:round;-inkscape-stroke:none"
     d="M 6.4394531,9.6972656 C 4.8279004,9.6972656 3.5,11.02774 3.5,12.638672 v 22.722656 0.0098 a 1.0001,1.0001 0 0 0 0,0.002 c 0.00346,1.608417 1.3312316,2.931932 2.9394531,2.929687 h 26.4941409 0.0098 a 1.0001,1.0001 0 0 0 0.002,0 c 1.609174,-0.0041 2.931951,-1.334212 2.927735,-2.943359 v -6.085938 l 6.90039,7.302735 A 1.0001,1.0001 0 0 0 44.5,35.888672 V 12.572266 a 1.0001,1.0001 0 0 0 -1,-1 1.0001,1.0001 0 0 0 -0.726563,0.3125 l -6.90039,7.300781 v -6.546875 c 0,-1.610932 -1.325947,-2.9414064 -2.9375,-2.9414064 z m 0,2.0000004 H 32.935547 c 0.536445,0 0.9375,0.40434 0.9375,0.941406 v 9.058594 a 1.0001,1.0001 0 0 0 1.726562,0.6875 L 42.5,15.085938 V 33.375 l -6.900391,-7.300781 a 1.0001,1.0001 0 0 0 -1.726562,0.6875 v 8.599609 a 1.0001,1.0001 0 0 0 0,0.0039 c 0.0014,0.528251 -0.40537,0.936166 -0.933594,0.9375 h -0.0059 -26.4941409 a 1.0001,1.0001 0 0 0 -0.00195,0 C 5.9098606,36.303821 5.502156,35.898455 5.5,35.371094 v -0.0098 -22.722656 c 0,-0.537066 0.403008,-0.941406 0.9394531,-0.941406 z"
     id="c" />
</svg>
