<?xml version="1.0" encoding="UTF-8" standalone="no"?>
<svg
   viewBox="0 0 48 48"
   version="1.1"
   id="svg2"
   sodipodi:docname="input-mouse.svg"
   xmlns:inkscape="http://www.inkscape.org/namespaces/inkscape"
   xmlns:sodipodi="http://sodipodi.sourceforge.net/DTD/sodipodi-0.dtd"
   xmlns="http://www.w3.org/2000/svg"
   xmlns:svg="http://www.w3.org/2000/svg">
  <sodipodi:namedview
     id="namedview2"
     pagecolor="#ffffff"
     bordercolor="#666666"
     borderopacity="1.0"
     inkscape:showpageshadow="2"
     inkscape:pageopacity="0.0"
     inkscape:pagecheckerboard="0"
     inkscape:deskcolor="#d1d1d1" />
  <defs
     id="defs1">
    <style
       id="style1">.a{fill:none;stroke:#fff;stroke-width:2px;stroke-linecap:round;stroke-linejoin:round;}</style>
  </defs>
  <path
     style="color:#000000;fill:#ffffff;stroke-linecap:round;stroke-linejoin:round;-inkscape-stroke:none"
     d="m 20.982422,8.578125 c -6.498235,0 -11.7597658,5.261531 -11.7597657,11.759766 v 13.357421 c 0,6.498235 5.2615307,11.759766 11.7597657,11.759766 6.498234,0 11.761719,-5.261531 11.761719,-11.759766 V 20.337891 c 0,-6.498235 -5.263485,-11.759766 -11.761719,-11.759766 z m 0,2 c 5.42483,0 9.761719,4.334935 9.761719,9.759766 v 13.357421 c 0,5.424831 -4.336889,9.759766 -9.761719,9.759766 -5.42483,0 -9.759766,-4.334935 -9.759766,-9.759766 V 20.337891 c 0,-5.424831 4.334936,-9.759766 9.759766,-9.759766 z"
     id="rect1"
     transform="translate(25.2496 -6.9243) rotate(45)" />
  <path
     style="color:#000000;fill:#ffffff;stroke-linecap:round;stroke-linejoin:round;-inkscape-stroke:none"
     d="m 25.609375,19.470703 c -1.60066,0 -2.919922,1.319262 -2.919922,2.919922 0,1.60066 1.319262,2.919922 2.919922,2.919922 1.60066,0 2.919922,-1.319262 2.919922,-2.919922 0,-1.60066 -1.319262,-2.919922 -2.919922,-2.919922 z m 0,2 c 0.51978,0 0.919922,0.400142 0.919922,0.919922 0,0.51978 -0.400142,0.919922 -0.919922,0.919922 -0.51978,0 -0.919922,-0.400142 -0.919922,-0.919922 0,-0.51978 0.400142,-0.919922 0.919922,-0.919922 z"
     id="circle1" />
  <path
     style="color:#000000;fill:#ffffff;stroke-linecap:round;stroke-linejoin:round;-inkscape-stroke:none"
     d="m 33.082031,8.3691406 a 1,1 0 0 0 -0.539062,0.5429688 1,1 0 0 0 0.541015,1.3066406 c 2.141738,0.884909 3.840268,2.588398 4.714844,4.734375 a 1,1 0 0 0 1.302734,0.548828 1,1 0 0 0 0.548829,-1.302734 C 38.574204,11.558542 36.483115,9.4580418 33.847656,8.3691406 a 1,1 0 0 0 -0.765625,0 z"
     id="path1" />
  <path
     style="color:#000000;fill:#ffffff;stroke-linecap:round;stroke-linejoin:round;-inkscape-stroke:none"
     d="m 35.410156,4.5761719 a 1,1 0 0 0 -1.30664,0.5410156 1,1 0 0 0 0.542968,1.3066406 c 3.13936,1.2971827 5.632505,3.7903279 6.929688,6.9296879 a 1,1 0 0 0 1.30664,0.542968 1,1 0 0 0 0.541016,-1.30664 C 41.92392,8.9598621 39.040138,6.0760796 35.410156,4.5761719 Z"
     id="path2" />
</svg>
