<?xml version="1.0" encoding="UTF-8"?>
<svg id="b" version="1.1" viewBox="0 0 48 48" xmlns="http://www.w3.org/2000/svg">
 <defs id="defs1">
  <style id="style1">.c{fill:none;stroke:#000;stroke-width:2px;stroke-linecap:round;stroke-linejoin:round;}</style>
 </defs>
 <path id="path1" d="m24 1.5c-12.415 0-22.5 10.085-22.5 22.5 0 1.658 0.21965 3.2572 0.5625 4.8125a1 1 0 0 0 0.00391 0.09375 1 1 0 0 0 0.027344 0.0098c0.89716 3.9768 2.8075 7.5746 5.498 10.447a1.0001 1.0001 0 0 0 1.1523 0.22266l3.2168-1.502c1.4909-0.6952 2.1464-2.4954 1.4512-3.9863l-3.1699-6.7969c-0.6952-1.4909-2.4954-2.1464-3.9863-1.4512l-2.4648 1.1484c-0.14622-0.98452-0.29102-1.9716-0.29102-2.998 0-11.334 9.1663-20.5 20.5-20.5 11.334 0 20.5 9.1663 20.5 20.5 0 1.0265-0.14479 2.0135-0.29102 2.998l-2.4648-1.1484c-1.4909-0.69518-3.291-0.03963-3.9863 1.4512l-3.1699 6.7969c-0.69518 1.4909-0.03963 3.291 1.4512 3.9863l3.2168 1.502a1.0001 1.0001 0 0 0 1.1523-0.22266c2.686-2.8678 4.593-6.459 5.4922-10.428a1 1 0 0 0 0.0332-0.0293 1 1 0 0 0 0.0039-0.09375c0.34286-1.5553 0.56251-3.1545 0.56251-4.8125 0-12.415-10.085-22.5-22.5-22.5zm-16.133 26.123c0.23853 0.08682 0.4433 0.2678 0.5625 0.52344l3.1699 6.7969c0.23841 0.5113 0.02689 1.0897-0.48438 1.3281l-2.5 1.166c-2.0904-2.3891-3.609-5.2546-4.416-8.4219l2.9023-1.3535c0.25565-0.11921 0.52709-0.12588 0.76562-0.03906zm32.266 0c0.23853-0.08682 0.50996-0.08015 0.76562 0.03906l2.9023 1.3535c-0.80694 3.1675-2.3255 6.0326-4.416 8.4219l-2.5-1.166c-0.5114-0.23851-0.7228-0.8168-0.48438-1.3281l3.1699-6.7969c0.11925-0.2557 0.32398-0.43662 0.5625-0.52344z" stop-color="#000000" stroke-linecap="round" stroke-linejoin="round"/>
</svg>
