<?xml version="1.0" encoding="UTF-8" standalone="no"?>
<svg
   viewBox="0 0 48 48"
   version="1.1"
   id="svg3"
   sodipodi:docname="camera-web.svg"
   xmlns:inkscape="http://www.inkscape.org/namespaces/inkscape"
   xmlns:sodipodi="http://sodipodi.sourceforge.net/DTD/sodipodi-0.dtd"
   xmlns="http://www.w3.org/2000/svg"
   xmlns:svg="http://www.w3.org/2000/svg">
  <sodipodi:namedview
     id="namedview3"
     pagecolor="#ffffff"
     bordercolor="#666666"
     borderopacity="1.0"
     inkscape:showpageshadow="2"
     inkscape:pageopacity="0.0"
     inkscape:pagecheckerboard="0"
     inkscape:deskcolor="#d1d1d1" />
  <defs
     id="defs1">
    <style
       id="style1">.a{fill:none;stroke:#000;stroke-width:2px;stroke-linecap:round;stroke-linejoin:round;}</style>
  </defs>
  <path
     style="color:#000000;fill:#000000;stroke-linecap:round;stroke-linejoin:round;-inkscape-stroke:none"
     d="m 26.529297,15.548828 c -2.733322,-0.313073 -5.648324,0.51749 -7.914063,2.783203 -3.020985,3.020951 -3.491011,7.19698 -2.099609,10.556641 1.391402,3.359661 4.67647,5.978466 8.949219,5.978515 5.335067,-0.0058 9.679722,-4.350479 9.685547,-9.685546 0,-4.272749 -2.618871,-7.557778 -5.978516,-8.949219 -0.839911,-0.34786 -1.731471,-0.579236 -2.642578,-0.683594 z m -0.220703,1.976563 c 0.719762,0.08742 1.425975,0.276501 2.097656,0.554687 2.686726,1.112743 4.744141,3.634781 4.744141,7.101563 -0.0057,4.254132 -3.431415,7.679879 -7.685547,7.685546 -3.466781,-3.9e-5 -5.988851,-2.057402 -7.101563,-4.74414 -1.112711,-2.686739 -0.785041,-5.925925 1.666016,-8.376953 1.838292,-1.838271 4.120009,-2.482951 6.279297,-2.220703 z"
     id="path1" />
  <path
     style="color:#000000;fill:#000000;stroke-linecap:round;stroke-linejoin:round;-inkscape-stroke:none"
     d="M 24,3.5 C 15.926423,3.5 9.7891762,8.4171156 7.1679687,14.746094 4.5467613,21.075072 5.4089532,28.891375 11.117188,34.599609 c 5.708234,5.708235 13.52649,6.57238 19.855468,3.951172 C 37.301634,35.929574 42.21875,29.792327 42.21875,21.71875 42.218867,11.668696 34.050054,3.4998833 24,3.5 Z m 0,2 c 8.969159,-1.042e-4 16.218854,7.249591 16.21875,16.21875 0,7.267608 -4.355662,12.641864 -10.011719,14.984375 C 24.550974,39.045636 17.67151,38.323854 12.533203,33.185547 7.3948958,28.04724 6.6731144,21.167776 9.015625,15.511719 11.358136,9.8556618 16.732392,5.5 24,5.5 Z m 0.03125,7.21875 c -1.167401,0.134488 -2.309257,0.432668 -3.386719,0.878906 -4.309848,1.784954 -7.666015,5.981672 -7.666015,11.470703 a 1.0001,1.0001 0 0 0 0,0.002 c 0.0078,6.841968 5.574047,12.408119 12.416015,12.416016 a 1,1 0 0 0 0.002,0 c 5.489032,4.8e-5 9.685712,-3.356183 11.470703,-7.666016 C 38.652179,25.51048 38.05667,20.169985 34.175781,16.289062 31.265115,13.37837 27.533453,12.315286 24.03125,12.71875 Z m 0.220703,1.978516 c 2.928167,-0.352642 6.026543,0.522615 8.509766,3.005859 3.310963,3.310993 3.764103,7.716603 2.257812,11.353516 -1.50629,3.636912 -4.939985,6.429728 -9.623047,6.429687 -5.762715,-0.0067 -10.411368,-4.655253 -10.417968,-10.417969 0,-4.683061 2.794715,-8.116788 6.43164,-9.623046 0.909232,-0.376565 1.865742,-0.6305 2.841797,-0.748047 z"
     id="path2" />
  <path
     style="color:#000000;fill:#000000;stroke-linecap:round;stroke-linejoin:round;-inkscape-stroke:none"
     d="m 17.107422,36.671875 c -0.580321,0.179774 -1.078169,0.510475 -1.748047,0.955078 -0.669878,0.444603 -1.431577,0.997158 -2.1875,1.570313 -1.511846,1.14631 -2.940093,2.314886 -3.5800781,2.960937 a 1.0001,1.0001 0 0 0 0.125,1.515625 c 0.2651683,0.190859 0.6168451,0.423773 1.0488281,0.683594 a 1.0001,1.0001 0 0 0 0.753906,0.113281 c 4.298867,-1.061362 8.714812,-1.577398 13.142578,-1.537109 a 1.0001,1.0001 0 0 0 0.02344,0 c 4.112646,-0.05839 8.215693,0.401724 12.21289,1.371093 a 1.0001,1.0001 0 0 0 0.777344,-0.130859 c 0.262798,-0.168747 0.506347,-0.364481 0.726563,-0.585937 a 1.0001,1.0001 0 0 0 -0.01172,-1.421875 c -2.139991,-2.086933 -4.508927,-3.925475 -7.060547,-5.482422 a 1,1 0 0 0 -1.373047,0.332031 1,1 0 0 0 0.332031,1.375 c 1.638311,0.999664 3.067268,2.284938 4.533204,3.519531 -3.349256,-0.633662 -6.741608,-1.02423 -10.154297,-0.976562 -4.056527,-0.03604 -8.08879,0.454515 -12.050781,1.310547 0.623244,-0.518439 0.994888,-0.8717 1.761718,-1.453125 0.732613,-0.555482 1.472286,-1.089466 2.087891,-1.498047 0.615605,-0.408581 1.187793,-0.697112 1.232422,-0.710938 a 1,1 0 0 0 0.658203,-1.25 1,1 0 0 0 -1.25,-0.660156 z"
     id="path3" />
</svg>
