<?xml version="1.0" encoding="UTF-8"?>
<svg id="a" version="1.1" viewBox="0 0 48 48" xmlns="http://www.w3.org/2000/svg">
 <defs id="defs1">
  <style id="style1">.b{fill:none;stroke:#000;stroke-width:2px;stroke-linecap:round;stroke-linejoin:round;}</style>
 </defs>
 <path id="path1" d="m24 15.92c-5.2348 0-9.5 4.2652-9.5 9.5s4.2652 9.5 9.5 9.5 9.5-4.2652 9.5-9.5-4.2652-9.5-9.5-9.5zm0 2c4.154 0 7.5 3.346 7.5 7.5s-3.346 7.5-7.5 7.5-7.5-3.346-7.5-7.5 3.346-7.5 7.5-7.5z" stop-color="#000000" stroke-linecap="round" stroke-linejoin="round"/>
 <path id="path2" d="m19.094 7.0195a1.0001 1.0001 0 0 0-0.83789 0.45703l-2.2988 3.543h-7.457c-2.7496 0-5 2.2505-5 5v18.801c0 2.7495 2.2504 5 5 5h31c2.7496 0 5-2.2505 5-5v-18.801c0-2.7495-2.2504-5-5-5h-7.457l-2.2988-3.543a1.0001 1.0001 0 0 0-0.83789-0.45703zm0.54297 2h8.7246l2.2988 3.5449a1.0001 1.0001 0 0 0 0.83984 0.45508h8c1.6688 0 3 1.3313 3 3v18.801c0 1.6687-1.3312 3-3 3h-31c-1.6688 0-3-1.3313-3-3v-18.801c0-1.6687 1.3312-3 3-3h8a1.0001 1.0001 0 0 0 0.83984-0.45508z" stop-color="#000000" stroke-linecap="round" stroke-linejoin="round"/>
 <path id="circle2" d="m38.5 14.02c-1.645 0-3 1.355-3 3 0 1.645 1.355 3 3 3s3-1.355 3-3c0-1.645-1.355-3-3-3zm0 2c0.56413 0 1 0.43587 1 1 0 0.56413-0.43587 1-1 1s-1-0.43587-1-1c0-0.56413 0.43587-1 1-1z" stop-color="#000000" stroke-linecap="round" stroke-linejoin="round"/>
</svg>
