<?xml version="1.0" encoding="UTF-8"?>
<svg id="svg12" version="1.1" viewBox="0 0 48 48" xmlns="http://www.w3.org/2000/svg">
 <defs id="defs4">
  <style id="style2">.a{fill:none;stroke:#000;stroke-linecap:round;stroke-linejoin:round;}</style>
 </defs>
 <path id="path6" d="m26.529 15.549c-2.7333-0.31307-5.6483 0.51749-7.9141 2.7832-3.021 3.021-3.491 7.197-2.0996 10.557s4.6765 5.9785 8.9492 5.9785c5.3351-0.0058 9.6797-4.3505 9.6855-9.6855 0-4.2727-2.6189-7.5578-5.9785-8.9492-0.83991-0.34786-1.7315-0.57924-2.6426-0.68359zm-0.2207 1.9766c0.71976 0.08742 1.426 0.2765 2.0977 0.55469 2.6867 1.1127 4.7441 3.6348 4.7441 7.1016-0.0057 4.2541-3.4314 7.6799-7.6855 7.6855-3.4668-3.9e-5 -5.9889-2.0574-7.1016-4.7441-1.1127-2.6867-0.78504-5.9259 1.666-8.377 1.8383-1.8383 4.12-2.483 6.2793-2.2207z" color="#000000" stroke-linecap="round" stroke-linejoin="round" style="-inkscape-stroke:none"/>
 <path id="path8" d="m24 3.5c-8.0736 0-14.211 4.9171-16.832 11.246-2.6212 6.329-1.759 14.145 3.9492 19.854 5.7082 5.7082 13.526 6.5724 19.855 3.9512 6.329-2.6212 11.246-8.7585 11.246-16.832 1.17e-4 -10.05-8.1687-18.219-18.219-18.219zm0 2c8.9692-1.042e-4 16.219 7.2496 16.219 16.219 0 7.2676-4.3557 12.642-10.012 14.984s-12.536 1.6207-17.674-3.5176c-5.1383-5.1383-5.8601-12.018-3.5176-17.674 2.3425-5.6561 7.7168-10.012 14.984-10.012zm0.03125 7.2188c-1.1674 0.13449-2.3093 0.43267-3.3867 0.87891-4.3098 1.785-7.666 5.9817-7.666 11.471a1.0001 1.0001 0 0 0 0 2e-3c0.0078 6.842 5.574 12.408 12.416 12.416a1 1 0 0 0 2e-3 0c5.489 4.8e-5 9.6857-3.3562 11.471-7.666 1.7849-4.3099 1.1894-9.6504-2.6915-13.531-2.9107-2.9107-6.6423-3.9738-10.145-3.5703zm0.2207 1.9785c2.9282-0.35264 6.0265 0.52262 8.5098 3.0059 3.311 3.311 3.7641 7.7166 2.2578 11.354-1.5063 3.6369-4.94 6.4297-9.623 6.4297-5.7627-0.0067-10.411-4.6553-10.418-10.418 0-4.6831 2.7947-8.1168 6.4316-9.623 0.90923-0.37656 1.8657-0.6305 2.8418-0.74805z" color="#000000" stroke-linecap="round" stroke-linejoin="round" style="-inkscape-stroke:none"/>
 <path id="path10" d="m17.107 36.672c-0.58032 0.17977-1.0782 0.51048-1.748 0.95508s-1.4316 0.99716-2.1875 1.5703c-1.5118 1.1463-2.9401 2.3149-3.5801 2.9609a1.0001 1.0001 0 0 0 0.125 1.5156c0.26517 0.19086 0.61685 0.42377 1.0488 0.68359a1.0001 1.0001 0 0 0 0.75391 0.11328c4.2989-1.0614 8.7148-1.5774 13.143-1.5371a1.0001 1.0001 0 0 0 0.02344 0c4.1126-0.05839 8.2157 0.40172 12.213 1.3711a1.0001 1.0001 0 0 0 0.77734-0.13086c0.2628-0.16875 0.50635-0.36448 0.72656-0.58594a1.0001 1.0001 0 0 0-0.01172-1.4219c-2.14-2.0869-4.5089-3.9255-7.0605-5.4824a1 1 0 0 0-1.373 0.33203 1 1 0 0 0 0.33203 1.375c1.6383 0.99966 3.0673 2.2849 4.5332 3.5195-3.3493-0.63366-6.7416-1.0242-10.154-0.97656-4.0565-0.03604-8.0888 0.45452-12.051 1.3105 0.62324-0.51844 0.99489-0.8717 1.7617-1.4531 0.73261-0.55548 1.4723-1.0895 2.0879-1.498s1.1878-0.69711 1.2324-0.71094a1 1 0 0 0 0.6582-1.25 1 1 0 0 0-1.25-0.66016z" color="#000000" stroke-linecap="round" stroke-linejoin="round" style="-inkscape-stroke:none"/>
</svg>
