<?xml version="1.0" encoding="UTF-8"?>
<svg id="b" version="1.1" viewBox="0 0 48 48" xmlns="http://www.w3.org/2000/svg">
 <defs id="defs1">
  <style id="style1">.d{fill:none;stroke:#000;stroke-width:2px;stroke-linecap:round;stroke-linejoin:round;}</style>
 </defs>
 <path id="c" d="m6.4395 9.6973c-1.6116 0-2.9395 1.3305-2.9395 2.9414v22.732a1.0001 1.0001 0 0 0 0 2e-3c0.00346 1.6084 1.3312 2.9319 2.9395 2.9297h26.504a1.0001 1.0001 0 0 0 2e-3 0c1.6092-0.0041 2.932-1.3342 2.9277-2.9434v-6.0859l6.9004 7.3027a1.0001 1.0001 0 0 0 1.7265-0.68758v-23.316a1.0001 1.0001 0 0 0-1-1 1.0001 1.0001 0 0 0-0.72656 0.3125l-6.9004 7.3008v-6.5469c0-1.6109-1.3259-2.9414-2.9375-2.9414zm0 2h26.496c0.53645 0 0.9375 0.40434 0.9375 0.94141v9.0586a1.0001 1.0001 0 0 0 1.7266 0.6875l6.9004-7.2988v18.289l-6.9004-7.3008a1.0001 1.0001 0 0 0-1.7266 0.6875v8.5996a1.0001 1.0001 0 0 0 0 0.0039c0.0014 0.52825-0.40537 0.93617-0.93359 0.9375h-26.5a1.0001 1.0001 0 0 0-0.00195 0c-0.5276 0.001093-0.93531-0.40427-0.93746-0.93163v-22.732c0-0.53707 0.40301-0.94141 0.93945-0.94141z" stop-color="#000000" stroke-linecap="round" stroke-linejoin="round"/>
</svg>
