<?xml version="1.0" encoding="UTF-8"?>
<svg id="Layer_2" data-name="Layer 2" version="1.1" viewBox="0 0 48 48" xmlns="http://www.w3.org/2000/svg">
 <defs id="defs1">
  <style id="style1">.cls-1{fill:none;stroke:#000;stroke-width:2px;stroke-linecap:round;stroke-linejoin:round;}</style>
 </defs>
 <path id="path1" d="m8.1406 13.939a1.0001 1.0001 0 0 0-1 1v4.5312a1.0001 1.0001 0 0 0 1 1h4.5293a1.0001 1.0001 0 0 0 1-1v-4.5312a1.0001 1.0001 0 0 0-1-1zm6.7988 0a1.0001 1.0001 0 0 0-1 1v4.5312a1.0001 1.0001 0 0 0 1 1h4.5312a1.0001 1.0001 0 0 0 1-1v-4.5312a1.0001 1.0001 0 0 0-1-1zm6.791 0a1.0001 1.0001 0 0 0-1 1v4.5312a1.0001 1.0001 0 0 0 1 1h4.5391a1.0001 1.0001 0 0 0 1-1v-4.5312a1.0001 1.0001 0 0 0-1-1zm6.7988 0a1.0001 1.0001 0 0 0-1 1v4.5312a1.0001 1.0001 0 0 0 1 1h4.5312a1.0001 1.0001 0 0 0 1-1v-4.5312a1.0001 1.0001 0 0 0-1-1zm6.8008 0a1.0001 1.0001 0 0 0-1 1v4.5312a1.0001 1.0001 0 0 0 1 1h4.5293a1.0001 1.0001 0 0 0 1-1v-4.5312a1.0001 1.0001 0 0 0-1-1zm-26.189 2h2.5293v2.5312h-2.5293zm6.7988 0h2.5312v2.5312h-2.5312zm6.791 0h2.5391v2.5312h-2.5391zm6.7988 0h2.5312v2.5312h-2.5312zm6.8008 0h2.5293v2.5312h-2.5293zm-28.189 4.791a1.0001 1.0001 0 0 0-1 1v4.5391a1.0001 1.0001 0 0 0 1 1h4.5293a1.0001 1.0001 0 0 0 1-1v-4.5391a1.0001 1.0001 0 0 0-1-1zm6.7988 0a1.0001 1.0001 0 0 0-1 1v4.5391a1.0001 1.0001 0 0 0 1 1h4.5312a1.0001 1.0001 0 0 0 1-1v-4.5391a1.0001 1.0001 0 0 0-1-1zm6.791 0a1.0001 1.0001 0 0 0-1 1v4.5391a1.0001 1.0001 0 0 0 1 1h4.5391a1.0001 1.0001 0 0 0 1-1v-4.5391a1.0001 1.0001 0 0 0-1-1zm6.7988 0a1.0001 1.0001 0 0 0-1 1v4.5391a1.0001 1.0001 0 0 0 1 1h4.5312a1.0001 1.0001 0 0 0 1-1v-4.5391a1.0001 1.0001 0 0 0-1-1zm6.8008 0a1.0001 1.0001 0 0 0-1 1v4.5391a1.0001 1.0001 0 0 0 1 1h4.5293a1.0001 1.0001 0 0 0 1-1v-4.5391a1.0001 1.0001 0 0 0-1-1zm-26.189 2h2.5293v2.5391h-2.5293zm6.7988 0h2.5312v2.5391h-2.5312zm6.791 0h2.5391v2.5391h-2.5391zm6.7988 0h2.5312v2.5391h-2.5312zm6.8008 0h2.5293v2.5391h-2.5293zm-28.189 4.7988a1.0001 1.0001 0 0 0-1 1v4.5312a1.0001 1.0001 0 0 0 1 1h4.5293a1.0001 1.0001 0 0 0 1-1v-4.5312a1.0001 1.0001 0 0 0-1-1zm6.7988 0a1.0001 1.0001 0 0 0-1 1v4.5312a1.0001 1.0001 0 0 0 1 1h18.121a1.0001 1.0001 0 0 0 1-1v-4.5312a1.0001 1.0001 0 0 0-1-1zm20.391 0a1.0001 1.0001 0 0 0-1 1v4.5312a1.0001 1.0001 0 0 0 1 1h4.5293a1.0001 1.0001 0 0 0 1-1v-4.5312a1.0001 1.0001 0 0 0-1-1zm-26.189 2h2.5293v2.5312h-2.5293zm6.7988 0h16.121v2.5312h-16.121zm20.391 0h2.5293v2.5312h-2.5293z" color="#000000" stroke-linecap="round" stroke-linejoin="round" style="-inkscape-stroke:none"/>
 <path id="path2" d="m6.5 9.5c-1.645 0-3 1.355-3 3v23c0 1.645 1.355 3 3 3h35c1.645 0 3-1.355 3-3v-23c0-1.645-1.355-3-3-3zm0 2h35c0.56413 0 1 0.43587 1 1v23c0 0.56413-0.43587 1-1 1h-35c-0.56413 0-1-0.43587-1-1v-23c0-0.56413 0.43587-1 1-1z" color="#000000" stroke-linecap="round" stroke-linejoin="round" style="-inkscape-stroke:none"/>
</svg>
