<?xml version="1.0" encoding="UTF-8" standalone="no"?>
<svg
   id="Layer_2"
   data-name="Layer 2"
   viewBox="0 0 48 48"
   version="1.1"
   sodipodi:docname="input-keyboard.svg"
   xmlns:inkscape="http://www.inkscape.org/namespaces/inkscape"
   xmlns:sodipodi="http://sodipodi.sourceforge.net/DTD/sodipodi-0.dtd"
   xmlns="http://www.w3.org/2000/svg"
   xmlns:svg="http://www.w3.org/2000/svg">
  <sodipodi:namedview
     id="namedview2"
     pagecolor="#ffffff"
     bordercolor="#666666"
     borderopacity="1.0"
     inkscape:showpageshadow="2"
     inkscape:pageopacity="0.0"
     inkscape:pagecheckerboard="0"
     inkscape:deskcolor="#d1d1d1" />
  <defs
     id="defs1">
    <style
       id="style1">.cls-1{fill:none;stroke:#000;stroke-width:2px;stroke-linecap:round;stroke-linejoin:round;}</style>
  </defs>
  <path
     style="color:#000000;fill:#000000;stroke-linecap:round;stroke-linejoin:round;-inkscape-stroke:none"
     d="m 8.140625,13.939453 a 1.0001,1.0001 0 0 0 -1,1 v 4.53125 a 1.0001,1.0001 0 0 0 1,1 h 4.529297 a 1.0001,1.0001 0 0 0 1,-1 v -4.53125 a 1.0001,1.0001 0 0 0 -1,-1 z m 6.798828,0 a 1.0001,1.0001 0 0 0 -1,1 v 4.53125 a 1.0001,1.0001 0 0 0 1,1 h 4.53125 a 1.0001,1.0001 0 0 0 1,-1 v -4.53125 a 1.0001,1.0001 0 0 0 -1,-1 z m 6.791016,0 a 1.0001,1.0001 0 0 0 -1,1 v 4.53125 a 1.0001,1.0001 0 0 0 1,1 h 4.539062 a 1.0001,1.0001 0 0 0 1,-1 v -4.53125 a 1.0001,1.0001 0 0 0 -1,-1 z m 6.798828,0 a 1.0001,1.0001 0 0 0 -1,1 v 4.53125 a 1.0001,1.0001 0 0 0 1,1 h 4.53125 a 1.0001,1.0001 0 0 0 1,-1 v -4.53125 a 1.0001,1.0001 0 0 0 -1,-1 z m 6.800781,0 a 1.0001,1.0001 0 0 0 -1,1 v 4.53125 a 1.0001,1.0001 0 0 0 1,1 h 4.529297 a 1.0001,1.0001 0 0 0 1,-1 v -4.53125 a 1.0001,1.0001 0 0 0 -1,-1 z m -26.189453,2 h 2.529297 v 2.53125 H 9.140625 Z m 6.798828,0 h 2.53125 v 2.53125 h -2.53125 z m 6.791016,0 h 2.539062 v 2.53125 h -2.539062 z m 6.798828,0 h 2.53125 v 2.53125 h -2.53125 z m 6.800781,0 h 2.529297 v 2.53125 H 36.330078 Z M 8.140625,20.730469 a 1.0001,1.0001 0 0 0 -1,1 v 4.539062 a 1.0001,1.0001 0 0 0 1,1 h 4.529297 a 1.0001,1.0001 0 0 0 1,-1 v -4.539062 a 1.0001,1.0001 0 0 0 -1,-1 z m 6.798828,0 a 1.0001,1.0001 0 0 0 -1,1 v 4.539062 a 1.0001,1.0001 0 0 0 1,1 h 4.53125 a 1.0001,1.0001 0 0 0 1,-1 v -4.539062 a 1.0001,1.0001 0 0 0 -1,-1 z m 6.791016,0 a 1.0001,1.0001 0 0 0 -1,1 v 4.539062 a 1.0001,1.0001 0 0 0 1,1 h 4.539062 a 1.0001,1.0001 0 0 0 1,-1 v -4.539062 a 1.0001,1.0001 0 0 0 -1,-1 z m 6.798828,0 a 1.0001,1.0001 0 0 0 -1,1 v 4.539062 a 1.0001,1.0001 0 0 0 1,1 h 4.53125 a 1.0001,1.0001 0 0 0 1,-1 v -4.539062 a 1.0001,1.0001 0 0 0 -1,-1 z m 6.800781,0 a 1.0001,1.0001 0 0 0 -1,1 v 4.539062 a 1.0001,1.0001 0 0 0 1,1 h 4.529297 a 1.0001,1.0001 0 0 0 1,-1 v -4.539062 a 1.0001,1.0001 0 0 0 -1,-1 z m -26.189453,2 h 2.529297 v 2.539062 H 9.140625 Z m 6.798828,0 h 2.53125 v 2.539062 h -2.53125 z m 6.791016,0 h 2.539062 v 2.539062 h -2.539062 z m 6.798828,0 h 2.53125 v 2.539062 h -2.53125 z m 6.800781,0 h 2.529297 v 2.539062 H 36.330078 Z M 8.140625,27.529297 a 1.0001,1.0001 0 0 0 -1,1 v 4.53125 a 1.0001,1.0001 0 0 0 1,1 h 4.529297 a 1.0001,1.0001 0 0 0 1,-1 v -4.53125 a 1.0001,1.0001 0 0 0 -1,-1 z m 6.798828,0 a 1.0001,1.0001 0 0 0 -1,1 v 4.53125 a 1.0001,1.0001 0 0 0 1,1 h 18.121094 a 1.0001,1.0001 0 0 0 1,-1 v -4.53125 a 1.0001,1.0001 0 0 0 -1,-1 z m 20.390625,0 a 1.0001,1.0001 0 0 0 -1,1 v 4.53125 a 1.0001,1.0001 0 0 0 1,1 h 4.529297 a 1.0001,1.0001 0 0 0 1,-1 v -4.53125 a 1.0001,1.0001 0 0 0 -1,-1 z m -26.189453,2 h 2.529297 v 2.53125 H 9.140625 Z m 6.798828,0 h 16.121094 v 2.53125 H 15.939453 Z m 20.390625,0 h 2.529297 v 2.53125 h -2.529297 z"
     id="path1" />
  <path
     style="color:#000000;fill:#000000;stroke-linecap:round;stroke-linejoin:round;-inkscape-stroke:none"
     d="m 6.5,9.5 c -1.645008,0 -3,1.354992 -3,3 v 23 c 0,1.645008 1.354992,3 3,3 h 35 c 1.645008,0 3,-1.354992 3,-3 v -23 c 0,-1.645008 -1.354992,-3 -3,-3 z m 0,2 h 35 c 0.564129,0 1,0.435871 1,1 v 23 c 0,0.564129 -0.435871,1 -1,1 h -35 c -0.5641288,0 -1,-0.435871 -1,-1 v -23 c 0,-0.564129 0.4358712,-1 1,-1 z"
     id="path2" />
</svg>
