<?xml version="1.0" encoding="UTF-8"?>
<svg id="svg14" version="1.1" viewBox="0 0 48 48" xmlns="http://www.w3.org/2000/svg">
 <defs id="defs4">
  <style id="style2">.a{fill:none;stroke:#000;stroke-width:2px;stroke-linecap:round;stroke-linejoin:round;}</style>
 </defs>
 <path id="path6" d="m24.057 25.176c-2.6132-0.0071-5.2285 0.86992-7.3633 2.6328a1.0001 1.0001 0 0 0-0.36328 0.77148v0.03516a1 1 0 0 0 1 1 1 1 0 0 0 0.71289-0.30859c3.5341-2.8634 8.5839-2.8445 12.082 0.07617a1 1 0 0 0 1.4082-0.12695 1 1 0 0 0-0.12695-1.4082c-2.1252-1.7744-4.7364-2.6648-7.3496-2.6719z" color="#000000" stroke-linecap="round" stroke-linejoin="round" style="-inkscape-stroke:none"/>
 <path id="path8" d="m24.021 31.922c-2.2813-5.4e-5 -4.0732 1.4149-4.8203 3.2188s-0.48208 4.0726 1.1309 5.6855c1.6129 1.613 3.8817 1.8779 5.6855 1.1309 1.8039-0.74707 3.2188-2.539 3.2188-4.8203 0-2.869-2.3459-5.2148-5.2148-5.2148zm0 2c1.7881 4.2e-5 3.2148 1.4267 3.2148 3.2148 0 1.4753-0.85345 2.5043-1.9844 2.9727s-2.4628 0.34578-3.5059-0.69727c-1.043-1.043-1.1657-2.3749-0.69727-3.5059s1.4973-1.9844 2.9727-1.9844z" color="#000000" stroke-linecap="round" stroke-linejoin="round" style="-inkscape-stroke:none"/>
 <path id="path10" d="m24.021 15.602c-4.8958-1e-6 -9.7929 1.6516-13.795 4.9531a1 1 0 0 0-0.13477 1.4082 1 1 0 0 0 1.4082 0.13476c7.2748-6.0015 17.766-6.0015 25.041 0a1 1 0 0 0 1.4082-0.13476 1 1 0 0 0-0.13477-1.4082c-4.0021-3.3016-8.8972-4.9531-13.793-4.9531z" color="#000000" stroke-linecap="round" stroke-linejoin="round" style="-inkscape-stroke:none"/>
 <path id="path12" d="m24 5.6504c-7.1498 0-14.3 2.4176-20.139 7.2539a1 1 0 0 0-0.13086 1.4082 1 1 0 0 0 1.4082 0.13086c10.946-9.0677 26.776-9.0677 37.723 0a1 1 0 0 0 1.4082-0.13086 1 1 0 0 0-0.13086-1.4082c-5.8383-4.8363-12.989-7.2539-20.139-7.2539z" color="#000000" stroke-linecap="round" stroke-linejoin="round" style="-inkscape-stroke:none"/>
</svg>
