<?xml version="1.0" encoding="UTF-8" standalone="no"?>
<svg
   viewBox="0 0 48 48"
   version="1.1"
   id="svg2"
   sodipodi:docname="accessories-dictionary.svg"
   xmlns:inkscape="http://www.inkscape.org/namespaces/inkscape"
   xmlns:sodipodi="http://sodipodi.sourceforge.net/DTD/sodipodi-0.dtd"
   xmlns="http://www.w3.org/2000/svg"
   xmlns:svg="http://www.w3.org/2000/svg">
  <sodipodi:namedview
     id="namedview2"
     pagecolor="#ffffff"
     bordercolor="#666666"
     borderopacity="1.0"
     inkscape:showpageshadow="2"
     inkscape:pageopacity="0.0"
     inkscape:pagecheckerboard="0"
     inkscape:deskcolor="#d1d1d1" />
  <defs
     id="defs1">
    <style
       id="style1">.a{fill:none;stroke:#000;stroke-width:2px;stroke-linecap:round;stroke-linejoin:round;}</style>
  </defs>
  <path
     style="color:#000000;fill:#000000;stroke-linecap:round;stroke-linejoin:round;-inkscape-stroke:none"
     d="m 10.400391,3.5 c -1.6450083,0 -3.0000004,1.354992 -3.0000004,3 v 35 c 0,1.645008 1.3549921,3 3.0000004,3 h 2.330078 a 1,1 0 0 0 1,-1 1,1 0 0 0 -1,-1 h -2.330078 c -0.5641292,0 -1.0000004,-0.435871 -1.0000004,-1 v -35 c 0,-0.5641288 0.4358712,-1 1.0000004,-1 h 2.330078 a 1,1 0 0 0 1,-1 1,1 0 0 0 -1,-1 z"
     id="path1" />
  <path
     style="color:#000000;fill:#000000;stroke-linecap:round;stroke-linejoin:round;-inkscape-stroke:none"
     d="m 12.730469,3.5 a 1.0001,1.0001 0 0 0 -1,1 v 39 a 1.0001,1.0001 0 0 0 1,1 h 24.86914 c 1.645008,0 3,-1.354992 3,-3 v -35 c 0,-1.645008 -1.354992,-3 -3,-3 z m 1,2 h 23.86914 c 0.564129,0 1,0.4358712 1,1 v 35 c 0,0.564129 -0.435871,1 -1,1 h -23.86914 z"
     id="path2" />
  <path
     style="color:#000000;fill:#000000;stroke-linecap:round;stroke-linejoin:round;-inkscape-stroke:none"
     d="m 28.195312,15.341797 c -4.035625,0 -7.330078,3.2925 -7.330078,7.328125 0,4.035625 3.294453,7.330078 7.330078,7.330078 4.035626,0 7.328125,-3.294453 7.328125,-7.330078 0,-4.035625 -3.292499,-7.328125 -7.328125,-7.328125 z m 0,2 c 2.954747,0 5.328125,2.373379 5.328125,5.328125 0,2.954746 -2.373378,5.330078 -5.328125,5.330078 -2.954746,0 -5.330078,-2.375332 -5.330078,-5.330078 0,-2.954746 2.375332,-5.328125 5.330078,-5.328125 z"
     id="circle2" />
  <path
     style="color:#000000;fill:#000000;stroke-linecap:round;stroke-linejoin:round;-inkscape-stroke:none"
     d="m 23.015625,26.435547 -6.050781,6.050781 a 1,1 0 0 0 0,1.414063 1,1 0 0 0 1.414062,0 l 6.050781,-6.050782 a 1,1 0 0 0 0,-1.414062 1,1 0 0 0 -1.414062,0 z"
     id="line2" />
</svg>
