<?xml version="1.0" encoding="UTF-8"?>
<svg id="svg2" width="48" height="48" version="1.1" xmlns="http://www.w3.org/2000/svg">
 <defs id="defs1">
  <style id="style1">.b{fill:none;stroke:#000;stroke-width:2px;stroke-linecap:round;stroke-linejoin:round;}</style>
 </defs>
 <path id="path1" d="m22.1 32.023c-0.45291-8.7e-4 -0.90513 0.01154-1.3574 0.03516-1.2819 0.05788-2.5326 0.41175-3.6543 1.0352a1.0001 1.0001 0 0 0-0.02148 0.01367c-1.0553 0.62295-1.9785 1.4486-2.7129 2.4297-0.7283 0.97516-1.3415 2.0309-1.8281 3.1465-0.50234 1.1486-0.93717 2.3249-1.3047 3.5234a1 1 0 0 0 0.66211 1.25 1 1 0 0 0 1.25-0.66406c0.34508-1.1254 0.75294-2.2301 1.2246-3.3086a1.0001 1.0001 0 0 0 2e-3 0c0.42516-0.97479 0.96129-1.8979 1.5977-2.75 0.57343-0.76572 1.2923-1.4088 2.1152-1.8965 0.84838-0.46932 1.7931-0.73751 2.7617-0.78125a1.0001 1.0001 0 0 0 0.0059-2e-3c0.42586-0.02233 0.85286-0.0325 1.2793-0.03125a1.0001 1.0001 0 0 0 0.02344 0c0.71829-0.01548 1.4436 0.0447 2.1602 0.16602 0.61956 0.1067 1.2274 0.30647 1.8086 0.58008 0.60506 0.3005 1.1722 0.6709 1.6895 1.1055a1.0001 1.0001 0 0 0 0.0039 2e-3c0.63474 0.53024 1.2315 1.102 1.7891 1.7129a1.0001 1.0001 0 0 0 0.01367 0.01563c0.8361 0.88022 1.7449 1.6835 2.7207 2.3945a1.0001 1.0001 0 0 0 0.0039 2e-3c0.81584 0.58944 1.6527 1.1488 2.5078 1.6797a1.0001 1.0001 0 0 0 0.0059 0.0039c0.39626 0.24232 0.79192 0.50544 1.1895 0.77344a1.0001 1.0001 0 0 0 0.01758 0.01172c0.28012 0.18097 0.5392 0.40228 0.76953 0.6582l0.03711 0.04102a1 1 0 0 0 1.4121 0.07227 1 1 0 0 0 0.07227-1.4121l-0.03711-0.04102c-0.34543-0.38362-0.73845-0.71929-1.1699-0.99805l0.01758 0.0098c-0.40456-0.27273-0.82422-0.54987-1.2598-0.81641l-0.0059-0.0039c-0.81211-0.50439-1.6059-1.0379-2.3809-1.5977l-0.0039-2e-3c-0.87295-0.6364-1.6904-1.3595-2.4453-2.1543l0.01367 0.01563c-0.61775-0.67682-1.2814-1.311-1.9845-1.8985l-2e-3 -2e-3c-0.64045-0.53777-1.3425-0.99777-2.0918-1.3691a1.0001 1.0001 0 0 0-0.01758-0.0078c-0.73536-0.34762-1.5176-0.60549-2.334-0.74609a1.0001 1.0001 0 0 0-0.0039 0c-0.82693-0.14014-1.6761-0.21337-2.5332-0.19531z" stop-color="#000000" stroke-linecap="round" stroke-linejoin="round"/>
 <path id="path2" d="m23.553 4.6055a1 1 0 0 0-0.36523 0.41992 1 1 0 0 0-0.082031 0.027344l-18.5 37a1.0001 1.0001 0 0 0 0.89453 1.4473h6.6758a1 1 0 0 0 1-1 1 1 0 0 0-1-1h-5.0586l16.883-33.764 16.883 33.764h-3.2812a1 1 0 0 0-1 1 1 1 0 0 0 1 1h4.8984a1.0001 1.0001 0 0 0 0.89453-1.4473l-18.5-37a1 1 0 0 0-0.082031-0.027344 1 1 0 0 0-0.36523-0.41992 1 1 0 0 0-0.44727 0.14844 1 1 0 0 0-0.44727-0.14844zm-2.6797 27.447a1 1 0 0 0-1 1v6.7734a1 1 0 0 0 1 1 1 1 0 0 0 1-1v-6.7734a1 1 0 0 0-1-1zm4.166 0.27148a1 1 0 0 0-1 1v7.4043a1 1 0 0 0 1 1 1 1 0 0 0 1-1v-7.4043a1 1 0 0 0-1-1zm-8.332 1.2324a1 1 0 0 0-1 1v6.1719a1 1 0 0 0 1 1 1 1 0 0 0 1-1v-6.1719a1 1 0 0 0-1-1zm12.498 1.2207a1 1 0 0 0-1 1v5.8535a1 1 0 0 0 1 1 1 1 0 0 0 1-1v-5.8535a1 1 0 0 0-1-1zm4.1641 3.7363a1 1 0 0 0-1 1v2.9863a1 1 0 0 0 1 1 1 1 0 0 0 1-1v-2.9863a1 1 0 0 0-1-1z" stop-color="#000000" stroke-linecap="round" stroke-linejoin="round"/>
</svg>
