<?xml version="1.0" encoding="UTF-8"?>
<svg id="svg2" width="48" height="48" version="1.1" viewBox="0 0 48 48" xmlns="http://www.w3.org/2000/svg">
 <path id="path1" d="m22.102 32.023c-0.45049 2.58e-4 -0.90162 0.0099-1.3633 0.03516-1.2761 0.05701-2.5237 0.41208-3.6484 1.0352a1.0001 1.0001 0 0 0-0.02148 0.01172c-1.0429 0.6111-1.9677 1.4391-2.7129 2.4297a1.0001 1.0001 0 0 0-2e-3 2e-3c-0.72005 0.96397-1.3348 2.0165-1.8281 3.1465a1.0001 1.0001 0 0 0 0 2e-3c-0.49575 1.1398-0.93939 2.3164-1.3066 3.5234a1 1 0 0 0 0.66602 1.248 1 1 0 0 0 1.248-0.66602c0.34216-1.1245 0.75828-2.2298 1.2266-3.3066v-2e-3c0.43109-0.98716 0.96733-1.9045 1.5957-2.7461l2e-3 -2e-3c0.58623-0.7787 1.3113-1.4246 2.1133-1.8965 0.85679-0.47246 1.8001-0.74098 2.7617-0.7832a1.0001 1.0001 0 0 0 0.01172 0c0.42356-0.02332 0.84426-0.03125 1.2793-0.03125a1.0001 1.0001 0 0 0 0.01953 0c0.71903-0.01498 1.4452 0.04422 2.1621 0.16602 0.6189 0.10585 1.2265 0.30755 1.8086 0.58203 0.60478 0.3028 1.1716 0.66614 1.6875 1.1016a1.0001 1.0001 0 0 0 2e-3 0.0039c0.63434 0.53094 1.231 1.0985 1.791 1.7129a1.0001 1.0001 0 0 0 0.01367 0.01563c0.83591 0.87957 1.7465 1.6839 2.7227 2.3945a1.0001 1.0001 0 0 0 2e-3 2e-3c0.81434 0.58805 1.6532 1.1514 2.5078 1.6816a1.0001 1.0001 0 0 0 0.0059 0.0039c0.39603 0.24178 0.79249 0.50376 1.1895 0.77148a1.0001 1.0001 0 0 0 0.01758 0.01172c0.27991 0.18062 0.53904 0.40001 0.76953 0.65625a1.0001 1.0001 0 0 0 2e-3 2e-3l0.03711 0.04102a1 1 0 0 0 1.4121 0.07227 1 1 0 0 0 0.07031-1.4121l-0.03516-0.03906c-0.34506-0.38359-0.73812-0.72106-1.1699-1-0.40203-0.27102-0.81746-0.54647-1.25-0.81055l0.0059 2e-3c-0.81243-0.50401-1.6117-1.0386-2.3887-1.5996l-2e-3 -2e-3c-0.87285-0.63568-1.6898-1.3594-2.4453-2.1543l0.01367 0.01563c-0.62264-0.68308-1.2844-1.3145-1.9844-1.9004l2e-3 0.0039c-0.64843-0.54729-1.3533-1.0016-2.0938-1.3711a1.0001 1.0001 0 0 0-0.01953-0.0098c-0.73447-0.34745-1.5179-0.60621-2.3362-0.74616-0.82775-0.14063-1.6774-0.21274-2.5332-0.19531z" color="#000000" stroke-linecap="round" stroke-linejoin="round" style="-inkscape-stroke:none;isolation:isolate"/>
 <path id="path2" d="m23.684 4.5508a1 1 0 0 0-0.57812 0.50195l-18.5 37a1.0001 1.0001 0 0 0 0.89453 1.4473h6.6758a1 1 0 0 0 1-1 1 1 0 0 0-1-1h-5.0586l17.777-35.553a1 1 0 0 0-0.44726-1.3418 1 1 0 0 0-0.76367-0.054688z" color="#000000" stroke-linecap="round" stroke-linejoin="round" style="-inkscape-stroke:none"/>
 <path id="path3" d="m24.316 4.5508a1 1 0 0 0-0.76367 0.054687 1 1 0 0 0-0.44726 1.3418l17.777 35.553h-3.2812a1 1 0 0 0-1 1 1 1 0 0 0 1 1h4.8984a1.0001 1.0001 0 0 0 0.89453-1.4473l-18.5-37a1 1 0 0 0-0.57812-0.50195z" color="#000000" stroke-linecap="round" stroke-linejoin="round" style="-inkscape-stroke:none"/>
 <path id="path4" d="m16.707 33.557a1 1 0 0 0-1 1v6.1719a1 1 0 0 0 1 1 1 1 0 0 0 1-1v-6.1719a1 1 0 0 0-1-1z" color="#000000" stroke-linecap="round" stroke-linejoin="round" style="-inkscape-stroke:none"/>
 <path id="path5" d="m20.873 32.053a1 1 0 0 0-1 1v6.7734a1 1 0 0 0 1 1 1 1 0 0 0 1-1v-6.7734a1 1 0 0 0-1-1z" color="#000000" stroke-linecap="round" stroke-linejoin="round" style="-inkscape-stroke:none"/>
 <path id="path6" d="m25.039 32.324a1 1 0 0 0-1 1v7.4043a1 1 0 0 0 1 1 1 1 0 0 0 1-1v-7.4043a1 1 0 0 0-1-1z" color="#000000" stroke-linecap="round" stroke-linejoin="round" style="-inkscape-stroke:none"/>
 <path id="path7" d="m29.205 34.779a1 1 0 0 0-1 1v5.8516a1 1 0 0 0 1 1 1 1 0 0 0 1-1v-5.8516a1 1 0 0 0-1-1z" color="#000000" stroke-linecap="round" stroke-linejoin="round" style="-inkscape-stroke:none"/>
 <path id="path8" d="m33.371 38.514a1 1 0 0 0-1 1v2.9863a1 1 0 0 0 1 1 1 1 0 0 0 1-1v-2.9863a1 1 0 0 0-1-1z" color="#000000" stroke-linecap="round" stroke-linejoin="round" style="-inkscape-stroke:none"/>
</svg>
