<?xml version="1.0" encoding="UTF-8"?>
<svg id="svg6" version="1.1" viewBox="0 0 48 48" xmlns="http://www.w3.org/2000/svg">
 <defs id="defs1">
  <style id="style1">.a{fill:none;stroke:#000;stroke-width:2px;stroke-linecap:round;stroke-linejoin:round;}</style>
 </defs>
 <path id="path1" d="m7.5 5.5c-1.645 0-3 1.355-3 3v7.6699c0 1.645 1.355 3 3 3h10.5a1 1 0 0 0 1-1 1 1 0 0 0-1-1h-10.5c-0.56413 0-1-0.43587-1-1v-7.6699c0-0.56413 0.43587-1 1-1h10.5a1 1 0 0 0 1-1 1 1 0 0 0-1-1zm22.5 0a1 1 0 0 0-1 1 1 1 0 0 0 1 1h10.5c0.56413 0 1 0.43587 1 1v7.6699c0 0.56413-0.43587 1-1 1h-10.5a1 1 0 0 0-1 1 1 1 0 0 0 1 1h10.5c1.645 0 3-1.355 3-3v-7.6699c0-1.645-1.355-3-3-3z" stroke-linecap="round" stroke-linejoin="round"/>
 <path id="path2" d="m7.5 17.17c-1.645 0-3 1.355-3 3v7.6602c0 1.645 1.355 3 3 3h10.5a1 1 0 0 0 1-1 1 1 0 0 0-1-1h-10.5c-0.56413 0-1-0.43587-1-1v-7.6602c0-0.56413 0.43587-1 1-1h10.5a1 1 0 0 0 1-1 1 1 0 0 0-1-1zm22.5 0a1 1 0 0 0-1 1 1 1 0 0 0 1 1h10.5c0.56413 0 1 0.43587 1 1v7.6602c0 0.56413-0.43587 1-1 1h-10.5a1 1 0 0 0-1 1 1 1 0 0 0 1 1h10.5c1.645 0 3-1.355 3-3v-7.6602c0-1.645-1.355-3-3-3z" stroke-linecap="round" stroke-linejoin="round"/>
 <path id="path3" d="m7.5 28.83c-1.645 0-3 1.355-3 3v7.6699c0 1.645 1.355 3 3 3h10.5a1 1 0 0 0 1-1 1 1 0 0 0-1-1h-10.5c-0.56413 0-1-0.43587-1-1v-7.6699c0-0.56413 0.43587-1 1-1h10.5a1 1 0 0 0 1-1 1 1 0 0 0-1-1zm22.5 0a1 1 0 0 0-1 1 1 1 0 0 0 1 1h10.5c0.56413 0 1 0.43587 1 1v7.6699c0 0.56413-0.43587 1-1 1h-10.5a1 1 0 0 0-1 1 1 1 0 0 0 1 1h10.5c1.645 0 3-1.355 3-3v-7.6699c0-1.645-1.355-3-3-3z" stroke-linecap="round" stroke-linejoin="round"/>
 <path id="line3" d="m9.3691 7.8301a1 1 0 0 0-1 1v7a1 1 0 0 0 1 1 1 1 0 0 0 1-1v-7a1 1 0 0 0-1-1z" stroke-linecap="round" stroke-linejoin="round"/>
 <path id="line4" d="m9.3691 19.5a1 1 0 0 0-1 1v7a1 1 0 0 0 1 1 1 1 0 0 0 1-1v-7a1 1 0 0 0-1-1z" stroke-linecap="round" stroke-linejoin="round"/>
 <path id="line5" d="m9.3691 31.17a1 1 0 0 0-1 1v7a1 1 0 0 0 1 1 1 1 0 0 0 1-1v-7a1 1 0 0 0-1-1z" stroke-linecap="round" stroke-linejoin="round"/>
 <path id="rect5" d="m19 3.5c-1.0907 0-2 0.9093-2 2v37c0 1.0907 0.9093 2 2 2h10c1.0907 0 2-0.9093 2-2v-37c0-1.0907-0.9093-2-2-2zm0 2h10v37h-10z" stroke-linecap="round" stroke-linejoin="round"/>
 <path id="path5" d="m24 8.3301c-3.8541 0-7 3.1458-7 7a1 1 0 0 0 1 1 1 1 0 0 0 1-1c0-2.7733 2.2267-5 5-5s5 2.2267 5 5a1 1 0 0 0 1 1 1 1 0 0 0 1-1c0-3.8542-3.1459-7-7-7z" stroke-linecap="round" stroke-linejoin="round"/>
 <path id="rect6" d="m18 15.221a1.0001 1.0001 0 0 0-1 1v3.8789a1.0001 1.0001 0 0 0 1 1h12a1.0001 1.0001 0 0 0 1-1v-3.8789a1.0001 1.0001 0 0 0-1-1zm1 2h10v1.8789h-10z" stroke-linecap="round" stroke-linejoin="round"/>
</svg>
