<?xml version="1.0" encoding="UTF-8" standalone="no"?>
<svg
   id="Layer_2"
   data-name="Layer 2"
   viewBox="0 0 48 48"
   version="1.1"
   sodipodi:docname="bitwarden.svg"
   xmlns:inkscape="http://www.inkscape.org/namespaces/inkscape"
   xmlns:sodipodi="http://sodipodi.sourceforge.net/DTD/sodipodi-0.dtd"
   xmlns="http://www.w3.org/2000/svg"
   xmlns:svg="http://www.w3.org/2000/svg">
  <sodipodi:namedview
     id="namedview1"
     pagecolor="#ffffff"
     bordercolor="#666666"
     borderopacity="1.0"
     inkscape:showpageshadow="2"
     inkscape:pageopacity="0.0"
     inkscape:pagecheckerboard="0"
     inkscape:deskcolor="#d1d1d1" />
  <defs
     id="defs1">
    <style
       id="style1">.cls-1{fill:none;stroke:#000;stroke-width:2px;stroke-linecap:round;stroke-linejoin:round;}</style>
  </defs>
  <path
     style="color:#000000;fill:#000000;stroke-linecap:round;stroke-linejoin:round;-inkscape-stroke:none"
     d="M 9.3730469,3.5 C 7.9389641,3.5087181 6.7587181,4.6889641 6.75,6.1230469 a 1.0001,1.0001 0 0 0 0,0.00781 V 25.679687 a 1.0001,1.0001 0 0 0 0,0.0039 c 0.00484,1.607708 0.3196885,3.199591 0.9238281,4.689453 0.562128,1.421349 1.3087323,2.762623 2.2246094,3.986328 a 1.0001,1.0001 0 0 0 0.00781,0.0078 c 0.929245,1.214912 1.97049,2.34038 3.109375,3.361329 0.0017,0.0016 0.0042,0.0023 0.0059,0.0039 1.041618,0.977254 2.140391,1.894034 3.291016,2.740234 1.021136,0.760642 2.082878,1.429298 3.162109,2.060547 1.069921,0.625803 1.8339,1.049481 2.335938,1.294922 a 1.0001,1.0001 0 0 0 0.01172,0.0059 l 1.076171,0.507813 c 0.688894,0.329393 1.492544,0.328803 2.181641,0 6.17e-4,-2.94e-4 0.0013,2.95e-4 0.002,0 l 1.074219,-0.507813 a 1.0001,1.0001 0 0 0 0.07422,-0.03906 c 0.369856,-0.213695 1.177986,-0.594579 2.289062,-1.269531 1.090429,-0.66241 2.10799,-1.335509 3.119141,-2.033204 a 1.0001,1.0001 0 0 0 0.01563,-0.0098 c 1.153269,-0.829365 2.255868,-1.727331 3.302734,-2.6875 1.146132,-1.025349 2.192667,-2.155451 3.126953,-3.376953 a 1.0001,1.0001 0 0 0 0.0078,-0.0098 c 0.92286,-1.238405 1.673355,-2.596244 2.234375,-4.035156 0.61099,-1.506799 0.925971,-3.118156 0.923828,-4.744141 V 6.1308594 a 1.0001,1.0001 0 0 0 0,-0.00781 C 41.241282,4.6889641 40.061036,3.5087181 38.626953,3.5 a 1.0001,1.0001 0 0 0 -0.0078,0 H 9.3808594 a 1.0001,1.0001 0 0 0 -0.00781,0 z m 0.013672,2 H 38.613281 C 38.975103,5.5021996 39.2478,5.7748967 39.25,6.1367187 V 25.630859 c 0.0018,1.368587 -0.262677,2.724059 -0.777344,3.992188 a 1.0001,1.0001 0 0 0 -0.0039,0.01367 c -0.495721,1.273929 -1.162021,2.475937 -1.978516,3.572265 -8.72e-4,0.0012 -0.0011,0.0027 -0.002,0.0039 -0.856158,1.11807 -1.815693,2.152859 -2.865234,3.091796 a 1.0001,1.0001 0 0 0 -0.0098,0.0078 c -0.991087,0.909647 -2.034788,1.7595 -3.126953,2.544922 -0.983735,0.678475 -1.961653,1.3227 -3.005859,1.957031 -0.996086,0.605099 -1.654336,0.913428 -2.177735,1.210938 l -0.01367,0.0059 -1.066406,0.503906 a 1.0001,1.0001 0 0 0 -0.0039,0.002 c -0.145232,0.06944 -0.311799,0.06944 -0.457031,0 a 1.0001,1.0001 0 0 0 -0.0039,-0.002 l -1.068359,-0.503906 -0.0039,-0.002 -0.0078,-0.0039 c -0.399593,-0.195836 -1.148731,-0.607742 -2.193359,-1.21875 -1.040766,-0.60875 -2.037701,-1.240097 -2.976563,-1.939454 a 1.0001,1.0001 0 0 0 -0.0059,-0.002 c -1.090182,-0.801421 -2.130609,-1.667771 -3.117187,-2.59375 a 1.0001,1.0001 0 0 0 -0.01758,-0.01758 C 13.316959,35.314354 12.356584,34.279067 11.5,33.160156 l -0.002,-0.0039 c -0.0011,-0.0015 -0.0028,-0.0024 -0.0039,-0.0039 C 10.68604,32.0712 10.025203,30.888222 9.5292969,29.632812 a 1.0001,1.0001 0 0 0 -0.00195,-0.0098 C 9.0186865,28.369759 8.7543166,27.032245 8.75,25.679687 V 6.1367187 C 8.7521996,5.7748967 9.0248967,5.5021996 9.3867188,5.5 Z M 24,8.3691406 a 1.0001,1.0001 0 0 0 -1,1 V 38.240234 a 1.0001,1.0001 0 0 0 1.460937,0.886719 c 1.960313,-1.019086 3.822204,-2.21698 5.5625,-3.578125 l 0.002,-0.002 c 4.121124,-3.20132 6.384765,-6.495291 6.384765,-9.927734 a 1.0001,1.0001 0 0 0 -0.0293,-0.05664 V 9.3691406 a 1.0001,1.0001 0 0 0 -1,-1 z m 1,2.0000004 h 9.380859 v 15.261718 a 1.0001,1.0001 0 0 0 0.01953,0.04102 c -0.02336,2.526516 -1.752366,5.307768 -5.603516,8.298828 a 1.0001,1.0001 0 0 0 -0.0039,0.002 C 27.606017,34.901156 26.298591,35.651991 25,36.414062 Z"
     id="path1" />
</svg>
