<?xml version="1.0" encoding="UTF-8"?>
<svg id="Layer_2" data-name="Layer 2" version="1.1" viewBox="0 0 48 48" xmlns="http://www.w3.org/2000/svg">
 <defs id="defs4">
  <style id="style2">.cls-1{fill:none;stroke:#000;stroke-width:2px;stroke-linecap:round;stroke-linejoin:round;}</style>
 </defs>
 <path id="path6" d="m9.373 3.5c-1.4341 0.0087181-2.6143 1.189-2.623 2.623a1.0001 1.0001 0 0 0 0 0.00781v19.549a1.0001 1.0001 0 0 0 0 0.0039c0.00484 1.6077 0.31969 3.1996 0.92383 4.6895 0.56213 1.4213 1.3087 2.7626 2.2246 3.9863a1.0001 1.0001 0 0 0 0.00781 0.0078c0.92924 1.2149 1.9705 2.3404 3.1094 3.3613 0.0017 0.0016 0.0042 0.0023 0.0059 0.0039 1.0416 0.97725 2.1404 1.894 3.291 2.7402 1.0211 0.76064 2.0829 1.4293 3.1621 2.0605 1.0699 0.6258 1.8339 1.0495 2.3359 1.2949a1.0001 1.0001 0 0 0 0.01172 0.0059l1.0762 0.50781c0.68889 0.32939 1.4925 0.3288 2.1816 0 6.17e-4 -2.94e-4 0.0013 2.95e-4 2e-3 0l1.0742-0.50781a1.0001 1.0001 0 0 0 0.07422-0.03906c0.36986-0.2137 1.178-0.59458 2.2891-1.2695 1.0904-0.66241 2.108-1.3355 3.1191-2.0332a1.0001 1.0001 0 0 0 0.01563-0.0098c1.1533-0.82936 2.2559-1.7273 3.3027-2.6875 1.1461-1.0253 2.1927-2.1555 3.127-3.377a1.0001 1.0001 0 0 0 0.0078-0.0098c0.92286-1.2384 1.6734-2.5962 2.2344-4.0352 0.61099-1.5068 0.92597-3.1182 0.92383-4.7441v-19.498a1.0001 1.0001 0 0 0 0-0.00781c-0.0087975-1.4341-1.189-2.6143-2.6231-2.623a1.0001 1.0001 0 0 0-0.0078 0h-29.238a1.0001 1.0001 0 0 0-0.00781 0zm0.013672 2h29.227c0.36182 0.0021996 0.63452 0.2749 0.63672 0.63672v19.494c0.0018 1.3686-0.26268 2.7241-0.77734 3.9922a1.0001 1.0001 0 0 0-0.0039 0.01367c-0.49572 1.2739-1.162 2.4759-1.9785 3.5723-8.72e-4 0.0012-0.0011 0.0027-2e-3 0.0039-0.85616 1.1181-1.8157 2.1529-2.8652 3.0918a1.0001 1.0001 0 0 0-0.0098 0.0078c-0.99109 0.90965-2.0348 1.7595-3.127 2.5449-0.98374 0.67848-1.9617 1.3227-3.0059 1.957-0.99609 0.6051-1.6543 0.91343-2.1777 1.2109l-0.01367 0.0059-1.0664 0.50391a1.0001 1.0001 0 0 0-0.0039 2e-3c-0.14523 0.06944-0.3118 0.06944-0.45703 0a1.0001 1.0001 0 0 0-0.0039-2e-3l-1.0684-0.50391-0.0039-2e-3 -0.0078-0.0039c-0.39959-0.19584-1.1487-0.60774-2.1934-1.2188-1.0408-0.60875-2.0377-1.2401-2.9766-1.9395a1.0001 1.0001 0 0 0-0.0059-2e-3c-1.0902-0.80142-2.1306-1.6678-3.1172-2.5938a1.0001 1.0001 0 0 0-0.01758-0.01758c-1.0501-0.93948-2.0105-1.9748-2.8671-3.0937l-2e-3 -0.0039c-0.0011-0.0015-0.0028-0.0024-0.0039-0.0039-0.80806-1.0812-1.4689-2.2641-1.9648-3.5195a1.0001 1.0001 0 0 0-0.00195-0.0098c-0.50866-1.2533-0.77303-2.5908-0.77735-3.9433v-19.543c0.0021996-0.36182 0.2749-0.63452 0.63672-0.63672zm14.613 2.8691a1.0001 1.0001 0 0 0-1 1v28.871a1.0001 1.0001 0 0 0 1.4609 0.88672c1.9603-1.0191 3.8222-2.217 5.5625-3.5781l2e-3 -2e-3c4.1211-3.2013 6.3848-6.4953 6.3848-9.9277a1.0001 1.0001 0 0 0-0.0293-0.05664v-16.193a1.0001 1.0001 0 0 0-1-1zm1 2h9.3809v15.262a1.0001 1.0001 0 0 0 0.01953 0.04102c-0.02336 2.5265-1.7524 5.3078-5.6035 8.2988a1.0001 1.0001 0 0 0-0.0039 2e-3c-1.187 0.92845-2.4944 1.6793-3.793 2.4414z" color="#000000" stroke-linecap="round" stroke-linejoin="round" style="-inkscape-stroke:none"/>
</svg>
