<?xml version="1.0" encoding="UTF-8"?>
<svg id="a" version="1.1" viewBox="0 0 48 48" xmlns="http://www.w3.org/2000/svg">
 <defs id="defs1">
  <style id="style1">.b{fill:none;stroke:#000;stroke-width:2px;stroke-linecap:round;stroke-linejoin:round;}</style>
 </defs>
 <path id="path1" d="m30.408 20.994c-1.4856 0-2.8583 0.52158-3.8945 1.3984-1.0566 0.89318-1.781 2.186-1.8633 3.6543-0.0011 0.01918 0.0106 0.03554 0.0098 0.05469h-0.01172a1.0001 1.0001 0 0 0 0.01367 0.01367c-0.06009 1.4806 0.53616 2.8675 1.5586 3.8652 1.0588 1.0323 2.5478 1.6621 4.1875 1.6621 1.6397 0 3.129-0.63089 4.1875-1.6621 1.0379-1.0135 1.6545-2.4248 1.5723-3.9336a1.0001 1.0001 0 0 0 0-2e-3c-0.08316-1.4669-0.80754-2.7592-1.8633-3.6523-1.0368-0.87716-2.4112-1.3984-3.8965-1.3984zm0 2c1.0149 0 1.9369 0.36014 2.6055 0.92578 0.68066 0.57584 1.1082 1.3555 1.1582 2.2383l-2e-3 -2e-3c0.04949 0.90746-0.30514 1.7401-0.9707 2.3906-0.67909 0.66158-1.6631 1.0957-2.791 1.0957-1.1279 0-2.1134-0.43309-2.791-1.0938-0.66645-0.65035-1.0207-1.4838-0.9707-2.3906 0.04953-0.88394 0.47702-1.6625 1.1582-2.2383a1.0001 1.0001 0 0 0 0-2e-3c0.66763-0.56529 1.5872-0.92383 2.6035-0.92383z" color="#000000" stroke-linecap="round" stroke-linejoin="round" style="-inkscape-stroke:none"/>
 <path id="path2" d="m25.088 6.3145c-0.76664 0.00125-1.5394 0.23906-2.1973 0.69922-0.66461 0.46501-1.1197 1.1575-1.1895 1.9277-0.06976 0.7702 0.28746 1.5634 0.91992 2.082a1.0001 1.0001 0 0 0 2e-3 2e-3l3.1621 2.5762-13.496 0.01367c-1.7819 2e-3 -3.4739 1.0569-3.8691 2.7754-0.20275 0.87572 0.071673 1.7905 0.66016 2.3926 0.58848 0.6021 1.4378 0.91797 2.3633 0.91797a1.0001 1.0001 0 0 0 2e-3 0l5.2988-0.0078c-3.3111 2.5411-12.405 9.5198-12.439 9.5469-7.582e-4 5.81e-4 -0.0012 0.0014-0.00195 2e-3 -0.86457 0.66264-1.4571 1.5505-1.6935 2.5077-0.23638 0.95744-0.094245 2.0253 0.55078 2.8516 1.3105 1.6797 3.8505 1.5797 5.5957 0.16992a1.0001 1.0001 0 0 0 0.00586-0.0039l6.416-5.252c0.06884 0.63759 0.14418 1.3147 0.36328 2.0098 0.58189 1.8579 1.5698 3.577 2.9316 5.0801 1.3984 1.5458 3.1216 2.7863 5.0977 3.6621 2.0777 0.92004 4.3309 1.3886 6.6582 1.3848 2.3247-0.0031 4.5775-0.47955 6.6543-1.4062a1.0001 1.0001 0 0 0 2e-3 -2e-3c1.9751-0.88392 3.6962-2.1297 5.0918-3.6758 1.3612-1.5093 2.3487-3.2324 2.9316-5.0898 0.29285-0.93784 0.47806-1.8942 0.55273-2.8555 0.07278-0.94382 0.04184-1.8909-0.0918-2.834-0.26097-1.8364-0.89932-3.568-1.875-5.1348v-2e-3c-0.89297-1.4402-2.043-2.6974-3.4004-3.75a1.0001 1.0001 0 0 0-0.0039-2e-3s-12.722-9.7704-12.85-9.8672c-0.63326-0.48241-1.3899-0.71999-2.1523-0.71875zm-0.0059 2.0664c0.38103-2.004e-4 0.74623 0.084851 0.95117 0.24219a1.0001 1.0001 0 0 0 0.06836 0.048828c0.0123 0.0079 12.77 9.8145 12.77 9.8145 1.1787 0.91479 2.1619 1.9935 2.9238 3.2227a1.0001 1.0001 0 0 0 2e-3 2e-3c0.83459 1.3398 1.3718 2.7976 1.5938 4.3594 0.11356 0.80136 0.13779 1.5995 0.07617 2.3984-0.06273 0.80751-0.2192 1.6129-0.46875 2.4121h0.001947c-0.49603 1.5805-1.3325 3.0423-2.5098 4.3477-1.2058 1.3357-2.6911 2.4145-4.4219 3.1895-1.8196 0.8119-3.7885 1.2317-5.8418 1.2344-2.0579 0.0034-4.027-0.40754-5.8457-1.2129-1.731-0.76719-3.216-1.8406-4.4238-3.1758a1.0001 1.0001 0 0 0-2e-3 0c-1.1772-1.2993-2.0116-2.7589-2.5059-4.3379a1.0001 1.0001 0 0 0-2e-3 -2e-3c-0.22073-0.70021-0.38261-1.7602-0.38867-2.1055-0.0065-0.3669 0.09766-1.2715 0.09766-1.2715a1.0001 1.0001 0 0 0-1.623-0.9043l-8.0332 6.5723c-5.611e-4 4.53e-4 -0.00139-4.53e-4 -0.00195 0-1.0618 0.85657-2.2965 0.75258-2.7617 0.15625-0.22899-0.29295-0.30017-0.66844-0.1836-1.1406 0.11658-0.47219 0.44331-1.0015 0.9668-1.4023a1.0001 1.0001 0 0 0 0.011719-0.0078c0.0174-0.0137 14.771-11.338 14.771-11.338a1.0001 1.0001 0 0 0-0.60938-1.793l-8.25 0.01172c-0.47389 0-0.77907-0.16031-0.93164-0.31641-0.15257-0.1561-0.20302-0.28189-0.14258-0.54297a1.0001 1.0001 0 0 0 0-2e-3c0.1175-0.51216 1.0127-1.2236 1.9219-1.2246l16.303-0.01758a1.0001 1.0001 0 0 0 0.63086-1.7754l-5.3379-4.3476c-0.19543-0.16133-0.20274-0.24993-0.19336-0.35352 0.0094-0.10427 0.07406-0.28006 0.34375-0.46875 0.26638-0.18634 0.66389-0.27128 1.0449-0.27148zm5.1406 9.3008c-2.3634 0.0032-4.6386 0.78729-6.4336 2.25-0.91566 0.74802-1.6655 1.64-2.2129 2.6348-0.55642 1.0107-0.90799 2.1333-1.0078 3.3105-0.1052 1.2027 0.05428 2.4014 0.46289 3.5254 0.41674 1.1435 1.0915 2.2113 1.998 3.1309 1.8516 1.8824 4.4349 2.9305 7.1992 2.9258a1.0001 1.0001 0 0 0 2e-3 0c2.7582-0.0056 5.3356-1.0606 7.1855-2.9414 2.56e-4 -2.61e-4 -2.57e-4 -0.0017 0-2e-3 2e-3 -0.0021 0.0058-0.0018 0.0078-0.0039 0.90592-0.92282 1.5791-1.9918 1.9961-3.1367 0.40855-1.1243 0.56634-2.3209 0.46289-3.5215a1.0001 1.0001 0 0 0 0-2e-3c-0.10334-1.1771-0.45179-2.2988-1.0117-3.3105-0.54738-0.99258-1.2973-1.8825-2.2109-2.627a1.0001 1.0001 0 0 0-2e-3 0c-1.7968-1.4582-4.0705-2.2356-6.4355-2.2324zm2e-3 2c1.9261-0.0026 3.7483 0.62832 5.1738 1.7852 0.72478 0.59098 1.3046 1.2823 1.7227 2.041a1.0001 1.0001 0 0 0 0 2e-3c0.42788 0.7731 0.69067 1.6174 0.76953 2.5156 0.07875 0.91401-0.04111 1.8117-0.35156 2.666-0.31783 0.8727-0.83028 1.692-1.543 2.418-1.4611 1.4885-3.5147 2.3445-5.7695 2.3496-2.2597 0.0039-4.3129-0.84284-5.7734-2.3281a1.0001 1.0001 0 0 0 0-2e-3c-0.71189-0.72208-1.2265-1.5418-1.543-2.4102-0.31018-0.85322-0.42961-1.7533-0.34961-2.668a1.0001 1.0001 0 0 0 0-2e-3c0.07539-0.89162 0.3409-1.7426 0.76758-2.5176 0.41882-0.76108 0.99922-1.4566 1.7266-2.0508 1.4243-1.1598 3.2475-1.7962 5.1699-1.7988z" color="#000000" stroke-linecap="round" stroke-linejoin="round" style="-inkscape-stroke:none"/>
</svg>
