<?xml version="1.0" encoding="UTF-8"?>
<svg id="a" version="1.1" viewBox="0 0 48 48" xmlns="http://www.w3.org/2000/svg">
 <defs id="defs1">
  <style id="style1">.b{fill:none;stroke:#000;stroke-width:2px;stroke-linecap:round;stroke-linejoin:round;}</style>
 </defs>
 <path id="polyline1" d="m23.773 9.5762a1.0001 1.0001 0 0 0-0.61719 0.92383v11.08l-5.3867-5.3594a1 1 0 0 0-1.4141 0.0039 1 1 0 0 0 2e-3 1.4141l6.3945 6.3613-6.3945 6.3613a1 1 0 0 0-2e-3 1.4141 1 1 0 0 0 1.4141 0.0039l5.3868-5.3594v11.08a1.0001 1.0001 0 0 0 1.707 0.70703l6.7793-6.7676a1.0001 1.0001 0 0 0 0-1.416l-6.0547-6.0234 6.0547-6.0234a1.0001 1.0001 0 0 0 0-1.416l-6.7793-6.7676a1.0001 1.0001 0 0 0-1.0898-0.2168zm1.3828 3.334 4.3633 4.3555-4.3633 4.3418zm0 13.482 4.3633 4.3418-4.3633 4.3555z" stroke-linecap="round" stroke-linejoin="round"/>
 <path id="path1" d="m9.5 4.5c-2.7496 0-5 2.2504-5 5v29c0 2.7496 2.2504 5 5 5h29c2.7496 0 5-2.2504 5-5v-29c0-2.7496-2.2504-5-5-5zm0 2h29c1.6686 0 3 1.3314 3 3v29c0 1.6686-1.3314 3-3 3h-29c-1.6686 0-3-1.3314-3-3v-29c0-1.6686 1.3314-3 3-3z" stroke-linecap="round" stroke-linejoin="round"/>
</svg>
