<?xml version="1.0" encoding="UTF-8"?>
<svg id="svg2" version="1.1" viewBox="0 0 48 48" xmlns="http://www.w3.org/2000/svg">
 <defs id="defs1">
  <style id="style1">.a{fill:none;stroke:#000;stroke-width:2px;stroke-linecap:round;stroke-linejoin:round;}</style>
 </defs>
 <path id="path1" d="m7.5 4.5c-1.645 0-3 1.355-3 3v33c0 1.645 1.355 3 3 3h33c1.645 0 3-1.355 3-3v-33c0-1.645-1.355-3-3-3zm0 2h33c0.56413 0 1 0.43587 1 1v33c0 0.56413-0.43587 1-1 1h-33c-0.56413 0-1-0.43587-1-1v-33c0-0.56413 0.43587-1 1-1z" color="#000000" stroke-linecap="round" stroke-linejoin="round" style="-inkscape-stroke:none"/>
 <path id="path2" d="m24 19.385c-3.6112 3.89e-4 -6.5605 2.9493-6.5605 6.5605a1 1 0 0 0 1 1 1 1 0 0 0 1-1c0-2.5304 2.0302-4.5603 4.5605-4.5605 2.5306 4.5e-5 4.5605 2.03 4.5605 4.5605v3.6152c0 2.5306-2.03 4.5605-4.5605 4.5605-2.5304-2.73e-4 -4.5605-2.0302-4.5605-4.5605a1 1 0 0 0-1-1 1 1 0 0 0-1 1c0 3.6112 2.9493 6.5602 6.5605 6.5605 3.6114-6.5e-5 6.5605-2.9491 6.5605-6.5605v-3.6152c0-3.6114-2.9491-6.5605-6.5605-6.5605z" color="#000000" stroke-linecap="round" stroke-linejoin="round" style="-inkscape-stroke:none"/>
 <path id="line2" d="m18.439 11.879a1 1 0 0 0-1 1v22.242a1 1 0 0 0 1 1 1 1 0 0 0 1-1v-22.242a1 1 0 0 0-1-1z" color="#000000" stroke-linecap="round" stroke-linejoin="round" style="-inkscape-stroke:none"/>
</svg>
