<?xml version="1.0" encoding="UTF-8"?>
<svg id="svg6" version="1.1" viewBox="0 0 48 48" xmlns="http://www.w3.org/2000/svg">
 <defs id="defs1">
  <style id="style1">.a{fill:none;stroke:#000;stroke-width:2px;stroke-linecap:round;stroke-linejoin:round;}</style>
 </defs>
 <path id="path1" d="m10.4 3.5c-1.645 0-3 1.355-3 3v35c0 1.645 1.355 3 3 3h2.3301a1.0001 1.0001 0 0 0 1-1v-39a1.0001 1.0001 0 0 0-1-1zm0 2h1.3301v37h-1.3301c-0.56413 0-1-0.43587-1-1v-35c0-0.56413 0.43587-1 1-1z" stop-color="#000000" stroke-linecap="round" stroke-linejoin="round"/>
 <path id="path2" d="m12.73 3.5a1.0001 1.0001 0 0 0-1 1v39a1.0001 1.0001 0 0 0 1 1h24.871c1.645 0 3-1.355 3-3v-35c0-1.645-1.355-3-3-3zm1 2h23.871c0.56413 0 1 0.43587 1 1v35c0 0.56413-0.43587 1-1 1h-23.871z" stop-color="#000000" stroke-linecap="round" stroke-linejoin="round"/>
 <path id="path3" d="m22.002 23.795c-0.42667 0.07613-0.84254 0.27429-1.1777 0.60938-0.67038 0.67016-0.79792 1.6615-0.48242 2.4238 0.3155 0.7623 1.1067 1.3727 2.0547 1.373 1.2165 4.97e-4 2.2228-1.0081 2.2227-2.2246-8.56e-4 -0.94707-0.60943-1.7372-1.3711-2.0527-0.3811-0.15787-0.81942-0.20503-1.2461-0.12891zm0.48047 1.9766c0.08934 0.03701 0.13672 0.06499 0.13672 0.20703 1.1e-5 0.13529-0.08737 0.22271-0.22266 0.22266-0.14204-4.7e-5 -0.17005-0.04932-0.20703-0.13867-0.03698-0.08935-0.05157-0.14182 0.04883-0.24219 0.1004-0.10036 0.1548-0.08584 0.24414-0.04883z" stop-color="#000000" stroke-linecap="round" stroke-linejoin="round"/>
 <path id="path4" d="m29.121 23.795c-0.42671 0.07623-0.84259 0.2761-1.1777 0.61133-0.67028 0.67045-0.79632 1.6596-0.48047 2.4219 0.31586 0.76225 1.1066 1.3733 2.0547 1.373 1.216-2.98e-4 2.2227-1.0067 2.2227-2.2227 0-0.94809-0.61072-1.739-1.373-2.0547-0.38116-0.15784-0.81938-0.20513-1.2461-0.12891zm0.48047 1.9766c0.08936 0.037 0.13867 0.06495 0.13867 0.20703 0 0.13525-0.08936 0.22262-0.22461 0.22266-0.14208 3.5e-5 -0.16805-0.04932-0.20508-0.13867-0.03702-0.08935-0.05157-0.14177 0.04883-0.24219 0.1004-0.10042 0.15283-0.08583 0.24219-0.04883z" stop-color="#000000" stroke-linecap="round" stroke-linejoin="round"/>
 <path id="path5" d="m25.949 18.668c-5.3573-3.07e-4 -9.7206 4.3654-9.7207 9.7227-9.9e-5 1.228 1.0161 2.2441 2.2441 2.2441h14.953c1.228 0 2.2462-1.0161 2.2461-2.2441-6.1e-5 -5.3569-4.3658-9.7224-9.7227-9.7227zm0 2c4.276 1.96e-4 7.7226 3.4466 7.7227 7.7227 1.2e-5 0.14711-0.09898 0.24414-0.24609 0.24414h-14.953c-0.14711 0-0.24415-0.09703-0.24414-0.24414 4.9e-5 -4.2763 3.4444-7.7229 7.7207-7.7227z" stop-color="#000000" stroke-linecap="round" stroke-linejoin="round"/>
 <path id="line5" d="m17.771 17.604a1 1 0 0 0-0.11523 1.4082l2.4785 2.918a1 1 0 0 0 1.4082 0.11328 1 1 0 0 0 0.11523-1.4082l-2.4785-2.918a1 1 0 0 0-1.4082-0.11328z" stop-color="#000000" stroke-linecap="round" stroke-linejoin="round"/>
 <path id="line6" d="m33.4 17.369a1 1 0 0 0-0.68164 0.34766l-2.4785 2.918a1 1 0 0 0 0.11524 1.4082 1 1 0 0 0 1.4102-0.11328l2.4766-2.918a1 1 0 0 0-0.11328-1.4082 1 1 0 0 0-0.72852-0.23438z" stop-color="#000000" stroke-linecap="round" stroke-linejoin="round"/>
</svg>
