<?xml version="1.0" encoding="UTF-8"?>
<svg id="svg2" version="1.1" viewBox="0 0 48 48" xmlns="http://www.w3.org/2000/svg">
 <defs id="defs1">
  <style id="style1">.a{fill:none;stroke:#000;stroke-width:2px;stroke-linecap:round;stroke-linejoin:round;}</style>
 </defs>
 <path id="path1" d="m29.379 8.9902a1.0001 1.0001 0 0 0-0.9668 0.60156l-0.7207 1.6641c-1.2254-0.13808-2.4539-0.2518-3.6875-0.25586a1.0001 1.0001 0 0 0-0.0098 0c-1.2272 0.0069-2.4492 0.12301-3.668 0.26367l-0.71872-1.6602a1.0001 1.0001 0 0 0-0.96484-0.60156c-3.6189 0.16898-7.0958 1.4572-9.9492 3.6895a1.0001 1.0001 0 0 0-0.27539 0.33789c-3.1287 6.1937-4.8107 13.017-4.918 19.955a1.0001 1.0001 0 0 0 0.13672 0.51953s0.82149 1.3855 2.584 2.7148c1.7625 1.3293 4.5291 2.6702 8.4316 2.7812a1.0001 1.0001 0 0 0 0.79492-0.35742c0.89282-1.065 1.7488-2.2185 2.5605-3.3711 1.8118 0.52155 3.7436 0.9082 5.9922 0.9082 2.2589 0 4.199-0.38838 6.0176-0.91406 0.80273 1.1559 1.6327 2.2932 2.5332 3.375a1.0001 1.0001 0 0 0 0.79688 0.35938c3.9025-0.11105 6.6691-1.4519 8.4316-2.7812s2.584-2.7148 2.584-2.7148a1.0001 1.0001 0 0 0 0.13672-0.51953c-0.10394-6.9298-1.7779-13.744-4.8965-19.934a1.0001 1.0001 0 0 0-0.27539-0.33594c-2.8495-2.2437-6.3268-3.5465-9.9492-3.7246zm0.55078 2.1328c2.9003 0.26868 5.6737 1.2902 7.9902 3.0664 2.8548 5.7511 4.4066 12.056 4.5547 18.475-0.08592 0.14143-0.53279 0.92897-1.8984 1.959-1.4043 1.0592-3.6426 2.0941-6.8223 2.291-0.60733-0.7477-1.1748-1.5247-1.7344-2.3086 1.8815-0.71773 3.6481-1.5608 5.3516-2.4238a1 1 0 0 0 0.44141-1.3438 1 1 0 0 0-1.3438-0.43945c-3.8477 1.9493-7.3459 3.7812-12.469 3.7812s-8.6211-1.832-12.469-3.7812a1 1 0 0 0-1.3438 0.43945 1 1 0 0 0 0.44141 1.3438c1.7098 0.86623 3.4814 1.7145 5.3711 2.4336-0.56702 0.78123-1.1405 1.5578-1.75 2.3008-3.1823-0.19608-5.4211-1.2332-6.8262-2.293-1.3656-1.03-1.8125-1.8176-1.8984-1.959 0.15117-6.4269 1.7095-12.738 4.5742-18.494 2.3194-1.7663 5.0928-2.7783 7.9902-3.0391l0.68164 1.5762a1.0001 1.0001 0 0 0 1.0566 0.59375c1.3813-0.19177 2.7734-0.29246 4.168-0.30078 1.4044 0.0046 2.8076 0.10192 4.1992 0.29102a1.0001 1.0001 0 0 0 1.0527-0.59375z" stroke-linecap="round" stroke-linejoin="round"/>
 <path id="circle1" d="m17.848 21.881c-2.3906 0-4.3516 1.959-4.3516 4.3496s1.961 4.3496 4.3516 4.3496 4.3496-1.959 4.3496-4.3496-1.959-4.3496-4.3496-4.3496zm0 2c1.3097 0 2.3496 1.0399 2.3496 2.3496 0 1.3097-1.0399 2.3496-2.3496 2.3496-1.3097 0-2.3516-1.0399-2.3516-2.3496 0-1.3097 1.0418-2.3496 2.3516-2.3496z" stroke-linecap="round" stroke-linejoin="round"/>
 <path id="circle2" d="m30.152 21.881c-2.3906 0-4.3496 1.959-4.3496 4.3496s1.959 4.3496 4.3496 4.3496 4.3516-1.959 4.3516-4.3496-1.961-4.3496-4.3516-4.3496zm0 2c1.3097 0 2.3516 1.0399 2.3516 2.3496 0 1.3097-1.0418 2.3496-2.3516 2.3496-1.3097 0-2.3496-1.0399-2.3496-2.3496 0-1.3097 1.0399-2.3496 2.3496-2.3496z" stroke-linecap="round" stroke-linejoin="round"/>
</svg>
