<?xml version="1.0" encoding="UTF-8"?>
<svg id="svg4" version="1.1" viewBox="0 0 48 48" xmlns="http://www.w3.org/2000/svg">
 <defs id="defs1">
  <style id="style1">.a{fill:none;stroke:#000;stroke-width:2px;stroke-linecap:round;stroke-linejoin:round}</style>
 </defs>
 <path id="ellipse1" d="m24 39.5c-2.802 0-5.3353 0.16866-7.2188 0.45117-0.94172 0.14126-1.7159 0.30562-2.3301 0.52344-0.3071 0.10891-0.57582 0.22248-0.83984 0.41602s-0.61133 0.55546-0.61133 1.1094 0.34731 0.91584 0.61133 1.1094 0.53275 0.30711 0.83984 0.41602c0.61419 0.21782 1.3884 0.38218 2.3301 0.52344 1.8834 0.28252 4.4168 0.45117 7.2188 0.45117s5.3353-0.16866 7.2188-0.45117c0.94172-0.14126 1.7159-0.30562 2.3301-0.52344 0.3071-0.10891 0.57582-0.22248 0.83984-0.41602s0.61133-0.55546 0.61133-1.1094-0.34731-0.91584-0.61133-1.1094-0.53275-0.30711-0.83984-0.41602c-0.61419-0.21782-1.3884-0.38218-2.3301-0.52344-1.8834-0.28252-4.4168-0.45117-7.2188-0.45117zm0 2c2.7209 0 5.186 0.16736 6.9219 0.42773 0.14537 0.02181 0.19321 0.04906 0.32812 0.07227-0.13492 0.02321-0.18275 0.05046-0.32812 0.07227-1.7359 0.26037-4.201 0.42773-6.9219 0.42773s-5.186-0.16736-6.9219-0.42773c-0.14537-0.021806-0.19321-0.04906-0.32812-0.072266 0.13492-0.02321 0.18275-0.05046 0.32812-0.07227 1.7359-0.26037 4.201-0.42773 6.9219-0.42773z" stroke-linecap="round" stroke-linejoin="round"/>
 <path id="path1" d="m10.066 11.002a1 1 0 0 0-0.72461 0.24609 1 1 0 0 0-0.09375 1.4102l13.752 15.717v13.125a1 1 0 0 0 1 1 1 1 0 0 0 1-1v-13.125l13.752-15.717a1 1 0 0 0-0.09375-1.4102 1 1 0 0 0-1.4102 0.09375l-13.248 15.141-13.248-15.141a1 1 0 0 0-0.68555-0.33984z" stroke-linecap="round" stroke-linejoin="round"/>
 <path id="path2" d="m38.082 4.002c-0.92816-0.010513-1.8702 0.1402-2.7852 0.46875-3.66 1.3142-5.8512 5.0902-5.1758 8.9199a1 1 0 0 0 1.1582 0.81055 1 1 0 0 0 0.81055-1.1582c-0.50864-2.8839 1.1267-5.6998 3.8828-6.6895 2.7561-0.98964 5.806 0.14271 7.248 2.6914a1.0001 1.0001 0 0 0 2e-3 0c1.4423 2.5487 0.84191 5.7486-1.4258 7.6016-2.2679 1.8531-5.5242 1.8044-7.7344-0.11719a1 1 0 0 0-1.4102 0.09766 1 1 0 0 0 0.09766 1.4102c2.935 2.5518 7.3009 2.619 10.312 0.1582 3.0114-2.4607 3.8157-6.7502 1.9004-10.135-1.4363-2.5384-4.0964-4.0271-6.8809-4.0586zm-7.3906 15.047c-0.91349 0.29607-1.5765 0.28911-2.3125 0.21484-0.73596-0.07426-1.5525-0.24879-2.5586-0.19336-1.7714 0.09727-3.3678 0.50112-4.8281 0.47266-1.3938-0.02713-1.9194 0.08986-3.6777-0.49219a1 1 0 0 0-1.2637 0.63477 1 1 0 0 0 0.63477 1.2637c1.9756 0.65396 2.9894 0.56888 4.2676 0.59375 1.8236 0.03554 3.4699-0.39188 4.9766-0.47461 0.69994-0.03857 1.381 0.09806 2.248 0.18555 0.86704 0.08749 1.9123 0.0922 3.1309-0.30273a1 1 0 0 0 0.64258-1.2598 1 1 0 0 0-1.2598-0.64258z" stroke-linecap="round" stroke-linejoin="round"/>
 <path id="path3" d="m22.158 9.5117c-3.0011 0.04248-5.8784 0.18824-8.1641 0.43359-1.143 0.12251-2.0687 0.26124-2.791 0.41992-0.72228 0.15868-1.2031 0.24936-1.7129 0.66406-0.12745 0.10368-0.26837 0.24172-0.375 0.4668s-0.14575 0.55157-0.072266 0.81641c0.14696 0.52968 0.47998 0.71035 0.73242 0.84961 0.50488 0.27852 1.0811 0.41489 1.918 0.57031 3.3504 0.62187 9.7868 0.89398 15.959 0.7168 3.0862-0.08859 5.7045-0.28111 7.5938-0.54492 0.94463-0.1319 1.7006-0.27717 2.291-0.46094 0.29522-0.09188 0.54745-0.18605 0.80469-0.34961 0.25724-0.16356 0.65857-0.48644 0.6582-1.0938a1 1 0 0 0-1-1 1 1 0 0 0-1 1c-2.66e-4 -0.43757 0.26889-0.59334 0.26953-0.59375s-0.12874 0.0649-0.32812 0.12695c-0.39878 0.12412-1.0881 0.26516-1.9727 0.38867-1.7691 0.24702-4.3401 0.44023-7.375 0.52734-5.1454 0.1477-10.167-0.0937-13.523-0.49414 0.05697-0.0063 0.07846-0.01524 0.13672-0.02148 4.3823-0.47043 11.303-0.57142 16.73-0.23633a1 1 0 0 0 1.0605-0.93555 1 1 0 0 0-0.9375-1.0605c-2.7771-0.17147-5.9012-0.23194-8.9023-0.18946z" stroke-linecap="round" stroke-linejoin="round"/>
 <path id="path4" d="m35.5 7.6699a1.0001 1.0001 0 0 0-0.5 0.86523v4.1953a1 1 0 0 0 0.81055 0.92188 1 1 0 0 0-0.81055 0.92188v0.89062a1.0001 1.0001 0 0 0 1.5 0.86523l6-3.4648a1.0001 1.0001 0 0 0 0-1.7305l-6-3.4648a1.0001 1.0001 0 0 0-1 0zm1.5 2.5977 3 1.7324-3.2773 1.8906a1 1 0 0 0-0.46875-0.26562 1 1 0 0 0 0.74609-0.89453z" stroke-linecap="round" stroke-linejoin="round"/>
</svg>
