<?xml version="1.0" encoding="UTF-8" standalone="no"?>
<svg
   viewBox="0 0 48 48"
   version="1.1"
   id="svg2"
   sodipodi:docname="com.discordapp.Discord.svg"
   xmlns:inkscape="http://www.inkscape.org/namespaces/inkscape"
   xmlns:sodipodi="http://sodipodi.sourceforge.net/DTD/sodipodi-0.dtd"
   xmlns="http://www.w3.org/2000/svg"
   xmlns:svg="http://www.w3.org/2000/svg">
  <sodipodi:namedview
     id="namedview2"
     pagecolor="#ffffff"
     bordercolor="#666666"
     borderopacity="1.0"
     inkscape:showpageshadow="2"
     inkscape:pageopacity="0.0"
     inkscape:pagecheckerboard="0"
     inkscape:deskcolor="#d1d1d1" />
  <defs
     id="defs1">
    <style
       id="style1">.a{fill:none;stroke:#000;stroke-width:2px;stroke-linecap:round;stroke-linejoin:round;}</style>
  </defs>
  <path
     style="color:#000000;fill:#000000;stroke-linecap:round;stroke-linejoin:round;-inkscape-stroke:none"
     d="M 29.378906,8.9902344 A 1.0001,1.0001 0 0 0 28.412109,9.5917969 L 27.691406,11.255859 C 26.465962,11.117775 25.237483,11.00406 24.003906,11 a 1.0001,1.0001 0 0 0 -0.0098,0 c -1.227239,0.0069 -2.449187,0.123009 -3.667969,0.263672 L 19.607422,9.6035156 A 1.0001,1.0001 0 0 0 18.642578,9.0019531 C 15.023668,9.170934 11.546785,10.459137 8.6933594,12.691406 A 1.0001,1.0001 0 0 0 8.4179688,13.029297 C 5.2892957,19.223035 3.607235,26.046112 3.5,32.984375 a 1.0001,1.0001 0 0 0 0.1367188,0.519531 c 0,0 0.8214904,1.385505 2.5839843,2.714844 C 7.983197,37.548089 10.749854,38.888954 14.652344,39 a 1.0001,1.0001 0 0 0 0.794922,-0.357422 c 0.892818,-1.065035 1.748795,-2.218478 2.560546,-3.371094 1.811801,0.521551 3.743597,0.908203 5.992188,0.908203 2.258853,0 4.199044,-0.388385 6.017578,-0.914062 0.802732,1.155938 1.632733,2.293197 2.533203,3.375 A 1.0001,1.0001 0 0 0 33.347656,39 c 3.90249,-0.111046 6.669147,-1.451911 8.431641,-2.78125 1.762494,-1.329339 2.583984,-2.714844 2.583984,-2.714844 A 1.0001,1.0001 0 0 0 44.5,32.984375 C 44.396057,26.054627 42.722129,19.240002 39.603516,13.050781 A 1.0001,1.0001 0 0 0 39.328125,12.714844 C 36.4786,10.471156 33.001363,9.1683657 29.378906,8.9902344 Z m 0.550781,2.1328126 c 2.900331,0.268677 5.673716,1.290169 7.990235,3.066406 2.854807,5.751058 4.406645,12.056421 4.554687,18.474609 -0.08592,0.141433 -0.532796,0.928967 -1.898437,1.958985 -1.404328,1.059196 -3.642575,2.094145 -6.822266,2.291015 -0.607326,-0.747697 -1.174799,-1.524651 -1.734375,-2.308593 1.881504,-0.717726 3.648053,-1.560806 5.351563,-2.423828 a 1,1 0 0 0 0.441406,-1.34375 1,1 0 0 0 -1.34375,-0.439454 c -3.847671,1.949287 -7.345918,3.78125 -12.46875,3.78125 -5.122832,0 -8.621079,-1.831963 -12.46875,-3.78125 a 1,1 0 0 0 -1.34375,0.439454 1,1 0 0 0 0.441406,1.34375 C 12.338743,33.047869 14.110328,33.896099 16,34.615234 15.432985,35.39646 14.859487,36.173063 14.25,36.916016 11.067719,36.719941 8.8288527,35.682769 7.4238281,34.623047 6.0581865,33.593029 5.6113124,32.805495 5.5253906,32.664062 c 0.1511736,-6.42687 1.7095232,-12.738206 4.5742184,-18.49414 2.319435,-1.76631 5.092828,-2.778289 7.990235,-3.039063 l 0.68164,1.576172 a 1.0001,1.0001 0 0 0 1.056641,0.59375 C 21.209466,13.10901 22.601536,13.008317 23.996094,13 c 1.404418,0.0046 2.807582,0.101916 4.199218,0.291016 a 1.0001,1.0001 0 0 0 1.052735,-0.59375 z"
     id="path1" />
  <path
     style="color:#000000;fill:#000000;stroke-linecap:round;stroke-linejoin:round;-inkscape-stroke:none"
     d="m 17.847656,21.880859 c -2.390591,0 -4.351562,1.959018 -4.351562,4.34961 0,2.390591 1.960971,4.349609 4.351562,4.349609 2.390592,0 4.34961,-1.959018 4.34961,-4.349609 0,-2.390592 -1.959018,-4.34961 -4.34961,-4.34961 z m 0,2 c 1.309713,0 2.34961,1.039897 2.34961,2.34961 0,1.309712 -1.039897,2.349609 -2.34961,2.349609 -1.309712,0 -2.351562,-1.039897 -2.351562,-2.349609 0,-1.309713 1.04185,-2.34961 2.351562,-2.34961 z"
     id="circle1" />
  <path
     style="color:#000000;fill:#000000;stroke-linecap:round;stroke-linejoin:round;-inkscape-stroke:none"
     d="m 30.152344,21.880859 c -2.390592,0 -4.34961,1.959018 -4.34961,4.34961 0,2.390591 1.959018,4.349609 4.34961,4.349609 2.390591,0 4.351562,-1.959018 4.351562,-4.349609 0,-2.390592 -1.960971,-4.34961 -4.351562,-4.34961 z m 0,2 c 1.309712,0 2.351562,1.039897 2.351562,2.34961 0,1.309712 -1.04185,2.349609 -2.351562,2.349609 -1.309713,0 -2.34961,-1.039897 -2.34961,-2.349609 0,-1.309713 1.039897,-2.34961 2.34961,-2.34961 z"
     id="circle2" />
</svg>
