<?xml version="1.0" encoding="UTF-8" standalone="no"?>
<svg
   viewBox="0 0 48 48"
   version="1.1"
   id="svg1"
   sodipodi:docname="dophin-emu.svg"
   xmlns:inkscape="http://www.inkscape.org/namespaces/inkscape"
   xmlns:sodipodi="http://sodipodi.sourceforge.net/DTD/sodipodi-0.dtd"
   xmlns="http://www.w3.org/2000/svg"
   xmlns:svg="http://www.w3.org/2000/svg">
  <sodipodi:namedview
     id="namedview1"
     pagecolor="#ffffff"
     bordercolor="#666666"
     borderopacity="1.0"
     inkscape:showpageshadow="2"
     inkscape:pageopacity="0.0"
     inkscape:pagecheckerboard="0"
     inkscape:deskcolor="#d1d1d1" />
  <defs
     id="defs1">
    <style
       id="style1">.a{fill:none;stroke:#000;stroke-width:2px;stroke-linecap:round;stroke-linejoin:round;}</style>
  </defs>
  <path
     style="color:#000000;fill:#000000;stroke-linecap:round;stroke-linejoin:round;-inkscape-stroke:none"
     d="m 30.734375,12.728516 c -1.394254,0.16846 -2.953426,0.708287 -4.603516,1.773437 -2.366044,-0.967972 -6.638382,-1.857133 -11,-1.347656 -2.310706,0.269911 -4.599603,0.944247 -6.4648434,2.318359 -1.7722979,1.305643 -3.0611904,3.320995 -3.5644531,5.964844 l -1.140625,1.523437 A 1.0001,1.0001 0 0 0 3.8066406,23.259766 C 3.641344,23.783205 3.540095,24.18623 3.5429688,24.623047 c 0.00144,0.218408 0.02824,0.460314 0.1601562,0.722656 0.1319163,0.262342 0.4066038,0.516039 0.6875,0.623047 0.5617923,0.214016 0.933696,0.05756 1.2617187,-0.0625 0.3280228,-0.120061 0.64194,-0.281507 0.9824219,-0.464844 0.1668112,-0.08982 0.8317238,-0.351681 1.640625,-0.59375 0.8089013,-0.242069 1.8016564,-0.495915 2.8046874,-0.695312 1.003031,-0.199398 2.020264,-0.343192 2.857422,-0.378907 0.751273,-0.03205 1.258597,0.07598 1.486328,0.154297 0.774093,1.585638 1.741189,2.764761 3.083984,3.46875 1.491196,0.781792 3.286287,1.1001 5.707032,1.453125 a 1.0001,1.0001 0 0 0 0.640625,-1.857422 c -0.784598,-0.448341 -1.547862,-0.770499 -2.136719,-1.269531 -0.327535,-0.277572 -0.601933,-0.633041 -0.832031,-1.083984 1.367187,0.18067 3.073902,0.552169 4.914062,1.234375 2.481081,0.919815 4.95199,2.2379 6.263672,3.505859 a 1.0001,1.0001 0 0 0 1.619141,-1.103515 c -0.400963,-0.962312 -1.2764,-1.863037 -2.601563,-2.923829 -1.325162,-1.060791 -3.09901,-2.182665 -5.242187,-3.130859 -3.892474,-1.722125 -9.05247,-2.75732 -14.789063,-1.785156 0.360696,-0.409198 0.89963,-0.858645 1.65625,-1.25 1.626755,-0.841425 4.017815,-1.414321 6.578125,-1.228516 5.173393,0.390445 10.04558,1.75993 13.509766,4.84961 a 1.0001,1.0001 0 0 0 0.0098,0.0078 c 3.769116,3.277372 6.755075,7.359225 8.738282,11.943359 a 1.0001,1.0001 0 0 0 1.847656,-0.765625 c -0.0045,-0.01147 -0.0091,-0.01784 -0.01367,-0.0293 C 40.327686,23.753634 36.20253,20.094181 32.476562,17.173828 a 1.0001,1.0001 0 0 0 -0.002,-0.0039 c -0.321983,-0.250431 -0.404412,-0.432708 -0.423828,-0.523438 -0.01942,-0.09073 -0.02271,-0.165579 0.111328,-0.363281 0.268071,-0.395404 1.201261,-1.048426 2.667969,-1.460937 A 1.0001,1.0001 0 0 0 34.695312,12.869141 C 33.600003,12.71978 32.257678,12.544463 30.734375,12.728516 Z m 0.25,1.9375 c 0.02645,-0.003 0.04787,0.0067 0.07422,0.0039 -0.170525,0.171881 -0.417836,0.296093 -0.550782,0.492187 -0.365964,0.539798 -0.557146,1.233699 -0.414062,1.902344 0.142704,0.666867 0.572743,1.232648 1.148437,1.681641 7.02e-4,5.5e-4 0.0013,0.0014 0.002,0.002 7.68e-4,5.98e-4 0.0012,0.0014 0.002,0.002 0.0025,0.0019 0.0053,0.0039 0.0078,0.0059 -3.267079,-1.663695 -7.004994,-2.505167 -10.818359,-2.792968 a 1.0001,1.0001 0 0 0 -0.0039,0 c -2.93891,-0.213739 -5.646724,0.413917 -7.644532,1.447265 -0.998903,0.516675 -1.824412,1.132598 -2.414062,1.859375 -0.58965,0.726778 -0.9613388,1.628065 -0.7988282,2.5625 a 1.0001,1.0001 0 0 0 0.359375,0.546875 C 9.150155,22.555277 8.3528484,22.736622 7.7011719,22.931641 6.9699956,23.15045 6.4654572,23.348129 6.0117187,23.558594 l 0.7480469,-0.998047 a 1.0001,1.0001 0 0 0 0.1894531,-0.449219 c 0.3645948,-2.392653 1.4207121,-3.937787 2.9023438,-5.029297 1.4816315,-1.09151 3.4349295,-1.698818 5.5117185,-1.941406 4.153579,-0.485176 8.818376,0.561906 10.478516,1.328125 a 1.0001,1.0001 0 0 0 0.99414,-0.0918 c 1.57673,-1.112986 2.921744,-1.56999 4.148438,-1.710937 z m -15.564453,7.34375 c 2.042991,-0.07817 3.933006,0.157551 5.716797,0.535156 -0.218599,-0.0094 -0.507739,-0.09048 -0.708985,-0.08398 A 1.0001,1.0001 0 0 0 19.472656,23.625 c 0.145006,0.870032 0.426562,1.592203 0.779297,2.199219 C 20.049834,25.744109 19.611673,25.716314 19.4375,25.625 18.353698,25.056793 17.673276,24.287122 16.978516,22.666016 A 1.0001,1.0001 0 0 0 16.525391,22.175781 C 16.195128,22.001959 15.78051,22.071002 15.419922,22.009766 Z"
     id="path1" />
</svg>
