<?xml version="1.0" encoding="UTF-8"?>
<svg id="b" version="1.1" viewBox="0 0 48 48" xmlns="http://www.w3.org/2000/svg">
 <defs id="defs1">
  <style id="style1">.c{fill:none;stroke:#000;stroke-width:2px;stroke-linecap:round;stroke-linejoin:round;}</style>
 </defs>
 <path id="path1" d="m13.715 6.1562-9.75 6.1895a1.0001 1.0001 0 0 0-0.00195 1.6875l8.3652 5.3262-8.3652 5.3262a1.0001 1.0001 0 0 0 0 1.6875l9.75 6.2207a1.0001 1.0001 0 0 0 1.0742 0l9.2129-5.8672 9.2129 5.8672a1.0001 1.0001 0 0 0 1.0742 0l9.75-6.2207a1.0001 1.0001 0 0 0 0-1.6875l-8.3613-5.3242 8.3594-5.3066a1.0001 1.0001 0 0 0 2e-3 -1.6875l-9.75-6.2109a1.0001 1.0001 0 0 0-1.0723 0l-9.2149 5.8496-9.2148-5.8496a1.0001 1.0001 0 0 0-1.0703 0zm0.53516 2.0273 7.8926 5.0117-7.8867 5.0195-7.8906-5.0234zm19.5 0.00195 7.8867 5.0234-7.8906 5.0078-7.8887-5.0215zm-9.75 6.1992 7.8184 4.9766-7.8184 4.9824-7.8184-4.9824zm-9.7461 6.1191 7.8945 5.0312-7.8984 5.0293-7.8906-5.0332zm19.492 0 7.8945 5.0273-7.8906 5.0332-7.8984-5.0293zm-10.215 7.2422-9.75 6.2207a1.0001 1.0001 0 0 0 2e-3 1.6875l9.75 6.1895a1.0001 1.0001 0 0 0 1.0723 0l9.75-6.1895a1.0001 1.0001 0 0 0 2e-3 -1.6875l-9.75-6.2207a1.0001 1.0001 0 0 0-1.0762 0zm0.53906 2.0293 7.8867 5.0312-7.8867 5.0098-7.8887-5.0098z" stop-color="#000000" stroke-linecap="round" stroke-linejoin="round"/>
</svg>
