<?xml version="1.0" encoding="UTF-8"?>
<svg id="svg22" version="1.1" viewBox="0 0 48 48" xmlns="http://www.w3.org/2000/svg">
 <defs id="defs1">
  <style id="style1">.a{fill:none;stroke:#000;stroke-width:2px;stroke-linecap:round;stroke-linejoin:round;}</style>
 </defs>
 <path id="path1" d="m26.162 3.6328-9.2832 5.3164a1.0001 1.0001 0 0 0-0.09961 0.17188 1 1 0 0 0-0.26953 0.20898 1 1 0 0 0 0.04687 0.17188 1.0001 1.0001 0 0 0-0.18164 0.31445v11.252a1.0001 1.0001 0 0 0 0.51172 0.87109l9.248 5.1797a1.0001 1.0001 0 0 0 1.4883-0.87695l-0.054688-11.184a1.0001 1.0001 0 0 0-0.50586-0.86328l-7.6777-4.377 7.7715-4.4512a1 1 0 0 0 0.36914-1.3633 1 1 0 0 0-1.3633-0.37109zm-7.7871 7.9121 7.1953 4.1016 0.04492 8.8887-7.2402-4.0547z" stroke-linecap="round" stroke-linejoin="round"/>
 <path id="path2" d="m27.242 3.6816a1 1 0 0 0-1.3613 0.38477 1 1 0 0 0 0.38477 1.3613l7.5898 4.2383-7.5645 4.5078a1 1 0 0 0-0.34766 1.3711 1 1 0 0 0 1.3711 0.34766l9.0547-5.3945a1.0001 1.0001 0 0 0-0.025391-1.7324z" stroke-linecap="round" stroke-linejoin="round"/>
 <path id="path3" d="m35.854 8.6621a1 1 0 0 0-1 1v8.3789a1.0001 1.0001 0 0 0-0.91016 0.0078l-5.4414 3.1172a1.0001 1.0001 0 0 0-0.50391 0.86914v2.1055a1.0001 1.0001 0 0 0 0.50391 0.86719l5.3242 3.0508a1.0001 1.0001 0 0 0 0.99414 0l5.4473-3.1211a1.0001 1.0001 0 0 0 0.50391-0.86914v-2.125a1.0001 1.0001 0 0 0-0.50391-0.86914l-3.4141-1.9551v-9.457a1 1 0 0 0-1-1zm-1.4023 11.402 0.90234 0.49609a1.0001 1.0001 0 0 0 0.0039 0.0059l3.4141 1.9551v0.96875l-4.4492 2.5469-4.3242-2.4766v-0.94727z" stroke-linecap="round" stroke-linejoin="round"/>
 <path id="path4" d="m39.279 21.111c-0.08917 0.04722-0.06538 0.03592-0.11133 0.0625-0.04595 0.02658-0.10769 0.06211-0.18555 0.10742-0.15572 0.09062-0.37283 0.2157-0.62891 0.36523-0.51214 0.29907-1.184 0.69429-1.8535 1.0859-1.3389 0.7833-2.6641 1.5586-2.6641 1.5586a1.0001 1.0001 0 0 0-0.49609 0.86133l-2e-3 1.9395a1 1 0 0 0 1 1.002 1 1 0 0 0 1-1l2e-3 -1.3652c0.36369-0.21294 1.0796-0.63364 2.1699-1.2715 0.66924-0.39151 1.3423-0.78348 1.8535-1.082 0.25563-0.14928 0.47093-0.27557 0.625-0.36523 0.07704-0.04483 0.13856-0.08055 0.18164-0.10547 0.04308-0.02492 0.12118-0.06773 0.04492-0.02734a1 1 0 0 0 0.41602-1.3516 1 1 0 0 0-1.3516-0.41406z" stroke-linecap="round" stroke-linejoin="round"/>
 <path id="path5" d="m29.66 21.367a1 1 0 0 0-1.3652 0.37109 1 1 0 0 0 0.37109 1.3652l5.2012 2.9785a1 1 0 0 0 1.3633-0.37109 1 1 0 0 0-0.37109-1.3652z" stroke-linecap="round" stroke-linejoin="round"/>
 <path id="path6" d="m28.918 23.848-2.6836 1.5371a1 1 0 0 0-0.37109 1.3652 1 1 0 0 0 1.3652 0.36914l2.6836-1.5371a1 1 0 0 0 0.36914-1.3633 1 1 0 0 0-1.3633-0.37109z" stroke-linecap="round" stroke-linejoin="round"/>
 <path id="path7" d="m29.918 16.826a1 1 0 0 0-0.23828 0.09961 1 1 0 0 0-0.32422 0.04102l-1.8203 1.041a1.0001 1.0001 0 0 0-0.50195 0.86914v2.123a1.0001 1.0001 0 0 0 1.4961 0.86719l1.8867-1.0801a1.0001 1.0001 0 0 0 0.50195-0.86719v-2.0938a1 1 0 0 0-1-1z" stroke-linecap="round" stroke-linejoin="round"/>
 <path id="path8" d="m34.166 14.156-1.918 1.0508a1.0001 1.0001 0 0 0-0.51953 0.87695v2.1406a1.0001 1.0001 0 0 0 1.4961 0.86719l1.918-1.0977a1.0001 1.0001 0 0 0 0.50391-0.86914v-2.0918a1.0001 1.0001 0 0 0-1.4805-0.87695z" stroke-linecap="round" stroke-linejoin="round"/>
 <path id="path9" d="m9.375 6.875a1.0001 1.0001 0 0 0-1.4961 0.86719v4.0449a1.0001 1.0001 0 0 0 0.54688 0.89062l3.3496 1.7031a1.0001 1.0001 0 0 0 1.4531-0.88476l0.021484-3.8184a1.0001 1.0001 0 0 0-0.50391-0.87305zm0.50391 2.5918 1.3672 0.7832-0.0078 1.6133-1.3594-0.68945z" stroke-linecap="round" stroke-linejoin="round"/>
 <path id="path10" d="m16.027 10.613a1 1 0 0 0-0.75781 0.0957l-3.5781 2.0508a1 1 0 0 0-0.37109 1.3652 1 1 0 0 0 1.3652 0.37109l3.5781-2.0508a1 1 0 0 0 0.36914-1.3652 1 1 0 0 0-0.60547-0.4668z" stroke-linecap="round" stroke-linejoin="round"/>
 <path id="path11" d="m11.781 4.9395-3.4004 1.9473a1 1 0 0 0-0.36914 1.3652 1 1 0 0 0 1.3633 0.36914l2.9023-1.6621 2.3965 1.373v3.0586a1 1 0 0 0 1 1 1 1 0 0 0 1-1v-3.6387a1.0001 1.0001 0 0 0-0.50195-0.86719l-3.3965-1.9453a1.0001 1.0001 0 0 0-0.99414 0z" stroke-linecap="round" stroke-linejoin="round"/>
 <path id="path12" d="m15.838 7a1 1 0 0 0-0.75977 0.078125l-3.291 1.7754a1 1 0 0 0-0.40625 1.3555 1 1 0 0 0 1.3555 0.40625l3.291-1.7754a1 1 0 0 0 0.4043-1.3555 1 1 0 0 0-0.59375-0.48438z" stroke-linecap="round" stroke-linejoin="round"/>
 <path id="path13" d="m17.436 9.7891a1 1 0 0 0-0.75781 0.10156l-1.5117 0.88086a1 1 0 0 0-0.36133 1.3672 1 1 0 0 0 1.3672 0.36133l1.5117-0.88086a1 1 0 0 0 0.36133-1.3672 1 1 0 0 0-0.60938-0.46289z" stroke-linecap="round" stroke-linejoin="round"/>
 <path id="path14" d="m12.406 12.691a1 1 0 0 0-0.76172 0.08203l-3.8945 2.125a1.0001 1.0001 0 0 0-0.52148 0.87695v14.49a1.0001 1.0001 0 0 0 0.51367 0.87305l12.135 6.7656a1.0001 1.0001 0 0 0 1.4883-0.88086l-0.11523-14.016a1 1 0 0 0-1.0078-0.99219 1 1 0 0 0-0.99219 1.0078l0.10156 12.299-10.123-5.6445v-13.309l3.373-1.8398a1 1 0 0 0 0.40039-1.3574 1 1 0 0 0-0.5957-0.48047z" stroke-linecap="round" stroke-linejoin="round"/>
 <path id="path15" d="m8.1426 14.859a1 1 0 0 0-0.61133 0.46289 1 1 0 0 0 0.35938 1.3691l8.8984 5.2012a1 1 0 0 0 1.3691-0.35742 1 1 0 0 0-0.35938-1.3691l-8.8984-5.2012a1 1 0 0 0-0.75781-0.10547z" stroke-linecap="round" stroke-linejoin="round"/>
 <path id="path16" d="m32.17 25.217a1 1 0 0 0-1 1v3.4512l-11.254 6.4453a1 1 0 0 0-0.37109 1.3652 1 1 0 0 0 1.3652 0.37109l11.756-6.7344a1.0001 1.0001 0 0 0 0.50391-0.86719v-4.0312a1 1 0 0 0-1-1z" stroke-linecap="round" stroke-linejoin="round"/>
 <path id="path17" d="m16.762 34.639a1 1 0 0 0-1 1v5.3672a1.0001 1.0001 0 0 0 0.50195 0.86914l4.3555 2.4922a1.0001 1.0001 0 0 0 0.99414 0l2.1699-1.2441a1.0001 1.0001 0 0 0 0.50391-0.86719v-2.3789a1.0001 1.0001 0 0 0-0.4707-0.84766l-1.6641-1.0352v-1.207a1 1 0 0 0-1-1 1 1 0 0 0-1 1v1.7617a1.0001 1.0001 0 0 0 0.47266 0.84766l1.6621 1.0371v1.2422l-1.1719 0.67188-3.3535-1.9219v-4.7871a1 1 0 0 0-1-1z" stroke-linecap="round" stroke-linejoin="round"/>
 <path id="path18" d="m22.562 39.115-1.9355 1.1094a1.0001 1.0001 0 0 0-0.50391 0.86719v2.293a1 1 0 0 0 1 1 1 1 0 0 0 1-1v-1.7129l1.4336-0.82031a1 1 0 0 0 0.37109-1.3652 1 1 0 0 0-1.3652-0.37109z" stroke-linecap="round" stroke-linejoin="round"/>
 <path id="path19" d="m18.857 35.338a1 1 0 0 0-1 1v3.4941a1.0001 1.0001 0 0 0 0.50391 0.86719l2.2695 1.3008a1 1 0 0 0 1.3652-0.37109 1 1 0 0 0-0.37109-1.3652l-1.7676-1.0117v-2.9141a1 1 0 0 0-1-1z" stroke-linecap="round" stroke-linejoin="round"/>
 <path id="path20" d="m23.471 34.406a1 1 0 0 0-1.0332 0.96484l-0.06445 1.8613a1.0001 1.0001 0 0 0 0.50195 0.90234l4.3691 2.502a1.0001 1.0001 0 0 0 0.2168 0 1 1 0 0 0 0.28711 0.11914 1 1 0 0 0 0.28711-0.11914 1.0001 1.0001 0 0 0 0.20312 0l2.0918-1.1973a1.0001 1.0001 0 0 0 0.50391-0.86914v-2.4434a1.0001 1.0001 0 0 0-1.498-0.86914l-2.084 1.1953a1.0001 1.0001 0 0 0-0.50391 0.86719v0.72852l-2.3555-1.3496 0.04297-1.2598a1 1 0 0 0-0.96484-1.0332zm5.3633 3.4453v0.14062l-0.08594 0.04883v-0.14062z" stroke-linecap="round" stroke-linejoin="round"/>
 <path id="path21" d="m27.75 31.951a1 1 0 0 0-1 1v1.8086a1.0001 1.0001 0 0 0 0.50391 0.86719l2.1035 1.207a1 1 0 0 0 1.3652-0.37109 1 1 0 0 0-0.37109-1.3652l-1.6016-0.91797v-1.2285a1 1 0 0 0-1-1z" stroke-linecap="round" stroke-linejoin="round"/>
 <path id="path22" d="m25.508 33.113a1 1 0 0 0-1 1v1.9453a1.0001 1.0001 0 0 0 0.50195 0.86914l2.1816 1.248a1 1 0 0 0 1.3633-0.37109 1 1 0 0 0-0.37109-1.3633l-1.6758-0.96094v-1.3672a1 1 0 0 0-1-1z" stroke-linecap="round" stroke-linejoin="round"/>
</svg>
