<?xml version="1.0" encoding="UTF-8"?>
<svg id="a" version="1.1" viewBox="0 0 48 48" xmlns="http://www.w3.org/2000/svg">
 <defs id="defs4">
  <style id="style2">.b{fill:none;stroke:#000;stroke-width:2px;stroke-linecap:round;stroke-linejoin:round;}</style>
 </defs>
 <path id="path6" d="m20.717 10.432c-10.05 0-18.217 8.1672-18.217 18.217a1 1 0 0 0 1 1 1 1 0 0 0 1-1c0-8.9688 7.248-16.217 16.217-16.217a1 1 0 0 0 1-1 1 1 0 0 0-1-1z" color="#000000" stroke-linecap="round" stroke-linejoin="round" style="-inkscape-stroke:none"/>
 <path id="path8" d="m44.5 18.404a1 1 0 0 0-1 1c0 8.9688-7.248 16.219-16.217 16.219a1 1 0 0 0-1 1 1 1 0 0 0 1 1c10.05 0 18.217-8.1691 18.217-18.219a1 1 0 0 0-1-1z" color="#000000" stroke-linecap="round" stroke-linejoin="round" style="-inkscape-stroke:none"/>
 <path id="path10" d="m11.42 26.281a1 1 0 0 0-1 1c0 10.05 8.1672 18.219 18.217 18.219a1 1 0 0 0 1-1 1 1 0 0 0-1-1c-8.9688 0-16.217-7.25-16.217-16.219a1 1 0 0 0-1-1z" color="#000000" stroke-linecap="round" stroke-linejoin="round" style="-inkscape-stroke:none"/>
 <path id="path12" d="m19.393 2.5a1 1 0 0 0-1 1 1 1 0 0 0 1 1c8.9688 0 16.219 7.25 16.219 16.219a1 1 0 0 0 1 1 1 1 0 0 0 1-1c0-10.05-8.1691-18.219-18.219-18.219z" color="#000000" stroke-linecap="round" stroke-linejoin="round" style="-inkscape-stroke:none"/>
</svg>
