<?xml version="1.0" encoding="UTF-8" standalone="no"?>
<svg
   id="a"
   viewBox="0 0 48 48"
   version="1.1"
   sodipodi:docname="element.svg"
   xmlns:inkscape="http://www.inkscape.org/namespaces/inkscape"
   xmlns:sodipodi="http://sodipodi.sourceforge.net/DTD/sodipodi-0.dtd"
   xmlns="http://www.w3.org/2000/svg"
   xmlns:svg="http://www.w3.org/2000/svg">
  <sodipodi:namedview
     id="namedview4"
     pagecolor="#ffffff"
     bordercolor="#666666"
     borderopacity="1.0"
     inkscape:showpageshadow="2"
     inkscape:pageopacity="0.0"
     inkscape:pagecheckerboard="0"
     inkscape:deskcolor="#d1d1d1" />
  <defs
     id="defs1">
    <style
       id="style1">.b{fill:none;stroke:#000;stroke-width:2px;stroke-linecap:round;stroke-linejoin:round;}</style>
  </defs>
  <path
     style="color:#000000;fill:#000000;stroke-linecap:round;stroke-linejoin:round;-inkscape-stroke:none"
     d="M 20.716797,10.431641 C 10.667169,10.431641 2.5,18.59881 2.5,28.648437 a 1,1 0 0 0 1,1 1,1 0 0 0 1,-1 c 0,-8.968752 7.248044,-16.216796 16.216797,-16.216796 a 1,1 0 0 0 1,-1 1,1 0 0 0 -1,-1 z"
     id="path1" />
  <path
     style="color:#000000;fill:#000000;stroke-linecap:round;stroke-linejoin:round;-inkscape-stroke:none"
     d="m 44.5,18.404297 a 1,1 0 0 0 -1,1 c 0,8.968753 -7.248044,16.21875 -16.216797,16.21875 a 1,1 0 0 0 -1,1 1,1 0 0 0 1,1 C 37.332831,37.623047 45.5,29.453925 45.5,19.404297 a 1,1 0 0 0 -1,-1 z"
     id="path2" />
  <path
     style="color:#000000;fill:#000000;stroke-linecap:round;stroke-linejoin:round;-inkscape-stroke:none"
     d="m 11.419922,26.28125 a 1,1 0 0 0 -1,1 c 0,10.049628 8.167176,18.21875 18.216797,18.21875 a 1,1 0 0 0 1,-1 1,1 0 0 0 -1,-1 c -8.96876,0 -16.216797,-7.249997 -16.216797,-16.21875 a 1,1 0 0 0 -1,-1 z"
     id="path3" />
  <path
     style="color:#000000;fill:#000000;stroke-linecap:round;stroke-linejoin:round;-inkscape-stroke:none"
     d="m 19.392578,2.5 a 1,1 0 0 0 -1,1 1,1 0 0 0 1,1 c 8.96876,0 16.21875,7.249997 16.21875,16.21875 a 1,1 0 0 0 1,1 1,1 0 0 0 1,-1 C 37.611328,10.669122 29.442199,2.5 19.392578,2.5 Z"
     id="path4" />
</svg>
