<?xml version="1.0" encoding="UTF-8" standalone="no"?>
<svg
   viewBox="0 0 48 48"
   version="1.1"
   id="svg2"
   sodipodi:docname="emoji-selector.svg"
   xmlns:inkscape="http://www.inkscape.org/namespaces/inkscape"
   xmlns:sodipodi="http://sodipodi.sourceforge.net/DTD/sodipodi-0.dtd"
   xmlns="http://www.w3.org/2000/svg"
   xmlns:svg="http://www.w3.org/2000/svg">
  <sodipodi:namedview
     id="namedview2"
     pagecolor="#ffffff"
     bordercolor="#666666"
     borderopacity="1.0"
     inkscape:showpageshadow="2"
     inkscape:pageopacity="0.0"
     inkscape:pagecheckerboard="0"
     inkscape:deskcolor="#d1d1d1" />
  <defs
     id="defs1">
    <style
       id="style1">.a{fill:none;stroke:#000;stroke-width:2px;stroke-linecap:round;stroke-linejoin:round;}</style>
  </defs>
  <path
     style="color:#000000;fill:#000000;stroke-linecap:round;stroke-linejoin:round;-inkscape-stroke:none"
     d="M 24,1.5 C 11.58545,1.5 1.5,11.58545 1.5,24 1.5,36.41455 11.58545,46.5 24,46.5 36.41455,46.5 46.5,36.41455 46.5,24 46.5,11.58545 36.41455,1.5 24,1.5 Z m 0,2 C 35.333671,3.5 44.5,12.666329 44.5,24 44.5,35.333671 35.333671,44.5 24,44.5 12.666329,44.5 3.5,35.333671 3.5,24 3.5,12.666329 12.666329,3.5 24,3.5 Z"
     id="circle1" />
  <path
     style="color:#000000;fill:#000000;stroke-linecap:round;stroke-linejoin:round;-inkscape-stroke:none"
     d="M 16.423828,16.460937 C 14.485213,16.460937 13,18.179142 13,20.152344 c 0,1.973202 1.485213,3.693359 3.423828,3.693359 1.938615,0 3.421875,-1.720157 3.421875,-3.693359 0,-1.973202 -1.48326,-3.691406 -3.421875,-3.691407 z m 0,2 c 0.737644,0 1.421875,0.691 1.421875,1.691407 0,1.000406 -0.684231,1.693359 -1.421875,1.693359 C 15.686185,21.845703 15,21.15275 15,20.152344 c 0,-1.000407 0.686185,-1.691407 1.423828,-1.691407 z"
     id="ellipse1" />
  <path
     style="color:#000000;fill:#000000;stroke-linecap:round;stroke-linejoin:round;-inkscape-stroke:none"
     d="m 31.576172,16.460937 c -1.938615,0 -3.421875,1.718205 -3.421875,3.691407 0,1.973202 1.48326,3.693359 3.421875,3.693359 1.938615,0 3.423828,-1.720157 3.423828,-3.693359 0,-1.973202 -1.485213,-3.691406 -3.423828,-3.691407 z m 0,2 c 0.737643,0 1.423828,0.691 1.423828,1.691407 0,1.000406 -0.686185,1.693359 -1.423828,1.693359 -0.737644,0 -1.421875,-0.692953 -1.421875,-1.693359 0,-1.000407 0.684231,-1.691407 1.421875,-1.691407 z"
     id="ellipse2" />
  <path
     style="color:#000000;fill:#000000;stroke-linecap:round;stroke-linejoin:round;-inkscape-stroke:none"
     d="m 16.744141,26.648437 a 1,1 0 0 0 -0.226563,1.396485 c 1.483621,2.057345 3.899321,3.49414 7.482422,3.49414 3.583181,0 5.998835,-1.437289 7.482422,-3.49414 A 1,1 0 0 0 31.255859,26.648437 1,1 0 0 0 29.861328,26.875 C 28.688117,28.501545 27.088213,29.539063 24,29.539062 c -3.088293,0 -4.686198,-1.037211 -5.859375,-2.664062 a 1,1 0 0 0 -1.396484,-0.226563 z"
     id="path2" />
</svg>
