<?xml version="1.0" encoding="UTF-8"?>
<svg id="svg3" version="1.1" viewBox="0 0 48 48" xmlns="http://www.w3.org/2000/svg">
 <defs id="defs1">
  <style id="style1">.a{fill:none;stroke:#000;stroke-width:2px;stroke-linecap:round;stroke-linejoin:round;}</style>
 </defs>
 <path id="circle1" d="m15.455 17.311c-5.9941 0-10.875 4.8809-10.875 10.875 0 5.9941 4.8809 10.875 10.875 10.875 5.9941 0 10.875-4.8809 10.875-10.875 0-5.9941-4.8809-10.875-10.875-10.875zm0 2c4.9133 0 8.875 3.9617 8.875 8.875s-3.9617 8.875-8.875 8.875-8.875-3.9617-8.875-8.875 3.9617-8.875 8.875-8.875z" stroke-linecap="round" stroke-linejoin="round"/>
 <path id="circle2" d="m36.068 8.7754c-4.1352 0-7.5078 3.3746-7.5078 7.5098 0 4.1352 3.3726 7.5078 7.5078 7.5078 4.1352 0 7.5098-3.3726 7.5098-7.5078 0-4.1352-3.3746-7.5098-7.5098-7.5098zm0 2c3.0543 0 5.5098 2.4554 5.5098 5.5098s-2.4554 5.5078-5.5098 5.5078c-3.0543 0-5.5078-2.4535-5.5078-5.5078s2.4535-5.5098 5.5078-5.5098z" stroke-linecap="round" stroke-linejoin="round"/>
 <path id="ellipse2" transform="translate(-9.7376 14.261) rotate(-30)" d="m21.744 5.5938c-1.2964 0-2.4397 0.74395-3.3477 1.8281-0.908 1.0842-1.6549 2.5482-2.2812 4.3164-1.2527 3.5365-2 8.3006-2 13.562 0 5.2619 0.74728 10.026 2 13.562 0.62636 1.7682 1.3733 3.2342 2.2812 4.3184 0.908 1.0842 2.0512 1.8281 3.3477 1.8281 1.2964 0 2.4377-0.74395 3.3457-1.8281 0.908-1.0842 1.6549-2.5501 2.2812-4.3184 1.2527-3.5365 2-8.3006 2-13.562 0-5.2619-0.74728-10.026-2-13.562-0.62636-1.7682-1.3733-3.2322-2.2812-4.3164-0.908-1.0842-2.0493-1.8281-3.3457-1.8281zm0 2c0.53359 0 1.1348 0.30211 1.8125 1.1113 0.67771 0.80922 1.3568 2.0838 1.9297 3.7012 1.1458 3.2347 1.8848 7.8241 1.8848 12.895s-0.73895 9.6599-1.8848 12.895c-0.57291 1.6173-1.252 2.892-1.9297 3.7012-0.67772 0.80922-1.2789 1.1133-1.8125 1.1133s-1.1367-0.30407-1.8145-1.1133c-0.67771-0.80922-1.3568-2.0838-1.9297-3.7012-1.1458-3.2347-1.8848-7.8241-1.8848-12.895s0.73895-9.6599 1.8848-12.895c0.57291-1.6173 1.252-2.892 1.9297-3.7012 0.67772-0.80921 1.2809-1.1113 1.8145-1.1113z" stroke-linecap="round" stroke-linejoin="round"/>
 <path id="ellipse3" transform="translate(-8.785 15.214) rotate(-30)" d="m23.996 4.291c-1.2964 0-2.4377 0.74395-3.3457 1.8281-0.908 1.0842-1.6549 2.5501-2.2812 4.3184-1.2527 3.5365-2 8.3006-2 13.562s0.74728 10.026 2 13.562c0.62636 1.7682 1.3733 3.2342 2.2812 4.3184 0.908 1.0842 2.0493 1.8281 3.3457 1.8281s2.4397-0.74395 3.3477-1.8281c0.908-1.0842 1.6549-2.5501 2.2812-4.3184 1.2527-3.5365 2-8.3006 2-13.562s-0.74728-10.026-2-13.562c-0.62636-1.7682-1.3733-3.2342-2.2812-4.3184-0.908-1.0842-2.0512-1.8281-3.3477-1.8281zm0 2c0.53359 0 1.1367 0.30407 1.8145 1.1133 0.67772 0.80921 1.3568 2.0838 1.9297 3.7012 1.1458 3.2347 1.8848 7.8241 1.8848 12.895s-0.73895 9.6599-1.8848 12.895c-0.57291 1.6173-1.252 2.892-1.9297 3.7012s-1.2809 1.1133-1.8145 1.1133-1.1348-0.30407-1.8125-1.1133-1.3568-2.0838-1.9297-3.7012c-1.1458-3.2347-1.8848-7.8241-1.8848-12.895s0.73895-9.6599 1.8848-12.895c0.57291-1.6173 1.252-2.892 1.9297-3.7012 0.67772-0.80922 1.2789-1.1133 1.8125-1.1133z" stroke-linecap="round" stroke-linejoin="round"/>
 <path id="path3" d="m17.938 5.1719c-0.54302 0.039151-1.0655 0.18445-1.541 0.45898-1.1227 0.6482-1.7401 1.863-1.9844 3.2559-0.24427 1.3929-0.15807 3.0364 0.18359 4.8809 0.68332 3.689 2.4179 8.1871 5.0488 12.744 2.631 4.5571 5.6606 8.3118 8.5137 10.748 1.4265 1.2181 2.8063 2.1128 4.1348 2.5977s2.6897 0.55832 3.8125-0.08984c0.99413-0.57396 1.5967-1.6065 1.8848-2.7891 0.28802-1.1826 0.30257-2.5634 0.10938-4.1133-0.38638-3.0998-1.6199-6.8864-3.5781-10.865a1 1 0 0 0-1.3398-0.45508 1 1 0 0 0-0.45508 1.3379c1.8818 3.8236 3.0429 7.4566 3.3887 10.23 0.17288 1.387 0.1353 2.5564-0.06836 3.3926-0.20366 0.8362-0.53224 1.2931-0.94141 1.5293-0.46222 0.26683-1.1354 0.30528-2.127-0.05664s-2.2167-1.1261-3.5215-2.2402c-2.6096-2.2283-5.5448-5.8353-8.0801-10.227-2.5352-4.3913-4.1914-8.7352-4.8164-12.109-0.3125-1.6871-0.36005-3.1303-0.17774-4.1699 0.18232-1.0396 0.55155-1.6023 1.0137-1.8691 0.39141-0.22598 0.91703-0.28838 1.6895-0.082031 0.77242 0.20635 1.7383 0.69588 2.7891 1.4551 2.1016 1.5184 4.5374 4.0924 6.832 7.3574a1 1 0 0 0 1.3945 0.24219 1 1 0 0 0 0.24219-1.3926c-2.3914-3.4028-4.9265-6.1155-7.2969-7.8281-1.1852-0.85631-2.3302-1.4677-3.4453-1.7656-0.55755-0.14895-1.121-0.21689-1.6641-0.17773z" stroke-linecap="round" stroke-linejoin="round"/>
</svg>
