<?xml version="1.0" encoding="UTF-8"?>
<svg id="b" version="1.1" viewBox="0 0 48 48" xmlns="http://www.w3.org/2000/svg">
 <defs id="defs1">
  <style id="style1">.c{fill:none;stroke:#000;stroke-width:2px;stroke-linecap:round;stroke-linejoin:round;}</style>
 </defs>
 <path id="circle1" d="m30.5 16.5c-4.1303 0-7.5 3.3697-7.5 7.5s3.3697 7.5 7.5 7.5 7.5-3.3697 7.5-7.5-3.3697-7.5-7.5-7.5zm0 2c3.0494 0 5.5 2.4506 5.5 5.5s-2.4506 5.5-5.5 5.5-5.5-2.4506-5.5-5.5 2.4506-5.5 5.5-5.5z" stop-color="#000000" stroke-linecap="round" stroke-linejoin="round"/>
 <path id="path1" d="m17.5 29.5c-4.1303 0-7.5 3.3697-7.5 7.5s3.3697 7.5 7.5 7.5 7.5-3.3697 7.5-7.5v-6.5a1.0001 1.0001 0 0 0-1-1zm0 2h5.5v5.5c0 3.0495-2.4505 5.5-5.5 5.5s-5.5-2.4505-5.5-5.5 2.4505-5.5 5.5-5.5z" stop-color="#000000" stroke-linecap="round" stroke-linejoin="round"/>
 <path id="path2" d="m24 3.5a1.0001 1.0001 0 0 0-1 1v13a1.0001 1.0001 0 0 0 1 1h6.5c4.1303 0 7.5-3.3697 7.5-7.5 0-4.1303-3.3697-7.5-7.5-7.5zm1 2h5.5c3.0495 0 5.5 2.4505 5.5 5.5 0 3.0495-2.4505 5.5-5.5 5.5h-5.5z" stop-color="#000000" stroke-linecap="round" stroke-linejoin="round"/>
 <path id="path3" d="m17.5 3.5c-4.1303 0-7.5 3.3697-7.5 7.5 0 4.1303 3.3697 7.5 7.5 7.5h6.5a1.0001 1.0001 0 0 0 1-1v-13a1.0001 1.0001 0 0 0-1-1zm0 2h5.5v11h-5.5c-3.0495 0-5.5-2.4505-5.5-5.5 0-3.0495 2.4505-5.5 5.5-5.5z" stop-color="#000000" stroke-linecap="round" stroke-linejoin="round"/>
 <path id="path4" d="m17.5 16.5c-4.1303 0-7.5 3.3697-7.5 7.5s3.3697 7.5 7.5 7.5h6.5a1.0001 1.0001 0 0 0 1-1v-13a1.0001 1.0001 0 0 0-1-1zm0 2h5.5v11h-5.5c-3.0495 0-5.5-2.4505-5.5-5.5s2.4505-5.5 5.5-5.5z" stop-color="#000000" stroke-linecap="round" stroke-linejoin="round"/>
</svg>
