<?xml version="1.0" encoding="UTF-8"?>
<svg id="svg1" version="1.1" viewBox="0 0 48 48" xmlns="http://www.w3.org/2000/svg">
 <defs id="defs1">
  <style id="style1">.a{fill:none;stroke:#000;stroke-width:2px;stroke-linecap:round;stroke-linejoin:round;}</style>
 </defs>
 <path id="polyline1" d="m41.277 33.691a1 1 0 0 0-1 1v4.6816l-3.4668-5.2324a1.0001 1.0001 0 0 0-1.834 0.55078v8a1 1 0 0 0 1 1 1 1 0 0 0 1-1v-4.6797l3.4668 5.2324a1.0001 1.0001 0 0 0 1.834-0.55274v-8a1 1 0 0 0-1-1z" stroke-linecap="round" stroke-linejoin="round"/>
 <path id="path1" d="m31.012 0.75977a1.0001 1.0001 0 0 0-0.8125 0.10742c-4.4737 2.7643-7.3966 7.4644-7.8984 12.699a1.0001 1.0001 0 0 0 0.99414 1.0957h0.70508c2.4676-4.3e-5 4.755 0.94046 6.5938 2.4629-0.77102-0.12426-1.5404-0.28622-2.3301-0.19141a1.0001 1.0001 0 0 0-0.35742 1.8711c2.5604 1.3893 4.1374 4.0794 4.0996 6.9922a1.0001 1.0001 0 0 0 0 0.01172c0 3.2807-1.3155 5.1058-2.998 6.2656-1.6825 1.1599-3.8184 1.5625-5.1758 1.5625-3.8644 0-5.8753-1.7439-7.084-3.5273-1.0497-1.5489-1.334-2.8839-1.4062-3.2617 0.04048-0.12087 0.17292-0.61138 0.94336-1.3262 0.85922-0.79716 2.3405-1.6504 5.0742-1.6504 1.2736 0 2.0865-0.87545 2.6426-1.5684 0.55609-0.69291 0.89258-1.373 0.89258-1.373a1.0001 1.0001 0 0 0-0.46875-1.3535s-1.7138-0.8058-4.1484-2.209c-0.8961-0.55734-1.6999-1.2504-2.3809-2.0566a1.0001 1.0001 0 0 0-0.04883-0.05273c-0.0826-0.08469-0.17752-0.15557-0.26562-0.23438-0.15384-0.70204-0.2605-1.4136-0.26172-2.1328v-0.0059c0.0052-0.77516 0.08619-1.5473 0.24219-2.3066a1.0001 1.0001 0 0 0-1.4453-1.0859c-1.4768 0.77604-2.7872 1.8026-4.0039 2.9355-0.2234-1.1263-0.51754-2.2458-0.44531-3.3965a1.0001 1.0001 0 0 0-1.5371-0.90625c-5.3979 3.4611-8.6555 9.4454-8.6309 15.857v2e-3c2.6e-6 6.57e-4 -2.7e-6 0.0013 0 2e-3 0.00125 9.6029 4.2476 15.559 9.1719 18.957 4.925 3.3982 10.418 4.3398 13.328 4.3398a1.0001 1.0001 0 0 0 0.0078-0.0039v0.0039c3.6187-0.02645 7.178-0.92303 10.379-2.6113a1 1 0 0 0 0.41797-1.3496 1 1 0 0 0-1.3516-0.41797c-2.9154 1.5376-6.1572 2.3535-9.4531 2.3788h-0.0039c-2.4558-6.37e-4 -7.7073-0.89373-12.189-3.9863-4.4838-3.0937-8.3066-8.2863-8.3066-17.314a1.0001 1.0001 0 0 0 0-0.0039c-0.020631-5.0844 2.3598-9.7694 6.2441-12.943 0.09664 1.2585 0.29201 2.5072 0.69531 3.709a1.0001 1.0001 0 0 0 0.94727 0.68164h0.07226a1.0001 1.0001 0 0 0 0.75391-0.3418c0.92289-1.0584 2.01-1.9409 3.1621-2.7344-0.0079 0.1775-0.05359 0.35149-0.05469 0.5293a1.0001 1.0001 0 0 0 0 0.0078c0.0011 0.97015 0.11907 1.937 0.35156 2.8789a1.0001 1.0001 0 0 0 0.37109 0.56055c0.13277 0.0994 0.25725 0.20939 0.37305 0.32812l-0.04687-0.05469c0.81913 0.96983 1.7845 1.8055 2.8633 2.4746a1.0001 1.0001 0 0 0 0.02734 0.01563c1.9318 1.1146 2.7136 1.4721 3.3105 1.7637-0.06661 0.09449-0.05074 0.09987-0.12891 0.19726-0.40251 0.50154-0.91008 0.82031-1.082 0.82031-3.1669 0-5.2265 1.0636-6.4336 2.1836-1.2071 1.1199-1.6035 2.3555-1.6035 2.3555a1.0001 1.0001 0 0 0-0.0332 0.44336s0.3239 2.1968 1.8027 4.3789c1.4788 2.1821 4.2435 4.4043 8.7402 4.4043 1.7243 0 4.1768-0.44514 6.3105-1.916 2.1322-1.4698 3.8608-4.0587 3.8633-7.9043 0.02956-2.3895-0.87748-4.613-2.3613-6.3867 0.60161 0.24235 1.2074 0.48695 1.7188 0.90625a1.0001 1.0001 0 0 0 1.5098-1.2559c-2.1-3.8042-6.0447-6.1677-10.361-6.3496 0.64697-3.8371 2.7555-7.228 5.9102-9.5059 0.91835 1.7369 1.9891 3.388 3.291 4.8633 2.6229 2.9715 5.9 6.5033 7.1719 9.8691a1.0001 1.0001 0 0 0 1.9199-0.5293c-0.01089-0.06089-0.0453-0.11499-0.05664-0.17578l0.0078-2e-3c-0.0066-0.01738-0.01875-0.03342-0.02539-0.05078-0.09369-0.49647-0.34208-0.94621-0.46484-1.4355 1.1523 2.0028 2.233 4.8046 2.2344 9.1426-0.03975 2.8716-0.67922 5.7023-1.877 8.3125a1 1 0 0 0 0.49219 1.3262 1 1 0 0 0 1.3262-0.49219c1.3148-2.8653 2.0158-5.9727 2.0586-9.125a1.0001 1.0001 0 0 0 0-0.01367c1.6e-5 -5.3397-1.5022-8.9781-3.043-11.264-1.5408-2.2855-3.1973-3.2754-3.1973-3.2754a1.0001 1.0001 0 0 0-1.2988 0.74023c-1.2549-1.5529-2.5892-3.0367-3.748-4.3496-1.4497-1.6427-2.6559-3.4852-3.582-5.4707a1.0001 1.0001 0 0 0-0.61914-0.53516z" stroke-linecap="round" stroke-linejoin="round"/>
 <path id="circle1" d="m38.5 30.5c-4.4064 0-8 3.5936-8 8s3.5936 8 8 8 8-3.5936 8-8-3.5936-8-8-8zm0 2c3.3256 0 6 2.6744 6 6s-2.6744 6-6 6-6-2.6744-6-6 2.6744-6 6-6z" stroke-linecap="round" stroke-linejoin="round"/>
</svg>
