<?xml version="1.0" encoding="UTF-8" standalone="no"?>
<svg
   id="Layer_2"
   data-name="Layer 2"
   viewBox="0 0 48 48"
   version="1.1"
   sodipodi:docname="firefox.svg"
   xmlns:inkscape="http://www.inkscape.org/namespaces/inkscape"
   xmlns:sodipodi="http://sodipodi.sourceforge.net/DTD/sodipodi-0.dtd"
   xmlns="http://www.w3.org/2000/svg"
   xmlns:svg="http://www.w3.org/2000/svg">
  <sodipodi:namedview
     id="namedview1"
     pagecolor="#ffffff"
     bordercolor="#666666"
     borderopacity="1.0"
     inkscape:showpageshadow="2"
     inkscape:pageopacity="0.0"
     inkscape:pagecheckerboard="0"
     inkscape:deskcolor="#d1d1d1" />
  <defs
     id="defs1">
    <style
       id="style1">.cls-1{fill:none;stroke:#000;stroke-width:2px;stroke-linecap:round;stroke-linejoin:round;}</style>
  </defs>
  <path
     style="color:#000000;fill:#000000;stroke-linecap:round;stroke-linejoin:round;-inkscape-stroke:none"
     d="M 31.003906,0.76171875 A 1.0001,1.0001 0 0 0 30.193359,0.86914063 C 25.725473,3.63533 22.806498,8.3335833 22.304687,13.564453 a 1.0001,1.0001 0 0 0 0.996094,1.095703 H 24 c 2.46901,-5.84e-4 4.758011,0.941309 6.597656,2.464844 -0.774601,-0.12371 -1.548865,-0.286016 -2.341797,-0.1875 a 1.0001,1.0001 0 0 0 -0.351562,1.873047 c 2.562988,1.385598 4.142571,4.073011 4.105469,6.986328 a 1.0001,1.0001 0 0 0 0,0.01367 c 0,3.279817 -1.317327,5.104688 -3.001954,6.265625 -1.684626,1.160937 -3.821718,1.564453 -5.177734,1.564453 -3.863808,0 -5.874622,-1.742383 -7.082031,-3.525391 -1.049924,-1.550446 -1.332847,-2.888221 -1.404297,-3.263672 0.04013,-0.120346 0.174747,-0.61362 0.945312,-1.330078 0.858591,-0.798302 2.337265,-1.652343 5.070313,-1.652343 1.274424,0 2.08877,-0.874747 2.644531,-1.56836 0.555761,-0.693613 0.890625,-1.375 0.890625,-1.375 a 1.0001,1.0001 0 0 0 -0.472656,-1.351562 c 0,0 -1.725117,-0.807757 -4.142578,-2.13086 -0.897599,-0.556149 -1.702478,-1.246497 -2.386719,-2.050781 a 1.0001,1.0001 0 0 0 -0.0332,-0.03711 c -0.08501,-0.09069 -0.186947,-0.163105 -0.279297,-0.246094 -0.152098,-0.702077 -0.257898,-1.413971 -0.259766,-2.132812 v -0.0039 c -2e-6,-0.0013 3e-6,-0.0026 0,-0.0039 0.0058,-0.77616 0.08633,-1.549765 0.240235,-2.310547 A 1.0001,1.0001 0 0 0 16.119141,9.5722656 C 14.644782,10.336057 13.334256,11.349627 12.117188,12.470703 11.89116,11.341378 11.594911,10.216737 11.667969,9.0625 A 1.0001,1.0001 0 0 0 10.128906,8.1582031 C 4.7442236,11.615062 1.4912005,17.581761 1.5,23.980469 c 0,9.608617 4.2461846,15.565682 9.171875,18.96289 4.92569,3.397209 10.420516,4.335938 13.328125,4.335938 a 1.0001,1.0001 0 0 0 0.0078,0 C 36.321108,47.172764 46.318792,37.236251 46.5,24.923828 a 1.0001,1.0001 0 0 0 0,-0.01367 c 0,-5.336079 -1.504849,-8.972932 -3.046875,-11.257812 -1.542026,-2.28488 -3.197266,-3.275391 -3.197266,-3.275391 a 1.0001,1.0001 0 0 0 -1.300781,0.742188 C 37.700717,9.5777168 36.368501,8.0994801 35.214844,6.7734375 a 1.0001,1.0001 0 0 0 -0.0039,-0.00391 C 33.763624,5.1227655 32.556298,3.2796728 31.625,1.2949219 A 1.0001,1.0001 0 0 0 31.003906,0.76171875 Z M 30.417969,3.2265625 c 0.920642,1.7349908 1.992529,3.3858525 3.291015,4.8632813 2.637341,3.0311612 5.930646,6.5137522 7.173828,9.8593752 a 1.0001,1.0001 0 0 0 1.921875,-0.525391 c -0.0105,-0.05886 -0.04377,-0.111152 -0.05469,-0.169922 l 0.0078,-0.002 c -0.0068,-0.01824 -0.02048,-0.03451 -0.02734,-0.05273 -0.09256,-0.492065 -0.341484,-0.93688 -0.462891,-1.421875 1.150839,2.001639 2.230714,4.796818 2.232422,9.123047 -0.168624,11.24278 -9.256658,20.277416 -20.5,20.378906 -8.77e-4,0 -0.003,0 -0.0039,0 -2.453512,-6.37e-4 -7.704803,-0.890742 -12.1875,-3.982422 C 7.3242935,38.20409 3.5,33.011833 3.5,23.980469 a 1.0001,1.0001 0 0 0 0,-0.002 c -0.00751,-5.071962 2.3708517,-9.741695 6.2441406,-12.910157 0.096954,1.259862 0.2934654,2.508461 0.6992184,3.710938 a 1.0001,1.0001 0 0 0 0.947266,0.681641 h 0.07031 a 1.0001,1.0001 0 0 0 0.75,-0.339844 c 0.925259,-1.04991 2.012919,-1.923348 3.166015,-2.707031 -0.0085,0.184031 -0.05538,0.364467 -0.05664,0.548828 a 1.0001,1.0001 0 0 0 0,0.0098 c 0.0018,0.968857 0.11791,1.933776 0.347656,2.875 a 1.0001,1.0001 0 0 0 0.388672,0.574219 c 0.124111,0.08913 0.239252,0.191251 0.34375,0.302734 l -0.03125,-0.03711 c 0.821079,0.965128 1.787548,1.79638 2.865234,2.462891 a 1.0001,1.0001 0 0 0 0.04492,0.02734 c 1.914268,1.04976 2.682454,1.39874 3.283203,1.6875 -0.06264,0.08835 -0.04652,0.09296 -0.119141,0.183594 -0.401738,0.501386 -0.908409,0.820313 -1.083984,0.820313 -3.166946,0 -5.227187,1.067757 -6.433594,2.189453 -1.206407,1.121695 -1.601562,2.357422 -1.601562,2.357422 a 1.0001,1.0001 0 0 0 -0.0332,0.443359 c 0,0 0.323192,2.194965 1.800781,4.376953 1.477589,2.181989 4.242097,4.404297 8.738281,4.404297 1.723981,0 4.177131,-0.446409 6.3125,-1.917969 2.134205,-1.470758 3.865301,-4.059545 3.867188,-7.90625 0.02906,-2.394965 -0.881499,-4.622383 -2.373047,-6.396484 0.605761,0.242303 1.214537,0.489466 1.728515,0.912109 A 1.0001,1.0001 0 0 0 34.875,19.076172 c -2.10007,-3.803447 -6.04355,-6.16332 -10.359375,-6.345703 0.64632,-3.8346195 2.751718,-7.2248751 5.902344,-9.5039065 z"
     id="path1" />
</svg>
