<?xml version="1.0" encoding="UTF-8"?>
<svg id="svg18" version="1.1" viewBox="0 0 48 48" xmlns="http://www.w3.org/2000/svg">
 <defs id="defs4">
  <style id="style2">.a{fill:none;stroke:#000;stroke-linecap:round;stroke-linejoin:round;}</style>
 </defs>
 <path id="path6" d="m38.895 4.5137c-1.0664 0.095286-2.1669 0.45019-3.2227 0.93164-1.5991 0.7292-3.0787 1.8244-4.3945 2.9902-0.048031-0.10732-0.037985-0.2564-0.095703-0.35742-0.33685-0.58957-0.88982-1.0672-1.5508-1.2441-1.0256-0.27455-2.0583 0.20224-3.0938 0.95508-0.64093-0.8568-1.3507-1.5523-2.3496-1.6504-0.66507-0.06533-1.3395 0.17464-1.8926 0.59375-0.31405 0.23799-0.57812 0.65772-0.85742 1.0059-0.89364-0.58131-1.8116-0.99478-2.7988-0.77539-0.64557 0.14346-1.2278 0.56839-1.625 1.1426-0.14176 0.2049-0.18495 0.53019-0.29297 0.77148-1.5089-1.1767-3.3864-2.3303-5.2852-3.1582-1.1833-0.51599-2.3087-0.90406-3.2969-1.0645-0.49406-0.080195-0.95446-0.11221-1.4238-0.021484-0.46937 0.090728-1.0189 0.3697-1.2969 0.89648-0.3663 0.69426-0.48703 1.5272-0.56445 2.6465-0.077424 1.1193-0.055531 2.4778 0.10547 3.9648 0.28989 2.6775 1.1325 5.7365 2.625 8.5078-0.8628 0.47934-1.6532 1.0306-1.9336 2.043-0.18563 0.67018-0.00885 1.4369 0.41211 2.0645 0.25614 0.38186 0.76622 0.74323 1.1934 1.1074-0.76635 0.95264-1.2793 1.9174-1.0371 2.9316 0.22946 0.96107 1.0418 1.5495 2.0254 2.0195-0.5673 1.0601-0.83798 2.1409-0.32812 3.0605 0.5043 0.90965 1.5439 1.2611 2.7168 1.3613-0.12278 0.99572-0.01852 1.9345 0.61719 2.5684 0.49688 0.49546 1.1505 0.71847 1.8633 0.79102-0.20866 0.45846-0.27791 0.55174-0.49414 1.1094-0.25982 0.67005-0.48894 1.3251-0.58008 1.9473-0.04557 0.3111-0.09939 0.61701 0.07813 1.0586 0.08876 0.22079 0.28346 0.48982 0.56836 0.64258 0.14646 0.07852 0.27836 0.04765 0.42383 0.06445a1.0001 1.0001 0 0 0 0.04492 0.05664v-0.04883c0.12057 0.0098 0.25588 0.07082 0.35547 0.05469 0.24097-0.03898 0.2293-0.05751 0.30664-0.08594 0.07734-0.02843 0.164-0.06259 0.26562-0.10352 0.20326-0.08185 0.4635-0.1917 0.76758-0.32031 0.60815-0.25722 1.3843-0.59129 2.1523-0.91797s1.5295-0.64552 2.0918-0.86914c0.1189-0.04729 0.1787-0.06788 0.27734-0.10547 0.27308 0.40239 0.51733 0.87036 0.86133 1.127 0.56227 0.41941 1.2677 0.60199 1.9043 0.50977 0.90473-0.13108 1.5645-0.70262 2.1465-1.375 0.38322 0.32976 0.77265 0.7587 1.1602 0.9375 0.6819 0.31463 1.4429 0.3556 2.0625 0.12109 0.92145-0.34877 1.4402-1.058 1.8945-1.7852 0.39858 0.19475 0.81151 0.47354 1.1992 0.54102 0.69273 0.12056 1.4146-0.01905 1.9512-0.39648 0.80352-0.5652 1.1279-1.4567 1.3496-2.4238 0.37253 0.05889 0.77736 0.19025 1.1191 0.16602 0.66386-0.04708 1.3073-0.29114 1.7617-0.75781 0.66685-0.68479 0.7298-1.6367 0.60938-2.6484 0.89376-0.14141 1.7416-0.37713 2.3379-1.1191 0.41086-0.51128 0.58211-1.2237 0.50586-1.9297-0.04567-0.42284-0.30125-0.91395-0.48633-1.3789 0.45772-0.23788 0.9776-0.45712 1.3027-0.74414 0.5314-0.46911 0.90996-1.0989 0.94922-1.7773 0.05734-0.99085-0.49863-1.7539-1.1914-2.4922 0.80242-0.67567 1.4412-1.418 1.4707-2.4062 0.02026-0.67765-0.26512-1.3375-0.7207-1.8789-0.24054-0.28588-0.65838-0.52099-0.99414-0.77539 0.56006-0.77146 1.0252-1.6637 1.377-2.7266 0.50037-1.5118 0.84482-3.2429 1.0449-4.9277s0.25594-3.3149 0.15039-4.6465c-0.052777-0.66578-0.14305-1.2547-0.30078-1.7715-0.15773-0.51678-0.34254-1.0222-0.92578-1.377-0.91738-0.55805-1.9498-0.72414-3.0156-0.62891zm0.12109 2.0195c0.7486-0.071763 1.3871 0.031194 1.8555 0.31641-0.17957-0.10922-0.03866-0.04553 0.05273 0.25391 0.09139 0.29944 0.17346 0.77428 0.21875 1.3457 0.09059 1.1429 0.04451 2.6786-0.14258 4.2539-0.18709 1.5753-0.51474 3.1969-0.95703 4.5332s-1.0406 2.372-1.5078 2.7656a1.0001 1.0001 0 0 0 0.14844 1.6328c0.67398 0.38507 1.1131 0.7454 1.3438 1.0195 0.23065 0.27413 0.25544 0.41646 0.25195 0.5332-7e-3 0.23348-0.36861 0.83286-1.457 1.5391a1.0001 1.0001 0 0 0-0.13281 1.5742c0.98046 0.90156 1.3208 1.5849 1.3125 1.7285-0.0042 0.07181-0.01061 0.15884-0.27539 0.39258-0.26478 0.23374-0.77997 0.54387-1.5645 0.86523a1.0001 1.0001 0 0 0-0.50195 1.3965c0.38588 0.72291 0.55159 1.2581 0.58594 1.5762 0.03435 0.31803-0.01244 0.38359-0.07617 0.46289-0.12746 0.15861-0.84144 0.44674-1.9629 0.54297a1.0001 1.0001 0 0 0-0.87695 1.2637c0.31407 1.131 0.14291 1.6897 0.01758 1.8184-0.06266 0.06435-0.1609 0.13442-0.46875 0.15625-0.30785 0.02183-0.79895-0.03482-1.4375-0.23438a1.0001 1.0001 0 0 0-1.2871 0.81055c-0.1678 1.1619-0.54307 1.8947-0.75391 2.043-0.10542 0.07415-0.17615 0.10943-0.45703 0.06055-0.28088-0.04888-0.74903-0.23407-1.3613-0.65039a1.0001 1.0001 0 0 0-1.4199 0.31445c-0.54926 0.91984-1.1026 1.581-1.3633 1.6797-0.13033 0.04933-0.21329 0.07399-0.51758-0.06641-0.30429-0.1404-0.78766-0.49461-1.3906-1.168a1.0001 1.0001 0 0 0-1.5781 0.11719c-0.54542 0.82756-1.1866 1.2861-1.4629 1.3262-0.13814 0.02001-0.21816 0.01719-0.42188-0.13477s-0.50213-0.49687-0.80664-1.1191a1.0001 1.0001 0 0 0-0.08789-0.14648c-4.28e-4 -5.9e-4 -0.11314-0.13465-0.17188-0.18359-0.05874-0.04894-0.11691-0.08484-0.16992-0.11328-0.10602-0.05688-0.19255-0.08229-0.26172-0.09766-0.13834-0.03073-0.21594-0.02608-0.27734-0.02344-0.1228 0.0053-0.17941 0.02029-0.23633 0.0332-0.11384 0.02583-0.20106 0.05486-0.30469 0.08984-0.20727 0.06996-0.45854 0.16496-0.75586 0.2832-0.59464 0.23649-1.3619 0.5599-2.1348 0.88867-0.69073 0.29381-1.3548 0.57757-1.9219 0.81836 0.07241-0.22266 0.09177-0.36166 0.18555-0.60352 0.47111-1.2149 1.1094-2.4941 1.1094-2.4941a1.0001 1.0001 0 0 0-1.1582-1.4121c-0.98544 0.26986-1.5634 0.07663-1.7734-0.13281-0.21004-0.20944-0.37909-0.64213 0.04102-1.6738a1.0001 1.0001 0 0 0-1.0586-1.3691c-1.2929 0.17197-1.8367-0.18356-1.9785-0.43945s-0.15931-0.88685 0.69727-1.8945a1.0001 1.0001 0 0 0-0.46094-1.6016c-1.2729-0.40016-1.6858-0.86021-1.7383-1.0801s0.10372-0.85214 1.1289-1.8672a1.0001 1.0001 0 0 0-0.13672-1.5332c-0.78149-0.53809-1.2363-0.99495-1.4336-1.2891-0.19728-0.29411-0.16442-0.34422-0.14453-0.41602 0.03977-0.14358 0.65382-0.73328 1.7188-1.2617a1.0001 1.0001 0 0 0 0.40625-1.4219c-1.6266-2.6299-2.458-5.8642-2.7559-8.6152-0.14893-1.3755-0.16549-2.6307-0.097656-3.6113 0.062821-0.90821 0.23665-1.5214 0.3125-1.7148 0.12132-0.015337 0.33752-0.024392 0.65625 0.027344 0.70383 0.11424 1.7319 0.45008 2.8184 0.92383 2.1729 0.94749 4.6413 2.4711 5.8438 3.627a1.0001 1.0001 0 0 0 1.6758-0.53125c0.13383-0.69429 0.32964-1.1533 0.50195-1.4023s0.27885-0.29808 0.41406-0.32812c0.27043-0.060097 1.0046 0.14234 1.9336 0.89453a1.0001 1.0001 0 0 0 1.4785-0.25c0.39344-0.6332 0.75456-1.0331 1.0176-1.2324 0.26302-0.19931 0.38149-0.2099 0.49023-0.19922 0.21748 0.021364 0.81211 0.42758 1.4707 1.5293a1.0001 1.0001 0 0 0 1.5391 0.21875c1.0947-1.0187 1.8798-1.1738 2.1133-1.1113 0.11675 0.031255 0.2 0.077024 0.33008 0.30469 0.13008 0.22766 0.26049 0.64271 0.30078 1.2305a1.0001 1.0001 0 0 0 1.7246 0.61719c1.3196-1.4019 3.2181-2.8255 5.0312-3.6523 0.90656-0.4134 1.7651-0.66066 2.5137-0.73242zm-20.191 33.83c0.0596 0.1218 0.14877 0.16445 0.21094 0.27734-0.05394-0.0565-0.1214-0.13129-0.12109-0.13086z" color="#000000" stroke-linecap="round" stroke-linejoin="round" style="-inkscape-stroke:none"/>
 <path id="ellipse8" d="m15.725 21.684c-1.6685 0-3.0254 1.3931-3.0254 3.0625 0 1.6694 1.3569 3.0625 3.0254 3.0625 1.6685 0 3.0234-1.3931 3.0234-3.0625 0-1.6694-1.3549-3.0625-3.0234-3.0625zm0 2c0.56759 0 1.0234 0.45436 1.0234 1.0625s-0.45584 1.0625-1.0234 1.0625c-0.56759 0-1.0254-0.45436-1.0254-1.0625s0.4578-1.0625 1.0254-1.0625z" color="#000000" stroke-linecap="round" stroke-linejoin="round" style="-inkscape-stroke:none"/>
 <path id="ellipse10" d="m31.904 21.873c-1.6685 0-3.0234 1.3931-3.0234 3.0625s1.3549 3.0625 3.0234 3.0625 3.0254-1.3931 3.0254-3.0625-1.3569-3.0625-3.0254-3.0625zm0 2c0.56759 0 1.0254 0.45436 1.0254 1.0625s-0.4578 1.0625-1.0254 1.0625c-0.56759 0-1.0234-0.45436-1.0234-1.0625s0.45584-1.0625 1.0234-1.0625z" color="#000000" stroke-linecap="round" stroke-linejoin="round" style="-inkscape-stroke:none"/>
 <path id="path12" d="m37.277 7.793c-0.6213 0.13307-1.2065 0.37889-1.7305 0.60938-1.048 0.46097-1.8613 0.99219-1.8613 0.99219l0.54492-0.16211a1.0001 1.0001 0 0 0-0.77734 1.6289c0.38007 0.47106 0.36277 0.5972 0.35352 0.73633-0.0093 0.13912-0.13593 0.40699-0.25195 0.93164a1.0001 1.0001 0 0 0 1.0098 1.2148c1.2175-0.04109 1.6524 0.2275 1.9023 0.57812 0.24994 0.35063 0.37975 1.0606 0.25781 2.0898a1.0001 1.0001 0 0 0 1.748 0.77344c0.42965-0.49476 0.65677-1.0658 0.95508-1.8418 0.29831-0.77596 0.58608-1.6975 0.79688-2.6211s0.35045-1.8375 0.3125-2.668c-0.018973-0.41525-0.075874-0.81624-0.25586-1.2148-0.17998-0.3986-0.54985-0.81817-1.0547-0.98242-0.67004-0.218-1.3279-0.19752-1.9492-0.064453zm1.2012 1.9941c0.02307 0.082433 0.05181 0.16807 0.06055 0.35937 0.02347 0.51376-0.077 1.313-0.26367 2.1309-0.06584 0.28848-0.17016 0.54067-0.25195 0.82812-0.50122-0.65826-1.3206-1.0004-2.2695-1.1758 0.01408-0.09018 0.04004-0.09647 0.04687-0.19922 0.01999-0.30064-0.25975-0.66497-0.375-1.0059 0.28639-0.16722 0.41108-0.26493 0.92774-0.49219 0.82871-0.36453 1.7436-0.51294 2.125-0.44531z" color="#000000" stroke-linecap="round" stroke-linejoin="round" style="-inkscape-stroke:none"/>
 <path id="path14" d="m9.5547 7.5332c-0.27795-0.040887-0.55472-0.064248-0.89453 0.017578-0.33981 0.081826-0.81025 0.38566-0.97461 0.8418-0.59823 1.6606-0.3959 3.6993 0.00781 5.459 0.20186 0.87983 0.4639 1.6783 0.77539 2.3242 0.15574 0.32295 0.32071 0.60758 0.53516 0.86524 0.21445 0.25766 0.4864 0.54822 1.0117 0.62695a1.0001 1.0001 0 0 0 1.1387-1.1309c-0.14891-1.0307-0.12533-1.7068-0.04492-2.0664 0.08041-0.35963 0.14264-0.37541 0.21289-0.41797 0.1405-0.08512 0.86693-0.05537 1.8379-0.125a1.0001 1.0001 0 0 0 0.82812-1.4336c-0.22421-0.46233-0.08922-1.0023 0.32617-1.3047a1.0001 1.0001 0 0 0 0.11719-0.10156 1.0001 1.0001 0 0 0-0.16602-1.5469c-0.62907-0.40432-1.8161-1.0297-2.9961-1.498-0.58998-0.23417-1.1589-0.42799-1.7148-0.50977zm3.582 2.041c-0.0571 0.04157-0.05789 0.12112-0.11133 0.16602l-0.0078-0.066406zm-3.627 0.013672c0.27763 0.063655 0.60799 0.15034 1.0215 0.31445 0.69096 0.27424 1.2275 0.5863 1.7871 0.88867-0.17739 0.37199-0.26107 0.70741-0.2793 1.1191-0.52636-0.0087-1.1157 0.04503-1.7539 0.43164-0.31595 0.19141-0.44655 0.62702-0.65234 0.98047-0.28901-1.3054-0.32335-2.7409-0.12305-3.7344z" color="#000000" stroke-linecap="round" stroke-linejoin="round" style="-inkscape-stroke:none"/>
 <path id="path16" d="m23.766 23.176c-0.56415 9e-3 -1.1128 0.06547-1.6074 0.18359-0.49464 0.11812-0.96879 0.18822-1.4004 0.79102-0.35372 0.49384-0.45123 1.1262-0.3418 1.6543 0.10943 0.52805 0.38085 0.97233 0.72266 1.3477 0.68362 0.75065 1.6889 1.2774 2.8379 1.2832 1.2505 0.0062 2.2917-0.60736 2.9199-1.418 0.31412-0.4053 0.53959-0.8727 0.59375-1.4043 0.05416-0.5316-0.11745-1.1568-0.54883-1.5879-0.45742-0.4572-0.96929-0.59794-1.5039-0.70898s-1.1077-0.14962-1.6719-0.14062zm0.0332 1.998c0.44059-7e-3 0.89252 0.03096 1.2324 0.10156 0.31468 0.06536 0.47504 0.17599 0.46094 0.15234-0.0091 0.06181-0.05249 0.20616-0.17578 0.36524-0.2572 0.33186-0.76844 0.64537-1.3301 0.64258-0.48629-0.0024-1.0653-0.29523-1.3691-0.62891-0.15194-0.16684-0.22618-0.33096-0.24219-0.4082-0.01601-0.07724-0.01891-0.04667 0.0078-0.08398-0.1887 0.26355-0.05932 0.06177 0.24024-0.0098 0.29955-0.07153 0.73519-0.12383 1.1758-0.13086z" color="#000000" stroke-linecap="round" stroke-linejoin="round" style="-inkscape-stroke:none"/>
</svg>
