<?xml version="1.0" encoding="UTF-8"?>
<svg id="svg22" version="1.1" viewBox="0 0 48 48" xmlns="http://www.w3.org/2000/svg">
 <defs id="defs12">
  <style id="style2">.a,.cls-1{fill:none;stroke:#000;stroke-width:2px;stroke-linecap:round;stroke-linejoin:round}</style>
 </defs>
 <path id="path14" d="m40.252 10a1 1 0 0 0-1 1v6.4922c0 0.04349-0.02134 0.0843-0.05859 0.11133l-3.5293 2.5664c-0.55275 0.40098-0.88281 1.0458-0.88281 1.7305v0.94922c1.77e-4 0.68339 0.32959 1.3274 0.88281 1.7285l3.0781 2.2383c0.05152 0.03747 0.07047 0.09371 0.05078 0.1543l-1.0547 3.2441a1.0001 1.0001 0 0 0 0 2e-3c-0.01944 0.05997-0.06653 0.09375-0.13086 0.09375h-3.8066c-0.68451 0-1.3282 0.33086-1.7285 0.88086l-0.56055 0.76953a1.0001 1.0001 0 0 0 0 2e-3c-0.4016 0.55254-0.51533 1.2662-0.30469 1.916l1.1777 3.621c0.02036 0.06281 0.0048 0.11348-0.04883 0.15234a1.0001 1.0001 0 0 0-2e-3 0l-2.7598 2.0059a1.0001 1.0001 0 0 0-2e-3 2e-3c-0.04941 0.03601-0.10879 0.03601-0.1582 0a1.0001 1.0001 0 0 0-2e-3 -2e-3l-3.0801-2.2363c-0.55254-0.4016-1.2662-0.51533-1.916-0.30469l-0.9043 0.29492a1.0001 1.0001 0 0 0-2e-3 0c-0.6484 0.21164-1.1595 0.72269-1.3711 1.3711l-1.1758 3.6211a1.0001 1.0001 0 0 0 0 2e-3c-0.019246 0.05992-0.066339 0.093703-0.13067 0.093703h-13.082a1 1 0 0 0-1 1 1 1 0 0 0 1 1h13.082c0.92112 0 1.7482-0.59939 2.0332-1.4766v-2e-3l1.1758-3.6191c0.014-0.04289 0.04525-0.0735 0.08789-0.08789l0.9043-0.29492c0.0429-0.01391 0.08657-7e-3 0.12305 0.01953a1.0001 1.0001 0 0 0 2e-3 2e-3l3.0781 2.2344c0.74658 0.54399 1.7671 0.54399 2.5137 0v2e-3l2.7598-2.0059c0.7464-0.54114 1.061-1.5135 0.77734-2.3887l-1.1777-3.6211c-0.01391-0.0429-5e-3 -0.08657 0.02148-0.12305h-2e-3l0.56055-0.76953c0.02766-0.038 0.06784-0.05859 0.11133-0.05859h3.8066c0.92167 0 1.7486-0.59853 2.0332-1.4766l1.0547-3.2441c0.28487-0.87681-0.02978-1.8484-0.77539-2.3906a1.0001 1.0001 0 0 0-2e-3 0l-3.0801-2.2383a1.0001 1.0001 0 0 0 0-2e-3c-0.03611-0.02613-0.05663-0.0648-0.05664-0.10938v-0.94922c0-0.04537 0.01939-0.0843 0.05664-0.11133a1.0001 1.0001 0 0 0 2e-3 -2e-3l3.5293-2.5645c0.55275-0.40098 0.88281-1.046 0.88281-1.7305v-6.4921a1 1 0 0 0-1-1zm-19.502 6.5a1.0001 1.0001 0 0 0-1 1v4.875a1.0001 1.0001 0 0 0 1 1h5.5v4.5h-5.5a1.0001 1.0001 0 0 0-1 1v8.125a1 1 0 0 0 1 1 1 1 0 0 0 1-1v-7.125h5.5a1.0001 1.0001 0 0 0 1-1v-6.5a1.0001 1.0001 0 0 0-1-1h-5.5v-2.875h12a1 1 0 0 0 1-1 1 1 0 0 0-1-1z" color="#000000" stroke-linecap="round" stroke-linejoin="round" style="-inkscape-stroke:none"/>
 <path id="path16" d="m33.75 3.5a1.0001 1.0001 0 0 0-0.70703 0.29297l-6.5 6.5a1.0001 1.0001 0 0 0 0.70703 1.707h5.5v5.5a1 1 0 0 0 1 1 1 1 0 0 0 1-1v-6.5a1.0001 1.0001 0 0 0-1-1h-4.0859l4.5-4.5h5.0859v5.5a1 1 0 0 0 1 1 1 1 0 0 0 1-1v-6.5a1.0001 1.0001 0 0 0-1-1zm-19.117 26.076a1.0001 1.0001 0 0 0-1.0898 0.2168l-6.5 6.5a1.0001 1.0001 0 0 0-0.29297 0.70703v6.5a1 1 0 0 0 1 1 1 1 0 0 0 1-1v-6.0859l4.5-4.5v4.0859a1.0001 1.0001 0 0 0 1 1h6.5a1 1 0 0 0 1-1 1 1 0 0 0-1-1h-5.5v-5.5a1.0001 1.0001 0 0 0-0.61719-0.92383z" color="#000000" stroke-linecap="round" stroke-linejoin="round" style="-inkscape-stroke:none"/>
 <path id="path18" d="m14.25 3.5a1.0001 1.0001 0 0 0-0.70703 0.29297l-6.5 6.5a1.0001 1.0001 0 0 0-0.29297 0.70703v26a1.0001 1.0001 0 0 0 1.707 0.70703l6.5-6.5a1.0001 1.0001 0 0 0 0.29297-0.70703v-18.5h12a1.0001 1.0001 0 0 0 0.70703-0.29297l6.5-6.5a1.0001 1.0001 0 0 0-0.70703-1.707zm0.41406 2h16.672l-4.5 4.5h-12.586a1.0001 1.0001 0 0 0-1 1v19.086l-4.5 4.5v-23.172z" color="#000000" stroke-linecap="round" stroke-linejoin="round" style="-inkscape-stroke:none"/>
</svg>
