<?xml version="1.0" encoding="UTF-8"?>
<svg id="a" version="1.1" viewBox="0 0 48 48" xmlns="http://www.w3.org/2000/svg">
 <defs id="defs1">
  <style id="style1">.h{fill:none;stroke:#000;stroke-width:2px;stroke-linecap:round;stroke-linejoin:round;}</style>
 </defs>
 <g id="b" stroke-linecap="round" stroke-linejoin="round">
  <path id="c" d="m13.674 4.7051a1.0001 1.0001 0 0 0-0.70703 0.29492c-7.5014 7.5084-7.5014 19.71 0 27.219 7.5015 7.5084 19.696 7.5084 27.197 0a1.0001 1.0001 0 0 0 0-1.4141l-3.6309-3.6328a1 1 0 0 0-1.4141-2e-3 1 1 0 0 0 0 1.4141l2.8516 2.8555c-6.7728 6.035-17.092 5.867-23.588-0.63472-6.4951-6.5012-6.6645-16.834-0.63672-23.613l2.8516 2.8555a1 1 0 0 0 1.4141 0 1 1 0 0 0 0-1.4141l-3.6289-3.6328a1.0001 1.0001 0 0 0-0.70898-0.29492z" stop-color="#000000"/>
  <path id="d" d="m26.564 4.5c-7.774 0-14.096 6.3296-14.096 14.109 0 7.7797 6.3217 14.109 14.096 14.109 7.774 0 14.098-6.3296 14.098-14.109 0-7.7797-6.3237-14.109-14.098-14.109zm0 2c6.692 0 12.098 5.4095 12.098 12.109 0 6.6999-5.4055 12.109-12.098 12.109-6.692 0-12.096-5.4095-12.096-12.109 0-6.7 5.4035-12.109 12.096-12.109z" stop-color="#000000"/>
  <path id="e" d="m26.564 38.154c-3.8688 0-7.6357 1.2413-10.748 3.541a1 1 0 0 0-0.20898 1.3984 1 1 0 0 0 1.3984 0.21094c2.7686-2.0457 6.1175-3.1504 9.5586-3.1504 3.4412 0 6.7918 1.1044 9.5605 3.1504a1 1 0 0 0 1.3984-0.21094 1 1 0 0 0-0.20898-1.3984c-3.1125-2.3-6.881-3.541-10.75-3.541z" stop-color="#000000"/>
  <path id="f" d="m26.564 35.857a1 1 0 0 0-1 1v2.2969a1 1 0 0 0 1 1 1 1 0 0 0 1-1v-2.2969a1 1 0 0 0-1-1z" stop-color="#000000"/>
  <path id="g" d="m26.73 9.3867c-0.84284-0.11843-1.7226-0.073263-2.5938 0.16016-3.4845 0.93368-5.5665 4.5409-4.6328 8.0254l1.4629 5.4648c0.93368 3.4845 4.5428 5.5684 8.0273 4.6348 3.4845-0.93368 5.5665-4.5428 4.6328-8.0273a1.0001 1.0001 0 0 0-1.2246-0.70703l-5.3633 1.4375a1 1 0 0 0-0.70703 1.2246 1 1 0 0 0 1.2246 0.70703l4.2051-1.125c0.07574 2.0755-1.188 3.9967-3.2852 4.5586-2.4405 0.65392-4.9222-0.78023-5.5762-3.2207l-1.4648-5.4648c-0.65392-2.4405 0.77828-4.9222 3.2188-5.5762 2.4405-0.65392 4.9222 0.77828 5.5762 3.2188a1 1 0 0 0 1.2266 0.70703 1 1 0 0 0 0.70703-1.2246c-0.70026-2.6134-2.9051-4.4377-5.4336-4.793z" stop-color="#000000"/>
 </g>
</svg>
