<?xml version="1.0" encoding="UTF-8"?>
<svg id="b" version="1.1" viewBox="0 0 48 48" xmlns="http://www.w3.org/2000/svg">
 <defs id="defs1">
  <style id="style1">.c{fill:#000;}.d{fill:none;stroke:#000;stroke-width:2px;stroke-linecap:round;stroke-linejoin:round;}</style>
 </defs>
 <g id="g4">
  <path id="path1" class="c" d="m32.1691,23.9717c-.4142,0-.7498.336-.7498.7502s.3356.7498.7498.7498c.4146,0,.7501-.3357.7501-.7498s-.3355-.7502-.7501-.7502Z"/>
  <g id="g3" stroke-linecap="round" stroke-linejoin="round">
   <path id="path2" d="m7.7676 29.328a1 1 0 0 0-1.0078 0.99219l-0.0097656 1.2949a1.0001 1.0001 0 0 0 0 0.01367c0.00252 0.58585 0.00977 1.2501 0.00977 1.3379 0 3.2753 2.1693 5.7675 5.3105 7.2695 3.1412 1.502 7.3177 2.1928 11.914 2.209a1.0001 1.0001 0 0 0 0.0039 0h0.02148a1.0001 1.0001 0 0 0 0.0039 0c4.5964-0.0161 8.7734-0.70689 11.914-2.209 3.1407-1.5021 5.3086-3.9944 5.3086-7.2695 0-0.14192-0.0025-2.0666 0-2.6348a1 1 0 0 0-0.99414-1.0039 1 1 0 0 0-1.0059 0.99609c-0.0027 0.59368 0 2.5265 0 2.6426 0 2.4297-1.4474 4.1618-4.1719 5.4648-2.7241 1.3029-6.6605 1.9981-11.055 2.0137h-0.02148c-4.3933-0.01587-8.3304-0.711-11.055-2.0137-2.7251-1.3031-4.1738-3.0352-4.1738-5.4648 0-0.16396-0.00722-0.76409-0.00977-1.334v-0.0059c-1.47e-5 -0.0033 1.44e-5 -0.0045 0-0.0078l0.00977-1.2832a1 1 0 0 0-0.99218-1.0078z"/>
   <path id="path3" d="m20.02 5.5781c-1.7457 0.38814-3.498 0.93389-5.1621 1.7715a1.0001 1.0001 0 0 0-0.55078 0.91797c0.03079 1.1904 0.13396 2.3479 0.26758 3.5156-0.45008 0.2698-0.90923 0.52048-1.4004 0.91406-0.0016 0.0013-0.0023 0.0026-0.0039 0.0039-0.36538 0.28071-0.766 0.62819-1.1602 0.95898-0.88893-0.56141-1.7928-1.1179-2.7461-1.5976a1.0001 1.0001 0 0 0-1.1816 0.21289c-1.261 1.357-2.4564 2.8401-3.4434 4.5195a1.0001 1.0001 0 0 0 0.00977 1.0332c0.66262 1.0719 1.3677 2.0736 2.1113 3.043v9.457a1.0001 1.0001 0 0 0 0.99609 1c-0.00813-4.5e-5 -0.019948-3.05e-4 -0.037109-2e-3l5.709 0.54883 0.16406 2.3555a1.0001 1.0001 0 0 0 0.92773 0.92773l5.2402 0.37305a1.0001 1.0001 0 0 0 1.0586-0.85156l0.31641-2.1445h5.7305l0.31445 2.1445a1.0001 1.0001 0 0 0 1.0605 0.85156l5.2402-0.37305a1.0001 1.0001 0 0 0 0.92773-0.92773l0.1621-2.3554 5.6777-0.54688a1.0001 1.0001 0 0 0 0.98828-1v-0.04297l-0.70312 0.2168a1.0001 1.0001 0 0 0 0.70508-0.95703v-8.6719c0.74428-0.97014 1.4481-1.9726 2.1113-3.0449a1.0001 1.0001 0 0 0 0.01172-1.0332c-0.97322-1.6567-2.1547-3.1154-3.3965-4.457a1.0001 1.0001 0 0 0-0.0098-0.01367c-0.0136-0.01468-0.0235-0.03418-0.03711-0.04883l-0.01172 0.02539a1.0001 1.0001 0 0 0-0.7207-0.34375h-2e-3a1.0001 1.0001 0 0 0-0.41016 0.26953l-0.038979-0.16406c-0.95279 0.47957-1.8551 1.0361-2.7441 1.5977-0.39386-0.33081-0.79367-0.67786-1.1602-0.95898l-0.0039-0.0039c-0.49172-0.39432-0.95074-0.64251-1.4004-0.91212 0.13345-1.1682 0.2366-2.3265 0.26758-3.5176a1.0001 1.0001 0 0 0-0.55078-0.91797c-1.6642-0.83769-3.4174-1.3834-5.1641-1.7715a1.0001 1.0001 0 0 0-1.0762 0.46484c-0.57843 0.97216-1.0768 2.0077-1.5547 3.0293-0.4438-0.043506-0.8919-0.10232-1.3223-0.10742l0.98633 1a1.0001 1.0001 0 0 0-1-1c-0.13783-1e-7 -0.16581-1e-7 -0.01172 0 0.146-1e-7 0.14228-1e-7 -0.01172 0a1.0001 1.0001 0 0 0-1 1l0.98828-1c-0.4314 0.0051-0.88017 0.063867-1.3242 0.10742-0.47765-1.0216-0.97703-2.0567-1.5566-3.0293a1.0001 1.0001 0 0 0-1.0762-0.46484zm-0.2793 2.1973c0.50044 0.89805 0.99678 1.8193 1.4141 2.752a1.0001 1.0001 0 0 0 1.0781 0.57812c0.56622-0.09465 1.1507-0.13306 1.7559-0.14062h0.01172c4e-3 4.7e-5 0.0077-5e-5 0.01172 0 0.60388 0.0076 1.1898 0.04599 1.7559 0.14062a1.0001 1.0001 0 0 0 1.0781-0.57812c0.41744-0.93262 0.91184-1.8536 1.4121-2.752 1.1662 0.29327 2.3026 0.66247 3.3828 1.1523-0.04529 1.095-0.1005 2.1685-0.24414 3.2383a1.0001 1.0001 0 0 0 0.44922 0.97461c0.65766 0.42213 1.2621 0.74289 1.7305 1.1191a1.0001 1.0001 0 0 0 0.01758 0.01367c0.5941 0.45638 1.1457 0.85927 1.5957 1.3066a1.0001 1.0001 0 0 0 1.2559 0.125c0.78958-0.52236 1.6365-0.98735 2.4824-1.4434 0.85516 0.96425 1.6522 1.975 2.3398 3.0625-0.57709 0.8984-1.1576 1.7769-1.793 2.5879l0.74219-0.36133a1.0001 1.0001 0 0 0-0.97852 0.97852v8.2773l0.70508-0.2168a1.0001 1.0001 0 0 0-0.60352 0.81836l-5.2578 0.50586c-0.79355 0.07719-1.4286 0.73017-1.4844 1.5254l-0.125 1.7852-3.4492 0.24609-0.22461-1.5293c-0.1181-0.8007-0.82149-1.4062-1.6309-1.4062h-6.3379c-0.80927 0-1.5108 0.60555-1.6289 1.4062l-0.22461 1.5293-3.4492-0.24609-0.125-1.7852c-0.05526-0.79578-0.69025-1.4487-1.4844-1.5254l-5.1582-0.49609v-8.8887a1.0001 1.0001 0 0 0-0.98047-0.98047l0.74609 0.36328c-0.63542-0.81102-1.218-1.6895-1.7949-2.5879 0.68815-1.088 1.4844-2.0998 2.3398-3.0645 0.84668 0.45639 1.6939 0.9225 2.4844 1.4453a1.0001 1.0001 0 0 0 1.2559-0.125c0.44964-0.44689 1.0014-0.8494 1.5957-1.3066a1.0001 1.0001 0 0 0 0.01563-0.01367c0.46936-0.37676 1.0726-0.69578 1.7305-1.1172a1.0001 1.0001 0 0 0 0.45312-0.97656c-0.14401-1.0694-0.19897-2.1434-0.24415-3.2383 1.0795-0.48937 2.2138-0.85919 3.3789-1.1523zm-4.2559 12.113c-2.5387 0-4.6191 2.0795-4.6191 4.6191 0 2.5405 2.0801 4.6191 4.6191 4.6191 2.5398 0 4.6191-2.0788 4.6191-4.6191 0-2.5398-2.0804-4.6191-4.6191-4.6191zm17.031 0c-2.5398 0-4.6211 2.0797-4.6211 4.6191 0 2.5403 2.0811 4.6191 4.6211 4.6191 2.539 0 4.6191-2.0787 4.6191-4.6191 0-2.5395-2.0805-4.6191-4.6191-4.6191zm-17.031 2c1.4583 0 2.6191 1.1611 2.6191 2.6191 0 1.46-1.1597 2.6191-2.6191 2.6191-1.4581 0-2.6191-1.1593-2.6191-2.6191 0-1.4582 1.1609-2.6191 2.6191-2.6191zm17.031 0c1.4581 0 2.6191 1.1608 2.6191 2.6191 0 1.46-1.1611 2.6191-2.6191 2.6191-1.4598 0-2.6211-1.1591-2.6211-2.6191 0-1.4584 1.1611-2.6191 2.6211-2.6191z"/>
  </g>
  <path id="path4" class="c" d="m15.8304,23.9717c-.4143,0-.7501.336-.7501.7502s.3358.7498.7501.7498c.4145,0,.7502-.3357.7502-.7498s-.3357-.7502-.7502-.7502Z"/>
 </g>
 <path id="line4" d="m24 23.006a1 1 0 0 0-1 1v3.4512a1 1 0 0 0 1 1 1 1 0 0 0 1-1v-3.4512a1 1 0 0 0-1-1z" stroke-linecap="round" stroke-linejoin="round"/>
</svg>
