<?xml version="1.0" encoding="UTF-8"?>
<svg id="svg7" version="1.1" viewBox="0 0 48 48" xmlns="http://www.w3.org/2000/svg">
 <defs id="defs1">
  <style id="style1">.c{fill:none;stroke:#000;stroke-width:2px;stroke-linecap:round;stroke-linejoin:round;}</style>
 </defs>
 <g id="a" stroke-linecap="round" stroke-linejoin="round">
  <path id="line1" d="m28.473 18.621-2.25 1.2266a1 1 0 0 0-0.39844 1.3555 1 1 0 0 0 1.3555 0.40039l2.25-1.2246a1 1 0 0 0 0.40039-1.3574 1 1 0 0 0-1.3574-0.40039z"/>
  <path id="line2" d="m28.951 18.5a1 1 0 0 0-1 1v9a1 1 0 0 0 1 1 1 1 0 0 0 1-1v-9a1 1 0 0 0-1-1z"/>
  <path id="path2" d="m22.715 23a1 1 0 0 0-1 1 1 1 0 0 0 1 1c0.67674 0 1.2227 0.54592 1.2227 1.2227 0 0.67674-0.54592 1.2227-1.2227 1.2227h-0.88867c-1.4604 0-1.5792-0.08222-2.1367-0.54688a1 1 0 0 0-1.4102 0.12891 1 1 0 0 0 0.12891 1.4082c0.77583 0.64655 1.7671 1.0098 3.418 1.0098h0.88867c1.7677 0 3.2227-1.455 3.2227-3.2227 0-1.7677-1.455-3.2227-3.2227-3.2227z"/>
  <path id="path3" d="m21.826 18.555c-1.547 0-2.6002 0.32824-3.418 1.0098a1 1 0 0 0-0.12695 1.4082 1 1 0 0 0 1.4082 0.12891c0.5156-0.42968 0.79477-0.54687 2.1367-0.54688h0.88867c0.67674 0 1.2227 0.54592 1.2227 1.2227 0 0.67674-0.54592 1.2227-1.2227 1.2227h-2.2227a1 1 0 0 0-1 1 1 1 0 0 0 1 1h2.2227c1.7677 0 3.2227-1.455 3.2227-3.2227 0-1.7677-1.455-3.2227-3.2227-3.2227z"/>
 </g>
 <g id="b" stroke-linecap="round" stroke-linejoin="round">
  <path id="path4" d="m9.5 4.5c-2.7496 0-5 2.2504-5 5v29c0 2.7496 2.2504 5 5 5h24a1.0001 1.0001 0 0 0 0.70703-0.29297l9-9a1.0001 1.0001 0 0 0 0.29297-0.70703v-24c0-2.7496-2.2504-5-5-5zm0 2h29c1.6686 0 3 1.3314 3 3v23.586l-8.4141 8.4141h-23.586c-1.6686 0-3-1.3314-3-3v-29c0-1.6686 1.3314-3 3-3z"/>
  <path id="line4" d="m33.5 4.5a1 1 0 0 0-1 1v37a1 1 0 0 0 1 1 1 1 0 0 0 1-1v-37a1 1 0 0 0-1-1z"/>
  <path id="line5" d="m14.5 13.5a1 1 0 0 0-1 1v28a1 1 0 0 0 1 1 1 1 0 0 0 1-1v-28a1 1 0 0 0-1-1z"/>
  <path id="line6" d="m5.5 32.5a1 1 0 0 0-1 1 1 1 0 0 0 1 1h37a1 1 0 0 0 1-1 1 1 0 0 0-1-1z"/>
  <path id="line7" d="m14.5 13.5a1 1 0 0 0-1 1 1 1 0 0 0 1 1h28a1 1 0 0 0 1-1 1 1 0 0 0-1-1z"/>
 </g>
</svg>
