<?xml version="1.0" encoding="UTF-8"?>
<svg id="a" version="1.1" viewBox="0 0 48 48" xmlns="http://www.w3.org/2000/svg">
 <defs id="defs1">
  <style id="style1">.b{fill:none;stroke:#000;stroke-width:2px;stroke-linecap:round;stroke-linejoin:round;}</style>
 </defs>
 <path id="path1" d="m31.314 11.123c-3.0064 0-5.4648 2.4584-5.4648 5.4648 0 3.0064 2.4584 5.4648 5.4648 5.4648s5.4648-2.4584 5.4648-5.4648c0-3.0064-2.4584-5.4648-5.4648-5.4648zm0 2c1.9256 0 3.4648 1.5393 3.4648 3.4648 0 1.9256-1.5393 3.4648-3.4648 3.4648s-3.4648-1.5393-3.4648-3.4648c0-1.9256 1.5393-3.4648 3.4648-3.4648zm-11.941 6.7207c-0.48444 0.04368-0.94962 0.28672-1.2461 0.71484l-9.4492 13.648c-0.74849 1.081 0.083503 2.6699 1.3984 2.6699h27.848c0.71566 0 1.3317-0.47008 1.5723-1.0508s0.1369-1.3475-0.36914-1.8535l-7.8066-7.8086c-0.65624-0.65624-1.752-0.65624-2.4082 0l-1.1719 1.1719-7.0117-7.0117c-0.36827-0.36827-0.87102-0.52415-1.3555-0.48047zm0.19336 2.1465 6.9707 6.9707c0.65625 0.65625 1.75 0.65625 2.4062 0l1.1738-1.1719 7.0859 7.0879h-26.557z" stroke-linecap="round" stroke-linejoin="round"/>
 <path id="path2" d="m9.5 4.5c-2.7496 0-5 2.2504-5 5v29c0 2.7496 2.2504 5 5 5h29c2.7496 0 5-2.2504 5-5v-29c0-2.7496-2.2504-5-5-5zm0 2h29c1.6686 0 3 1.3314 3 3v29c0 1.6686-1.3314 3-3 3h-29c-1.6686 0-3-1.3314-3-3v-29c0-1.6686 1.3314-3 3-3z" stroke-linecap="round" stroke-linejoin="round"/>
</svg>
