<?xml version="1.0" encoding="UTF-8"?>
<svg id="a" version="1.1" viewBox="0 0 48 48" xmlns="http://www.w3.org/2000/svg">
 <defs id="defs1">
  <style id="style1">.b{fill:none;stroke:#000;stroke-width:2px;stroke-linecap:round;stroke-linejoin:round;}</style>
 </defs>
 <path id="path1" d="m24 8.4922c-9.6518 0-17.819 6.4147-20.457 15.221a1.0001 1.0001 0 0 0 0 0.57422c2.6384 8.806 10.805 15.221 20.457 15.221s17.819-6.4148 20.457-15.221a1.0001 1.0001 0 0 0 0-0.57422c-2.6384-8.806-10.805-15.221-20.457-15.221zm0 2c8.6523 0 15.918 5.6918 18.404 13.508-2.4861 7.816-9.752 13.508-18.404 13.508-8.6523 0-15.918-5.6918-18.404-13.508 2.4861-7.8161 9.752-13.508 18.404-13.508z" color="#000000" stroke-linecap="round" stroke-linejoin="round" style="-inkscape-stroke:none"/>
 <path id="circle1" d="m24 13c-6.0633 0-11 4.9367-11 11s4.9367 11 11 11 11-4.9367 11-11-4.9367-11-11-11zm0 2c4.9824 0 9 4.0176 9 9s-4.0176 9-9 9-9-4.0176-9-9 4.0176-9 9-9z" color="#000000" stroke-linecap="round" stroke-linejoin="round" style="-inkscape-stroke:none"/>
</svg>
