<?xml version="1.0" encoding="UTF-8" standalone="no"?>
<svg
   viewBox="0 0 48 48"
   version="1.1"
   id="svg2"
   sodipodi:docname="gwenview.svg"
   xmlns:inkscape="http://www.inkscape.org/namespaces/inkscape"
   xmlns:sodipodi="http://sodipodi.sourceforge.net/DTD/sodipodi-0.dtd"
   xmlns="http://www.w3.org/2000/svg"
   xmlns:svg="http://www.w3.org/2000/svg">
  <sodipodi:namedview
     id="namedview2"
     pagecolor="#ffffff"
     bordercolor="#666666"
     borderopacity="1.0"
     inkscape:showpageshadow="2"
     inkscape:pageopacity="0.0"
     inkscape:pagecheckerboard="0"
     inkscape:deskcolor="#d1d1d1" />
  <defs
     id="defs1">
    <style
       id="style1">.a{fill:none;stroke:#000;stroke-width:2px;stroke-linecap:round;stroke-linejoin:round;}</style>
  </defs>
  <path
     style="color:#000000;fill:#000000;stroke-linecap:round;stroke-linejoin:round;-inkscape-stroke:none"
     d="m 24,13 c -6.063282,0 -11,4.936718 -11,11 0,6.063282 4.936718,11 11,11 6.063282,0 11,-4.936718 11,-11 0,-6.063282 -4.936718,-11 -11,-11 z m 0,2 c 4.982402,0 9,4.017598 9,9 0,4.982402 -4.017598,9 -9,9 -4.982402,0 -9,-4.017598 -9,-9 0,-4.982402 4.017598,-9 9,-9 z"
     id="circle1" />
  <path
     style="color:#000000;fill:#000000;stroke-linecap:round;stroke-linejoin:round;-inkscape-stroke:none"
     d="m 24,18 c -3.301861,0 -6,2.698139 -6,6 0,3.301861 2.698139,6 6,6 3.301861,0 6,-2.698139 6,-6 0,-3.301861 -2.698139,-6 -6,-6 z m 0,2 c 2.220981,0 4,1.779019 4,4 0,2.220981 -1.779019,4 -4,4 -2.220981,0 -4,-1.779019 -4,-4 0,-2.220981 1.779019,-4 4,-4 z"
     id="circle2" />
  <path
     style="color:#000000;fill:#000000;stroke-linecap:round;stroke-linejoin:round;-inkscape-stroke:none"
     d="M 24,9 C 17.886988,9 12.337595,10.601301 8.2519531,13.261719 4.1663111,15.922137 1.5,19.71903 1.5,24 1.5,28.28097 4.1663111,32.077863 8.2519531,34.738281 12.337595,37.398699 17.886988,39 24,39 30.113012,39 35.662405,37.398699 39.748047,34.738281 43.833689,32.077863 46.5,28.28097 46.5,24 46.5,19.71903 43.833689,15.922137 39.748047,13.261719 35.662405,10.601301 30.113012,9 24,9 Z m 0,2 c 5.761098,0 10.96043,1.532873 14.65625,3.939453 C 42.35207,17.346033 44.5,20.548991 44.5,24 c 0,3.451009 -2.14793,6.653967 -5.84375,9.060547 C 34.96043,35.467127 29.761098,37 24,37 18.238902,37 13.03957,35.467127 9.34375,33.060547 5.6479304,30.653967 3.5,27.451009 3.5,24 3.5,20.548991 5.6479304,17.346033 9.34375,14.939453 13.03957,12.532873 18.238902,11 24,11 Z"
     id="ellipse2" />
</svg>
