<?xml version="1.0" encoding="UTF-8" standalone="no"?>
<svg
   id="Layer_2"
   data-name="Layer 2"
   viewBox="0 0 48 48"
   version="1.1"
   sodipodi:docname="ibus-engine.svg"
   xmlns:inkscape="http://www.inkscape.org/namespaces/inkscape"
   xmlns:sodipodi="http://sodipodi.sourceforge.net/DTD/sodipodi-0.dtd"
   xmlns="http://www.w3.org/2000/svg"
   xmlns:svg="http://www.w3.org/2000/svg">
  <sodipodi:namedview
     id="namedview1"
     pagecolor="#ffffff"
     bordercolor="#666666"
     borderopacity="1.0"
     inkscape:showpageshadow="2"
     inkscape:pageopacity="0.0"
     inkscape:pagecheckerboard="0"
     inkscape:deskcolor="#d1d1d1" />
  <defs
     id="defs1">
    <style
       id="style1">.cls-1{fill:none;stroke:#000;stroke-width:2px;stroke-linecap:round;stroke-linejoin:round;}</style>
  </defs>
  <path
     style="color:#000000;fill:#000000;stroke-linecap:round;stroke-linejoin:round;-inkscape-stroke:none"
     d="m 19.910156,2.5195313 c -0.996128,-0.0098 -1.860583,0.7343302 -2,1.7207031 l -0.703125,4.9570312 c -0.91412,0.4212407 -1.784108,0.9260754 -2.605468,1.5078124 L 9.9160156,8.8242188 c -0.9277106,-0.37681 -2.0097579,0.00308 -2.4980469,0.8769531 -4.751e-4,8.502e-4 -0.00148,0.0011 -0.00195,0.00195 l -4.0839843,7.082031 c -7.028e-4,0.0012 7e-4,0.0027 0,0.0039 -0.5180857,0.865682 -0.3020549,2.002607 0.5,2.615235 l 3.8945312,3.05664 c -0.049323,0.509133 -0.1024693,1.017619 -0.1074219,1.529297 a 1.0001,1.0001 0 0 0 0,0.01953 c 0.00469,0.511464 0.058046,1.02039 0.1074219,1.529296 l -3.8945312,3.056641 c -0.8020549,0.612628 -1.0180857,1.749553 -0.5,2.615234 7e-4,0.0012 -7.028e-4,0.0027 0,0.0039 l 4.0839843,7.082031 c 4.74e-4,8.51e-4 0.00148,0.0011 0.00195,0.002 0.488289,0.873874 1.5703363,1.253763 2.4980469,0.876953 l 4.6660154,-1.880859 c 0.821638,0.579756 1.691047,1.085195 2.603516,1.507812 l 0.705078,4.957032 c 0.139417,0.986372 1.003871,1.730507 2,1.720703 h 8.179687 c 0.996129,0.0098 1.860584,-0.734331 2,-1.720703 l 0.703125,-4.958985 c 0.91364,-0.421102 1.782549,-0.924419 2.603516,-1.505859 l 4.666016,1.880859 c 0.928613,0.377177 2.012394,-0.0032 2.5,-0.878906 l 4.083984,-7.082031 c 0.520778,-0.866112 0.303139,-2.005685 -0.5,-2.619141 l -3.865234,-3.054687 c 0.0495,-0.509549 0.102726,-1.019136 0.107422,-1.53125 a 1.0001,1.0001 0 0 0 0,-0.01953 c -0.0047,-0.511464 -0.05805,-1.02039 -0.107422,-1.529297 l 3.90625,-3.05664 0.002,-0.0039 c 0.799047,-0.613294 1.015341,-1.74697 0.498047,-2.611329 v -0.0039 l -4.083985,-7.082031 -0.002,-0.00195 C 40.093742,8.8272975 39.011695,8.4474088 38.083984,8.8242188 L 33.417969,10.705078 C 32.596331,10.125322 31.726922,9.6198834 30.814453,9.1972656 L 30.109375,4.2402344 c -0.139417,-0.9863729 -1.003871,-1.7305072 -2,-1.7207031 z m -0.01953,1.9999999 a 1.0001,1.0001 0 0 0 0.0098,0 h 8.21875 a 1.0001,1.0001 0 0 0 0.0098,0 1.0001,1.0001 0 0 0 0.002,0 l 0.769532,5.4316407 a 1.0001,1.0001 0 0 0 0.603515,0.7812501 c 1.155225,0.483427 2.244741,1.113284 3.240235,1.873047 a 1.0001,1.0001 0 0 0 0.980468,0.132812 l 5.109375,-2.060547 a 1.0001,1.0001 0 0 0 0.002,-0.002 1.0001,1.0001 0 0 0 0.0078,0.01367 l 4.099609,7.109375 a 1.0001,1.0001 0 0 0 0.0098,0.01563 1.0001,1.0001 0 0 0 -0.0098,0.0078 l -4.330078,3.390625 a 1.0001,1.0001 0 0 0 -0.375,0.917968 c 0.08142,0.619848 0.124735,1.244005 0.13086,1.869141 -0.0061,0.625136 -0.04944,1.249293 -0.13086,1.869141 a 1.0001,1.0001 0 0 0 0.371094,0.916015 l 4.291016,3.388672 a 1.0001,1.0001 0 0 0 0.01172,0.01172 1.0001,1.0001 0 0 0 -0.0078,0.01563 l -4.09961,7.109375 a 1.0001,1.0001 0 0 0 -0.0078,0.01367 1.0001,1.0001 0 0 0 -0.0039,-0.002 l -5.109375,-2.060547 a 1.0001,1.0001 0 0 0 -0.982422,0.134765 c -0.992218,0.761475 -2.079301,1.389407 -3.234375,1.869141 a 1.0001,1.0001 0 0 0 -0.607422,0.783203 l -0.769531,5.431641 a 1.0001,1.0001 0 0 0 -0.0098,0 h -8.199219 a 1.0001,1.0001 0 0 0 -0.0098,0 1.0001,1.0001 0 0 0 -0.002,0 l -0.769532,-5.431641 a 1.0001,1.0001 0 0 0 -0.603515,-0.78125 c -1.155225,-0.483427 -2.244741,-1.113284 -3.240235,-1.873047 a 1.0001,1.0001 0 0 0 -0.980468,-0.132812 l -5.1093754,2.060547 a 1.0001,1.0001 0 0 0 -0.00195,0.002 1.0001,1.0001 0 0 0 -0.00781,-0.01367 L 5.0566406,30.201172 a 1.0001,1.0001 0 0 0 -0.00977,-0.01563 1.0001,1.0001 0 0 0 0.00977,-0.0098 l 4.3203125,-3.388672 a 1.0001,1.0001 0 0 0 0.375,-0.917968 C 9.6705349,25.249292 9.6252647,24.625137 9.6191406,24 c 0.00644,-0.625466 0.051668,-1.250875 0.1328125,-1.871094 a 1.0001,1.0001 0 0 0 -0.375,-0.916015 L 5.0566406,17.824219 a 1.0001,1.0001 0 0 0 -0.00977,-0.0098 1.0001,1.0001 0 0 0 0.00977,-0.01563 L 9.15625,10.689453 a 1.0001,1.0001 0 0 0 0.00781,-0.01367 1.0001,1.0001 0 0 0 0.00391,0.002 l 5.1289062,2.060547 a 1.0001,1.0001 0 0 0 0.982422,-0.134765 c 0.992217,-0.761475 2.079301,-1.389407 3.234375,-1.869141 a 1.0001,1.0001 0 0 0 0.605469,-0.7832031 z m 4.996094,11.3457028 c -2.309777,-0.262269 -4.77637,0.443629 -6.685547,2.355469 -2.54557,2.54912 -2.943173,6.083128 -1.765625,8.917969 1.177548,2.834841 3.963544,5.046033 7.566406,5.041015 4.503809,-0.0011 8.174251,-3.67759 8.167969,-8.18164 -8.37e-4,-3.601879 -2.216788,-6.383266 -5.052735,-7.556641 -0.709119,-0.293399 -1.460543,-0.488748 -2.230468,-0.576172 z m -0.220703,1.978516 c 0.578517,0.07056 1.146675,0.221546 1.6875,0.445312 2.1633,0.895068 3.816403,2.914257 3.816406,5.710938 a 1.0001,1.0001 0 0 0 0,0.002 c 0.0048,3.42285 -2.747069,6.177738 -6.169922,6.177734 a 1.0001,1.0001 0 0 0 -0.002,0 c -2.796679,0.0039 -4.816763,-1.646543 -5.714844,-3.808593 -0.898081,-2.162051 -0.641904,-4.759638 1.333984,-6.738282 1.481917,-1.483982 3.313277,-2.000755 5.048829,-1.789062 z"
     id="path1" />
</svg>
