<?xml version="1.0" encoding="UTF-8"?>
<svg id="svg1" version="1.1" viewBox="0 0 48 48" xmlns="http://www.w3.org/2000/svg">
 <defs id="defs1">
  <style id="style1">.a{fill:none;stroke:#000;stroke-width:2px;stroke-linecap:round;stroke-linejoin:round;}</style>
 </defs>
 <path id="path1" d="m24 1.5c-9.9809 0-17.549 6.0697-20.787 13.889-3.2383 7.819-2.1778 17.463 4.8789 24.52 7.0567 7.0567 16.701 8.1172 24.52 4.8789s13.889-10.806 13.889-20.787c-0.005769-12.412-10.088-22.494-22.5-22.5zm0 2c11.332 0.00527 20.495 9.1683 20.5 20.5 0 9.1749-5.5082 15.98-12.654 18.939s-15.853 2.0415-22.34-4.4453c-6.4868-6.4868-7.4049-15.194-4.4453-22.34 2.9596-7.1461 9.7646-12.654 18.939-12.654z" color="#000000" stroke-linecap="round" stroke-linejoin="round" style="-inkscape-stroke:none"/>
 <path id="circle1" d="m24 11.711c-1.9212 0-3.5 1.5788-3.5 3.5 0 1.9212 1.5788 3.5 3.5 3.5s3.5-1.5788 3.5-3.5c0-1.9212-1.5788-3.5-3.5-3.5zm0 2c0.84027 0 1.5 0.65973 1.5 1.5 0 0.84027-0.65973 1.5-1.5 1.5s-1.5-0.65973-1.5-1.5c0-0.84027 0.65973-1.5 1.5-1.5z" color="#000000" stroke-linecap="round" stroke-linejoin="round" style="-inkscape-stroke:none"/>
 <path id="line1" d="m23.99 20.34a1 1 0 0 0-1 1v13.949a1 1 0 0 0 1 1 1 1 0 0 0 1-1v-13.949a1 1 0 0 0-1-1z" color="#000000" stroke-linecap="round" stroke-linejoin="round" style="-inkscape-stroke:none"/>
</svg>
