<?xml version="1.0" encoding="UTF-8"?>
<svg id="a" version="1.1" viewBox="0 0 48 48" xmlns="http://www.w3.org/2000/svg">
 <defs id="defs1">
  <style id="style1">.d{fill:none;stroke:#000;stroke-width:2px;stroke-linecap:round;stroke-linejoin:round;}</style>
 </defs>
 <path id="b" d="m23.795 4.7754c-1.3881 8.952e-4 -2.763 0.51378-3.7793 1.5508a1.0001 1.0001 0 0 0-2e-3 0.00391l-13.605 13.936c-1.3743 1.3764-2.0822 2.5626-1.875 3.8047 0.10381 0.62242 0.46386 1.1421 0.88672 1.5098s0.91364 0.62422 1.4375 0.84375c1.0477 0.43907 2.258 0.72789 3.3867 1.0371 0.68137 0.18667 1.1246 0.40588 1.6602 0.61524-0.16405 0.08324-0.22575 0.13005-0.4043 0.2168-0.58734 0.28534-1.2059 0.56978-1.7305 0.99609-0.26229 0.21316-0.54466 0.46871-0.68359 0.94922-0.13836 0.47853 0.077086 1.1088 0.40039 1.4355 0.53484 0.54657 1.1921 0.8165 1.9805 1.1289 0.79138 0.3136 1.7011 0.60911 2.5977 0.90039 0.56717 0.18427 1.056 0.36023 1.5703 0.53906-0.67797-0.02151-1.3524 0.08091-1.9531 0.33203-0.64884 0.27123-1.2668 0.65476-1.5977 1.3906-0.16542 0.36793-0.21426 0.84567-0.08203 1.2734 0.13151 0.42546 0.40719 0.77521 0.74805 1.0645 0.95146 0.81845 2.2714 0.71828 3.1953 0.21484 0.12462-0.06791 0.21292-0.18431 0.33008-0.26367 0.09338 0.24036 0.16156 0.49744 0.33398 0.67578 0.95966 1.0077 2.2009 0.94314 2.9531 1.1191 0.37705 0.08821 0.6334 0.19896 0.80078 0.34375 0.16738 0.14479 0.3129 0.33858 0.40625 0.86133 0.15843 0.89299 0.91392 1.5398 1.668 1.7754s1.5652 0.22309 2.4062 0.09961c1.6822-0.24695 3.4831-0.96029 4.748-2.0078a1.0001 1.0001 0 0 0 0.0098-0.0078c0.25052-0.21294 0.48971-0.46385 0.60156-0.86914s-0.03103-0.89957-0.22852-1.1621c-0.3553-0.47234-0.68331-0.5582-0.96094-0.68359 1.1206-0.96214 2.1203-1.299 3.166-1.5762 0.59281-0.1571 1.2208-0.31823 1.834-0.70508 0.23849-0.15046 0.36983-0.50509 0.57812-0.72852-0.16917 0.29548-0.44851 0.55397-0.47266 0.88281-0.04588 0.62498 0.22592 1.2215 0.63476 1.6074 0.81768 0.77183 2.1407 0.87808 3.2305 0.17578a1.0001 1.0001 0 0 0 0.01367-0.0078c0.48046-0.3203 0.60545-0.86922 0.57812-1.2617-0.02733-0.3925-0.17269-0.73484-0.39258-1.0547-0.08679-0.12624-0.24621-0.21962-0.35938-0.33594 0.38664 0.04938 0.75043 0.12177 1.1621 0.13086 0.71615 0.01581 1.417-0.01939 2.0508-0.19531 0.31689-0.08796 0.6311-0.1985 0.94141-0.48047 0.30857-0.28039 0.54089-0.8802 0.43164-1.3594-0.17558-0.81986-0.73526-1.461-1.3789-1.8164-0.65045-0.35912-1.3841-0.48908-2.1094-0.46289-1.4061 0.05076-2.9348 0.7684-3.4453 2.2871-0.01863-0.19853 0.05606-0.416-0.01758-0.57617-0.16973-0.36919-0.41418-0.62094-0.66406-0.83789-0.49975-0.4339-1.0768-0.74282-1.5938-1.0293-0.16922-0.09379-0.2078-0.13136-0.35547-0.21875 0.69528-0.35122 1.4478-0.71325 2.5566-1.0977 1.4722-0.51037 3.1153-1.0441 4.5449-1.7129 1.4297-0.66878 2.7298-1.4399 3.3086-2.7832 0.28942-0.67165 0.32146-1.4815 0.05859-2.2441-0.26166-0.75918-0.77368-1.4846-1.5234-2.2363l-0.0039-0.0039-14.1-14.43a1.0001 1.0001 0 0 0-0.02734-0.029297c-1.0739-1.0131-2.4771-1.5243-3.8652-1.5234zm0.01563 2.0254c0.88991 8.943e-4 1.7982 0.31416 2.4746 0.95117 6.69e-4 6.297e-4 0.0013 0.00132 2e-3 0.00195l14.074 14.404a1.0001 1.0001 0 0 0 0.0078 0.0078c0.61523 0.61522 0.93101 1.1255 1.0547 1.4844 0.12368 0.35884 0.09899 0.5555-0.0059 0.79883-0.2097 0.48665-1.0562 1.1752-2.3184 1.7656-1.2621 0.5904-2.8554 1.1161-4.3516 1.6348-1.4961 0.51866-2.8803 0.9982-3.8926 1.7109a1.0001 1.0001 0 0 0-2e-3 0c-0.32513 0.22998-0.6845 0.71266-0.64844 1.248 0.03606 0.53539 0.32193 0.83449 0.54883 1.0449 0.4538 0.42086 0.96548 0.66792 1.4766 0.95117 0.51108 0.28325 1.0095 0.57686 1.2539 0.78906 0.04025 0.03495 0.02641 0.02799 0.05078 0.05469-0.17786 0.37535-0.34833 0.6262-0.58789 0.77734-0.28171 0.17774-0.7057 0.31036-1.2812 0.46289-1.1511 0.30506-2.8569 0.74088-4.5117 2.4141a1.0001 1.0001 0 0 0-0.0059 0.0059c-0.23656 0.24315-0.45203 0.54551-0.51367 0.95508-0.06164 0.40956 0.10572 0.84102 0.30078 1.0879 0.26028 0.32942 0.48607 0.39035 0.71875 0.50586-0.89441 0.55955-2.0313 1.1359-3.1016 1.293-0.64931 0.09532-1.2198 0.06436-1.5195-0.0293-0.29975-0.09365-0.2717-0.08594-0.29492-0.2168a1.0001 1.0001 0 0 0 0-2e-3c-0.15436-0.86441-0.5401-1.5665-1.0684-2.0234s-1.1294-0.655-1.6523-0.77734c-0.96153-0.22496-1.5484-0.33024-1.8047-0.50586 0.0936-0.12798 0.21316-0.28752 0.44726-0.53125 0.30138-0.31376 0.66938-0.65055 0.93359-1.1934 0.13211-0.27141 0.23628-0.62525 0.19141-1.0176-0.04487-0.39233-0.25039-0.77032-0.51758-1.0449a1.0001 1.0001 0 0 0-0.0098-0.0098c-0.53768-0.5378-1.1927-0.7969-1.9822-1.1054-0.78955-0.30851-1.6985-0.60173-2.5938-0.89258-0.89522-0.29085-1.7775-0.57962-2.4785-0.85742-0.3817-0.15126-0.47076-0.23299-0.70312-0.36328 0.26828-0.1576 0.49937-0.3058 0.875-0.48828 0.57688-0.28026 1.1637-0.53719 1.668-0.92188 0.25213-0.19234 0.56704-0.41243 0.68164-0.97461 0.0573-0.28109-0.0017-0.63549-0.14453-0.88281-0.14278-0.24732-0.32741-0.39874-0.50391-0.51367a1.0001 1.0001 0 0 0-0.0098-0.0078c-0.95781-0.60766-2.1273-0.94044-3.2929-1.2598-1.1657-0.31934-2.3303-0.60995-3.1445-0.95117-0.40711-0.17061-0.71981-0.35613-0.89648-0.50977-0.17668-0.15364-0.21116-0.2358-0.22656-0.32812-0.030797-0.18465 0.12831-0.8744 1.3242-2.0703a1.0001 1.0001 0 0 0 0.00781-0.0098l13.609-13.937c0.60206-0.61312 1.4734-0.92472 2.3633-0.92383zm15.184 26.408c0.41828-0.0151 0.81972 0.07844 1.0703 0.2168 0.0067 0.0037 0.0033 0.01 0.0098 0.01367-0.31181 0.04464-0.62449 0.09718-1.0449 0.08789-0.31599-7e-3 -0.56691-0.06057-0.86133-0.0957 0.25352-0.1037 0.51246-0.21133 0.82617-0.22266zm-3.4961 1.0156c0.03009 0.07489 0.04715 0.14777 0.08594 0.20898a1.0001 1.0001 0 0 0-0.30273 0.08594c0.05723-0.11496 0.16782-0.14903 0.2168-0.27344 0.0028-7e-3 -0.0027-0.01443 0-0.02148zm-20.059 2.0234c-0.1703 0.17042-0.273 0.41658-0.45117 0.51367-0.45336 0.24704-0.66538 0.25905-0.93555 0.02539a1.0001 1.0001 0 0 0-0.0098-0.0059c-0.05279-0.0446-0.0306-0.02833-0.05078-0.05273 0.04502-0.04317 0.15778-0.18187 0.46094-0.30859 0.29487-0.12326 0.6601-0.16183 0.98633-0.17188z" stroke-linecap="round" stroke-linejoin="round"/>
 <path id="c" d="m31.549 10.773a1 1 0 0 0-0.6875 0.33398 1 1 0 0 0 0.08398 1.4121c0.19234 0.17053 0.26085 0.59003 0.24024 1.0625l-1.5-1.2207a1.0001 1.0001 0 0 0-1.6191 0.61328l-0.30078 1.8242-0.98047-0.52734a1.0001 1.0001 0 0 0-1.0078 0.03516l-2.4277 1.5371-0.85547-3.4434a1.0001 1.0001 0 0 0-1.8789-0.17774l-1.6465 3.5762-4.1426-0.0293a1.0001 1.0001 0 0 0-0.0078 0c0.17226 0-0.1329-0.09939-0.25976-0.39453-0.12686-0.29514-0.12028-0.47543 0.02148-0.61719a1 1 0 0 0 0-1.4141 1 1 0 0 0-1.4141 0c-0.81604 0.81604-0.7998 1.9956-0.44531 2.8203 0.35449 0.82471 1.0006 1.6055 2.0977 1.6055l4.7832 0.0332a1.0001 1.0001 0 0 0 0.91406-0.58203l0.72461-1.5723 0.50195 2.0234a1.0001 1.0001 0 0 0 1.5059 0.60352l3.1055-1.9668 1.6992 0.91211a1.0001 1.0001 0 0 0 1.459-0.7168l0.24805-1.502 1.3379 1.0898a1.0001 1.0001 0 0 0 1.3379-0.06836c0.37579-0.37567 0.38994-0.5811 0.50586-0.91992 0.11592-0.33882 0.21338-0.74239 0.25977-1.1895 0.09277-0.89413-0.0058-2.0732-0.92774-2.8906a1 1 0 0 0-0.72461-0.25z" stroke-linecap="round" stroke-linejoin="round"/>
 <path id="path1" d="m16.742 27.648a1 1 0 0 0-1.2949 0.56641 1 1 0 0 0 0.56836 1.2969c2.7227 1.0632 7.8448 1.4665 11.547 1.6367a1 1 0 0 0 1.043-0.95312 1 1 0 0 0-0.95117-1.0449c-3.6157-0.16622-8.8964-0.7148-10.912-1.502z" stroke-linecap="round" stroke-linejoin="round"/>
</svg>
