<?xml version="1.0" encoding="UTF-8"?>
<svg id="svg1" version="1.1" viewBox="0 0 48 48" xmlns="http://www.w3.org/2000/svg">
 <style id="style1">.b{fill:none;stroke:#000000;stroke-width:2px;stroke-linecap:round;stroke-linejoin:round;}</style>
 <path id="path1" d="m24 1.5c-12.438 0-22.5 10.062-22.5 22.5s10.062 22.5 22.5 22.5 22.5-10.062 22.5-22.5-10.062-22.5-22.5-22.5zm0 2c11.362 0 20.5 9.1378 20.5 20.5s-9.1378 20.5-20.5 20.5-20.5-9.1378-20.5-20.5 9.1378-20.5 20.5-20.5zm0 1.4004c-1.1606 0-2.3208 0.10591-3.4785 0.31641a1.0001 1.0001 0 0 0-0.82226 0.98242c0-0.066667-0.0043 0.029297-0.0293 0.1543s-0.07031 0.28021-0.07031 0.54688c0 2.4263 1.9741 4.4004 4.4004 4.4004s4.4004-1.9741 4.4004-4.4004c0-0.26667-0.04531-0.42188-0.07031-0.54688s-0.0293-0.22096-0.0293-0.1543a1.0001 1.0001 0 0 0-0.82226-0.98242c-1.1577-0.21049-2.3179-0.31641-3.4785-0.31641zm0 2c0.77144 0 1.5438 0.10666 2.3164 0.21094-0.11601 1.2468-1.0272 2.1895-2.3164 2.1895-1.2892 0-2.2004-0.9427-2.3164-2.1895 0.77263-0.10428 1.545-0.21094 2.3164-0.21094zm-9.084 0.62305a1.0001 1.0001 0 0 0-0.73047 0.11914c-5.7919 3.4752-9.2852 9.6137-9.2852 16.357 0 10.54 8.5596 19.1 19.1 19.1s19.1-8.5596 19.1-19.1c0-6.6598-3.5842-12.874-9.2773-16.354a1.0001 1.0001 0 0 0-1.4844 1.1289c0.15853 0.55486 0.16211 1.025 0.16211 1.625 0 3.414-1.9751 6.3578-4.8242 7.6934a1.0001 1.0001 0 0 0-0.57422 0.85547l-0.20117 4a1.0001 1.0001 0 0 0 0.29297 0.75781l2.1934 2.1934-2.1934 2.1934a1.0001 1.0001 0 0 0 0 1.4141l1.1934 1.1914-1.1934 1.1934a1.0001 1.0001 0 0 0-0.29102 0.76367l0.17383 3.1523-3.0762 3.0781-3.0996-3.1016v-16.785a1.0001 1.0001 0 0 0-0.57617-0.90625c-2.8491-1.3355-4.8242-4.2793-4.8242-7.6934 0-0.60476 0.08555-1.1363 0.18555-1.7363a1.0001 1.0001 0 0 0-0.76953-1.1406zm-1.377 3.1543c0.10162 3.8198 2.2277 7.1126 5.3613 8.8516v16.67a1.0001 1.0001 0 0 0 0.29297 0.70703l4.0996 4.1016a1.0001 1.0001 0 0 0 1.4141 0l4.0996-4.1016a1.0001 1.0001 0 0 0 0.29102-0.76172l-0.17383-3.1543 1.584-1.584a1.0001 1.0001 0 0 0 0-1.4141l-1.1934-1.1914 2.1934-2.1934a1.0001 1.0001 0 0 0 0-1.4141l-2.5859-2.5859 0.15234-3.0625c3.1419-1.7315 5.2732-5.0246 5.3828-8.8457 4.0655 3.2405 6.6426 8.0821 6.6426 13.301 0 9.46-7.6396 17.1-17.1 17.1s-17.1-7.6396-17.1-17.1c0-5.3304 2.5108-10.101 6.6387-13.322zm9.1602 9.4219a1 1 0 0 0-1 1v13.6a1 1 0 0 0 1 1 1 1 0 0 0 1-1v-13.6a1 1 0 0 0-1-1z" color="#000000" stroke-linecap="round" stroke-linejoin="round" style="-inkscape-stroke:none"/>
</svg>
