<?xml version="1.0" encoding="UTF-8"?>
<svg id="Layer_2" data-name="Layer 2" version="1.1" viewBox="0 0 48 48" xmlns="http://www.w3.org/2000/svg">
 <defs id="defs1">
  <style id="style1">.cls-1{fill:none;stroke:#000;stroke-width:2px;stroke-linecap:round;stroke-linejoin:round;}</style>
 </defs>
 <path id="path1" d="m23.982 2.5c-0.69717 0.011764-1.3593 0.30988-1.8301 0.82422l-3.9688 3.9687a1.0001 1.0001 0 0 0-0.29297 0.70703v15.85a1.0001 1.0001 0 0 0 1.707 0.70703l13.049-13.061a1.0001 1.0001 0 0 0-2e-3 -1.416l-6.7968-6.7559c-0.47078-0.51434-1.1329-0.81245-1.8301-0.82422a1.0001 1.0001 0 0 0-0.03516 0zm0.017578 2.0078c0.14128 0.00756 0.2771 0.063142 0.37305 0.16797a1.0001 1.0001 0 0 0 0.03125 0.033203l6.1191 6.084-10.633 10.641v-13.02l3.707-3.707a1.0001 1.0001 0 0 0 0.0293-0.03125c0.095946-0.10483 0.23177-0.1604 0.37304-0.16797zm-12.17 9.9668a1.0001 1.0001 0 0 0-1.0898 0.2207l-7.4492 7.4902a1.0001 1.0001 0 0 0-0.00195 2e-3c-0.98392 0.9967-0.98392 2.6283 0 3.625a1.0001 1.0001 0 0 0 0.00391 0.0039l7.4902 7.4902a1.0001 1.0001 0 0 0 1.707-0.70898l-0.04101-17.199a1.0001 1.0001 0 0 0-0.61914-0.92383zm25.369 0.57617a1.0001 1.0001 0 0 0-0.70898 0.29492l-7.9395 8a1.0001 1.0001 0 0 0 2e-3 1.4121l7.9395 7.9395a1.0001 1.0001 0 0 0 1.4199-0.0039l6.7988-6.8809c0.98392-0.9967 0.98392-2.6283 0-3.625a1.0001 1.0001 0 0 0-2e-3 -2e-3l-6.8008-6.8398a1.0001 1.0001 0 0 0-0.70898-0.29492zm0 2.418 6.0898 6.125c0.22933 0.23396 0.23043 0.58103 0 0.81445l-6.0938 6.1641-0.39844-0.39844-6.125-6.127zm-26.744 0.34961 0.0293 12.361-5.7734-5.7715v-2e-3c-0.22878-0.2334-0.22878-0.5791 0-0.8125 5.499e-4 -5.61e-4 -5.526e-4 -0.0014 0-2e-3zm14.25 10.732a1.0001 1.0001 0 0 0-1.4121 2e-3l-5.1113 5.1211a1.0001 1.0001 0 0 0-0.29102 0.70703v5.6191a1.0001 1.0001 0 0 0 0.29297 0.70703l4 4a1.0001 1.0001 0 0 0 0.0039 0.0039c0.9967 0.98392 2.6283 0.98392 3.625 0a1.0001 1.0001 0 0 0 0.0059-0.0039l6.8301-6.8398a1.0001 1.0001 0 0 0-2e-3 -1.4141l-1.0996-1.0996a1.0001 1.0001 0 0 0-2e-3 -2e-3zm-0.70312 2.1211 6.1328 6.0957 0.39062 0.39258-6.1191 6.1289c-0.2334 0.22878-0.5791 0.22878-0.8125 0h-2e-3l-3.7012-3.7031v-4.793z" stroke-linecap="round" stroke-linejoin="round"/>
</svg>
