<?xml version="1.0" encoding="UTF-8"?>
<svg id="svg14" version="1.1" viewBox="0 0 48 48" xmlns="http://www.w3.org/2000/svg">
 <defs id="defs4">
  <style id="style2">.a{fill:none;stroke:#000;stroke-linecap:round;stroke-linejoin:round;}</style>
 </defs>
 <path id="path6" d="m25.916 1.5859c-5.5533-0.47455-11.282 1.0988-15.953 4.8281a1 1 0 0 0-0.1582 1.4062 1 1 0 0 0 1.4063 0.1582c8.5275-6.8075 20.867-5.7528 28.111 2.4004 7.2445 8.1529 6.8339 20.521-0.92774 28.189-7.7616 7.6685-20.132 7.9283-28.197 0.58594-8.0652-7.3426-8.9724-19.692-2.0625-28.137a1 1 0 0 0-0.14062-1.4082 1 1 0 0 0-1.4082 0.14062c-7.5708 9.2524-6.5735 22.839 2.2637 30.885 8.8369 8.0452 22.448 7.7565 30.951-0.64453 8.503-8.401 8.9536-22.006 1.0156-30.939-3.9691-4.4668-9.3471-6.9903-14.9-7.4648z" color="#000000" stroke-linecap="round" stroke-linejoin="round" style="-inkscape-stroke:none"/>
 <path id="path8" d="m29.77 25.742s-0.75117 0.24065-1.5215 0.75781-1.7155 1.4112-1.7578 2.7695a1 1 0 0 0 0.96875 1.0312 1 1 0 0 0 1.0293-0.96875c0.01299-0.41699 0.36334-0.82836 0.875-1.1719 0.51166-0.34351 1.0293-0.51758 1.0293-0.51758a1 1 0 0 0 0.63867-1.2637 1 1 0 0 0-1.2617-0.63672z" color="#000000" stroke-linecap="round" stroke-linejoin="round" style="-inkscape-stroke:none"/>
 <path id="path10" d="m24.816 21.137c-0.49526 0.04869-0.93672 0.18089-1.3203 0.39453-0.76718 0.42728-1.2042 1.1396-1.4121 1.7871-0.41581 1.2951-0.125 2.5332-0.125 2.5332a1 1 0 0 0 1.1738 0.78711 1 1 0 0 0 0.78711-1.1758s-0.1346-0.90105 0.06836-1.5332c0.10148-0.31608 0.23563-0.51294 0.48242-0.65039 0.24679-0.13745 0.70566-0.25368 1.5938-0.07422a1 1 0 0 0 1.1777-0.7832 1 1 0 0 0-0.78125-1.1777c-0.59853-0.12095-1.1493-0.15612-1.6445-0.10742z" color="#000000" stroke-linecap="round" stroke-linejoin="round" style="-inkscape-stroke:none"/>
 <path id="path12" d="m4.043 1.584c-0.67185-0.19422-1.3986-0.046451-1.9414 0.39453a1.0001 1.0001 0 0 0-0.16406 0.16992c-0.42359 0.55672-0.54981 1.2897-0.33398 1.9551a1.0001 1.0001 0 0 0 0.13281 0.26562s7.2582 10.35 12.662 16.348c2.7097 3.0076 4.6221 4.4521 6 5.1758 0.68897 0.36185 1.2491 0.53978 1.668 0.62891 0.4189 0.08912 0.79141 0.16123 0.55078 0.08008-0.24053-0.08116-0.0535-0.02093 0.08203 0.07422 0.13553 0.09515 0.32737 0.2391 0.54492 0.4082 0.4351 0.3382 0.98375 0.78464 1.5176 1.2266 0.93903 0.77737 1.6244 1.3664 1.8262 1.5391 0.07013 1.4481 0.59487 2.8431 1.6582 3.8516a1.0001 1.0001 0 0 0 0.07227 0.0625s0.47384 0.39298 0.73438 0.93164c0.26054 0.53866 0.42573 1.0072-0.38086 1.8926l0.07031 0.02734a1.0001 1.0001 0 0 0-0.33008 0.64453v2e-3a1.0001 1.0001 0 0 0 1.6426 0.69531l-0.06055 0.11524c0.06594-0.04739 0.09191-0.09144 0.15625-0.13867 2.2532-1.654 3.5704-3.2149 4.1426-4.7305 0.58853-1.5588 0.34061-3.0391-0.25-4.1484-1.0795-2.0275-2.9565-2.9581-3.3027-3.123-0.07442-0.08149-0.8669-0.94658-1.752-1.9492-0.46285-0.52434-0.93012-1.0644-1.2852-1.4922-0.17752-0.21392-0.32736-0.39961-0.42773-0.5332-0.10038-0.1336-0.16987-0.32277-0.08008-0.08203 0.0887 0.23787 0.0047-0.131-0.09766-0.54688-0.10232-0.41592-0.29819-0.97129-0.68163-1.6485-0.76689-1.3544-2.2696-3.2206-5.3613-5.834-6.1658-5.2118-16.74-12.139-16.74-12.139a1.0001 1.0001 0 0 0-0.27148-0.12305zm-0.2832 2.166c0.87931 0.57979 10.303 6.8039 16.004 11.623 2.9761 2.5156 4.3128 4.2345 4.9121 5.293 0.29968 0.52926 0.41834 0.88815 0.48047 1.1406 0.06213 0.25247-0.0063 0.30551 0.16602 0.76758 0.13542 0.36306 0.21986 0.4061 0.35352 0.58398 0.13366 0.17789 0.29881 0.38106 0.48828 0.60938 0.37894 0.45663 0.85406 1.0064 1.3242 1.5391 0.94033 1.0652 1.8555 2.0645 1.8555 2.0645a1.0001 1.0001 0 0 0 0.30859 0.22852s1.8672 0.9675 2.627 2.3945c0.37988 0.71352 0.53343 1.4667 0.14258 2.502-0.22092 0.58515-0.72925 1.2917-1.4492 2.0605-0.05787-0.23712-0.02397-0.53371-0.11914-0.73047-0.49933-1.0324-1.3047-1.6387-1.3047-1.6387l0.07227 0.0625c-0.78751-0.74688-1.2012-1.8035-1.1328-2.8867a1.0001 1.0001 0 0 0-0.34766-0.82226s-1.0187-0.87342-2.1035-1.7715c-0.54241-0.44903-1.1015-0.9043-1.5664-1.2656-0.23243-0.18066-0.44-0.3377-0.62109-0.46484-0.18109-0.12714-0.2295-0.20912-0.59375-0.33203a1.0001 1.0001 0 0 0 0-2e-3c-0.46733-0.1576-0.5172-0.08653-0.77148-0.14062-0.25429-0.0541-0.61781-0.16057-1.1562-0.44336-1.0769-0.56554-2.835-1.8489-5.4434-4.7441-4.9968-5.5461-11.517-14.766-12.125-15.627z" color="#000000" stroke-linecap="round" stroke-linejoin="round" style="-inkscape-stroke:none"/>
</svg>
