<?xml version="1.0" encoding="UTF-8"?>
<svg id="svg1" version="1.1" viewBox="0 0 48 48" xml:space="preserve" xmlns="http://www.w3.org/2000/svg">
  <defs id="defs1">
    <style id="style1">.a{fill:none;stroke:#fff;stroke-width:2px;stroke-linecap:round;stroke-linejoin:round;}</style>
  </defs>
  <path id="path1" d="m37.033 8.2441c-0.20097-0.038699-0.26186 0.00861-0.32422 0.03125-0.06236 0.02264-0.11101 0.046783-0.16211 0.074219-0.1022 0.054873-0.20871 0.12381-0.33008 0.20703-0.24274 0.16644-0.53611 0.39029-0.83594 0.64258-3.0009 2.5251-5.2818 4.2528-6.8281 5.1875-0.37993 0.22964-0.50521 0.30307-0.66992 0.33789-0.16472 0.03482-0.46264 0.03735-1.1035 0.02344-0.7681-0.01665-1.3047-0.0023-1.9375 0.23242-0.63283 0.2347-1.3298 0.65129-2.5977 1.4199-0.43114 0.26137-0.89104 0.5259-1.2812 0.73828-0.3902 0.21238-0.73354 0.38055-0.83203 0.41797-0.07686 0.02921-0.43368 0.11767-0.84766 0.18945-0.41398 0.07179-0.91142 0.1408-1.3848 0.18945-2.0073 0.20631-2.6763 0.36195-3.4766 0.82422-0.40011 0.23111-0.70612 0.45247-0.90039 0.78516s-0.196 0.73758-0.09766 1.0938c0.11503 0.41662 0.38343 0.8337 0.74805 1.3223 0.36462 0.48857 0.82838 1.0207 1.3379 1.5215l0.44922 0.44141-0.34961 0.54102c-0.34305 0.52963-0.81235 1.421-1.0918 2.0684-0.52016 1.205-0.60167 1.3301-1.6426 2.6113-0.93961 1.1566-1.9512 2.785-2.9004 4.6445-0.41159 0.80636-0.65082 1.3989-1.0117 1.8887-0.3609 0.48979-0.85348 0.92276-1.8711 1.4395a0.5 0.5 0 0 0-0.21875 0.67188 0.5 0.5 0 0 0 0.67188 0.2207c1.1076-0.56241 1.7646-1.1186 2.2227-1.7402s0.70781-1.2636 1.0977-2.0273c0.9252-1.8126 1.916-3.3946 2.7871-4.4668 1.0492-1.2915 1.2548-1.6216 1.7832-2.8457 0.24815-0.57487 0.72545-1.4799 1.0117-1.9219l0.57226-0.88281a0.50005 0.50005 0 0 0-0.06836-0.62891l-0.74024-0.72656c-0.47359-0.46549-0.90978-0.96608-1.2383-1.4062-0.3285-0.44017-0.54517-0.84966-0.58398-0.99023-0.05878-0.21289-0.0477-0.24923-0.0039-0.32422 0.04379-0.07499 0.19867-0.22639 0.53711-0.42188 0.69331-0.40048 1.0935-0.49329 3.0781-0.69727 0.4985-0.05124 1.0155-0.12299 1.4551-0.19922 0.43962-0.07623 0.7758-0.14317 1.0312-0.24024 0.23215-0.08821 0.54945-0.25188 0.95508-0.47266 0.40562-0.22077 0.87658-0.49152 1.3223-0.76172 1.2637-0.76611 1.9392-1.1574 2.4258-1.3379 0.4866-0.18047 0.81676-0.18617 1.5664-0.16992 0.64104 0.01391 0.98699 0.02844 1.334-0.04492s0.6003-0.23114 0.98047-0.46094c1.6394-0.99095 3.9355-2.7365 6.9551-5.2773 0.27742-0.23343 0.55066-0.44328 0.75586-0.58398 0.03294-0.022589 0.0472-0.030046 0.07617-0.048828 0.01172 0.016832 0.01684 0.019599 0.0293 0.039063 0.1096 0.17127 0.24358 0.43693 0.36719 0.74023 0.24722 0.60662 0.46173 1.3773 0.51367 1.9258 0.06311 0.66631-0.05732 1.32-0.49609 2.4648-0.0714 0.18629-0.12387 0.36496-0.1543 0.5293-0.01521 0.08217-0.02608 0.15779-0.02539 0.25 6.92e-4 0.09221-0.04569 0.22265 0.16797 0.43555 0.13031 0.12986 0.34761 0.1769 0.48242 0.1582 0.13481-0.01869 0.21732-0.06581 0.28516-0.10938 0.13567-0.08713 0.22388-0.18277 0.31055-0.29102 0.1086-0.13564 0.15064-0.33866 0.2168-0.51758 0.30205 0.23207 0.66952 0.38281 1.1445 0.38281 0.2501 0 0.36446 0.0212 0.38086 0.02734 0.0164 0.0061 0.0061-0.01144 0.08789 0.09766 0.0564 0.07525 0.18944 0.46048 0.2168 0.88476 0.02736 0.42429-0.02 0.90068-0.125 1.2168-0.20316 0.61166-0.97812 1.4914-1.5117 1.7422-0.44804 0.2106-0.92333 0.6188-1.4258 1.1094-0.50245 0.49057-0.99357 1.0502-1.3301 1.5586-0.25088 0.37903-0.68393 1.1079-0.99219 1.666-0.28975 0.52462-0.7979 1.3534-1.0977 1.791-0.66948 0.97729-1.216 2.2912-1.7383 4.1133-0.30639 1.0689-0.34687 1.4605-0.35938 3.8145-0.0075 1.4113-0.05236 2.2747-0.17188 2.8418-0.11951 0.56707-0.28201 0.84069-0.63281 1.2402-1.0033 1.1427-1.8585 3.2991-1.9414 4.8574-0.04442 0.83478-0.17484 1.6548-0.34766 2.2246a0.5 0.5 0 0 0 0.33203 0.62305 0.5 0.5 0 0 0 0.62305-0.33398c0.20755-0.68441 0.34455-1.5583 0.39258-2.4609 0.06354-1.1942 0.95125-3.4048 1.6934-4.25 0.41684-0.47476 0.70979-0.98556 0.85938-1.6953s0.18576-1.6148 0.19336-3.043c0.01247-2.3472 0.02445-2.504 0.32227-3.543 0.50623-1.7661 1.0247-2.985 1.5996-3.8242 0.33264-0.48558 0.83598-1.3054 1.1484-1.8711 0.29394-0.53223 0.73385-1.2723 0.94922-1.5977 0.2725-0.41169 0.73605-0.94617 1.1973-1.3965 0.46121-0.45031 0.95756-0.82836 1.1523-0.91992 0.9032-0.42455 1.7125-1.3647 2.0332-2.3301 0.16423-0.49445 0.2103-1.0624 0.17578-1.5977-0.03452-0.53528-0.1187-1.0258-0.41406-1.4199-0.12553-0.16748-0.30513-0.34596-0.53906-0.43359-0.23394-0.08763-0.44945-0.0918-0.73047-0.0918-0.44194 0-0.42369 0.0051-0.5957-0.15625-0.18642-0.17484-0.42082-0.27842-0.71484-0.2832 0.18601-0.68008 0.42936-1.3831 0.375-1.957-0.066852-0.70587-0.30404-1.5221-0.58398-2.209-0.13997-0.34346-0.28873-0.65156-0.44922-0.90234-0.080245-0.12539-0.16348-0.23704-0.26367-0.33789s-0.21655-0.20818-0.43359-0.25z" color="#000000" stroke-linecap="round" stroke-linejoin="round" style="-inkscape-stroke:none"/>
  <path id="circle1" d="m24 1.5c-12.415 0-22.5 10.085-22.5 22.5s10.085 22.5 22.5 22.5 22.5-10.085 22.5-22.5-10.085-22.5-22.5-22.5zm0 2c11.334 0 20.5 9.1663 20.5 20.5s-9.1663 20.5-20.5 20.5-20.5-9.1663-20.5-20.5 9.1663-20.5 20.5-20.5z" color="#000000" stroke-linecap="round" stroke-linejoin="round" style="-inkscape-stroke:none"/>
</svg>
