<?xml version="1.0" encoding="UTF-8"?>
<svg id="svg1" version="1.1" viewBox="0 0 48 48" xmlns="http://www.w3.org/2000/svg">
 <defs id="defs1">
  <style id="style1">.b{fill:none;stroke:#000;stroke-width:2px;stroke-linecap:round;stroke-linejoin:round;}</style>
 </defs>
 <path id="path1" d="m37.127 7.752c-0.38914-0.074933-0.48931 0.016943-0.58789 0.052734-0.09858 0.035792-0.16409 0.070877-0.22852 0.10547-0.12886 0.069183-0.2462 0.14472-0.37695 0.23438-0.26151 0.17931-0.56397 0.41016-0.875 0.67188-2.9916 2.5173-5.2638 4.236-6.7637 5.1426-0.3798 0.22957-0.44205 0.26179-0.51562 0.27734-0.07358 0.01556-0.34944 0.02562-0.99024 0.01172-0.77733-0.01685-1.4152 0.0018-2.1211 0.26367-0.70594 0.26182-1.4117 0.69105-2.6816 1.4609-0.42386 0.25696-0.88118 0.51838-1.2637 0.72656-0.3825 0.20818-0.73788 0.37664-0.76953 0.38867 0.01243-0.0047-0.3547 0.0945-0.75586 0.16406-0.40116 0.06956-0.88884 0.13819-1.3496 0.18555-2.0187 0.20748-2.822 0.39551-3.6758 0.88867-0.43094 0.24892-0.81252 0.50331-1.082 0.96484-0.26952 0.46154-0.26656 1.0527-0.14844 1.4805 0.15314 0.55465 0.4474 0.97551 0.83008 1.4883 0.38268 0.51277 0.86121 1.0597 1.3887 1.5781l0.1582 0.15625-0.12891 0.19922c-0.37144 0.57346-0.83577 1.457-1.1309 2.1406-0.51605 1.1955-0.53357 1.22-1.5703 2.4961-0.97387 1.1987-1.9978 2.8474-2.959 4.7305-0.42246 0.82766-0.65644 1.3965-0.96875 1.8203-0.31231 0.42385-0.72271 0.79717-1.6953 1.291a1 1 0 0 0-0.43945 1.3438 1 1 0 0 0 1.3457 0.43945c1.1526-0.58526 1.8918-1.2011 2.3984-1.8887 0.50666-0.68761 0.76164-1.3532 1.1406-2.0957 0.91322-1.7891 1.8917-3.3489 2.7285-4.3789 1.0534-1.2966 1.323-1.7312 1.8555-2.9648 0.2325-0.53862 0.71477-1.4495 0.97266-1.8477l0.57227-0.88281a1.0001 1.0001 0 0 0-0.13867-1.2559l-0.74023-0.72852c-0.45564-0.44784-0.87706-0.93169-1.1875-1.3477-0.30398-0.40732-0.48566-0.78789-0.49414-0.80664 0.0094-0.0026 0.0396-0.05287 0.29297-0.19922 0.63983-0.36958 0.90565-0.42805 2.8789-0.63086 0.51108-0.05253 1.0358-0.12662 1.4883-0.20508 0.45244-0.07845 0.78026-0.13268 1.125-0.26367 0.29899-0.11361 0.60229-0.27698 1.0156-0.50195 0.41334-0.22497 0.89079-0.49883 1.3438-0.77344 1.2616-0.76486 1.9264-1.1435 2.3398-1.2969 0.41348-0.15335 0.64239-0.15668 1.3828-0.14062 0.64112 0.01391 1.0072 0.03794 1.4453-0.05469 0.43813-0.09263 0.75838-0.28966 1.1387-0.51953 1.6858-1.0191 3.9868-2.7756 7.0156-5.3242 0.12578-0.10583 0.22278-0.17127 0.33984-0.26172 0.03783 0.08145 0.06791 0.12267 0.10547 0.21484 0.23085 0.56647 0.43402 1.3134 0.47852 1.7832 0.05416 0.57188-0.03854 1.1259-0.46484 2.2383-0.08123 0.21195-0.1417 0.41202-0.17969 0.61719-0.01899 0.10258-0.03428 0.20259-0.0332 0.3457 0.0011 0.14311-0.09943 0.37275 0.31445 0.78516 0.2445 0.24364 0.65913 0.33478 0.9043 0.30078 0.24517-0.034 0.38049-0.11563 0.48633-0.18359 0.21167-0.13593 0.3198-0.26314 0.42969-0.40039 0.0482-0.06021 0.05242-0.19063 0.09961-0.25 0.30327 0.11062 0.56317 0.30274 0.87305 0.30274 0.09386 0 0.042-0.0055 0.08203-2e-3 -0.01439 0.0072 0.08448 0.21746 0.10547 0.54297 0.02378 0.36879-0.02618 0.80235-0.10156 1.0293-0.14442 0.4348-0.9012 1.2814-1.25 1.4453-0.57466 0.27013-1.0394 0.69437-1.5625 1.2051s-1.0299 1.0839-1.3984 1.6406c-0.26864 0.40586-0.69631 1.1301-1.0117 1.7012-0.2784 0.50406-0.78896 1.3345-1.0723 1.748-0.71679 1.0463-1.2763 2.4077-1.8066 4.2578-0.31069 1.0839-0.36638 1.5918-0.37891 3.9492-0.0075 1.4029-0.05568 2.2465-0.16016 2.7422-0.10448 0.49573-0.20175 0.65369-0.51953 1.0156-1.134 1.2915-1.9718 3.4177-2.0645 5.1582-0.04261 0.80086-0.17268 1.5929-0.32812 2.1055a1 1 0 0 0 0.66602 1.248 1 1 0 0 0 1.2461-0.66602c0.22492-0.74168 0.36228-1.6435 0.41211-2.5801 0.05385-1.0121 0.95882-3.2508 1.5703-3.9473 0.44986-0.51237 0.80999-1.1408 0.97461-1.9219 0.16462-0.78109 0.19548-1.706 0.20312-3.1426 0.01245-2.3438 0.0092-2.3842 0.30274-3.4082 0.49821-1.7381 1.0037-2.9096 1.5312-3.6797 0.34909-0.50959 0.85001-1.3258 1.1738-1.9121 0.28678-0.51927 0.73208-1.2659 0.92969-1.5645 0.2405-0.36334 0.68831-0.88427 1.1289-1.3145 0.44059-0.43018 0.94747-0.79218 1.0156-0.82422 1.088-0.51141 1.9155-1.4847 2.2949-2.627 0.19384-0.58362 0.23732-1.1963 0.19922-1.7871-0.0381-0.59077-0.09687-1.132-0.51172-1.6855-0.14741-0.19667-0.42097-0.47514-0.76367-0.60352-0.3427-0.12838-0.60977-0.12305-0.90625-0.12305-0.39744 0-0.15174 0.07433-0.25391-0.02149-0.13439-0.12604-0.28169-0.26717-0.47656-0.36523 0.09653-0.50619 0.33556-1.0863 0.29102-1.5566-0.074308-0.78452-0.32089-1.6244-0.61719-2.3515-0.14815-0.36353-0.30626-0.69188-0.49219-0.98242-0.092966-0.14527-0.1901-0.28099-0.32812-0.41992-0.13803-0.13893-0.31445-0.31723-0.69531-0.39062zm0.08984 6.752c2.49e-4 -1.6e-4 0.0017 1.62e-4 2e-3 0-0.0028 0.04437-0.03516 0.1026-0.03516 0.14453 0-0.36489 0.01639-0.15376-0.01758-0.11133-0.01698 0.02121-0.04155 0.02609 0.05078-0.0332zm1.9668 0.14453c0 0.01802 0.0096 0.10492-0.08008 0.26758-0.0058 0.01046-0.02998 0.01655-0.03711 0.02734 0.02733-0.11862 0.11719-0.12562 0.11719-0.29492z" color="#000000" stroke-linecap="round" stroke-linejoin="round" style="-inkscape-stroke:none"/>
 <path id="circle1" d="m24 1.5c-12.415 0-22.5 10.085-22.5 22.5s10.085 22.5 22.5 22.5 22.5-10.085 22.5-22.5-10.085-22.5-22.5-22.5zm0 2c11.334 0 20.5 9.1663 20.5 20.5s-9.1663 20.5-20.5 20.5-20.5-9.1663-20.5-20.5 9.1663-20.5 20.5-20.5z" color="#000000" stroke-linecap="round" stroke-linejoin="round" style="-inkscape-stroke:none"/>
</svg>
