<?xml version="1.0" encoding="UTF-8"?>
<svg id="svg6" version="1.1" viewBox="0 0 48 48" xmlns="http://www.w3.org/2000/svg">
 <defs id="defs1">
  <style id="style1">.a{fill:none;stroke:#000;stroke-width:2px;stroke-linecap:round;stroke-linejoin:round;}</style>
 </defs>
 <path id="path1" d="m17.238 8.9355c-3.9169 0.51323-6.0424 2.9996-6.9492 5.7285-0.84509 2.543-0.81175 5.2573-0.80469 7.291-1.819 1.1866-3.0513 2.4075-3.7188 3.7266-0.73374 1.45-0.85938 2.9349-0.85938 4.4043 0 1.7744 0.84332 4.1409 2.4883 6.2441 1.645 2.1033 4.1982 3.8945 7.5273 3.8945h17.404c1.4368 0 2.7292-0.77377 3.9023-1.8262 1.1731-1.0524 2.2525-2.4352 3.1934-3.9141s1.7391-3.0528 2.3125-4.498 0.93945-2.7256 0.93945-3.8164c0-2.0619-0.84679-3.3906-1.7539-4.0996 0.09644-0.07358 0.09789-0.04096 0.19531-0.12305 0.93575-0.78846 1.9785-2.0717 1.9785-3.8242 0-0.85405-0.24974-1.6478-0.73047-2.2578-0.48073-0.61001-1.1454-1.0145-1.8828-1.2871-1.4749-0.54527-3.3073-0.64062-5.4199-0.64062-2.1513 0-3.8736 0.25825-5.2969 1.3281-0.6549 0.49227-1.2006 1.1629-1.7168 1.957-0.0665-0.60651-0.08646-1.1889-0.23828-1.8184-0.53098-2.2017-1.7742-4.5089-4.3672-5.7031a1 1 0 0 0-1.3262 0.49023 1 1 0 0 0 0.49024 1.3262c1.945 0.89576 2.8139 2.5067 3.2598 4.3555 0.44587 1.8488 0.38086 3.8432 0.38086 5.1973a1.0001 1.0001 0 0 0 1.9297 0.36719c0.99648-2.5206 1.8529-3.8686 2.7891-4.5723 0.93614-0.70367 2.0991-0.92773 4.0957-0.92773 2.0353 0 3.7218 0.14612 4.7266 0.51758 0.50238 0.18573 0.81596 0.40747 1.0059 0.64844 0.1899 0.24097 0.30078 0.52103 0.30078 1.0195 0 0.95255-0.58028 1.7158-1.2676 2.2949s-1.3691 0.87305-1.3691 0.87305a1.0001 1.0001 0 0 0 0.30859 1.918s0.42194 0.0319 0.90039 0.38672 1.0078 0.96335 1.0078 2.5742c0 0.57732-0.27708 1.7631-0.79883 3.0781-0.52175 1.315-1.2706 2.7966-2.1406 4.1641-0.87004 1.3675-1.8658 2.6223-2.8398 3.4961-0.97404 0.87381-1.9013 1.3164-2.5684 1.3164h-17.404c-2.6221 0-4.5754-1.3679-5.9512-3.127-1.3757-1.759-2.0645-3.9608-2.0645-5.0117 0-1.3559 0.11394-2.4553 0.64258-3.5 0.52864-1.0447 1.5028-2.1085 3.4414-3.2773a1.0001 1.0001 0 0 0 0.48438-0.85742c0-2.1023-0.03974-4.8973 0.71094-7.1562 0.75068-2.259 2.0731-3.9525 5.3125-4.377a1 1 0 0 0 0.86133-1.1211 1 1 0 0 0-1.1211-0.86133z" stroke-linecap="round" stroke-linejoin="round"/>
 <path id="path2" d="m26.934 25.867a1 1 0 0 0-0.75586 0.12305 1 1 0 0 0-0.32226 1.377c0.55237 0.88988 1.0842 1.7108 1.834 2.3574 0.74977 0.64665 1.7537 1.0605 2.9238 1.0605a1.0001 1.0001 0 0 0 0.07031-2e-3c2.1938-0.15806 4.1221-1.5276 4.9941-3.5469a1 1 0 0 0-0.52148-1.3145 1 1 0 0 0-1.3145 0.52148c-0.57209 1.3247-1.8261 2.2109-3.2617 2.3301-0.72439-0.0075-1.1408-0.18218-1.584-0.56445-0.4525-0.39022-0.91167-1.043-1.4414-1.8964a1 1 0 0 0-0.62109-0.44531z" stroke-linecap="round" stroke-linejoin="round"/>
 <path id="line2" d="m22.498 13.578a1 1 0 0 0-1 1v5.0488a1 1 0 0 0 1 1 1 1 0 0 0 1-1v-5.0488a1 1 0 0 0-1-1z" stroke-linecap="round" stroke-linejoin="round"/>
 <path id="line3" d="m8.25 18.627a1 1 0 0 0-1 1 1 1 0 0 0 1 1h8.7773a1 1 0 0 0 1-1 1 1 0 0 0-1-1z" stroke-linecap="round" stroke-linejoin="round"/>
 <path id="line4" d="m15.223 13.578a1 1 0 0 0-1 1v5.0488a1 1 0 0 0 1 1 1 1 0 0 0 1-1v-5.0488a1 1 0 0 0-1-1z" stroke-linecap="round" stroke-linejoin="round"/>
 <path id="path4" d="m25.74 4.7969c-0.9674-0.13569-2.1598-0.089785-3.4844 0.30078-2.3677 0.68731-4.4043 2.2125-5.7305 4.291a1 1 0 0 0 0.30469 1.3809 1 1 0 0 0 1.3809-0.30469c1.0659-1.6706 2.7021-2.8956 4.6055-3.4473a1.0001 1.0001 0 0 0 0.0059-0.00195c1.0528-0.31043 1.9602-0.33372 2.6406-0.23828 0.6804 0.095434 1.1545 0.37132 1.1738 0.38867a1.0001 1.0001 0 0 0 0.01758 0.013672c0.09998 0.085643 0.09144 0.12991-0.03516 0.16602-1.2216 0.32678-2.0526 0.39972-2.9004 0.84766-0.85178 0.45005-1.4291 1.3091-1.873 2.5937a1 1 0 0 0 0.61719 1.2715 1 1 0 0 0 1.2734-0.61914c0.37835-1.0948 0.56627-1.2927 0.91797-1.4785 0.3517-0.18583 1.1608-0.32824 2.498-0.6875a1.0001 1.0001 0 0 0 0.01367-0.00586c1.5495-0.44198 2.0101-2.5421 0.79488-3.5957-0.54353-0.48327-1.2583-0.74001-2.2207-0.875z" stroke-linecap="round" stroke-linejoin="round"/>
 <path id="path5" d="m12.512 38.113s-0.80459 0.39412-1.6113 1.0977c-0.80674 0.70354-1.7422 1.7938-1.7422 3.2891a1.0001 1.0001 0 0 0 1 1h20.139a1.0001 1.0001 0 0 0 1-1.0059c-0.0068-1.1305-0.07355-2.2595-0.20117-3.3828a1 1 0 0 0-1.1074-0.88086 1 1 0 0 0-0.88086 1.1055c0.08162 0.71839 0.1 1.4419 0.12891 2.1641h-17.484c0.18204-0.26437 0.20327-0.55484 0.46289-0.78125 0.59211-0.51636 1.1855-0.81445 1.1855-0.81445a1 1 0 0 0 0.45117-1.3398 1 1 0 0 0-1.3398-0.45117z" stroke-linecap="round" stroke-linejoin="round"/>
 <path id="line5" d="m20.092 38.225a1 1 0 0 0-1 1v3.2754a1 1 0 0 0 1 1 1 1 0 0 0 1-1v-3.2754a1 1 0 0 0-1-1z" stroke-linecap="round" stroke-linejoin="round"/>
 <path id="path6" d="m12.389 21.043c-0.7548 0.01557-1.6433 0.02417-2.4707 0.57812a1 1 0 0 0-0.27539 1.3867 1 1 0 0 0 1.3887 0.27539c0.08178-0.05475 0.78754-0.22763 1.3984-0.24023 0.6109-0.0126 1.123 0.04297 1.123 0.04297a1 1 0 0 0 1.1016-0.88672 1 1 0 0 0-0.88477-1.1016s-0.62606-0.07026-1.3809-0.05469z" stroke-linecap="round" stroke-linejoin="round"/>
</svg>
