<?xml version="1.0" encoding="UTF-8"?>
<svg id="svg16" width="48" height="48" version="1.1" xmlns="http://www.w3.org/2000/svg">
 <defs id="defs4">
  <style id="style2">.a{fill:none;stroke:#000;stroke-width:2px;stroke-linecap:round;stroke-linejoin:round}</style>
 </defs>
 <path id="path6" d="m12.32 7.2734a1 1 0 0 0-0.71094 0.2832 1 1 0 0 0-0.01758 1.4141s0.37436 0.38491 0.74023 0.88672c0.36588 0.50181 0.61442 1.1699 0.61328 1.207l-0.73633 23.521a1.0001 1.0001 0 0 0 0.25781 0.70312l2.6152 2.8906a1 1 0 0 0 1.4121 0.07031 1 1 0 0 0 0.07227-1.4121l-2.3457-2.5918 0.72461-23.119c0.032857-1.0718-0.53693-1.8148-0.99805-2.4473s-0.92383-1.1055-0.92383-1.1055a1 1 0 0 0-0.70312-0.30078z" color="#000000" stroke-linecap="round" stroke-linejoin="round" style="-inkscape-stroke:none"/>
 <path id="path8" d="m35.127 7.498s-0.53241 0.52225-1.0703 1.1953c-0.26895 0.33653-0.54318 0.71221-0.76953 1.1172-0.22636 0.40498-0.43719 0.82586-0.43164 1.4063l0.0918 10.014-4.4375 3.7793a1.0001 1.0001 0 0 0-0.35156 0.76758l0.04687 8.3965-2.4219 1.9922-0.97266-0.85547-0.05664-12.066 1.9316-1.3984 0.79883 1.3438a1 1 0 0 0 1.3711 0.34766 1 1 0 0 0 0.34766-1.3711l-1.3594-2.2832a1.0001 1.0001 0 0 0-1.4453-0.29688l-3.2324 2.3398a1.0001 1.0001 0 0 0-0.41406 0.81445l0.05469 11.939-1.6074 1.5117-1.0273-1.0918 0.15625-6.1289a1.0001 1.0001 0 0 0-0.21289-0.64453l-1.5605-1.9844 2.8652-2.1426a1.0001 1.0001 0 0 0 0.16797-1.4434l-2.7793-3.3203a1.0001 1.0001 0 0 0-1.4043-0.12891l-1.1191 0.92383a1 1 0 0 0-0.13476 1.4082 1 1 0 0 0 1.4062 0.13476l0.35547-0.29297 1.4648 1.75-6.4648 4.832a1 1 0 0 0-0.20312 1.4004 1 1 0 0 0 1.4004 0.20117l2.8418-2.125 1.3691 1.7402-0.1582 6.1816a1.0001 1.0001 0 0 0 0.27148 0.71094l1.9941 2.1191a1.0001 1.0001 0 0 0 1.4141 0.04297l1.6328-1.5371 1.625 1.4336a1.0001 1.0001 0 0 0 1.2949 0.02148l2.6465-2.1758 2.5566 2.5762a1.0001 1.0001 0 0 0 1.4688-0.05078l1.7754-2.0605a1.0001 1.0001 0 0 0 0.24219-0.66211l-0.22852-24.68c5.48e-4 0.0574 0.03314-0.1569 0.17578-0.41211 0.14264-0.25521 0.36234-0.56348 0.58789-0.8457 0.45109-0.56444 0.91016-1.0195 0.91016-1.0195a1 1 0 0 0 0.01172-1.4141 1 1 0 0 0-1.4141-0.00977zm-4.0977 1.6191-15 8a1 1 0 0 0-0.41211 1.3535 1 1 0 0 0 1.3535 0.41211l15-8a1 1 0 0 0 0.41211-1.3535 1 1 0 0 0-1.3535-0.41211zm1.9434 14.721 0.10742 11.684-0.82422 0.95508-2.0508-2.0664-0.04492-8.1797z" color="#000000" stroke-linecap="round" stroke-linejoin="round" style="-inkscape-stroke:none"/>
 <circle id="circle10" cx="24" cy="6.25" r=".75"/>
 <path id="path12" d="m24 1a1.0001 1.0001 0 0 0-0.77734 0.37109l-2.9883 3.6973-4.1758-2.2734a1.0001 1.0001 0 0 0-1.4277 1.1895l1.418 4.3594a1 1 0 0 0 1.2598 0.64062 1 1 0 0 0 0.64258-1.2598l-0.64258-1.9707 2.7012 1.4707a1.0001 1.0001 0 0 0 1.2559-0.25l2.7344-3.3828 2.7344 3.3828a1.0001 1.0001 0 0 0 1.2559 0.25l2.7012-1.4707-0.64258 1.9707a1 1 0 0 0 0.64258 1.2598 1 1 0 0 0 1.2598-0.64062l1.418-4.3594a1.0001 1.0001 0 0 0-1.4277-1.1875l-4.1758 2.2715-2.9883-3.6973a1.0001 1.0001 0 0 0-0.77734-0.37109zm-15.662 6.4492a1 1 0 0 0-0.88867 1.0996l0.50195 4.7285-4.5586 1.3438a1.0001 1.0001 0 0 0-0.5957 1.4375l2.2715 4.1758-3.6973 2.9883a1.0001 1.0001 0 0 0 0 1.5547l3.6973 2.9883-2.2734 4.1758a1.0001 1.0001 0 0 0 0.5957 1.4375l4.5605 1.3438-0.50195 4.7285a1.0001 1.0001 0 0 0 1.0996 1.0996l4.7285-0.50195 1.3438 4.5586a1.0001 1.0001 0 0 0 1.4375 0.5957l4.1758-2.2715 2.9883 3.6973a1.0001 1.0001 0 0 0 1.5547 0l2.9883-3.6973 4.1758 2.2734a1.0001 1.0001 0 0 0 1.4375-0.5957l1.3438-4.5605 4.7285 0.50195a1.0001 1.0001 0 0 0 1.0996-1.0996l-0.50195-4.7285 4.5586-1.3438a1.0001 1.0001 0 0 0 0.5957-1.4375l-2.2715-4.1758 3.6973-2.9883a1.0001 1.0001 0 0 0 0-1.5547l-3.6973-2.9883 2.2734-4.1758a1.0001 1.0001 0 0 0-0.5957-1.4375l-4.5605-1.3438 0.50195-4.7285a1 1 0 0 0-0.88867-1.0996 1 1 0 0 0-1.0996 0.88867l-0.5918 5.5566a1.0001 1.0001 0 0 0 0.71289 1.0645l4.1719 1.2305-2.0801 3.8203a1.0001 1.0001 0 0 0 0.25 1.2559l3.3828 2.7344-3.3828 2.7344a1.0001 1.0001 0 0 0-0.25 1.2559l2.0801 3.8184-4.1719 1.2324a1.0001 1.0001 0 0 0-0.71289 1.0645l0.46094 4.3262-4.3262-0.46094a1.0001 1.0001 0 0 0-1.0645 0.71289l-1.2324 4.1719-3.8184-2.0801a1.0001 1.0001 0 0 0-1.2559 0.25l-2.7344 3.3828-2.7344-3.3828a1.0001 1.0001 0 0 0-1.2559-0.25l-3.8184 2.0801-1.2324-4.1719a1.0001 1.0001 0 0 0-1.0645-0.71289l-4.3262 0.46094 0.46094-4.3262a1.0001 1.0001 0 0 0-0.71289-1.0645l-4.1719-1.2324 2.0801-3.8184a1.0001 1.0001 0 0 0-0.25-1.2559l-3.3828-2.7344 3.3828-2.7344a1.0001 1.0001 0 0 0 0.25-1.2559l-2.0801-3.8184 4.1719-1.2324a1.0001 1.0001 0 0 0 0.71289-1.0645l-0.5918-5.5566a1 1 0 0 0-1.0996-0.88867zm8.6328 1.668a1 1 0 0 0-1.3535 0.41211 1 1 0 0 0 0.41211 1.3535l15 8a1 1 0 0 0 1.3535-0.41211 1 1 0 0 0-0.41211-1.3535z" color="#000000" stroke-linecap="round" stroke-linejoin="round" style="-inkscape-stroke:none"/>
 <path id="path14" d="m18.449 13.631a1 1 0 0 0-0.9375 1.0586l0.13476 2.2324a1.0001 1.0001 0 0 0 0.44727 0.77344l1.8652 1.2324a1 1 0 0 0 1.3848-0.2832 1 1 0 0 0-0.2832-1.3867l-1.4492-0.95508-0.10352-1.7344a1 1 0 0 0-1.0586-0.9375zm11.102 0a1 1 0 0 0-1.0586 0.9375l-0.10352 1.7344-1.4492 0.95508a1 1 0 0 0-0.2832 1.3867 1 1 0 0 0 1.3848 0.2832l1.8652-1.2324a1.0001 1.0001 0 0 0 0.44727-0.77344l0.13476-2.2324a1 1 0 0 0-0.9375-1.0586z" color="#000000" stroke-linecap="round" stroke-linejoin="round" style="-inkscape-stroke:none"/>
</svg>
