<?xml version="1.0" encoding="UTF-8" standalone="no"?>
<svg
   viewBox="0 0 48 48"
   version="1.1"
   id="svg4"
   sodipodi:docname="microsft-edge-beta.svg"
   xmlns:inkscape="http://www.inkscape.org/namespaces/inkscape"
   xmlns:sodipodi="http://sodipodi.sourceforge.net/DTD/sodipodi-0.dtd"
   xmlns="http://www.w3.org/2000/svg"
   xmlns:svg="http://www.w3.org/2000/svg">
  <sodipodi:namedview
     id="namedview4"
     pagecolor="#ffffff"
     bordercolor="#666666"
     borderopacity="1.0"
     inkscape:showpageshadow="2"
     inkscape:pageopacity="0.0"
     inkscape:pagecheckerboard="0"
     inkscape:deskcolor="#d1d1d1" />
  <defs
     id="defs1">
    <style
       id="style1">.a,.b{fill:none;stroke:#000;stroke-linecap:round;stroke-linejoin:round;}.a{stroke-width:2px;}</style>
  </defs>
  <path
     style="color:#000000;fill:#000000;stroke-linecap:round;stroke-linejoin:round;-inkscape-stroke:none"
     d="m 35.849609,4.5 a 1.0001,1.0001 0 0 0 -1,1 v 8 a 1.0001,1.0001 0 0 0 1,1 h 3.300782 c 0.916665,0 1.729488,-0.379756 2.246093,-0.960937 0.516606,-0.581182 0.753907,-1.316842 0.753907,-2.039063 0,-0.708475 -0.243926,-1.424161 -0.740235,-2 0.496309,-0.5758391 0.740235,-1.2915255 0.740235,-2 0,-0.7222214 -0.237301,-1.4578812 -0.753907,-2.0390625 C 40.879879,4.8797562 40.067056,4.5 39.150391,4.5 Z m 1,2 h 2.300782 c 0.416665,0 0.601892,0.1202446 0.751953,0.2890625 0.15006,0.1688179 0.248047,0.4331599 0.248047,0.7109375 0,0.2777776 -0.09799,0.5421196 -0.248047,0.7109375 C 39.752283,8.3797554 39.567056,8.5 39.150391,8.5 v 2 c 0.416665,0 0.601892,0.120245 0.751953,0.289063 0.15006,0.168817 0.248047,0.433159 0.248047,0.710937 0,0.277778 -0.09799,0.54212 -0.248047,0.710938 C 39.752283,12.379755 39.567056,12.5 39.150391,12.5 h -2.300782 z"
     id="path1" />
  <path
     style="color:#000000;fill:#000000;stroke-linecap:round;stroke-linejoin:round;-inkscape-stroke:none"
     d="m 35.849609,8.5 a 1,1 0 0 0 -1,1 1,1 0 0 0 1,1 h 3.300782 a 1,1 0 0 0 1,-1 1,1 0 0 0 -1,-1 z"
     id="line1" />
  <path
     style="color:#000000;fill:#000000;stroke-linecap:round;stroke-linejoin:round;-inkscape-stroke:none"
     d="m 24.003906,18.150391 c -2.244945,0 -4.808919,1.590584 -6.871094,4.070312 -2.062174,2.479728 -3.609374,5.893745 -3.609374,9.673828 0,3.068892 1.399355,6.496455 3.742187,9.201172 2.342832,2.704717 5.66067,4.692536 9.507812,4.734375 a 0.5,0.5 0 0 0 0.50586,-0.494141 0.5,0.5 0 0 0 -0.494141,-0.505859 c -3.50885,-0.03816 -6.567608,-1.853394 -8.763672,-4.388672 -2.196063,-2.535278 -3.498047,-5.786772 -3.498046,-8.546875 0,-3.506109 1.446681,-6.712085 3.376953,-9.033203 1.930272,-2.321117 4.356065,-3.710937 6.103515,-3.710937 2.046749,0 3.227306,1.06365 3.96875,2.169921 0.741445,1.106272 0.972656,2.210938 0.972656,2.210938 a 0.5,0.5 0 0 0 0.589844,0.390625 0.5,0.5 0 0 0 0.388672,-0.589844 c 0,0 -0.258462,-1.284183 -1.119141,-2.568359 -0.860678,-1.284176 -2.396034,-2.613281 -4.800781,-2.613281 z"
     id="path2" />
  <path
     style="color:#000000;fill:#000000;stroke-linecap:round;stroke-linejoin:round;-inkscape-stroke:none"
     d="M 23.900391,1.9921875 C 14.126438,2.0706346 4.9968367,8.725323 2.6113281,19.044922 -0.56934998,32.804387 9.8815728,45.972638 24.003906,46 32.179404,46 38.960664,41.306734 43.107422,34.955078 v -0.002 c 0.444987,-0.676062 0.284278,-1.517697 -0.253906,-1.927734 -0.538654,-0.410396 -1.390014,-0.37782 -2.050782,0.201171 l 0.03906,-0.03125 c -2.204757,1.566962 -4.792154,2.50399 -7.488281,2.71875 -1.993199,-0.0041 -5.611218,-0.69468 -8.65625,-2.480468 -3.054146,-1.791133 -5.533203,-4.604023 -5.533204,-8.994141 0,-1.806849 0.504511,-2.880528 0.980469,-3.515625 0.475959,-0.635096 0.884766,-0.808594 0.884766,-0.808594 a 0.5,0.5 0 0 0 0.248047,-0.662109 0.5,0.5 0 0 0 -0.66211,-0.248047 c 0,0 -0.668793,0.314939 -1.271484,1.119141 -0.602691,0.804202 -1.179687,2.119287 -1.179688,4.115234 0,4.772473 2.775946,7.948655 6.027344,9.855469 3.251398,1.906813 6.972912,2.623047 9.185547,2.623047 a 0.50005,0.50005 0 0 0 0.03906,-0.002 c 2.882269,-0.226444 5.649264,-1.231374 8.005859,-2.90625 a 0.50005,0.50005 0 0 0 0.03906,-0.03125 c 0.387232,-0.339308 0.644565,-0.266807 0.78711,-0.158204 0.142545,0.108604 0.235802,0.262246 0.02344,0.583985 a 0.50005,0.50005 0 0 0 0,0.002 C 38.274119,40.529811 31.798506,44.999234 24.005859,45 10.503157,44.973839 0.54481491,32.425286 3.5859375,19.269531 6.6270601,6.1137767 21.082247,-0.78919677 33.226562,5.1132812 A 0.5,0.5 0 0 0 33.894531,4.8808594 0.5,0.5 0 0 0 33.664062,4.2128906 C 30.48866,2.6695558 27.158375,1.9660385 23.900391,1.9921875 Z"
     id="path3" />
  <path
     style="color:#000000;fill:#000000;stroke-linecap:round;stroke-linejoin:round;-inkscape-stroke:none"
     d="m 16.388672,12.181641 c -3.122293,0 -6.6640492,1.046377 -9.4687501,3.044922 -2.8047009,1.998544 -4.875,4.997115 -4.875,8.814453 a 0.5,0.5 0 0 0 0.5,0.5 0.5,0.5 0 0 0 0.5,-0.5 c 0,-3.458855 1.8425594,-6.138399 4.4550781,-8 2.612519,-1.861602 5.992471,-2.859375 8.888672,-2.859375 2.877129,0 6.063787,1.155121 8.498047,3.099609 2.434259,1.944488 4.107422,4.645315 4.107422,7.759766 0,1.496998 -0.384333,1.989888 -0.830079,2.484375 -0.222872,0.247243 -0.484316,0.489897 -0.707031,0.835937 -0.222714,0.34604 -0.378906,0.798916 -0.378906,1.361328 0,0.539581 0.281299,1.020015 0.683594,1.386719 0.402294,0.366704 0.93255,0.652682 1.55664,0.886719 1.248181,0.468073 2.880475,0.720703 4.607422,0.720703 2.798325,0 5.874867,-0.687343 8.244141,-2.273438 2.369273,-1.586094 4.01002,-4.136667 3.763672,-7.632812 a 0.50005,0.50005 0 0 0 -0.002,-0.01563 c -0.258892,-2.59946 -0.980119,-5.132348 -2.128907,-7.478516 a 0.5,0.5 0 0 0 -0.667968,-0.228515 0.5,0.5 0 0 0 -0.230469,0.669922 c 1.095895,2.238143 1.783824,4.653104 2.03125,7.132812 1.27e-4,0.0013 -1.27e-4,0.0026 0,0.0039 0.217351,3.15312 -1.181065,5.283385 -3.322266,6.716797 -2.144547,1.435653 -5.05583,2.105469 -7.6875,2.105469 -1.626749,0 -3.168467,-0.250427 -4.255859,-0.658203 -0.543696,-0.203888 -0.970436,-0.448864 -1.234375,-0.689453 -0.263939,-0.240589 -0.357422,-0.442467 -0.357422,-0.646485 0,-0.395737 0.08214,-0.608056 0.21875,-0.820312 0.13661,-0.212257 0.355101,-0.422788 0.611328,-0.707032 0.512453,-0.568487 1.085938,-1.457298 1.085938,-3.154296 0,-3.473044 -1.870665,-6.453183 -4.484375,-8.541016 -2.613711,-2.087833 -5.97973,-3.318359 -9.121094,-3.318359 z"
     id="path4" />
  <path
     style="color:#000000;fill:#000000;stroke-linecap:round;stroke-linejoin:round;-inkscape-stroke:none"
     d="M 38.5,2 C 34.363791,2 31,5.3637908 31,9.5 31,13.636209 34.363791,17 38.5,17 42.636209,17 46,13.636209 46,9.5 46,5.3637908 42.636209,2 38.5,2 Z m 0,1 C 42.09577,3 45,5.9042304 45,9.5 45,13.09577 42.09577,16 38.5,16 34.90423,16 32,13.09577 32,9.5 32,5.9042304 34.90423,3 38.5,3 Z"
     id="circle4" />
</svg>
