<?xml version="1.0" encoding="UTF-8"?>
<svg id="svg4" version="1.1" viewBox="0 0 48 48" xmlns="http://www.w3.org/2000/svg">
 <defs id="defs1">
  <style id="style1">.a,.b{fill:none;stroke:#000;stroke-linecap:round;stroke-linejoin:round;}.a{stroke-width:2px;}</style>
 </defs>
 <path id="path1" d="m35.85 4.5a1.0001 1.0001 0 0 0-1 1v8a1.0001 1.0001 0 0 0 1 1h3.3008c0.91666 0 1.7295-0.37976 2.2461-0.96094 0.51661-0.58118 0.75391-1.3168 0.75391-2.0391 0-0.70848-0.24393-1.4242-0.74024-2 0.49631-0.57584 0.74024-1.2915 0.74024-2 0-0.72222-0.2373-1.4579-0.75391-2.0391-0.5166-0.58118-1.3294-0.96094-2.2461-0.96094zm1 2h2.3008c0.41666 0 0.60189 0.12024 0.75195 0.28906 0.15006 0.16882 0.24805 0.43316 0.24805 0.71094s-0.09799 0.54212-0.24805 0.71094c-0.15006 0.16882-0.33529 0.28906-0.75195 0.28906v2c0.41666 0 0.60189 0.12024 0.75195 0.28906 0.15006 0.16882 0.24805 0.43316 0.24805 0.71094s-0.09799 0.54212-0.24805 0.71094c-0.15006 0.16882-0.33529 0.28906-0.75195 0.28906h-2.3008z" color="#000000" stroke-linecap="round" stroke-linejoin="round" style="-inkscape-stroke:none"/>
 <path id="line1" d="m35.85 8.5a1 1 0 0 0-1 1 1 1 0 0 0 1 1h3.3008a1 1 0 0 0 1-1 1 1 0 0 0-1-1z" color="#000000" stroke-linecap="round" stroke-linejoin="round" style="-inkscape-stroke:none"/>
 <path id="path2" d="m24.004 18.15c-2.2449 0-4.8089 1.5906-6.8711 4.0703-2.0622 2.4797-3.6094 5.8937-3.6094 9.6738 0 3.0689 1.3994 6.4965 3.7422 9.2012s5.6607 4.6925 9.5078 4.7344a0.5 0.5 0 0 0 0.50586-0.49414 0.5 0.5 0 0 0-0.49414-0.50586c-3.5088-0.03816-6.5676-1.8534-8.7637-4.3887-2.1961-2.5353-3.498-5.7868-3.498-8.5469 0-3.5061 1.4467-6.7121 3.377-9.0332 1.9303-2.3211 4.3561-3.7109 6.1035-3.7109 2.0467 0 3.2273 1.0636 3.9688 2.1699 0.74144 1.1063 0.97266 2.2109 0.97266 2.2109a0.5 0.5 0 0 0 0.58984 0.39062 0.5 0.5 0 0 0 0.38867-0.58984s-0.25846-1.2842-1.1191-2.5684c-0.86068-1.2842-2.396-2.6133-4.8008-2.6133z" color="#000000" stroke-linecap="round" stroke-linejoin="round" style="-inkscape-stroke:none"/>
 <path id="path3" d="m23.9 1.9922c-9.774 0.078447-18.904 6.7331-21.289 17.053-3.1807 13.759 7.2702 26.928 21.393 26.955 8.1755 0 14.957-4.6933 19.104-11.045v-2e-3c0.44499-0.67606 0.28428-1.5177-0.25391-1.9277-0.53865-0.4104-1.39-0.37782-2.0508 0.20117l0.03906-0.03125c-2.2048 1.567-4.7922 2.504-7.4883 2.7188-1.9932-0.0041-5.6112-0.69468-8.6562-2.4805-3.0541-1.7911-5.5332-4.604-5.5332-8.9941 0-1.8068 0.50451-2.8805 0.98047-3.5156 0.47596-0.6351 0.88477-0.80859 0.88477-0.80859a0.5 0.5 0 0 0 0.24805-0.66211 0.5 0.5 0 0 0-0.66211-0.24805s-0.66879 0.31494-1.2715 1.1191-1.1797 2.1193-1.1797 4.1152c0 4.7725 2.7759 7.9487 6.0273 9.8555 3.2514 1.9068 6.9729 2.623 9.1855 2.623a0.50005 0.50005 0 0 0 0.03906-2e-3c2.8823-0.22644 5.6493-1.2314 8.0059-2.9062a0.50005 0.50005 0 0 0 0.03906-0.03125c0.38723-0.33931 0.64456-0.26681 0.78711-0.1582 0.14254 0.1086 0.2358 0.26225 0.02344 0.58398a0.50005 0.50005 0 0 0 0 2e-3c-3.9974 6.1236-10.473 10.593-18.266 10.594-13.503-0.026161-23.461-12.575-20.42-25.73 3.0411-13.156 17.496-20.059 29.641-14.156a0.5 0.5 0 0 0 0.66797-0.23242 0.5 0.5 0 0 0-0.23047-0.66797c-3.1754-1.5433-6.5057-2.2469-9.7637-2.2207z" color="#000000" stroke-linecap="round" stroke-linejoin="round" style="-inkscape-stroke:none"/>
 <path id="path4" d="m16.389 12.182c-3.1223 0-6.664 1.0464-9.4688 3.0449-2.8047 1.9985-4.875 4.9971-4.875 8.8145a0.5 0.5 0 0 0 0.5 0.5 0.5 0.5 0 0 0 0.5-0.5c0-3.4589 1.8426-6.1384 4.4551-8 2.6125-1.8616 5.9925-2.8594 8.8887-2.8594 2.8771 0 6.0638 1.1551 8.498 3.0996 2.4343 1.9445 4.1074 4.6453 4.1074 7.7598 0 1.497-0.38433 1.9899-0.83008 2.4844-0.22287 0.24724-0.48432 0.4899-0.70703 0.83594-0.22271 0.34604-0.37891 0.79892-0.37891 1.3613 0 0.53958 0.2813 1.02 0.68359 1.3867 0.40229 0.3667 0.93255 0.65268 1.5566 0.88672 1.2482 0.46807 2.8805 0.7207 4.6074 0.7207 2.7983 0 5.8749-0.68734 8.2441-2.2734 2.3693-1.5861 4.01-4.1367 3.7637-7.6328a0.50005 0.50005 0 0 0-2e-3 -0.01563c-0.25889-2.5995-0.98012-5.1323-2.1289-7.4785a0.5 0.5 0 0 0-0.66797-0.22852 0.5 0.5 0 0 0-0.23047 0.66992c1.0959 2.2381 1.7838 4.6531 2.0312 7.1328 1.27e-4 0.0013-1.27e-4 0.0026 0 0.0039 0.21735 3.1531-1.1811 5.2834-3.3223 6.7168-2.1445 1.4357-5.0558 2.1055-7.6875 2.1055-1.6267 0-3.1685-0.25043-4.2559-0.6582-0.5437-0.20389-0.97044-0.44886-1.2344-0.68945s-0.35742-0.44247-0.35742-0.64648c0-0.39574 0.08214-0.60806 0.21875-0.82031 0.13661-0.21226 0.3551-0.42279 0.61133-0.70703 0.51245-0.56849 1.0859-1.4573 1.0859-3.1543 0-3.473-1.8707-6.4532-4.4844-8.541-2.6137-2.0878-5.9797-3.3184-9.1211-3.3184z" color="#000000" stroke-linecap="round" stroke-linejoin="round" style="-inkscape-stroke:none"/>
 <path id="circle4" d="m38.5 2c-4.1362 0-7.5 3.3638-7.5 7.5 0 4.1362 3.3638 7.5 7.5 7.5s7.5-3.3638 7.5-7.5c0-4.1362-3.3638-7.5-7.5-7.5zm0 1c3.5958 0 6.5 2.9042 6.5 6.5 0 3.5958-2.9042 6.5-6.5 6.5s-6.5-2.9042-6.5-6.5c0-3.5958 2.9042-6.5 6.5-6.5z" color="#000000" stroke-linecap="round" stroke-linejoin="round" style="-inkscape-stroke:none"/>
</svg>
