<?xml version="1.0" encoding="UTF-8"?>
<svg id="a" version="1.1" viewBox="0 0 48 48" xmlns="http://www.w3.org/2000/svg">
 <defs id="defs1">
  <style id="style1">.b{fill:none;stroke:#000;stroke-width:2px;stroke-linecap:round;stroke-linejoin:round;}</style>
 </defs>
 <path id="polygon1" d="m5.5 16.959a1.0001 1.0001 0 0 0-1 1v12.082a1.0001 1.0001 0 0 0 1 1h5.2852a1.0001 1.0001 0 0 0 0.70703-0.29297l4.5312-4.5312a1.0001 1.0001 0 0 0 0.29297-0.70703v-3.0195a1.0001 1.0001 0 0 0-0.29297-0.70703l-4.5312-4.5312a1.0001 1.0001 0 0 0-0.70703-0.29297zm1 2h3.8711l3.9453 3.9453v2.1914l-3.9453 3.9453h-3.8711z" color="#000000" stroke-linecap="round" stroke-linejoin="round" style="-inkscape-stroke:none"/>
 <path id="polygon2" d="m37.215 16.959a1.0001 1.0001 0 0 0-0.70703 0.29297l-4.5312 4.5312a1.0001 1.0001 0 0 0-0.29297 0.70703v3.0195a1.0001 1.0001 0 0 0 0.29297 0.70703l4.5312 4.5312a1.0001 1.0001 0 0 0 0.70703 0.29297h5.2852a1.0001 1.0001 0 0 0 1-1v-12.082a1.0001 1.0001 0 0 0-1-1zm0.41406 2h3.8711v10.082h-3.8711l-3.9453-3.9453v-2.1914z" color="#000000" stroke-linecap="round" stroke-linejoin="round" style="-inkscape-stroke:none"/>
 <path id="path2" d="m19.848 14.316a1.0001 1.0001 0 0 0-0.70703 0.29297l-4.5312 4.5312a1.0001 1.0001 0 0 0-0.29297 0.70703v8.3047a1.0001 1.0001 0 0 0 0.29297 0.70703l4.5312 4.5312a1.0001 1.0001 0 0 0 0.70703 0.29297h8.3047a1.0001 1.0001 0 0 0 0.70703-0.29297l4.5312-4.5312a1.0001 1.0001 0 0 0 0.29297-0.70703v-8.3047a1.0001 1.0001 0 0 0-0.29297-0.70703l-4.5312-4.5312a1.0001 1.0001 0 0 0-0.70703-0.29297h-2.6426a1 1 0 0 0-1 1 1 1 0 0 0 1 1h2.2285l3.9453 3.9453v7.4766l-3.9453 3.9453h-7.4766l-3.9453-3.9453v-7.4766l3.9453-3.9453h2.2285a1 1 0 0 0 1-1 1 1 0 0 0-1-1z" color="#000000" stroke-linecap="round" stroke-linejoin="round" style="-inkscape-stroke:none"/>
 <path id="polygon3" d="m17.959 4.5a1.0001 1.0001 0 0 0-1 1v5.2852a1.0001 1.0001 0 0 0 0.29297 0.70703l4.5312 4.5312a1.0001 1.0001 0 0 0 0.70703 0.29297h3.0195a1.0001 1.0001 0 0 0 0.70703-0.29297l4.5312-4.5312a1.0001 1.0001 0 0 0 0.29297-0.70703v-5.2852a1.0001 1.0001 0 0 0-1-1zm1 2h10.082v3.8711l-3.9453 3.9453h-2.1914l-3.9453-3.9453z" color="#000000" stroke-linecap="round" stroke-linejoin="round" style="-inkscape-stroke:none"/>
 <path id="polygon4" d="m22.49 31.684a1.0001 1.0001 0 0 0-0.70703 0.29297l-4.5312 4.5312a1.0001 1.0001 0 0 0-0.29297 0.70703v5.2852a1.0001 1.0001 0 0 0 1 1h12.082a1.0001 1.0001 0 0 0 1-1v-5.2852a1.0001 1.0001 0 0 0-0.29297-0.70703l-4.5312-4.5312a1.0001 1.0001 0 0 0-0.70703-0.29297zm0.41406 2h2.1914l3.9453 3.9453v3.8711h-10.082v-3.8711z" color="#000000" stroke-linecap="round" stroke-linejoin="round" style="-inkscape-stroke:none"/>
 <path id="path4" d="m21.99 14.316a1 1 0 0 0-1 1v6.3984a1.0001 1.0001 0 0 0 0.29297 0.70703l0.78711 0.78906a1.0001 1.0001 0 0 0 0.70703 0.29297h2.4453a1.0001 1.0001 0 0 0 0.70703-0.29297l0.78711-0.78906a1.0001 1.0001 0 0 0 0.29297-0.70703v-6.3984a1 1 0 0 0-1-1 1 1 0 0 0-1 1v5.9844l-0.20117 0.20312h-1.6172l-0.20117-0.20312v-5.9844a1 1 0 0 0-1-1z" color="#000000" stroke-linecap="round" stroke-linejoin="round" style="-inkscape-stroke:none"/>
</svg>
