<?xml version="1.0" encoding="UTF-8"?>
<svg id="b" version="1.1" viewBox="0 0 48 48" xmlns="http://www.w3.org/2000/svg">
 <defs id="defs1">
  <style id="style1">.c{fill:none;stroke:#000;stroke-width:2px;stroke-linecap:round;stroke-linejoin:round;}</style>
 </defs>
 <path id="polygon1" d="m5.2559 12.666a1.0001 1.0001 0 0 0-0.5 0.86719v20.934a1.0001 1.0001 0 0 0 0.5 0.86719l18.244 10.531a1.0001 1.0001 0 0 0 1.5-0.86523v-20.934a1.0001 1.0001 0 0 0-0.5-0.86719l-18.244-10.533a1.0001 1.0001 0 0 0-1 0zm1.5 2.5977 16.244 9.3789v18.627l-16.244-9.3789z" stroke-linecap="round" stroke-linejoin="round"/>
 <path id="polygon2" d="m5.2559 12.666a1.0001 1.0001 0 0 0-0.5 0.86719v7.8496a1.0001 1.0001 0 0 0 0.5 0.86719l1.7812 1.0273v2.0391a1.0001 1.0001 0 0 0 0.5 0.86719l2.2812 1.3164a1.0001 1.0001 0 0 0 1.5-0.86719v-3.5l0.7793 0.44922a1.0001 1.0001 0 0 0 1.5-0.86523v-0.88477l0.28125 0.16211v4.6562a1.0001 1.0001 0 0 0 0.5 0.86523l2.2793 1.3164a1.0001 1.0001 0 0 0 1.5-0.86523v-0.88477l0.28125 0.16211v2.0391a1.0001 1.0001 0 0 0 0.5 0.86523l2.2793 1.3164a1.0001 1.0001 0 0 0 1.5-0.86524v-0.88476l0.78125 0.45117a1.0001 1.0001 0 0 0 1.5-0.86719v-5.2324a1.0001 1.0001 0 0 0-0.5-0.86719l-2.2812-1.3164-2.2793-1.3164-2.2812-1.3164-2.2793-1.3164-2.2812-1.3164-2.2793-1.3164-2.2812-1.3164-2.2812-1.3184a1.0001 1.0001 0 0 0-1 0zm1.5 2.5977 0.78125 0.45117 2.2812 1.3164 2.2793 1.3184 2.2812 1.3164 2.2793 1.3164 2.2812 1.3164 2.2793 1.3164 1.7812 1.0273v2.9258l-0.78125-0.45117a1.0001 1.0001 0 0 0-1.5 0.86524v0.88476l-0.2793-0.16211v-2.0391a1.0001 1.0001 0 0 0-0.5-0.86524l-2.2812-1.3164a1.0001 1.0001 0 0 0-1.5 0.86523v0.88477l-0.2793-0.16211v-4.6562a1.0001 1.0001 0 0 0-0.5-0.86524l-2.2812-1.3164a1.0001 1.0001 0 0 0-1.5 0.86523v0.88281l-0.7793-0.44922a1.0001 1.0001 0 0 0-1.5 0.86719v3.5l-0.28125-0.16211v-2.0391a1.0001 1.0001 0 0 0-0.5-0.86524l-1.7812-1.0273z" stroke-linecap="round" stroke-linejoin="round"/>
 <path id="polygon3" d="m23.5 2.1348-18.244 10.531a1.0001 1.0001 0 0 0 0 1.7324l18.244 10.533a1.0001 1.0001 0 0 0 1 0l18.244-10.533a1.0001 1.0001 0 0 0 0-1.7324l-18.244-10.531a1.0001 1.0001 0 0 0-1 0zm0.5 2.0195 16.244 9.3789-16.244 9.377-16.244-9.377z" stroke-linecap="round" stroke-linejoin="round"/>
 <path id="polygon4" d="m41.744 12.666-18.244 10.533a1.0001 1.0001 0 0 0-0.5 0.86719v20.934a1.0001 1.0001 0 0 0 1.5 0.86523l18.244-10.531a1.0001 1.0001 0 0 0 0.5-0.86719v-20.934a1.0001 1.0001 0 0 0-1.5-0.86719zm-0.5 2.5977v18.627l-16.244 9.3789v-18.627z" stroke-linecap="round" stroke-linejoin="round"/>
 <path id="polygon5" d="m41.744 12.666-2.2812 1.3184-2.2812 1.3164-2.2793 1.3164-2.2812 1.3164-2.2793 1.3164-2.2812 1.3164-2.2793 1.3164-2.2812 1.3164a1.0001 1.0001 0 0 0-0.5 0.86719v7.8496a1.0001 1.0001 0 0 0 1.5 0.86523l0.78125-0.45117v0.88672a1.0001 1.0001 0 0 0 1.5 0.86523l2.2793-1.3164a1.0001 1.0001 0 0 0 0.5-0.86523v-4.6562l1.7812-1.0293a1.0001 1.0001 0 0 0 0.5-0.86524v-2.0391l0.2793-0.16211v3.502a1.0001 1.0001 0 0 0 1.5 0.86523l2.2812-1.3164a1.0001 1.0001 0 0 0 0.5-0.86719v-2.0391l0.2793-0.16211v0.88477a1.0001 1.0001 0 0 0 1.5 0.86719l2.2812-1.3164a1.0001 1.0001 0 0 0 0.5-0.86719v-2.0391l1.7812-1.0273a1.0001 1.0001 0 0 0 0.5-0.86719v-5.2324a1.0001 1.0001 0 0 0-1.5-0.86719zm-0.5 2.5977v2.9258l-1.7812 1.0273a1.0001 1.0001 0 0 0-0.5 0.86523v2.041l-0.28125 0.16211v-0.88476a1.0001 1.0001 0 0 0-1.5-0.86719l-2.2793 1.3164a1.0001 1.0001 0 0 0-0.5 0.86719v2.0391l-0.28125 0.16211v-3.502a1.0001 1.0001 0 0 0-1.5-0.86524l-2.2793 1.3164a1.0001 1.0001 0 0 0-0.5 0.86524v2.0391l-1.7812 1.0293a1.0001 1.0001 0 0 0-0.5 0.86524v4.6562l-0.2793 0.16211v-0.88477a1.0001 1.0001 0 0 0-1.5-0.86523l-0.78125 0.45117v-5.543l1.7812-1.0273 2.2793-1.3164 2.2812-1.3164 2.2793-1.3164 2.2812-1.3164 2.2793-1.3184 2.2812-1.3164z" stroke-linecap="round" stroke-linejoin="round"/>
</svg>
