<?xml version="1.0" encoding="UTF-8"?>
<svg id="svg1" version="1.1" viewBox="0 0 48 48" xmlns="http://www.w3.org/2000/svg">
 <defs id="defs1">
  <style id="style1">.a{fill:none;stroke:#000;stroke-width:2px;stroke-linecap:round;stroke-linejoin:round;}</style>
 </defs>
 <path id="path1" d="m23.637 6.1367c-1.0348 0.021108-2.0789 0.1322-3.123 0.33984-8.3532 1.6612-14.381 9.0057-14.381 17.523a1 1 0 0 0 1 1 1 1 0 0 0 1-1c6e-7 -7.5758 5.3423-14.085 12.771-15.562 7.4291-1.4774 14.851 2.4931 17.75 9.4922 2.8991 6.9991 0.458 15.055-5.8398 19.264-6.2979 4.2085-14.676 3.3823-20.033-1.9746a1 1 0 0 0-1.416 0 1 1 0 0 0 0 1.416c6.0229 6.0229 15.479 6.9526 22.561 2.2207 7.0811-4.7319 9.8356-13.823 6.5762-21.691-2.852-6.8853-9.6215-11.175-16.865-11.027z" stroke-linecap="round" stroke-linejoin="round"/>
 <path id="polygon1" d="m1.8672 23a1.0001 1.0001 0 0 0-0.75781 1.6523l5.2656 6.127a1.0001 1.0001 0 0 0 1.5156 0l5.2676-6.127a1.0001 1.0001 0 0 0-0.75976-1.6523zm2.1777 2h6.1758l-3.0879 3.5938z" stroke-linecap="round" stroke-linejoin="round"/>
 <path id="circle1" d="m24 19c-2.7496 0-5 2.2504-5 5s2.2504 5 5 5 5-2.2504 5-5-2.2504-5-5-5zm0 2c1.6687 0 3 1.3313 3 3s-1.3313 3-3 3-3-1.3313-3-3 1.3313-3 3-3z" stroke-linecap="round" stroke-linejoin="round"/>
</svg>
