<?xml version="1.0" encoding="UTF-8"?>
<svg id="svg1" version="1.1" viewBox="0 0 48 48" xmlns="http://www.w3.org/2000/svg">
 <defs id="defs1">
  <style id="style1">.b{fill:none;stroke:#000;stroke-width:2px;stroke-linecap:round;stroke-linejoin:round;}</style>
 </defs>
 <path id="circle1" d="m24 1.5c-12.415 0-22.5 10.085-22.5 22.5s10.085 22.5 22.5 22.5 22.5-10.085 22.5-22.5-10.085-22.5-22.5-22.5zm0 2c11.334 0 20.5 9.1663 20.5 20.5s-9.1663 20.5-20.5 20.5-20.5-9.1663-20.5-20.5 9.1663-20.5 20.5-20.5z" stop-color="#000000" stroke-linecap="round" stroke-linejoin="round"/>
 <path id="path1" d="m10.127 12.072a1.0001 1.0001 0 0 0-0.62695 0.92773v16.807h-5.8945a1 1 0 0 0-1 1 1 1 0 0 0 1 1h6.8945a1 1 0 0 0 1-1v-15.322l11.779 12.254a1.0001 1.0001 0 0 0 1.4414 0l11.779-12.254v15.322a1 1 0 0 0 1 1h6.8945a1 1 0 0 0 1-1 1 1 0 0 0-1-1h-5.8945v-16.807a1.0001 1.0001 0 0 0-1.7207-0.69336l-12.779 13.297-12.779-13.297a1.0001 1.0001 0 0 0-1.0938-0.23438zm4.5 11a1.0001 1.0001 0 0 0-0.62695 0.92773v10h-8.4727a1 1 0 0 0-1 1 1 1 0 0 0 1 1h9.4727a1 1 0 0 0 1-1v-8.5156l7.2793 7.5723a1.0001 1.0001 0 0 0 1.4414 0l7.2793-7.5723v8.5156a1 1 0 0 0 1 1h9.4727a1 1 0 0 0 1-1 1 1 0 0 0-1-1h-8.4727v-10a1.0001 1.0001 0 0 0-1.7207-0.69336l-8.2793 8.6152-8.2793-8.6152a1.0001 1.0001 0 0 0-1.0938-0.23438z" stop-color="#000000" stroke-linecap="round" stroke-linejoin="round"/>
</svg>
