<?xml version="1.0" encoding="UTF-8"?>
<svg id="svg10" version="1.1" viewBox="0 0 48 48" xmlns="http://www.w3.org/2000/svg">
 <defs id="defs1">
  <style id="style1">.a {
            fill: none;
            stroke: #000;stroke-width:2px;
            stroke-linecap: round;
            stroke-linejoin: round;
         }</style>
 </defs>
 <path id="path1" d="m24.773 4.084c-7.1237 0-12.969 5.5206-12.969 12.369 0 1.2515 0.19516 2.4631 0.55859 3.6035a1.0001 1.0001 0 0 0 0.95312 0.69726h8.3184a1.0001 1.0001 0 0 0 0.68555-1.7285c-1.2812-1.2036-2.0801-2.9057-2.0801-4.8066 0-3.6522 2.9396-6.5918 6.5918-6.5918 0.70687 0 1.3779 0.12948 2.0137 0.33398-1.3906 0.85785-2.3711 2.3279-2.3711 4.0723 0 2.6725 2.1887 4.8594 4.8613 4.8594 2.6725 0 4.8594-2.1868 4.8594-4.8594 0-1.2551-0.4833-2.4087-1.2695-3.2715-2.3823-2.8569-6.0521-4.6777-10.152-4.6777zm-1.3301 2.2539c-3.0526 1.32-5.2031 4.3522-5.2031 7.8809 0 1.7018 0.62891 3.1971 1.4863 4.5352h-5.5645c-0.18128-0.74746-0.35742-1.4994-0.35742-2.3008 0-5.2676 4.2106-9.4682 9.6387-10.115zm8.5898 2.3945c0.49118 0.41341 0.97138 0.84097 1.377 1.3301a1.0001 1.0001 0 0 0 0.0332 0.03711c0.46794 0.51015 0.75195 1.1827 0.75195 1.9336 0 1.5917-1.2677 2.8594-2.8594 2.8594-1.5918 0-2.8613-1.2677-2.8613-2.8594 0-1.5917 1.2695-2.8613 2.8613-2.8613 0.02171 0 0.04241-4.916e-4 0.06445 0a1.0001 1.0001 0 0 0 0.63281-0.43945z" stop-color="#000000" stroke-linecap="round" stroke-linejoin="round"/>
 <path id="path2" d="m26.301 27.246a1.0001 1.0001 0 0 0-0.75391 1.6562c1.0566 1.2163 1.6992 2.8148 1.6992 4.5801 0 3.8286-3.0088 6.8906-6.7207 6.8906-0.74051 0-1.4493-0.12621-2.1133-0.35156 1.3741-0.86135 2.3418-2.3227 2.3418-4.0547 0-2.6725-2.1888-4.8594-4.8613-4.8594-2.6726 0-4.8594 2.1868-4.8594 4.8594 0 1.2353 0.46432 2.3746 1.2285 3.2324 2.5771 2.8927 6.4172 4.7168 10.688 4.7168 7.7028 0 14.018-5.9665 14.018-13.365 0-0.85272-0.08362-1.6884-0.24414-2.498a1.0001 1.0001 0 0 0-0.98047-0.80664zm1.7441 2h6.7949c0.05272 0.43214 0.12695 0.85835 0.12695 1.3047 0 6.261-5.3417 11.365-12.018 11.365-0.04977 0-0.09491-0.01506-0.14453-0.01563 3.683-1.0454 6.4414-4.3519 6.4414-8.418 0-1.56-0.5048-2.9575-1.2012-4.2363zm-12.152 3.8613c1.5916 0 2.8613 1.2677 2.8613 2.8594 0 1.5809-1.2528 2.8439-2.8281 2.8613a1.0001 1.0001 0 0 0-0.61719 0.45117c-0.55372-0.43442-1.0898-0.89048-1.5527-1.4102-0.45123-0.50654-0.72266-1.1666-0.72266-1.9023 0-1.5917 1.2677-2.8594 2.8594-2.8594z" stop-color="#000000" stroke-linecap="round" stroke-linejoin="round"/>
 <path id="path3" d="m23.229 19.912a1.0001 1.0001 0 0 0-0.66602 0.25195l-6.9473 6.1777a1.0001 1.0001 0 0 0 0.66406 1.7461h8.4922a1.0001 1.0001 0 0 0 0.66406-0.25195l6.9492-6.1777a1.0001 1.0001 0 0 0-0.66406-1.7461zm0.37891 2h5.4824l-4.6973 4.1758h-5.4824z" stop-color="#000000" stroke-linecap="round" stroke-linejoin="round"/>
</svg>
