<?xml version="1.0" encoding="UTF-8"?>
<svg id="b" version="1.1" viewBox="0 0 48 48" xmlns="http://www.w3.org/2000/svg">
 <defs id="defs1">
  <style id="style1">.c{fill:none;stroke:#000;stroke-width:2px;stroke-linecap:round;stroke-linejoin:round;}</style>
 </defs>
 <path id="path1" d="m7.5 4.5c-1.645 0-3 1.355-3 3v33c0 1.645 1.355 3 3 3h12c1.645 0 3-1.355 3-3v-33c0-1.645-1.355-3-3-3zm0 2h12c0.56419 0 1 0.43581 1 1v33c0 0.56419-0.43581 1-1 1h-12c-0.56419 0-1-0.43581-1-1v-33c0-0.56419 0.43581-1 1-1z" stroke-linecap="round" stroke-linejoin="round"/>
 <path id="path2" d="m28.5 4.5c-1.645 0-3 1.355-3 3v33c0 1.645 1.355 3 3 3h12c1.645 0 3-1.355 3-3v-33c0-1.645-1.355-3-3-3zm0 2h12c0.56419 0 1 0.43581 1 1v33c0 0.56419-0.43581 1-1 1h-12c-0.56419 0-1-0.43581-1-1v-33c0-0.56419 0.43581-1 1-1z" stroke-linecap="round" stroke-linejoin="round"/>
 <path id="circle2" d="m13.5 11c-2.1973 0-4 1.8027-4 4s1.8027 4 4 4 4-1.8027 4-4-1.8027-4-4-4zm0 2c1.1164 0 2 0.88359 2 2s-0.88359 2-2 2-2-0.88359-2-2 0.88359-2 2-2z" stroke-linecap="round" stroke-linejoin="round"/>
 <path id="circle3" d="m34.5 24c-2.1973 0-4 1.8027-4 4s1.8027 4 4 4 4-1.8027 4-4-1.8027-4-4-4zm0 2c1.1164 0 2 0.88359 2 2s-0.88359 2-2 2-2-0.88359-2-2 0.88359-2 2-2z" stroke-linecap="round" stroke-linejoin="round"/>
 <path id="line3" d="m13.5 17a1 1 0 0 0-1 1v15a1 1 0 0 0 1 1 1 1 0 0 0 1-1v-15a1 1 0 0 0-1-1z" stroke-linecap="round" stroke-linejoin="round"/>
 <path id="line4" d="m13.5 8a1 1 0 0 0-1 1v3a1 1 0 0 0 1 1 1 1 0 0 0 1-1v-3a1 1 0 0 0-1-1z" stroke-linecap="round" stroke-linejoin="round"/>
 <path id="line5" d="m34.5 30a1 1 0 0 0-1 1v2a1 1 0 0 0 1 1 1 1 0 0 0 1-1v-2a1 1 0 0 0-1-1z" stroke-linecap="round" stroke-linejoin="round"/>
 <path id="line6" d="m34.5 8a1 1 0 0 0-1 1v16a1 1 0 0 0 1 1 1 1 0 0 0 1-1v-16a1 1 0 0 0-1-1z" stroke-linecap="round" stroke-linejoin="round"/>
 <path id="polyline6" d="m34.814 34.293a1.0001 1.0001 0 0 0-1 1v3.9199a1 1 0 0 0 1 1 1 1 0 0 0 1-1v-2.9199h0.53125a1 1 0 0 0 1-1 1 1 0 0 0-1-1z" stroke-linecap="round" stroke-linejoin="round"/>
 <path id="circle6" d="m33.734 37.131c-1.1374 0-2.0801 0.94468-2.0801 2.082 0 1.1373 0.94273 2.0801 2.0801 2.0801s2.0801-0.94273 2.0801-2.0801c0-1.1374-0.94273-2.082-2.0801-2.082zm0 2c0.05647 0 0.08008 0.02556 0.08008 0.08203s-0.02361 0.08008-0.08008 0.08008-0.08008-0.02361-0.08008-0.08008 0.02361-0.08203 0.08008-0.08203z" stroke-linecap="round" stroke-linejoin="round"/>
 <path id="path6" d="m11.191 34.293a1.0001 1.0001 0 0 0-0.14258 0.01172c-0.38267 0.05519-0.7602 0.36167-0.89844 0.61914-0.13308 0.24787-0.13618 0.48888-0.13672 0.50781-0.099407 1.4509 0.58839 2.6204 0.74219 2.8984l0.12305-0.86719a1.0001 1.0001 0 0 0-0.11914 0.87695c0.03238 0.05715 0.03484 0.05896 0.0059 0.0078 0.01009 0.01803 0.01953 0.03516 0.01953 0.03516a1.0001 1.0001 0 0 0 2e-3 2e-3c2.35e-4 4.06e-4 0.0017-4.06e-4 2e-3 0 0.03966 0.06854 0.12174 0.09934 0.16406 0.16602a1 1 0 0 0 0 0.04883 1 1 0 0 0 0.08203 0.0332c0.43831 0.66042 0.9958 1.2247 1.6602 1.6562a1 1 0 0 0 0 0.05078 1 1 0 0 0 0.08789 0.03711c0.04686 0.02901 0.06748 0.08752 0.11524 0.11523a1.0001 1.0001 0 0 0 0.0078 0.01172s0.0056 0.0018 0.0059 2e-3c0.0042 0.0024 0.03387 0.02075 0.07813 0.04492l-0.07617-0.04492c4.77e-4 3.19e-4 0.08684 0.04754 0.12891 0.07031 0.35934 0.19645 1.4516 0.7971 2.8203 0.70312 0.01895-5.67e-4 0.25835-0.0054 0.50586-0.13867 0.25713-0.13846 0.5645-0.51338 0.61914-0.89648a1.0001 1.0001 0 0 0 0.011552-0.14266v-1.1484l-0.0059 0.10547s0.04136-0.26277-0.07031-0.58203c-0.11168-0.31926-0.58329-0.78382-1.0703-0.83008-0.20612-0.01931-0.7207-0.12891-0.7207-0.12891l0.09375 0.02539s-0.80032-0.33927-1.4473 0.33203a1.0001 1.0001 0 0 0 0 2e-3c0.03271-0.03396-0.19045 0.18738-0.38672 0.38086-0.12784-0.11147-0.24369-0.22986-0.35547-0.35742 0.19255-0.19567 0.41368-0.42027 0.37891-0.38672 0.66998-0.6473 0.33203-1.4453 0.33203-1.4453l0.02734 0.09375s-0.10955-0.51592-0.12891-0.72266c-0.04613-0.48635-0.51053-0.95821-0.83008-1.0703-0.31955-0.1121-0.58203-0.07031-0.58203-0.07031l0.10547-0.0059z" stroke-linecap="round" stroke-linejoin="round"/>
</svg>
