<?xml version="1.0" encoding="UTF-8"?>
<svg id="svg3" version="1.1" viewBox="0 0 48 48" xmlns="http://www.w3.org/2000/svg">
 <defs id="defs1">
  <style id="style1">.a{fill:none;stroke:#000;stroke-width:2px;stroke-linecap:round;stroke-linejoin:round;}</style>
 </defs>
 <path id="circle1" d="m24 13.561c-5.754 0-10.439 4.6854-10.439 10.439s4.6854 10.439 10.439 10.439 10.439-4.6854 10.439-10.439-4.6854-10.439-10.439-10.439zm0 2c4.6731 0 8.4395 3.7663 8.4395 8.4395s-3.7663 8.4395-8.4395 8.4395-8.4395-3.7663-8.4395-8.4395 3.7663-8.4395 8.4395-8.4395z" stroke-linecap="round" stroke-linejoin="round"/>
 <path id="circle2" d="m9.5293 17.971c-3.3184 0-6.0293 2.7109-6.0293 6.0293s2.7109 6.0293 6.0293 6.0293c3.3184 0 6.0313-2.7109 6.0313-6.0293s-2.7128-6.0293-6.0313-6.0293zm0 2c2.2376 0 4.0313 1.7917 4.0313 4.0293s-1.7937 4.0293-4.0313 4.0293c-2.2376 0-4.0293-1.7917-4.0293-4.0293s1.7917-4.0293 4.0293-4.0293z" stroke-linecap="round" stroke-linejoin="round"/>
 <path id="circle3" d="m38.471 17.971c-3.3184 0-6.0312 2.7109-6.0312 6.0293s2.7128 6.0293 6.0312 6.0293c3.3184 0 6.0293-2.7109 6.0293-6.0293s-2.7109-6.0293-6.0293-6.0293zm0 2c2.2376 0 4.0293 1.7917 4.0293 4.0293s-1.7917 4.0293-4.0293 4.0293-4.0312-1.7917-4.0312-4.0293 1.7937-4.0293 4.0312-4.0293z" stroke-linecap="round" stroke-linejoin="round"/>
</svg>
