<?xml version="1.0" encoding="UTF-8"?>
<svg id="svg8" version="1.1" viewBox="0 0 48 48" xmlns="http://www.w3.org/2000/svg">
 <defs id="defs4">
  <style id="style2">.a{fill:none;stroke:#000;stroke-linecap:round;stroke-linejoin:round;fill-rule:evenodd;}</style>
 </defs>
 <path id="path6" d="m21.889 11.699c-7.1857 0.0057-13.986 3.2556-18.506 8.8418a1.0001 1.0001 0 0 0-0.20312 0.83008s0.7704 3.7547 3.625 7.4766c2.8546 3.7219 7.9028 7.4629 16.135 7.4629 9.0893 0 16.355-4.7593 20.982-10.203a1 1 0 0 0-0.11328-1.4102 1 1 0 0 0-1.4102 0.11523c-4.3322 5.0962-11.068 9.498-19.459 9.498-7.638 0-11.979-3.3316-14.547-6.6797-2.2707-2.9605-2.9452-5.5419-3.0996-6.1816 4.1383-4.8802 10.182-7.7449 16.598-7.75 8.5891 0 14.31 5.9505 15.648 7.4727-0.61582 0.70136-1.9297 2.1414-4.1387 3.9062-2.848 2.2755-6.6384 4.4727-10.27 4.4727-3.9986 0-6.3951-1.9294-7.9141-3.9141-1.1688-1.527-1.6278-2.7648-1.832-3.3828 2.4863-2.3311 5.7428-3.6769 9.166-3.6836 4.0553 0 8.0469 4.584 8.0469 4.584a1 1 0 0 0 1.4082 0.13867 1 1 0 0 0 0.13672-1.4082s-4.1471-5.3145-9.5918-5.3145a1.0001 1.0001 0 0 0-2e-3 0c-4.1626 0.0075-8.1484 1.6919-11.055 4.6719a1.0001 1.0001 0 0 0-0.25195 0.95117s0.61072 2.3398 2.3867 4.6602c1.776 2.3204 4.8405 4.6973 9.502 4.6973 4.4089 0 8.4956-2.4957 11.518-4.9102 3.022-2.4145 5.0137-4.8359 5.0137-4.8359a1.0001 1.0001 0 0 0 0.01367-1.2539s-6.9085-8.8516-17.785-8.8516a1.0001 1.0001 0 0 0-2e-3 0z" color="#000000" fill-rule="evenodd" stroke-linecap="round" stroke-linejoin="round" style="-inkscape-stroke:none"/>
</svg>
