<?xml version="1.0" encoding="UTF-8"?>
<svg id="a" version="1.1" viewBox="0 0 48 48" xmlns="http://www.w3.org/2000/svg">
 <defs id="defs4">
  <style id="style2">.d{fill:none;stroke:#000;stroke-width:2px;stroke-linecap:round;stroke-linejoin:round;}</style>
 </defs>
 <path id="circle6" d="m24 1.5c-12.415 0-22.5 10.085-22.5 22.5s10.085 22.5 22.5 22.5 22.5-10.085 22.5-22.5-10.085-22.5-22.5-22.5zm0 2c11.334 0 20.5 9.1663 20.5 20.5s-9.1663 20.5-20.5 20.5-20.5-9.1663-20.5-20.5 9.1663-20.5 20.5-20.5z" color="#000000" stroke-linecap="round" stroke-linejoin="round" style="-inkscape-stroke:none"/>
 <path id="path8" d="m24 1.5c-5.54 0-10.053 4.5127-10.053 10.053 0 5.54 4.5127 10.053 10.053 10.053a1.0001 1.0001 0 0 0 0.0039 0c2.4726-0.0089 4.7942-1.0067 6.627-2.6387 4.8032 0.07205 8.6542 2.055 10.76 4.8809 2.1418 2.8745 2.5838 6.5561 0.39258 10.352a1 1 0 0 0 0.36523 1.3652 1 1 0 0 0 1.3672-0.36523c2.5428-4.4045 2.05-9.0957-0.52148-12.547-2.5714-3.4512-7.1301-5.7051-12.598-5.7109a1.0001 1.0001 0 0 0-0.70703 0.29297c-1.5094 1.5064-3.5548 2.3624-5.6894 2.3711-4.4592 0-8.0527-3.5936-8.0527-8.0527 0-4.4592 3.5936-8.0527 8.0527-8.0527a1 1 0 0 0 1-1 1 1 0 0 0-1-1z" color="#000000" stroke-linecap="round" stroke-linejoin="round" style="-inkscape-stroke:none"/>
 <path id="path10" d="m36.025 20.25c-3.8876-0.47916-7.8737 1.3489-9.9512 4.9473a1.0001 1.0001 0 0 0-2e-3 0.0039c-1.2283 2.1451-1.5236 4.6541-1.0273 7.0566-2.464 4.1245-6.107 6.4683-9.6074 6.8789-3.5602 0.41762-6.9689-1.0404-9.1601-4.8359a1 1 0 0 0-1.3672-0.36523 1 1 0 0 0-0.36523 1.3652c2.5428 4.4046 6.8505 6.3256 11.125 5.8242 4.2745-0.50139 8.5054-3.3246 11.244-8.0566a1.0001 1.0001 0 0 0 0.10156-0.75781c-0.54997-2.0607-0.26936-4.2601 0.79102-6.1133l2e-3 -2e-3c2.2302-3.8598 7.1371-5.1744 10.998-2.9453 3.8617 2.2295 5.1768 7.1382 2.9473 11a1 1 0 0 0 0.36519 1.3653 1 1 0 0 0 1.3672-0.36523c2.77-4.7978 1.1182-10.963-3.6797-13.732-1.1995-0.6925-2.4854-1.1079-3.7812-1.2676z" color="#000000" stroke-linecap="round" stroke-linejoin="round" style="-inkscape-stroke:none"/>
 <path id="path12" d="m23.941 1.5c-5.0859 0-8.9024 2.772-10.605 6.7246-1.7031 3.9526-1.3752 9.0258 1.3535 13.764a1.0001 1.0001 0 0 0 0.60547 0.4668c2.0605 0.55432 3.8257 1.9 4.9004 3.7461 2.2264 3.8611 0.91124 8.7673-2.9492 10.996-3.8617 2.2296-8.7704 0.91449-11-2.9473a1 1 0 0 0-1.3652-0.36523 1 1 0 0 0-0.36719 1.3652c2.77 4.7978 8.9347 6.4497 13.732 3.6797 4.7978-2.77 6.4497-8.9347 3.6797-13.732a1.0001 1.0001 0 0 0-2e-3 -2e-3c-1.2435-2.136-3.2691-3.6483-5.5976-4.4199-2.3404-4.1963-2.5491-8.5227-1.1543-11.76 1.4185-3.2922 4.387-5.5156 8.7695-5.5156a1 1 0 0 0 1-1 1 1 0 0 0-1-1z" color="#000000" stroke-linecap="round" stroke-linejoin="round" style="-inkscape-stroke:none"/>
</svg>
