<?xml version="1.0" encoding="UTF-8"?>
<svg id="b" version="1.1" viewBox="0 0 48 48" xmlns="http://www.w3.org/2000/svg">
 <defs id="defs1">
  <style id="style1">.c{fill:none;stroke:#000;stroke-width:2px;stroke-linecap:round;stroke-linejoin:round;}</style>
 </defs>
 <path id="path1" d="m13.141 19.652a1.0001 1.0001 0 0 0-0.59766 0.71875c-0.02184 0.10381-0.05294 0.19643-0.09375 0.2832a1.0001 1.0001 0 0 0-0.0059 0.01563l-4.2441 9.4453c-0.6083 1.348-0.32604 2.9396 0.70898 3.9961l6.7812 6.9766a1.0001 1.0001 0 0 0 0.0098 0.0098c0.25435 0.25435 0.54799 0.44298 0.84766 0.60938a1.0001 1.0001 0 0 0 0.02148 0.01563c0.0415 0.02268 0.07512 0.06295 0.11719 0.08398l-0.01563-0.0918a1.0001 1.0001 0 0 0 1.1699-0.0957 1.0001 1.0001 0 0 0 0.15039-0.29492l0.03906 0.0293c3.2409-6.5677 3.2213-11.508 1.752-15.059l-2e-3 -0.0039c-1.338-3.2806-3.8191-5.3137-5.709-6.5508a1.0001 1.0001 0 0 0-0.92969-0.08789zm0.80469 2.5547c1.491 1.1207 3.0659 2.5893 3.9844 4.8438a1.0001 1.0001 0 0 0 2e-3 0.0039c1.1426 2.7582 1.234 6.6869-1.2148 12.219l-6.377-6.5605a1.0001 1.0001 0 0 0-2e-3 -2e-3c-0.46257-0.47209-0.58636-1.1708-0.31445-1.7734a1.0001 1.0001 0 0 0 0-2e-3z" stroke-linecap="round" stroke-linejoin="round"/>
 <path id="path2" d="m26.588 4.4668a1.0001 1.0001 0 0 0-0.49024 1.1758c0.44729 1.477 0.41232 2.5491 0.14648 3.5723a1.0001 1.0001 0 0 0-2e-3 0.00391c-0.24154 0.95008-0.71632 1.8775-1.2656 2.9297-0.1829 0.34758-0.36936 0.71179-0.54883 1.0879-2.82e-4 5.4e-4 2.83e-4 0.0014 0 2e-3 -0.94183 1.7994-1.4833 3.782-1.584 5.8105a1.0001 1.0001 0 0 0 0 0.0078c-0.10009 2.4213 0.39583 5.3885 1.9316 9.252a1.0001 1.0001 0 0 0 0.875 0.59375l-0.03516 0.03125c0.76344 0.07554 1.5036 0.24191 2.2422 0.50976 2.3126 0.86518 4.4589 2.7886 6.3301 6.8262a1.0001 1.0001 0 0 0 1.7734 0.08008c0.13305-0.23064 0.26038-0.44492 0.39062-0.64062l0.0039-0.0039c1.1981-1.778 2.3449-3.5894 3.4414-5.4316a1.0001 1.0001 0 0 0 2e-3 -2e-3c0.47811-0.81053 0.41309-1.8407-0.16406-2.584-1.2587-1.6176-2.3289-3.3741-3.1934-5.2324-0.75867-1.8323-0.94186-5.128-0.95117-6.6992 0-0.82629-0.26332-1.6505-0.79297-2.3223l-6.7461-8.5605a1.0001 1.0001 0 0 0-0.0039-0.00586l-0.11329-0.14062a1.0001 1.0001 0 0 0-1.2461-0.25977zm1.7246 4.0957 4.8145 6.1094c0.23355 0.29622 0.36328 0.68188 0.36328 1.084a1.0001 1.0001 0 0 0 0 0.0059c0.0096 1.665 0.08682 5.0305 1.1094 7.4805a1.0001 1.0001 0 0 0 0.01563 0.03711c0.92947 2.0024 2.0839 3.8924 3.4395 5.6348 0.07805 0.10051 0.08617 0.23018 0.02148 0.33984-0.93402 1.5691-1.9226 3.1032-2.9316 4.625-1.8723-3.3429-4.1044-5.3802-6.5859-6.3086a1.0001 1.0001 0 0 0-0.0098-0.0039c-0.67517-0.24559-1.3675-0.35715-2.0605-0.4688-1.2919-3.3988-1.7273-5.971-1.6465-7.9512v-2e-3c0.08657-1.7392 0.54967-3.4377 1.3574-4.9805a1.0001 1.0001 0 0 0 0.01758-0.03516c0.16814-0.35406 0.34848-0.70547 0.53125-1.0527a1.0001 1.0001 0 0 0 2e-3 -2e-3c0.54777-1.0492 1.1125-2.1138 1.4297-3.3574v-0.00195c0.092715-0.35729 0.090844-0.76645 0.13276-1.1522zm-2.6035 18.381 0.03516 0.02344a1.0001 1.0001 0 0 0-0.08594 0.02734z" stroke-linecap="round" stroke-linejoin="round"/>
 <path id="path3" d="m25.309 3.5098c-0.91949-0.046679-1.8567 0.25465-2.5898 0.91211l-8.0215 7.2129c-0.6213 0.55662-1.0311 1.3122-1.1582 2.1367a1.0001 1.0001 0 0 0 0 2e-3l-0.97852 6.4785a1.0001 1.0001 0 0 0-0.0098 0.14844c0-0.12538 0.0068-0.12563-0.01758 0.04492a1.0001 1.0001 0 0 0 0.44336 0.98047c1.7158 1.1144 3.8242 2.8775 4.9531 5.6191 0.22339 0.55054 0.40817 1.1154 0.54297 1.7305a1.0001 1.0001 0 0 0 1.2441 0.75c1.9244-0.5337 3.9257-0.73505 5.918-0.59766l-0.74024-0.79492 2e-3 -2e-3a1.0001 1.0001 0 0 0 0.80859 0.80859 1.0001 1.0001 0 0 0 0.94531-1.0703 1.0001 1.0001 0 0 0-0.86914-0.92969h0.6582c-1.2398-3.3136-1.6781-5.854-1.5977-7.8008 0.08588-2.0604 0.67139-3.5647 1.3711-5l0.54883-1.0703v-2e-3c0.5394-1.0508 1.0935-2.1126 1.418-3.3477a1.0001 1.0001 0 0 0 2e-3 -0.00977c0.38947-1.5438 0.32721-3.1665-0.17969-4.6758a1.0001 1.0001 0 0 0-0.20904-0.35542c-0.6628-0.72821-1.5649-1.1213-2.4844-1.168zm-0.09961 1.9863c0.34827 0.017688 0.66714 0.20753 0.94727 0.45312 0.30437 1.064 0.35768 2.1851 0.08789 3.2617-1.76e-4 7.011e-4 -0.0018 0.00125-2e-3 0.00195-0.25255 0.95996-0.72025 1.8904-1.2598 2.9414l-0.55859 1.0898a1.0001 1.0001 0 0 0-0.0098 0.01758c-0.7521 1.5427-1.47 3.3883-1.5703 5.7949-0.08696 2.1037 0.41358 4.7386 1.5176 7.8965-1.4235 0.0047-2.8349 0.15272-4.2246 0.46484-0.11664-0.37894-0.2129-0.78017-0.35539-1.1309a1.0001 1.0001 0 0 0-2e-3 -0.0039c-1.2306-2.9886-3.3745-4.8493-5.1855-6.1035l0.92188-6.1035c0.05665-0.36767 0.23846-0.70506 0.51562-0.95312a1.0001 1.0001 0 0 0 2e-3 -2e-3l8.0215-7.2109c0.33268-0.29834 0.74779-0.43471 1.1543-0.41406z" stroke-linecap="round" stroke-linejoin="round"/>
 <path id="path4" d="m23.918 26.873c-1.5695 0.05255-3.1479 0.33992-4.7031 0.7168a1.0001 1.0001 0 0 0-0.74024 1.1875c0.6221 2.8206 0.28669 6.5976-2.2285 11.691a1.0001 1.0001 0 0 0 0.4375 1.332c0.42519 0.21945 0.8755 0.3296 1.3145 0.36719a1.0001 1.0001 0 0 0 0.0098 2e-3l4.0859 0.30664a1.0001 1.0001 0 0 0 2e-3 0c1.9435 0.13881 5.2621 1.2527 7.5449 1.8926l-0.73055-0.96294a1.0001 1.0001 0 0 0 0.73633 0.96484c2.3748 0.65113 4.6504-1.1788 4.9688-3.5293a1.0001 1.0001 0 0 0 2e-3 -0.01953c0.18428-1.5759 0.65144-3.1046 1.377-4.5156a1.0001 1.0001 0 0 0 0.01563-0.87891c-2.0283-4.3558-4.589-6.7865-7.4415-7.8574a1.0001 1.0001 0 0 0-2e-3 -2e-3c-1.5183-0.56611-3.0789-0.74781-4.6484-0.69526zm0.04687 2.0039c1.3684-0.04745 2.6739 0.10938 3.9004 0.56641 2.2381 0.8403 4.3203 2.758 6.1621 6.5664-0.67318 1.459-1.2095 2.9834-1.3965 4.582l2e-3 -0.01953c-0.16566 1.2233-1.3699 2.1672-2.457 1.8691-2.1649-0.60723-5.4496-1.7807-7.9336-1.959h-0.0039l-3.7188-0.2793c1.931-4.3165 2.4353-7.8869 2.0293-10.803 1.1648-0.24845 2.3232-0.48554 3.416-0.52344z" stroke-linecap="round" stroke-linejoin="round"/>
</svg>
