<?xml version="1.0" encoding="UTF-8"?>
<svg id="svg2" version="1.1" viewBox="0 0 48 48" xmlns="http://www.w3.org/2000/svg">
 <defs id="defs1">
  <style id="style1">.b{fill:none;stroke:#000;stroke-width:2px;stroke-linecap:round;stroke-linejoin:round;}</style>
 </defs>
 <g id="g2" class="b" transform="translate(-.132 1.846)">
  <path id="path1" d="m22.428 2.3301c-7.991 0.36998-14.814 4.8999-17.52 8.8906-2.6371 3.8898-2.8715 8.435-2.5234 13.391 0.34807 4.9557 1.272 10.406 1.1816 16.373a1.0001 1.0001 0 0 0 1 1.0156h9.3535a1.0001 1.0001 0 0 0 0.99219-0.87109c0.51917-4.0149-0.38253-7.3733-1.0156-10.764-0.63309-3.3904-1.0377-6.8223 0.25586-11.312 1.2445-4.3178 5.1465-8.6178 10.438-9.5469s12.179 1.373 19.629 10.795l-0.05273-0.15234a1.0001 1.0001 0 0 0 1.8379-0.4668v-2e-3a1.0001 1.0001 0 0 0-0.14844-0.42578l0.04687-0.01172c-6.4348-13.176-15.484-17.282-23.475-16.912zm0.0918 1.998c5.5135-0.25528 11.525 1.7013 16.811 8.1895-5.4494-4.3927-10.667-5.7565-15.086-4.9805-6.147 1.0794-10.562 5.9266-12.014 10.963-1.4015 4.8648-0.95144 8.748-0.30078 12.232 0.59515 3.1871 1.2186 6.0662 0.98438 9.2676h-7.3984c-0.019262-5.7619-0.8166-10.997-1.1348-15.527-0.33768-4.8076-0.07826-8.7927 2.1836-12.129 2.1922-3.2333 8.6923-7.6794 15.955-8.0156z" stop-color="#000000"/>
  <path id="path2" d="m27.209 11.514c-1.2594-0.03338-2.469 0.08908-3.5957 0.41211-2.2534 0.64607-4.1542 2.1968-5.0977 4.709-1.7231 4.5893-0.94469 7.8106 0.23438 10.729 1.6966 4.199 4.403 7.8643 5.5566 12.637h-10.387a1 1 0 0 0-1 1 1 1 0 0 0 1 1h11.699a1.0001 1.0001 0 0 0 0.98438-1.1699c-1.0328-5.9577-4.3164-10.053-5.998-14.215-1.1169-2.7641-1.7737-5.1306-0.2168-9.2773 0.74151-1.9743 2.0086-2.9837 3.7754-3.4902 1.7668-0.50656 4.0531-0.41148 6.5 0.13672 4.8939 1.0964 10.383 3.9746 13.738 6.4961a1 1 0 0 0 1.4004-0.19922 1 1 0 0 0-0.19726-1.4004c-3.6-2.7056-9.203-5.6601-14.504-6.8477-1.3252-0.2969-2.6331-0.48615-3.8926-0.51953z" stop-color="#000000"/>
 </g>
</svg>
