<?xml version="1.0" encoding="UTF-8"?>
<svg id="svg4" version="1.1" viewBox="0 0 48 48" xmlns="http://www.w3.org/2000/svg">
 <defs id="defs1">
  <style id="style1">.a{fill:none;stroke:#000;stroke-width:2px;stroke-linecap:round;stroke-linejoin:round;}</style>
 </defs>
 <path id="path1" d="m29.658 3.5-19.295 0.00977a1.0001 1.0001 0 0 0-0.02539 0c-1.6135 0.040296-2.9203 1.3802-2.9199 2.9941v35.002c-4.242e-4 1.614 1.3064 2.9538 2.9199 2.9941a1.0001 1.0001 0 0 0 0.02539 0h27.223c1.6419 0 2.9961-1.3522 2.9961-2.9941v-27.033a1.0001 1.0001 0 0 0-1-1h-7.9531c-0.55044-0.01378-0.97085-0.44353-0.9707-0.99414a1.0001 1.0001 0 0 0 0-2e-3v-7.9765a1.0001 1.0001 0 0 0-1-1zm-1 2v6.9766c-4.24e-4 1.614 1.3064 2.9538 2.9199 2.9941a1.0001 1.0001 0 0 0 0.02539 2e-3h6.9785v26.033c0 0.56104-0.43506 0.99414-0.99609 0.99414h-27.197c-0.55044-0.013823-0.97085-0.44358-0.9707-0.99419v-35.002c-1.441e-4 -0.55058 0.4203-0.98039 0.9707-0.99414z" stroke-linecap="round" stroke-linejoin="round"/>
 <path id="line1" d="m28.861 3.8027a1 1 0 0 0 0 1.4141l9.9629 9.9629a1 1 0 0 0 1.4141 0 1 1 0 0 0 0-1.4141l-9.9609-9.9629a1 1 0 0 0-1.416 0z" stroke-linecap="round" stroke-linejoin="round"/>
 <path id="line2" d="m15.838 21.928a1 1 0 0 0-1 1 1 1 0 0 0 1 1h16.273a1 1 0 0 0 1-1 1 1 0 0 0-1-1z" stroke-linecap="round" stroke-linejoin="round"/>
 <path id="line3" d="m15.838 33.994a1 1 0 0 0-1 1 1 1 0 0 0 1 1h16.273a1 1 0 0 0 1-1 1 1 0 0 0-1-1z" stroke-linecap="round" stroke-linejoin="round"/>
 <path id="line4" d="m15.838 27.961a1 1 0 0 0-1 1 1 1 0 0 0 1 1h16.273a1 1 0 0 0 1-1 1 1 0 0 0-1-1z" stroke-linecap="round" stroke-linejoin="round"/>
</svg>
