<?xml version="1.0" encoding="UTF-8"?>
<svg id="b" version="1.1" viewBox="0 0 48 48" xmlns="http://www.w3.org/2000/svg">
 <defs id="defs1">
  <style id="style1">.c,.d{fill:none;stroke:#000;stroke-linecap:round;stroke-linejoin:round;}.d{stroke-width:2px;}</style>
 </defs>
 <path id="rect1" transform="translate(-9.4029 23.777) rotate(-45)" d="m9.9141 8.1543a1.0001 1.0001 0 0 0-1 1v28.17a1.0001 1.0001 0 0 0 1 1h28.172a1.0001 1.0001 0 0 0 1-1v-28.17a1.0001 1.0001 0 0 0-1-1zm1 2h26.172v26.17h-26.172z" stroke-linecap="round" stroke-linejoin="round"/>
 <path id="path1" d="m22.611 14.244c-2.6113 0-4.7383 2.1328-4.7383 4.748 0 2.6152 2.1269 4.7461 4.7383 4.7461h2.7773c2.0697 0 3.7383 1.6721 3.7383 3.748 0 2.076-1.6685 3.7461-3.7383 3.7461h-2.5137c-1.7247 0-2.8142-0.42236-3.7695-1.666a0.5 0.5 0 0 0-0.70117-0.0918 0.5 0.5 0 0 0-0.0918 0.70117c1.1283 1.4687 2.6524 2.0566 4.5625 2.0566h2.5137c2.6114 0 4.7383-2.1309 4.7383-4.7461 0-2.6152-2.127-4.748-4.7383-4.748h-2.7773c-2.0698 0-3.7383-1.6701-3.7383-3.7461 0-2.076 1.6686-3.748 3.7383-3.748h2.5137c1.7246 0 2.8142 0.42237 3.7695 1.666a0.5 0.5 0 0 0 0.70117 0.0918 0.5 0.5 0 0 0 0.0918-0.70117c-1.1283-1.4688-2.6525-2.0566-4.5625-2.0566z" stroke-linecap="round" stroke-linejoin="round"/>
 <path id="line1" d="m24 12.121a0.5 0.5 0 0 0-0.5 0.5v21.236a0.5 0.5 0 0 0 0.5 0.5 0.5 0.5 0 0 0 0.5-0.5v-21.236a0.5 0.5 0 0 0-0.5-0.5z" stroke-linecap="round" stroke-linejoin="round"/>
 <path id="polyline1" d="m7.3613 26.02a0.5 0.5 0 0 0-0.35352 0.14648l-3.8086 3.8066a0.50005 0.50005 0 0 0 0 0.70703l13.359 13.359a0.50005 0.50005 0 0 0 0.70703 0l3.8086-3.8066a0.5 0.5 0 0 0 0-0.70703 0.5 0.5 0 0 0-0.70703 0l-3.4551 3.4531-12.652-12.652 3.4551-3.4531a0.5 0.5 0 0 0 0-0.70703 0.5 0.5 0 0 0-0.35352-0.14648z" stroke-linecap="round" stroke-linejoin="round"/>
 <path id="polyline2" d="m40.639 26.02a0.5 0.5 0 0 0-0.35352 0.14648 0.5 0.5 0 0 0 0 0.70703l3.4551 3.4531-12.652 12.652-3.4551-3.4531a0.5 0.5 0 0 0-0.70703 0 0.5 0.5 0 0 0 0 0.70703l3.8086 3.8066a0.50005 0.50005 0 0 0 0.70703 0l13.359-13.359a0.50005 0.50005 0 0 0 0-0.70703l-3.8086-3.8066a0.5 0.5 0 0 0-0.35352-0.14648z" stroke-linecap="round" stroke-linejoin="round"/>
</svg>
