<?xml version="1.0" encoding="UTF-8"?>
<svg id="b" version="1.1" viewBox="0 0 48 48" xmlns="http://www.w3.org/2000/svg">
 <defs id="defs1">
  <style id="style1">.c,.d{fill:none;stroke:#000;stroke-width:2px;stroke-linecap:round;stroke-linejoin:round;}.d{stroke-width:2px;}</style>
 </defs>
 <path id="rect1" transform="translate(-9.4029 23.777) rotate(-45)" d="m9.9141 8.1543a1.0001 1.0001 0 0 0-1 1v28.17a1.0001 1.0001 0 0 0 1 1h28.172a1.0001 1.0001 0 0 0 1-1v-28.17a1.0001 1.0001 0 0 0-1-1zm1 2h26.172v26.17h-26.172z" color="#000000" stroke-linecap="round" stroke-linejoin="round" style="-inkscape-stroke:none"/>
 <path id="path1" d="m22.611 13.744c-2.8821 0-5.2383 2.3632-5.2383 5.248 0 2.8848 2.3561 5.2461 5.2383 5.2461h2.7773c1.7989 0 3.2383 1.4417 3.2383 3.248 0 1.8063-1.4393 3.2461-3.2383 3.2461h-2.5137c-1.6321 0-2.5042-0.33959-3.373-1.4707a1 1 0 0 0-1.4023-0.18359 1 1 0 0 0-0.18359 1.4023c1.2147 1.5813 2.9563 2.252 4.959 2.252h2.5137c2.8822 0 5.2383-2.3612 5.2383-5.2461 0-2.8849-2.3562-5.248-5.2383-5.248h-2.7773c-1.799 0-3.2383-1.4397-3.2383-3.2461 0-1.8063 1.4394-3.248 3.2383-3.248h2.5137c1.632 0 2.5042 0.33962 3.373 1.4707a1 1 0 0 0 1.4023 0.18359 1 1 0 0 0 0.18359-1.4023c-1.2147-1.5813-2.9564-2.252-4.959-2.252z" color="#000000" stroke-linecap="round" stroke-linejoin="round" style="-inkscape-stroke:none"/>
 <path id="line1" d="m24 11.621a1 1 0 0 0-1 1v21.236a1 1 0 0 0 1 1 1 1 0 0 0 1-1v-21.236a1 1 0 0 0-1-1z" color="#000000" stroke-linecap="round" stroke-linejoin="round" style="-inkscape-stroke:none"/>
 <path id="polyline1" d="m7.3613 25.52a1 1 0 0 0-0.70703 0.29297l-3.8086 3.8066a1.0001 1.0001 0 0 0 0 1.4141l13.359 13.359a1.0001 1.0001 0 0 0 1.4141 0l3.8086-3.8066a1 1 0 0 0 0-1.4141 1 1 0 0 0-1.4141 0l-3.1016 3.0996-11.945-11.945 3.1016-3.0996a1 1 0 0 0 0-1.4141 1 1 0 0 0-0.70703-0.29297z" color="#000000" stroke-linecap="round" stroke-linejoin="round" style="-inkscape-stroke:none"/>
 <path id="polyline2" d="m39.932 25.812a1 1 0 0 0 0 1.4141l3.1016 3.0996-11.945 11.945-3.1016-3.0996a1 1 0 0 0-1.4141 0 1 1 0 0 0 0 1.4141l3.8086 3.8066a1.0001 1.0001 0 0 0 1.4141 0l13.359-13.359a1.0001 1.0001 0 0 0 0-1.4141l-3.8086-3.8066a1 1 0 0 0-1.4141 0z" color="#000000" stroke-linecap="round" stroke-linejoin="round" style="-inkscape-stroke:none"/>
</svg>
