<?xml version="1.0" encoding="UTF-8"?>
<svg id="b" version="1.1" viewBox="0 0 48 48" xmlns="http://www.w3.org/2000/svg">
 <defs id="defs4">
  <style id="style2">.c{fill:none;stroke:#000;stroke-width:2px;stroke-linecap:round;stroke-linejoin:round;}</style>
 </defs>
 <path id="path6" d="m24 1.5c-12.415-1.046e-4 -22.5 10.086-22.5 22.5 0 12.054 9.5055 21.913 21.428 22.473 0.35216 0.016587 0.71013 0.027344 1.0723 0.027344 5.6989 0 10.904-2.1359 14.869-5.6328 0.0037-0.0024 0.0081-0.0034 0.01172-0.0059l-2e-3 -2e-3c0.03588-0.03168 0.07956-0.05403 0.11524-0.08594a1.0001 1.0001 0 0 0-1.2188-1.5781c-2.3682 1.5706-5.1179 2.4648-8.0645 2.4648-4.7891 0-9.0794-2.3667-11.996-6.1543l0.19726 0.58398a1.0001 1.0001 0 0 0-0.22652-0.621c-2.2001-2.5972-3.6844-6.5363-3.7852-10.984v-0.96875c0.10014-4.448 1.5844-8.3865 3.7852-10.984a1.0001 1.0001 0 0 0 0.0293-0.03711c2.916-3.7879 7.2074-6.1543 11.996-6.1543 2.9454 0 5.6946 0.89536 8.0625 2.4668a1.0001 1.0001 0 0 0 1.2207-1.5781c-0.03567-0.031916-0.07936-0.054246-0.11524-0.085937l2e-3 -0.00195c-0.0036-0.00242-0.0081-0.00344-0.01172-0.00586-3.9441-3.4805-9.1184-5.6123-14.785-5.6328h-0.06445a1.0001 1.0001 0 0 0-0.019534-0.0019531zm-0.0039 2 0.06445 0.00195a1.0001 1.0001 0 0 0 0.01563 0c1.9188 0.00694 3.74 0.35659 5.498 0.85547-5.384 0.046221-10.202 2.7212-13.426 6.8965-2.5466 3.014-4.1388 7.3626-4.248 12.217a1.0001 1.0001 0 0 0 0 0.02344v1.0117a1.0001 1.0001 0 0 0 0 0.02344c0.10954 4.8378 1.6934 9.1713 4.2246 12.184a1.0001 1.0001 0 0 0 0.0059 0.01367c0.0054 7e-3 0.01217 0.01253 0.01758 0.01953 0.0041 0.0048 0.0076 0.01078 0.01172 0.01563l-2e-3 -0.0078c3.2234 4.1684 8.0346 6.8418 13.414 6.8887-1.7812 0.50539-3.6267 0.85741-5.5723 0.85741-0.32446 0-0.64932-0.01-0.97656-0.02539a1.0001 1.0001 0 0 0-2e-3 0c-10.875-0.51023-19.521-9.4705-19.521-20.475 0-11.332 9.1638-20.498 20.496-20.5z" color="#000000" stroke-linecap="round" stroke-linejoin="round" style="-inkscape-stroke:none"/>
 <path id="path8" d="m29.711 4.3398c-5.4063 0-10.24 2.6782-13.492 6.8418l0.0059 0.0039c-0.01096 0.01277-0.02619 0.01843-0.03711 0.03125-0.01684 0.02167-0.03989 0.03684-0.05664 0.05859a1.0001 1.0001 0 0 0 1.498 1.3164 1.0001 1.0001 0 0 0 0.05664-0.06055c1.8259-2.1557 4.095-3.3789 6.543-3.3789 2.7507 0 5.2884 1.5503 7.1992 4.2227 1.9108 2.6724 3.1328 6.4419 3.1328 10.625 0 4.1832-1.222 7.9526-3.1328 10.625s-4.4493 4.2246-7.2012 4.2246c-2.4468 0-4.7156-1.2232-6.541-3.3789a1.0001 1.0001 0 0 0-1.5547 1.2559c0.0094 0.01217 0.02185 0.02106 0.03125 0.0332l-2e-3 2e-3c0.0053 0.0062 0.0123 0.0094 0.01758 0.01563 3.252 4.1919 8.1086 6.8828 13.535 6.8828 3.3535 0 6.4959-1.0266 9.168-2.7988a1.0001 1.0001 0 0 0 0.11328-0.08789c4.6051-4.1184 7.5059-10.114 7.5059-16.773s-2.9008-12.653-7.5039-16.771a1.0001 1.0001 0 0 0-0.11328-0.087891c-2.6731-1.7732-5.8182-2.8008-9.1719-2.8008zm0 2c2.924 0 5.6509 0.89203 8.0078 2.4414 4.1602 3.753 6.7812 9.1694 6.7812 15.219 0 6.0503-2.6206 11.47-6.7832 15.223-2.3558 1.5483-5.0797 2.4375-8.0039 2.4375-1.6709 0-3.2454-0.37806-4.7578-0.91406 3.2043-0.2604 6.0653-2.1119 8.0996-4.957 2.1908-3.0639 3.5059-7.2195 3.5059-11.789 0-4.5696-1.3151-8.7233-3.5059-11.787-2.0343-2.845-4.8942-4.6966-8.0977-4.957 1.5119-0.53582 3.0837-0.91602 4.7539-0.91602z" color="#000000" stroke-linecap="round" stroke-linejoin="round" style="-inkscape-stroke:none"/>
</svg>
