<?xml version="1.0" encoding="UTF-8"?>
<svg id="b" version="1.1" viewBox="0 0 48 48" xmlns="http://www.w3.org/2000/svg">
 <defs id="defs1">
  <style id="style1">.c{fill:none;stroke:#000;stroke-width:2px;stroke-linecap:round;stroke-linejoin:round;}</style>
 </defs>
 <path id="path1" d="m24 1.5c-12.415-1.046e-4 -22.5 10.086-22.5 22.5 0 12.054 9.5055 21.913 21.428 22.473 0.35216 0.016587 0.71013 0.027344 1.0723 0.027344 5.6989 0 10.904-2.1358 14.869-5.6328 0.0037-0.0024 0.0081-0.0034 0.01172-0.0059l-2e-3 -2e-3c0.03588-0.03168 0.07956-0.05403 0.11524-0.08594a1.0001 1.0001 0 0 0-1.2188-1.5781c-2.3682 1.5706-5.1179 2.4648-8.0645 2.4648-4.7891 0-9.0794-2.3667-11.996-6.1543l0.19726 0.58398a1.0001 1.0001 0 0 0-0.22652-0.621c-2.2001-2.5972-3.6844-6.5363-3.7852-10.984v-0.96875c0.10014-4.448 1.5844-8.3865 3.7852-10.984a1.0001 1.0001 0 0 0 0.0293-0.03711c2.916-3.7879 7.2074-6.1543 11.996-6.1543 2.9454 0 5.6946 0.89536 8.0625 2.4668a1.0001 1.0001 0 0 0 1.2207-1.5781c-0.03567-0.031916-0.07936-0.054246-0.11524-0.085937l2e-3 -0.00195c-0.0036-0.00242-0.0081-0.00344-0.01172-0.00586-3.9441-3.4805-9.1184-5.6123-14.785-5.6328h-0.06445a1.0001 1.0001 0 0 0-0.019534-0.0019531zm-0.0039 2 0.06445 0.00195a1.0001 1.0001 0 0 0 0.01563 0c1.9188 0.00694 3.74 0.35659 5.498 0.85547-5.384 0.046221-10.202 2.7212-13.426 6.8965-2.5466 3.014-4.1388 7.3626-4.248 12.217a1.0001 1.0001 0 0 0 0 0.02344v1.0117a1.0001 1.0001 0 0 0 0 0.02344c0.10954 4.8378 1.6934 9.1713 4.2246 12.184a1.0001 1.0001 0 0 0 0.0059 0.01367c0.0054 7e-3 0.01217 0.01253 0.01758 0.01953 0.0041 0.0048 0.0076 0.01078 0.01172 0.01563l-2e-3 -0.0078c3.2234 4.1684 8.0346 6.8418 13.414 6.8887-1.7812 0.50539-3.6267 0.85741-5.5723 0.85741-0.32446 0-0.64932-0.01-0.97656-0.02539a1.0001 1.0001 0 0 0-2e-3 0c-10.875-0.51023-19.521-9.4705-19.521-20.475 0-11.332 9.1637-20.498 20.496-20.5z" stop-color="#000000" stroke-linecap="round" stroke-linejoin="round"/>
 <g id="g29" stroke-linecap="round" stroke-linejoin="round">
  <path id="path2" d="m38.996 7.2285a1 1 0 0 0-1.4121 0.078125 1 1 0 0 0 0.07813 1.4121c0.21412 0.19161 0.42484 0.3875 0.63086 0.58789a1 1 0 0 0 1.4141-0.019531 1 1 0 0 0-0.019531-1.4141c-0.22578-0.21961-0.45652-0.43434-0.69141-0.64453z" stop-color="#000000"/>
  <path id="path3" d="m40.303 8.9062a1 1 0 0 0-0.72656 0.24414 1 1 0 0 0-0.09766 1.4102c0.37726 0.43413 0.73619 0.88307 1.0762 1.3477a1 1 0 0 0 1.3965 0.2168 1 1 0 0 0 0.2168-1.3965c-0.37322-0.51001-0.76615-1.0046-1.1797-1.4805a1 1 0 0 0-0.68555-0.3418z" stop-color="#000000"/>
  <path id="path4" d="m41.846 11.967a1 1 0 0 0-0.33203 1.375c0.29886 0.48978 0.57636 0.99238 0.83398 1.5078a1 1 0 0 0 1.3418 0.44727 1 1 0 0 0 0.44727-1.3418c-0.28298-0.56616-0.58808-1.1169-0.91602-1.6543a1 1 0 0 0-1.375-0.33398z" stop-color="#000000"/>
  <path id="path5" d="m43.613 15.123a1 1 0 0 0-0.56055 1.2988c0.21171 0.53161 0.40297 1.0746 0.57031 1.627a1 1 0 0 0 1.2461 0.66797 1 1 0 0 0 0.66797-1.248c-0.18385-0.60684-0.39251-1.2014-0.625-1.7852a1 1 0 0 0-1.2988-0.56055z" stop-color="#000000"/>
  <path id="path6" d="m44.822 18.533a1 1 0 0 0-0.76953 1.1855c0.11866 0.55823 0.21492 1.1248 0.28711 1.6992a1 1 0 0 0 1.1152 0.86914 1 1 0 0 0 0.86914-1.1172c-0.07922-0.63038-0.18607-1.254-0.31641-1.8672a1 1 0 0 0-1.1855-0.76953z" stop-color="#000000"/>
  <path id="path7" d="m45.439 22.096a1 1 0 0 0-0.95703 1.041c0.011835 0.28644 0.017578 0.57393 0.017578 0.86328s-0.0057 0.57674-0.01758 0.86328a1 1 0 0 0 0.95703 1.041 1 1 0 0 0 1.041-0.95703c0.012966-0.31386 0.019533-0.63021 0.019533-0.94727s-0.0066-0.63155-0.01953-0.94531a1 1 0 0 0-1.041-0.95898z" stop-color="#000000"/>
  <path id="path8" d="m45.455 25.713a1 1 0 0 0-1.1152 0.86719c-0.07219 0.57465-0.16844 1.1425-0.28711 1.7012a1 1 0 0 0 0.76953 1.1855 1 1 0 0 0 1.1855-0.76953c0.13033-0.61353 0.2372-1.2366 0.31641-1.8672a1 1 0 0 0-0.86914-1.1172z" stop-color="#000000"/>
  <path id="path9" d="m44.869 29.285a1 1 0 0 0-1.2461 0.66602c-0.16737 0.55235-0.3587 1.0954-0.57031 1.627a1 1 0 0 0 0.56055 1.2988 1 1 0 0 0 1.2988-0.55859c0.23239-0.5837 0.44117-1.1805 0.625-1.7871a1 1 0 0 0-0.66797-1.2461z" stop-color="#000000"/>
  <path id="path10" d="m42.928 32.65a1 1 0 0 0-0.57812 0.5c-0.25777 0.51573-0.53702 1.0199-0.83594 1.5098a1 1 0 0 0 0.33203 1.375 1 1 0 0 0 1.375-0.33398c0.32808-0.53769 0.63494-1.09 0.91797-1.6562a1 1 0 0 0-0.44727-1.3418 1 1 0 0 0-0.76367-0.05273z" stop-color="#000000"/>
  <path id="path11" d="m41.951 35.877a1 1 0 0 0-1.3965 0.2168c-0.34011 0.46458-0.70108 0.91407-1.0781 1.3477a1 1 0 0 0 0.09961 1.4102 1 1 0 0 0 1.4102-0.09766c0.41376-0.47581 0.80856-0.9689 1.1816-1.4785a1 1 0 0 0-0.2168-1.3984z" stop-color="#000000"/>
  <path id="path12" d="m38.291 38.695c-0.20612 0.2004-0.41469 0.39628-0.62891 0.58789a1 1 0 0 0-0.08008 1.4121 1 1 0 0 0 1.4121 0.07813c0.23498-0.21018 0.46553-0.42493 0.69141-0.64453a1 1 0 0 0 0.01953-1.4141 1 1 0 0 0-1.4141-0.01953z" stop-color="#000000"/>
  <path id="path13" d="m17.006 35.119a1 1 0 0 0-0.72852 0.23438 1 1 0 0 0-0.11719 1.4082c0.24825 0.29315 0.50512 0.57511 0.77148 0.8418a1 1 0 0 0 1.4141 0 1 1 0 0 0 2e-3 -1.4141c-0.22644-0.22671-0.44816-0.4661-0.66211-0.71875a1 1 0 0 0-0.67969-0.35156z" stop-color="#000000"/>
  <path id="path14" d="m19.826 37.426a1 1 0 0 0-1.3887 0.26172 1 1 0 0 0 0.26172 1.3887c0.65115 0.44466 1.3392 0.81582 2.0586 1.1016a1 1 0 0 0 1.2988-0.56055 1 1 0 0 0-0.56055-1.2988c-0.57418-0.22806-1.1329-0.52584-1.6699-0.89258z" stop-color="#000000"/>
  <path id="path15" d="m23.299 38.789a1 1 0 0 0-1.1191 0.86524 1 1 0 0 0 0.86328 1.1191c0.38968 0.05034 0.78443 0.07617 1.1836 0.07617a1 1 0 0 0 1-1 1 1 0 0 0-1-1c-0.31304 0-0.62222-0.02108-0.92773-0.06055z" stop-color="#000000"/>
  <path id="path16" d="m25.168 38.787c-0.30988 0.04067-0.62343 0.0625-0.94141 0.0625a1 1 0 0 0-1 1 1 1 0 0 0 1 1c0.40502 0 0.8074-0.02619 1.2031-0.07813a1 1 0 0 0 0.86133-1.123 1 1 0 0 0-1.123-0.86133z" stop-color="#000000"/>
  <path id="path17" d="m29.434 37.223a1 1 0 0 0-0.74805 0.16211c-0.54279 0.37645-1.1061 0.68564-1.6875 0.91992a1 1 0 0 0-0.55469 1.3008 1 1 0 0 0 1.3027 0.55273c0.72784-0.29332 1.4227-0.67296 2.0801-1.1289a1 1 0 0 0 0.25195-1.3926 1 1 0 0 0-0.64453-0.41406z" stop-color="#000000"/>
  <path id="path18" d="m32.848 34.352a1 1 0 0 0-1.3945 0.23633c-0.3965 0.55854-0.8214 1.0706-1.2715 1.5293a1 1 0 0 0 0.01367 1.4141 1 1 0 0 0 1.4141-0.01367c0.52832-0.53847 1.0201-1.1312 1.4746-1.7715a1 1 0 0 0-0.23633-1.3945z" stop-color="#000000"/>
  <path id="path19" d="m34.615 30.436a1 1 0 0 0-1.2891 0.58398c-0.24405 0.64868-0.52107 1.2668-0.82617 1.8516a1 1 0 0 0 0.42383 1.3496 1 1 0 0 0 1.3496-0.42383c0.3435-0.6584 0.65403-1.3519 0.92578-2.0742a1 1 0 0 0-0.58398-1.2871z" stop-color="#000000"/>
  <path id="path20" d="m35.473 26.225a1 1 0 0 0-1.1348 0.84375c-0.10123 0.68774-0.23716 1.3577-0.40234 2.0059a1 1 0 0 0 0.72266 1.2168 1 1 0 0 0 1.2168-0.72266c0.18242-0.7158 0.33024-1.4537 0.44141-2.209a1 1 0 0 0-0.84375-1.1348z" stop-color="#000000"/>
  <path id="path21" d="m35.486 21.928a1 1 0 0 0-0.95117 1.0469c0.01623 0.3391 0.02539 0.68006 0.02539 1.0254s-0.0092 0.68825-0.02539 1.0273a1 1 0 0 0 0.95117 1.0469 1 1 0 0 0 1.0469-0.95117c0.01777-0.3711 0.02734-0.74597 0.02734-1.123s-0.0096-0.74999-0.02734-1.1211a1 1 0 0 0-1.0469-0.95117z" stop-color="#000000"/>
  <path id="path22" d="m34.658 17.711a1 1 0 0 0-0.72266 1.2148c0.16522 0.64852 0.30102 1.32 0.40234 2.0078a1 1 0 0 0 1.1348 0.8418 1 1 0 0 0 0.84375-1.1348c-0.11127-0.75536-0.25902-1.4911-0.44141-2.207a1 1 0 0 0-1.2168-0.72266z" stop-color="#000000"/>
  <path id="path23" d="m32.924 13.781a1 1 0 0 0-0.42383 1.3496c0.30495 0.5844 0.58219 1.2032 0.82617 1.8516a1 1 0 0 0 1.2891 0.58398 1 1 0 0 0 0.58203-1.2891c-0.27162-0.72183-0.58038-1.4141-0.92383-2.0723a1 1 0 0 0-1.3496-0.42383z" stop-color="#000000"/>
  <path id="path24" d="m30.904 10.184a1 1 0 0 0-0.71094 0.28711 1 1 0 0 0-0.01172 1.4141c0.4502 0.45885 0.87474 0.97039 1.2715 1.5293a1 1 0 0 0 1.3945 0.23633 1 1 0 0 0 0.23633-1.3945c-0.45466-0.64049-0.94601-1.2347-1.4746-1.7734a1 1 0 0 0-0.70508-0.29883z" stop-color="#000000"/>
  <path id="path25" d="m27.746 7.8418a1 1 0 0 0-1.3008 0.55469 1 1 0 0 0 0.55274 1.3008c0.58136 0.23437 1.1467 0.54142 1.6895 0.91797a1 1 0 0 0 1.3906-0.25195 1 1 0 0 0-0.25195-1.3906c-0.6574-0.45605-1.3522-0.83743-2.0801-1.1309z" stop-color="#000000"/>
  <path id="path26" d="m24.229 7.1523a1 1 0 0 0-1 1 1 1 0 0 0 1 1c0.31757-1e-7 0.63143 0.019932 0.94141 0.060547a1 1 0 0 0 1.1211-0.86133 1 1 0 0 0-0.86133-1.1211c-0.39523-0.051785-0.79614-0.078125-1.2012-0.078125z" stop-color="#000000"/>
  <path id="path27" d="m24.229 7.1523c-0.39906 0-0.79534 0.025685-1.1855 0.076172a1 1 0 0 0-0.86328 1.1191 1 1 0 0 0 1.1211 0.86328c0.30539-0.039513 0.61439-0.058594 0.92774-0.058594a1 1 0 0 0 1-1 1 1 0 0 0-1-1z" stop-color="#000000"/>
  <path id="path28" d="m20.758 7.8223c-0.71947 0.28554-1.4075 0.65696-2.0586 1.1016a1 1 0 0 0-0.26172 1.3906 1 1 0 0 0 1.3906 0.26172c0.53687-0.36659 1.0938-0.66667 1.668-0.89453a1 1 0 0 0 0.56055-1.2988 1 1 0 0 0-1.2988-0.56055z" stop-color="#000000"/>
  <path id="path29" d="m17.639 10.105a1 1 0 0 0-0.70703 0.29297c-0.26627 0.26659-0.52314 0.54658-0.77148 0.83984a1 1 0 0 0 0.11524 1.4102 1 1 0 0 0 1.4102-0.11719c0.21386-0.25254 0.43362-0.49194 0.66016-0.71875a1 1 0 0 0 0-1.4141 1 1 0 0 0-0.70703-0.29297z" stop-color="#000000"/>
 </g>
</svg>
