<?xml version="1.0" encoding="UTF-8"?>
<svg id="b" version="1.1" viewBox="0 0 48 48" xmlns="http://www.w3.org/2000/svg">
 <defs id="defs4">
  <style id="style2">.f{fill:none;stroke:#000;stroke-width:2px;stroke-linecap:round;stroke-linejoin:round;}</style>
 </defs>
 <path id="path6" d="m19.91 2.5195c-0.99605-0.00972-1.8607 0.73415-2 1.7207l-0.70312 4.957c-0.91414 0.42123-1.7841 0.92607-2.6055 1.5078l-4.6855-1.8809c-0.92777-0.37686-2.0098 0.00302-2.498 0.87695-4.75e-4 8.503e-4 -0.00148 0.0011-0.00195 0.00195l-4.084 7.082c-7.027e-4 0.0012 6.999e-4 0.0027 0 0.0039-0.51802 0.86564-0.30029 2.0026 0.50195 2.6152l3.8926 3.0566c-0.04932 0.50915-0.10245 1.0177-0.10742 1.5293a1.0001 1.0001 0 0 0 0 0.01953c0.00466 0.51153 0.058041 1.0204 0.10742 1.5293l-3.8926 3.0566c-0.80224 0.61263-1.02 1.7496-0.50195 2.6152 6.999e-4 0.0012-7.027e-4 0.0027 0 0.0039l4.084 7.082c4.74e-4 8.51e-4 0.00148 0.0011 0.00195 2e-3 0.48827 0.87393 1.5703 1.2538 2.498 0.87695l4.666-1.8809c0.82164 0.57974 1.6911 1.0852 2.6035 1.5078l0.70508 4.957c0.13935 0.98655 1.0039 1.7304 2 1.7207h8.1797c0.99605 0.0097 1.8607-0.73416 2-1.7207l0.70312-4.959c0.91366-0.4211 1.7826-0.92441 2.6035-1.5059l4.666 1.8809c0.92867 0.37722 2.0124-0.0032 2.5-0.87891l4.084-7.082c0.52072-0.86607 0.30333-2.0057-0.5-2.6191l-3.8652-3.0547c0.0495-0.50953 0.10275-1.0191 0.10742-1.5312a1.0001 1.0001 0 0 0 0-0.01953c-0.0047-0.51153-0.05804-1.0204-0.10742-1.5293l3.9043-3.0566c0.80224-0.61263 1.02-1.7496 0.50195-2.6152v-0.0039l-4.084-7.082-2e-3 -0.00195c-0.48822-0.87397-1.5702-1.2538-2.498-0.87699l-4.666 1.8809c-0.82164-0.57974-1.6911-1.0852-2.6035-1.5078l-0.70508-4.957c-0.13935-0.98655-1.0039-1.7304-2-1.7207zm-0.01953 2a1.0001 1.0001 0 0 0 0.0098 0h8.2188a1.0001 1.0001 0 0 0 0.0098 0 1.0001 1.0001 0 0 0 2e-3 0l0.76953 5.4316a1.0001 1.0001 0 0 0 0.60352 0.78125c1.1552 0.48348 2.2448 1.1133 3.2402 1.873a1.0001 1.0001 0 0 0 0.98047 0.13281l5.1094-2.0605a1.0001 1.0001 0 0 0 2e-3 -2e-3 1.0001 1.0001 0 0 0 0.0078 0.01367l4.0996 7.1094a1.0001 1.0001 0 0 0 0.0098 0.01563 1.0001 1.0001 0 0 0-0.0098 0.0078l-4.3301 3.3906a1.0001 1.0001 0 0 0-0.375 0.91797c0.08141 0.61989 0.12477 1.2441 0.13086 1.8691-0.0061 0.62507-0.04945 1.2493-0.13086 1.8691a1.0001 1.0001 0 0 0 0.37109 0.91602l4.291 3.3887a1.0001 1.0001 0 0 0 0.01172 0.01172 1.0001 1.0001 0 0 0-0.0078 0.01563l-4.0996 7.1094a1.0001 1.0001 0 0 0-0.0078 0.01367 1.0001 1.0001 0 0 0-0.0039-2e-3l-5.1094-2.0605a1.0001 1.0001 0 0 0-0.98242 0.13476c-0.99221 0.76148-2.0793 1.3895-3.2344 1.8691a1.0001 1.0001 0 0 0-0.60742 0.7832l-0.76953 5.4316a1.0001 1.0001 0 0 0-0.0098 0h-8.1992a1.0001 1.0001 0 0 0-0.0098 0 1.0001 1.0001 0 0 0-2e-3 0l-0.76953-5.4316a1.0001 1.0001 0 0 0-0.60352-0.78125c-1.1553-0.48338-2.2448-1.1132-3.2403-1.8729a1.0001 1.0001 0 0 0-0.98047-0.13281l-5.1094 2.0605a1.0001 1.0001 0 0 0-0.00195 2e-3 1.0001 1.0001 0 0 0-0.00781-0.01367l-4.0996-7.1094a1.0001 1.0001 0 0 0-0.00977-0.01563 1.0001 1.0001 0 0 0 0.00977-0.0098l4.3203-3.3887a1.0001 1.0001 0 0 0 0.375-0.91797c-0.081412-0.61985-0.12672-1.244-0.13281-1.8691 0.00647-0.62557 0.051651-1.2509 0.13281-1.8711a1.0001 1.0001 0 0 0-0.375-0.91602l-4.3203-3.3887a1.0001 1.0001 0 0 0-0.00977-0.0098 1.0001 1.0001 0 0 0 0.00977-0.01563l4.0996-7.1093a1.0001 1.0001 0 0 0 0.00781-0.01367 1.0001 1.0001 0 0 0 0.00391 2e-3l5.1289 2.0605a1.0001 1.0001 0 0 0 0.98242-0.13476c0.99221-0.76148 2.0793-1.3895 3.2344-1.8691a1.0001 1.0001 0 0 0 0.60547-0.7832z" color="#000000" stroke-linecap="round" stroke-linejoin="round" style="-inkscape-stroke:none"/>
 <path id="line8" d="m16.98 23a1 1 0 0 0-1 1 1 1 0 0 0 1 1h14a1 1 0 0 0 1-1 1 1 0 0 0-1-1z" color="#000000" stroke-linecap="round" stroke-linejoin="round" style="-inkscape-stroke:none"/>
 <path id="line10" d="m23.98 16a1 1 0 0 0-1 1v14a1 1 0 0 0 1 1 1 1 0 0 0 1-1v-14a1 1 0 0 0-1-1z" color="#000000" stroke-linecap="round" stroke-linejoin="round" style="-inkscape-stroke:none"/>
</svg>
