<?xml version="1.0" encoding="UTF-8"?>
<svg id="svg14" version="1.1" viewBox="0 0 48 48" xmlns="http://www.w3.org/2000/svg">
 <defs id="defs4">
  <style id="style2">.a{fill:none;stroke:#000;stroke-width:2px;stroke-linecap:round;stroke-linejoin:round;}.b{fill:#000;}</style>
 </defs>
 <path id="path6" d="m10.4 3.5c-1.645 0-3 1.355-3 3v35c0 1.645 1.355 3 3 3h2.3301a1.0001 1.0001 0 0 0 1-1v-39a1.0001 1.0001 0 0 0-1-1zm0 2h1.3301v37h-1.3301c-0.56413 0-1-0.43587-1-1v-35c0-0.56413 0.43587-1 1-1z" color="#000000" stroke-linecap="round" stroke-linejoin="round" style="-inkscape-stroke:none"/>
 <path id="path8" d="m12.73 3.5a1.0001 1.0001 0 0 0-1 1v39a1.0001 1.0001 0 0 0 1 1h24.869c1.645 0 3-1.355 3-3v-35c0-1.645-1.355-3-3-3zm1 2h23.869c0.56413 0 1 0.43587 1 1v35c0 0.56413-0.43587 1-1 1h-23.869z" color="#000000" stroke-linecap="round" stroke-linejoin="round" style="-inkscape-stroke:none"/>
 <ellipse id="ellipse10" class="b" cx="25.531" cy="33.668" rx=".8226" ry=".75"/>
 <path id="path12" d="m25.516 12.506c-2.1607-0.12209-4.2846 0.60205-5.9141 2.0273a1.0001 1.0001 0 0 0-0.03711 0.0332c-1.4875 1.4388-2.3085 3.4349-2.2637 5.5039a1 1 0 0 0 1.0215 0.97852 1 1 0 0 0 0.97852-1.0215c-0.03257-1.5035 0.56393-2.9494 1.6387-4 1.239-1.0751 2.8463-1.6274 4.4844-1.5293a1.0001 1.0001 0 0 0 0.06055 2e-3c3.4114 0 6.1836 2.5864 6.1836 5.5488a1.0001 1.0001 0 0 0 0 0.02148c0.0325 1.5026-0.56318 2.9457-1.6367 3.9961-0.73922 0.52828-2.025 1.2654-3.1914 2.25-1.1986 1.0118-2.3555 2.3641-2.3555 4.1504a1 1 0 0 0 1 1 1 1 0 0 0 1-1c0-0.89256 0.63932-1.7725 1.6445-2.6211s2.262-1.5657 3.168-2.2266a1.0001 1.0001 0 0 0 0.10742-0.08984c1.4856-1.4369 2.3022-3.4281 2.2598-5.4941-0.0088-4.164-3.7435-7.5126-8.1484-7.5293z" color="#000000" stroke-linecap="round" stroke-linejoin="round" style="-inkscape-stroke:none"/>
</svg>
