<?xml version="1.0" encoding="UTF-8"?>
<svg id="a" version="1.1" viewBox="0 0 48 48" xmlns="http://www.w3.org/2000/svg">
 <defs id="defs4">
  <style id="style2">.d{fill:none;stroke:#000;stroke-width:2px;stroke-linecap:round;stroke-linejoin:round;}</style>
 </defs>
 <path id="rect6" d="m9.5 4.5c-2.7527 0-5 2.2473-5 5v29c0 2.7527 2.2473 5 5 5h29c2.7527 0 5-2.2473 5-5v-29c0-2.7527-2.2473-5-5-5zm0 2h29c1.6793 0 3 1.3207 3 3v29c0 1.6793-1.3207 3-3 3h-29c-1.6793 0-3-1.3207-3-3v-29c0-1.6793 1.3207-3 3-3z" color="#000000" stroke-linecap="round" stroke-linejoin="round" style="-inkscape-stroke:none"/>
 <path id="rect8" d="m18.072 10.035c-3.465 0-6.2871 2.8222-6.2871 6.2871 0 3.4649 2.8222 6.2852 6.2871 6.2852h11.857c3.465 0 6.2852-2.8203 6.2852-6.2852 0-3.4649-2.8202-6.2871-6.2852-6.2871zm0 2h11.857c2.3916 0 4.2852 1.8957 4.2852 4.2871 0 2.3914-1.8936 4.2852-4.2852 4.2852h-11.857c-2.3916 0-4.2871-1.8937-4.2871-4.2852 0-2.3914 1.8955-4.2871 4.2871-4.2871z" color="#000000" stroke-linecap="round" stroke-linejoin="round" style="-inkscape-stroke:none"/>
 <path id="rect10" d="m18.072 25.393c-3.465 0-6.2871 2.8221-6.2871 6.2871 0 3.465 2.8221 6.2852 6.2871 6.2852h11.857c3.465 0 6.2852-2.8201 6.2852-6.2852 0-3.465-2.8201-6.2871-6.2852-6.2871zm0 2h11.857c2.3916 0 4.2852 1.8955 4.2852 4.2871 0 2.3916-1.8935 4.2852-4.2852 4.2852h-11.857c-2.3916 0-4.2871-1.8935-4.2871-4.2852 0-2.3916 1.8955-4.2871 4.2871-4.2871z" color="#000000" stroke-linecap="round" stroke-linejoin="round" style="-inkscape-stroke:none"/>
 <path id="path12" d="m29.934 10.035c-3.4596 0-6.2852 2.8275-6.2852 6.2871 0 3.4596 2.8255 6.2852 6.2852 6.2852a1 1 0 0 0 1-1 1 1 0 0 0-1-1c-2.3788 0-4.2852-1.9064-4.2852-4.2852 1e-6 -2.3788 1.9064-4.2871 4.2852-4.2871a1 1 0 0 0 1-1 1 1 0 0 0-1-1z" color="#000000" stroke-linecap="round" stroke-linejoin="round" style="-inkscape-stroke:none"/>
 <path id="path14" d="m18.07 25.393a1 1 0 0 0-1 1 1 1 0 0 0 1 1c2.3788 0 4.2871 1.9064 4.2871 4.2852 0 2.3788-1.9084 4.2871-4.2871 4.2871a1 1 0 0 0-1 1 1 1 0 0 0 1 1c3.4596 0 6.2871-2.8275 6.2871-6.2871 0-3.4596-2.8275-6.2852-6.2871-6.2852z" color="#000000" stroke-linecap="round" stroke-linejoin="round" style="-inkscape-stroke:none"/>
</svg>
