<?xml version="1.0" encoding="UTF-8"?>
<svg id="b" version="1.1" viewBox="0 0 48 48" xmlns="http://www.w3.org/2000/svg">
 <defs id="defs4">
  <style id="style2">.c{fill-rule:evenodd;}.c,.d{fill:none;stroke:#000;stroke-linecap:round;stroke-linejoin:round;}</style>
 </defs>
 <path id="path6" d="m33.59 2.416c-3.1341 0-6.2458 0.59211-8.8184 1.8477-2.4426 1.1921-4.3901 3.0521-5.2441 5.541-1.6636 0.81932-2.7744 2.0313-3.2715 3.3242-0.14921 0.38814-0.15801 0.75966-0.22461 1.1406-0.18361-0.99727-0.40758-1.9891-0.76367-2.8945-0.83999-2.1359-2.1724-3.9809-4.1641-4.6328-0.83659-0.27346-1.6769 0.36448-1.7715 1.1582-0.39467 3.3061-1.1121 4.1616-2.0742 5.4512-0.797 1.0685-1.4659 2.2584-1.9453 3.5332-0.086544-0.32186-0.17693-0.4855-0.41602-0.75781-0.12135-0.13822-0.28333-0.30026-0.57422-0.41211-0.29089-0.11185-0.74752-0.09941-1.0625 0.08008-0.72413 0.41303-0.83362 0.96375-0.98633 1.4219a1.0001 1.0001 0 0 0-0.017578 0.05859c-0.50085 1.8797-0.75586 3.8704-0.75586 5.8086 0 12.27 10.251 22.5 22.5 22.5 12.415 0 22.5-10.085 22.5-22.5 0.0063-3.8965-1.0598-7.6868-2.9707-11.057 0.33873 0.03461 0.68163 0.01835 1.0176 0.07617a1.0001 1.0001 0 0 0 0.91211-1.6543c-0.81087-0.901-1.803-1.6625-2.8848-2.332 0.50596-0.078711 0.98914-0.27466 1.502-0.29883a1.0001 1.0001 0 0 0 0.58594-1.7734c-2.7663-2.2591-6.7068-3.6289-11.072-3.6289zm0 2c2.9108 0 5.4055 0.83809 7.5527 1.9688-0.63807 0.14601-1.3023 0.16071-1.9199 0.38281a1.0001 1.0001 0 0 0-0.0098 1.877c0.89766 0.33368 1.7159 0.76613 2.4727 1.25a1.0001 1.0001 0 0 0-0.79684 1.5645c2.3585 3.4165 3.618 7.4714 3.6113 11.623a1.0001 1.0001 0 0 0 0 2e-3c0 11.334-9.1664 20.5-20.5 20.5-11.133 0-20.5-9.347-20.5-20.5 0-1.3191 0.25859-2.6509 0.51562-3.9648 0.2296 0.63083 0.40713 1.2805 0.69727 1.8867a1.0001 1.0001 0 0 0 1.9004-0.44922c-0.04054-2.1587 0.88775-4.1841 2.248-6.0078 0.85018-1.1395 1.7179-2.6948 2.2187-5.4668 0.90034 0.56519 1.7436 1.542 2.3262 3.0234 0.71431 1.8164 1.0545 4.0945 0.93359 6.123a1 1 0 0 0 0.9375 1.0586 1 1 0 0 0 1.0586-0.93945c0.02382-0.39971-0.05281-0.81333-0.05859-1.2207a1 1 0 0 0 1.0898 0.55469 1 1 0 0 0 0.64258-1.2617c-0.19981-0.61402-0.24906-1.6317 0.11328-2.5742s1.0809-1.8492 2.5703-2.4609l-0.36523 0.07226a1.0001 1.0001 0 0 0 0.95703-0.72266c0.58316-2.0387 2.1445-3.589 4.3633-4.6719 2.2187-1.0829 5.0635-1.6465 7.9414-1.6465zm-30.203 12.998c0.00304 0.01136 0.00866 0.02184 0.011719 0.0332-2.531e-4 -2.97e-4 -0.00367-0.0017-0.00391-2e-3 -0.023111-0.02632 0.00534 0.03355-0.00781-0.03125z" color="#000000" stroke-linecap="round" stroke-linejoin="round" style="-inkscape-stroke:none"/>
 <path id="path8" d="m3.9141 16.047a1 1 0 0 0-1.209 0.73438c-1.3819 5.6573-0.2365 12.421 5.9082 17.955 0.00761 0.0084 0.011899 0.02681 0.019531 0.03516l0.00586-0.0059c0.028297 0.0254 0.03985 0.05474 0.068359 0.08008a1.0001 1.0001 0 0 0 1.4023-1.4238c-0.61544-0.67306-1.6372-2.8603-1.791-5.3398-0.13482-2.1736 0.37198-4.561 1.959-6.7031 1.0105 10.511 9.8705 17.035 19.939 15.799a1 1 0 0 0 0.87109-1.1133 1 1 0 0 0-1.1133-0.87109c-9.4552 1.1607-17.484-4.8781-17.861-15.055a1.0001 1.0001 0 0 0 0-2e-3c-0.02332-0.62124-0.41531-1.1502-0.93359-1.377-0.51828-0.2268-1.255-0.12062-1.6953 0.35156-2.6133 2.7988-3.3418 6.1961-3.1621 9.0938 0.024729 0.39868 0.16399 0.69242 0.2168 1.0703-2.5416-4.0097-2.8175-8.225-1.8906-12.019a1 1 0 0 0-0.73438-1.209z" color="#000000" stroke-linecap="round" stroke-linejoin="round" style="-inkscape-stroke:none"/>
 <path id="path10" d="m24.01 13.754c-2.7078 0-5.5342 0.86059-7.752 2.5059-2.2177 1.6453-3.8236 4.1534-3.8223 7.248 0.0014 4.6112 2.4758 8.2926 5.8965 10.635s7.7902 3.432 11.873 3.0371a1.0001 1.0001 0 0 0 0.01953-1.9883c-0.4168-0.04847-1.2668-0.09674-2.4219-0.45898-1.0023-0.31432-2.1108-0.92032-3.0859-1.8398 5.9497-0.31541 10.867-4.2996 10.867-9.5117 0-5.4274-5.2938-9.627-11.574-9.627zm0 2c5.3984 0 9.5742 3.5243 9.5742 7.627 0 4.1016-4.1739 7.6271-9.5703 7.6289a1.0001 1.0001 0 0 0-0.0039-2e-3c-0.05565 0-0.29167-0.02659-0.60352 0.0039-0.31184 0.0305-0.85799 0.16178-1.1777 0.68359-0.18791 0.30692-0.21497 0.67437-0.16992 0.92969 0.04514 0.25584 0.13725 0.43515 0.22461 0.58594 0.17438 0.30098 0.36543 0.50348 0.47656 0.62891 0.09851 0.11144 0.21683 0.15775 0.31836 0.26172-1.2587-0.44981-2.5447-0.8731-3.6172-1.6074-2.9973-2.0523-5.0242-5.0793-5.0254-8.9863-0.0011-2.4179 1.1894-4.2872 3.0137-5.6406 1.8243-1.3534 4.2865-2.1133 6.5605-2.1133zm-0.69727 16.965a1.0001 1.0001 0 0 0 0.51758 0.10352c-0.04478 0.03445-0.05869 0.05792-0.0918 0.07227z" color="#000000" stroke-linecap="round" stroke-linejoin="round" style="-inkscape-stroke:none"/>
 <path id="path12" d="m30.693 20.6a1 1 0 0 0-0.68359 0.3457s-3.6953 4.2941-4.9922 5.5938c-0.60224 0.60354-0.97435 0.73484-1.1973 0.73242-0.22291-0.0024-0.564-0.13984-1.1016-0.69922-1.1832-1.2312-4.9941-5.625-4.9941-5.625a1 1 0 0 0-1.4102-0.10156 1 1 0 0 0-0.10156 1.4102s3.7299 4.3124 5.0645 5.7012c0.72134 0.75062 1.5451 1.3038 2.5215 1.3145 0.97638 0.0106 1.8382-0.52395 2.6328-1.3203 1.4969-1.5001 5.0957-5.7031 5.0957-5.7031a1 1 0 0 0-0.10742-1.4102 1 1 0 0 0-0.72656-0.23828z" color="#000000" fill-rule="evenodd" stroke-linecap="round" stroke-linejoin="round" style="-inkscape-stroke:none"/>
 <path id="path14" d="m24.498 7.5039c-0.77281 0.25476-1.3003 0.70001-1.6016 1.1035-0.3013 0.40351-0.41211 0.84961-0.41211 0.84961a1.0001 1.0001 0 0 0 0.09375 0.67969s0.26226 0.50535 0.79688 0.89258c0.47195 0.34184 1.2684 0.5343 2.1348 0.37305a1.0001 1.0001 0 0 0 0.03125 0.02539l-0.0039-0.02734c0.10574-0.02077 0.19485 0.01443 0.30274-0.01953 0.92405-0.29097 1.4806-1.0099 1.6875-1.5859 0.20692-0.57603 0.1582-1.0996 0.1582-1.0996a1.0001 1.0001 0 0 0-0.23438-0.5586s-0.33119-0.37416-0.83984-0.5918-1.272-0.31801-2.1133-0.041016zm0.82812 1.8926c-0.04607 0.022697-0.01441 0.053649-0.08594 0.076172-0.12295 0.0387-0.11596-0.024122-0.19531-0.017578 0.04239-0.017385 0.02818-0.036205 0.07813-0.052734 0.11782-0.038794 0.11985 0.00482 0.20312-0.00586z" color="#000000" stroke-linecap="round" stroke-linejoin="round" style="-inkscape-stroke:none"/>
</svg>
