<?xml version="1.0" encoding="UTF-8"?>
<svg id="a" version="1.1" viewBox="0 0 48 48" xmlns="http://www.w3.org/2000/svg">
 <defs id="defs1">
  <style id="style1">.b{fill:none;stroke:#000;stroke-width:2px;stroke-linecap:round;stroke-linejoin:round;}</style>
 </defs>
 <path id="path1" d="m42.668 5.7129c-0.36803 0-0.50802 0.10992-0.62109 0.17383-0.11307 0.063911-0.1878 0.11936-0.25586 0.16797-0.13611 0.097223-0.24608 0.16992-0.26562 0.17969a1.0001 1.0001 0 0 0-0.13281 0.080078c-1.9248 1.3748-4.0073 2.7631-5.9688 4.1641a1.0001 1.0001 0 0 0-0.0039 0.0039c-5.0063 3.6156-10.043 7.3886-14.545 11.75a1.0001 1.0001 0 0 0-0.01172 0.01172c-1.3015 1.3015-2.4238 2.7061-3.5098 3.9277l0.04102-0.04297c-0.32602 0.32602-0.59591 0.76138-0.66602 1.2871-0.06886 0.51642 0.10142 1.0749 0.42578 1.5195 0.74311 1.177 1.7503 2.3277 2.9375 3.2305 0.18836 0.17617 0.41052 0.3411 0.61719 0.42969 0.22707 0.09733 0.36841 0.1267 0.54492 0.18555a1.0001 1.0001 0 0 0 0.31641 0.05273c0.85426 0 1.3762-0.4408 1.791-0.71875 1.7958-1.0567 3.2397-2.5113 4.5039-3.916 5.8699-5.8758 11.025-12.426 15.887-19.094a1.0001 1.0001 0 0 0 0.08789-0.14258c0.07917-0.15834 0.35629-0.57406 0.55469-0.9707a1.0001 1.0001 0 0 0 0.10547-0.44727c0-0.0694 0.0021-0.25049-0.02539-0.4707-0.02753-0.22022 0.0167-0.50673-0.40625-0.92969-0.3051-0.3051-0.63428-0.37186-0.86133-0.4043-0.22704-0.032435-0.40026-0.027344-0.53906-0.027344zm-1.0371 2.873c-4.6975 6.4072-9.6362 12.66-15.215 18.238a1.0001 1.0001 0 0 0-0.03711 0.03711c-1.2245 1.3605-2.5462 2.6683-4.0625 3.5527a1.0001 1.0001 0 0 0-0.05078 0.03125c-0.38125 0.25417-0.61215 0.33812-0.63672 0.35547-0.03236-0.01023-0.12744-0.04067-0.13281-0.04297-0.0158-0.0068 0.02909 0.03105-0.05078-0.04883a1.0001 1.0001 0 0 0-0.10742-0.0918c-0.993-0.74481-1.8968-1.7745-2.5273-2.7832a1.0001 1.0001 0 0 0-0.04883-0.07031c-0.08022-0.10696-0.05008-0.08927-0.05078-0.08398-7.04e-4 0.0053 0.0073-0.04634 0.09766-0.13672a1.0001 1.0001 0 0 0 0.04102-0.04102c1.1318-1.2732 2.225-2.6395 3.418-3.834l0.0098-0.0098c4.3771-4.2387 9.327-7.9548 14.309-11.553l0.0039-2e-3c1.6259-1.1612 3.3585-2.3377 5.041-3.5176zm-21.061 22.248h1a1.0001 1.0001 0 0 0-1 1z" stroke-linecap="round" stroke-linejoin="round"/>
 <path id="path2" d="m16.713 26.844c-0.41749 0-0.78727 0.01703-1.2148 0.14648-1.801 0.35015-3.1958 1.4556-4.3496 2.6094a1.0001 1.0001 0 0 0-0.05274 0.05664c-0.93479 1.0906-1.5313 2.3-2.0977 3.5742a1.0001 1.0001 0 0 0-0.033203 0.08984c-0.51304 1.539-1.2022 2.6697-2.5039 3.498l0.14258-0.07422c-1.1088 0.47524-1.8681 1.0865-2.6582 1.6133a1.0001 1.0001 0 0 0 0 1.6641c0.41634 0.27756 0.83345 0.55443 1.25 0.83203a1.0001 1.0001 0 0 0 0.125 0.07227c2.8115 1.3318 5.9825 1.7962 9.0254 0.88867 4.3149-1.1299 7.1693-5.7329 8.0645-9.9102a1 1 0 0 0-0.76758-1.1875 1 1 0 0 0-1.1875 0.76758c-0.76909 3.5888-3.4598 7.5807-6.6289 8.4023a1.0001 1.0001 0 0 0-0.03711 0.0098c-2.4259 0.72783-4.9846 0.36878-7.377-0.71094 0.31072-0.19538 0.63064-0.45357 0.98047-0.60352a1.0001 1.0001 0 0 0 0.14258-0.07617c1.7517-1.1147 2.7288-2.7608 3.3262-4.5527l-0.03516 0.08984c0.5399-1.2147 1.0536-2.2142 1.7754-3.0625 1.0395-1.0327 2.116-1.8302 3.3184-2.0488a1.0001 1.0001 0 0 0 0.13867-0.03516c-0.04476 0.01492 0.33323-0.05273 0.6543-0.05273s0.70101 0.06765 0.65625 0.05273a1 1 0 0 0 1.2637-0.63281 1 1 0 0 0-0.63086-1.2656c-0.46115-0.15375-0.84677-0.15433-1.2891-0.15433z" stroke-linecap="round" stroke-linejoin="round"/>
</svg>
