<?xml version="1.0" encoding="UTF-8"?>
<svg id="a" version="1.1" viewBox="0 0 48 48" xmlns="http://www.w3.org/2000/svg">
 <defs id="defs4">
  <style id="style2">.c{fill:none;stroke:#000;stroke-width:2px;stroke-linecap:round;stroke-linejoin:round;}</style>
 </defs>
 <path id="b" d="m9.5 4.5c-2.7496 0-5 2.2504-5 5v29c0 2.7496 2.2504 5 5 5h29c2.7496 0 5-2.2504 5-5v-29c0-2.7496-2.2504-5-5-5zm0 2h29c1.6686 0 3 1.3314 3 3v29c0 1.6686-1.3314 3-3 3h-29c-1.6686 0-3-1.3314-3-3v-29c0-1.6686 1.3314-3 3-3z" color="#000000" stroke-linecap="round" stroke-linejoin="round" style="-inkscape-stroke:none"/>
 <path id="polyline7" d="m15.131 10.5a1.0001 1.0001 0 0 0-0.76172 1.6484l10.076 11.852-10.076 11.852a1.0001 1.0001 0 0 0 0.76172 1.6484h17.738a1.0001 1.0001 0 0 0 1-1v-4.9238a1 1 0 0 0-1-1 1 1 0 0 0-1 1v3.9238h-14.574l9.2246-10.852a1.0001 1.0001 0 0 0 0-1.2969l-9.2246-10.852h14.574v3.9238a1 1 0 0 0 1 1 1 1 0 0 0 1-1v-4.9238a1.0001 1.0001 0 0 0-1-1z" color="#000000" stroke-linecap="round" stroke-linejoin="round" style="-inkscape-stroke:none"/>
</svg>
