<?xml version="1.0" encoding="UTF-8"?>
<svg id="a" version="1.1" viewBox="0 0 48 48" xmlns="http://www.w3.org/2000/svg">
 <defs id="defs4">
  <style id="style2">.b{fill:none;stroke:#000;stroke-width:2px;stroke-linecap:round;stroke-linejoin:round;}</style>
 </defs>
 <path id="path6" d="m10.736 3.5c-1.6905 0-3.082 1.3916-3.082 3.082v32.062a1 1 0 0 0 1 1 1 1 0 0 0 1-1v-32.062c0-0.60954 0.4725-1.082 1.082-1.082h26.525c0.60954 0 1.084 0.4725 1.084 1.082v32.062a1 1 0 0 0 1 1 1 1 0 0 0 1-1v-32.062c0-1.6905-1.3935-3.082-3.084-3.082z" color="#000000" stroke-linecap="round" stroke-linejoin="round" style="-inkscape-stroke:none"/>
 <path id="rect8" d="m10.736 35.562c-1.6903 0-3.082 1.3917-3.082 3.082v2.7734c0 1.6903 1.3917 3.082 3.082 3.082h26.527c1.6903 0 3.082-1.3917 3.082-3.082v-2.7734c0-1.6903-1.3917-3.082-3.082-3.082zm0 2h26.527c0.61689 0 1.082 0.46514 1.082 1.082v2.7734c0 0.61689-0.46514 1.082-1.082 1.082h-26.527c-0.61689 0-1.082-0.46514-1.082-1.082v-2.7734c0-0.61689 0.46514-1.082 1.082-1.082z" color="#000000" stroke-linecap="round" stroke-linejoin="round" style="-inkscape-stroke:none"/>
 <path id="circle10" d="m24 10c-6.0633 0-11 4.9367-11 11s4.9367 11 11 11 11-4.9367 11-11-4.9367-11-11-11zm0 2c4.9824 0 9 4.0176 9 9s-4.0176 9-9 9-9-4.0176-9-9 4.0176-9 9-9z" color="#000000" stroke-linecap="round" stroke-linejoin="round" style="-inkscape-stroke:none"/>
 <path id="line12" d="m24 10.023a1 1 0 0 0-1 1v9.9766a1 1 0 0 0 1 1 1 1 0 0 0 1-1v-9.9766a1 1 0 0 0-1-1z" color="#000000" stroke-linecap="round" stroke-linejoin="round" style="-inkscape-stroke:none"/>
 <path id="line14" d="m24.508 20.139a1 1 0 0 0-1.3691 0.35352 1 1 0 0 0 0.35352 1.3691l8.5977 5.0625a1 1 0 0 0 1.3691-0.35547 1 1 0 0 0-0.35352-1.3691z" color="#000000" stroke-linecap="round" stroke-linejoin="round" style="-inkscape-stroke:none"/>
 <path id="line16" d="m24.275 20.039a1 1 0 0 0-0.75977 0.085938l-8.7246 4.8418a1 1 0 0 0-0.38867 1.3594 1 1 0 0 0 1.3594 0.38867l8.7227-4.8398a1 1 0 0 0 0.39062-1.3594 1 1 0 0 0-0.59961-0.47656z" color="#000000" stroke-linecap="round" stroke-linejoin="round" style="-inkscape-stroke:none"/>
</svg>
