<?xml version="1.0" encoding="UTF-8"?>
<svg id="a" version="1.1" viewBox="0 0 48 48" xmlns="http://www.w3.org/2000/svg">
 <defs id="defs1">
  <style id="style1">.b{fill:none;stroke:#000;stroke-width:2px;stroke-linecap:round;stroke-linejoin:round;}</style>
 </defs>
 <path id="path1" d="m24 21.859c-8.0031 0-14.673 5.7526-16.098 13.354a1.0001 1.0001 0 0 0 0.21289 0.82422c3.7851 4.5572 9.5021 7.4629 15.885 7.4629 6.3827 0 12.1-2.9056 15.885-7.4629a1.0001 1.0001 0 0 0 0.21289-0.82226c-1.4247-7.6009-8.0945-13.355-16.098-13.355zm0 2c6.8746 0 12.527 4.8409 13.963 11.271-3.4167 3.8838-8.3786 6.3691-13.963 6.3691-5.5838 0-10.546-2.4839-13.963-6.3672 1.4345-6.4318 7.0875-11.273 13.963-11.273z" color="#000000" stroke-linecap="round" stroke-linejoin="round" style="-inkscape-stroke:none"/>
 <path id="circle1" d="m24 4.5c-4.5179 0-8.2012 3.6832-8.2012 8.2012 0 4.5179 3.6832 8.2031 8.2012 8.2031s8.2012-3.6852 8.2012-8.2031c0-4.5179-3.6832-8.2012-8.2012-8.2012zm0 2c3.4371 0 6.2012 2.7641 6.2012 6.2012 0 3.4371-2.7641 6.2031-6.2012 6.2031s-6.2012-2.7661-6.2012-6.2031c0-3.4371 2.7641-6.2012 6.2012-6.2012z" color="#000000" stroke-linecap="round" stroke-linejoin="round" style="-inkscape-stroke:none"/>
</svg>
