<?xml version="1.0" encoding="UTF-8"?>
<svg id="Layer_2" data-name="Layer 2" version="1.1" viewBox="0 0 48 48" xmlns="http://www.w3.org/2000/svg">
 <defs id="defs1">
  <style id="style1">.cls-1{fill:none;stroke:#000;stroke-width:2px;stroke-linecap:round;stroke-linejoin:round;}</style>
 </defs>
 <path id="path1" d="m24 1.5c-12.412 0.005769-22.494 10.088-22.5 22.5 0.005769 12.412 10.088 22.494 22.5 22.5 12.412-0.005769 22.494-10.088 22.5-22.5-0.005769-12.412-10.088-22.494-22.5-22.5zm0 2c11.332 0.0052669 20.495 9.1683 20.5 20.5-0.005267 11.332-9.1683 20.495-20.5 20.5-11.332-0.005267-20.495-9.1683-20.5-20.5 0.0052669-11.332 9.1683-20.495 20.5-20.5zm-4.7207 2.0918c-6.3381 1.6373-11.389 6.4246-13.363 12.666a1.0001 1.0001 0 0 0 0.55273 1.2188l4.8281 2.1152-2.8926 1.5234a1.0001 1.0001 0 0 0-0.52734 1.0039l1.3809 11.549a1.0001 1.0001 0 0 0 0.22656 0.52734c0.86649 1.0283 1.8395 1.9613 2.9023 2.7852a1.0001 1.0001 0 0 0 1.4492-0.24024l9.209-13.98a1.0001 1.0001 0 0 0-0.5332-1.5039l-7.6777-2.4336 1.4941-5.0996 4.6562-2.7188a1.0001 1.0001 0 0 0 0.37891-0.39258l1.5195-2.8516a1.0001 1.0001 0 0 0-0.14453-1.1445l-2.4609-2.6895 0.18164 0.33789a1.0001 1.0001 0 0 0-1.1797-0.67188zm13.164 1.4316a1.0001 1.0001 0 0 0-1.293 0.36914l-3 4.8301a1.0001 1.0001 0 0 0 0.88672 1.5273l7.9629-0.29102-9.9609 4.5a1.0001 1.0001 0 0 0-0.56836 1.1113l1.3887 6.8008a1.0001 1.0001 0 0 0 0.70898 0.76172l5.3379 1.5117 0.85742 9.5254a1.0001 1.0001 0 0 0 1.6484 0.66797c7.3436-6.3245 8.7141-17.202 3.168-25.15a1.0001 1.0001 0 0 0-1.0312-0.2832 1.0001 1.0001 0 0 0-0.04297-1.1172c-1.6713-1.9873-3.7362-3.61-6.0625-4.7637zm-13.211 0.72266 1.5527 1.6973-1.0547 1.9766-4.7539 2.7773a1.0001 1.0001 0 0 0-0.45703 0.58203l-1.5664 5.3555-4.7539-2.084c1.8713-4.9807 5.9201-8.7909 11.033-10.305zm13.088 1.5527c1.1015 0.62212 2.1095 1.369 3.043 2.2187l-4.5234 0.16406zm6.0234 5.7461c4.0512 6.4493 3.2628 14.703-1.7832 20.27l-0.72461-8.0352a1.0001 1.0001 0 0 0-0.72266-0.87109l-5.416-1.5352-1.1074-5.4199zm-24.613 7.5254 6.918 2.1934-7.8262 11.877c-0.56229-0.49688-1.1286-0.98971-1.6211-1.5566l-1.2559-10.52z" stroke-linecap="round" stroke-linejoin="round"/>
</svg>
