<?xml version="1.0" encoding="UTF-8"?>
<svg id="a" version="1.1" viewBox="0 0 48 48" xmlns="http://www.w3.org/2000/svg">
 <defs id="defs4">
  <style id="style2">.b{fill:none;stroke:#000;stroke-width:2px;stroke-linecap:round;stroke-linejoin:round;}</style>
 </defs>
 <g id="g10" stroke-linecap="round" stroke-linejoin="round">
  <path id="path6" d="m20.506 3.5c-1.0927 0-2 0.90729-2 2v2h-3.3105c-1.645 0-3 1.355-3 3v31c0 1.645 1.355 3 3 3h17.609c1.645 0 3-1.355 3-3v-31c0-1.645-1.355-3-3-3h-3.6289v-2c0-1.0927-0.90729-2-2-2zm0 2h6.6699v3a1.0001 1.0001 0 0 0 1 1h4.6289c0.56419 0 1 0.43581 1 1v31c0 0.56419-0.43581 1-1 1h-17.609c-0.56419 0-1-0.43581-1-1v-31c0-0.56419 0.43581-1 1-1h4.3105a1.0001 1.0001 0 0 0 1-1z" color="#000000" style="-inkscape-stroke:none"/>
  <path id="line8" d="m19.506 7.5a1 1 0 0 0-1 1 1 1 0 0 0 1 1h8.6699a1 1 0 0 0 1-1 1 1 0 0 0-1-1z" color="#000000" style="-inkscape-stroke:none"/>
 </g>
 <path id="polyline12" d="m25.688 16.516a1 1 0 0 0-0.64258 0.41602l-5.8672 8.5a1.0001 1.0001 0 0 0 0.82227 1.5684h6.0957l-4.7871 6.9316a1 1 0 0 0 0.25586 1.3906 1 1 0 0 0 1.3906-0.25391l5.8672-8.5a1.0001 1.0001 0 0 0-0.82227-1.5684h-6.0957l4.7871-6.9316a1 1 0 0 0-0.25586-1.3906 1 1 0 0 0-0.74805-0.16211z" color="#000000" stroke-linecap="round" stroke-linejoin="round" style="-inkscape-stroke:none"/>
</svg>
