<?xml version="1.0" encoding="UTF-8"?>
<svg id="svg28" version="1.1" viewBox="0 0 48 48" xmlns="http://www.w3.org/2000/svg">
 <defs id="defs4">
  <style id="style2">.a{fill:none;stroke:#000;stroke-width:2px;stroke-linecap:round;stroke-linejoin:round;}</style>
 </defs>
 <path id="path6" d="m10.496 3.5c-1.6416 0.0048214-2.9913 1.3545-2.9961 2.9961a1.0001 1.0001 0 0 0 0 0.0039063v5.0039a1 1 0 0 0 1 1 1 1 0 0 0 1-1v-5c0.001659-0.56486 0.43904-1.0022 1.0039-1.0039h16.996v8a1.0001 1.0001 0 0 0 0 0.0039c0.0048 1.6416 1.3545 2.9913 2.9961 2.9961a1.0001 1.0001 0 0 0 0.0039 0h8v19.699a1 1 0 0 0 1 1 1 1 0 0 0 1-1v-20.699a1.0001 1.0001 0 0 0-1-1h-8.9961c-0.56486-0.001659-1.0022-0.43904-1.0039-1.0039v-8.9961a1.0001 1.0001 0 0 0-1-1h-18a1.0001 1.0001 0 0 0-0.0039 0z" color="#000000" stroke-linecap="round" stroke-linejoin="round" style="-inkscape-stroke:none"/>
 <path id="path8" d="m8.5 23.895a1 1 0 0 0-1 1v16.605a1.0001 1.0001 0 0 0 0 0.0039c0.00482 1.6416 1.3545 2.9913 2.9961 2.9961a1.0001 1.0001 0 0 0 0.0039 0h27a1.0001 1.0001 0 0 0 0.0039 0c1.473-0.0046 2.7406-1.0822 2.9824-2.5352a1 1 0 0 0-0.82227-1.1504 1 1 0 0 0-1.1504 0.82227c-0.083913 0.50417-0.50647 0.86168-1.0176 0.86329h-26.992c-0.56486-0.001659-1.0022-0.43904-1.0039-1.0039v-16.602a1 1 0 0 0-1-1z" color="#000000" stroke-linecap="round" stroke-linejoin="round" style="-inkscape-stroke:none"/>
 <path id="line10" d="m27.793 3.793a1 1 0 0 0 0 1.4141l11 11a1 1 0 0 0 1.4141 0 1 1 0 0 0 0-1.4141l-11-11a1 1 0 0 0-1.4141 0z" color="#000000" stroke-linecap="round" stroke-linejoin="round" style="-inkscape-stroke:none"/>
 <path id="line12" d="m15.967 19.207a1 1 0 0 0-1 1 1 1 0 0 0 1 1h10.992a1 1 0 0 0 1-1 1 1 0 0 0-1-1z" color="#000000" stroke-linecap="round" stroke-linejoin="round" style="-inkscape-stroke:none"/>
 <path id="line14" d="m15.967 15.416a1 1 0 0 0-1 1 1 1 0 0 0 1 1h11.047a1 1 0 0 0 1-1 1 1 0 0 0-1-1z" color="#000000" stroke-linecap="round" stroke-linejoin="round" style="-inkscape-stroke:none"/>
 <path id="line16" d="m15.967 11.623a1 1 0 0 0-1 1 1 1 0 0 0 1 1h9.1758a1 1 0 0 0 1-1 1 1 0 0 0-1-1z" color="#000000" stroke-linecap="round" stroke-linejoin="round" style="-inkscape-stroke:none"/>
 <path id="circle18" d="m18.6 8.5996c-5.2901 0-9.5996 4.3095-9.5996 9.5996s4.3095 9.6016 9.5996 9.6016 9.5996-4.3115 9.5996-9.6016-4.3095-9.5996-9.5996-9.5996zm0 2c4.2092 0 7.5996 3.3904 7.5996 7.5996 0 4.2092-3.3904 7.6016-7.5996 7.6016-4.2092 0-7.5996-3.3924-7.5996-7.6016 0-4.2092 3.3904-7.5996 7.5996-7.5996z" color="#000000" stroke-linecap="round" stroke-linejoin="round" style="-inkscape-stroke:none"/>
 <path id="path20" d="m16.771 5.25c-1.5769 0.22742-3.1358 0.74694-4.5938 1.5781-5.8316 3.3247-8.1918 10.552-5.4531 16.682s9.6972 9.1943 16.064 7.0684c6.3674-2.1259 10.096-8.7586 8.6016-15.305a1 1 0 0 0-1.1973-0.75195 1 1 0 0 0-0.75195 1.1973c1.269 5.5598-1.8776 11.157-7.2852 12.963-5.4074 1.8054-11.279-0.77954-13.605-5.9863-2.3264-5.2068-0.33336-11.305 4.6191-14.129 4.9526-2.8235 11.219-1.434 14.514 3.2207a1 1 0 0 0 1.3945 0.23828 1 1 0 0 0 0.23828-1.3945c-2.9095-4.1103-7.8141-6.0631-12.545-5.3809z" color="#000000" stroke-linecap="round" stroke-linejoin="round" style="-inkscape-stroke:none"/>
 <path id="path22" d="m27.781 24.482a1 1 0 0 0 0 1.4141l14.312 14.311a1.0001 1.0001 0 0 0 0.01563 0.01758c0.01113 0.01061 0.02246 0.01998 0.0332 0.03125 0.36364 0.38187 0.34863 0.95664-0.0332 1.3203a1.0001 1.0001 0 0 0-0.03516 0.03516c-0.01009 0.01061-0.01882 0.0213-0.0293 0.03125a1.0001 1.0001 0 0 0-2e-3 0c-0.38182 0.36361-0.95476 0.35058-1.3184-0.03125a1.0001 1.0001 0 0 0-0.01758-0.01758l-14.297-14.297a1 1 0 0 0-1.4141 0 1 1 0 0 0 0 1.4141l14.279 14.279c1.109 1.1646 2.9819 1.2106 4.1465 0.10156 0.0232-0.02204 0.04592-0.04555 0.06836-0.06836 1.1645-1.1091 1.2105-2.9819 0.10156-4.1465a1.0001 1.0001 0 0 0-2e-3 0c-0.02701-0.02833-0.05392-0.05674-0.08203-0.08398l-0.01758-0.01758-14.295-14.293a1 1 0 0 0-1.4141 0z" color="#000000" stroke-linecap="round" stroke-linejoin="round" style="-inkscape-stroke:none"/>
 <path id="line24" d="m15.967 23a1 1 0 0 0-1 1 1 1 0 0 0 1 1h8.9746a1 1 0 0 0 1-1 1 1 0 0 0-1-1z" color="#000000" stroke-linecap="round" stroke-linejoin="round" style="-inkscape-stroke:none"/>
 <path id="line26" d="m13.148 10.549a1 1 0 0 0-1 1v13.346a1 1 0 0 0 1 1 1 1 0 0 0 1-1v-13.346a1 1 0 0 0-1-1z" color="#000000" stroke-linecap="round" stroke-linejoin="round" style="-inkscape-stroke:none"/>
</svg>
