<?xml version="1.0" encoding="UTF-8"?>
<svg id="svg5" version="1.1" viewBox="0 0 48 48" xmlns="http://www.w3.org/2000/svg">
 <defs id="defs1">
  <style id="style1">.a{fill:none;stroke:#000;stroke-width:2px;stroke-linecap:round;stroke-linejoin:round;}</style>
 </defs>
 <path id="path1" d="m6.5527 4.9414c-1.6741 1e-7 -3.0527 1.3787-3.0527 3.0527v20.527c0 1.6741 1.3787 3.0508 3.0527 3.0508h5.1582v6.3789c-7.8e-5 0.86027 0.55631 1.5838 1.25 1.8711 0.69369 0.28732 1.6008 0.16893 2.209-0.43945l7.8105-7.8105h15.389c1.6741 8.1e-5 3.0527-1.3767 3.0527-3.0508v-20.527c0-1.6741-1.3786-3.0528-3.0527-3.0527zm0 2h31.816c0.5932-2.88e-5 1.0527 0.45953 1.0527 1.0527v20.527c0 0.5932-0.45953 1.0508-1.0527 1.0508h-15.803a1.0001 1.0001 0 0 0-0.70703 0.29297l-8.1035 8.1035c-0.0383 0.03831-0.0085 0.01445-0.0293 0.0059-0.02075-0.0086-0.01563 0.03074-0.01563-0.02344v-7.3789a1.0001 1.0001 0 0 0-1-1h-6.1582c-0.59318-3.8e-5 -1.0527-0.45764-1.0527-1.0508v-20.527c0-0.59318 0.45955-1.0527 1.0527-1.0527z" stop-color="#000000" stroke-linecap="round" stroke-linejoin="round"/>
 <path id="path2" d="m7.5781 29.572a1 1 0 0 0-1 1v1.0273c3.262e-4 1.6739 1.3788 3.0528 3.0527 3.0527h3.0801a1 1 0 0 0 1-1 1 1 0 0 0-1-1h-3.0801c-0.59311 2.9e-5 -1.0526-0.45962-1.0527-1.0527v-1.0273a1 1 0 0 0-1-1z" stop-color="#000000" stroke-linecap="round" stroke-linejoin="round"/>
 <path id="path3" d="m40.422 8.0215a1 1 0 0 0-1 1 1 1 0 0 0 1 1h1.0254c0.59318 0 1.0527 0.4576 1.0527 1.0508v20.527c0 0.59318-0.45956 1.0527-1.0527 1.0527h-6.1582a1.0001 1.0001 0 0 0-1 1v7.377c-7e-6 0.05418 0.0051 0.01679-0.01563 0.02539-0.02077 0.0086 9e-3 0.03244-0.0293-0.0059l-8.1035-8.1035a1.0001 1.0001 0 0 0-0.70703-0.29297h-5.9473a1 1 0 0 0-1 1 1 1 0 0 0 1 1h5.5332l7.8105 7.8105c0.60826 0.60814 1.5154 0.72674 2.209 0.43945 0.6936-0.28728 1.2499-1.0129 1.25-1.873v-6.377h5.1582c1.6741 0 3.0527-1.3787 3.0527-3.0527v-20.527c0-1.6741-1.3787-3.0508-3.0527-3.0508z" stop-color="#000000" stroke-linecap="round" stroke-linejoin="round"/>
 <path id="line3" d="m10.145 10.191a1 1 0 0 0-1 1 1 1 0 0 0 1 1h24.631a1 1 0 0 0 1-1 1 1 0 0 0-1-1z" stop-color="#000000" stroke-linecap="round" stroke-linejoin="round"/>
 <path id="line4" d="m10.145 16.939a1 1 0 0 0-1 1 1 1 0 0 0 1 1h19.158a1 1 0 0 0 1-1 1 1 0 0 0-1-1z" stop-color="#000000" stroke-linecap="round" stroke-linejoin="round"/>
 <path id="line5" d="m10.145 23.689a1 1 0 0 0-1 1 1 1 0 0 0 1 1h13.684a1 1 0 0 0 1-1 1 1 0 0 0-1-1z" stop-color="#000000" stroke-linecap="round" stroke-linejoin="round"/>
</svg>
