<?xml version="1.0" encoding="UTF-8" standalone="no"?>
<svg
   id="Layer_2"
   data-name="Layer 2"
   viewBox="0 0 48 48"
   version="1.1"
   sodipodi:docname="org.gnome.Contacts.svg"
   xmlns:inkscape="http://www.inkscape.org/namespaces/inkscape"
   xmlns:sodipodi="http://sodipodi.sourceforge.net/DTD/sodipodi-0.dtd"
   xmlns="http://www.w3.org/2000/svg"
   xmlns:svg="http://www.w3.org/2000/svg">
  <sodipodi:namedview
     id="namedview1"
     pagecolor="#ffffff"
     bordercolor="#666666"
     borderopacity="1.0"
     inkscape:showpageshadow="2"
     inkscape:pageopacity="0.0"
     inkscape:pagecheckerboard="0"
     inkscape:deskcolor="#d1d1d1" />
  <defs
     id="defs1">
    <style
       id="style1">.cls-1{fill:none;stroke:#000;stroke-width:2px;stroke-linecap:round;stroke-linejoin:round;}</style>
  </defs>
  <path
     style="color:#000000;fill:#000000;stroke-linecap:round;stroke-linejoin:round;-inkscape-stroke:none"
     d="m 10.324219,3.5 c -1.6165356,0.040426 -2.9243338,1.3829593 -2.9238284,3 v 35.099609 c -5.054e-4,1.617041 1.3072928,2.959574 2.9238284,3 a 1.0001,1.0001 0 0 0 0.02539,0 h 27.300782 c 1.645008,0 3,-1.354992 3,-3 V 6.4492187 a 1.0001,1.0001 0 0 0 0,-0.023437 C 40.609965,4.8092459 39.267431,3.4994946 37.650391,3.5 H 10.349609 a 1.0001,1.0001 0 0 0 -0.02539,0 z m 0.05078,2 h 27.275391 c 0.553625,-1.73e-4 0.986159,0.4211566 1,0.9746094 V 41.599609 c 0,0.564129 -0.435872,1 -1,1 H 10.375 c -0.5534527,-0.01384 -0.9747824,-0.446374 -0.9746094,-1 V 6.5 C 9.4002176,5.9463743 9.8215473,5.5138406 10.375,5.5 Z m 13.623047,6.769531 c -3.501641,0.0065 -6.357428,2.869447 -6.357422,6.371094 5e-6,2.796577 1.726997,4.97209 3.933594,5.884766 2.206596,0.912676 4.96792,0.594359 6.943359,-1.384766 1.975439,-1.979125 2.291788,-4.742374 1.375,-6.947266 -0.916787,-2.204891 -3.097959,-3.929036 -5.894531,-3.923828 z m 0.0039,2 c 1.990317,-0.0037 3.405907,1.161214 4.042969,2.69336 0.637061,1.532145 0.464434,3.355208 -0.941406,4.763671 -1.405841,1.408464 -3.230342,1.585377 -4.763672,0.951172 -1.53333,-0.634204 -2.699216,-2.046788 -2.699219,-4.037109 -4e-6,-2.422084 1.939249,-4.366583 4.361328,-4.371094 z M 24,25 c -3.089997,0 -5.855712,0.407736 -7.935547,1.111328 -1.039917,0.351796 -1.911531,0.77284 -2.58789,1.316406 -0.67636,0.543566 -1.207032,1.287994 -1.207032,2.181641 v 5.169922 a 1.0001,1.0001 0 0 0 1,1 h 21.460938 a 1.0001,1.0001 0 0 0 1,-1 v -5.119141 c 0,-0.893646 -0.528219,-1.639212 -1.203125,-2.1875 C 33.852438,26.924369 32.981595,26.497288 31.941406,26.138672 29.861029,25.42144 27.092775,25 24,25 Z m 0,2 c 2.907219,0 5.504444,0.414031 7.289062,1.029297 0.89231,0.307633 1.579048,0.671569 1.978516,0.996094 0.399468,0.324524 0.462891,0.533413 0.462891,0.634765 v 4.119141 H 14.269531 v -4.169922 c 0,-0.101352 0.06097,-0.303176 0.458985,-0.623047 0.398014,-0.31987 1.083982,-0.678515 1.976562,-0.980469 C 18.490239,27.401953 21.090003,27 24,27 Z"
     id="path1" />
</svg>
