<?xml version="1.0" encoding="UTF-8"?>
<svg id="a" version="1.1" viewBox="0 0 48 48" xmlns="http://www.w3.org/2000/svg">
 <defs id="defs1">
  <style id="style1">.c{fill:none;stroke:#000;stroke-width:2px;stroke-linecap:round;stroke-linejoin:round;}</style>
 </defs>
 <g id="b" stroke-linecap="round" stroke-linejoin="round">
  <path id="circle1" d="m20.207 4.5c-8.6634 0-15.707 7.0436-15.707 15.707 0 8.6634 7.0436 15.709 15.707 15.709 8.6634 0 15.709-7.0455 15.709-15.709 0-8.6634-7.0455-15.707-15.709-15.707zm0 2c7.5826 0 13.709 6.1245 13.709 13.707 0 7.5826-6.1264 13.709-13.709 13.709-7.5826 0-13.707-6.1264-13.707-13.709 0-7.5826 6.1245-13.707 13.707-13.707z" color="#000000" style="-inkscape-stroke:none"/>
  <path id="line1" d="m29.9 29.9a1 1 0 0 0 0 1.4141l11.893 11.893a1 1 0 0 0 1.4141 0 1 1 0 0 0 0-1.4141l-11.893-11.893a1 1 0 0 0-1.4141 0z" color="#000000" style="-inkscape-stroke:none"/>
 </g>
</svg>
