<?xml version="1.0" encoding="UTF-8"?>
<svg id="a" version="1.1" viewBox="0 0 48 48" xmlns="http://www.w3.org/2000/svg">
 <defs id="defs1">
  <style id="style1">.b{fill:none;stroke:#000;stroke-width:2px;stroke-linecap:round;stroke-linejoin:round;}</style>
 </defs>
 <path id="path1" d="m24 1.5c-12.412 0.0057502-22.494 10.088-22.5 22.5 0 12.415 10.085 22.5 22.5 22.5s22.5-10.085 22.5-22.5-10.085-22.5-22.5-22.5zm0 2c11.334 0 20.5 9.1663 20.5 20.5s-9.1663 20.5-20.5 20.5-20.5-9.1663-20.5-20.5c0.0052498-11.332 9.1683-20.495 20.5-20.5z" stop-color="#000000" stroke-linecap="round" stroke-linejoin="round"/>
 <path id="circle1" d="m24 31.213c-1.7243 0-3.1445 1.4183-3.1445 3.1426 0 1.7243 1.4202 3.1445 3.1445 3.1445s3.1445-1.4202 3.1445-3.1445c0-1.7243-1.4202-3.1426-3.1445-3.1426zm0 2c0.64344 0 1.1445 0.49914 1.1445 1.1426 0 0.64344-0.50109 1.1445-1.1445 1.1445s-1.1445-0.50109-1.1445-1.1445c0-0.64344 0.50109-1.1426 1.1445-1.1426z" stop-color="#000000" stroke-linecap="round" stroke-linejoin="round"/>
 <path id="line1" d="m23.977 10.5a1 1 0 0 0-1 1v16.141a1 1 0 0 0 1 1 1 1 0 0 0 1-1v-16.141a1 1 0 0 0-1-1z" stop-color="#000000" stroke-linecap="round" stroke-linejoin="round"/>
</svg>
