<?xml version="1.0" encoding="UTF-8"?>
<svg id="Layer_2" data-name="Layer 2" version="1.1" viewBox="0 0 48 48" xmlns="http://www.w3.org/2000/svg">
 <defs id="defs4">
  <style id="style2">.cls-1{fill:none;stroke:#000;stroke-width:2px;stroke-linecap:round;stroke-linejoin:round;}</style>
 </defs>
 <path id="path6" d="m40.547 24.949-12.66 0.050781a1.0001 1.0001 0 0 0-0.02148 0c-1.555 0.039586-2.8257 1.3102-2.8652 2.8652a1.0001 1.0001 0 0 0 0 0.02539v12.629c-0.05091 1.6454 1.2935 3.031 2.9395 3.0312h12.611c1.645 0 3-1.355 3-3v-12.66c7.88e-4 -1.6468-1.3852-2.9904-3.0312-2.9395zm0.0078 2a1.0001 1.0001 0 0 0 0.02539 0c0.54351-0.01682 0.97096 0.39568 0.9707 0.93945a1.0001 1.0001 0 0 0 0 2e-3v12.66c0 0.56413-0.43587 1-1 1h-12.611c-0.54377 2.13e-4 -0.95627-0.42724-0.93945-0.97075a1.0001 1.0001 0 0 0 0-0.0293v-12.635c0.013-0.51047 0.40555-0.90302 0.91602-0.91602z" color="#000000" stroke-linecap="round" stroke-linejoin="round" style="-inkscape-stroke:none"/>
 <path id="path8" d="m7.4258 4.5c-1.6165 0.040426-2.9263 1.383-2.9258 3v12.609c-7.878e-4 1.6468 1.3852 2.9904 3.0312 2.9395l-0.03125 0.001953h12.609c1.6119 0 2.9414-1.3295 2.9414-2.9414v-12.654c0.008338-1.6176-1.3238-2.9551-2.9414-2.9551h-12.66a1.0001 1.0001 0 0 0-0.023437 0zm0.048828 2h12.635c0.53308-7.1e-6 0.94415 0.41224 0.94141 0.94531a1.0001 1.0001 0 0 0 0 0.00391v12.66c0 0.53099-0.41041 0.94141-0.94141 0.94141h-12.609a1.0001 1.0001 0 0 0-0.03125 0c-0.54351 0.016818-0.96901-0.39568-0.96875-0.93945a1.0001 1.0001 0 0 0 0-2e-3v-12.609c-1.73e-4 -0.55363 0.42116-0.98616 0.97461-1z" color="#000000" stroke-linecap="round" stroke-linejoin="round" style="-inkscape-stroke:none"/>
 <path id="rect10" d="m28.869 4.5c-2.1544 0-3.9199 1.7655-3.9199 3.9199v10.711c0 2.1544 1.7655 3.9199 3.9199 3.9199h10.711c2.1544 0 3.9199-1.7655 3.9199-3.9199v-10.711c0-2.1544-1.7655-3.9199-3.9199-3.9199zm0 2h10.711c1.081 0 1.9199 0.83895 1.9199 1.9199v10.711c0 1.081-0.83895 1.9199-1.9199 1.9199h-10.711c-1.081 0-1.9199-0.83894-1.9199-1.9199v-10.711c0-1.081 0.83894-1.9199 1.9199-1.9199z" color="#000000" stroke-linecap="round" stroke-linejoin="round" style="-inkscape-stroke:none"/>
 <path id="rect12" d="m7.4492 24.949c-1.617 0-2.9492 1.3342-2.9492 2.9512v12.65c0 1.617 1.3322 2.9492 2.9492 2.9492h12.65c1.617 0 2.9512-1.3322 2.9512-2.9492v-12.65c0-1.617-1.3342-2.9512-2.9512-2.9512zm0 2h12.65c0.5436 0 0.95117 0.40758 0.95117 0.95117v12.65c0 0.5436-0.40758 0.94922-0.95117 0.94922h-12.65c-0.5436 0-0.94922-0.40562-0.94922-0.94922v-12.65c0-0.5436 0.40562-0.95117 0.94922-0.95117z" color="#000000" stroke-linecap="round" stroke-linejoin="round" style="-inkscape-stroke:none"/>
 <path id="line14" d="m13.779 7.4199a1 1 0 0 0-1 1v10.711a1 1 0 0 0 1 1 1 1 0 0 0 1-1v-10.711a1 1 0 0 0-1-1z" color="#000000" stroke-linecap="round" stroke-linejoin="round" style="-inkscape-stroke:none"/>
 <path id="line16" d="m8.4199 12.779a1 1 0 0 0-1 1 1 1 0 0 0 1 1h10.711a1 1 0 0 0 1-1 1 1 0 0 0-1-1z" color="#000000" stroke-linecap="round" stroke-linejoin="round" style="-inkscape-stroke:none"/>
 <path id="line18" d="m28.869 30.301a1 1 0 0 0-1 1 1 1 0 0 0 1 1h10.711a1 1 0 0 0 1-1 1 1 0 0 0-1-1z" color="#000000" stroke-linecap="round" stroke-linejoin="round" style="-inkscape-stroke:none"/>
 <path id="line20" d="m28.869 36.141a1 1 0 0 0-1 1 1 1 0 0 0 1 1h10.711a1 1 0 0 0 1-1 1 1 0 0 0-1-1z" color="#000000" stroke-linecap="round" stroke-linejoin="round" style="-inkscape-stroke:none"/>
</svg>
