<?xml version="1.0" encoding="UTF-8"?>
<svg id="svg6" version="1.1" viewBox="0 0 48 48" xmlns="http://www.w3.org/2000/svg">
 <defs id="defs1">
  <style id="style1">.b{fill:none;stroke:#000;stroke-width:2px;stroke-linecap:round;stroke-linejoin:round;}</style>
 </defs>
 <g id="g3" class="b" transform="translate(.017 -.743)">
  <path id="path1" d="m44.879 9.9355a1.0001 1.0001 0 0 0-0.81445 0.011719l-41.004 19.039a1.0001 1.0001 0 0 0 0.45898 1.9062c4.8191-0.1893 8.4539 1.4034 11.48 4.3027a1.0001 1.0001 0 0 0 0.77539 0.27539c5.354-0.45307 8.5814 1.9202 12.668 3.8711a1.0001 1.0001 0 0 0 1.3027-0.41016l15.609-27.586a1.0001 1.0001 0 0 0-0.47656-1.4102zm-2.7988 3.1387-13.615 24.057c-3.4997-1.7611-7.0813-3.9373-12.404-3.6348-2.4055-2.2092-5.2645-3.7425-8.6348-4.3301z"/>
  <path id="path2" d="m44.584 9.8594a1 1 0 0 0-0.73242 0.2207l-28.795 23.621a1.0001 1.0001 0 0 0-0.32227 0.48438l-1.2539 4.1582a1 1 0 0 0 0.66797 1.2461 1 1 0 0 0 1.2461-0.66992l1.166-3.8652 28.559-23.428a1 1 0 0 0 0.13867-1.4062 1 1 0 0 0-0.67383-0.36133z"/>
  <path id="path3" d="m18.795 34.197-4.9473 3.627a1 1 0 0 0-0.21484 1.3984 1 1 0 0 0 1.3984 0.21484l4.9453-3.627a1 1 0 0 0 0.2168-1.3984 1 1 0 0 0-1.3984-0.21484z"/>
 </g>
 <g id="g6" class="b" transform="translate(.017 -.743)">
  <path id="path4" d="m44.879 9.9355a1.0001 1.0001 0 0 0-0.81445 0.011719l-41.004 19.039a1.0001 1.0001 0 0 0 0.45898 1.9062c4.8191-0.1893 8.4539 1.4034 11.48 4.3027a1.0001 1.0001 0 0 0 0.77539 0.27539c5.354-0.45307 8.5814 1.9202 12.668 3.8711a1.0001 1.0001 0 0 0 1.3027-0.41016l15.609-27.586a1.0001 1.0001 0 0 0-0.47656-1.4102zm-2.7988 3.1387-13.615 24.057c-3.4997-1.7611-7.0813-3.9373-12.404-3.6348-2.4055-2.2092-5.2645-3.7425-8.6348-4.3301z"/>
  <path id="path5" d="m44.584 9.8594a1 1 0 0 0-0.73242 0.2207l-28.795 23.621a1.0001 1.0001 0 0 0-0.32227 0.48438l-1.2539 4.1582a1 1 0 0 0 0.66797 1.2461 1 1 0 0 0 1.2461-0.66992l1.166-3.8652 28.559-23.428a1 1 0 0 0 0.13867-1.4062 1 1 0 0 0-0.67383-0.36133z"/>
  <path id="path6" d="m18.795 34.197-4.9473 3.627a1 1 0 0 0-0.21484 1.3984 1 1 0 0 0 1.3984 0.21484l4.9453-3.627a1 1 0 0 0 0.2168-1.3984 1 1 0 0 0-1.3984-0.21484z"/>
 </g>
</svg>
