<?xml version="1.0" encoding="UTF-8"?>
<svg id="b" version="1.1" viewBox="0 0 48 48" xmlns="http://www.w3.org/2000/svg">
 <defs id="defs1">
  <style id="style1">.c{fill:none;stroke:#000;stroke-width:2px;stroke-linecap:round;stroke-linejoin:round;}</style>
 </defs>
 <path id="path1" d="m31.875 15.719a1 1 0 0 0-0.6582 0.38867 1 1 0 0 0 0.20117 1.4004c1.3245 0.99335 2.8117 4.1366 2.5488 7.5-0.26682 2.5085-1.7359 4.7267-2.5508 5.3379a1 1 0 0 0-0.19922 1.3984 1 1 0 0 0 1.4004 0.20117c1.5412-1.1559 3.015-3.6503 3.3398-6.7363a1.0001 1.0001 0 0 0 0.0039-0.02539c0.31973-3.9956-1.135-7.6189-3.3438-9.2754a1 1 0 0 0-0.74218-0.18945z" stop-color="#000000" stroke-linecap="round" stroke-linejoin="round"/>
 <path id="path2" d="m25.52 7.7012a1.0001 1.0001 0 0 0-1.0645 0.13281l-10.771 8.9043h-8.1836a1.0001 1.0001 0 0 0-1 1v12.816a1.0001 1.0001 0 0 0 1 1h8.1934l10.775 8.6211a1.0001 1.0001 0 0 0 1.625-0.78125v-30.789a1.0001 1.0001 0 0 0-0.57422-0.9043zm-1.4258 3.0293v26.584l-9.4238-7.5391a1.0001 1.0001 0 0 0-0.625-0.2207h-7.5449v-10.816h7.5449a1.0001 1.0001 0 0 0 0.63672-0.22852z" stop-color="#000000" stroke-linecap="round" stroke-linejoin="round"/>
 <path id="path3" d="m37.779 10.168a1 1 0 0 0-1.4023 0.1875 1 1 0 0 0 0.18945 1.4023c2.6427 2.0135 5.1842 7.8246 4.9082 14.168-0.42398 4.7153-2.8744 8.6431-4.9023 10.164a1 1 0 0 0-0.19922 1.4004 1 1 0 0 0 1.4004 0.19922c2.6824-2.0118 5.2325-6.3229 5.6992-11.613a1.0001 1.0001 0 0 0 2e-3 -0.04297c0.30696-6.9073-2.1536-13.167-5.6953-15.865z" stop-color="#000000" stroke-linecap="round" stroke-linejoin="round"/>
</svg>
