<?xml version="1.0" encoding="UTF-8" standalone="no"?>
<svg
   id="b"
   viewBox="0 0 48 48"
   version="1.1"
   sodipodi:docname="pocketcasts.svg"
   xmlns:inkscape="http://www.inkscape.org/namespaces/inkscape"
   xmlns:sodipodi="http://sodipodi.sourceforge.net/DTD/sodipodi-0.dtd"
   xmlns="http://www.w3.org/2000/svg"
   xmlns:svg="http://www.w3.org/2000/svg">
  <sodipodi:namedview
     id="namedview2"
     pagecolor="#ffffff"
     bordercolor="#666666"
     borderopacity="1.0"
     inkscape:showpageshadow="2"
     inkscape:pageopacity="0.0"
     inkscape:pagecheckerboard="0"
     inkscape:deskcolor="#d1d1d1" />
  <defs
     id="defs1">
    <style
       id="style1">.c{fill:none;stroke:#000;stroke-width:2px;stroke-linecap:round;stroke-linejoin:round;}</style>
  </defs>
  <path
     style="color:#000000;fill:#000000;stroke-linecap:round;stroke-linejoin:round;-inkscape-stroke:none"
     d="M 24,1.5 C 11.58547,1.5 1.5,11.58547 1.5,24 1.5,36.41453 11.58547,46.5 24,46.5 a 1,1 0 0 0 1,-1 1,1 0 0 0 -1,-1 C 12.666354,44.5 3.5,35.333646 3.5,24 3.5,12.666354 12.666354,3.5 24,3.5 35.333646,3.5 44.5,12.666354 44.5,24 a 1,1 0 0 0 1,1 1,1 0 0 0 1,-1 C 46.5,11.58547 36.41453,1.5 24,1.5 Z"
     id="path1" />
  <path
     style="color:#000000;fill:#000000;stroke-linecap:round;stroke-linejoin:round;-inkscape-stroke:none"
     d="m 24,10 c -7.720133,0 -14,6.279867 -14,14 0,7.720133 6.279867,14 14,14 a 1,1 0 0 0 1,-1 1,1 0 0 0 -1,-1 c -6.639253,0 -12,-5.360747 -12,-12 0,-6.639253 5.360747,-12 12,-12 6.639253,0 12,5.360747 12,12 a 1,1 0 0 0 1,1 1,1 0 0 0 1,-1 C 38,16.279867 31.720133,10 24,10 Z"
     id="path2" />
</svg>
