<?xml version="1.0" encoding="UTF-8"?>
<svg id="Layer_2" data-name="Layer 2" version="1.1" viewBox="0 0 48 48" xmlns="http://www.w3.org/2000/svg">
 <defs id="defs4">
  <style id="style2">.cls-1{fill:none;stroke:#000;stroke-width:2px;stroke-linecap:round;stroke-linejoin:round;}</style>
 </defs>
 <path id="path6" d="m24.848 4.5312a1.0001 1.0001 0 0 0-0.10547 0.021484l-5.5586 1.4805a1.0001 1.0001 0 0 0-2e-3 0l-5.4902 1.4688c-0.85453 0.21849-1.3798 1.122-1.1465 1.9727l2.1289 7.9922a1.0001 1.0001 0 0 0 0 0.0039c0.11107 0.41056 0.38552 0.75969 0.75586 0.96875 4.64e-4 2.62e-4 -4.65e-4 0.0017 0 2e-3l6.9824 4.0996c0.74874 0.44098 1.7429 0.188 2.1875-0.55859a1.0001 1.0001 0 0 0 0.0098-0.01953l3.998-7.0566c0.21043-0.36773 0.26727-0.80349 0.1582-1.2129l-2.0957-7.8946c-0.17079-0.83-0.98468-1.3961-1.8223-1.2676zm-0.0332 2.0723 1.9785 7.4492-3.7168 6.5605-6.5156-3.8262-1.9824-7.4531 5.1191-1.3672z" color="#000000" stroke-linecap="round" stroke-linejoin="round" style="-inkscape-stroke:none"/>
 <path id="path8" d="m38.529 12.545-7.9473 2.1289a1.0001 1.0001 0 0 0-0.0039 0c-0.41107 0.11121-0.75978 0.38481-0.96875 0.75586l-4.1016 6.9844c-0.43952 0.74854-0.18545 1.7413 0.56055 2.1855a1.0001 1.0001 0 0 0 0.01953 0.0098l7.0547 3.998c0.36773 0.21043 0.80544 0.26727 1.2148 0.1582a1.0001 1.0001 0 0 0 2e-3 0l7.9395-2.1289a1.0001 1.0001 0 0 0 0.0039-2e-3c0.83731-0.22891 1.3524-1.1123 1.1367-1.9531a1.0001 1.0001 0 0 0-0.0039-0.0098l-2.9375-10.98c-0.21798-0.85252-1.1179-1.3757-1.9668-1.1465zm0.13672 2.0332 1.3672 5.1191a1.0001 1.0001 0 0 0 0 2e-3l1.3691 5.1074-7.4043 1.9863-6.5605-3.7168 3.8242-6.5137zm3.1094 10.127h0.0059l-0.0078 2e-3c9.48e-4 -2.68e-4 1e-3 -0.0017 2e-3 -2e-3z" color="#000000" stroke-linecap="round" stroke-linejoin="round" style="-inkscape-stroke:none"/>
 <path id="path10" d="m24.381 25.344c-0.3975 0.1018-0.75816 0.35131-0.98047 0.72461a1.0001 1.0001 0 0 0-0.0098 0.01953l-3.998 7.0547c-0.21043 0.36773-0.26727 0.80544-0.1582 1.2148a1.0001 1.0001 0 0 0 0 2e-3l2.1289 7.9395a1.0001 1.0001 0 0 0 2e-3 0.0039c0.22891 0.83731 1.1123 1.3524 1.9531 1.1367a1.0001 1.0001 0 0 0 0.0098-0.0039l10.98-2.9375c0.85252-0.21798 1.3757-1.1179 1.1465-1.9668v-2e-3l-2.1289-7.9473a1.0001 1.0001 0 0 0 0-0.0039c-0.11121-0.41107-0.38481-0.75978-0.75586-0.96875l-6.9824-4.1016h-2e-3c-0.37397-0.21959-0.80821-0.2657-1.2051-0.16407zm0.54297 2.0938 6.5137 3.8242 1.9844 7.4043-5.1191 1.3672a1.0001 1.0001 0 0 0-2e-3 0l-5.1074 1.3691-1.9863-7.4043zm-1.6309 14.336c2.68e-4 9.48e-4 0.0017 1e-3 2e-3 2e-3v0.0059z" color="#000000" stroke-linecap="round" stroke-linejoin="round" style="-inkscape-stroke:none"/>
 <path id="path12" d="m13.693 19.234-7.9492 2.1094a1.0001 1.0001 0 0 0-0.00781 2e-3c-0.83731 0.22891-1.3505 1.1123-1.1348 1.9531a1.0001 1.0001 0 0 0 0 2e-3l1.4297 5.5097a1.0001 1.0001 0 0 0 0.00195 0.0078l1.4688 5.4902c0.21849 0.85453 1.122 1.3798 1.9727 1.1465l7.9922-2.1289a1.0001 1.0001 0 0 0 0.0039 0c0.41056-0.11107 0.75969-0.38552 0.96875-0.75586h2e-3l4.0996-6.9824c0.44098-0.74874 0.188-1.7429-0.55859-2.1875a1.0001 1.0001 0 0 0-0.01953-0.0098l-7.0567-3.998c-0.36773-0.21043-0.80349-0.26727-1.2129-0.1582zm0.35938 1.9727 6.5605 3.7168-3.8262 6.5156-7.4531 1.9824-1.3672-5.1172-1.332-5.1289zm-7.5156 1.5918 0.00195 2e-3c2.439e-4 9.51e-4 -0.00219 1e-3 -0.00195 2e-3z" color="#000000" stroke-linecap="round" stroke-linejoin="round" style="-inkscape-stroke:none"/>
</svg>
