<?xml version="1.0" encoding="UTF-8" standalone="no"?>
<svg
   id="Layer_2"
   data-name="Layer 2"
   viewBox="0 0 48 48"
   version="1.1"
   sodipodi:docname="ppsspp.svg"
   xmlns:inkscape="http://www.inkscape.org/namespaces/inkscape"
   xmlns:sodipodi="http://sodipodi.sourceforge.net/DTD/sodipodi-0.dtd"
   xmlns="http://www.w3.org/2000/svg"
   xmlns:svg="http://www.w3.org/2000/svg">
  <sodipodi:namedview
     id="namedview4"
     pagecolor="#ffffff"
     bordercolor="#666666"
     borderopacity="1.0"
     inkscape:showpageshadow="2"
     inkscape:pageopacity="0.0"
     inkscape:pagecheckerboard="0"
     inkscape:deskcolor="#d1d1d1" />
  <defs
     id="defs1">
    <style
       id="style1">.cls-1{fill:none;stroke:#000;stroke-width:2px;stroke-linecap:round;stroke-linejoin:round;}</style>
  </defs>
  <path
     style="color:#000000;fill:#000000;stroke-linecap:round;stroke-linejoin:round;-inkscape-stroke:none"
     d="m 24.847656,4.53125 a 1.0001,1.0001 0 0 0 -0.105469,0.021484 l -5.558593,1.4804687 a 1.0001,1.0001 0 0 0 -0.002,0 l -5.490235,1.46875 c -0.854531,0.2184934 -1.37978,1.1220468 -1.146484,1.9726563 l 2.128906,7.9921876 a 1.0001,1.0001 0 0 0 0,0.0039 c 0.111069,0.410555 0.385524,0.759686 0.75586,0.96875 4.64e-4,2.62e-4 -4.65e-4,0.0017 0,0.002 l 6.982421,4.09961 c 0.748745,0.440976 1.742889,0.187998 2.1875,-0.558594 a 1.0001,1.0001 0 0 0 0.0098,-0.01953 l 3.998047,-7.056641 c 0.210431,-0.367729 0.267269,-0.803488 0.158203,-1.212891 L 26.669922,5.7988281 C 26.499133,4.9688243 25.685246,4.4027271 24.847656,4.53125 Z m -0.0332,2.0722656 1.978516,7.4492184 -3.716797,6.560547 -6.515625,-3.826172 -1.982422,-7.4531246 5.119141,-1.3671875 z"
     id="path1" />
  <path
     style="color:#000000;fill:#000000;stroke-linecap:round;stroke-linejoin:round;-inkscape-stroke:none"
     d="m 38.529297,12.544922 -7.947266,2.128906 a 1.0001,1.0001 0 0 0 -0.0039,0 c -0.41107,0.111208 -0.759777,0.384812 -0.96875,0.75586 l -4.101563,6.984374 c -0.439522,0.748538 -0.185452,1.741289 0.560547,2.185547 a 1.0001,1.0001 0 0 0 0.01953,0.0098 l 7.054687,3.998047 c 0.367729,0.210431 0.805441,0.267269 1.214844,0.158203 a 1.0001,1.0001 0 0 0 0.002,0 l 7.939453,-2.128906 a 1.0001,1.0001 0 0 0 0.0039,-0.002 c 0.837307,-0.22891 1.352437,-1.112323 1.136719,-1.953125 a 1.0001,1.0001 0 0 0 -0.0039,-0.0098 l -1.46875,-5.490234 -1.46875,-5.490235 c -0.21798,-0.852524 -1.117939,-1.375678 -1.966797,-1.146484 z m 0.136719,2.033203 1.367187,5.119141 a 1.0001,1.0001 0 0 0 0,0.002 l 1.369141,5.107422 -7.404297,1.986328 L 27.4375,23.076172 31.261719,16.5625 Z m 3.109375,10.126953 h 0.0059 l -0.0078,0.002 c 9.48e-4,-2.68e-4 0.001,-0.0017 0.002,-0.002 z"
     id="path2" />
  <path
     style="color:#000000;fill:#000000;stroke-linecap:round;stroke-linejoin:round;-inkscape-stroke:none"
     d="m 24.380859,25.34375 c -0.397496,0.101798 -0.758163,0.351313 -0.980468,0.724609 a 1.0001,1.0001 0 0 0 -0.0098,0.01953 l -3.998047,7.054687 c -0.210431,0.367729 -0.267269,0.805441 -0.158203,1.214844 a 1.0001,1.0001 0 0 0 0,0.002 l 2.128906,7.939453 a 1.0001,1.0001 0 0 0 0.002,0.0039 c 0.22891,0.837307 1.112323,1.352437 1.953125,1.136719 a 1.0001,1.0001 0 0 0 0.0098,-0.0039 l 5.490234,-1.46875 5.490235,-1.46875 c 0.852524,-0.21798 1.375678,-1.117939 1.146484,-1.966797 v -0.002 l -2.128906,-7.947266 a 1.0001,1.0001 0 0 0 0,-0.0039 c -0.111208,-0.41107 -0.384812,-0.759777 -0.75586,-0.96875 l -6.982421,-4.101563 h -0.002 C 25.211966,25.288226 24.777724,25.242114 24.380859,25.34375 Z m 0.542969,2.09375 6.513672,3.824219 1.984375,7.404297 -5.119141,1.367187 a 1.0001,1.0001 0 0 0 -0.002,0 l -5.107422,1.369141 -1.986328,-7.404297 z m -1.630859,14.335937 c 2.68e-4,9.48e-4 0.0017,0.001 0.002,0.002 v 0.0059 z"
     id="path3" />
  <path
     style="color:#000000;fill:#000000;stroke-linecap:round;stroke-linejoin:round;-inkscape-stroke:none"
     d="M 13.693359,19.234375 5.7441406,21.34375 a 1.0001,1.0001 0 0 0 -0.00781,0.002 c -0.837307,0.22891 -1.3504832,1.112323 -1.1347656,1.953125 a 1.0001,1.0001 0 0 0 0,0.002 L 6.03125,28.810547 a 1.0001,1.0001 0 0 0 0.00195,0.0078 l 1.46875,5.490235 c 0.2184934,0.854531 1.1220468,1.37978 1.9726563,1.146484 l 7.9921876,-2.128906 a 1.0001,1.0001 0 0 0 0.0039,0 c 0.410555,-0.111069 0.759686,-0.385524 0.96875,-0.75586 h 0.002 l 4.09961,-6.982421 c 0.440976,-0.748745 0.187998,-1.742889 -0.558594,-2.1875 a 1.0001,1.0001 0 0 0 -0.01953,-0.0098 L 14.90625,19.392578 c -0.367729,-0.210431 -0.803488,-0.267269 -1.212891,-0.158203 z m 0.359375,1.972656 6.560547,3.716797 -3.826172,6.515625 -7.4531246,1.982422 -1.3671875,-5.117188 -1.3320313,-5.128906 z m -7.5156246,1.591797 0.00195,0.002 c 2.439e-4,9.51e-4 -0.00219,0.001 -0.00195,0.002 z"
     id="path4" />
</svg>
