<?xml version="1.0" encoding="UTF-8"?>
<svg id="svg1" version="1.1" viewBox="0 0 48 48" xmlns="http://www.w3.org/2000/svg">
 <defs id="defs1">
  <style id="style1">.a{fill:none;stroke:#000;stroke-width:2px;stroke-linecap:round;stroke-linejoin:round;}</style>
 </defs>
 <path id="path1" d="m9.543 5.6914c-3.9519-0.45313-6.8381 3.8553-4.916 7.3379l0.11914 0.21484a1.0001 1.0001 0 0 0 0.75977 0.50976l25.578 2.959c0.93283 0.10788 1.3848 1.0746 0.86914 1.8594l-10.307 15.689-1.3535 2.0352a1.0001 1.0001 0 0 0-2e-3 0c-0.1582 0.238-0.41278 0.22682-0.55078-0.02344a1.0005 1.0005 0 0 0-1.752 0.9668l1.4004 2.5332c0.296 0.53963 0.68906 1.0199 1.1602 1.416a1.0001 1.0001 0 0 0 0.0039 0.0039c2.2698 1.8883 5.7192 1.3743 7.3398-1.0938l15.289-23.299c2.0067-3.0582 0.04608-7.2455-3.5879-7.6621zm-0.22852 1.9883 30.051 3.4453c2.238 0.25659 3.3804 2.6947 2.1445 4.5781l-15.289 23.299c-0.9828 1.4967-3.0072 1.7989-4.3848 0.65625-0.28222-0.23731-0.51816-0.52427-0.69531-0.84766a1.0001 1.0001 0 0 0-2e-3 -2e-3l-0.31836-0.57617c0.44255-0.15558 0.85221-0.40009 1.1367-0.82812l1.3574-2.0391a1.0001 1.0001 0 0 0 0.0039-0.0059l10.305-15.689c1.2872-1.9589 0.01984-4.6741-2.3086-4.9434l-24.992-2.8926c-0.96173-2.1076 0.62217-4.426 2.9922-4.1543z" stop-color="#000000" stroke-linecap="round" stroke-linejoin="round"/>
 <path id="line1" d="m5.1367 11.885a1 1 0 0 0-0.39062 1.3594l13.244 23.996a1 1 0 0 0 1.3574 0.39258 1 1 0 0 0 0.39258-1.3594l-13.244-23.996a1 1 0 0 0-1.3594-0.39258z" stop-color="#000000" stroke-linecap="round" stroke-linejoin="round"/>
</svg>
