<?xml version="1.0" encoding="UTF-8" standalone="no"?>
<svg
   id="b"
   viewBox="0 0 48 48"
   version="1.1"
   sodipodi:docname="qbittorrent.svg"
   xmlns:inkscape="http://www.inkscape.org/namespaces/inkscape"
   xmlns:sodipodi="http://sodipodi.sourceforge.net/DTD/sodipodi-0.dtd"
   xmlns="http://www.w3.org/2000/svg"
   xmlns:svg="http://www.w3.org/2000/svg">
  <sodipodi:namedview
     id="namedview3"
     pagecolor="#ffffff"
     bordercolor="#666666"
     borderopacity="1.0"
     inkscape:showpageshadow="2"
     inkscape:pageopacity="0.0"
     inkscape:pagecheckerboard="0"
     inkscape:deskcolor="#d1d1d1" />
  <defs
     id="defs1">
    <style
       id="style1">.c{fill:none;stroke:#000;stroke-width:2px;stroke-linecap:round;stroke-linejoin:round;}</style>
  </defs>
  <path
     style="color:#000000;fill:#000000;stroke-linecap:round;stroke-linejoin:round;-inkscape-stroke:none"
     d="M 24,1.5 C 11.58545,1.5 1.5,11.58545 1.5,24 1.5,36.41455 11.58545,46.5 24,46.5 36.41455,46.5 46.5,36.41455 46.5,24 46.5,11.58545 36.41455,1.5 24,1.5 Z m 0,2 C 35.333671,3.5 44.5,12.666329 44.5,24 44.5,35.333671 35.333671,44.5 24,44.5 12.666329,44.5 3.5,35.333671 3.5,24 3.5,12.666329 12.666329,3.5 24,3.5 Z"
     id="circle1" />
  <g
     id="g3">
    <g
       id="g1">
      <path
         style="color:#000000;fill:#000000;stroke-linecap:round;stroke-linejoin:round;-inkscape-stroke:none"
         d="m 31.685547,16.330078 c -3.320927,0 -6.035156,2.712276 -6.035156,6.033203 a 1,1 0 0 0 1,1 1,1 0 0 0 1,-1 c 0,-2.240067 1.795088,-4.033203 4.035156,-4.033203 2.240067,0 4.035156,1.793136 4.035156,4.033203 v 3.273438 c 0,2.240067 -1.795089,4.033203 -4.035156,4.033203 -2.240068,0 -4.035156,-1.793136 -4.035156,-4.033203 a 1,1 0 0 0 -1,-1 1,1 0 0 0 -1,1 c 0,3.320927 2.714229,6.033203 6.035156,6.033203 3.320927,0 6.035156,-2.712276 6.035156,-6.033203 v -3.273438 c 0,-3.320927 -2.714229,-6.033203 -6.035156,-6.033203 z"
         id="path1" />
      <path
         style="color:#000000;fill:#000000;stroke-linecap:round;stroke-linejoin:round;-inkscape-stroke:none"
         d="m 26.650391,9.5332031 a 1,1 0 0 0 -1,0.9999999 v 20.136719 a 1,1 0 0 0 1,1 1,1 0 0 0 1,-1 V 10.533203 a 1,1 0 0 0 -1,-0.9999999 z"
         id="line1" />
    </g>
    <g
       id="g2">
      <path
         style="color:#000000;fill:#000000;stroke-linecap:round;stroke-linejoin:round;-inkscape-stroke:none"
         d="m 16.314453,16.330078 c -3.320927,0 -6.035156,2.712276 -6.035156,6.033203 v 3.273438 c 0,3.320927 2.714229,6.033203 6.035156,6.033203 3.320927,0 6.035156,-2.712276 6.035156,-6.033203 a 1,1 0 0 0 -1,-1 1,1 0 0 0 -1,1 c 0,2.240067 -1.795088,4.033203 -4.035156,4.033203 -2.240067,0 -4.035156,-1.793136 -4.035156,-4.033203 v -3.273438 c 0,-2.240067 1.795089,-4.033203 4.035156,-4.033203 2.240068,0 4.035156,1.793136 4.035156,4.033203 a 1,1 0 0 0 1,1 1,1 0 0 0 1,-1 c 0,-3.320927 -2.714229,-6.033203 -6.035156,-6.033203 z"
         id="path2" />
      <path
         style="color:#000000;fill:#000000;stroke-linecap:round;stroke-linejoin:round;-inkscape-stroke:none"
         d="m 21.349609,16.330078 a 1,1 0 0 0 -1,1 v 20.136719 a 1,1 0 0 0 1,1 1,1 0 0 0 1,-1 V 17.330078 a 1,1 0 0 0 -1,-1 z"
         id="line2" />
    </g>
  </g>
</svg>
