<?xml version="1.0" encoding="UTF-8"?>
<svg id="Layer_2" data-name="Layer 2" version="1.1" viewBox="0 0 48 48" xmlns="http://www.w3.org/2000/svg">
 <defs id="defs1">
  <style id="style1">.cls-1{fill:none;stroke:#000;stroke-width:2px;stroke-linecap:round;stroke-linejoin:round;}</style>
 </defs>
 <path id="path1" d="m15.74 11.051a1.0001 1.0001 0 0 0-1 1v0.0293a1.0001 1.0001 0 0 0 0.13477 0.5l1.6641 2.8809h-2.209a1.0001 1.0001 0 0 0-0.9668 0.74023l-1.5312 5.7383h-2.0391l1.2734-4.7402a1.0001 1.0001 0 0 0-0.9668-1.2598h-3.1602a1.0001 1.0001 0 0 0-0.96484 0.74023l-1.6191 6a1.0001 1.0001 0 0 0-0.00195 2e-3l-0.82032 3.0585a1.0001 1.0001 0 0 0 0.9668 1.2598h5.9824l-0.94922 3.6152a1.0001 1.0001 0 0 0 0.9668 1.2539h3.2695l-2.5664 4.4512a1.0001 1.0001 0 0 0 0.86719 1.5h4.5a1.0001 1.0001 0 0 0 0.86524-0.5l3.1426-5.4512h6.8418l3.1211 5.4766a1.0001 1.0001 0 0 0 0.86914 0.50391h4.5605a1.0001 1.0001 0 0 0 0.86523-1.5l-2.5645-4.4492h3.2676a1.0001 1.0001 0 0 0 0.9668-1.2598l-0.98047-3.6406h5.9746a1.0001 1.0001 0 0 0 0.9668-1.2559l-0.82031-3.0898a1.0001 1.0001 0 0 0-2e-3 -0.0059l-1.6191-6a1.0001 1.0001 0 0 0-0.96484-0.73828h-3.1602a1.0001 1.0001 0 0 0-0.9668 1.2598l1.2734 4.7402h-2.0391l-1.5312-5.7383a1.0001 1.0001 0 0 0-0.96675-0.74215h-2.207l1.6621-2.8789a1.0001 1.0001 0 0 0-0.86523-1.5h-3.1191a1.0001 1.0001 0 0 0-0.86719 0.5l-2.2402 3.8789h-4.0664l-2.2402-3.8789a1.0001 1.0001 0 0 0-0.86719-0.5zm1.7148 2h0.82812l2.2402 3.8789a1.0001 1.0001 0 0 0 0.86719 0.5h5.2188a1.0001 1.0001 0 0 0 0.86719-0.5l2.2402-3.8789h0.81055l-1.6641 2.8789a1.0001 1.0001 0 0 0 0.86719 1.5h3.1719l1.5312 5.7383a1.0001 1.0001 0 0 0 0.9668 0.74219h4.1094a1.0001 1.0001 0 0 0 0.9668-1.2598l-1.2734-4.7402h1.0918l1.4199 5.2578 0.48633 1.832h-5.9805a1.0001 1.0001 0 0 0-0.9668 1.2598l0.98047 3.6406h-3.6953a1.0001 1.0001 0 0 0-0.86523 1.5l2.5645 4.4492h-2.248l-3.1211-5.4746a1.0001 1.0001 0 0 0-0.86914-0.50586h-8a1.0001 1.0001 0 0 0-0.86719 0.50195l-3.1406 5.4492h-2.1914l2.5664-4.4512a1.0001 1.0001 0 0 0-0.86719-1.5h-3.7031l0.95117-3.6152a1.0001 1.0001 0 0 0-0.96875-1.2539h-5.9766l0.48242-1.8008 1.4199-5.2598h1.0918l-1.2734 4.7422a1.0001 1.0001 0 0 0 0.9668 1.2578h4.1094a1.0001 1.0001 0 0 0 0.9668-0.74219l1.5312-5.7363h3.1719a1.0001 1.0001 0 0 0 0.86719-1.502zm-0.82422 4.6602a1.0001 1.0001 0 0 0-1 1v4.4082a1.0001 1.0001 0 0 0 1 1h4.3691a1.0001 1.0001 0 0 0 1-1v-4.4082a1.0001 1.0001 0 0 0-1-1zm10.34 0a1.0001 1.0001 0 0 0-1 1v4.4082a1.0001 1.0001 0 0 0 1 1h4.3984a1.0001 1.0001 0 0 0 1-1v-4.4082a1.0001 1.0001 0 0 0-1-1zm-9.3398 2h2.3691v2.4082h-2.3691zm10.34 0h2.3984v2.4082h-2.3984z" color="#000000" stroke-linecap="round" stroke-linejoin="round" style="-inkscape-stroke:none"/>
</svg>
