<?xml version="1.0" encoding="UTF-8" standalone="no"?>
<svg
   id="Layer_2"
   data-name="Layer 2"
   viewBox="0 0 48 48"
   version="1.1"
   sodipodi:docname="retroarch.svg"
   xmlns:inkscape="http://www.inkscape.org/namespaces/inkscape"
   xmlns:sodipodi="http://sodipodi.sourceforge.net/DTD/sodipodi-0.dtd"
   xmlns="http://www.w3.org/2000/svg"
   xmlns:svg="http://www.w3.org/2000/svg">
  <sodipodi:namedview
     id="namedview1"
     pagecolor="#ffffff"
     bordercolor="#666666"
     borderopacity="1.0"
     inkscape:showpageshadow="2"
     inkscape:pageopacity="0.0"
     inkscape:pagecheckerboard="0"
     inkscape:deskcolor="#d1d1d1" />
  <defs
     id="defs1">
    <style
       id="style1">.cls-1{fill:none;stroke:#000;stroke-width:2px;stroke-linecap:round;stroke-linejoin:round;}</style>
  </defs>
  <path
     style="color:#000000;fill:#000000;stroke-linecap:round;stroke-linejoin:round;-inkscape-stroke:none"
     d="m 15.740234,11.050781 a 1.0001,1.0001 0 0 0 -1,1 v 0.0293 a 1.0001,1.0001 0 0 0 0.134766,0.5 l 1.664062,2.88086 h -2.208984 a 1.0001,1.0001 0 0 0 -0.966797,0.740234 l -1.53125,5.738281 H 9.7929688 L 11.066406,17.199219 A 1.0001,1.0001 0 0 0 10.099609,15.939453 H 6.9394531 a 1.0001,1.0001 0 0 0 -0.9648437,0.740234 l -1.6191407,6 a 1.0001,1.0001 0 0 0 -0.00195,0.002 L 3.5332031,25.740234 A 1.0001,1.0001 0 0 0 4.5,27 h 5.982422 L 9.5332031,30.615234 A 1.0001,1.0001 0 0 0 10.5,31.869141 h 3.269531 l -2.566406,4.451171 a 1.0001,1.0001 0 0 0 0.867188,1.5 h 4.499999 a 1.0001,1.0001 0 0 0 0.865235,-0.5 l 3.142578,-5.451171 h 6.841797 l 3.121094,5.476562 a 1.0001,1.0001 0 0 0 0.86914,0.503906 h 4.560547 a 1.0001,1.0001 0 0 0 0.865234,-1.5 l -2.564453,-4.449218 h 3.267578 a 1.0001,1.0001 0 0 0 0.966797,-1.259766 L 37.525391,27 H 43.5 a 1.0001,1.0001 0 0 0 0.966797,-1.255859 l -0.820313,-3.089844 a 1.0001,1.0001 0 0 0 -0.002,-0.0059 l -1.61914,-6 a 1.0001,1.0001 0 0 0 -0.964844,-0.738281 h -3.160156 a 1.0001,1.0001 0 0 0 -0.966797,1.259766 l 1.273437,4.740234 h -2.039062 l -1.53125,-5.738281 A 1.0001,1.0001 0 0 0 33.669922,15.429688 H 31.462891 L 33.125,12.550781 a 1.0001,1.0001 0 0 0 -0.865234,-1.5 h -3.119141 a 1.0001,1.0001 0 0 0 -0.867188,0.5 l -2.240234,3.878907 h -4.066406 l -2.240235,-3.878907 a 1.0001,1.0001 0 0 0 -0.867187,-0.5 z m 1.714844,2 h 0.828125 l 2.240234,3.878906 a 1.0001,1.0001 0 0 0 0.867188,0.5 h 5.21875 a 1.0001,1.0001 0 0 0 0.867187,-0.5 l 2.240235,-3.878906 h 0.810547 l -1.664063,2.878907 a 1.0001,1.0001 0 0 0 0.867188,1.499999 h 3.171875 l 1.53125,5.738282 a 1.0001,1.0001 0 0 0 0.966797,0.742187 h 4.109375 a 1.0001,1.0001 0 0 0 0.966796,-1.259765 l -1.273437,-4.740235 h 1.091797 L 41.714844,23.167969 42.201172,25 h -5.980469 a 1.0001,1.0001 0 0 0 -0.966797,1.259766 l 0.980469,3.640625 h -3.695313 a 1.0001,1.0001 0 0 0 -0.865234,1.5 l 2.564453,4.449218 H 31.990234 L 28.869141,30.375 A 1.0001,1.0001 0 0 0 28,29.869141 h -8 a 1.0001,1.0001 0 0 0 -0.867188,0.501953 l -3.140624,5.449218 h -2.191407 l 2.566406,-4.451171 a 1.0001,1.0001 0 0 0 -0.867187,-1.5 h -3.703125 l 0.951172,-3.615235 A 1.0001,1.0001 0 0 0 11.779297,25 H 5.8027344 L 6.2851562,23.199219 7.7050781,17.939453 H 8.796875 l -1.2734375,4.742188 a 1.0001,1.0001 0 0 0 0.9667969,1.257812 h 4.1093746 a 1.0001,1.0001 0 0 0 0.966797,-0.742187 l 1.53125,-5.736329 h 3.171875 a 1.0001,1.0001 0 0 0 0.867188,-1.501953 z m -0.824219,4.660156 a 1.0001,1.0001 0 0 0 -1,1 v 4.408204 a 1.0001,1.0001 0 0 0 1,1 H 21 a 1.0001,1.0001 0 0 0 1,-1 v -4.408204 a 1.0001,1.0001 0 0 0 -1,-1 z m 10.339844,0 a 1.0001,1.0001 0 0 0 -1,1 v 4.408204 a 1.0001,1.0001 0 0 0 1,1 h 4.398438 a 1.0001,1.0001 0 0 0 1,-1 v -4.408204 a 1.0001,1.0001 0 0 0 -1,-1 z m -9.339844,2 H 20 v 2.408204 h -2.369141 z m 10.339844,0 h 2.398438 v 2.408204 h -2.398438 z"
     id="path1" />
</svg>
