<?xml version="1.0" encoding="UTF-8"?>
<svg id="Layer_2" data-name="Layer 2" version="1.1" viewBox="0 0 48 48" xmlns="http://www.w3.org/2000/svg">
 <defs id="defs4">
  <style id="style2">.cls-1{fill:none;stroke:#000;stroke-width:2px;stroke-linejoin:round;}</style>
 </defs>
 <path id="path6" d="m23.998 1.5c-1.1343 0.00304-2.2674 0.090715-3.3887 0.26172l0.30078 1.9766c1.022-0.15586 2.0541-0.23532 3.0879-0.23828 1.0455 0.00279 2.0892 0.082102 3.123 0.23828l0.29883-1.9766c-1.1309-0.17085-2.2742-0.25866-3.418-0.26172a1.0001 1.0001 0 0 0-0.0039 0zm5.332 0.62891-0.48047 1.9414c2.0415 0.50365 3.9942 1.3187 5.7891 2.4141l1.043-1.707c-1.9694-1.2019-4.1116-2.0958-6.3516-2.6484zm-10.643 0.017578c-2.251 0.53653-4.4036 1.4255-6.3789 2.6309l1.043 1.707c1.7964-1.0962 3.7537-1.9047 5.8008-2.3926zm-7.9824 3.6895c-1.8535 1.369-3.4867 3.0127-4.8437 4.875l1.6172 1.1777c1.2371-1.6977 2.7263-3.1953 4.416-4.4434zm26.604 0.00586-1.1758 1.6172c1.7018 1.2365 3.1993 2.7305 4.4395 4.4297l1.6152-1.1777c-1.363-1.8675-3.0085-3.5101-4.8789-4.8691zm5.9277 6.4707-1.7129 1.0352c1.0882 1.8004 1.8958 3.7551 2.3945 5.7988l1.9434-0.47266c-0.54695-2.2412-1.4317-4.387-2.625-6.3613zm-38.369 0.015624c-1.2039 1.9654-2.0939 4.1062-2.6387 6.3457l1.9434 0.47266c0.49563-2.0377 1.305-3.9851 2.4004-5.7734zm-3.1055 8.2422c-0.17079 1.1341-0.25865 2.2808-0.26172 3.4277a1.0001 1.0001 0 0 0 0 0.01758c0.017008 1.1479 0.11807 2.2927 0.30273 3.4258l1.9746-0.32227c-0.1685-1.0339-0.26144-2.0795-0.27734-3.127 0.00328-1.0458 0.082553-2.0889 0.23828-3.123zm44.477 0.04297-1.9766 0.29297c0.15174 1.0269 0.2307 2.0636 0.23828 3.1016-0.0033 1.0458-0.08255 2.0889-0.23828 3.123l1.9766 0.29883c0.17079-1.1341 0.25865-2.2808 0.26172-3.4277a1.0001 1.0001 0 0 0 0-2e-3 1.0001 1.0001 0 0 0 0-2e-3 1.0001 1.0001 0 0 0 0-2e-3 1.0001 1.0001 0 0 0 0-0.0039c-0.0083-1.131-0.09638-2.26-0.26172-3.3789zm-1.5273 7.5137a1.0001 1.0001 0 0 0-0.74414 0.59766l-2.5391 6.0801 1.0391 0.43555 0.75586 0.46094c1.1755-1.9226 2.0402-4.0159 2.5879-6.2012 3.51e-4 -0.0014 0.0016-0.0025 2e-3 -0.0039 0.01284-0.05126 0.03636-0.09903 0.04883-0.15039a1.0001 1.0001 0 0 0-1.1504-1.2188zm-4.1562 7.9805c-1.2466 1.6965-2.7462 3.1926-4.4453 4.4355l1.1816 1.6133c1.8638-1.3634 3.5076-3.0024 4.875-4.8633zm-5.8965 5.4102c-1.7926 1.096-3.7473 1.9029-5.791 2.3906l0.46484 1.9453c2.2481-0.53648 4.3973-1.4252 6.3691-2.6309zm-13.77 2.7441-0.29883 1.9766c1.1275 0.17046 2.2659 0.25826 3.4062 0.26172a1.0001 1.0001 0 0 0 0.0078 0c1.1594-0.0034 2.3161-0.0915 3.4629-0.26172l-0.29297-1.9766c-1.049 0.1557-2.1094 0.23476-3.1699 0.23828-1.0423-0.0032-2.0846-0.08248-3.1152-0.23828z" color="#000000" stroke-linejoin="round" style="-inkscape-stroke:none"/>
 <path id="path8" d="m13.648 41.945-2.2402 0.50977 0.44336 1.9492 1.9551-0.44531c1.536 0.79971 3.1405 1.4635 4.8223 1.8809l0.48242-1.9395c-1.6601-0.41196-3.261-1.0367-4.7617-1.8574a1.0001 1.0001 0 0 0-0.70117-0.09766z" color="#000000" stroke-linejoin="round" style="-inkscape-stroke:none"/>
 <path id="path10" d="m4.0879 28.926-1.9355 0.50781c0.4397 1.6792 1.1167 3.2818 1.9258 4.8164l-0.44141 1.9043 1.9473 0.45117 0.50977-2.1992a1.0001 1.0001 0 0 0-0.097656-0.71094c-0.83152-1.5045-1.4728-3.1066-1.9082-4.7695z" color="#000000" stroke-linejoin="round" style="-inkscape-stroke:none"/>
 <path id="path12" d="m3.2891 37.871-1 4.0801c-0.12894 0.51901-0.12958 1.0631 0 1.582a1.0001 1.0001 0 0 0 0.00391 0.01367c0.44586 1.6807 2.1885 2.7016 3.873 2.2715 6.713e-4 -1.71e-4 0.00128 1.72e-4 0.00195 0l4.0703-0.99805-0.47656-1.9414-4.0801 1a1.0001 1.0001 0 0 0-0.00977 2e-3c-0.64146 0.16425-1.2681-0.20388-1.4414-0.8418-0.048558-0.19973-0.049823-0.40792 0-0.60742a1.0001 1.0001 0 0 0 0-0.0039l1-4.0801z" color="#000000" stroke-linejoin="round" style="-inkscape-stroke:none"/>
 <path id="path14" d="m23.996 5.4102c-14.411 0.027155-23.2 15.827-15.875 28.09l-1.5742 6.7832a1.0001 1.0001 0 0 0 1.1973 1.2012l6.834-1.5645c10.405 6.2069 23.998 0.94016 27.365-10.789 3.4129-11.887-5.5787-23.773-17.945-23.721zm0.0059 2a1.0001 1.0001 0 0 0 2e-3 0c11.087-0.047956 19.077 10.511 16.017 21.168-3.0599 10.657-15.433 15.37-24.807 9.4473a1.0001 1.0001 0 0 0-0.75781-0.13086l-5.6016 1.2832 1.2891-5.541a1.0001 1.0001 0 0 0-0.12891-0.76172c-7.0152-11.079 0.87293-25.441 13.986-25.465z" color="#000000" stroke-linejoin="round" style="-inkscape-stroke:none"/>
</svg>
