<?xml version="1.0" encoding="UTF-8"?>
<svg id="Layer_2" data-name="Layer 2" version="1.1" viewBox="0 0 48 48" xmlns="http://www.w3.org/2000/svg">
 <defs id="defs1">
  <style id="style1">.cls-1{fill:none;stroke:#000;stroke-linecap:round;stroke-linejoin:round;stroke-width:2px;}</style>
 </defs>
 <path id="path1" d="m19.061 4.5c-1.4833 0-2.7235 0.59226-3.5234 1.4922-0.79994 0.89993-1.1777 2.0598-1.1777 3.207s0.3778 2.3091 1.1777 3.209c0.79994 0.89993 2.0401 1.4922 3.5234 1.4922h3.6992a1.0001 1.0001 0 0 0 1-1v-3.7012c0.004817-2.5766-2.1007-4.6922-4.6777-4.6992a1 1 0 0 0-0.01563 0.00586 1 1 0 0 0-0.005854-0.00586zm0.01172 1.9941a1 1 0 0 0 0.005858 0.0058594c1.4975 0.00405 2.6857 1.1998 2.6816 2.6973a1.0001 1.0001 0 0 0 0 0.00195v2.7012h-2.6992c-0.98333 0-1.594-0.33274-2.0273-0.82031s-0.67383-1.1781-0.67383-1.8809c0-0.70278 0.24043-1.3913 0.67383-1.8789 0.43339-0.48756 1.044-0.82031 2.0273-0.82031a1 1 0 0 0 0.01172-0.00586zm-9.873 7.8652c-1.4833 0-2.7215 0.59226-3.5215 1.4922-0.79994 0.89993-1.1777 2.0618-1.1777 3.209s0.3778 2.3071 1.1777 3.207c0.79994 0.89993 2.0382 1.4922 3.5215 1.4922h9.8613c1.4833 0 2.7215-0.59226 3.5215-1.4922s1.1777-2.0598 1.1777-3.207-0.3778-2.3091-1.1777-3.209c-0.79488-0.89424-2.0252-1.4789-3.4961-1.4863a1 1 0 0 0-0.0059-0.0059h-0.01953zm0 2h9.8613c0.98333 0 1.594 0.33274 2.0273 0.82031 0.43339 0.48757 0.67188 1.1781 0.67188 1.8809s-0.23848 1.3913-0.67188 1.8789c-0.43339 0.48757-1.044 0.82031-2.0273 0.82031h-9.8613c-0.98333 0-1.594-0.33274-2.0273-0.82031s-0.67188-1.1761-0.67188-1.8789 0.23848-1.3933 0.67188-1.8809c0.43339-0.48757 1.044-0.82031 2.0273-0.82031z" stop-color="#000000" stroke-linecap="round" stroke-linejoin="round"/>
 <path id="path2" d="m28.939 4.5c-1.1472 0-2.3071 0.3778-3.207 1.1777-0.89993 0.79994-1.4922 2.0382-1.4922 3.5215v9.8613c0 1.4833 0.59226 2.7215 1.4922 3.5215s2.0598 1.1777 3.207 1.1777 2.3091-0.3778 3.209-1.1777c0.89993-0.79994 1.4922-2.0382 1.4922-3.5215v-9.8613c0-1.4833-0.59226-2.7215-1.4922-3.5215-0.89993-0.79994-2.0618-1.1777-3.209-1.1777zm0 2c0.70278 0 1.3933 0.23848 1.8809 0.67188 0.48757 0.43339 0.82031 1.044 0.82031 2.0273v9.8613c0 0.98333-0.33274 1.594-0.82031 2.0273-0.48757 0.43339-1.1781 0.67188-1.8809 0.67188s-1.3913-0.23848-1.8789-0.67188c-0.48757-0.43339-0.82031-1.044-0.82031-2.0273v-9.8613c0-0.98333 0.33274-1.594 0.82031-2.0273s1.1761-0.67188 1.8789-0.67188zm9.8613 7.8594c-1.1472 0-2.3091 0.3778-3.209 1.1777s-1.4922 2.0401-1.4922 3.5234v3.6992a1.0001 1.0001 0 0 0 1 1h3.7012c2.5839 0 4.6992-2.1153 4.6992-4.6992 0-1.4833-0.59226-2.7235-1.4922-3.5234-0.89993-0.79994-2.0598-1.1777-3.207-1.1777zm0 2c0.70278 0 1.3913 0.24043 1.8789 0.67383 0.48757 0.43339 0.82031 1.044 0.82031 2.0273 0 1.503-1.1962 2.6992-2.6992 2.6992h-2.7012v-2.6992c0-0.98333 0.33274-1.594 0.82031-2.0273s1.1781-0.67383 1.8809-0.67383z" stop-color="#000000" stroke-linecap="round" stroke-linejoin="round"/>
 <path id="path3" d="m28.939 24.24c-1.4833 0-2.7215 0.59226-3.5215 1.4922s-1.1777 2.0598-1.1777 3.207 0.3778 2.3091 1.1777 3.209c0.79994 0.89993 2.0382 1.4922 3.5215 1.4922h9.8613c1.4833 0 2.7215-0.59226 3.5215-1.4922 0.79994-0.89993 1.1777-2.0618 1.1777-3.209s-0.3778-2.3071-1.1777-3.207c-0.79994-0.89993-2.0382-1.4922-3.5215-1.4922zm0 2h9.8613c0.98333 0 1.594 0.33274 2.0273 0.82031s0.67188 1.1761 0.67188 1.8789-0.23848 1.3933-0.67188 1.8809c-0.43339 0.48757-1.044 0.82031-2.0273 0.82031h-9.8613c-0.98333 0-1.594-0.33274-2.0273-0.82031-0.43339-0.48757-0.67188-1.1781-0.67188-1.8809s0.23848-1.3913 0.67188-1.8789c0.43339-0.48757 1.044-0.82031 2.0273-0.82031zm-3.6992 7.8594a1.0001 1.0001 0 0 0-1 1v3.7012c0 2.5839 2.1153 4.6992 4.6992 4.6992 1.4833 0 2.7235-0.59226 3.5234-1.4922 0.79994-0.89993 1.1777-2.0598 1.1777-3.207s-0.3778-2.3091-1.1777-3.209-2.0401-1.4922-3.5234-1.4922zm1 2h2.6992c0.98333 0 1.594 0.33274 2.0273 0.82031s0.67383 1.1781 0.67383 1.8809-0.24043 1.3913-0.67383 1.8789c-0.43339 0.48757-1.044 0.82031-2.0273 0.82031-1.503 0-2.6992-1.1962-2.6992-2.6992z" stop-color="#000000" stroke-linecap="round" stroke-linejoin="round"/>
 <path id="path4" d="m9.1992 24.24c-2.5839 0-4.6992 2.1153-4.6992 4.6992 0 1.4833 0.59226 2.7235 1.4922 3.5234 0.89993 0.79994 2.0598 1.1777 3.207 1.1777s2.3091-0.3778 3.209-1.1777c0.89993-0.79994 1.4922-2.0401 1.4922-3.5234v-3.6992a1.0001 1.0001 0 0 0-1-1zm9.8809 0c-2.5742 0-4.6775 2.1012-4.6934 4.6719a1 1 0 0 0-0.02734 0.02734v9.8613c0 1.4833 0.59226 2.7215 1.4922 3.5215 0.89993 0.79994 2.0618 1.1777 3.209 1.1777s2.3071-0.3778 3.207-1.1777 1.4922-2.0382 1.4922-3.5215v-9.8614c0.01074-2.5799-2.0991-4.6993-4.6797-4.6992zm-9.8809 2h2.7012v2.6992c0 0.98333-0.33274 1.594-0.82031 2.0273s-1.1781 0.67383-1.8809 0.67383c-0.70278 0-1.3913-0.24043-1.8789-0.67383s-0.82031-1.044-0.82031-2.0273c0-1.503 1.1962-2.6992 2.6992-2.6992zm9.8809 0c1.4979-2.2e-5 2.6878 1.1955 2.6797 2.6934a1.0001 1.0001 0 0 0 0 0.0059v9.8613c0 0.98333-0.33274 1.594-0.82031 2.0273-0.48757 0.43335-1.1761 0.67183-1.8789 0.67183s-1.3933-0.23848-1.8809-0.67188c-0.48757-0.43339-0.82031-1.044-0.82031-2.0273v-9.8398a1 1 0 0 0 0.02148-0.02148c0-1.503 1.1962-2.6992 2.6992-2.6992z" stop-color="#000000" stroke-linecap="round" stroke-linejoin="round"/>
</svg>
