<?xml version="1.0" encoding="UTF-8"?>
<svg id="svg11" version="1.1" viewBox="0 0 48 48" xmlns="http://www.w3.org/2000/svg">
 <defs id="defs1">
  <style id="style1">.a{fill:none;stroke:#000;stroke-width:2px;stroke-linecap:round;stroke-linejoin:round;}</style>
 </defs>
 <path id="path1" d="m24 7.6543c-8.7308 0-15.83 7.0993-15.83 15.83v0.25781c-2.7176 0.352-4.8638 2.6728-4.6562 5.5254l-0.00195-0.07227v5.8594l0.00586-0.11719s-0.16423 1.2841 0.51562 2.5801 2.3143 2.5332 5.1367 2.5332a1.0001 1.0001 0 0 0 1-1v-15.566c0-7.6499 6.1801-13.83 13.83-13.83s13.83 6.1801 13.83 13.83v15.566a1.0001 1.0001 0 0 0 1 1c2.8211 0 4.4545-1.2375 5.1348-2.5332 0.68025-1.2957 0.51758-2.5781 0.51758-2.5781l0.0078 0.11523v-5.8594l-0.0039 0.07422c0.21248-2.8551-1.9361-5.1784-4.6562-5.5273v-0.25781c2.2e-6 -8.7308-7.0993-15.83-15.83-15.83zm15.83 18.051c1.5942 0.31176 2.7904 1.6926 2.6621 3.416a1.0001 1.0001 0 0 0-2e-3 0.07422v5.8594a1.0001 1.0001 0 0 0 0.0059 0.11524s0.06812 0.71532-0.30078 1.418c-0.29224 0.55663-1.0274 1.0452-2.3652 1.2676zm-31.66 2e-3v12.148c-1.3391-0.22229-2.0733-0.7111-2.3652-1.2676-0.36842-0.70232-0.30078-1.418-0.30078-1.418a1.0001 1.0001 0 0 0 0.00781-0.11524v-5.8594a1.0001 1.0001 0 0 0-0.00391-0.07227c-0.12533-1.7221 1.0696-3.1016 2.6621-3.416z" stroke-linecap="round" stroke-linejoin="round"/>
 <path id="path2" d="m11.863 24.221a1 1 0 0 0-1 1v13.777a1 1 0 0 0 1 1 1 1 0 0 0 1-1v-13.777a1 1 0 0 0-1-1z" stroke-linecap="round" stroke-linejoin="round"/>
 <path id="path3" d="m14.545 26.967a1 1 0 0 0-1.1445 0.83008 1 1 0 0 0 0.82812 1.1445l4.3984 0.70312-1.4219 4.498-2.834 0.04687a1 1 0 0 0-0.98438 1.0156 1 1 0 0 0 1.0176 0.98438l3.5547-0.06055a1.0001 1.0001 0 0 0 0.9375-0.69726l1.9863-6.291a1.0001 1.0001 0 0 0-0.79492-1.2891z" stroke-linecap="round" stroke-linejoin="round"/>
 <path id="path4" d="m33.359 26.969-5.1328 0.88672a1.0001 1.0001 0 0 0-0.78906 1.2695l1.8086 6.0801a1.0001 1.0001 0 0 0 0.89844 0.71289l3.3223 0.20508a1 1 0 0 0 1.0605-0.93555 1 1 0 0 0-0.93555-1.0605l-2.627-0.16211-1.2891-4.3301 4.0234-0.69531a1 1 0 0 0 0.81445-1.1543 1 1 0 0 0-1.1543-0.81641z" stroke-linecap="round" stroke-linejoin="round"/>
 <path id="path5" d="m18.264 33.48a1 1 0 0 0-0.73047 0.22656 1 1 0 0 0-0.12695 1.4082s0.94639 1.1386 2.1348 2.3379c0.59419 0.59964 1.251 1.2177 1.9043 1.7344 0.65334 0.51664 1.2642 0.95171 2.0195 1.1309a1 1 0 0 0 1.2031-0.74219 1 1 0 0 0-0.74219-1.2031c-0.1545-0.036647-0.68767-0.31891-1.2402-0.75586-0.55256-0.43695-1.1639-1.0084-1.7227-1.5723-1.1176-1.1278-2.0215-2.209-2.0215-2.209a1 1 0 0 0-0.67773-0.35547z" stroke-linecap="round" stroke-linejoin="round"/>
 <path id="path6" d="m22.686 34.547a1 1 0 0 0-0.75195 0.14648 1 1 0 0 0-0.28125 1.3867c0.87783 1.3266 1.9967 2.4749 3.2988 3.3887a1 1 0 0 0 1.3926-0.24414 1 1 0 0 0-0.24414-1.3926c-1.0973-0.76998-2.0396-1.7395-2.7793-2.8574a1 1 0 0 0-0.63476-0.42773z" stroke-linecap="round" stroke-linejoin="round"/>
 <path id="path7" d="m24.236 33.385a1 1 0 0 0-0.74805 0.16602 1 1 0 0 0-0.24414 1.3945c0.96096 1.3686 2.116 2.5897 3.4277 3.627a1 1 0 0 0 1.4043-0.16406 1 1 0 0 0-0.16406-1.4043c-1.16-0.91736-2.1814-1.9986-3.0312-3.209a1 1 0 0 0-0.64453-0.41016z" stroke-linecap="round" stroke-linejoin="round"/>
 <path id="path8" d="m23.996 31.086a1 1 0 0 0-0.66211 0.38281 1 1 0 0 0 0.18359 1.4023c1.651 1.2672 3.123 2.7515 4.375 4.4141a1 1 0 0 0 1.4004 0.19727 1 1 0 0 0 0.19726-1.4004c-1.3607-1.807-2.9615-3.4196-4.7559-4.7969a1 1 0 0 0-0.73828-0.19922z" stroke-linecap="round" stroke-linejoin="round"/>
 <path id="path9" d="m24.439 28.248c-0.55244 0.03028-1.0709 0.06842-1.6152 0.40234-0.58794 0.36067-1.3902 0.95302-2.041 1.6582-0.32539 0.35259-0.61994 0.72326-0.80273 1.2129-0.18279 0.48963-0.1606 1.2783 0.30664 1.7715a1 1 0 0 0 1.4141 0.03906 1 1 0 0 0 0.19336-1.168c0.04524-0.09261 0.15381-0.27937 0.35742-0.5 0.45356-0.49147 1.1974-1.0499 1.6191-1.3086-0.03949 0.02423 0.27176-0.08907 0.67773-0.11133 0.40597-0.02225 0.91398-3e-3 1.3984 0.03711 0.96892 0.08012 1.8301 0.23438 1.8301 0.23438a1 1 0 0 0 1.1621-0.80664 1 1 0 0 0-0.80664-1.1602s-0.93753-0.17029-2.0195-0.25977c-0.541-0.04474-1.1214-0.0713-1.6738-0.04102z" stroke-linecap="round" stroke-linejoin="round"/>
 <path id="path10" d="m29.803 33.322a1 1 0 0 0-0.73242 0.21875l-1.7461 1.4199a1 1 0 0 0-0.14453 1.4082 1 1 0 0 0 1.4062 0.14453l1.7461-1.4199a1 1 0 0 0 0.14453-1.4062 1 1 0 0 0-0.67383-0.36523z" stroke-linecap="round" stroke-linejoin="round"/>
 <path id="path11" d="m36.053 24.221a1 1 0 0 0-1 1v13.777a1 1 0 0 0 1 1 1 1 0 0 0 1-1v-13.777a1 1 0 0 0-1-1z" stroke-linecap="round" stroke-linejoin="round"/>
</svg>
