<?xml version="1.0" encoding="UTF-8"?>
<svg id="a" version="1.1" viewBox="0 0 48 48" xmlns="http://www.w3.org/2000/svg">
 <defs id="defs1">
  <style id="style1">.b{fill:none;stroke:#000;stroke-width:2px;stroke-linecap:round;stroke-linejoin:round;}</style>
 </defs>
 <path id="circle1" d="m24 20.779c-6.5383 0-11.859 5.323-11.859 11.861s5.3211 11.859 11.859 11.859 11.859-5.3211 11.859-11.859-5.3211-11.861-11.859-11.861zm0 2c5.4574 0 9.8594 4.4039 9.8594 9.8613s-4.4019 9.8594-9.8594 9.8594-9.8594-4.4019-9.8594-9.8594 4.4019-9.8613 9.8594-9.8613z" stop-color="#000000" stroke-linecap="round" stroke-linejoin="round"/>
 <path id="path1" d="m24 3.5c-6.5383 0-11.859 5.321-11.859 11.859v17.281a1 1 0 0 0 1 1 1 1 0 0 0 1-1v-17.281c0-5.4575 4.4019-9.8594 9.8594-9.8594 5.4575 0 9.8594 4.402 9.8594 9.8594v17.281a1 1 0 0 0 1 1 1 1 0 0 0 1-1v-17.281c0-6.5382-5.321-11.859-11.859-11.859z" stop-color="#000000" stroke-linecap="round" stroke-linejoin="round"/>
</svg>
