<?xml version="1.0" encoding="UTF-8"?>
<svg id="a" version="1.1" viewBox="0 0 48 48" xmlns="http://www.w3.org/2000/svg">
 <defs id="defs1">
  <style id="style1">.b{fill:none;stroke:#000;stroke-width:2px;stroke-linecap:round;stroke-linejoin:round;}</style>
 </defs>
 <path id="line1" d="m42.262 30.158-36.92 9.041a1 1 0 0 0-0.73242 1.209 1 1 0 0 0 1.209 0.73242l36.92-9.041a1 1 0 0 0 0.73242-1.209 1 1 0 0 0-1.209-0.73242z" color="#000000" stroke-linecap="round" stroke-linejoin="round" style="-inkscape-stroke:none"/>
 <path id="path1" d="m21.312 6.8301c-9.2761 0-16.812 7.5356-16.812 16.803 0 4.6433 1.8858 8.8711 4.9453 11.91a1 1 0 0 0 1.416-0.0039 1 1 0 0 0-0.0059-1.4141c-2.694-2.6761-4.3554-6.3899-4.3554-10.492 0-8.1858 6.6166-14.803 14.812-14.803 8.1858 0 14.805 6.617 14.805 14.803 0 1.5652-0.24254 3.0632-0.69141 4.4727a1 1 0 0 0 0.64844 1.2559 1 1 0 0 0 1.2559-0.64844c0.51013-1.6018 0.78711-3.308 0.78711-5.0801 0-9.267-7.5375-16.803-16.805-16.803z" color="#000000" stroke-linecap="round" stroke-linejoin="round" style="-inkscape-stroke:none"/>
</svg>
