<?xml version="1.0" encoding="UTF-8" standalone="no"?>
<svg
   id="a"
   viewBox="0 0 48 48"
   version="1.1"
   sodipodi:docname="steam_icon_1716740.svg"
   xmlns:inkscape="http://www.inkscape.org/namespaces/inkscape"
   xmlns:sodipodi="http://sodipodi.sourceforge.net/DTD/sodipodi-0.dtd"
   xmlns="http://www.w3.org/2000/svg"
   xmlns:svg="http://www.w3.org/2000/svg">
  <sodipodi:namedview
     id="namedview17"
     pagecolor="#ffffff"
     bordercolor="#666666"
     borderopacity="1.0"
     inkscape:showpageshadow="2"
     inkscape:pageopacity="0.0"
     inkscape:pagecheckerboard="0"
     inkscape:deskcolor="#d1d1d1" />
  <defs
     id="defs1">
    <style
       id="style1">.b{fill:none;stroke:#000;stroke-width:2px;stroke-linecap:round;stroke-linejoin:round;}</style>
  </defs>
  <path
     style="color:#000000;fill:#000000;stroke-linecap:round;stroke-linejoin:round;-inkscape-stroke:none"
     d="M 24,1.5 C 11.58545,1.5 1.5,11.58545 1.5,24 1.5,36.41455 11.58545,46.5 24,46.5 36.41455,46.5 46.5,36.41455 46.5,24 46.5,11.58545 36.41455,1.5 24,1.5 Z m 0,2 C 35.333671,3.5 44.5,12.666329 44.5,24 44.5,35.333671 35.333671,44.5 24,44.5 12.666329,44.5 3.5,35.333671 3.5,24 3.5,12.666329 12.666329,3.5 24,3.5 Z"
     id="circle1" />
  <path
     style="color:#000000;fill:#000000;stroke-linecap:round;stroke-linejoin:round;-inkscape-stroke:none"
     d="m 24,31.449219 c -6.325476,0 -12.057561,2.617535 -16.1386719,6.824218 A 1,1 0 0 0 7.8828125,39.6875 1,1 0 0 0 9.296875,39.666016 C 13.015757,35.832707 18.225488,33.449219 24,33.449219 c 5.774512,0 10.984243,2.383488 14.703125,6.216797 a 1,1 0 0 0 1.414062,0.02148 1,1 0 0 0 0.02148,-1.414063 C 36.057561,34.066754 30.325476,31.449219 24,31.449219 Z"
     id="path1" />
  <path
     style="color:#000000;fill:#000000;stroke-linecap:round;stroke-linejoin:round;-inkscape-stroke:none"
     d="m 24,33.740234 c -5.697089,0 -10.907196,2.11496 -14.8730469,5.63086 a 1,1 0 0 0 -0.085937,1.412109 1,1 0 0 0 1.4121094,0.08594 C 14.067266,37.665047 18.7971,35.740234 24,35.740234 c 5.2029,0 9.932734,1.924813 13.546875,5.128907 a 1,1 0 0 0 1.412109,-0.08594 1,1 0 0 0 -0.08594,-1.412109 C 34.907196,35.855194 29.697089,33.740234 24,33.740234 Z"
     id="path2" />
  <path
     style="color:#000000;fill:#000000;stroke-linecap:round;stroke-linejoin:round;-inkscape-stroke:none"
     d="m 28.177734,26.945312 a 1,1 0 0 0 -1,1 v 1.53711 a 1,1 0 0 0 1,1 1,1 0 0 0 1,-1 v -1.53711 a 1,1 0 0 0 -1,-1 z"
     id="line2" />
  <path
     style="color:#000000;fill:#000000;stroke-linecap:round;stroke-linejoin:round;-inkscape-stroke:none"
     d="m 27.410156,27.714844 a 1,1 0 0 0 -1,1 1,1 0 0 0 1,1 h 1.53711 a 1,1 0 0 0 1,-1 1,1 0 0 0 -1,-1 z"
     id="line3" />
  <path
     style="color:#000000;fill:#000000;stroke-linecap:round;stroke-linejoin:round;-inkscape-stroke:none"
     d="m 19.822266,26.945312 a 1,1 0 0 0 -1,1 v 1.53711 a 1,1 0 0 0 1,1 1,1 0 0 0 1,-1 v -1.53711 a 1,1 0 0 0 -1,-1 z"
     id="line4" />
  <path
     style="color:#000000;fill:#000000;stroke-linecap:round;stroke-linejoin:round;-inkscape-stroke:none"
     d="m 19.052734,27.714844 a 1,1 0 0 0 -1,1 1,1 0 0 0 1,1 h 1.53711 a 1,1 0 0 0 1,-1 1,1 0 0 0 -1,-1 z"
     id="line5" />
  <path
     style="color:#000000;fill:#000000;stroke-linecap:round;stroke-linejoin:round;-inkscape-stroke:none"
     d="m 30.177734,18.267578 a 1,1 0 0 0 -1,1 v 1.537109 a 1,1 0 0 0 1,1 1,1 0 0 0 1,-1 v -1.537109 a 1,1 0 0 0 -1,-1 z"
     id="line6" />
  <path
     style="color:#000000;fill:#000000;stroke-linecap:round;stroke-linejoin:round;-inkscape-stroke:none"
     d="m 29.410156,19.035156 a 1,1 0 0 0 -1,1 1,1 0 0 0 1,1 h 1.53711 a 1,1 0 0 0 1,-1 1,1 0 0 0 -1,-1 z"
     id="line7" />
  <path
     style="color:#000000;fill:#000000;stroke-linecap:round;stroke-linejoin:round;-inkscape-stroke:none"
     d="m 17.822266,18.267578 a 1,1 0 0 0 -1,1 v 1.537109 a 1,1 0 0 0 1,1 1,1 0 0 0 1,-1 v -1.537109 a 1,1 0 0 0 -1,-1 z"
     id="line8" />
  <path
     style="color:#000000;fill:#000000;stroke-linecap:round;stroke-linejoin:round;-inkscape-stroke:none"
     d="m 17.052734,19.035156 a 1,1 0 0 0 -1,1 1,1 0 0 0 1,1 h 1.53711 a 1,1 0 0 0 1,-1 1,1 0 0 0 -1,-1 z"
     id="line9" />
  <path
     style="color:#000000;fill:#000000;stroke-linecap:round;stroke-linejoin:round;-inkscape-stroke:none"
     d="m 31.421875,2.7617188 a 1,1 0 0 0 -1.189453,0.765625 c -1.743038,8.0460412 1.63597,13.3125022 5.326172,17.3320312 1.845101,2.009764 3.763715,3.759843 5.195312,5.470703 1.431597,1.710861 2.34648,3.326599 2.431641,5.136719 a 1,1 0 0 0 1.046875,0.951172 1,1 0 0 0 0.951172,-1.044922 C 45.069405,28.945921 43.847697,26.909936 42.287109,25.044922 40.726522,23.179908 38.797746,21.430004 37.03125,19.505859 33.498259,15.657571 30.590841,11.321516 32.1875,3.9511719 A 1,1 0 0 0 31.421875,2.7617188 Z"
     id="path9" />
  <path
     style="color:#000000;fill:#000000;stroke-linecap:round;stroke-linejoin:round;-inkscape-stroke:none"
     d="m 37.802734,6.296875 a 1,1 0 0 0 -1.277343,0.6074219 c -1.571732,4.4079041 0.492645,8.3565261 2.841796,11.4316401 1.174576,1.537558 2.437429,2.903059 3.417969,4.06836 0.980541,1.1653 1.627022,2.185653 1.714844,2.642578 a 1,1 0 0 0 1.171875,0.792969 1,1 0 0 0 0.792969,-1.171875 c -0.245227,-1.275874 -1.120821,-2.331488 -2.148438,-3.552735 -1.027616,-1.221247 -2.259065,-2.5538 -3.359375,-3.99414 -2.200619,-2.88068 -3.810693,-6.006034 -2.548828,-9.5449221 A 1,1 0 0 0 37.802734,6.296875 Z"
     id="path10" />
  <path
     style="color:#000000;fill:#000000;stroke-linecap:round;stroke-linejoin:round;-inkscape-stroke:none"
     d="m 24,19.916016 a 1.0001,1.0001 0 0 0 -0.90625,0.578125 l -0.439453,0.941406 c -0.07064,0.15154 -0.19221,0.273114 -0.34375,0.34375 l -0.939453,0.4375 a 1.0001,1.0001 0 0 0 0,1.8125 l 0.939453,0.439453 c 0.15154,0.07064 0.273114,0.19221 0.34375,0.34375 l 0.439453,0.941406 a 1.0001,1.0001 0 0 0 1.8125,0 L 25.345703,24.8125 c 0.07043,-0.15111 0.190859,-0.273029 0.341797,-0.34375 l 0.941406,-0.439453 a 1.0001,1.0001 0 0 0 0,-1.8125 l -0.939453,-0.4375 -0.002,-0.002 c -0.150336,-0.07081 -0.271563,-0.191118 -0.341797,-0.341797 L 24.90625,20.494141 A 1.0001,1.0001 0 0 0 24,19.916016 Z m 0,2.830078 c 0.114337,0.13987 0.237144,0.262545 0.376953,0.376953 C 24.237,23.237494 24.114447,23.360047 24,23.5 23.885553,23.360047 23.763,23.237494 23.623047,23.123047 23.762856,23.008639 23.885663,22.885964 24,22.746094 Z"
     id="path11" />
  <path
     style="color:#000000;fill:#000000;stroke-linecap:round;stroke-linejoin:round;-inkscape-stroke:none"
     d="m 24,8.7304688 a 1.0001,1.0001 0 0 0 -0.955078,0.7050781 l -0.06836,0.21875 C 22.67706,10.62332 21.920195,11.380185 20.951172,11.679688 l -0.21875,0.06641 a 1.0001,1.0001 0 0 0 0,1.912109 l 0.21875,0.06641 c 0.969023,0.299503 1.725888,1.056367 2.02539,2.025391 l 0.06836,0.21875 a 1.0001,1.0001 0 0 0 1.910156,0 L 25.023437,15.75 c 0.299503,-0.969024 1.056368,-1.725888 2.025391,-2.025391 l 0.21875,-0.06641 a 1.0001,1.0001 0 0 0 0,-1.912109 l -0.21875,-0.06641 C 26.079805,11.380185 25.32294,10.62332 25.023437,9.6542969 l -0.06836,-0.21875 A 1.0001,1.0001 0 0 0 24,8.7304688 Z m 0,2.9863282 c 0.288002,0.383852 0.600593,0.698239 0.984375,0.986328 C 24.600923,12.991086 24.287799,13.303918 24,13.6875 23.712201,13.303918 23.399077,12.991086 23.015625,12.703125 23.399407,12.415036 23.711998,12.100649 24,11.716797 Z"
     id="path12" />
  <path
     style="color:#000000;fill:#000000;stroke-linecap:round;stroke-linejoin:round;-inkscape-stroke:none"
     d="M 16.578125,2.7617188 A 1,1 0 0 0 15.8125,3.9511719 C 17.409159,11.321516 14.501741,15.657571 10.96875,19.505859 9.2022544,21.430004 7.2734783,23.179908 5.7128906,25.044922 4.1523029,26.909936 2.9305953,28.945921 2.8164063,31.373047 a 1,1 0 0 0 0.9511718,1.044922 1,1 0 0 0 1.046875,-0.951172 c 0.085161,-1.81012 1.0000438,-3.425858 2.4316406,-5.136719 1.4315969,-1.71086 3.3502113,-3.460939 5.1953123,-5.470703 3.690202,-4.019529 7.06921,-9.28599 5.326172,-17.3320312 a 1,1 0 0 0 -1.189453,-0.765625 z"
     id="path13" />
  <path
     style="color:#000000;fill:#000000;stroke-linecap:round;stroke-linejoin:round;-inkscape-stroke:none"
     d="M 10.197266,6.296875 A 1,1 0 0 0 9.5917969,7.5761719 C 10.853662,11.11506 9.2435876,14.240414 7.0429687,17.121094 5.9426593,18.561434 4.7112105,19.893987 3.6835938,21.115234 2.655977,22.336481 1.7803835,23.392095 1.5351562,24.667969 A 1,1 0 0 0 2.328125,25.839844 1,1 0 0 0 3.5,25.046875 C 3.5878225,24.58995 4.2343031,23.569597 5.2148437,22.404297 6.1953844,21.238996 7.4582367,19.873495 8.6328125,18.335937 10.981964,15.260823 13.046341,11.312201 11.474609,6.9042969 A 1,1 0 0 0 10.197266,6.296875 Z"
     id="path14" />
  <path
     style="color:#000000;fill:#000000;stroke-linecap:round;stroke-linejoin:round;-inkscape-stroke:none"
     d="m 35.693359,25.978516 a 1.0001,1.0001 0 0 0 -0.90625,0.578125 l -0.345703,0.740234 c -0.0341,0.07319 -0.09282,0.131912 -0.166015,0.166016 l -0.738282,0.34375 a 1.0001,1.0001 0 0 0 0,1.8125 l 0.738282,0.345703 c 0.07319,0.0341 0.131912,0.09087 0.166015,0.164062 l 0.345703,0.740235 a 1.0001,1.0001 0 0 0 1.8125,0 l 0.34375,-0.740235 c 0.0341,-0.07319 0.09282,-0.129959 0.166016,-0.164062 l 0.740234,-0.345703 a 1.0001,1.0001 0 0 0 0,-1.8125 l -0.740234,-0.34375 c -0.07319,-0.0341 -0.131912,-0.09282 -0.166016,-0.166016 l -0.34375,-0.740234 a 1.0001,1.0001 0 0 0 -0.90625,-0.578125 z m 0,2.724609 c 0.0033,0.0033 0.0065,0.0065 0.0098,0.0098 -0.0033,0.0033 -0.0065,0.0065 -0.0098,0.0098 -0.0033,-0.0033 -0.0065,-0.0065 -0.0098,-0.0098 0.0033,-0.0033 0.0065,-0.0064 0.0098,-0.0098 z"
     id="path15" />
  <path
     style="color:#000000;fill:#000000;stroke-linecap:round;stroke-linejoin:round;-inkscape-stroke:none"
     d="m 12.304688,25.978516 a 1.0001,1.0001 0 0 0 -0.90625,0.578125 l -0.34375,0.740234 c -0.0341,0.07319 -0.09282,0.131912 -0.166016,0.166016 l -0.740234,0.34375 a 1.0001,1.0001 0 0 0 0,1.8125 l 0.740234,0.345703 c 0.07319,0.0341 0.131912,0.09087 0.166016,0.164062 l 0.34375,0.740235 a 1.0001,1.0001 0 0 0 1.8125,0 l 0.345703,-0.740235 c 0.0341,-0.07319 0.09282,-0.129959 0.166015,-0.164062 l 0.738282,-0.345703 a 1.0001,1.0001 0 0 0 0,-1.8125 l -0.738282,-0.34375 c -0.07319,-0.0341 -0.131912,-0.09282 -0.166015,-0.166016 l -0.345703,-0.740234 a 1.0001,1.0001 0 0 0 -0.90625,-0.578125 z m 0,2.724609 c 0.0033,0.0033 0.0064,0.0065 0.0098,0.0098 -0.0033,0.0033 -0.0065,0.0064 -0.0098,0.0098 -0.0033,-0.0033 -0.0065,-0.0065 -0.0098,-0.0098 0.0033,-0.0033 0.0065,-0.0065 0.0098,-0.0098 z"
     id="path16" />
  <path
     style="color:#000000;fill:#000000;stroke-linecap:round;stroke-linejoin:round;-inkscape-stroke:none"
     d="m 20.140625,35.679687 c -4.091429,10e-7 -7.856221,1.424146 -10.8164062,3.800782 a 1,1 0 0 0 -0.1542969,1.40625 1,1 0 0 0 1.4062501,0.152343 c 2.619809,-2.103359 5.93589,-3.359374 9.564453,-3.359375 5.084671,0 9.58294,2.478165 12.361328,6.289063 a 1,1 0 0 0 1.396484,0.21875 1,1 0 0 0 0.21875,-1.396484 C 30.975582,38.481921 25.875943,35.679687 20.140625,35.679687 Z"
     id="path17" />
</svg>
