<?xml version="1.0" encoding="UTF-8" standalone="no"?>
<svg
   viewBox="0 0 48 48"
   version="1.1"
   id="svg6"
   sodipodi:docname="steam_icon_287980.svg"
   xmlns:inkscape="http://www.inkscape.org/namespaces/inkscape"
   xmlns:sodipodi="http://sodipodi.sourceforge.net/DTD/sodipodi-0.dtd"
   xmlns="http://www.w3.org/2000/svg"
   xmlns:svg="http://www.w3.org/2000/svg">
  <sodipodi:namedview
     id="namedview6"
     pagecolor="#ffffff"
     bordercolor="#666666"
     borderopacity="1.0"
     inkscape:showpageshadow="2"
     inkscape:pageopacity="0.0"
     inkscape:pagecheckerboard="0"
     inkscape:deskcolor="#d1d1d1" />
  <defs
     id="defs1">
    <style
       id="style1">.a{fill:none;stroke:#000;stroke-width:2px;stroke-linecap:round;stroke-linejoin:round;}</style>
  </defs>
  <path
     style="color:#000000;fill:#000000;stroke-linecap:round;stroke-linejoin:round;-inkscape-stroke:none"
     d="M 23.5,8.5 C 14.95144,8.5 8,15.45144 8,24 8,32.54856 14.95144,39.5 23.5,39.5 32.04856,39.5 39,32.54856 39,24 39,15.45144 32.04856,8.5 23.5,8.5 Z m 0,2 C 30.967681,10.5 37,16.532319 37,24 37,31.467681 30.967681,37.5 23.5,37.5 16.032319,37.5 10,31.467681 10,24 10,16.532319 16.032319,10.5 23.5,10.5 Z"
     id="circle1" />
  <path
     style="color:#000000;fill:#000000;stroke-linecap:round;stroke-linejoin:round;-inkscape-stroke:none"
     d="m 23.5,3.5 a 1,1 0 0 0 -1,1 v 5 a 1,1 0 0 0 1,1 1,1 0 0 0 1,-1 v -5 a 1,1 0 0 0 -1,-1 z"
     id="line1" />
  <path
     style="color:#000000;fill:#000000;stroke-linecap:round;stroke-linejoin:round;-inkscape-stroke:none"
     d="m 23.5,37.5 a 1,1 0 0 0 -1,1 v 5 a 1,1 0 0 0 1,1 1,1 0 0 0 1,-1 v -5 a 1,1 0 0 0 -1,-1 z"
     id="line2" />
  <path
     style="color:#000000;fill:#000000;stroke-linecap:round;stroke-linejoin:round;-inkscape-stroke:none"
     d="m 29.5,3.5 a 1,1 0 0 0 -1,1 v 6.300781 a 1,1 0 0 0 1,1 1,1 0 0 0 1,-1 V 4.5 a 1,1 0 0 0 -1,-1 z"
     id="line3" />
  <path
     style="color:#000000;fill:#000000;stroke-linecap:round;stroke-linejoin:round;-inkscape-stroke:none"
     d="m 17.5,3.5 a 1,1 0 0 0 -1,1 v 6.300781 a 1,1 0 0 0 1,1 1,1 0 0 0 1,-1 V 4.5 a 1,1 0 0 0 -1,-1 z"
     id="line4" />
  <path
     style="color:#000000;fill:#000000;stroke-linecap:round;stroke-linejoin:round;-inkscape-stroke:none"
     d="m 33.042969,33.542969 a 1,1 0 0 0 0,1.414062 l 5.25,5.25 a 1,1 0 0 0 1.414062,0 1,1 0 0 0 0,-1.414062 l -5.25,-5.25 a 1,1 0 0 0 -1.414062,0 z"
     id="line5" />
  <path
     style="color:#000000;fill:#000000;stroke-linecap:round;stroke-linejoin:round;-inkscape-stroke:none"
     d="m 28.232422,36.732422 a 1,1 0 0 0 0,1.414062 l 5.541015,5.541016 a 1,1 0 0 0 1.414063,0 1,1 0 0 0 0,-1.414063 l -5.541016,-5.541015 a 1,1 0 0 0 -1.414062,0 z"
     id="line6" />
</svg>
