<?xml version="1.0" encoding="UTF-8"?>
<svg id="a" version="1.1" viewBox="0 0 48 48" xmlns="http://www.w3.org/2000/svg">
 <defs id="defs1">
  <style id="style1">.b{fill:none;stroke:#000;stroke-width:2px;stroke-linecap:round;stroke-linejoin:round;}</style>
 </defs>
 <path id="rect1" d="m15.213 9.3145a1.0001 1.0001 0 0 0-1 1v21.256a1.0001 1.0001 0 0 0 1 1h17.574a1.0001 1.0001 0 0 0 1-1v-21.256a1.0001 1.0001 0 0 0-1-1zm1 2h15.574v19.256h-15.574z" color="#000000" stroke-linecap="round" stroke-linejoin="round" style="-inkscape-stroke:none"/>
 <path id="line1" d="m15.213 26.492a1 1 0 0 0-1 1 1 1 0 0 0 1 1h17.574a1 1 0 0 0 1-1 1 1 0 0 0-1-1z" color="#000000" stroke-linecap="round" stroke-linejoin="round" style="-inkscape-stroke:none"/>
 <path id="polyline1" d="m14.83 12.691-10.711 4.4121a1.0001 1.0001 0 0 0-0.54297 1.3066l8.0859 19.654a1.0001 1.0001 0 0 0 1.3066 0.54492l11.412-4.7012a1 1 0 0 0 0.54297-1.3047 1 1 0 0 0-1.3047-0.54492l-10.488 4.3203-7.3262-17.807 9.7871-4.0312a1 1 0 0 0 0.54297-1.3066 1 1 0 0 0-1.3047-0.54297z" color="#000000" stroke-linecap="round" stroke-linejoin="round" style="-inkscape-stroke:none"/>
 <path id="line2" d="m16.338 30.648-5.6797 2.3359a1 1 0 0 0-0.54492 1.3047 1 1 0 0 0 1.3047 0.54492l5.6797-2.3359a1 1 0 0 0 0.54492-1.3047 1 1 0 0 0-1.3047-0.54492z" color="#000000" stroke-linecap="round" stroke-linejoin="round" style="-inkscape-stroke:none"/>
 <path id="polyline2" d="m33.17 12.691a1 1 0 0 0-1.3047 0.54297 1 1 0 0 0 0.54297 1.3066l9.7871 4.0312-7.3262 17.807-10.488-4.3203-3.4277-1.4102a1 1 0 0 0-1.3066 0.54492 1 1 0 0 0 0.54492 1.3047l3.4277 1.4102 11.412 4.7012a1.0001 1.0001 0 0 0 1.3066-0.54492l8.0859-19.654a1.0001 1.0001 0 0 0-0.54297-1.3066z" color="#000000" stroke-linecap="round" stroke-linejoin="round" style="-inkscape-stroke:none"/>
 <path id="line3" d="m31.662 30.648a1 1 0 0 0-1.3047 0.54492 1 1 0 0 0 0.54492 1.3047l5.6797 2.3359a1 1 0 0 0 1.3047-0.54492 1 1 0 0 0-0.54492-1.3047z" color="#000000" stroke-linecap="round" stroke-linejoin="round" style="-inkscape-stroke:none"/>
</svg>
