<?xml version="1.0" encoding="UTF-8"?>
<svg id="a" version="1.1" viewBox="0 0 48 48" xmlns="http://www.w3.org/2000/svg">
 <defs id="defs1">
  <style id="style1">.b{fill:none;stroke:#000;stroke-width:2px;stroke-linecap:round;stroke-linejoin:round;}</style>
 </defs>
 <path id="circle1" d="m24 1.5c-12.415 0-22.5 10.085-22.5 22.5s10.085 22.5 22.5 22.5 22.5-10.085 22.5-22.5-10.085-22.5-22.5-22.5zm0 2c11.334 0 20.5 9.1663 20.5 20.5s-9.1663 20.5-20.5 20.5-20.5-9.1663-20.5-20.5 9.1663-20.5 20.5-20.5z" color="#000000" stroke-linecap="round" stroke-linejoin="round" style="-inkscape-stroke:none"/>
 <path id="path1" d="m24 31.449c-6.3255 0-12.058 2.6175-16.139 6.8242a1 1 0 0 0 0.021484 1.4141 1 1 0 0 0 1.4141-0.021484c3.7189-3.8333 8.9286-6.2168 14.703-6.2168s10.984 2.3835 14.703 6.2168a1 1 0 0 0 1.4141 0.02148 1 1 0 0 0 0.02148-1.4141c-4.0811-4.2067-9.8132-6.8242-16.139-6.8242z" color="#000000" stroke-linecap="round" stroke-linejoin="round" style="-inkscape-stroke:none"/>
 <path id="path2" d="m24 33.74c-5.6971 0-10.907 2.115-14.873 5.6309a1 1 0 0 0-0.085937 1.4121 1 1 0 0 0 1.4121 0.08594c3.6141-3.2041 8.344-5.1289 13.547-5.1289s9.9327 1.9248 13.547 5.1289a1 1 0 0 0 1.4121-0.08594 1 1 0 0 0-0.08594-1.4121c-3.9658-3.5159-9.176-5.6309-14.873-5.6309z" color="#000000" stroke-linecap="round" stroke-linejoin="round" style="-inkscape-stroke:none"/>
 <path id="line2" d="m28.178 26.945a1 1 0 0 0-1 1v1.5371a1 1 0 0 0 1 1 1 1 0 0 0 1-1v-1.5371a1 1 0 0 0-1-1z" color="#000000" stroke-linecap="round" stroke-linejoin="round" style="-inkscape-stroke:none"/>
 <path id="line3" d="m27.41 27.715a1 1 0 0 0-1 1 1 1 0 0 0 1 1h1.5371a1 1 0 0 0 1-1 1 1 0 0 0-1-1z" color="#000000" stroke-linecap="round" stroke-linejoin="round" style="-inkscape-stroke:none"/>
 <path id="line4" d="m19.822 26.945a1 1 0 0 0-1 1v1.5371a1 1 0 0 0 1 1 1 1 0 0 0 1-1v-1.5371a1 1 0 0 0-1-1z" color="#000000" stroke-linecap="round" stroke-linejoin="round" style="-inkscape-stroke:none"/>
 <path id="line5" d="m19.053 27.715a1 1 0 0 0-1 1 1 1 0 0 0 1 1h1.5371a1 1 0 0 0 1-1 1 1 0 0 0-1-1z" color="#000000" stroke-linecap="round" stroke-linejoin="round" style="-inkscape-stroke:none"/>
 <path id="line6" d="m30.178 18.268a1 1 0 0 0-1 1v1.5371a1 1 0 0 0 1 1 1 1 0 0 0 1-1v-1.5371a1 1 0 0 0-1-1z" color="#000000" stroke-linecap="round" stroke-linejoin="round" style="-inkscape-stroke:none"/>
 <path id="line7" d="m29.41 19.035a1 1 0 0 0-1 1 1 1 0 0 0 1 1h1.5371a1 1 0 0 0 1-1 1 1 0 0 0-1-1z" color="#000000" stroke-linecap="round" stroke-linejoin="round" style="-inkscape-stroke:none"/>
 <path id="line8" d="m17.822 18.268a1 1 0 0 0-1 1v1.5371a1 1 0 0 0 1 1 1 1 0 0 0 1-1v-1.5371a1 1 0 0 0-1-1z" color="#000000" stroke-linecap="round" stroke-linejoin="round" style="-inkscape-stroke:none"/>
 <path id="line9" d="m17.053 19.035a1 1 0 0 0-1 1 1 1 0 0 0 1 1h1.5371a1 1 0 0 0 1-1 1 1 0 0 0-1-1z" color="#000000" stroke-linecap="round" stroke-linejoin="round" style="-inkscape-stroke:none"/>
 <path id="path9" d="m31.422 2.7617a1 1 0 0 0-1.1895 0.76562c-1.743 8.046 1.636 13.313 5.3262 17.332 1.8451 2.0098 3.7637 3.7598 5.1953 5.4707 1.4316 1.7109 2.3465 3.3266 2.4316 5.1367a1 1 0 0 0 1.0469 0.95117 1 1 0 0 0 0.95117-1.0449c-0.11419-2.4271-1.3359-4.4631-2.8965-6.3281-1.5606-1.865-3.4894-3.6149-5.2559-5.5391-3.533-3.8483-6.4404-8.1843-4.8438-15.555a1 1 0 0 0-0.76562-1.1895z" color="#000000" stroke-linecap="round" stroke-linejoin="round" style="-inkscape-stroke:none"/>
 <path id="path10" d="m37.803 6.2969a1 1 0 0 0-1.2773 0.60742c-1.5717 4.4079 0.49264 8.3565 2.8418 11.432 1.1746 1.5376 2.4374 2.9031 3.418 4.0684 0.98054 1.1653 1.627 2.1857 1.7148 2.6426a1 1 0 0 0 1.1719 0.79297 1 1 0 0 0 0.79297-1.1719c-0.24523-1.2759-1.1208-2.3315-2.1484-3.5527-1.0276-1.2212-2.2591-2.5538-3.3594-3.9941-2.2006-2.8807-3.8107-6.006-2.5488-9.5449a1 1 0 0 0-0.60547-1.2793z" color="#000000" stroke-linecap="round" stroke-linejoin="round" style="-inkscape-stroke:none"/>
 <path id="path11" d="m24 19.916a1.0001 1.0001 0 0 0-0.90625 0.57812l-0.43945 0.94141c-0.07064 0.15154-0.19221 0.27311-0.34375 0.34375l-0.93945 0.4375a1.0001 1.0001 0 0 0 0 1.8125l0.93945 0.43945c0.15154 0.07064 0.27311 0.19221 0.34375 0.34375l0.43945 0.94141a1.0001 1.0001 0 0 0 1.8125 0l0.43945-0.94141c0.07043-0.15111 0.19086-0.27303 0.3418-0.34375l0.94141-0.43945a1.0001 1.0001 0 0 0 0-1.8125l-0.93945-0.4375-2e-3 -2e-3c-0.15034-0.07081-0.27156-0.19112-0.3418-0.3418l-0.43941-0.94136a1.0001 1.0001 0 0 0-0.90625-0.57812zm0 2.8301c0.11434 0.13987 0.23714 0.26254 0.37695 0.37695-0.13995 0.11445-0.26251 0.237-0.37695 0.37695-0.11445-0.13995-0.237-0.26251-0.37695-0.37695 0.13981-0.11441 0.26262-0.23708 0.37695-0.37695z" color="#000000" stroke-linecap="round" stroke-linejoin="round" style="-inkscape-stroke:none"/>
 <path id="path12" d="m24 8.7305a1.0001 1.0001 0 0 0-0.95508 0.70508l-0.06836 0.21875c-0.2995 0.96902-1.0564 1.7259-2.0254 2.0254l-0.21875 0.06641a1.0001 1.0001 0 0 0 0 1.9121l0.21875 0.06641c0.96902 0.2995 1.7259 1.0564 2.0254 2.0254l0.06836 0.21875a1.0001 1.0001 0 0 0 1.9102 0l0.068359-0.21876c0.2995-0.96902 1.0564-1.7259 2.0254-2.0254l0.21875-0.06641a1.0001 1.0001 0 0 0 0-1.9121l-0.21875-0.06641c-0.96902-0.2995-1.7259-1.0564-2.0254-2.0254l-0.06836-0.21875a1.0001 1.0001 0 0 0-0.95508-0.70508zm0 2.9863c0.288 0.38385 0.60059 0.69824 0.98438 0.98633-0.38345 0.28796-0.69658 0.60079-0.98438 0.98438-0.2878-0.38358-0.60092-0.69641-0.98438-0.98438 0.38378-0.28809 0.69637-0.60248 0.98438-0.98633z" color="#000000" stroke-linecap="round" stroke-linejoin="round" style="-inkscape-stroke:none"/>
 <path id="path13" d="m16.578 2.7617a1 1 0 0 0-0.76562 1.1895c1.5967 7.3703-1.3108 11.706-4.8438 15.555-1.7665 1.9241-3.6953 3.674-5.2559 5.5391s-2.7823 3.901-2.8965 6.3281a1 1 0 0 0 0.95117 1.0449 1 1 0 0 0 1.0469-0.95117c0.085161-1.8101 1-3.4259 2.4316-5.1367 1.4316-1.7109 3.3502-3.4609 5.1953-5.4707 3.6902-4.0195 7.0692-9.286 5.3262-17.332a1 1 0 0 0-1.1895-0.76562z" color="#000000" stroke-linecap="round" stroke-linejoin="round" style="-inkscape-stroke:none"/>
 <path id="path14" d="m10.197 6.2969a1 1 0 0 0-0.60547 1.2793c1.2619 3.5389-0.34821 6.6642-2.5488 9.5449-1.1003 1.4403-2.3318 2.7729-3.3594 3.9941-1.0276 1.2212-1.9032 2.2769-2.1484 3.5527a1 1 0 0 0 0.79297 1.1719 1 1 0 0 0 1.1719-0.79297c0.087822-0.45692 0.7343-1.4773 1.7148-2.6426 0.98054-1.1653 2.2434-2.5308 3.418-4.0684 2.3492-3.0751 4.4135-7.0237 2.8418-11.432a1 1 0 0 0-1.2773-0.60742z" color="#000000" stroke-linecap="round" stroke-linejoin="round" style="-inkscape-stroke:none"/>
 <path id="path15" d="m35.693 25.979a1.0001 1.0001 0 0 0-0.90625 0.57812l-0.3457 0.74023c-0.0341 0.07319-0.09282 0.13191-0.16602 0.16602l-0.73828 0.34375a1.0001 1.0001 0 0 0 0 1.8125l0.73828 0.3457c0.07319 0.0341 0.13191 0.09087 0.16602 0.16406l0.3457 0.74024a1.0001 1.0001 0 0 0 1.8125 0l0.34375-0.74024c0.0341-0.07319 0.09282-0.12996 0.16602-0.16406l0.74023-0.3457a1.0001 1.0001 0 0 0 0-1.8125l-0.74023-0.34375c-0.07319-0.0341-0.13191-0.09282-0.16602-0.16602l-0.34375-0.74023a1.0001 1.0001 0 0 0-0.90625-0.57812zm0 2.7246 0.0098 0.0098-0.0098 0.0098-0.0098-0.0098c0.0033-0.0033 0.0065-0.0064 0.0098-0.0098z" color="#000000" stroke-linecap="round" stroke-linejoin="round" style="-inkscape-stroke:none"/>
 <path id="path16" d="m12.305 25.979a1.0001 1.0001 0 0 0-0.90625 0.57812l-0.34375 0.74023c-0.0341 0.07319-0.09282 0.13191-0.16602 0.16602l-0.74023 0.34375a1.0001 1.0001 0 0 0 0 1.8125l0.74023 0.3457c0.07319 0.0341 0.13191 0.09087 0.16602 0.16406l0.34375 0.74024a1.0001 1.0001 0 0 0 1.8125 0l0.3457-0.74024c0.0341-0.07319 0.09282-0.12996 0.16602-0.16406l0.73828-0.3457a1.0001 1.0001 0 0 0 0-1.8125l-0.73828-0.34375c-0.07319-0.0341-0.13191-0.09282-0.16602-0.16602l-0.3457-0.74023a1.0001 1.0001 0 0 0-0.90625-0.57812zm0 2.7246c0.0033 0.0033 0.0064 0.0065 0.0098 0.0098-0.0033 0.0033-0.0065 0.0064-0.0098 0.0098l-0.0098-0.0098 0.0098-0.0098z" color="#000000" stroke-linecap="round" stroke-linejoin="round" style="-inkscape-stroke:none"/>
 <path id="path17" d="m20.141 35.68c-4.0914 1e-6 -7.8562 1.4241-10.816 3.8008a1 1 0 0 0-0.1543 1.4062 1 1 0 0 0 1.4063 0.15234c2.6198-2.1034 5.9359-3.3594 9.5645-3.3594 5.0847 0 9.5829 2.4782 12.361 6.2891a1 1 0 0 0 1.3965 0.21875 1 1 0 0 0 0.21875-1.3965c-3.1416-4.3091-8.2412-7.1113-13.977-7.1113z" color="#000000" stroke-linecap="round" stroke-linejoin="round" style="-inkscape-stroke:none"/>
</svg>
