<?xml version="1.0" encoding="UTF-8"?>
<svg id="svg4" version="1.1" viewBox="0 0 48 48" xmlns="http://www.w3.org/2000/svg">
 <defs id="defs1">
  <style id="style1">.a{fill:none;stroke:#000;stroke-width:2px;stroke-linecap:round;stroke-linejoin:round;}</style>
 </defs>
 <path id="rect1" transform="translate(-9.95 23.98) rotate(-45)" d="m9.4805 8.5a1.0001 1.0001 0 0 0-1 1v28.99a1.0001 1.0001 0 0 0 1 1h28.99a1.0001 1.0001 0 0 0 1-1v-28.99a1.0001 1.0001 0 0 0-1-1zm1 2h26.99v26.99h-26.99z" stroke-linecap="round" stroke-linejoin="round"/>
 <path id="rect2" transform="translate(-10.62 25.65) rotate(-45)" d="m15.859 22.301a1.0001 1.0001 0 0 0-1 1v4.6992a1.0001 1.0001 0 0 0 1 1h19.59a1.0001 1.0001 0 0 0 1-1v-4.6992a1.0001 1.0001 0 0 0-1-1zm1 2h17.59v2.6992h-17.59z" stroke-linecap="round" stroke-linejoin="round"/>
 <path id="rect3" transform="translate(-11.25 17.72) rotate(-45)" d="m13.34 19.02a1.0001 1.0001 0 0 0-1 1v4.8496a1.0001 1.0001 0 0 0 1 1h4.8496a1.0001 1.0001 0 0 0 1-1v-4.8496a1.0001 1.0001 0 0 0-1-1zm1 2h2.8496v2.8496h-2.8496z" stroke-linecap="round" stroke-linejoin="round"/>
 <path id="rect4" transform="translate(-4.57 20.49) rotate(-45)" d="m20.029 12.34a1.0001 1.0001 0 0 0-1 1v4.8496a1.0001 1.0001 0 0 0 1 1h4.8516a1.0001 1.0001 0 0 0 1-1v-4.8496a1.0001 1.0001 0 0 0-1-1zm1 2h2.8516v2.8496h-2.8516z" stroke-linecap="round" stroke-linejoin="round"/>
</svg>
