<?xml version="1.0" encoding="UTF-8"?>
<svg id="svg27" version="1.1" viewBox="0 0 48 48" xmlns="http://www.w3.org/2000/svg">
 <defs id="defs1">
  <style id="style1">.a{fill:none;stroke:#000;stroke-width:2px;stroke-linecap:round;stroke-linejoin:round;}</style>
 </defs>
 <path id="path1" d="m26.451 7.4102a1.0001 1.0001 0 0 0-0.01758 0.00195c-3.9255 0.1154-7.4153 1.2227-9.7988 3.5039-2.3835 2.2812-3.5302 5.7276-2.8711 10.035a1 1 0 0 0 1.1406 0.83789 1 1 0 0 0 0.83594-1.1406c-0.58562-3.8275 0.37115-6.4647 2.2773-8.2891 1.905-1.8232 4.8897-2.8409 8.4688-2.9473 4.1549-0.043681 8.0986 1.8113 10.715 5.0391 2.2427 2.9837 2.4657 7.9882 1.8398 11.699a1 1 0 0 0 0.82031 1.1523 1 1 0 0 0 1.1523-0.82031c0.68388-4.0553 0.6041-9.5007-2.2227-13.248a1.0001 1.0001 0 0 0-0.01953-0.02539c-3.0024-3.7151-7.5439-5.8532-12.32-5.7988z" stroke-linecap="round" stroke-linejoin="round"/>
 <path id="path2" d="m14.898 19.811a1 1 0 0 0-0.74219 0.18555s-1.0158 0.75125-2.0352 1.7891c-1.0194 1.0378-2.2054 2.3012-2.166 3.9668 0.040126 1.6986 0.8967 3.1628 2.0137 4.3379 1.117 1.1751 2.5167 2.1044 3.8555 2.8086a1 1 0 0 0 1.3496-0.41992 1 1 0 0 0-0.41797-1.3496c-1.1994-0.6309-2.4359-1.4711-3.3359-2.418-0.90003-0.94686-1.442-1.9572-1.4668-3.0059-0.0096-0.40804 0.70374-1.6095 1.5957-2.5176 0.89196-0.90808 1.7988-1.584 1.7988-1.584a1 1 0 0 0 0.20703-1.4004 1 1 0 0 0-0.65625-0.39258z" stroke-linecap="round" stroke-linejoin="round"/>
 <path id="circle2" d="m20.992 11.424c-2.7565 0-5.0137 2.2552-5.0137 5.0117s2.2571 5.0137 5.0137 5.0137c2.7565 0 5.0117-2.2571 5.0117-5.0137s-2.2552-5.0117-5.0117-5.0117zm0 2c1.6757 0 3.0117 1.3361 3.0117 3.0117s-1.3361 3.0137-3.0117 3.0137c-1.6757 0-3.0137-1.338-3.0137-3.0137s1.338-3.0117 3.0137-3.0117z" stroke-linecap="round" stroke-linejoin="round"/>
 <path id="path3" d="m12.99 3.5332c-2.0307-0.17791-4.2815 0.3675-5.6328 2.2637-1.424 1.9982-2.3983 4.0619-2.3535 6.334 0.04481 2.272 1.1218 4.6132 3.4004 7.125a1 1 0 0 0 1.4121 0.06836 1 1 0 0 0 0.068359-1.4121c-2.0782-2.2909-2.8478-4.1438-2.8809-5.8203-0.033065-1.6766 0.68572-3.3152 1.9824-5.1348 0.85457-1.1991 2.2501-1.5701 3.8301-1.4316s3.2342 0.87926 4.041 1.5977c0.94165 0.84123 1.6569 1.9028 2.082 3.0918a1 1 0 0 0 1.2793 0.60547 1 1 0 0 0 0.60352-1.2773c-0.53757-1.5033-1.4422-2.8485-2.6328-3.9121a1.0001 1.0001 0 0 0-2e-3 -0.00195c-1.2483-1.1116-3.1665-1.9178-5.1972-2.0957z" stroke-linecap="round" stroke-linejoin="round"/>
 <path id="path4" d="m9.834 17.859a1 1 0 0 0-1.4141 0.03516c0.054093-0.05683-0.23236 0.07004-0.70508 0.39062-0.23636 0.16029-0.53154 0.43459-0.68555 0.83594-0.154 0.40135-0.13721 0.84841-0.023437 1.2637a1.0001 1.0001 0 0 0 0.26758 0.45508l1.4473 1.4023a1.0001 1.0001 0 0 0 0.2793 0.18945c0.45767 0.20903 0.98726 0.2933 1.4629 0.15625 0.47563-0.13706 0.80964-0.44845 1.0371-0.73242 0.38543-0.48116 0.56775-0.90922 0.76953-1.2559 0.99032-0.20208 1.97-0.48007 2.832-1.0137a1 1 0 0 0 0.32422-1.377 1 1 0 0 0-1.377-0.32226c-0.78972 0.48884-1.6731 0.80506-2.5938 0.92773a1.0001 1.0001 0 0 0-0.69141 0.42188c-0.41549 0.60039-0.66746 1.1735-0.82422 1.3691-0.028144 0.03513-0.00148 0.01151-0.011719 0.02148l-0.86133-0.83593c0.17842-0.06928 0.41466-0.10987 0.80273-0.51758a1 1 0 0 0-0.035156-1.4141z" stroke-linecap="round" stroke-linejoin="round"/>
 <path id="path5" d="m40.398 25.387a1 1 0 0 0-0.76562 0.01172 1 1 0 0 0-0.52344 1.3125c0.54948 1.2791 1.1108 2.4598 1.2344 3.459s-0.03518 1.8073-1.1797 2.877a1 1 0 0 0-0.04687 1.4121 1 1 0 0 0 1.4121 0.04883c1.5164-1.4172 1.9829-3.0962 1.7988-4.584s-0.86204-2.7942-1.3809-4.002a1 1 0 0 0-0.54883-0.53516z" stroke-linecap="round" stroke-linejoin="round"/>
 <path id="path6" d="m23.555 22.598c-2.0281-0.14252-4.0743-0.0319-6.0898 0.33789a1.0001 1.0001 0 0 0-0.02734 0.0059c-2.0087 0.42631-4.3091 1.0734-5.3457 2.9199-0.51829 0.92326-0.51183 2.1565 0.09375 3.3066s1.7225 2.3152 3.5059 3.6465a1 1 0 0 0 1.3984-0.20312 1 1 0 0 0-0.20312-1.3984c-1.6472-1.2296-2.552-2.2555-2.9316-2.9766-0.37966-0.72106-0.32051-1.0378-0.11914-1.3965 0.40149-0.7152 2.1996-1.5502 4.002-1.9355 3.6906-0.67508 7.4907-0.41041 11.051 0.77344 4.9522 1.8601 7.7525 3.7745 10.059 8.5352a1 1 0 0 0 1.3359 0.46484 1 1 0 0 0 0.46484-1.3359c-2.5078-5.1771-5.9969-7.6024-11.176-9.545a1.0001 1.0001 0 0 0-0.03516-0.01172c-1.9441-0.64804-3.9543-1.045-5.9824-1.1875z" stroke-linecap="round" stroke-linejoin="round"/>
 <path id="path7" d="m33.283 25.682a1 1 0 0 0-1.0801 0.91406c-0.22515 2.72-0.94208 5.8182-2.2656 7.1816a1 1 0 0 0 0.02148 1.4141 1 1 0 0 0 1.4141-0.01953c2.0255-2.0865 2.5848-5.5193 2.8242-8.4121a1 1 0 0 0-0.91406-1.0781z" stroke-linecap="round" stroke-linejoin="round"/>
 <path id="path8" d="m35.791 27.301a1 1 0 0 0-1.1758 0.78711c-0.35519 1.7856-1.0976 3.4705-2.1758 4.9375a1 1 0 0 0 0.21289 1.3984 1 1 0 0 0 1.3984-0.21289c1.2516-1.7029 2.115-3.6596 2.5273-5.7324a1 1 0 0 0-0.78711-1.1777z" stroke-linecap="round" stroke-linejoin="round"/>
 <path id="path9" d="m28.369 25.57c-1.69-0.0306-3.3544 0.85052-4.0234 2.4238a1 1 0 0 0 0.0098 0.02539 1 1 0 0 0-0.03711 0.04297c-0.54005 1.586-0.24141 3.3402 0.79297 4.6582a1.0001 1.0001 0 0 0 0.08203 0.0918c0.75744 0.75298 1.8068 1.1363 2.8711 1.0547 1.1026-0.05387 2.1435-0.51787 2.9199-1.3027 0.87621-0.85234 1.3343-2.048 1.2461-3.2676a1.0001 1.0001 0 0 0-0.0098-0.0918c-0.38938-2.3469-2.1615-3.6042-3.8516-3.6348zm-0.03711 2c0.88247 0.01598 1.611 0.35853 1.8906 1.9082 0.03285 0.61953-0.18782 1.2259-0.63476 1.6582a1.0001 1.0001 0 0 0-0.01758 0.01758c-0.42806 0.43553-1.0052 0.69175-1.6152 0.71875a1.0001 1.0001 0 0 0-0.03711 2e-3c-0.47053 0.03841-0.92351-0.14226-1.2676-0.46289-0.56745-0.76646-0.73648-1.7491-0.44336-2.6582 0.27546-0.60437 1.2392-1.1996 2.125-1.1836z" stroke-linecap="round" stroke-linejoin="round"/>
 <path id="path10" d="m20.102 24.598a1 1 0 0 0-0.73438 0.21875 1 1 0 0 0-0.14648 1.4062l2.418 2.9844a1.0001 1.0001 0 0 0 1.4395 0.11914l2.3711-2.0996a1 1 0 0 0 0.08594-1.4121 1 1 0 0 0-1.4121-0.08594l-1.5879 1.4062-1.7617-2.1719a1 1 0 0 0-0.67188-0.36524z" stroke-linecap="round" stroke-linejoin="round"/>
 <path id="path11" d="m17.195 25.994c-0.65224 0.14502-1.2894 0.77303-1.4824 1.5312s-0.13022 1.6419 0.14453 2.8555a1.0001 1.0001 0 0 0 0 0.0039c0.30536 1.3173 1.2039 2.4216 2.4316 2.9883a1.0001 1.0001 0 0 0 0.1582 0.05859c0.73999 0.20085 1.5234 0.08996 2.2012-0.26562 0.47614-0.207 0.88718-0.54367 1.1445-0.99609a1.0001 1.0001 0 0 0 0.04297-0.08594c0.37086-0.82799 0.42752-1.7651 0.15625-2.6309a1.0001 1.0001 0 0 0-0.05078-0.125c-0.39295-0.83568-0.9899-1.5473-1.6523-2.1875a1 1 0 0 0-0.04492-0.0625c-0.07657-0.07251-0.10977-0.18061-0.18945-0.25a1 1 0 0 0-0.05078-0.01758 1 1 0 0 0-0.0625-0.06836c-0.25572-0.16536-0.63275-0.3843-1.0898-0.55859-0.45709-0.17429-1.004-0.33447-1.6562-0.18945zm0.43555 1.9512c0.01132-0.0025 0.24431 0.0069 0.50781 0.10742 0.23267 0.08872 0.46206 0.22082 0.63281 0.32617 0.54589 0.48442 0.98562 1.0733 1.3066 1.7285 0.10203 0.36767 0.08277 0.75451-0.0625 1.1074-0.04414 0.05804-0.09361 0.11337-0.16211 0.14062a1.0001 1.0001 0 0 0-0.11133 0.05273c-0.20528 0.11285-0.44296 0.11829-0.67188 0.08008-0.6243-0.3188-1.1046-0.86851-1.2637-1.5547-0.23492-1.042-0.21579-1.6801-0.15625-1.9141 0.05972-0.23464-0.03085-0.0717-0.01953-0.07422z" stroke-linecap="round" stroke-linejoin="round"/>
 <path id="path12" d="m26.158 26.834a1 1 0 0 0-1.3535 0.41602 1 1 0 0 0 0.41406 1.3516c0.52231 0.27724 0.88378 0.76931 1.0449 1.3359-0.15634-0.10103-0.33028-0.21865-0.45898-0.34375a1 1 0 0 0-1.4141 0.02148 1 1 0 0 0 0.01953 1.4141c0.27459 0.2669 0.63088 0.5657 1.0859 0.79688 0.45506 0.23117 1.1102 0.44371 1.7988 0.12109 0.583-0.27313 0.82832-0.81397 0.92578-1.2227 0.09746-0.40868 0.08986-0.77369 0.04883-1.0977a1.0001 1.0001 0 0 0-0.02148-0.11523c-0.28469-1.1486-1.0446-2.1229-2.0898-2.6777z" stroke-linecap="round" stroke-linejoin="round"/>
 <path id="path13" d="m18.23 26.023a1 1 0 0 0-1.0195 0.98047c-9e-3 0.46463-0.06326 1.0211-0.03516 1.6094 0.02808 0.58768 0.13646 1.2849 0.67188 1.8496 0.60291 0.63618 1.5563 0.8161 2.3496 0.44336a1.0001 1.0001 0 0 0 0.13867-0.08008c0.68014-0.4663 0.72597-1.1275 0.75586-1.5742 0.02989-0.44673-0.0051-0.86333-0.0039-0.9375a1 1 0 0 0-0.98438-1.0156 1 1 0 0 0-0.91797 0.75781c0.0078-0.31798 0.01785-0.62572 0.02539-1.0137a1 1 0 0 0-0.98047-1.0195z" stroke-linecap="round" stroke-linejoin="round"/>
 <path id="path14" d="m14.973 39.84-8.3867 2.4844a1 1 0 0 0-0.67383 1.2441 1 1 0 0 0 1.2422 0.67383l8.3848-2.4844a1 1 0 0 0 0.67578-1.2422 1 1 0 0 0-1.2422-0.67578z" stroke-linecap="round" stroke-linejoin="round"/>
 <path id="path15" d="m9.8926 36.207-4.418 1.2871a1 1 0 0 0-0.67969 1.2402 1 1 0 0 0 1.2383 0.67969l4.418-1.2871a1 1 0 0 0 0.68164-1.2383 1 1 0 0 0-1.2402-0.68164z" stroke-linecap="round" stroke-linejoin="round"/>
 <path id="path16" d="m9.9668 36.189a1 1 0 0 0-0.77344 1.1836 1 1 0 0 0 1.1836 0.77344c0.74848-0.15651 1.885 0.3083 2.75 1.0352 0.43249 0.36342 0.78869 0.77555 0.98438 1.0879 0.19568 0.31234 0.08623 0.51557 0.20312 0.19141a1.0001 1.0001 0 0 0 1.0547 1.332c0.67984-0.07727 1.2562 0.21637 1.7461 0.67578 0.48986 0.45941 0.81057 1.1672 0.82031 1.2168a1 1 0 0 0 1.1738 0.78906 1 1 0 0 0 0.78906-1.1738c-0.15746-0.80246-0.63425-1.5578-1.416-2.291-0.56761-0.53232-1.3889-0.8957-2.3008-1.0566-0.09705-0.26241-0.22789-0.50933-0.375-0.74414-0.33988-0.54249-0.81633-1.0744-1.3926-1.5586-1.1525-0.96845-2.7386-1.8182-4.4473-1.4609z" stroke-linecap="round" stroke-linejoin="round"/>
 <path id="path17" d="m10.594 34.486c-1.8886 0.0062-3.7926 0.59316-5.4824 2.0254a1 1 0 0 0-0.11523 1.4102 1 1 0 0 0 1.4082 0.11523c2.6781-2.2699 5.8233-1.8638 8.627-0.33789 2.8037 1.526 5.0081 4.3315 5.3164 5.9824a1 1 0 0 0 1.166 0.80078 1 1 0 0 0 0.80078-1.168c-0.50828-2.7216-3.0624-5.5947-6.3262-7.3711-1.6319-0.88818-3.5059-1.4632-5.3945-1.457z" stroke-linecap="round" stroke-linejoin="round"/>
 <path id="path18" d="m14.867 23.938a1 1 0 0 0-0.97852 1.0215c0.09092 4.2854 1.1803 7.7263 3.7324 9.8398 2.5521 2.1136 6.3566 2.7266 11.449 1.8691a1 1 0 0 0 0.82031-1.1523 1 1 0 0 0-1.1523-0.82031c-4.7807 0.80489-7.8977 0.1745-9.8418-1.4355-1.9441-1.61-2.9255-4.3714-3.0098-8.3438a1 1 0 0 0-1.0195-0.97852z" stroke-linecap="round" stroke-linejoin="round"/>
 <path id="path19" d="m38.609 30.246a1 1 0 0 0-1.3672 0.35938c-0.56296 0.96696-1.7385 1.3572-2.7676 0.91797a1 1 0 0 0-1.3125 0.52734 1 1 0 0 0 0.52734 1.3125c1.9426 0.82916 4.2186 0.07532 5.2812-1.75a1 1 0 0 0-0.36133-1.3672z" stroke-linecap="round" stroke-linejoin="round"/>
 <path id="path20" d="m14.471 32.98c-2.7252 0.06177-5.8471 1.0538-9.2871 3.4766a1 1 0 0 0-0.24219 1.3945 1 1 0 0 0 1.3926 0.24024c6.3958-4.5045 10.745-3.5757 13.893-1.3711 3.1476 2.2046 5.0013 6.0528 5.3281 7.0762a1 1 0 0 0 1.2578 0.64844 1 1 0 0 0 0.64844-1.2559c-0.50385-1.5776-2.3875-5.5136-6.0879-8.1055-1.8502-1.2959-4.1771-2.1653-6.9023-2.1035z" stroke-linecap="round" stroke-linejoin="round"/>
 <path id="path21" d="m25.734 32.713a1 1 0 0 0-0.67578 0.35938c-0.3531 0.42751-0.9101 0.61921-1.4512 0.49805a1 1 0 0 0-1.1953 0.75586 1 1 0 0 0 0.75781 1.1953c1.2718 0.2848 2.6017-0.17091 3.4316-1.1758a1 1 0 0 0-0.13476-1.4082 1 1 0 0 0-0.73242-0.22461z" stroke-linecap="round" stroke-linejoin="round"/>
 <path id="path22" d="m32.938 32.668a1 1 0 0 0-0.58203 0.49609 1 1 0 0 0 0.43555 1.3457c0.90003 0.45928 1.6768 1.1287 2.2637 1.9512a1.0001 1.0001 0 0 0 1.3848 0.23828c1.1688-0.81384 2.4327-1.4812 3.7637-1.9883a1 1 0 0 0 0.57812-1.291 1 1 0 0 0-1.291-0.57812c-1.2407 0.47266-2.39 1.1398-3.5078 1.8535-0.67787-0.75383-1.3755-1.5036-2.2832-1.9668a1 1 0 0 0-0.76172-0.060547z" stroke-linecap="round" stroke-linejoin="round"/>
 <path id="path23" d="m30.84 33.482c-0.80535 0.01405-1.6087 0.19419-2.3555 0.53906a1.0001 1.0001 0 0 0-0.58008 0.9082v1.5703a1 1 0 0 0 1 1 1 1 0 0 0 1-1v-0.79492c0.83658-0.23725 1.7203-0.26338 2.5332 0.07813a1 1 0 0 0 1.3086-0.53516 1 1 0 0 0-0.53516-1.3086c-0.75837-0.31861-1.5657-0.47108-2.3711-0.45703z" stroke-linecap="round" stroke-linejoin="round"/>
 <path id="path24" d="m33.092 32.631c-0.91331 0.1428-1.2963 0.76843-1.2754 0.75391a1.0001 1.0001 0 0 0-0.15039 1.5156c0.26656 0.27691 0.38579 0.65998 0.32226 1.0391a1 1 0 0 0 0.82031 1.1523 1 1 0 0 0 1.1523-0.82227c0.10303-0.61484-0.031688-1.2105-0.27148-1.7695a1 1 0 0 0 0.54297-1.0371 1 1 0 0 0-1.1406-0.83203z" stroke-linecap="round" stroke-linejoin="round"/>
 <path id="path25" d="m40.236 32.855a1 1 0 0 0-1.3086 0.53125 1 1 0 0 0 0.53125 1.3105c1.2542 0.52994 1.9712 1.5508 1.75 2.8828-0.21693 1.3062-1.5669 3.1594-5.0312 4.9121h-3.3652a1.0001 1.0001 0 0 0-0.05469 2e-3c-1.1191 0.06203-1.608-0.29961-2.082-0.9707-0.47406-0.67109-0.79229-1.7128-1.0215-2.7227a1.0001 1.0001 0 0 0-0.33203-0.54492c-0.21679-0.1816-0.1162-0.09511-0.07813-0.0039 0.03808 0.0912-0.02159-0.09847-0.04102-0.60352 0.0035-0.10792 1.3e-5 -0.10501 0-0.18945 0.0056-0.0013 6e-3 -0.0026 0.01172-0.0039 0.29737-0.06704 0.73309-0.13322 1.1992-0.18555 0.93226-0.10464 2.0121-0.16084 2.5664-0.16406a1 1 0 0 0 0.99414-1.0059 1 1 0 0 0-1.0059-0.99414c-0.66505 0.0039-1.7579 0.06135-2.7773 0.17578-0.50972 0.05721-0.99512 0.12777-1.416 0.22266-0.21045 0.04744-0.40453 0.09928-0.59961 0.17578-0.19508 0.0765-0.40813 0.13128-0.66992 0.4668a1.0001 1.0001 0 0 0-0.03516 0.04883c-0.02461 0.03591-0.03586 0.02104-0.13477 0.20508-0.09891 0.18404-0.13514 0.52455-0.13086 0.60742 0.0086 0.16575 0.02163 0.1897 0 0.63086a1.0001 1.0001 0 0 0 0 0.08789c0.02118 0.55066 0.01873 0.87667 0.19336 1.2949 0.11327 0.27129 0.26614 0.36443 0.41406 0.49805 0.24004 1.02 0.52646 2.1643 1.2285 3.1582 0.76367 1.0811 2.1058 1.908 3.8281 1.8125l-0.05664 2e-3h3.6582a1.0001 1.0001 0 0 0 0.44141-0.10156c3.9472-1.9438 5.8948-4.2257 6.2695-6.4824 0.37478-2.2567-1.0033-4.2322-2.9453-5.0527z" stroke-linecap="round" stroke-linejoin="round"/>
 <path id="path26" d="m30.861 38-2.1934 0.02148a1 1 0 0 0-0.99024 1.0117 1 1 0 0 0 1.0098 0.98828l2.1934-0.02148a1 1 0 0 0 0.99024-1.0098 1 1 0 0 0-1.0098-0.99023z" stroke-linecap="round" stroke-linejoin="round"/>
 <path id="path27" d="m29.379 40.148a1 1 0 0 0-1.0469 0.94922 1 1 0 0 0 0.94922 1.0488l1.8359 0.08984a1 1 0 0 0 1.0469-0.95117 1 1 0 0 0-0.94922-1.0469z" stroke-linecap="round" stroke-linejoin="round"/>
</svg>
