<?xml version="1.0" encoding="UTF-8" standalone="no"?>
<svg
   viewBox="0 0 48 48"
   version="1.1"
   id="svg8"
   sodipodi:docname="steam_icon_1740930.svg"
   xmlns:inkscape="http://www.inkscape.org/namespaces/inkscape"
   xmlns:sodipodi="http://sodipodi.sourceforge.net/DTD/sodipodi-0.dtd"
   xmlns="http://www.w3.org/2000/svg"
   xmlns:svg="http://www.w3.org/2000/svg">
  <sodipodi:namedview
     id="namedview8"
     pagecolor="#ffffff"
     bordercolor="#666666"
     borderopacity="1.0"
     inkscape:showpageshadow="2"
     inkscape:pageopacity="0.0"
     inkscape:pagecheckerboard="0"
     inkscape:deskcolor="#d1d1d1" />
  <defs
     id="defs1">
    <style
       id="style1">.a{fill:none;stroke:#000;stroke-width:2px;stroke-linecap:round;stroke-linejoin:round;}</style>
  </defs>
  <path
     style="color:#000000;fill:#000000;stroke-linecap:round;stroke-linejoin:round;-inkscape-stroke:none"
     d="m 11.849609,22.574219 a 1.0001,1.0001 0 0 0 -1,1 v 6.958984 a 1.0001,1.0001 0 0 0 1,1 h 13.597657 a 1.0001,1.0001 0 0 0 1,-1 v -6.958984 a 1.0001,1.0001 0 0 0 -1,-1 z m 1,2 h 11.597657 v 4.958984 H 12.849609 Z"
     id="rect1" />
  <path
     style="color:#000000;fill:#000000;stroke-linecap:round;stroke-linejoin:round;-inkscape-stroke:none"
     d="m 4.5,22.574219 a 1.0001,1.0001 0 0 0 -1,1 v 5.30664 a 1.0001,1.0001 0 0 0 0.052734,0.322266 l 0.5644531,1.654297 a 1.0001,1.0001 0 0 0 0.9472656,0.675781 h 0.6679688 a 1,1 0 0 0 1,-1 1,1 0 0 0 -1,-1 h 0.046875 L 5.5,28.714844 v -4.140625 h 5.349609 v 5.033203 a 1,1 0 0 0 -0.820312,0.925781 1,1 0 0 0 1,1 h 0.820312 a 1.0001,1.0001 0 0 0 1,-1 v -6.958984 a 1.0001,1.0001 0 0 0 -1,-1 z"
     id="polyline1" />
  <path
     style="color:#000000;fill:#000000;stroke-linecap:round;stroke-linejoin:round;-inkscape-stroke:none"
     d="m 25.447266,22.574219 a 1.0001,1.0001 0 0 0 -1,1 v 6.958984 a 1.0001,1.0001 0 0 0 1,1 h 1.130859 a 1,1 0 0 0 1,-1 1,1 0 0 0 -1,-1 h -0.130859 v -4.888672 c 3.471131,0.09621 6.151899,0.569565 7.863281,1.087891 1.565835,0.474244 1.988742,0.766359 2.222656,0.902344 v 2.279296 l -3.046875,0.619141 h -1.613281 a 1,1 0 0 0 -1,1 1,1 0 0 0 1,1 h 1.714844 a 1.0001,1.0001 0 0 0 0.199218,-0.01953 l 3.945313,-0.802735 a 1.0001,1.0001 0 0 0 0.800781,-0.980468 v -3.751953 a 1.0001,1.0001 0 0 0 -0.464844,-0.845704 c 0,0 -1.10087,-0.685433 -3.177734,-1.314453 -2.076864,-0.629019 -5.198185,-1.24414 -9.443359,-1.24414 z"
     id="path1" />
  <path
     style="color:#000000;fill:#000000;stroke-linecap:round;stroke-linejoin:round;-inkscape-stroke:none"
     d="m 13.121094,16.248047 a 1.0001,1.0001 0 0 0 -0.980469,0.804687 l -1.271484,6.324219 a 1.0001,1.0001 0 0 0 0.980468,1.197266 h 13.597657 a 1.0001,1.0001 0 0 0 0.759765,-1.650391 l -0.867187,-1.015625 -4.541016,-5.308594 a 1.0001,1.0001 0 0 0 -0.759766,-0.351562 z m 0.818359,2 h 5.638672 l 3.697266,4.326172 H 13.070313 Z"
     id="polygon1" />
  <path
     style="color:#000000;fill:#000000;stroke-linecap:round;stroke-linejoin:round;-inkscape-stroke:none"
     d="m 31.414062,20.033203 a 1,1 0 0 0 -1,1 1,1 0 0 0 1,1 c 4.051967,0 6.973388,0.585223 8.865235,1.158203 1.564186,0.473742 1.985801,0.763915 2.220703,0.900391 v 3.097656 a 1,1 0 0 0 1,1 1,1 0 0 0 1,-1 v -3.753906 a 1.0001,1.0001 0 0 0 -0.464844,-0.84375 c 0,0 -1.10086,-0.685434 -3.177734,-1.314453 -2.076874,-0.629019 -5.198234,-1.244141 -9.44336,-1.244141 z"
     id="path2" />
  <path
     style="color:#000000;fill:#000000;stroke-linecap:round;stroke-linejoin:round;-inkscape-stroke:none"
     d="m 19.087891,13.707031 a 1,1 0 0 0 -1,1 1,1 0 0 0 1,1 h 6.458984 l 4.238281,4.960938 a 1.0001,1.0001 0 0 0 0.002,0 l 0.867188,1.013672 a 1,1 0 0 0 1.410156,0.109375 1,1 0 0 0 0.109375,-1.410157 l -0.867187,-1.013672 -4.539063,-5.308593 a 1.0001,1.0001 0 0 0 -0.759766,-0.351563 z"
     id="polyline2" />
  <path
     style="color:#000000;fill:#000000;stroke-linecap:round;stroke-linejoin:round;-inkscape-stroke:none"
     d="m 13.425781,16.296875 a 1,1 0 0 0 -0.761718,0.0625 L 4.0429687,20.794922 A 1.0001,1.0001 0 0 0 3.5,21.685547 v 1.888672 a 1,1 0 0 0 1,1 1,1 0 0 0 1,-1 v -1.279297 l 8.078125,-4.15625 a 1,1 0 0 0 0.431641,-1.347656 1,1 0 0 0 -0.583985,-0.494141 z"
     id="polyline3" />
  <path
     style="color:#000000;fill:#000000;stroke-linecap:round;stroke-linejoin:round;-inkscape-stroke:none"
     d="m 8.3808594,26.992187 c -2.0038823,0 -3.6503906,1.646509 -3.6503907,3.650391 0,2.003882 1.6465084,3.650391 3.6503907,3.650391 2.0038826,0 3.6503906,-1.646509 3.6503906,-3.650391 0,-2.003882 -1.646508,-3.65039 -3.6503906,-3.650391 z m 0,2 c 0.9230031,0 1.6503906,0.727388 1.6503906,1.650391 0,0.923003 -0.7273875,1.650391 -1.6503906,1.650391 -0.9230032,0 -1.6503907,-0.727388 -1.6503907,-1.650391 0,-0.923003 0.7273875,-1.65039 1.6503907,-1.650391 z"
     id="circle3" />
  <path
     style="color:#000000;fill:#000000;stroke-linecap:round;stroke-linejoin:round;-inkscape-stroke:none"
     d="m 29.226562,26.992187 c -2.003882,0 -3.65039,1.646509 -3.65039,3.650391 0,2.003882 1.646508,3.650391 3.65039,3.650391 2.003883,0 3.648438,-1.646509 3.648438,-3.650391 0,-2.003882 -1.644555,-3.650391 -3.648438,-3.650391 z m 0,2 c 0.923004,0 1.648438,0.727388 1.648438,1.650391 0,0.923003 -0.725434,1.650391 -1.648438,1.650391 -0.923003,0 -1.65039,-0.727388 -1.65039,-1.650391 0,-0.923003 0.727387,-1.65039 1.65039,-1.650391 z"
     id="circle4" />
  <path
     style="color:#000000;fill:#000000;stroke-linecap:round;stroke-linejoin:round;-inkscape-stroke:none"
     d="m 26.380859,13.779297 a 1,1 0 0 0 -0.765625,0.0078 l -5.96875,2.542969 a 1,1 0 0 0 -0.527343,1.310547 1,1 0 0 0 1.3125,0.529297 l 5.966796,-2.542969 a 1,1 0 0 0 0.527344,-1.310547 1,1 0 0 0 -0.544922,-0.537109 z"
     id="line4" />
  <path
     style="color:#000000;fill:#000000;stroke-linecap:round;stroke-linejoin:round;-inkscape-stroke:none"
     d="m 19.460937,13.779297 a 1,1 0 0 0 -0.763671,0.0078 l -5.96875,2.542969 a 1,1 0 0 0 -0.527344,1.310547 1,1 0 0 0 1.3125,0.529297 l 5.966797,-2.542969 a 1,1 0 0 0 0.527343,-1.310547 1,1 0 0 0 -0.546875,-0.537109 z"
     id="line5" />
  <path
     style="color:#000000;fill:#000000;stroke-linecap:round;stroke-linejoin:round;-inkscape-stroke:none"
     d="m 31.021484,20.113281 -5.966797,2.541016 a 1,1 0 0 0 -0.527343,1.310547 1,1 0 0 0 1.310547,0.529297 l 5.96875,-2.541016 a 1,1 0 0 0 0.527343,-1.3125 1,1 0 0 0 -1.3125,-0.527344 z"
     id="line6" />
  <path
     style="color:#000000;fill:#000000;stroke-linecap:round;stroke-linejoin:round;-inkscape-stroke:none"
     d="m 43.107422,26.269531 -5.966797,2.541016 a 1,1 0 0 0 -0.527344,1.3125 1,1 0 0 0 1.310547,0.527344 l 5.96875,-2.541016 a 1,1 0 0 0 0.527344,-1.3125 1,1 0 0 0 -1.3125,-0.527344 z"
     id="line7" />
  <path
     style="color:#000000;fill:#000000;stroke-linecap:round;stroke-linejoin:round;-inkscape-stroke:none"
     d="m 43.873047,22.646484 a 1,1 0 0 0 -0.765625,0.0078 l -5.966797,2.541015 a 1,1 0 0 0 -0.527344,1.3125 1,1 0 0 0 1.310547,0.527344 l 5.96875,-2.541015 a 1,1 0 0 0 0.527344,-1.3125 1,1 0 0 0 -0.546875,-0.535157 z"
     id="line8" />
</svg>
