<?xml version="1.0" encoding="UTF-8" standalone="no"?>
<svg
   id="b"
   viewBox="0 0 48 48"
   version="1.1"
   sodipodi:docname="steam_icon_1672970.svg"
   xmlns:inkscape="http://www.inkscape.org/namespaces/inkscape"
   xmlns:sodipodi="http://sodipodi.sourceforge.net/DTD/sodipodi-0.dtd"
   xmlns="http://www.w3.org/2000/svg"
   xmlns:svg="http://www.w3.org/2000/svg">
  <sodipodi:namedview
     id="namedview5"
     pagecolor="#ffffff"
     bordercolor="#666666"
     borderopacity="1.0"
     inkscape:showpageshadow="2"
     inkscape:pageopacity="0.0"
     inkscape:pagecheckerboard="0"
     inkscape:deskcolor="#d1d1d1" />
  <defs
     id="defs1">
    <style
       id="style1">.c{fill:none;stroke:#000;stroke-width:2px;stroke-linecap:round;stroke-linejoin:round;}</style>
  </defs>
  <path
     style="color:#000000;fill:#000000;stroke-linecap:round;stroke-linejoin:round;-inkscape-stroke:none"
     d="m 5.2558594,12.666016 a 1.0001,1.0001 0 0 0 -0.5,0.867187 v 20.933594 a 1.0001,1.0001 0 0 0 0.5,0.867187 L 23.5,45.865234 A 1.0001,1.0001 0 0 0 25,45 V 24.066406 A 1.0001,1.0001 0 0 0 24.5,23.199219 L 6.2558594,12.666016 a 1.0001,1.0001 0 0 0 -1,0 z m 1.5,2.597656 L 23,24.642578 V 43.269531 L 6.7558594,33.890625 Z"
     id="polygon1" />
  <path
     style="color:#000000;fill:#000000;stroke-linecap:round;stroke-linejoin:round;-inkscape-stroke:none"
     d="m 5.2558594,12.666016 a 1.0001,1.0001 0 0 0 -0.5,0.867187 v 7.849609 a 1.0001,1.0001 0 0 0 0.5,0.867188 l 1.78125,1.027344 v 2.039062 a 1.0001,1.0001 0 0 0 0.5,0.867188 L 9.8183594,27.5 a 1.0001,1.0001 0 0 0 1.4999996,-0.867188 v -3.5 l 0.779297,0.449219 a 1.0001,1.0001 0 0 0 1.5,-0.865234 v -0.884766 l 0.28125,0.16211 v 4.65625 a 1.0001,1.0001 0 0 0 0.5,0.865234 l 2.279297,1.316406 a 1.0001,1.0001 0 0 0 1.5,-0.865234 v -0.884766 l 0.28125,0.16211 v 2.039062 a 1.0001,1.0001 0 0 0 0.5,0.865234 l 2.279297,1.316407 a 1.0001,1.0001 0 0 0 1.5,-0.865235 V 29.714844 L 23.5,30.166016 A 1.0001,1.0001 0 0 0 25,29.298828 V 24.066406 A 1.0001,1.0001 0 0 0 24.5,23.199219 L 22.21875,21.882812 19.939453,20.566406 17.658203,19.25 15.378906,17.933594 13.097656,16.617187 10.818359,15.300781 8.5371094,13.984375 6.2558594,12.666016 a 1.0001,1.0001 0 0 0 -1,0 z m 1.5,2.597656 0.78125,0.451172 2.28125,1.316406 2.2792966,1.318359 2.28125,1.316407 2.279297,1.316406 2.28125,1.316406 2.279297,1.316406 L 23,24.642578 v 2.925781 l -0.78125,-0.451172 a 1.0001,1.0001 0 0 0 -1.5,0.865235 v 0.884765 l -0.279297,-0.162109 v -2.039062 a 1.0001,1.0001 0 0 0 -0.5,-0.865235 l -2.28125,-1.316406 a 1.0001,1.0001 0 0 0 -1.5,0.865234 v 0.884766 l -0.279297,-0.162109 v -4.65625 a 1.0001,1.0001 0 0 0 -0.5,-0.865235 l -2.28125,-1.316406 a 1.0001,1.0001 0 0 0 -1.5,0.865234 v 0.882813 l -0.779297,-0.449219 a 1.0001,1.0001 0 0 0 -1.4999996,0.867188 v 3.5 l -0.28125,-0.16211 v -2.039062 a 1.0001,1.0001 0 0 0 -0.5,-0.865235 l -1.78125,-1.027343 z"
     id="polygon2" />
  <path
     style="color:#000000;fill:#000000;stroke-linecap:round;stroke-linejoin:round;-inkscape-stroke:none"
     d="M 23.5,2.1347656 5.2558594,12.666016 a 1.0001,1.0001 0 0 0 0,1.732422 L 23.5,24.931641 a 1.0001,1.0001 0 0 0 1,0 L 42.744141,14.398438 a 1.0001,1.0001 0 0 0 0,-1.732422 L 24.5,2.1347656 a 1.0001,1.0001 0 0 0 -1,0 z M 24,4.1542969 40.244141,13.533203 24,22.910156 7.7558594,13.533203 Z"
     id="polygon3" />
  <path
     style="color:#000000;fill:#000000;stroke-linecap:round;stroke-linejoin:round;-inkscape-stroke:none"
     d="M 41.744141,12.666016 23.5,23.199219 A 1.0001,1.0001 0 0 0 23,24.066406 V 45 a 1.0001,1.0001 0 0 0 1.5,0.865234 l 18.244141,-10.53125 a 1.0001,1.0001 0 0 0 0.5,-0.867187 V 13.533203 a 1.0001,1.0001 0 0 0 -1.5,-0.867187 z m -0.5,2.597656 V 33.890625 L 25,43.269531 V 24.642578 Z"
     id="polygon4" />
  <path
     style="color:#000000;fill:#000000;stroke-linecap:round;stroke-linejoin:round;-inkscape-stroke:none"
     d="m 41.744141,12.666016 -2.28125,1.318359 -2.28125,1.316406 -2.279297,1.316406 -2.28125,1.316407 L 30.341797,19.25 28.060547,20.566406 25.78125,21.882812 23.5,23.199219 A 1.0001,1.0001 0 0 0 23,24.066406 v 7.84961 a 1.0001,1.0001 0 0 0 1.5,0.865234 l 0.78125,-0.451172 v 0.886719 a 1.0001,1.0001 0 0 0 1.5,0.865234 l 2.279297,-1.316406 a 1.0001,1.0001 0 0 0 0.5,-0.865234 v -4.65625 l 1.78125,-1.029297 a 1.0001,1.0001 0 0 0 0.5,-0.865235 v -2.039062 l 0.279297,-0.16211 v 3.501954 a 1.0001,1.0001 0 0 0 1.5,0.865234 l 2.28125,-1.316406 a 1.0001,1.0001 0 0 0 0.5,-0.867188 v -2.039062 l 0.279297,-0.16211 v 0.884766 a 1.0001,1.0001 0 0 0 1.5,0.867187 l 2.28125,-1.316406 a 1.0001,1.0001 0 0 0 0.5,-0.867187 v -2.039063 l 1.78125,-1.027344 a 1.0001,1.0001 0 0 0 0.5,-0.867187 v -5.232422 a 1.0001,1.0001 0 0 0 -1.5,-0.867187 z m -0.5,2.597656 v 2.925781 l -1.78125,1.027344 a 1.0001,1.0001 0 0 0 -0.5,0.865234 v 2.041016 l -0.28125,0.162109 v -0.884765 a 1.0001,1.0001 0 0 0 -1.5,-0.867188 l -2.279297,1.316406 a 1.0001,1.0001 0 0 0 -0.5,0.867188 v 2.039062 l -0.28125,0.16211 v -3.501953 a 1.0001,1.0001 0 0 0 -1.5,-0.865235 l -2.279297,1.316406 a 1.0001,1.0001 0 0 0 -0.5,0.865235 v 2.039062 l -1.78125,1.029297 a 1.0001,1.0001 0 0 0 -0.5,0.865235 v 4.65625 l -0.279297,0.162109 v -0.884766 a 1.0001,1.0001 0 0 0 -1.5,-0.865234 L 25,30.185547 v -5.542969 l 1.78125,-1.027344 2.279297,-1.316406 2.28125,-1.316406 2.279297,-1.316406 2.28125,-1.316407 2.279297,-1.318359 2.28125,-1.316406 z"
     id="polygon5" />
</svg>
