<?xml version="1.0" encoding="UTF-8"?>
<svg id="svg1" version="1.1" viewBox="0 0 48 48" xmlns="http://www.w3.org/2000/svg">
 <defs id="defs1">
  <style id="style1">.a{fill:none;stroke:#000;stroke-width:2px;stroke-linecap:round;stroke-linejoin:round;}</style>
 </defs>
 <path id="path1" d="m14.322 3.5371a1.0001 1.0001 0 0 0-0.91211 0.20117c-0.05689 0.048287-0.09627 0.11111-0.15234 0.16016-5.36e-4 7.122e-4 -0.0014 0.00124-2e-3 0.00195-3.2748 2.866-5.1567 7.0103-5.1113 11.369 0.00353 7.7677 5.6507 14.306 13.225 15.604v3.7754a1.0001 1.0001 0 0 0 0.01563 0.18164l1.6309 8.8516a1.0001 1.0001 0 0 0 1.9668 0.0078l1.7051-8.8515a1.0001 1.0001 0 0 0 0.01758-0.18945v-3.7812c7.536-1.3284 13.147-7.8458 13.15-15.588 0.04532-4.3593-1.8378-8.5031-5.1133-11.369-0.0564-0.049349-0.09511-0.11353-0.15234-0.16211a1.0001 1.0001 0 0 0-1.4453 1.3633c1.7062 2.2699 2.6435 5.024 2.6797 7.8633-0.0031 5.523-3.8547 10.097-9.1191 11.375v-2.4648c0-0.74656 0.30059-0.96628 0.71484-1.1934 0.41426-0.22708 0.84961-0.28125 0.84961-0.28125a1.0001 1.0001 0 0 0-0.0957-1.9941h-8.2754a1.0001 1.0001 0 0 0-0.0957 1.9941s0.43726 0.05414 0.85156 0.28125c0.4143 0.22711 0.71484 0.44688 0.71484 1.1934v2.4805c-5.3048-1.2502-9.1902-5.8523-9.1934-11.402 0.03663-2.8386 0.97384-5.592 2.6797-7.8613a1.0001 1.0001 0 0 0-0.53321-1.5645zm-4.0195 10.125c0.34908 6.5986 5.2416 12.126 11.855 13.031a1.0001 1.0001 0 0 0 0.02148 2e-3l0.07422 0.0098a1.0001 1.0001 0 0 0 1.1152-0.99414v-3.8262c0-0.58558-0.22291-1.0354-0.44922-1.4688h2.2344c-0.2263 0.43339-0.44922 0.88316-0.44922 1.4688v3.8281a1.0001 1.0001 0 0 0 1.1348 0.99219c6.6139-0.90528 11.508-6.4327 11.857-13.031 0.06036 0.5294 0.16402 1.0505 0.1582 1.5898a1.0001 1.0001 0 0 0 0 0.0098c-3.55e-4 7.0674-5.2874 12.996-12.309 13.803v2e-3a1.0001 1.0001 0 0 0-0.0059-2e-3l-0.04297 0.0078a1.0001 1.0001 0 0 0-0.74414 1.0195l-0.04883-0.04102v0.10547a1.0001 1.0001 0 0 0 0 0.06445v4.3203l-0.68359 3.5449-0.65234-3.541v-4.4668a1.0001 1.0001 0 0 0-0.28906-0.70312l-0.03125-0.03125a1.0001 1.0001 0 0 0-0.59566-0.28916c-7.021-0.80704-12.308-6.7355-12.309-13.803a1.0001 1.0001 0 0 0 0-0.01172c-0.0058-0.53933 0.09784-1.0604 0.1582-1.5898z" stroke-linecap="round" stroke-linejoin="round"/>
</svg>
