<?xml version="1.0" encoding="UTF-8"?>
<svg id="svg8" version="1.1" viewBox="0 0 48 48" xmlns="http://www.w3.org/2000/svg">
 <defs id="defs4">
  <style id="style2">.a{fill:none;stroke:#000;stroke-width:2px;stroke-linecap:round;stroke-linejoin:round;}</style>
 </defs>
 <path id="polygon6" d="m24 4.6094a1.0001 1.0001 0 0 0-0.86914 0.50391l-18.5 32.404a1.0001 1.0001 0 0 0 0.24023 1.2734l5.4199 4.377a1.0001 1.0001 0 0 0 1.1953 0.04687l10.33-7.0879a1.0001 1.0001 0 0 0-0.56641-1.8242h-4.2422l6.9922-12.246 6.9922 12.246h-4.2422a1.0001 1.0001 0 0 0-0.56641 1.8242l10.33 7.0879a1.0001 1.0001 0 0 0 1.1953-0.04687l5.4199-4.377a1.0001 1.0001 0 0 0 0.24024-1.2734l-18.5-32.404a1.0001 1.0001 0 0 0-0.86914-0.50391zm0 3.0176 17.209 30.143-4.1777 3.375-7.0566-4.8418h2.7402a1.0001 1.0001 0 0 0 0.86719-1.4961l-8.7129-15.264a1.0001 1.0001 0 0 0-1.7383 0l-8.7129 15.264a1.0001 1.0001 0 0 0 0.86719 1.4961h2.7402l-7.0566 4.8418-4.1777-3.375z" color="#000000" stroke-linecap="round" stroke-linejoin="round" style="-inkscape-stroke:none"/>
</svg>
