<?xml version="1.0" encoding="UTF-8" standalone="no"?>
<svg
   viewBox="0 0 48 48"
   version="1.1"
   id="svg10"
   sodipodi:docname="steam_icon_1714040.svg"
   xmlns:inkscape="http://www.inkscape.org/namespaces/inkscape"
   xmlns:sodipodi="http://sodipodi.sourceforge.net/DTD/sodipodi-0.dtd"
   xmlns="http://www.w3.org/2000/svg"
   xmlns:svg="http://www.w3.org/2000/svg">
  <sodipodi:namedview
     id="namedview10"
     pagecolor="#ffffff"
     bordercolor="#666666"
     borderopacity="1.0"
     inkscape:showpageshadow="2"
     inkscape:pageopacity="0.0"
     inkscape:pagecheckerboard="0"
     inkscape:deskcolor="#d1d1d1" />
  <defs
     id="defs1">
    <style
       id="style1">.a{fill:#000;}.b,.c{fill:none;stroke:#000;stroke-width:2px;stroke-linecap:round;}.c{stroke-linejoin:round;}</style>
  </defs>
  <circle
     class="a"
     cx="13.8001"
     cy="21.1806"
     r="0.75"
     id="circle1" />
  <path
     style="color:#000000;fill:#000000;stroke-linecap:round;-inkscape-stroke:none"
     d="m 9.265625,22.160156 a 1,1 0 0 0 -0.7109375,0.28711 1,1 0 0 0 -0.011719,1.414062 c 0.4995799,0.508664 0.8825925,0.905086 1.2753906,1.222656 0.3927976,0.317571 0.8627236,0.602297 1.4472656,0.607422 0.584542,0.0051 1.058867,-0.26847 1.462891,-0.578125 0.404023,-0.309655 0.803926,-0.699486 1.326172,-1.203125 a 1,1 0 0 0 0.02539,-1.414062 1,1 0 0 0 -1.414062,-0.02539 c -0.520454,0.501911 -0.90499,0.863612 -1.154297,1.054688 -0.249307,0.191075 -0.296934,0.165415 -0.228516,0.166015 0.06842,6e-4 0.0293,0.02858 -0.208984,-0.164062 -0.238283,-0.192648 -0.60685,-0.558721 -1.105469,-1.066407 A 1,1 0 0 0 9.265625,22.160156 Z"
     id="path1" />
  <path
     style="color:#000000;fill:#000000;stroke-linecap:round;stroke-linejoin:round;-inkscape-stroke:none"
     d="m 22.951172,7.2285156 c -4.862593,0.466756 -9.214859,2.9146404 -10.884766,7.2929684 a 1,1 0 0 0 0.578125,1.291016 1,1 0 0 0 1.289063,-0.578125 c 3.555907,-9.3232358 24.278324,-8.330884 25.519531,6.564453 a 1,1 0 0 0 1.080078,0.914063 1,1 0 0 0 0.914063,-1.080079 C 40.575897,11.175793 31.055493,6.4505889 22.951172,7.2285156 Z"
     id="path2" />
  <path
     style="color:#000000;fill:#000000;stroke-linecap:round;stroke-linejoin:round;-inkscape-stroke:none"
     d="M 12.396484,13.996094 C 7.667322,13.84042 3.6770812,17.55474 3.5,22.285156 a 1.0001,1.0001 0 0 0 0,0.0098 c -0.057131,2.011829 0.7055752,3.954182 2.0898437,5.412109 a 1,1 0 0 0 -0.00195,0.01953 c 0.010511,0.01234 0.024608,0.0209 0.035156,0.0332 0.00435,0.0045 0.0054,0.01113 0.00977,0.01563 a 1,1 0 0 0 0.00586,0 c 1.4146952,1.645199 3.1544729,2.981666 5.1152341,3.912109 a 1,1 0 0 0 1.332032,-0.474609 1,1 0 0 0 -0.47461,-1.332032 C 9.8843667,29.061361 8.351016,27.884729 7.1113281,26.429687 a 1,1 0 0 0 -0.019531,-0.0098 1,1 0 0 0 -0.023437,-0.03711 C 6.0238243,25.306386 5.4584832,23.854697 5.5,22.355469 5.6389766,18.69977 8.6871092,15.866903 12.34375,15.994141 a 1.0001,1.0001 0 0 0 0.03516,0 c 3.949554,0 6.52068,2.182419 6.851563,5.742187 a 1,1 0 0 0 0.002,0.0039 c 0.1268,1.310708 -0.06114,2.308495 -0.04883,3.382813 0.01231,1.074318 0.408924,2.296647 1.5625,3.214844 a 1.0001,1.0001 0 0 0 0.09375,0.06641 c 3.214555,2.008426 8.159067,1.756101 12.429687,0.474609 2.13531,-0.640746 4.103293,-1.561537 5.59961,-2.736328 0.907809,-0.712741 1.552884,-1.580917 2.007812,-2.517578 0.240485,0.08857 0.502659,0.122663 0.775391,0.128906 -0.720486,1.298842 -1.532539,2.54405 -2.525391,3.654297 a 1,1 0 0 0 0.08008,1.412109 1,1 0 0 0 1.41211,-0.07813 c 1.579246,-1.765976 2.861284,-3.775464 3.798828,-5.951171 a 1.0001,1.0001 0 0 0 -1.257813,-1.335938 c -1.241323,0.44764 -1.683882,0.321851 -1.640625,0.34375 0.04326,0.0219 0.03384,0.02614 -0.128906,-0.423828 a 1,1 0 0 0 -0.150391,-0.166016 1,1 0 0 0 -0.248047,-0.269531 1,1 0 0 0 -0.33789,-0.138672 1,1 0 0 0 -0.207031,-0.08594 1,1 0 0 0 -0.164063,0.06836 1,1 0 0 0 -0.173828,-0.0078 1,1 0 0 0 -0.164063,0.15039 1,1 0 0 0 -0.271484,0.248047 1,1 0 0 0 -0.138672,0.337891 1,1 0 0 0 -0.08594,0.207031 c 0.0032,0.903576 -0.597757,1.894774 -1.816407,2.851562 -1.218649,0.956789 -2.989039,1.807901 -4.9375,2.392579 -3.872659,1.162075 -8.434542,1.171067 -10.74414,-0.236329 -0.700494,-0.57295 -0.758953,-0.87401 -0.767578,-1.626953 -0.0089,-0.775451 0.191316,-1.967836 0.03906,-3.548828 -1.22e-4,-0.0013 1.23e-4,-0.0026 0,-0.0039 a 1,1 0 0 0 -0.002,-0.002 C 20.800008,17.053946 17.137387,14.004084 12.396484,13.996094 Z M 36.017578,30.46875 a 1,1 0 0 0 -0.757812,0.101562 c -2.032076,1.184576 -4.271425,1.972175 -6.597657,2.320313 a 1,1 0 0 0 -0.841797,1.136719 1,1 0 0 0 1.138672,0.841797 c 2.576995,-0.385667 5.055511,-1.258042 7.306641,-2.570313 a 1,1 0 0 0 0.361328,-1.367187 1,1 0 0 0 -0.609375,-0.462891 z m -20.386719,1.154297 a 1,1 0 0 0 -1.316406,0.519531 1,1 0 0 0 0.519531,1.316406 c 2.425526,1.05465 5.010808,1.692794 7.648438,1.888672 a 1,1 0 0 0 1.070312,-0.923828 1,1 0 0 0 -0.921875,-1.070312 c -2.413712,-0.17925 -4.780386,-0.765352 -7,-1.730469 z"
     id="path3" />
  <path
     style="color:#000000;fill:#000000;stroke-linecap:round;stroke-linejoin:round;-inkscape-stroke:none"
     d="m 11.5625,29.859375 a 1,1 0 0 0 -1.304687,0.544922 c -0.7294122,1.780397 -1.1409498,3.67528 -1.2187505,5.597656 -0.028053,0.539802 0.3060322,0.965122 0.578125,1.175781 0.2729997,0.211362 0.5449105,0.325221 0.8359375,0.423828 0.582053,0.197215 1.249904,0.305231 1.933594,0.361329 0.683689,0.0561 1.367701,0.05477 1.96875,-0.02734 0.300524,-0.04106 0.578918,-0.09731 0.867187,-0.21875 0.288269,-0.121442 0.692395,-0.32766 0.859375,-0.882813 a 1.0001,1.0001 0 0 0 0.01563,-0.05859 c 0.339217,-1.446466 0.380284,-2.947579 0.119141,-4.410157 a 1,1 0 0 0 -1.160156,-0.808593 1,1 0 0 0 -0.808594,1.160156 c 0.190732,1.068229 0.113667,2.156654 -0.08789,3.220703 -0.0356,0.0066 -0.0356,0.01203 -0.07617,0.01758 -0.384216,0.05249 -0.968281,0.06002 -1.533203,0.01367 -0.555843,-0.04561 -1.100589,-0.148342 -1.43164,-0.257813 0.104225,-1.558406 0.397456,-3.101936 0.990234,-4.548828 A 1,1 0 0 0 11.5625,29.859375 Z"
     id="path4" />
  <path
     style="color:#000000;fill:#000000;stroke-linecap:round;stroke-linejoin:round;-inkscape-stroke:none"
     d="m 28.408203,32.962891 a 1,1 0 0 0 -0.513672,1.318359 c 0.150427,0.343861 0.395645,1.313897 0.488281,2.251953 0.08624,0.873266 -0.0033,1.702447 -0.125,2.080078 -0.103708,0.03701 -0.239802,0.08229 -0.455078,0.117188 -0.519087,0.08414 -1.2645,0.110601 -1.996093,0.07227 -0.731594,-0.03834 -1.463793,-0.141842 -1.960938,-0.273437 -0.193958,-0.05134 -0.302885,-0.100862 -0.396484,-0.142578 -0.101565,-0.44106 -0.178723,-0.766838 -0.177735,-1.189453 0.0012,-0.513567 0.08267,-1.289771 0.275391,-2.712891 a 1,1 0 0 0 -0.855469,-1.125 1,1 0 0 0 -1.126953,0.855469 c -0.195075,1.440477 -0.291319,2.271055 -0.292969,2.976562 -0.0016,0.705508 0.109474,1.250111 0.271485,1.919922 0.138607,0.572961 0.519371,0.81409 0.822265,0.982422 0.302894,0.168332 0.61929,0.276638 0.96875,0.369141 0.69892,0.185005 1.527273,0.291823 2.369141,0.335937 0.841868,0.04411 1.684067,0.02326 2.417969,-0.0957 0.366951,-0.05948 0.706678,-0.138876 1.035156,-0.283203 0.328478,-0.144327 0.709368,-0.357392 0.925781,-0.855469 0.431078,-0.991335 0.400504,-2.117871 0.291016,-3.226562 -0.109488,-1.108692 -0.326112,-2.127037 -0.646485,-2.859375 a 1,1 0 0 0 -1.318359,-0.515625 z"
     id="path5" />
  <path
     style="color:#000000;fill:#000000;stroke-linecap:round;stroke-linejoin:round;-inkscape-stroke:none"
     d="m 40.580078,27.367187 a 1,1 0 0 0 -1.416016,0.002 c -2.52e-4,2.53e-4 -0.156026,0.206644 -0.15625,0.207031 -2.23e-4,3.87e-4 -0.05662,0.106906 -0.07227,0.148437 -0.03129,0.08306 -0.04114,0.138645 -0.04883,0.181641 -0.01538,0.08599 -0.01476,0.128514 -0.01563,0.164062 -0.0017,0.0711 0.0012,0.104911 0.0039,0.140625 0.0053,0.07143 0.01232,0.13292 0.02148,0.205079 0.01833,0.144317 0.0438,0.324617 0.07422,0.541015 0.06083,0.432797 0.138948,1.001198 0.193359,1.574219 0.05441,0.573021 0.08256,1.15673 0.05859,1.572266 -0.01198,0.207767 -0.07795,0.355063 -0.101562,0.419921 -0.413621,0.302553 -0.971173,0.620213 -1.525391,0.802735 -0.481778,0.158665 -0.79763,0.140631 -1.027344,0.128906 -0.01402,-0.161823 -0.03055,-0.335701 -0.01563,-0.566406 0.04036,-0.623709 0.173828,-1.255859 0.173828,-1.25586 a 1,1 0 0 0 -0.765625,-1.189453 1,1 0 0 0 -1.1875,0.765625 c 0,0 -0.16406,0.735892 -0.216796,1.550782 -0.02637,0.407444 -0.03402,0.83644 0.05469,1.283203 0.08871,0.446762 0.322146,1.096594 1.037109,1.339843 0.876846,0.298471 1.731651,0.118639 2.572266,-0.158203 0.840615,-0.276841 1.654351,-0.699967 2.306641,-1.222656 0.714875,-0.572807 0.656892,-1.186671 0.691406,-1.785156 0.03451,-0.598486 -0.005,-1.248635 -0.06445,-1.875 -0.05948,-0.626365 -0.141363,-1.222711 -0.203125,-1.66211 -0.03088,-0.219699 -0.05585,-0.401746 -0.07031,-0.515625 -0.0072,-0.05694 -0.01163,-0.100382 -0.01172,-0.101562 -4.5e-5,-5.9e-4 0.0012,0.0062 0,0.05664 -6.15e-4,0.02521 5.86e-4,0.05893 -0.01367,0.138671 -0.0024,0.01315 -0.01203,0.04029 -0.01563,0.05664 a 1,1 0 0 0 -0.259766,-0.947266 z m 0.25,0.984375 c -0.007,0.02637 -0.0076,0.04129 -0.02148,0.07813 -0.01525,0.04049 -0.07054,0.148825 -0.07031,0.148438 2.24e-4,-3.87e-4 -0.156502,0.203379 -0.15625,0.203125 a 1,1 0 0 0 0.248047,-0.429688 z"
     id="path6" />
  <path
     style="color:#000000;fill:#000000;stroke-linecap:round;stroke-linejoin:round;-inkscape-stroke:none"
     d="m 16.339844,9.6210938 a 1,1 0 0 0 -0.357422,1.3671872 l 1.705078,2.916016 a 1.0001,1.0001 0 0 0 0.505859,0.429687 l 5.804688,2.222657 a 1.0001,1.0001 0 0 0 0.425781,0.0625 l 8.595703,-0.589844 a 1.0001,1.0001 0 0 0 0.794922,-0.490234 l 1.908203,-3.257813 a 1,1 0 0 0 -0.357422,-1.367187 1,1 0 0 0 -1.367187,0.357421 l -1.642578,2.798829 -7.847657,0.539062 -5.271484,-2.017578 -1.529297,-2.6132814 A 1,1 0 0 0 16.339844,9.6210938 Z"
     id="path7" />
  <path
     style="color:#000000;fill:#000000;stroke-linecap:round;stroke-linejoin:round;-inkscape-stroke:none"
     d="m 18.609375,12.402344 a 1,1 0 0 0 -0.722656,0.25 l -2.558594,2.273437 a 1,1 0 0 0 -0.08398,1.410156 1,1 0 0 0 1.412109,0.08398 l 2.558594,-2.271484 a 1,1 0 0 0 0.08203,-1.41211 1,1 0 0 0 -0.6875,-0.333984 z"
     id="path8" />
  <path
     style="color:#000000;fill:#000000;stroke-linecap:round;stroke-linejoin:round;-inkscape-stroke:none"
     d="m 24.347656,14.623047 a 1,1 0 0 0 -0.992187,1.007812 l 0.09961,12.96875 a 1,1 0 0 0 1.007813,0.992188 1,1 0 0 0 0.992187,-1.007813 l -0.09961,-12.96875 a 1,1 0 0 0 -1.007813,-0.992187 z"
     id="path9" />
  <path
     style="color:#000000;fill:#000000;stroke-linecap:round;stroke-linejoin:round;-inkscape-stroke:none"
     d="m 32.494141,14.142578 a 1,1 0 0 0 -0.433594,1.347656 l 5.121094,9.960938 a 1,1 0 0 0 1.345703,0.433594 1,1 0 0 0 0.43164,-1.347657 l -5.11914,-9.960937 a 1,1 0 0 0 -1.345703,-0.433594 z"
     id="path10" />
  <circle
     class="a"
     cx="8.7667"
     cy="21.1806"
     r="0.75"
     id="circle10" />
</svg>
