<?xml version="1.0" encoding="UTF-8" standalone="no"?>
<svg
   viewBox="0 0 48 48"
   version="1.1"
   id="svg3"
   sodipodi:docname="steam_icon_1292940.svg"
   xmlns:inkscape="http://www.inkscape.org/namespaces/inkscape"
   xmlns:sodipodi="http://sodipodi.sourceforge.net/DTD/sodipodi-0.dtd"
   xmlns="http://www.w3.org/2000/svg"
   xmlns:svg="http://www.w3.org/2000/svg">
  <sodipodi:namedview
     id="namedview3"
     pagecolor="#ffffff"
     bordercolor="#666666"
     borderopacity="1.0"
     inkscape:showpageshadow="2"
     inkscape:pageopacity="0.0"
     inkscape:pagecheckerboard="0"
     inkscape:deskcolor="#d1d1d1" />
  <defs
     id="defs1">
    <style
       id="style1">.a{fill:none;stroke:#000;stroke-width:2px;stroke-linecap:round;stroke-linejoin:round;}</style>
  </defs>
  <path
     style="color:#000000;fill:#000000;stroke-linecap:round;stroke-linejoin:round;-inkscape-stroke:none"
     d="M 23.390625,3.6347656 6.5292969,13.363281 a 1.0001,1.0001 0 0 0 0,1.732422 L 23.5,24.896484 a 1.0001,1.0001 0 0 0 1,0 l 16.859375,-9.730468 a 1.0001,1.0001 0 0 0 0,-1.732422 L 24.390625,3.6347656 a 1.0001,1.0001 0 0 0 -1,0 z m 0.5,2.0195313 14.96875,8.6445311 L 24,22.875 9.0292969,14.230469 Z"
     id="polygon1" />
  <path
     style="color:#000000;fill:#000000;stroke-linecap:round;stroke-linejoin:round;-inkscape-stroke:none"
     d="m 6.5292969,13.363281 a 1.0001,1.0001 0 0 0 -0.5,0.867188 v 19.46875 a 1.0001,1.0001 0 0 0 0.5,0.867187 L 23.5,44.365234 A 1.0001,1.0001 0 0 0 25,43.5 V 24.029297 A 1.0001,1.0001 0 0 0 24.5,23.164062 L 7.5292969,13.363281 a 1.0001,1.0001 0 0 0 -1,0 z m 1.5,2.59961 L 23,24.607422 V 41.767578 L 8.0292969,33.123047 Z"
     id="polygon2" />
  <path
     style="color:#000000;fill:#000000;stroke-linecap:round;stroke-linejoin:round;-inkscape-stroke:none"
     d="M 40.359375,13.433594 23.5,23.164062 A 1.0001,1.0001 0 0 0 23,24.029297 V 43.5 a 1.0001,1.0001 0 0 0 1.5,0.865234 l 16.859375,-9.728515 a 1.0001,1.0001 0 0 0 0.5,-0.867188 v -19.46875 a 1.0001,1.0001 0 0 0 -1.5,-0.867187 z m -0.5,2.597656 V 33.193359 L 25,41.769531 V 24.607422 Z"
     id="polygon3" />
</svg>
