<?xml version="1.0" encoding="UTF-8" standalone="no"?>
<svg
   id="a"
   viewBox="0 0 48 48"
   version="1.1"
   sodipodi:docname="steam_icon_219740.svg"
   xmlns:inkscape="http://www.inkscape.org/namespaces/inkscape"
   xmlns:sodipodi="http://sodipodi.sourceforge.net/DTD/sodipodi-0.dtd"
   xmlns="http://www.w3.org/2000/svg"
   xmlns:svg="http://www.w3.org/2000/svg">
  <sodipodi:namedview
     id="namedview10"
     pagecolor="#ffffff"
     bordercolor="#666666"
     borderopacity="1.0"
     inkscape:showpageshadow="2"
     inkscape:pageopacity="0.0"
     inkscape:pagecheckerboard="0"
     inkscape:deskcolor="#d1d1d1" />
  <defs
     id="defs1">
    <style
       id="style1">.b{fill:none;stroke:#000;stroke-width:2px;stroke-linecap:round;stroke-linejoin:round;}</style>
  </defs>
  <path
     style="color:#000000;fill:#000000;stroke-linecap:round;stroke-linejoin:round;-inkscape-stroke:none"
     d="m 15.808594,18.410156 a 1.0001,1.0001 0 0 0 -0.957031,0.75 c -0.306255,1.181492 0.05407,2.568336 0.9375,3.84961 -0.306693,0.600065 -0.605405,1.195023 -0.773438,2.271484 -0.220454,1.41228 -0.24976,3.229674 0.212891,5.291016 0.925302,4.122683 3.845124,9.174705 10.929687,13.767578 a 1.0001,1.0001 0 0 0 1.167969,-0.05859 c 6.218099,-4.966589 7.382966,-14.437415 7.125,-22.617188 -0.01711,-0.540864 0.06553,-1.083738 0.246094,-1.640625 l -0.09375,0.06836 a 1.0001,1.0001 0 0 0 -0.798829,-1.375 c -0.02193,-0.0013 -0.03672,0.007 -0.05859,0.0059 v -0.0078 a 1.0001,1.0001 0 0 0 -0.01172,0.0098 c -3.482302,-0.185775 -6.16293,0.767755 -8.404297,1.910157 -0.288621,-0.106431 -1.413881,-0.529866 -3.207031,-1.054688 -2.006059,-0.587136 -4.406983,-1.190667 -6.314453,-1.169922 z m 1.001953,2.1875 c 1.418616,0.131785 3.150106,0.434085 4.75,0.902344 1.930212,0.564937 3.449219,1.132812 3.449219,1.132812 a 1.0001,1.0001 0 0 0 0.820312,-0.05469 c 1.891487,-1.006752 4.066467,-1.692312 6.755859,-1.755859 -0.03436,0.304443 -0.144559,0.596547 -0.134765,0.90625 0.24068,7.631653 -0.996143,16.042349 -5.830078,20.453125 -6.200921,-4.22149 -8.663704,-8.581822 -9.441407,-12.046875 -0.40351,-1.797842 -0.371779,-3.366336 -0.1875,-4.546875 0.18428,-1.18054 0.609525,-2.048752 0.648438,-2.101563 a 1.0001,1.0001 0 0 0 -0.04492,-1.242187 C 17.09646,21.658047 16.896161,21.104268 16.810547,20.597656 Z"
     id="path1" />
  <path
     style="color:#000000;fill:#000000;stroke-linecap:round;stroke-linejoin:round;-inkscape-stroke:none"
     d="M 17.298828,3.5175781 C 7.6961114,5.3761753 5.09375,15.089844 5.09375,15.089844 a 1.0001,1.0001 0 0 0 0.00586,0.537109 c 0.5913388,2.027481 2.0864283,4.043696 3.421875,5.640625 0.869278,1.039484 1.1928215,1.321687 1.6562496,1.789063 C 9.6791388,23.337899 8.9800415,23.57885 8.703125,23.875 8.1804412,24.433987 7.9921875,25.066406 7.9921875,25.066406 a 1.0001,1.0001 0 0 0 0.875,1.234375 c 0.9298836,0.08958 2.0683215,1.023797 2.9062505,2.064453 0.837928,1.040657 1.357421,2.054688 1.357421,2.054688 a 1,1 0 0 0 1.34375,0.439453 1,1 0 0 0 0.439454,-1.34375 c 0,0 -0.597812,-1.181956 -1.582032,-2.404297 -0.663388,-0.823888 -1.59238,-1.585438 -2.65625,-2.142578 0.307436,-0.239003 0.563303,-0.49319 1.34961,-0.712891 a 1.0001,1.0001 0 0 0 0.419922,-1.6875 c 0,0 -1.130172,-1.079067 -2.388672,-2.583984 C 8.8581354,18.5512 7.6210852,16.730194 7.1347656,15.300781 7.3417315,14.596069 9.0106308,9.564166 14.009766,6.8496094 c -0.53038,1.0404038 -0.898862,2.1796677 -0.949219,3.3457036 -0.05888,1.363378 0.32876,2.787356 1.384766,3.83789 1.056005,1.050535 2.68938,1.656292 4.874999,1.697266 1.754872,0.0329 2.974358,-0.259234 3.759766,-1.056641 0.785408,-0.797407 0.791995,-1.952212 0.511719,-2.814453 C 23.311521,10.997134 22.797184,10.248093 22.28125,9.6503906 22.023283,9.3515392 21.76578,9.0945102 21.511719,8.8847656 21.257657,8.675021 21.084369,8.493331 20.609375,8.3867188 c -0.1817,-0.040769 -0.308984,0.1020047 -0.488281,0.099609 0.188463,-0.3261815 0.338551,-0.7268911 0.568359,-0.9335937 0.427359,-0.3843918 0.859221,-0.5748112 1.628906,-0.4667969 1.760906,0.2471177 3.568236,1.3806511 4.957032,2.5722656 1.273279,1.0924999 2.080697,2.1327559 2.304687,2.4316409 -0.03432,1.128209 -0.337891,2.316406 -0.337891,2.316406 a 1.0001,1.0001 0 0 0 1.169922,1.302734 c 2.166075,-0.505255 3.765435,-1.348289 4.763672,-2.599609 0.998237,-1.25132 1.286747,-2.852853 1.041016,-4.5117187 C 36.092302,7.7572234 35.872696,7.1079253 35.494141,6.5976562 35.115585,6.0873872 34.475413,5.7259818 33.839844,5.78125 c -0.635569,0.055268 -1.122465,0.4389888 -1.4375,0.890625 -0.315035,0.4516362 -0.493965,1.0041014 -0.53125,1.6132813 -0.03265,0.5333972 0.0039,0.9648681 0.15625,1.3652343 0.152361,0.4003664 0.485024,0.7678084 0.859375,0.9218754 0.748701,0.308132 1.316406,-0.06445 1.316406,-0.06445 a 1,1 0 0 0 0.02539,-0.02344 c -0.09814,0.516799 -0.294027,0.973814 -0.617188,1.378906 -0.412718,0.517355 -1.175874,0.961589 -2.128906,1.353516 0.06813,-0.484706 0.163929,-0.936731 0.136719,-1.507813 A 1.0001,1.0001 0 0 0 31.453125,11.201172 C 31.109783,10.686119 30.127952,9.470408 28.578125,8.140625 27.028298,6.810842 24.972547,5.4387504 22.597656,5.1054687 21.299444,4.9232833 20.143762,5.3556116 19.353516,6.0664062 18.563269,6.7772009 18.084908,7.7035686 17.755859,8.5996094 17.125754,10.315464 17.070611,11.888338 17.064453,12.03125 c -5.3e-4,0.0085 -0.03125,0.130859 -0.03125,0.130859 h 0.0039 c -4e-6,1.28e-4 -0.0039,0.02149 -0.0039,0.02149 a 1.0001,1.0001 0 0 0 1.996094,0.109375 c 0,0 0.06251,-0.716081 0.302734,-1.294922 0.120111,-0.289421 0.281239,-0.509351 0.396485,-0.597656 0.115245,-0.08831 0.154587,-0.127293 0.443359,-0.0625 -0.245544,-0.05511 -0.0768,-0.02838 0.06641,0.08984 0.143208,0.118228 0.336221,0.305621 0.529297,0.529297 0.386153,0.447353 0.769251,1.051952 0.921875,1.521485 0.152624,0.469532 0.128098,0.625267 -0.03516,0.791015 -0.163254,0.165748 -0.80915,0.488833 -2.296875,0.460938 -1.841677,-0.03453 -2.900398,-0.516796 -3.501953,-1.115235 -0.601556,-0.598438 -0.837845,-1.385315 -0.796875,-2.333984 0.08194,-1.8973376 1.563267,-4.2173802 2.882812,-4.890625 A 1.0001,1.0001 0 0 0 17.298828,3.5175781 Z m 16.673828,4.5371094 c 0.08957,0.1781186 0.194925,0.3586608 0.265625,0.8359375 0.008,0.053693 -0.0066,0.088184 0,0.140625 A 1,1 0 0 0 33.896484,8.921875 c -0.0045,-0.015261 -0.04838,-0.171909 -0.02734,-0.515625 0.0102,-0.1666489 0.0617,-0.2428206 0.103515,-0.3515625 z m -0.324219,0.6679688 c 0.124363,0.051182 0.197919,0.161605 0.21875,0.1894531 A 1,1 0 0 0 33.291016,8.7285156 c 0,0 0.07427,-0.1223921 0.357421,-0.00586 z"
     id="path2" />
  <path
     style="color:#000000;fill:#000000;stroke-linecap:round;stroke-linejoin:round;-inkscape-stroke:none"
     d="m 15.148438,27.751953 c -0.481931,-0.01654 -0.973374,0.108512 -1.419922,0.480469 -0.446549,0.371957 -0.691565,0.98013 -0.707032,1.58789 -0.01547,0.607761 0.143528,1.254278 0.458985,2.017579 0.644449,1.559353 1.62503,2.397998 2.484375,2.751953 0.859345,0.353955 1.652344,0.230468 1.652343,0.230468 a 1,1 0 0 0 0.810547,-1.160156 1,1 0 0 0 -1.160156,-0.808594 c 0,0 -0.162287,0.04467 -0.541016,-0.111328 -0.378728,-0.155994 -0.918188,-0.505924 -1.398437,-1.667968 -0.246893,-0.597398 -0.311571,-1.007417 -0.306641,-1.201172 0.0049,-0.193755 0.02474,-0.133558 -0.01367,-0.101563 -0.07682,0.06399 0.246009,-0.03136 0.628906,0.154297 A 1,1 0 0 0 16.972656,29.460937 1,1 0 0 0 16.509766,28.125 c -0.407152,-0.19742 -0.879398,-0.356507 -1.361328,-0.373047 z"
     id="path3" />
  <path
     style="color:#000000;fill:#000000;stroke-linecap:round;stroke-linejoin:round;-inkscape-stroke:none"
     d="M 34.283203,3.5097656 A 1.0001,1.0001 0 0 0 33.537109,3.703125 c 0,0 -0.532707,0.4285485 -0.939453,1.1855469 -0.406746,0.7569983 -0.766938,1.9065016 -0.726562,3.4824219 a 1,1 0 0 0 1.02539,0.9746093 1,1 0 0 0 0.972657,-1.0253906 c -0.02486,-0.9701632 0.19166,-1.4524807 0.378906,-1.9238281 0.561941,0.7758137 1.195189,1.6237169 2.5,3.5644531 1.648548,2.4520005 3.258485,5.1680205 3.929687,6.7656245 -0.662012,0.576176 -3.477142,3.020192 -5.273437,4.667969 a 1.0001,1.0001 0 0 0 -0.07813,1.394531 c 0,0 0.775516,0.624273 1.851562,1.197266 -0.510382,0.400508 -0.68142,0.497352 -1.425781,1.166016 -1.425965,1.280953 -3.004522,2.797043 -3.605469,4.478515 A 1,1 0 0 0 32.75,30.910156 1,1 0 0 0 34.029297,30.304687 c 0.306652,-0.858024 1.720114,-2.461896 3.060547,-3.666015 1.340432,-1.204119 2.572265,-2.101563 2.572265,-2.101563 a 1.0001,1.0001 0 0 0 -0.417968,-1.794922 c -0.685674,-0.11867 -1.194505,-0.400245 -1.59961,-0.660156 2.04012,-1.830624 4.951172,-4.382812 4.951172,-4.382812 a 1.0001,1.0001 0 0 0 0.287109,-1.085938 C 42.170121,14.580017 40.21759,11.534978 38.408203,8.84375 36.598816,6.1525217 34.945312,3.9082031 34.945312,3.9082031 A 1.0001,1.0001 0 0 0 34.283203,3.5097656 Z"
     id="path4" />
  <path
     style="color:#000000;fill:#000000;stroke-linecap:round;stroke-linejoin:round;-inkscape-stroke:none"
     d="m 35.367187,25.816406 a 1,1 0 0 0 -0.917968,1.076172 c 0.136693,1.721039 -0.05249,3.333527 -0.44336,4.287109 -0.195435,0.476792 -0.431166,0.766122 -0.609375,0.888672 -0.178209,0.12255 -0.290334,0.160494 -0.613281,0.07422 a 1,1 0 0 0 -1.224609,0.707031 1,1 0 0 0 0.708984,1.22461 c 0.792903,0.211824 1.639301,0.06999 2.263672,-0.359375 0.624371,-0.429365 1.033682,-1.063774 1.326172,-1.777344 0.584979,-1.42714 0.740344,-3.259067 0.585937,-5.203125 a 1,1 0 0 0 -1.076172,-0.917969 z"
     id="path5" />
  <path
     style="color:#000000;fill:#000000;stroke-linecap:round;stroke-linejoin:round;-inkscape-stroke:none"
     d="m 27.716797,34.488281 c 0,0 -0.637186,0.06988 -1.398438,0.265625 -0.761251,0.195744 -1.681131,0.467554 -2.40625,1.173828 a 1,1 0 0 0 -0.01758,1.414063 1,1 0 0 0 1.414063,0.01758 c 0.20608,-0.200724 0.893515,-0.510012 1.507812,-0.667969 0.614297,-0.157956 1.121094,-0.214844 1.121094,-0.214844 a 1,1 0 0 0 0.882812,-1.105468 1,1 0 0 0 -1.103515,-0.882813 z"
     id="path6" />
  <path
     style="color:#000000;fill:#000000;stroke-linecap:round;stroke-linejoin:round;-inkscape-stroke:none"
     d="m 26.884766,28.027344 a 1,1 0 0 0 -1.070313,0.923828 l -0.257812,3.464844 a 1,1 0 0 0 -1.361329,0.123046 1,1 0 0 0 0.125,1.408204 l 1.451172,1.21289 a 1.0001,1.0001 0 0 0 1.638672,-0.691406 l 0.398438,-5.369141 a 1,1 0 0 0 -0.923828,-1.072265 z"
     id="polyline6" />
  <path
     style="color:#000000;fill:#000000;stroke-linecap:round;stroke-linejoin:round;-inkscape-stroke:none"
     d="m 18.787109,25.130859 a 1,1 0 0 0 -1.128906,0.853516 1,1 0 0 0 0.853516,1.128906 l 4.970703,0.689453 a 1,1 0 0 0 1.126953,-0.853515 1,1 0 0 0 -0.853516,-1.126953 z"
     id="line6" />
  <path
     style="color:#000000;fill:#000000;stroke-linecap:round;stroke-linejoin:round;-inkscape-stroke:none"
     d="m 26.986328,25.666016 a 1,1 0 0 0 -1.029297,0.970703 1,1 0 0 0 0.970703,1.029297 L 31.970703,27.8125 A 1,1 0 0 0 33,26.841797 1,1 0 0 0 32.029297,25.8125 Z"
     id="line7" />
  <path
     style="color:#000000;fill:#000000;stroke-linecap:round;stroke-linejoin:round;-inkscape-stroke:none"
     d="m 22.404297,27.552734 a 1,1 0 0 0 -1,1 v 0.853516 a 1,1 0 0 0 1,1 1,1 0 0 0 1,-1 v -0.853516 a 1,1 0 0 0 -1,-1 z"
     id="line8" />
  <path
     style="color:#000000;fill:#000000;stroke-linecap:round;stroke-linejoin:round;-inkscape-stroke:none"
     d="m 28.371094,27.171875 a 1,1 0 0 0 -1,1 v 0.853516 a 1,1 0 0 0 1,1 1,1 0 0 0 1,-1 v -0.853516 a 1,1 0 0 0 -1,-1 z"
     id="line9" />
  <path
     style="color:#000000;fill:#000000;stroke-linecap:round;stroke-linejoin:round;-inkscape-stroke:none"
     d="m 22.919922,29.824219 -1.197266,0.798828 a 1,1 0 0 0 -0.277344,1.386719 1,1 0 0 0 1.386719,0.277343 l 1.197266,-0.796875 a 1,1 0 0 0 0.277344,-1.386718 1,1 0 0 0 -1.386719,-0.279297 z"
     id="line10" />
</svg>
