<?xml version="1.0" encoding="UTF-8"?>
<svg id="svg8" version="1.1" viewBox="0 0 48 48" xmlns="http://www.w3.org/2000/svg">
 <defs id="defs1">
  <style id="style1">.a{fill:none;stroke:#000;stroke-width:2px;stroke-linecap:round;stroke-linejoin:round;}</style>
 </defs>
 <path id="rect1" d="m11.85 22.574a1.0001 1.0001 0 0 0-1 1v6.959a1.0001 1.0001 0 0 0 1 1h13.598a1.0001 1.0001 0 0 0 1-1v-6.959a1.0001 1.0001 0 0 0-1-1zm1 2h11.598v4.959h-11.598z" stroke-linecap="round" stroke-linejoin="round"/>
 <path id="polyline1" d="m4.5 22.574a1.0001 1.0001 0 0 0-1 1v5.3066a1.0001 1.0001 0 0 0 0.052734 0.32227l0.56445 1.6543a1.0001 1.0001 0 0 0 0.94727 0.67578h0.66797a1 1 0 0 0 1-1 1 1 0 0 0-1-1h0.046875l-0.2793-0.81836v-4.1406h5.3496v5.0332a1 1 0 0 0-0.82031 0.92578 1 1 0 0 0 1 1h0.82031a1.0001 1.0001 0 0 0 1-1v-6.959a1.0001 1.0001 0 0 0-1-1z" stroke-linecap="round" stroke-linejoin="round"/>
 <path id="path1" d="m25.447 22.574a1.0001 1.0001 0 0 0-1 1v6.959a1.0001 1.0001 0 0 0 1 1h1.1309a1 1 0 0 0 1-1 1 1 0 0 0-1-1h-0.13086v-4.8887c3.4711 0.09621 6.1519 0.56956 7.8633 1.0879 1.5658 0.47424 1.9887 0.76636 2.2227 0.90234v2.2793l-3.0469 0.61914h-1.6133a1 1 0 0 0-1 1 1 1 0 0 0 1 1h1.7148a1.0001 1.0001 0 0 0 0.19922-0.01953l3.9453-0.80274a1.0001 1.0001 0 0 0 0.80078-0.98047v-3.752a1.0001 1.0001 0 0 0-0.46484-0.8457s-1.1009-0.68543-3.1777-1.3145c-2.0769-0.62902-5.1982-1.2441-9.4434-1.2441z" stroke-linecap="round" stroke-linejoin="round"/>
 <path id="polygon1" d="m13.121 16.248a1.0001 1.0001 0 0 0-0.98047 0.80469l-1.2715 6.3242a1.0001 1.0001 0 0 0 0.98047 1.1973h13.598a1.0001 1.0001 0 0 0 0.75976-1.6504l-0.86719-1.0156-4.541-5.3086a1.0001 1.0001 0 0 0-0.75977-0.35156zm0.81836 2h5.6387l3.6973 4.3262h-10.205z" stroke-linecap="round" stroke-linejoin="round"/>
 <path id="path2" d="m31.414 20.033a1 1 0 0 0-1 1 1 1 0 0 0 1 1c4.052 0 6.9734 0.58522 8.8652 1.1582 1.5642 0.47374 1.9858 0.76392 2.2207 0.90039v3.0977a1 1 0 0 0 1 1 1 1 0 0 0 1-1v-3.7539a1.0001 1.0001 0 0 0-0.46484-0.84375s-1.1009-0.68543-3.1777-1.3145c-2.0769-0.62902-5.1982-1.2441-9.4434-1.2441z" stroke-linecap="round" stroke-linejoin="round"/>
 <path id="polyline2" d="m19.088 13.707a1 1 0 0 0-1 1 1 1 0 0 0 1 1h6.459l4.2383 4.9609a1.0001 1.0001 0 0 0 2e-3 0l0.86719 1.0137a1 1 0 0 0 1.4102 0.10938 1 1 0 0 0 0.10938-1.4102l-0.86719-1.0137-4.5391-5.3086a1.0001 1.0001 0 0 0-0.75977-0.35156z" stroke-linecap="round" stroke-linejoin="round"/>
 <path id="polyline3" d="m13.426 16.297a1 1 0 0 0-0.76172 0.0625l-8.6211 4.4355a1.0001 1.0001 0 0 0-0.54297 0.89062v1.8887a1 1 0 0 0 1 1 1 1 0 0 0 1-1v-1.2793l8.0781-4.1562a1 1 0 0 0 0.43164-1.3477 1 1 0 0 0-0.58398-0.49414z" stroke-linecap="round" stroke-linejoin="round"/>
 <path id="circle3" d="m8.3809 26.992c-2.0039 0-3.6504 1.6465-3.6504 3.6504 0 2.0039 1.6465 3.6504 3.6504 3.6504 2.0039 0 3.6504-1.6465 3.6504-3.6504s-1.6465-3.6504-3.6504-3.6504zm0 2c0.923 0 1.6504 0.72739 1.6504 1.6504s-0.72739 1.6504-1.6504 1.6504c-0.923 0-1.6504-0.72739-1.6504-1.6504s0.72739-1.6504 1.6504-1.6504z" stroke-linecap="round" stroke-linejoin="round"/>
 <path id="circle4" d="m29.227 26.992c-2.0039 0-3.6504 1.6465-3.6504 3.6504s1.6465 3.6504 3.6504 3.6504c2.0039 0 3.6484-1.6465 3.6484-3.6504s-1.6446-3.6504-3.6484-3.6504zm0 2c0.923 0 1.6484 0.72739 1.6484 1.6504s-0.72543 1.6504-1.6484 1.6504c-0.923 0-1.6504-0.72739-1.6504-1.6504s0.72739-1.6504 1.6504-1.6504z" stroke-linecap="round" stroke-linejoin="round"/>
 <path id="line4" d="m26.381 13.779a1 1 0 0 0-0.76562 0.0078l-5.9688 2.543a1 1 0 0 0-0.52734 1.3105 1 1 0 0 0 1.3125 0.5293l5.9668-2.543a1 1 0 0 0 0.52734-1.3105 1 1 0 0 0-0.54492-0.53711z" stroke-linecap="round" stroke-linejoin="round"/>
 <path id="line5" d="m19.461 13.779a1 1 0 0 0-0.76367 0.0078l-5.9688 2.543a1 1 0 0 0-0.52734 1.3105 1 1 0 0 0 1.3125 0.5293l5.9668-2.543a1 1 0 0 0 0.52734-1.3105 1 1 0 0 0-0.54688-0.53711z" stroke-linecap="round" stroke-linejoin="round"/>
 <path id="line6" d="m31.021 20.113-5.9668 2.541a1 1 0 0 0-0.52734 1.3105 1 1 0 0 0 1.3105 0.5293l5.9688-2.541a1 1 0 0 0 0.52734-1.3125 1 1 0 0 0-1.3125-0.52734z" stroke-linecap="round" stroke-linejoin="round"/>
 <path id="line7" d="m43.107 26.27-5.9668 2.541a1 1 0 0 0-0.52734 1.3125 1 1 0 0 0 1.3105 0.52734l5.9688-2.541a1 1 0 0 0 0.52734-1.3125 1 1 0 0 0-1.3125-0.52734z" stroke-linecap="round" stroke-linejoin="round"/>
 <path id="line8" d="m43.873 22.646a1 1 0 0 0-0.76562 0.0078l-5.9668 2.541a1 1 0 0 0-0.52734 1.3125 1 1 0 0 0 1.3105 0.52734l5.9688-2.541a1 1 0 0 0 0.52734-1.3125 1 1 0 0 0-0.54688-0.53516z" stroke-linecap="round" stroke-linejoin="round"/>
</svg>
