<?xml version="1.0" encoding="UTF-8"?>
<svg id="a" version="1.1" viewBox="0 0 48 48" xmlns="http://www.w3.org/2000/svg">
 <defs id="defs1">
  <style id="style1">.b{fill:none;stroke:#000;stroke-width:2px;stroke-linecap:round;stroke-linejoin:round;}</style>
 </defs>
 <path id="path1" d="m38.893 17.111a1.0001 1.0001 0 0 0-1.2754 1.3477l1.8223 3.9844-1.6055 6.1621a1.0001 1.0001 0 0 0 0.09375 0.73633s1.4995 2.5724-0.10156 6.6172c-1.4884 3.7603-4.6006 6.6687-5.123 7.1484-2.992-0.4743-5.1941-1.4105-6.5938-2.2695-1.4803-0.90849-2.082-1.6309-2.082-1.6309a1 1 0 0 0-1.4102-0.11133 1 1 0 0 0-0.11133 1.4102s0.86538 0.996 2.5586 2.0352 4.2713 2.1824 7.8301 2.6602a1.0001 1.0001 0 0 0 0.79102-0.23828s4.1328-3.5504 6-8.2676c1.6816-4.2483 0.44473-7.1603 0.14258-7.8145l1.6367-6.2793a1.0001 1.0001 0 0 0-0.05859-0.66797l-1.0918-2.3887c2.5306 0.45098 4.4531-0.03516 4.4531-0.03516a1 1 0 0 0 0.69531-1.2305 1 1 0 0 0-1.2305-0.69531s-2.4242 0.67424-5.3398-0.47266z" stroke-linecap="round" stroke-linejoin="round"/>
 <path id="path2" d="m13.145 22.27c-0.5724-0.02851-1.1321 0.09336-1.6113 0.33008-0.95854 0.47344-1.678 1.2937-2.1895 2.1953s-0.82487 1.8909-0.77734 2.873c0.083562 1.7267 0.90387 3.4866 2.0527 4.8613 0.92786 1.1103 2.1712 1.8373 3.5254 1.9961l2.0801 6.1543a1.0001 1.0001 0 0 0 0.16797 0.30664c1.8874 2.3458 4.9382 3.0113 7.4238 3.1758 2.4856 0.16446 4.543-0.20117 4.543-0.20117a1 1 0 0 0 0.8125-1.1582 1 1 0 0 0-1.1582-0.81055s-1.8445 0.32072-4.0645 0.17383c-2.1852-0.14459-4.5796-0.79208-5.9141-2.377l-2.1621-6.3945a1.0001 1.0001 0 0 0-1.1133-0.66406c-0.66983 0.11373-1.715-0.41884-2.6055-1.4844-0.89046-1.0655-1.5379-2.5592-1.5918-3.6738-0.02122-0.43852 0.16371-1.1603 0.52148-1.791 0.35778-0.63068 0.87956-1.1633 1.3359-1.3887s0.76219-0.25964 1.2754 0.09375c0.5132 0.35338 1.2212 1.2634 1.8457 3.0508a1 1 0 0 0 1.2734 0.61524 1 1 0 0 0 0.61328-1.2734c-0.70449-2.0163-1.5427-3.3126-2.5977-4.0391-0.52748-0.36321-1.1132-0.5418-1.6855-0.57031z" stroke-linecap="round" stroke-linejoin="round"/>
 <path id="path3" d="m13.67 26.395c-0.67333-0.0215-1.2616 0.36141-1.6016 0.89258-0.67988 1.0623-0.462 2.6503 0.85156 4.2266a1 1 0 0 0 1.4082 0.12891 1 1 0 0 0 0.12891-1.4082c-0.71424-0.8571-0.75468-1.3153-0.72266-1.5859a1 1 0 0 0 0.99609 0.20898 1 1 0 0 0 0.51562-1.3164c-0.2756-0.62995-0.90284-1.125-1.5762-1.1465z" stroke-linecap="round" stroke-linejoin="round"/>
 <path id="path4" d="m34.873 21.379a1 1 0 0 0-1.3047 0.54688c-0.78729 1.9191-1.332 4.373-1.332 4.373a1.0001 1.0001 0 0 0 0.05664 0.61523c0.82201 1.918 1.917 3.2152 2.5293 4.3887 0.61226 1.1735 0.87496 2.1466 0.23828 4.0156-0.25149 0.73828-0.66656 1.0273-1.3066 1.1973s-1.5025 0.1092-2.25-0.11914c-0.70124-0.2142-1.2305-0.59631-1.4199-0.80078a1 1 0 0 0 0.33203-1.3184 1 1 0 0 0-1.3633-0.37891c-0.50134 0.28408-0.9398 0.73752-1.0586 1.3301-0.11879 0.59255 0.11044 1.1415 0.4043 1.5273 0.58772 0.77175 1.4875 1.2369 2.5215 1.5527 1.034 0.31586 2.2134 0.44182 3.3477 0.14062 1.1343-0.3012 2.2267-1.1395 2.6855-2.4863 0.78392-2.3013 0.40514-4.1244-0.35742-5.5859-0.71353-1.3676-1.6242-2.5187-2.3066-3.9766 0.08264-0.34994 0.50892-2.2007 1.1309-3.7168a1 1 0 0 0-0.54688-1.3047z" stroke-linecap="round" stroke-linejoin="round"/>
 <path id="path5" d="m30.896 38.475c-0.99817 0.0075-1.6622 0.02834-2.2832 0.23828-0.3105 0.10497-0.63353 0.28445-0.87109 0.57226-0.23757 0.28782-0.34562 0.63937-0.38086 0.93164-0.0587 0.48653 0.16983 0.98865 0.45117 1.2754 0.28134 0.28674 0.59123 0.44294 0.91016 0.56445 0.63785 0.24302 1.3501 0.33524 2.0605 0.34766 0.71048 0.01242 1.395-0.04946 2.0156-0.27734 0.31032-0.11394 0.62824-0.26053 0.90625-0.60742s0.37916-0.98532 0.20312-1.4199c-0.44535-1.0996-1.6207-1.6355-3.0117-1.625z" stroke-linecap="round" stroke-linejoin="round"/>
 <path id="path6" d="m26.396 24.398c-2.7146-0.09691-5.0755 2.0672-4.8828 4.6035 0.09906 1.3041 1.0924 2.1915 2.043 2.5234 0.95054 0.33194 1.9145 0.32272 2.6562 0.22656 0.73586-0.09539 1.6853-0.32891 2.541-0.87891 0.85568-0.55 1.6443-1.6264 1.4609-2.9297-0.31351-2.2284-2.1201-3.4843-3.8184-3.5449zm-0.07227 1.998c0.86818 0.03099 1.7197 0.47218 1.9102 1.8262 0.06865 0.48794-0.0949 0.6682-0.5625 0.96875-0.4676 0.30055-1.2134 0.51117-1.7148 0.57617-0.49556 0.06424-1.2492 0.04326-1.7422-0.12891-0.49301-0.17216-0.66859-0.28104-0.70703-0.78711-0.08234-1.084 1.262-2.5106 2.8164-2.4551z" stroke-linecap="round" stroke-linejoin="round"/>
 <path id="path7" d="m36.477 24.523c-1.5085 0.12702-2.901 1.4347-3.3008 3.623a1 1 0 0 0 0.80274 1.1621 1 1 0 0 0 1.1641-0.80274c0.29608-1.6205 0.90604-1.9381 1.502-1.9883 0.59591-0.05018 1.3879 0.37168 1.7559 1.0273a1 1 0 0 0 1.3613 0.38281 1 1 0 0 0 0.38086-1.3613c-0.74292-1.3237-2.1575-2.17-3.666-2.043z" stroke-linecap="round" stroke-linejoin="round"/>
 <path id="path8" d="m38.539 27.809a1 1 0 0 0-0.59375 0.48242c-0.3989 0.73892-0.91681 0.95505-1.4238 1.0586-0.50702 0.10354-0.88672 0.0332-0.88672 0.0332a1 1 0 0 0-1.1719 0.79102 1 1 0 0 0 0.79102 1.1719s0.75919 0.15043 1.668-0.03516c0.90878-0.18558 2.0813-0.76818 2.7832-2.0684a1 1 0 0 0-0.4043-1.3555 1 1 0 0 0-0.76172-0.07813z" stroke-linecap="round" stroke-linejoin="round"/>
 <path id="path9" d="m37.816 3.0703s-2.5231 0.97113-5.6035 1.9941c-3.0804 1.023-6.7667 2.0899-8.7969 2.2832a1 1 0 0 0-0.90039 1.0898 1 1 0 0 0 1.0898 0.90039c2.461-0.23436 6.1091-1.3377 9.2383-2.377s5.6914-2.0234 5.6914-2.0234a1 1 0 0 0 0.57422-1.293 1 1 0 0 0-1.293-0.57422z" stroke-linecap="round" stroke-linejoin="round"/>
 <path id="path10" d="m35.354 6.3691a1 1 0 0 0-0.90625 1.0879 1 1 0 0 0 1.0879 0.9043c0.78822-0.07229 2.5539 0.067598 4.0254 0.24805 1.4714 0.18045 2.6992 0.38281 2.6992 0.38281a1 1 0 0 0 1.1484-0.82227 1 1 0 0 0-0.82227-1.1504s-1.2631-0.20835-2.7812-0.39453c-1.5182-0.18618-3.2408-0.36687-4.4512-0.25586z" stroke-linecap="round" stroke-linejoin="round"/>
 <path id="path11" d="m36.881 10.211a1 1 0 0 0-1.3535 0.40625 1 1 0 0 0 0.4043 1.3555c1.5354 0.82778 3.4714 0.84773 5.082 0.76758 1.6107-0.08015 2.9102-0.33008 2.9102-0.33008a1 1 0 0 0 0.79492-1.1699 1 1 0 0 0-1.1699-0.79492s-1.1757 0.22427-2.6348 0.29688c-1.459 0.0726-3.1885-0.07583-4.0332-0.53125z" stroke-linecap="round" stroke-linejoin="round"/>
 <path id="path12" d="m38.137 13.053a1 1 0 0 0-1.207 0.73633 1 1 0 0 0 0.73438 1.207c0.92211 0.22395 2.1653 0.76576 3.3535 1.3027s2.2857 1.0732 3.2871 1.2734a1 1 0 0 0 1.1758-0.78516 1 1 0 0 0-0.78516-1.1758c-0.5262-0.10523-1.6587-0.59482-2.8535-1.1348-1.1948-0.53995-2.4886-1.1284-3.7051-1.4238z" stroke-linecap="round" stroke-linejoin="round"/>
 <path id="path13" d="m23.191 12.795a1 1 0 0 0-0.74609 0.16797 1 1 0 0 0-0.24023 1.3945c1.5614 2.2106 4.1203 3.4818 6.2598 4.2656 2.1395 0.78381 3.9336 1.0645 3.9336 1.0645a1 1 0 0 0 1.1445-0.83398 1 1 0 0 0-0.83398-1.1426s-1.6099-0.25358-3.5566-0.9668c-1.9468-0.71322-4.1548-1.9021-5.3125-3.541a1 1 0 0 0-0.64844-0.4082z" stroke-linecap="round" stroke-linejoin="round"/>
 <path id="path14" d="m19.824 2.8555s-0.93475 0.38777-1.7285 1.3984c-0.79377 1.0107-1.5378 2.6782-1.6035 5.2246a1 1 0 0 0 0.97461 1.0254 1 1 0 0 0 1.0254-0.97461c0.05649-2.1891 0.6578-3.379 1.1777-4.041 0.51993-0.662 0.86719-0.76367 0.86719-0.76367a1 1 0 0 0 0.57812-1.291 1 1 0 0 0-1.291-0.57812z" stroke-linecap="round" stroke-linejoin="round"/>
 <path id="path15" d="m26.625 3.3809s-1.8303 0.72457-3.6914 1.7383c-0.93054 0.50685-1.873 1.083-2.6387 1.7227s-1.4788 1.3351-1.5098 2.4199a1 1 0 0 0 0.9707 1.0273 1 1 0 0 0 1.0273-0.9707c-4.42e-4 0.01549 0.20298-0.44687 0.79492-0.94141s1.4482-1.0312 2.3125-1.502c1.7287-0.94159 3.4727-1.6367 3.4727-1.6367a1 1 0 0 0 0.56055-1.2988 1 1 0 0 0-1.2988-0.55859z" stroke-linecap="round" stroke-linejoin="round"/>
 <path id="path16" d="m13.029 10.398c-3.6228 1.9957-7.5 1.125-7.5 1.125a1 1 0 0 0-1.2012 0.74805 1 1 0 0 0 0.74805 1.1992s4.5547 1.0834 8.918-1.3203a1 1 0 0 0 0.39258-1.3574 1 1 0 0 0-1.3574-0.39453z" stroke-linecap="round" stroke-linejoin="round"/>
 <path id="path17" d="m10.371 14.557c-2.553 0.24086-4.4187 0.90088-5.6563 1.5176-1.2376 0.6167-1.9082 1.248-1.9082 1.248a1 1 0 0 0-0.027344 1.4141 1 1 0 0 0 1.4141 0.02539s0.38322-0.38281 1.4141-0.89648c1.0308-0.51368 2.6484-1.099 4.9531-1.3164a1 1 0 0 0 0.90039-1.0898 1 1 0 0 0-1.0898-0.90234z" stroke-linecap="round" stroke-linejoin="round"/>
 <path id="path18" d="m8.3613 17.152c-1.7259 0.87938-2.8058 1.8794-3.4531 2.6875-0.64736 0.80808-0.89258 1.5156-0.89258 1.5156a1 1 0 0 0 0.64258 1.2598 1 1 0 0 0 1.2598-0.64453s0.07537-0.28742 0.55078-0.88086c0.47541-0.59344 1.3188-1.4011 2.8008-2.1562a1 1 0 0 0 0.4375-1.3457 1 1 0 0 0-1.3457-0.43555z" stroke-linecap="round" stroke-linejoin="round"/>
 <path id="path19" d="m8.541 20.68a1 1 0 0 0-0.74805 0.1582c-1.6077 1.1-2.1345 3.117-2.4355 4.7969-0.30101 1.6799-0.29102 3.1367-0.29102 3.1367a1 1 0 0 0 1.0059 0.99414 1 1 0 0 0 0.99414-1.0059s-0.00445-1.2988 0.25977-2.7734c0.26422-1.4746 0.88147-3.0094 1.5957-3.498a1 1 0 0 0 0.26172-1.3906 1 1 0 0 0-0.64258-0.41797z" stroke-linecap="round" stroke-linejoin="round"/>
 <path id="path20" d="m16.615 12.537a1 1 0 0 0-0.69141 0.33008c-1.1968 1.3298-1.7607 3.2228-2.1211 4.8086-0.36042 1.5858-0.46875 2.8965-0.46875 2.8965a1 1 0 0 0 0.91406 1.0781 1 1 0 0 0 1.0781-0.91406s0.09877-1.1784 0.42578-2.6172c0.32701-1.4388 0.93028-3.1052 1.6582-3.9141a1 1 0 0 0-0.07422-1.4121 1 1 0 0 0-0.7207-0.25586z" stroke-linecap="round" stroke-linejoin="round"/>
 <path id="path21" d="m19.955 12.602a1 1 0 0 0-1.2891 0.58008c-1.4246 3.7557-1.5625 7.8926-1.5625 7.8926a1 1 0 0 0 0.96289 1.0371 1 1 0 0 0 1.0371-0.96094s0.16765-3.9275 1.4316-7.2598a1 1 0 0 0-0.58008-1.2891z" stroke-linecap="round" stroke-linejoin="round"/>
 <path id="path22" d="m29.168 19.676a1 1 0 0 0-0.75195 0.14062c-0.52573 0.34243-2.2531 1.0112-3.7285 1.4902-1.4754 0.47908-2.7637 0.83594-2.7637 0.83594a1 1 0 0 0-0.69727 1.2305 1 1 0 0 0 1.2305 0.69726s1.3239-0.36655 2.8477-0.86133c1.5237-0.49477 3.181-1.051 4.2031-1.7168a1 1 0 0 0 0.29297-1.3828 1 1 0 0 0-0.63281-0.43359z" stroke-linecap="round" stroke-linejoin="round"/>
 <path id="path23" d="m35.279 20.16a1 1 0 0 0-1.2559 0.64844 1 1 0 0 0 0.64844 1.2578c0.98692 0.31526 2.3193 0.49227 3.4648 0.62109 1.1455 0.12883 2.0801 0.19141 2.0801 0.19141a1 1 0 0 0 1.0645-0.93359 1 1 0 0 0-0.93359-1.0625s-0.8926-0.05842-1.9883-0.18164c-1.0957-0.12322-2.4172-0.32927-3.0801-0.54102z" stroke-linecap="round" stroke-linejoin="round"/>
 <path id="line23" d="m27.803 26.715a1 1 0 0 0-1.293 0.57226l-0.35156 0.9043a1 1 0 0 0 0.57227 1.293 1 1 0 0 0 1.293-0.57031l0.35156-0.9043a1 1 0 0 0-0.57227-1.2949z" stroke-linecap="round" stroke-linejoin="round"/>
 <path id="line24" d="m38.086 26.352a1 1 0 0 0-1.3105 0.53125l-0.34961 0.82812a1 1 0 0 0 0.5293 1.3105 1 1 0 0 0 1.3105-0.53125l0.35156-0.82812a1 1 0 0 0-0.53125-1.3105z" stroke-linecap="round" stroke-linejoin="round"/>
 <path id="path24" d="m14.264 7.3438a1 1 0 0 0-0.93164 1.0645c0.05326 0.79927 0.44652 1.3641 0.76758 1.7754 0.32106 0.41124 0.64062 0.69141 0.64062 0.69141a1 1 0 0 0 1.4121-0.0957 1 1 0 0 0-0.09375-1.4102s-0.18425-0.16168-0.38281-0.41602c-0.19856-0.25434-0.34122-0.58111-0.34766-0.67774a1 1 0 0 0-1.0645-0.93164z" stroke-linecap="round" stroke-linejoin="round"/>
 <path id="path25" d="m25 10.434a1 1 0 0 0-0.67578 0.35547 1 1 0 0 0 0.13086 1.4082c4.8996 4.0642 11.25 2.3047 11.25 2.3047a1 1 0 0 0 0.70508-1.2266 1 1 0 0 0-1.2266-0.70508s-5.435 1.4193-9.4512-1.9121a1 1 0 0 0-0.73242-0.22461z" stroke-linecap="round" stroke-linejoin="round"/>
 <path id="path26" d="m33.756 8.0371a1 1 0 0 0-0.66406 0.37891s-1.0298 1.4217-3.2363 1.2148a1 1 0 0 0-1.0898 0.90234 1 1 0 0 0 0.90234 1.0879c3.1767 0.29777 5.0059-1.9824 5.0059-1.9824a1 1 0 0 0-0.17969-1.4023 1 1 0 0 0-0.73828-0.19922z" stroke-linecap="round" stroke-linejoin="round"/>
 <path id="path27" d="m20.836 16.922a1 1 0 0 0-0.64844 1.2559c0.76168 2.389 3 2.9473 3 2.9473a1 1 0 0 0 1.1816-0.77734 1 1 0 0 0-0.77734-1.1816s-1.0261-0.11552-1.498-1.5957a1 1 0 0 0-1.2578-0.64844z" stroke-linecap="round" stroke-linejoin="round"/>
 <path id="path28" d="m22.131 16.322a1 1 0 0 0-0.13672 1.4082c0.58206 0.7076 1.1344 1.111 1.5918 1.3281 0.22872 0.10855 0.43138 0.1708 0.5957 0.20312 0.16432 0.03233 0.36133 0.03125 0.36133 0.03125a1 1 0 0 0 0.96094-1.0371 1 1 0 0 0-1.0371-0.96094s0.10547 0.0047 0.10156 0.0039c-0.0039-7.68e-4 -0.0453-0.0091-0.125-0.04687-0.1594-0.07565-0.47706-0.27162-0.9043-0.79102a1 1 0 0 0-1.4082-0.13867z" stroke-linecap="round" stroke-linejoin="round"/>
</svg>
