<?xml version="1.0" encoding="UTF-8" standalone="no"?>
<svg
   viewBox="0 0 48 48"
   version="1.1"
   id="svg8"
   sodipodi:docname="steam_icon_1567440.svg"
   xmlns:inkscape="http://www.inkscape.org/namespaces/inkscape"
   xmlns:sodipodi="http://sodipodi.sourceforge.net/DTD/sodipodi-0.dtd"
   xmlns="http://www.w3.org/2000/svg"
   xmlns:svg="http://www.w3.org/2000/svg">
  <sodipodi:namedview
     id="namedview8"
     pagecolor="#ffffff"
     bordercolor="#666666"
     borderopacity="1.0"
     inkscape:showpageshadow="2"
     inkscape:pageopacity="0.0"
     inkscape:pagecheckerboard="0"
     inkscape:deskcolor="#d1d1d1" />
  <defs
     id="defs1">
    <style
       id="style1">.a{fill:none;stroke:#000;stroke-width:2px;stroke-linecap:round;stroke-linejoin:round;}</style>
  </defs>
  <path
     style="color:#000000;fill:#000000;stroke-linecap:round;stroke-linejoin:round;-inkscape-stroke:none"
     d="m 39.15625,6.703125 a 1.0001,1.0001 0 0 0 -0.732422,0.2988281 l -9.275391,9.4218749 c -0.161293,-0.03192 -0.314677,-0.105123 -0.488281,-0.128906 -0.447848,-0.06135 -0.934912,-0.09633 -1.408203,-0.119141 -0.946583,-0.04561 -1.888069,-0.04265 -2.115234,-0.05078 -0.749203,-0.0268 -1.782607,0.06641 -2.144532,0.06641 a 1.0001,1.0001 0 0 0 -0.05469,0.002 c -1.293407,0.07122 -2.565919,0.319287 -3.824219,0.623047 L 10.541016,7.0429687 A 1.0001,1.0001 0 0 0 8.7890625,7.7421875 L 9.5800781,27.298828 C 9.0233532,29.44307 8.6452436,31.628772 8.4765625,33.837891 8.3495156,34.68857 8.45207,35.558644 8.78125,36.353516 a 1.0001,1.0001 0 0 0 0.125,0.21875 c 0.9905567,1.314894 2.156585,2.488977 3.464844,3.488281 a 1.0001,1.0001 0 0 0 0.103515,0.06836 c 0.351863,0.204561 0.602324,0.242251 0.955079,0.316406 0.352754,0.07416 0.771052,0.141754 1.25,0.205079 0.957895,0.126648 2.154619,0.238357 3.429687,0.333984 2.550136,0.191253 5.397379,0.3125 7.189453,0.3125 3.096145,0.02643 6.191732,-0.129173 9.269531,-0.466797 a 1.0001,1.0001 0 0 0 0.476563,-0.183594 c 1.692743,-1.228112 3.188157,-2.708634 4.433594,-4.388672 a 1.0001,1.0001 0 0 0 0.197265,-0.613281 C 39.62627,32.936025 39.256048,30.245253 38.625,27.611328 L 40.134766,7.7792969 A 1.0001,1.0001 0 0 0 39.15625,6.703125 Z M 37.931641,10.353516 36.625,27.525391 a 1.0001,1.0001 0 0 0 0.02539,0.316406 c 0.603296,2.445596 0.903999,4.951595 0.976562,7.46875 -1.031252,1.337734 -2.229688,2.53692 -3.583984,3.546875 -2.901492,0.306543 -5.816678,0.464651 -8.734375,0.439453 a 1.0001,1.0001 0 0 0 -0.0098,0 c -1.699822,0 -4.539307,-0.119019 -7.041016,-0.306641 -1.250854,-0.09381 -2.421009,-0.205833 -3.316406,-0.324218 -0.447698,-0.05919 -0.828656,-0.120365 -1.101562,-0.177735 -0.238665,-0.05017 -0.349078,-0.10161 -0.314453,-0.07617 C 12.4308,37.567 11.458109,36.578466 10.615234,35.482422 10.454815,35.047276 10.380745,34.582656 10.451172,34.123047 a 1.0001,1.0001 0 0 0 0.0098,-0.07617 c 0.162907,-2.179252 0.526232,-4.339249 1.08789,-6.451172 a 1.0001,1.0001 0 0 0 0.0332,-0.296875 l -0.679687,-16.8125 7.068359,8.060547 a 1.0001,1.0001 0 0 0 1.015625,0.304687 c 1.325725,-0.364204 2.687796,-0.586379 4.060547,-0.662109 h 0.002 c 0.607669,-0.0043 1.549913,-0.08118 2.017578,-0.06445 0.387834,0.01387 1.213378,0.0066 2.089844,0.04883 0.438233,0.02112 0.878578,0.05504 1.232422,0.103516 0.353844,0.04848 0.643089,0.139904 0.636719,0.136718 a 1.0001,1.0001 0 0 0 1.160156,-0.191406 z"
     id="path1" />
  <path
     style="color:#000000;fill:#000000;stroke-linecap:round;stroke-linejoin:round;-inkscape-stroke:none"
     d="M 39.560547,6.796875 A 1,1 0 0 0 38.230469,7.2792969 L 31.554687,21.578125 a 1.0001,1.0001 0 0 0 0.22461,1.15625 c 1.825682,1.693848 3.517336,3.52858 5.05664,5.486328 a 1,1 0 0 0 1.404297,0.167969 1,1 0 0 0 0.167969,-1.404297 C 36.95893,25.141133 35.342624,23.438461 33.648437,21.818359 L 40.042969,8.125 A 1,1 0 0 0 39.560547,6.796875 Z"
     id="path2" />
  <path
     style="color:#000000;fill:#000000;stroke-linecap:round;stroke-linejoin:round;-inkscape-stroke:none"
     d="M 9.4140625,6.7753906 A 1,1 0 0 0 8.8613281,8.0761719 L 14.384766,21.783203 c -0.238043,0.21719 -0.459313,0.376887 -0.744141,0.667969 -0.532234,0.543919 -1.131148,1.191817 -1.695312,1.818359 -1.12833,1.253084 -2.1230474,2.419922 -2.1230474,2.419922 a 1,1 0 0 0 0.1113282,1.410156 1,1 0 0 0 1.4101562,-0.111328 c 0,0 0.981348,-1.151971 2.087891,-2.380859 0.553271,-0.614444 1.139272,-1.247449 1.638672,-1.757813 0.499399,-0.510363 0.98316,-0.926502 1.037109,-0.960937 a 1.0001,1.0001 0 0 0 0.388672,-1.216797 L 10.716797,7.328125 A 1,1 0 0 0 9.4140625,6.7753906 Z"
     id="path3" />
  <path
     style="color:#000000;fill:#000000;stroke-linecap:round;stroke-linejoin:round;-inkscape-stroke:none"
     d="m 4.7832031,30.6875 a 1,1 0 0 0 -1.2421875,0.677734 1,1 0 0 0 0.6757813,1.240235 l 6.4003911,1.886718 a 1,1 0 0 0 1.240234,-0.675781 1,1 0 0 0 -0.675781,-1.242187 z"
     id="line3" />
  <path
     style="color:#000000;fill:#000000;stroke-linecap:round;stroke-linejoin:round;-inkscape-stroke:none"
     d="M 10.919922,34.367187 4.3203125,35.580078 A 1,1 0 0 0 3.515625,36.744141 1,1 0 0 0 4.6796875,37.546875 L 11.28125,36.335937 a 1,1 0 0 0 0.802734,-1.164062 1,1 0 0 0 -1.164062,-0.804688 z"
     id="line4" />
  <path
     style="color:#000000;fill:#000000;stroke-linecap:round;stroke-linejoin:round;-inkscape-stroke:none"
     d="m 43.25,30.947266 -6.263672,1.617187 a 1,1 0 0 0 -0.71875,1.21875 1,1 0 0 0 1.21875,0.71875 L 43.75,32.884766 a 1,1 0 0 0 0.71875,-1.21875 1,1 0 0 0 -1.21875,-0.71875 z"
     id="line5" />
  <path
     style="color:#000000;fill:#000000;stroke-linecap:round;stroke-linejoin:round;-inkscape-stroke:none"
     d="m 37.207031,34.677734 a 1,1 0 0 0 -1.158203,0.810547 1,1 0 0 0 0.8125,1.158203 l 6.464844,1.138672 a 1,1 0 0 0 1.158203,-0.8125 1,1 0 0 0 -0.810547,-1.158203 z"
     id="line6" />
  <path
     style="color:#000000;fill:#000000;stroke-linecap:round;stroke-linejoin:round;-inkscape-stroke:none"
     d="m 25.425781,32.384766 c -0.446886,0.05156 -0.896869,0.06148 -1.345703,0.03125 a 1,1 0 0 0 -1.064453,0.929687 1,1 0 0 0 0.929687,1.066406 c 0.570062,0.0384 1.143351,0.02448 1.710938,-0.04102 a 1,1 0 0 0 0.878906,-1.109375 1,1 0 0 0 -1.109375,-0.876953 z"
     id="path6" />
  <path
     style="color:#000000;fill:#000000;stroke-linecap:round;stroke-linejoin:round;-inkscape-stroke:none"
     d="M 24.957031,34.183594 A 1.0001,1.0001 0 0 0 24.0625,34.466797 c -0.263652,0.268676 -1.025316,0.857699 -1.861328,1.24414 -0.836012,0.386442 -1.733367,0.565751 -2.375,0.384766 a 1,1 0 0 0 -1.234375,0.689453 1,1 0 0 0 0.691406,1.234375 c 1.345465,0.379515 2.671674,0.009 3.755859,-0.492187 0.671143,-0.310232 1.049072,-0.672696 1.517579,-1.027344 0.303712,0.308062 0.693088,0.635636 1.222656,0.912109 1.125044,0.587356 2.788619,0.904572 4.919922,0.355469 a 1,1 0 0 0 0.71875,-1.216797 1,1 0 0 0 -1.216797,-0.71875 c -1.724893,0.444397 -2.79879,0.172638 -3.496094,-0.191406 -0.348652,-0.182022 -0.604191,-0.396319 -0.775391,-0.576172 -0.171199,-0.179853 -0.268083,-0.372977 -0.236328,-0.300781 a 1.0001,1.0001 0 0 0 -0.736328,-0.580078 z"
     id="path7" />
  <path
     style="color:#000000;fill:#000000;stroke-linecap:round;stroke-linejoin:round;-inkscape-stroke:none"
     d="m 17.611328,27.330078 a 1,1 0 0 0 -0.994141,1.005859 l 0.01758,2.492188 a 1,1 0 0 0 1.005859,0.994141 1,1 0 0 0 0.994141,-1.007813 l -0.01758,-2.492187 a 1,1 0 0 0 -1.005859,-0.992188 z"
     id="line7" />
  <path
     style="color:#000000;fill:#000000;stroke-linecap:round;stroke-linejoin:round;-inkscape-stroke:none"
     d="m 30.792969,27.515625 a 1,1 0 0 0 -1.023438,0.976562 l -0.05078,2.205079 a 1,1 0 0 0 0.976562,1.023437 1,1 0 0 0 1.023438,-0.976562 l 0.05078,-2.207032 a 1,1 0 0 0 -0.976562,-1.021484 z"
     id="line8" />
</svg>
