<?xml version="1.0" encoding="UTF-8"?>
<svg id="a" version="1.1" viewBox="0 0 48 48" xmlns="http://www.w3.org/2000/svg">
 <defs id="defs1">
  <style id="style1">.b{fill:none;stroke:#000;stroke-width:2px;stroke-linecap:round;stroke-linejoin:round;}</style>
 </defs>
 <path id="line1" d="m24 5.541a1 1 0 0 0-1 1v37.459a1 1 0 0 0 1 1 1 1 0 0 0 1-1v-37.459a1 1 0 0 0-1-1z" stroke-linecap="round" stroke-linejoin="round"/>
 <path id="path1" d="m6.1543 3.0625a1 1 0 0 0-0.5918 1.2832c0.90383 2.4551 2.0994 3.8306 3.4766 4.6367 1.3772 0.80609 2.7809 1.0766 4.2773 1.6895 1.3724 0.56206 4.1067 2.7442 5.4883 3.9414a1 1 0 0 0 1.4102-0.10156 1 1 0 0 0-0.10156-1.4102c-1.4231-1.2332-3.9833-3.4374-6.0391-4.2793-1.684-0.68966-3.0259-0.97942-4.0254-1.5645-0.99949-0.58503-1.8118-1.4316-2.6113-3.6035a1 1 0 0 0-1.2832-0.5918z" stroke-linecap="round" stroke-linejoin="round"/>
 <path id="path2" d="m13.451 8.7773a1 1 0 0 0-0.72656 1.2129s2.1574 8.5838 2.6738 20.48c0.08983 2.0707 0.76837 3.5996 1.3184 4.8789a1 1 0 0 0 1.3125 0.52344 1 1 0 0 0 0.52344-1.3125c-0.55541-1.2919-1.0831-2.4913-1.1562-4.1777-0.52514-12.097-2.7305-20.879-2.7305-20.879a1 1 0 0 0-1.2148-0.72656z" stroke-linecap="round" stroke-linejoin="round"/>
 <path id="path3" d="m24.283 8.2383a1 1 0 0 0-1.2422 0.67578s-1.3751 4.615-3.3672 8.3281a1.0001 1.0001 0 0 0-0.11133 0.58203c0.60617 5.5418 0.9707 14.174 0.9707 14.174a1.0001 1.0001 0 0 0 0.01367 0.12695s1.1265 6.6059 2.4922 11.395a1 1 0 0 0 1.2344 0.6875 1 1 0 0 0 0.6875-1.2363c-1.3076-4.5852-2.4288-11.111-2.4355-11.15-0.0046-0.10962-0.3602-8.298-0.95508-13.936 2.0418-3.9111 3.3887-8.4043 3.3887-8.4043a1 1 0 0 0-0.67578-1.2422z" stroke-linecap="round" stroke-linejoin="round"/>
 <path id="path4" d="m6.8516 4.3926a1 1 0 0 0-0.73633 1.207c0.53865 2.2188 1.4463 3.4847 2.3066 4.5977 0.8603 1.113 1.6726 2.1003 2.4355 4.2168 0.70202 1.9477 1.164 6.4723 1.9043 10.801 0.37014 2.1642 0.82192 4.3023 1.4727 6.1465s1.4814 3.4321 2.8105 4.4023a1.0001 1.0001 0 0 0 1.5859-0.88477s-0.39034-5.1684-0.55273-10.533c-0.0812-2.6824-0.10405-5.4143 0.0039-7.543 0.05398-1.0644 0.14264-1.9814 0.26172-2.6348 0.11908-0.65338 0.40672-1.0425 0.22656-0.87891a1 1 0 0 0 0.06641-1.4141 1 1 0 0 0-1.4121-0.06641c-0.63806 0.57954-0.70195 1.2005-0.84766 2-0.1457 0.79946-0.23646 1.7783-0.29297 2.8926-0.11302 2.2286-0.08598 4.9936-0.0039 7.7051 0.10821 3.5747 0.238 5.0479 0.36719 7.0039-0.10606-0.2518-0.23046-0.43613-0.32812-0.71289-0.58488-1.6575-1.0256-3.7069-1.3867-5.8184-0.72222-4.2229-1.0767-8.6046-1.9922-11.145-0.85469-2.3712-1.8957-3.6722-2.7363-4.7598-0.84063-1.0875-1.4811-1.9333-1.9453-3.8457a1 1 0 0 0-1.207-0.73633z" stroke-linecap="round" stroke-linejoin="round"/>
 <path id="path5" d="m41.846 3.0625a1 1 0 0 0-1.2832 0.5918c-0.79957 2.1719-1.6118 3.0185-2.6113 3.6035s-2.3414 0.8748-4.0254 1.5645c-2.0558 0.84195-4.616 3.0461-6.0391 4.2793a1 1 0 0 0-0.10156 1.4102 1 1 0 0 0 1.4102 0.10156c1.3815-1.1972 4.1159-3.3794 5.4883-3.9414 1.4964-0.61284 2.9002-0.88336 4.2773-1.6895 1.3772-0.80609 2.5727-2.1816 3.4766-4.6367a1 1 0 0 0-0.5918-1.2832z" stroke-linecap="round" stroke-linejoin="round"/>
 <path id="path6" d="m34.549 8.7773a1 1 0 0 0-1.2148 0.72656s-2.2053 8.7822-2.7305 20.879c-0.07316 1.6865-0.60084 2.8858-1.1562 4.1777a1 1 0 0 0 0.52344 1.3125 1 1 0 0 0 1.3125-0.52344c0.54999-1.2793 1.2285-2.8082 1.3184-4.8789 0.51646-11.897 2.6738-20.48 2.6738-20.48a1 1 0 0 0-0.72656-1.2129z" stroke-linecap="round" stroke-linejoin="round"/>
 <path id="path7" d="m23.717 8.2383a1 1 0 0 0-0.67578 1.2422s1.3469 4.4932 3.3887 8.4043c-0.59488 5.6376-0.95049 13.826-0.95508 13.936-0.0067 0.03904-1.1279 6.5652-2.4355 11.15a1 1 0 0 0 0.6875 1.2363 1 1 0 0 0 1.2344-0.6875c1.3657-4.7887 2.4922-11.395 2.4922-11.395a1.0001 1.0001 0 0 0 0.01367-0.12695s0.36453-8.632 0.9707-14.174a1.0001 1.0001 0 0 0-0.11133-0.58203c-1.9921-3.7131-3.3672-8.3281-3.3672-8.3281a1 1 0 0 0-1.2422-0.67578z" stroke-linecap="round" stroke-linejoin="round"/>
 <path id="path8" d="m41.148 4.3926a1 1 0 0 0-1.207 0.73633c-0.46425 1.9124-1.1047 2.7582-1.9453 3.8457-0.84063 1.0875-1.8816 2.3886-2.7363 4.7598-0.91548 2.54-1.27 6.9217-1.9922 11.145-0.36111 2.1114-0.80184 4.1609-1.3867 5.8184-0.09766 0.27676-0.22207 0.4611-0.32812 0.71289 0.12919-1.956 0.25898-3.4292 0.36719-7.0039 0.08208-2.7114 0.10911-5.4765-0.0039-7.7051-0.05651-1.1143-0.14727-2.0931-0.29297-2.8926-0.1457-0.79946-0.2096-1.4205-0.84766-2a1 1 0 0 0-1.4121 0.06641 1 1 0 0 0 0.06641 1.4141c-0.18016-0.16364 0.10748 0.22553 0.22656 0.87891 0.11908 0.65338 0.20774 1.5704 0.26172 2.6348 0.10795 2.1287 0.0851 4.8606 0.0039 7.543-0.1624 5.3648-0.55273 10.533-0.55273 10.533a1.0001 1.0001 0 0 0 1.5859 0.88477c1.3292-0.9702 2.1598-2.5582 2.8105-4.4023s1.1025-3.9822 1.4727-6.1465c0.74028-4.3285 1.2023-8.8531 1.9043-10.801 0.76291-2.1165 1.5753-3.1038 2.4355-4.2168 0.8603-1.113 1.768-2.3788 2.3066-4.5977a1 1 0 0 0-0.73633-1.207z" stroke-linecap="round" stroke-linejoin="round"/>
</svg>
