<?xml version="1.0" encoding="UTF-8"?>
<svg id="b" version="1.1" viewBox="0 0 48 48" xmlns="http://www.w3.org/2000/svg">
 <defs id="defs1">
  <style id="style1">.d{fill:none;stroke:#000;stroke-width:2px;stroke-linecap:round;stroke-linejoin:round;}</style>
 </defs>
 <path id="c" d="m25.359 3.5176c-0.44992 0.026507-0.87908 0.14453-1.2539 0.3418-1.24 0.65261-1.941 1.881-2.5898 3.1309-0.90666-0.32328-1.865-0.51631-2.8008-0.46875-1.2657 0.064324-2.5814 0.40323-3.2031 1.5996a1.0001 1.0001 0 0 0-0.0293 0.064453c-0.56061 1.2903-2.1349 1.9506-2.8516 1.8906-0.17916-0.01499-0.28368-0.06572-0.3125-0.085938-0.02882-0.020221-0.0088 0.013715-0.01758-0.027344-0.01763-0.082117 0.03235-0.66196 0.75781-1.623a1.0001 1.0001 0 0 0-1.3418-1.4414c-1.6234 1.0475-3.1475 2.2826-3.7754 4.0313-0.43697 1.2169-0.064526 2.6158 0.7168 4.0391-0.40938 0.29276-0.75426 0.64068-0.93555 1.0645-0.29737 0.69513-0.27396 1.4151-0.14453 2.0742 0.21535 1.0967 0.7642 1.9808 1.2402 2.7344-1.6803 4.1248-2.0303 8.691-0.99219 12.74 1.4214 5.5445 5.5462 10.151 12.092 10.855 3.4038 0.3661 6.4755-0.90883 8.9297-2.75 2.2733-1.7054 3.9896-3.8855 5.1621-5.8809 1.9098-0.03308 3.5091-1.1189 4.2324-2.6211 0.62156-1.2909 0.54739-2.9217-0.36523-4.2168 0.04077-0.04614 0.06675-0.13442 0.10547-0.18359a1 1 0 0 0 0.3125-0.54688c0.1533-0.26662 0.32892-0.47559 0.4707-0.82617a1 1 0 0 0 0.04102-0.04687 1 1 0 0 0 0.01953-0.05664c0.0017-0.0043 0.0042-0.0054 0.0059-0.0098 3.4107-5.9833 2.2204-13.612-3.0039-16.918-0.86262-1.8143-1.7886-3.0625-2.9375-3.8105-1.1227-0.73088-2.3742-0.94935-3.7109-1.0391-0.84345-0.83474-1.6436-1.5102-2.4414-1.8047-0.4596-0.16965-0.92899-0.23549-1.3789-0.20898zm0.6875 2.084c0.47651 0.1759 1.1759 0.64737 2.0449 1.5742a1.0001 1.0001 0 0 0 0.67969 0.31445c1.3255 0.067143 2.2414 0.24419 3.0273 0.75586 0.78595 0.51167 1.5421 1.426 2.3555 3.2148a1.0001 1.0001 0 0 0 0.4043 0.44922c3.7149 2.1812 4.951 7.3162 3.3867 12.062-0.56497-1.4502-1.435-2.8688-3.1719-4.1543 0.68594-0.54538 1.2423-1.1515 1.5039-1.8516 0.41256-1.1039 0.21357-2.3225-0.47656-3.2109-1.2661-1.63-3.9223-2.035-6.959-0.63476-0.53407-0.86395-1.0611-1.7246-1.668-2.1797-0.81544-0.61147-1.744-0.84092-2.5742-0.77148-1.4371 0.12019-2.5323 0.8699-3.4688 1.4102-1.3179-1.0053-2.6397-1.4357-3.75-1.0527-1.3026 0.44934-2.1225 1.5051-2.8516 2.4395s-1.4086 1.7852-1.8457 2.0391c-0.21853 0.12692-0.30998 0.14331-0.48438 0.10352-0.1744-0.0398-0.49253-0.19648-0.93359-0.6582-1.6598-1.7377-1.8026-2.8397-1.4414-3.8457 0.1153-0.32109 0.42362-0.65025 0.68359-0.97852 0.14985 0.38935 0.34333 0.77832 0.66211 1.002 0.39657 0.2782 0.84535 0.40201 1.293 0.43945 1.7905 0.14978 3.9123-0.91972 4.8535-3.0859l-0.0293 0.0625c0.06518-0.12542 0.63155-0.48172 1.5293-0.52734 0.89774-0.045626 1.983 0.17956 2.6738 0.56641a1.0001 1.0001 0 0 0 1.3789-0.41797c0.75046-1.4708 1.5571-2.7156 2.168-3.0371 0.30544-0.16075 0.53325-0.20324 1.0098-0.027344zm-1.2812 7.5625c0.40847-0.03416 0.74292 0.02747 1.209 0.37695 0.46606 0.34948 1.0449 1.0363 1.6602 2.2402a1.0001 1.0001 0 0 0 1.3809 0.41602c2.8481-1.6056 4.6221-0.96531 5.2051-0.21484 0.29147 0.37523 0.36975 0.78511 0.18359 1.2832s-0.69656 1.1116-1.7793 1.6094a1.0001 1.0001 0 0 0-0.05859 1.7891c1.6849 0.91474 2.5876 1.8638 3.1699 2.8887-0.84908-0.9723-1.7576-1.835-2.5723-2.3301a1 1 0 0 0-1.373 0.33594 1 1 0 0 0 0.33594 1.373c0.6597 0.40094 1.6176 1.3926 2.5176 2.5469-0.51904-0.57908-1.0821-1.0968-1.8203-1.6504a1 1 0 0 0-1.4004 0.20117 1 1 0 0 0 0.19922 1.4004c0.75935 0.56949 1.2613 1.0122 1.7051 1.5371-0.25199-0.20628-0.26844-0.3382-0.64648-0.57031a1 1 0 0 0-1.375 0.32812 1 1 0 0 0 0.32812 1.375c0.99958 0.61373 1.0896 0.82064 1.5078 1.334a1 1 0 0 0 1.4062 0.14258 1 1 0 0 0 0.30469-0.48242 1 1 0 0 0 0.76562 0.21094 1.0001 1.0001 0 0 0 0.0625 0.23242c1.1628 0.8271 1.2144 1.8329 0.75781 2.7812s-1.4945 1.6922-2.8535 1.5293a1.0001 1.0001 0 0 0-0.99609 0.51172c-1.0264 1.8716-2.7696 4.0992-4.9414 5.7285-2.1718 1.6293-4.7284 2.6611-7.5156 2.3613-5.7325-0.61713-9.1062-4.4369-10.369-9.3633-1.143-4.4587-0.31951-9.7319 2.2754-14.033a1 1 0 0 0 0.38476 0.52148 1 1 0 0 0 1.373-0.3418c-0.04228 0.07023 0.27316-0.24469 0.57031-0.4043 0.14858-0.07981 0.29499-0.14248 0.36719-0.16797 0.0361-0.01274 0.05873-0.01447 0.0078-0.0059-0.02546 0.0043-0.06665 0.015-0.17578 0.0078-0.10913-0.0072-0.34504-0.0049-0.625-0.29688a1 1 0 0 0 1.4141 0.03125 1 1 0 0 0 0.0293-1.4141c-0.22862-0.23845-0.39344-0.23174-0.53906-0.24805 0.45619-0.49745 0.86598-1.0299 1.2617-1.5371 0.69221-0.88711 1.3804-1.5912 1.9258-1.7793 0.54535-0.18812 1.1443-0.16019 2.3926 1.0391a1.0001 1.0001 0 0 0 1.1445 0.16992c1.2537-0.63434 2.3784-1.3946 3.1953-1.4629zm-15.033 3.5273c0.043533 0.04718 0.042869 0.09349 0.087891 0.14062 0.27633 0.28927 0.58701 0.35742 0.875 0.55469-0.26924 0.40988-0.48561 0.84356-0.72266 1.2695-0.14609-0.34058-0.37362-0.62816-0.43359-0.93359-0.081283-0.41395-0.051906-0.73079 0.021484-0.90234 0.022512-0.05262 0.13922-0.08449 0.17188-0.12891zm15.881 0.17969a1 1 0 0 0-1.2246 0.70703 1 1 0 0 0 0.70703 1.2246c0.66001 0.17674 1.1014 0.87053 1.3691 1.4023a1 1 0 0 0 1.3418 0.44336 1 1 0 0 0 0.44336-1.3438c-0.31822-0.63199-1.0411-2.0063-2.6367-2.4336zm-12.023 3.4375c-0.79584 0.0016-1.3072 0.5753-1.5781 1.1035-0.27089 0.52822-0.3963 1.1366-0.39648 1.8008a1.0001 1.0001 0 0 0 0 2e-3c0 0.66439 0.12563 1.2743 0.39648 1.8027s0.78205 1.0999 1.5781 1.1016a1.0001 1.0001 0 0 0 2e-3 0c0.79667 0 1.3108-0.57289 1.582-1.1016s0.39648-1.1378 0.39648-1.8027a1.0001 1.0001 0 0 0 0-2e-3c-1.27e-4 -0.66467-0.12518-1.2743-0.39648-1.8027s-0.78569-1.1016-1.582-1.1016a1.0001 1.0001 0 0 0-2e-3 0zm5.9473 0.89258a1 1 0 0 0-1.2793 0.59961c-0.84885 2.3463-1.8749 3.2082-3.0352 4.791a1.0001 1.0001 0 0 0-0.13476 0.92773c0.45196 1.2617 0.95704 1.7157 1.3418 2.3105a1 1 0 0 0 1.3828 0.29688 1 1 0 0 0 0.29688-1.3828c-0.41252-0.63775-0.63056-0.95694-0.88477-1.4746 0.95243-1.2107 2.0529-2.4087 2.9141-4.7891a1 1 0 0 0-0.60156-1.2793zm4.8984 0.57422c-0.48998-0.01225-1.002 0.05042-1.5371 0.14844a1 1 0 0 0-0.80273 1.1641 1 1 0 0 0 1.1641 0.80469c0.89456-0.16387 1.4692-0.1242 1.7637 0.0078 0.29443 0.13201 0.50663 0.34011 0.71875 1.084a1 1 0 0 0 1.2363 0.6875 1 1 0 0 0 0.6875-1.2363c-0.30878-1.0828-0.92735-1.9572-1.8242-2.3594-0.44844-0.20107-0.91627-0.28854-1.4062-0.30078zm-0.29102 8.2832c-4.8721 2.226-8.85 2.5386-12.156 0.83008a1.0001 1.0001 0 0 0-1.3594 0.45312l-0.47656 0.98438a1.0001 1.0001 0 0 0 0.26758 1.2129c2.5737 2.0939 5.0923 3.0718 7.752 2.9121s5.3556-1.3804 8.5508-3.3555a1.0001 1.0001 0 0 0 0.08984-1.6406l-1.6367-1.2754a1.0001 1.0001 0 0 0-1.0312-0.12109zm0.07227 2.1035c-2.3597 1.3179-4.4163 2.1879-6.166 2.293-1.1722 0.07038-2.2983-0.18968-3.4512-0.6875 2.9347 0.46189 6.1711-0.14477 9.6172-1.6055z" stroke-linecap="round" stroke-linejoin="round"/>
</svg>
