<?xml version="1.0" encoding="UTF-8"?>
<svg id="svg6" version="1.1" viewBox="0 0 48 48" xmlns="http://www.w3.org/2000/svg">
 <defs id="defs1">
  <style id="style1">.a{fill:none;stroke:#000;stroke-width:2px;stroke-linecap:round;stroke-linejoin:round;}</style>
 </defs>
 <path id="path1" d="m12.27 3.5312a1.0001 1.0001 0 0 0-0.9707 1.6621s2.6178 2.7151 5.4375 5.6152c2.8197 2.9001 5.773 5.9244 6.6855 6.7598 2.6471 2.4233 6.902 1.8042 8.748-1.2734 1.6118-2.6926 0.72978-6.2125-1.9629-7.8242a1.0001 1.0001 0 0 0-0.02344-0.013672c-0.51517-0.28965-1.0676-0.50939-1.6406-0.6543-2.0431-0.58059-16.273-4.2715-16.273-4.2715zm2.959 2.8457c3.8839 1.0102 11.399 2.9598 12.795 3.3574a1.0001 1.0001 0 0 0 0.0293 0.00781c0.39637 0.10024 0.77771 0.25405 1.1348 0.45313 1.7574 1.0591 2.3223 3.3104 1.2676 5.0723-1.2177 2.0283-3.9385 2.4238-5.6836 0.82617-0.70117-0.64185-3.7855-3.7833-6.6016-6.6797-1.5251-1.5686-1.9177-1.978-2.9414-3.0371z" color="#000000" stroke-linecap="round" stroke-linejoin="round" style="-inkscape-stroke:none"/>
 <path id="path2" d="m29.535 8.4961c-4.3624 1.5379-5.1275 7.5225-1.293 10.109a1 1 0 0 0 1.3887-0.26953 1 1 0 0 0-0.26953-1.3887c-2.5754-1.7375-2.0901-5.5335 0.83984-6.5664a1 1 0 0 0 0.61133-1.2754 1 1 0 0 0-1.2773-0.60938z" color="#000000" stroke-linecap="round" stroke-linejoin="round" style="-inkscape-stroke:none"/>
 <path id="path3" d="m27.908 7.8516c-1.9747 0.8352-3.3276 2.1745-4.0723 3.7773-0.74468 1.6028-0.90326 3.421-0.73438 5.293a1 1 0 0 0 1.0859 0.90625 1 1 0 0 0 0.90625-1.0859c-0.14812-1.6418 0.01044-3.1001 0.55469-4.2715 0.54425-1.1714 1.4493-2.1049 3.0391-2.7773a1 1 0 0 0 0.53125-1.3105 1 1 0 0 0-1.3105-0.53125z" color="#000000" stroke-linecap="round" stroke-linejoin="round" style="-inkscape-stroke:none"/>
 <path id="path4" d="m25.967 16.881a1 1 0 0 0-1 1c0 0.83776-0.40698 1.6785-1.1562 2.5645-0.74927 0.886-1.8148 1.7697-2.9141 2.6211-1.0993 0.85137-2.227 1.6676-3.1348 2.5176-0.90779 0.84999-1.7109 1.7694-1.7109 3.0137 0 3.6385 3.5467 6.832 9.0391 6.832 2.7091 1e-6 4.6003-0.59869 5.8516-1.5508 1.2513-0.95209 1.7988-2.2557 1.7988-3.3965 0-0.76118-0.27455-1.4033-0.60742-2.2461-0.33287-0.8428-0.75819-1.824-1.1797-2.9141-0.84299-2.1802-1.6543-4.787-1.6543-7.3691a1 1 0 0 0-1-1 1 1 0 0 0-1 1c0 2.9938 0.91061 5.818 1.7891 8.0898 0.43923 1.1359 0.87287 2.1361 1.1855 2.9277 0.31267 0.79166 0.4668 1.437 0.4668 1.5117 0 0.53095-0.21599 1.2007-1.0098 1.8047-0.79377 0.60398-2.2278 1.1426-4.6406 1.1426-4.7517 0-7.0391-2.4951-7.0391-4.832 0-0.24955 0.31417-0.83938 1.0781-1.5547 0.76396-0.71531 1.8625-1.5216 2.9922-2.3965 1.1297-0.87492 2.2943-1.8193 3.2168-2.9102 0.92248-1.0908 1.6289-2.3763 1.6289-3.8555a1 1 0 0 0-1-1z" color="#000000" stroke-linecap="round" stroke-linejoin="round" style="-inkscape-stroke:none"/>
 <path id="path5" d="m25.229 18.82a1 1 0 0 0-0.61914 0.44922 1 1 0 0 0 0.33203 1.375c1.1577 0.70707 2.5765 0.85225 3.8535 0.39453a1 1 0 0 0 0.60352-1.2793 1 1 0 0 0-1.2793-0.60352c-0.70877 0.25405-1.4922 0.1737-2.1348-0.21875a1 1 0 0 0-0.75586-0.11719z" color="#000000" stroke-linecap="round" stroke-linejoin="round" style="-inkscape-stroke:none"/>
 <path id="polyline5" d="m25.268 33.43a1 1 0 0 0-1 1v7.6465a1.0001 1.0001 0 0 0 0.30273 0.7168l1.459 1.4238a1 1 0 0 0 1.4141-0.01953 1 1 0 0 0-0.01758-1.4141l-1.1582-1.1289v-7.2246a1 1 0 0 0-1-1z" color="#000000" stroke-linecap="round" stroke-linejoin="round" style="-inkscape-stroke:none"/>
 <path id="polyline6" d="m28.045 33.111a1 1 0 0 0-1 1v6.0547a1.0001 1.0001 0 0 0 0.34375 0.75391l1.2852 1.1211a1 1 0 0 0 1.4121-0.09766 1 1 0 0 0-0.09766-1.4121l-0.94336-0.82031v-5.5996a1 1 0 0 0-1-1z" color="#000000" stroke-linecap="round" stroke-linejoin="round" style="-inkscape-stroke:none"/>
</svg>
