<?xml version="1.0" encoding="UTF-8" standalone="no"?>
<svg
   id="b"
   viewBox="0 0 48 48"
   version="1.1"
   sodipodi:docname="steam_icon_2300.svg"
   xmlns:inkscape="http://www.inkscape.org/namespaces/inkscape"
   xmlns:sodipodi="http://sodipodi.sourceforge.net/DTD/sodipodi-0.dtd"
   xmlns="http://www.w3.org/2000/svg"
   xmlns:svg="http://www.w3.org/2000/svg">
  <sodipodi:namedview
     id="namedview8"
     pagecolor="#ffffff"
     bordercolor="#666666"
     borderopacity="1.0"
     inkscape:showpageshadow="2"
     inkscape:pageopacity="0.0"
     inkscape:pagecheckerboard="0"
     inkscape:deskcolor="#d1d1d1" />
  <defs
     id="defs1">
    <style
       id="style1">.c{fill:none;stroke:#000;stroke-width:2px;stroke-linecap:round;stroke-linejoin:round;}</style>
  </defs>
  <path
     style="color:#000000;fill:#000000;stroke-linecap:round;stroke-linejoin:round;-inkscape-stroke:none"
     d="m 4.5,10.597656 a 1,1 0 0 0 -1,1 1,1 0 0 0 1,1 h 2.0683594 a 1,1 0 0 0 1,-1 1,1 0 0 0 -1,-1 z"
     id="line1" />
  <path
     style="color:#000000;fill:#000000;stroke-linecap:round;stroke-linejoin:round;-inkscape-stroke:none"
     d="m 41.431641,10.597656 a 1,1 0 0 0 -1,1 1,1 0 0 0 1,1 H 43.5 a 1,1 0 0 0 1,-1 1,1 0 0 0 -1,-1 z"
     id="line2" />
  <g
     id="g8">
    <path
       style="color:#000000;fill:#000000;stroke-linecap:round;stroke-linejoin:round;-inkscape-stroke:none"
       d="m 6.5683594,10.597656 a 1.0001,1.0001 0 0 0 -1,1 v 18.873047 a 1.0001,1.0001 0 0 0 1.5996093,0.798828 l 7.2792973,-5.464844 a 1.0001,1.0001 0 0 0 0.398437,-0.798828 V 11.597656 a 1.0001,1.0001 0 0 0 -1,-1 z m 1,2 h 5.2773436 v 11.908203 l -5.2773436,3.960938 z"
       id="polygon2" />
    <path
       style="color:#000000;fill:#000000;stroke-linecap:round;stroke-linejoin:round;-inkscape-stroke:none"
       d="m 15.763672,10.597656 a 1.0001,1.0001 0 0 0 -1,1 v 12.13086 a 1.0001,1.0001 0 0 0 0.400391,0.798828 l 4.912109,3.689453 a 1.0001,1.0001 0 0 0 1.238281,-0.0293 l 2.363281,-1.951172 a 1.0001,1.0001 0 0 0 0.363282,-0.771484 V 11.597656 a 1.0001,1.0001 0 0 0 -1,-1 z m 1,2 h 5.277344 v 12.396485 l -1.392579,1.15039 -3.884765,-2.917969 z"
       id="polygon3" />
    <path
       style="color:#000000;fill:#000000;stroke-linecap:round;stroke-linejoin:round;-inkscape-stroke:none"
       d="m 24.958984,10.597656 a 1.0001,1.0001 0 0 0 -1,1 v 13.867188 a 1.0001,1.0001 0 0 0 0.363282,0.771484 l 2.363281,1.951172 a 1.0001,1.0001 0 0 0 1.238281,0.0293 l 4.912109,-3.689453 a 1.0001,1.0001 0 0 0 0.400391,-0.798828 v -12.13086 a 1.0001,1.0001 0 0 0 -1,-1 z m 1,2 h 5.277344 v 10.628906 l -3.884766,2.917969 -1.392578,-1.15039 z"
       id="polygon4" />
    <path
       style="color:#000000;fill:#000000;stroke-linecap:round;stroke-linejoin:round;-inkscape-stroke:none"
       d="m 34.154297,10.597656 a 1.0001,1.0001 0 0 0 -1,1 v 13.408203 a 1,1 0 0 0 1,1 1,1 0 0 0 1,-1 v -8.464843 l 1.59375,10.65625 a 1.0001,1.0001 0 0 0 1.978515,0.0078 l 1.705079,-10.890625 v 14.15625 a 1,1 0 0 0 1,1 1,1 0 0 0 1,-1 V 11.597656 a 1.0001,1.0001 0 0 0 -1,-1 h -1.273438 a 1.0001,1.0001 0 0 0 -0.986328,0.845703 l -1.412109,9.003907 -1.345704,-8.998047 a 1.0001,1.0001 0 0 0 -0.988281,-0.851563 z"
       id="polyline4" />
    <g
       id="g7">
      <path
         style="color:#000000;fill:#000000;stroke-linecap:round;stroke-linejoin:round;-inkscape-stroke:none"
         d="m 21.457031,28.0625 a 1,1 0 0 0 -1,1 1,1 0 0 0 1,1 h 5.085938 a 1,1 0 0 0 1,-1 1,1 0 0 0 -1,-1 z"
         id="line4" />
      <path
         style="color:#000000;fill:#000000;stroke-linecap:round;stroke-linejoin:round;-inkscape-stroke:none"
         d="m 21.457031,35.402344 a 1,1 0 0 0 -1,1 1,1 0 0 0 1,1 h 5.085938 a 1,1 0 0 0 1,-1 1,1 0 0 0 -1,-1 z"
         id="line5" />
      <path
         style="color:#000000;fill:#000000;stroke-linecap:round;stroke-linejoin:round;-inkscape-stroke:none"
         d="m 22.589844,28.0625 a 1,1 0 0 0 -1,1 v 7.339844 a 1,1 0 0 0 1,1 1,1 0 0 0 1,-1 V 29.0625 a 1,1 0 0 0 -1,-1 z"
         id="line6" />
      <path
         style="color:#000000;fill:#000000;stroke-linecap:round;stroke-linejoin:round;-inkscape-stroke:none"
         d="m 25.410156,28.0625 a 1,1 0 0 0 -1,1 v 7.339844 a 1,1 0 0 0 1,1 1,1 0 0 0 1,-1 V 29.0625 a 1,1 0 0 0 -1,-1 z"
         id="line7" />
    </g>
  </g>
</svg>
