<?xml version="1.0" encoding="UTF-8" standalone="no"?>
<svg
   id="b"
   viewBox="0 0 48 48"
   version="1.1"
   sodipodi:docname="steam_icon_1454400.svg"
   xmlns:inkscape="http://www.inkscape.org/namespaces/inkscape"
   xmlns:sodipodi="http://sodipodi.sourceforge.net/DTD/sodipodi-0.dtd"
   xmlns="http://www.w3.org/2000/svg"
   xmlns:svg="http://www.w3.org/2000/svg">
  <sodipodi:namedview
     id="namedview8"
     pagecolor="#ffffff"
     bordercolor="#666666"
     borderopacity="1.0"
     inkscape:showpageshadow="2"
     inkscape:pageopacity="0.0"
     inkscape:pagecheckerboard="0"
     inkscape:deskcolor="#d1d1d1" />
  <defs
     id="defs1">
    <style
       id="style1">.c{fill:none;stroke:#000;stroke-width:2px;stroke-linecap:round;stroke-linejoin:round;}</style>
  </defs>
  <path
     style="color:#000000;fill:#000000;stroke-linecap:round;stroke-linejoin:round;-inkscape-stroke:none"
     d="M 24,1.5 C 11.58547,1.5 1.5,11.58547 1.5,24 c 0,12.41453 10.08547,22.5 22.5,22.5 3.449027,0 6.722326,-0.778114 9.646484,-2.167969 A 1,1 0 0 0 34.121094,43 1,1 0 0 0 32.789062,42.525391 C 30.126026,43.791134 27.148766,44.5 24,44.5 12.666354,44.5 3.5,35.333646 3.5,24 3.5,12.666354 12.666354,3.5 24,3.5 c 11.333646,0 20.5,9.166354 20.5,20.5 0,3.672474 -0.962466,7.110996 -2.650391,10.089844 a 1,1 0 0 0 0.376953,1.363281 1,1 0 0 0 1.363282,-0.376953 C 45.442716,31.806225 46.5,28.022718 46.5,24 46.5,11.58547 36.41453,1.5 24,1.5 Z"
     id="path1" />
  <path
     style="color:#000000;fill:#000000;stroke-linecap:round;stroke-linejoin:round;-inkscape-stroke:none"
     d="m 22.826172,17.070312 -4.03711,0.363282 a 1.0001,1.0001 0 0 0 -0.759765,0.46875 l -2.244141,3.617187 a 1.0001,1.0001 0 0 0 -0.0293,1.001953 l 1.90625,3.533203 a 1.0001,1.0001 0 0 0 1.167969,0.482422 l 2.888672,-0.86914 a 1.0001,1.0001 0 0 0 0.402344,-0.234375 l 3.054687,-2.916016 a 1.0001,1.0001 0 0 0 0.232422,-1.111328 l -1.570312,-3.728516 a 1.0001,1.0001 0 0 0 -1.011719,-0.607422 z m -0.548828,2.056641 1.019531,2.419922 -2.384766,2.275391 -1.876953,0.564453 -1.24414,-2.304688 1.673828,-2.701172 z"
     id="polygon1" />
  <path
     style="color:#000000;fill:#000000;stroke-linecap:round;stroke-linejoin:round;-inkscape-stroke:none"
     d="m 24.341797,9.2460938 -2.634766,0.9531252 a 1.0001,1.0001 0 0 0 -0.439453,0.314453 l -1.486328,1.851562 a 1.0001,1.0001 0 0 0 0.779297,1.625 h 3.957031 l 1.845703,0.859375 a 1.0001,1.0001 0 0 0 1.21875,-0.302734 l 1.402344,-1.849609 A 1.0001,1.0001 0 0 0 28.664062,11.214844 L 25.160156,9.3085938 a 1.0001,1.0001 0 0 0 -0.818359,-0.0625 z m 0.257812,2.0332032 2.087891,1.136719 -0.212891,0.28125 -1.314453,-0.613282 a 1.0001,1.0001 0 0 0 -0.421875,-0.09375 h -2.091797 l 0.0039,-0.0059 z"
     id="polygon2" />
  <path
     style="color:#000000;fill:#000000;stroke-linecap:round;stroke-linejoin:round;-inkscape-stroke:none"
     d="m 37.320312,18.589844 -3,0.449218 A 1.0001,1.0001 0 0 0 33.46875,20.09375 l 0.06055,0.931641 -1.722656,2.388671 a 1.0001,1.0001 0 0 0 0.173828,1.357422 l 3.335937,2.75586 a 1.0001,1.0001 0 0 0 1.431641,-0.164063 l 1.261719,-1.654297 a 1.0001,1.0001 0 0 0 0.183593,-0.40039 l 0.402344,-1.923828 0.980469,-0.460938 a 1.0001,1.0001 0 0 0 0.396484,-1.472656 l -1.68164,-2.439453 a 1.0001,1.0001 0 0 0 -0.970704,-0.421875 z m -0.322265,2.070312 0.658203,0.955078 -0.363281,0.171875 a 1.0001,1.0001 0 0 0 -0.552735,0.699219 l -0.457031,2.189453 -0.494141,0.648438 -1.8125,-1.498047 1.386719,-1.923828 a 1.0001,1.0001 0 0 0 0.185547,-0.650391 l -0.02344,-0.371094 z"
     id="polygon3" />
  <path
     style="color:#000000;fill:#000000;stroke-linecap:round;stroke-linejoin:round;-inkscape-stroke:none"
     d="m 15.195313,31.746094 a 1.0001,1.0001 0 0 0 -1.115235,0.613281 L 13.154297,34.6875 a 1.0001,1.0001 0 0 0 0.322266,1.162109 l 0.476562,0.365235 a 1.0001,1.0001 0 0 0 1.054688,0.09961 l 2.523437,-1.261719 a 1.0001,1.0001 0 0 0 0.480469,-1.265625 l -0.447266,-1.121093 a 1.0001,1.0001 0 0 0 -0.742187,-0.611329 z"
     id="polygon4" />
  <path
     style="color:#000000;fill:#000000;stroke-linecap:round;stroke-linejoin:round;-inkscape-stroke:none"
     d="m 22.158203,34.419922 c -0.24206,0 -0.255646,0.03046 -0.308594,0.04492 -0.05295,0.01446 -0.09345,0.02828 -0.136718,0.04297 -0.08654,0.02937 -0.176807,0.06394 -0.279297,0.103516 -0.204981,0.07916 -0.450808,0.177545 -0.691407,0.277344 -0.481196,0.199598 -0.941406,0.398437 -0.941406,0.398437 a 1.0001,1.0001 0 0 0 -0.603515,0.917969 v 3.421875 a 1.0001,1.0001 0 0 0 0.714843,0.958984 l 2.748047,0.8125 a 1.0001,1.0001 0 0 0 1.181641,-0.519531 l 1.234375,-2.523437 a 1.0001,1.0001 0 0 0 0.09766,-0.529297 l -0.177734,-1.990235 a 1.0001,1.0001 0 0 0 -0.710938,-0.86914 c 0,0 -0.429468,-0.127778 -0.878906,-0.25586 -0.224719,-0.06404 -0.453684,-0.127336 -0.644531,-0.177734 -0.09542,-0.0252 -0.181662,-0.04647 -0.259766,-0.06445 -0.0781,-0.01799 -0.02624,-0.04883 -0.34375,-0.04883 z m 0.05078,2.035156 c 0.01641,0.0043 0.02332,0.007 0.04102,0.01172 0.167502,0.04423 0.389392,0.105834 0.607422,0.167969 0.105315,0.03001 0.109146,0.03222 0.207031,0.06055 l 0.0918,1.03125 -0.740234,1.513672 -1.21875,-0.361328 v -2.011719 c 0.137408,-0.05808 0.15293,-0.06548 0.310546,-0.130859 0.232527,-0.09645 0.470335,-0.191739 0.646485,-0.259766 0.02406,-0.0093 0.03311,-0.01334 0.05469,-0.02148 z"
     id="path4" />
  <g
     id="g8">
    <path
       style="color:#000000;fill:#000000;stroke-linecap:round;stroke-linejoin:round;-inkscape-stroke:none"
       d="m 27.396484,30.564453 c -0.615564,0 -1.231437,0.23339 -1.695312,0.697266 -0.927751,0.927751 -0.927751,2.46092 0,3.388672 l 7.605469,7.605468 a 1,1 0 0 0 1.414062,0 1,1 0 0 0 0,-1.414062 l -7.605469,-7.605469 c -0.163447,-0.163448 -0.163447,-0.397099 0,-0.560547 0.163448,-0.163447 0.399053,-0.163447 0.5625,0 l 6.636719,6.634766 a 1,1 0 0 0 1.414063,0 1,1 0 0 0 0,-1.414063 l -6.636719,-6.634765 c -0.463876,-0.463876 -1.079748,-0.697266 -1.695313,-0.697266 z"
       id="path5" />
    <path
       style="color:#000000;fill:#000000;stroke-linecap:round;stroke-linejoin:round;-inkscape-stroke:none"
       d="m 33.490234,32.707031 c -0.615564,0 -1.231437,0.231437 -1.695312,0.695313 -0.927751,0.927751 -0.927751,2.462874 0,3.390625 l 2.517578,2.517578 a 1,1 0 0 0 1.416016,0 1,1 0 0 0 0,-1.414063 l -2.519532,-2.517578 c -0.163447,-0.163447 -0.163447,-0.399052 0,-0.5625 0.163448,-0.163447 0.399053,-0.163447 0.5625,0 l 2.517578,2.519531 a 1,1 0 0 0 1.414063,0 1,1 0 0 0 0,-1.414062 l -2.517578,-2.519531 c -0.463876,-0.463876 -1.079748,-0.695313 -1.695313,-0.695313 z"
       id="path6" />
    <path
       style="color:#000000;fill:#000000;stroke-linecap:round;stroke-linejoin:round;-inkscape-stroke:none"
       d="m 36.164062,31.429687 c -0.615564,0 -1.231436,0.231437 -1.695312,0.695313 -0.927751,0.927751 -0.927751,2.460921 0,3.388672 l 1.820312,1.822265 a 1,1 0 0 0 1.414063,0 1,1 0 0 0 0,-1.414062 l -1.820313,-1.822266 c -0.163447,-0.163447 -0.163447,-0.397099 0,-0.560547 0.163448,-0.163447 0.3971,-0.163447 0.560547,0 l 1.822266,1.820313 a 1,1 0 0 0 1.414062,0 1,1 0 0 0 0,-1.414063 L 37.859375,32.125 c -0.463876,-0.463876 -1.079748,-0.695313 -1.695313,-0.695313 z"
       id="path7" />
    <path
       style="color:#000000;fill:#000000;stroke-linecap:round;stroke-linejoin:round;-inkscape-stroke:none"
       d="m 38.900391,30.214844 c -0.615565,0 -1.229484,0.231437 -1.69336,0.695312 -0.927751,0.927751 -0.927751,2.462874 0,3.390625 l 1.058594,1.058594 a 1,1 0 0 0 1.414062,0 1,1 0 0 0 0,-1.414063 l -1.058593,-1.058593 c -0.163448,-0.163448 -0.163448,-0.399053 0,-0.5625 0.163447,-0.163448 0.397099,-0.163448 0.560547,0 l 2.027343,2.027343 c 0.944307,0.944307 1.816315,2.484361 2.972657,3.904297 l -5.949219,5.949219 c -0.892991,-0.642601 -1.906677,-1.105894 -2.957031,-1.376953 -1.388931,-0.358434 -2.778912,-0.514164 -3.722657,-0.642578 -0.399732,-0.0544 -0.408459,-0.126678 -0.384765,-0.0918 0.02247,0.03307 -0.02717,-0.08895 0.01758,-0.427734 0.02654,-0.01973 0.117988,-0.07353 0.283203,-0.107422 0.341903,-0.07014 0.925357,-0.03717 1.421875,0.113281 a 1,1 0 0 0 1.246094,-0.666016 1,1 0 0 0 -0.666016,-1.248047 c -0.78198,-0.236948 -1.613026,-0.320517 -2.404297,-0.158203 -0.395635,0.08116 -0.790709,0.227374 -1.142578,0.509766 -0.351869,0.282392 -0.638581,0.732953 -0.714844,1.228516 -0.09548,0.620416 -0.09511,1.29035 0.304688,1.878906 0.399794,0.588555 1.078065,0.855118 1.769531,0.949219 0.981754,0.133585 2.282546,0.287443 3.492188,0.599609 1.209642,0.312166 2.288821,0.80226 2.83789,1.40625 a 1.0001,1.0001 0 0 0 1.445313,0.03516 l 7.148437,-7.148437 a 1.0001,1.0001 0 0 0 0,-1.414063 C 44.914734,36.352322 44.157769,34.472222 42.623047,32.9375 l -2.027344,-2.027344 c -0.463875,-0.463875 -1.079748,-0.695312 -1.695312,-0.695312 z"
       id="path8" />
  </g>
</svg>
