<?xml version="1.0" encoding="UTF-8"?>
<svg id="a" version="1.1" viewBox="0 0 48 48" xmlns="http://www.w3.org/2000/svg">
 <defs id="defs1">
  <style id="style1">.b{fill:none;stroke:#000;stroke-width:2px;stroke-linecap:round;stroke-linejoin:round;}</style>
 </defs>
 <path id="path1" d="m24 1.5c-3.1165 0-6.0921 0.63949-8.793 1.791-5.474 2.3243-9.8444 6.7579-12.064 12.287-1.0678 2.5989-1.6426 5.446-1.6426 8.4219 0 3.1165 0.63949 6.0921 1.791 8.793 2.3243 5.474 6.7579 9.8444 12.287 12.064 2.5989 1.0678 5.446 1.6426 8.4219 1.6426 3.1165 0 6.0921-0.63949 8.793-1.791 5.474-2.3243 9.8444-6.7579 12.064-12.287a1 1 0 0 0-0.55469-1.3008 1 1 0 0 0-1.3008 0.55664c-2.0196 5.03-6.0073 9.0755-10.992 11.191a1.0001 1.0001 0 0 0-2e-3 2e-3c-2.4591 1.0484-5.1642 1.6289-8.0078 1.6289-2.7213 0-5.3109-0.52388-7.6699-1.4941a1.0001 1.0001 0 0 0-0.0078-0.0039c-5.03-2.0196-9.0755-6.0073-11.191-10.992a1.0001 1.0001 0 0 0-0.00195-2e-3c-1.0485-2.4591-1.6289-5.1642-1.6289-8.0078 0-2.7213 0.52388-5.3109 1.4941-7.6699a1.0001 1.0001 0 0 0 0.00391-0.0078c2.0196-5.03 6.0073-9.0755 10.992-11.191a1.0001 1.0001 0 0 0 2e-3 -0.00195c2.4591-1.0485 5.1642-1.6289 8.0078-1.6289 2.7213 0 5.3109 0.52388 7.6699 1.4941a1.0001 1.0001 0 0 0 0.0078 0.00391c5.03 2.0196 9.0755 6.0073 11.191 10.992a1 1 0 0 0 1.3125 0.5293 1 1 0 0 0 0.5293-1.3105c-2.324-5.4751-6.7591-9.846-12.289-12.066-2.5989-1.0678-5.446-1.6426-8.4219-1.6426z" color="#000000" stroke-linecap="round" stroke-linejoin="round" style="-inkscape-stroke:none"/>
 <path id="path2" d="m24 9.5c-2.0055 0-3.9293 0.40819-5.6719 1.1504-3.5247 1.4945-6.3358 4.3492-7.7754 7.916-0.67686 1.676-1.0527 3.5132-1.0527 5.4336 0 2.0055 0.40819 3.9293 1.1504 5.6719 1.4945 3.5247 4.3492 6.3358 7.916 7.7754 1.676 0.67686 3.5132 1.0527 5.4336 1.0527 2.0055 0 3.9293-0.40819 5.6719-1.1504 3.5247-1.4945 6.3358-4.3492 7.7754-7.916a1 1 0 0 0-0.55274-1.3008 1 1 0 0 0-1.3027 0.55274c-1.2401 3.0724-3.667 5.5384-6.7012 6.8242a1.0001 1.0001 0 0 0-2e-3 0c-1.4974 0.6378-3.1541 0.99023-4.8886 0.99023-1.6596 0-3.2416-0.32506-4.6855-0.9082-3.0724-1.2401-5.5384-3.667-6.8242-6.7012a1.0001 1.0001 0 0 0 0-2e-3c-0.6378-1.4974-0.99023-3.1541-0.99023-4.8886 0-1.6596 0.32506-3.2416 0.9082-4.6855 1.2401-3.0724 3.667-5.5384 6.7012-6.8242a1.0001 1.0001 0 0 0 2e-3 0c1.4974-0.6378 3.1541-0.99023 4.8886-0.99023 1.6596 0 3.2416 0.32506 4.6855 0.9082 3.0724 1.2401 5.5384 3.667 6.8242 6.7012a1 1 0 0 0 1.3105 0.53125 1 1 0 0 0 0.53125-1.3105c-1.4942-3.5259-4.3504-6.3374-7.918-7.7773-1.676-0.67686-3.5132-1.0527-5.4336-1.0527z" color="#000000" stroke-linecap="round" stroke-linejoin="round" style="-inkscape-stroke:none"/>
 <path id="line2" d="m36.895 28.133a1 1 0 0 0-1.3027 0.55274 1 1 0 0 0 0.55469 1.3027l7.4102 2.9883a1 1 0 0 0 1.3008-0.55273 1 1 0 0 0-0.55274-1.3008z" color="#000000" stroke-linecap="round" stroke-linejoin="round" style="-inkscape-stroke:none"/>
 <path id="line3" d="m4.4434 15.023a1 1 0 0 0-1.3008 0.55273 1 1 0 0 0 0.55273 1.3008l7.4102 2.9902a1 1 0 0 0 1.3027-0.55273 1 1 0 0 0-0.55469-1.3027z" color="#000000" stroke-linecap="round" stroke-linejoin="round" style="-inkscape-stroke:none"/>
 <path id="line4" d="m29.654 35.504a1 1 0 0 0-0.76367 0.0059 1 1 0 0 0-0.53125 1.3105l3.1191 7.3594a1 1 0 0 0 1.3125 0.53125 1 1 0 0 0 0.5293-1.3105l-3.1191-7.3613a1 1 0 0 0-0.54688-0.53516z" color="#000000" stroke-linecap="round" stroke-linejoin="round" style="-inkscape-stroke:none"/>
 <path id="line5" d="m15.975 3.2832a1 1 0 0 0-0.76562 0.00586 1 1 0 0 0-0.5293 1.3105l3.1191 7.3613a1 1 0 0 0 1.3105 0.5293 1 1 0 0 0 0.53125-1.3105l-3.1191-7.3594a1 1 0 0 0-0.54688-0.53711z" color="#000000" stroke-linecap="round" stroke-linejoin="round" style="-inkscape-stroke:none"/>
 <path id="line6" d="m19.314 35.592a1 1 0 0 0-1.3027 0.55469l-2.9883 7.4102a1 1 0 0 0 0.55273 1.3008 1 1 0 0 0 1.3008-0.55274l2.9902-7.4102a1 1 0 0 0-0.55273-1.3027z" color="#000000" stroke-linecap="round" stroke-linejoin="round" style="-inkscape-stroke:none"/>
 <path id="line7" d="m32.424 3.1426a1 1 0 0 0-1.3008 0.55273l-2.9902 7.4102a1 1 0 0 0 0.55274 1.3027 1 1 0 0 0 1.3027-0.55469l2.9883-7.4102a1 1 0 0 0-0.55273-1.3008z" color="#000000" stroke-linecap="round" stroke-linejoin="round" style="-inkscape-stroke:none"/>
 <path id="line8" d="m11.18 28.359-7.3594 3.1191a1 1 0 0 0-0.53125 1.3125 1 1 0 0 0 1.3105 0.5293l7.3613-3.1191a1 1 0 0 0 0.5293-1.3105 1 1 0 0 0-1.3105-0.53125z" color="#000000" stroke-linecap="round" stroke-linejoin="round" style="-inkscape-stroke:none"/>
 <path id="line9" d="m44.166 14.674a1 1 0 0 0-0.76562 0.0059l-7.3613 3.1191a1 1 0 0 0-0.5293 1.3105 1 1 0 0 0 1.3105 0.53125l7.3594-3.1191a1 1 0 0 0 0.53125-1.3125 1 1 0 0 0-0.54492-0.53516z" color="#000000" stroke-linecap="round" stroke-linejoin="round" style="-inkscape-stroke:none"/>
 <path id="line10" d="m4.4434 15.023a1 1 0 0 0-1.3008 0.55273 1 1 0 0 0 0.55273 1.3008l7.4102 2.9902a1 1 0 0 0 1.3027-0.55273 1 1 0 0 0-0.55469-1.3027z" color="#000000" stroke-linecap="round" stroke-linejoin="round" style="-inkscape-stroke:none"/>
 <path id="line11" d="m36.895 28.133a1 1 0 0 0-1.3027 0.55274 1 1 0 0 0 0.55469 1.3027l7.4102 2.9883a1 1 0 0 0 1.3008-0.55273 1 1 0 0 0-0.55274-1.3008z" color="#000000" stroke-linecap="round" stroke-linejoin="round" style="-inkscape-stroke:none"/>
</svg>
