<?xml version="1.0" encoding="UTF-8"?>
<svg id="a" version="1.1" viewBox="0 0 48 48" xmlns="http://www.w3.org/2000/svg">
 <defs id="defs1">
  <style id="style1">.b{fill:none;stroke:#000;stroke-width:2px;stroke-linecap:round;stroke-linejoin:round;}</style>
 </defs>
 <path id="polygon1" d="m23.152 1.5566a1.0001 1.0001 0 0 0-0.76367 0.041016l-14.857 7.1309a1.0001 1.0001 0 0 0-0.51172 0.57031l-5.4629 15.549a1.0001 1.0001 0 0 0 0.041016 0.76367l7.1309 14.857a1.0001 1.0001 0 0 0 0.57031 0.51172l15.549 5.4629a1.0001 1.0001 0 0 0 0.76367-0.04102l14.857-7.1309a1.0001 1.0001 0 0 0 0.51172-0.57031l5.4629-15.549a1.0001 1.0001 0 0 0-0.04102-0.76367l-7.1309-14.857a1.0001 1.0001 0 0 0-0.57031-0.51172zm-0.27148 2.0234 14.766 5.1895 6.7734 14.111-5.1895 14.766-14.111 6.7734-14.766-5.1895-6.7734-14.111 5.1895-14.766z" stroke-linecap="round" stroke-linejoin="round"/>
 <path id="circle1" d="m24 15.469c-4.6995 0-8.5312 3.8318-8.5312 8.5312s3.8318 8.5312 8.5312 8.5312 8.5312-3.8318 8.5312-8.5312-3.8318-8.5312-8.5312-8.5312zm0 2c3.6186 0 6.5312 2.9127 6.5312 6.5312s-2.9127 6.5312-6.5312 6.5312-6.5312-2.9127-6.5312-6.5312 2.9127-6.5312 6.5312-6.5312z" stroke-linecap="round" stroke-linejoin="round"/>
 <path id="rect1" transform="translate(-9.9411 24) rotate(-45)" d="m13.955 12.955a1.0001 1.0001 0 0 0-1 1v20.09a1.0001 1.0001 0 0 0 1 1h20.09a1.0001 1.0001 0 0 0 1-1v-20.09a1.0001 1.0001 0 0 0-1-1zm1 2h18.09v18.09h-18.09z" stroke-linecap="round" stroke-linejoin="round"/>
</svg>
