<?xml version="1.0" encoding="UTF-8" standalone="no"?>
<svg
   id="a"
   viewBox="0 0 48 48"
   version="1.1"
   sodipodi:docname="steam_icon_365720.svg"
   xmlns:inkscape="http://www.inkscape.org/namespaces/inkscape"
   xmlns:sodipodi="http://sodipodi.sourceforge.net/DTD/sodipodi-0.dtd"
   xmlns="http://www.w3.org/2000/svg"
   xmlns:svg="http://www.w3.org/2000/svg">
  <sodipodi:namedview
     id="namedview14"
     pagecolor="#ffffff"
     bordercolor="#666666"
     borderopacity="1.0"
     inkscape:showpageshadow="2"
     inkscape:pageopacity="0.0"
     inkscape:pagecheckerboard="0"
     inkscape:deskcolor="#d1d1d1" />
  <defs
     id="defs1">
    <style
       id="style1">.b{fill:none;stroke:#000;stroke-width:2px;stroke-linecap:round;stroke-linejoin:round;}</style>
  </defs>
  <path
     style="color:#000000;fill:#000000;stroke-linecap:round;stroke-linejoin:round;-inkscape-stroke:none"
     d="m 19.898437,24.078125 a 1,1 0 0 0 -1.083984,0.908203 1,1 0 0 0 0.908203,1.083984 c 0.189572,0.01683 0.132865,-0.02166 0.232422,0.244141 0.09956,0.265804 0.153518,0.798 0.121094,1.349609 a 1,1 0 0 0 0.939453,1.056641 1,1 0 0 0 1.056641,-0.939453 c 0.04138,-0.703889 0.02525,-1.448724 -0.244141,-2.167969 -0.269393,-0.719244 -0.994261,-1.45209 -1.929688,-1.535156 z"
     id="path1" />
  <path
     style="color:#000000;fill:#000000;stroke-linecap:round;stroke-linejoin:round;-inkscape-stroke:none"
     d="m 20.724609,18.175781 a 1,1 0 0 0 -1.162109,0.806641 1,1 0 0 0 0.808594,1.162109 c 0.358261,0.06444 0.725059,0.351596 0.93164,1.28125 a 1,1 0 0 0 1.19336,0.759766 1,1 0 0 0 0.757812,-1.19336 c -0.319618,-1.438343 -1.24196,-2.584848 -2.529297,-2.816406 z"
     id="path2" />
  <path
     style="color:#000000;fill:#000000;stroke-linecap:round;stroke-linejoin:round;-inkscape-stroke:none"
     d="m 18.078125,14.527344 a 1,1 0 0 0 -0.642578,1.259765 1,1 0 0 0 1.259765,0.642578 c 0.189099,-0.0613 0.282629,-0.06973 0.4375,0.357422 a 1,1 0 0 0 1.28125,0.59961 1,1 0 0 0 0.59961,-1.28125 c -0.432928,-1.194051 -1.739647,-1.965821 -2.935547,-1.578125 z"
     id="path3" />
  <path
     style="color:#000000;fill:#000000;stroke-linecap:round;stroke-linejoin:round;-inkscape-stroke:none"
     d="M 20.300781,4.1035156 A 1,1 0 0 0 19.6875,5.3769531 1,1 0 0 0 20.960937,5.9902344 c -0.04954,0.017348 -0.174394,0.00162 -0.201171,-0.013672 -0.02678,-0.015289 0.06271,0.029882 0.175781,0.2832031 a 1,1 0 0 0 1.320312,0.5058594 1,1 0 0 0 0.50586,-1.3203125 C 22.528689,4.9232342 22.204405,4.4985731 21.751953,4.2402344 21.299502,3.9818957 20.737516,3.9505681 20.300781,4.1035156 Z"
     id="path4" />
  <path
     style="color:#000000;fill:#000000;stroke-linecap:round;stroke-linejoin:round;-inkscape-stroke:none"
     d="m 26.611328,2.0527344 a 1.0001,1.0001 0 0 0 -0.662109,1.1582031 c 0,0 2.616633,12.1206725 3.30664,15.4609375 a 1,1 0 0 0 -1.048828,-0.255859 c -0.909172,0.55216 -1.386367,1.457802 -1.300781,2.238281 0.04279,0.390239 0.192456,0.721245 0.398437,0.986328 0.205982,0.265083 0.446508,0.505044 0.919922,0.59375 0.262388,0.04917 0.965775,0.202172 1.794922,-0.03125 0.414574,-0.116711 0.903623,-0.374444 1.216797,-0.865234 0.313174,-0.490791 0.380237,-1.122092 0.257813,-1.757813 -0.179642,-0.93279 -0.883961,-4.152066 -1.683594,-7.871094 l 4.076172,8.908203 -3.708985,8.234375 a 1.0001,1.0001 0 0 0 -0.03125,-0.09766 c 0,0 -0.221768,-0.527684 -0.384765,-1.251953 -0.162997,-0.724269 -0.217318,-1.604127 -0.03516,-2.128906 A 1.0001,1.0001 0 0 0 28.75,24.044922 c -1.02944,0.033 -1.874162,0.139534 -2.615234,0.43164 -0.741073,0.292107 -1.363931,0.824561 -1.736329,1.503907 -0.744794,1.358692 -0.714843,3.043745 -0.714843,5.570312 a 1,1 0 0 0 1,1 1,1 0 0 0 1,-1 c 0,-2.498428 0.13587,-4.002119 0.46875,-4.609375 0.166439,-0.303628 0.325023,-0.449091 0.716797,-0.603515 0.152208,-0.06 0.527256,-0.06887 0.755859,-0.113282 -8.49e-4,0.620058 0.07178,1.211263 0.185547,1.716797 0.138639,0.616038 0.235819,0.816208 0.335937,1.082031 C 27.922702,29.568378 27.64498,29.9331 27.390625,30.089844 27.095357,30.2718 26.9375,30.283203 26.9375,30.283203 a 1.0001,1.0001 0 0 0 -0.886719,0.988281 l -0.03516,7.03125 a 1.0001,1.0001 0 0 0 1.910156,0.416016 l 7.970703,-17.695313 a 1.0001,1.0001 0 0 0 -0.002,-0.826171 L 27.835937,2.5839844 a 1.0001,1.0001 0 0 0 -1.224609,-0.53125 z m 2.896484,17.7988276 c 0.0024,0.01231 0.02128,0.0962 0.02344,0.107422 0.05758,0.298978 0.0031,0.328435 0.01953,0.302735 0.0164,-0.0257 0.03306,-0.01403 -0.07227,0.01563 -0.09512,0.02678 -0.240184,-2.63e-4 -0.400391,-0.0039 0.03303,-0.04593 -0.05411,-0.01356 0.167969,-0.148437 a 1,1 0 0 0 0.261718,-0.273438 z m -0.375,11.31836 -1.09375,2.429687 0.0078,-1.660156 c 0.177708,-0.06893 0.194727,-0.02456 0.392578,-0.146484 0.228771,-0.140978 0.46245,-0.38664 0.693359,-0.623047 z"
     id="path5" />
  <path
     style="color:#000000;fill:#000000;stroke-linecap:round;stroke-linejoin:round;-inkscape-stroke:none"
     d="m 28.101562,24.078125 c -0.935426,0.08307 -1.660294,0.815912 -1.929687,1.535156 -0.269393,0.719245 -0.285516,1.46408 -0.244141,2.167969 a 1,1 0 0 0 1.056641,0.939453 1,1 0 0 0 0.939453,-1.056641 c -0.03242,-0.551609 0.02154,-1.083805 0.121094,-1.349609 0.09956,-0.265804 0.04285,-0.227307 0.232422,-0.244141 a 1,1 0 0 0 0.908203,-1.083984 1,1 0 0 0 -1.083985,-0.908203 z"
     id="path6" />
  <path
     style="color:#000000;fill:#000000;stroke-linecap:round;stroke-linejoin:round;-inkscape-stroke:none"
     d="m 26.052734,12.427734 a 1,1 0 0 0 -1,1 c 0,0.463623 -0.08961,0.603951 -0.207031,0.744141 -0.117421,0.14019 -0.340672,0.286619 -0.681641,0.474609 -0.340968,0.18799 -0.796238,0.410199 -1.21289,0.857422 -0.416653,0.447224 -0.708985,1.141026 -0.708985,1.923828 0,0.649226 0.312289,1.217483 0.644532,1.587891 0.332243,0.370408 0.680953,0.615638 0.970703,0.847656 0.5795,0.464037 0.865234,0.682679 0.865234,1.345703 a 1,1 0 0 0 1,1 1,1 0 0 0 1,-1 c 0,-1.446374 -0.955435,-2.377913 -1.615234,-2.90625 -0.329899,-0.264168 -0.599928,-0.475333 -0.732422,-0.623047 -0.132494,-0.147713 -0.132812,-0.160329 -0.132813,-0.251953 0,-0.380346 0.0619,-0.442499 0.171875,-0.560547 0.109979,-0.118047 0.355592,-0.269602 0.716797,-0.46875 0.361206,-0.199147 0.838838,-0.454803 1.248047,-0.943359 0.409209,-0.488556 0.673828,-1.200868 0.673828,-2.027344 a 1,1 0 0 0 -1,-1 z"
     id="path7" />
  <path
     style="color:#000000;fill:#000000;stroke-linecap:round;stroke-linejoin:round;-inkscape-stroke:none"
     d="m 27.275391,18.175781 c -1.287337,0.231558 -2.209679,1.378063 -2.529297,2.816406 a 1,1 0 0 0 0.757812,1.19336 1,1 0 0 0 1.19336,-0.759766 c 0.206581,-0.929654 0.573379,-1.216808 0.93164,-1.28125 A 1,1 0 0 0 28.4375,18.982422 1,1 0 0 0 27.275391,18.175781 Z"
     id="path8" />
  <path
     style="color:#000000;fill:#000000;stroke-linecap:round;stroke-linejoin:round;-inkscape-stroke:none"
     d="m 29.921875,14.527344 c -1.1959,-0.387696 -2.502619,0.384074 -2.935547,1.578125 a 1,1 0 0 0 0.599609,1.28125 1,1 0 0 0 1.28125,-0.59961 c 0.154872,-0.427148 0.248402,-0.418725 0.4375,-0.357422 a 1,1 0 0 0 1.259766,-0.642578 1,1 0 0 0 -0.642578,-1.259765 z"
     id="path9" />
  <path
     style="color:#000000;fill:#000000;stroke-linecap:round;stroke-linejoin:round;-inkscape-stroke:none"
     d="M 27.699219,4.1035156 C 27.262484,3.9505681 26.700498,3.9818957 26.248047,4.2402344 25.795595,4.4985731 25.471311,4.9232342 25.238281,5.4453125 a 1,1 0 0 0 0.50586,1.3203125 1,1 0 0 0 1.320312,-0.5058594 c 0.11307,-0.2533209 0.202558,-0.298492 0.175781,-0.2832031 -0.02678,0.015289 -0.151636,0.03102 -0.201172,0.013672 A 1,1 0 0 0 28.3125,5.3769531 1,1 0 0 0 27.699219,4.1035156 Z"
     id="path10" />
  <path
     style="color:#000000;fill:#000000;stroke-linecap:round;stroke-linejoin:round;-inkscape-stroke:none"
     d="M 20.908203,2.0136719 A 1.0001,1.0001 0 0 0 20.164062,2.5839844 L 12.105469,20.197266 a 1.0001,1.0001 0 0 0 -0.002,0.826171 l 7.970703,17.695313 a 1.0001,1.0001 0 0 0 1.166015,0.453125 l -0.277343,0.447266 a 1.0001,1.0001 0 0 0 -0.0625,0.935546 l 2.1875,4.855469 a 1.0001,1.0001 0 0 0 1.824218,0 l 2.1875,-4.855469 a 1.0001,1.0001 0 0 0 -1.783203,-0.902343 c 0,0 -0.386119,0.732422 -1.316406,0.732422 -0.436199,0 -0.732025,-0.172851 -0.945313,-0.34375 l 1.361329,-2.201172 a 1.0001,1.0001 0 0 0 0.08008,-0.896485 l -0.734375,-1.84375 1.785156,-3.042968 a 1.0001,1.0001 0 0 0 0.134766,-0.548829 C 25.576578,29.147079 25.257617,27.334888 24.205078,26.005859 23.15254,24.676831 21.452416,24.104216 19.244141,24.044922 a 1.0001,1.0001 0 0 0 -0.970704,1.328125 c 0.182162,0.524779 0.127841,1.404637 -0.03516,2.128906 -0.162997,0.724269 -0.384765,1.251953 -0.384765,1.251953 a 1.0001,1.0001 0 0 0 -0.0078,0.150391 l -3.732422,-8.28711 4.076172,-8.908203 c -0.799633,3.719028 -1.503952,6.938304 -1.683594,7.871094 -0.122427,0.635706 -0.05536,1.267032 0.257813,1.757813 0.313174,0.49078 0.802232,0.748516 1.216797,0.865234 0.829129,0.233437 1.532457,0.08043 1.794922,0.03125 0.473414,-0.08871 0.71394,-0.328667 0.919921,-0.59375 0.205982,-0.265083 0.355645,-0.596089 0.398438,-0.986328 0.08559,-0.780479 -0.391609,-1.686121 -1.300781,-2.238281 a 1,1 0 0 0 -1.048828,0.255859 C 19.434148,15.33161 22.050781,3.2109375 22.050781,3.2109375 A 1.0001,1.0001 0 0 0 20.908203,2.0136719 Z M 18.582031,19.425781 A 1,1 0 0 0 18.753906,20.125 c 0.222079,0.134873 0.13494,0.102509 0.167969,0.148437 -0.16021,0.0036 -0.305266,0.03069 -0.400391,0.0039 -0.105334,-0.02966 -0.08866,-0.04133 -0.07227,-0.01563 0.0164,0.0257 -0.03804,-0.0038 0.01953,-0.302735 0.01072,-0.05566 0.09687,-0.451613 0.113281,-0.533203 z M 20.375,26.224609 c 1.054537,0.17353 1.825449,0.470098 2.263672,1.023438 0.568834,0.71826 0.895102,2.059692 1.011719,4.085937 l -1.685547,2.876953 -0.01563,-2.939453 A 1.0001,1.0001 0 0 0 21.0625,30.283203 c 0,0 -0.157857,-0.0114 -0.453125,-0.193359 -0.254355,-0.156744 -0.532077,-0.521466 -0.755859,-1.066407 0.100118,-0.265823 0.197298,-0.465993 0.335937,-1.082031 0.113771,-0.505534 0.186396,-1.096739 0.185547,-1.716797 z m -1.507813,4.945313 c 0.23091,0.236407 0.464589,0.482069 0.69336,0.623047 0.197851,0.121923 0.21487,0.07755 0.392578,0.146484 l 0.0078,1.660156 z m 3.105469,4.84375 0.478516,1.201172 -0.46875,0.755859 z m 1.9375,6.353515 c 0.0336,9.63e-4 0.05566,0.01758 0.08984,0.01758 0.03418,0 0.05624,-0.01662 0.08984,-0.01758 L 24,42.564453 Z"
     id="path11" />
  <path
     style="color:#000000;fill:#000000;stroke-linecap:round;stroke-linejoin:round;-inkscape-stroke:none"
     d="m 22.931641,6.5878906 a 1,1 0 0 0 -1.271485,0.6191406 c -0.276192,0.8022887 -0.199065,1.5931182 0.02539,2.2167969 0.224455,0.6236789 0.565505,1.0976779 0.976562,1.4374999 0.651454,0.538559 1.37439,0.496547 2.06836,0.314453 0.693969,-0.182094 1.404841,-0.599965 1.943359,-1.2968747 A 1,1 0 0 0 26.494141,8.4765625 1,1 0 0 0 25.091797,8.65625 c -0.246181,0.3185888 -0.586911,0.5118818 -0.869141,0.5859375 -0.282229,0.074056 -0.458463,-0.065487 -0.287109,0.076172 -0.06904,-0.057077 -0.268544,-0.2981703 -0.367188,-0.5722656 -0.09864,-0.2740954 -0.129085,-0.5647617 -0.01758,-0.8886719 a 1,1 0 0 0 -0.61914,-1.2695313 z"
     id="path12" />
  <path
     style="color:#000000;fill:#000000;stroke-linecap:round;stroke-linejoin:round;-inkscape-stroke:none"
     d="M 22.638672,8.1347656 A 1,1 0 0 0 21.644531,9.140625 c 0.0016,0.2272996 0.09986,-0.030176 -0.130859,0.2109375 C 21.282949,9.5926763 20.818481,10.21975 20.75,11.060547 c -0.02195,0.269442 -0.176333,0.547947 -0.294922,1.125 -0.118589,0.577052 0.005,1.420148 0.535156,2.152344 a 1.0001,1.0001 0 0 0 1.789063,-0.376953 c 0.154059,-0.719866 0.39958,-1.012264 0.585937,-1.144532 0.186357,-0.132267 0.383392,-0.164177 0.658203,-0.111328 0.274812,0.05285 0.589771,0.21984 0.791016,0.40625 0.201246,0.18641 0.236328,0.371349 0.236328,0.316406 0,0.222299 -0.0056,0.215082 -0.265625,0.396485 -0.260048,0.181402 -0.766363,0.390434 -1.34375,0.632812 -0.577387,0.242378 -1.237261,0.525903 -1.816406,1.058594 -0.579145,0.532691 -1.017578,1.378319 -1.017578,2.369141 0,0.87788 0.1949,1.547161 0.361328,2.052734 0.166428,0.505573 0.286812,0.834984 0.310547,1.320312 a 1,1 0 0 0 1.048828,0.949219 1,1 0 0 0 0.949219,-1.046875 c -0.03856,-0.78857 -0.254407,-1.380455 -0.408203,-1.847656 -0.153797,-0.467201 -0.261719,-0.824017 -0.261719,-1.427734 0,-0.490828 0.11682,-0.662607 0.371094,-0.896485 0.254273,-0.233877 0.704444,-0.463403 1.238281,-0.6875 0.533837,-0.224096 1.139521,-0.435971 1.71289,-0.835937 0.57337,-0.399966 1.121094,-1.14816 1.121094,-2.03711 0,-0.764592 -0.400118,-1.341519 -0.876953,-1.783203 -0.476835,-0.441683 -1.080675,-0.771071 -1.773437,-0.904297 -0.478213,-0.09196 -1.00384,-0.0139 -1.515625,0.164063 0.02824,-0.02822 0.0066,-0.09928 0.07422,-0.169922 0.194477,-0.203236 0.691022,-0.8419225 0.685547,-1.6074219 A 1,1 0 0 0 22.638672,8.1347656 Z"
     id="path13" />
  <path
     style="color:#000000;fill:#000000;stroke-linecap:round;stroke-linejoin:round;-inkscape-stroke:none"
     d="m 24.246094,9.2363281 c -0.459339,0.100704 -0.764999,0.4012012 -0.947266,0.6875 -0.182267,0.2862989 -0.273526,0.5873459 -0.302734,0.9042969 -0.05842,0.633902 0.217421,1.498166 1.015625,1.857422 A 1,1 0 0 0 25.333984,12.183594 1,1 0 0 0 25.048828,11.015625 1,1 0 0 0 25.4375,9.9980469 1,1 0 0 0 24.246094,9.2363281 Z"
     id="path14" />
</svg>
