<?xml version="1.0" encoding="UTF-8"?>
<svg id="svg12" version="1.1" viewBox="0 0 48 48" xmlns="http://www.w3.org/2000/svg">
 <defs id="defs4">
  <style id="style2">.a{fill:none;stroke:#000;stroke-width:2px;stroke-linecap:round;stroke-linejoin:round;}</style>
 </defs>
 <path id="path6" d="m7.5 4.5c-1.645 0-3 1.355-3 3v33c0 1.645 1.355 3 3 3h33c1.645 0 3-1.355 3-3v-33c0-1.645-1.355-3-3-3zm0 2h33c0.56413 0 1 0.43587 1 1v33c0 0.56413-0.43587 1-1 1h-33c-0.56413 0-1-0.43587-1-1v-33c0-0.56413 0.43587-1 1-1z" color="#000000" stroke-linecap="round" stroke-linejoin="round" style="-inkscape-stroke:none"/>
 <path id="path8" d="m29.561 11.879a1 1 0 0 0-1 1v16.682c0 2.5306-2.03 4.5605-4.5605 4.5605a1.0001 1.0001 0 0 0-2e-3 0c-1.2094 0.0016-2.3686-0.47772-3.2227-1.334a1 1 0 0 0-1.4141-2e-3 1 1 0 0 0-2e-3 1.4141c1.2293 1.2325 2.9018 1.9241 4.6426 1.9219 3.6105-0.0012 6.5586-2.9498 6.5586-6.5605v-16.682a1 1 0 0 0-1-1z" color="#000000" stroke-linecap="round" stroke-linejoin="round" style="-inkscape-stroke:none"/>
 <path id="rect10" transform="translate(48 40.493) rotate(180)" d="m24 11.879c-3.6172 0-6.5605 2.9433-6.5605 6.5605v3.6152c0 3.6172 2.9433 6.5605 6.5605 6.5605s6.5605-2.9433 6.5605-6.5605v-3.6152c0-3.6172-2.9433-6.5605-6.5605-6.5605zm0 2c2.5438 0 4.5605 2.0167 4.5605 4.5605v3.6152c0 2.5438-2.0167 4.5605-4.5605 4.5605s-4.5605-2.0167-4.5605-4.5605v-3.6152c0-2.5438 2.0167-4.5605 4.5605-4.5605z" color="#000000" stroke-linecap="round" stroke-linejoin="round" style="-inkscape-stroke:none"/>
</svg>
