<?xml version="1.0" encoding="UTF-8"?>
<svg id="a" version="1.1" viewBox="0 0 48 48" xmlns="http://www.w3.org/2000/svg">
 <defs id="defs4">
  <style id="style2">.d{fill:none;stroke:#000;stroke-width:2px;stroke-linecap:round;stroke-linejoin:round;}</style>
 </defs>
 <path id="path6" d="m22.176 32.094a1 1 0 0 0-1 1v1.6113c0 0.82618 0.42308 1.3953 0.89453 1.9414 0.47146 0.5461 1.0641 1.0564 1.6895 1.5176 0.62532 0.46115 1.2812 0.86837 1.8887 1.1738 0.60749 0.30546 1.0882 0.54688 1.7617 0.54688 0.82937 0 1.4199-0.34477 2.1895-0.77539 0.76954-0.43062 1.5902-0.99616 2.2988-1.6172a1 1 0 0 0 0.0918-1.4121 1 1 0 0 0-1.4102-0.0918c-0.58157 0.50967-1.315 1.0157-1.957 1.375s-1.3205 0.52148-1.2129 0.52148c0.0874 0-0.37938-0.09067-0.86328-0.33398-0.4839-0.24332-1.0648-0.60023-1.6016-0.99609-0.53679-0.39586-1.0325-0.83624-1.3594-1.2148-0.32686-0.37861-0.41016-0.7091-0.41016-0.63477v-1.6113a1 1 0 0 0-1-1z" color="#000000" stroke-linecap="round" stroke-linejoin="round" style="-inkscape-stroke:none"/>
 <path id="path8" d="m28.449 27.473a1 1 0 0 0-1 1c0 0.12948-0.09276 1.0697-0.34766 1.9023s-0.71032 1.571-1.0508 1.7676a1 1 0 0 0-0.36523 1.3652 1 1 0 0 0 1.3652 0.36719c1.1471-0.6623 1.6404-1.8605 1.9629-2.9141 0.3225-1.0535 0.43555-1.9491 0.43555-2.4883a1 1 0 0 0-1-1z" color="#000000" stroke-linecap="round" stroke-linejoin="round" style="-inkscape-stroke:none"/>
 <path id="path10" d="m26.605 26.504a1 1 0 0 0-1.2109 0.73242s-0.61082 2.073-1.9805 2.8359a1 1 0 0 0-0.38672 1.3594 1 1 0 0 0 1.3594 0.38672c2.3671-1.3185 2.9512-4.1035 2.9512-4.1035a1 1 0 0 0-0.73242-1.2109z" color="#000000" stroke-linecap="round" stroke-linejoin="round" style="-inkscape-stroke:none"/>
 <path id="path12" d="m29.916 24.928a1.0001 1.0001 0 0 0-0.61719 0.92383c5e-6 0.41415 1e-3 1.2111-0.0332 2.0273-0.03425 0.81629-0.12233 1.6846-0.2168 2.0371a1 1 0 0 0 0.70703 1.2246 1 1 0 0 0 1.2246-0.70703c0.08793-0.32816 0.08717-0.74932 0.12891-1.1289 0.15752 0.47836 0.34579 0.95742 0.41797 1.4258 0.1135 0.73645 0.12338 1.427 0.05664 1.9414s-0.26089 0.8312-0.23633 0.80664a1 1 0 0 0 0 1.4141 1 1 0 0 0 1.4141 0c0.54471-0.54476 0.70736-1.2126 0.80469-1.9629 0.09733-0.75025 0.07631-1.6032-0.0625-2.5039-0.27762-1.8014-1.0226-3.8058-2.498-5.2812a1.0001 1.0001 0 0 0-1.0898-0.2168z" color="#000000" stroke-linecap="round" stroke-linejoin="round" style="-inkscape-stroke:none"/>
 <path id="path14" d="m26.9 35.16a1 1 0 0 0-1 1 1 1 0 0 0 1 1h1.0195a1 1 0 0 0 1-1 1 1 0 0 0-1-1z" color="#000000" stroke-linecap="round" stroke-linejoin="round" style="-inkscape-stroke:none"/>
 <path id="path16" d="m22.893 25.035a1 1 0 0 0-0.75781 0.09961c-1.5008 0.86648-1.9206 2.5269-2.4375 3.834-0.25844 0.65355-0.52318 1.242-0.81445 1.6504-0.29128 0.40836-0.56065 0.62726-0.95312 0.73242a1 1 0 0 0-0.70703 1.2246 1 1 0 0 0 1.2246 0.70703c0.91073-0.24403 1.595-0.84373 2.0645-1.502s0.77144-1.3846 1.0449-2.0762c0.54697-1.3832 1.0491-2.5325 1.5781-2.8379a1 1 0 0 0 0.36523-1.3652 1 1 0 0 0-0.60742-0.4668z" color="#000000" stroke-linecap="round" stroke-linejoin="round" style="-inkscape-stroke:none"/>
 <path id="path18" d="m20.42 37.166a1 1 0 0 0-1.3848 0.28711c-0.48742 0.74312-1.244 1.0424-2.3613 1.1367-1.1174 0.0943-2.4901-0.08611-3.7793-0.25781-1.2892-0.1717-2.4443-0.40578-3.5605-0.05273-0.55813 0.17652-1.1603 0.66592-1.3496 1.3262-0.18931 0.66025-0.06189 1.3157 0.20703 2.0625a1 1 0 0 0 1.2793 0.60156 1 1 0 0 0 0.60156-1.2793c-0.1949-0.54124-0.16716-0.8232-0.16406-0.83399 0.00309-0.01078-0.1151 0.07497 0.029297 0.0293 0.2888-0.09134 1.4135-0.04156 2.6934 0.12891 1.2799 0.17046 2.7641 0.38969 4.2109 0.26758 1.4468-0.12211 2.9621-0.65428 3.8652-2.0312a1 1 0 0 0-0.28711-1.3848z" color="#000000" stroke-linecap="round" stroke-linejoin="round" style="-inkscape-stroke:none"/>
 <path id="path20" d="m16.346 34.766c-0.53156 0.29454-0.85262 0.69026-1.2051 1.1016-0.35246 0.4113-0.70588 0.85111-1.0781 1.2324-0.7445 0.76262-1.4181 1.2248-2.3496 1.0879a1 1 0 0 0-1.1348 0.84375 1 1 0 0 0 0.84375 1.1348c1.7688 0.25998 3.1492-0.7244 4.0723-1.6699 0.46153-0.47276 0.84558-0.95224 1.166-1.3262 0.32044-0.37393 0.60895-0.62917 0.6543-0.6543a1 1 0 0 0 0.39062-1.3594 1 1 0 0 0-1.3594-0.39062z" color="#000000" stroke-linecap="round" stroke-linejoin="round" style="-inkscape-stroke:none"/>
 <path id="path22" d="m10.764 35.117c-0.59514 0-2.6716 0.20382-3.8789 2.2949a1 1 0 0 0 0.36523 1.3672 1 1 0 0 0 1.3652-0.36719c0.76942-1.3327 1.7906-1.2949 2.1484-1.2949a1 1 0 0 0 1-1 1 1 0 0 0-1-1z" color="#000000" stroke-linecap="round" stroke-linejoin="round" style="-inkscape-stroke:none"/>
 <path id="path24" d="m16.133 30.74a1 1 0 0 0-1.2246 0.70703c-0.13554 0.50584-0.38188 0.73329-0.89062 0.9375-0.50874 0.20421-1.2763 0.2858-2.1074 0.23242-1.6623-0.10675-3.6107-0.77423-4.2148-1.123a1 1 0 0 0-1.3672 0.36523 1 1 0 0 0 0.36719 1.3672c1.0949 0.63215 3.0505 1.256 5.0859 1.3867 1.0177 0.06536 2.0461 2e-3 2.9805-0.37305 0.93436-0.37506 1.7799-1.1625 2.0781-2.2754a1 1 0 0 0-0.70703-1.2246z" color="#000000" stroke-linecap="round" stroke-linejoin="round" style="-inkscape-stroke:none"/>
 <path id="path26" d="m25.486 36.986a1 1 0 0 0-0.75977 0.09961 1 1 0 0 0-0.36719 1.3652s0.04941 0.08541 2e-3 0.24805c-0.04745 0.16263-0.24576 0.62088-1.7773 1.0312a1 1 0 0 0-0.70703 1.2246 1 1 0 0 0 1.2246 0.70703c1.9002-0.50913 2.8939-1.4229 3.1797-2.4023 0.2858-0.97944-0.1875-1.8066-0.1875-1.8066a1 1 0 0 0-0.60742-0.4668z" color="#000000" stroke-linecap="round" stroke-linejoin="round" style="-inkscape-stroke:none"/>
 <path id="path28" d="m30.943 39.211a1 1 0 0 0-1.3809 0.31055 1 1 0 0 0 0.3125 1.3809c0.48032 0.303 1.0807 0.55583 1.8418 0.75976a1 1 0 0 0 1.2246-0.70703 1 1 0 0 0-0.70703-1.2246c-0.61348-0.16438-1.0269-0.35289-1.291-0.51953z" color="#000000" stroke-linecap="round" stroke-linejoin="round" style="-inkscape-stroke:none"/>
 <path id="path30" d="m34.324 36.91a1 1 0 0 0-1.2246 0.70703c-0.11706 0.43688-0.23431 0.53618-0.5 0.68945-0.26569 0.15328-0.73388 0.28367-1.332 0.43945-1.1963 0.31156-2.9433 0.87895-4.0664 2.8242a1 1 0 0 0 0.36523 1.3652 1 1 0 0 0 1.3672-0.36524c0.79223-1.3722 1.6898-1.5897 2.8379-1.8887 0.57402-0.1495 1.2024-0.28159 1.8281-0.64258 0.62575-0.36099 1.1967-1.0274 1.4316-1.9043a1 1 0 0 0-0.70703-1.2246z" color="#000000" stroke-linecap="round" stroke-linejoin="round" style="-inkscape-stroke:none"/>
 <path id="path32" d="m35.51 32.115a1 1 0 0 0-1.4102 0.11719c-0.5448 0.64318-0.66595 1.4542-0.61133 2.1055s0.23958 1.2161 0.36328 1.6777a1 1 0 0 0 1.2246 0.70703 1 1 0 0 0 0.70703-1.2246c-0.13782-0.51434-0.27216-0.9849-0.30078-1.3262s0.004057-0.48064 0.14453-0.64648a1 1 0 0 0-0.11719-1.4102z" color="#000000" stroke-linecap="round" stroke-linejoin="round" style="-inkscape-stroke:none"/>
 <path id="path34" d="m35.205 29.549a1 1 0 0 0-0.77344 1.1836c0.08758 0.4183 0.27916 0.73589 0.50391 1 0.22475 0.26411 0.45018 0.49718 0.91992 0.62305a1 1 0 0 0 1.2246-0.70703 1 1 0 0 0-0.70703-1.2246c0.21185 0.05676 0.12729 0.06031 0.08594 0.01172-0.04135-0.04859-0.07349-0.12847-0.07031-0.11328a1 1 0 0 0-1.1836-0.77344z" color="#000000" stroke-linecap="round" stroke-linejoin="round" style="-inkscape-stroke:none"/>
 <path id="path36" d="m27.41 17.496c-3.2661 0-5.9284 0.95199-7.6914 2.9805-1.763 2.0285-2.5625 4.982-2.5625 8.7871a1 1 0 0 0 1 1 1 1 0 0 0 1-1c0-3.5238 0.74877-5.9518 2.0723-7.4746 1.3235-1.5228 3.2876-2.293 6.1816-2.293s4.8581 0.77018 6.1816 2.293c1.3235 1.5228 2.0723 3.9508 2.0723 7.4746a1 1 0 0 0 1 1 1 1 0 0 0 1-1c0-3.8051-0.7995-6.7586-2.5625-8.7871-1.763-2.0285-4.4253-2.9805-7.6914-2.9805z" color="#000000" stroke-linecap="round" stroke-linejoin="round" style="-inkscape-stroke:none"/>
 <path id="path38" d="m36.766 32.332a1 1 0 0 0-0.70703 0.29297 1 1 0 0 0 0 1.4141c0.50738 0.50741 0.79011 1.3064 0.61133 2.1973s-0.81714 1.9207-2.3652 2.8145a1 1 0 0 0-0.36719 1.3672 1 1 0 0 0 1.3672 0.36523c1.9327-1.1158 3.0202-2.6295 3.3262-4.1543 0.30599-1.5248-0.16948-3.0151-1.1582-4.0039a1 1 0 0 0-0.70703-0.29297z" color="#000000" stroke-linecap="round" stroke-linejoin="round" style="-inkscape-stroke:none"/>
 <path id="path40" d="m9.5391 22.348c-1.7799 0.06084-3.3812 0.16871-4.2969 0.41406a1.0001 1.0001 0 0 0-0.70703 1.2246c0.56757 2.1182 2.645 3.6021 4.4863 4.7754 1.8414 1.1733 3.5645 1.9375 3.5645 1.9375a1.0001 1.0001 0 0 0 0.66406 0.052734c0.53047-0.14214 1.1591-0.25971 1.8262-0.55859 0.66706-0.29889 1.3562-0.82054 1.8594-1.6387a1 1 0 0 0-0.32812-1.375 1 1 0 0 0-1.375 0.32812c-0.29766 0.484-0.58257 0.68567-0.97461 0.86133-0.2967 0.13294-0.72576 0.23187-1.1543 0.3418-0.25019-0.1138-1.4631-0.65049-3.0078-1.6348-1.1725-0.74712-2.1488-1.6666-2.8398-2.5176 0.75864-0.08379 1.3084-0.17723 2.3516-0.21289 1.7068-0.05834 3.574 0.03347 4.0176 0.15234a1 1 0 0 0 1.2246-0.70703 1 1 0 0 0-0.70703-1.2246c-1.1232-0.30095-2.8237-0.27959-4.6035-0.21875z" color="#000000" stroke-linecap="round" stroke-linejoin="round" style="-inkscape-stroke:none"/>
 <path id="path42" d="m8.4805 8.9277c-0.74808 0-1.1688 0.5183-1.418 0.95898-0.24917 0.44068-0.40383 0.95149-0.50586 1.5508-0.20405 1.1986-0.17066 2.7468 0.27344 4.4492 0.88819 3.4048 3.5029 7.3968 9.1758 9.7637a1 1 0 0 0 1.3066-0.53906 1 1 0 0 0-0.53711-1.3066c-5.1471-2.1476-7.2621-5.5558-8.0098-8.4219-0.37383-1.433-0.38458-2.7385-0.23633-3.6094 0.060332-0.35439 0.1481-0.56618 0.22266-0.73438 0.20476 0.05722 0.54488 0.14164 1.0977 0.45117 0.68944 0.38606 1.4953 0.93266 2.2539 1.5059 0.75858 0.5732 1.4747 1.1764 1.9941 1.666 0.25971 0.24481 0.47052 0.46383 0.60352 0.61914s0.17065 0.33877 0.09766 0.06641a1.0001 1.0001 0 0 0 1.2246 0.70703c0.98197-0.26311 1.4955-0.30921 1.5684-0.30273 0.01741 0.02064 0.06368 0.07404 0.15625 0.23438a1.0001 1.0001 0 0 0 0.86719 0.5c2.104 0 3.3876-0.216 4.1328-0.04102 0.74523 0.17499 1.3464 0.63305 2.4863 2.6074a1 1 0 0 0 1.3652 0.36719 1 1 0 0 0 0.36719-1.3672c-1.2418-2.1509-2.3677-3.2274-3.7617-3.5547-1.2451-0.29238-2.4947-0.05998-4.0996-0.0098-0.06557-0.08034-0.09693-0.16409-0.18164-0.24219-0.25917-0.23893-0.64037-0.42353-1.0059-0.47852-0.50788-0.07641-1.0906 0.10668-1.6758 0.24805-0.0084-0.0096-0.01295-0.02519-0.02148-0.03516-0.20525-0.23967-0.45737-0.49576-0.75195-0.77344-0.58916-0.55536-1.3477-1.1927-2.1602-1.8066-0.8125-0.61391-1.6739-1.2015-2.4824-1.6543-0.8085-0.45273-1.4947-0.81846-2.3457-0.81836z" color="#000000" stroke-linecap="round" stroke-linejoin="round" style="-inkscape-stroke:none"/>
 <path id="path44" d="m34.895 5.0703a1.0001 1.0001 0 0 0-0.4668 1.125c0.11011 0.41062 0.0589 1.7413-0.24805 3.0801-0.28873 1.2593-0.7735 2.5423-1.2578 3.4395-0.68284 0.25413-4.2877 1.6625-6.377 5.2812a1 1 0 0 0 0.36523 1.3672 1 1 0 0 0 1.3652-0.36719c1.818-3.1488 5.7656-4.6211 5.7656-4.6211a1.0001 1.0001 0 0 0 0.53125-0.44336c0.67482-1.1688 1.2124-2.7074 1.5566-4.209 0.0383-0.16705 0.04592-0.31449 0.08008-0.47852 0.79445 2.0321 1.1747 4.6067 1.1309 7.2344-0.06597 3.9554-0.97581 7.9226-1.7539 9.4785a1 1 0 0 0 0.44727 1.3418 1 1 0 0 0 1.3398-0.44727c1.0677-2.1351 1.8965-6.1226 1.9668-10.34s-0.59915-8.647-3.2383-11.283a1.0001 1.0001 0 0 0-1.207-0.1582z" color="#000000" stroke-linecap="round" stroke-linejoin="round" style="-inkscape-stroke:none"/>
 <path id="path46" d="m16.916 9.2188a1 1 0 0 0-1.1934 0.75781 1 1 0 0 0 0.75781 1.1953c2.7151 0.60494 4.9099 1.2593 6.4453 2.1348 1.5354 0.87548 2.4112 1.8813 2.793 3.4531a1 1 0 0 0 1.209 0.73633 1 1 0 0 0 0.73438-1.207c-0.51295-2.1121-1.8837-3.6588-3.7461-4.7207-1.8624-1.0619-4.2152-1.7291-7-2.3496z" color="#000000" stroke-linecap="round" stroke-linejoin="round" style="-inkscape-stroke:none"/>
 <path id="path48" d="m37.932 21.613a1 1 0 0 0-1.2246 0.70703 1 1 0 0 0 0.70703 1.2266c0.89457 0.2397 2.5206 1.3213 3.4004 2.3105 0.4021 0.45214 0.57802 0.84521 0.625 0.99609-0.87127 0.23828-1.556 0.90012-1.7598 1.6348-0.05075 0.183 0.05074 0.32595 0.03906 0.50195-1.4354-1.5511-2.3652-3.0703-2.3652-3.0703a1 1 0 0 0-1.3594-0.39062 1 1 0 0 0-0.38867 1.3594s2.173 4.0318 5.9102 6.1895a1.0002 1.0002 0 0 0 1-1.7324c0.25657 0.14812 0.11456 0.08549 0.04687 0.0039-0.06769-0.08158-0.16632-0.21195-0.26953-0.36914-0.20643-0.31438-0.43393-0.73916-0.56836-1.125-0.13443-0.38584-0.14928-0.7163-0.11719-0.83203 0.0321-0.11573-0.01909-0.14221 0.36133-0.24414 0.46351-0.1242 0.90874-0.36321 1.2031-0.77148 0.29439-0.40827 0.36706-0.92514 0.30664-1.3457-0.12084-0.84114-0.59464-1.4879-1.1699-2.1348-1.1506-1.2937-2.8006-2.4917-4.377-2.9141z" color="#000000" stroke-linecap="round" stroke-linejoin="round" style="-inkscape-stroke:none"/>
 <path id="path50" d="m18.604 33.879a1 1 0 0 0-0.70703 1.2266 1 1 0 0 0 1.2246 0.70703c-0.16066 0.04306-0.04787 6.04e-4 0.11719 0.13086 0.16506 0.13026 0.30285 0.41537 0.26953 0.29102a1 1 0 0 0 1.2246 0.70703 1 1 0 0 0 0.70703-1.2246c-0.16717-0.62391-0.51368-0.98884-0.96094-1.3418s-1.0733-0.71095-1.875-0.49609z" color="#000000" stroke-linecap="round" stroke-linejoin="round" style="-inkscape-stroke:none"/>
</svg>
