<?xml version="1.0" encoding="UTF-8"?>
<svg id="a" version="1.1" viewBox="0 0 48 48" xmlns="http://www.w3.org/2000/svg">
 <defs id="defs1">
  <style id="style1">.b{fill:none;stroke:#000;stroke-width:2px;stroke-linecap:round;stroke-linejoin:round;}</style>
 </defs>
 <path id="path1" d="m34.604 3.5039-16.053 1.4883a1.0001 1.0001 0 0 0-0.90625 0.99609 1.0001 1.0001 0 0 0 0.01367 0.16992s2.262 13.152 2.5332 14.762c-0.06661 0.08411-0.13986 0.17527-0.27734 0.32226-0.36004 0.38496-0.91778 0.92889-1.5742 1.5762-1.3129 1.2946-3.0253 3.0182-4.5156 5.0039-1.4904 1.9858-2.7791 4.2368-3.1621 6.6602-0.38298 2.4234 0.24423 5.0287 2.4062 7.2793 2.1438 2.2316 4.6 3.0151 6.9219 2.6445 2.3218-0.37052 4.4551-1.7625 6.4082-3.5469 3.9062-3.5687 7.1715-8.8419 9.1348-11.867 2.3002-3.5445 2.1389-9.597 1.6387-14.895-0.50023-5.2975-1.5-9.8125-1.5-9.8125a1.0001 1.0001 0 0 0-1.0684-0.78125zm-0.75195 2.0781c0.14968 0.70012 0.88544 4.017 1.3281 8.7051 0.48679 5.1552 0.32564 11.076-1.3223 13.615-1.9849 3.0586-5.2231 8.2048-8.8086 11.48-1.7927 1.6379-3.6537 2.7741-5.375 3.0488-1.7213 0.27469-3.3578-0.17843-5.1621-2.0566-1.7861-1.8593-2.1777-3.665-1.875-5.5801 0.30266-1.9151 1.4054-3.9305 2.7871-5.7715 1.3817-1.841 3.022-3.5011 4.3203-4.7812 0.64914-0.64009 1.2094-1.1822 1.6309-1.6328 0.21072-0.22531 0.38607-0.4241 0.53711-0.63867s0.41772-0.39968 0.30664-1.0664c-0.18687-1.1216-2.1136-12.319-2.4062-14.02z" stroke-linecap="round" stroke-linejoin="round"/>
 <path id="path2" d="m11.68 34.113a1 1 0 0 0-1.0859 0.9082 1 1 0 0 0 0.9082 1.084c4.6713 0.41546 7.276 2.0665 8.7617 3.5625s1.8164 2.7637 1.8164 2.7637a1 1 0 0 0 1.2285 0.69922 1 1 0 0 0 0.69922-1.2305s-0.52103-1.827-2.3242-3.6426c-1.8032-1.8156-4.9246-3.6928-10.004-4.1445z" stroke-linecap="round" stroke-linejoin="round"/>
 <path id="path3" d="m36.756 18.283a1 1 0 0 0-0.76367 0.0625c-6.4494 3.3141-8.0719 10.812-6.5566 16.686a1 1 0 0 0 1.2188 0.71875 1 1 0 0 0 0.71875-1.2188c-1.328-5.1472 0.059247-11.593 5.5332-14.406a1 1 0 0 0 0.43359-1.3477 1 1 0 0 0-0.58398-0.49414z" stroke-linecap="round" stroke-linejoin="round"/>
 <path id="line3" d="m21.645 6.707a1 1 0 0 0-0.90625 1.0859l0.27539 3.043a1 1 0 0 0 1.0859 0.90625 1 1 0 0 0 0.90625-1.0859l-0.27539-3.043a1 1 0 0 0-1.0859-0.90625z" stroke-linecap="round" stroke-linejoin="round"/>
 <path id="line4" d="m24.439 6.3984a1 1 0 0 0-0.91797 1.0762l0.22656 2.8652a1 1 0 0 0 1.0742 0.91797 1 1 0 0 0 0.91797-1.0762l-0.22656-2.8633a1 1 0 0 0-1.0742-0.91992z" stroke-linecap="round" stroke-linejoin="round"/>
 <path id="line5" d="m27.355 6.1934a1 1 0 0 0-0.86914 1.1172l0.29102 2.3301a1 1 0 0 0 1.1172 0.86719 1 1 0 0 0 0.86719-1.1152l-0.29102-2.3301a1 1 0 0 0-1.1152-0.86914z" stroke-linecap="round" stroke-linejoin="round"/>
 <path id="line6" d="m30.178 6.2949a1 1 0 0 0-0.83984 1.1367l0.29102 1.9414a1 1 0 0 0 1.1367 0.83984 1 1 0 0 0 0.8418-1.1367l-0.29102-1.9414a1 1 0 0 0-1.1387-0.83984z" stroke-linecap="round" stroke-linejoin="round"/>
 <path id="line7" d="m33.01 6.4434a1 1 0 0 0-0.81641 1.1543l0.23828 1.3984a1 1 0 0 0 1.1543 0.81836 1 1 0 0 0 0.81641-1.1543l-0.23828-1.4004a1 1 0 0 0-1.1543-0.81641z" stroke-linecap="round" stroke-linejoin="round"/>
</svg>
