<?xml version="1.0" encoding="UTF-8" standalone="no"?>
<svg
   viewBox="0 0 48 48"
   version="1.1"
   id="svg2"
   sodipodi:docname="steam_icon_4000.svg"
   xmlns:inkscape="http://www.inkscape.org/namespaces/inkscape"
   xmlns:sodipodi="http://sodipodi.sourceforge.net/DTD/sodipodi-0.dtd"
   xmlns="http://www.w3.org/2000/svg"
   xmlns:svg="http://www.w3.org/2000/svg">
  <sodipodi:namedview
     id="namedview2"
     pagecolor="#ffffff"
     bordercolor="#666666"
     borderopacity="1.0"
     inkscape:showpageshadow="2"
     inkscape:pageopacity="0.0"
     inkscape:pagecheckerboard="0"
     inkscape:deskcolor="#d1d1d1" />
  <defs
     id="defs1">
    <style
       id="style1">.a{fill:none;stroke:#000;stroke-width:2px;stroke-linecap:round;stroke-linejoin:round;}</style>
  </defs>
  <path
     style="color:#000000;fill:#000000;stroke-linecap:round;stroke-linejoin:round;-inkscape-stroke:none"
     d="m 7.5,4.5 c -1.645008,0 -3,1.354992 -3,3 v 33 c 0,1.645008 1.354992,3 3,3 h 33 c 1.645008,0 3,-1.354992 3,-3 v -33 c 0,-1.645008 -1.354992,-3 -3,-3 z m 0,2 h 33 c 0.564129,0 1,0.4358712 1,1 v 33 c 0,0.564129 -0.435871,1 -1,1 h -33 c -0.5641288,0 -1,-0.435871 -1,-1 v -33 c 0,-0.5641288 0.4358712,-1 1,-1 z"
     id="path1" />
  <path
     style="color:#000000;fill:#000000;stroke-linecap:round;stroke-linejoin:round;-inkscape-stroke:none"
     d="m 29.560547,11.878906 a 1,1 0 0 0 -1,1 v 16.681641 c 0,2.530559 -2.029988,4.560501 -4.560547,4.560547 a 1.0001,1.0001 0 0 0 -0.002,0 c -1.209363,0.0016 -2.368619,-0.477724 -3.222656,-1.333985 a 1,1 0 0 0 -1.414063,-0.002 1,1 0 0 0 -0.002,1.414063 c 1.229344,1.232543 2.901761,1.924141 4.642578,1.921875 3.610518,-0.0012 6.558594,-2.949786 6.558594,-6.560547 V 12.878906 a 1,1 0 0 0 -1,-1 z"
     id="path2" />
  <path
     style="color:#000000;fill:#000000;stroke-linecap:round;stroke-linejoin:round;-inkscape-stroke:none"
     d="m 24,11.878906 c -3.617216,0 -6.560547,2.943331 -6.560547,6.560547 v 3.615234 c 0,3.617217 2.943331,6.560547 6.560547,6.560547 3.617216,0 6.560547,-2.94333 6.560547,-6.560547 v -3.615234 c 0,-3.617216 -2.943331,-6.560547 -6.560547,-6.560547 z m 0,2 c 2.543812,0 4.560547,2.016735 4.560547,4.560547 v 3.615234 c 0,2.543812 -2.016735,4.560547 -4.560547,4.560547 -2.543812,0 -4.560547,-2.016735 -4.560547,-4.560547 v -3.615234 c 0,-2.543812 2.016735,-4.560547 4.560547,-4.560547 z"
     id="rect2"
     transform="translate(48 40.4933) rotate(180)" />
</svg>
