<?xml version="1.0" encoding="UTF-8"?>
<svg id="b" version="1.1" viewBox="0 0 48 48" xmlns="http://www.w3.org/2000/svg">
 <defs id="defs1">
  <style id="style1">.f{fill:none;stroke:#000;stroke-width:2px;stroke-linecap:round;stroke-linejoin:round;}</style>
 </defs>
 <path id="circle1" d="m24 19c-2.7496 0-5 2.2504-5 5s2.2504 5 5 5 5-2.2504 5-5-2.2504-5-5-5zm0 2c1.6687 0 3 1.3313 3 3s-1.3313 3-3 3-3-1.3313-3-3 1.3313-3 3-3z" stroke-linecap="round" stroke-linejoin="round"/>
 <path id="c" d="m35.25 4.5137a1.0001 1.0001 0 0 0-1.3652 0.36719l-7.5254 13.033a1.0001 1.0001 0 0 0 0.36523 1.3652c1.6876 0.97437 2.7246 2.772 2.7246 4.7207a1.0001 1.0001 0 0 0 2 0l-1 1h15.051a1.0001 1.0001 0 0 0 1-1c0-8.0369-4.2899-15.468-11.25-19.486zm-0.20117 2.3477c5.5418 3.5782 8.9903 9.5502 9.3184 16.139h-13.051c-0.26496-1.9261-1.2556-3.6433-2.791-4.8359z" stroke-linecap="round" stroke-linejoin="round"/>
 <path id="d" d="m21.275 28.721a1.0001 1.0001 0 0 0-1.3672 0.36523l-7.5234 13.033a1.0001 1.0001 0 0 0 0.36523 1.3672c6.9601 4.0184 15.54 4.0184 22.5 0a1.0001 1.0001 0 0 0 0.36523-1.3672l-7.5234-13.033a1.0001 1.0001 0 0 0-1.3672-0.36523c-1.6876 0.97435-3.7616 0.97435-5.4492 0zm-0.06836 2.1152c1.8013 0.73419 3.7847 0.73419 5.5859 0l6.5254 11.303c-5.8701 3.0106-12.767 3.0106-18.637 0z" stroke-linecap="round" stroke-linejoin="round"/>
 <path id="e" d="m12.75 4.5137c-6.9601 4.0184-11.25 11.449-11.25 19.486a1.0001 1.0001 0 0 0 1 1h15.051a1.0001 1.0001 0 0 0 1-1c0-1.9487 1.037-3.7463 2.7246-4.7207l-0.11524-0.06641a1.0001 1.0001 0 0 0 0.61524-0.79883 1.0001 1.0001 0 0 0-0.26758-0.46484l0.13281-0.035153-7.5254-13.033a1.0001 1.0001 0 0 0-1.3652-0.36719zm0.20117 2.3477 6.5234 11.303c-1.5354 1.1926-2.5261 2.9099-2.791 4.8359h-13.051c0.32806-6.5884 3.7766-12.56 9.3184-16.139z" stroke-linecap="round" stroke-linejoin="round"/>
</svg>
