<?xml version="1.0" encoding="UTF-8"?>
<svg id="b" version="1.1" viewBox="0 0 48 48" xmlns="http://www.w3.org/2000/svg">
 <defs id="defs1">
  <style id="style1">.c{fill:none;stroke:#000;stroke-width:2px;stroke-linecap:round;stroke-linejoin:round;}</style>
 </defs>
 <path id="circle1" d="m8.791 4.0078c-3.3867 0-6.1543 2.7656-6.1543 6.1523 0 3.3867 2.7676 6.1543 6.1543 6.1543 3.3867 0 6.1543-2.7676 6.1543-6.1543 0-3.3867-2.7676-6.1523-6.1543-6.1523zm0 2c2.3058 0 4.1543 1.8465 4.1543 4.1523 0 2.3058-1.8485 4.1543-4.1543 4.1543-2.3058 0-4.1543-1.8485-4.1543-4.1543 1e-7 -2.3058 1.8485-4.1523 4.1543-4.1523z" stroke-linecap="round" stroke-linejoin="round"/>
 <g id="g2" stroke-linecap="round" stroke-linejoin="round">
  <path id="path1" d="m14.191 28.439c-0.78052 0.02313-1.4319 0.10184-1.9941 0.29102-0.28113 0.09459-0.54932 0.21148-0.80859 0.44531-0.25349 0.22861-0.48119 0.66179-0.46289 1.0977a1.0001 1.0001 0 0 0 0.125 0.46094c3.9614 6.7558 8.4447 10.197 12.865 13.094a1.0001 1.0001 0 0 0 1.0957 0c2.3155-1.5174 4.6478-3.1786 6.9141-5.3906a1.0001 1.0001 0 0 0 0.17774-1.2012c-2.544-4.5949-7.6682-6.9956-12.092-8.084-2.2118-0.54422-4.2593-0.75914-5.8203-0.71289zm0.06055 1.998c1.3189-0.03908 3.2323 0.15209 5.2812 0.65625 3.836 0.94387 8.0326 3.0426 10.307 6.4492-1.7484 1.6125-3.5405 2.9647-5.3789 4.1895-3.9178-2.6077-7.6559-5.6102-11.117-11.176 0.27014-0.04848 0.4859-0.10663 0.9082-0.11914z"/>
  <path id="path2" d="m24.463 5.4316c-4.3898-0.00381-8.0996 0.49293-11.369 1.3594a1 1 0 0 0-0.71094 1.2227 1 1 0 0 0 1.2227 0.71094c3.0913-0.81922 6.6182-1.2968 10.857-1.293a1.0001 1.0001 0 0 0 2e-3 0c7.3597-0.00666 12.544 1.4483 17.068 3.6387-0.46258 5.0599-1.5976 12.096-5.2188 18.381-1.4559 2.5269-2.9778 4.4492-4.5293 6.1465-0.6909-2.1123-2.0713-3.8488-3.793-5.2344-2.2452-1.8069-5.0539-3.0987-7.8203-4.1484-2.7664-1.0498-5.5023-1.8542-7.5566-2.6016-1.0272-0.37369-1.8843-0.73847-2.4551-1.0723-0.57086-0.3338-0.77151-0.63315-0.77934-0.66016a1.0001 1.0001 0 0 0-0.00391-0.01367c-0.75068-2.4611-1.2484-4.881-1.584-7.0996a1 1 0 0 0-1.1367-0.83789 1 1 0 0 0-0.83984 1.1387c0.34638 2.2901 0.85955 4.7989 1.6426 7.3691 2.69e-4 9.27e-4 0.00168 1e-3 0.00195 2e-3 0.25274 0.86714 0.9254 1.3813 1.6895 1.8281 0.76487 0.44727 1.7042 0.83278 2.7813 1.2246 2.1541 0.78367 4.8579 1.5773 7.5312 2.5918 2.6733 1.0145 5.3069 2.2537 7.2754 3.8379 1.9685 1.5842 3.2606 3.446 3.4961 5.8945a1.0001 1.0001 0 0 0 1.6934 0.61914c2.1225-2.072 4.1825-4.6253 6.1191-7.9863 4.005-6.951 5.1535-14.686 5.5879-19.902a1.0001 1.0001 0 0 0-0.54492-0.97466c-4.9072-2.4847-10.648-4.1476-18.625-4.1406z"/>
 </g>
 <path id="circle2" d="m20.674 17.316c-2.064 0-3.7578 1.6938-3.7578 3.7578s1.6938 3.7598 3.7578 3.7598 3.7598-1.6957 3.7598-3.7598-1.6957-3.7578-3.7598-3.7578zm0 2c0.98315 0 1.7598 0.77466 1.7598 1.7578s-0.77662 1.7598-1.7598 1.7598-1.7578-0.77662-1.7578-1.7598 0.77466-1.7578 1.7578-1.7578z" stroke-linecap="round" stroke-linejoin="round"/>
 <path id="path3" d="m12.809 15.301a1 1 0 0 0-0.62695 0.43555c-0.35257 0.5497-0.55859 1.2086-0.55859 1.9062 0 1.9401 1.595 3.5352 3.5352 3.5352 1.0678 0 2.0364-0.4791 2.6836-1.2344a1 1 0 0 0-0.10742-1.4102 1 1 0 0 0-1.4102 0.10742c-0.28238 0.32953-0.69304 0.53711-1.166 0.53711-0.85925 0-1.5352-0.6759-1.5352-1.5352 0-0.30898 0.08896-0.58727 0.24219-0.82617a1 1 0 0 0-0.30273-1.3809 1 1 0 0 0-0.75391-0.13477z" stroke-linecap="round" stroke-linejoin="round"/>
 <path id="circle3" d="m31.295 20.58c-1.7845 0-3.2539 1.4694-3.2539 3.2539 0 1.7845 1.4694 3.252 3.2539 3.252 1.7845 0 3.252-1.4674 3.252-3.252 0-1.7845-1.4674-3.2539-3.252-3.2539zm0 2c0.70364 0 1.252 0.55027 1.252 1.2539 0 0.70364-0.54832 1.252-1.252 1.252-0.70364 0-1.2539-0.54832-1.2539-1.252 0-0.70364 0.55027-1.2539 1.2539-1.2539z" stroke-linecap="round" stroke-linejoin="round"/>
 <path id="path4" d="m21.955 13.23c-0.81095 0.05628-1.4615 0.21262-1.9766 0.41211-0.49042 0.18994-0.83619 0.41716-1.0898 0.61914l-5.3867-0.72656a1.0001 1.0001 0 0 0-0.92383 0.38086l-1.0312 1.334a1.0001 1.0001 0 0 0 0.27148 1.4648l0.64648 0.39258 5.0527 3.752a1 1 0 0 0 1.3984-0.20703 1 1 0 0 0-0.20703-1.3984l-4.9121-3.6484 0.0098-0.01172 5.2793 0.71289a1.0001 1.0001 0 0 0 0.95703-0.42383s-0.03848 0.03674 0.05859-0.04297c0.09708-0.07971 0.28299-0.2094 0.59961-0.33203 0.63324-0.24525 1.8097-0.47229 3.8477-0.11719 2.8162 0.49069 4.1101 1.2211 4.8105 1.8906s0.87851 1.3681 1.4004 2.2441a1.0001 1.0001 0 0 0 0.85938 0.48828c0.0071 0 0.05754 0.02576 0.06836 0.02734-0.35438 0.25057-0.70764 0.50485-1.0352 0.7832a1 1 0 0 0-0.11524 1.4102 1 1 0 0 0 1.4102 0.11328c0.78195-0.66455 1.6815-1.2169 2.1309-1.3164a1.0001 1.0001 0 0 0 0.4082-1.7559s-0.37684-0.30382-0.88672-0.60352c-0.32081-0.18856-0.80752-0.28262-1.2461-0.41406-0.30187-0.58778-0.65435-1.5071-1.6113-2.4219-1.07-1.0228-2.8019-1.885-5.8496-2.416-1.1559-0.2014-2.1265-0.24573-2.9375-0.18945z" stroke-linecap="round" stroke-linejoin="round"/>
 <path id="line4" d="m23.645 20.91a1 1 0 0 0-1.2715 0.61914 1 1 0 0 0 0.61914 1.2715l5.7227 1.9785a1 1 0 0 0 1.2715-0.61914 1 1 0 0 0-0.61719-1.2715z" stroke-linecap="round" stroke-linejoin="round"/>
 <path id="path5" d="m34.34 20.443c-0.82425 0.0277-1.6616 0.13416-2.502 0.25586a1 1 0 0 0-0.8457 1.1328 1 1 0 0 0 1.1328 0.8457c1.6171-0.2342 3.0726-0.34261 4.1602-0.07617 1.0876 0.26644 1.8506 0.78564 2.4648 2.1973a1 1 0 0 0 1.3164 0.51758 1 1 0 0 0 0.51758-1.3164c-0.81814-1.8802-2.2495-2.9565-3.8223-3.3418-0.7864-0.19265-1.5976-0.24254-2.4219-0.21484z" stroke-linecap="round" stroke-linejoin="round"/>
 <path id="path6" d="m32.613 24.33a1 1 0 0 0-0.4375 1.3438c0.38983 0.76597 1.0851 1.1214 1.7734 1.3789 0.68838 0.25746 1.4382 0.40396 2.1504 0.50195 1.4244 0.196 2.7207 0.18164 2.7207 0.18164a1 1 0 0 0 0.99024-1.0098 1 1 0 0 0-1.0098-0.99023s-1.1793 0.0077-2.4277-0.16406c-0.6242-0.08589-1.2598-0.21946-1.7227-0.39258-0.46287-0.17312-0.68404-0.39763-0.69141-0.41211a1 1 0 0 0-1.3457-0.4375z" stroke-linecap="round" stroke-linejoin="round"/>
</svg>
