<?xml version="1.0" encoding="UTF-8"?>
<svg id="a" version="1.1" viewBox="0 0 48 48" xmlns="http://www.w3.org/2000/svg">
 <defs id="defs1">
  <style id="style1">.b{fill:none;stroke:#000;stroke-width:2px;stroke-linecap:round;stroke-linejoin:round;}</style>
 </defs>
 <path id="path1" d="m15.809 18.41a1.0001 1.0001 0 0 0-0.95703 0.75c-0.30626 1.1815 0.05407 2.5683 0.9375 3.8496-0.30669 0.60006-0.6054 1.195-0.77344 2.2715-0.22045 1.4123-0.24976 3.2297 0.21289 5.291 0.9253 4.1227 3.8451 9.1747 10.93 13.768a1.0001 1.0001 0 0 0 1.168-0.05859c6.2181-4.9666 7.383-14.437 7.125-22.617-0.01711-0.54086 0.06553-1.0837 0.24609-1.6406l-0.09375 0.06836a1.0001 1.0001 0 0 0-0.79883-1.375c-0.02193-0.0013-0.03672 7e-3 -0.05859 0.0059v-0.0078a1.0001 1.0001 0 0 0-0.01172 0.0098c-3.4823-0.18578-6.1629 0.76775-8.4043 1.9102-0.28862-0.10643-1.4139-0.52986-3.207-1.0547-2.0061-0.58714-4.407-1.1907-6.3145-1.1699zm1.002 2.1875c1.4186 0.13179 3.1501 0.43408 4.75 0.90234 1.9302 0.56494 3.4492 1.1328 3.4492 1.1328a1.0001 1.0001 0 0 0 0.82031-0.05469c1.8915-1.0068 4.0665-1.6923 6.7559-1.7559-0.03436 0.30444-0.14456 0.59655-0.13476 0.90625 0.24068 7.6317-0.99614 16.042-5.8301 20.453-6.2009-4.2215-8.6637-8.5818-9.4414-12.047-0.40351-1.7978-0.37178-3.3663-0.1875-4.5469 0.18428-1.1805 0.60952-2.0488 0.64844-2.1016a1.0001 1.0001 0 0 0-0.04492-1.2422c-0.49924-0.58609-0.69954-1.1399-0.78516-1.6465z" stroke-linecap="round" stroke-linejoin="round"/>
 <path id="path2" d="m17.299 3.5176c-9.6027 1.8586-12.205 11.572-12.205 11.572a1.0001 1.0001 0 0 0 0.00586 0.53711c0.59134 2.0275 2.0864 4.0437 3.4219 5.6406 0.86928 1.0395 1.1928 1.3217 1.6562 1.7891-0.4986 0.28126-1.1977 0.52221-1.4746 0.81836-0.52268 0.55899-0.71094 1.1914-0.71094 1.1914a1.0001 1.0001 0 0 0 0.875 1.2344c0.92988 0.08958 2.0683 1.0238 2.9063 2.0645 0.83793 1.0407 1.3574 2.0547 1.3574 2.0547a1 1 0 0 0 1.3438 0.43945 1 1 0 0 0 0.43945-1.3438s-0.59781-1.182-1.582-2.4043c-0.66339-0.82389-1.5924-1.5854-2.6562-2.1426 0.30744-0.239 0.5633-0.49319 1.3496-0.71289a1.0001 1.0001 0 0 0 0.41992-1.6875s-1.1302-1.0791-2.3887-2.584c-1.1985-1.4332-2.4356-3.2542-2.9219-4.6836 0.20697-0.70471 1.8759-5.7366 6.875-8.4512-0.53038 1.0404-0.89886 2.1797-0.94922 3.3457-0.05888 1.3634 0.32876 2.7874 1.3848 3.8379 1.056 1.0505 2.6894 1.6563 4.875 1.6973 1.7549 0.0329 2.9744-0.25923 3.7598-1.0566 0.78541-0.79741 0.792-1.9522 0.51172-2.8145s-0.79461-1.6113-1.3105-2.209c-0.25797-0.29885-0.51547-0.55588-0.76953-0.76562s-0.42735-0.39143-0.90234-0.49805c-0.1817-0.040769-0.30898 0.102-0.48828 0.099609 0.18846-0.32618 0.33855-0.72689 0.56836-0.93359 0.42736-0.38439 0.85922-0.57481 1.6289-0.4668 1.7609 0.24712 3.5682 1.3806 4.957 2.5723 1.2733 1.0925 2.0807 2.1328 2.3047 2.4316-0.03432 1.1282-0.33789 2.3164-0.33789 2.3164a1.0001 1.0001 0 0 0 1.1699 1.3027c2.1661-0.50526 3.7654-1.3483 4.7637-2.5996s1.2867-2.8529 1.041-4.5117c-0.1245-0.84043-0.3441-1.4897-0.72266-2-0.37856-0.51027-1.0187-0.87167-1.6543-0.81641-0.63557 0.055268-1.1225 0.43899-1.4375 0.89062-0.31504 0.45164-0.49396 1.0041-0.53125 1.6133-0.03265 0.5334 0.0039 0.96487 0.15625 1.3652 0.15236 0.40037 0.48502 0.76781 0.85938 0.92188 0.7487 0.30813 1.3164-0.06445 1.3164-0.06445a1 1 0 0 0 0.02539-0.02344c-0.09814 0.5168-0.29403 0.97381-0.61719 1.3789-0.41272 0.51736-1.1759 0.96159-2.1289 1.3535 0.06813-0.48471 0.16393-0.93673 0.13672-1.5078a1.0001 1.0001 0 0 0-0.16602-0.50781c-0.34334-0.51505-1.3252-1.7308-2.875-3.0605s-3.6056-2.7019-5.9805-3.0352c-1.2982-0.18219-2.4539 0.25014-3.2441 0.96094-0.79025 0.7108-1.2686 1.6372-1.5977 2.5332-0.6301 1.7159-0.68525 3.2887-0.69141 3.4316-5.3e-4 0.0085-0.03125 0.13086-0.03125 0.13086h0.0039c-4e-6 1.28e-4 -0.0039 0.02149-0.0039 0.02149a1.0001 1.0001 0 0 0 1.9961 0.10938s0.06251-0.71608 0.30273-1.2949c0.12011-0.28942 0.28124-0.50935 0.39648-0.59766 0.11524-0.08831 0.15459-0.12729 0.44336-0.0625-0.24554-0.05511-0.0768-0.02838 0.06641 0.08984 0.14321 0.11823 0.33622 0.30562 0.5293 0.5293 0.38615 0.44735 0.76925 1.052 0.92188 1.5215 0.15262 0.46953 0.1281 0.62527-0.03516 0.79102-0.16325 0.16575-0.80915 0.48883-2.2969 0.46094-1.8417-0.03453-2.9004-0.5168-3.502-1.1152-0.60156-0.59844-0.83784-1.3853-0.79688-2.334 0.08194-1.8973 1.5633-4.2174 2.8828-4.8906a1.0001 1.0001 0 0 0-0.64258-1.873zm16.674 4.5371c0.08957 0.17812 0.19492 0.35866 0.26562 0.83594 8e-3 0.053693-0.0066 0.088184 0 0.14062a1 1 0 0 0-0.3418-0.10938c-0.0045-0.015261-0.04838-0.17191-0.02734-0.51562 0.0102-0.16665 0.0617-0.24282 0.10352-0.35156zm-0.32422 0.66797c0.12436 0.051182 0.19792 0.1616 0.21875 0.18945a1 1 0 0 0-0.57617-0.18359s0.07427-0.12239 0.35742-0.00586z" stroke-linecap="round" stroke-linejoin="round"/>
 <path id="path3" d="m15.148 27.752c-0.48193-0.01654-0.97337 0.10851-1.4199 0.48047-0.44655 0.37196-0.69156 0.98013-0.70703 1.5879-0.01547 0.60776 0.14353 1.2543 0.45898 2.0176 0.64445 1.5594 1.625 2.398 2.4844 2.752 0.85935 0.35396 1.6523 0.23047 1.6523 0.23047a1 1 0 0 0 0.81055-1.1602 1 1 0 0 0-1.1602-0.80859s-0.16229 0.04467-0.54102-0.11133c-0.37873-0.15599-0.91819-0.50592-1.3984-1.668-0.24689-0.5974-0.31157-1.0074-0.30664-1.2012 0.0049-0.19376 0.02474-0.13356-0.01367-0.10156-0.07682 0.06399 0.24601-0.03136 0.62891 0.1543a1 1 0 0 0 1.3359-0.46289 1 1 0 0 0-0.46289-1.3359c-0.40715-0.19742-0.8794-0.35651-1.3613-0.37305z" stroke-linecap="round" stroke-linejoin="round"/>
 <path id="path4" d="m34.283 3.5098a1.0001 1.0001 0 0 0-0.74609 0.19336s-0.53271 0.42855-0.93945 1.1855c-0.40675 0.757-0.76694 1.9065-0.72656 3.4824a1 1 0 0 0 1.0254 0.97461 1 1 0 0 0 0.97266-1.0254c-0.02486-0.97016 0.19166-1.4525 0.37891-1.9238 0.56194 0.77581 1.1952 1.6237 2.5 3.5645 1.6485 2.452 3.2585 5.168 3.9297 6.7656-0.66201 0.57618-3.4771 3.0202-5.2734 4.668a1.0001 1.0001 0 0 0-0.07813 1.3945s0.77552 0.62427 1.8516 1.1973c-0.51038 0.40051-0.68142 0.49735-1.4258 1.166-1.426 1.281-3.0045 2.797-3.6055 4.4785a1 1 0 0 0 0.60352 1.2793 1 1 0 0 0 1.2793-0.60547c0.30665-0.85802 1.7201-2.4619 3.0605-3.666 1.3404-1.2041 2.5723-2.1016 2.5723-2.1016a1.0001 1.0001 0 0 0-0.41797-1.7949c-0.68568-0.11867-1.1945-0.40024-1.5996-0.66016 2.0401-1.8306 4.9512-4.3828 4.9512-4.3828a1.0001 1.0001 0 0 0 0.28711-1.0859c-0.71269-2.0333-2.6652-5.0783-4.4746-7.7695s-3.4629-4.9355-3.4629-4.9355a1.0001 1.0001 0 0 0-0.66211-0.39844z" stroke-linecap="round" stroke-linejoin="round"/>
 <path id="path5" d="m35.367 25.816a1 1 0 0 0-0.91797 1.0762c0.13669 1.721-0.05249 3.3335-0.44336 4.2871-0.19544 0.47679-0.43116 0.76612-0.60938 0.88867-0.17821 0.12255-0.29033 0.1605-0.61328 0.07422a1 1 0 0 0-1.2246 0.70703 1 1 0 0 0 0.70898 1.2246c0.7929 0.21182 1.6393 0.06999 2.2637-0.35938 0.62437-0.42937 1.0337-1.0638 1.3262-1.7773 0.58498-1.4271 0.74034-3.2591 0.58594-5.2031a1 1 0 0 0-1.0762-0.91797z" stroke-linecap="round" stroke-linejoin="round"/>
 <path id="path6" d="m27.717 34.488s-0.63718 0.06988-1.3984 0.26562c-0.76125 0.19574-1.6811 0.46755-2.4062 1.1738a1 1 0 0 0-0.01758 1.4141 1 1 0 0 0 1.4141 0.01758c0.20608-0.20072 0.89352-0.51001 1.5078-0.66797 0.6143-0.15796 1.1211-0.21484 1.1211-0.21484a1 1 0 0 0 0.88281-1.1055 1 1 0 0 0-1.1035-0.88281z" stroke-linecap="round" stroke-linejoin="round"/>
 <path id="polyline6" d="m26.885 28.027a1 1 0 0 0-1.0703 0.92383l-0.25781 3.4648a1 1 0 0 0-1.3613 0.12305 1 1 0 0 0 0.125 1.4082l1.4512 1.2129a1.0001 1.0001 0 0 0 1.6387-0.69141l0.39844-5.3691a1 1 0 0 0-0.92383-1.0723z" stroke-linecap="round" stroke-linejoin="round"/>
 <path id="line6" d="m18.787 25.131a1 1 0 0 0-1.1289 0.85352 1 1 0 0 0 0.85352 1.1289l4.9707 0.68945a1 1 0 0 0 1.127-0.85352 1 1 0 0 0-0.85352-1.127z" stroke-linecap="round" stroke-linejoin="round"/>
 <path id="line7" d="m26.986 25.666a1 1 0 0 0-1.0293 0.9707 1 1 0 0 0 0.9707 1.0293l5.043 0.14648a1 1 0 0 0 1.0293-0.9707 1 1 0 0 0-0.9707-1.0293z" stroke-linecap="round" stroke-linejoin="round"/>
 <path id="line8" d="m22.404 27.553a1 1 0 0 0-1 1v0.85352a1 1 0 0 0 1 1 1 1 0 0 0 1-1v-0.85352a1 1 0 0 0-1-1z" stroke-linecap="round" stroke-linejoin="round"/>
 <path id="line9" d="m28.371 27.172a1 1 0 0 0-1 1v0.85352a1 1 0 0 0 1 1 1 1 0 0 0 1-1v-0.85352a1 1 0 0 0-1-1z" stroke-linecap="round" stroke-linejoin="round"/>
 <path id="line10" d="m22.92 29.824-1.1973 0.79883a1 1 0 0 0-0.27734 1.3867 1 1 0 0 0 1.3867 0.27734l1.1973-0.79688a1 1 0 0 0 0.27734-1.3867 1 1 0 0 0-1.3867-0.2793z" stroke-linecap="round" stroke-linejoin="round"/>
</svg>
