<?xml version="1.0" encoding="UTF-8"?>
<svg id="a" version="1.1" viewBox="0 0 48 48" xmlns="http://www.w3.org/2000/svg">
 <defs id="defs1">
  <style id="style1">.b{fill:none;stroke:#000;stroke-width:2px;stroke-linecap:round;stroke-linejoin:round;}</style>
 </defs>
 <path id="path1" d="m16.68 28.121c-0.92982 0.22377-1.5425 1.0053-1.8711 2.0469-0.32862 1.0415-0.34405 2.3973 0.14062 4.0332 0.55499 1.8731 1.8698 2.8594 3.0332 3.1758 0.58169 0.1582 1.1181 0.17717 1.5527 0.14453 0.21731-0.01632 0.40811-0.0461 0.57617-0.08398s0.28159-0.05563 0.50195-0.17578c0.72378-0.39466 0.84989-0.96687 0.97656-1.707 0.12668-0.74016 0.11865-1.6994-0.10938-2.9492-0.25281-1.3856-0.93786-2.5489-1.7793-3.3652-0.84143-0.81629-1.8772-1.3946-3.0215-1.1191zm0.4668 1.9453c0.07794-0.01876 0.62191 0.08722 1.1602 0.60938 0.53824 0.52216 1.0336 1.3491 1.2051 2.2891 0.19627 1.0758 0.18109 1.8215 0.10742 2.252-0.02809 0.16411-0.07937 0.23002-0.11719 0.29297-0.04189 0.0056-0.06746 0.01384-0.11719 0.01758-0.24341 0.01828-0.56464 0.0054-0.87891-0.08008-0.62854-0.17094-1.2535-0.51435-1.6387-1.8145-0.39522-1.3339-0.33242-2.2864-0.15039-2.8633 0.18203-0.57692 0.51101-0.7227 0.42969-0.70312z" stop-color="#000000" stroke-linecap="round" stroke-linejoin="round"/>
 <path id="line1" d="m18.025 31.818a1 1 0 0 0-0.76953 1.1855l0.21094 1a1 1 0 0 0 1.1855 0.76953 1 1 0 0 0 0.77148-1.1855l-0.21289-0.99805a1 1 0 0 0-1.1855-0.77148z" stop-color="#000000" stroke-linecap="round" stroke-linejoin="round"/>
 <path id="path2" d="m3.9941 7.0352a1.0001 1.0001 0 0 0-0.45703 1.1289c0.1823 0.65538 0.22711 3.1399 0.29688 5.8301 0.069768 2.6901 0.22106 5.719 0.94922 8.1855 1.2998 4.4031 3.3805 7.7737 5.2285 10.232 0.92402 1.2293 1.7903 2.2334 2.4648 3.0156 0.67455 0.78227 1.1677 1.4046 1.2559 1.5742 0.51203 0.98547 1.3377 2.3814 2.9121 3.5762 1.5744 1.1948 3.8738 2.1749 7.2539 2.5195a1.0001 1.0001 0 0 0 0.20312 0c3.3801-0.34454 5.6795-1.3247 7.2539-2.5195s2.4-2.5907 2.9121-3.5762c0.08816-0.16966 0.58131-0.79195 1.2559-1.5742 0.67455-0.78227 1.5408-1.7863 2.4648-3.0156 1.848-2.4587 3.9307-5.8293 5.2305-10.232 0.72811-2.4666 0.8775-5.4954 0.94727-8.1855 0.06977-2.6901 0.11455-5.1747 0.29688-5.8301a1.0001 1.0001 0 0 0-1.666-0.98047c-1.4162 1.3973-3.8358 4.9834-6.0957 9.0215-1.5981 2.8556-3.0464 5.794-3.791 8.3457-0.20434-0.29991-0.43896-0.60142-0.71484-0.91797 0.15803-0.20875 0.18909-0.19585 0.38867-0.53906 0.46851-0.80568 1.0119-2.0087 1.3652-3.6406 0.36885-1.7039 0.41995-4.0558 0.41797-6.1172-9.92e-4 -1.0307-0.02026-1.9804-0.03125-2.7051-0.0055-0.36234-0.0088-0.67005-0.0078-0.89453s0.02534-0.42772 0.0059-0.31641c0.092795-0.5305 0.1332-1.0558-0.31451-1.6699-0.22385-0.30708-0.73932-0.60662-1.2207-0.56055-0.48138 0.046069-0.81013 0.28639-1.1016 0.56641-0.43422 0.4172-0.78618 0.97648-1.3555 1.9004s-1.239 2.1209-1.8672 3.4531c-1.058 2.2439-1.8468 4.8118-1.9336 7.2344-0.37367-0.09456-0.8214-0.23795-1.1191-0.29297-0.06078-0.01122-0.12267 0.0098-0.18359 0l2e-3 -0.01563a1.0001 1.0001 0 0 0-0.01758 0.01563c-0.87779-0.13903-1.769-0.16167-2.6445 0-0.29775 0.05502-0.74549 0.19841-1.1191 0.29297-0.0868-2.4226-0.87556-4.9905-1.9336-7.2344-0.62816-1.3322-1.2979-2.5292-1.8672-3.4531s-0.92124-1.4832-1.3555-1.9004c-0.29142-0.28-0.6202-0.52031-1.1016-0.56641-0.48136-0.046095-0.99683 0.2515-1.2207 0.55859-0.44774 0.61418-0.40729 1.1414-0.31445 1.6719-0.01947-0.11126 0.0048 0.091918 0.0059 0.31641 1e-3 0.22449-0.0023 0.53218-0.0078 0.89453-0.011 0.72469-0.03025 1.6744-0.03125 2.7051-2e-3 2.0614 0.04905 4.4133 0.41797 6.1172 0.35333 1.6319 0.89672 2.835 1.3652 3.6406 0.19958 0.34321 0.23064 0.33032 0.38867 0.53906-0.27524 0.31581-0.50888 0.61677-0.71289 0.91602-0.74481-2.5513-2.1952-5.4888-3.793-8.3438-2.26-4.0381-4.6796-7.6242-6.0958-9.0215a1.0001 1.0001 0 0 0-1.209-0.14844zm11.674 3.25c0.13696 0.20002 0.14116 0.17988 0.28906 0.41992 0.53113 0.86199 1.1682 2.0013 1.7598 3.2559 1.1831 2.5092 2.1335 5.5178 1.8965 7.5195a1.0001 1.0001 0 0 0 1.3105 1.0664c0.7991-0.26841 1.4907-0.43193 2.0176-0.5293 0.70373-0.12995 1.4136-0.12994 2.1172 0 0.52689 0.09737 1.2186 0.26091 2.0176 0.5293a1.0001 1.0001 0 0 0 1.3105-1.0664c-0.23706-2.0017 0.7153-5.0104 1.8984-7.5195 0.59157-1.2546 1.2267-2.3939 1.7578-3.2559 0.14791-0.24004 0.1521-0.2199 0.28906-0.41992 0.0015 0.12983 0.0017 0.22773 0.0039 0.375 0.0111 0.73173 0.03028 1.6696 0.03125 2.6777 0.0019 2.0162-0.082 4.3469-0.37305 5.6914-0.30667 1.4164-0.76654 2.4206-1.1387 3.0605-0.37213 0.63994-0.60546 0.86328-0.60546 0.86328a1.0001 1.0001 0 0 0 0.02148 1.4277c1.5069 1.4351 1.8279 2.5082 2.1562 3.4531a1.0001 1.0001 0 0 0 1.9453-0.31641c0.02197-2.0022 1.8716-6.4036 4.0723-10.336 1.3471-2.4071 2.7121-4.4686 3.8906-6.123-0.02502 0.99948-0.13663 1.6743-0.16797 2.8828-0.06863 2.6463-0.24965 5.5732-0.86914 7.6719-1.2143 4.1134-3.154 7.2639-4.9082 9.5977-0.87709 1.1669-1.7075 2.127-2.3828 2.9102-0.6753 0.78314-1.1854 1.3273-1.5137 1.959-0.46584 0.89647-1.0946 1.9534-2.3477 2.9043-1.2364 0.93828-3.1251 1.7782-6.1465 2.1035-3.0214-0.32538-4.9101-1.1652-6.1465-2.1035-1.253-0.95092-1.8819-2.0079-2.3477-2.9043-0.32824-0.63169-0.83837-1.1758-1.5137-1.959-0.6753-0.78314-1.5057-1.7433-2.3828-2.9102-1.7542-2.3338-3.6939-5.4843-4.9082-9.5977-0.61954-2.0986-0.79856-5.0256-0.86719-7.6719-0.031322-1.2077-0.14496-1.8819-0.16992-2.8809 1.1784 1.6543 2.5439 3.7147 3.8906 6.1211 2.2007 3.9324 4.0503 8.3337 4.0723 10.336a1.0001 1.0001 0 0 0 1.9453 0.31641c0.32831-0.94497 0.64939-2.0181 2.1562-3.4531a1.0001 1.0001 0 0 0 0.021484-1.4277s-0.23138-0.22336-0.60352-0.86328c-0.37213-0.63993-0.83395-1.6441-1.1406-3.0605-0.29108-1.3444-0.375-3.6752-0.37305-5.6914 9.76e-4 -1.0081 0.02014-1.946 0.03125-2.6777 0.0022-0.14727 0.0024-0.24516 0.0039-0.375z" stop-color="#000000" stroke-linecap="round" stroke-linejoin="round"/>
 <path id="path3" d="m23.945 35.826c-0.54602 0.02982-1.2588 0.14038-1.9531 0.43945-0.34718 0.14954-0.69911 0.34356-1.002 0.69141-0.30284 0.34785-0.51284 0.92993-0.4082 1.4707 0.08528 0.44075 0.34282 0.85786 0.63672 1.1133 0.2939 0.25542 0.58312 0.38116 0.83398 0.49023 0.50172 0.21815 0.88569 0.35704 1.2617 0.71094a1.0001 1.0001 0 0 0 1.3711 0c0.37604-0.35394 0.76003-0.49281 1.2617-0.71094 0.25084-0.10906 0.54008-0.23483 0.83398-0.49023 0.2939-0.2554 0.5514-0.67255 0.63672-1.1133 0.10469-0.54078-0.10536-1.1228-0.4082-1.4707-0.30284-0.34787-0.65476-0.54186-1.002-0.69141-0.69438-0.29909-1.407-0.40969-1.9531-0.43945a1.0001 1.0001 0 0 0-0.10938 0zm0.054688 2.0078c0.32656 0.02407 0.87755 0.12146 1.2168 0.26758 0.03373 0.01453 0.02632 0.01644 0.05469 0.03125-0.04941 0.02573-0.0457 0.03082-0.12305 0.06445-0.25164 0.10941-0.72621 0.42943-1.1484 0.68164-0.42223-0.25219-0.8968-0.57223-1.1484-0.68164-0.07735-0.03363-0.07363-0.03873-0.12305-0.06445 0.02837-0.01481 0.02096-0.01672 0.05469-0.03125 0.33924-0.14612 0.89014-0.24347 1.2168-0.26758z" stop-color="#000000" stroke-linecap="round" stroke-linejoin="round"/>
 <path id="path4" d="m31.32 28.121c-1.1443-0.27544-2.1801 0.30285-3.0215 1.1191-0.84143 0.81629-1.5265 1.9796-1.7793 3.3652-0.22803 1.2498-0.23605 2.209-0.10938 2.9492 0.12668 0.74017 0.25272 1.3123 0.97656 1.707 0.22036 0.12016 0.3339 0.1379 0.50195 0.17578 0.16806 0.03788 0.35886 0.06766 0.57617 0.08398 0.43462 0.03264 0.97104 0.01366 1.5527-0.14453 1.1634-0.31639 2.4782-1.3027 3.0332-3.1758 0.48468-1.6359 0.46925-2.9917 0.14062-4.0332-0.32862-1.0415-0.94127-1.8231-1.8711-2.0469zm-0.4668 1.9453c-0.08132-0.01957 0.24766 0.12621 0.42969 0.70312 0.18203 0.57692 0.24483 1.5293-0.15039 2.8633-0.38521 1.3001-1.0101 1.6435-1.6387 1.8145-0.31427 0.08547-0.6355 0.09836-0.87891 0.08008-0.04973-0.0037-0.0753-0.01193-0.11719-0.01758-0.03782-0.06296-0.0891-0.12885-0.11719-0.29297-0.07367-0.43048-0.08885-1.1762 0.10742-2.252 0.17149-0.93996 0.66684-1.7669 1.2051-2.2891 0.53824-0.52216 1.0822-0.62814 1.1602-0.60938z" stop-color="#000000" stroke-linecap="round" stroke-linejoin="round"/>
 <path id="line4" d="m29.975 31.818a1 1 0 0 0-1.1855 0.77148l-0.21289 0.99805a1 1 0 0 0 0.77148 1.1855 1 1 0 0 0 1.1855-0.76953l0.21094-1a1 1 0 0 0-0.76953-1.1855z" stop-color="#000000" stroke-linecap="round" stroke-linejoin="round"/>
</svg>
