<?xml version="1.0" encoding="UTF-8"?>
<svg id="svg20" version="1.1" viewBox="0 0 48 48" xmlns="http://www.w3.org/2000/svg">
 <defs id="defs4">
  <style id="style2">.a{fill:none;stroke:#000;stroke-width:2px;stroke-linecap:round;stroke-linejoin:round;}</style>
 </defs>
 <path id="circle6" d="m23.5 8.5c-8.5486 0-15.5 6.9514-15.5 15.5s6.9514 15.5 15.5 15.5 15.5-6.9514 15.5-15.5-6.9514-15.5-15.5-15.5zm0 2c7.4677 0 13.5 6.0323 13.5 13.5s-6.0323 13.5-13.5 13.5-13.5-6.0323-13.5-13.5 6.0323-13.5 13.5-13.5z" color="#000000" stroke-linecap="round" stroke-linejoin="round" style="-inkscape-stroke:none"/>
 <path id="line8" d="m23.5 3.5a1 1 0 0 0-1 1v5a1 1 0 0 0 1 1 1 1 0 0 0 1-1v-5a1 1 0 0 0-1-1z" color="#000000" stroke-linecap="round" stroke-linejoin="round" style="-inkscape-stroke:none"/>
 <path id="line10" d="m23.5 37.5a1 1 0 0 0-1 1v5a1 1 0 0 0 1 1 1 1 0 0 0 1-1v-5a1 1 0 0 0-1-1z" color="#000000" stroke-linecap="round" stroke-linejoin="round" style="-inkscape-stroke:none"/>
 <path id="line12" d="m29.5 3.5a1 1 0 0 0-1 1v6.3008a1 1 0 0 0 1 1 1 1 0 0 0 1-1v-6.3008a1 1 0 0 0-1-1z" color="#000000" stroke-linecap="round" stroke-linejoin="round" style="-inkscape-stroke:none"/>
 <path id="line14" d="m17.5 3.5a1 1 0 0 0-1 1v6.3008a1 1 0 0 0 1 1 1 1 0 0 0 1-1v-6.3008a1 1 0 0 0-1-1z" color="#000000" stroke-linecap="round" stroke-linejoin="round" style="-inkscape-stroke:none"/>
 <path id="line16" d="m33.043 33.543a1 1 0 0 0 0 1.4141l5.25 5.25a1 1 0 0 0 1.4141 0 1 1 0 0 0 0-1.4141l-5.25-5.25a1 1 0 0 0-1.4141 0z" color="#000000" stroke-linecap="round" stroke-linejoin="round" style="-inkscape-stroke:none"/>
 <path id="line18" d="m28.232 36.732a1 1 0 0 0 0 1.4141l5.541 5.541a1 1 0 0 0 1.4141 0 1 1 0 0 0 0-1.4141l-5.541-5.541a1 1 0 0 0-1.4141 0z" color="#000000" stroke-linecap="round" stroke-linejoin="round" style="-inkscape-stroke:none"/>
</svg>
