<?xml version="1.0" encoding="UTF-8"?>
<svg id="a" version="1.1" viewBox="0 0 48 48" xmlns="http://www.w3.org/2000/svg">
 <defs id="defs1">
  <style id="style1">.b{fill:none;stroke:#000;stroke-width:2px;stroke-linecap:round;stroke-linejoin:round;}</style>
 </defs>
 <path id="path1" d="m18.471 6.1172c-2.4483 0-4.3654 2.1881-4.0449 4.6152l0.79102 5.9961 0.47461 11.826c0.06204 1.544 1.2424 2.8295 2.7754 3.0234 0.65423 0.08279 1.1008 0.65587 1.0215 1.3105l-0.35156 2.8984h-1.877c-1.9272 0-3.4789 1.6528-3.3574 3.5762l0.02734 0.43359c-1.4156 1.2031-1.2969 3.1543-1.2969 3.1543a1 1 0 0 0 1.1074 0.87891 1 1 0 0 0 0.88086-1.1074s-0.15009-1.172 0.77344-1.623a1.0001 1.0001 0 0 0 0.56055-0.96094l-0.05664-0.90039c-0.05053-0.8002 0.55957-1.4512 1.3613-1.4512h2.7637a1.0001 1.0001 0 0 0 0.99219-0.87891l0.45898-3.7793c0.20888-1.7239-1.0331-3.3171-2.7559-3.5352-0.57723-0.073036-1.0059-0.53775-1.0293-1.1191l-0.47656-11.873a1.0001 1.0001 0 0 0-0.0078-0.08984l-0.79689-6.041c-0.16689-1.2638 0.78764-2.3535 2.0625-2.3535h11.059c1.2747 0 2.2294 1.0897 2.0625 2.3535l-0.79688 6.041a1.0001 1.0001 0 0 0-0.0078 0.08984l-0.47656 11.873c-0.02336 0.58145-0.45194 1.0461-1.0293 1.1191-1.7228 0.21801-2.9649 1.8111-2.7559 3.5352l0.45898 3.7793a1.0001 1.0001 0 0 0 0.99219 0.87891h2.7637c0.80175 0 1.4138 0.65097 1.3633 1.4512l-0.05859 0.90039a1.0001 1.0001 0 0 0 0.56055 0.96094c0.9236 0.4511 0.77344 1.623 0.77344 1.623a1 1 0 0 0 0.88086 1.1074 1 1 0 0 0 1.1074-0.87891s0.1187-1.9511-1.2969-3.1543l0.02734-0.43359c0.12147-1.9234-1.4302-3.5762-3.3574-3.5762h-1.877l-0.35156-2.8984c-0.07937-0.65459 0.36724-1.2278 1.0215-1.3105 1.533-0.19395 2.7134-1.4795 2.7754-3.0234l0.47461-11.826 0.79102-5.9961c0.3205-2.4272-1.5967-4.6152-4.0449-4.6152h-5.5293z" color="#000000" stroke-linecap="round" stroke-linejoin="round" style="-inkscape-stroke:none"/>
 <path id="polygon1" d="m23.484 17.701-4.8691 2.9258a1.0001 1.0001 0 0 0-0.48438 0.85742v2.8613a1.0001 1.0001 0 0 0 0.54297 0.88867l4.8691 2.5a1.0001 1.0001 0 0 0 0.91406 0l4.8691-2.5a1.0001 1.0001 0 0 0 0.54297-0.88867v-2.8613a1.0001 1.0001 0 0 0-0.48438-0.85742l-4.8691-2.9258a1.0001 1.0001 0 0 0-1.0312 0zm0.51562 2.0234 3.8691 2.3242v1.6855l-3.8691 1.9863-3.8691-1.9863v-1.6855z" color="#000000" stroke-linecap="round" stroke-linejoin="round" style="-inkscape-stroke:none"/>
 <path id="path2" d="m24 30.555a1.0001 1.0001 0 0 0-1 0.98633c0 1.7089-0.20928 4.1832-1.0449 5.9297-0.41782 0.87326-0.96573 1.5474-1.6875 1.9629s-1.6555 0.61535-3.0234 0.38086a1 1 0 0 0-1.1543 0.81641 1 1 0 0 0 0.81641 1.1562c1.7236 0.29546 3.2031 0.04647 4.3594-0.61914s1.9517-1.7044 2.4922-2.834c0.12544-0.26218 0.13644-0.55252 0.23828-0.82422 0.09519 0.25425 0.10496 0.52544 0.2207 0.77148 0.52878 1.1241 1.3057 2.1617 2.4375 2.8398 1.1318 0.67814 2.5856 0.95219 4.2793 0.69141a1 1 0 0 0 0.83594-1.1406 1 1 0 0 0-1.1406-0.83594c-1.3321 0.20512-2.2382-8e-3 -2.9453-0.43164-0.70707-0.42364-1.2461-1.1026-1.6562-1.9746-0.82038-1.744-1.0273-4.1931-1.0273-5.8887a1.0001 1.0001 0 0 0-1-0.98633z" color="#000000" stroke-linecap="round" stroke-linejoin="round" style="-inkscape-stroke:none"/>
 <path id="circle2" d="m24 1.5c-12.415 0-22.5 10.085-22.5 22.5s10.085 22.5 22.5 22.5 22.5-10.085 22.5-22.5-10.085-22.5-22.5-22.5zm0 2c11.334 0 20.5 9.1663 20.5 20.5s-9.1663 20.5-20.5 20.5-20.5-9.1663-20.5-20.5 9.1663-20.5 20.5-20.5z" color="#000000" stroke-linecap="round" stroke-linejoin="round" style="-inkscape-stroke:none"/>
</svg>
