<?xml version="1.0" encoding="UTF-8" standalone="no"?>
<svg
   viewBox="0 0 48 48"
   version="1.1"
   id="svg1"
   sodipodi:docname="steam_icon_2210.svg"
   xmlns:inkscape="http://www.inkscape.org/namespaces/inkscape"
   xmlns:sodipodi="http://sodipodi.sourceforge.net/DTD/sodipodi-0.dtd"
   xmlns="http://www.w3.org/2000/svg"
   xmlns:svg="http://www.w3.org/2000/svg">
  <sodipodi:namedview
     id="namedview1"
     pagecolor="#ffffff"
     bordercolor="#666666"
     borderopacity="1.0"
     inkscape:showpageshadow="2"
     inkscape:pageopacity="0.0"
     inkscape:pagecheckerboard="0"
     inkscape:deskcolor="#d1d1d1" />
  <defs
     id="defs1">
    <style
       id="style1">.a{fill:none;stroke:#000;stroke-width:2px;stroke-linecap:round;stroke-linejoin:round;}</style>
  </defs>
  <path
     style="color:#000000;fill:#000000;stroke-linecap:round;stroke-linejoin:round;-inkscape-stroke:none"
     d="m 14.322266,3.5371094 a 1.0001,1.0001 0 0 0 -0.91211,0.2011719 c -0.05689,0.048287 -0.09627,0.1111057 -0.152343,0.1601562 -5.36e-4,7.122e-4 -0.0014,0.00124 -0.002,0.00195 -3.2748194,2.865948 -5.1566775,7.0103104 -5.1113277,11.3691404 0.00353,7.767704 5.6506647,14.305899 13.2246097,15.603516 v 3.77539 a 1.0001,1.0001 0 0 0 0.01563,0.181641 l 1.630859,8.851563 a 1.0001,1.0001 0 0 0 1.966797,0.0078 L 26.6875,34.837891 a 1.0001,1.0001 0 0 0 0.01758,-0.189454 v -3.78125 c 7.53601,-1.328437 13.147144,-7.845799 13.150391,-15.58789 0.04532,-4.359305 -1.83781,-8.5031471 -5.113282,-11.3691407 -0.0564,-0.049349 -0.09511,-0.1135325 -0.152343,-0.1621094 a 1.0001,1.0001 0 0 0 -1.445313,1.3632812 c 1.706232,2.2698827 2.643466,5.0239729 2.679688,7.8632809 -0.0031,5.523009 -3.854718,10.09713 -9.119141,11.375 v -2.464843 c 0,-0.746562 0.300588,-0.966276 0.714844,-1.19336 0.414256,-0.227083 0.849609,-0.28125 0.849609,-0.28125 a 1.0001,1.0001 0 0 0 -0.0957,-1.99414 h -8.275391 a 1.0001,1.0001 0 0 0 -0.0957,1.99414 c 0,0 0.437265,0.05414 0.851563,0.28125 0.414298,0.227106 0.714844,0.44688 0.714844,1.19336 v 2.480468 c -5.304752,-1.25018 -9.190176,-5.852261 -9.19336,-11.402343 0.03663,-2.83862 0.973846,-5.5919652 2.679688,-7.8613285 A 1.0001,1.0001 0 0 0 14.322266,3.5371094 Z M 10.302734,13.662109 c 0.349081,6.598605 5.241557,12.125913 11.855469,13.03125 a 1.0001,1.0001 0 0 0 0.02148,0.002 l 0.07422,0.0098 a 1.0001,1.0001 0 0 0 1.115235,-0.994141 v -3.826171 c 0,-0.585578 -0.222911,-1.035365 -0.449219,-1.46875 h 2.234375 c -0.2263,0.433391 -0.449219,0.883165 -0.449219,1.46875 v 3.828125 a 1.0001,1.0001 0 0 0 1.134766,0.992187 c 6.613844,-0.905283 11.508255,-6.43275 11.857422,-13.03125 0.06036,0.529398 0.164023,1.050512 0.158203,1.589844 a 1.0001,1.0001 0 0 0 0,0.0098 c -3.55e-4,7.067411 -5.287424,12.995586 -12.308594,13.802734 v 0.002 a 1.0001,1.0001 0 0 0 -0.0059,-0.002 l -0.04297,0.0078 a 1.0001,1.0001 0 0 0 -0.744141,1.019532 l -0.04883,-0.04102 v 0.105469 a 1.0001,1.0001 0 0 0 0,0.06445 v 4.320312 l -0.683594,3.544922 -0.652343,-3.541015 v -4.466797 a 1.0001,1.0001 0 0 0 -0.289063,-0.703125 l -0.03125,-0.03125 A 1.0001,1.0001 0 0 0 22.453125,29.066406 C 15.432114,28.259367 10.145134,22.330914 10.144531,15.263672 a 1.0001,1.0001 0 0 0 0,-0.01172 c -0.0058,-0.539332 0.09784,-1.060445 0.158203,-1.589844 z"
     id="path1" />
</svg>
