<?xml version="1.0" encoding="UTF-8"?>
<svg id="a" version="1.1" viewBox="0 0 48 48" xmlns="http://www.w3.org/2000/svg">
 <defs id="defs1">
  <style id="style1">.b{fill:none;stroke:#000;stroke-width:2px;stroke-linecap:round;stroke-linejoin:round;}</style>
 </defs>
 <path id="polyline1" d="m10.303 15.303a1.0001 1.0001 0 0 0-0.93164 0.64648l-5.8066 15.395a1 1 0 0 0 0.58203 1.2891 1 1 0 0 0 1.2891-0.58203l4.8809-12.943 5 12.949a1 1 0 0 0 1.293 0.57422 1 1 0 0 0 0.57422-1.293l-5.9453-15.395a1.0001 1.0001 0 0 0-0.93555-0.64062z" color="#000000" stroke-linecap="round" stroke-linejoin="round" style="-inkscape-stroke:none"/>
 <path id="path1" d="m10.203 26.223a1.0001 1.0001 0 0 0-0.92383 0.14648c-0.6548 0.49112-1.1628 0.68054-1.4805 0.69531-0.31769 0.014777-0.5346-0.055505-0.90234-0.45312a1 1 0 0 0-1.4141-0.05469 1 1 0 0 0-0.054687 1.4121c0.65525 0.70848 1.5522 1.1362 2.4648 1.0938 0.56548-0.0263 1.0777-0.40092 1.6035-0.67773 0.58854 0.94135 1.4012 1.626 2.3457 1.6855 1.2626 0.07957 2.449-0.46659 3.4648-1.1895a1 1 0 0 0 0.23633-1.3945 1 1 0 0 0-1.3945-0.23438c-0.76851 0.54684-1.6465 0.85599-2.1816 0.82227-0.53515-0.03373-0.84124-0.14707-1.123-1.1699a1.0001 1.0001 0 0 0-0.64062-0.68164z" color="#000000" stroke-linecap="round" stroke-linejoin="round" style="-inkscape-stroke:none"/>
 <path id="polyline2" d="m37.697 15.303a1.0001 1.0001 0 0 0-0.93555 0.64062l-5.9453 15.395a1 1 0 0 0 0.57422 1.293 1 1 0 0 0 1.293-0.57422l5-12.949 4.8809 12.943a1 1 0 0 0 1.2891 0.58203 1 1 0 0 0 0.58203-1.2891l-5.8066-15.395a1.0001 1.0001 0 0 0-0.93164-0.64648z" color="#000000" stroke-linecap="round" stroke-linejoin="round" style="-inkscape-stroke:none"/>
 <path id="path2" d="m37.797 26.223a1.0001 1.0001 0 0 0-0.64062 0.68164c-0.2818 1.0228-0.5879 1.1362-1.123 1.1699-0.53515 0.03373-1.4131-0.27543-2.1816-0.82227a1 1 0 0 0-1.3945 0.23438 1 1 0 0 0 0.23633 1.3945c1.0159 0.72286 2.2022 1.269 3.4648 1.1895 0.94448-0.05952 1.7572-0.7442 2.3457-1.6855 0.52586 0.27681 1.038 0.65143 1.6035 0.67773 0.91261 0.04245 1.8096-0.38527 2.4648-1.0938a1 1 0 0 0-0.05469-1.4121 1 1 0 0 0-1.4141 0.05469c-0.36775 0.39762-0.58465 0.4679-0.90234 0.45312-0.31769-0.01478-0.82567-0.20419-1.4805-0.69531a1.0001 1.0001 0 0 0-0.92383-0.14648z" color="#000000" stroke-linecap="round" stroke-linejoin="round" style="-inkscape-stroke:none"/>
 <path id="line2" d="m20.625 18.553a1 1 0 0 0-1 1v12.145a1 1 0 0 0 1 1 1 1 0 0 0 1-1v-12.145a1 1 0 0 0-1-1z" color="#000000" stroke-linecap="round" stroke-linejoin="round" style="-inkscape-stroke:none"/>
 <path id="line3" d="m27.059 18.598a1 1 0 0 0-0.67578 0.35742l-6.5273 7.873a1 1 0 0 0 0.13086 1.4082 1 1 0 0 0 1.4082-0.13086l6.5273-7.875a1 1 0 0 0-0.13086-1.4082 1 1 0 0 0-0.73242-0.22461z" color="#000000" stroke-linecap="round" stroke-linejoin="round" style="-inkscape-stroke:none"/>
 <path id="line4" d="m22.248 24.629a1 1 0 0 0-0.73242 0.22461 1 1 0 0 0-0.13477 1.4062l5 6.0723a1 1 0 0 0 1.4082 0.13672 1 1 0 0 0 0.13477-1.4082l-5-6.0723a1 1 0 0 0-0.67578-0.35938z" color="#000000" stroke-linecap="round" stroke-linejoin="round" style="-inkscape-stroke:none"/>
</svg>
