<?xml version="1.0" encoding="UTF-8"?>
<svg id="a" version="1.1" viewBox="0 0 48 48" xmlns="http://www.w3.org/2000/svg">
 <defs id="defs1">
  <style id="style1">.b{fill:none;stroke:#000;stroke-width:2px;stroke-linecap:round;stroke-linejoin:round;}</style>
 </defs>
 <path id="path1" d="m34.68 16.787c-1.7938 0.15761-3.577 0.7542-5.125 1.7383a1 1 0 0 0-0.30664 1.3809 1 1 0 0 0 1.3789 0.30664c2.524-1.6045 5.9354-1.9092 8.3711-0.73047 2.4357 1.1787 4.1075 3.6787 3.3145 8.4746-1.5263 9.2304-16.314 13.26-22.889 2.4922a1 1 0 0 0-1.375-0.33203 1 1 0 0 0-0.33203 1.375c7.3952 12.113 24.723 7.9528 26.568-3.209 0.89297-5.4002-1.2318-9.0606-4.416-10.602-1.5921-0.77048-3.3957-1.0521-5.1895-0.89453z" stroke-linecap="round" stroke-linejoin="round"/>
 <path id="path2" d="m20.297 22.584a1 1 0 0 0-1 1c0 2.4588-0.65135 4.9177-1.791 6.5742-1.1397 1.6565-2.6102 2.5405-4.7324 2.2324-1.0633-0.15436-1.5301-0.49259-1.7891-0.83789-0.25898-0.3453-0.35367-0.80158-0.32617-1.3438 0.055-1.0843 0.64453-2.2598 0.64453-2.2598a1 1 0 0 0-0.41016-1.3516 1 1 0 0 0-1.3535 0.41016s-0.79341 1.4141-0.87891 3.0996c-0.042748 0.84273 0.10297 1.8157 0.72461 2.6445 0.62164 0.82886 1.6761 1.4102 3.1016 1.6172 2.8555 0.41452 5.2185-0.97128 6.668-3.0781 1.4495-2.1068 2.1426-4.9072 2.1426-7.707a1 1 0 0 0-1-1z" stroke-linecap="round" stroke-linejoin="round"/>
 <path id="path3" d="m7.9883 22.42c-2.5766 0.70918-4.2164 2.8617-4.0879 5.0918 0.06427 1.115 0.60269 2.2238 1.582 3.0391 0.97934 0.81531 2.3656 1.3465 4.1465 1.5078a1 1 0 0 0 1.0859-0.90625 1 1 0 0 0-0.90625-1.0859c-1.4808-0.13413-2.4563-0.5611-3.0469-1.0527-0.59055-0.49164-0.82984-1.037-0.86328-1.6172-0.066885-1.1604 0.82221-2.5537 2.6211-3.0488a1 1 0 0 0 0.69922-1.2285 1 1 0 0 0-1.2305-0.69922z" stroke-linecap="round" stroke-linejoin="round"/>
 <path id="path4" d="m25.533 10.85c-1.8709 0.10942-3.3697 0.94701-4.459 1.9141-0.72619 0.6447-1.2986 1.3407-1.7598 1.9238s-0.84923 1.0679-1 1.1992c-0.20307 0.17686-1.6359 0.69078-3.3672 0.87695-1.7312 0.18618-3.8171 0.19387-5.6641-2e-3 -2.7138-0.28764-4.8004 0.93696-5.5059 2.7852-0.70546 1.8482-0.035614 4.1055 1.8477 5.6641a1 1 0 0 0 1.4082-0.13281 1 1 0 0 0-0.13281-1.4082c-1.352-1.1189-1.6188-2.4593-1.2559-3.4102 0.36292-0.95081 1.3513-1.7279 3.4277-1.5078 2.0068 0.21277 4.1963 0.20342 6.0879 0s3.4274-0.45048 4.4688-1.3574c0.47143-0.41059 0.8146-0.91126 1.2539-1.4668 0.43931-0.55553 0.93732-1.1528 1.5176-1.668 1.1605-1.0303 2.5314-1.7553 4.7168-1.2969 2.6193 0.54951 3.9636 1.8419 4.7324 3.002 0.76881 1.1601 0.90039 2.1152 0.90039 2.1152a1 1 0 0 0 1.1309 0.84961 1 1 0 0 0 0.84961-1.1328s-0.20783-1.419-1.2129-2.9355c-1.0051-1.5165-2.8692-3.2007-5.9902-3.8555-0.70446-0.14778-1.3705-0.19272-1.9941-0.15625z" stroke-linecap="round" stroke-linejoin="round"/>
 <path id="path5" d="m36.977 16.846c-0.95153-0.20813-1.7363 0.17324-2.5723 0.70508-0.836 0.53184-1.6749 1.3126-2.3359 2.3125-1.3221 1.9998-1.7992 5.0316 0.34766 7.9531 1.1902 1.6196 2.5806 2.5539 3.998 2.8789 1.4175 0.32498 2.8019 0.03715 3.9668-0.54688 1.1649-0.58402 2.1357-1.4559 2.8477-2.4043 0.712-0.94842 1.193-1.9618 1.2188-3.0098a1 1 0 0 0-0.97461-1.0234 1 1 0 0 0-1.0254 0.97461c-0.0096 0.38861-0.2831 1.1444-0.81836 1.8574-0.53526 0.713-1.3032 1.3946-2.1445 1.8164s-1.7283 0.59185-2.623 0.38672-1.857-0.78836-2.832-2.1152c-1.7068-2.3227-1.2739-4.1804-0.29297-5.6641 0.49044-0.74185 1.151-1.3524 1.7422-1.7285 0.59121-0.37611 1.1612-0.41958 1.0703-0.43945a1 1 0 0 0 1.1895-0.76172 1 1 0 0 0-0.76172-1.1914z" stroke-linecap="round" stroke-linejoin="round"/>
 <path id="path6" d="m29.117 29.611a1 1 0 0 0-1.0664 0.92773c-0.1582 2.268 1.5383 4.5719 4.2422 4.916a1 1 0 0 0 1.1191-0.86523 1 1 0 0 0-0.86719-1.1191c-1.7117-0.21786-2.5826-1.6068-2.5-2.791a1 1 0 0 0-0.92774-1.0684z" stroke-linecap="round" stroke-linejoin="round"/>
 <path id="line6" d="m25.752 14.369a1 1 0 0 0-0.74023 1.2051l1.043 4.375a1 1 0 0 0 1.2051 0.74023 1 1 0 0 0 0.74023-1.2031l-1.043-4.377a1 1 0 0 0-1.2051-0.74023z" stroke-linecap="round" stroke-linejoin="round"/>
 <path id="line7" d="m29.822 14.256a1 1 0 0 0-0.71094 1.2227l0.95703 3.6172a1 1 0 0 0 1.2227 0.71094 1 1 0 0 0 0.71094-1.2227l-0.95703-3.6172a1 1 0 0 0-1.2227-0.71094z" stroke-linecap="round" stroke-linejoin="round"/>
 <path id="path7" d="m28.398 19.152c-0.74816-0.08502-1.7382-0.0418-2.7188 0.36523a1 1 0 0 0-0.53906 1.3066 1 1 0 0 0 1.3066 0.53906c0.54484-0.22617 1.2954-0.27339 1.7246-0.22461a1 1 0 0 0 1.1074-0.87891 1 1 0 0 0-0.88086-1.1074z" stroke-linecap="round" stroke-linejoin="round"/>
 <path id="path8" d="m22.883 9.1719c-1.042 0.079234-2.0684 0.2824-3.0508 0.5625-1.9647 0.56019-3.7626 1.4349-5.1973 2.332-1.0671 0.66729-1.6739 1.2911-2.2812 1.9199-0.13982-0.09676-0.10966-0.11168-0.29297-0.21094-0.6622-0.35857-1.6539-0.7345-2.998-0.87891a1.0001 1.0001 0 0 0-1.0215 0.5918c-0.44153 1.0048-0.35747 2.0682-0.25586 2.9414 0.10161 0.87316 0.28516 1.5684 0.28516 1.5684a1 1 0 0 0 1.2207 0.71289 1 1 0 0 0 0.71289-1.2207s-0.14835-0.5686-0.23242-1.291c-0.045564-0.39155 0.030065-0.66783 0.054687-1.0332 0.44782 0.1278 1.0278 0.22994 1.2813 0.36719 0.44674 0.2419 0.55273 0.37305 0.55273 0.37305a1.0001 1.0001 0 0 0 1.5488-0.11133c0.23879-0.34169 1.1951-1.2258 2.4863-2.0332 1.2913-0.80745 2.942-1.6083 4.6855-2.1055 1.7435-0.49713 3.5724-0.68779 5.25-0.34766 1.6776 0.34013 3.217 1.1782 4.5332 2.8789a1 1 0 0 0 1.4023 0.17773 1 1 0 0 0 0.17969-1.4023c-1.594-2.0596-3.6247-3.1911-5.7168-3.6152-1.046-0.21209-2.1045-0.25502-3.1465-0.17578z" stroke-linecap="round" stroke-linejoin="round"/>
</svg>
