<?xml version="1.0" encoding="UTF-8"?>
<svg id="svg8" version="1.1" viewBox="0 0 48 48" xmlns="http://www.w3.org/2000/svg">
 <defs id="defs1">
  <style id="style1">.a{fill:none;stroke:#000;stroke-width:2px;stroke-linecap:round;stroke-linejoin:round;}</style>
 </defs>
 <path id="path1" d="m39.156 6.7031a1.0001 1.0001 0 0 0-0.73242 0.29883l-9.2754 9.4219c-0.16129-0.03192-0.31468-0.10512-0.48828-0.12891-0.44785-0.06135-0.93491-0.09633-1.4082-0.11914-0.94658-0.04561-1.8881-0.04265-2.1152-0.05078-0.7492-0.0268-1.7826 0.06641-2.1445 0.06641a1.0001 1.0001 0 0 0-0.05469 2e-3c-1.2934 0.07122-2.5659 0.31929-3.8242 0.62305l-8.5723-9.7735a1.0001 1.0001 0 0 0-1.752 0.69922l0.79102 19.557c-0.55672 2.1442-0.93483 4.3299-1.1035 6.5391-0.12705 0.85068-0.024492 1.7208 0.30469 2.5156a1.0001 1.0001 0 0 0 0.125 0.21875c0.99056 1.3149 2.1566 2.489 3.4648 3.4883a1.0001 1.0001 0 0 0 0.10352 0.06836c0.35186 0.20456 0.60232 0.24225 0.95508 0.31641 0.35275 0.07416 0.77105 0.14175 1.25 0.20508 0.9579 0.12665 2.1546 0.23836 3.4297 0.33398 2.5501 0.19125 5.3974 0.3125 7.1895 0.3125 3.0961 0.02643 6.1917-0.12917 9.2695-0.4668a1.0001 1.0001 0 0 0 0.47656-0.18359c1.6927-1.2281 3.1882-2.7086 4.4336-4.3887a1.0001 1.0001 0 0 0 0.19726-0.61328c-0.049511-2.7085-0.41973-5.3993-1.0508-8.0332l1.5098-19.832a1.0001 1.0001 0 0 0-0.97852-1.0762zm-1.2246 3.6504-1.3066 17.172a1.0001 1.0001 0 0 0 0.02539 0.31641c0.6033 2.4456 0.904 4.9516 0.97656 7.4688-1.0313 1.3377-2.2297 2.5369-3.584 3.5469-2.9015 0.30654-5.8167 0.46465-8.7344 0.43945a1.0001 1.0001 0 0 0-0.0098 0c-1.6998 0-4.5393-0.11902-7.041-0.30664-1.2509-0.09381-2.421-0.20583-3.3164-0.32422-0.4477-0.05919-0.82866-0.12036-1.1016-0.17774-0.23866-0.05017-0.34908-0.10161-0.31445-0.07617-1.0946-0.84511-2.0672-1.8336-2.9101-2.9297-0.16042-0.43515-0.23449-0.89977-0.16406-1.3594a1.0001 1.0001 0 0 0 0.0098-0.07617c0.16291-2.1793 0.52623-4.3392 1.0879-6.4512a1.0001 1.0001 0 0 0 0.0332-0.29688l-0.67969-16.812 7.0684 8.0605a1.0001 1.0001 0 0 0 1.0156 0.30469c1.3257-0.3642 2.6878-0.58638 4.0605-0.66211h2e-3c0.60767-0.0043 1.5499-0.08118 2.0176-0.06445 0.38783 0.01387 1.2134 0.0066 2.0898 0.04883 0.43823 0.02112 0.87858 0.05504 1.2324 0.10352 0.35384 0.04848 0.64309 0.1399 0.63672 0.13672a1.0001 1.0001 0 0 0 1.1602-0.19141z" color="#000000" stroke-linecap="round" stroke-linejoin="round" style="-inkscape-stroke:none"/>
 <path id="path2" d="m39.561 6.7969a1 1 0 0 0-1.3301 0.48242l-6.6758 14.299a1.0001 1.0001 0 0 0 0.22461 1.1562c1.8257 1.6938 3.5173 3.5286 5.0566 5.4863a1 1 0 0 0 1.4043 0.16797 1 1 0 0 0 0.16797-1.4043c-1.4493-1.8432-3.0656-3.5459-4.7598-5.166l6.3945-13.693a1 1 0 0 0-0.48242-1.3281z" color="#000000" stroke-linecap="round" stroke-linejoin="round" style="-inkscape-stroke:none"/>
 <path id="path3" d="m9.4141 6.7754a1 1 0 0 0-0.55273 1.3008l5.5234 13.707c-0.23804 0.21719-0.45931 0.37689-0.74414 0.66797-0.53223 0.54392-1.1311 1.1918-1.6953 1.8184-1.1283 1.2531-2.123 2.4199-2.123 2.4199a1 1 0 0 0 0.11133 1.4102 1 1 0 0 0 1.4102-0.11133s0.98135-1.152 2.0879-2.3809c0.55327-0.61444 1.1393-1.2474 1.6387-1.7578 0.4994-0.51036 0.98316-0.9265 1.0371-0.96094a1.0001 1.0001 0 0 0 0.38867-1.2168l-5.7793-14.344a1 1 0 0 0-1.3027-0.55273z" color="#000000" stroke-linecap="round" stroke-linejoin="round" style="-inkscape-stroke:none"/>
 <path id="line3" d="m4.7832 30.688a1 1 0 0 0-1.2422 0.67773 1 1 0 0 0 0.67578 1.2402l6.4004 1.8867a1 1 0 0 0 1.2402-0.67578 1 1 0 0 0-0.67578-1.2422z" color="#000000" stroke-linecap="round" stroke-linejoin="round" style="-inkscape-stroke:none"/>
 <path id="line4" d="m10.92 34.367-6.5996 1.2129a1 1 0 0 0-0.80469 1.1641 1 1 0 0 0 1.1641 0.80273l6.6016-1.2109a1 1 0 0 0 0.80273-1.1641 1 1 0 0 0-1.1641-0.80469z" color="#000000" stroke-linecap="round" stroke-linejoin="round" style="-inkscape-stroke:none"/>
 <path id="line5" d="m43.25 30.947-6.2637 1.6172a1 1 0 0 0-0.71875 1.2188 1 1 0 0 0 1.2188 0.71875l6.2637-1.6172a1 1 0 0 0 0.71875-1.2188 1 1 0 0 0-1.2188-0.71875z" color="#000000" stroke-linecap="round" stroke-linejoin="round" style="-inkscape-stroke:none"/>
 <path id="line6" d="m37.207 34.678a1 1 0 0 0-1.1582 0.81055 1 1 0 0 0 0.8125 1.1582l6.4648 1.1387a1 1 0 0 0 1.1582-0.8125 1 1 0 0 0-0.81055-1.1582z" color="#000000" stroke-linecap="round" stroke-linejoin="round" style="-inkscape-stroke:none"/>
 <path id="path6" d="m25.426 32.385c-0.44689 0.05156-0.89687 0.06148-1.3457 0.03125a1 1 0 0 0-1.0645 0.92969 1 1 0 0 0 0.92969 1.0664c0.57006 0.0384 1.1434 0.02448 1.7109-0.04102a1 1 0 0 0 0.87891-1.1094 1 1 0 0 0-1.1094-0.87695z" color="#000000" stroke-linecap="round" stroke-linejoin="round" style="-inkscape-stroke:none"/>
 <path id="path7" d="m24.957 34.184a1.0001 1.0001 0 0 0-0.89453 0.2832c-0.26365 0.26868-1.0253 0.8577-1.8613 1.2441-0.83601 0.38644-1.7334 0.56575-2.375 0.38477a1 1 0 0 0-1.2344 0.68945 1 1 0 0 0 0.69141 1.2344c1.3455 0.37952 2.6717 9e-3 3.7559-0.49219 0.67114-0.31023 1.0491-0.6727 1.5176-1.0273 0.30371 0.30806 0.69309 0.63564 1.2227 0.91211 1.125 0.58736 2.7886 0.90457 4.9199 0.35547a1 1 0 0 0 0.71875-1.2168 1 1 0 0 0-1.2168-0.71875c-1.7249 0.4444-2.7988 0.17264-3.4961-0.19141-0.34865-0.18202-0.60419-0.39632-0.77539-0.57617-0.1712-0.17985-0.26808-0.37298-0.23633-0.30078a1.0001 1.0001 0 0 0-0.73633-0.58008z" color="#000000" stroke-linecap="round" stroke-linejoin="round" style="-inkscape-stroke:none"/>
 <path id="line7" d="m17.611 27.33a1 1 0 0 0-0.99414 1.0059l0.01758 2.4922a1 1 0 0 0 1.0059 0.99414 1 1 0 0 0 0.99414-1.0078l-0.01758-2.4922a1 1 0 0 0-1.0059-0.99219z" color="#000000" stroke-linecap="round" stroke-linejoin="round" style="-inkscape-stroke:none"/>
 <path id="line8" d="m30.793 27.516a1 1 0 0 0-1.0234 0.97656l-0.05078 2.2051a1 1 0 0 0 0.97656 1.0234 1 1 0 0 0 1.0234-0.97656l0.05078-2.207a1 1 0 0 0-0.97656-1.0215z" color="#000000" stroke-linecap="round" stroke-linejoin="round" style="-inkscape-stroke:none"/>
</svg>
