<?xml version="1.0" encoding="UTF-8"?>
<svg id="a" version="1.1" viewBox="0 0 48 48" xmlns="http://www.w3.org/2000/svg">
 <defs id="defs1">
  <style id="style1">.b{fill:none;stroke:#000;stroke-width:2px;stroke-linecap:round;stroke-linejoin:round;}</style>
 </defs>
 <path id="rect1" d="m7.5 4.5c-1.6447 0-3 1.3553-3 3v33c0 1.6447 1.3553 3 3 3h33c1.6447 0 3-1.3553 3-3v-33c0-1.6447-1.3553-3-3-3zm0 2h33c0.5713 0 1 0.4287 1 1v33c0 0.5713-0.4287 1-1 1h-33c-0.5713 0-1-0.4287-1-1v-33c0-0.5713 0.4287-1 1-1z" stop-color="#000000" stroke-linecap="round" stroke-linejoin="round"/>
 <path id="path1" d="m15.197 13.131a1 1 0 0 0-1 1 1 1 0 0 0 1 1h16.605v7.8691h-15.607c-1.0927 0-2 0.90729-2 2v7.8691c0 1.0927 0.90729 2 2 2h16.607a1 1 0 0 0 1-1 1 1 0 0 0-1-1h-16.607v-7.8691h15.607c1.0927 0 2-0.90729 2-2v-7.8691c0-1.0927-0.90729-2-2-2z" stop-color="#000000" stroke-linecap="round" stroke-linejoin="round"/>
</svg>
