<?xml version="1.0" encoding="UTF-8" standalone="no"?>
<svg
   viewBox="0 0 48 48"
   version="1.1"
   id="svg1"
   sodipodi:docname="steam.svg"
   xmlns:inkscape="http://www.inkscape.org/namespaces/inkscape"
   xmlns:sodipodi="http://sodipodi.sourceforge.net/DTD/sodipodi-0.dtd"
   xmlns="http://www.w3.org/2000/svg"
   xmlns:svg="http://www.w3.org/2000/svg">
  <sodipodi:namedview
     id="namedview1"
     pagecolor="#ffffff"
     bordercolor="#666666"
     borderopacity="1.0"
     inkscape:showpageshadow="2"
     inkscape:pageopacity="0.0"
     inkscape:pagecheckerboard="0"
     inkscape:deskcolor="#d1d1d1" />
  <defs
     id="defs1">
    <style
       id="style1">.a{fill:none;stroke:#000;stroke-width:2px;stroke-linecap:round;stroke-linejoin:round;}</style>
  </defs>
  <path
     style="color:#000000;fill:#000000;stroke-linecap:round;stroke-linejoin:round;-inkscape-stroke:none"
     d="M 24,1.5 C 11.588065,1.505769 1.505769,11.588065 1.5,24 v 0.910156 a 1.0001,1.0001 0 0 0 0.65625,0.939453 l 9.580078,3.507813 c -0.67635,0.969715 -1.129271,2.07021 -1.246094,3.308594 L 4.125,30.322266 a 1.0001,1.0001 0 0 0 -1.2851562,1.27539 C 8.9829558,48.685932 31.956879,51.778199 42.400391,36.923828 52.843902,22.069457 42.158937,1.4975179 24,1.5 Z m 0,2 C 40.656673,3.4977233 50.343168,22.148002 40.763672,35.773437 31.677987,48.696499 12.628743,46.692796 5.8652344,33.09375 L 10.53125,34.8125 c 0.02269,0.109478 0.03234,0.221819 0.06055,0.330078 a 1.0001,1.0001 0 0 0 0.0059,0.01953 c 0.06139,0.217388 0.214727,0.375276 0.294922,0.582032 0.08759,0.223349 0.207321,0.41529 0.316406,0.626953 0.315647,0.619486 0.672248,1.180941 1.140625,1.669922 0.12712,0.133131 0.269191,0.236459 0.40625,0.359375 0.531343,0.475327 1.093761,0.869326 1.740235,1.166015 0.183628,0.08506 0.370848,0.139698 0.5625,0.208985 0.656142,0.236225 1.319716,0.37557 2.03125,0.408203 0.11553,0.0057 0.213194,0.06641 0.330078,0.06641 0.154227,2.17e-4 0.2837,-0.07825 0.435547,-0.08789 0.36164,-0.02312 0.712342,0.05203 1.076172,-0.0293 0.28958,-0.06473 0.512308,-0.245908 0.785156,-0.34375 0.306756,-0.107193 0.585052,-0.233994 0.871094,-0.380859 0.497731,-0.259549 0.946384,-0.547861 1.361328,-0.910156 0.285947,-0.244022 0.531411,-0.501058 0.77539,-0.78711 0.305959,-0.365673 0.564054,-0.738963 0.791016,-1.158203 0.217172,-0.390677 0.386811,-0.783446 0.527344,-1.214843 0.12801,-0.401767 0.203524,-0.800379 0.257812,-1.22461 0.03994,-0.293092 0.177182,-0.552226 0.179688,-0.855469 a 1.0001,1.0001 0 0 0 0,-0.0059 c 2.88e-4,-0.174291 -0.08734,-0.320978 -0.09961,-0.492187 l 8.597657,-6.080079 c 0.625768,-0.02298 1.253233,-0.07008 1.859375,-0.230468 9.09e-4,-2.33e-4 0.001,-0.0017 0.002,-0.002 3.83642,-0.981429 5.871058,-3.946946 6.310547,-7.089844 0.01472,-0.09814 0.0043,-0.19605 0.01563,-0.294922 0.06817,-0.64278 0.174955,-1.285973 0.103515,-1.923828 -0.03912,-0.349283 -0.206416,-0.672136 -0.287109,-1.015625 -0.02089,-0.08867 0.0063,-0.175092 -0.01758,-0.263672 C 40.930409,15.729783 40.844795,15.62882 40.804687,15.501953 40.591718,14.821479 40.316478,14.190814 39.943359,13.576172 39.83248,13.396659 39.709111,13.236424 39.585937,13.066406 39.165728,12.474937 38.700115,11.943057 38.128906,11.470703 37.968163,11.337466 37.785259,11.244308 37.615234,11.123047 37.053005,10.725599 36.487617,10.34969 35.806641,10.095703 34.913674,9.7422841 33.963446,9.5155497 32.964844,9.4804688 a 1.0001,1.0001 0 0 0 -0.0098,0.00391 c -0.005,-1.447e-4 -0.0087,-0.00182 -0.01367,-0.00195 -0.859749,-0.034946 -1.71968,0.058254 -2.550781,0.28125 -1.087386,0.2921831 -2.039052,0.8288271 -2.900391,1.4765621 -0.159951,0.120532 -0.277357,0.271638 -0.427734,0.402344 -0.649191,0.561716 -1.20476,1.18977 -1.660156,1.914063 -0.140869,0.223848 -0.247225,0.449797 -0.367188,0.685547 -0.352931,0.692655 -0.601716,1.414403 -0.757812,2.191406 -0.06129,0.299488 -0.117362,0.58377 -0.146485,0.890625 -0.01206,0.129688 -0.0563,0.249849 -0.0625,0.380859 l -6.072265,8.582031 c -0.06589,-0.0066 -0.131236,-0.01833 -0.197266,-0.02344 -0.129023,-0.0071 -0.238402,-0.07422 -0.369141,-0.07422 a 1.0001,1.0001 0 0 0 -0.08984,0.07617 c -0.09243,0.0011 -0.170149,0.04808 -0.261719,0.05273 -0.505892,0.02505 -1.014176,0.04204 -1.503906,0.175782 -8.68e-4,2.3e-4 -0.0011,0.0017 -0.002,0.002 -0.135422,0.03603 -0.23069,0.155281 -0.363282,0.199218 -0.730602,0.246367 -1.370039,0.624256 -1.972656,1.082032 L 3.5,24.210937 V 24 C 3.5052669,12.668287 12.668287,3.5052669 24,3.5 Z m 8.919922,7.988281 c 0.789673,0.02523 1.459132,0.213474 2.101562,0.431641 1.906955,0.731162 3.398674,2.326543 3.972657,4.371094 0.01512,0.05702 0.03311,0.112488 0.04687,0.169921 0.898742,3.516285 -1.166363,7.087517 -4.681641,8.033204 -3.54234,0.952966 -7.159429,-1.130017 -8.113281,-4.671875 v -0.002 c -0.207767,-0.781627 -0.214727,-1.559366 -0.144532,-2.318359 0.02186,-0.236192 0.06713,-0.464151 0.113282,-0.693359 0.118625,-0.582015 0.306886,-1.139891 0.572265,-1.664063 0.09275,-0.183251 0.180026,-0.367654 0.289063,-0.541015 0.350924,-0.556121 0.78932,-1.053272 1.294922,-1.486328 0.102397,-0.08765 0.185031,-0.193895 0.292968,-0.275391 0.660914,-0.498171 1.414989,-0.897966 2.265625,-1.126953 v 0.002 C 31.567929,11.545548 32.228432,11.472388 32.888672,11.5 a 1.0001,1.0001 0 0 0 0.03125,-0.01172 z m -8.464844,9.132813 c 0.870733,2.812067 3.083034,4.769074 5.734375,5.580078 l -6.240234,4.414062 c -0.70772,-1.747823 -2.081604,-3.150778 -3.820313,-3.876953 z M 17.587891,28.25 c 0.121899,0.0084 0.242026,0.03014 0.363281,0.04492 2.360162,0.251801 4.171414,2.062698 4.423828,4.421875 0.04206,0.402331 0.01925,0.793345 -0.03125,1.179687 -0.04065,0.284816 -0.08819,0.565035 -0.173828,0.832032 -0.09701,0.311577 -0.22908,0.605872 -0.382813,0.890625 -0.163441,0.294059 -0.345744,0.57241 -0.5625,0.826171 -0.167469,0.200226 -0.351105,0.383727 -0.548828,0.556641 -0.305129,0.260062 -0.638061,0.484084 -1,0.666016 -0.184098,0.09485 -0.37414,0.177235 -0.572265,0.25 -0.461868,0.162824 -0.949385,0.267036 -1.462891,0.289062 -0.12834,0.0064 -0.25579,0.0131 -0.382813,0.0098 -0.585041,-0.01933 -1.144783,-0.129971 -1.662109,-0.330078 -0.07078,-0.02738 -0.143513,-0.04763 -0.21289,-0.07813 -0.523534,-0.230604 -0.993012,-0.554167 -1.404297,-0.939453 -0.05338,-0.0502 -0.112807,-0.09192 -0.164063,-0.144532 -0.371973,-0.380588 -0.65953,-0.834446 -0.896484,-1.318359 -0.05405,-0.111625 -0.119726,-0.213297 -0.166016,-0.330078 -0.22651,-0.566979 -0.374449,-1.176916 -0.380859,-1.826172 0.01576,-1.595956 0.806831,-2.944746 1.964844,-3.857422 0.45378,-0.354651 0.948516,-0.645637 1.496093,-0.826172 0.428237,-0.142773 0.874058,-0.244293 1.345703,-0.267578 0.138007,-0.0067 0.271753,-0.05357 0.410157,-0.04883 z"
     id="path1" />
</svg>
