<?xml version="1.0" encoding="UTF-8"?>
<svg id="a" version="1.1" viewBox="0 0 48 48" xmlns="http://www.w3.org/2000/svg">
 <defs id="defs1">
  <style id="style1">.b{fill:none;stroke:#000;stroke-width:2px;stroke-linecap:round;stroke-linejoin:round;}</style>
 </defs>
 <path id="path1" d="m19.98 20.279c-1.0607-0.55656-2.4293 0.30511-2.3711 1.5078 0.07088 1.4663 0.24927 2.2257 0.28711 3.0957 0.04204 0.96782-0.32359 3.1607 0.23828 5.4082 0.47978 1.9191 0.81022 4.1098 0.86133 7 0.04 2.2621 0.01188 2.7432 0 3.1953h-14.496a1 1 0 0 0-1 1 1 1 0 0 0 1 1h15.496a1.0001 1.0001 0 0 0 0.99805-0.95703s0.05455-1.2989 2e-3 -4.2734c-0.05349-3.0254-0.4051-5.3899-0.91992-7.4492-0.43273-1.7309-0.11908-3.5696-0.18164-5.0098-0.0381-0.87608-0.15472-1.6133-0.23438-2.543 2.9337 1.3872 7.144 2.2381 10.746 2.3027-0.99098 1.3322-1.7212 2.9216-2.1875 4.4902-0.54019 1.8173-0.79492 3.497-0.79492 4.5879 0 2.1952 0.17413 4.2202 1.0781 7.7832a1.0001 1.0001 0 0 0 0.96875 0.75391h14.029a1 1 0 0 0 1-1 1 1 0 0 0-1-1h-13.213c-0.67897-2.8707-0.86328-4.6303-0.86328-6.5371 0-0.74348 0.22359-2.3715 0.71289-4.0176 0.4893-1.6461 1.2571-3.3459 2.1934-4.3906 0.42151-0.4703 0.49632-1.1527 0.26758-1.6699-0.22875-0.5172-0.79921-0.92706-1.4355-0.91797-3.5427 0.05087-8.5994-1.0041-11.182-2.3594z" color="#000000" stroke-linecap="round" stroke-linejoin="round" style="-inkscape-stroke:none"/>
 <path id="path2" d="m24.266 12.219a1.0001 1.0001 0 0 0-0.76758 0.32422l-11.203 12.25a1.0001 1.0001 0 0 0 0.06836 1.418l2.4727 2.2246-9.0508 12.463a1 1 0 0 0 0.2207 1.3984 1 1 0 0 0 1.3965-0.22266l9.5801-13.191a1.0001 1.0001 0 0 0-0.13867-1.332l-2.3926-2.1523 9.8242-10.742c1.6107 1.7311 3.8204 3.5622 5.8887 5.0977 1.9764 1.4672 3.1152 2.2062 3.6523 2.5625-1.5029 3.2898-3.6523 5.7031-3.6523 5.7031a1.0001 1.0001 0 0 0-0.20703 1.0664c1.2089 3.0081 3.6013 6.1544 5.6953 8.6074s3.9082 4.1992 3.9082 4.1992a1 1 0 0 0 1.4141-0.02539 1 1 0 0 0-0.02539-1.4141s-1.7469-1.6824-3.7754-4.0586c-1.9099-2.2373-3.9779-5.0804-5.0918-7.5723 0.63384-0.70048 2.5619-2.9156 3.9707-6.4375a1.0001 1.0001 0 0 0-0.38086-1.209s-1.9801-1.2929-4.3164-3.0273c-2.3363-1.7344-5.0366-3.9449-6.3418-5.5586a1.0001 1.0001 0 0 0-0.74805-0.3711z" color="#000000" stroke-linecap="round" stroke-linejoin="round" style="-inkscape-stroke:none"/>
 <path id="path3" d="m36.512 24.406a1.0001 1.0001 0 0 0-0.8457 0.53516c-0.16601 0.31777-0.69887 1.0337-1.1973 1.6367s-0.91435 1.0594-1.1348 1.3418a1.0001 1.0001 0 0 0-0.13672 0.99805c0.28878 0.69562 0.81134 1.3276 1.3164 1.9805 0.50507 0.65284 0.9668 1.2031 0.9668 1.2031a1.0001 1.0001 0 0 0 1.5645-0.04102c0.65601-0.87026 2.3301-2.8144 2.3301-2.8144a1.0001 1.0001 0 0 0 0.06445-1.2227c-0.58488-0.8433-2.041-3.1523-2.041-3.1523a1.0001 1.0001 0 0 0-0.88672-0.46484zm-0.0098 2.7617c0.32286 0.50697 0.50858 0.79157 0.87891 1.3535-0.25805 0.30026-0.6243 0.75266-1.123 1.3555-0.08007-0.10125-0.07748-0.09373-0.16211-0.20312-0.33211-0.42928-0.52977-0.75064-0.73047-1.0605 0.2135-0.24839 0.3357-0.38608 0.64453-0.75976 0.18195-0.22016 0.31301-0.45655 0.49219-0.68555z" color="#000000" stroke-linecap="round" stroke-linejoin="round" style="-inkscape-stroke:none"/>
 <path id="path4" d="m11.314 26.162a1.0001 1.0001 0 0 0-0.6875 0.27344s-1.3504 1.2746-2.1113 2.0977a1.0001 1.0001 0 0 0 0.11523 1.4629s0.42 0.3335 0.88867 0.73047c0.46867 0.39697 1.0326 0.945 1.0684 0.99219a1.0001 1.0001 0 0 0 1.6445-0.07031s0.25994-0.41447 0.61328-0.91016 0.82803-1.0804 1.0723-1.293a1.0001 1.0001 0 0 0-0.17578-1.6309s-0.32694-0.17892-0.71094-0.44141-0.81114-0.65312-0.88281-0.76172a1.0001 1.0001 0 0 0-0.83398-0.44922zm0.04687 2.3633c0.14672 0.11477 0.27764 0.2887 0.41992 0.38672-0.18241 0.23251-0.40616 0.44395-0.56445 0.66602-0.0023 0.0032-0.0016 0.0027-0.0039 0.0059-0.14294-0.12261-0.25494-0.25961-0.40039-0.38281-0.03853-0.03264-0.03456-0.02888-0.07227-0.06055 0.27506-0.27163 0.41898-0.42057 0.62109-0.61523z" color="#000000" stroke-linecap="round" stroke-linejoin="round" style="-inkscape-stroke:none"/>
 <path id="path5" d="m28.475 5.6211a1.0001 1.0001 0 0 0-0.54688 0.89258v1.2188c-0.23649 0.30394-1.634 2.1153-2.3887 2.7441a1.0001 1.0001 0 0 0-0.35938 0.76758 1.0001 1.0001 0 0 0 0.22266 0.62891s2.0163 2.575 3.6875 3.7754a1.0001 1.0001 0 0 0 1.2852-0.09961s2.3789-2.2783 3.4941-4.1445a1.0001 1.0001 0 0 0-0.08594-1.1465s-0.72146-0.88162-1.6016-1.8789c-0.8801-0.99729-1.8475-2.0776-2.6641-2.6738a1.0001 1.0001 0 0 0-1.043-0.083984zm1.2383 3.0977c0.36608 0.38145 0.6183 0.58505 0.9707 0.98438 0.56082 0.6355 0.74807 0.87125 1.0215 1.1992-0.76877 1.0365-1.5629 1.9187-2.0879 2.4629-0.89169-0.84589-1.6725-1.672-2.0898-2.1602 1.0043-1.0822 2.1727-2.4686 2.1855-2.4863z" color="#000000" stroke-linecap="round" stroke-linejoin="round" style="-inkscape-stroke:none"/>
 <path id="line5" d="m21.617 28.656a1 1 0 0 0-1 1v0.28711a1 1 0 0 0 1 1 1 1 0 0 0 1-1v-0.28711a1 1 0 0 0-1-1z" color="#000000" stroke-linecap="round" stroke-linejoin="round" style="-inkscape-stroke:none"/>
 <path id="line6" d="m26.879 28.42a1 1 0 0 0-1 1v0.4707a1 1 0 0 0 1 1 1 1 0 0 0 1-1v-0.4707a1 1 0 0 0-1-1z" color="#000000" stroke-linecap="round" stroke-linejoin="round" style="-inkscape-stroke:none"/>
 <path id="path6" d="m24.795 23.523a1 1 0 0 0-1.2344 0.69141c-0.2815 0.99466-0.25977 2.2812-0.25977 2.2812a1 1 0 0 0 0.98047 1.0195 1 1 0 0 0 1.0195-0.98047s0.07445-1.3828 0.18555-1.7754a1 1 0 0 0-0.69141-1.2363z" color="#000000" stroke-linecap="round" stroke-linejoin="round" style="-inkscape-stroke:none"/>
 <path id="path7" d="m26.789 24.805a1 1 0 0 0-1.3066 0.54492s-0.39116 0.69816-0.29102 1.6504a1 1 0 0 0 1.0996 0.88867 1 1 0 0 0 0.88867-1.0996c-0.0045-0.04237 0.15234-0.67773 0.15234-0.67773a1 1 0 0 0-0.54297-1.3066z" color="#000000" stroke-linecap="round" stroke-linejoin="round" style="-inkscape-stroke:none"/>
 <path id="path8" d="m22.531 24.691a1 1 0 0 0-1.3105 0.5293c-0.33065 0.77953-0.26172 1.5039-0.26172 1.5039a1 1 0 0 0 1 1 1 1 0 0 0 1-1s0.06777-0.63838 0.10352-0.72266a1 1 0 0 0-0.53125-1.3105z" color="#000000" stroke-linecap="round" stroke-linejoin="round" style="-inkscape-stroke:none"/>
</svg>
