<?xml version="1.0" encoding="UTF-8"?>
<svg id="a" version="1.1" viewBox="0 0 48 48" xmlns="http://www.w3.org/2000/svg">
 <defs id="defs4">
  <style id="style2">.ap{fill:none;stroke:#000;stroke-width:2px;stroke-linecap:round;stroke-linejoin:round;}</style>
 </defs>
 <path id="b" d="m32.928 10.539a1 1 0 0 0-0.57617 0.50586s-2.5423 5.1536-3.2324 6.457c-0.39997 0.75547-1.3486 2.7484-1.9004 5.168-0.29162 1.2786-0.45958 2.6872-0.35742 4.0879-0.04809-0.10127-0.11138-0.09095-0.15625-0.20312a1 1 0 0 0-1.3008-0.55859 1 1 0 0 0-0.55664 1.3008c0.58851 1.4713 1.4992 2.3799 2.2715 2.8906 0.77233 0.51069 1.4902 0.6582 1.4902 0.6582a1.0001 1.0001 0 0 0 1.041-1.502c-1.0333-1.6999-0.97327-4.0678-0.48047-6.2285 0.4928-2.1607 1.3936-4.0672 1.7168-4.6777 0.75631-1.4285 3.2598-6.5078 3.2598-6.5078a1 1 0 0 0-0.45508-1.3398 1 1 0 0 0-0.76367-0.05078z" color="#000000" stroke-linecap="round" stroke-linejoin="round" style="-inkscape-stroke:none"/>
 <path id="c" d="m24.955 23.123a1 1 0 0 0-1.2754 0.61133c-1.1058 3.1348-0.45291 5.4797 0.57031 6.8984 1.0232 1.4187 2.3906 1.9883 2.3906 1.9883a1.0001 1.0001 0 0 0 1.2793-1.3691c-0.04128-0.08254-0.26314-0.96206-0.36524-1.6699-0.1021-0.70786-0.1582-1.3242-0.1582-1.3242a1 1 0 0 0-1.084-0.9082 1 1 0 0 0-0.88477 1.0078c-0.34968-0.92842-0.52175-2.0868 0.13867-3.959a1 1 0 0 0-0.61133-1.2754z" color="#000000" stroke-linecap="round" stroke-linejoin="round" style="-inkscape-stroke:none"/>
 <path id="d" d="m34.898 13.512a1 1 0 0 0-0.71094 1.2207s0.26019 0.99969 0.35938 2.2891c0.09918 1.2894-0.01749 2.8164-0.54102 3.7168a1.0001 1.0001 0 0 0 0 2e-3c-0.04197 0.07219-0.09343 0.09596-0.13672 0.16602 0.08717-0.4151 0.31441-0.77339 0.32031-1.1914a1 1 0 0 0-0.98633-1.0137 1 1 0 0 0-1.0137 0.98633c-0.01107 0.7838-0.42246 2.0579-0.86328 3.0625-0.44083 1.0046-0.875 1.75-0.875 1.75a1.0001 1.0001 0 0 0 1.3906 1.3535s2.3317-1.4246 3.8926-4.1094c0.89737-1.5434 0.92058-3.3957 0.80664-4.877-0.11394-1.4812-0.41992-2.6426-0.41992-2.6426a1 1 0 0 0-1.2227-0.71289z" color="#000000" stroke-linecap="round" stroke-linejoin="round" style="-inkscape-stroke:none"/>
 <path id="e" d="m33.377 20.654a1 1 0 0 0-1.4062 0.1582s-2.1624 2.5269-4.1035 3.1289a1 1 0 0 0-0.6582 1.252 1 1 0 0 0 1.25 0.6582c2.9158-0.90435 5.0762-3.793 5.0762-3.793a1 1 0 0 0-0.1582-1.4043z" color="#000000" stroke-linecap="round" stroke-linejoin="round" style="-inkscape-stroke:none"/>
 <path id="f" d="m26.816 7.0703c-1.9467 0.19764-4.6842 1.3959-8.7324 5.082a1 1 0 0 0-0.06445 1.4141 1 1 0 0 0 1.4121 0.06641c3.8732-3.5268 6.2819-4.4418 7.5859-4.5742 0.65202-0.066194 1.0381 0.041591 1.3125 0.15039 0.13719 0.054399 0.24267 0.10874 0.36133 0.17188 0.05933 0.031569 0.11846 0.066366 0.22656 0.11133 0.1081 0.044962 0.27549 0.16574 0.69726 0.068359-0.12004 0.027679 0.11987 0.00409 0.29297 0.027344 0.09475 0.012728 0.11288 0.018418 0.16992 0.029297 0.16353 0.16178 0.17709 0.24558 0.47656 0.40234 0.59895 0.31352 1.4982 0.5359 2.6895 0.39844 0.24686-0.02848 0.13619-0.02928 0.16992 0.01367 0.03373 0.04295 0.12988 0.26664 0.16016 0.56836 0.06055 0.60343-0.07813 1.3516-0.07813 1.3516a1 1 0 0 0 0.7793 1.1816 1 1 0 0 0 1.1797-0.77734s0.20984-0.93441 0.10742-1.9551c-0.051209-0.51034-0.16432-1.0835-0.57422-1.6055s-1.1995-0.85484-1.9727-0.76562c-0.8487 0.097933-1.2952-0.059014-1.5332-0.18359-0.238-0.12458-0.21094-0.13086-0.21094-0.13086a1.0001 1.0001 0 0 0-0.61719-0.42578s-0.21547-0.048387-0.48047-0.083984c-0.14585-0.019592-0.37131 0.00752-0.55469 0.00391-0.10853-0.057836-0.29953-0.16015-0.55078-0.25977-0.51331-0.20354-1.2786-0.37811-2.252-0.2793z" color="#000000" stroke-linecap="round" stroke-linejoin="round" style="-inkscape-stroke:none"/>
 <path id="g" d="m34.189 11.838a1 1 0 0 0-0.76758 1.1875 1 1 0 0 0 1.1895 0.76758s-0.07116-0.0095 0.10547 0.0293c0.17663 0.03882 0.4944 0.14851 0.9375 0.51953 0.8862 0.74204 2.2601 2.586 3.5234 6.873a1.0001 1.0001 0 0 0 0.01563 0.04883s0.06931 0.16016 0.05469 0.63281c-0.01462 0.47265-0.13482 1.1692-0.64453 2.0332-0.56962 0.96553-0.75769 1.7537-0.74024 2.3652 0.0087 0.30575 0.07045 0.56081 0.14453 0.75391 0.07409 0.1931 0.21289 0.39062 0.21289 0.39062a1 1 0 0 0 1.4023 0.17773 1 1 0 0 0 0.17773-1.4023s0.07073 0.11004 0.07422 0.11914c0.0035 0.0091-0.0094-0.01527-0.01172-0.0957-0.0046-0.16087 0.03531-0.5682 0.46289-1.293 0.68299-1.1577 0.89792-2.214 0.92188-2.9883 0.02371-0.76649-0.1603-1.3302-0.16406-1.3418-1.3259-4.4802-2.8145-6.693-4.1445-7.8066-0.66726-0.55872-1.2989-0.83084-1.793-0.93945-0.4941-0.10861-0.95703-0.03125-0.95703-0.03125z" color="#000000" stroke-linecap="round" stroke-linejoin="round" style="-inkscape-stroke:none"/>
 <path id="h" d="m37.1 24.537a1 1 0 0 0-1.0703 0.92578c-0.0134 0.1875-0.27329 0.82431-0.57617 1.3066s-0.59375 0.83984-0.59375 0.83984a1.0001 1.0001 0 0 0 1.0586 1.5918c2.4316-0.72426 3.8066-2.8438 3.8066-2.8438a1 1 0 0 0-0.26172-1.3906 1 1 0 0 0-1.3887 0.26172s-0.0772 0.08474-0.08398 0.09375a1 1 0 0 0-0.89062-0.78516z" color="#000000" stroke-linecap="round" stroke-linejoin="round" style="-inkscape-stroke:none"/>
 <path id="i" d="m35.207 16.107a1 1 0 0 0-0.02344 1.4141c0.7381 0.76356 0.93213 1.5808 0.83789 2.5859-0.09424 1.0052-0.5416 2.1533-1.127 3.2109-1.1707 2.1152-2.8203 3.8203-2.8203 3.8203a1.0001 1.0001 0 0 0 0.76562 1.6973c2.7384-0.13395 4.4324-1.6757 5.2832-3.1152s0.99609-2.8516 0.99609-2.8516a1 1 0 0 0-0.88672-1.1016 1 1 0 0 0-0.69336 0.55859c0.23357-0.65509 0.40727-1.3338 0.47266-2.0312 0.13381-1.4272-0.23258-2.9661-1.3906-4.1641a1 1 0 0 0-1.4141-0.02344zm1.2402 8.4668c-0.0347 0.06472-0.0064 0.06371-0.04492 0.12891-0.04149 0.07021-0.12883 0.12186-0.17383 0.19141 0.07429-0.12068 0.14614-0.19592 0.21875-0.32031z" color="#000000" stroke-linecap="round" stroke-linejoin="round" style="-inkscape-stroke:none"/>
 <path id="j" d="m34.723 21.178a1 1 0 0 0-0.74805 0.16016 1 1 0 0 0-0.25391 1.3906s0.61599 0.88514 0.27344 2.084a1 1 0 0 0 0.68555 1.2363 1 1 0 0 0 1.2363-0.6875c0.59905-2.0965-0.55078-3.7676-0.55078-3.7676a1 1 0 0 0-0.64258-0.41602z" color="#000000" stroke-linecap="round" stroke-linejoin="round" style="-inkscape-stroke:none"/>
 <path id="k" d="m34.973 9.3613c-0.32895 0.040458-0.54883 0.1582-0.54883 0.1582a1 1 0 0 0-0.51367 1.3164 1 1 0 0 0 1.084 0.51758c0.0048 0.02187-0.02063-0.04438-0.01172 0.02148 0.03123 0.23088 0.01929 0.7297-0.15625 1.5195a1 1 0 0 0 0.75976 1.1934 1 1 0 0 0 1.1934-0.75977c0.20702-0.93147 0.26392-1.6268 0.18359-2.2207-0.080326-0.59391-0.35009-1.1361-0.78711-1.4434-0.43702-0.30729-0.87418-0.34319-1.2031-0.30273z" color="#000000" stroke-linecap="round" stroke-linejoin="round" style="-inkscape-stroke:none"/>
 <path id="l" d="m34.057 26.799a1 1 0 0 0-0.75977 1.1934s0.46185 1.6772 2.0234 2.8691c-0.13777 0.19497-0.24805 0.3801-0.53125 0.63867l0.24805-0.16602s-0.41913 0.17795-0.71289 0.625c-0.13169 0.20041-0.19634 0.49329-0.2168 0.79688-0.29033 0.14802-0.52518 0.32555-0.90039 0.31055a1 1 0 0 0-1.0391 0.95898 1 1 0 0 0 0.95898 1.0391c1.5393 0.06157 2.6758-0.875 2.6758-0.875a1.0001 1.0001 0 0 0 0.30859-1.1953 1.0001 1.0001 0 0 0 0.02539-0.01758c0.56721-0.51789 0.92943-1.0154 1.1523-1.4004 0.22291-0.38502 0.32812-0.72852 0.32812-0.72852a1.0001 1.0001 0 0 0-0.54883-1.1777c-1.5139-0.69111-1.8203-2.1113-1.8203-2.1113a1 1 0 0 0-1.1914-0.75977z" color="#000000" stroke-linecap="round" stroke-linejoin="round" style="-inkscape-stroke:none"/>
 <path id="m" d="m33.969 33.197a1 1 0 0 0-0.64844 1.2559l0.10938 0.34375c-0.18278 0.15386-0.21958 0.12224-0.42773 0.375-0.4097 0.49748-0.81291 1.4767-1.1875 2.4805l-4.5234-0.33398a1.0001 1.0001 0 0 0-0.35742 0.03906s-0.2838 0.10341-0.49414 0.25781c-0.21034 0.1544-0.44891 0.38733-0.67969 0.72461-0.46155 0.67455-0.89991 1.7502-1.1484 3.5352a1 1 0 0 0 0.85352 1.1289 1 1 0 0 0 1.127-0.85156c0.21897-1.5727 0.58923-2.3468 0.81836-2.6816 0.06121-0.08946 0.07628-0.09307 0.11328-0.13086l4.8047 0.35547a1.0001 1.0001 0 0 0 1.041-0.74023c0.34909-1.3189 0.82359-2.0841 1.1758-2.5117 0.35219-0.42765 0.48242-0.46875 0.48242-0.46875a1.0001 1.0001 0 0 0 0.49609-1.1914l-0.29883-0.93555a1 1 0 0 0-1.2559-0.65039z" color="#000000" stroke-linecap="round" stroke-linejoin="round" style="-inkscape-stroke:none"/>
 <path id="n" d="m24.287 18.119a1 1 0 0 0-1.4121 0.046875c-3.9518 4.2213-3.8817 8.302-2.7402 10.881 0.57071 1.2894 1.342 2.2075 2.041 2.7461 0.17477 0.13466 0.34535 0.24632 0.54102 0.33789 0.19566 0.09157 0.40759 0.19874 0.80469 0.14648 0.19855-0.02613 0.45927-0.1236 0.6543-0.32031 0.19503-0.19671 0.28979-0.45333 0.31641-0.64844 0.05324-0.39021-0.04574-0.60737-0.13867-0.82422-0.65535-1.5292 0.39648-3.0312 0.39648-3.0312a1 1 0 0 0-0.2207-1.3965 1 1 0 0 0-1.3965 0.22266s-0.64948 0.99686-0.875 2.3633c-0.10277-0.17797-0.2057-0.20468-0.29492-0.40625-0.86677-1.9583-1.1574-4.9341 2.3711-8.7031a1 1 0 0 0-0.04687-1.4141z" color="#000000" stroke-linecap="round" stroke-linejoin="round" style="-inkscape-stroke:none"/>
 <path id="o" d="m21.906 18.166a1 1 0 0 0-1.4082 0.12891s-1.3812 1.6502-2.418 3.7578c-0.5184 1.0538-0.96559 2.232-1.0898 3.4512-0.12426 1.2191 0.11308 2.5386 1.0176 3.5684a1.0001 1.0001 0 0 0 1.7422-0.52148s0.46553-2.6008 1.541-3.8066a1 1 0 0 0-0.08008-1.4121 1 1 0 0 0-1.4121 0.08008c-0.10435 0.117-0.10698 0.25755-0.20117 0.38086 0.11625-0.29301 0.13692-0.57196 0.27734-0.85742 0.90764-1.845 2.1602-3.3613 2.1602-3.3613a1 1 0 0 0-0.1289-1.4082z" color="#000000" stroke-linecap="round" stroke-linejoin="round" style="-inkscape-stroke:none"/>
 <path id="p" d="m18.455 25.861a1 1 0 0 0-1.3965 0.2207s-0.68032 0.97533-0.53711 2.3145c0.14322 1.3391 1.0629 2.9816 3.4766 4.5527a1.0001 1.0001 0 0 0 0.08789 0.04883s0.36668 0.19858 0.83203 0.32617c0.22112 0.06063 0.47936 0.11301 0.82226 0.07813 0.04482 0.10026 0.13086 0.27734 0.13086 0.27734a1 1 0 0 0 1.3047 0.54688 1 1 0 0 0 0.54688-1.3047s-0.17828-0.443-0.41211-0.86523c-0.11692-0.21112-0.19834-0.40598-0.49609-0.66992-0.14888-0.13197-0.45584-0.39589-0.99414-0.2793-0.20794 0.04504-0.19739 0.19387-0.32031 0.30664-0.0064-0.0022 0.0094-5.3e-4 -0.05273-0.01758-0.16958-0.04649-0.33885-0.12879-0.38867-0.15234-2.0506-1.3469-2.4801-2.4176-2.5488-3.0605-0.06929-0.64785 0.16602-0.92383 0.16602-0.92383a1 1 0 0 0-0.2207-1.3984zm4.4473 6.6289c-0.02697 0.08765-0.18963 0.47078-0.6582 0.57227-0.01943 0.0042-0.01265-0.01093-0.03125-0.0078 0.27302-0.16144 0.59193-0.2475 0.68945-0.56445z" color="#000000" stroke-linecap="round" stroke-linejoin="round" style="-inkscape-stroke:none"/>
 <path id="q" d="m28.707 4.584a1 1 0 0 0-0.6875 0.33594 1 1 0 0 0 0.08789 1.4102c1.0082 0.88964 0.77344 1.6719 0.77344 1.6719a1 1 0 0 0 0.80664 1.1602 1 1 0 0 0 1.1621-0.80664s0.27018-2.0339-1.418-3.5234a1 1 0 0 0-0.72461-0.24805z" color="#000000" stroke-linecap="round" stroke-linejoin="round" style="-inkscape-stroke:none"/>
 <path id="r" d="m23.867 6.5273c-0.58716-0.069509-1.1648 0.00793-1.6738 0.20312-1.018 0.3904-1.8059 1.1328-2.4531 1.9063-1.2945 1.5469-2.0547 3.3496-2.0547 3.3496a1 1 0 0 0 0.52344 1.3145 1 1 0 0 0 1.3145-0.52344s0.7051-1.6088 1.75-2.8574c0.52245-0.62429 1.1232-1.1253 1.6367-1.3223 0.51356-0.19695 0.90057-0.21098 1.541 0.24023a1 1 0 0 0 1.3945-0.24219 1 1 0 0 0-0.24219-1.3926c-0.55213-0.38899-1.1492-0.60627-1.7363-0.67578z" color="#000000" stroke-linecap="round" stroke-linejoin="round" style="-inkscape-stroke:none"/>
 <path id="s" d="m24.428 4.6289a1 1 0 0 0-0.55273 0.5293 1 1 0 0 0 0.51172 1.3184c0.35454 0.15599 0.46233 0.29074 0.50586 0.36328 0.04353 0.072543 0.05055 0.12156 0.04102 0.22266-0.01908 0.20219-0.16406 0.45508-0.16406 0.45508a1 1 0 0 0 0.23242 1.3945 1 1 0 0 0 1.3945-0.23242s0.44923-0.57915 0.5293-1.4277c0.040032-0.42429-0.027333-0.95635-0.31836-1.4414-0.29103-0.48505-0.77731-0.8839-1.4141-1.1641a1 1 0 0 0-0.76562-0.017578z" color="#000000" stroke-linecap="round" stroke-linejoin="round" style="-inkscape-stroke:none"/>
 <path id="t" d="m15.121 4.5586a1 1 0 0 0-1.2793 0.60547c-0.50957 1.4269-0.49593 2.4358-0.21094 3.1484-0.04573-0.11433 0.02322 0.10111 0.05664 0.31836s0.06691 0.49191 0.0957 0.75586c0.05759 0.52789 0.09766 1.0117 0.09766 1.0117a1.0001 1.0001 0 0 0 1.1582 0.9082s0.47103-0.07342 1.0625 0.09375c0.59147 0.16716 1.2077 0.48611 1.6211 1.5645a1 1 0 0 0 1.291 0.57422 1 1 0 0 0 0.57617-1.291c-0.63433-1.6548-1.9091-2.4786-2.9453-2.7715-0.45626-0.12895-0.51272-0.056586-0.84961-0.064453-0.011521-0.11639-0.00955-0.11488-0.023438-0.24219-0.030682-0.28127-0.0665-0.57579-0.10742-0.8418-0.040922-0.266-0.050749-0.44718-0.17578-0.75977-0.032209-0.080543-0.16315-0.60832 0.23828-1.7324a1 1 0 0 0-0.60547-1.2773z" color="#000000" stroke-linecap="round" stroke-linejoin="round" style="-inkscape-stroke:none"/>
 <path id="u" d="m14.945 9.2598a1 1 0 0 0-1.1855 0.77148c-0.01278 0.06069-0.20033 0.3648-0.44531 0.58789-0.24498 0.2231-0.4668 0.36133-0.4668 0.36133a1.0001 1.0001 0 0 0 0.25781 1.8145c1.7961 0.49544 2.3686 1.173 2.5957 1.6133s0.15625 0.62891 0.15625 0.62891a1.0001 1.0001 0 0 0 0.97656 1.2109c0.42631 0 0.637-0.16216 0.80469-0.2832 0.16768-0.12104 0.29503-0.24629 0.41797-0.37891 0.24588-0.26523 0.46838-0.565 0.67383-0.85938 0.41089-0.58874 0.74414-1.1602 0.74414-1.1602a1 1 0 0 0-0.35938-1.3691 1 1 0 0 0-1.3691 0.36133s-0.25018 0.39014-0.46094 0.7168c-0.39747-0.64874-1.1816-1.2467-2.248-1.7676 0.26452-0.30654 0.57068-0.54665 0.67969-1.0645a1 1 0 0 0-0.77148-1.1836z" color="#000000" stroke-linecap="round" stroke-linejoin="round" style="-inkscape-stroke:none"/>
 <path id="v" d="m13.102 10.695c-2.9182-0.14006-4.8506 0.079738-6.0879 0.35352-0.61866 0.13689-1.064 0.28726-1.3691 0.41406-0.30518 0.1268-0.52734 0.26953-0.52734 0.26953a1 1 0 0 0-0.26758 1.3887 1 1 0 0 0 1.3887 0.26758s-0.014325 5.4e-5 0.17383-0.07813c0.18815-0.07818 0.51958-0.19494 1.0332-0.30859 1.0273-0.2273 2.7846-0.44183 5.5605-0.30859a1 1 0 0 0 1.0469-0.95117 1 1 0 0 0-0.95117-1.0469z" color="#000000" stroke-linecap="round" stroke-linejoin="round" style="-inkscape-stroke:none"/>
 <path id="w" d="m13.598 11.086c-2.328 0.48718-4.2 2.1285-4.8184 2.6953-0.10558 0.09678-1.1344 0.87578-2.0059 1.5039s-1.6758 1.1953-1.6758 1.1953a1 1 0 0 0-0.24219 1.3926 1 1 0 0 0 1.3945 0.24219s0.81104-0.57108 1.6934-1.207c0.88232-0.63595 1.7464-1.248 2.1875-1.6523 0.475-0.43538 2.2875-1.8783 3.877-2.2109a1 1 0 0 0 0.77344-1.1836 1 1 0 0 0-1.1836-0.77539z" color="#000000" stroke-linecap="round" stroke-linejoin="round" style="-inkscape-stroke:none"/>
 <path id="x" d="m16.311 14.49a1 1 0 0 0-0.56445 0.51758s-0.80236 1.7194-1.6094 3.9082c-0.80702 2.1888-1.6476 4.8124-1.6738 6.9336a1 1 0 0 0 0.98828 1.0117 1 1 0 0 0 1.0117-0.98633c0.01938-1.5685 0.77485-4.1611 1.5508-6.2656 0.77593-2.1045 1.5449-3.7559 1.5449-3.7559a1 1 0 0 0-0.48438-1.3301 1 1 0 0 0-0.76367-0.0332z" color="#000000" stroke-linecap="round" stroke-linejoin="round" style="-inkscape-stroke:none"/>
 <path id="y" d="m5.9434 21.633a1 1 0 0 0-1.2637 0.63281 1 1 0 0 0 0.63281 1.2656s1.9655 0.67936 3.3984 2.2715c0.93052 1.0339 1.893 1.5764 2.6387 1.8438 0.74571 0.26732 1.3672 0.26367 1.3672 0.26367a1.0001 1.0001 0 0 0 0.19727-0.02539s0.39134-0.1033 0.71875-0.36524c0.32741-0.26193 0.66832-0.72718 0.80664-1.3496a1 1 0 0 0-0.75976-1.1934 1 1 0 0 0-1.1934 0.75977c-0.02407 0.10829-0.03691 0.09361-0.05664 0.12109-0.09004-0.0083-0.11181 0.0118-0.40625-0.09375-0.46142-0.16541-1.1168-0.51063-1.8262-1.2988-1.8469-2.0521-4.2539-2.832-4.2539-2.832z" color="#000000" stroke-linecap="round" stroke-linejoin="round" style="-inkscape-stroke:none"/>
 <path id="z" d="m16.477 14.527a1 1 0 0 0-0.73242 0.2207c-4.3222 3.5428-5.3929 6.6689-5.125 8.9629 0.26785 2.294 1.8418 3.6035 1.8418 3.6035a1 1 0 0 0 1.4082-0.13086 1 1 0 0 0-0.13281-1.4082s-0.95459-0.78529-1.1309-2.2949c-0.17627-1.5096 0.39239-3.8955 4.4062-7.1855a1 1 0 0 0 0.14062-1.4082 1 1 0 0 0-0.67578-0.35938z" color="#000000" stroke-linecap="round" stroke-linejoin="round" style="-inkscape-stroke:none"/>
 <path id="aa" d="m12.039 4.5547a1 1 0 0 0-0.73047 0.23047c-3.8503 3.2343-5.7852 6.8008-5.7852 6.8008a1 1 0 0 0 0.40039 1.3555 1 1 0 0 0 1.3555-0.40039s1.7654-3.2417 5.3164-6.2246a1 1 0 0 0 0.12305-1.4102 1 1 0 0 0-0.67969-0.35156z" color="#000000" stroke-linecap="round" stroke-linejoin="round" style="-inkscape-stroke:none"/>
 <path id="ab" d="m17.725 20.059a1 1 0 0 0-1.2754 0.60742s-0.52071 1.4605-1.4609 3.043c-0.94023 1.5825-2.3166 3.1714-3.6602 3.5703a1.0001 1.0001 0 0 0 0.0098 1.9199s1.08 0.31276 2.4102 0.11914 3.0252-0.97017 4.0742-2.9043a1 1 0 0 0-0.40234-1.3555 1 1 0 0 0-1.0918 0.1875c0.11137-0.17573 0.27849-0.34333 0.38086-0.51562 1.0512-1.7694 1.625-3.3965 1.625-3.3965a1 1 0 0 0-0.60938-1.2754z" color="#000000" stroke-linecap="round" stroke-linejoin="round" style="-inkscape-stroke:none"/>
 <path id="ac" d="m25.697 9.623c-2.8076 0.99089-4.7099 3.6586-6.0039 5.998-1.294 2.3394-1.9648 4.4609-1.9648 4.4609a1 1 0 0 0 0.65039 1.2539 1 1 0 0 0 1.2559-0.65039s0.62024-1.9473 1.8086-4.0957 2.9592-4.3881 4.9199-5.0801a1 1 0 0 0 0.60938-1.2754 1 1 0 0 0-1.2754-0.61133z" color="#000000" stroke-linecap="round" stroke-linejoin="round" style="-inkscape-stroke:none"/>
 <path id="ad" d="m12.457 27.549s-1.4944 1.3507-2.6758 3.3809c-1.1814 2.0302-2.1207 4.9155-0.75391 7.7793a1.0001 1.0001 0 0 0 1.8887-0.26562s0.09166-0.54097 0.27344-1.2031c0.18177-0.66215 0.4981-1.4417 0.70898-1.7129a1 1 0 0 0-0.17578-1.4043 1 1 0 0 0-1.1074 0.13867c0.20621-0.81091 0.48029-1.6143 0.89453-2.3262 1.0073-1.731 2.293-2.9082 2.293-2.9082a1 1 0 0 0 0.06641-1.4121 1 1 0 0 0-1.4121-0.06641z" color="#000000" stroke-linecap="round" stroke-linejoin="round" style="-inkscape-stroke:none"/>
 <path id="ae" d="m14.824 32.908a1 1 0 0 0-0.89648 1.0938c0.16272 1.6504 0.68765 2.8923 1.252 3.9258-1.0605-0.5407-1.8559-1.188-2.3008-1.8711-0.75361-1.1571-0.83008-2.1738-0.83008-2.1738a1 1 0 0 0-1.0742-0.91992 1 1 0 0 0-0.91992 1.0723s0.12093 1.5356 1.1484 3.1133c1.0275 1.5777 3.0364 3.2441 6.4668 3.6387a1.0001 1.0001 0 0 0 0.72461-1.7852s-2.121-1.5904-2.4766-5.1973a1 1 0 0 0-1.0938-0.89648z" color="#000000" stroke-linecap="round" stroke-linejoin="round" style="-inkscape-stroke:none"/>
 <path id="af" d="m10.18 35.797a1 1 0 0 0-0.71094 1.2227s0.34893 1.3329 0.95898 2.7539c0.30502 0.71048 0.67271 1.45 1.1348 2.0938 0.46206 0.64379 1.0194 1.2472 1.8711 1.4727a1 1 0 0 0 1.2227-0.71094 1 1 0 0 0-0.71094-1.2207c-0.10194-0.026981-0.43099-0.25166-0.75781-0.70703-0.32682-0.45537-0.65189-1.0879-0.92188-1.7168-0.53997-1.2577-0.86328-2.4746-0.86328-2.4746a1 1 0 0 0-1.2227-0.71289z" color="#000000" stroke-linecap="round" stroke-linejoin="round" style="-inkscape-stroke:none"/>
 <path id="ag" d="m13.533 37.174a1 1 0 0 0-0.73828 0.20312 1 1 0 0 0-0.17578 1.4023s0.84166 1.0885 1.8262 2.1816c0.49225 0.54655 1.0195 1.0952 1.5273 1.5352 0.25392 0.21996 0.50117 0.41279 0.76953 0.57226 0.26836 0.15947 0.54947 0.332 1.041 0.30469a1 1 0 0 0 0.94336-1.0547 1 1 0 0 0-1.0547-0.94336c0.2391-0.01328 0.19773 0.03756 0.0918-0.02539-0.10593-0.06295-0.28404-0.19338-0.48242-0.36523-0.39675-0.3437-0.88819-0.84902-1.3496-1.3613-0.92284-1.0246-1.7344-2.0703-1.7344-2.0703a1 1 0 0 0-0.66406-0.37891z" color="#000000" stroke-linecap="round" stroke-linejoin="round" style="-inkscape-stroke:none"/>
 <path id="ah" d="m15.336 26.855a1 1 0 0 0-0.8418 1.1367s0.37437 2.5881 1.7695 5.1055c0.69758 1.2587 1.6613 2.5273 3.0176 3.4355 0.63376 0.42439 1.3735 0.73751 2.1738 0.95117-1.0269 0.19126-2.52 0.07068-5.1777-1.7676a1 1 0 0 0-1.3926 0.25391 1 1 0 0 0 0.25391 1.3906c3.5259 2.4387 6.1033 2.6256 7.793 1.9336s2.3359-2.1953 2.3359-2.1953a1.0001 1.0001 0 0 0-1.041-1.3848c-1.6324 0.19787-2.8322-0.17423-3.832-0.84375-0.99982-0.66952-1.7882-1.6728-2.3809-2.7422-1.1854-2.1388-1.541-4.4316-1.541-4.4316a1 1 0 0 0-1.1367-0.8418z" color="#000000" stroke-linecap="round" stroke-linejoin="round" style="-inkscape-stroke:none"/>
 <path id="ai" d="m18.754 37.504a1 1 0 0 0-0.71289 0.28125 1 1 0 0 0-0.02148 1.4141s0.92452 0.96205 2.168 1.791c0.62172 0.41448 1.3299 0.80853 2.1094 1.0312 0.25164 0.07189 0.52912 0.08035 0.80078 0.10547a1 1 0 0 0-0.1582 0.95508 1 1 0 0 0 1.3945 0.23047c1.262-0.9023 1.0098-2.4219 1.0098-2.4219a1.0001 1.0001 0 0 0-1.4629-0.80469c-0.23923 0.12592-0.56299 0.14662-1.0352 0.01172s-1.0346-0.42864-1.5488-0.77148c-1.0285-0.68568-1.8418-1.5195-1.8418-1.5195a1 1 0 0 0-0.70117-0.30274z" color="#000000" stroke-linecap="round" stroke-linejoin="round" style="-inkscape-stroke:none"/>
 <path id="aj" d="m20.457 31.1a1 1 0 0 0-1.3809 0.29883s-0.32349 0.49757-0.60547 1.1582c-0.28198 0.66063-0.61303 1.503-0.36719 2.4863a1 1 0 0 0 1.2129 0.72852 1 1 0 0 0 0.72852-1.2129c-0.03466-0.13861 0.05478-0.7274 0.26367-1.2168s0.44726-0.85938 0.44726-0.85938a1 1 0 0 0-0.29883-1.3828z" color="#000000" stroke-linecap="round" stroke-linejoin="round" style="-inkscape-stroke:none"/>
 <path id="ak" d="m9.2227 23.975a1 1 0 0 0-0.76172 0.06445s-0.78505 0.40627-1.6191 0.88086c-0.41704 0.23729-0.84759 0.49138-1.2148 0.73242-0.36726 0.24104-0.61897 0.31419-0.95898 0.82422a1 1 0 0 0 0.27734 1.3867 1 1 0 0 0 1.3867-0.27734c-0.17172 0.25758 0.086974-0.06115 0.39258-0.26172 0.3056-0.20057 0.70951-0.44072 1.1055-0.66602 0.79191-0.45059 1.5508-0.84375 1.5508-0.84375a1 1 0 0 0 0.42773-1.3477 1 1 0 0 0-0.58594-0.49219z" color="#000000" stroke-linecap="round" stroke-linejoin="round" style="-inkscape-stroke:none"/>
 <path id="al" d="m9.3223 32.662a1 1 0 0 0-0.65234 0.40234l-2.0234 2.8203c-0.047148 0.01976-0.23079 0.09172-0.73828-0.03516a1 1 0 0 0-1.2109 0.72852 1 1 0 0 0 0.72656 1.2129c0.83489 0.20872 1.5182 0.14283 2.0059-0.0625 0.24383-0.10266 0.43266-0.23583 0.56641-0.35742 0.13374-0.12159 0.25391-0.29492 0.25391-0.29492l2.0449-2.8438a1 1 0 0 0-0.22852-1.3965 1 1 0 0 0-0.74414-0.17383z" color="#000000" stroke-linecap="round" stroke-linejoin="round" style="-inkscape-stroke:none"/>
 <path id="am" d="m22.91 37.627a1 1 0 0 0 0 1.416s1.1129 1.1226 1.9316 2.4531a1 1 0 0 0 1.377 0.32812 1 1 0 0 0 0.32617-1.377c-0.97624-1.5865-2.2188-2.8203-2.2188-2.8203a1 1 0 0 0-1.416 0z" color="#000000" stroke-linecap="round" stroke-linejoin="round" style="-inkscape-stroke:none"/>
 <path id="an" d="m31.195 24.178c-0.46112 0.10135-0.87564 0.27879-1.2246 0.45508-0.34897 0.17629-0.64125 0.3623-0.85742 0.50781-0.10808 0.07276-0.19716 0.13547-0.25781 0.17773-0.06065 0.04226-0.1493 0.08539-0.0098 0.01563a1 1 0 0 0-0.44727 1.3418 1 1 0 0 0 1.3418 0.44727c0.18839-0.09419 0.192-0.11684 0.25977-0.16406 0.06776-0.04722 0.14241-0.09893 0.23047-0.1582 0.17611-0.11855 0.39931-0.25992 0.64258-0.38281 0.48653-0.24578 1.0177-0.37543 1.3594-0.29297a1 1 0 0 0 1.207-0.73633 1 1 0 0 0-0.73633-1.207c-0.53743-0.12972-1.0467-0.10525-1.5078-0.0039z" color="#000000" stroke-linecap="round" stroke-linejoin="round" style="-inkscape-stroke:none"/>
 <path id="ao" d="m31.451 24.586a1 1 0 0 0-0.67383 1.2422s0.01067 0.12395 0.01758 0.1582l-0.49219-0.50586a1 1 0 0 0-1.4141-0.01758 1 1 0 0 0-0.01953 1.4141l1.8086 1.8555a1.0001 1.0001 0 0 0 1.5645-0.16797c0.99605-1.5937 0.45117-3.3047 0.45117-3.3047a1 1 0 0 0-1.2422-0.67383z" color="#000000" stroke-linecap="round" stroke-linejoin="round" style="-inkscape-stroke:none"/>
 <path id="rect46" d="m9.5 4.5c-2.7527 0-5 2.2473-5 5v29c0 2.7527 2.2473 5 5 5h29c2.7527 0 5-2.2473 5-5v-29c0-2.7527-2.2473-5-5-5zm0 2h29c1.6793 0 3 1.3207 3 3v29c0 1.6793-1.3207 3-3 3h-29c-1.6793 0-3-1.3207-3-3v-29c0-1.6793 1.3207-3 3-3z" color="#000000" stroke-linecap="round" stroke-linejoin="round" style="-inkscape-stroke:none"/>
</svg>
