<?xml version="1.0" encoding="UTF-8"?>
<svg id="b" version="1.1" viewBox="0 0 48 48" xmlns="http://www.w3.org/2000/svg">
 <defs id="defs4">
  <style id="style2">.c{fill:none;stroke:#000;stroke-linecap:round;stroke-linejoin:round;}</style>
 </defs>
 <path id="path6" d="m36.871 3.5059s-8.1924 1.1359-12.834 10.242c-2.6805-4.8336-5.5765-7.4853-7.9531-8.7676-1.3275-0.71623-2.4839-1.045-3.3223-1.1914-0.83834-0.1464-1.4316-0.10547-1.4316-0.10547a1.0001 1.0001 0 0 0-0.91602 0.94141l-2.0469 37.6a1.0001 1.0001 0 0 0 0.75977 1.0254s5.1286 1.25 14.953 1.25c9.8049 0 14.744-0.95117 14.744-0.95117a1.0001 1.0001 0 0 0 0.80859-1.0254l-1.6523-38.066a1.0001 1.0001 0 0 0-1.1094-0.95117zm-0.83789 2.2109 1.5625 35.977c-0.9884 0.1694-4.993 0.80664-13.516 0.80664-8.5755 0-12.707-0.84798-13.666-1.0586l1.9434-35.689c0.0393 0.00623 0.01808-0.00156 0.06055 0.00586 0.64609 0.11283 1.5899 0.37442 2.7168 0.98242 2.2537 1.216 5.2691 3.8231 8.0469 9.5449a1.0001 1.0001 0 0 0 0.89844 0.5625 1.0001 1.0001 0 0 0 0.92773-0.62305c3.2407-7.9541 8.8331-9.9871 11.025-10.508z" color="#000000" stroke-linecap="round" stroke-linejoin="round" style="-inkscape-stroke:none"/>
 <path id="path8" d="m24.07 24.312c-0.46531 0-0.93059 0.2071-1.209 0.62109-0.70308 1.0458-1.1152 2.3124-1.1152 3.6641 0 1.3518 0.41217 2.6163 1.1152 3.6621 0.55679 0.82798 1.8612 0.82798 2.418 0 0.70308-1.0458 1.1152-2.3104 1.1152-3.6621 0-1.3517-0.41215-2.6182-1.1152-3.6641-0.2784-0.41399-0.74367-0.62109-1.209-0.62109zm0 3.2207c0.09374 0.36436 0.32422 0.66851 0.32422 1.0645 0 0.39622-0.23035 0.69986-0.32422 1.0645-0.09387-0.36458-0.32422-0.66818-0.32422-1.0645 0-0.39594 0.23048-0.70009 0.32422-1.0645z" color="#000000" stroke-linecap="round" stroke-linejoin="round" style="-inkscape-stroke:none"/>
 <path id="path10" d="m24.08 23c-3.9174 0-7.4303 1.7895-9.7461 4.5957-0.50897 0.6169-0.50897 1.5276 0 2.1445 2.3158 2.8062 5.8287 4.5977 9.7461 4.5977 3.9174 0 7.4323-1.7915 9.748-4.5977 0.50897-0.6169 0.50897-1.5276 0-2.1445-2.3158-2.8062-5.8306-4.5957-9.748-4.5957zm0 2c3.1915 0 6.0004 1.448 7.9492 3.668-1.9488 2.22-4.7577 3.6699-7.9492 3.6699-3.1915 0-5.9985-1.4499-7.9473-3.6699 1.9488-2.2199 4.7558-3.668 7.9473-3.668z" color="#000000" stroke-linecap="round" stroke-linejoin="round" style="-inkscape-stroke:none"/>
</svg>
