<?xml version="1.0" encoding="UTF-8"?>
<svg id="Layer_2" data-name="Layer 2" version="1.1" viewBox="0 0 48 48" xmlns="http://www.w3.org/2000/svg">
 <defs id="defs1">
  <style id="style1">.cls-1{fill:none;stroke:#000;stroke-width:2px;stroke-linecap:round;stroke-linejoin:round;}</style>
 </defs>
 <path id="path1" d="m16.363 12.225c-1.9136-0.02534-3.9083 0.16976-6.207 0.41016a1.0001 1.0001 0 0 0-0.0098 2e-3c-3.3986 0.38889-5.7405 2.6895-6.4395 5.3242-0.69899 2.6348 0.29961 5.6794 3.1758 7.2383 3.9227 2.1455 9.2124 2.2797 13.359 1.3926 2.6923-0.47016 4.8046-2.5862 5.2695-5.2793 0.60652-3.028 0.38489-4.9399-0.44531-6.2227-0.83125-1.2844-2.145-1.679-2.9863-1.9512h-2e-3c-1.9701-0.64243-3.8019-0.88873-5.7148-0.91406zm-0.06055 1.9961c1.7589 0.01966 3.3871 0.24322 5.1562 0.82031a1.0001 1.0001 0 0 0 0.0039 0c0.85869 0.27781 1.508 0.4943 1.9238 1.1367s0.72145 1.9735 0.16211 4.7559a1.0001 1.0001 0 0 0-0.0039 0.0293c-0.31943 1.8754-1.7796 3.3385-3.6543 3.6621a1.0001 1.0001 0 0 0-0.04102 0.0078c-3.7484 0.80662-8.7408 0.59938-12.01-1.1895a1.0001 1.0001 0 0 0-0.00391-2e-3c-2.1238-1.1511-2.6888-3.1065-2.1953-4.9667 0.4931-1.8587 2.0991-3.5464 4.7266-3.8496 2.2892-0.23938 4.1778-0.42394 5.9355-0.4043z" stroke-linecap="round" stroke-linejoin="round"/>
 <path id="path2" d="m19.814 3.8301a1.0001 1.0001 0 0 0-0.09375 0.00781c-3.2798 0.43005-5.398 1.2907-6.8379 2.3809-1.4399 1.0902-2.1469 2.3914-2.6582 3.4141a1.0001 1.0001 0 0 0-0.05273 0.12891c-0.40777 1.2112-0.70867 2.4553-0.90039 3.7188a1 1 0 0 0 0.83789 1.1387 1 1 0 0 0 1.1387-0.83984c0.17128-1.1288 0.44564-2.2392 0.80664-3.3223 0.4771-0.94962 0.96978-1.8359 2.0352-2.6426 1.0865-0.82268 2.8309-1.5807 5.8496-1.9824 2.0351-0.069538 4.0734-0.017724 6.1016 0.16406a1.0001 1.0001 0 0 0 0.01172 0c1.7587 0.13563 2.9106 0.67801 3.8828 1.6973s1.7576 2.5977 2.4395 4.8027c0.72301 2.408 1.2633 4.8655 1.625 7.3535l0.08594 22.381h-26.334c-0.92924-4.8576-0.36356-12.549 0.5918-17.729a1 1 0 0 0-0.80273-1.166 1 1 0 0 0-1.1641 0.80274c-1.0381 5.6283-1.756 13.905-0.4707 19.322a1.0001 1.0001 0 0 0 0.97461 0.76953h28.209a1.0001 1.0001 0 0 0 1-1.0039l-0.089844-23.48a1.0001 1.0001 0 0 0-0.0098-0.13867c-0.37625-2.6035-0.94626-5.176-1.7031-7.6953a1.0001 1.0001 0 0 0-2e-3 -0.0078c-0.72811-2.355-1.5995-4.2261-2.9023-5.5918-1.3028-1.3657-3.0445-2.1442-5.1758-2.3086-2.1253-0.19-4.2601-0.24906-6.3926-0.17383z" stroke-linecap="round" stroke-linejoin="round"/>
 <path id="path3" d="m35.158 18.762a1 1 0 0 0-1.1465 0.83008 1 1 0 0 0 0.83008 1.1465c2.1007 0.33626 4.1783 0.8043 6.2227 1.3926 0.22482 0.1159 0.4379 0.23169 0.52734 0.30274 0.10334 0.08208 0.018 0.03295 0.0098-0.10156a1.0001 1.0001 0 0 0 2e-3 0.01758c0.55314 7.0001 1.1041 14.969 0.62891 19.92h-7.1133a1 1 0 0 0-1 1 1 1 0 0 0 1 1h8.0918a1.0001 1.0001 0 0 0 0.99219-0.875c0.66827-5.3044-0.02541-13.862-0.60547-21.203v0.01758c-0.03824-0.62451-0.42756-1.0744-0.76172-1.3398-0.33416-0.26542-0.67047-0.42996-0.95898-0.57422a1.0001 1.0001 0 0 0-0.16797-0.06641c-2.1512-0.62301-4.3394-1.1128-6.5508-1.4668z" stroke-linecap="round" stroke-linejoin="round"/>
</svg>
