<?xml version="1.0" encoding="UTF-8"?>
<svg id="a" version="1.1" viewBox="0 0 48 48" xmlns="http://www.w3.org/2000/svg">
 <defs id="defs1">
  <style id="style1">.b{fill:none;stroke:#000;stroke-width:2px;stroke-linecap:round;stroke-linejoin:round;}</style>
 </defs>
 <path id="circle1" d="m24 1.5c-12.415 0-22.5 10.085-22.5 22.5s10.085 22.5 22.5 22.5 22.5-10.085 22.5-22.5-10.085-22.5-22.5-22.5zm0 2c11.334 0 20.5 9.1663 20.5 20.5s-9.1663 20.5-20.5 20.5-20.5-9.1663-20.5-20.5 9.1663-20.5 20.5-20.5z" stop-color="#000000" stroke-linecap="round" stroke-linejoin="round"/>
 <path id="line1" d="m34.5 18.328a1 1 0 0 0-1 1v9.3438a1 1 0 0 0 1 1 1 1 0 0 0 1-1v-9.3438a1 1 0 0 0-1-1z" stop-color="#000000" stroke-linecap="round" stroke-linejoin="round"/>
 <path id="line2" d="m13.5 18.328a1 1 0 0 0-1 1v9.3438a1 1 0 0 0 1 1 1 1 0 0 0 1-1v-9.3438a1 1 0 0 0-1-1z" stop-color="#000000" stroke-linecap="round" stroke-linejoin="round"/>
 <path id="line3" d="m13.5 19.795a1 1 0 0 0-1 1 1 1 0 0 0 1 1h21a1 1 0 0 0 1-1 1 1 0 0 0-1-1z" stop-color="#000000" stroke-linecap="round" stroke-linejoin="round"/>
 <path id="line4" d="m13.5 26.205a1 1 0 0 0-1 1 1 1 0 0 0 1 1h21a1 1 0 0 0 1-1 1 1 0 0 0-1-1z" stop-color="#000000" stroke-linecap="round" stroke-linejoin="round"/>
 <path id="ellipse4" d="m24 1.5c-4.9085 0-9.3255 2.6019-12.461 6.6875-3.1355 4.0856-5.0391 9.6681-5.0391 15.812s1.9036 11.727 5.0391 15.812c3.1355 4.0856 7.5525 6.6875 12.461 6.6875s9.3255-2.6019 12.461-6.6875c3.1355-4.0856 5.0391-9.6681 5.0391-15.812s-1.9036-11.727-5.0391-15.812c-3.1355-4.0856-7.5525-6.6875-12.461-6.6875zm0 2c4.2042 0 8.0367 2.2104 10.873 5.9062 2.8363 3.6958 4.627 8.8641 4.627 14.594s-1.7906 10.898-4.627 14.594-6.6688 5.9062-10.873 5.9062-8.0367-2.2104-10.873-5.9062-4.627-8.8641-4.627-14.594 1.7906-10.898 4.627-14.594c2.8363-3.6958 6.6688-5.9062 10.873-5.9062z" stop-color="#000000" stroke-linecap="round" stroke-linejoin="round"/>
</svg>
