<?xml version="1.0" encoding="UTF-8" standalone="no"?>
<svg
   viewBox="0 0 48 48"
   version="1.1"
   id="svg16"
   sodipodi:docname="steam_icon_1378990.svg"
   xmlns:inkscape="http://www.inkscape.org/namespaces/inkscape"
   xmlns:sodipodi="http://sodipodi.sourceforge.net/DTD/sodipodi-0.dtd"
   xmlns="http://www.w3.org/2000/svg"
   xmlns:svg="http://www.w3.org/2000/svg">
  <sodipodi:namedview
     id="namedview16"
     pagecolor="#ffffff"
     bordercolor="#666666"
     borderopacity="1.0"
     inkscape:showpageshadow="2"
     inkscape:pageopacity="0.0"
     inkscape:pagecheckerboard="0"
     inkscape:deskcolor="#d1d1d1" />
  <defs
     id="defs1">
    <style
       id="style1">.a{fill:none;stroke:#000;stroke-width:2px;stroke-linecap:round;stroke-linejoin:round;}</style>
  </defs>
  <path
     style="color:#000000;fill:#000000;stroke-linecap:round;stroke-linejoin:round;-inkscape-stroke:none"
     d="m 11.351563,26.101562 a 1.0001,1.0001 0 0 0 -0.0059,0.002 c -0.659433,0.326849 -0.973544,0.926398 -1.169922,1.541015 -0.1963772,0.614617 -0.2783777,1.313745 -0.2832029,2.091797 -0.00965,1.556105 0.3067119,3.426169 0.9941409,5.279297 0.687429,1.853128 1.749514,3.690902 3.289062,5.099609 1.539549,1.408708 3.58875,2.365235 6.054688,2.365235 a 1.0001,1.0001 0 0 0 0.01758,0 c 2.529187,-0.04447 4.808139,-1.433938 6.08789,-3.591797 2.747724,0.02073 5.003424,-0.461668 6.419922,-1.269531 1.799569,-1.026339 2.638672,-2.3125 2.638672,-2.3125 a 1,1 0 0 0 -0.308594,-1.38086 1,1 0 0 0 -1.378906,0.306641 c 0,0 -0.507931,0.829778 -1.943359,1.648437 -1.435428,0.81866 -3.739648,1.560631 -7.322266,1.048828 -3.31527,-0.47361 -5.568257,-3.224936 -7.371094,-5.93164 -0.901418,-1.353352 -1.660904,-2.659052 -2.455078,-3.638672 -0.397086,-0.48981 -0.800847,-0.913288 -1.341796,-1.201172 -0.54095,-0.287884 -1.309049,-0.356344 -1.921875,-0.05664 z m 0.880859,1.798829 c 0.05689,-0.03202 -0.02708,-0.04502 0.101562,0.02344 0.133894,0.07126 0.413025,0.308561 0.726563,0.695313 0.627075,0.773503 1.40517,2.079136 2.34375,3.488281 1.809409,2.716572 4.355587,5.896728 8.335937,6.669922 -0.950959,0.962835 -2.124112,1.674444 -3.519531,1.701172 -1.958705,-0.0026 -3.46466,-0.711827 -4.695312,-1.837891 -1.232949,-1.128165 -2.161103,-2.695944 -2.763672,-4.320313 -0.60257,-1.624368 -0.876991,-3.304545 -0.869141,-4.570312 0.0039,-0.632884 0.08302,-1.162977 0.189453,-1.496094 0.105241,-0.329379 0.229135,-0.39247 0.150391,-0.353515 z"
     id="path1" />
  <path
     style="color:#000000;fill:#000000;stroke-linecap:round;stroke-linejoin:round;-inkscape-stroke:none"
     d="m 13.349609,22.939453 c -1.606513,0 -2.919057,0.617353 -3.7597652,1.601563 -0.8407079,0.984209 -1.2305375,2.243119 -1.3984375,3.542968 -0.3358001,2.599699 0.2013685,5.476468 0.703125,7.363282 0.5046031,1.897518 1.3762497,4.125039 3.0292967,5.927734 1.653048,1.802695 4.130196,3.125 7.505859,3.125 2.406059,0 4.074585,-0.788122 5.078125,-1.886719 1.003541,-1.098596 1.324392,-2.402128 1.417969,-3.34375 a 1,1 0 0 0 -0.896484,-1.09375 1,1 0 0 0 -1.09375,0.894531 c -0.06642,0.668377 -0.297839,1.529458 -0.904297,2.19336 C 22.424792,41.927574 21.423625,42.5 19.429687,42.5 c -2.87433,0 -4.7018,-1.026761 -6.031249,-2.476563 -1.32945,-1.449801 -2.11687,-3.377365 -2.572266,-5.089843 -0.458243,-1.723183 -0.9265432,-4.470953 -0.652344,-6.59375 0.1371,-1.061399 0.456256,-1.938899 0.935547,-2.5 0.479291,-0.561102 1.096751,-0.900391 2.240234,-0.900391 0.747959,0 1.121591,0.271694 1.65625,0.925781 0.534659,0.654088 1.080957,1.677661 1.820313,2.769532 1.478712,2.18374 3.968849,4.576171 8.943359,4.576171 2.866372,0 5.205372,-0.07031 7.060547,-0.07031 a 1,1 0 0 0 1,-1 1,1 0 0 0 -1,-1 c -1.904821,0 -4.226924,0.07031 -7.060547,0.07031 -4.38548,10e-7 -5.965824,-1.74601 -7.287109,-3.697265 -0.660643,-0.975628 -1.194895,-2.017526 -1.927735,-2.914063 -0.732839,-0.896536 -1.813039,-1.660156 -3.205078,-1.660156 z"
     id="path2" />
  <path
     style="color:#000000;fill:#000000;stroke-linecap:round;stroke-linejoin:round;-inkscape-stroke:none"
     d="m 37.847656,28.492187 c -2.037981,0.0157 -3.533388,0.527249 -4.521484,1.34961 -1.003301,0.835016 -1.445313,1.948331 -1.445313,2.927734 0,1.261641 0.988718,2.098055 2.039063,2.601563 1.050344,0.503508 2.328581,0.769531 3.61914,0.769531 a 1.0001,1.0001 0 0 0 0.02734,0 c 2.259109,-0.05871 4.148795,-1.774746 4.425781,-4.017578 a 1.0001,1.0001 0 0 0 0.0059,-0.195313 c -0.153499,-2.106158 -2.057236,-3.670866 -4.150391,-3.435547 z m 0.205078,1.980469 c 0.964184,-0.119584 1.774829,0.560409 1.902344,1.507813 -0.207098,1.209868 -1.195324,2.119738 -2.433594,2.15625 -0.993671,-0.003 -2.03565,-0.23349 -2.738281,-0.570313 -0.707154,-0.338991 -0.902344,-0.688517 -0.902344,-0.796875 0,-0.390595 0.162912,-0.923142 0.72461,-1.390625 0.561697,-0.467483 1.570887,-0.898437 3.324218,-0.898437 a 1.0001,1.0001 0 0 0 0.123047,-0.0078 z"
     id="path3" />
  <path
     style="color:#000000;fill:#000000;stroke-linecap:round;stroke-linejoin:round;-inkscape-stroke:none"
     d="M 6.0546875,3.6308594 A 1.0001,1.0001 0 0 0 5.5507812,4.5 v 11.839844 c 0,2.14316 0.651338,3.782606 1.7324219,4.865234 0.6837248,0.684702 1.516894,1.070735 2.3828125,1.341797 -0.8479123,1.269938 -1.3758961,2.728283 -1.1230468,4.275391 a 1,1 0 0 0 1.1484375,0.824218 1,1 0 0 0 0.8261717,-1.148437 c -0.234209,-1.433057 0.301343,-2.879569 1.414063,-3.8125 A 1.0001,1.0001 0 0 0 11.390625,20.925781 C 10.309777,20.816825 9.3661799,20.462839 8.6972656,19.792969 8.0283513,19.123099 7.5507812,18.09668 7.5507812,16.339844 V 6.40625 c 3.8511588,2.6403492 7.0115798,6.176539 9.0820308,10.384766 a 1,1 0 0 0 1.337891,0.457031 1,1 0 0 0 0.457031,-1.339844 C 15.913808,10.798605 11.962051,6.5341736 7.0585937,3.6386719 a 1.0001,1.0001 0 0 0 -1.0039062,-0.00781 z"
     id="path4" />
  <path
     style="color:#000000;fill:#000000;stroke-linecap:round;stroke-linejoin:round;-inkscape-stroke:none"
     d="m 24.416016,16.990234 c -0.542357,-0.07159 -1.089208,-0.0362 -1.607422,0.08203 -1.036429,0.236459 -1.995587,0.765044 -2.857422,1.412109 -1.723671,1.29413 -3.075569,2.995165 -3.585938,4.480469 a 1.0001,1.0001 0 0 0 0.5,1.220703 l 7.458985,3.708984 a 1.0001,1.0001 0 0 0 1.322265,-0.412109 c 0,0 0.96799,-1.748063 1.554688,-3.798828 0.293349,-1.025383 0.504697,-2.135512 0.412109,-3.226563 -0.09259,-1.091051 -0.567081,-2.238315 -1.621094,-2.902344 -0.497199,-0.313235 -1.033814,-0.492865 -1.576171,-0.564453 z m -1.16211,2.03125 c 0.65107,-0.14854 1.168229,-0.09392 1.673828,0.22461 0.445986,0.280971 0.634073,0.680271 0.69336,1.378906 0.05929,0.698635 -0.08765,1.619447 -0.341797,2.507812 -0.374861,1.310303 -0.745356,1.946702 -1.021485,2.496094 l -5.544921,-2.757812 c 0.509999,-0.863722 1.347615,-1.967359 2.439453,-2.78711 0.703163,-0.527933 1.450493,-0.913959 2.101562,-1.0625 z"
     id="path5" />
  <path
     style="color:#000000;fill:#000000;stroke-linecap:round;stroke-linejoin:round;-inkscape-stroke:none"
     d="m 29.707031,24.705078 c -1.734081,-0.0034 -3.385704,1.109884 -3.923828,2.884766 a 1.0001,1.0001 0 0 0 0.589844,1.220703 l 5.359375,2.11914 a 1.0001,1.0001 0 0 0 1.248047,-0.455078 c 1.012233,-1.874742 0.361713,-4.238493 -1.466797,-5.332031 a 1.0001,1.0001 0 0 0 -0.08398,-0.04492 C 30.871728,24.831425 30.285058,24.70622 29.707031,24.705078 Z m -0.86914,2.162109 c 0.510981,-0.225503 1.116045,-0.219278 1.68164,0.0332 0.612173,0.389806 0.823821,1.040471 0.806641,1.71875 L 28.339844,27.4375 c 0.180594,-0.181597 0.267851,-0.468724 0.498047,-0.570313 z"
     id="path6" />
  <path
     style="color:#000000;fill:#000000;stroke-linecap:round;stroke-linejoin:round;-inkscape-stroke:none"
     d="m 25.244141,26.119141 a 1,1 0 0 0 -1.355469,0.40625 1,1 0 0 0 0.408203,1.355468 c 0.688949,0.370963 1.405577,0.686046 2.144531,0.94336 a 1,1 0 0 0 1.273438,-0.615235 1,1 0 0 0 -0.615235,-1.273437 c -0.638892,-0.222472 -1.25981,-0.495675 -1.855468,-0.816406 z"
     id="path7" />
  <path
     style="color:#000000;fill:#000000;stroke-linecap:round;stroke-linejoin:round;-inkscape-stroke:none"
     d="m 32.550781,29.091797 a 1,1 0 0 0 -1.328125,0.488281 1,1 0 0 0 0.486328,1.328125 c 0.929579,0.430542 1.556641,0.757813 1.556641,0.757813 a 1,1 0 0 0 1.349609,-0.421875 1,1 0 0 0 -0.421875,-1.34961 c 0,0 -0.672159,-0.353277 -1.642578,-0.802734 z"
     id="path8" />
  <path
     style="color:#000000;fill:#000000;stroke-linecap:round;stroke-linejoin:round;-inkscape-stroke:none"
     d="m 38.691406,21.667969 c -0.956028,0.06543 -1.904452,0.237078 -2.828125,0.513672 a 1,1 0 0 0 -0.671875,1.246093 1,1 0 0 0 1.246094,0.669922 c 1.142821,-0.342217 2.329207,-0.425907 3.515625,-0.384765 -0.248327,0.695893 -0.460015,1.404201 -1.072266,2.253906 -0.873267,1.211953 -1.960107,2.342809 -2.5,2.767578 a 1,1 0 0 0 -0.166015,1.404297 1,1 0 0 0 1.404297,0.167969 c 0.820105,-0.645231 1.908034,-1.814378 2.884765,-3.169922 0.976731,-1.355545 1.863639,-2.808341 1.90625,-4.328125 a 1.0001,1.0001 0 0 0 -0.845703,-1.017578 c -0.952744,-0.14817 -1.917018,-0.188479 -2.873047,-0.123047 z"
     id="path9" />
  <path
     style="color:#000000;fill:#000000;stroke-linecap:round;stroke-linejoin:round;-inkscape-stroke:none"
     d="m 22.109375,19.939453 c -1.55112,0 -2.830078,1.278959 -2.830078,2.830078 0,1.55112 1.278958,2.830078 2.830078,2.830078 1.55112,0 2.830078,-1.278958 2.830078,-2.830078 0,-1.551119 -1.278958,-2.830078 -2.830078,-2.830078 z m 0,2 c 0.470241,0 0.830078,0.359838 0.830078,0.830078 0,0.470241 -0.359837,0.830078 -0.830078,0.830078 -0.470241,0 -0.830078,-0.359837 -0.830078,-0.830078 0,-0.47024 0.359837,-0.830078 0.830078,-0.830078 z"
     id="circle9" />
  <path
     style="color:#000000;fill:#000000;stroke-linecap:round;stroke-linejoin:round;-inkscape-stroke:none"
     d="m 29.126953,24.703125 a 1,1 0 0 0 -0.609375,0.460937 1,1 0 0 0 0.357422,1.369141 c 0.295437,0.173166 0.368827,0.413111 0.335937,0.679688 -0.03289,0.266576 -0.163521,0.481959 -0.492187,0.578125 a 1,1 0 0 0 -0.677734,1.240234 1,1 0 0 0 1.240234,0.677734 c 1.093484,-0.319948 1.792898,-1.269883 1.914062,-2.251953 0.121165,-0.982069 -0.327617,-2.074261 -1.310546,-2.65039 a 1,1 0 0 0 -0.757813,-0.103516 z"
     id="path10" />
  <path
     style="color:#000000;fill:#000000;stroke-linecap:round;stroke-linejoin:round;-inkscape-stroke:none"
     d="m 26.595703,26.595703 a 1,1 0 0 0 -0.75,1.199219 c 0.06067,0.263007 0.165768,0.514387 0.310547,0.742187 a 1,1 0 0 0 1.380859,0.306641 1,1 0 0 0 0.306641,-1.380859 c -0.02312,-0.03638 -0.03914,-0.07519 -0.04883,-0.117188 a 1,1 0 0 0 -1.199219,-0.75 z"
     id="path11" />
  <path
     style="color:#000000;fill:#000000;stroke-linecap:round;stroke-linejoin:round;-inkscape-stroke:none"
     d="m 24.310547,10.220703 c -1.742107,0 -3.655833,0.676966 -5.214844,1.970703 -1.55901,1.293738 -2.745218,3.267675 -2.785156,5.732422 a 1.0001,1.0001 0 0 0 1.675781,0.751953 c 0,0 3.174159,-2.739752 6.158203,-2.392578 1.383499,0.160961 2.302108,1.161414 2.931641,2.261719 0.629533,1.100304 0.867187,2.160156 0.867187,2.160156 a 1.0001,1.0001 0 0 0 1.951172,0.01367 c 0.681676,-2.905238 0.244353,-5.488075 -0.835937,-7.375 -1.08029,-1.886925 -2.835872,-3.123047 -4.748047,-3.123047 z m 0,2 c 1.027822,0 2.20701,0.711616 3.011719,2.117188 0.361879,0.632089 0.600541,1.434091 0.746093,2.30664 -0.840591,-1.0987 -1.958572,-2.145825 -3.693359,-2.347656 -2.141244,-0.24912 -4.074656,0.48687 -5.484375,1.285156 0.365003,-0.725897 0.872484,-1.345408 1.482422,-1.851562 1.188487,-0.98626 2.73961,-1.509766 3.9375,-1.509766 z"
     id="path12" />
  <path
     style="color:#000000;fill:#000000;stroke-linecap:round;stroke-linejoin:round;-inkscape-stroke:none"
     d="m 33.867187,19.169922 c -2.696082,-0.375781 -4.673601,1.223228 -5.814453,2.757812 -1.140851,1.534584 -1.636718,3.13086 -1.636718,3.13086 a 1.0001,1.0001 0 0 0 1.195312,1.271484 c 1.619034,-0.403738 3.273242,-0.651059 4.939453,-0.740234 0.764468,-0.03053 1.44317,0.44497 1.675781,1.173828 a 1.0001,1.0001 0 0 0 1.832032,0.171875 c 0,0 0.845751,-1.510011 1.082031,-3.25586 0.11814,-0.872924 0.09978,-1.859043 -0.404297,-2.757812 -0.504071,-0.898769 -1.52069,-1.564005 -2.869141,-1.751953 z m -0.27539,1.980469 c 0.911547,0.127052 1.208838,0.406504 1.40039,0.748046 0.191553,0.341543 0.250376,0.890348 0.166016,1.513672 -0.0643,0.47509 -0.177557,0.560278 -0.326172,0.980469 -0.669367,-0.515395 -1.47547,-0.838112 -2.361328,-0.802734 a 1.0001,1.0001 0 0 0 -0.01367,0.002 c -1.115691,0.0592 -2.207008,0.305327 -3.30664,0.496094 0.209002,-0.415139 0.161656,-0.501175 0.507812,-0.966797 0.909147,-1.222914 2.10968,-2.224921 3.933594,-1.970703 z"
     id="path13" />
  <path
     style="color:#000000;fill:#000000;stroke-linecap:round;stroke-linejoin:round;-inkscape-stroke:none"
     d="M 29.630859,4.2675781 A 1.0001,1.0001 0 0 0 28.351562,5.59375 c 0.120689,0.2816496 0.08576,0.5875761 0.154297,0.8808594 C 28.39792,6.3551134 28.322782,6.1603025 28.212891,6.0566406 27.362657,5.2546031 26.716489,5.0207492 26.447266,4.90625 26.395706,4.8843218 26.109375,4.6855469 26.109375,4.6855469 a 1.0001,1.0001 0 0 0 -1.056641,1.6503906 c 0.0062,0.00599 0.135359,0.2247434 0.175782,0.625 0.04042,0.4002566 0.01344,0.9324183 -0.05078,1.4433594 -0.03662,0.291288 -0.06232,0.297101 -0.111328,0.5527344 C 24.110934,8.4488184 23.108968,8.173255 22.255859,8.2128906 20.941482,8.2739568 19.910156,8.6914063 19.910156,8.6914063 a 1.0001,1.0001 0 0 0 0.3125,1.9277347 c 0.69006,0.04007 1.331768,0.174809 1.751953,0.365234 0.420186,0.190425 0.561513,0.366678 0.609375,0.544922 a 1,1 0 0 0 1.22461,0.707031 1,1 0 0 0 0.707031,-1.226562 c -0.0167,-0.06218 -0.07071,-0.09689 -0.0918,-0.15625 0.178573,0.133139 0.383158,0.186192 0.539063,0.384765 a 1.0001,1.0001 0 0 0 1.748046,-0.34375 c 0,0 0.299625,-1.0346186 0.451172,-2.2402341 0.02726,-0.2168852 0.0041,-0.4551253 0.01953,-0.6816407 0.522594,0.6237339 0.937007,1.3920094 0.785156,2.6035158 a 1.0001,1.0001 0 0 0 1.861328,0.619141 c 0.06622,-0.116349 0.05205,-0.255893 0.111328,-0.375 l 0.01367,0.0039 c 0.0017,-0.01352 -0.0075,-0.02168 -0.0059,-0.03516 0.562766,-1.1438695 0.740128,-2.3692519 0.65625,-3.6191411 0.295907,0.1902007 0.343816,0.1351884 0.646484,0.3945312 1.096893,0.9398802 1.936942,2.1037947 1.509766,3.8124999 a 1.0001,1.0001 0 0 0 0.630859,1.09961 c -0.187769,1.295892 -0.576148,2.593215 -1.537109,3.427734 a 1.0001,1.0001 0 0 0 0.972656,1.705078 c 0,0 0.437541,-0.22136 0.583984,-0.275391 -0.33522,0.413693 -0.676276,0.830463 -1.041015,1.078125 a 1.0001,1.0001 0 0 0 -0.21875,1.453125 c 0.06323,0.07896 0.09735,0.176208 0.09961,0.277344 A 1,1 0 0 0 33.271484,21.119141 1,1 0 0 0 34.25,20.097656 c -0.0047,-0.211259 -0.153627,-0.379369 -0.210938,-0.580078 1.139542,-1.000506 1.994797,-2.293492 2.558594,-3.462891 0.620639,-1.287297 0.90246,-2.249362 0.941406,-2.378906 0.0021,-0.0045 0.0057,-0.0072 0.0078,-0.01172 l -0.0039,-0.002 c 0.0021,-0.007 0.05664,-0.140625 0.05664,-0.140625 a 1.0001,1.0001 0 0 0 -1.865234,-0.705078 c -0.123372,0.264213 -0.335921,0.468345 -0.515625,0.697266 0.138278,-0.655287 0.319001,-1.326917 0.345703,-1.923828 0.0773,-1.7280543 -0.183602,-2.9190317 -0.226562,-3.1289065 -2.7e-5,-1.303e-4 2.6e-5,-0.00182 0,-0.00195 -0.0035,-0.017302 -0.01953,-0.2597656 -0.01953,-0.2597656 A 1.0001,1.0001 0 0 0 33.894531,7.7910156 C 33.484616,7.1441433 33.063421,6.4825072 32.552734,6.0449219 31.15213,4.8448042 29.630859,4.2675781 29.630859,4.2675781 Z"
     id="path14" />
  <path
     style="color:#000000;fill:#000000;stroke-linecap:round;stroke-linejoin:round;-inkscape-stroke:none"
     d="M 9.8789063,9.5722656 C 9.8787992,9.5722543 9.117345,9.8104102 9.1171875,9.8105469 9.11703,9.8106835 8.9650524,9.9762769 8.9648438,9.9765625 c -4.173e-4,5.711e-4 -0.065796,0.09993 -0.078125,0.1230465 a 1.0001,1.0001 0 0 0 0.2207031,1.021485 c -0.121605,-0.09545 -0.2754094,-0.214896 -0.2753906,-0.214844 5.7e-5,1.59e-4 -0.058601,-0.314758 -0.058594,-0.314453 1.52e-5,6.09e-4 0.00565,-0.14258 0.00977,-0.169922 0.016464,-0.109368 0.016601,-0.08376 0.015625,-0.08008 -0.00195,0.0074 -0.013802,0.0558 -0.03125,0.117187 -0.034896,0.122778 -0.090628,0.316087 -0.1542968,0.560547 -0.1273384,0.488921 -0.2901555,1.181542 -0.4140625,1.970703 -0.2478141,1.578324 -0.4152547,3.54539 0.4609375,5.166016 a 1.0001,1.0001 0 0 0 0.041016,0.06836 c 1.022363,1.572345 2.5832251,2.720718 4.3886721,3.228516 a 1,1 0 0 0 1.232422,-0.691406 1,1 0 0 0 -0.691407,-1.234375 c -1.322961,-0.372095 -2.460373,-1.212647 -3.21875,-2.357422 -0.4403921,-0.847286 -0.4557466,-2.484105 -0.238281,-3.869141 0.03669,-0.233686 0.08234,-0.379531 0.125,-0.59375 0.0033,0.0044 0.0045,0.0034 0.0078,0.0078 0.530675,0.714493 1.140161,1.612832 1.716797,2.523437 0.576635,0.910606 1.122192,1.835375 1.523437,2.59961 0.401245,0.764234 0.642787,1.485684 0.640625,1.46875 a 1,1 0 0 0 1.119141,0.865234 1,1 0 0 0 0.865234,-1.119141 c -0.09216,-0.721933 -0.417653,-1.310642 -0.855469,-2.144531 -0.437816,-0.833889 -1.003902,-1.793341 -1.603515,-2.740234 -0.599614,-0.946893 -1.229896,-1.877854 -1.800782,-2.646485 -0.570885,-0.76863 -1.011455,-1.34072 -1.53125,-1.7421871 l 0.04883,0.2265621 C 10.182179,9.8115164 9.8789769,9.5722731 9.8789063,9.5722656 Z"
     id="path15" />
  <path
     style="color:#000000;fill:#000000;stroke-linecap:round;stroke-linejoin:round;-inkscape-stroke:none"
     d="m 15.361328,17.804687 c -0.472495,0.310682 -1.26027,0.932168 -2.001953,1.521485 -0.741683,0.589317 -1.390625,1.11914 -1.390625,1.11914 a 1,1 0 0 0 -0.144531,1.40625 1,1 0 0 0 1.40625,0.144532 c 0,0 0.642231,-0.522834 1.373047,-1.103516 0.730815,-0.580682 1.597964,-1.248651 1.855468,-1.417969 a 1,1 0 0 0 0.28711,-1.384765 1,1 0 0 0 -1.384766,-0.285157 z"
     id="path16" />
</svg>
