<?xml version="1.0" encoding="UTF-8" standalone="no"?>
<svg
   viewBox="0 0 48 48"
   version="1.1"
   id="svg6"
   sodipodi:docname="steam_icon_1927720.svg"
   xmlns:inkscape="http://www.inkscape.org/namespaces/inkscape"
   xmlns:sodipodi="http://sodipodi.sourceforge.net/DTD/sodipodi-0.dtd"
   xmlns="http://www.w3.org/2000/svg"
   xmlns:svg="http://www.w3.org/2000/svg">
  <sodipodi:namedview
     id="namedview6"
     pagecolor="#ffffff"
     bordercolor="#666666"
     borderopacity="1.0"
     inkscape:showpageshadow="2"
     inkscape:pageopacity="0.0"
     inkscape:pagecheckerboard="0"
     inkscape:deskcolor="#d1d1d1" />
  <defs
     id="defs1">
    <style
       id="style1">.a{fill:none;stroke:#000;stroke-width:2px;stroke-linecap:round;stroke-linejoin:round;}</style>
  </defs>
  <path
     style="color:#000000;fill:#000000;stroke-linecap:round;stroke-linejoin:round;-inkscape-stroke:none"
     d="m 12.269531,3.53125 a 1.0001,1.0001 0 0 0 -0.970703,1.6621094 c 0,0 2.617787,2.7151066 5.4375,5.6152346 2.819713,2.900127 5.773012,5.92442 6.685547,6.759765 2.647098,2.4233 6.902018,1.804174 8.748047,-1.273437 1.611847,-2.692591 0.729784,-6.212513 -1.962891,-7.8242189 a 1.0001,1.0001 0 0 0 -0.02344,-0.013672 C 29.668423,8.1673786 29.115945,7.9476382 28.542969,7.8027344 26.499823,7.2221398 12.269531,3.53125 12.269531,3.53125 Z m 2.958985,2.8457031 C 19.112383,7.3871147 26.62719,9.3367146 28.023437,9.734375 a 1.0001,1.0001 0 0 0 0.0293,0.00781 c 0.396371,0.1002409 0.777713,0.2540465 1.134766,0.4531255 1.757423,1.059073 2.32226,3.310419 1.267578,5.072265 -1.217651,2.028264 -3.938462,2.423762 -5.683594,0.826172 C 24.070321,15.451897 20.985978,12.310429 18.169922,9.4140625 16.644805,7.8454514 16.252254,7.4360192 15.228516,6.3769531 Z"
     id="path1" />
  <path
     style="color:#000000;fill:#000000;stroke-linecap:round;stroke-linejoin:round;-inkscape-stroke:none"
     d="M 29.535156,8.4960938 C 25.172767,10.033957 24.407695,16.018554 28.242187,18.605469 a 1,1 0 0 0 1.388672,-0.269532 1,1 0 0 0 -0.269531,-1.388671 C 26.78595,15.209804 27.27124,11.413742 30.201172,10.380859 A 1,1 0 0 0 30.8125,9.1054688 1,1 0 0 0 29.535156,8.4960938 Z"
     id="path2" />
  <path
     style="color:#000000;fill:#000000;stroke-linecap:round;stroke-linejoin:round;-inkscape-stroke:none"
     d="m 27.908203,7.8515625 c -1.974704,0.8351983 -3.327589,2.1745215 -4.072266,3.7773435 -0.744676,1.602823 -0.903258,3.420971 -0.734375,5.292969 a 1,1 0 0 0 1.085938,0.90625 1,1 0 0 0 0.90625,-1.085938 c -0.148116,-1.641798 0.01044,-3.100059 0.554687,-4.271484 0.544248,-1.171424 1.449271,-2.104943 3.039063,-2.7773436 a 1,1 0 0 0 0.53125,-1.3105469 1,1 0 0 0 -1.310547,-0.53125 z"
     id="path3" />
  <path
     style="color:#000000;fill:#000000;stroke-linecap:round;stroke-linejoin:round;-inkscape-stroke:none"
     d="m 25.966797,16.880859 a 1,1 0 0 0 -1,1 c 0,0.837762 -0.406981,1.678453 -1.15625,2.564453 -0.749269,0.886001 -1.81477,1.769728 -2.914063,2.621094 -1.099292,0.851366 -2.226973,1.667592 -3.134765,2.517578 -0.907793,0.849987 -1.710938,1.769376 -1.710938,3.013672 0,3.638476 3.546744,6.832031 9.039063,6.832031 2.709136,10e-7 4.600287,-0.598687 5.851562,-1.550781 1.251276,-0.952093 1.798828,-2.255736 1.798828,-3.396484 0,-0.761178 -0.274551,-1.40329 -0.607422,-2.246094 -0.33287,-0.842803 -0.75819,-1.823978 -1.179687,-2.914062 -0.842994,-2.180168 -1.654297,-4.787014 -1.654297,-7.369141 a 1,1 0 0 0 -1,-1 1,1 0 0 0 -1,1 c 0,2.993767 0.910608,5.817966 1.789063,8.089844 0.439227,1.135939 0.872874,2.136071 1.185546,2.927734 0.312673,0.791664 0.466797,1.437047 0.466797,1.511719 0,0.53095 -0.215993,1.200707 -1.009765,1.804687 -0.793773,0.60398 -2.227766,1.142579 -4.640625,1.142578 -4.751671,0 -7.039063,-2.495112 -7.039063,-4.832031 0,-0.249552 0.31417,-0.839379 1.078125,-1.554687 0.763956,-0.715309 1.862482,-1.521565 2.992188,-2.396485 1.129705,-0.87492 2.294317,-1.819337 3.216797,-2.910156 0.922479,-1.090819 1.628906,-2.376333 1.628906,-3.855469 a 1,1 0 0 0 -1,-1 z"
     id="path4" />
  <path
     style="color:#000000;fill:#000000;stroke-linecap:round;stroke-linejoin:round;-inkscape-stroke:none"
     d="m 25.228516,18.820312 a 1,1 0 0 0 -0.619141,0.449219 1,1 0 0 0 0.332031,1.375 c 1.157678,0.707068 2.576543,0.852246 3.853516,0.394531 a 1,1 0 0 0 0.603515,-1.279296 1,1 0 0 0 -1.279296,-0.603516 c -0.70877,0.254049 -1.492209,0.1737 -2.134766,-0.21875 a 1,1 0 0 0 -0.755859,-0.117188 z"
     id="path5" />
  <path
     style="color:#000000;fill:#000000;stroke-linecap:round;stroke-linejoin:round;-inkscape-stroke:none"
     d="m 25.267578,33.429687 a 1,1 0 0 0 -1,1 v 7.646485 a 1.0001,1.0001 0 0 0 0.302734,0.716797 l 1.458985,1.423828 a 1,1 0 0 0 1.414062,-0.01953 1,1 0 0 0 -0.01758,-1.414063 l -1.158203,-1.128906 v -7.22461 a 1,1 0 0 0 -1,-1 z"
     id="polyline5" />
  <path
     style="color:#000000;fill:#000000;stroke-linecap:round;stroke-linejoin:round;-inkscape-stroke:none"
     d="m 28.044922,33.111328 a 1,1 0 0 0 -1,1 v 6.054688 a 1.0001,1.0001 0 0 0 0.34375,0.753906 l 1.285156,1.121094 a 1,1 0 0 0 1.412109,-0.09766 1,1 0 0 0 -0.09766,-1.412109 l -0.943359,-0.820313 v -5.599609 a 1,1 0 0 0 -1,-1 z"
     id="polyline6" />
</svg>
