<?xml version="1.0" encoding="UTF-8" standalone="no"?>
<svg
   viewBox="0 0 48 48"
   version="1.1"
   id="svg5"
   sodipodi:docname="steam_icon_646570.svg"
   xmlns:inkscape="http://www.inkscape.org/namespaces/inkscape"
   xmlns:sodipodi="http://sodipodi.sourceforge.net/DTD/sodipodi-0.dtd"
   xmlns="http://www.w3.org/2000/svg"
   xmlns:svg="http://www.w3.org/2000/svg">
  <sodipodi:namedview
     id="namedview5"
     pagecolor="#ffffff"
     bordercolor="#666666"
     borderopacity="1.0"
     inkscape:showpageshadow="2"
     inkscape:pageopacity="0.0"
     inkscape:pagecheckerboard="0"
     inkscape:deskcolor="#d1d1d1" />
  <defs
     id="defs1">
    <style
       id="style1">.a{fill:none;stroke:#000;stroke-width:2px;stroke-linecap:round;stroke-linejoin:round;}</style>
  </defs>
  <path
     style="color:#000000;fill:#000000;stroke-linecap:round;stroke-linejoin:round;-inkscape-stroke:none"
     d="M 35.662109,3.5117188 A 1.0001,1.0001 0 0 0 34.845703,4.265625 c 0,0 -0.515308,2.1289101 -1.519531,4.5664063 -0.956996,2.3228647 -2.42472,4.7846017 -3.986328,5.9199217 C 21.730226,13.701012 15.60739,9.9562444 9.7011719,6.2734375 A 1.0001,1.0001 0 0 0 8.1757813,7.0332031 C 7.6940605,12.422799 9.5230529,16.809385 10.40625,18.732422 c -0.124307,-0.02098 -0.251121,-0.02529 -0.375,-0.04883 a 1.0001,1.0001 0 0 0 -1.1582031,1.210937 c 0.5923916,2.509548 1.9881131,5.49119 2.8750001,7.304688 a 1.0001,1.0001 0 0 0 -1.296875,1.234375 c 0.449977,1.432338 1.990425,4.956427 5.375,8.43164 3.384575,3.475214 8.62893,6.830339 16.273437,7.628907 a 1,1 0 0 0 0.166016,-0.04883 1,1 0 0 0 0.347656,-0.103515 1,1 0 0 0 0.302735,-0.214844 1,1 0 0 0 0.138671,-0.09961 C 39.673981,33.353665 40.114466,21.612845 39.828125,14.855469 39.776298,11.010365 38.686134,7.2512726 36.669922,3.9765625 A 1.0001,1.0001 0 0 0 35.662109,3.5117188 Z m 0.292969,3.7402343 c 1.092989,2.4156683 1.840775,4.9738219 1.875,7.6425779 a 1.0001,1.0001 0 0 0 0,0.0293 C 38.104187,21.364562 37.596739,32.374953 31.640625,42.375 24.872672,41.501334 20.271788,38.561434 17.259766,35.46875 c -2.278019,-2.339023 -3.432975,-4.461477 -4.144532,-6.013672 0.126194,0.008 0.244405,0.06714 0.371094,0.06836 a 1.0001,1.0001 0 0 0 0.900391,-1.453125 c 0,0 -2.005222,-4.181809 -3.023438,-7.195312 0.177688,0.01846 0.35309,0.05651 0.53125,0.07031 a 1.0001,1.0001 0 0 0 0.964844,-1.457031 c 0,0 -2.51168,-5.217604 -2.617187,-10.6054685 5.606403,3.4706135 11.649883,7.0110595 19.289062,7.9492185 a 1.0001,1.0001 0 0 0 0.654297,-0.148437 c 2.391153,-1.51009 3.921534,-4.495845 4.990234,-7.089844 0.51508,-1.2502251 0.509518,-1.4613226 0.779297,-2.3417969 z"
     id="path1" />
  <path
     style="color:#000000;fill:#000000;stroke-linecap:round;stroke-linejoin:round;-inkscape-stroke:none"
     d="m 8.7246094,11.373047 a 1,1 0 0 0 -0.025391,1.414062 c 2.1069902,2.183174 6.1868272,5.035554 10.7402342,7.458985 4.553407,2.42343 9.508714,4.400934 13.488281,4.529297 a 1.0001,1.0001 0 0 0 0.814453,-0.376954 c 0,0 1.188978,-1.493362 2.515625,-3.576171 1.326648,-2.082809 2.814461,-4.750677 3.425782,-7.300782 a 1,1 0 0 0 -0.740235,-1.205078 1,1 0 0 0 -1.205078,0.740235 c -0.509578,2.12569 -1.89744,4.699769 -3.166015,6.691406 -1.088716,1.709261 -1.7978,2.592527 -2.054688,2.921875 C 29.194683,22.434666 24.611066,20.732924 20.378906,18.480469 15.969548,16.133704 11.939578,13.26446 10.138672,11.398438 a 1,1 0 0 0 -1.4140626,-0.02539 z"
     id="path2" />
  <path
     style="color:#000000;fill:#000000;stroke-linecap:round;stroke-linejoin:round;-inkscape-stroke:none"
     d="m 32.875,22.779297 a 1,1 0 0 0 -0.912109,1.082031 c 0.223508,2.592221 0.04596,7.542818 -0.201172,11.773438 -0.247133,4.230619 -0.554688,7.779297 -0.554688,7.779296 a 1,1 0 0 0 0.91211,1.082032 1,1 0 0 0 1.082031,-0.910157 c 0,0 0.307699,-3.572412 0.55664,-7.833984 0.248942,-4.261572 0.448211,-9.174726 0.199219,-12.0625 A 1,1 0 0 0 32.875,22.779297 Z"
     id="path3" />
  <path
     style="color:#000000;fill:#000000;stroke-linecap:round;stroke-linejoin:round;-inkscape-stroke:none"
     d="m 37.292969,23.537109 a 1,1 0 0 0 -1.140625,0.835938 c -0.234431,1.506975 -1.964032,3.791728 -2.648438,6.578125 a 1,1 0 0 0 0.732422,1.210937 1,1 0 0 0 1.208984,-0.734375 c 0.539194,-2.195198 2.306225,-4.322225 2.683594,-6.748047 a 1,1 0 0 0 -0.835937,-1.142578 z"
     id="path4" />
  <path
     style="color:#000000;fill:#000000;stroke-linecap:round;stroke-linejoin:round;-inkscape-stroke:none"
     d="m 15.21875,23.828125 a 1.0001,1.0001 0 0 0 -0.578125,1.128906 c 1.09157,4.998178 3.726803,7.167781 6.390625,8.191406 2.663822,1.023626 5.21308,1.197812 6.701172,2.384766 a 1.0001,1.0001 0 0 0 1.603515,-0.984375 C 28.945468,32.653558 28.111866,31.309939 27.029297,30.404297 25.946728,29.498654 24.68795,29.025637 23.4375,28.59375 20.9366,27.729975 18.46102,27.076007 16.439453,24.173828 A 1.0001,1.0001 0 0 0 15.21875,23.828125 Z m 2.964844,4.634766 c 1.593327,0.984327 3.219944,1.544968 4.599609,2.021484 1.204848,0.416137 2.213549,0.82625 2.962891,1.453125 0.278194,0.232728 0.500863,0.546795 0.724609,0.863281 -1.602247,-0.569882 -3.248241,-0.952958 -4.722656,-1.519531 -1.374617,-0.528223 -2.582286,-1.337003 -3.564453,-2.818359 z"
     id="path5" />
</svg>
