<?xml version="1.0" encoding="UTF-8"?>
<svg id="a" version="1.1" viewBox="0 0 48 48" xmlns="http://www.w3.org/2000/svg">
 <defs id="defs1">
  <style id="style1">.b{fill:none;stroke:#000;stroke-width:2px;stroke-linecap:round;stroke-linejoin:round;}</style>
 </defs>
 <path id="path1" d="m18.68 3.5c-3.1512 0-5.7285 2.5753-5.7285 5.7266v10.834c0 3.1512 2.5773 5.7285 5.7285 5.7285h10.641c2.0704 1e-6 3.7285 1.6562 3.7285 3.7266v12.984h-18.098v-10.648a1 1 0 0 0-1-1 1 1 0 0 0-1 1v11.648a1.0001 1.0001 0 0 0 1 1h20.098a1.0001 1.0001 0 0 0 1-1v-13.984c0-3.1512-2.5773-5.7266-5.7285-5.7266h-10.641c-2.0704 0-3.7285-1.6582-3.7285-3.7285v-10.834c0-2.0704 1.6582-3.7266 3.7285-3.7266h10.641c2.0704 0 3.7285 1.6562 3.7285 3.7266v6.9219a1 1 0 0 0 1 1 1 1 0 0 0 1-1v-6.9219c0-3.1512-2.5773-5.7266-5.7285-5.7266z" stroke-linecap="round" stroke-linejoin="round"/>
</svg>
