<?xml version="1.0" encoding="UTF-8" standalone="no"?>
<svg
   id="b"
   viewBox="0 0 48 48"
   version="1.1"
   sodipodi:docname="steam_icon_38410.svg"
   xmlns:inkscape="http://www.inkscape.org/namespaces/inkscape"
   xmlns:sodipodi="http://sodipodi.sourceforge.net/DTD/sodipodi-0.dtd"
   xmlns="http://www.w3.org/2000/svg"
   xmlns:svg="http://www.w3.org/2000/svg">
  <sodipodi:namedview
     id="namedview1"
     pagecolor="#ffffff"
     bordercolor="#666666"
     borderopacity="1.0"
     inkscape:showpageshadow="2"
     inkscape:pageopacity="0.0"
     inkscape:pagecheckerboard="0"
     inkscape:deskcolor="#d1d1d1" />
  <defs
     id="defs1">
    <style
       id="style1">.f{fill:none;stroke:#000;stroke-width:2px;stroke-linecap:round;stroke-linejoin:round;}</style>
  </defs>
  <path
     style="color:#000000;fill:#000000;stroke-linecap:round;stroke-linejoin:round;-inkscape-stroke:none"
     d="m 24,19 c -2.749576,0 -5,2.250424 -5,5 0,2.749576 2.250424,5 5,5 2.749576,0 5,-2.250424 5,-5 0,-2.749576 -2.250424,-5 -5,-5 z m 0,2 c 1.668697,0 3,1.331303 3,3 0,1.668697 -1.331303,3 -3,3 -1.668697,0 -3,-1.331303 -3,-3 0,-1.668697 1.331303,-3 3,-3 z"
     id="circle1" />
  <path
     style="color:#000000;fill:#000000;stroke-linecap:round;stroke-linejoin:round;-inkscape-stroke:none"
     d="M 35.25,4.5136719 A 1.0001,1.0001 0 0 0 33.884766,4.8808594 L 26.359375,17.914062 a 1.0001,1.0001 0 0 0 0.365234,1.365235 c 1.687602,0.974371 2.72461,2.771972 2.72461,4.720703 a 1.0001,1.0001 0 0 0 2,0 l -1,1 H 45.5 a 1.0001,1.0001 0 0 0 1,-1 C 46.5,15.963143 42.210103,8.5320979 35.25,4.5136719 Z M 35.048828,6.8613281 C 40.590626,10.439556 44.039132,16.411566 44.367187,23 H 31.316406 C 31.051448,21.073935 30.06077,19.356678 28.525391,18.164062 Z"
     id="c" />
  <path
     style="color:#000000;fill:#000000;stroke-linecap:round;stroke-linejoin:round;-inkscape-stroke:none"
     d="m 21.275391,28.720703 a 1.0001,1.0001 0 0 0 -1.367188,0.365234 L 12.384766,42.119141 A 1.0001,1.0001 0 0 0 12.75,43.486328 c 6.960109,4.018429 15.539891,4.018429 22.5,0 a 1.0001,1.0001 0 0 0 0.365234,-1.367187 L 28.091797,29.085937 a 1.0001,1.0001 0 0 0 -1.367188,-0.365234 c -1.687568,0.974352 -3.76165,0.974352 -5.449218,0 z m -0.06836,2.115234 c 1.801252,0.734192 3.784686,0.734192 5.585938,0 l 6.52539,11.302735 c -5.870124,3.010642 -12.766594,3.010642 -18.636718,0 z"
     id="d" />
  <path
     style="color:#000000;fill:#000000;stroke-linecap:round;stroke-linejoin:round;-inkscape-stroke:none"
     d="M 12.75,4.5136719 C 5.7898969,8.5320979 1.5,15.963143 1.5,24 a 1.0001,1.0001 0 0 0 1,1 h 15.050781 a 1.0001,1.0001 0 0 0 1,-1 c 0,-1.948731 1.037008,-3.746332 2.72461,-4.720703 l -0.115235,-0.06641 a 1.0001,1.0001 0 0 0 0.615235,-0.798829 1.0001,1.0001 0 0 0 -0.267579,-0.464843 L 21.640625,17.914062 14.115234,4.8808594 A 1.0001,1.0001 0 0 0 12.75,4.5136719 Z m 0.201172,2.3476562 6.523437,11.3027339 C 17.93923,19.356678 16.948552,21.073935 16.683594,23 H 3.6328125 C 3.9608676,16.411566 7.409374,10.439556 12.951172,6.8613281 Z"
     id="e" />
</svg>
