<?xml version="1.0" encoding="UTF-8"?>
<svg id="a" version="1.1" viewBox="0 0 48 48" xmlns="http://www.w3.org/2000/svg">
 <defs id="defs1">
  <style id="style1">.b{fill:none;stroke:#000;stroke-width:2px;stroke-linecap:round;stroke-linejoin:round;}</style>
 </defs>
 <path id="path1" d="m19.898 24.078a1 1 0 0 0-1.084 0.9082 1 1 0 0 0 0.9082 1.084c0.18957 0.01684 0.13286-0.02166 0.23242 0.24414 0.09956 0.2658 0.15352 0.798 0.12109 1.3496a1 1 0 0 0 0.93945 1.0566 1 1 0 0 0 1.0566-0.93945c0.04138-0.70389 0.02525-1.4487-0.24414-2.168-0.26939-0.71924-0.99426-1.4521-1.9297-1.5352z" stroke-linecap="round" stroke-linejoin="round"/>
 <path id="path2" d="m20.725 18.176a1 1 0 0 0-1.1621 0.80664 1 1 0 0 0 0.80859 1.1621c0.35826 0.06444 0.72506 0.3516 0.93164 1.2812a1 1 0 0 0 1.1934 0.75977 1 1 0 0 0 0.75781-1.1934c-0.31962-1.4383-1.242-2.5848-2.5293-2.8164z" stroke-linecap="round" stroke-linejoin="round"/>
 <path id="path3" d="m18.078 14.527a1 1 0 0 0-0.64258 1.2598 1 1 0 0 0 1.2598 0.64258c0.1891-0.0613 0.28263-0.06973 0.4375 0.35742a1 1 0 0 0 1.2812 0.59961 1 1 0 0 0 0.59961-1.2812c-0.43293-1.1941-1.7396-1.9658-2.9355-1.5781z" stroke-linecap="round" stroke-linejoin="round"/>
 <path id="path4" d="m20.301 4.1035a1 1 0 0 0-0.61328 1.2734 1 1 0 0 0 1.2734 0.61328c-0.04954 0.017348-0.17439 0.00162-0.20117-0.013672-0.02678-0.015289 0.06271 0.029882 0.17578 0.2832a1 1 0 0 0 1.3203 0.50586 1 1 0 0 0 0.50586-1.3203c-0.23303-0.52208-0.55731-0.94674-1.0098-1.2051-0.45245-0.25834-1.0144-0.28967-1.4512-0.13672z" stroke-linecap="round" stroke-linejoin="round"/>
 <path id="path5" d="m26.611 2.0527a1.0001 1.0001 0 0 0-0.66211 1.1582s2.6166 12.121 3.3066 15.461a1 1 0 0 0-1.0488-0.25586c-0.90917 0.55216-1.3864 1.4578-1.3008 2.2383 0.04279 0.39024 0.19246 0.72124 0.39844 0.98633 0.20598 0.26508 0.44651 0.50504 0.91992 0.59375 0.26239 0.04917 0.96577 0.20217 1.7949-0.03125 0.41457-0.11671 0.90362-0.37444 1.2168-0.86523 0.31318-0.49079 0.38024-1.1221 0.25781-1.7578-0.17964-0.93279-0.88396-4.1521-1.6836-7.8711l4.0762 8.9082-3.709 8.2344a1.0001 1.0001 0 0 0-0.03125-0.09766s-0.22177-0.52768-0.38476-1.252-0.21732-1.6041-0.03516-2.1289a1.0001 1.0001 0 0 0-0.97656-1.3281c-1.0294 0.033-1.8742 0.13953-2.6152 0.43164-0.74107 0.29211-1.3639 0.82456-1.7363 1.5039-0.7448 1.3587-0.71484 3.0437-0.71484 5.5703a1 1 0 0 0 1 1 1 1 0 0 0 1-1c0-2.4984 0.13587-4.0021 0.46875-4.6094 0.16644-0.30363 0.32502-0.44909 0.7168-0.60352 0.15221-0.06 0.52726-0.06887 0.75586-0.11328-8.49e-4 0.62006 0.07178 1.2113 0.18555 1.7168 0.13864 0.61604 0.23582 0.81621 0.33594 1.082-0.22378 0.54494-0.5015 0.90966-0.75586 1.0664-0.29527 0.18196-0.45312 0.19336-0.45312 0.19336a1.0001 1.0001 0 0 0-0.88672 0.98828l-0.03516 7.0312a1.0001 1.0001 0 0 0 1.9102 0.41602l7.9707-17.695a1.0001 1.0001 0 0 0-2e-3 -0.82617l-8.0585-17.613a1.0001 1.0001 0 0 0-1.2246-0.53125zm2.8965 17.799c0.0024 0.01231 0.02128 0.0962 0.02344 0.10742 0.05758 0.29898 0.0031 0.32844 0.01953 0.30274 0.0164-0.0257 0.03306-0.01403-0.07227 0.01563-0.09512 0.02678-0.24018-2.63e-4 -0.40039-0.0039 0.03303-0.04593-0.05411-0.01356 0.16797-0.14844a1 1 0 0 0 0.26172-0.27344zm-0.375 11.318-1.0938 2.4297 0.0078-1.6602c0.17771-0.06893 0.19473-0.02456 0.39258-0.14648 0.22877-0.14098 0.46245-0.38664 0.69336-0.62305z" stroke-linecap="round" stroke-linejoin="round"/>
 <path id="path6" d="m28.102 24.078c-0.93543 0.08307-1.6603 0.81591-1.9297 1.5352-0.26939 0.71925-0.28552 1.4641-0.24414 2.168a1 1 0 0 0 1.0566 0.93945 1 1 0 0 0 0.93945-1.0566c-0.03242-0.55161 0.02154-1.0838 0.12109-1.3496 0.09956-0.2658 0.04285-0.22731 0.23242-0.24414a1 1 0 0 0 0.9082-1.084 1 1 0 0 0-1.084-0.9082z" stroke-linecap="round" stroke-linejoin="round"/>
 <path id="path7" d="m26.053 12.428a1 1 0 0 0-1 1c0 0.46362-0.08961 0.60395-0.20703 0.74414-0.11742 0.14019-0.34067 0.28662-0.68164 0.47461-0.34097 0.18799-0.79624 0.4102-1.2129 0.85742s-0.70898 1.141-0.70898 1.9238c0 0.64923 0.31229 1.2175 0.64453 1.5879 0.33224 0.37041 0.68095 0.61564 0.9707 0.84766 0.5795 0.46404 0.86523 0.68268 0.86523 1.3457a1 1 0 0 0 1 1 1 1 0 0 0 1-1c0-1.4464-0.95544-2.3779-1.6152-2.9062-0.3299-0.26417-0.59993-0.47533-0.73242-0.62305-0.13249-0.14771-0.13281-0.16033-0.13281-0.25195 0-0.38035 0.0619-0.4425 0.17188-0.56055 0.10998-0.11805 0.35559-0.2696 0.7168-0.46875 0.36121-0.19915 0.83884-0.4548 1.248-0.94336 0.40921-0.48856 0.67383-1.2009 0.67383-2.0273a1 1 0 0 0-1-1z" stroke-linecap="round" stroke-linejoin="round"/>
 <path id="path8" d="m27.275 18.176c-1.2873 0.23156-2.2097 1.3781-2.5293 2.8164a1 1 0 0 0 0.75781 1.1934 1 1 0 0 0 1.1934-0.75977c0.20658-0.92966 0.57338-1.2168 0.93164-1.2812a1 1 0 0 0 0.80859-1.1621 1 1 0 0 0-1.1621-0.80664z" stroke-linecap="round" stroke-linejoin="round"/>
 <path id="path9" d="m29.922 14.527c-1.1959-0.3877-2.5026 0.38407-2.9355 1.5781a1 1 0 0 0 0.59961 1.2812 1 1 0 0 0 1.2812-0.59961c0.15487-0.42715 0.2484-0.41872 0.4375-0.35742a1 1 0 0 0 1.2598-0.64258 1 1 0 0 0-0.64258-1.2598z" stroke-linecap="round" stroke-linejoin="round"/>
 <path id="path10" d="m27.699 4.1035c-0.43674-0.15295-0.99872-0.12162-1.4512 0.13672-0.45245 0.25834-0.77674 0.683-1.0098 1.2051a1 1 0 0 0 0.50586 1.3203 1 1 0 0 0 1.3203-0.50586c0.11307-0.25332 0.20256-0.29849 0.17578-0.2832-0.02678 0.015289-0.15164 0.03102-0.20117 0.013672a1 1 0 0 0 1.2734-0.61328 1 1 0 0 0-0.61328-1.2734z" stroke-linecap="round" stroke-linejoin="round"/>
 <path id="path11" d="m20.908 2.0137a1.0001 1.0001 0 0 0-0.74414 0.57031l-8.0586 17.613a1.0001 1.0001 0 0 0-2e-3 0.82617l7.9707 17.695a1.0001 1.0001 0 0 0 1.166 0.45312l-0.27734 0.44727a1.0001 1.0001 0 0 0-0.0625 0.93555l2.1875 4.8555a1.0001 1.0001 0 0 0 1.8242 0l2.1875-4.8555a1.0001 1.0001 0 0 0-1.7832-0.90234s-0.38612 0.73242-1.3164 0.73242c-0.4362 0-0.73202-0.17285-0.94531-0.34375l1.3613-2.2012a1.0001 1.0001 0 0 0 0.08008-0.89648l-0.73438-1.8438 1.7852-3.043a1.0001 1.0001 0 0 0 0.13477-0.54883c-0.10506-2.3607-0.42402-4.1729-1.4766-5.502-1.0525-1.329-2.7527-1.9016-4.9609-1.9609a1.0001 1.0001 0 0 0-0.9707 1.3281c0.18216 0.52478 0.12784 1.4046-0.03516 2.1289-0.163 0.72427-0.38476 1.252-0.38476 1.252a1.0001 1.0001 0 0 0-0.0078 0.15039l-3.7324-8.2871 4.0762-8.9082c-0.79963 3.719-1.504 6.9383-1.6836 7.8711-0.12243 0.63571-0.05536 1.267 0.25781 1.7578 0.31317 0.49078 0.80223 0.74852 1.2168 0.86523 0.82913 0.23344 1.5325 0.08043 1.7949 0.03125 0.47342-0.08871 0.71394-0.32867 0.91992-0.59375 0.20598-0.26508 0.35564-0.59609 0.39844-0.98633 0.08559-0.78048-0.39161-1.6861-1.3008-2.2383a1 1 0 0 0-1.0488 0.25586c0.69001-3.3403 3.3066-15.461 3.3066-15.461a1.0001 1.0001 0 0 0-1.1425-1.1973zm-2.3262 17.412a1 1 0 0 0 0.17188 0.69922c0.22208 0.13487 0.13494 0.10251 0.16797 0.14844-0.16021 0.0036-0.30527 0.03069-0.40039 0.0039-0.10533-0.02966-0.08867-0.04133-0.07227-0.01563s-0.03804-0.0038 0.01953-0.30274c0.01072-0.05566 0.09687-0.45161 0.11328-0.5332zm1.793 6.7988c1.0545 0.17353 1.8254 0.4701 2.2637 1.0234 0.56883 0.71826 0.8951 2.0597 1.0117 4.0859l-1.6855 2.877-0.01563-2.9395a1.0001 1.0001 0 0 0-0.88671-0.98828s-0.15786-0.0114-0.45312-0.19336c-0.25436-0.15674-0.53208-0.52147-0.75586-1.0664 0.10012-0.26582 0.1973-0.46599 0.33594-1.082 0.11377-0.50553 0.1864-1.0967 0.18555-1.7168zm-1.5078 4.9453c0.23091 0.23641 0.46459 0.48207 0.69336 0.62305 0.19785 0.12192 0.21487 0.07755 0.39258 0.14648l0.0078 1.6602zm3.1055 4.8438 0.47852 1.2012-0.46875 0.75586zm1.9375 6.3535c0.0336 9.63e-4 0.05566 0.01758 0.08984 0.01758s0.05624-0.01662 0.08984-0.01758l-0.089836 0.19727z" stroke-linecap="round" stroke-linejoin="round"/>
 <path id="path12" d="m22.932 6.5879a1 1 0 0 0-1.2715 0.61914c-0.27619 0.80229-0.19906 1.5931 0.02539 2.2168 0.22446 0.62368 0.5655 1.0977 0.97656 1.4375 0.65146 0.53856 1.3744 0.49655 2.0684 0.31445 0.69397-0.18209 1.4048-0.59996 1.9434-1.2969a1 1 0 0 0-0.17969-1.4023 1 1 0 0 0-1.4023 0.17969c-0.24618 0.31859-0.58691 0.51188-0.86914 0.58594-0.28223 0.074056-0.45846-0.065487-0.28711 0.076172-0.06904-0.057077-0.26854-0.29817-0.36719-0.57227-0.09864-0.2741-0.12909-0.56476-0.01758-0.88867a1 1 0 0 0-0.61914-1.2695z" stroke-linecap="round" stroke-linejoin="round"/>
 <path id="path13" d="m22.639 8.1348a1 1 0 0 0-0.99414 1.0059c0.0016 0.2273 0.09986-0.030176-0.13086 0.21094-0.23072 0.24111-0.69519 0.86819-0.76367 1.709-0.02195 0.26944-0.17633 0.54795-0.29492 1.125s5e-3 1.4201 0.53516 2.1523a1.0001 1.0001 0 0 0 1.7891-0.37695c0.15406-0.71987 0.39958-1.0123 0.58594-1.1445 0.18636-0.13227 0.38339-0.16418 0.6582-0.11133 0.27481 0.05285 0.58977 0.21984 0.79102 0.40625s0.23633 0.37135 0.23633 0.31641c0 0.2223-0.0056 0.21508-0.26562 0.39648-0.26005 0.1814-0.76636 0.39043-1.3438 0.63281-0.57739 0.24238-1.2373 0.5259-1.8164 1.0586s-1.0176 1.3783-1.0176 2.3691c0 0.87788 0.1949 1.5472 0.36133 2.0527s0.28681 0.83498 0.31055 1.3203a1 1 0 0 0 1.0488 0.94922 1 1 0 0 0 0.94922-1.0469c-0.03856-0.78857-0.25441-1.3805-0.4082-1.8477-0.1538-0.4672-0.26172-0.82402-0.26172-1.4277 0-0.49083 0.11682-0.66261 0.37109-0.89648 0.25427-0.23388 0.70444-0.4634 1.2383-0.6875s1.1395-0.43597 1.7129-0.83594c0.57337-0.39997 1.1211-1.1482 1.1211-2.0371 0-0.76459-0.40012-1.3415-0.87695-1.7832-0.47684-0.44168-1.0807-0.77107-1.7734-0.9043-0.47821-0.09196-1.0038-0.0139-1.5156 0.16406 0.02824-0.02822 0.0066-0.09928 0.07422-0.16992 0.19448-0.20324 0.69102-0.84192 0.68555-1.6074a1 1 0 0 0-1.0059-0.99219z" stroke-linecap="round" stroke-linejoin="round"/>
 <path id="path14" d="m24.246 9.2363c-0.45934 0.1007-0.765 0.4012-0.94727 0.6875-0.18227 0.2863-0.27353 0.58735-0.30273 0.9043-0.05842 0.6339 0.21742 1.4982 1.0156 1.8574a1 1 0 0 0 1.3223-0.50195 1 1 0 0 0-0.28516-1.168 1 1 0 0 0 0.38867-1.0176 1 1 0 0 0-1.1914-0.76172z" stroke-linecap="round" stroke-linejoin="round"/>
</svg>
