<?xml version="1.0" encoding="UTF-8"?>
<svg id="svg10" version="1.1" viewBox="0 0 48 48" xmlns="http://www.w3.org/2000/svg">
 <defs id="defs1">
  <style id="style1">.a{fill:#000;}.b,.c{fill:none;stroke:#000;stroke-width:2px;stroke-linecap:round;}.c{stroke-linejoin:round;}</style>
 </defs>
 <circle id="circle1" class="a" cx="13.8" cy="21.181" r="1.5"/>
 <path id="path1" d="m13.379 22.189a1 1 0 0 0-0.71289 0.28125c-0.52045 0.50191-0.90499 0.86361-1.1543 1.0547-0.24931 0.19108-0.29693 0.16542-0.22852 0.16602 0.06842 6e-4 0.0293 0.02858-0.20898-0.16406-0.23828-0.19265-0.60685-0.55872-1.1055-1.0664a1 1 0 0 0-1.4141-0.01367 1 1 0 0 0-0.011719 1.4141c0.49958 0.50866 0.88259 0.90508 1.2754 1.2227 0.3928 0.31757 0.86272 0.6023 1.4473 0.60742 0.58454 0.0051 1.0589-0.26847 1.4629-0.57812s0.80393-0.69949 1.3262-1.2031a1 1 0 0 0 0.02539-1.4141 1 1 0 0 0-0.70117-0.30664z" stop-color="#000000" stroke-linecap="round"/>
 <path id="path2" d="m22.951 7.2285c-4.8626 0.46676-9.2149 2.9146-10.885 7.293a1 1 0 0 0 0.57812 1.291 1 1 0 0 0 1.2891-0.57812c3.5559-9.3232 24.278-8.3309 25.52 6.5645a1 1 0 0 0 1.0801 0.91406 1 1 0 0 0 0.91406-1.0801c-0.87137-10.457-10.392-15.182-18.496-14.404z" stop-color="#000000" stroke-linecap="round" stroke-linejoin="round"/>
 <path id="path3" d="m12.396 13.996c-4.7292-0.15567-8.7194 3.5586-8.8965 8.2891a1.0001 1.0001 0 0 0 0 0.0098c-0.057131 2.0118 0.70557 3.9542 2.0898 5.4121a1 1 0 0 0-0.00195 0.01953c0.010511 0.01234 0.024608 0.0209 0.035156 0.0332 0.00435 0.0045 0.0054 0.01113 0.00977 0.01563a1 1 0 0 0 0.00586 0c1.4147 1.6452 3.1545 2.9817 5.1152 3.9121a1 1 0 0 0 1.332-0.47461 1 1 0 0 0-0.47461-1.332c-1.727-0.81953-3.2603-1.9962-4.5-3.4512a1 1 0 0 0-0.042969-0.02148 1 1 0 0 0 0-0.02539c-1.0445-1.0764-1.6099-2.5281-1.5684-4.0273 0.13898-3.6557 3.1871-6.4886 6.8438-6.3613a1.0001 1.0001 0 0 0 0.03516 0c3.9496 0 6.5207 2.1824 6.8516 5.7422a1 1 0 0 0 0.0039 2e-3 1 1 0 0 0-2e-3 2e-3c0.1268 1.3107-0.06114 2.3085-0.04883 3.3828s0.40892 2.2966 1.5625 3.2148a1.0001 1.0001 0 0 0 0.09375 0.06641c3.2146 2.0084 8.1591 1.7561 12.43 0.47461 2.1353-0.64075 4.1033-1.5615 5.5996-2.7363 0.90781-0.71274 1.5529-1.5809 2.0078-2.5176 0.24048 0.08857 0.50266 0.12266 0.77539 0.12891-0.72049 1.2988-1.5325 2.544-2.5254 3.6543a1 1 0 0 0 0.08008 1.4121 1 1 0 0 0 1.4121-0.07813c1.5792-1.766 2.8613-3.7755 3.7988-5.9512a1.0001 1.0001 0 0 0-1.2578-1.3359c-1.2413 0.44764-1.6839 0.32185-1.6406 0.34375 0.04326 0.0219 0.03384 0.02614-0.12891-0.42383a1 1 0 0 0-0.10156-0.04687 1 1 0 0 0-0.8418-0.61328 1 1 0 0 0-0.24609 0.10352 1 1 0 0 0-0.0918-0.04297 1 1 0 0 0-0.16406 0.15039 1 1 0 0 0-0.27148 0.24805 1 1 0 0 0-0.13867 0.33789 1 1 0 0 0-0.08594 0.20703c0.0032 0.90358-0.59776 1.8948-1.8164 2.8516-1.2186 0.95679-2.989 1.8079-4.9375 2.3926-3.8727 1.1621-8.4345 1.1711-10.744-0.23633-0.70049-0.57295-0.75895-0.87401-0.76758-1.627-0.0089-0.77545 0.19132-1.9678 0.03906-3.5488-1.22e-4 -0.0013 1.23e-4 -0.0026 0-0.0039a1 1 0 0 0-2e-3 -2e-3c-0.4207-4.491-4.0833-7.5408-8.8242-7.5488zm22.863 16.574c-2.0321 1.1846-4.2714 1.9722-6.5977 2.3203a1 1 0 0 0-0.8418 1.1367 1 1 0 0 0 1.1387 0.8418c2.577-0.38567 5.0555-1.258 7.3066-2.5703a1 1 0 0 0 0.36133-1.3672 1 1 0 0 0-1.3672-0.36133zm-19.629 1.0527a1 1 0 0 0-1.3164 0.51953 1 1 0 0 0 0.51953 1.3164c2.4255 1.0547 5.0108 1.6928 7.6484 1.8887a1 1 0 0 0 1.0703-0.92383 1 1 0 0 0-0.92188-1.0703c-2.4137-0.17925-4.7804-0.76535-7-1.7305z" stop-color="#000000" stroke-linecap="round" stroke-linejoin="round"/>
 <path id="path4" d="m11.562 29.859a1 1 0 0 0-1.3047 0.54492c-0.72941 1.7804-1.1409 3.6753-1.2188 5.5977-0.028054 0.5398 0.30603 0.96512 0.57812 1.1758 0.273 0.21136 0.54491 0.32522 0.83594 0.42383 0.58205 0.19722 1.2499 0.30523 1.9336 0.36133 0.68369 0.0561 1.3677 0.05477 1.9688-0.02734 0.30052-0.04106 0.57892-0.09731 0.86719-0.21875 0.28827-0.12144 0.6924-0.32766 0.85938-0.88281a1.0001 1.0001 0 0 0 0.01563-0.05859c0.33922-1.4465 0.38028-2.9476 0.11914-4.4102a1 1 0 0 0-1.1602-0.80859 1 1 0 0 0-0.80859 1.1602c0.19073 1.0682 0.11367 2.1567-0.08789 3.2207-0.0356 0.0066-0.0356 0.01203-0.07617 0.01758-0.38422 0.05249-0.96828 0.06002-1.5332 0.01367-0.55584-0.04561-1.1006-0.14834-1.4316-0.25781 0.10422-1.5584 0.39746-3.1019 0.99023-4.5488a1 1 0 0 0-0.54688-1.3027z" stop-color="#000000" stroke-linecap="round" stroke-linejoin="round"/>
 <path id="path5" d="m28.408 32.963a1 1 0 0 0-0.51367 1.3184c0.15043 0.34386 0.39564 1.3139 0.48828 2.252 0.08624 0.87327-0.0033 1.7024-0.125 2.0801-0.10371 0.03701-0.2398 0.08229-0.45508 0.11719-0.51909 0.08414-1.2645 0.1106-1.9961 0.07227-0.73159-0.03834-1.4638-0.14184-1.9609-0.27344-0.19396-0.05134-0.30288-0.10086-0.39648-0.14258-0.10156-0.44106-0.17872-0.76684-0.17774-1.1895 0.0012-0.51357 0.08267-1.2898 0.27539-2.7129a1 1 0 0 0-0.85547-1.125 1 1 0 0 0-1.127 0.85547c-0.19508 1.4405-0.29132 2.2711-0.29297 2.9766-0.0016 0.70551 0.10947 1.2501 0.27148 1.9199 0.13861 0.57296 0.51937 0.81409 0.82226 0.98242 0.3029 0.16833 0.61929 0.27664 0.96875 0.36914 0.69892 0.185 1.5273 0.29182 2.3691 0.33594 0.84187 0.04411 1.6841 0.02326 2.418-0.0957 0.36695-0.05948 0.70668-0.13888 1.0352-0.2832s0.70937-0.35739 0.92578-0.85547c0.43108-0.99134 0.4005-2.1179 0.29102-3.2266-0.10949-1.1087-0.32611-2.127-0.64648-2.8594a1 1 0 0 0-1.3184-0.51562z" stop-color="#000000" stroke-linecap="round" stroke-linejoin="round"/>
 <path id="path6" d="m40.58 27.367a1 1 0 0 0-1.416 2e-3c-2.52e-4 2.53e-4 -0.15603 0.20664-0.15625 0.20703-2.23e-4 3.87e-4 -0.05662 0.10691-0.07227 0.14844-0.03129 0.08306-0.04114 0.13864-0.04883 0.18164-0.01538 0.08599-0.01476 0.12851-0.01563 0.16406-0.0017 0.0711 0.0012 0.10491 0.0039 0.14062 0.0053 0.07143 0.01232 0.13292 0.02148 0.20508 0.01833 0.14432 0.0438 0.32462 0.07422 0.54102 0.06083 0.4328 0.13895 1.0012 0.19336 1.5742 0.05441 0.57302 0.08256 1.1567 0.05859 1.5723-0.01198 0.20777-0.07795 0.35506-0.10156 0.41992-0.41362 0.30255-0.97117 0.62021-1.5254 0.80274-0.48178 0.15866-0.79763 0.14063-1.0273 0.12891-0.01402-0.16182-0.03055-0.3357-0.01563-0.56641 0.04036-0.62371 0.17383-1.2559 0.17383-1.2559a1 1 0 0 0-0.76562-1.1895 1 1 0 0 0-1.1875 0.76562s-0.16406 0.73589-0.2168 1.5508c-0.02637 0.40744-0.03402 0.83644 0.05469 1.2832s0.32214 1.0966 1.0371 1.3398c0.87685 0.29847 1.7317 0.11864 2.5723-0.1582 0.84062-0.27684 1.6544-0.69997 2.3066-1.2227 0.71488-0.57281 0.65689-1.1867 0.69141-1.7852 0.03451-0.59849-5e-3 -1.2486-0.06445-1.875-0.05948-0.62637-0.14136-1.2227-0.20312-1.6621-0.03088-0.2197-0.05585-0.40175-0.07031-0.51562-0.0061-0.04817-0.0086-0.07465-0.0098-0.08594a1 1 0 0 0-2e-3 -0.01172 1 1 0 0 0-0.28906-0.69922zm0.28906 0.7168c4.83e-4 0.0062 7.62e-4 0.0039 0 0.03516-6.15e-4 0.02521 5.86e-4 0.05893-0.01367 0.13867-0.0071 0.03987-0.01637 0.09089-0.04687 0.17188-0.01525 0.04049-0.07054 0.14882-0.07031 0.14844 2.24e-4 -3.87e-4 -0.1565 0.20338-0.15625 0.20312a1 1 0 0 0 0.28711-0.69727z" stop-color="#000000" stroke-linecap="round" stroke-linejoin="round"/>
 <path id="path7" d="m16.34 9.6211a1 1 0 0 0-0.35742 1.3672l1.7051 2.916a1.0001 1.0001 0 0 0 0.50586 0.42969l5.8047 2.2227a1.0001 1.0001 0 0 0 0.42578 0.0625l8.5957-0.58984a1.0001 1.0001 0 0 0 0.79492-0.49023l1.9082-3.2578a1 1 0 0 0-0.35742-1.3672 1 1 0 0 0-1.3672 0.35742l-1.6426 2.7988-7.8477 0.53906-5.2715-2.0176-1.5293-2.6133a1 1 0 0 0-1.3672-0.35742z" stop-color="#000000" stroke-linecap="round" stroke-linejoin="round"/>
 <path id="path8" d="m18.609 12.402a1 1 0 0 0-0.72266 0.25l-2.5586 2.2734a1 1 0 0 0-0.08398 1.4102 1 1 0 0 0 1.4121 0.08398l2.5586-2.2715a1 1 0 0 0 0.08203-1.4121 1 1 0 0 0-0.6875-0.33398z" stop-color="#000000" stroke-linecap="round" stroke-linejoin="round"/>
 <path id="path9" d="m24.348 14.623a1 1 0 0 0-0.99219 1.0078l0.09961 12.969a1 1 0 0 0 1.0078 0.99219 1 1 0 0 0 0.99219-1.0078l-0.09961-12.969a1 1 0 0 0-1.0078-0.99219z" stop-color="#000000" stroke-linecap="round" stroke-linejoin="round"/>
 <path id="path10" d="m32.494 14.143a1 1 0 0 0-0.43359 1.3477l5.1211 9.9609a1 1 0 0 0 1.3457 0.43359 1 1 0 0 0 0.43164-1.3477l-5.1191-9.9609a1 1 0 0 0-1.3457-0.43359z" stop-color="#000000" stroke-linecap="round" stroke-linejoin="round"/>
 <circle id="circle10" class="a" cx="8.7667" cy="21.181" r="1.5"/>
</svg>
