<?xml version="1.0" encoding="UTF-8"?>
<svg id="b" version="1.1" viewBox="0 0 48 48" xmlns="http://www.w3.org/2000/svg">
 <defs id="defs1">
  <style id="style1">.c{fill:none;stroke:#000;stroke-width:2px;stroke-linecap:round;stroke-linejoin:round;}</style>
 </defs>
 <path id="path1" d="m32.236 13.654c-0.8748 0.0027-1.7806 0.10417-2.707 0.26172-3.7057 0.63018-7.8228 2.1983-11.373 2.8887-4.1504 0.807-7.3989 1.99-9.4375 3.5605-1.0193 0.78529-1.7675 1.7003-2.0293 2.7891-0.26176 1.0888 0.058911 2.2644 0.82812 3.2559 1.1645 1.5009 2.8299 2.2973 4.373 2.7363a1 1 0 0 0 1.2344-0.68945 1 1 0 0 0-0.6875-1.2344c-1.2897-0.36694-2.538-1.0055-3.3398-2.0391-0.49994-0.64438-0.57661-1.0895-0.46289-1.5625s0.51186-1.0611 1.3047-1.6719c1.5857-1.2216 4.6272-2.4092 8.5996-3.1816 3.8122-0.74127 7.9298-2.3017 11.324-2.8789 1.6972-0.28862 3.1916-0.32194 4.3223 0.01367 1.1307 0.33561 1.9385 0.95727 2.541 2.2949 0.56955 1.2643 0.56728 2.1986 0.30664 3.002-0.26064 0.80337-0.82726 1.5096-1.5508 2.1055a1 1 0 0 0-0.13672 1.4062 1 1 0 0 0 1.4082 0.13672c0.92228-0.7596 1.7668-1.7526 2.1816-3.0312 0.41483-1.2786 0.34979-2.8089-0.38477-4.4395-0.80765-1.793-2.1964-2.9175-3.7969-3.3926-0.80026-0.23754-1.6428-0.33277-2.5176-0.33008z" stroke-linecap="round" stroke-linejoin="round"/>
 <path id="path2" d="m25.928 3.5938c-2.6299-0.30515-5.7945 0.12329-9.3438 1.2227-3.3392 1.0343-5.5682 2.6055-6.959 3.9355-1.3908 1.33-1.9863 2.4961-1.9863 2.4961a1.0001 1.0001 0 0 0 0.013672 0.92383c1.6136 2.9769 2.4058 4.9345 2.7891 6.1152 0.19162 0.59036 0.28088 0.98591 0.32227 1.2168 0.04139 0.23089 0.03516 0.22852 0.03516 0.22852a1 1 0 0 0 0.99609 1.0039 1 1 0 0 0 1.0039-0.99805s-0.0066-0.25229-0.06641-0.58594c-0.0598-0.33365-0.17272-0.8171-0.38867-1.4824-0.39135-1.2057-1.2894-3.2414-2.6562-5.8457 0.1163-0.2107 0.32553-0.67565 1.3203-1.627 1.1899-1.1379 3.133-2.5307 6.168-3.4707 3.3648-1.0422 6.2942-1.403 8.5215-1.1445 2.1331 0.24751 3.5246 1.0395 4.3418 2.2637v6.875a1 1 0 0 0 1 1 1 1 0 0 0 1-1v-7.2559a1.0001 1.0001 0 0 0-0.14453-0.51758c-1.1774-1.9512-3.3369-3.0484-5.9668-3.3535z" stroke-linecap="round" stroke-linejoin="round"/>
 <path id="path3" d="m28.836 18.717c-2.567-0.05151-5.2552 0.64581-7.9297 1.3145-3.8292 0.95731-6.6616 2.3151-8.3164 4.5664-1.6548 2.2514-1.9365 5.2533-1.0234 8.9941a1 1 0 0 0 1.209 0.73438 1 1 0 0 0 0.73438-1.207c-0.83549-3.4229-0.53535-5.6669 0.69141-7.3359 1.2268-1.669 3.5747-2.9064 7.1914-3.8105 3.5618-0.89048 6.8893-1.6526 9.4648-0.98828s4.6823 2.6041 6.0977 7.959a1 1 0 0 0 1.2207 0.71289 1 1 0 0 0 0.71289-1.2227c-1.5178-5.7426-4.236-8.5367-7.5312-9.3867-0.82381-0.2125-1.6658-0.31291-2.5215-0.33008z" stroke-linecap="round" stroke-linejoin="round"/>
 <path id="path4" d="m39.324 27.826c-1.2377-0.19122-2.4516 0.33373-3.0938 1.4336a1 1 0 0 0 0.35938 1.3672 1 1 0 0 0 1.3672-0.35938c0.12228-0.20944 0.7521-0.5128 1.0625-0.46484 0.1552 0.02398 0.20184 0.04987 0.26953 0.1582 0.06769 0.10834 0.16754 0.38845 0.08594 0.97461-0.12937 0.92924-0.41983 1.172-0.54102 1.2363-0.12118 0.06431-0.24976 0.03079-0.33789-0.03125a1.0001 1.0001 0 0 0-1.5645 0.66992c-0.11931 0.79625-1.1181 3.8139-3.3906 6.1562-2.2725 2.3424-5.7347 4.2039-11.273 3.3105-3.241-0.52276-4.9753-1.7841-5.9785-3.2695a1 1 0 0 0-1.3887-0.26953 1 1 0 0 0-0.26758 1.3887c1.3247 1.9614 3.6694 3.5368 7.3164 4.125 6.1189 0.98688 10.392-1.1766 13.027-3.8926 2.1858-2.253 3.1306-4.5546 3.5723-6.1758 0.40212 0.02669 0.82377-0.03244 1.2227-0.24414 0.83847-0.44499 1.3997-1.4046 1.584-2.7285 0.12519-0.89924 0.01644-1.6903-0.37109-2.3105-0.38754-0.62021-1.0413-0.97861-1.6602-1.0742z" stroke-linecap="round" stroke-linejoin="round"/>
 <path id="path5" d="m30.334 31.242a1.0001 1.0001 0 0 0-0.87891 0.79492c-0.13689 0.6709-0.4177 1.1724-0.69336 1.4141-0.27566 0.2417-0.50432 0.33249-1.0449 0.18164-0.54726-0.1527-0.92666-0.52209-1.6914-1.0469-0.76475-0.52478-1.8725-1.0702-3.5742-1.2051a1 1 0 0 0-1.0762 0.91797 1 1 0 0 0 0.91797 1.0762c1.3819 0.10953 2.0031 0.44871 2.6016 0.85938s1.2154 1.0277 2.2852 1.3262c0.96104 0.26816 1.9016 0.03275 2.6191-0.46484-0.0103 0.09347 0.04285 0.14751 0.02734 0.24414-0.16094 1.0031-0.55142 1.4409-1.168 1.7559s-1.5425 0.43014-2.5801 0.33398c-2.0752-0.19231-4.5459-1.2375-5.5039-1.9043a1.0001 1.0001 0 0 0-1.4043 0.26562c-0.64202 0.96301-2.1859 1.8324-3.6387 2.1074-0.72636 0.13753-1.4181 0.13217-1.9141 0.0078-0.49594-0.12436-0.75495-0.32208-0.89258-0.58203-0.25491-0.48148-0.3216-0.99888-0.32226-1.5059 0.39462 0.29063 0.85068 0.51265 1.3418 0.5293 0.72539 0.02459 1.2189-0.41853 1.5332-0.76172 0.31427-0.34319 0.55666-0.69311 0.82031-0.99414 0.5273-0.60206 0.9352-0.9938 1.9941-0.88086a1 1 0 0 0 1.0996-0.88867 1 1 0 0 0-0.88867-1.0996c-1.7615-0.18786-3.0094 0.75399-3.709 1.5527-0.34978 0.39937-0.61349 0.76708-0.79102 0.96094-0.17752 0.19386-0.16097 0.10749 0.0098 0.11328-0.34204-0.01159-0.18854 0.05111-0.29297-0.11914-0.10443-0.17025-0.28267-0.71384-0.51172-1.5371a1.0001 1.0001 0 0 0-1.8457-0.20508s-1.6904 2.968-0.20508 5.7734c0.45467 0.8588 1.2989 1.3646 2.1738 1.584 0.8749 0.21938 1.824 0.19734 2.7734 0.01758 1.5968-0.30233 3.1175-1.143 4.2422-2.3398 1.4519 0.85081 3.5313 1.693 5.748 1.8984 1.2704 0.11773 2.5546 0.02678 3.6738-0.54492 1.1192-0.5717 1.9891-1.7023 2.2324-3.2188 0.23127-1.441 0.01345-2.7377-0.44726-3.8145a1.0001 1.0001 0 0 0-1.0195-0.60156z" stroke-linecap="round" stroke-linejoin="round"/>
 <path id="path6" d="m22.271 29.393a1 1 0 0 0-0.76172 0.07031 1 1 0 0 0-0.41797 1.3516c0.34239 0.64837 0.33039 1.0913 0.20508 1.3613-0.12532 0.26999-0.41822 0.54889-1.2148 0.68164-0.27724 0.0462-0.3878 0.0034-0.50391-0.06836-0.1161-0.07174-0.24574-0.21322-0.35352-0.43359-0.21555-0.44075-0.24989-1.1938-0.19141-1.4199a1 1 0 0 0-0.7168-1.2188 1 1 0 0 0-1.2188 0.71875c-0.22352 0.86443-0.1328 1.8524 0.33008 2.7988 0.23144 0.47324 0.57976 0.93587 1.0977 1.2559 0.5179 0.31999 1.1968 0.4545 1.8848 0.33984 1.2341-0.20565 2.2483-0.83679 2.7012-1.8125 0.45288-0.97571 0.29131-2.1117-0.25-3.1367a1 1 0 0 0-0.58984-0.48828z" stroke-linecap="round" stroke-linejoin="round"/>
 <path id="path7" d="m27.25 21.488c-0.54236-0.03918-1.0726 0.0061-1.5664 0.11914a1 1 0 0 0-0.75195 1.1973 1 1 0 0 0 1.1973 0.75195c0.57309-0.13121 1.3547-0.09757 2.0039 0.16602 0.64925 0.26359 1.1693 0.7014 1.4629 1.4844a1 1 0 0 0 1.2871 0.58594 1 1 0 0 0 0.58594-1.2871c-0.49609-1.3229-1.5081-2.1999-2.584-2.6367-0.53796-0.21841-1.0924-0.34168-1.6348-0.38086z" stroke-linecap="round" stroke-linejoin="round"/>
 <path id="line7" d="m36.662 24.887-1.8184 0.59961a1 1 0 0 0-0.63672 1.2637 1 1 0 0 0 1.2637 0.63477l1.8184-0.59961a1 1 0 0 0 0.63672-1.2617 1 1 0 0 0-1.2637-0.63672z" stroke-linecap="round" stroke-linejoin="round"/>
 <path id="line8" d="m37.266 26.49-2.4023 0.73828a1 1 0 0 0-0.66211 1.25 1 1 0 0 0 1.25 0.66211l2.4023-0.73828a1 1 0 0 0 0.66211-1.25 1 1 0 0 0-1.25-0.66211z" stroke-linecap="round" stroke-linejoin="round"/>
 <path id="path8" d="m24.141 37.221a1 1 0 0 0-0.58398 0.49609c-0.5343 1.0438-1.0876 1.5479-1.5684 1.7832s-0.93468 0.24184-1.4258 0.10742c-0.4911-0.13442-0.99601-0.43454-1.3848-0.77734-0.38875-0.3428-0.65474-0.75672-0.70117-0.88086a1 1 0 0 0-1.2871-0.58594 1 1 0 0 0-0.58594 1.2871c0.23497 0.62831 0.67068 1.1671 1.252 1.6797 0.58127 0.51257 1.3147 0.97081 2.1777 1.207 0.86307 0.23622 1.8809 0.22426 2.834-0.24219 0.95304-0.46645 1.796-1.348 2.4707-2.666a1 1 0 0 0-0.43555-1.3457 1 1 0 0 0-0.76172-0.0625z" stroke-linecap="round" stroke-linejoin="round"/>
 <path id="path9" d="m15.572 22.178a1 1 0 0 0-0.95898 1.0391 1 1 0 0 0 1.0391 0.95898c0.66831-0.02689 1.1043 0.13954 1.3848 0.29492 0.28046 0.15538 0.33984 0.24023 0.33984 0.24023a1 1 0 0 0 1.4082 0.12109 1 1 0 0 0 0.11914-1.4102s-0.34464-0.39435-0.89844-0.70117c-0.55379-0.30682-1.3819-0.58528-2.4336-0.54297z" stroke-linecap="round" stroke-linejoin="round"/>
 <path id="ellipse9" d="m15.752 25.027c-1.4674 0-2.4531 1.3604-2.4531 2.7871s0.98575 2.7871 2.4531 2.7871c1.4674 0 2.4551-1.3604 2.4551-2.7871s-0.9877-2.7871-2.4551-2.7871zm0 2c0.13812 0 0.45508 0.23936 0.45508 0.78711s-0.31696 0.78711-0.45508 0.78711c-0.13812 0-0.45312-0.23936-0.45312-0.78711s0.31501-0.78711 0.45312-0.78711z" stroke-linecap="round" stroke-linejoin="round"/>
 <path id="ellipse10" d="m26.77 24.48c-1.4681 0-2.4609 1.3581-2.4609 2.7871s0.99279 2.7871 2.4609 2.7871c1.4681 0 2.4629-1.3581 2.4629-2.7871s-0.99475-2.7871-2.4629-2.7871zm0 2c0.14607 0 0.46289 0.24175 0.46289 0.78711s-0.31682 0.78711-0.46289 0.78711-0.46094-0.24175-0.46094-0.78711 0.31486-0.78711 0.46094-0.78711z" stroke-linecap="round" stroke-linejoin="round"/>
</svg>
