<?xml version="1.0" encoding="UTF-8"?>
<svg id="b" version="1.1" viewBox="0 0 48 48" xmlns="http://www.w3.org/2000/svg">
 <defs id="defs4">
  <style id="style2">.c{fill:none;stroke:#000;stroke-linecap:round;stroke-linejoin:round;}</style>
 </defs>
 <g id="g20" stroke-linecap="round" stroke-linejoin="round">
  <path id="line6" d="m4.5 10.598a1 1 0 0 0-1 1 1 1 0 0 0 1 1h2.0684a1 1 0 0 0 1-1 1 1 0 0 0-1-1z" color="#000000" style="-inkscape-stroke:none"/>
  <path id="line8" d="m41.432 10.598a1 1 0 0 0-1 1 1 1 0 0 0 1 1h2.0684a1 1 0 0 0 1-1 1 1 0 0 0-1-1z" color="#000000" style="-inkscape-stroke:none"/>
  <g id="g18">
   <path id="polygon10" d="m6.5684 10.598a1.0001 1.0001 0 0 0-1 1v18.873a1.0001 1.0001 0 0 0 1.5996 0.79883l7.2793-5.4648a1.0001 1.0001 0 0 0 0.39844-0.79883v-13.408a1.0001 1.0001 0 0 0-1-1zm1 2h5.2773v11.908l-5.2773 3.9609z" color="#000000" style="-inkscape-stroke:none"/>
   <path id="polygon12" d="m15.764 10.598a1.0001 1.0001 0 0 0-1 1v12.131a1.0001 1.0001 0 0 0 0.40039 0.79883l4.9121 3.6895a1.0001 1.0001 0 0 0 1.2383-0.0293l2.3633-1.9512a1.0001 1.0001 0 0 0 0.36328-0.77148v-13.867a1.0001 1.0001 0 0 0-1-1zm1 2h5.2773v12.396l-1.3926 1.1504-3.8848-2.918z" color="#000000" style="-inkscape-stroke:none"/>
   <path id="polygon14" d="m24.959 10.598a1.0001 1.0001 0 0 0-1 1v13.867a1.0001 1.0001 0 0 0 0.36328 0.77148l2.3633 1.9512a1.0001 1.0001 0 0 0 1.2383 0.0293l4.9121-3.6895a1.0001 1.0001 0 0 0 0.40039-0.79883v-12.131a1.0001 1.0001 0 0 0-1-1zm1 2h5.2773v10.629l-3.8848 2.918-1.3926-1.1504z" color="#000000" style="-inkscape-stroke:none"/>
   <path id="polyline16" d="m34.154 10.598a1.0001 1.0001 0 0 0-1 1v13.408a1 1 0 0 0 1 1 1 1 0 0 0 1-1v-8.4648l1.5938 10.656a1.0001 1.0001 0 0 0 1.9785 0.0078l1.7051-10.891v14.156a1 1 0 0 0 1 1 1 1 0 0 0 1-1v-18.873a1.0001 1.0001 0 0 0-1-1h-1.2734a1.0001 1.0001 0 0 0-0.98633 0.8457l-1.4121 9.0039-1.3457-8.998a1.0001 1.0001 0 0 0-0.98828-0.85156z" color="#000000" style="-inkscape-stroke:none"/>
  </g>
 </g>
 <path id="polyline22" d="m23.344 26.535-2.6191 2.2773a1 1 0 0 0-0.09766 1.4121 1 1 0 0 0 1.4102 0.09766l1.9629-1.707 1.0957 0.95312-1.752 1.5234a1.0001 1.0001 0 0 0 0 1.5078l1.752 1.5234-1.0957 0.95312-1.9629-1.707a1 1 0 0 0-1.4102 0.09766 1 1 0 0 0 0.09766 1.4121l2.6191 2.2773a1.0001 1.0001 0 0 0 1.3125 0l2.6191-2.2773a1.0001 1.0001 0 0 0 0-1.5098l-1.752-1.5234 1.752-1.5234a1.0001 1.0001 0 0 0 0-1.5098l-2.6191-2.2773a1.0001 1.0001 0 0 0-1.3125 0z" color="#000000" stroke-linecap="round" stroke-linejoin="round" style="-inkscape-stroke:none"/>
</svg>
