<?xml version="1.0" encoding="UTF-8" standalone="no"?>
<svg
   id="b"
   viewBox="0 0 48 48"
   version="1.1"
   sodipodi:docname="steam_icon_1151340.svg"
   xmlns:inkscape="http://www.inkscape.org/namespaces/inkscape"
   xmlns:sodipodi="http://sodipodi.sourceforge.net/DTD/sodipodi-0.dtd"
   xmlns="http://www.w3.org/2000/svg"
   xmlns:svg="http://www.w3.org/2000/svg">
  <sodipodi:namedview
     id="namedview1"
     pagecolor="#ffffff"
     bordercolor="#666666"
     borderopacity="1.0"
     inkscape:showpageshadow="2"
     inkscape:pageopacity="0.0"
     inkscape:pagecheckerboard="0"
     inkscape:deskcolor="#d1d1d1" />
  <defs
     id="defs1">
    <style
       id="style1">.d{fill:none;stroke:#000;stroke-width:2px;stroke-linecap:round;stroke-linejoin:round;}</style>
  </defs>
  <path
     style="color:#000000;fill:#000000;stroke-linecap:round;stroke-linejoin:round;-inkscape-stroke:none"
     d="M 25.359375,3.5175781 C 24.909461,3.5440847 24.480293,3.662107 24.105469,3.859375 22.86546,4.5119857 22.164455,5.740421 21.515625,6.9902344 20.608963,6.6669499 19.650604,6.4739264 18.714844,6.5214844 17.44919,6.5858084 16.133439,6.9247196 15.511719,8.1210938 a 1.0001,1.0001 0 0 0 -0.0293,0.064453 c -0.56061,1.2902827 -2.134928,1.9505731 -2.851563,1.8906251 -0.179158,-0.01499 -0.283676,-0.06572 -0.3125,-0.085938 -0.02882,-0.020221 -0.0088,0.013715 -0.01758,-0.027344 -0.01763,-0.082117 0.03235,-0.6619638 0.757813,-1.6230468 A 1.0001,1.0001 0 0 0 11.716797,6.8984375 C 10.093391,7.9459598 8.5692875,9.1810816 7.9414062,10.929688 7.5044416,12.146604 7.8768809,13.545517 8.6582031,14.96875 8.2488202,15.261512 7.903944,15.609426 7.7226562,16.033203 7.4252873,16.728331 7.4486961,17.448284 7.578125,18.107422 c 0.2153477,1.096693 0.7642038,1.980826 1.2402344,2.734375 -1.6803163,4.124845 -2.0302578,8.691021 -0.9921875,12.740234 1.4213948,5.544451 5.5461891,10.150801 12.0917971,10.855469 3.403748,0.366105 6.475469,-0.908829 8.929687,-2.75 2.273251,-1.705408 3.989639,-3.885466 5.16211,-5.880859 1.909761,-0.03308 3.509116,-1.118891 4.232421,-2.621094 0.621555,-1.290882 0.547392,-2.921656 -0.365234,-4.216797 0.04077,-0.04614 0.06675,-0.134416 0.105469,-0.183594 a 1,1 0 0 0 0.3125,-0.546875 c 0.153297,-0.266621 0.328915,-0.475595 0.470703,-0.826172 a 1,1 0 0 0 0.04102,-0.04687 1,1 0 0 0 0.01953,-0.05664 c 0.0017,-0.0043 0.0042,-0.0054 0.0059,-0.0098 C 42.24271,21.315562 41.052435,13.687099 35.828125,10.380859 34.965549,8.5664875 34.039584,7.3183054 32.890625,6.5703125 31.767958,5.839436 30.516383,5.6209618 29.179687,5.53125 28.336241,4.6965074 27.536059,4.0210465 26.738281,3.7265625 26.278677,3.5569086 25.809289,3.4910716 25.359375,3.5175781 Z m 0.6875,2.0839844 c 0.476512,0.1758948 1.175864,0.6473701 2.044922,1.5742187 a 1.0001,1.0001 0 0 0 0.679687,0.3144532 c 1.325479,0.067143 2.241392,0.2441906 3.027344,0.7558594 0.785952,0.5116687 1.542138,1.425962 2.355469,3.2148442 a 1.0001,1.0001 0 0 0 0.404297,0.449218 c 3.714867,2.181237 4.951018,7.316188 3.386718,12.0625 -0.564973,-1.450231 -1.434994,-2.868817 -3.171875,-4.154297 0.685943,-0.545378 1.242274,-1.151512 1.503907,-1.851562 0.412559,-1.103882 0.213566,-2.322483 -0.476563,-3.210938 -1.266118,-1.629969 -3.922348,-2.034957 -6.958984,-0.634765 -0.534069,-0.863949 -1.061112,-1.724632 -1.667969,-2.179688 -0.815444,-0.611467 -1.744002,-0.840921 -2.574219,-0.771484 -1.437087,0.120193 -2.532315,0.869899 -3.46875,1.410156 -1.317863,-1.005287 -2.639697,-1.435728 -3.75,-1.052734 -1.302631,0.449336 -2.122489,1.505103 -2.851562,2.439453 -0.729074,0.93435 -1.408642,1.785232 -1.845703,2.039062 -0.218531,0.126915 -0.309976,0.143311 -0.484375,0.103516 -0.174399,-0.0398 -0.492527,-0.196484 -0.933594,-0.658203 -1.6597835,-1.737673 -1.802624,-2.839737 -1.4414062,-3.845703 0.1152953,-0.32109 0.4236162,-0.650255 0.6835942,-0.978516 0.149848,0.38935 0.343327,0.778321 0.662109,1.001953 0.396571,0.278203 0.845353,0.402009 1.292969,0.439453 1.790462,0.149777 3.912326,-0.919723 4.853515,-3.0859371 l -0.0293,0.0625 c 0.06518,-0.1254245 0.631553,-0.4817179 1.529297,-0.5273438 0.897744,-0.045626 1.982956,0.1795604 2.673828,0.5664063 a 1.0001,1.0001 0 0 0 1.378907,-0.4179688 c 0.750458,-1.470804 1.557091,-2.7156075 2.167968,-3.0371094 0.305439,-0.1607509 0.533254,-0.2032385 1.009766,-0.027344 z m -1.28125,7.5625005 c 0.40847,-0.03416 0.742921,0.02747 1.208984,0.376953 0.466064,0.349481 1.044896,1.03628 1.660157,2.240234 a 1.0001,1.0001 0 0 0 1.380859,0.416016 c 2.848114,-1.60558 4.622137,-0.965308 5.205078,-0.214844 0.291471,0.375232 0.369747,0.785115 0.183594,1.283203 C 34.218144,17.763713 33.707733,18.377216 32.625,18.875 a 1.0001,1.0001 0 0 0 -0.05859,1.789062 c 1.684865,0.914743 2.587625,1.863763 3.169922,2.888672 -0.849084,-0.972297 -1.757624,-1.834977 -2.572266,-2.330078 a 1,1 0 0 0 -1.373046,0.335938 1,1 0 0 0 0.335937,1.373047 c 0.6597,0.400934 1.617593,1.3926 2.517578,2.546875 -0.519043,-0.579081 -1.08211,-1.096764 -1.820312,-1.650391 a 1,1 0 0 0 -1.400391,0.201172 1,1 0 0 0 0.199219,1.40039 c 0.759354,0.569491 1.261303,1.012169 1.705078,1.53711 -0.251991,-0.206281 -0.268443,-0.338199 -0.646484,-0.570313 a 1,1 0 0 0 -1.375,0.328125 1,1 0 0 0 0.328125,1.375 c 0.999578,0.613733 1.089561,0.820642 1.507812,1.333985 a 1,1 0 0 0 1.40625,0.142578 1,1 0 0 0 0.304688,-0.482422 1,1 0 0 0 0.765625,0.210937 1.0001,1.0001 0 0 0 0.0625,0.232422 c 1.162777,0.827094 1.214427,1.832926 0.757812,2.78125 -0.456614,0.948324 -1.494467,1.69222 -2.853516,1.529297 a 1.0001,1.0001 0 0 0 -0.996093,0.511719 c -1.026366,1.871556 -2.769604,4.099215 -4.941407,5.728516 -2.171802,1.6293 -4.728379,2.661122 -7.515625,2.361328 C 14.400333,41.832088 11.026624,38.012351 9.7636719,33.085937 8.6206234,28.627235 9.4441681,23.354042 12.039063,19.052734 a 1,1 0 0 0 0.384765,0.521485 1,1 0 0 0 1.373047,-0.341797 c -0.04228,0.07023 0.273158,-0.244688 0.570313,-0.404297 0.148577,-0.07981 0.294991,-0.142482 0.367187,-0.167969 0.0361,-0.01274 0.05873,-0.01447 0.0078,-0.0059 -0.02546,0.0043 -0.06665,0.015 -0.175782,0.0078 -0.109132,-0.0072 -0.345044,-0.0049 -0.625,-0.296875 a 1,1 0 0 0 1.414063,0.03125 1,1 0 0 0 0.0293,-1.414062 c -0.228619,-0.238452 -0.393437,-0.23174 -0.539063,-0.248047 0.456191,-0.497451 0.865981,-1.029948 1.261719,-1.537109 0.692212,-0.887111 1.38043,-1.591181 1.925781,-1.779297 0.545351,-0.188116 1.144273,-0.160191 2.392578,1.039062 a 1.0001,1.0001 0 0 0 1.144531,0.169922 c 1.253745,-0.63434 2.378374,-1.394564 3.195313,-1.46289 z M 9.7324219,16.691406 c 0.043533,0.04718 0.042869,0.09349 0.087891,0.140625 0.2763315,0.28927 0.5870075,0.357416 0.8750005,0.554688 -0.269237,0.409878 -0.485614,0.843564 -0.7226567,1.269531 -0.1460926,-0.340575 -0.3736187,-0.628161 -0.4335938,-0.933594 -0.081283,-0.413949 -0.051906,-0.730787 0.021484,-0.902344 0.022512,-0.05262 0.1392188,-0.08449 0.171875,-0.128906 z m 15.8808591,0.179688 a 1,1 0 0 0 -1.224609,0.707031 1,1 0 0 0 0.707031,1.224609 c 0.660012,0.176737 1.101361,0.870532 1.369141,1.402344 a 1,1 0 0 0 1.341797,0.443359 1,1 0 0 0 0.443359,-1.34375 c -0.31822,-0.631986 -1.041133,-2.006331 -2.636719,-2.433593 z m -12.023437,3.4375 c -0.795842,0.0016 -1.307234,0.575298 -1.578125,1.103515 -0.270891,0.528218 -0.396295,1.136619 -0.396485,1.800782 a 1.0001,1.0001 0 0 0 0,0.002 c 0,0.664387 0.125626,1.274273 0.396485,1.802734 0.270859,0.528461 0.782055,1.09994 1.578125,1.101563 a 1.0001,1.0001 0 0 0 0.002,0 c 0.796666,0 1.310769,-0.572892 1.582031,-1.101563 0.271263,-0.528671 0.396485,-1.137831 0.396485,-1.802734 a 1.0001,1.0001 0 0 0 0,-0.002 c -1.27e-4,-0.664673 -0.125182,-1.274255 -0.396485,-1.802735 -0.271303,-0.528479 -0.785688,-1.101562 -1.582031,-1.101562 a 1.0001,1.0001 0 0 0 -0.002,0 z m 5.947265,0.892578 a 1,1 0 0 0 -1.279297,0.599609 c -0.848849,2.346321 -1.87495,3.208162 -3.035156,4.791016 a 1.0001,1.0001 0 0 0 -0.134765,0.927734 c 0.451964,1.261653 0.957039,1.715723 1.341796,2.310547 a 1,1 0 0 0 1.382813,0.296875 1,1 0 0 0 0.296875,-1.382812 c -0.412523,-0.637749 -0.63056,-0.956935 -0.884766,-1.47461 0.952431,-1.210744 2.052912,-2.408738 2.914063,-4.789062 a 1,1 0 0 0 -0.601563,-1.279297 z m 4.898438,0.574219 c -0.489984,-0.01225 -1.002041,0.05042 -1.53711,0.148437 a 1,1 0 0 0 -0.802734,1.164063 1,1 0 0 0 1.164063,0.804687 c 0.894561,-0.163868 1.469243,-0.124202 1.763671,0.0078 0.294429,0.132014 0.506628,0.340111 0.71875,1.083984 a 1,1 0 0 0 1.236329,0.6875 1,1 0 0 0 0.6875,-1.236328 c -0.308778,-1.082825 -0.927349,-1.95724 -1.824219,-2.359375 -0.448435,-0.201068 -0.916266,-0.288536 -1.40625,-0.300781 z m -0.291016,8.283203 c -4.872056,2.225989 -8.849956,2.53855 -12.15625,0.830078 a 1.0001,1.0001 0 0 0 -1.359375,0.453125 l -0.476562,0.984375 a 1.0001,1.0001 0 0 0 0.267578,1.21289 c 2.57366,2.093915 5.092277,3.071791 7.751953,2.91211 2.659676,-0.159681 5.355561,-1.380353 8.550781,-3.355469 a 1.0001,1.0001 0 0 0 0.08984,-1.640625 l -1.636719,-1.275391 a 1.0001,1.0001 0 0 0 -1.03125,-0.121093 z m 0.07227,2.103515 c -2.35973,1.317858 -4.416344,2.187923 -6.166016,2.292969 -1.172217,0.07038 -2.298261,-0.189676 -3.451172,-0.6875 2.934684,0.461889 6.171107,-0.144772 9.617188,-1.605469 z"
     id="c" />
</svg>
