<?xml version="1.0" encoding="UTF-8" standalone="no"?>
<svg
   viewBox="0 0 48 48"
   version="1.1"
   id="svg33"
   sodipodi:docname="steam_icon_1262240.svg"
   xmlns:inkscape="http://www.inkscape.org/namespaces/inkscape"
   xmlns:sodipodi="http://sodipodi.sourceforge.net/DTD/sodipodi-0.dtd"
   xmlns="http://www.w3.org/2000/svg"
   xmlns:svg="http://www.w3.org/2000/svg">
  <sodipodi:namedview
     id="namedview33"
     pagecolor="#ffffff"
     bordercolor="#666666"
     borderopacity="1.0"
     inkscape:showpageshadow="2"
     inkscape:pageopacity="0.0"
     inkscape:pagecheckerboard="0"
     inkscape:deskcolor="#d1d1d1" />
  <defs
     id="defs1">
    <style
       id="style1">.a{fill:none;stroke:#000;stroke-width:2px;stroke-linecap:round;stroke-linejoin:round;}</style>
  </defs>
  <path
     style="color:#000000;fill:#000000;stroke-linecap:round;stroke-linejoin:round;-inkscape-stroke:none"
     d="m 36.294922,22.835937 a 1,1 0 0 0 -1.1875,0.765625 1,1 0 0 0 0.767578,1.189454 c 0.609618,0.131182 2.319893,1.178476 3.667969,2.376953 0.674038,0.599238 1.293106,1.233172 1.736328,1.779297 0.443222,0.546124 0.677054,1.074208 0.677734,1.078125 a 1,1 0 0 0 1.15625,0.8125 1,1 0 0 0 0.814453,-1.15625 C 43.793115,28.906708 43.368708,28.346824 42.832031,27.685547 42.295354,27.02427 41.612604,26.331098 40.871094,25.671875 39.388073,24.353429 37.805302,23.160954 36.294922,22.835937 Z"
     id="path1" />
  <path
     style="color:#000000;fill:#000000;stroke-linecap:round;stroke-linejoin:round;-inkscape-stroke:none"
     d="M 23.623047,3.7304688 C 19.973644,3.749382 16.04269,4.3579512 13.173828,5.8125 10.323841,7.2574792 8.2287098,9.6162349 6.8554687,11.720703 6.1688482,12.772937 5.6627371,13.76198 5.3359375,14.576172 c -0.1633998,0.407096 -0.2828873,0.768819 -0.3574219,1.097656 -0.074535,0.328838 -0.1872242,0.567513 0,1.095703 0.2849408,0.803866 0.9127619,1.184712 1.3769531,1.417969 0.4641913,0.233257 0.8847657,0.332031 0.8847657,0.332031 A 1,1 0 0 0 8.4453125,17.779297 1,1 0 0 0 7.7070312,16.574219 c 0,0 -0.2130919,-0.05321 -0.453125,-0.173828 -0.240033,-0.120618 -0.389266,-0.294995 -0.390625,-0.298829 0.1156493,0.326266 0.025998,0.191947 0.066406,0.01367 0.040408,-0.178274 0.1293642,-0.460306 0.2636719,-0.794921 0.2686154,-0.669232 0.7205499,-1.561749 1.3378906,-2.507813 1.2346813,-1.892128 3.134867,-3.9938788 5.546875,-5.2167969 2.393133,-1.2133485 6.132297,-1.8474976 9.554687,-1.8652344 3.422391,-0.017737 6.60405,0.6975348 7.59375,1.4453125 2.551999,1.9281863 3.609044,5.1265508 5.056641,8.2675778 0.598941,1.299595 0.723564,2.934043 0.556641,4.322266 -0.08346,0.694111 -0.237258,1.325282 -0.414063,1.802734 -0.176804,0.477452 -0.411497,0.799962 -0.449219,0.833985 a 1.0001,1.0001 0 0 0 -0.06641,0.06641 c -1.338366,1.460593 -2.597042,2.993548 -3.767578,4.591797 a 1,1 0 0 0 0.216797,1.398437 1,1 0 0 0 1.396484,-0.214843 c 1.127343,-1.539274 2.339927,-3.017132 3.628907,-4.423829 l -0.06836,0.06836 c 0.475728,-0.429077 0.742324,-0.971353 0.984375,-1.625 0.242051,-0.653647 0.424678,-1.420226 0.525391,-2.257813 0.201427,-1.675174 0.08539,-3.638588 -0.726563,-5.40039 C 36.72541,11.623702 35.60159,7.9736876 32.433594,5.5800781 30.563297,4.166958 27.272449,3.7115555 23.623047,3.7304688 Z"
     id="path2" />
  <path
     style="color:#000000;fill:#000000;stroke-linecap:round;stroke-linejoin:round;-inkscape-stroke:none"
     d="m 8.9003906,15.818359 c -0.5223576,0.01197 -0.9609539,0.125168 -1.3144531,0.302735 -0.7069983,0.355134 -1.0371094,1.042968 -1.0371094,1.042968 a 1,1 0 0 0 0.5410156,1.306641 1,1 0 0 0 1.3066407,-0.541016 c 0,0 -0.07001,0.05783 0.087891,-0.02148 0.1579008,-0.07932 0.5783219,-0.223593 1.615234,0.113281 0.73333,0.238246 1.727778,1.344964 2.144532,2.59961 0.416754,1.254646 0.304782,2.416659 -0.423828,3.054687 -0.99414,0.870546 -1.631524,1.015653 -2.1054692,0.984375 -0.473945,-0.03128 -0.9174784,-0.28527 -1.390625,-0.648437 C 8.1147714,23.850956 7.8959193,23.694597 7.5097656,23.648437 7.1236119,23.602278 6.5479108,23.876089 6.34375,24.214844 c -0.4083215,0.677509 -0.214103,1.06901 -0.095703,1.542968 0.2367998,0.947917 0.8162574,2.129109 1.7402343,3.3125 a 1,1 0 0 0 1.4023438,0.171875 1,1 0 0 0 0.1738281,-1.402343 c -0.413757,-0.529923 -0.5093093,-0.913011 -0.7460937,-1.392578 0.2520426,0.07578 0.4738584,0.189858 0.7636719,0.208984 1.0818787,0.0714 2.2998287,-0.375758 3.5546877,-1.474609 1.520387,-1.33137 1.580651,-3.455105 1.003906,-5.191407 C 13.56388,18.253933 12.399218,16.665094 10.71875,16.119141 10.030307,15.895478 9.4227483,15.806387 8.9003906,15.818359 Z"
     id="path3" />
  <path
     style="color:#000000;fill:#000000;stroke-linecap:round;stroke-linejoin:round;-inkscape-stroke:none"
     d="m 10.648438,26.748047 a 1,1 0 0 0 -1.1679692,0.796875 c -0.019585,0.103854 -0.00552,0.03408 0.027344,0.0098 0.032863,-0.02431 0.023001,-0.007 -0.046875,-0.002 -0.1397523,0.01007 -0.3613281,-0.04492 -0.3613281,-0.04492 a 1,1 0 0 0 -1.2695313,0.623047 1,1 0 0 0 0.6230469,1.269532 c 0,0 0.5062469,0.193018 1.1523438,0.146484 0.3230484,-0.02327 0.7211152,-0.110556 1.0917972,-0.384766 0.370681,-0.27421 0.652632,-0.740148 0.748047,-1.246093 a 1,1 0 0 0 -0.796875,-1.167969 z"
     id="path4" />
  <path
     style="color:#000000;fill:#000000;stroke-linecap:round;stroke-linejoin:round;-inkscape-stroke:none"
     d="m 18.003906,26.302734 c -4.414055,0.04283 -7.662109,0.435547 -7.662109,0.435547 a 1,1 0 0 0 -0.8710939,1.113281 1,1 0 0 0 1.1132809,0.873047 c 0,0 3.134118,-0.380102 7.439453,-0.421875 2.093817,-0.02032 3.16268,0.23759 3.847657,0.582032 0.684976,0.344441 1.101375,0.842751 1.847656,1.55664 0.412711,0.394798 0.557814,1.045282 0.492187,1.65625 -0.03281,0.305485 -0.12384,0.583839 -0.205078,0.740235 -0.08124,0.156396 -0.169004,0.115666 0.08008,0.04687 0.185838,-0.05132 -0.131801,0.01339 -0.458984,0.02539 -0.327183,0.012 -0.771155,0.01832 -1.285156,0.01953 -1.028002,0.0024 -2.338171,-0.01495 -3.623047,-0.03906 -2.569753,-0.04822 -5.042969,-0.125 -5.042969,-0.125 a 1,1 0 0 0 -1.029297,0.96875 1,1 0 0 0 0.96875,1.03125 c 0,0 2.481489,0.07454 5.066407,0.123047 1.292458,0.02425 2.609907,0.04351 3.664062,0.04102 0.527078,-0.0012 0.988348,-0.008 1.355469,-0.02148 0.36712,-0.01347 0.533257,0.01055 0.917969,-0.0957 0.646831,-0.178641 0.939168,-0.623534 1.162109,-1.052734 0.222941,-0.429201 0.360819,-0.917167 0.417969,-1.449219 0.114299,-1.064105 -0.109569,-2.369253 -1.097657,-3.314453 -0.654517,-0.626109 -1.258984,-1.356902 -2.332031,-1.896485 -1.073046,-0.539582 -2.499746,-0.818859 -4.765625,-0.796875 z"
     id="path5" />
  <path
     style="color:#000000;fill:#000000;stroke-linecap:round;stroke-linejoin:round;-inkscape-stroke:none"
     d="m 17.613281,26.699219 a 1,1 0 0 0 -1.070312,0.923828 c 0,0 -0.04723,0.560034 0.02344,1.199219 0.03534,0.319592 0.09384,0.668622 0.244141,1.033203 0.150303,0.364581 0.427643,0.812858 0.974609,1.027343 a 1.0001,1.0001 0 0 0 0.177735,0.05078 c 0.310938,0.05935 0.814804,0.17342 1.414062,0.105468 0.599259,-0.06795 1.423311,-0.49209 1.712891,-1.291015 a 1.0001,1.0001 0 0 0 0.03125,-0.583985 c -0.111918,-0.446001 -0.206193,-0.884971 -0.271485,-1.208984 -0.03265,-0.162006 -0.05853,-0.295167 -0.07617,-0.388672 -0.0088,-0.04675 -0.01643,-0.08242 -0.02148,-0.109375 -0.0025,-0.01348 -0.0035,-0.02495 -0.0059,-0.03711 -0.0012,-0.0061 -0.0029,-0.01138 -0.0059,-0.02539 -0.0015,-0.007 -0.0014,-0.01391 -0.0078,-0.03906 -0.0032,-0.01258 -0.02145,-0.07216 -0.02148,-0.07227 -1.7e-5,-5.2e-5 -0.949218,0.318359 -0.949218,0.318359 0,0 0.541015,-0.841796 0.541015,-0.841796 a 1,1 0 0 0 -1.539062,0.886718 1,1 0 0 0 0.164062,0.351563 c -0.02299,-0.01577 -0.113283,-0.07813 -0.113281,-0.07813 3.5e-5,1.05e-4 -0.01839,-0.06011 -0.02148,-0.07227 -0.0041,-0.01631 -0.0048,-0.01837 -0.0059,-0.02344 0.0045,0.02424 0.01217,0.0639 0.02148,0.113281 0.01863,0.09876 0.04535,0.239766 0.08008,0.412109 0.03682,0.182698 0.101659,0.453396 0.154297,0.689453 -0.104401,0.0017 -0.252846,-0.01905 -0.402344,-0.03906 -0.03121,-0.100881 -0.06743,-0.22909 -0.08594,-0.396484 -0.04575,-0.413815 -0.01758,-0.832032 -0.01758,-0.832032 a 1,1 0 0 0 -0.923828,-1.072265 z"
     id="path6" />
  <path
     style="color:#000000;fill:#000000;stroke-linecap:round;stroke-linejoin:round;-inkscape-stroke:none"
     d="M 21.330078,26.921875 A 1,1 0 0 0 20.3125,27.902344 c 0,0 -0.01084,0.382749 0.07813,0.830078 0.08897,0.447328 0.235228,1.139217 1.021484,1.523437 a 1.0001,1.0001 0 0 0 0.05469,0.02539 c 0.953861,0.395609 2.066021,0.12447 2.730469,-0.666016 a 1,1 0 0 0 -0.123047,-1.408203 1,1 0 0 0 -1.408203,0.121094 c -0.08862,0.105432 -0.224379,0.107858 -0.353516,0.08594 0.01381,4.58e-4 0.06396,0.05292 0.03906,-0.07227 -0.04025,-0.202396 -0.03906,-0.402344 -0.03906,-0.402344 a 1,1 0 0 0 -0.982422,-1.017578 z"
     id="path7" />
  <path
     style="color:#000000;fill:#000000;stroke-linecap:round;stroke-linejoin:round;-inkscape-stroke:none"
     d="m 16.337891,26.578125 a 1,1 0 0 0 -0.763672,0.05078 c -0.414264,0.204714 -0.510526,0.519894 -0.556641,0.6875 -0.04612,0.167606 -0.04862,0.279505 -0.04883,0.384766 -4.18e-4,0.210521 0.02805,0.393765 0.07031,0.605469 0.06026,0.301893 0.20341,0.696498 0.339843,1.082031 -0.409302,0.05267 -1.112432,0.02243 -1.738281,-0.126953 2.19e-4,-0.02824 -0.0102,-0.06149 0.02148,-0.195313 0.08557,-0.361371 0.345703,-0.8125 0.345704,-0.8125 A 1,1 0 0 0 13.689453,26.875 1,1 0 0 0 12.310547,27.195312 c 0,0 -0.404765,0.612004 -0.59375,1.410157 -0.09449,0.399076 -0.159547,0.885134 0.04297,1.425781 0.202515,0.540647 0.764118,1.019022 1.394531,1.171875 0.890728,0.21597 1.831643,0.313428 2.683594,0.162109 0.425975,-0.07566 0.869262,-0.194188 1.257812,-0.607422 0.38855,-0.413233 0.479635,-1.178813 0.271484,-1.689453 C 17.170986,28.587032 17.051003,28.169555 17,27.914062 c -0.01907,-0.09552 -0.02077,-0.128294 -0.02344,-0.15625 a 1,1 0 0 0 -0.0625,-0.675781 1,1 0 0 0 -0.576171,-0.503906 z"
     id="path8" />
  <path
     style="color:#000000;fill:#000000;stroke-linecap:round;stroke-linejoin:round;-inkscape-stroke:none"
     d="m 15.134766,30.675781 c -0.663164,-0.03866 -1.250916,0.08417 -1.490235,0.111328 -0.313892,0.03562 -0.70535,0.255605 -0.894531,0.542969 -0.189181,0.287364 -0.214594,0.549186 -0.216797,0.751953 -0.0044,0.405536 0.09469,0.686966 0.191406,0.960938 0.193438,0.547944 0.457032,1.021484 0.457032,1.021484 a 1,1 0 0 0 1.357422,0.398438 1,1 0 0 0 0.398437,-1.357422 c 0,0 -0.105178,-0.240869 -0.183594,-0.408203 0.08287,-0.0041 0.190407,-0.02771 0.263672,-0.02344 0.265017,0.01545 0.297829,0.05425 0.34961,0.121094 -0.007,0.02766 -0.09269,0.29912 -0.175782,0.804687 a 1,1 0 0 0 0.824219,1.148438 1,1 0 0 0 1.148437,-0.824219 c 0.06749,-0.410679 0.108336,-0.463622 0.166016,-0.744141 0.05768,-0.280518 0.03549,-0.623408 -0.03711,-1.027343 a 1.0001,1.0001 0 0 0 -0.113282,-0.314453 c -0.471193,-0.834325 -1.381758,-1.123454 -2.044921,-1.16211 z"
     id="path9" />
  <path
     style="color:#000000;fill:#000000;stroke-linecap:round;stroke-linejoin:round;-inkscape-stroke:none"
     d="m 21.105469,29.869141 c -0.282787,0.03112 -0.610442,0.08974 -0.953125,0.322265 -0.342684,0.232524 -0.631612,0.707192 -0.671875,1.160156 a 1.0001,1.0001 0 0 0 -0.0039,0.08008 c -0.0085,1.022275 0.239993,2.030444 0.722657,2.93164 a 1,1 0 0 0 1.353515,0.408203 1,1 0 0 0 0.449219,-0.527343 1,1 0 0 0 0.621094,0.644531 c 0.426994,0.0076 0.842456,-0.204535 1.08789,-0.447266 0.245435,-0.242731 0.380598,-0.501487 0.488282,-0.757812 0.215367,-0.51265 0.312498,-1.053976 0.386718,-1.585938 C 24.69024,31.35009 24.319594,30.51669 23.767578,30.189453 23.215562,29.862216 22.7201,29.875 22.359375,29.875 c -0.182214,0 -0.688332,-0.06811 -1.253906,-0.0059 z m 0.472656,1.990234 c 0.220257,0.002 0.458915,0.01563 0.78125,0.01563 0.146194,0 0.159703,0.0093 0.228516,0.02148 -0.06293,0.415014 -0.150415,0.816513 -0.232422,1.011719 -0.04402,0.104775 -0.08628,0.146434 -0.05078,0.111328 0.0355,-0.03511 0.207725,-0.131551 0.355469,-0.128906 a 1,1 0 0 0 -0.742187,0.349609 c -0.207425,-0.433279 -0.293667,-0.903982 -0.339844,-1.380859 z"
     id="path10" />
  <path
     style="color:#000000;fill:#000000;stroke-linecap:round;stroke-linejoin:round;-inkscape-stroke:none"
     d="m 13.375,31.699219 a 1,1 0 0 0 -0.751953,0.146484 c 0,0 -0.526057,0.33527 -0.994141,0.865234 -0.234042,0.264983 -0.478428,0.584969 -0.611328,1.044922 -0.1329,0.459954 -0.05973,1.129842 0.314453,1.591797 0.534637,0.660049 1.297586,0.951832 1.9375,1.03711 0.639914,0.08528 1.20696,0.02499 1.625,0.01172 a 1,1 0 0 0 0.966797,-1.03125 1,1 0 0 0 -1.03125,-0.96875 c -0.508259,0.01613 -0.967665,0.04973 -1.296875,0.0059 -0.25071,-0.03341 -0.361902,-0.12734 -0.492187,-0.238282 0.03162,-0.05005 0.03163,-0.06521 0.08789,-0.128906 0.241066,-0.272934 0.597656,-0.523437 0.597657,-0.523437 A 1,1 0 0 0 14.009766,32.126953 1,1 0 0 0 13.375,31.699219 Z"
     id="path11" />
  <path
     style="color:#000000;fill:#000000;stroke-linecap:round;stroke-linejoin:round;-inkscape-stroke:none"
     d="m 29.742187,30.816406 a 1,1 0 0 0 -0.648437,0.404297 c 0,0 -0.54526,0.766496 -1.105469,1.556641 -0.280104,0.395072 -0.563204,0.794886 -0.785156,1.111328 -0.110976,0.158221 -0.208016,0.295986 -0.28125,0.402344 -0.01153,0.01674 -0.01808,0.02795 -0.02734,0.04102 -0.01181,0.0067 -0.01202,0.0082 -0.02539,0.01563 -0.131969,0.07348 -0.337013,0.181377 -0.583985,0.306641 -0.493943,0.250527 -1.158159,0.573816 -1.828125,0.894531 -0.669966,0.320715 -1.346826,0.639255 -1.873047,0.882813 -0.26311,0.121778 -0.488839,0.224632 -0.654297,0.298828 -0.130211,0.05839 -0.187553,0.0823 -0.185546,0.08398 -0.04006,0.0044 -0.09168,0.0097 -0.166016,0.01563 -0.175015,0.01394 -0.426357,0.02879 -0.724609,0.04297 -0.596505,0.02836 -1.385126,0.05296 -2.197266,0.06055 -0.81214,0.0076 -1.64979,-0.0028 -2.337891,-0.03906 -0.626938,-0.03302 -1.08957,-0.117982 -1.201171,-0.140625 0.0028,-0.03347 -0.0025,-0.01722 0.0098,-0.06641 0.06921,-0.278132 0.265625,-0.623047 0.265625,-0.623047 A 1,1 0 0 0 15.076172,34.6875 1,1 0 0 0 13.697266,35.003906 c 0,0 -0.340775,0.512202 -0.511719,1.199219 -0.08547,0.343509 -0.14891,0.762031 -0.0039,1.246094 0.145003,0.484063 0.59268,0.974662 1.134765,1.171875 0.57146,0.2079 1.142274,0.23176 1.896485,0.271484 0.754211,0.03972 1.623282,0.04886 2.46289,0.04102 0.839609,-0.0078 1.647631,-0.03275 2.273438,-0.0625 0.312903,-0.01488 0.578117,-0.03218 0.787109,-0.04883 0.104496,-0.0083 0.195152,-0.01546 0.277344,-0.02539 0.08219,-0.0099 0.09926,0.0083 0.320312,-0.06641 0.195229,-0.06598 0.236671,-0.09428 0.414063,-0.173828 0.177391,-0.07955 0.407907,-0.186564 0.675781,-0.310547 0.535748,-0.247967 1.218227,-0.567894 1.896484,-0.892578 0.678258,-0.324685 1.350317,-0.652869 1.869141,-0.916016 0.259412,-0.131573 0.478363,-0.244922 0.652344,-0.341797 0.08699,-0.04844 0.16219,-0.09162 0.238281,-0.140625 0.03805,-0.0245 0.07613,-0.0504 0.128906,-0.0918 0.05278,-0.0414 0.116765,-0.03905 0.273438,-0.310547 -0.05359,0.09286 0.02056,-0.02917 0.08789,-0.126953 0.06733,-0.09778 0.160392,-0.233069 0.269532,-0.388672 0.218279,-0.311204 0.500226,-0.709901 0.779297,-1.103515 0.55814,-0.787229 1.103515,-1.550781 1.103515,-1.550782 a 1,1 0 0 0 -0.234375,-1.394531 1,1 0 0 0 -0.746094,-0.171875 z"
     id="path12" />
  <path
     style="color:#000000;fill:#000000;stroke-linecap:round;stroke-linejoin:round;-inkscape-stroke:none"
     d="m 34.486328,28.603516 a 1,1 0 0 0 -1.408203,0.128906 c -1.349808,1.620237 -2.973471,2.991924 -4.794922,4.054687 a 1,1 0 0 0 -0.359375,1.367188 1,1 0 0 0 1.369141,0.359375 c 2.022344,-1.179979 3.82163,-2.703015 5.320312,-4.501953 a 1,1 0 0 0 -0.126953,-1.408203 z"
     id="path13" />
  <path
     style="color:#000000;fill:#000000;stroke-linecap:round;stroke-linejoin:round;-inkscape-stroke:none"
     d="m 21.980469,37.154297 a 1,1 0 0 0 -1.414063,0.06445 c -0.442024,0.484019 -0.833248,1.00985 -1.169922,1.572266 a 1.0001,1.0001 0 0 0 -0.08789,0.1875 c -0.613216,1.769434 -0.246525,3.734594 0.960937,5.166015 a 1,1 0 0 0 1.408203,0.119141 1,1 0 0 0 0.119141,-1.408203 c -0.737185,-0.873917 -0.950414,-2.059248 -0.603516,-3.144532 0.251817,-0.404664 0.530029,-0.79245 0.851563,-1.144531 a 1,1 0 0 0 -0.06445,-1.412109 z"
     id="path14" />
  <path
     style="color:#000000;fill:#000000;stroke-linecap:round;stroke-linejoin:round;-inkscape-stroke:none"
     d="m 33.632812,25.837891 a 1,1 0 0 0 -0.822265,1.148437 c 0,0 0.358744,2.191776 0.191406,4.818359 -0.167338,2.626584 -0.902827,5.558598 -2.759766,7.103516 a 1,1 0 0 0 -0.128906,1.408203 1,1 0 0 0 1.408203,0.128906 c 2.570258,-2.138378 3.291198,-5.634785 3.47461,-8.513671 0.183412,-2.878886 -0.212891,-5.271485 -0.212891,-5.271485 a 1,1 0 0 0 -1.150391,-0.822265 z"
     id="path15" />
  <path
     style="color:#000000;fill:#000000;stroke-linecap:round;stroke-linejoin:round;-inkscape-stroke:none"
     d="m 28.435547,32.953125 a 1,1 0 0 0 -0.916016,1.078125 1,1 0 0 0 1.078125,0.916016 c -0.350322,0.0284 -0.442162,-0.07557 -0.486328,-0.101563 -0.04417,-0.026 -0.03523,-0.0228 -0.01172,-0.002 0.04703,0.0417 0.157492,0.152997 0.28125,0.304687 0.247516,0.303382 0.567543,0.769374 0.84961,1.291016 0.564133,1.043285 0.888882,2.314195 0.695312,2.943359 a 1,1 0 0 0 0.66211,1.25 1,1 0 0 0 1.248046,-0.662109 c 0.49273,-1.601533 -0.158512,-3.211559 -0.845703,-4.482422 -0.343595,-0.635431 -0.718897,-1.184754 -1.060547,-1.603515 -0.170824,-0.209381 -0.328638,-0.383444 -0.501953,-0.53711 -0.08666,-0.07683 -0.175093,-0.149479 -0.302734,-0.224609 -0.127641,-0.07513 -0.287781,-0.202482 -0.689453,-0.169922 z"
     id="path16" />
  <path
     style="color:#000000;fill:#000000;stroke-linecap:round;stroke-linejoin:round;-inkscape-stroke:none"
     d="m 22.941406,36.433594 a 1,1 0 0 0 -1.105469,0.882812 c -0.128804,1.152229 -0.10024,2.316261 0.08398,3.460938 a 1.0001,1.0001 0 0 0 0.152344,0.392578 c 0.448941,0.681883 1.082321,1.222141 1.826171,1.558594 a 1,1 0 0 0 1.322266,-0.5 1,1 0 0 0 -0.498047,-1.322266 c -0.33958,-0.153596 -0.604682,-0.419603 -0.833984,-0.710938 -0.119566,-0.880825 -0.163282,-1.772175 -0.06445,-2.65625 a 1,1 0 0 0 -0.882813,-1.105468 z"
     id="path17" />
  <path
     style="color:#000000;fill:#000000;stroke-linecap:round;stroke-linejoin:round;-inkscape-stroke:none"
     d="m 29.550781,35.208984 a 1,1 0 0 0 -0.5625,0.519532 c -0.358899,0.778044 -1.069914,1.30788 -1.898437,1.498046 -0.590105,-0.08532 -1.136848,-0.376891 -1.462891,-0.880859 a 1,1 0 0 0 -1.382812,-0.296875 1,1 0 0 0 -0.294922,1.382813 c 0.681413,1.053269 1.812821,1.734184 3.0625,1.84375 a 1.0001,1.0001 0 0 0 0.25,-0.0098 c 1.55486,-0.256116 2.882911,-1.268306 3.542968,-2.699219 a 1,1 0 0 0 -0.488281,-1.326172 1,1 0 0 0 -0.765625,-0.03125 z"
     id="path18" />
  <path
     style="color:#000000;fill:#000000;stroke-linecap:round;stroke-linejoin:round;-inkscape-stroke:none"
     d="m 26.138672,37.234375 a 1,1 0 0 0 -1.265625,0.630859 c 0,0 -0.328453,0.976426 -0.6875,2.101563 -0.359047,1.125137 -0.741021,2.347575 -0.890625,3.058594 a 1,1 0 0 0 0.773437,1.183593 1,1 0 0 0 1.183594,-0.771484 c 0.0946,-0.44958 0.485991,-1.752467 0.839844,-2.861328 C 26.44565,39.467311 26.769531,38.5 26.769531,38.5 a 1,1 0 0 0 -0.630859,-1.265625 z"
     id="path19" />
  <path
     style="color:#000000;fill:#000000;stroke-linecap:round;stroke-linejoin:round;-inkscape-stroke:none"
     d="m 29.400391,36.287109 a 1,1 0 0 0 -1.15625,0.814453 c -0.310366,1.791616 -0.484105,3.60396 -0.521485,5.421875 a 1,1 0 0 0 0.978516,1.021485 1,1 0 0 0 1.021484,-0.980469 c 0.03531,-1.717241 0.19901,-3.428695 0.492188,-5.121094 a 1,1 0 0 0 -0.814453,-1.15625 z"
     id="path20" />
  <path
     style="color:#000000;fill:#000000;stroke-linecap:round;stroke-linejoin:round;-inkscape-stroke:none"
     d="m 19.041016,9.7832031 c -0.891114,0.1192734 -1.76132,0.3953289 -2.56836,0.8222659 l 0.02539,-0.01367 c -0.801143,0.394317 -1.262561,0.369239 -1.517578,0.316406 -0.255017,-0.05283 -0.236328,-0.07031 -0.236328,-0.07031 a 1,1 0 0 0 -1.41211,0.05273 1,1 0 0 0 0.05274,1.414063 c 0,0 0.490571,0.417708 1.189453,0.5625 0.698882,0.144791 1.673385,0.07731 2.80664,-0.480469 a 1.0001,1.0001 0 0 0 0.02734,-0.01367 c 1.193423,-0.631339 2.571226,-0.814797 3.888672,-0.519531 A 1,1 0 0 0 22.492187,11.095703 1,1 0 0 0 21.734375,9.9023438 C 20.843465,9.7026734 19.932129,9.6639297 19.041016,9.7832031 Z"
     id="path21" />
  <path
     style="color:#000000;fill:#000000;stroke-linecap:round;stroke-linejoin:round;-inkscape-stroke:none"
     d="m 20.001953,11.59375 c -0.833873,0.0709 -1.65102,0.326294 -2.390625,0.759766 l 0.0332,-0.01758 c -1.011039,0.542333 -2.128044,0.680053 -3.039062,0.546875 -0.911019,-0.133179 -1.555124,-0.567197 -1.732422,-0.863282 a 1,1 0 0 0 -1.371094,-0.345703 1,1 0 0 0 -0.34375,1.373047 c 0.637501,1.064614 1.829274,1.622135 3.158203,1.816406 1.328929,0.194271 2.85668,-0.0057 4.273438,-0.765625 a 1.0001,1.0001 0 0 0 0.0332,-0.01758 c 0.959564,-0.562388 2.11942,-0.661847 3.160156,-0.269531 a 1,1 0 0 0 1.287109,-0.583984 1,1 0 0 0 -0.582031,-1.28711 C 21.686112,11.637068 20.835827,11.522851 20.001953,11.59375 Z"
     id="path22" />
  <path
     style="color:#000000;fill:#000000;stroke-linecap:round;stroke-linejoin:round;-inkscape-stroke:none"
     d="m 18.607422,20.427734 c -0.435402,-0.144068 -0.9318,-0.106801 -1.34375,0.160157 a 1,1 0 0 0 -0.294922,1.382812 1,1 0 0 0 0.785156,0.167969 1.0001,1.0001 0 0 0 0.02539,0.05469 c 0.144033,0.258404 0.369364,0.734141 0.474609,1.091797 0.05262,0.178828 0.06914,0.330934 0.06836,0.355469 -7.86e-4,0.02454 0.02166,-0.172301 0.205078,-0.310547 a 1,1 0 0 0 -0.197266,1.400391 1,1 0 0 0 1.400391,0.195312 c 0.442067,-0.333195 0.578004,-0.852954 0.589843,-1.222656 0.01184,-0.369702 -0.05801,-0.68175 -0.146484,-0.982422 -0.161792,-0.549817 -0.401422,-1.016313 -0.59375,-1.371094 -0.173546,-0.453291 -0.541266,-0.779134 -0.972656,-0.921875 z"
     id="path23" />
  <path
     style="color:#000000;fill:#000000;stroke-linecap:round;stroke-linejoin:round;-inkscape-stroke:none"
     d="m 15.400391,21.580078 c -0.434564,-0.0087 -0.985956,0.278312 -1.302735,0.716797 -0.569618,0.754343 -0.608002,1.795772 -0.07617,2.580078 a 1,1 0 0 0 1.390625,0.265625 1,1 0 0 0 0.265625,-1.388672 c -0.05581,-0.0823 -0.05336,-0.179416 0.0078,-0.257812 a 1.0001,1.0001 0 0 0 0.0332,-0.04297 c 0.02724,-0.03904 -0.185881,0.130388 -0.357422,0.126953 -0.171541,-0.0034 -0.322265,-0.111328 -0.322265,-0.111328 a 1,1 0 0 0 1.390624,-0.253906 1,1 0 0 0 -0.251953,-1.390625 c 0,0 -0.336128,-0.235306 -0.777343,-0.244141 z"
     id="path24" />
  <path
     style="color:#000000;fill:#000000;stroke-linecap:round;stroke-linejoin:round;-inkscape-stroke:none"
     d="m 26.267578,13.785156 c -3.350903,0 -6.089844,2.736988 -6.089844,6.087891 0,3.350903 2.738941,6.089844 6.089844,6.089844 3.350903,0 6.087891,-2.738941 6.087891,-6.089844 0,-3.350903 -2.736988,-6.087891 -6.087891,-6.087891 z m 0,2 c 2.270024,0 4.087891,1.817867 4.087891,4.087891 0,2.270024 -1.817867,4.089844 -4.087891,4.089844 -2.270024,0 -4.089844,-1.81982 -4.089844,-4.089844 0,-2.270024 1.81982,-4.087891 4.089844,-4.087891 z"
     id="circle24" />
  <path
     style="color:#000000;fill:#000000;stroke-linecap:round;stroke-linejoin:round;-inkscape-stroke:none"
     d="m 33.75,25.310547 a 1,1 0 0 0 -0.189453,1.40039 c 0,0 3.996356,5.407672 2.828125,10.796875 a 1,1 0 0 0 0.765625,1.189454 1,1 0 0 0 1.1875,-0.765625 C 39.759963,31.389456 35.152344,25.5 35.152344,25.5 A 1,1 0 0 0 33.75,25.310547 Z"
     id="path25" />
  <path
     style="color:#000000;fill:#000000;stroke-linecap:round;stroke-linejoin:round;-inkscape-stroke:none"
     d="M 10.669922,3.7832031 A 1,1 0 0 0 10.095703,4.2910156 C 9.2015781,6.1194938 9.9215497,8.3536558 11.714844,9.3164063 A 1,1 0 0 0 13.070313,8.9082031 1,1 0 0 0 12.662109,7.5546875 C 11.797516,7.0905204 11.461497,6.0514789 11.892578,5.1699219 A 1,1 0 0 0 11.433594,3.8320313 1,1 0 0 0 10.669922,3.7832031 Z"
     id="path26" />
  <path
     style="color:#000000;fill:#000000;stroke-linecap:round;stroke-linejoin:round;-inkscape-stroke:none"
     d="M 4.9550781,7.2539062 C 4.5901193,7.4638012 4.45422,7.7421717 4.3652344,7.96875 4.2762487,8.1953283 4.238938,8.4085574 4.2226562,8.625 c -0.032564,0.4328853 0.016595,0.8814289 0.21875,1.3417969 0.2021552,0.4603681 0.659476,0.9929211 1.3417969,1.1093751 0.682321,0.116454 1.3239184,-0.170868 1.9238281,-0.648438 0.3529607,-0.280981 0.5299532,-0.32044 0.5878907,-0.332031 0.030329,0.06474 0.074219,0.158203 0.074219,0.158203 a 1,1 0 0 0 1.1660157,0.802735 1,1 0 0 0 0.8007817,-1.166016 c 0,0 -0.06771,-0.7435148 -0.7324224,-1.34375 C 9.2711617,8.2467574 8.711933,8.0172413 8.140625,8.0761719 7.569317,8.1351024 7.0313289,8.4092102 6.4609375,8.8632813 6.2442627,9.0357694 6.2882292,8.9987392 6.2519531,9.0117188 6.2359486,8.9268114 6.2113532,8.845803 6.2167969,8.7734375 c 0.0012,-0.015951 -5.97e-5,-0.00729 0.00195,-0.019531 A 1,1 0 0 0 6.3203125,7.6210937 1,1 0 0 0 4.9550781,7.2539062 Z"
     id="path27" />
  <path
     style="color:#000000;fill:#000000;stroke-linecap:round;stroke-linejoin:round;-inkscape-stroke:none"
     d="M 8.1113281,10.732422 C 6.6065527,10.309468 4.9927723,10.95722 4.1972656,12.302734 a 1,1 0 0 0 0.3515625,1.369141 1,1 0 0 0 1.3691406,-0.351562 C 6.257033,12.746822 6.9289408,12.47793 7.5703125,12.658203 A 1,1 0 0 0 8.8027344,11.964844 1,1 0 0 0 8.1113281,10.732422 Z"
     id="path28" />
  <path
     style="color:#000000;fill:#000000;stroke-linecap:round;stroke-linejoin:round;-inkscape-stroke:none"
     d="m 32.671875,3.5097656 c -1.275488,0.1854591 -2.05547,1.1259095 -2.527344,1.8867188 -0.235937,0.3804046 -0.408481,0.7403176 -0.53125,1.0039062 -0.06138,0.1317944 -0.111635,0.2402895 -0.140625,0.2988281 -0.02899,0.058539 -0.130731,0.1082428 0.113281,-0.1191406 a 1,1 0 0 0 -0.05078,1.4121094 1,1 0 0 0 1.414063,0.050781 c 0.296837,-0.2766084 0.262057,-0.3453315 0.316406,-0.4550782 0.05435,-0.1097467 0.103358,-0.2218024 0.160156,-0.34375 C 31.539378,7.0002454 31.677975,6.716501 31.84375,6.4492187 32.175301,5.9146543 32.563828,5.5479751 32.960937,5.4902344 A 1,1 0 0 0 33.806641,4.3554687 1,1 0 0 0 32.671875,3.5097656 Z"
     id="path29" />
  <path
     style="color:#000000;fill:#000000;stroke-linecap:round;stroke-linejoin:round;-inkscape-stroke:none"
     d="m 38.509766,13.533203 c -1.246195,-0.205174 -2.501714,0.356301 -3.179688,1.421875 a 1,1 0 0 0 0.306641,1.380859 1,1 0 0 0 1.380859,-0.30664 c 0.250891,-0.394326 0.706803,-0.597411 1.167969,-0.521484 a 1,1 0 0 0 1.148437,-0.824219 1,1 0 0 0 -0.824218,-1.150391 z"
     id="path30" />
  <path
     style="color:#000000;fill:#000000;stroke-linecap:round;stroke-linejoin:round;-inkscape-stroke:none"
     d="m 26.802734,17.572266 c -1.092723,0 -2,0.907276 -2,2 0,1.092723 0.907277,2 2,2 1.092724,0 2,-0.907277 2,-2 0,-1.092724 -0.907276,-2 -2,-2 z"
     id="circle30" />
  <path
     style="color:#000000;fill:#000000;stroke-linecap:round;stroke-linejoin:round;-inkscape-stroke:none"
     d="m 9.1523438,18.949219 c -1.0679815,0 -1.9550782,0.887096 -1.9550782,1.955078 0,1.067981 0.8870967,1.955078 1.9550782,1.955078 1.0679812,0 1.9550782,-0.887097 1.9550782,-1.955078 0,-1.067982 -0.887097,-1.955078 -1.9550782,-1.955078 z m 0,1.910156 c 0.012898,0 0.044922,0.03202 0.044922,0.04492 0,0.0129 -0.032024,0.04492 -0.044922,0.04492 -0.012898,0 -0.044922,-0.03202 -0.044922,-0.04492 0,-0.0129 0.032024,-0.04492 0.044922,-0.04492 z"
     id="circle31" />
  <path
     style="color:#000000;fill:#000000;stroke-linecap:round;stroke-linejoin:round;-inkscape-stroke:none"
     d="m 9.7167969,15.939453 c -2.7888848,0.174566 -4.9632493,2.52152 -4.9375,5.3125 -0.051454,1.630058 0.6870634,3.18952 1.9902343,4.171875 A 1,1 0 0 0 8.1699219,25.226562 1,1 0 0 0 7.9746094,23.826172 C 7.1847148,23.230734 6.7369612,22.28929 6.7734375,21.300781 a 1.0001,1.0001 0 0 0 0,-0.05078 c -0.0258,-1.756781 1.3148208,-3.204693 3.0683594,-3.314453 A 1,1 0 0 0 10.777344,16.875 1,1 0 0 0 9.7167969,15.939453 Z"
     id="path31" />
  <path
     style="color:#000000;fill:#000000;stroke-linecap:round;stroke-linejoin:round;-inkscape-stroke:none"
     d="m 13.490234,29.380859 a 1,1 0 0 0 -0.625,0.441407 1,1 0 0 0 0.302735,1.339843 1,1 0 0 0 0.03125,1.375 1,1 0 0 0 1.414062,-0.03125 c 0.836412,-0.874749 0.655874,-2.349475 -0.367187,-2.996093 a 1,1 0 0 0 -0.75586,-0.128907 z"
     id="path32" />
  <path
     style="color:#000000;fill:#000000;stroke-linecap:round;stroke-linejoin:round;-inkscape-stroke:none"
     d="m 32.021484,23.859375 c -0.672911,0.483317 -1.244943,1.092076 -1.683593,1.794922 a 1.0001,1.0001 0 0 0 -0.09375,0.191406 c -0.230277,0.639414 -0.04806,1.204759 0.0332,1.492188 0.06635,0.23465 0.06006,0.26387 0.05273,0.3125 -0.355776,0.615942 -0.781905,1.188442 -1.300781,1.675781 a 1,1 0 0 0 -0.04492,1.414062 1,1 0 0 0 1.414062,0.04492 c 0.707949,-0.664919 1.307025,-1.438214 1.775391,-2.289062 a 1.0001,1.0001 0 0 0 0.08008,-0.1875 c 0.19889,-0.644696 0.0336,-1.21718 -0.05078,-1.515625 -0.0624,-0.220689 -0.0536,-0.19542 -0.05664,-0.199219 0.287035,-0.422872 0.625196,-0.812667 1.041016,-1.111328 a 1,1 0 0 0 0.228516,-1.394531 1,1 0 0 0 -1.394532,-0.228516 z"
     id="path33" />
</svg>
