<?xml version="1.0" encoding="UTF-8"?>
<svg id="a" version="1.1" viewBox="0 0 48 48" xmlns="http://www.w3.org/2000/svg">
 <defs id="defs1">
  <style id="style1">.b{fill:none;stroke:#000;stroke-width:2px;stroke-linecap:round;stroke-linejoin:round;}</style>
 </defs>
 <path id="polygon1" d="m24.023 5.0801a1.0001 1.0001 0 0 0-0.91016 0.53711l-4.8242 9.2344-2.6152-5.4785a1.0001 1.0001 0 0 0-1.7949-0.021484l-7.5312 14.816a1.0001 1.0001 0 0 0 0.00391 0.91602l3.4727 6.6367-5.1953 9.2109a1.0001 1.0001 0 0 0 0.87109 1.4922h8.6914a1.0001 1.0001 0 0 0 1-1v-2.1445h1.8145a1.0001 1.0001 0 0 0 0.94531-0.67774l1.7988-5.2695 0.60352 0.60352a1.0001 1.0001 0 0 0 1.666-0.42188l1.8145-6.0996 1.8223 5.627a1.0001 1.0001 0 0 0 1.6797 0.37695l0.20312-0.21484 2.0996 5.9062a1.0001 1.0001 0 0 0 0.94141 0.66602h1.8145v2.1445a1.0001 1.0001 0 0 0 1 1h8.0293a1.0001 1.0001 0 0 0 0.9082-1.418l-2.6797-5.8164 3.7109-6.3379a1.0001 1.0001 0 0 0 0.02734-0.96094l-7.6152-14.898a1.0001 1.0001 0 0 0-1.7891 0.01563l-2.8008 5.7266-6.2773-13.57a1.0001 1.0001 0 0 0-0.88477-0.58008zm-0.07813 3.2637 6.3066 13.635a1.0001 1.0001 0 0 0 1.8066 0.01953l2.8457-5.8184 6.4551 12.631-3.6953 6.3145a1.0001 1.0001 0 0 0-0.04492 0.92383l2.2422 4.8711h-5.4668v-2.1445a1.0001 1.0001 0 0 0-1-1h-2.1074l-2.4141-6.7852a1.0001 1.0001 0 0 0-1.6699-0.34961l-0.16602 0.17578-2.293-7.084a1.0001 1.0001 0 0 0-1.9102 0.02344l-2.252 7.5781-0.55078-0.55078a1.0001 1.0001 0 0 0-1.6543 0.38477l-2.0859 6.1113h-2.0996a1.0001 1.0001 0 0 0-1 1v2.1445h-5.9785l4.6211-8.1934a1.0001 1.0001 0 0 0 0.01563-0.95508l-3.4863-6.6621 6.3789-12.547 2.6016 5.4531a1.0001 1.0001 0 0 0 1.7891 0.03125z" stroke-linecap="round" stroke-linejoin="round"/>
</svg>
