<?xml version="1.0" encoding="UTF-8"?>
<svg id="a" version="1.1" viewBox="0 0 48 48" xmlns="http://www.w3.org/2000/svg">
 <defs id="defs4">
  <style id="style2">.m{fill:none;stroke:#000;stroke-width:2px;stroke-linecap:round;stroke-linejoin:round;}</style>
 </defs>
 <g id="b" stroke-linecap="round" stroke-linejoin="round">
  <g id="c">
   <path id="d" d="m21.602 15.189c-1.0407 0-1.7511 0.78064-2.166 1.6172-0.4149 0.83655-0.62891 1.8701-0.62891 3.0039s0.21401 2.1674 0.62891 3.0039 1.1253 1.6152 2.166 1.6152c1.0407 0 1.7511-0.77868 2.166-1.6152s0.62891-1.8701 0.62891-3.0039-0.21401-2.1674-0.62891-3.0039c-0.4149-0.83655-1.1253-1.6172-2.166-1.6172zm0 2c-0.04897 0 0.14002 0.03209 0.375 0.50586 0.23498 0.47377 0.41992 1.2495 0.41992 2.1152s-0.18495 1.6415-0.41992 2.1152c-0.23498 0.47377-0.42397 0.50391-0.375 0.50391 0.04897 0-0.13807-0.03013-0.37305-0.50391-0.23498-0.47377-0.42188-1.2495-0.42188-2.1152s0.1869-1.6415 0.42188-2.1152c0.23498-0.47377 0.42202-0.50586 0.37305-0.50586z" color="#000000" style="-inkscape-stroke:none"/>
   <path id="e" d="m26.398 15.189c-1.0407 0-1.7511 0.78064-2.166 1.6172-0.4149 0.83655-0.63086 1.8701-0.63086 3.0039 0 1.1338 0.21596 2.1674 0.63086 3.0039s1.1253 1.6152 2.166 1.6152c1.0407 0 1.7511-0.77868 2.166-1.6152s0.62891-1.8701 0.62891-3.0039-0.21401-2.1674-0.62891-3.0039c-0.4149-0.83655-1.1253-1.6172-2.166-1.6172zm0 2c-0.04897 0 0.13807 0.03209 0.37305 0.50586 0.23498 0.47377 0.42188 1.2495 0.42188 2.1152s-0.1869 1.6415-0.42188 2.1152c-0.23498 0.47377-0.42202 0.50391-0.37305 0.50391 0.04897 0-0.14002-0.03013-0.375-0.50391-0.23498-0.47377-0.42188-1.2495-0.42188-2.1152s0.1869-1.6415 0.42188-2.1152c0.23498-0.47377 0.42397-0.50586 0.375-0.50586z" color="#000000" style="-inkscape-stroke:none"/>
  </g>
  <g id="f">
   <path id="g" d="m24 8.1777c-6.92 0-12.553 5.6238-12.553 12.537 0 6.8331 5.507 12.424 12.346 12.537a1 1 0 0 0 1.0156-0.98438 1 1 0 0 0-0.98242-1.0156c-5.7711-0.09538-10.379-4.7746-10.379-10.537 0-5.8311 4.7122-10.537 10.553-10.537s10.553 4.706 10.553 10.537c0 2.3958-0.81805 4.72-2.3184 6.5898a1 1 0 0 0 0.1543 1.4062 1 1 0 0 0 1.4062-0.1543c1.7847-2.2243 2.7578-4.991 2.7578-7.8418 0-6.9133-5.6327-12.537-12.553-12.537z" color="#000000" style="-inkscape-stroke:none"/>
   <path id="h" d="m28.523 26.258c-1.548 0.08439-3.0406 0.45514-4.2051 1.2754-1.1645 0.82026-1.9432 2.2279-1.7598 3.8594 0.13677 1.2159 0.82197 2.2254 1.7871 2.6328s2.0173 0.40109 3.3008 0.39453l4.9844-0.02539c0.97987-5e-3 2.2151-0.24458 3.2324-1.0039 0.50866-0.37966 0.96994-0.94068 1.127-1.668 0.15701-0.72729-0.01868-1.5336-0.46875-2.3086-0.7151-1.2313-1.9891-2.0204-3.4141-2.5234-1.4249-0.50307-3.036-0.7172-4.584-0.63281zm0.10742 1.998c1.2824-0.06991 2.6722 0.11958 3.8105 0.52148s1.9895 1.0192 2.3516 1.6426c0.27442 0.47253 0.27619 0.72337 0.24219 0.88086s-0.13207 0.30938-0.36914 0.48633c-0.47415 0.3539-1.4791 0.60453-2.0449 0.60742l-4.9844 0.02539c-1.2411 0.0063-2.121-0.07056-2.5137-0.23633-0.39266-0.16577-0.49009-0.23101-0.57812-1.0137-0.10908-0.96998 0.2099-1.4991 0.92383-2.002s1.8797-0.8422 3.1621-0.91211z" color="#000000" style="-inkscape-stroke:none"/>
   <path id="i" d="m15.492 27.311a1 1 0 0 0-0.75 0.15039c-1.2214 0.81588-2.0562 2.2506-1.8672 3.9316 0.13677 1.2159 0.82197 2.2254 1.7871 2.6328 0.96514 0.40746 2.0173 0.40109 3.3008 0.39453l4.9863-0.02539c0.62692-0.0032 1.3476-0.11987 2.0625-0.38476a1 1 0 0 0 0.58984-1.2852 1 1 0 0 0-1.2852-0.58984c-0.46448 0.1721-1.017 0.25794-1.3789 0.25976l-4.9844 0.02539c-1.2411 0.0063-2.121-0.07056-2.5137-0.23633-0.39266-0.16577-0.49009-0.23101-0.57812-1.0137-0.11237-0.99936 0.22805-1.5378 0.99024-2.0469a1 1 0 0 0 0.27734-1.3867 1 1 0 0 0-0.63672-0.42578z" color="#000000" style="-inkscape-stroke:none"/>
  </g>
 </g>
 <g id="j" stroke-linecap="round" stroke-linejoin="round">
  <path id="k" d="m14.49 27.818c-2.9021 0.49354-5.2668 1.1851-6.9902 2.0586-0.86172 0.43674-1.5692 0.91834-2.1016 1.4941-0.53239 0.5758-0.89844 1.2925-0.89844 2.0742 0 1.2073 0.81043 2.1783 1.8867 2.918 1.0763 0.73965 2.5126 1.3382 4.252 1.8438 3.4787 1.0112 8.1741 1.6152 13.361 1.6152 5.1872 0 9.8826-0.60407 13.361-1.6152 1.7394-0.50558 3.1757-1.1041 4.252-1.8438 1.0763-0.73966 1.8867-1.7107 1.8867-2.918 0-1.3923-1.047-2.4568-2.4688-3.2793-1.4218-0.82249-3.3646-1.492-5.7773-2.0137a1 1 0 0 0-1.1895 0.76758 1 1 0 0 0 0.76562 1.1875c2.2798 0.49298 4.065 1.1329 5.1992 1.7891 1.1342 0.65614 1.4707 1.2411 1.4707 1.5488 0 0.27766-0.22353 0.7225-1.0195 1.2695-0.796 0.54703-2.0693 1.1047-3.6777 1.5723-3.2169 0.93506-7.7726 1.5352-12.803 1.5352-5.0301 0-9.5858-0.60008-12.803-1.5352-1.6085-0.46754-2.8817-1.0252-3.6777-1.5723-0.796-0.54703-1.0195-0.99191-1.0195-1.2695 0-0.17335 0.068701-0.39397 0.36719-0.7168 0.29849-0.32283 0.81833-0.70211 1.5371-1.0664 1.4376-0.72859 3.652-1.402 6.4219-1.873a1 1 0 0 0 0.81836-1.1523 1 1 0 0 0-1.1543-0.81836z" color="#000000" style="-inkscape-stroke:none"/>
  <path id="l" d="m13.588 29.555c-1.3341 0.35692-2.4035 0.77278-3.2168 1.293-0.81332 0.52019-1.4883 1.2351-1.4883 2.209 0 1.0266 0.73516 1.7523 1.5879 2.2734 0.85273 0.52117 1.9598 0.92974 3.2969 1.2754 2.6742 0.6913 6.264 1.1016 10.232 1.1016s7.5582-0.41027 10.232-1.1016c1.3371-0.34565 2.4441-0.75422 3.2969-1.2754 0.85273-0.52117 1.5898-1.2469 1.5898-2.2734 0-0.69099-0.37543-1.2849-0.85156-1.7227-0.47613-0.4378-1.0836-0.78434-1.8281-1.0996a1 1 0 0 0-1.3105 0.53125 1 1 0 0 0 0.53125 1.3105c0.6079 0.25743 1.0341 0.52644 1.2539 0.72852 0.21976 0.20207 0.20508 0.27194 0.20508 0.25195 0-0.01877-0.05671 0.21626-0.63281 0.56836-0.5761 0.3521-1.5361 0.73012-2.7539 1.0449-2.4355 0.6296-5.9037 1.0371-9.7324 1.0371s-7.2969-0.40751-9.7324-1.0371c-1.2178-0.3148-2.1778-0.69283-2.7539-1.0449s-0.63086-0.58712-0.63086-0.56836c0 0.02768 0.03316-0.18433 0.56641-0.52539 0.53325-0.34106 1.4471-0.71949 2.6562-1.043a1 1 0 0 0 0.70703-1.2246 1 1 0 0 0-1.2246-0.70898z" color="#000000" style="-inkscape-stroke:none"/>
 </g>
</svg>
