<?xml version="1.0" encoding="UTF-8" standalone="no"?>
<svg
   id="b"
   viewBox="0 0 48 48"
   version="1.1"
   sodipodi:docname="steam_icon_1313140.svg"
   xmlns:inkscape="http://www.inkscape.org/namespaces/inkscape"
   xmlns:sodipodi="http://sodipodi.sourceforge.net/DTD/sodipodi-0.dtd"
   xmlns="http://www.w3.org/2000/svg"
   xmlns:svg="http://www.w3.org/2000/svg">
  <sodipodi:namedview
     id="namedview3"
     pagecolor="#ffffff"
     bordercolor="#666666"
     borderopacity="1.0"
     inkscape:showpageshadow="2"
     inkscape:pageopacity="0.0"
     inkscape:pagecheckerboard="0"
     inkscape:deskcolor="#d1d1d1" />
  <defs
     id="defs1">
    <style
       id="style1">.c{fill:none;stroke:#000;stroke-width:2px;stroke-linecap:round;stroke-linejoin:round;}</style>
  </defs>
  <path
     style="color:#000000;fill:#000000;stroke-linecap:round;stroke-linejoin:round;-inkscape-stroke:none"
     d="m 36.871094,3.5058594 c 0,0 -8.192398,1.1359214 -12.833985,10.2421876 C 21.356577,8.9144084 18.460606,6.2627812 16.083984,4.9804687 14.756527,4.2642359 13.60006,3.9354667 12.761719,3.7890625 11.923377,3.6426583 11.330078,3.6835938 11.330078,3.6835938 A 1.0001,1.0001 0 0 0 10.414063,4.625 L 8.3671875,42.224609 A 1.0001,1.0001 0 0 0 9.1269531,43.25 c 0,0 5.1285709,1.25 14.9531249,1.25 9.804892,0 14.744141,-0.951172 14.744141,-0.951172 a 1.0001,1.0001 0 0 0 0.808593,-1.025391 L 37.980469,4.4570312 A 1.0001,1.0001 0 0 0 36.871094,3.5058594 Z m -0.837891,2.2109375 1.5625,35.9765621 C 36.6073,41.862761 32.602749,42.5 24.080078,42.5 15.504536,42.5 11.373023,41.652019 10.414063,41.441406 L 12.357422,5.7519531 c 0.0393,0.00623 0.01808,-0.00156 0.06055,0.00586 0.646088,0.1128299 1.589931,0.3744186 2.716797,0.9824219 2.253731,1.2160066 5.269069,3.8231106 8.046875,9.5449216 a 1.0001,1.0001 0 0 0 0.898437,0.5625 1.0001,1.0001 0 0 0 0.927734,-0.623047 C 28.248522,8.2705587 33.840936,6.2374959 36.033203,5.7167969 Z"
     id="path1" />
  <path
     style="color:#000000;fill:#000000;stroke-linecap:round;stroke-linejoin:round;-inkscape-stroke:none"
     d="m 24.070312,24.3125 c -0.465311,0 -0.930588,0.207105 -1.208984,0.621094 -0.703083,1.045843 -1.115234,2.312389 -1.115234,3.664062 0,1.351756 0.412171,2.616296 1.115234,3.66211 0.556791,0.827977 1.861178,0.827977 2.417969,0 0.703083,-1.045843 1.115234,-2.310436 1.115234,-3.66211 0,-1.351673 -0.412151,-2.618219 -1.115234,-3.664062 C 25.000901,24.519605 24.535624,24.3125 24.070312,24.3125 Z m 0,3.220703 c 0.09374,0.364365 0.324219,0.668509 0.324219,1.064453 0,0.396223 -0.230347,0.699858 -0.324219,1.064453 -0.09387,-0.364584 -0.324218,-0.668181 -0.324218,-1.064453 0,-0.395944 0.230475,-0.700088 0.324218,-1.064453 z"
     id="path2" />
  <path
     style="color:#000000;fill:#000000;stroke-linecap:round;stroke-linejoin:round;-inkscape-stroke:none"
     d="m 24.080078,23 c -3.917412,0 -7.430336,1.789504 -9.746094,4.595703 -0.508966,0.616899 -0.508966,1.527632 0,2.144531 2.315758,2.806199 5.828682,4.597657 9.746094,4.597657 3.917413,0 7.43229,-1.791458 9.748047,-4.597657 0.508966,-0.616899 0.508966,-1.527632 0,-2.144531 C 31.512368,24.789504 27.997491,23 24.080078,23 Z m 0,2 c 3.191489,0 6.000433,1.447972 7.949219,3.667969 -1.948788,2.220035 -4.757699,3.669922 -7.949219,3.669922 -3.19148,0 -5.99848,-1.449935 -7.947266,-3.669922 C 18.081597,26.44802 20.888629,25 24.080078,25 Z"
     id="path3" />
</svg>
