<?xml version="1.0" encoding="UTF-8"?>
<svg id="a" version="1.1" viewBox="0 0 48 48" xmlns="http://www.w3.org/2000/svg">
 <defs id="defs1">
  <style id="style1">.ac{fill:none;stroke:#000;stroke-width:2px;stroke-linecap:round;stroke-linejoin:round;}</style>
 </defs>
 <g id="b" stroke-linecap="round" stroke-linejoin="round">
  <path id="c" d="m24.111 11.717c-0.59327 0.01489-1.1564 0.10979-1.6699 0.25977-1.027 0.29995-1.8813 0.77165-2.5078 1.1504-0.31327 0.18937-0.57163 0.35801-0.74219 0.46094-0.08528 0.05146-0.14933 0.08478-0.16406 0.0918-0.01473 7e-3 -8e-3 -0.04492 0.26562-0.04492a1.0001 1.0001 0 0 0-0.05078 1.998l0.05078 2e-3 9.6523 0.49805a1.0001 1.0001 0 0 0 0.8125-1.6465c-1.8133-2.1322-3.8667-2.8142-5.6465-2.7695zm1.334 2.0723c0.12206 0.03293 0.2545 0.13411 0.37891 0.18164l-2.0762-0.10742c0.55166-0.0944 1.0958-0.2365 1.6973-0.07422z" color="#000000" style="-inkscape-stroke:none"/>
  <path id="d" d="m19.324 13.539s-0.74072 0.3134-1.5371 0.8457c-0.79639 0.5323-1.7671 1.2618-2.0664 2.5039a1.0001 1.0001 0 0 0 0.08399 0.49023c-0.5907 0.26968-1.1655 0.62186-1.5762 1.2324-0.56244 0.83618-0.69092 2.0116-0.27734 3.2871a1.0001 1.0001 0 0 0 1.5898 0.46094s1.3601-1.1478 4.1211-1.8672c2.761-0.71934 6.8442-0.96438 12.178 1.0938a1 1 0 0 0 1.293-0.57422 1 1 0 0 0-0.57422-1.293c-5.2362-2.0206-9.3699-1.9006-12.455-1.2539a1.0001 1.0001 0 0 0-0.25195-1.7402l-1.3418-0.26367c0.16782-0.15261 0.19236-0.2809 0.38867-0.41211 0.62294-0.41637 1.2109-0.66992 1.2109-0.66992a1 1 0 0 0 0.52734-1.3105 1 1 0 0 0-1.3125-0.5293zm-0.85938 5.293c-1.0206 0.32702-1.9334 0.68209-2.5801 1.0254 0.01519-0.02596-0.01452-0.10441 2e-3 -0.12891 0.19849-0.29509 0.61775-0.56142 1.1738-0.73828 0.61747-0.19639 0.89336-0.13822 1.4043-0.1582z" color="#000000" style="-inkscape-stroke:none"/>
  <path id="e" d="m28.648 14.197a1 1 0 0 0-0.56055 0.52148 1 1 0 0 0 0.49219 1.3262c2.2614 1.0352 2.7526 2.0962 2.8809 2.8613 0.12822 0.7651-0.14453 1.2773-0.14453 1.2773a1.0001 1.0001 0 0 0-0.08789 0.70703s0.63743 2.6922 0.08984 5.4238c-0.27379 1.3658-0.83134 2.7039-1.8633 3.7598-1.0263 1.0501-2.5448 1.8647-4.9395 2.1289-0.56804-0.03313-1.2644 0.0064-2.2637-0.0918-1.0683-0.10502-2.313-0.35964-3.4023-0.93164-1.0893-0.572-2.0289-1.4269-2.6289-2.873-0.60004-1.4462-0.85088-3.5345-0.33203-6.5469a1 1 0 0 0-0.81641-1.1543 1 1 0 0 0-1.1562 0.81641c-0.56346 3.2714-0.3276 5.7613 0.45703 7.6523s2.1268 3.1312 3.5469 3.877c1.4201 0.74571 2.9132 1.0301 4.1367 1.1504 1.2236 0.12028 2.3019 0.08739 2.4512 0.09961a1.0001 1.0001 0 0 0 0.18945-2e-3c2.7871-0.2991 4.8168-1.3261 6.1875-2.7285 1.3707-1.4025 2.0672-3.131 2.3945-4.7637 0.59968-2.9915 0.04457-5.5237-0.05859-5.9707 0.15667-0.39065 0.38981-1.1044 0.21289-2.1602-0.23948-1.4291-1.3485-3.126-4.0215-4.3496a1 1 0 0 0-0.76367-0.0293z" color="#000000" style="-inkscape-stroke:none"/>
  <path id="f" d="m16.27 29.949a1 1 0 0 0-0.76367 0.05664c-0.30206 0.15259-0.26741 0.1884-0.31836 0.24024-0.05095 0.05184-0.09299 0.10089-0.14062 0.15625-0.09527 0.11072-0.20465 0.2459-0.33008 0.4082-0.25086 0.3246-0.56529 0.75369-0.89258 1.2363-0.65457 0.96528-1.3605 2.0948-1.707 3.1328-0.17325 0.519-0.37796 1.0747 0.01953 1.7754 0.19875 0.35033 0.61334 0.61629 0.97852 0.6875 0.36518 0.07121 0.68646 0.02504 1.0176-0.06055 1.3245-0.34236 3.0985-1.4286 6.2461-3.7715a1 1 0 0 0 0.20508-1.4004 1 1 0 0 0-1.3984-0.20508c-2.6742 1.9905-4.0078 2.6537-4.8262 2.9883 0.29769-0.62698 0.65634-1.3381 1.1211-2.0234 0.30352-0.44759 0.5973-0.85067 0.81836-1.1367 0.11053-0.14303 0.20464-0.25757 0.26367-0.32617 0.02951-0.0343 0.05023-0.05804 0.05078-0.05859 5.48e-4 -5.57e-4 0.07464 0.0013-0.20508 0.14258a1 1 0 0 0 0.44141-1.3438 1 1 0 0 0-0.58008-0.49805z" color="#000000" style="-inkscape-stroke:none"/>
  <path id="g" d="m31.91 28.539a1 1 0 0 0-1.3672 0.35938 1 1 0 0 0 0.35938 1.3672c1.5435 0.90178 2.0723 1.9231 2.2949 2.7324 0.22266 0.80936 0.10938 1.3262 0.10938 1.3262a1.0001 1.0001 0 0 0-0.01953 0.22852c0.01611 0.58069-0.11401 0.71626-0.0918 0.69336 0.02222-0.0229 0.06361-0.0078-0.10547-0.02344-0.16908-0.01567-0.4472-0.09944-0.68945-0.19726-0.02816-0.01137-0.05285-0.02181-0.08008-0.0332-0.26025-1.4631-0.76285-2.55-1.3379-3.1758-0.66794-0.72686-1.4512-0.98047-1.4512-0.98047a1 1 0 0 0-1.2363 0.68555 1 1 0 0 0 0.68555 1.2363s0.16617 0.01695 0.5293 0.41211c0.36313 0.39516 0.83131 1.1455 0.97852 2.668a1.0001 1.0001 0 0 0 1.0957 0.89844c-0.35685 0.0362-0.33898-0.02895-0.35156-0.0332-0.01258-0.0042 0.01241 0.0054 0.05078 0.02148 0.07674 0.03215 0.20877 0.09033 0.36719 0.1543 0.31683 0.12794 0.74143 0.28827 1.2559 0.33594s1.2188-0.05477 1.7246-0.57617c0.48423-0.49912 0.63584-1.2206 0.62891-2.0508 0.02022-0.11309 0.18737-0.95728-0.13281-2.1211-0.34081-1.2388-1.2526-2.7802-3.2168-3.9277z" color="#000000" style="-inkscape-stroke:none"/>
  <path id="h" d="m12.223 11.906a1.0001 1.0001 0 0 0-0.87695 0.15039l-1.9961 1.4551a1.0001 1.0001 0 0 0-0.3125 1.2422l4.7168 9.8301a1 1 0 0 0 1.334 0.46875 1 1 0 0 0 0.46875-1.334l-1.4766-3.0762a1 1 0 0 0 1.2227 0.16797 1 1 0 0 0 0.19336-1.4023c0.16117 0.21253 0.07209 0.11719 0.05078 0.07031-0.0213-0.04688-0.05587-0.12612-0.09766-0.22656-0.08357-0.20089-0.19748-0.48865-0.33008-0.82617-0.2652-0.67504-0.60441-1.5572-0.9375-2.4336-0.66618-1.7528-1.3086-3.4766-1.3086-3.4766a1.0001 1.0001 0 0 0-0.65039-0.60937zm-0.75976 2.541c0.24463 0.65269 0.41717 1.1161 0.84961 2.2539 0.17681 0.46521 0.3311 0.85988 0.5 1.2988l-1.6133-3.3613z" color="#000000" style="-inkscape-stroke:none"/>
  <path id="i" d="m7.8164 13.256a1.0001 1.0001 0 0 0-0.72461 0.2793l-0.73828 0.71289a1.0001 1.0001 0 0 0-0.16016 1.2402l0.50195 0.82617a1.0001 1.0001 0 0 0 0.94141 0.47656l0.16797-0.01563a1.0001 1.0001 0 0 0-0.039063 0.11914l4.8184 9.8008a1.0001 1.0001 0 0 0 1.7695 0.04492l1.1738-2.1016a1 1 0 0 0-0.38477-1.3613 1 1 0 0 0-1.3613 0.38672l-0.24414 0.4375-3.543-7.2051 0.91406-0.46484a1.0001 1.0001 0 0 0-0.2832-1.7852 1 1 0 0 0 0.3125-0.29492 1 1 0 0 0-0.96875-1.0312z" color="#000000" style="-inkscape-stroke:none"/>
  <path id="j" d="m7.0742 14.916-1.4863 0.80273a1.0001 1.0001 0 0 0-0.29297 1.5176l0.33398 0.4043-0.39648 0.40039c-0.18347-0.12246-0.31849-0.36348-0.52734-0.42383-0.57591-0.16642-1.1533-0.008621-1.5293 0.21484-0.752 0.44693-1.0547 1.1191-1.0547 1.1191a1.0001 1.0001 0 0 0 0.039063 1.0195l1.5859 2.4492a1.0001 1.0001 0 0 0 0.92383 0.45312l2.1113-0.17578a1.0001 1.0001 0 0 0 0.52148-0.19922l2.4375-1.8438a1.0001 1.0001 0 0 0 0.39453-0.74219c0.04732-0.85882-0.0963-1.5761-0.42773-2.1387-0.33143-0.56259-0.84408-0.91862-1.3105-1.0918-0.18371-0.068202-0.17863 0.006346-0.34961-0.023438a1 1 0 0 0 0.38281-1.3379 1 1 0 0 0-1.3555-0.4043zm0.47852 3.6309c0.066611 0.0086 0.089429-0.01214 0.14844 0.0098 0.12657 0.04699 0.19762 0.09047 0.28125 0.23242 0.050757 0.08616 0.063273 0.3878 0.09375 0.61524l-1.75 1.3242-1.2266 0.10156-0.58594-0.90625a1.0001 1.0001 0 0 0 1.5293 0.13672z" color="#000000" style="-inkscape-stroke:none"/>
  <path id="k" d="m11.088 20.992s-0.97736-0.10017-2.0039 0.1875c-0.51327 0.14384-1.0885 0.38996-1.5293 0.92383-0.34605 0.41916-0.46915 1.0237-0.44727 1.6504-0.18835 0.29699-0.57669 0.96816-0.6582 1.9941-0.051492 0.64811 0.077287 1.4365 0.58789 2.1074 0.5106 0.67091 1.3407 1.1606 2.4707 1.4355a1.0001 1.0001 0 0 0 0.35352 0.02148s0.83001-0.11499 1.6777-0.70312c0.84772-0.58813 1.7945-1.6762 2.3262-3.4766a1 1 0 0 0-0.67578-1.2422 1 1 0 0 0-1.2422 0.67578c-0.41598 1.4085-1.05 2.0556-1.5469 2.4004-0.39152 0.27163-0.51899 0.2669-0.60938 0.28321-0.60336-0.19035-1.0184-0.41667-1.1621-0.60547-0.16706-0.21951-0.20945-0.43737-0.18555-0.73828 0.047815-0.60183 0.4707-1.2969 0.4707-1.2969a1.0001 1.0001 0 0 0 0.15039-0.77734c-0.079151-0.35964-0.025391-0.3841 0.033203-0.45508 0.058594-0.070973 0.24632-0.19273 0.52734-0.27148 0.56205-0.1575 1.3008-0.11914 1.3008-0.11914a1 1 0 0 0 1.0781-0.91602 1 1 0 0 0-0.91602-1.0781z" color="#000000" style="-inkscape-stroke:none"/>
  <path id="l" d="m8.4805 23.129a1 1 0 0 0-1.3125 0.52539 1 1 0 0 0 0.52539 1.3125s0.5487 0.24884 0.95508 0.73438c0.40638 0.48554 0.71321 1.0164 0.18164 2.2129a1 1 0 0 0 0.50781 1.3203 1 1 0 0 0 1.3184-0.50781c0.79973-1.8 0.27999-3.407-0.47461-4.3086-0.7546-0.90158-1.7012-1.2891-1.7012-1.2891z" color="#000000" style="-inkscape-stroke:none"/>
  <path id="m" d="m9.791 11.477c-0.7489 0.082833-1.3707 0.36953-1.8105 0.74805-0.87963 0.75703-1.1523 1.7461-1.1523 1.7461a1 1 0 0 0 0.67383 1.2441 1 1 0 0 0 1.2422-0.67383s0.16534-0.47551 0.54102-0.79883c0.37567-0.32332 0.83817-0.62356 2.2246 0.02734a1 1 0 0 0 1.3301-0.48047 1 1 0 0 0-0.47852-1.3301c-0.94518-0.44374-1.8214-0.56526-2.5703-0.48242z" color="#000000" style="-inkscape-stroke:none"/>
  <path id="n" d="m37.344 10.82a1.0001 1.0001 0 0 0-0.77539 0.48828l-5.2305 8.834a1 1 0 0 0 0.35156 1.3711 1 1 0 0 0 1.3691-0.35156l4.5176-7.6328 0.86133 1.0078-6.5039 8.4688a1 1 0 0 0 0.18359 1.4023 1 1 0 0 0 1.4023-0.18359l6.998-9.1113a1.0001 1.0001 0 0 0-0.0332-1.2578l-2.2949-2.6875a1.0001 1.0001 0 0 0-0.84571-0.34766z" color="#000000" style="-inkscape-stroke:none"/>
  <path id="o" d="m39.42 10.326a1.0001 1.0001 0 0 0-0.73242 0.25977l-0.87891 0.79883a1 1 0 0 0-0.06641 1.4141 1 1 0 0 0 1.4141 0.06641l0.12109-0.10938 0.31836 0.36719-0.62695 0.72656a1 1 0 0 0 0.09961 1.4102 1 1 0 0 0 1.4102-0.09961l1.1973-1.3809a1.0001 1.0001 0 0 0 0-1.3105l-1.5586-1.7988a1.0001 1.0001 0 0 0-0.69726-0.34375z" color="#000000" style="-inkscape-stroke:none"/>
  <path id="p" d="m39.896 13.52a1 1 0 0 0-0.74609 0.16602 1 1 0 0 0-0.24609 1.3926l1.0254 1.4668-6.0508 8.2207-0.48047-0.6875a1 1 0 0 0-1.3926-0.24805 1 1 0 0 0-0.24609 1.3926l1.2773 1.8301a1.0001 1.0001 0 0 0 1.625 0.01953l7.3047-9.9199a1.0001 1.0001 0 0 0 0.01367-1.168l-1.4375-2.0527a1 1 0 0 0-0.64648-0.41211z" color="#000000" style="-inkscape-stroke:none"/>
  <path id="q" d="m37.037 21.098a1 1 0 0 0-0.04687 1.4141s0.59026 0.63031 1.209 1.2988c0.30936 0.33426 0.62534 0.67804 0.87695 0.95508 0.0051 0.0056 0.0047 0.0042 0.0098 0.0098-0.24007 0.45461-0.49297 0.89521-0.74023 1.0176-0.1692 0.08374-0.17904 0.05846-0.27344 0.07617l-1.7676-1.6582a1 1 0 0 0-1.4121 0.04297 1 1 0 0 0 0.04297 1.4141l2.1387 2.0078a1.0001 1.0001 0 0 0 0.64648 0.27148s0.73774 0.02171 1.5117-0.36133c0.77398-0.38304 1.6458-1.2234 2.0527-2.6387a1.0001 1.0001 0 0 0-0.16406-0.88281c-0.14949-0.19643-0.30523-0.35716-0.56445-0.64258-0.25922-0.28541-0.5789-0.6339-0.89062-0.9707-0.62344-0.67361-1.2148-1.3066-1.2148-1.3066a1 1 0 0 0-1.4141-0.04687z" color="#000000" style="-inkscape-stroke:none"/>
  <path id="r" d="m40.604 17.402a1 1 0 0 0-0.72656 0.24023 1 1 0 0 0-0.10352 1.4102c0.51802 0.59895 1.2247 0.90244 1.8789 1.0039 0.65416 0.10146 1.2779 0.03179 1.8281-0.08203 0.06553-0.01355 0.05342-0.02603 0.11719-0.04102-0.10711 0.42453-0.18308 0.70361-0.26367 0.99609-1.3463 0.2801-2.2237 0.07597-2.7422-0.25781-0.59147-0.38079-0.78516-0.79297-0.78516-0.79297a1 1 0 0 0-1.3359-0.46289 1 1 0 0 0-0.46289 1.3359s0.46193 0.932 1.502 1.6016c1.04 0.66956 2.7179 1.0904 4.9043 0.43359a1.0001 1.0001 0 0 0 0.6582-0.63086c0.15864-0.45696 0.35263-1.2548 0.54492-2.0371 0.1923-0.78232 0.35742-1.4844 0.35742-1.4844a1.0001 1.0001 0 0 0-1.4277-1.1191s-0.67871 0.33813-1.4707 0.50195c-0.396 0.08191-0.80506 0.11091-1.1172 0.0625-0.31212-0.04841-0.50564-0.14373-0.67188-0.33594a1 1 0 0 0-0.68359-0.3418z" color="#000000" style="-inkscape-stroke:none"/>
  <path id="s" d="m21.113 23.273a1 1 0 0 0-1.0137 0.98633l-0.01953 1.5332a1 1 0 0 0 0.98633 1.0137 1 1 0 0 0 1.0137-0.98828l0.01953-1.5332a1 1 0 0 0-0.98633-1.0117z" color="#000000" style="-inkscape-stroke:none"/>
  <path id="t" d="m22.729 23.6c-1.2202 0.13609-2.0723 0.50781-2.0723 0.50781a1 1 0 0 0-0.54297 1.3066 1 1 0 0 0 1.3066 0.54297s2.599-0.99082 4.5078 0.23633a1 1 0 0 0 1.3828-0.30078 1 1 0 0 0-0.30078-1.3828c-1.4729-0.94692-3.0611-1.0462-4.2812-0.91016z" color="#000000" style="-inkscape-stroke:none"/>
  <path id="u" d="m24.533 25.459c-0.47372-0.07-0.90595-0.0448-1.2617 0.0332-0.71154 0.156-1.2031 0.53711-1.2031 0.53711a1 1 0 0 0-0.16406 1.4062 1 1 0 0 0 1.4062 0.16211s0.09575-0.08574 0.39062-0.15039c0.29488-0.06465 0.70005-0.09026 1.3281 0.2793a1 1 0 0 0 1.3691-0.35547 1 1 0 0 0-0.35352-1.3691c-0.52161-0.30692-1.038-0.47297-1.5117-0.54297z" color="#000000" style="-inkscape-stroke:none"/>
  <path id="v" d="m17.096 20.389a1 1 0 0 0-1.0684 0.92773 1 1 0 0 0 0.92578 1.0684s0.52791 0.0389 1.1445 0.16406c0.61662 0.12516 1.3018 0.4242 1.3887 0.50781a1 1 0 0 0 1.4141-0.02734 1 1 0 0 0-0.02734-1.4141c-0.72669-0.69918-1.6193-0.87356-2.377-1.0273-0.75763-0.15379-1.4004-0.19922-1.4004-0.19922z" color="#000000" style="-inkscape-stroke:none"/>
  <path id="w" d="m28.824 20.1c-1.6668 0.15713-2.7891 1.1719-2.7891 1.1719a1 1 0 0 0-0.05859 1.4121 1 1 0 0 0 1.4121 0.05859s1.089-1.0338 2.6582-0.53711a1 1 0 0 0 1.2559-0.65234 1 1 0 0 0-0.65234-1.2539c-0.65524-0.20741-1.2706-0.25159-1.8262-0.19922z" color="#000000" style="-inkscape-stroke:none"/>
  <path id="x" d="m17.85 24.314a1 1 0 0 0-1.2305 0.69727s-0.05479 0.23286-0.06055 0.46289c-0.0058 0.23003 0.01504 0.5363 0.09375 0.91797 0.15742 0.76335 0.54512 1.8315 1.4258 3.2598a1 1 0 0 0 1.377 0.32617 1 1 0 0 0 0.32617-1.377c-0.78444-1.2722-1.0698-2.1278-1.1699-2.6133-0.05005-0.24272-0.05447-0.3934-0.05273-0.46289 0.0017-0.06949-0.01172 0.01953-0.01172 0.01953a1 1 0 0 0-0.69727-1.2305z" color="#000000" style="-inkscape-stroke:none"/>
  <path id="y" d="m18.723 24.852a1 1 0 0 0-0.75781 0.10547l-1.5977 0.93945a1 1 0 0 0-0.35352 1.3691 1 1 0 0 0 1.3691 0.35547l1.5977-0.94141a1 1 0 0 0 0.35352-1.3672 1 1 0 0 0-0.61133-0.46094z" color="#000000" style="-inkscape-stroke:none"/>
  <path id="z" d="m19.232 26.113a1 1 0 0 0-0.75391 0.13086l-1.5879 1.002a1 1 0 0 0-0.3125 1.3809 1 1 0 0 0 1.3809 0.31055l1.5879-1.0039a1 1 0 0 0 0.31055-1.3789 1 1 0 0 0-0.625-0.44141z" color="#000000" style="-inkscape-stroke:none"/>
  <path id="aa" d="m18.105 21.096c-1.1327 0-2.0723 0.93956-2.0723 2.0723s0.93956 2.0723 2.0723 2.0723 2.0723-0.93956 2.0723-2.0723-0.93956-2.0723-2.0723-2.0723zm0 2c0.05183 0 0.07227 0.02044 0.07227 0.07227s-0.02044 0.07227-0.07227 0.07227-0.07227-0.02044-0.07227-0.07227 0.02044-0.07227 0.07227-0.07227z" color="#000000" style="-inkscape-stroke:none"/>
  <path id="ab" d="m28.611 20.854c-1.1327 0-2.0723 0.93956-2.0723 2.0723s0.93956 2.0723 2.0723 2.0723 2.0723-0.93956 2.0723-2.0723-0.93956-2.0723-2.0723-2.0723zm0 2c0.05183 0 0.07227 0.02044 0.07227 0.07227s-0.02044 0.07227-0.07227 0.07227-0.07227-0.02044-0.07227-0.07227 0.02044-0.07227 0.07227-0.07227z" color="#000000" style="-inkscape-stroke:none"/>
 </g>
</svg>
