<?xml version="1.0" encoding="UTF-8" standalone="no"?>
<svg
   id="a"
   viewBox="0 0 48 48"
   version="1.1"
   sodipodi:docname="steam_icon_239030.svg"
   xmlns:inkscape="http://www.inkscape.org/namespaces/inkscape"
   xmlns:sodipodi="http://sodipodi.sourceforge.net/DTD/sodipodi-0.dtd"
   xmlns="http://www.w3.org/2000/svg"
   xmlns:svg="http://www.w3.org/2000/svg">
  <sodipodi:namedview
     id="namedview4"
     pagecolor="#ffffff"
     bordercolor="#666666"
     borderopacity="1.0"
     inkscape:showpageshadow="2"
     inkscape:pageopacity="0.0"
     inkscape:pagecheckerboard="0"
     inkscape:deskcolor="#d1d1d1" />
  <defs
     id="defs1">
    <style
       id="style1">.b{fill:none;stroke:#000;stroke-width:2px;stroke-linecap:round;stroke-linejoin:round;}</style>
  </defs>
  <path
     style="color:#000000;fill:#000000;stroke-linecap:round;stroke-linejoin:round;-inkscape-stroke:none"
     d="M 3.5,11.556641 A 1.0001,1.0001 0 0 0 2.7890625,13.259766 L 18.228516,28.908203 v 1.001953 h -1.253907 a 1.0001,1.0001 0 0 0 -1,1 v 2.621094 a 1.0001,1.0001 0 0 0 1.707032,0.707031 l 0.728515,-0.730469 h 0.373047 l -0.523437,0.521485 a 1.0001,1.0001 0 0 0 0.707031,1.707031 h 2.679687 l 1.646485,1.648438 a 1,1 0 0 0 1.414062,0 1,1 0 0 0 0,-1.414063 l -1.939453,-1.941406 a 1.0001,1.0001 0 0 0 -0.707031,-0.292969 h -1.033203 a 1.0001,1.0001 0 0 0 0.04102,-0.09961 v -1.128907 a 1.0001,1.0001 0 0 0 -1,-1 h -0.4375 a 1.0001,1.0001 0 0 0 0.597657,-0.597656 V 28.498047 A 1.0001,1.0001 0 0 0 19.939453,27.794922 L 5.890625,13.556641 h 9.253906 l 2.087891,2.08789 v 2.478516 a 1.0001,1.0001 0 0 0 0.292969,0.707031 l 0.935546,0.935547 a 1.0001,1.0001 0 0 0 0.707032,0.292969 h 2.472656 a 1,1 0 0 0 1,-1 1,1 0 0 0 -1,-1 h -2.058594 l -0.349609,-0.34961 v -2.478515 a 1.0001,1.0001 0 0 0 -0.292969,-0.707031 l -2.673828,-2.673829 a 1.0001,1.0001 0 0 0 -0.707031,-0.292968 z"
     id="path1" />
  <path
     style="color:#000000;fill:#000000;stroke-linecap:round;stroke-linejoin:round;-inkscape-stroke:none"
     d="m 32.441406,11.556641 a 1.0001,1.0001 0 0 0 -0.707031,0.292968 l -2.673828,2.673829 a 1.0001,1.0001 0 0 0 -0.292969,0.707031 v 2.478515 l -0.349609,0.34961 h -2.058594 a 1,1 0 0 0 -1,1 1,1 0 0 0 1,1 h 2.472656 a 1.0001,1.0001 0 0 0 0.707031,-0.292969 l 0.935547,-0.935547 a 1.0001,1.0001 0 0 0 0.292969,-0.707031 v -2.478516 l 2.087891,-2.08789 h 9.251953 L 28.060547,27.794922 a 1.0001,1.0001 0 0 0 -0.289063,0.703125 v 2.412109 a 1.0001,1.0001 0 0 0 0.597657,0.597656 h -0.4375 a 1.0001,1.0001 0 0 0 -1,1 v 1.128907 a 1.0001,1.0001 0 0 0 0.04102,0.09961 h -1.033203 a 1.0001,1.0001 0 0 0 -0.707031,0.292969 l -1.939453,1.941406 a 1,1 0 0 0 0,1.414063 1,1 0 0 0 1.414062,0 l 1.646485,-1.648438 h 2.679687 a 1.0001,1.0001 0 0 0 0.707031,-1.707031 l -0.523437,-0.521485 h 0.373047 l 0.728515,0.730469 a 1.0001,1.0001 0 0 0 1.707032,-0.707031 v -2.621094 a 1.0001,1.0001 0 0 0 -1,-1 H 29.771484 V 28.908203 L 45.210937,13.259766 A 1.0001,1.0001 0 0 0 44.5,11.556641 Z"
     id="path2" />
  <path
     style="color:#000000;fill:#000000;stroke-linecap:round;stroke-linejoin:round;-inkscape-stroke:none"
     d="m 24.068359,20.345703 a 1,1 0 0 0 -0.707031,0.292969 l -0.623047,0.623047 h -0.828125 l -0.623047,-0.623047 a 1.0001,1.0001 0 0 0 -1.707031,0.707031 v 4.746094 a 1.0001,1.0001 0 0 0 0.08008,0.392578 l 0.65625,1.537109 a 1.0001,1.0001 0 0 0 0.279297,0.376953 l 1.449219,1.205079 a 1.0001,1.0001 0 0 0 0.339844,0.183593 l 1.384765,0.435547 a 1,1 0 0 0 1.253906,-0.654297 1,1 0 0 0 -0.654296,-1.253906 l -1.197266,-0.375 -1.111328,-0.923828 -0.480469,-1.128906 v -2.625 h 1.572266 a 1.0001,1.0001 0 0 0 0.707031,-0.292969 l 0.916016,-0.916016 a 1,1 0 0 0 0,-1.414062 1,1 0 0 0 -0.707032,-0.292969 z"
     id="polyline2" />
  <path
     style="color:#000000;fill:#000000;stroke-linecap:round;stroke-linejoin:round;-inkscape-stroke:none"
     d="m 27.941406,20.421875 a 1.0001,1.0001 0 0 0 -1.089844,0.216797 l -0.625,0.623047 h -0.826171 l -0.625,-0.623047 a 1,1 0 0 0 -1.414063,0 1,1 0 0 0 0,1.414062 l 0.917969,0.916016 a 1.0001,1.0001 0 0 0 0.707031,0.292969 h 1.572266 v 2.625 l -0.482422,1.128906 -1.109375,0.923828 -1.197266,0.375 a 1,1 0 0 0 -0.654297,1.253906 1,1 0 0 0 1.253907,0.654297 l 1.384765,-0.435547 a 1.0001,1.0001 0 0 0 0.339844,-0.183593 l 1.447266,-1.205079 a 1.0001,1.0001 0 0 0 0.28125,-0.376953 l 0.65625,-1.537109 a 1.0001,1.0001 0 0 0 0.08008,-0.392578 v -4.746094 a 1.0001,1.0001 0 0 0 -0.617188,-0.923828 z"
     id="polyline3" />
  <path
     style="color:#000000;fill:#000000;stroke-linecap:round;stroke-linejoin:round;-inkscape-stroke:none"
     d="m 24.691406,23.167969 -2.865234,2.863281 a 1,1 0 0 0 0,1.416016 1,1 0 0 0 1.414062,0 l 2.865235,-2.865235 a 1,1 0 0 0 0,-1.414062 1,1 0 0 0 -1.414063,0 z"
     id="line3" />
  <path
     style="color:#000000;fill:#000000;stroke-linecap:round;stroke-linejoin:round;-inkscape-stroke:none"
     d="m 26.873047,10.548828 a 1.0001,1.0001 0 0 0 -1.341797,0.06641 l -2.462891,2.464844 h -0.376953 a 1.0001,1.0001 0 0 0 -0.707031,0.292969 l -1.050781,1.050781 a 1.0001,1.0001 0 0 0 -0.292969,0.707031 v 3.927735 a 1,1 0 0 0 1,1 1,1 0 0 0 1,-1 v -3.513672 l 0.464844,-0.464844 h 0.376953 a 1.0001,1.0001 0 0 0 0.603515,-0.25 1,1 0 0 0 0.285157,0.72461 1,1 0 0 0 1.414062,0 l 1.539063,-1.541016 h 0.978515 A 1.0001,1.0001 0 0 0 28.9375,12.240234 Z"
     id="path3" />
  <path
     style="color:#000000;fill:#000000;stroke-linecap:round;stroke-linejoin:round;-inkscape-stroke:none"
     d="m 25.652344,13.337891 a 1,1 0 0 0 -1,1 1,1 0 0 0 0.951172,0.980468 1.0001,1.0001 0 0 0 -0.244141,0.621094 v 3.119141 a 1,1 0 0 0 1,1 1,1 0 0 0 1,-1 v -2.722657 l 1.232422,-1.314453 a 1.0001,1.0001 0 0 0 -0.730469,-1.683593 z"
     id="polyline4" />
</svg>
