<?xml version="1.0" encoding="UTF-8"?>
<svg id="b" version="1.1" viewBox="0 0 48 48" xmlns="http://www.w3.org/2000/svg">
 <defs id="defs4">
  <style id="style2">.c{fill:none;stroke:#000;stroke-width:2px;stroke-linecap:round;stroke-linejoin:round;}</style>
 </defs>
 <path id="path6" d="m24 1.5c-12.415 0-22.5 10.085-22.5 22.5s10.085 22.5 22.5 22.5c3.449 0 6.7223-0.77811 9.6465-2.168a1 1 0 0 0 0.47461-1.332 1 1 0 0 0-1.332-0.47461c-2.663 1.2657-5.6403 1.9746-8.7891 1.9746-11.334 0-20.5-9.1664-20.5-20.5s9.1664-20.5 20.5-20.5 20.5 9.1664 20.5 20.5c0 3.6725-0.96247 7.111-2.6504 10.09a1 1 0 0 0 0.37695 1.3633 1 1 0 0 0 1.3633-0.37695c1.8529-3.2699 2.9102-7.0535 2.9102-11.076 0-12.415-10.085-22.5-22.5-22.5z" color="#000000" stroke-linecap="round" stroke-linejoin="round" style="-inkscape-stroke:none"/>
 <path id="polygon8" d="m22.826 17.07-4.0371 0.36328a1.0001 1.0001 0 0 0-0.75976 0.46875l-2.2441 3.6172a1.0001 1.0001 0 0 0-0.0293 1.002l1.9062 3.5332a1.0001 1.0001 0 0 0 1.168 0.48242l2.8887-0.86914a1.0001 1.0001 0 0 0 0.40234-0.23438l3.0547-2.916a1.0001 1.0001 0 0 0 0.23242-1.1113l-1.5703-3.7285a1.0001 1.0001 0 0 0-1.0117-0.60742zm-0.54883 2.0566 1.0195 2.4199-2.3848 2.2754-1.877 0.56445-1.2441-2.3047 1.6738-2.7012z" color="#000000" stroke-linecap="round" stroke-linejoin="round" style="-inkscape-stroke:none"/>
 <path id="polygon10" d="m24.342 9.2461-2.6348 0.95313a1.0001 1.0001 0 0 0-0.43945 0.31445l-1.4863 1.8516a1.0001 1.0001 0 0 0 0.7793 1.625h3.957l1.8457 0.85938a1.0001 1.0001 0 0 0 1.2188-0.30273l1.4023-1.8496a1.0001 1.0001 0 0 0-0.32031-1.4824l-3.5039-1.9063a1.0001 1.0001 0 0 0-0.81836-0.0625zm0.25781 2.0332 2.0879 1.1367-0.21289 0.28125-1.3145-0.61328a1.0001 1.0001 0 0 0-0.42188-0.09375h-2.0918l0.0039-0.0059z" color="#000000" stroke-linecap="round" stroke-linejoin="round" style="-inkscape-stroke:none"/>
 <path id="polygon12" d="m37.32 18.59-3 0.44922a1.0001 1.0001 0 0 0-0.85156 1.0547l0.06055 0.93164-1.7227 2.3887a1.0001 1.0001 0 0 0 0.17383 1.3574l3.3359 2.7559a1.0001 1.0001 0 0 0 1.4316-0.16406l1.2617-1.6543a1.0001 1.0001 0 0 0 0.18359-0.40039l0.40234-1.9238 0.98047-0.46094a1.0001 1.0001 0 0 0 0.39648-1.4727l-1.6816-2.4395a1.0001 1.0001 0 0 0-0.9707-0.42188zm-0.32226 2.0703 0.6582 0.95508-0.36328 0.17188a1.0001 1.0001 0 0 0-0.55274 0.69922l-0.45703 2.1895-0.49414 0.64844-1.8125-1.498 1.3867-1.9238a1.0001 1.0001 0 0 0 0.18555-0.65039l-0.02344-0.37109z" color="#000000" stroke-linecap="round" stroke-linejoin="round" style="-inkscape-stroke:none"/>
 <path id="polygon14" d="m15.195 31.746a1.0001 1.0001 0 0 0-1.1152 0.61328l-0.92578 2.3281a1.0001 1.0001 0 0 0 0.32227 1.1621l0.47656 0.36524a1.0001 1.0001 0 0 0 1.0547 0.09961l2.5234-1.2617a1.0001 1.0001 0 0 0 0.48047-1.2656l-0.44727-1.1211a1.0001 1.0001 0 0 0-0.74219-0.61133z" color="#000000" stroke-linecap="round" stroke-linejoin="round" style="-inkscape-stroke:none"/>
 <path id="path16" d="m22.158 34.42c-0.24206 0-0.25565 0.03046-0.30859 0.04492-0.05295 0.01446-0.09345 0.02828-0.13672 0.04297-0.08654 0.02937-0.17681 0.06394-0.2793 0.10352-0.20498 0.07916-0.45081 0.17754-0.69141 0.27734-0.4812 0.1996-0.94141 0.39844-0.94141 0.39844a1.0001 1.0001 0 0 0-0.60352 0.91797v3.4219a1.0001 1.0001 0 0 0 0.71484 0.95898l2.748 0.8125a1.0001 1.0001 0 0 0 1.1816-0.51953l1.2344-2.5234a1.0001 1.0001 0 0 0 0.09766-0.5293l-0.17773-1.9902a1.0001 1.0001 0 0 0-0.71094-0.86914s-0.42947-0.12778-0.87891-0.25586c-0.22472-0.06404-0.45368-0.12734-0.64453-0.17773-0.09542-0.0252-0.18166-0.04647-0.25977-0.06445-0.0781-0.01799-0.02624-0.04883-0.34375-0.04883zm0.05078 2.0352c0.01641 0.0043 0.02332 7e-3 0.04102 0.01172 0.1675 0.04423 0.38939 0.10583 0.60742 0.16797 0.10532 0.03001 0.10915 0.03222 0.20703 0.06055l0.0918 1.0312-0.74023 1.5137-1.2188-0.36133v-2.0117c0.13741-0.05808 0.15293-0.06548 0.31055-0.13086 0.23253-0.09645 0.47034-0.19174 0.64648-0.25977 0.02406-0.0093 0.03311-0.01334 0.05469-0.02148z" color="#000000" stroke-linecap="round" stroke-linejoin="round" style="-inkscape-stroke:none"/>
 <g id="g26" stroke-linecap="round" stroke-linejoin="round">
  <path id="path18" d="m27.396 30.564c-0.61556 0-1.2314 0.23339-1.6953 0.69727-0.92775 0.92775-0.92775 2.4609 0 3.3887l7.6055 7.6055a1 1 0 0 0 1.4141 0 1 1 0 0 0 0-1.4141l-7.6055-7.6055c-0.16345-0.16345-0.16345-0.3971 0-0.56055 0.16345-0.16345 0.39905-0.16345 0.5625 0l6.6367 6.6348a1 1 0 0 0 1.4141 0 1 1 0 0 0 0-1.4141l-6.6367-6.6348c-0.46388-0.46388-1.0797-0.69727-1.6953-0.69727z" color="#000000" style="-inkscape-stroke:none"/>
  <path id="path20" d="m33.49 32.707c-0.61556 0-1.2314 0.23144-1.6953 0.69531-0.92775 0.92775-0.92775 2.4629 0 3.3906l2.5176 2.5176a1 1 0 0 0 1.416 0 1 1 0 0 0 0-1.4141l-2.5195-2.5176c-0.16345-0.16345-0.16345-0.39905 0-0.5625 0.16345-0.16345 0.39905-0.16345 0.5625 0l2.5176 2.5195a1 1 0 0 0 1.4141 0 1 1 0 0 0 0-1.4141l-2.5176-2.5195c-0.46388-0.46388-1.0797-0.69531-1.6953-0.69531z" color="#000000" style="-inkscape-stroke:none"/>
  <path id="path22" d="m36.164 31.43c-0.61556 0-1.2314 0.23144-1.6953 0.69531-0.92775 0.92775-0.92775 2.4609 0 3.3887l1.8203 1.8223a1 1 0 0 0 1.4141 0 1 1 0 0 0 0-1.4141l-1.8203-1.8223c-0.16345-0.16345-0.16345-0.3971 0-0.56055 0.16345-0.16345 0.3971-0.16345 0.56055 0l1.8223 1.8203a1 1 0 0 0 1.4141 0 1 1 0 0 0 0-1.4141l-1.8203-1.8203c-0.46388-0.46388-1.0797-0.69531-1.6953-0.69531z" color="#000000" style="-inkscape-stroke:none"/>
  <path id="path24" d="m38.9 30.215c-0.61556 0-1.2295 0.23144-1.6934 0.69531-0.92775 0.92775-0.92775 2.4629 0 3.3906l1.0586 1.0586a1 1 0 0 0 1.4141 0 1 1 0 0 0 0-1.4141l-1.0586-1.0586c-0.16345-0.16345-0.16345-0.39905 0-0.5625 0.16345-0.16345 0.3971-0.16345 0.56055 0l2.0273 2.0273c0.94431 0.94431 1.8163 2.4844 2.9727 3.9043l-5.9492 5.9492c-0.89299-0.6426-1.9067-1.1059-2.957-1.377-1.3889-0.35843-2.7789-0.51416-3.7227-0.64258-0.39973-0.0544-0.40846-0.12668-0.38476-0.0918 0.02247 0.03307-0.02717-0.08895 0.01758-0.42773 0.02654-0.01973 0.11799-0.07353 0.2832-0.10742 0.3419-0.07014 0.92536-0.03717 1.4219 0.11328a1 1 0 0 0 1.2461-0.66602 1 1 0 0 0-0.66602-1.248c-0.78198-0.23695-1.613-0.32052-2.4043-0.1582-0.39564 0.08116-0.79071 0.22737-1.1426 0.50977s-0.63858 0.73295-0.71484 1.2285c-0.09548 0.62042-0.09511 1.2904 0.30469 1.8789 0.39979 0.58856 1.0781 0.85512 1.7695 0.94922 0.98175 0.13358 2.2825 0.28744 3.4922 0.59961s2.2888 0.80226 2.8379 1.4062a1.0001 1.0001 0 0 0 1.4453 0.03516l7.1484-7.1484a1.0001 1.0001 0 0 0 0-1.4141c-1.2923-1.2922-2.0493-3.1723-3.584-4.707l-2.0273-2.0273c-0.46388-0.46388-1.0797-0.69531-1.6953-0.69531z" color="#000000" style="-inkscape-stroke:none"/>
 </g>
</svg>
