<?xml version="1.0" encoding="UTF-8" standalone="no"?>
<svg
   id="b"
   viewBox="0 0 48 48"
   version="1.1"
   sodipodi:docname="steam_icon_1237320.svg"
   xmlns:inkscape="http://www.inkscape.org/namespaces/inkscape"
   xmlns:sodipodi="http://sodipodi.sourceforge.net/DTD/sodipodi-0.dtd"
   xmlns="http://www.w3.org/2000/svg"
   xmlns:svg="http://www.w3.org/2000/svg">
  <sodipodi:namedview
     id="namedview15"
     pagecolor="#ffffff"
     bordercolor="#666666"
     borderopacity="1.0"
     inkscape:showpageshadow="2"
     inkscape:pageopacity="0.0"
     inkscape:pagecheckerboard="0"
     inkscape:deskcolor="#d1d1d1" />
  <defs
     id="defs1">
    <style
       id="style1">.c{fill:none;stroke:#000;stroke-width:2px;stroke-linecap:round;stroke-linejoin:round;}</style>
  </defs>
  <path
     style="color:#000000;fill:#000000;stroke-linecap:round;stroke-linejoin:round;-inkscape-stroke:none"
     d="M 29.654297,6.1367187 C 29.326861,6.0921524 28.992314,6.1213145 28.636719,6.1503906 27.925528,6.2085429 27.116592,6.3858718 26.25,6.671875 24.516815,7.2438813 22.563853,8.2411884 21.033203,9.7011719 A 1,1 0 0 0 21,11.115234 a 1,1 0 0 0 1.414062,0.0332 c 1.235348,-1.1783144 2.972679,-2.0843548 4.462891,-2.5761724 0.745106,-0.2459088 1.43157,-0.3894367 1.923828,-0.4296875 0.492259,-0.040251 0.776707,0.1416929 0.570313,-0.025391 -0.09916,-0.080272 0.134034,0.2432249 0.191406,0.8769531 0.05737,0.6337282 0.02458,1.5047284 -0.07813,2.4355474 -0.205404,1.861637 -0.689365,3.990099 -1.111328,5.226562 a 1,1 0 0 0 0.623047,1.269531 1,1 0 0 0 1.269531,-0.625 c 0.492936,-1.444434 0.983036,-3.620256 1.207031,-5.65039 C 31.584654,10.635324 31.631728,9.6634922 31.554687,8.8125 31.477647,7.9615078 31.363421,7.1570712 30.628906,6.5625 30.302309,6.2981084 29.981732,6.1812851 29.654297,6.1367187 Z"
     id="path1" />
  <path
     style="color:#000000;fill:#000000;stroke-linecap:round;stroke-linejoin:round;-inkscape-stroke:none"
     d="m 27.820312,8.6015625 c -0.23279,-0.010279 -0.443423,0.014834 -0.664062,0.054687 -0.441278,0.079707 -0.917329,0.2305807 -1.417969,0.4355469 -1.001279,0.4099324 -2.082649,1.0117911 -2.847656,1.8867191 a 1.0001,1.0001 0 0 0 0.296875,1.546875 c 0.18544,0.09519 0.952522,0.647081 1.660156,1.248047 0.707634,0.600965 1.440644,1.291451 1.824219,1.720703 a 1.0001,1.0001 0 0 0 1.455078,0.03906 c 0.443208,-0.445803 0.640468,-0.958536 0.816406,-1.523437 0.175939,-0.564902 0.293404,-1.184897 0.361328,-1.794922 0.06792,-0.610026 0.08643,-1.20341 0.03516,-1.738281 C 29.288568,9.9416906 29.327782,9.4262279 28.675781,8.8984375 28.338153,8.625116 28.053103,8.6118419 27.820312,8.6015625 Z m -0.470703,2.0742185 c 0.03149,0.336959 0.022,0.822581 -0.0332,1.31836 -0.04498,0.403919 -0.134559,0.790185 -0.228515,1.148437 -0.328245,-0.306463 -0.590845,-0.591543 -0.945313,-0.892578 -0.29095,-0.247093 -0.515924,-0.365566 -0.783203,-0.576172 0.396144,-0.261635 0.706985,-0.556485 1.136719,-0.732422 0.333547,-0.136557 0.61618,-0.21111 0.853515,-0.265625 z"
     id="path2" />
  <path
     style="color:#000000;fill:#000000;stroke-linecap:round;stroke-linejoin:round;-inkscape-stroke:none"
     d="m 24.277344,29.685547 a 1,1 0 0 0 -0.566407,0.515625 c -0.839872,1.791563 -2.019355,2.38075 -4.507812,2.835937 a 1,1 0 0 0 -0.804688,1.164063 1,1 0 0 0 1.164063,0.804687 c 2.745538,-0.502212 4.841459,-1.573198 5.958984,-3.957031 a 1,1 0 0 0 -0.480468,-1.330078 1,1 0 0 0 -0.763672,-0.0332 z"
     id="path3" />
  <path
     style="color:#000000;fill:#000000;stroke-linecap:round;stroke-linejoin:round;-inkscape-stroke:none"
     d="m 24.203125,29.169922 c -0.453911,-0.01647 -0.956175,0.0682 -1.503906,0.234375 a 1,1 0 0 0 -0.666016,1.248047 1,1 0 0 0 1.246094,0.666015 c 0.798135,-0.242146 1.036147,-0.105291 1.015625,-0.11914 -0.02052,-0.01385 0.0039,-0.01844 0.0039,0.162109 a 1,1 0 0 0 1,1 1,1 0 0 0 1,-1 c 0,-0.556054 -0.183394,-1.346988 -0.884766,-1.820312 -0.350685,-0.236662 -0.757026,-0.354625 -1.210937,-0.371094 z"
     id="path4" />
  <path
     style="color:#000000;fill:#000000;stroke-linecap:round;stroke-linejoin:round;-inkscape-stroke:none"
     d="m 19.253906,19.941406 c -0.543193,0 -0.985298,0.299895 -1.261719,0.613281 -0.27642,0.313387 -0.455762,0.670363 -0.603515,1.066407 -0.295506,0.792087 -0.447266,1.762644 -0.447266,2.833984 0,1.071341 0.15176,2.04385 0.447266,2.835938 0.147753,0.396043 0.327095,0.751066 0.603515,1.064453 0.276421,0.313387 0.718526,0.615234 1.261719,0.615234 0.543194,0 0.983345,-0.301847 1.259766,-0.615234 0.27642,-0.313387 0.455763,-0.66841 0.603515,-1.064453 0.295506,-0.792088 0.447266,-1.764597 0.447266,-2.835938 0,-1.07134 -0.15176,-2.041897 -0.447266,-2.833984 -0.147752,-0.396044 -0.327095,-0.75302 -0.603515,-1.066407 -0.276421,-0.313386 -0.716572,-0.613281 -1.259766,-0.613281 z m 0,2.44336 c 0.171379,0.483182 0.310547,1.226859 0.310547,2.070312 0,0.843477 -0.139161,1.589086 -0.310547,2.072266 -0.171387,-0.48318 -0.3125,-1.228786 -0.3125,-2.072266 0,-0.843457 0.14112,-1.587131 0.3125,-2.070312 z"
     id="ellipse4" />
  <path
     style="color:#000000;fill:#000000;stroke-linecap:round;stroke-linejoin:round;-inkscape-stroke:none"
     d="m 8.9648438,21.482422 a 1,1 0 0 0 -0.7480469,0.166015 c -0.5878262,0.41152 -0.8513655,1.059003 -0.9707032,1.720704 -0.1193376,0.6617 -0.1131648,1.407527 -0.037109,2.279296 0.092549,1.060873 0.3089411,1.897331 0.6542968,2.546875 0.1726779,0.324773 0.3769964,0.609231 0.6679688,0.839844 0.2909724,0.230613 0.7181494,0.40761 1.1699219,0.34961 0.5372481,-0.06888 0.8952861,-0.441002 1.0859371,-0.757813 0.190652,-0.316811 0.287318,-0.641789 0.357422,-0.996094 0.140209,-0.708608 0.147554,-1.544381 0.03125,-2.451172 -0.01579,-0.123071 -0.03311,-0.244629 -0.05273,-0.363281 A 1,1 0 0 0 9.9726563,23.994141 1,1 0 0 0 9.2050781,25.066406 c -0.02359,-0.528218 -0.042152,-1.053926 0.00977,-1.341797 0.067712,-0.375448 0.1694642,-0.45222 0.1484375,-0.4375 A 1,1 0 0 0 9.609375,21.894531 1,1 0 0 0 8.9648438,21.482422 Z"
     id="path5" />
  <path
     style="color:#000000;fill:#000000;stroke-linecap:round;stroke-linejoin:round;-inkscape-stroke:none"
     d="m 5.1660156,26.568359 c -0.8829657,0.142013 -1.8118133,0.569199 -2.109375,1.541016 -0.1777533,0.580668 -0.035265,1.176694 0.2226563,1.634766 0.2579209,0.458071 0.6284248,0.833357 1.0703125,1.166015 0.5954257,0.448257 1.3293889,0.815345 2.1621093,1.070313 C 7.5462467,32.297233 8.5506213,32.392011 9.4335938,32.25 10.316566,32.107989 11.245397,31.680834 11.542969,30.708984 11.840498,29.737165 11.310316,28.862012 10.658203,28.25 10.00609,27.637988 9.1204889,27.154645 8.0859375,26.837891 7.0513743,26.521133 6.0489813,26.426347 5.1660156,26.568359 Z m 0.3183594,1.97461 C 5.969883,28.464882 6.7192651,28.510958 7.5,28.75 c 0.7807468,0.239045 1.4305017,0.622473 1.7890625,0.958984 0.3585608,0.336512 0.3172675,0.494183 0.3417969,0.414063 0.024572,-0.08025 -0.030099,0.07426 -0.515625,0.152344 -0.4855262,0.07809 -1.2369079,0.03005 -2.0175782,-0.208985 C 6.4691782,29.873975 5.9255545,29.594642 5.5507812,29.3125 5.2725697,29.103059 5.0931631,28.889021 5.0214844,28.761719 4.9498056,28.634416 4.9834035,28.647444 4.96875,28.695312 c -0.024562,0.08022 0.030117,-0.07426 0.515625,-0.152343 z"
     id="path6" />
  <path
     style="color:#000000;fill:#000000;stroke-linecap:round;stroke-linejoin:round;-inkscape-stroke:none"
     d="m 23.916016,26.488281 c -1.085616,0 -1.96048,0.294048 -2.664063,0.753906 -0.703583,0.459859 -1.256409,1.011473 -2.078125,1.658204 -0.339949,0.267535 -1.200458,0.832409 -4.009765,0.55664 -0.864741,-0.0849 -1.363609,-0.409208 -2.103516,-0.783203 -0.739907,-0.373995 -1.796974,-0.733095 -3.0878907,-0.414062 a 1,1 0 0 0 -0.7304688,1.210937 1,1 0 0 0 1.2109375,0.730469 c 0.804681,-0.198867 1.085786,-0.05522 1.705078,0.257812 0.619292,0.313029 1.50169,0.85978 2.810547,0.988282 3.144087,0.308631 4.714756,-0.402746 5.441406,-0.97461 0.901682,-0.709668 1.476256,-1.25645 1.935547,-1.55664 0.459291,-0.300191 0.78463,-0.427735 1.570313,-0.427735 1.056554,0 1.560475,0.277395 1.882812,0.648438 0.322337,0.371042 0.50586,0.96011 0.505859,1.740234 0,1.558361 -0.59017,2.422284 -2.271484,3.628906 -0.356803,0.256075 -3.037699,2.124045 -7.447266,1.648438 -3.24068,-0.3495 -6.7922655,-1.807394 -8.6894526,-5.527344 a 1,1 0 0 0 -1.3457032,-0.4375 1,1 0 0 0 -0.4375,1.345703 c 2.2630087,4.437242 6.5664998,6.209323 10.2578128,6.607422 5.058424,0.545592 8.304328,-1.635794 8.828125,-2.011719 1.935682,-1.389174 3.105468,-3.069671 3.105468,-5.253906 0,-1.091173 -0.253081,-2.197453 -0.996093,-3.052734 -0.743012,-0.855282 -1.933936,-1.335938 -3.392578,-1.335938 z"
     id="path7" />
  <path
     style="color:#000000;fill:#000000;stroke-linecap:round;stroke-linejoin:round;-inkscape-stroke:none"
     d="m 19.347656,13.421875 c -1.53174,0.198594 -3.109267,1.185397 -4.570312,2.527344 -1.948061,1.789262 -3.668937,4.369054 -4.271485,7.355468 -0.04355,0.215865 -0.08681,0.254854 -0.138671,0.396485 C 10.181723,23.377689 9.9636082,22.904057 9.7480469,22.181641 9.7879948,22.3155 9.7436289,22.134191 9.7226563,21.947266 9.7016836,21.76034 9.6749114,21.505046 9.6445313,21.210937 9.583771,20.622721 9.5028257,19.876296 9.3730469,19.132812 9.2432681,18.389329 9.0771745,17.654874 8.78125,17.009766 8.6332878,16.687211 8.4556286,16.376902 8.15625,16.103516 7.8568714,15.830129 7.3661383,15.613776 6.8808594,15.662109 6.1648228,15.733422 5.6874755,16.161333 5.34375,16.576172 c -0.3437255,0.414839 -0.5819354,0.873391 -0.75,1.310547 a 1,1 0 0 0 0.5742187,1.291015 1,1 0 0 0 1.2910157,-0.574218 c 0.099935,-0.259944 0.2676541,-0.563468 0.4238281,-0.751954 0.043081,-0.05199 0.020992,-0.02559 0.054687,-0.05469 0.013628,0.0255 0.013316,0.01629 0.027344,0.04687 0.1589782,0.346569 0.3221666,0.974038 0.4375,1.634766 0.1153335,0.660728 0.1945385,1.362764 0.2539063,1.9375 0.029684,0.287367 0.054379,0.542257 0.078125,0.753906 0.023746,0.211649 0.017733,0.316175 0.097656,0.583984 0.267669,0.897046 0.554619,1.589841 0.8906251,2.132813 0.336006,0.542972 0.7244923,1.008728 1.3964847,1.166015 0.671992,0.157287 1.376519,-0.257469 1.708984,-0.716797 0.332465,-0.459327 0.509417,-0.994155 0.638672,-1.634765 0.498552,-2.47098 1.995677,-4.746912 3.664062,-6.279297 1.668386,-1.532385 3.527239,-2.160365 4.238282,-1.980469 0.60888,0.154056 1.101957,0.506109 1.49414,1.322266 0.392183,0.816156 0.630351,2.129537 0.457031,4.03125 -0.380718,4.177164 -0.505617,4.817828 -2.351562,7.470703 a 1,1 0 0 0 0.25,1.390625 1,1 0 0 0 1.390625,-0.248047 c 1.933651,-2.77892 2.317844,-4.204413 2.703125,-8.431641 0.195281,-2.142683 -0.03694,-3.811586 -0.646484,-5.080078 -0.609541,-1.268491 -1.649623,-2.101787 -2.806641,-2.394531 -0.494364,-0.125076 -1.001139,-0.146276 -1.511719,-0.08008 z"
     id="path8" />
  <path
     style="color:#000000;fill:#000000;stroke-linecap:round;stroke-linejoin:round;-inkscape-stroke:none"
     d="M 29.851562,3.9394531 C 23.792916,3.7248602 17.658913,5.5237561 13.628906,7.9746094 10.481399,9.8887181 6.0233045,12.687507 4.5546875,18.005859 3.8210841,20.662541 3.8638266,23.894503 5.0996094,27.808594 a 1,1 0 0 0 1.2539062,0.652343 1,1 0 0 0 0.6523438,-1.255859 C 5.8602445,23.576576 5.8636266,20.779976 6.4824219,18.539062 7.7212022,14.053025 11.551082,11.579081 14.667969,9.6835938 18.288355,7.4818517 24.175358,5.7389433 29.78125,5.9375 c 5.605892,0.1985567 10.844771,2.2328051 13.759766,7.464844 a 1,1 0 0 0 1.361328,0.386719 1,1 0 0 0 0.386718,-1.361329 C 41.980663,6.4895842 35.910209,4.154046 29.851562,3.9394531 Z"
     id="path9" />
  <path
     style="color:#000000;fill:#000000;stroke-linecap:round;stroke-linejoin:round;-inkscape-stroke:none"
     d="m 44.373047,11.916016 c -2.100298,0.08846 -6.165645,-0.129499 -10.949219,4.332031 a 1,1 0 0 0 -0.04883,1.412109 1,1 0 0 0 1.414062,0.05078 c 4.378217,-4.083461 7.299871,-3.697135 9.667969,-3.796874 a 1,1 0 0 0 0.957031,-1.041016 1,1 0 0 0 -1.041015,-0.957031 z"
     id="path10" />
  <path
     style="color:#000000;fill:#000000;stroke-linecap:round;stroke-linejoin:round;-inkscape-stroke:none"
     d="m 34.402344,16.023437 a 1,1 0 0 0 -1.251953,0.660157 1,1 0 0 0 0.660156,1.25 c 2.949383,0.911442 5.726163,2.363301 7.605469,4.308593 1.879305,1.945293 2.906494,4.315902 2.507812,7.417969 a 1,1 0 0 0 0.863281,1.119141 1,1 0 0 0 1.119141,-0.865235 c 0.473617,-3.685126 -0.839666,-6.771793 -3.050781,-9.060546 -2.211115,-2.288753 -5.274915,-3.847923 -8.453125,-4.830079 z"
     id="path11" />
  <path
     style="color:#000000;fill:#000000;stroke-linecap:round;stroke-linejoin:round;-inkscape-stroke:none"
     d="m 38.355469,27.820312 c -1.286191,0.147507 -2.707654,0.48524 -4.230469,1.111329 a 1,1 0 0 0 -0.544922,1.304687 1,1 0 0 0 1.306641,0.544922 c 5.428929,-2.232043 8.9555,-0.412598 9.578125,-0.09961 a 1,1 0 0 0 1.34375,-0.445313 1,1 0 0 0 -0.445313,-1.341797 c -0.50818,-0.255458 -3.149241,-1.516737 -7.007812,-1.074219 z"
     id="path12" />
  <path
     style="color:#000000;fill:#000000;stroke-linecap:round;stroke-linejoin:round;-inkscape-stroke:none"
     d="m 34.925781,28.949219 a 1,1 0 0 0 -1.328125,0.486328 1,1 0 0 0 0.488281,1.328125 c 5.006013,2.316889 6.154435,6.801463 5.714844,10.435547 a 1,1 0 0 0 0.871094,1.113281 1,1 0 0 0 1.113281,-0.873047 c 0.517809,-4.280708 -1.047398,-9.800328 -6.859375,-12.490234 z"
     id="path13" />
  <path
     style="color:#000000;fill:#000000;stroke-linecap:round;stroke-linejoin:round;-inkscape-stroke:none"
     d="m 24.34375,35.90625 c -1.964903,0.02912 -4.019641,0.163617 -6.226563,0.328125 a 1,1 0 0 0 -0.923828,1.070312 1,1 0 0 0 1.072266,0.923829 c 8.789295,-0.655169 14.405497,-0.870221 21.992187,3.935546 a 1,1 0 0 0 1.378907,-0.310546 1,1 0 0 0 -0.308594,-1.378907 C 35.329254,36.674642 30.238459,35.81888 24.34375,35.90625 Z"
     id="path14" />
  <path
     style="color:#000000;fill:#000000;stroke-linecap:round;stroke-linejoin:round;-inkscape-stroke:none"
     d="M 6.2285156,6.7128906 C 5.5694625,6.7067619 5.0035119,6.6234011 4.3710937,7.2421875 3.8003231,7.8005274 3.7242989,8.3787652 3.6035156,9.1113281 3.4827323,9.843891 3.4392456,10.714878 3.4863281,11.658203 c 0.094165,1.886651 0.5343673,4.057159 1.6816406,5.777344 a 1,1 0 0 0 1.3867188,0.277344 1,1 0 0 0 0.2773437,-1.386719 C 6.0010066,15.08016 5.5658598,13.191189 5.484375,11.558594 5.4436326,10.742296 5.4850741,9.990017 5.5761719,9.4375 5.6672696,8.884983 5.9293523,8.5155347 5.7695312,8.671875 5.4850628,8.9502118 5.7512948,8.7086163 6.2109375,8.7128906 6.6705802,8.717165 7.317762,8.7965067 8.0058594,8.953125 9.3820542,9.2663615 10.93747,9.918149 11.761719,10.654297 a 1,1 0 0 0 1.412109,-0.08008 1,1 0 0 0 -0.07813,-1.4121096 C 11.831754,8.0332591 10.056296,7.3677409 8.4492188,7.0019531 7.6456801,6.8190592 6.8875687,6.7190194 6.2285156,6.7128906 Z"
     id="path15" />
</svg>
