<?xml version="1.0" encoding="UTF-8"?>
<svg id="svg1" data-name="Layer 1" version="1.1" viewBox="0 0 48 48" xmlns="http://www.w3.org/2000/svg">
 <defs id="defs1">
  <style id="style1">.b{fill:none;stroke:#000;stroke-width:2px;stroke-linecap:round;stroke-linejoin:round;}</style>
 </defs>
 <path id="rect1" d="m9.5 4.5c-2.7527 0-5 2.2473-5 5v29c0 2.7527 2.2473 5 5 5h29c2.7527 0 5-2.2473 5-5v-29c0-2.7527-2.2473-5-5-5zm0 2h29c1.6793 0 3 1.3207 3 3v29c0 1.6793-1.3207 3-3 3h-29c-1.6793 0-3-1.3207-3-3v-29c0-1.6793 1.3207-3 3-3z" color="#000000" stroke-linecap="round" stroke-linejoin="round" style="-inkscape-stroke:none"/>
 <path id="path1" d="m13.52 9.0176c-3.6014 0.0083238-6.8254 0.30325-8.6543 1.998a1 1 0 0 0-0.054687 1.4141 1 1 0 0 0 1.4141 0.05469c0.89911-0.8332 3.8695-1.4589 7.2988-1.4668 3.4294-0.0079 7.3236 0.43027 10.301 0.9668 6.2141 1.1211 13.794 1.0884 18.863-0.85547a1 1 0 0 0 0.57617-1.291 1 1 0 0 0-1.291-0.57617c-4.4285 1.6981-11.879 1.8208-17.793 0.75391-3.0879-0.55648-7.0588-1.0064-10.66-0.99805zm7.1895 7.9199a1 1 0 0 0-1.2324 0.69336l-1.8164 6.4863a1 1 0 0 0 0.69336 1.2324 1 1 0 0 0 1.2324-0.69336l1.8164-6.4863a1 1 0 0 0-0.69336-1.2324zm3.1738 1.5664a1 1 0 0 0-1.0664 0.92969c-0.23244 3.4009-1.0365 3.5609-1.791 5.5352a1.0001 1.0001 0 0 0 0.07422 0.25586 1 1 0 0 0-0.13867 0.1543c0.09208 1.7698 0.06666 3.1445 0.0039 4.3906-1.428 1.4214-2.2393 2.6104-3.5098 4.2148a1.0001 1.0001 0 0 0-0.20507 0.76953c0.21927 1.4593 0.50258 1.8567 0.56445 4.207a1 1 0 0 0 1.0273 0.97266 1 1 0 0 0 0.97266-1.0254c-0.05942-2.2572-0.33656-2.961-0.52734-4 1.2459-1.6081 1.9362-2.7216 3.3613-4.0605a1.0001 1.0001 0 0 0 0.31445-0.67188c0.04456-0.78507 0.0016-1.8527-0.0039-2.8027 0.85996 0.6512 1.6949 1.2709 2.6836 2.0938 0.38033 1.903 0.96196 3.6891 1.6973 5.3535a1.0001 1.0001 0 0 0 1.3594 0.49219c1.7523-0.8687 3.8436-1.4361 6.1875-1.7676a1 1 0 0 0 0.84961-1.1309 1 1 0 0 0-1.1289-0.84961c-2.076 0.29363-3.972 0.82447-5.7227 1.5488-0.58286-1.4302-1.134-2.8668-1.4082-4.4277a1.0001 1.0001 0 0 0-0.3418-0.5918c-1.4854-1.2477-2.6991-2.1417-3.9258-3.0605 0.59482-1.1902 1.3854-2.2733 1.6035-5.4648a1 1 0 0 0-0.92969-1.0645z" color="#000000" stroke-linecap="round" stroke-linejoin="round" style="-inkscape-stroke:none"/>
 <path id="circle1" d="m25.035 12.295c-1.8046 0-3.2891 1.4844-3.2891 3.2891s1.4844 3.2891 3.2891 3.2891 3.2891-1.4844 3.2891-3.2891-1.4844-3.2891-3.2891-3.2891zm0 2c0.72374 0 1.2891 0.56532 1.2891 1.2891s-0.56532 1.2891-1.2891 1.2891-1.2891-0.56532-1.2891-1.2891 0.56532-1.2891 1.2891-1.2891z" color="#000000" stroke-linecap="round" stroke-linejoin="round" style="-inkscape-stroke:none"/>
</svg>
