<?xml version="1.0" encoding="UTF-8"?>
<svg id="svg1" version="1.1" viewBox="0 0 48 48" xmlns="http://www.w3.org/2000/svg">
 <defs id="defs1">
  <style id="style1">.a{fill:none;stroke:#000;stroke-width:2px;stroke-linecap:round;stroke-linejoin:round}</style>
 </defs>
 <path id="path1" d="m24 2a1 1 0 0 0-1 1v21a1 1 0 0 0 1 1 1 1 0 0 0 1-1v-21a1 1 0 0 0-1-1zm-8.0293 4.7793c-8.0687 3.7627-12.446 12.64-10.52 21.332 1.9274 8.6916 9.6461 14.887 18.549 14.887 8.9024 6.6e-5 16.621-6.1936 18.549-14.885 1.9273-8.6923-2.4503-17.571-10.52-21.334a1 1 0 0 0-1.3281 0.48438 1 1 0 0 0 0.48242 1.3281c7.2295 3.3712 11.141 11.3 9.4141 19.088-1.7273 7.7868-8.6216 13.318-16.598 13.318-7.9763-3.9e-5 -14.871-5.5332-16.598-13.32-1.7263-7.7875 2.1849-15.715 9.4141-19.086a1 1 0 0 0 0.48242-1.3281 1 1 0 0 0-1.3281-0.48438z" stop-color="#000000" stroke-linecap="round" stroke-linejoin="round"/>
</svg>
