<?xml version="1.0" encoding="UTF-8"?>
<svg id="svg1" version="1.1" viewBox="0 0 48 48" xmlns="http://www.w3.org/2000/svg">
 <defs id="defs1">
  <style id="style1">.a{fill:none;stroke:#000;stroke-width:2px;stroke-linecap:round;stroke-linejoin:round}</style>
 </defs>
 <path id="path1" d="m23.596 5.0059c-5.6234 0.12453-11.105 2.7366-14.721 7.4922h0.00195c-5.7857 7.6087-5.0112 18.353 1.8066 25.053 6.8177 6.6996 17.574 7.2868 25.08 1.3691 7.5061-5.9177 9.4463-16.512 4.5234-24.705a1 1 0 0 0-1.373-0.34375 1 1 0 0 0-0.3418 1.373c4.4123 7.3434 2.6808 16.802-4.0469 22.105-6.7279 5.3039-16.331 4.7801-22.441-1.2246-6.1108-6.0048-6.8009-15.596-1.6152-22.416 5.1854-6.8198 14.612-8.717 22.031-4.4336a1 1 0 0 0 1.3652-0.36523 1 1 0 0 0-0.36523-1.3652c-3.1043-1.7921-6.5303-2.6138-9.9043-2.5391zm-3.5957 11.994a1 1 0 0 0-1 1v12a1 1 0 0 0 1 1 1 1 0 0 0 1-1v-12a1 1 0 0 0-1-1zm8 0a1 1 0 0 0-1 1v12a1 1 0 0 0 1 1 1 1 0 0 0 1-1v-12a1 1 0 0 0-1-1z" stroke-linecap="round" stroke-linejoin="round"/>
 <circle id="circle1" cx="33.45" cy="8.937" r="1.5"/>
</svg>
