<?xml version="1.0" encoding="UTF-8"?>
<svg id="Layer_2" data-name="Layer 2" version="1.1" viewBox="0 0 48 48" xmlns="http://www.w3.org/2000/svg">
 <defs id="defs1">
  <style id="style1">.cls-1,.cls-2{fill:none;stroke:#000;stroke-width:2px;stroke-linejoin:round;}.cls-2{stroke-linecap:round;}</style>
 </defs>
 <path id="circle1" d="m37.07 8.0293c-2.8379 0-5.1602 2.3222-5.1602 5.1602s2.3222 5.1602 5.1602 5.1602c2.8379 0 5.1602-2.3222 5.1602-5.1602s-2.3222-5.1602-5.1602-5.1602zm0 2c1.7571 0 3.1602 1.4031 3.1602 3.1602 0 1.7571-1.4031 3.1602-3.1602 3.1602-1.7571 0-3.1602-1.4031-3.1602-3.1602 0-1.7571 1.4031-3.1602 3.1602-3.1602z" color="#000000" stroke-linejoin="round" style="-inkscape-stroke:none"/>
 <path id="path1" d="m32.42 18.381v2h9.3457c0.42064 0.0089 0.73684 0.33267 0.73438 0.75391a1.0001 1.0001 0 0 0 0 0.0059v9.3789a1.0001 1.0001 0 0 0 0 0.0039c0.01302 3.8589-3.8031 6.471-7.3965 5.0645a1.0001 1.0001 0 0 0-0.0078-2e-3c-0.3546-0.13502-0.67932-0.33731-0.95898-0.59375l-1.3535 1.4746c0.46434 0.42578 1.0073 0.75938 1.5957 0.98438 4.8438 1.8929 10.139-1.7322 10.121-6.9336v-9.3711c0.0088-1.4952-1.2081-2.74-2.7031-2.7656a1.0001 1.0001 0 0 0-0.01758 0z" color="#000000" stroke-linejoin="round" style="-inkscape-stroke:none"/>
 <path id="path2" d="m22.926 4.625c-3.0743 0.47782-5.9111 3.0095-5.9258 6.8906a1.0001 1.0001 0 0 0 0 0.0039c-7.65e-4 0.53176 0.05719 1.0613 0.17383 1.5801a1.0001 1.0001 0 0 0 0.0059 0.02344l0.2793 1.1191 1.9414-0.48438-0.27734-1.1113c-0.082088-0.36958-0.12363-0.74638-0.12309-1.125 0.01207-2.944 1.9828-4.5703 4.2324-4.9199 2.2501-0.34972 4.6208 0.60322 5.5254 3.4063a1.0001 1.0001 0 0 0 0.0059 0.01367c0.89906 2.6418-0.5655 5.4682-3.2383 6.2617-0.26398 0.05621-1.3125 0.22852-1.3125 0.22852l0.31445 1.9766s1.0047-0.15359 1.4863-0.26367a1.0001 1.0001 0 0 0 0.05664-0.01563c3.7484-1.0982 5.8408-5.1281 4.5859-8.8262-1.1955-3.6852-4.6594-5.2351-7.7305-4.7578z" color="#000000" stroke-linejoin="round" style="-inkscape-stroke:none"/>
 <path id="path3" d="m24.42 18.381v2h7.9785c0.41892 0.0112 0.73241 0.33637 0.72266 0.75586a1.0001 1.0001 0 0 0-2e-3 0.02344v10.67a1.0001 1.0001 0 0 0 2e-3 0.02344c0.12167 5.1884-3.9447 9.4755-9.1289 9.6406-3.7292-0.09365-7.0508-2.352-8.5059-5.7871-0.20816-0.62165-0.37989-1.255-0.50586-1.8984l-1.9609 0.38281c0.14583 0.74484 0.34087 1.4802 0.58398 2.1992a1.0001 1.0001 0 0 0 0.02539 0.06641c1.7571 4.1818 5.8148 6.9435 10.35 7.043a1.0001 1.0001 0 0 0 0.05078 0c6.2715-0.18477 11.237-5.4209 11.09-11.693v-10.623c0.03491-1.5016-1.1742-2.7686-2.6758-2.8027a1.0001 1.0001 0 0 0-0.02344 0z" color="#000000" stroke-linejoin="round" style="-inkscape-stroke:none"/>
 <path id="line3" d="m10.35 17.5a1 1 0 0 0-1 1 1 1 0 0 0 1 1h8.3008a1 1 0 0 0 1-1 1 1 0 0 0-1-1z" color="#000000" stroke-linecap="round" stroke-linejoin="round" style="-inkscape-stroke:none"/>
 <path id="line4" d="m14.5 17.5a1 1 0 0 0-1 1v11a1 1 0 0 0 1 1 1 1 0 0 0 1-1v-11a1 1 0 0 0-1-1z" color="#000000" stroke-linecap="round" stroke-linejoin="round" style="-inkscape-stroke:none"/>
 <path id="path4" d="m6.5 13c-1.645 0-3 1.355-3 3v16c0 1.645 1.355 3 3 3h16c1.645 0 3-1.355 3-3v-16c0-1.645-1.355-3-3-3zm0 2h16c0.56413 0 1 0.43587 1 1v16c0 0.56413-0.43587 1-1 1h-16c-0.56413 0-1-0.43587-1-1v-16c0-0.56413 0.43587-1 1-1z" color="#000000" stroke-linejoin="round" style="-inkscape-stroke:none"/>
</svg>
