<?xml version="1.0" encoding="UTF-8" standalone="no"?>
<svg
   id="Layer_2"
   data-name="Layer 2"
   viewBox="0 0 48 48"
   version="1.1"
   sodipodi:docname="telegram.svg"
   xmlns:inkscape="http://www.inkscape.org/namespaces/inkscape"
   xmlns:sodipodi="http://sodipodi.sourceforge.net/DTD/sodipodi-0.dtd"
   xmlns="http://www.w3.org/2000/svg"
   xmlns:svg="http://www.w3.org/2000/svg">
  <sodipodi:namedview
     id="namedview1"
     pagecolor="#ffffff"
     bordercolor="#666666"
     borderopacity="1.0"
     inkscape:showpageshadow="2"
     inkscape:pageopacity="0.0"
     inkscape:pagecheckerboard="0"
     inkscape:deskcolor="#d1d1d1" />
  <defs
     id="defs1">
    <style
       id="style1">.cls-1{fill:none;stroke:#000;stroke-width:2px;stroke-linecap:round;stroke-linejoin:round;}</style>
  </defs>
  <path
     style="color:#000000;fill:#000000;stroke-linecap:round;stroke-linejoin:round;-inkscape-stroke:none"
     d="m 40.78125,7.4804687 c -0.421184,0.020362 -0.832703,0.126199 -1.212891,0.3085938 l 0.07227,-0.03125 L 6.8710937,20.396484 a 1.0001,1.0001 0 0 0 -0.011719,0.0039 c -0.6323455,0.252371 -1.1442688,0.539199 -1.5507813,0.896484 -0.4065124,0.357285 -0.7361424,0.817775 -0.796875,1.398437 -0.060733,0.580663 0.22268,1.161845 0.609375,1.521485 0.3860591,0.359048 0.8628367,0.580254 1.4179688,0.742187 9.145e-4,2.67e-4 0.00104,0.0017 0.00195,0.002 l 8.1484374,2.576172 c 0.423818,0.144128 0.892563,0.08442 1.267578,-0.160156 l 14.322266,-9.035156 -10.548828,9.52539 0.08594,-0.07031 c -0.754294,0.541199 -0.754294,1.734191 0,2.275391 l 13.298828,9.822265 a 1.0001,1.0001 0 0 0 0.107422,0.06836 c 0.933758,0.520749 1.95883,0.756152 2.876953,0.341796 0.916875,-0.413791 1.436363,-1.350735 1.667969,-2.457031 l 0.002,-0.0039 5.570313,-26.263672 C 43.614739,10.468543 43.53012,9.457671 43.048828,8.6835938 42.567537,7.9095165 41.692475,7.4804687 40.830078,7.4804687 a 1.0001,1.0001 0 0 0 -0.04883,0 z m 0.0625,2.0078126 c 0.262174,0.00369 0.392308,0.066183 0.507812,0.2519531 0.118708,0.1909217 0.231979,0.6109116 0.04687,1.3593746 a 1.0001,1.0001 0 0 0 -0.0059,0.0332 L 35.8125,37.431641 a 1.0001,1.0001 0 0 0 -0.002,0.0039 c -0.158863,0.761729 -0.398828,0.984277 -0.533203,1.044922 -0.131685,0.05943 -0.456874,0.06992 -1.058594,-0.257813 L 21.582031,28.888672 36.433594,15.478516 v -0.002 c 0.279802,-0.247934 0.570811,-0.542831 0.59375,-1.101563 0.01149,-0.27975 -0.09934,-0.605209 -0.279297,-0.820312 -0.179953,-0.215104 -0.392564,-0.328121 -0.580078,-0.392579 -0.750055,-0.257831 -1.343697,-0.03884 -1.988282,0.353516 a 1.0001,1.0001 0 0 0 -0.01367,0.0078 L 15.082031,25.564453 7.1210937,23.046875 a 1.0001,1.0001 0 0 0 -0.021484,-0.0078 C 6.8201138,22.957671 6.7071244,22.876435 6.6132812,22.8125 c 0.014921,-0.01497 -0.00478,0.0043 0.015625,-0.01367 0.1618731,-0.142271 0.4876292,-0.344541 0.9609375,-0.535156 l 0.00391,-0.002 c 0.00376,-0.0015 0.00403,-0.0024 0.00781,-0.0039 L 40.359375,9.6230469 a 1.0001,1.0001 0 0 0 0.07227,-0.03125 c 0.128543,-0.061669 0.270207,-0.09215 0.412109,-0.1035156 z"
     id="path1" />
</svg>
