<?xml version="1.0" encoding="UTF-8" standalone="no"?>
<svg
   id="b"
   viewBox="0 0 48 48"
   version="1.1"
   sodipodi:docname="thunderbird.svg"
   xmlns:inkscape="http://www.inkscape.org/namespaces/inkscape"
   xmlns:sodipodi="http://sodipodi.sourceforge.net/DTD/sodipodi-0.dtd"
   xmlns="http://www.w3.org/2000/svg"
   xmlns:svg="http://www.w3.org/2000/svg">
  <sodipodi:namedview
     id="namedview5"
     pagecolor="#ffffff"
     bordercolor="#666666"
     borderopacity="1.0"
     inkscape:showpageshadow="2"
     inkscape:pageopacity="0.0"
     inkscape:pagecheckerboard="0"
     inkscape:deskcolor="#d1d1d1" />
  <defs
     id="defs1">
    <style
       id="style1">.c{fill-rule:evenodd;}.c,.d{fill:none;stroke:#000;stroke-width:2px;stroke-linecap:round;stroke-linejoin:round;}</style>
  </defs>
  <path
     style="color:#000000;fill:#000000;stroke-linecap:round;stroke-linejoin:round;-inkscape-stroke:none"
     d="m 33.589844,2.4160156 c -3.134091,0 -6.245831,0.5921102 -8.81836,1.8476563 -2.442601,1.1921334 -4.390052,3.0520965 -5.24414,5.5410156 -1.66362,0.8193205 -2.774444,2.0312515 -3.271485,3.3242185 -0.149207,0.388139 -0.158008,0.759661 -0.224609,1.140625 C 15.847641,13.272261 15.62367,12.280476 15.267578,11.375 14.427588,9.2390598 13.09514,7.3940589 11.103516,6.7421875 10.266925,6.4687303 9.4266205,7.1066634 9.3320313,7.9003906 8.9373631,11.206456 8.2199068,12.062036 7.2578125,13.351563 6.4608149,14.420102 5.7918982,15.610011 5.3125,16.884766 5.2259558,16.562909 5.1355712,16.399263 4.8964844,16.126953 4.7751305,15.988736 4.6131531,15.826696 4.3222656,15.714844 c -0.2908875,-0.111853 -0.7475181,-0.09941 -1.0625,0.08008 -0.7241345,0.413032 -0.8336202,0.963751 -0.9863281,1.421875 a 1.0001,1.0001 0 0 0 -0.017578,0.05859 C 1.7550135,19.155058 1.5,21.145827 1.5,23.083984 c 0,12.269756 10.250733,22.5 22.5,22.5 12.41453,0 22.5,-10.08547 22.5,-22.5 0.0063,-3.896454 -1.059831,-7.686775 -2.970703,-11.05664 0.338729,0.03461 0.681629,0.01835 1.017578,0.07617 a 1.0001,1.0001 0 0 0 0.912109,-1.654297 C 44.648117,9.5482144 43.655944,8.7867254 42.574219,8.1171875 43.080183,8.0384763 43.563361,7.8425245 44.076172,7.8183594 A 1.0001,1.0001 0 0 0 44.662109,6.0449219 C 41.895845,3.7857948 37.955293,2.4160156 33.589844,2.4160156 Z m 0,2 c 2.910751,0 5.40552,0.8380895 7.552734,1.96875 -0.638071,0.1460064 -1.302341,0.1607104 -1.919922,0.3828125 a 1.0001,1.0001 0 0 0 -0.0098,1.8769532 c 0.897656,0.333677 1.715933,0.7661266 2.472656,1.25 A 1.0001,1.0001 0 0 0 40.888672,11.458984 C 43.24722,14.8755 44.506673,18.930423 44.5,23.082031 a 1.0001,1.0001 0 0 0 0,0.002 c 0,11.333647 -9.166354,20.5 -20.5,20.5 -11.132909,0 -20.5,-9.346978 -20.5,-20.5 0,-1.319119 0.2585926,-2.650937 0.515625,-3.964843 0.2296019,0.630833 0.407126,1.280524 0.6972656,1.886718 a 1.0001,1.0001 0 0 0 1.9003906,-0.449218 c -0.04054,-2.158663 0.8877549,-4.184061 2.2480469,-6.007813 0.850176,-1.139519 1.7178579,-2.694781 2.2187499,-5.4667967 0.900337,0.5651934 1.743559,1.5419607 2.326172,3.0234377 0.714309,1.816356 1.054499,4.09446 0.933594,6.123047 a 1,1 0 0 0 0.9375,1.058593 1,1 0 0 0 1.058593,-0.939453 c 0.02382,-0.399714 -0.05281,-0.813326 -0.05859,-1.220703 a 1,1 0 0 0 1.089843,0.554688 1,1 0 0 0 0.642579,-1.261719 c -0.199806,-0.614017 -0.249058,-1.631657 0.113281,-2.574219 0.362339,-0.942562 1.080906,-1.849198 2.570312,-2.460937 l -0.365234,0.07226 a 1.0001,1.0001 0 0 0 0.957031,-0.722656 C 21.868314,8.6957146 23.429696,7.1453766 25.648437,6.0625 27.867179,4.9796234 30.71194,4.4160156 33.589844,4.4160156 Z M 3.3867188,17.414062 c 0.00304,0.01136 0.00866,0.02184 0.011719,0.0332 -2.531e-4,-2.97e-4 -0.00367,-0.0017 -0.00391,-0.002 -0.023111,-0.02632 0.00534,0.03355 -0.00781,-0.03125 z"
     id="path1" />
  <path
     style="color:#000000;fill:#000000;stroke-linecap:round;stroke-linejoin:round;-inkscape-stroke:none"
     d="M 3.9140625,16.046875 A 1,1 0 0 0 2.7050781,16.78125 c -1.3818536,5.657274 -0.2365039,12.421184 5.9082032,17.955078 0.00761,0.0084 0.011899,0.02681 0.019531,0.03516 l 0.00586,-0.0059 c 0.028297,0.0254 0.03985,0.05474 0.068359,0.08008 A 1.0001,1.0001 0 0 0 10.109375,33.421875 C 9.4939394,32.74881 8.4721551,30.561563 8.3183594,28.082031 8.1835411,25.908458 8.690336,23.520982 10.277344,21.378906 11.287856,31.89014 20.14788,38.413814 30.216797,37.177734 a 1,1 0 0 0 0.871094,-1.113281 1,1 0 0 0 -1.113282,-0.871094 C 20.519401,36.354099 12.490157,30.315277 12.113281,20.138672 a 1.0001,1.0001 0 0 0 0,-0.002 c -0.02332,-0.621236 -0.415314,-1.150155 -0.933593,-1.376953 -0.51828,-0.226799 -1.2549657,-0.120618 -1.695313,0.351562 -2.6133304,2.798783 -3.3418375,6.19613 -3.1621094,9.09375 0.024729,0.398684 0.1639856,0.692424 0.2167969,1.070313 C 3.9974867,25.26568 3.7216006,21.050306 4.6484375,17.255859 a 1,1 0 0 0 -0.734375,-1.208984 z"
     id="path2" />
  <path
     style="color:#000000;fill:#000000;stroke-linecap:round;stroke-linejoin:round;-inkscape-stroke:none"
     d="m 24.009766,13.753906 c -2.707754,0 -5.534227,0.860588 -7.751954,2.50586 -2.217726,1.645271 -3.823612,4.153391 -3.822265,7.248046 0.0014,4.611241 2.475787,8.292613 5.896484,10.634766 3.420697,2.342153 7.790158,3.432029 11.873047,3.037109 a 1.0001,1.0001 0 0 0 0.01953,-1.988281 c -0.4168,-0.04847 -1.266763,-0.09674 -2.421875,-0.458984 -1.002261,-0.314315 -2.110814,-0.920321 -3.085937,-1.839844 5.949659,-0.315407 10.867187,-4.299565 10.867187,-9.511719 0,-5.427366 -5.293843,-9.626953 -11.574218,-9.626953 z m 0,2 c 5.398413,0 9.574218,3.524329 9.574218,7.626953 0,4.101591 -4.173877,7.62713 -9.570312,7.628907 a 1.0001,1.0001 0 0 0 -0.0039,-0.002 c -0.05565,0 -0.291673,-0.02659 -0.603516,0.0039 -0.311843,0.0305 -0.857991,0.161779 -1.177734,0.683593 -0.187913,0.306921 -0.214966,0.674372 -0.169922,0.929688 0.04514,0.255835 0.137249,0.435148 0.224609,0.585937 0.174377,0.300984 0.365427,0.503481 0.476563,0.628907 0.09851,0.111437 0.216831,0.157751 0.318359,0.261718 -1.258717,-0.449808 -2.54472,-0.873102 -3.617188,-1.607421 -2.997321,-2.052268 -5.024243,-5.079278 -5.02539,-8.986329 -0.0011,-2.417938 1.189403,-4.287249 3.013672,-5.640625 1.824269,-1.353375 4.286505,-2.113281 6.560547,-2.113281 z M 23.3125,32.71875 a 1.0001,1.0001 0 0 0 0.517578,0.103516 c -0.04478,0.03445 -0.05869,0.05792 -0.0918,0.07227 z"
     id="path3" />
  <path
     style="color:#000000;fill:#000000;fill-rule:evenodd;stroke-linecap:round;stroke-linejoin:round;-inkscape-stroke:none"
     d="m 30.693359,20.599609 a 1,1 0 0 0 -0.683593,0.345703 c 0,0 -3.695289,4.294067 -4.992188,5.59375 -0.602245,0.603539 -0.974352,0.734843 -1.197266,0.732422 -0.222913,-0.0024 -0.564,-0.139837 -1.101562,-0.699218 -1.183221,-1.231249 -4.994141,-5.625 -4.994141,-5.625 a 1,1 0 0 0 -1.410156,-0.101563 1,1 0 0 0 -0.101562,1.410156 c 0,0 3.729876,4.312424 5.064453,5.701172 0.721337,0.750617 1.545099,1.303849 2.521484,1.314453 0.976385,0.0106 1.838159,-0.523952 2.632813,-1.320312 1.496898,-1.500114 5.095703,-5.703125 5.095703,-5.703125 a 1,1 0 0 0 -0.107422,-1.410156 1,1 0 0 0 -0.726563,-0.238282 z"
     id="path4" />
  <path
     style="color:#000000;fill:#000000;stroke-linecap:round;stroke-linejoin:round;-inkscape-stroke:none"
     d="m 24.498047,7.5039062 c -0.772814,0.2547592 -1.300261,0.7000083 -1.601563,1.1035157 -0.301301,0.4035074 -0.412109,0.8496094 -0.412109,0.8496094 a 1.0001,1.0001 0 0 0 0.09375,0.6796877 c 0,0 0.262262,0.505352 0.796875,0.892578 0.471947,0.341836 1.268398,0.534295 2.134766,0.373047 a 1.0001,1.0001 0 0 0 0.03125,0.02539 l -0.0039,-0.02734 c 0.105738,-0.02077 0.194853,0.01443 0.302735,-0.01953 0.924054,-0.290972 1.480574,-1.009911 1.6875,-1.5859371 0.206925,-0.5760266 0.158203,-1.0996094 0.158203,-1.0996094 A 1.0001,1.0001 0 0 0 27.451172,8.1367188 c 0,0 -0.331194,-0.3741575 -0.839844,-0.5917969 -0.50865,-0.2176394 -1.272045,-0.3180123 -2.113281,-0.041016 z m 0.828125,1.8925782 c -0.04607,0.022697 -0.01441,0.053649 -0.08594,0.076172 -0.122946,0.0387 -0.115961,-0.024122 -0.195312,-0.017578 0.04239,-0.017385 0.02818,-0.036205 0.07813,-0.052734 0.117818,-0.038794 0.11985,0.00482 0.203125,-0.00586 z"
     id="path5" />
</svg>
