<?xml version="1.0" encoding="UTF-8"?>
<svg id="svg7" version="1.1" viewBox="0 0 48 48" xmlns="http://www.w3.org/2000/svg">
 <defs id="defs1">
  <style id="style1">.a{fill:none;stroke:#000;stroke-width:2px;stroke-linecap:round;stroke-linejoin:round;}</style>
 </defs>
 <path id="path1" d="m22.156 1.6133c-5.1504 0.42912-10.154 2.6264-14.035 6.5078-7.763 7.7628-8.7859 20.014-2.4121 28.951 6.3739 8.9376 18.292 11.965 28.16 7.1523a1 1 0 0 0 0.46094-1.3359 1 1 0 0 0-1.3359-0.46094c-9.0023 4.3899-19.842 1.6354-25.656-6.5176-5.8142-8.1528-4.8849-19.293 2.1973-26.375 7.0822-7.082 18.224-8.0117 26.377-2.1973 8.1528 5.8146 10.906 16.654 6.5156 25.656a1 1 0 0 0 0.45898 1.3379 1 1 0 0 0 1.3379-0.46094c4.8126-9.8682 1.785-21.788-7.1523-28.162-4.4686-3.187-9.7656-4.5248-14.916-4.0957z" stop-color="#000000" stroke-linecap="round" stroke-linejoin="round"/>
 <path id="path2" d="m24 18.01a1 1 0 0 0-1 1 1 1 0 0 0 1 1c2.2155 0 3.9902 1.7748 3.9902 3.9902s-1.7748 3.9902-3.9902 3.9902a1 1 0 0 0-1 1 1 1 0 0 0 1 1c3.2963 0 5.9902-2.6939 5.9902-5.9902s-2.6939-5.9902-5.9902-5.9902z" stop-color="#000000" stroke-linecap="round" stroke-linejoin="round"/>
 <path id="path3" d="m24 12.725a1 1 0 0 0-1 1 1 1 0 0 0 1 1c5.1345 0 9.2754 4.1409 9.2754 9.2754s-4.1409 9.2754-9.2754 9.2754a1 1 0 0 0-1 1 1 1 0 0 0 1 1c6.2153 0 11.275-5.0601 11.275-11.275s-5.0601-11.275-11.275-11.275z" stop-color="#000000" stroke-linecap="round" stroke-linejoin="round"/>
 <path id="path4" d="m31.039 37.387c-2.1695 1.1427-4.5851 1.7381-7.0371 1.7344a1 1 0 0 0-1.002 0.99805 1 1 0 0 0 0.99805 1.002c2.7778 0.0042 5.515-0.67032 7.9727-1.9648a1 1 0 0 0 0.41797-1.3496 1 1 0 0 0-1.3496-0.41992z" stop-color="#000000" stroke-linecap="round" stroke-linejoin="round"/>
 <path id="path5" d="m24 6.8789a1 1 0 0 0-1 1 1 1 0 0 0 1 1c11.42 0.00394 18.698 12.053 13.387 22.162a1 1 0 0 0 0.41992 1.3496 1 1 0 0 0 1.3496-0.41992c5.9696-11.364-2.3202-25.087-15.156-25.092z" stop-color="#000000" stroke-linecap="round" stroke-linejoin="round"/>
 <path id="circle5" d="m38.5 30.5c-4.4064 0-8 3.5936-8 8s3.5936 8 8 8 8-3.5936 8-8-3.5936-8-8-8zm0 2c3.3256 0 6 2.6744 6 6s-2.6744 6-6 6-6-2.6744-6-6 2.6744-6 6-6z" stop-color="#000000" stroke-linecap="round" stroke-linejoin="round"/>
 <path id="line5" d="m38.809 33.549a1 1 0 0 0-1.2598 0.64062l-2.5996 7.9766a1 1 0 0 0 0.64062 1.2617 1 1 0 0 0 1.2617-0.64258l2.5977-7.9746a1 1 0 0 0-0.64062-1.2617z" stop-color="#000000" stroke-linecap="round" stroke-linejoin="round"/>
 <path id="line6" d="m38.189 33.549a1 1 0 0 0-0.64258 1.2598l2.6016 8a1 1 0 0 0 1.2617 0.64258 1 1 0 0 0 0.64062-1.2598l-2.6016-8a1 1 0 0 0-1.2598-0.64258z" stop-color="#000000" stroke-linecap="round" stroke-linejoin="round"/>
 <path id="line7" d="m36.764 38.824a1 1 0 0 0-1 1 1 1 0 0 0 1 1h3.4668a1 1 0 0 0 1-1 1 1 0 0 0-1-1z" stop-color="#000000" stroke-linecap="round" stroke-linejoin="round"/>
</svg>
