<?xml version="1.0" encoding="UTF-8"?>
<svg id="svg5" version="1.1" viewBox="0 0 48 48" xmlns="http://www.w3.org/2000/svg">
 <defs id="defs1">
  <style id="style1">.b{fill:none;stroke:#000;stroke-width:2px;stroke-linecap:round;stroke-linejoin:round;}</style>
 </defs>
 <path id="path1" d="m1 17.635a1 1 0 0 0-0.36523 1.3652l8.2383 14.271a1.0001 1.0001 0 0 0 1.7324 0l8.1797-14.168a1 1 0 0 0-0.36523-1.3672 1 1 0 0 0-1.3672 0.36719l-7.3145 12.668-7.373-12.771a1 1 0 0 0-1.3652-0.36523z" stop-color="#000000" stroke-linecap="round" stroke-linejoin="round"/>
 <path id="path2" d="m20.906 17.5a1.0001 1.0001 0 0 0-0.86523 0.5l-8.2402 14.271a1 1 0 0 0 0.36524 1.3652 1 1 0 0 0 1.3672-0.36524l7.373-12.773 7.3145 12.67a1 1 0 0 0 1.3652 0.36523 1 1 0 0 0 0.36524-1.3652l-8.1797-14.168a1.0001 1.0001 0 0 0-0.86523-0.5z" stop-color="#000000" stroke-linecap="round" stroke-linejoin="round"/>
 <path id="path3" d="m24.953 17.5a1.0001 1.0001 0 0 0-0.86719 0.5l-8.2383 14.271a1 1 0 0 0 0.36524 1.3652 1 1 0 0 0 1.3672-0.36524l7.373-12.771 7.3125 12.668a1 1 0 0 0 1.3672 0.36523 1 1 0 0 0 0.36524-1.3652l-8.1797-14.168a1.0001 1.0001 0 0 0-0.86523-0.5z" stop-color="#000000" stroke-linecap="round" stroke-linejoin="round"/>
 <path id="path4" d="m33.18 17.5a1.0001 1.0001 0 0 0-0.86523 0.48047l-4.2227 6.957a1 1 0 0 0 0.33594 1.375 1 1 0 0 0 1.373-0.33594l3.3457-5.5137 7.3359 12.705a1 1 0 0 0 1.3672 0.36523 1 1 0 0 0 0.36524-1.3652l-8.1797-14.168a1.0001 1.0001 0 0 0-0.85547-0.5z" stop-color="#000000" stroke-linecap="round" stroke-linejoin="round"/>
 <path id="path5" d="m37.295 17.5a1.0001 1.0001 0 0 0-0.86524 0.48828l-6.1406 10.312a1 1 0 0 0 0.3457 1.3711 1 1 0 0 0 1.3711-0.34766l5.2695-8.8457 7.3262 12.689a1 1 0 0 0 1.3672 0.36523 1 1 0 0 0 0.36523-1.3652l-8.1797-14.168a1.0001 1.0001 0 0 0-0.85938-0.5z" stop-color="#000000" stroke-linecap="round" stroke-linejoin="round"/>
</svg>
