<?xml version="1.0" encoding="UTF-8"?>
<svg id="a" version="1.1" viewBox="0 0 48 48" xmlns="http://www.w3.org/2000/svg">
 <defs id="defs1">
  <style id="style1">.b{fill:none;stroke:#000;stroke-width:2px;stroke-linecap:round;stroke-linejoin:round;}</style>
 </defs>
 <path id="path1" d="m11.559 23.002a1 1 0 0 0-0.7207 0.25977l-5.5098 5.0195c-1.0943 0.99854-1.0938 2.7602 0.00195 3.7578a1.0001 1.0001 0 0 0 0 2e-3l2.041 1.8496c0.8997 0.81631 2.2728 0.88456 3.2441 0.14648l0.0039-2e-3 6.3457-4.8086a1 1 0 0 0 0.19336-1.4004 1 1 0 0 0-1.4004-0.19336l-6.3496 4.8086a1.0001 1.0001 0 0 0-0.00195 2e-3c-0.20774 0.15845-0.49239 0.14775-0.69141-0.0332a1.0001 1.0001 0 0 0 0-2e-3l-2.0391-1.8477c-0.2434-0.2216-0.2434-0.57918 0-0.80078l5.5098-5.0215a1 1 0 0 0 0.06641-1.4121 1 1 0 0 0-0.69336-0.32422z" stop-color="#000000" stroke-linecap="round" stroke-linejoin="round"/>
 <path id="path2" d="m32.266 4.627a1.0001 1.0001 0 0 0-0.0293 0.00195c-0.09018 0.011272-0.16065 0.022522-0.23047 0.03125l0.125-0.00781c-0.01 0-0.26664-0.17867-0.74805 0.30273l0.56641-0.2832c-0.14756 0.02108-0.24202 0.049818-0.3125 0.070312-7.58e-4 1.896e-4 -0.0031 0.00176-0.0039 0.00195-0.03709 0.00936-0.12418 0.056237-0.19141 0.082031-0.29755 0.064216-0.39846 0.14571-0.30273 0.10742l0.09961-0.019531 0.01563-0.00391 0.10156-0.044922 0.22852-0.09375c-0.04482 0.00896-0.19513 0.085206-0.31836 0.13672l0.1875-0.035156a1.0001 1.0001 0 0 0-0.22656 0.052734c-0.07007 0.032335-0.1063 0.024063-0.17578 0.076172l0.16406-0.074219a1.0001 1.0001 0 0 0-0.16211 0.039063c-0.17926 0.089628-0.26001 0.16227-0.27734 0.17383l0.55469-0.16797c-0.32963 1e-7 -0.50675 0.1298-0.59961 0.19922-0.0014 9.355e-4 -5.98e-4 0.00103-2e-3 0.00195-0.0021 0.00155-0.01169 0.00242-0.01367 0.00391-0.02163 0.016225-0.01438 0.012981-0.0293 0.025391-0.05451 0.039301-0.12377 0.089675-0.12109 0.087891a1.0001 1.0001 0 0 0-0.15234 0.12305c0.01662-0.016625-0.02911 0.034113-0.01758 0.021484 0.0117-0.012804-0.02256 0.032253-0.01563 0.023437-0.02733 0.026281-0.10278 0.073484-0.11523 0.085937 0.11285-0.11285 0.13836-0.11438 0.13086-0.10938s-0.04902 0.015821-0.17188 0.13867l-14.535 13.258a1.0001 1.0001 0 0 0-0.0332 0.03125l-0.0098 0.0098a1 1 0 0 0 0 1.4141 1 1 0 0 0 1.4141 0l14.545-13.266a1.0001 1.0001 0 0 0 0.01367-0.013672c0.02513-0.020294 0.01781-0.00609 0.06055-0.048828 0.04-0.04-0.0115 0.028213-0.15039 0.097656a1.0001 1.0001 0 0 0 0.20703-0.20703 1.0001 1.0001 0 0 0 0.10156-0.029297c0.0095-0.00992-0.01937 0.02132-0.0078 0.00977l-0.1543 0.125c0.124-0.082669 0.18564-0.13353 0.18164-0.13086a1.0001 1.0001 0 0 0 0.02148-0.017578 1.0001 1.0001 0 0 0 0.0078-0.00195c0.05211-0.034742 0.02152-0.018607 0.03125-0.025391-0.0014 0.00103-0.0083 0.00284-0.0098 0.00391a1.0001 1.0001 0 0 0 0.0293-0.025391l-0.07031 0.017578c0.0021-0.00327-0.01143 0.014523-0.0078 0.00977-0.02762 0.00773 0.06292-0.01688-0.01172-0.00195a1.0001 1.0001 0 0 0 0.01563-0.00781l-0.07031 0.017578a1.0001 1.0001 0 0 0 0.18361-0.18361c-0.12675 0.2535-0.14236 0.21818-0.10938 0.16602a1.0001 1.0001 0 0 0 0.11328-0.050781 1.0001 1.0001 0 0 0 0.0293-0.025391c0.0014-0.00142-0.02235 0.020039-0.02539 0.023437a1.0001 1.0001 0 0 0 0.15625-0.070312 1.0001 1.0001 0 0 0 0.0078 0c-0.07795 0.033841-0.18532 0.083159-0.16992 0.080078a1.0001 1.0001 0 0 0 0.19922-0.082031 1.0001 1.0001 0 0 0 0.01953-0.00195c-0.02152 0.00766-0.07293 0.03337-0.07227 0.033203a1.0001 1.0001 0 0 0 0.03125-0.00781c0.07-0.02 0.10052-0.024684 0.07813-0.021484a1.0001 1.0001 0 0 0 0.01563-0.00781 1.0001 1.0001 0 0 0 0.0059 0c0.08331-0.010414 0.14825-0.019101 0.21289-0.027344 0.13663-0.011725 0.24594-0.00525 0.30078 0.00781a1.0001 1.0001 0 0 0 0.09375 0.011719 1.0001 1.0001 0 0 0 0.06836 0.023437c0.05096 0.010921 0.11174 0.03048 0.18359 0.066406a1.0001 1.0001 0 0 0 0.44727 0.10547h-0.21875l7.3789 3.5527c0.07818 0.04361 0.14033 0.08053 0.18359 0.10938 0.01888 0.01259 0.06648 0.05109 0.14648 0.12109a1.0001 1.0001 0 0 0 0.03711 0.01367 1.0001 1.0001 0 0 0 2e-3 0 1.0001 1.0001 0 0 0 0.0039 2e-3 1.0001 1.0001 0 0 0 0.0039 0.0039 1.0001 1.0001 0 0 0 0.05273 0.04492c-8.26e-4 -6.2e-4 -0.0051-0.0013-0.0059-2e-3 -0.03883-0.02912-0.03107-0.02413-0.04492-0.03711a1.0001 1.0001 0 0 0 0.0332 0.03906c-0.04857-0.04857-0.02477-0.02559 0.02539 0.03711a1.0001 1.0001 0 0 0 0.05664 0.02734c-0.0022-0.0022-0.0102-0.01966-0.01367-0.02344a1.0001 1.0001 0 0 1-2e-3 -2e-3c-0.0044-0.0048-0.0097-0.02223-0.01563-0.0293-0.0031-0.0023-0.01666-0.0037-0.01953-0.0059-0.0157-0.01173-0.02828-0.02942-0.04102-0.04102a1.0001 1.0001 0 0 0 0.04102 0.01563c-0.04023-0.05322-0.05541-0.04514-0.09375-0.16016a1.0001 1.0001 0 0 0 0.09961 0.16211 1.0001 1.0001 0 0 0 0.06055 0.02149c-0.22505-0.15537-0.50195-0.51037-0.50195-0.81055a1.0001 1.0001 0 0 0 0.99023 0.99023 1.0001 1.0001 0 0 0 0.0098 0.0098c-0.04384 0-0.03957-0.02112-0.07813-0.02539-0.04506 5.72e-4 -0.16049-0.0057-0.33398-0.07813a1.0001 1.0001 0 0 0 0.0098 0.0293 1.0001 1.0001 0 0 0 0.03516 0.01758 1.0001 1.0001 0 0 0 0.01172 0.06836c-0.0097-7e-3 -0.01973-0.01016-0.0293-0.01758a1.0001 1.0001 0 0 0 0.06055 0.2207 1.0001 1.0001 0 0 0 0.0059 0.03125l0.01172 0.03125c-0.0059-0.01119-0.01595-0.03109-2e-3 0.0039a1.0001 1.0001 0 0 0 0.0039 0.0059l0.04687 0.14062c-0.02216-0.06649-0.01101-0.04066 2e-3 0.03711v2e-3a1 1 0 0 0-0.0039 0.0039v0.0098a1.0001 1.0001 0 0 0 0.01953 0.19531c0.0049 0.02457 0.01172 0.07561 0.01172 0.125a1.0001 1.0001 0 0 0 2 0v-0.08984c0-0.08-6.26e-4 -0.20228-0.01953-0.35352a1.0001 1.0001 0 0 0-0.0059-0.04102l-0.0293-0.17969c-7e-3 -0.04223-0.01596-0.15531-0.07813-0.3418l-0.05859-0.17969 0.05078 0.31445c0-0.10702-0.0676-0.13873-0.0957-0.22852-9.03e-4 -0.0029-1e-3 -0.0049-2e-3 -0.0078-0.0617-0.19126-0.12101-0.40617-0.20508-0.49023l0.11719 0.17969 0.08789 0.31055c-0.02224-0.21908-0.04433-0.25524-0.07617-0.29297l0.0918 0.13867c-0.0171-0.04274-0.06189-0.14223-0.12109-0.25 2.92e-4 0.0031-0.01008-0.0427-0.0078-0.03711-0.03148-0.0761-0.08864-0.21817-0.23242-0.39648-0.02103-0.041504-0.0402-0.1027-0.18945-0.25195l0.24219 0.39062c-0.081-0.24299-0.20221-0.34754-0.25977-0.4043l0.01172 0.00586c-0.0057-0.00715-0.0266-0.030263-0.0332-0.039063-0.0035-0.0034-0.01936-0.031083-0.02148-0.033203-0.0048-0.00476-0.01078-0.00512-0.01563-0.00977-0.02703-0.034684-0.03882-0.056401-0.10352-0.12109l0.09375 0.11523c-0.0068-0.00632-0.01458-0.00758-0.02148-0.013672-0.07475-0.10153-0.15502-0.18304-0.25781-0.25781l0.0059 0.00195c-0.0044-0.00389-0.01488-0.011546-0.01953-0.015625-0.0076-0.00539-0.0096-0.014105-0.01758-0.019531-6.3e-4 -4.714e-4 -0.0033-0.00148-0.0039-0.00195-0.0016-0.00116-0.0082-0.00271-0.0098-0.00391-0.07679-0.067324-0.16496-0.14643-0.30273-0.23828-0.13267-0.088446-0.24984-0.15312-0.33984-0.20312a1.0001 1.0001 0 0 0-0.05078-0.025391l-7.6192-3.67a1.0001 1.0001 0 0 0-0.03711-0.00781c-0.19352-0.093312-0.39626-0.16868-0.60742-0.21485-0.09041-0.025694-0.14378-0.026769-0.21484-0.033203-0.32408-0.063626-0.62836-0.07269-0.87891-0.048828zm1.0938 0.082031 0.22852 0.078125c-0.25851-0.12926-0.29766-0.10638-0.20117-0.074219-0.01104-0.00368-0.01586-6.42e-4 -0.02734-0.00391zm8.9707 4.3652 0.13672 0.11133c-5e-3 -5e-3 -0.03271-0.039672-0.12305-0.10742-2e-3 -0.00148-0.0116-0.00236-0.01367-0.00391zm-0.61133 1.7871s-0.02406-0.0059-0.02539-0.0059a1.0001 1.0001 0 0 0 0.01563 0.0059zm-9.8027-4.082c0.0094-0.00658 0.06043-0.038027 0.03125-0.023437l-0.0059 0.00195c-0.01331 0.011181-0.0035 0.00504-0.02539 0.021484zm0.77734-0.20312a1.0001 1.0001 0 0 0 0.13281 0.046875c-0.03428-0.00583-0.04395-0.00228-0.07227-0.011719 0.15649 0.052164 0.15797 0.074101-0.06055-0.035156zm-0.84375 0.2207c0.0031-0.00366-0.0076 0.01002-0.0039 0.00586-0.017 0.012215-0.07299 0.017355-0.0957 0.03125a1.0001 1.0001 0 0 0 0.02148-0.021484 1.0001 1.0001 0 0 0 0.07813-0.015625zm9.3418 3.8965a1.0001 1.0001 0 0 0 0.03516 0.05664 1.0001 1.0001 0 0 0 0.08594 0.04102c-4e-3 -0.01046-0.0018-0.01218-0.0059-0.02539-0.01546-0.0068-0.01352 7.6e-5 -0.0293-0.0078-0.0119-6e-3 -0.01511-0.03739-0.02734-0.04492-0.01173-8e-3 -0.04894-0.01243-0.05859-0.01953zm0.17383 0.12305a1.0001 1.0001 0 0 0 0.42578 0.20312 1 1 0 0 0-0.04102 0.04102c-0.05253-0.0076-0.07325-0.0036-0.12109-0.01953-0.07437-0.02479-0.15091-0.0888-0.22852-0.14062-0.0055-0.0371-0.03423-0.04442-0.03516-0.08399zm-0.0957 0.0039a1.0001 1.0001 0 0 0 0.04297 0.06836c-0.09142-0.09142-0.08853-0.10643-0.0059 0.01758a1.0001 1.0001 0 0 0 0.04102 0.05469c0.0087 0.02674-0.0087-0.09085-0.02148-0.10742-0.01812-0.01474-0.03952-0.01696-0.05664-0.0332zm0.06055 0.125a1.0001 1.0001 0 0 0 0.02539 0.05273c0.0059 0.01181-0.0089-0.03967-0.0059-0.03125-0.0035-0.0069-0.03351-0.05411-0.01953-0.02148z" stop-color="#000000" stroke-linecap="round" stroke-linejoin="round"/>
 <path id="polyline2" d="m33.576 14.662a1 1 0 0 0-0.76367 0.05469l-0.01953 0.0098a1.0001 1.0001 0 0 0-0.1582 0.09766l-11.047 8.3789a1.0001 1.0001 0 0 0-0.39648 0.79688v0.0098a1 1 0 0 0 1 1 1 1 0 0 0 1-1v0.48633l10.578-8.0215-0.0625 0.03125a1 1 0 0 0 0.44727-1.3418 1 1 0 0 0-0.57812-0.50195z" stop-color="#000000" stroke-linecap="round" stroke-linejoin="round"/>
 <path id="path3" d="m8.9688 13.453c-0.57809 0.02661-1.1472 0.24871-1.5977 0.6582v-2e-3l-2.0391 1.8516a1.0001 1.0001 0 0 0-0.00195 0c-1.0964 0.99817-1.0964 2.7616 0 3.7598l5.5078 5.0176 4.8223 4.4043a1.0001 1.0001 0 0 0 0.02734 0.02539l14.568 13.289a1.0001 1.0001 0 0 0 0.04492 0.01758c0.08592 0.08333 0.17099 0.17049 0.25391 0.22656 0.11838 0.08916 0.27196 0.20727 0.49805 0.32031l-0.16602-0.26758c0.19318 0.17269 0.38959 0.38477 0.62305 0.38477l-0.41797-0.09375c0.14612 0.06744 0.28935 0.11641 0.43359 0.16211 0.0043 0.0018 0.0094 0.0021 0.01367 0.0039 0.14039 0.05896 0.29162 0.10444 0.44922 0.12695 0.12726 0.01818 0.30558 0.04619 0.52539 0.04883 0.46374 0.01295 0.90049-0.10808 1.3105-0.27734a1.0001 1.0001 0 0 0 0.08203-0.01758 1.0001 1.0001 0 0 0 0.09766-0.02344l7.6191-3.6699a1.0001 1.0001 0 0 0 0.05078-0.02539c0.09-0.05 0.20718-0.11468 0.33984-0.20312a1.0001 1.0001 0 0 0 0.05859-0.04297c0.06166-0.04796 0.17229-0.1217 0.31445-0.24609 0.11552-0.10108 0.2093-0.19562 0.2793-0.26562a1.0001 1.0001 0 0 0 0.0625-0.06836c0.40746-0.49135 0.57686-1.1399 0.65039-1.7988a1 1 0 0 0 0.08789-0.08789c4.83e-4 -0.0039 0.0015-0.0078 2e-3 -0.01172 0.0078-0.0665 0.01484-0.13331 0.01758-0.19922 1.25e-4 -0.01174 0.01172-0.01949 0.01172-0.03125v-0.08984a1.0001 1.0001 0 0 0-2 0c0 0.04556-0.0052 0.08908-0.0098 0.11523-0.0064 0.30539-0.10875 0.58332-0.29492 0.8125-0.04501 0.04424-0.09275 0.09263-0.12305 0.11914-0.01426 0.01248-0.09582 0.07437-0.17969 0.13867-0.04197 0.0273-0.0975 0.06116-0.16992 0.10156l-7.3789 3.5527h0.21875a1.0001 1.0001 0 0 0-0.42578 0.09375c-0.19007 0.08909-0.38762 0.13206-0.56641 0.12695a1.0001 1.0001 0 0 0-0.0293 0c-0.04214 0-0.12144-0.01088-0.25195-0.0293a1.0001 1.0001 0 0 0-0.0918-0.0332c-0.0904-0.02583-0.175-0.05631-0.24609-0.08789a1.0001 1.0001 0 0 0-2e-3 -0.0039c-0.03778-0.01889-0.10656-0.06625-0.22656-0.15625a1.0001 1.0001 0 0 0-0.04687-0.0332c4e-3 0.0027 0.02414 0.02002 0.02539 0.02148a1.0001 1.0001 0 0 0-0.75973-0.34761h0.37891l-14.26-13.006-0.0059-0.0059a1.0001 1.0001 0 0 0-0.02734-0.02539l-4.8379-4.4199a1.0001 1.0001 0 0 0-2e-3 0l-5.5097-5.0195a1.0001 1.0001 0 0 0 0-2e-3c-0.24344-0.22163-0.24344-0.57915 0-0.80078l2.0391-1.8477c0.19911-0.18101 0.48378-0.19351 0.69141-0.03516a1.0001 1.0001 0 0 0 0.00195 2e-3l6.3496 4.8086 5.4336 4.1191v-0.48632a1.0001 1.0001 0 0 0 0.39453 0.79688l11.049 8.3789a1.0001 1.0001 0 0 0 0.1582 0.09766l0.01953 0.0098a1 1 0 0 0 1.3418-0.44727 1 1 0 0 0-0.44727-1.3418l0.0625 0.03125-10.578-8.0215v0.48633a1.0001 1.0001 0 0 0-0.39648-0.79688l-5.8281-4.4199a1.0001 1.0001 0 0 0-2e-3 0l-6.3457-4.8066c-0.48603-0.37076-1.0722-0.54032-1.6503-0.51371zm24.855 29.656-0.26367 0.05859h0.0098a1.0001 1.0001 0 0 0 0.25391-0.05859zm-1.7031-1.5938c0.0857 0.07631 0.23874 0.09661 0.27539 0.16992 0.11801 0.23601 0.10352 0.44141 0.10352 0.44141a1.0001 1.0001 0 0 0-0.37891-0.61133z" stop-color="#000000" stroke-linecap="round" stroke-linejoin="round"/>
 <path id="path4" d="m32.02 4.6562c-0.19547 0.03327-0.34035 0.20371-0.52734 0.27148-0.45418 0.079377-0.89613 0.29066-1.2539 0.64844a1.0001 1.0001 0 0 0 1.4141 1.4141c0.10398-0.10398 0.26648-0.00417 0.39258-0.066406 0.12635 0.054995 0.21094 0.12359 0.21094 0.31641v33.52c0 0.19282-0.08459 0.26141-0.21094 0.31641-0.1261-0.06226-0.28855 0.03762-0.39258-0.06641a1.0001 1.0001 0 0 0-1.4141 1.4141c0.35778 0.35778 0.79972 0.56906 1.2539 0.64844 0.81848 0.29669 1.6966 0.38665 2.5137-0.0059h2e-3l7.6152-3.6641c1.1447-0.5505 1.8769-1.7121 1.8769-2.9824v-24.838c0-1.2702-0.7322-2.4339-1.877-2.9844l-7.6172-3.6641c-0.63088-0.30335-1.3256-0.3898-1.9863-0.27734zm2.2363 2.6172 6.502 3.127c0.45605 0.21931 0.74219 0.67549 0.74219 1.1816v24.838c0 0.50615-0.28589 0.96218-0.74219 1.1816l-6.502 3.125z" stop-color="#000000" stroke-linecap="round" stroke-linejoin="round"/>
</svg>
