<?xml version="1.0" encoding="UTF-8"?>
<svg id="Layer_2" data-name="Layer 2" version="1.1" viewBox="0 0 48 48" xmlns="http://www.w3.org/2000/svg">
 <defs id="defs1">
  <style id="style1">.cls-1{fill:none;stroke:#000;stroke-width:2px;stroke-linecap:round;stroke-linejoin:round;}</style>
 </defs>
 <path id="path1" d="m8.9453 6.6855c-4.3863 0.20228-7.0163 5.104-4.752 8.8691 1.8283 3.2068 3.6743 6.4017 5.5098 9.5937 3.0228 5.2575 6.0285 10.517 9.0742 15.77 1.0696 2.0174 3.2613 3.1849 5.5312 2.9551 2.049-0.13563 3.8809-1.339 4.8125-3.1699l-0.02344 0.04492c4.8202-8.3803 9.6357-16.763 14.449-25.15a1 1 0 0 0 0.0098-0.08398c0.65337-1.1529 0.93303-2.4814 0.75391-3.7969-0.48735-3.6164-4.1821-5.9272-7.6465-4.7813-3.4645 1.1459-5.0543 5.2047-3.2891 8.3984l-0.02539-0.04687c0.48036 0.99025 0.72555 2.0772 0.71875 3.1777-0.006809 0.043905-0.06836 0.39176-0.06836 0.81445l0.0059-0.10938c-0.40317 3.6097-3.5488 6.2491-7.1738 6.0215a1.0001 1.0001 0 0 0-0.02344 0c-2.3294-0.08937-4.4383-1.3914-5.5625-3.4336a1.0001 1.0001 0 0 0-0.01563-0.02734c-0.9743-1.6435-1.8926-3.3272-2.9004-5.0312l-0.0098-0.01758c-1.3072-2.315-2.635-4.6642-3.9961-6.9961l0.02344 0.044922c-1.0327-1.9988-3.1584-3.1935-5.4023-3.0449zm30.064 1.9785c1.666 0.21189 3.0742 1.5085 3.3184 3.3203a1.0001 1.0001 0 0 0 2e-3 0c0.12462 0.91302-0.06636 1.8418-0.53906 2.6328a1 1 0 0 0 0.0039 0.01563c-4.8072 8.376-9.6178 16.75-14.432 25.119a1.0001 1.0001 0 0 0-0.02539 0.04492c-0.61488 1.2084-1.8187 2.0004-3.1719 2.0859a1.0001 1.0001 0 0 0-0.04102 2e-3c-1.4735 0.15658-2.8879-0.59321-3.582-1.9023a1.0001 1.0001 0 0 0-0.01758-0.0332c-3.0479-5.2563-6.057-10.525-9.0879-15.797-1.8408-3.2014-3.6915-6.4009-5.5195-9.6074a1.0001 1.0001 0 0 0-0.011719-0.019531c-1.5315-2.5466 0.16996-5.7143 3.1387-5.8457a1.0001 1.0001 0 0 0 0.023437-0.00195c1.459-0.1004 2.8326 0.67144 3.5039 1.9707a1.0001 1.0001 0 0 0 0.02344 0.04492c1.3555 2.3223 2.6845 4.6689 3.9941 6.9883a1.0001 1.0001 0 0 0 0.0098 0.01758c0.98276 1.6609 1.8985 3.3418 2.8945 5.0234 1.4582 2.649 4.2002 4.3406 7.2207 4.4629 4.666 0.28858 8.7603-3.1479 9.2793-7.7949a1.0001 1.0001 0 0 0 0.005821-0.11133c0-0.195 0.04877-0.4073 0.06836-0.74024a1.0001 1.0001 0 0 0 2e-3 -0.05078c0.01032-1.4106-0.30426-2.8051-0.91992-4.0742a1.0001 1.0001 0 0 0-0.025439-0.046876c-1.1791-2.1334-0.14824-4.7677 2.166-5.5332 0.57856-0.19137 1.1634-0.24055 1.7188-0.16992z" stop-color="#000000" stroke-linecap="round" stroke-linejoin="round"/>
</svg>
