<?xml version="1.0" encoding="UTF-8" standalone="no"?>
<svg
   viewBox="0 0 48 48"
   version="1.1"
   id="svg2"
   sodipodi:docname="vivaldi-snapshot.svg"
   xmlns:inkscape="http://www.inkscape.org/namespaces/inkscape"
   xmlns:sodipodi="http://sodipodi.sourceforge.net/DTD/sodipodi-0.dtd"
   xmlns="http://www.w3.org/2000/svg"
   xmlns:svg="http://www.w3.org/2000/svg">
  <sodipodi:namedview
     id="namedview2"
     pagecolor="#ffffff"
     bordercolor="#666666"
     borderopacity="1.0"
     inkscape:showpageshadow="2"
     inkscape:pageopacity="0.0"
     inkscape:pagecheckerboard="0"
     inkscape:deskcolor="#d1d1d1" />
  <defs
     id="defs1">
    <style
       id="style1">.a{fill:none;stroke:#000;stroke-width:2px;stroke-linecap:round;stroke-linejoin:round;}</style>
  </defs>
  <path
     style="color:#000000;fill:#000000;stroke-linecap:round;stroke-linejoin:round;-inkscape-stroke:none"
     d="m 8.9667969,6.6875 c -4.3823073,0.2037668 -7.009473,5.104236 -4.7460938,8.865234 0.00114,0.0019 8.094e-4,0.004 0.00195,0.0059 1.8364498,3.197103 3.6727183,6.395717 5.5097657,9.59375 3.0191581,5.25178 6.0289461,10.51438 9.0722651,15.759765 1.067216,2.022983 3.26375,3.192651 5.53711,2.957032 2.039607,-0.142823 3.860899,-1.345226 4.785156,-3.169922 l 0.769531,-1.337891 a 1,1 0 0 0 -0.371093,-1.365234 1,1 0 0 0 -1.365235,0.36914 L 27.367187,39.75 a 1.0001,1.0001 0 0 0 -0.02539,0.04492 c -0.609287,1.202874 -1.803076,1.993775 -3.148438,2.083984 a 1.0001,1.0001 0 0 0 -0.04102,0.0039 c -1.47343,0.15961 -2.888557,-0.593469 -3.580078,-1.904296 a 1.0001,1.0001 0 0 0 -0.01953,-0.03516 C 17.507231,34.694562 14.494073,29.422157 11.466797,24.15625 v -0.002 C 9.6264158,20.950461 7.7850937,17.745872 5.9453125,14.542969 a 1.0001,1.0001 0 0 0 -0.00977,-0.01758 C 4.4003076,11.980651 6.0992052,8.8111921 9.0683594,8.6816406 a 1.0001,1.0001 0 0 0 0.027344,-0.00195 C 10.555376,8.5760014 11.930452,9.34805 12.601563,10.648438 a 1.0001,1.0001 0 0 0 0.02539,0.04492 c 1.355277,2.324956 2.687057,4.669178 4.033203,7.009766 0.959597,1.666434 1.907677,3.356766 2.908203,5.029297 4.45e-4,8.11e-4 0.0015,0.0011 0.002,0.002 1.455393,2.651649 4.196588,4.346881 7.21875,4.466797 4.652149,0.264608 8.719785,-3.17212 9.230469,-7.804688 v -0.0039 c 0.03913,-0.344153 0.06351,-0.676028 0.07617,-0.822266 a 1.0001,1.0001 0 0 0 0.0039,-0.08008 c 0.01044,-1.413697 -0.306048,-2.809417 -0.925781,-4.080078 a 1.0001,1.0001 0 0 0 -0.01953,-0.03711 c -1.148352,-2.124955 -0.117624,-4.7264509 2.173828,-5.4902345 2.288778,-0.7628922 4.668759,0.6960409 5.029297,3.0800785 0.123568,0.912415 -0.0651,1.839048 -0.535156,2.630859 a 1,1 0 0 0 -0.002,0.0078 1,1 0 0 0 -0.0039,0.0039 c -2.389604,4.158292 -4.781203,8.315964 -7.171875,12.472656 a 1,1 0 0 0 0.369141,1.365234 1,1 0 0 0 1.365234,-0.367187 c 2.388175,-4.152351 4.776953,-8.306991 7.164063,-12.460938 0.0026,-0.0046 0.0052,-0.0091 0.0078,-0.01367 a 1,1 0 0 0 0.01563,-0.04883 c 0.676058,-1.168231 0.956039,-2.526617 0.773438,-3.865234 a 1.0001,1.0001 0 0 0 -0.002,-0.01172 C 43.804206,8.0967111 40.128263,5.8401085 36.695312,6.984375 c -3.43295,1.1442665 -5.021191,5.154378 -3.300781,8.337891 l -0.01758,-0.03711 c 0.48291,0.990128 0.727288,2.080137 0.720703,3.181641 -0.01524,0.181666 -0.03395,0.435732 -0.06445,0.703125 a 1.0001,1.0001 0 0 0 -0.002,0.0039 c -0.395285,3.600156 -3.521061,6.241939 -7.136719,6.03125 a 1.0001,1.0001 0 0 0 -0.01953,0 c -2.327229,-0.09014 -4.432796,-1.393523 -5.552734,-3.435547 a 1.0001,1.0001 0 0 0 -0.01953,-0.03125 C 20.314827,20.088272 19.36857,18.396592 18.394531,16.705078 17.060036,14.384747 15.732205,12.052741 14.378906,9.7304688 13.345477,7.7280269 11.214098,6.5327945 8.9667969,6.6875 Z"
     id="path1" />
  <path
     style="color:#000000;fill:#000000;stroke-linecap:round;stroke-linejoin:round;-inkscape-stroke:none"
     d="m 34.5,26.5 c -4.406429,0 -8,3.593571 -8,8 0,4.406429 3.593571,8 8,8 4.406429,0 8,-3.593571 8,-8 0,-4.406429 -3.593571,-8 -8,-8 z m 0,2 c 3.32555,0 6,2.67445 6,6 0,3.32555 -2.67445,6 -6,6 -3.32555,0 -6,-2.67445 -6,-6 0,-3.32555 2.67445,-6 6,-6 z"
     id="circle1" />
  <path
     style="color:#000000;fill:#000000;stroke-linecap:round;stroke-linejoin:round;-inkscape-stroke:none"
     d="m 33.84375,29.5 c -1.643204,0.0017 -2.994887,1.357023 -2.994141,3 -7.46e-4,1.642977 1.350937,2.998274 2.994141,3 a 1.0001,1.0001 0 0 0 0.002,0 h 1.308594 c 0.562935,5.91e-4 0.996714,0.435112 0.996094,0.998047 a 1.0001,1.0001 0 0 0 0,0.0039 c 6.2e-4,0.562935 -0.433159,0.997456 -0.996094,0.998047 h -1.183594 a 1.0001,1.0001 0 0 0 -0.08203,0.0039 c -0.42197,0.03403 -0.827821,-0.149287 -1.083985,-0.486328 a 1,1 0 0 0 -1.402343,-0.189453 1,1 0 0 0 -0.189453,1.400391 c 0.667221,0.877881 1.738798,1.356218 2.83789,1.267578 L 33.970703,39.5 h 1.183594 a 1.0001,1.0001 0 0 0 0.002,0 c 1.643204,-0.0017 2.994887,-1.357023 2.994141,-3 7.46e-4,-1.642977 -1.350937,-2.998274 -2.994141,-3 a 1.0001,1.0001 0 0 0 -0.002,0 h -1.306641 -0.002 c -0.561969,-0.0016 -0.996713,-0.435775 -0.996094,-0.998047 a 1.0001,1.0001 0 0 0 0,-0.002 1.0001,1.0001 0 0 0 0,-0.002 C 32.84899,31.935775 33.283734,31.501614 33.845703,31.5 h 1.183594 a 1.0001,1.0001 0 0 0 0.08008,-0.0039 c 0.42195,-0.03401 0.829785,0.149304 1.085937,0.486328 a 1,1 0 0 0 1.400391,0.189453 1,1 0 0 0 0.191406,-1.400391 c -0.667193,-0.877835 -1.738848,-1.356168 -2.83789,-1.267578 L 35.029297,29.5 h -1.183594 a 1.0001,1.0001 0 0 0 -0.002,0 z"
     id="path2" />
</svg>
