<?xml version="1.0" encoding="UTF-8" standalone="no"?>
<svg
   viewBox="0 0 48 48"
   version="1.1"
   id="svg3"
   sodipodi:docname="vlc.svg"
   xmlns:inkscape="http://www.inkscape.org/namespaces/inkscape"
   xmlns:sodipodi="http://sodipodi.sourceforge.net/DTD/sodipodi-0.dtd"
   xmlns="http://www.w3.org/2000/svg"
   xmlns:svg="http://www.w3.org/2000/svg">
  <sodipodi:namedview
     id="namedview3"
     pagecolor="#ffffff"
     bordercolor="#666666"
     borderopacity="1.0"
     inkscape:showpageshadow="2"
     inkscape:pageopacity="0.0"
     inkscape:pagecheckerboard="0"
     inkscape:deskcolor="#d1d1d1" />
  <defs
     id="defs1">
    <style
       id="style1">.a{fill:none;stroke:#000;stroke-width:2px;stroke-linecap:round;stroke-linejoin:round;}</style>
  </defs>
  <path
     style="color:#000000;fill:#000000;stroke-linecap:round;stroke-linejoin:round;-inkscape-stroke:none"
     d="m 17.71875,15.878906 a 1.0001,1.0001 0 0 0 -0.638672,0.634766 l -2.820312,8.439453 a 1.0001,1.0001 0 0 0 0.347656,1.117187 c 2.665782,2.002135 5.893423,3.117923 9.226562,3.189454 a 1.0001,1.0001 0 0 0 0.04102,0 c 3.33314,-0.07153 6.56078,-1.187319 9.226562,-3.189454 a 1.0001,1.0001 0 0 0 0.347657,-1.117187 l -2.820313,-8.439453 a 1.0001,1.0001 0 0 0 -1.527344,-0.498047 c -1.528288,1.089524 -3.341506,1.709307 -5.216796,1.783203 h -0.05859 c -1.875293,-0.0739 -3.688507,-0.693678 -5.216797,-1.783203 A 1.0001,1.0001 0 0 0 17.71875,15.878906 Z m 0.892578,2.363281 c 1.589448,0.881047 3.318408,1.486517 5.146484,1.556641 a 1.0001,1.0001 0 0 0 0.03906,0 h 0.115234 a 1.0001,1.0001 0 0 0 0.03906,0 c 1.828077,-0.07012 3.557036,-0.675594 5.146484,-1.556641 l 2.191406,6.554688 c -2.208239,1.491157 -4.760231,2.397371 -7.433593,2.458984 -2.674049,-0.06125 -5.226772,-0.967465 -7.435547,-2.458984 z"
     id="path1" />
  <path
     style="color:#000000;fill:#000000;stroke-linecap:round;stroke-linejoin:round;-inkscape-stroke:none"
     d="m 23.855469,3.5 c -1.031222,0 -1.870569,0.5509064 -2.382813,1.1699219 -0.512244,0.6190154 -0.786708,1.3076508 -0.964844,1.8515625 l -0.978515,2.8515625 a 1.0001,1.0001 0 0 0 0.392578,1.1582031 c 1.16363,0.773197 2.537561,1.162029 3.933594,1.123047 1.395359,0.03856 2.770509,-0.350212 3.933593,-1.123047 a 1.0001,1.0001 0 0 0 0.392579,-1.1582031 l -0.978516,-2.8515625 -0.0039,-0.00586 C 27.021342,5.9719888 26.746929,5.286932 26.236328,4.6699219 25.72401,4.0508365 24.886691,3.5 23.855469,3.5 Z m 0,2 c 0.381777,0 0.584888,0.1372238 0.839843,0.4453125 0.254956,0.3080887 0.471187,0.7860716 0.605469,1.1972656 a 1.0001,1.0001 0 0 0 0.0059,0.013672 l 0.65625,1.9140625 c -0.664417,0.3021407 -1.339812,0.6138763 -2.076172,0.5898438 a 1.0001,1.0001 0 0 0 -0.06445,0 C 23.086547,9.6841679 22.411996,9.3719202 21.748047,9.0703125 L 22.404297,7.15625 a 1.0001,1.0001 0 0 0 0.0039,-0.013672 C 22.543067,6.7307908 22.758666,6.2534711 23.013672,5.9453125 23.268677,5.6371539 23.473692,5.5 23.855469,5.5 Z"
     id="path2" />
  <path
     style="color:#000000;fill:#000000;stroke-linecap:round;stroke-linejoin:round;-inkscape-stroke:none"
     d="m 10.951172,28.257812 c -0.656983,0 -1.2728548,0.108315 -1.7871095,0.46875 -0.5142547,0.360436 -0.8052214,0.905882 -0.9785156,1.445313 a 1.0001,1.0001 0 0 0 -0.00781,0.02344 L 4.9394531,41.142578 a 1.0001,1.0001 0 0 0 -0.00977,0.03516 c -0.1831371,0.713354 -0.3378021,1.43189 0.03125,2.195313 0.1845261,0.381711 0.5362961,0.714854 0.9296875,0.892578 C 6.2840164,44.443349 6.7020811,44.5 7.1582031,44.5 H 40.550781 c 0.456122,0 0.874187,-0.05665 1.267578,-0.234375 0.393392,-0.177724 0.745162,-0.510867 0.929688,-0.892578 0.369052,-0.763423 0.21634,-1.481959 0.0332,-2.195313 a 1.0001,1.0001 0 0 0 -0.0098,-0.03516 L 39.53125,30.195312 a 1.0001,1.0001 0 0 0 -0.0059,-0.02148 C 39.352096,29.634397 39.06111,29.088954 38.546875,28.728516 38.03264,28.368078 37.416709,28.257813 36.759766,28.257812 h -2.81836 a 1.0001,1.0001 0 0 0 -0.947265,1.324219 l 0.882812,2.572266 c -2.839846,2.2555 -6.360503,3.490757 -10,3.408203 a 1.0001,1.0001 0 0 0 -0.04492,0 c -3.639496,0.08254 -7.160144,-1.152715 -10,-3.408203 l 0.882813,-2.572266 a 1.0001,1.0001 0 0 0 -0.945313,-1.324219 z m 0,2 h 1.417969 l -0.667969,1.947266 a 1.0001,1.0001 0 0 0 0.291016,1.080078 c 3.288064,2.846215 7.515966,4.368592 11.863281,4.275391 4.346635,0.09272 8.573764,-1.429582 11.861328,-4.275391 a 1.0001,1.0001 0 0 0 0.292969,-1.080078 l -0.667969,-1.947266 h 1.417969 c 0.435555,0 0.588007,0.07191 0.638671,0.107422 0.0502,0.03519 0.119837,0.104776 0.220704,0.416016 9.35e-4,0.0029 0.001,9.78e-4 0.002,0.0039 l 3.222656,10.894531 c 0.129884,0.510615 0.08664,0.76692 0.09766,0.769532 C 40.891055,42.466602 40.78911,42.5 40.550781,42.5 H 7.1582031 c -0.2383292,0 -0.3402734,-0.0334 -0.390625,-0.05078 0.011015,-0.0026 -0.030279,-0.258903 0.099609,-0.769532 L 10.089844,30.785156 c 0.102405,-0.318768 0.171986,-0.384408 0.222656,-0.419922 0.05067,-0.03551 0.203056,-0.107421 0.638672,-0.107422 z"
     id="path3" />
</svg>
