<?xml version="1.0" encoding="UTF-8"?>
<svg id="svg3" version="1.1" viewBox="0 0 48 48" xmlns="http://www.w3.org/2000/svg">
 <defs id="defs1">
  <style id="style1">.a{fill:none;stroke:#000;stroke-width:2px;stroke-linecap:round;stroke-linejoin:round;}</style>
 </defs>
 <path id="path1" d="m17.719 15.879a1.0001 1.0001 0 0 0-0.63867 0.63477l-2.8203 8.4395a1.0001 1.0001 0 0 0 0.34766 1.1172c2.6658 2.0021 5.8934 3.1179 9.2266 3.1895a1.0001 1.0001 0 0 0 0.04102 0c3.3331-0.07153 6.5608-1.1873 9.2266-3.1895a1.0001 1.0001 0 0 0 0.34766-1.1172l-2.8203-8.4395a1.0001 1.0001 0 0 0-1.5273-0.49805c-1.5283 1.0895-3.3415 1.7093-5.2168 1.7832h-0.05859c-1.8753-0.0739-3.6885-0.69368-5.2168-1.7832a1.0001 1.0001 0 0 0-0.89063-0.13672zm0.89258 2.3633c1.5894 0.88105 3.3184 1.4865 5.1465 1.5566a1.0001 1.0001 0 0 0 0.03906 0h0.11523a1.0001 1.0001 0 0 0 0.03906 0c1.8281-0.07013 3.557-0.67559 5.1465-1.5566l2.1914 6.5547c-2.2082 1.4912-4.7602 2.3974-7.4336 2.459-2.6741-0.06125-5.2268-0.96746-7.4355-2.459z" stroke-linecap="round" stroke-linejoin="round"/>
 <path id="path2" d="m23.855 3.5c-1.0312 0-1.8706 0.55091-2.3828 1.1699-0.51224 0.61902-0.78671 1.3077-0.96484 1.8516l-0.97852 2.8516a1.0001 1.0001 0 0 0 0.39258 1.1582c1.1636 0.7732 2.5376 1.162 3.9336 1.123 1.3954 0.03856 2.7705-0.35021 3.9336-1.123a1.0001 1.0001 0 0 0 0.39258-1.1582l-0.97852-2.8516-0.0039-0.00586c-0.17788-0.54364-0.4523-1.2287-0.9629-1.8457-0.51232-0.61909-1.3496-1.1699-2.3809-1.1699zm0 2c0.38178 0 0.58489 0.13722 0.83984 0.44531 0.25496 0.30809 0.47119 0.78607 0.60547 1.1973a1.0001 1.0001 0 0 0 0.0059 0.013672l0.65625 1.9141c-0.66442 0.30214-1.3398 0.61388-2.0762 0.58984a1.0001 1.0001 0 0 0-0.06445 0c-0.73576 0.024012-1.4103-0.28824-2.0743-0.58984l0.65625-1.9141a1.0001 1.0001 0 0 0 0.0039-0.013672c0.13487-0.41179 0.35047-0.88911 0.60548-1.1973s0.46002-0.44531 0.8418-0.44531z" stroke-linecap="round" stroke-linejoin="round"/>
 <path id="path3" d="m10.951 28.258c-0.65698 0-1.2729 0.10831-1.7871 0.46875-0.51426 0.36044-0.80522 0.90588-0.97852 1.4453a1.0001 1.0001 0 0 0-0.00781 0.02344l-3.2383 10.947a1.0001 1.0001 0 0 0-0.00977 0.03516c-0.18314 0.71336-0.3378 1.4319 0.03125 2.1953 0.18453 0.38171 0.5363 0.71485 0.92969 0.89258 0.3934 0.17772 0.81146 0.23437 1.2676 0.23437h33.393c0.45612 0 0.87419-0.05665 1.2676-0.23438 0.39339-0.17772 0.74516-0.51087 0.92969-0.89258 0.36905-0.76342 0.21634-1.482 0.0332-2.1953a1.0001 1.0001 0 0 0-0.0098-0.03516l-3.2402-10.947a1.0001 1.0001 0 0 0-0.0059-0.02148c-0.1733-0.53943-0.46428-1.0849-0.97852-1.4453-0.51424-0.36044-1.1302-0.4707-1.7871-0.4707h-2.8184a1.0001 1.0001 0 0 0-0.94726 1.3242l0.88281 2.5723c-2.8398 2.2555-6.3605 3.4908-10 3.4082a1.0001 1.0001 0 0 0-0.04492 0c-3.6395 0.08254-7.1601-1.1527-10-3.4082l0.88281-2.5723a1.0001 1.0001 0 0 0-0.94531-1.3242zm0 2h1.418l-0.66797 1.9473a1.0001 1.0001 0 0 0 0.29102 1.0801c3.2881 2.8462 7.516 4.3686 11.863 4.2754 4.3466 0.09272 8.5738-1.4296 11.861-4.2754a1.0001 1.0001 0 0 0 0.29297-1.0801l-0.66797-1.9473h1.418c0.43556 0 0.58801 0.07191 0.63867 0.10742 0.0502 0.03519 0.11984 0.10478 0.2207 0.41602 9.35e-4 0.0029 1e-3 9.78e-4 2e-3 0.0039l3.2227 10.895c0.12988 0.51062 0.08664 0.76692 0.09766 0.76953-0.050402 0.017389-0.15235 0.050787-0.39068 0.050787h-33.393c-0.23833 0-0.34027-0.0334-0.39062-0.05078 0.011015-0.0026-0.030279-0.2589 0.099609-0.76953l3.2227-10.895c0.1024-0.31877 0.17199-0.38441 0.22266-0.41992 0.05067-0.03551 0.20306-0.10742 0.63867-0.10742z" stroke-linecap="round" stroke-linejoin="round"/>
</svg>
