<?xml version="1.0" encoding="UTF-8"?>
<svg id="svg7" version="1.1" viewBox="0 0 48 48" xmlns="http://www.w3.org/2000/svg">
 <defs id="defs1">
  <style id="style1">.b{fill:none;stroke:#000;stroke-width:2px;stroke-linecap:round;stroke-linejoin:round;}</style>
 </defs>
 <path id="path1" d="m38.498 28.803c-8.8135-0.01353-14.524 4.4504-17.426 9.582a1 1 0 0 0 0.37891 1.3633 1 1 0 0 0 1.3633-0.37891c2.6023-4.6018 7.5309-8.5789 15.68-8.5664a1 1 0 0 0 1.002-0.99805 1 1 0 0 0-0.99805-1.002z" stroke-linecap="round" stroke-linejoin="round"/>
 <path id="path2" d="m36.049 20.127a1 1 0 0 0-0.9668 1.0332c0.11622 3.543-0.72734 6.2256-2.8652 8.6426a1 1 0 0 0 0.08594 1.4121 1 1 0 0 0 1.4121-0.08594c2.4664-2.7884 3.4955-6.1227 3.3672-10.035a1 1 0 0 0-1.0332-0.9668z" stroke-linecap="round" stroke-linejoin="round"/>
 <path id="path3" d="m9.5 23.068a1 1 0 0 0-1 1c0 3.4811 0.9668 6.568 3.5527 8.666 2.5859 2.098 6.5896 3.1562 12.51 3.1562a1 1 0 0 0 1-1 1 1 0 0 0-1-1c-5.6782 0-9.2041-1.0491-11.25-2.709-2.0459-1.6599-2.8125-3.9815-2.8125-7.1133a1 1 0 0 0-1-1z" stroke-linecap="round" stroke-linejoin="round"/>
 <path id="path4" d="m13.906 13.012a1 1 0 0 0-0.66602 0.37891 1 1 0 0 0 0.17578 1.4043c2.0898 1.6258 2.9297 2.9668 3.2168 4.1816 0.28709 1.2148 0.03486 2.4359-0.43555 3.875-0.94081 2.8781-2.7464 6.549-0.89453 11.326a1 1 0 0 0 1.2949 0.57031 1 1 0 0 0 0.57031-1.293c-1.5766-4.067-0.08303-6.8783 0.93164-9.9824 0.50734-1.552 0.89637-3.1972 0.48047-4.957s-1.6238-3.5023-3.9355-5.3008a1 1 0 0 0-0.73828-0.20312z" stroke-linecap="round" stroke-linejoin="round"/>
 <path id="path5" d="m23.395 22.326c-1.8693 0-3.7778 0.65539-5.3652 1.6484-1.5874 0.99305-2.8967 2.3177-3.332 3.9414a1 1 0 0 0 0.70703 1.2246 1 1 0 0 0 1.2246-0.70703c0.22854-0.85243 1.1617-1.9509 2.4609-2.7637 1.2993-0.8128 2.922-1.3438 4.3047-1.3438a1 1 0 0 0 1-1 1 1 0 0 0-1-1z" stroke-linecap="round" stroke-linejoin="round"/>
 <path id="path6" d="m24.734 9.5234a1 1 0 0 0-0.75391 0.13672 1 1 0 0 0-0.29883 1.3809c3.4326 5.3239 4.3135 9.5062 3.9473 13.176-0.36628 3.6696-2.0244 6.8983-3.9297 10.17a1 1 0 0 0 0.36133 1.3672 1 1 0 0 0 1.3672-0.36133c1.9372-3.3264 3.7777-6.8314 4.1914-10.977s-0.64599-8.8581-4.2559-14.457a1 1 0 0 0-0.62891-0.43555z" stroke-linecap="round" stroke-linejoin="round"/>
 <path id="path7" d="m34.455 11.316c-2.8747 0-4.7282 1.6517-5.6426 3.5625s-1.1057 4.0764-1.2422 5.5879a1 1 0 0 0 0.9043 1.0859 1 1 0 0 0 1.0859-0.90625c0.13481-1.4925 0.35856-3.4456 1.0566-4.9043 0.69808-1.4587 1.6532-2.4258 3.8379-2.4258a1 1 0 0 0 1-1 1 1 0 0 0-1-1z" stroke-linecap="round" stroke-linejoin="round"/>
 <path id="circle7" d="m24 1.5c-12.415 0-22.5 10.085-22.5 22.5s10.085 22.5 22.5 22.5 22.5-10.085 22.5-22.5-10.085-22.5-22.5-22.5zm0 2c11.334 0 20.5 9.1663 20.5 20.5s-9.1663 20.5-20.5 20.5-20.5-9.1663-20.5-20.5 9.1663-20.5 20.5-20.5z" stroke-linecap="round" stroke-linejoin="round"/>
</svg>
