<?xml version="1.0" encoding="UTF-8"?>
<svg id="a" version="1.1" viewBox="0 0 48 48" xmlns="http://www.w3.org/2000/svg">
 <defs id="defs1">
  <style id="style1">.b{fill:none;stroke:#000;stroke-width:2px;stroke-linecap:round;stroke-linejoin:round;}</style>
 </defs>
 <path id="circle1" d="m24 1.5c-12.415 0-22.5 10.085-22.5 22.5s10.085 22.5 22.5 22.5 22.5-10.085 22.5-22.5-10.085-22.5-22.5-22.5zm0 2c11.334 0 20.5 9.1663 20.5 20.5s-9.1663 20.5-20.5 20.5-20.5-9.1663-20.5-20.5 9.1663-20.5 20.5-20.5z" stroke-linecap="round" stroke-linejoin="round"/>
 <path id="line1" d="m12.193 19.51a1 1 0 0 0-0.66016 0.38867l-5.2832 7a1 1 0 0 0 0.19531 1.4004 1 1 0 0 0 1.4004-0.19727l5.2832-7a1 1 0 0 0-0.19531-1.4004 1 1 0 0 0-0.74024-0.19141z" stroke-linecap="round" stroke-linejoin="round"/>
 <path id="line2" d="m7.1875 19.51a1 1 0 0 0-0.74219 0.19141 1 1 0 0 0-0.19531 1.4004l5.2832 7a1 1 0 0 0 1.4004 0.19727 1 1 0 0 0 0.19531-1.4004l-5.2832-7a1 1 0 0 0-0.6582-0.38867z" stroke-linecap="round" stroke-linejoin="round"/>
 <path id="path2" d="m35.668 19.5a1 1 0 0 0-1 1v4.3594c0 1.9993 1.6433 3.6406 3.6426 3.6406s3.6406-1.6413 3.6406-3.6406v-4.3594a1 1 0 0 0-1-1 1 1 0 0 0-1 1v4.3594c0 0.91849-0.72213 1.6406-1.6406 1.6406s-1.6426-0.72213-1.6426-1.6406v-4.3594a1 1 0 0 0-1-1z" stroke-linecap="round" stroke-linejoin="round"/>
 <path id="line3" d="m40.951 23.859a1 1 0 0 0-1 1v2.6406a1 1 0 0 0 1 1 1 1 0 0 0 1-1v-2.6406a1 1 0 0 0-1-1z" stroke-linecap="round" stroke-linejoin="round"/>
 <path id="path3" d="m25.023 19.5c-1.9993 0-3.6426 1.6413-3.6426 3.6406a1 1 0 0 0 1 1 1 1 0 0 0 1-1c0-0.91849 0.72409-1.6406 1.6426-1.6406 0.91849 0 1.6406 0.72213 1.6406 1.6406v4.3594a1 1 0 0 0 1 1 1 1 0 0 0 1-1v-4.3594c0-1.9993-1.6413-3.6406-3.6406-3.6406z" stroke-linecap="round" stroke-linejoin="round"/>
 <path id="line4" d="m22.381 19.5a1 1 0 0 0-1 1v7a1 1 0 0 0 1 1 1 1 0 0 0 1-1v-7a1 1 0 0 0-1-1z" stroke-linecap="round" stroke-linejoin="round"/>
 <path id="path4" d="m30.305 19.5c-1.9993 0-3.6406 1.6413-3.6406 3.6406a1 1 0 0 0 1 1 1 1 0 0 0 1-1c0-0.91849 0.72213-1.6406 1.6406-1.6406 0.91849 0 1.6426 0.72213 1.6426 1.6406v4.3594a1 1 0 0 0 1 1 1 1 0 0 0 1-1v-4.3594c0-1.9993-1.6433-3.6406-3.6426-3.6406z" stroke-linecap="round" stroke-linejoin="round"/>
 <path id="path5" d="m17.098 19.5c-1.9993 0-3.6406 1.6413-3.6406 3.6406v1.7188c0 1.9993 1.6413 3.6406 3.6406 3.6406 1.3469 0 2.5366-0.73784 3.1641-1.8359a1 1 0 0 0-0.37305-1.3652 1 1 0 0 0-1.3633 0.37109c-0.28256 0.4945-0.809 0.83008-1.4277 0.83008-0.86314 0-1.5039-0.6608-1.584-1.5h4.2266a1.0001 1.0001 0 0 0 1-1v-0.85938c0-1.9993-1.6433-3.6406-3.6426-3.6406zm0 2c0.86314 0 1.5058 0.6608 1.5859 1.5h-3.1699c0.08009-0.8392 0.72084-1.5 1.584-1.5z" stroke-linecap="round" stroke-linejoin="round"/>
</svg>
