<?xml version="1.0" encoding="UTF-8" standalone="no"?>
<svg
   viewBox="0 0 48 48"
   version="1.1"
   id="svg19"
   sodipodi:docname="yubikey-personalization-gui.svg"
   xmlns:inkscape="http://www.inkscape.org/namespaces/inkscape"
   xmlns:sodipodi="http://sodipodi.sourceforge.net/DTD/sodipodi-0.dtd"
   xmlns="http://www.w3.org/2000/svg"
   xmlns:svg="http://www.w3.org/2000/svg">
  <sodipodi:namedview
     id="namedview19"
     pagecolor="#ffffff"
     bordercolor="#666666"
     borderopacity="1.0"
     inkscape:showpageshadow="2"
     inkscape:pageopacity="0.0"
     inkscape:pagecheckerboard="0"
     inkscape:deskcolor="#d1d1d1" />
  <defs
     id="defs1">
    <style
       id="style1">.a{fill:none;stroke:#000;stroke-width:2px;stroke-linecap:round;stroke-linejoin:round;}.b{fill:#000;}</style>
  </defs>
  <path
     style="color:#000000;fill:#000000;stroke-linecap:round;stroke-linejoin:round;-inkscape-stroke:none"
     d="M 24,1.5 C 11.58545,1.5 1.5,11.58545 1.5,24 1.5,36.41455 11.58545,46.5 24,46.5 36.41455,46.5 46.5,36.41455 46.5,24 46.5,11.58545 36.41455,1.5 24,1.5 Z m 0,2 C 35.333671,3.5 44.5,12.666329 44.5,24 44.5,35.333671 35.333671,44.5 24,44.5 12.666329,44.5 3.5,35.333671 3.5,24 3.5,12.666329 12.666329,3.5 24,3.5 Z"
     id="circle1" />
  <circle
     class="b"
     cx="36.7279"
     cy="11.2721"
     r="0.75"
     id="circle2" />
  <circle
     class="b"
     cx="36.7279"
     cy="11.2721"
     r="0.75"
     id="circle3" />
  <circle
     class="b"
     cx="42"
     cy="24"
     r="0.75"
     id="circle4" />
  <circle
     class="b"
     cx="42"
     cy="24"
     r="0.75"
     id="circle5" />
  <circle
     class="b"
     cx="36.7279"
     cy="36.7279"
     r="0.75"
     id="circle6" />
  <circle
     class="b"
     cx="36.7279"
     cy="36.7279"
     r="0.75"
     id="circle7" />
  <circle
     class="b"
     cx="24"
     cy="42"
     r="0.75"
     id="circle8" />
  <circle
     class="b"
     cx="24"
     cy="42"
     r="0.75"
     id="circle9" />
  <circle
     class="b"
     cx="11.2721"
     cy="36.7279"
     r="0.75"
     id="circle10" />
  <circle
     class="b"
     cx="11.2721"
     cy="36.7279"
     r="0.75"
     id="circle11" />
  <circle
     class="b"
     cx="6"
     cy="24"
     r="0.75"
     id="circle12" />
  <circle
     class="b"
     cx="6"
     cy="24"
     r="0.75"
     id="circle13" />
  <circle
     class="b"
     cx="11.2721"
     cy="11.2721"
     r="0.75"
     id="circle14" />
  <circle
     class="b"
     cx="11.2721"
     cy="11.2721"
     r="0.75"
     id="circle15" />
  <circle
     class="b"
     cx="24"
     cy="6"
     r="0.75"
     id="circle16" />
  <circle
     class="b"
     cx="24"
     cy="6"
     r="0.75"
     id="circle17" />
  <path
     style="color:#000000;fill:#000000;stroke-linecap:round;stroke-linejoin:round;-inkscape-stroke:none"
     d="M 24,7.9296875 C 15.136748,7.9296875 7.9296875,15.136748 7.9296875,24 7.9296875,32.863252 15.136748,40.070312 24,40.070312 32.863252,40.070312 40.070312,32.863252 40.070312,24 40.070312,15.136748 32.863252,7.9296875 24,7.9296875 Z m 0,2 C 31.782373,9.9296875 38.070313,16.217627 38.070312,24 38.070312,31.782373 31.782373,38.070313 24,38.070312 16.217627,38.070312 9.9296875,31.782373 9.9296875,24 9.9296875,16.217627 16.217627,9.9296875 24,9.9296875 Z"
     id="circle18" />
  <path
     style="color:#000000;fill:#000000;stroke-linecap:round;stroke-linejoin:round;-inkscape-stroke:none"
     d="m 29.9375,14.544922 a 1,1 0 0 0 -0.589844,0.490234 l -8.943359,17 a 1,1 0 0 0 0.419922,1.34961 1,1 0 0 0 1.351562,-0.419922 l 8.94336,-17 a 1,1 0 0 0 -0.419922,-1.34961 1,1 0 0 0 -0.761719,-0.07031 z"
     id="line18" />
  <path
     style="color:#000000;fill:#000000;stroke-linecap:round;stroke-linejoin:round;-inkscape-stroke:none"
     d="m 18.0625,14.544922 a 1,1 0 0 0 -0.761719,0.07031 1,1 0 0 0 -0.419922,1.34961 l 6.234375,11.849609 a 1,1 0 0 0 1.34961,0.419922 1,1 0 0 0 0.419922,-1.351563 L 18.652344,15.035156 A 1,1 0 0 0 18.0625,14.544922 Z"
     id="line19" />
</svg>
