<?xml version="1.0" encoding="UTF-8"?>
<svg id="a" version="1.1" viewBox="0 0 48 48" xmlns="http://www.w3.org/2000/svg">
 <defs id="defs1">
  <style id="style1">.c{fill:none;stroke:#000;stroke-width:2px;stroke-linecap:round;stroke-linejoin:round;}</style>
 </defs>
 <path id="path1" d="m21.65 3.5c-9.1041 0-16.506 7.4017-16.506 16.506 0 9.1041 7.4017 16.506 16.506 16.506a1.0001 1.0001 0 0 0 1-1v-31.012a1.0001 1.0001 0 0 0-1-1zm-1 2.1016v28.811c-7.5459-0.5216-13.506-6.7258-13.506-14.406 0-7.6804 5.9601-13.883 13.506-14.404z" stop-color="#000000" stroke-linecap="round" stroke-linejoin="round"/>
 <path id="path2" d="m26.35 11.488a1.0001 1.0001 0 0 0-1 1v31.012a1.0001 1.0001 0 0 0 1 1c9.1041 0 16.506-7.4017 16.506-16.506s-7.4017-16.506-16.506-16.506zm1 2.0996c7.5459 0.5216 13.506 6.7258 13.506 14.406 0 7.6804-5.9601 13.883-13.506 14.404z" stop-color="#000000" stroke-linecap="round" stroke-linejoin="round"/>
</svg>
