<?xml version="1.0" encoding="UTF-8"?>
<svg id="svg2" version="1.1" viewBox="0 0 48 48" xmlns="http://www.w3.org/2000/svg">
 <defs id="defs1">
  <style id="style1">.a{fill:none;stroke:#000;stroke-width:2px;stroke-linejoin:round;}</style>
 </defs>
 <path id="path1" d="m43.932 10.777a1.0001 1.0001 0 0 0-1.0586 0.12305l-8.6406 6.9512a1.0001 1.0001 0 0 0-0.37305 0.7793v10.529a1.0001 1.0001 0 0 0 0.36328 0.76953l8.6387 7.1602a1.0001 1.0001 0 0 0 1.6387-0.76953v-24.641a1.0001 1.0001 0 0 0-0.56836-0.90234zm-1.4316 2.9902v20.426l-6.6406-5.5039v-9.5801z" stroke-linejoin="round"/>
 <path id="path2" d="m6.4648 11.311c-1.7582-0.07721-3.1852 1.5077-2.9238 3.248l-0.011719-0.14844v14.539c0 1.8015 0.58286 3.6323 1.7129 5.0684s2.8706 2.4629 4.9785 2.4629h22.33a1.0001 1.0001 0 0 0 0.0039 0c1.7002-0.0081 3.0957-1.4111 3.0957-3.1113v-15.158c0-2.0183-1.014-3.7694-2.4316-4.9766s-3.2527-1.9238-5.0996-1.9238zm-0.087891 1.998a1.0001 1.0001 0 0 0 0.042969 2e-3h21.699c1.3131 0 2.7454 0.5469 3.8027 1.4473 1.0574 0.90036 1.7285 2.1015 1.7285 3.4531v15.158c7e-6 0.62266-0.48282 1.1084-1.1055 1.1113h-22.324c-1.4821 0-2.5888-0.66032-3.4062-1.6992-0.81747-1.0389-1.2852-2.4736-1.2852-3.8321v-14.539a1.0001 1.0001 0 0 0-0.00977-0.14844c-0.080658-0.53712 0.31481-0.97696 0.85742-0.95312z" stroke-linejoin="round"/>
</svg>
