<?xml version="1.0" encoding="UTF-8"?><svg id="a" xmlns="http://www.w3.org/2000/svg" viewBox="0 0 48 48"><defs><style>.b{fill:none;stroke:#000;stroke-linecap:round;stroke-linejoin:round;}</style></defs><path class="b" d="m24,45.5c12.3283,0,22.233-10.3762,21.4573-22.8718-.6646-10.7068-9.3787-19.4209-20.0855-20.0855C12.8762,1.767,2.5,11.6717,2.5,24v17.5c0,2.2091,1.7909,4,4,4h17.5Z"/><path class="b" d="m21.5706,25.2147h-5.2688c-4.0145,0-7.2688,3.2544-7.2688,7.2688s3.2544,7.2688,7.2688,7.2688,7.2688-3.2544,7.2688-7.2688v-14.5376c0-3.147,2.5512-5.6982,5.6982-5.6982s5.6982,2.5512,5.6982,5.6982v.798"/><line class="b" x1="30.323" y1="25.2147" x2="23.5706" y2="25.2147"/></svg>