<?xml version="1.0" encoding="UTF-8"?><svg id="a" xmlns="http://www.w3.org/2000/svg" viewBox="0 0 48 48"><defs><style>.b{fill:none;stroke:#000;stroke-linecap:round;stroke-linejoin:round;}</style></defs><ellipse class="b" cx="23.9409" cy="17.9378" rx="5.03" ry="4.822"/><ellipse class="b" cx="15.4599" cy="18.67" rx="3.4509" ry="3.1038"/><ellipse class="b" cx="8.1414" cy="21.9139" rx="4.0198" ry="5.4455" transform="translate(-12.0115 10.0664) rotate(-39.1686)"/><path class="b" d="m27.2994,14.3492s8.2806-1.8188,10.2834-8.2277c2.0644,9.7673,1.2325,25.9435-12.2939,25.9435-10.0754,0-14.7816-5.3664-14.7816-5.3664"/><path class="b" d="m11.8731,20.2531c.4749-3.2859.1359-10.8964.1359-10.8964,2.3109,5.238,7.7808,5.8578,7.7808,5.8578"/><path class="b" d="m22.9164,27.5665c3.2815.57,5.648-.3811,7.0037-1.6752"/><path class="b" d="m28.5857,24.9629c1.14.2311,1.5406,1.187,1.7255,1.8568"/><path class="b" d="m39.9861,35.3156c1.2054-1.2713,2.696-.416,3.2815,1.14s.4468,4.7142,1.2325,5.4229c-1.4482-.1541-6.4859-4.4831-4.5139-6.5629Z"/><line class="b" x1="28.7395" y1="26.7649" x2="40.0868" y2="35.2152"/><circle class="b" cx="25.1348" cy="18.8467" r="2.2184"/><circle class="b" cx="15.9529" cy="19.2011" r="1.4173"/><circle class="b" cx="6.4078" cy="19.5156" r=".9953"/><path class="b" d="m35.9159,11.4089c-.9673,1.6822-2.1869,3.2383-1.0935,4.479"/></svg>