<?xml version="1.0" encoding="UTF-8"?><svg id="a" xmlns="http://www.w3.org/2000/svg" viewBox="0 0 48 48"><defs><style>.b{fill:none;stroke:#000;stroke-linecap:round;stroke-linejoin:round;}</style></defs><path class="b" d="m8.6549,38.6445V6.5823c0-1.15.9323-2.0823,2.0823-2.0823h26.5254c1.15,0,2.0823.9323,2.0823,2.0823v32.0621"/><rect class="b" x="8.6549" y="36.5621" width="30.6901" height="6.9379" rx="2.0823" ry="2.0823"/><path class="b" d="m17.1545,17.6462h13.691c.5192,0,.9402.4209.9402.9402v10.1183c0,.5192-.4209.9402-.9402.9402h-13.691c-.5193,0-.9402-.421-.9402-.9402v-10.1183c0-.5192.4209-.9402.9402-.9402h0Z"/><path class="b" d="m18.847,17.6462v-2.1582c.0088-2.8436,2.321-5.1416,5.1646-5.1328,2.8311.0087,5.1241,2.3017,5.1328,5.1328v2.1582"/></svg>