<?xml version="1.0" encoding="UTF-8" standalone="no"?>
<svg
   viewBox="0 0 48 48"
   version="1.1"
   id="svg1"
   xml:space="preserve"
   xmlns="http://www.w3.org/2000/svg"
   xmlns:svg="http://www.w3.org/2000/svg"><defs
     id="defs1"><style
       id="style1">.a{fill:none;stroke:#fff;stroke-linecap:round;stroke-linejoin:round;}</style></defs><path
     id="v"
     d="M 23.99997,2.5 C 12.144742,2.5 2.4998625,12.144835 2.4998625,24.000001 2.4998625,35.855166 12.14478,45.5 23.99997,45.5 35.855159,45.5 45.499999,35.85505 45.499999,24.000001 45.499999,12.144951 35.855197,2.5 23.99997,2.5 Z m -3.283283,3.6959744 c 1.078102,-0.1959735 2.20518,-0.2939603 3.283283,-0.2939603 1.127078,-0.048993 2.20518,0.097987 3.283282,0.2939603 0.04902,0.2449669 0.09803,0.4899338 0.09803,0.7348622 0,1.86171 -1.519123,3.3805044 -3.381275,3.3805044 -1.862152,0 -3.381274,-1.5187559 -3.381274,-3.3805044 0,-0.2449669 0.04902,-0.4898953 0.09803,-0.7348622 z M 22.67683,21.138686 V 34.709622 H 21.304714 V 21.138686 Z m 1.323101,20.968783 c -9.996817,0 -18.1314817,-8.083754 -18.1314817,-18.127205 0,-6.369024 3.332298,-12.248114 8.8207227,-15.5306325 -0.09799,0.6369139 -0.196022,1.2247959 -0.196022,1.8617095 0,3.772414 2.205181,7.054894 5.439448,8.573689 v 17.196368 l 4.067333,4.066374 4.067332,-4.066374 -0.245037,-3.576439 1.911167,-1.910704 -1.911167,-1.910703 2.891239,-2.890571 -2.891239,-2.890572 0.245037,-4.017379 c 3.185253,-1.518757 5.439449,-4.801275 5.439449,-8.573689 0,-0.6369136 -0.04901,-1.2247956 -0.196022,-1.8617095 5.439448,3.2825185 8.771707,9.1616085 8.820723,15.5306325 0,9.994457 -8.085689,18.127205 -18.131482,18.127205 z"
     style="display:inline;opacity:1;isolation:isolate;fill:none;stroke:#000000;stroke-width:1;stroke-linecap:round;stroke-linejoin:round;stroke-dasharray:none;stroke-opacity:1" /></svg>
