<svg xmlns="http://www.w3.org/2000/svg" width="48" height="48"><defs><style>.a{fill:none;stroke:#000;stroke-linecap:round;stroke-linejoin:round}</style></defs><path d="M12.308 8.273s1.671 1.714 1.637 2.823l-.737 23.522 2.616 2.891" class="a"/><path d="m13.51 28.864 7.311-5.466-2.78-3.32-1.12.924M17.296 26.361l2.033 2.584-.167 6.541 1.994 2.119 2.529-2.378M28.344 22.678l-1.36-2.283-3.232 2.34.061 13.029 1.947 1.716 3.325-2.735M33.905 21.73l-4.747 4.041.05 9.053 3.1 3.125 1.776-2.061-.229-24.68c-.01-1.046 1.973-2.998 1.973-2.998M31.5 10l-15 8" class="a"/><circle cx="24" cy="6.25" r=".75" fill="#000"/><path d="m17 8.034-1.419-4.36 4.907 2.672L24 2l3.512 4.346 4.907-2.671L31 8.034m8.556.41L38.966 14l5.36 1.58-2.672 4.908L46 24l-4.346 3.512 2.671 4.907L38.966 34l.59 5.556-5.556-.59-1.581 5.36-4.907-2.672L24 46l-3.512-4.346-4.907 2.671L14 38.966l-5.556.59.59-5.556-5.36-1.581 2.672-4.907L2 24l4.346-3.512-2.671-4.907L9.034 14l-.59-5.556M16.5 10l15 8" class="a"/><path d="m18.51 14.629.134 2.232 1.866 1.232M27.49 18.093l1.866-1.232.134-2.232" class="a"/></svg>