<?xml version="1.0" encoding="UTF-8" standalone="no"?>
<svg
   viewBox="0 0 48 48"
   version="1.1"
   id="svg1"
   xml:space="preserve"
   xmlns="http://www.w3.org/2000/svg"
   xmlns:svg="http://www.w3.org/2000/svg"><defs
     id="defs1"><style
       id="style1">.a{fill:none;stroke:#fff;stroke-linecap:round;stroke-linejoin:round;}</style></defs><path
     style="fill:none;stroke:#000000;stroke-linecap:round;stroke-linejoin:round;stroke-dasharray:none;stroke-opacity:1"
     d="m 7.3178926,37.563085 c 2.125248,-1.079105 2.299846,-1.977408 3.1012874,-3.547544 0.937185,-1.836075 1.939194,-3.440604 2.844545,-4.55499 1.04508,-1.286393 1.18876,-1.515355 1.713032,-2.729911 0.263797,-0.611122 0.737083,-1.50862 1.051744,-1.994426 l 0.572114,-0.883298 -0.74013,-0.727468 c -0.983101,-0.966272 -1.800851,-2.06202 -1.954698,-2.619213 -0.157125,-0.56906 0.02829,-0.886587 0.766837,-1.31318 0.746802,-0.431371 1.280881,-0.555311 3.276845,-0.760455 0.971844,-0.09989 2.026948,-0.282844 2.359262,-0.409116 0.330643,-0.125636 1.31857,-0.663338 2.195394,-1.194906 2.531582,-1.534743 2.745757,-1.614176 4.263511,-1.581273 1.281913,0.02782 1.284325,0.02726 2.044425,-0.432176 1.592852,-0.962844 3.880384,-2.700117 6.890614,-5.2330983 0.577246,-0.485721 1.133306,-0.867002 1.235695,-0.847286 0.425797,0.08205 1.20781,2.0009163 1.326608,3.2552683 0.07205,0.760754 -0.07514,1.513079 -0.526383,2.690489 -0.123125,0.321264 -0.179902,0.627926 -0.126166,0.681471 0.129008,0.128558 0.571988,-0.424748 0.571988,-0.71443 0,-0.369348 0.244572,-0.411505 0.577253,-0.09949 0.241863,0.226826 0.450357,0.291761 0.93679,0.291761 0.531121,0 0.662595,0.04927 0.869889,0.325843 0.351763,0.46935 0.434253,1.748522 0.16503,2.559084 -0.261912,0.788534 -1.053489,1.697936 -1.771888,2.035618 -0.642821,0.302166 -1.944235,1.572815 -2.55325,2.492894 -0.233126,0.3522 -0.670219,1.08641 -0.971317,1.631596 -0.301105,0.545177 -0.80617,1.36888 -1.122367,1.830456 -0.622178,0.90824 -1.154966,2.175161 -1.669223,3.969295 -0.302103,1.053957 -0.327454,1.328344 -0.339942,3.67894 -0.01511,2.839493 -0.161933,3.53624 -0.929576,4.410547 -0.87273,0.993977 -1.743892,3.176819 -1.817125,4.553098 -0.04622,0.868707 -0.180058,1.715516 -0.370242,2.342645"
     id="path1" /><circle
     class="a"
     id="circle1"
     style="display:inline;stroke-width:1;stroke-dasharray:none;stroke:#000000;stroke-opacity:1"
     cy="24"
     cx="24"
     r="21.5" /></svg>
