<?xml version="1.0" encoding="UTF-8"?><svg id="a" xmlns="http://www.w3.org/2000/svg" viewBox="0 0 48 48"><defs><style>.b{fill:none;stroke:#000;stroke-linecap:round;stroke-linejoin:round;}</style></defs><rect class="b" x="5.5" y="5.5" width="37" height="37" rx="2" ry="2"/><line class="b" x1="5.5" y1="35.5" x2="42.5" y2="35.5"/><path class="b" d="m17.4056,22.8734l4.0993.8829v-11.131c-.0756-.8185.5267-1.5433,1.3452-1.6189.8185-.0756,1.5433.5267,1.6189,1.3452.0084.091.0084.1827,0,.2737v5.4236h1.5136l5.9912,3.0271c.4082.3393.6209.8593.5676,1.3874l-.9649,6.4642c-.1987.5327-.6468.9336-1.1982,1.0721h-8.3057c-.4639.0075-.8965-.2328-1.1352-.6307l-5.4867-5.4867.6937-.6937c.2523-.4415.6937-.3784,1.2613-.3153Z"/></svg>