<?xml version="1.0" encoding="UTF-8" standalone="no"?>
<svg
   id="Layer_2"
   data-name="Layer 2"
   viewBox="0 0 48 48"
   version="1.1"
   sodipodi:docname="android-package-archive.svg"
   xmlns:inkscape="http://www.inkscape.org/namespaces/inkscape"
   xmlns:sodipodi="http://sodipodi.sourceforge.net/DTD/sodipodi-0.dtd"
   xmlns="http://www.w3.org/2000/svg"
   xmlns:svg="http://www.w3.org/2000/svg">
  <sodipodi:namedview
     id="namedview1"
     pagecolor="#ffffff"
     bordercolor="#666666"
     borderopacity="1.0"
     inkscape:showpageshadow="2"
     inkscape:pageopacity="0.0"
     inkscape:pagecheckerboard="0"
     inkscape:deskcolor="#d1d1d1" />
  <defs
     id="defs1">
    <style
       id="style1">.cls-1{fill:none;stroke:#fff;stroke-width:2px;stroke-linecap:round;stroke-linejoin:round;}</style>
  </defs>
  <path
     style="color:#000000;fill:#ffffff;stroke-linecap:round;stroke-linejoin:round;-inkscape-stroke:none"
     d="m 23.960937,7.5429687 c -3.902407,0 -7.785419,1.1622906 -11.18164,3.3945313 L 10.712891,8.8378906 a 1.0001,1.0001 0 0 0 -0.0059,-0.00391 c -1.6324566,-1.6357202 -4.3128554,-1.6357202 -5.9453123,0 -1.6181648,1.6263106 -1.6181648,4.2857986 0,5.9121096 a 1.0001,1.0001 0 0 0 0.00586,0.0059 l 2.1582031,2.125 C 4.7296833,20.202771 3.5072531,24.080013 3.5,28.078125 a 1.0001,1.0001 0 0 0 0,0.002 v 9.289063 c 0,1.672622 1.3781591,3.050781 3.0507812,3.050781 H 41.449219 a 1.0001,1.0001 0 0 0 0.02539,0 c 1.644369,-0.04012 2.975099,-1.405923 2.97461,-3.050781 v -9.285157 -0.0039 c 0.01236,-3.999382 -1.193031,-7.885299 -3.376953,-11.220703 l 2.171875,-2.148437 a 1.0001,1.0001 0 0 0 0.002,-0.0039 c 1.625768,-1.623744 1.626393,-4.287515 0.002,-5.9121091 -1.624977,-1.6393781 -4.304435,-1.639821 -5.931641,-0.00391 l -0.002,0.00195 c -0.0017,0.00173 -0.0041,0.00217 -0.0059,0.00391 l -2.160157,2.144531 C 31.750505,8.7059578 27.866148,7.5429688 23.960937,7.5429687 Z m 0,1.9960938 c 3.77105,0 7.540554,1.1576505 10.753907,3.4726565 a 1.0001,1.0001 0 0 0 1.289062,-0.101563 l 2.720703,-2.701172 a 1.0001,1.0001 0 0 0 0.0059,-0.0059 c 0.861699,-0.8705041 2.23791,-0.8705041 3.099609,0 a 1.0001,1.0001 0 0 0 0.0039,0.0039 c 0.859915,0.858844 0.859627,2.221875 0.002,3.082032 l -2.728515,2.699218 a 1.0001,1.0001 0 0 0 -0.109375,1.294922 c 2.257169,3.145493 3.463879,6.921435 3.451172,10.792969 a 1.0001,1.0001 0 0 0 0,0.0039 v 9.289063 a 1.0001,1.0001 0 0 0 0,0.002 c 1.73e-4,0.581022 -0.442588,1.034657 -1.023438,1.048828 H 6.5507812 C 5.9590382,38.419922 5.5,37.960884 5.5,37.369141 v -9.28711 -0.002 C 5.5074295,24.210454 6.7316946,20.441779 9,17.306641 A 1.0001,1.0001 0 0 0 8.8925781,16.007812 L 6.1796875,13.333984 c -0.8582939,-0.862614 -0.8582939,-2.225275 0,-3.08789 0.8668872,-0.8671492 2.2417187,-0.8677901 3.109375,-0.002 l 2.6191405,2.658203 a 1.0001,1.0001 0 0 0 1.296875,0.109375 c 3.213353,-2.315006 6.98481,-3.4726565 10.755859,-3.4726565 z M 14.994141,23.058594 c -0.878316,0.153748 -1.736843,0.568874 -2.447266,1.279297 -1.420846,1.420845 -1.655307,3.427413 -0.994141,5.017578 0.65628,1.578412 2.232193,2.809438 4.220704,2.822265 a 1.0001,1.0001 0 0 0 0.01172,0.01172 c 0.0013,8e-6 0.0026,-6e-6 0.0039,0 h 0.02148 c 6.79e-4,-10e-7 0.0013,2e-6 0.002,0 a 1.0001,1.0001 0 0 0 0.01367,-0.0078 c 2.511917,-0.0096 4.572089,-2.061477 4.574219,-4.578125 v -0.002 c 0.0047,-2.008591 -1.244357,-3.598822 -2.833985,-4.259765 -0.795082,-0.330583 -1.693949,-0.436951 -2.572265,-0.283203 z m 16.390625,0.002 c -0.879,0.155708 -1.737834,0.57175 -2.447266,1.285156 -1.418864,1.426812 -1.645082,3.44019 -0.976563,5.029297 0.663585,1.577376 2.246923,2.800953 4.238282,2.802734 a 1.0001,1.0001 0 0 0 0.01172,0.01172 h 0.01953 v -0.002 c 0.0029,-1.9e-5 0.0049,0.002 0.0078,0.002 a 1.0001,1.0001 0 0 0 0.01367,-0.0078 c 2.502062,-0.02354 4.546667,-2.071281 4.548828,-4.578125 v -0.002 c 0.0047,-2.011419 -1.247564,-3.60231 -2.839844,-4.261718 -0.796408,-0.329816 -1.697171,-0.435005 -2.576171,-0.279297 z m -16.029297,1.947265 c 0.488266,-0.08195 0.984864,-0.009 1.443359,0.181641 0.91699,0.38127 1.604899,1.205471 1.601563,2.408203 a 1.0001,1.0001 0 0 0 0,0.002 c 2.2e-5,1.445882 -1.154654,2.59237 -2.59961,2.587891 -1.198901,6.33e-4 -2.021819,-0.684413 -2.402343,-1.599609 -0.381271,-0.91699 -0.287813,-1.985625 0.5625,-2.835938 0.425156,-0.425156 0.906265,-0.662192 1.394531,-0.744141 z m 16.394531,0.002 c 0.488621,-0.08301 0.986008,-0.01248 1.445312,0.177734 0.918609,0.380422 1.608774,1.205448 1.605469,2.410156 a 1.0001,1.0001 0 0 0 0,0.002 c 0,1.440677 -1.145908,2.585374 -2.585937,2.587891 -1.20085,0.0073 -2.027315,-0.675165 -2.41211,-1.589844 -0.385548,-0.916469 -0.294637,-1.98576 0.554688,-2.839844 0.424662,-0.427041 0.903957,-0.665038 1.392578,-0.748046 z"
     id="path1" />
</svg>
