<?xml version="1.0" encoding="UTF-8"?>
<svg id="Layer_2" data-name="Layer 2" version="1.1" viewBox="0 0 48 48" xmlns="http://www.w3.org/2000/svg">
 <defs id="defs4">
  <style id="style2">.cls-1{fill:none;stroke:#fff;stroke-width:2px;stroke-linecap:round;stroke-linejoin:round;}</style>
 </defs>
 <path id="path6" d="m23.961 7.543c-3.9024 0-7.7854 1.1623-11.182 3.3945l-2.0664-2.0996a1.0001 1.0001 0 0 0-0.0059-0.00391c-1.6325-1.6357-4.3129-1.6357-5.9453 0-1.6182 1.6263-1.6182 4.2858 0 5.9121a1.0001 1.0001 0 0 0 0.00586 0.0059l2.1582 2.125c-2.1961 3.3258-3.4185 7.203-3.4257 11.201a1.0001 1.0001 0 0 0 0 2e-3v9.2891c0 1.6726 1.3782 3.0508 3.0508 3.0508h34.898a1.0001 1.0001 0 0 0 0.02539 0c1.6444-0.04012 2.9751-1.4059 2.9746-3.0508v-9.2891c0.01236-3.9994-1.193-7.8853-3.377-11.221l2.1719-2.1484a1.0001 1.0001 0 0 0 2e-3 -0.0039c1.6258-1.6237 1.6264-4.2875 2e-3 -5.9121-1.625-1.6394-4.3044-1.6398-5.9316-0.00391l-2e-3 0.00195c-0.0017 0.00173-0.0041 0.00217-0.0059 0.00391l-2.1602 2.1445c-3.3979-2.2355-7.2823-3.3985-11.188-3.3985zm0 1.9961c3.771 0 7.5406 1.1577 10.754 3.4727a1.0001 1.0001 0 0 0 1.2891-0.10156l2.7207-2.7012a1.0001 1.0001 0 0 0 0.0059-0.0059c0.8617-0.8705 2.2379-0.8705 3.0996 0a1.0001 1.0001 0 0 0 0.0039 0.0039c0.85992 0.85884 0.85963 2.2219 2e-3 3.082l-2.7285 2.6992a1.0001 1.0001 0 0 0-0.10938 1.2949c2.2572 3.1455 3.4639 6.9214 3.4512 10.793a1.0001 1.0001 0 0 0 0 0.0039v9.2891a1.0001 1.0001 0 0 0 0 2e-3c1.73e-4 0.58102-0.44259 1.0347-1.0234 1.0488h-34.875c-0.59174 6e-6 -1.0508-0.45903-1.0508-1.0508v-9.2891c0.0074295-3.8696 1.2317-7.6383 3.5-10.773a1.0001 1.0001 0 0 0-0.10742-1.2988l-2.7129-2.6738c-0.85829-0.86261-0.85829-2.2253 0-3.0879 0.86689-0.86715 2.2417-0.86779 3.1094-2e-3l2.6191 2.6582a1.0001 1.0001 0 0 0 1.2969 0.10938c3.2134-2.315 6.9848-3.4727 10.756-3.4727zm-8.9668 13.52c-0.87832 0.15375-1.7368 0.56887-2.4473 1.2793-1.4208 1.4208-1.6553 3.4274-0.99414 5.0176 0.65628 1.5784 2.2322 2.8094 4.2207 2.8223a1.0001 1.0001 0 0 0 0.01172 0.01172c0.0013 8e-6 0.0026-6e-6 0.0039 0h0.02148c6.79e-4 -1e-6 0.0013 2e-6 2e-3 0a1.0001 1.0001 0 0 0 0.01367-0.0078c2.5119-0.0096 4.5721-2.0615 4.5742-4.5781v-2e-3c0.0047-2.0086-1.2444-3.5988-2.834-4.2598-0.79508-0.33058-1.6939-0.43695-2.5723-0.2832zm16.391 2e-3c-0.879 0.15571-1.7378 0.57175-2.4473 1.2852-1.4189 1.4268-1.6451 3.4402-0.97656 5.0293 0.66358 1.5774 2.2469 2.801 4.2383 2.8027a1.0001 1.0001 0 0 0 0.01172 0.01172h0.01953v-2e-3c0.0029-1.9e-5 0.0049 2e-3 0.0078 2e-3a1.0001 1.0001 0 0 0 0.01367-0.0078c2.5021-0.02354 4.5467-2.0713 4.5488-4.5781v-2e-3c0.0047-2.0114-1.2476-3.6023-2.8398-4.2617-0.79641-0.32982-1.6972-0.435-2.5762-0.2793zm-16.029 1.9473c0.48827-0.08195 0.98486-9e-3 1.4434 0.18164 0.91699 0.38127 1.6049 1.2055 1.6016 2.4082a1.0001 1.0001 0 0 0 0 2e-3c2.2e-5 1.4459-1.1547 2.5924-2.5996 2.5879-1.1989 6.33e-4 -2.0218-0.68441-2.4023-1.5996-0.38127-0.91699-0.28781-1.9856 0.5625-2.8359 0.42516-0.42516 0.90626-0.66219 1.3945-0.74414zm16.395 2e-3c0.48862-0.08301 0.98601-0.01248 1.4453 0.17773 0.91861 0.38042 1.6088 1.2054 1.6055 2.4102a1.0001 1.0001 0 0 0 0 2e-3c0 1.4407-1.1459 2.5854-2.5859 2.5879-1.2008 0.0073-2.0273-0.67516-2.4121-1.5898-0.38555-0.91647-0.29464-1.9858 0.55469-2.8398 0.42466-0.42704 0.90396-0.66504 1.3926-0.74805z" color="#000000" fill="#fff" stroke-linecap="round" stroke-linejoin="round" style="-inkscape-stroke:none"/>
</svg>
