<?xml version="1.0" encoding="UTF-8"?>
<svg id="svg2" version="1.1" viewBox="0 0 48 48" xmlns="http://www.w3.org/2000/svg">
 <defs id="defs1">
  <style id="style1">.c{fill:none;stroke:#fff;stroke-width:2px;stroke-linecap:round;stroke-linejoin:round;}</style>
 </defs>
 <g id="a" fill="#fff" stroke-linecap="round" stroke-linejoin="round">
  <path id="path1" d="m10.5 3.5c-1.645 0-3 1.355-3 3v35c0 1.645 1.355 3 3 3h27c1.645 0 3-1.355 3-3v-26a1.0001 1.0001 0 0 0-1-1h-9c-0.56419 0-1-0.43581-1-1v-9a1.0001 1.0001 0 0 0-1-1zm0 2h17v8c0 1.645 1.355 3 3 3h8v25c0 0.56419-0.43581 1-1 1h-27c-0.56419 0-1-0.43581-1-1v-35c0-0.56419 0.43581-1 1-1z" color="#000000" style="-inkscape-stroke:none"/>
  <path id="line1" d="m27.793 3.793a1 1 0 0 0 0 1.4141l11 11a1 1 0 0 0 1.4141 0 1 1 0 0 0 0-1.4141l-11-11a1 1 0 0 0-1.4141 0z" color="#000000" style="-inkscape-stroke:none"/>
 </g>
 <g id="b">
  <path id="path2" d="m24 18.5c-6.0619 0.0029-10.997 4.9381-11 11 0.0029 6.0619 4.9381 10.997 11 11 6.0619-0.0029 10.997-4.9381 11-11-0.0029-6.0619-4.9381-10.997-11-11zm0 2c1.2932 6.09e-4 2.5074 0.293 3.6172 0.78125a1.0001 1.0001 0 0 0-0.74609 0.21289l-1.3945 2.2461a1.0001 1.0001 0 0 0 0.88477 1.5273l0.98242-0.03711-2.1504 0.97266a1.0001 1.0001 0 0 0-0.56836 1.1113l0.64648 3.1621a1.0001 1.0001 0 0 0 0.70703 0.76172l2.1289 0.60352 0.36719 4.0645a1.0001 1.0001 0 0 0 0.61133 0.82422c-1.4641 1.0312-3.1532 1.7686-5.0859 1.7695-1.7873-8.42e-4 -3.3539-0.65149-4.752-1.5449a1.0001 1.0001 0 0 0 0.4707-0.30469l4.2832-6.502a1.0001 1.0001 0 0 0-0.53125-1.5039l-3.0742-0.97461 0.48828-1.666 1.9824-1.1562a1.0001 1.0001 0 0 0 0.37891-0.39258l0.70703-1.3262a1.0001 1.0001 0 0 0-0.14453-1.1465l-1.1152-1.2188c0.44473-0.067383 0.84271-0.26345 1.3066-0.26367zm-1.3535 0.27344-0.01172 0.02539a1.0001 1.0001 0 0 0-0.01563-0.01953c0.0093-0.0015 0.01803-0.0044 0.02734-0.0059zm-1.5586 0.70898a1.0001 1.0001 0 0 0 0.04297 0.25781l-0.16602-0.09961zm0.59766 1.1445 0.16992 0.18359-0.24219 0.45312-2.0801 1.2148a1.0001 1.0001 0 0 0-0.45508 0.58203l-0.55859 1.9082-1.0547-0.46289c0.84055-1.825 2.3102-3.2244 4.2207-3.8789zm8.6953 3.4258c1.256 2.3179 1.196 5.0292-0.13672 7.2207l-0.20703-2.2949a1.0001 1.0001 0 0 0-0.72266-0.87305l-2.2051-0.625-0.36523-1.7832zm-14.961 1.3652a1.0001 1.0001 0 0 0 0.21094 0.4668l1.2285 0.53906-0.36328 0.19141a1.0001 1.0001 0 0 0-0.52539 1.0039l0.54883 4.5938c-0.87799-1.3898-1.5187-2.9424-1.5195-4.7129 3.48e-4 -0.73923 0.25276-1.3953 0.41992-2.082zm3.8555 1.9941 2.3301 0.73828-2.8984 4.4023c-0.04816-0.05031-0.10366-0.09287-0.15039-0.14453l-0.51953-4.3438z" color="#000000" fill="#fff" stroke-linecap="round" stroke-linejoin="round" style="-inkscape-stroke:none"/>
 </g>
</svg>
