<?xml version="1.0" encoding="UTF-8"?>
<svg id="Layer_2" data-name="Layer 2" version="1.1" viewBox="0 0 48 48" xmlns="http://www.w3.org/2000/svg">
 <defs id="defs4">
  <style id="style2">.cls-1{fill:none;stroke:#fff;stroke-width:2px;stroke-linecap:round;stroke-linejoin:round;}</style>
 </defs>
 <path id="path6" d="m7.4805 4.5c-1.645 0-3 1.355-3 3v33c0 1.645 1.355 3 3 3h33.039c1.645 0 3-1.355 3-3v-33c0-1.645-1.355-3-3-3zm0 2h33.039c0.56413 0 1 0.43587 1 1v33c0 0.56413-0.43587 1-1 1h-33.039c-0.56413 0-1-0.43587-1-1v-33c0-0.56413 0.43587-1 1-1z" color="#000000" fill="#fff" stroke-linecap="round" stroke-linejoin="round" style="-inkscape-stroke:none"/>
 <path id="path8" d="m31.32 11.119c-3.0091 0-5.4707 2.4616-5.4707 5.4707 0 2.3943 1.4848 4.271 3.377 5.0547 1.8921 0.78365 4.2681 0.50536 5.9609-1.1875s1.9692-4.0688 1.1855-5.9609c-0.78365-1.8921-2.6584-3.377-5.0527-3.377zm0 2c1.5883 0 2.7001 0.92336 3.2051 2.1426 0.50495 1.2192 0.37098 2.6583-0.75195 3.7812-1.1229 1.1229-2.562 1.2569-3.7812 0.75195-1.2192-0.50495-2.1426-1.6168-2.1426-3.2051 0-1.9283 1.5424-3.4707 3.4707-3.4707zm-11.977 6.748c-0.44365 0.05767-0.86365 0.28593-1.1465 0.66797a1.0001 1.0001 0 0 0-0.01758 0.02344l-9.5 13.619c-0.7545 1.0835 0.087938 2.6824 1.4082 2.6719h27.807c0.7228 0.01051 1.352-0.46005 1.5957-1.0449 0.2437-0.58487 0.13556-1.3633-0.38086-1.8691l-7.8027-7.8027a1.0001 1.0001 0 0 0-2e-3 -2e-3c-0.65846-0.65312-1.7497-0.65312-2.4082 0a1.0001 1.0001 0 0 0-0.0039 2e-3l-1.1719 1.1738-7.0137-7.0137a1.0001 1.0001 0 0 0-0.08199-0.074221c-0.37112-0.29702-0.8376-0.40924-1.2812-0.35156zm0.25781 2.1484 6.9043 6.9043c0.65775 0.67132 1.77 0.67132 2.4277 0l1.166-1.166 7.0957 7.0957h-26.545z" color="#000000" fill="#fff" stroke-linecap="round" stroke-linejoin="round" style="-inkscape-stroke:none"/>
</svg>
