<?xml version="1.0" encoding="UTF-8"?>
<svg id="svg2" version="1.1" viewBox="0 0 48 48" xmlns="http://www.w3.org/2000/svg">
 <defs id="defs1">
  <style id="style1">.c{fill:none;stroke:#fff;stroke-width:2px;stroke-linecap:round;stroke-linejoin:round;}</style>
 </defs>
 <g id="a" fill="#fff" stroke-linecap="round" stroke-linejoin="round">
  <path id="path1" d="m10.5 3.5c-1.645 0-3 1.355-3 3v35c0 1.645 1.355 3 3 3h27c1.645 0 3-1.355 3-3v-26a1.0001 1.0001 0 0 0-1-1h-9c-0.56419 0-1-0.43581-1-1v-9a1.0001 1.0001 0 0 0-1-1zm0 2h17v8c0 1.645 1.355 3 3 3h8v25c0 0.56419-0.43581 1-1 1h-27c-0.56419 0-1-0.43581-1-1v-35c0-0.56419 0.43581-1 1-1z"/>
  <path id="line1" d="m27.793 3.793a1 1 0 0 0 0 1.4141l11 11a1 1 0 0 0 1.4141 0 1 1 0 0 0 0-1.4141l-11-11a1 1 0 0 0-1.4141 0z"/>
 </g>
 <g id="b">
  <path id="path2" d="m15.234 21.84a1.0001 1.0001 0 0 0-0.02734 0.02734c-1.0784 0.01744-1.9727 0.90622-1.9727 1.9883v11.305c0 1.0927 0.90729 2 2 2h17.531c1.0927 0 2-0.90729 2-2v-11.32c0-1.0927-0.90729-2-2-2zm0.01563 2h0.65625a1 1 0 0 0-0.55078 0.33203 1 1 0 0 0-0.12109 0.49023v-0.80664a1.0001 1.0001 0 0 0 0.01562-0.015625zm1.0156 0h15.469a1 1 0 0 0-0.48633 0.11914l-7.2481 5.334-7.248-5.334a1 1 0 0 0-0.48633-0.11914zm15.828 0h0.67188v0.64062a1 1 0 0 0-0.1211-0.30859 1 1 0 0 0-0.55078-0.33203zm-16.859 1.1797a1 1 0 0 0 0.33203 0.55078l7.8418 5.7695a1.0001 1.0001 0 0 0 1.1836 0l7.8418-5.7695a1 1 0 0 0 0.33203-0.46875v10.059h-17.531z" fill="#fff" stroke-linecap="round" stroke-linejoin="round"/>
 </g>
</svg>
