<?xml version="1.0" encoding="UTF-8"?>
<svg id="svg1" version="1.1" viewBox="0 0 48 48" xmlns="http://www.w3.org/2000/svg">
 <defs id="defs1">
  <style id="style1">.c{fill:none;stroke:#fff;stroke-width:2px;stroke-linecap:round;stroke-linejoin:round;}</style>
 </defs>
 <g id="a" fill="#fff" stroke-linecap="round" stroke-linejoin="round">
  <path id="path1" d="m10.5 3.5c-1.645 0-3 1.355-3 3v35c0 1.645 1.355 3 3 3h27c1.645 0 3-1.355 3-3v-26a1.0001 1.0001 0 0 0-1-1h-9c-0.56419 0-1-0.43581-1-1v-9a1.0001 1.0001 0 0 0-1-1zm0 2h17v8c0 1.645 1.355 3 3 3h8v25c0 0.56419-0.43581 1-1 1h-27c-0.56419 0-1-0.43581-1-1v-35c0-0.56419 0.43581-1 1-1z" stop-color="#000000"/>
  <path id="line1" d="m27.793 3.793a1 1 0 0 0 0 1.4141l11 11a1 1 0 0 0 1.4141 0 1 1 0 0 0 0-1.4141l-11-11a1 1 0 0 0-1.4141 0z" stop-color="#000000"/>
 </g>
 <g id="b">
  <path id="polyline1" d="m17 20a1.0001 1.0001 0 0 0-0.84375 1.5391l5.084 7.9609-5.084 7.9609a1.0001 1.0001 0 0 0 0.84375 1.5391h14a1.0001 1.0001 0 0 0 1-1v-1.8457a1 1 0 0 0-1-1 1 1 0 0 0-1 1v0.8457h-11.174l4.4434-6.9609a1.0001 1.0001 0 0 0 0-1.0781l-4.4434-6.9609h11.174v0.8457a1 1 0 0 0 1 1 1 1 0 0 0 1-1v-1.8457a1.0001 1.0001 0 0 0-1-1z" fill="#fff" stop-color="#000000" stroke-linecap="round" stroke-linejoin="round"/>
 </g>
</svg>
