<?xml version="1.0" encoding="UTF-8"?>
<svg id="svg2" version="1.1" viewBox="0 0 48 48" xmlns="http://www.w3.org/2000/svg">
 <defs id="defs1">
  <style id="style1">.c{fill:none;stroke:#fff;stroke-width:2px;stroke-linecap:round;stroke-linejoin:round;}</style>
 </defs>
 <g id="a" fill="#fff" stroke-linecap="round" stroke-linejoin="round">
  <path id="path1" d="m10.5 3.5c-1.645 0-3 1.355-3 3v35c0 1.645 1.355 3 3 3h27c1.645 0 3-1.355 3-3v-26a1.0001 1.0001 0 0 0-1-1h-9c-0.56419 0-1-0.43581-1-1v-9a1.0001 1.0001 0 0 0-1-1zm0 2h17v8c0 1.645 1.355 3 3 3h8v25c0 0.56419-0.43581 1-1 1h-27c-0.56419 0-1-0.43581-1-1v-35c0-0.56419 0.43581-1 1-1z" stop-color="#000000"/>
  <path id="line1" d="m27.793 3.793a1 1 0 0 0 0 1.4141l11 11a1 1 0 0 0 1.4141 0 1 1 0 0 0 0-1.4141l-11-11a1 1 0 0 0-1.4141 0z" stop-color="#000000"/>
 </g>
 <g id="b">
  <path id="path2" d="m21.928 18.096c-0.74912-0.0073-1.4029 0.55516-1.5078 1.2969l-0.32617 2.2871c-0.31135 0.15615-0.61164 0.32954-0.90234 0.52148l-2.1641-0.86719c-0.69768-0.28126-1.5148 0.0064-1.8809 0.66406l0.0059-0.01367-2.0723 3.5957c-0.39173 0.65131-0.22703 1.5153 0.37695 1.9766l1.7676 1.3887c-0.01225 0.18164-0.03534 0.36285-0.03711 0.54492a1.0001 1.0001 0 0 0 0 0.01953c0.0017 0.18236 0.02484 0.36313 0.03711 0.54492l-1.7676 1.3887c-0.60398 0.46128-0.76868 1.3253-0.37695 1.9766l2.0723 3.5957-0.0059-0.01367c0.36606 0.65762 1.1832 0.94533 1.8809 0.66406l2.1523-0.86719c0.29132 0.1919 0.59259 0.3648 0.9043 0.52148l0.32422 2.2871c0.10487 0.74172 0.75869 1.3042 1.5078 1.2969h4.1465c0.74913 0.0073 1.4029-0.55516 1.5078-1.2969l0.32422-2.2852c0.3122-0.15646 0.61285-0.331 0.9043-0.52344l2.1504 0.86719c0.69851 0.28387 1.518-0.0052 1.8848-0.66406l2.0664-3.582c0.39173-0.65131 0.22703-1.5153-0.37695-1.9766l-1.7539-1.3867c0.01234-0.1825 0.03739-0.36394 0.03906-0.54688a1.0001 1.0001 0 0 0 0-0.01953c-0.0017-0.18238-0.02679-0.36311-0.03906-0.54492l1.7734-1.3887c0.60398-0.46128 0.76868-1.3253 0.37695-1.9766l-2.0723-3.5957 0.0059 0.01367c-0.36666-0.65863-1.1865-0.94773-1.8848-0.66406l-2.1504 0.86719c-0.29108-0.19172-0.59092-0.36492-0.90234-0.52148l-0.32422-2.2871c-0.10487-0.74172-0.75869-1.3042-1.5078-1.2969zm0.41016 2h3.334l0.33008 2.3359a1.0001 1.0001 0 0 0 0.60352 0.7832c0.54806 0.22935 1.0648 0.52625 1.5371 0.88672a1.0001 1.0001 0 0 0 0.98047 0.13281l2.2012-0.88672 1.6641 2.8867-1.8672 1.4629a1.0001 1.0001 0 0 0-0.375 0.91602c0.03853 0.29373 0.05941 0.59078 0.0625 0.88672-0.0031 0.29612-0.02393 0.59142-0.0625 0.88477l0.08398-0.07227a1.0001 1.0001 0 0 0 0.28711 0.98828l1.8516 1.4629-1.6641 2.8867-2.2012-0.88477a1.0001 1.0001 0 0 0-0.98242 0.13281c-0.46993 0.3607-0.98596 0.6594-1.5332 0.88672a1.0001 1.0001 0 0 0-0.60547 0.7832l-0.33203 2.3359h-3.3223l-0.33008-2.3359a1.0001 1.0001 0 0 0-0.60352-0.7832c-0.54806-0.22935-1.0648-0.52625-1.5371-0.88672a1.0001 1.0001 0 0 0-0.98046-0.13281l-2.2012 0.88672-1.6641-2.8867 1.8633-1.4629a1.0001 1.0001 0 0 0 0.375-0.91602c-0.038536-0.29373-0.059409-0.59078-0.0625-0.88672 0.0033-0.29651 0.02405-0.593 0.0625-0.88672a1.0001 1.0001 0 0 0-0.375-0.91602l-1.8633-1.4629 1.6641-2.8867 2.2129 0.88867a1.0001 1.0001 0 0 0 0.98047-0.13477c0.46993-0.3607 0.98596-0.6594 1.5332-0.88672a1.0001 1.0001 0 0 0 0.60547-0.7832zm1.6504 4.7578c-2.5548 0.0036-4.6442 2.0975-4.6406 4.6523 0.0035 2.5527 2.0965 4.6387 4.6484 4.6387a1.0001 1.0001 0 0 0 0.003906 0.003906h0.0059c2.5513-0.0037 4.6392-2.0973 4.6367-4.6484v-0.0059c-0.0036-2.5548-2.0995-4.6442-4.6543-4.6406zm0.0039 2c1.474-2e-3 2.6483 1.1686 2.6504 2.6426v0.003906a1.0001 1.0001 0 0 0 0 2e-3c2e-3 1.4705-1.1664 2.6433-2.6367 2.6465a1.0001 1.0001 0 0 0-0.0039 0h-0.001953a1.0001 1.0001 0 0 0-2e-3 -2e-3c-1.474 2e-3 -2.6483-1.1686-2.6504-2.6426-2e-3 -1.474 1.1706-2.6483 2.6445-2.6504z" fill="#fff" stop-color="#000000" stroke-linecap="round" stroke-linejoin="round"/>
 </g>
</svg>
