<?xml version="1.0" encoding="UTF-8"?>
<svg id="svg2" version="1.1" viewBox="0 0 48 48" xmlns="http://www.w3.org/2000/svg">
 <defs id="defs1">
  <style id="style1">.c{fill:none;stroke:#fff;stroke-width:2px;stroke-linecap:round;stroke-linejoin:round;}</style>
 </defs>
 <g id="a" fill="#fff" stroke-linecap="round" stroke-linejoin="round">
  <path id="path1" d="m10.5 3.5c-1.645 0-3 1.355-3 3v35c0 1.645 1.355 3 3 3h27c1.645 0 3-1.355 3-3v-26a1.0001 1.0001 0 0 0-1-1h-9c-0.56419 0-1-0.43581-1-1v-9a1.0001 1.0001 0 0 0-1-1zm0 2h17v8c0 1.645 1.355 3 3 3h8v25c0 0.56419-0.43581 1-1 1h-27c-0.56419 0-1-0.43581-1-1v-35c0-0.56419 0.43581-1 1-1z" stop-color="#000000"/>
  <path id="line1" d="m27.793 3.793a1 1 0 0 0 0 1.4141l11 11a1 1 0 0 0 1.4141 0 1 1 0 0 0 0-1.4141l-11-11a1 1 0 0 0-1.4141 0z" stop-color="#000000"/>
 </g>
 <g id="b" fill="#fff" stroke-linecap="round" stroke-linejoin="round">
  <path id="circle1" d="m24 35.023c-1.4802 0-2.7012 1.221-2.7012 2.7012 0 1.4802 1.221 2.7012 2.7012 2.7012s2.7012-1.221 2.7012-2.7012c0-1.4802-1.221-2.7012-2.7012-2.7012zm0 2c0.39933 0 0.70117 0.30184 0.70117 0.70117 0 0.39933-0.30184 0.70117-0.70117 0.70117s-0.70117-0.30184-0.70117-0.70117c0-0.39933 0.30184-0.70117 0.70117-0.70117z" stop-color="#000000"/>
  <path id="path2" d="m24 18.574c-1.6486 0-3.1532 0.67105-4.2363 1.7539-1.0833 1.0831-1.7559 2.5898-1.7559 4.2383a1 1 0 0 0 1 1 1 1 0 0 0 1-1c0-1.1081 0.44643-2.0989 1.1699-2.8223 0.7237-0.72354 1.7143-1.1699 2.8223-1.1699 2.216 0 3.9922 1.7761 3.9922 3.9922 0 1.1531-0.40206 2.1979-1.0879 2.748-0.41554 0.33328-1.3645 0.91974-2.2188 1.7168s-1.7031 1.9085-1.7031 3.3613a1 1 0 0 0 1 1 1 1 0 0 0 1-1c0-0.65919 0.4073-1.2817 1.0684-1.8984 0.66106-0.61677 1.4861-1.1239 2.1035-1.6191 1.3072-1.0485 1.8379-2.7051 1.8379-4.3086 0-3.2971-2.6952-5.9922-5.9922-5.9922z" stop-color="#000000"/>
 </g>
</svg>
