<?xml version="1.0" encoding="UTF-8"?>
<svg id="svg4" version="1.1" viewBox="0 0 48 48" xmlns="http://www.w3.org/2000/svg">
 <defs id="defs1">
  <style id="style1">.c{fill:none;stroke:#fff;stroke-width:2px;stroke-linecap:round;stroke-linejoin:round;}</style>
 </defs>
 <g id="a" fill="#fff" stroke-linecap="round" stroke-linejoin="round">
  <path id="path1" d="m10.5 3.5c-1.645 0-3 1.355-3 3v35c0 1.645 1.355 3 3 3h27c1.645 0 3-1.355 3-3v-26a1.0001 1.0001 0 0 0-1-1h-9c-0.56419 0-1-0.43581-1-1v-9a1.0001 1.0001 0 0 0-1-1zm0 2h17v8c0 1.645 1.355 3 3 3h8v25c0 0.56419-0.43581 1-1 1h-27c-0.56419 0-1-0.43581-1-1v-35c0-0.56419 0.43581-1 1-1z" stop-color="#000000"/>
  <path id="line1" d="m27.793 3.793a1 1 0 0 0 0 1.4141l11 11a1 1 0 0 0 1.4141 0 1 1 0 0 0 0-1.4141l-11-11a1 1 0 0 0-1.4141 0z" stop-color="#000000"/>
 </g>
 <g id="b" fill="#fff" stroke-linecap="round" stroke-linejoin="round">
  <path id="rect1" d="m14.953 21.561a1.0001 1.0001 0 0 0-1 1v13.879a1.0001 1.0001 0 0 0 1 1h18.094a1.0001 1.0001 0 0 0 1-1v-13.879a1.0001 1.0001 0 0 0-1-1zm1 2h16.094v11.879h-16.094z" stop-color="#000000"/>
  <path id="line2" d="m24 21.561a1 1 0 0 0-1 1v13.879a1 1 0 0 0 1 1 1 1 0 0 0 1-1v-13.879a1 1 0 0 0-1-1z" stop-color="#000000"/>
  <path id="line3" d="m14.953 26.188a1 1 0 0 0-1 1 1 1 0 0 0 1 1h18.094a1 1 0 0 0 1-1 1 1 0 0 0-1-1z" stop-color="#000000"/>
  <path id="line4" d="m14.953 30.812a1 1 0 0 0-1 1 1 1 0 0 0 1 1h18.094a1 1 0 0 0 1-1 1 1 0 0 0-1-1z" stop-color="#000000"/>
 </g>
</svg>
