<?xml version="1.0" encoding="UTF-8"?>
<svg id="b" version="1.1" viewBox="0 0 48 48" xmlns="http://www.w3.org/2000/svg">
 <defs id="defs1">
  <style id="style1">.c{fill:none;stroke:#000;stroke-width:2px;stroke-linecap:round;stroke-linejoin:round;}</style>
 </defs>
 <path id="path1" transform="translate(26.374 -1.1854) rotate(45)" d="m10.59 19.018a1.0001 1.0001 0 0 0 0 2h-1v17.424c0 2.7645 2.2628 5.0273 5.0273 5.0273 2.7645 0 5.0293-2.2628 5.0293-5.0273v-18.424a1.0001 1.0001 0 0 0-1-1zm1 2h6.0566v17.424c0 1.6821-1.3472 3.0273-3.0293 3.0273-1.6821 0-3.0273-1.3453-3.0273-3.0273z" stroke-linecap="round" stroke-linejoin="round"/>
 <path id="path2" d="m23.361 6.6465c-2.6346 0.054472-5.5295 1.0504-8.582 3.3711-0.82433 0.62673-1.0555 1.6982-0.7793 2.5391s1.0858 1.5646 2.1172 1.5996c3.1769 0.10761 4.7197 0.94507 5.4883 1.6387 0.3294 0.29728 0.47695 0.54708 0.5918 0.75781l-3.1973 3.1973a1 1 0 0 0 0 1.4141 1 1 0 0 0 1.4141 0l3.6777-3.6777a1.0001 1.0001 0 0 0 0.2793-0.86523s-0.06978-0.38496-0.27539-0.81055c-0.20561-0.42559-0.56236-0.9693-1.1504-1.5-1.1761-1.0614-3.2488-2.0353-6.7617-2.1543-0.18269-0.0062-0.23848-0.08652-0.2832-0.22266-0.04472-0.13614-0.05283-0.21575 0.08984-0.32422 3.7286-2.8346 6.7953-3.3455 9.4922-2.7617 2.6969 0.5838 5.0926 2.3602 7.1445 4.4121 1.0721 1.0721 1.3401 2.0663 1.3926 2.8184 0.05246 0.75204-0.11328 1.1699-0.11328 1.1699a1.0001 1.0001 0 0 0 0.22656 1.0625l1.791 1.7891a1.0001 1.0001 0 0 0 1.4141 0l1.25-1.248c0.24904-0.24904 0.62205-0.24904 0.87109 0l1.8613 1.8594c0.24901 0.24905 0.24892 0.62413 0 0.87305l-6.4863 6.4863c-0.24899 0.249-0.6221 0.249-0.87109 0l-1.8613-1.8613c-0.24901-0.24905-0.24892-0.62217 0-0.87109l0.69141-0.69336a1.0001 1.0001 0 0 0 0.11719-1.2715c-0.71225-1.0388-1.6268-1.9232-2.7031-2.4648a1.0001 1.0001 0 0 0-1.1582 0.18555l-4.3516 4.3535a1 1 0 0 0 0 1.4141 1 1 0 0 0 1.4141 0l3.6992-3.7012c0.30418 0.21872 0.58393 0.48903 0.86328 0.79883-0.98479 1.0159-0.98996 2.6603 0.01367 3.6641l1.8613 1.8613c1.0132 1.0132 2.686 1.0132 3.6992 0l6.4863-6.4863c1.0133-1.0133 1.0132-2.6878 0-3.7012l-1.8613-1.8594c-1.0134-1.0134-2.6859-1.0134-3.6992 0l-0.54297 0.54102-0.76758-0.76562c0.08721-0.35352 0.20311-0.54569 0.15234-1.2734-0.08042-1.1529-0.5658-2.6849-1.9746-4.0938-2.1899-2.1899-4.869-4.2458-8.1367-4.9531-0.81694-0.17684-1.6648-0.26425-2.543-0.24609z" stroke-linecap="round" stroke-linejoin="round"/>
</svg>
