<?xml version="1.0" encoding="UTF-8"?>
<svg id="svg1" version="1.1" viewBox="0 0 48 48" xmlns="http://www.w3.org/2000/svg">
 <defs id="defs1">
  <style id="style1">.a{fill:none;stroke:#000;stroke-width:2px;stroke-miterlimit:10;}</style>
 </defs>
 <path id="path1" d="m10.975 7.3203c-1.5887 0.039244-2.8846 1.3371-2.9238 2.9258v0.75391h-1.625c-1.5723 0.038079-2.8633 1.3093-2.9258 2.8809v22.85c0 1.645 1.355 3 3 3h35.1c1.645 0 3-1.355 3-3v-22.85c-0.064629-1.628-1.4474-2.9229-3.0762-2.8809h-1.584v-0.70898c-0.015285-1.6002-1.3106-2.9228-2.9102-2.9707h-26.041zm0.05078 2h25.945c0.54712 0.016396 0.96352 0.44094 0.96875 0.98828v0.69141h-27.889v-0.70898c0.01574-0.54073 0.43315-0.95733 0.97461-0.9707zm-4.5508 3.6797h35.102c0.55642-0.01435 0.99894 0.39972 1.0234 0.95508v22.775c0 0.56413-0.43587 1-1 1h-35.1c-0.56413 0-1-0.43587-1-1v-22.771c0.021328-0.53672 0.43763-0.94598 0.97461-0.95898zm8.3262 4.0508c-1.617-5.05e-4 -2.9596 1.3073-3 2.9238v2.6113c0.04043 1.6165 1.383 2.9243 3 2.9238h18.424c1.5887-0.03924 2.8865-1.3371 2.9258-2.9258v-2.6094c-0.03924-1.5887-1.3371-2.8846-2.9258-2.9238h-0.01172zm-2e-3 2h18.381c0.54073 0.01574 0.95733 0.43315 0.9707 0.97461v2.5098c-0.01342 0.54305-0.43156 0.9612-0.97461 0.97461h-18.377c-0.55203 1.72e-4 -0.98184-0.4196-0.99805-0.9707v-2.5176c0.0162-0.5511 0.44602-0.97088 0.99805-0.9707z" stroke-miterlimit="10"/>
</svg>
