<?xml version="1.0" encoding="UTF-8" standalone="no"?>
<svg
   id="b"
   viewBox="0 0 48 48"
   version="1.1"
   sodipodi:docname="applications-development.svg"
   xmlns:inkscape="http://www.inkscape.org/namespaces/inkscape"
   xmlns:sodipodi="http://sodipodi.sourceforge.net/DTD/sodipodi-0.dtd"
   xmlns="http://www.w3.org/2000/svg"
   xmlns:svg="http://www.w3.org/2000/svg">
  <sodipodi:namedview
     id="namedview2"
     pagecolor="#ffffff"
     bordercolor="#666666"
     borderopacity="1.0"
     inkscape:showpageshadow="2"
     inkscape:pageopacity="0.0"
     inkscape:pagecheckerboard="0"
     inkscape:deskcolor="#d1d1d1" />
  <defs
     id="defs1">
    <style
       id="style1">.c{fill:none;stroke:#000;stroke-width:2px;stroke-linecap:round;stroke-linejoin:round;}</style>
  </defs>
  <path
     style="color:#000000;fill:#000000;stroke-linecap:round;stroke-linejoin:round;-inkscape-stroke:none"
     d="m 10.589844,19.017578 a 1.0001,1.0001 0 0 0 0,2 H 9.5898438 v 17.423828 c 0,2.764535 2.2628092,5.027344 5.0273442,5.027344 2.764534,0 5.029296,-2.262809 5.029296,-5.027344 V 20.017578 a 1.0001,1.0001 0 0 0 -1,-1 z m 1,2 h 6.05664 v 17.423828 c 0,1.682061 -1.347236,3.027344 -3.029296,3.027344 -1.682061,0 -3.027344,-1.345283 -3.027344,-3.027344 z"
     id="path1"
     transform="translate(26.3739 -1.1854) rotate(45)" />
  <path
     style="color:#000000;fill:#000000;stroke-linecap:round;stroke-linejoin:round;-inkscape-stroke:none"
     d="m 23.361328,6.6464844 c -2.634606,0.054471 -5.529503,1.0504032 -8.582031,3.3710936 -0.82433,0.62673 -1.055549,1.69815 -0.779297,2.539063 0.276252,0.840912 1.085781,1.564609 2.117187,1.599609 3.176858,0.107608 4.719747,0.945069 5.488282,1.638672 0.329397,0.297281 0.476952,0.547078 0.591797,0.757812 L 19,19.75 a 1,1 0 0 0 0,1.414062 1,1 0 0 0 1.414062,0 l 3.677735,-3.677734 a 1.0001,1.0001 0 0 0 0.279297,-0.865234 c 0,0 -0.06978,-0.384958 -0.275391,-0.810547 -0.205611,-0.425589 -0.562359,-0.969302 -1.150391,-1.5 -1.176062,-1.061396 -3.248782,-2.035305 -6.761718,-2.154297 -0.182692,-0.0062 -0.23848,-0.08652 -0.283203,-0.222656 -0.04472,-0.136137 -0.05283,-0.215749 0.08984,-0.324219 3.728554,-2.8346401 6.795279,-3.3455219 9.492188,-2.7617187 2.696909,0.5838031 5.092625,2.3602027 7.144531,4.4121097 1.072088,1.072087 1.340123,2.066322 1.392578,2.818359 0.05246,0.752037 -0.113281,1.169922 -0.113281,1.169922 a 1.0001,1.0001 0 0 0 0.226562,1.0625 l 1.791016,1.789062 a 1.0001,1.0001 0 0 0 1.414063,0 l 1.25,-1.248047 c 0.249042,-0.249042 0.622051,-0.249042 0.871093,0 l 1.861328,1.859375 c 0.249011,0.24905 0.24892,0.624128 0,0.873047 l -6.486328,6.486328 c -0.248994,0.248994 -0.622099,0.248994 -0.871093,0 l -1.861329,-1.861328 c -0.24901,-0.249049 -0.248919,-0.622174 0,-0.871093 l 0.691407,-0.69336 a 1.0001,1.0001 0 0 0 0.117187,-1.271484 c -0.712251,-1.038765 -1.62685,-1.92323 -2.703125,-2.464844 a 1.0001,1.0001 0 0 0 -1.158203,0.185547 l -4.351562,4.353516 a 1,1 0 0 0 0,1.414062 1,1 0 0 0 1.414062,0 l 3.699219,-3.701172 c 0.30418,0.218723 0.583933,0.489031 0.863281,0.798828 -0.984791,1.015936 -0.989962,2.66027 0.01367,3.664063 l 1.861328,1.861328 c 1.013205,1.013205 2.686014,1.013205 3.699219,0 l 6.486328,-6.486328 c 1.01328,-1.01328 1.013189,-2.687823 0,-3.701172 L 40.873047,17.4375 c -1.013356,-1.013356 -2.685863,-1.013356 -3.699219,0 l -0.542969,0.541016 -0.767578,-0.765625 c 0.08721,-0.353523 0.203106,-0.54569 0.152344,-1.273438 -0.08042,-1.152936 -0.565799,-2.68494 -1.974609,-4.09375 C 31.851126,9.6558139 29.172032,7.5999486 25.904297,6.8925781 25.087363,6.7157355 24.23953,6.6283272 23.361328,6.6464844 Z"
     id="path2" />
</svg>
