<?xml version="1.0" encoding="UTF-8"?>
<svg id="svg3" version="1.1" viewBox="0 0 48 48" xmlns="http://www.w3.org/2000/svg">
 <defs id="defs1">
  <style id="style1">.a{fill:none;stroke:#000;stroke-width:2px;stroke-linecap:round;stroke-linejoin:round;}</style>
 </defs>
 <path id="rect1" d="m14.5 13c-6.0767 0-11 4.9233-11 11s4.9233 11 11 11h19c6.0767 0 11-4.9233 11-11s-4.9233-11-11-11zm0 2h19c5.0033 0 9 3.9967 9 9s-3.9967 9-9 9h-19c-5.0033 0-9-3.9967-9-9s3.9967-9 9-9z" stroke-linecap="round" stroke-linejoin="round"/>
 <path id="path1" d="m13.801 18.57c-0.61472 1e-6 -1.2436 0.19959-1.7441 0.64453-0.50056 0.44494-0.82617 1.1524-0.82617 1.9258v0.28906h-0.29102c-0.77333 0-1.4789 0.32562-1.9238 0.82617s-0.64648 1.1294-0.64648 1.7441 0.20155 1.2436 0.64648 1.7441 1.1505 0.82617 1.9238 0.82617h0.29102v0.28906c0 0.77333 0.32562 1.4808 0.82617 1.9258 0.50056 0.44494 1.1294 0.64453 1.7441 0.64453s1.2416-0.19959 1.7422-0.64453c0.50056-0.44494 0.82617-1.1524 0.82617-1.9258v-0.28906h0.29102c0.77333 0 1.4789-0.32561 1.9238-0.82617 0.44494-0.50056 0.64648-1.1294 0.64648-1.7441s-0.20154-1.2436-0.64648-1.7441c-0.44494-0.50056-1.1505-0.82617-1.9238-0.82617h-0.29102v-0.28906c0-0.77333-0.32562-1.4808-0.82617-1.9258-0.50056-0.44494-1.1275-0.64453-1.7422-0.64453zm0 2c0.17028 0 0.32587 0.06028 0.41406 0.13867 0.08819 0.07839 0.1543 0.15831 0.1543 0.43164v1.2891a1.0001 1.0001 0 0 0 1 1h1.291c0.27333 0 0.35129 0.06806 0.42969 0.15625 0.07839 0.08819 0.14062 0.24378 0.14062 0.41406s-0.06223 0.32587-0.14062 0.41406c-0.07839 0.08819-0.15636 0.15625-0.42969 0.15625h-1.291a1.0001 1.0001 0 0 0-1 1v1.2891c0 0.27333-0.0661 0.35325-0.1543 0.43164-0.08819 0.07839-0.24378 0.13867-0.41406 0.13867-0.17028 0-0.32782-0.06028-0.41602-0.13867-0.08819-0.07839-0.1543-0.15831-0.1543-0.43164v-1.2891a1.0001 1.0001 0 0 0-1-1h-1.291c-0.27333 0-0.35129-0.06806-0.42969-0.15625-0.078394-0.088193-0.14062-0.24378-0.14062-0.41406s0.06223-0.32587 0.14062-0.41406c0.07839-0.08819 0.15635-0.15625 0.42969-0.15625h1.291a1.0001 1.0001 0 0 0 1-1v-1.2891c0-0.27333 0.0661-0.35325 0.1543-0.43164 0.08819-0.07839 0.24574-0.13867 0.41602-0.13867z" stroke-linecap="round" stroke-linejoin="round"/>
 <path id="rect2" d="m30.199 23.23c-1.8718 0-3.4102 1.5383-3.4102 3.4102 0 1.8718 1.5383 3.4102 3.4102 3.4102s3.4102-1.5383 3.4102-3.4102-1.5383-3.4102-3.4102-3.4102zm0 2c0.79844 0 1.4102 0.61172 1.4102 1.4102s-0.61172 1.4102-1.4102 1.4102c-0.79844 0-1.4102-0.61172-1.4102-1.4102s0.61172-1.4102 1.4102-1.4102z" stroke-linecap="round" stroke-linejoin="round"/>
 <path id="rect3" d="m35.48 17.949c-1.8718 0-3.4102 1.5383-3.4102 3.4102 0 1.8718 1.5383 3.4102 3.4102 3.4102s3.4102-1.5383 3.4102-3.4102-1.5383-3.4102-3.4102-3.4102zm0 2c0.79844 0 1.4102 0.61172 1.4102 1.4102s-0.61172 1.4102-1.4102 1.4102c-0.79844 0-1.4102-0.61172-1.4102-1.4102s0.61172-1.4102 1.4102-1.4102z" stroke-linecap="round" stroke-linejoin="round"/>
</svg>
