<?xml version="1.0" encoding="UTF-8" standalone="no"?>
<svg
   viewBox="0 0 48 48"
   version="1.1"
   id="svg1"
   sodipodi:docname="applications-graphics.svg"
   xmlns:inkscape="http://www.inkscape.org/namespaces/inkscape"
   xmlns:sodipodi="http://sodipodi.sourceforge.net/DTD/sodipodi-0.dtd"
   xmlns="http://www.w3.org/2000/svg"
   xmlns:svg="http://www.w3.org/2000/svg">
  <sodipodi:namedview
     id="namedview1"
     pagecolor="#ffffff"
     bordercolor="#666666"
     borderopacity="1.0"
     inkscape:showpageshadow="2"
     inkscape:pageopacity="0.0"
     inkscape:pagecheckerboard="0"
     inkscape:deskcolor="#d1d1d1" />
  <defs
     id="defs1">
    <style
       id="style1">.a{fill:none;stroke:#000;stroke-width:2px;stroke-linecap:round;stroke-linejoin:round;}</style>
  </defs>
  <path
     style="color:#000000;fill:#000000;stroke-linecap:round;stroke-linejoin:round;-inkscape-stroke:none"
     d="m 35.402344,4.4238281 c -1.23771,0.097091 -2.399617,0.6396534 -3.267578,1.5273438 l -5.341797,5.3417971 a 1.0001,1.0001 0 0 0 0,0.002 1.0001,1.0001 0 0 0 -0.002,0 L 9.453125,28.693359 7.8027344,30.34375 7.8671875,30.283203 C 7.4915838,30.597983 7.203291,31.003546 7.0273437,31.460937 A 1.0001,1.0001 0 0 0 6.9941406,31.5625 L 4.59375,40.558594 C 4.1292141,42.277329 5.7812651,43.92938 7.5,43.464844 l -0.00195,0.002 9.0000001,-2.410156 a 1.0001,1.0001 0 0 0 0.09375,-0.03125 c 0.449706,-0.169255 0.849817,-0.447047 1.164062,-0.810547 l -0.04687,0.05078 4.308594,-4.330078 14.623047,-14.660156 a 1.0001,1.0001 0 0 0 0.06641,-0.02734 l 5.34961,-5.351563 a 1.0001,1.0001 0 0 0 0.0078,-0.0078 c 1.889872,-1.934812 1.889872,-5.053469 0,-6.9882814 a 1.0001,1.0001 0 0 0 -0.002,-0.00195 L 39.212891,6.0097656 C 38.278982,5.0013501 36.95546,4.4705657 35.585937,4.4882812 a 1.0001,1.0001 0 0 0 -0.183593,-0.064453 z m 0.08984,2.0234375 a 1.0001,1.0001 0 0 0 0.0332,0.011719 c 0.838835,-0.038231 1.650137,0.2940706 2.220703,0.9101562 a 1.0001,1.0001 0 0 0 0.02148,0.023437 l 2.867188,2.9062499 c 1.14512,1.172351 1.144873,3.015813 0.002,4.189453 -0.0011,0.0011 -8.52e-4,0.0028 -0.002,0.0039 L 36.019531,19.105469 28.914062,12 33.556641,7.3574219 a 1.0001,1.0001 0 0 0 0.0078,-0.00781 C 34.076645,6.8257757 34.765024,6.5220059 35.492187,6.4472656 Z M 27.5,13.417969 34.566406,20.519531 20.601562,34.523437 a 1.0001,1.0001 0 0 0 0,0.002 l -4.310546,4.330078 a 1.0001,1.0001 0 0 0 -0.04687,0.05078 c -0.09293,0.107499 -0.211725,0.188082 -0.34375,0.240234 l -8.9199223,2.386719 a 1.0001,1.0001 0 0 0 -0.00195,0.002 c -0.3225633,0.08718 -0.5403067,-0.132515 -0.453125,-0.455078 a 1.0001,1.0001 0 0 0 0,-0.002 l 2.3769532,-8.912109 c 0.054679,-0.13442 0.1386397,-0.256283 0.25,-0.34961 a 1.0001,1.0001 0 0 0 0.064453,-0.05859 l 1.6503911,-1.65039 a 1.0001,1.0001 0 0 0 0.002,-0.002 z"
     id="path1" />
</svg>
