<?xml version='1.0' encoding='UTF-8'?>
<svg xmlns="http://www.w3.org/2000/svg" viewBox="0 0 48 48"><defs><style>.c{fill:none;stroke:#000;stroke-width:2px;stroke-linecap:round;stroke-linejoin:round;}</style></defs><g id="a"><path class="c" d="m39.5,15.5h-9c-1.1046,0-2-.8954-2-2V4.5H10.5c-1.1046,0-2,.8954-2,2v35c0,1.1046.8954,2,2,2h27c1.1046,0,2-.8954,2-2V15.5Z"/><line class="c" x1="28.5" y1="4.5" x2="39.5" y2="15.5"/></g><g id="b"><circle class="c" cx="24" cy="37.7242" r="1.7016"/><path class="c" d="m19.0087,24.5655c0-1.3783.5586-2.6261,1.462-3.5293s2.151-1.462,3.5293-1.462c2.7565,0,4.9913,2.2347,4.9913,4.9913,0,1.3783-.4655,2.73-1.462,3.5293-1.033.8285-3.5472,2.1859-3.5472,4.2979"/></g></svg>