<?xml version='1.0' encoding='UTF-8'?>
<svg xmlns="http://www.w3.org/2000/svg" id="a" viewBox="0 0 48 48"><defs><style>.b{fill-rule:evenodd;}.b,.c{fill:none;stroke:#000;stroke-width:2px;stroke-linecap:round;stroke-linejoin:round;}</style></defs><path class="c" d="m18.8094,45.3998c-.7265-.1717-1.3334-.5746-2.184-1.4465-1.42-1.4575-2.5729-2.0636-4.5764-2.4086-2.0776-.3581-3.0015-1.1302-3.5563-2.9751-.6854-2.2779-1.4017-3.3684-2.9758-4.5309-1.7855-1.3188-2.2434-2.4812-1.8075-4.5889.4036-1.9521.2495-3.3391-.5709-5.1239-.9775-2.1282-.8572-3.2657.5321-5.0101,1.2733-1.5998,1.6732-2.6566,1.864-4.9286.1923-2.2933.8307-3.2341,2.7094-3.9959,1.569-.6355,2.9105-1.7393,3.6547-3.0044.8601-1.4641.9856-1.6314,1.5184-2.0291.8601-.6414,1.5558-.8197,2.8797-.7368,2.3007.1446,3.5336-.1321,5.0784-1.1375,2.0145-1.3114,3.2356-1.3114,5.2501,0,1.5448,1.0054,2.7777,1.2821,5.0784,1.1375,2.1752-.1358,3.08.4352,4.4061,2.7806.6575,1.1624,2.0005,2.2933,3.4712,2.9223,2.093.8961,2.7021,1.7143,2.8562,3.8396.1673,2.3014.6392,3.5886,1.8897,5.1517,1.3921,1.7415,1.5132,2.8804.5343,5.0108-.8197,1.7848-.9738,3.1725-.5702,5.1239.4352,2.1077-.022,3.2701-1.8082,4.5889-1.5734,1.1624-2.2897,2.253-2.9751,4.5309-.5555,1.8449-1.4787,2.617-3.5571,2.9751-2.0071.3449-3.1615.954-4.5757,2.413-1.5683,1.6174-2.6933,1.8838-4.8853,1.1595-1.7928-.593-3.174-.5952-4.9602-.0095-1.2505.411-1.9176.4822-2.7197.2921Z"/><path class="b" d="m21.019,26.6818c1.9007.4917,3.9629.4256,5.9223-.3009"/><path class="b" d="m28.2916,30.0649c-2.8621,1.0568-5.8709,1.1155-8.6156.3229v-.0073"/><path class="b" d="m15.6324,28.4871c-1.5925-1.0861-2.9722-2.5245-4.0142-4.2491-.0073,0-.0073-.0073-.0073-.0073-.2348-.4256-.3302-.9981-.1761-1.4751s.4917-.8953.9393-1.1522.976-.3302,1.4751-.2128c.4697.1101.8733.4036,1.1228.8146.0073.0073.0073.0147.0147.022.5577.9247,1.2549,1.7319,2.0548,2.3997"/><path class="c" d="m20.6227,14.7858l-3.5813,9.8411-1.409,3.8601-1.3283,3.6547c-.3229.8953-.0367,1.8714.6531,2.4438v.0073c.1981.1688.4183.3009.6752.3963.2422.0881.4917.1321.7339.1321.9173.0073,1.7833-.5504,2.1135-1.4604l1.1962-3.273v-.0073l1.343-3.6987,2.8401-7.7937"/><path class="c" d="m22.6482,12.2906v-2.1062c0-.7706.6238-1.3943,1.3943-1.3943s1.3943.6238,1.3943,1.3943v2.1429"/><path class="c" d="m27.3963,14.8518l1.886,5.1517,3.0676,8.3808h.0073l1.3797,3.7794c.3376.888.066,1.8493-.6091,2.4218-.1908.1761-.411.3156-.6605.411-.2422.0881-.499.1321-.7412.1394-.9027.0147-1.7539-.521-2.0915-1.4164l-.022-.044-1.321-3.6106-1.3503-3.684-2.7447-7.4928"/><path class="b" d="m27.4476,15.4536c0,1.8347-1.4383,3.3391-3.251,3.4345-.0661.0073-.1249.0073-.1908.0073-.0514,0-.0953,0-.1467-.0073-1.8347-.0734-3.2951-1.5852-3.2951-3.4345,0-.2275.0219-.455.0586-.6678.0073-.0073.0073-.0146.0073-.022.2349-1.1155.9981-2.0402,2.0181-2.4731.4184-.1835.8808-.2789,1.3577-.2789.5063,0,.9908.1101,1.431.3156,1.0055.455,1.7539,1.387,1.9595,2.5172v.0073c.0365.1908.0512.3963.0512.6018Z"/><path class="c" d="m29.2823,20.0036c.3302-.0881.6825-.1321,1.0421-.1321,2.4805,0,4.4986,2.0181,4.4986,4.5059,0,1.7466-1.0054,3.2657-2.4658,4.0069h-.0073"/><line class="c" x1="34.4848" y1="19.8749" x2="33.4128" y2="21.1049"/><line class="c" x1="36.2748" y1="25.2302" x2="34.8228" y2="24.9739"/><line class="c" x1="31.3872" y1="21.5796" x2="31.707" y2="21.5796"/><line class="c" x1="32.933" y1="25.946" x2="33.1422" y2="25.7011"/><line class="c" x1="14.5756" y1="37.521" x2="15.5539" y2="34.9566"/><line class="c" x1="33.6314" y1="37.4559" x2="32.5563" y2="34.9601"/></svg>