<?xml version='1.0' encoding='UTF-8'?>
<svg xmlns="http://www.w3.org/2000/svg" id="a" viewBox="0 0 48 48"><defs><style>.b{fill:none;stroke:#000;stroke-width:2px;stroke-linecap:round;stroke-linejoin:round;}</style></defs><path class="b" d="m25.6481,26.1023c.0659-1.1761.6418-2.2122,1.5107-2.9467.852-.7214,1.9989-1.1624,3.2502-1.1624,1.2501,0,2.3969.441,3.2496,1.1624.8682.7345,1.4441,1.7706,1.5107,2.9454.0659,1.2084-.4198,2.331-1.2719,3.1631-.8688.8464-2.1046,1.3776-3.4884,1.3776s-2.6221-.5311-3.4903-1.3776c-.8527-.8321-1.3372-1.9547-1.2706-3.1619h0Z"/><path class="b" d="m16.058,28.8369c.0094.5351.1801,1.575.4361,2.3871.538,1.7189,1.4507,3.3091,2.7205,4.7106,1.3031,1.4405,2.9078,2.5976,4.7613,3.4191,1.9482.8627,4.0591,1.3024,6.2517,1.2988,2.189-.0029,4.2999-.4512,6.2481-1.3205,1.8535-.8295,3.4567-1.9916,4.7577-3.4328,1.2692-1.4073,2.1803-3.0003,2.7198-4.7193.2712-.8685.4426-1.75.5113-2.6344.0672-.8714.039-1.7442-.0846-2.6164-.2415-1.6994-.8295-3.294-1.7349-4.7475-.828-1.3357-1.8954-2.505-3.1646-3.4892,0,0-12.826-9.8544-12.8383-9.8623-.8403-.6451-2.2534-.6429-3.1776.0036-.9343.6537-1.0414,1.7348-.2097,2.4168l5.3384,4.3476-16.3037.0173c-1.3458.0015-2.6395.8844-2.8955,2.0002-.2632,1.1368.6508,2.0848,2.0502,2.0848l8.2505-.0109s-14.7655,11.3318-14.7829,11.3455c-1.3892,1.0638-1.8383,2.8326-.9633,3.952.888,1.1382,2.7762,1.1404,4.1799.0065l8.0372-6.5778s-.1172.888-.1078,1.421h0Zm20.6527,2.9736c-1.656,1.6871-3.9745,2.6438-6.4831,2.6489-2.5123.0043-4.8307-.9437-6.4868-2.6279-.8092-.8208-1.4037-1.7652-1.7703-2.7711-.3594-.9886-.499-2.0378-.4064-3.0965.0875-1.0348.3956-2.0219.8873-2.915.4831-.8779,1.1484-1.6712,1.9699-2.3423,1.6098-1.3118,3.6592-2.0219,5.8026-2.0248,2.1456-.0029,4.1936.7007,5.8048,2.0082.8201.6682,1.4847,1.4586,1.9677,2.3351.4939.8924.7998,1.8759.8909,2.9136.0911,1.0573-.0484,2.1051-.4079,3.0944-.3674,1.0088-.9596,1.9532-1.7689,2.7776h0Z"/></svg>