<?xml version='1.0' encoding='UTF-8'?>
<svg xmlns="http://www.w3.org/2000/svg" id="b" viewBox="0 0 48 48"><defs><style>.c{fill:none;stroke:#000;stroke-width:2px;stroke-linecap:round;stroke-linejoin:round;}</style></defs><circle class="c" cx="30.5" cy="24" r="6.5"/><path class="c" d="m17.5,30.5c-3.5899,0-6.5,2.9101-6.5,6.5s2.9101,6.5,6.5,6.5,6.5-2.9101,6.5-6.5v-6.5h-6.5"/><path class="c" d="m30.5,17.5c3.5899,0,6.5-2.9101,6.5-6.5s-2.9101-6.5-6.5-6.5h-6.5v13h6.5Z"/><path class="c" d="m17.5,4.5c-3.5899,0-6.5,2.9101-6.5,6.5s2.9101,6.5,6.5,6.5h6.5V4.5h-6.5Z"/><path class="c" d="m17.5,17.5c-3.5899,0-6.5,2.9101-6.5,6.5s2.9101,6.5,6.5,6.5h6.5v-13h-6.5Z"/></svg>