<?xml version='1.0' encoding='UTF-8'?>
<svg xmlns="http://www.w3.org/2000/svg" version="1.1" viewBox="0 0 48 48"><defs><style>.b{fill:none;stroke:#000;stroke-width:2px;stroke-linecap:round;stroke-linejoin:round}</style></defs><g transform="translate(-2.308 -2.006) scale(1.0924)"><ellipse transform="matrix(.99984 .01778 -.08649 .99625 0 0)" cx="20.4" cy="18.492" rx="3.789" ry="5.373" class="b"/></g><g transform="matrix(-1.0924 0 0 1.0924 50.29 -2.131)"><ellipse transform="matrix(.99984 .01778 -.08649 .99625 0 0)" cx="20.4" cy="18.492" rx="3.789" ry="5.373" class="b"/></g><path d="M43.363 40.452c-4.452-1.974-3.617-6.7-2.067-9.831 1.128-2.28 1.228-6.046.77-10.097 3.775-2.325 1.724-8.102-2.804-7.335C29.423.044 14.928 4.15 9.005 12.964c-5.28-.886-6.477 5.644-2.986 7.285-1.6 11.286 3.683 29.515 37.343 20.203z" class="b"/></svg>