<?xml version="1.0"?>
<svg xmlns="http://www.w3.org/2000/svg" version="1.1" viewBox="0 0 48 48" id="svg26">
  <defs id="defs12">
    <style id="style2">.a,.cls-1{fill:none;stroke:#000;stroke-width:2px;stroke-linecap:round;stroke-linejoin:round}</style>
  </defs>
  <g fill="none" stroke="#000" stroke-linecap="round" stroke-linejoin="round" id="g24" style="stroke:#000;stroke-width:2px;stroke-opacity:1;stroke-width:2;stroke-miterlimit:4;stroke-dasharray:none">
    <g transform="translate(-2.308 -2.006) scale(1.0924)" stroke-width="1.831" id="g16" style="stroke:#000;stroke-width:2px;stroke-opacity:1;stroke-width:.9154156;stroke-miterlimit:4;stroke-dasharray:none">
      <ellipse transform="matrix(.99984 .01778 -.08649 .99625 0 0)" cx="20.4" cy="18.492" rx="3.789" ry="5.373" fill="none" stroke="#000" stroke-linecap="round" stroke-linejoin="round" stroke-width="1.833" id="ellipse14" style="stroke:#000;stroke-width:2px;stroke-opacity:1;stroke-width:.91650304;stroke-miterlimit:4;stroke-dasharray:none"/>
    </g>
    <g transform="matrix(-1.0924 0 0 1.0924 50.29 -2.131)" stroke-width="1.831" id="g20" style="stroke:#000;stroke-width:2px;stroke-opacity:1;stroke-width:.9154156;stroke-miterlimit:4;stroke-dasharray:none">
      <ellipse transform="matrix(.99984 .01778 -.08649 .99625 0 0)" cx="20.4" cy="18.492" rx="3.789" ry="5.373" fill="none" stroke="#000" stroke-linecap="round" stroke-linejoin="round" stroke-width="1.833" id="ellipse18" style="stroke:#000;stroke-width:2px;stroke-opacity:1;stroke-width:.91650304;stroke-miterlimit:4;stroke-dasharray:none"/>
    </g>
    <path d="M43.363 40.452c-4.452-1.974-3.617-6.7-2.067-9.831 1.128-2.28 1.228-6.046.77-10.097 3.775-2.325 1.724-8.102-2.804-7.335C29.423.044 14.928 4.15 9.005 12.964c-5.28-.886-6.477 5.644-2.986 7.285-1.6 11.286 3.683 29.515 37.343 20.203z" stroke-width="2" id="path22" style="stroke:#000;stroke-width:2px;stroke-opacity:1;stroke-width:2;stroke-miterlimit:4;stroke-dasharray:none"/>
  </g>
</svg>
