<?xml version="1.0" encoding="UTF-8" standalone="no"?>
<svg xmlns="http://www.w3.org/2000/svg" xmlns:svg="http://www.w3.org/2000/svg" viewBox="0 0 48 48" version="1.1" id="svg1" xml:space="preserve">
  <defs id="defs1">
    <style id="style1">.a{fill:none;stroke:#fff;stroke-width:2px;stroke-linecap:round;stroke-linejoin:round;}</style>
    <style id="style1-1">.q,.r,.s{stroke-width:0px;}.t{stroke:#fff;stroke-width:2px;stroke-linecap:round;stroke-linejoin:round;}.t,.u{fill:none;}.r,.v{fill:#ff0;}.u{stroke:#ff0;stroke-width:2px;stroke-miterlimit:10;stroke-width:.25px;}.s{fill:#fff;}.v{font-family:OpenSans-Regular, 'Open Sans';font-size:6px;font-variation-settings:'wght' 400, 'wdth' 100;}</style>
  </defs>
  <path class="a" d="m 40.5,5.5 h -33 a 2,2 0 0 0 -2,2 v 33 a 2,2 0 0 0 2,2 h 33 a 2,2 0 0 0 2,-2 v -33 a 2,2 0 0 0 -2,-2 z" id="path1" style="display:inline;stroke:#000000;stroke-width:2px;stroke-opacity:1;stroke-width:2px;stroke-dasharray:none"/>
  <path class="a" d="m 36.107704,10.429997 h -24.21041 a 1.4672975,1.4672977 0 0 0 -1.467297,1.467297 v 24.210409 a 1.4672975,1.4672977 0 0 0 1.467297,1.467299 h 24.21041 a 1.4672975,1.4672977 0 0 0 1.467298,-1.467299 V 11.897294 a 1.4672975,1.4672977 0 0 0 -1.467298,-1.467297 z" id="path2" style="display:inline;fill:none;stroke:#000000;stroke-width:2px;stroke-width:2px;stroke-linecap:round;stroke-linejoin:round;stroke-dasharray:none;stroke-opacity:1"/>
  <path class="t" d="m 23.499948,13.9446 v 7.113629 c 0,1.309619 -1.040901,2.37121 -2.324998,2.37121 v 0 c -1.284097,0 -2.324998,-1.061591 -2.324998,-2.37121 V 20.27075" id="path3" style="stroke:#000000;stroke-width:2px;stroke-width:2px;stroke-opacity:1"/>
  <path style="fill:none;stroke:#000000;stroke-width:2px;stroke-width:2px;stroke-linecap:round;stroke-linejoin:round;stroke-dasharray:none;stroke-opacity:1" d="m 13.945095,33.64 h 9.55981" id="path4"/>
  <path style="fill:none;stroke:#000000;stroke-width:2px;stroke-width:2px;stroke-linecap:round;stroke-linejoin:round;stroke-dasharray:none;stroke-opacity:1" d="M 13.945,23.429569 V 13.944526" id="path5"/>
</svg>
