<?xml version='1.0' encoding='UTF-8'?>
<svg xmlns="http://www.w3.org/2000/svg" id="a" viewBox="0 0 48 48"><defs><style>.b{fill:none;stroke:#000;stroke-width:2px;stroke-linecap:round;stroke-linejoin:round;}</style></defs><path class="b" d="m38.91,20.12l-15-15c-.3734-.3756-.8804-.5878-1.41-.59h-12c-1.1046,0-2,.8954-2,2v35c0,1.1046.8954,2,2,2h27c1.1046,0,2-.8954,2-2v-20c-.0022-.5296-.2144-1.0366-.59-1.41Z"/><path class="b" d="m29.89,5.52l8.59,8.59c.2467.2212.626.2006.8473-.0461.0926-.1032.1466-.2354.1527-.3739v-7.19c0-1.1046-.8954-2-2-2h-7.17c-.3313.0047-.5962.277-.5915.6084.0022.1541.0636.3016.1715.4116Z"/><ellipse class="b" cx="24" cy="24.4806" rx="9.715" ry="3.9669"/><path class="b" d="m14.285,27.8269c0,2.1909,4.3495,3.9669,9.715,3.9669s9.715-1.7761,9.715-3.9669"/><path class="b" d="m14.285,31.1731c0,2.1909,4.3495,3.9669,9.715,3.9669s9.715-1.7761,9.715-3.9669"/><path class="b" d="m33.715,24.4806c0,2.1909-4.3495,3.9669-9.715,3.9669s-9.715-1.7761-9.715-3.9669v10.0388c0,2.1909,4.3495,3.9669,9.715,3.9669s9.715-1.7761,9.715-3.9669v-10.0388Z"/></svg>