<?xml version='1.0' encoding='UTF-8'?>
<svg xmlns="http://www.w3.org/2000/svg" id="a" viewBox="0 0 48 48"><defs><style>.d{fill:none;stroke:#000;stroke-width:2px;stroke-linecap:round;stroke-linejoin:round;}</style></defs><circle class="d" cx="24" cy="24" r="21.5"/><path class="d" d="m24 2.5c-4.9996 0-9.0526 4.053-9.0526 9.0526 0 4.9996 4.053 9.0526 9.0526 9.0526 2.4009-.0086 4.7-.97051 6.3961-2.6632 10.387.01109 16.987 8.557 12.253 16.757"/><path class="d" d="m42.62 34.75c2.4998-4.3298 1.0163-9.8663-3.3135-12.366-4.3298-2.4998-9.8663-1.0163-12.366 3.3135-1.193 2.0835-1.5095 4.5556-.89164 6.8707-5.203 8.9898-15.904 10.433-20.638 2.2328"/><path class="d" d="m5.3805 34.75c2.4998 4.3298 8.0363 5.8133 12.366 3.3135 4.3298-2.4998 5.8133-8.0363 3.3135-12.366-1.2079-2.0749-3.1905-3.5851-5.5044-4.2076-5.1839-9.0008-1.0829-18.99 8.3856-18.99"/></svg>