<?xml version="1.0" encoding="UTF-8" standalone="no"?>
<svg xmlns="http://www.w3.org/2000/svg" xmlns:svg="http://www.w3.org/2000/svg" width="48" height="48" version="1.1" viewBox="0 0 48 48" xml:space="preserve" id="svg13">
  <defs id="defs1">
    <style id="style1">.a{fill:none;stroke:#fff;stroke-width:2px;stroke-linecap:round;stroke-linejoin:round;}</style>
  </defs>
  <path d="m 42.938,30.031 v 6.3124 c 0,1.7486 -1.4075,3.1562 -3.1562,3.1562 H 8.2188 c -1.7486,0 -3.1562,-1.4075 -3.1562,-3.1562 V 30.031" fill="none" stroke="#fff" stroke-linecap="round" stroke-linejoin="round" id="path1" style="stroke:#000000;stroke-width:2px;stroke-width:2;stroke-dasharray:none;stroke-opacity:1"/>
  <path d="M 8.5961,14.254 8.21849,14.2502 c -1.7486,-0.01781 -3.1562,1.4075 -3.1562,3.1562 v 12.625 c 0,1.7486 1.4075,3.1562 3.1562,3.1562 h 31.563 c 1.7486,0 3.1575,-1.4075 3.1575,-3.1562 v -12.625 c 0,-1.7486 -1.4088,-3.1564 -3.1575,-3.1562 l -25.632,0.0032" fill="none" stroke="#fff" stroke-linecap="round" stroke-linejoin="round" id="path2" style="stroke:#000000;stroke-width:2px;stroke-width:2;stroke-dasharray:none;stroke-opacity:1"/>
  <path d="m 24.001,22.211 v 3.0163" fill="none" stroke="#fff" stroke-linecap="round" stroke-linejoin="round" id="path3" style="stroke:#000000;stroke-width:2px;stroke-width:2;stroke-dasharray:none;stroke-opacity:1"/>
  <path d="m 27.681,27.987 c 0,1.5239 -1.648,2.7602 -3.6802,2.7602 -2.0322,0 -3.6802,-1.2363 -3.6802,-2.7602 0,-1.5252 1.648,-2.7602 3.6802,-2.7602 2.0322,0 3.6802,1.235 3.6802,2.7602 z m 0,0" fill="none" stroke="#fff" stroke-linecap="round" stroke-linejoin="round" id="path4" style="stroke:#000000;stroke-width:2px;stroke-width:2;stroke-dasharray:none;stroke-opacity:1"/>
  <path d="m 27.681,19.451 c 0,1.5239 -1.648,2.7602 -3.6802,2.7602 -2.0322,0 -3.6802,-1.2363 -3.6802,-2.7602 0,-1.5252 1.648,-2.7602 3.6802,-2.7602 2.0322,0 3.6802,1.235 3.6802,2.7602 z m 0,0" fill="none" stroke="#fff" stroke-linecap="round" stroke-linejoin="round" id="path5" style="stroke:#000000;stroke-width:2px;stroke-width:2;stroke-dasharray:none;stroke-opacity:1"/>
  <path d="m 40.307,19.451 c 0,1.5239 -1.6467,2.7602 -3.6803,2.7602 -2.0322,0 -3.6803,-1.2363 -3.6803,-2.7602 0,-1.5252 1.648,-2.7602 3.6803,-2.7602 2.0335,0 3.6803,1.235 3.6803,2.7602 z m 0,0" fill="none" stroke="#fff" stroke-linecap="round" stroke-linejoin="round" id="path6" style="stroke:#000000;stroke-width:2px;stroke-width:2;stroke-dasharray:none;stroke-opacity:1"/>
  <path d="m 36.627,22.211 v 3.0163" fill="none" stroke="#fff" stroke-linecap="round" stroke-linejoin="round" id="path7" style="stroke:#000000;stroke-width:2px;stroke-width:2;stroke-dasharray:none;stroke-opacity:1"/>
  <path d="m 40.307,27.987 c 0,1.5239 -1.6467,2.7602 -3.6803,2.7602 -2.0322,0 -3.6803,-1.2363 -3.6803,-2.7602 0,-1.5252 1.648,-2.7602 3.6803,-2.7602 2.0335,0 3.6803,1.235 3.6803,2.7602 z m 0,0" fill="none" stroke="#fff" stroke-linecap="round" stroke-linejoin="round" id="path8" style="stroke:#000000;stroke-width:2px;stroke-width:2;stroke-dasharray:none;stroke-opacity:1"/>
  <path d="M 11.375,25.227 V 21.6475" fill="none" stroke="#fff" stroke-linecap="round" stroke-linejoin="round" id="path9" style="stroke:#000000;stroke-width:2px;stroke-width:2;stroke-dasharray:none;stroke-opacity:1"/>
  <path d="m 8.6098,11.607 -0.041358,7.9695 c 0.00135,1.1435 1.2823,2.0714 2.8062,2.0714 1.5239,0 2.8064,-0.92529 2.8064,-2.0688 v -0.0027 l -0.04691,-7.9695" fill="none" stroke="#fff" stroke-linecap="round" stroke-linejoin="round" id="path10" style="stroke:#000000;stroke-width:2px;stroke-width:2;stroke-dasharray:none;stroke-opacity:1"/>
  <path d="m 15.055,27.987 c 0,1.5239 -1.6467,2.7602 -3.6803,2.7602 -2.0322,0 -3.6803,-1.2363 -3.6803,-2.7602 0,-1.5252 1.648,-2.7602 3.6803,-2.7602 2.0335,0 3.6803,1.235 3.6803,2.7602 z m 0,0" fill="none" stroke="#fff" stroke-linecap="round" stroke-linejoin="round" id="path11" style="stroke:#000000;stroke-width:2px;stroke-width:2;stroke-dasharray:none;stroke-opacity:1"/>
  <path d="m 14.134,11.607 c 0,1.1331 -1.2363,2.0518 -2.7628,2.0518 -1.5252,0 -2.7615,-0.91876 -2.7615,-2.0518 0,-1.13304 1.2363,-2.0518 2.7615,-2.0518 1.5265,0 2.7628,0.91876 2.7628,2.0518 z m 0,0" fill="none" stroke="#fff" stroke-linecap="round" stroke-linejoin="round" id="path12" style="stroke:#000000;stroke-width:2px;stroke-width:2;stroke-dasharray:none;stroke-opacity:1"/>
  <path d="M 11.372,11.607 C 11.372,9.2402 11.58176,5.4606 7.9303,4.2975 6.94097,3.98254 5.7747,3.88778 4.5265,3.92283" fill="none" stroke="#fff" stroke-linecap="round" stroke-linejoin="round" id="path13" style="stroke:#000000;stroke-width:2px;stroke-width:2;stroke-dasharray:none;stroke-opacity:1"/>
</svg>
