<?xml version="1.0" encoding="UTF-8"?>
<svg xmlns="http://www.w3.org/2000/svg" id="a" viewBox="0 0 48 48">
  <defs>
    <style>.b{fill:none;stroke:#000;stroke-width:2px;stroke-linecap:round;stroke-linejoin:round;}</style>
  </defs>
  <circle class="b" cx="26.1762" cy="24.4961" r="12.6589"/>
  <polyline class="b" points="22.6366 41.1556 25.3783 41.1556 23.8698 37.0534"/>
  <line class="b" x1="28.8144" y1="36.7433" x2="33.0439" y2="40.8478"/>
  <line class="b" x1="30.6379" y1="40.8478" x2="34.4707" y2="40.8478"/>
  <line class="b" x1="33.6314" y1="31.5876" x2="36.569" y2="34.0775"/>
  <path class="b" d="m33.0486,13.8638c1.4234-4.2796,8.5842-4.7693,8.5842-4.7693"/>
  <path class="b" d="m33.9334,12.3886c2.68-1.4059,7.3916-.1328,8.5666,3.9238-2.0143,1.3988-6.2244.5511-6.2244.5511"/>
  <line class="b" x1="27.2205" y1="17.5992" x2="26.3575" y2="20.0613"/>
  <line class="b" x1="17.6568" y1="19.0821" x2="17.0973" y2="21.3482"/>
  <path class="b" d="m20.0991,21.53c.7751.6015,1.8522.2932,2.2858-.3217"/>
  <line class="b" x1="11.0667" y1="23.3469" x2="11.9122" y2="25.8534"/>
  <line class="b" x1="5.5" y1="6.8444" x2="9.8396" y2="19.7092"/>
  <line class="b" x1="7.0331" y1="18.896" x2="11.5205" y2="17.1855"/>
  <circle class="b" cx="38.0306" cy="35.4839" r="1.9236"/>
  <circle class="b" cx="10.4457" cy="21.5315" r="1.9236"/>
  <line class="b" x1="11.9732" y1="22.697" x2="13.5237" y2="24.098"/>
</svg>
