<?xml version="1.0" encoding="UTF-8"?>
<svg xmlns="http://www.w3.org/2000/svg" id="a" viewBox="0 0 48 48">
  <defs>
    <style>.b{fill:none;stroke:#000;stroke-width:2px;stroke-linecap:round;stroke-linejoin:round;}</style>
  </defs>
  <circle class="b" cx="24" cy="24" r="21.5"/>
  <line class="b" x1="12.3311" y1="20.5" x2="7.0481" y2="27.5"/>
  <line class="b" x1="12.3311" y1="27.5" x2="7.0481" y2="20.5"/>
  <path class="b" d="m35.6689,20.5v4.3585c0,1.4589,1.1826,2.6415,2.6415,2.6415h0c1.4589,0,2.6415-1.1826,2.6415-2.6415v-4.3585"/>
  <line class="b" x1="40.9519" y1="24.8585" x2="40.9519" y2="27.5"/>
  <path class="b" d="m22.3811,23.1415c0-1.4589,1.1826-2.6415,2.6415-2.6415h0c1.4589,0,2.6415,1.1826,2.6415,2.6415v4.3585"/>
  <line class="b" x1="22.3811" y1="20.5" x2="22.3811" y2="27.5"/>
  <path class="b" d="m27.6641,23.1415c0-1.4589,1.1826-2.6415,2.6415-2.6415h0c1.4589,0,2.6415,1.1826,2.6415,2.6415v4.3585"/>
  <path class="b" d="m19.3932,26.167c-.455.7963-1.3124,1.333-2.2952,1.333h0c-1.4589,0-2.6415-1.1826-2.6415-2.6415v-1.717c0-1.4589,1.1826-2.6415,2.6415-2.6415h0c1.4589,0,2.6415,1.1826,2.6415,2.6415v.8585s-5.283,0-5.283,0"/>
</svg>
