<?xml version="1.0" encoding="UTF-8"?><svg id="a" xmlns="http://www.w3.org/2000/svg" viewBox="0 0 48 48"><defs><style>.b{fill:none;stroke:#fff;stroke-linecap:round;stroke-linejoin:round;}</style></defs><line class="b" x1="24" y1="6.5415" x2="24" y2="44"/><path class="b" d="m6.5,4c1.7034,4.627,4.0148,4.4445,7.1952,5.747,1.7141.702,4.3613,2.8948,5.7636,4.11"/><path class="b" d="m17.6346,34.9553c-.5527-1.2856-1.1548-2.6496-1.2363-4.5282-.5208-11.9967-2.7031-20.6802-2.7031-20.6802"/><path class="b" d="m24,43.2444c-1.3386-4.6938-2.4681-11.2879-2.4681-11.2879,0,0-.3625-8.6319-.9761-14.2416,2.0637-3.8466,3.4442-8.5175,3.4442-8.5175"/><path class="b" d="m7.0867,5.3639c1.0029,4.1312,3.0945,4.2228,4.7121,8.7105,1.6175,4.4877,1.6317,17.8122,5.8358,20.8809,0,0-1.5689-20.7435.2627-22.4071"/><path class="b" d="m41.5,4c-1.7034,4.627-4.0148,4.4445-7.1952,5.747-1.7141.702-4.3613,2.8948-5.7636,4.11"/><path class="b" d="m30.3654,34.9553c.5527-1.2856,1.1548-2.6496,1.2363-4.5282.5208-11.9967,2.7031-20.6802,2.7031-20.6802"/><path class="b" d="m24,43.2444c1.3386-4.6938,2.4681-11.2879,2.4681-11.2879,0,0,.3625-8.6319.9761-14.2416-2.0637-3.8466-3.4442-8.5175-3.4442-8.5175"/><path class="b" d="m40.9133,5.3639c-1.0029,4.1312-3.0945,4.2228-4.7121,8.7105-1.6175,4.4877-1.6317,17.8122-5.8358,20.8809,0,0,1.5689-20.7435-.2627-22.4071"/></svg>