<?xml version="1.0" encoding="UTF-8"?><svg id="a" xmlns="http://www.w3.org/2000/svg" viewBox="0 0 48 48"><defs><style>.b{fill:none;stroke:#fff;stroke-linecap:round;stroke-linejoin:round;}</style></defs><path class="b" d="m43.79,15.6c-2.22-5.23-6.46-9.41-11.74-11.53-2.48-1.02-5.2-1.57-8.05-1.57-2.98,0-5.82.61-8.4,1.71-5.23,2.22-9.41,6.46-11.53,11.74-1.02,2.48-1.57,5.2-1.57,8.05,0,2.98.61,5.82,1.71,8.4,2.22,5.23,6.46,9.41,11.74,11.53,2.48,1.02,5.2,1.57,8.05,1.57,2.98,0,5.82-.61,8.4-1.71,5.23-2.22,9.41-6.46,11.53-11.74"/><path class="b" d="m36.43,18.72c-1.39-3.28-4.05-5.9-7.37-7.24-1.56-.63-3.27-.98-5.06-.98-1.87,0-3.66.38-5.28,1.07-3.28,1.39-5.9,4.05-7.24,7.37-.63,1.56-.98,3.27-.98,5.06,0,1.87.38,3.66,1.07,5.28,1.39,3.28,4.05,5.9,7.37,7.24,1.56.63,3.27.98,5.06.98,1.87,0,3.66-.38,5.28-1.07,3.28-1.39,5.9-4.05,7.24-7.37"/><line class="b" x1="43.93" y1="32.05" x2="36.52" y2="29.06"/><line class="b" x1="11.48" y1="18.94" x2="4.07" y2="15.95"/><line class="b" x1="32.4" y1="43.79" x2="29.28" y2="36.43"/><line class="b" x1="18.72" y1="11.57" x2="15.6" y2="4.21"/><line class="b" x1="18.94" y1="36.52" x2="15.95" y2="43.93"/><line class="b" x1="32.05" y1="4.07" x2="29.06" y2="11.48"/><line class="b" x1="11.57" y1="29.28" x2="4.21" y2="32.4"/><line class="b" x1="43.79" y1="15.6" x2="36.43" y2="18.72"/><line class="b" x1="11.48" y1="18.94" x2="4.07" y2="15.95"/><line class="b" x1="43.93" y1="32.05" x2="36.52" y2="29.06"/></svg>