<?xml version="1.0" encoding="UTF-8" standalone="no"?>
<svg
   viewBox="0 0 48 48"
   version="1.1"
   id="svg1"
   xml:space="preserve"
   xmlns="http://www.w3.org/2000/svg"
   xmlns:svg="http://www.w3.org/2000/svg"
   xmlns:rdf="http://www.w3.org/1999/02/22-rdf-syntax-ns#"
   xmlns:cc="http://creativecommons.org/ns#"><defs
     id="defs1"><style
       id="style1">.a{fill:none;stroke:#fff;stroke-linecap:round;stroke-linejoin:round;}</style></defs><path
     style="opacity:1;fill:none;stroke:#ffffff;stroke-width:1.06769;stroke-linecap:round;stroke-linejoin:round;stroke-dasharray:none;stroke-opacity:1"
     d="m 58.161888,202.24604 c 2.269108,-1.15215 2.455524,-2.11126 3.311215,-3.78768 1.000624,-1.96036 2.070459,-3.6735 3.037094,-4.86332 1.115822,-1.37347 1.269228,-1.61793 1.828988,-2.9147 0.281654,-0.65249 0.786977,-1.61074 1.122938,-2.12943 l 0.61084,-0.94309 -0.79023,-0.77671 c -1.049647,-1.03168 -1.922751,-2.2016 -2.087012,-2.79651 -0.167761,-0.60758 0.03021,-0.9466 0.818744,-1.40207 0.797354,-0.46057 1.367585,-0.5929 3.498657,-0.81193 1.037629,-0.10665 2.164153,-0.30199 2.518962,-0.43681 0.353024,-0.13414 1.407825,-0.70824 2.344001,-1.27579 2.702947,-1.63863 2.931619,-1.72344 4.552111,-1.68831 1.368686,0.0297 1.371262,0.0291 2.182813,-0.46143 1.700674,-1.02802 4.14305,-2.88289 7.357044,-5.58733 0.61632,-0.5186 1.21002,-0.92569 1.31934,-0.90464 0.45462,0.0876 1.289567,2.13636 1.416407,3.47562 0.07693,0.81225 -0.08023,1.6155 -0.562014,2.87261 -0.13146,0.34301 -0.19208,0.67043 -0.134706,0.7276 0.13774,0.13726 0.610706,-0.4535 0.610706,-0.76279 0,-0.39435 0.261127,-0.43936 0.616327,-0.10623 0.258235,0.24218 0.480842,0.31151 1.000202,0.31151 0.567073,0 0.707447,0.0526 0.928773,0.3479 0.375574,0.50112 0.463647,1.86688 0.176201,2.73231 -0.279641,0.84191 -1.124801,1.81287 -1.891829,2.17341 -0.686334,0.32262 -2.075841,1.67928 -2.726081,2.66164 -0.248906,0.37604 -0.715586,1.15995 -1.037066,1.74204 -0.321487,0.58208 -0.86074,1.46154 -1.19834,1.95436 -0.664294,0.96972 -1.233147,2.3224 -1.782214,4.23798 -0.322553,1.1253 -0.34962,1.41826 -0.362953,3.92797 -0.01613,3.0317 -0.172894,3.77561 -0.9925,4.7091 -0.931805,1.06126 -1.861937,3.39186 -1.940127,4.8613 -0.04935,0.92751 -0.192246,1.83164 -0.395304,2.50122"
     id="path847"
     transform="matrix(0.93660092,0,0,0.93660086,-47.156585,-151.86073)" /><circle
     class="a"
     id="circle1"
     style="display:inline;stroke-width:1;stroke-dasharray:none"
     cy="24"
     cx="24"
     r="21.5" /><metadata
     id="metadata1"><rdf:RDF><cc:Work
         rdf:about="" /></rdf:RDF></metadata></svg>
