<?xml version="1.0" encoding="UTF-8"?>
<svg id="a" version="1.1" viewBox="0 0 48 48" xmlns="http://www.w3.org/2000/svg">
 <defs id="defs1">
  <style id="style1">.b{fill:none;stroke:#fff;stroke-width:2px;stroke-linecap:round;stroke-linejoin:round;}</style>
 </defs>
 <path id="path1" d="m24 3.5059c-0.7763 0-1.5525 0.2912-2.1426 0.87305-3.4124 3.3607-7.8442 4.0173-11.848 4.1406-1.8124 0.050682-3.3069 1.4843-3.4336 3.293-0.33168 4.0485-0.35762 8.1158-0.074219 12.168a1.0001 1.0001 0 0 0 0.00391 0.03906c1.0555 9.6269 7.8118 17.201 17.168 20.426a1.0001 1.0001 0 0 0 0.65234 0c9.3561-3.2253 16.112-10.799 17.168-20.426a1.0001 1.0001 0 0 0 0.0039-0.03906c0.28362-4.0508 0.25881-8.1168-0.07226-12.164-0.12443-1.8109-1.6197-3.2461-3.4336-3.2969-4.004-0.12332-8.4376-0.77961-11.85-4.1406-0.59005-0.58185-1.3663-0.87305-2.1426-0.87305zm0 1.9883c0.2648 0 0.52953 0.10274 0.73828 0.30859 3.937 3.8782 9.0132 4.5862 13.191 4.7148a1.0001 1.0001 0 0 0 0.0039 0c0.80296 0.0214 1.443 0.63416 1.498 1.4355a1.0001 1.0001 0 0 0 0 0.01367c0.32323 3.9431 0.34545 7.9049 0.07031 11.852-0.96017 8.6974-6.9651 15.505-15.502 18.576-8.5368-3.0709-14.542-9.8788-15.502-18.576-0.27484-3.9468-0.25321-7.9085 0.070312-11.852a1.0001 1.0001 0 0 0 0.00195-0.01367c0.055065-0.80139 0.69313-1.4141 1.4961-1.4355a1.0001 1.0001 0 0 0 0.0039 0c4.1778-0.12869 9.2541-0.83716 13.191-4.7148 0.20875-0.20585 0.47348-0.30859 0.73828-0.30859z" color="#000000" fill="#fff" stroke-linecap="round" stroke-linejoin="round" style="-inkscape-stroke:none"/>
</svg>
