<?xml version="1.0" encoding="UTF-8"?>
<svg id="a" version="1.1" viewBox="0 0 48 48" xmlns="http://www.w3.org/2000/svg">
 <defs id="defs1">
  <style id="style1">.b{fill:none;stroke:#fff;stroke-linecap:round;stroke-linejoin:round;}.c{fill:#fff;stroke-width:2px;}</style>
 </defs>
 <path id="path1" d="m12.5 4c-2.4793 0-4.5 2.0207-4.5 4.5v31c0 2.4793 2.0207 4.5 4.5 4.5h23c2.4793 0 4.5-2.0207 4.5-4.5v-31c0-2.4793-2.0207-4.5-4.5-4.5zm0 1h23c1.9389 0 3.5 1.5611 3.5 3.5v31c0 1.9389-1.5611 3.5-3.5 3.5h-23c-1.9389 0-3.5-1.5611-3.5-3.5v-31c0-1.9389 1.5611-3.5 3.5-3.5z" fill="#fff" stroke-linecap="round" stroke-linejoin="round"/>
 <circle id="circle1" class="c" cx="24" cy="34.66" r="1.5"/>
 <path id="path2" d="m24 12.439c-4.0092 0-7.2695 3.2623-7.2695 7.2715a0.5 0.5 0 0 0 0.5 0.5 0.5 0.5 0 0 0 0.5-0.5c0-3.4688 2.8007-6.2715 6.2695-6.2715s6.2695 2.8027 6.2695 6.2715a0.50005 0.50005 0 0 0 2e-3 0.02148c0.0758 1.6639-0.59711 3.2731-1.832 4.3906-0.65489 0.52138-1.8727 1.2828-2.9414 2.2852-1.0751 1.0084-2.0371 2.3061-2.0371 3.9219v0.81055a0.5 0.5 0 0 0 0.5 0.5 0.5 0.5 0 0 0 0.5-0.5v-0.81055c0-1.2142 0.74077-2.2723 1.7207-3.1914 0.97993-0.91913 2.1523-1.6496 2.9004-2.248a0.50005 0.50005 0 0 0 0.02344-0.01953c1.4566-1.3148 2.2477-3.2119 2.1621-5.1719-0.006699-4.0036-3.2625-7.2598-7.2676-7.2598z" fill="#fff" stroke-linecap="round" stroke-linejoin="round"/>
</svg>
