<?xml version="1.0" encoding="UTF-8" standalone="no"?>
<svg
   viewBox="0 0 48 48"
   version="1.1"
   id="svg1"
   sodipodi:docname="audio-volume-high.svg"
   xmlns:inkscape="http://www.inkscape.org/namespaces/inkscape"
   xmlns:sodipodi="http://sodipodi.sourceforge.net/DTD/sodipodi-0.dtd"
   xmlns="http://www.w3.org/2000/svg"
   xmlns:svg="http://www.w3.org/2000/svg">
  <sodipodi:namedview
     id="namedview1"
     pagecolor="#ffffff"
     bordercolor="#666666"
     borderopacity="1.0"
     inkscape:showpageshadow="2"
     inkscape:pageopacity="0.0"
     inkscape:pagecheckerboard="0"
     inkscape:deskcolor="#d1d1d1" />
  <defs
     id="defs1">
    <style
       id="style1">.a{fill:none;stroke:#000;stroke-width:2px;stroke-linecap:round;stroke-linejoin:round;}</style>
  </defs>
  <path
     style="color:#000000;fill:#000000;stroke-linecap:round;stroke-linejoin:round;-inkscape-stroke:none"
     d="m 26.769531,6.1601562 a 1,1 0 0 0 -1,1 1,1 0 0 0 1,1.0000001 c 8.760033,0 15.839844,7.0798167 15.839844,15.8398437 0,8.760027 -7.079811,15.839844 -15.839844,15.839844 a 1,1 0 0 0 -1,1 1,1 0 0 0 1,1 c 9.840912,0 17.839844,-7.99894 17.839844,-17.839844 0,-9.840904 -7.998932,-17.8398438 -17.839844,-17.8398438 z m -6.910156,0.359375 a 1.0001,1.0001 0 0 0 -0.160156,0.037109 C 18.80548,6.8380524 18.011983,7.3700433 17.412109,8.0898438 L 17.472656,8.0234375 5.0136719,20.482422 a 1.0001,1.0001 0 0 0 -0.019531,0.02148 c -1.8485392,1.955023 -1.8485392,5.037165 0,6.992188 a 1.0001,1.0001 0 0 0 0.019531,0.02148 L 17.453125,39.947266 a 1.0001,1.0001 0 0 0 0.0059,0.0059 c 0.541734,0.533608 1.031876,0.934382 1.550782,1.205078 0.518906,0.270696 1.15965,0.433742 1.779296,0.179688 0.619647,-0.254055 0.964635,-0.825237 1.138672,-1.384766 C 22.101771,39.393596 22.160156,38.761811 22.160156,38 V 9.9707031 c 0,-0.9492847 -0.07591,-1.6977619 -0.386719,-2.3554687 C 21.618034,7.286381 21.381784,6.9659791 21.029297,6.75 20.67681,6.5340209 20.235765,6.4657612 19.859375,6.5195312 Z m 0.130859,2.1503907 c 0.07372,0.2253828 0.169922,0.606375 0.169922,1.3007812 V 38 c 0,0.643187 -0.06662,1.115155 -0.142578,1.359375 -0.07596,0.24422 -0.105975,0.176008 0.01367,0.126953 0.119647,-0.04906 0.13539,0.02094 -0.0957,-0.09961 -0.22971,-0.119832 -0.613726,-0.406791 -1.06836,-0.853516 l -0.0059,-0.0059 L 6.4472656,26.123047 c -1.1331428,-1.198417 -1.1331428,-3.047677 0,-4.246094 L 18.886719,9.4375 a 1.0001,1.0001 0 0 0 0.06055,-0.066406 c 0.273409,-0.3280696 0.658738,-0.5220961 1.042968,-0.7011719 z m 6.779297,3.1093751 a 1,1 0 0 0 -1,1 1,1 0 0 0 1,1 c 5.656194,0 10.220703,4.564513 10.220703,10.220703 0,5.65619 -4.564509,10.220703 -10.220703,10.220703 a 1,1 0 0 0 -1,1 1,1 0 0 0 1,1 c 6.737072,0 12.220703,-5.483636 12.220703,-12.220703 0,-6.737067 -5.483631,-12.220703 -12.220703,-12.220703 z m 0.0098,5.291015 a 1,1 0 0 0 -1,1 1,1 0 0 0 1,1 c 2.734608,0 4.93164,2.195081 4.93164,4.929688 0,2.734607 -2.197032,4.929687 -4.93164,4.929687 a 1,1 0 0 0 -1,1 1,1 0 0 0 1,1 c 3.815487,10e-7 6.93164,-3.114203 6.93164,-6.929687 0,-3.815484 -3.116153,-6.929687 -6.93164,-6.929688 z"
     id="path1" />
</svg>
