<?xml version="1.0" encoding="UTF-8"?>
<svg id="svg1" width="48" height="48" version="1.1" xmlns="http://www.w3.org/2000/svg">
 <style id="style1">.b{fill:none;stroke:#000;stroke-width:2px;stroke-linecap:round;stroke-linejoin:round;}</style>
 <path id="path1" d="m23.848 3.5762a1.0001 1.0001 0 0 0-0.61719 0.92383v17.078l-8.5488-8.5a1 1 0 0 0-1.4141 0.0039 1 1 0 0 0 0.0039 1.416l9.5566 9.502-9.5566 9.502a1 1 0 0 0-0.0039 1.416 1 1 0 0 0 1.4141 0.0039l8.5488-8.5v17.078a1.0001 1.0001 0 0 0 1.707 0.70703l9.793-9.7793a1.0001 1.0001 0 0 0-2e-3 -1.416l-9.0625-9.0117 9.0625-9.0117a1.0001 1.0001 0 0 0 2e-3 -1.416l-9.793-9.7793a1.0001 1.0001 0 0 0-1.0898-0.2168zm1.3828 3.3359 7.377 7.3652-7.377 7.334zm7.9766 11.49a1 1 0 0 0-1.4141 2e-3 1 1 0 0 0 0 1.4141l4.1875 4.1816-4.1875 4.1816a1 1 0 0 0 0 1.4141 1 1 0 0 0 1.4141 2e-3l4.1895-4.1836 4.1895 4.1836a1 1 0 0 0 1.4141-2e-3 1 1 0 0 0 0-1.4141l-4.1875-4.1816 4.1875-4.1816a1 1 0 0 0 0-1.4141 1 1 0 0 0-1.4141-2e-3l-4.1895 4.1836zm-7.9766 7.9863 7.377 7.334-7.377 7.3652z" stroke-linecap="round" stroke-linejoin="round"/>
</svg>
