<?xml version="1.0" encoding="UTF-8"?>
<svg id="a" version="1.1" viewBox="0 0 48 48" xmlns="http://www.w3.org/2000/svg">
 <defs id="defs1">
  <style id="style1">.b{fill:none;stroke:#000;stroke-width:2px;stroke-linecap:round;stroke-linejoin:round;}</style>
 </defs>
 <path id="polyline1" d="m21.807 3.5762a1.0001 1.0001 0 0 0-0.61719 0.92383v17.08l-8.5508-8.502a1 1 0 0 0-1.4141 0.0039 1 1 0 0 0 0.0039 1.4141l9.5586 9.5039-9.5586 9.5039a1 1 0 0 0-0.0039 1.4141 1 1 0 0 0 1.4141 0.0039l8.5508-8.502v17.08a1.0001 1.0001 0 0 0 1.7051 0.70703l9.7949-9.7773a1.0001 1.0001 0 0 0-2e-3 -1.418l-9.0644-9.0117 9.0645-9.0117a1.0001 1.0001 0 0 0 2e-3 -1.418l-9.795-9.7773a1.0001 1.0001 0 0 0-1.0879-0.2168zm1.3828 3.3359 7.377 7.3652-7.377 7.334zm0 19.477 7.377 7.334-7.377 7.3652z" stroke-linecap="round" stroke-linejoin="round"/>
 <path id="path1" d="m31.035 19.57a1 1 0 0 0-0.6582 0.38867 1 1 0 0 0 0.19922 1.4004c0.38213 0.28657 1.0821 1.6226 0.97656 3.0215-0.11186 1.0134-0.79033 1.9736-0.97656 2.1133a1 1 0 0 0-0.19922 1.3984 1 1 0 0 0 1.4004 0.20117c0.91212-0.68426 1.6-1.9211 1.7676-3.5137a1.0001 1.0001 0 0 0 0.0039-0.02344c0.16253-2.0305-0.50595-3.8478-1.7715-4.7969a1 1 0 0 0-0.74219-0.18945z" stroke-linecap="round" stroke-linejoin="round"/>
 <path id="path2" d="m34.188 17.084a1 1 0 0 0-1.4004 0.18945 1 1 0 0 0 0.18945 1.4023c0.99185 0.75567 2.1928 3.3404 2.0762 6.1445-0.18728 2.045-1.2991 3.7751-2.0703 4.3535a1 1 0 0 0-0.20117 1.3984 1 1 0 0 0 1.4004 0.20117c1.4248-1.0685 2.6402-3.1791 2.8711-5.7969a1.0001 1.0001 0 0 0 2e-3 -0.04297c0.14986-3.3701-0.97606-6.4088-2.8672-7.8496z" stroke-linecap="round" stroke-linejoin="round"/>
</svg>
