<?xml version="1.0" encoding="UTF-8"?>
<svg id="a" width="48" height="48" version="1.1" viewBox="0 0 48 48" xmlns="http://www.w3.org/2000/svg">
 <defs id="defs1">
  <style id="style1">.b{fill:none;stroke:#fff;stroke-width:2px;stroke-linecap:round;stroke-linejoin:round;}</style>
 </defs>
 <path id="polyline1" d="m23.848 3.5762a1.0001 1.0001 0 0 0-0.61719 0.92383v17.08l-8.5508-8.502a1 1 0 0 0-1.4141 0.0039 1 1 0 0 0 0.0059 1.4141l9.5586 9.5039-9.5586 9.5039a1 1 0 0 0-0.0059 1.4141 1 1 0 0 0 1.4141 0.0039l8.5508-8.502v17.08a1.0001 1.0001 0 0 0 1.707 0.70703l9.793-9.7773a1.0001 1.0001 0 0 0-2e-3 -1.418l-9.0644-9.0117 9.0645-9.0117a1.0001 1.0001 0 0 0 2e-3 -1.418l-9.793-9.7773a1.0001 1.0001 0 0 0-1.0898-0.2168zm1.3828 3.334 7.3789 7.3672-7.3789 7.3359zm0 19.477 7.3789 7.3359-7.3789 7.3672z" color="#000000" stroke-linecap="round" stroke-linejoin="round" style="-inkscape-stroke:none"/>
 <path id="path1" d="m33.207 18.402a1 1 0 0 0-1.4141 2e-3 1 1 0 0 0 0 1.4141l9.793 9.7793a1 1 0 0 0 1.4141-2e-3 1 1 0 0 0 0-1.4141z" color="#000000" stroke-linecap="round" stroke-linejoin="round" style="-inkscape-stroke:none"/>
 <path id="path2" d="m41.586 18.402-9.793 9.7793a1 1 0 0 0 0 1.4141 1 1 0 0 0 1.4141 2e-3l9.793-9.7793a1 1 0 0 0 0-1.4141 1 1 0 0 0-1.4141-2e-3z" color="#000000" stroke-linecap="round" stroke-linejoin="round" style="-inkscape-stroke:none"/>
</svg>
