<?xml version="1.0" encoding="UTF-8"?>
<svg xmlns="http://www.w3.org/2000/svg" viewBox="0 0 48 48">
  <defs>
    <style>.c{fill:none;stroke:#fff;stroke-width:2px;stroke-linecap:round;stroke-linejoin:round;}</style>
  </defs>
  <g id="a">
    <path class="c" d="m39.5,15.5h-9c-1.1046,0-2-.8954-2-2V4.5H10.5c-1.1046,0-2,.8954-2,2v35c0,1.1046.8954,2,2,2h27c1.1046,0,2-.8954,2-2V15.5Z"/>
    <line class="c" x1="28.5" y1="4.5" x2="39.5" y2="15.5"/>
  </g>
  <g id="b">
    <path class="c" d="m31.7367,30.516c.0443-.3369.068-.6762.0711-1.016-.0031-.3398-.0269-.6791-.0711-1.016l2.1996-1.7221c.2057-.1571.2604-.4437.127-.6655l-2.0828-3.6118c-.1248-.2242-.3972-.3201-.635-.2235l-2.5958,1.0465c-.5401-.4122-1.1308-.7537-1.7576-1.016l-.3912-2.7584c-.0357-.2525-.253-.4394-.508-.4369h-4.1757c-.255-.0025-.4723.1844-.508.4369l-.3912,2.7584c-.6276.2607-1.2185.6022-1.7576,1.016l-2.606-1.0465c-.2377-.0966-.5102-.0007-.635.2235l-2.0828,3.6118c-.1334.2218-.0787.5084.127.6655l2.1945,1.7221c-.0441.3369-.0678.6762-.0711,1.016.0031.3398.0269.6791.0711,1.016l-2.1945,1.7221c-.2057.1571-.2604.4437-.127.6655l2.0828,3.6118c.1248.2242.3973.3201.635.2235l2.5958-1.0465c.5401.4122,1.1308.7537,1.7576,1.016l.3912,2.7584c.0357.2525.253.4394.508.4369h4.1655c.255.0025.4723-.1844.508-.4369l.3912-2.7584c.6276-.2607,1.2185-.6022,1.7576-1.016l2.5958,1.0465c.2377.0966.5102.0007.635-.2235l2.0828-3.6118c.1334-.2218.0787-.5084-.127-.6655l-2.1793-1.7221Zm-7.7367,2.6314c-2.0144.0028-3.6496-1.6279-3.6524-3.6423-.0028-2.0144,1.6279-3.6496,3.6423-3.6524,2.0144-.0028,3.6496,1.6279,3.6524,3.6423,0,.0017,0,.0034,0,.0051.0028,2.0116-1.6256,3.6445-3.6372,3.6474-.0017,0-.0034,0-.0051,0Z"/>
  </g>
</svg>
