<?xml version='1.0' encoding='UTF-8'?>
<svg xmlns="http://www.w3.org/2000/svg" viewBox="0 0 48 48"><defs><style>.c{fill:none;stroke:#fff;stroke-width:2px;stroke-linecap:round;stroke-linejoin:round;}</style></defs><g id="a"><path class="c" d="m39.5,15.5h-9c-1.1046,0-2-.8954-2-2V4.5H10.5c-1.1046,0-2,.8954-2,2v35c0,1.1046.8954,2,2,2h27c1.1046,0,2-.8954,2-2V15.5Z"/><line class="c" x1="28.5" y1="4.5" x2="39.5" y2="15.5"/></g><g id="b"><line class="c" x1="14" y1="27.8072" x2="21.6729" y2="27.8072"/><line class="c" x1="14" y1="31.1928" x2="34" y2="31.1928"/><line class="c" x1="14" y1="34.5783" x2="34" y2="34.5783"/><line class="c" x1="14" y1="37.9638" x2="34" y2="37.9638"/><line class="c" x1="14" y1="21.0362" x2="21.6729" y2="21.0362"/><line class="c" x1="14" y1="24.4217" x2="21.6729" y2="24.4217"/><rect class="c" x="24.6729" y="21.0362" width="9.3271" height="6.771"/></g></svg>