<?xml version="1.0" encoding="UTF-8"?>
<svg id="svg8" version="1.1" viewBox="0 0 48 48" xmlns="http://www.w3.org/2000/svg">
 <defs id="defs4">
  <style id="style2">.a{fill:none;stroke:#fff;stroke-linecap:round;stroke-linejoin:round;}</style>
 </defs>
 <path id="path6" d="m26.77 6.1602a1 1 0 0 0-1 1 1 1 0 0 0 1 1c8.76 0 15.84 7.0798 15.84 15.84s-7.0798 15.84-15.84 15.84a1 1 0 0 0-1 1 1 1 0 0 0 1 1c9.8409 0 17.84-7.9989 17.84-17.84s-7.9989-17.84-17.84-17.84zm-6.9102 0.35938a1.0001 1.0001 0 0 0-0.16016 0.037109c-0.89374 0.28141-1.6872 0.8134-2.2871 1.5332l0.060547-0.066406-12.459 12.459a1.0001 1.0001 0 0 0-0.019531 0.02148c-1.8485 1.955-1.8485 5.0372 0 6.9922a1.0001 1.0001 0 0 0 0.019531 0.02148l12.439 12.43a1.0001 1.0001 0 0 0 0.0059 0.0059c0.54173 0.53361 1.0319 0.93438 1.5508 1.2051s1.1596 0.43374 1.7793 0.17969c0.61965-0.25406 0.96464-0.82524 1.1387-1.3848 0.174-0.55957 0.23238-1.1914 0.23238-1.9532v-28.029c0-0.94928-0.07591-1.6978-0.38672-2.3555-0.1554-0.32885-0.39165-0.64926-0.74414-0.86523s-0.79353-0.28424-1.1699-0.23047zm0.13086 2.1504c0.07372 0.22538 0.16992 0.60638 0.16992 1.3008v28.029c0 0.64319-0.06662 1.1152-0.14258 1.3594-0.07596 0.24422-0.10598 0.17601 0.01367 0.12695 0.11965-0.04906 0.13539 0.02094-0.0957-0.09961-0.22971-0.11983-0.61373-0.40679-1.0684-0.85352l-0.0059-0.0059-12.414-12.404c-1.1331-1.1984-1.1331-3.0477 0-4.2461l12.439-12.439a1.0001 1.0001 0 0 0 0.06055-0.066406c0.27341-0.32807 0.65874-0.5221 1.043-0.70117zm6.7793 3.1094a1 1 0 0 0-1 1 1 1 0 0 0 1 1c5.6562 0 10.221 4.5645 10.221 10.221s-4.5645 10.221-10.221 10.221a1 1 0 0 0-1 1 1 1 0 0 0 1 1c6.7371 0 12.221-5.4836 12.221-12.221s-5.4836-12.221-12.221-12.221zm0.0098 5.291a1 1 0 0 0-1 1 1 1 0 0 0 1 1c2.7346 0 4.9316 2.1951 4.9316 4.9297s-2.197 4.9297-4.9316 4.9297a1 1 0 0 0-1 1 1 1 0 0 0 1 1c3.8155 1e-6 6.9316-3.1142 6.9316-6.9297s-3.1162-6.9297-6.9316-6.9297z" color="#000000" fill="#fff" stroke-linecap="round" stroke-linejoin="round" style="-inkscape-stroke:none"/>
</svg>
