<?xml version="1.0" encoding="UTF-8"?>
<svg id="Layer_2" data-name="Layer 2" version="1.1" viewBox="0 0 48 48" xmlns="http://www.w3.org/2000/svg">
 <defs id="defs1">
  <style id="style1">.cls-1{fill:none;stroke:#000;stroke-width:2px;stroke-linecap:round;stroke-linejoin:round;}</style>
 </defs>
 <path id="path1" d="m24.352 1.5508c-0.92254-0.01035-1.8458 0.031312-2.7637 0.125a1.0001 1.0001 0 0 0-0.0059 0c-10.71 1.1648-19.102 9.7743-19.99 20.51-0.88859 10.735 5.9734 20.605 16.346 23.516 10.372 2.9107 21.367-1.9478 26.193-11.578 4.8097-9.5969 2.1519-21.262-6.3184-27.842-0.47879-0.46217-1.2663-0.46257-1.7422 0.0039062a1.0001 1.0001 0 0 0-0.09961 0.11523c-0.16219 0.21626-0.25 0.47968-0.25 0.75v3.6094a1.0001 1.0001 0 0 0 0.25586 0.66797c4.4717 4.983 5.0451 12.332 1.4023 17.949-3.6428 5.6167-10.587 8.0894-16.961 6.0391-7.2593-2.3352-10.548-8.6193-10.258-14.795 0.29017-6.1756 4.1542-12.121 11.605-13.764l-0.08008 0.00781a1.0001 1.0001 0 0 0 0.67383-0.28125l2.8594-2.8789-0.18945 0.14844c0.57206-0.34848 0.75936-1.1214 0.41602-1.6953-0.25665-0.42892-0.7509-0.66763-1.2461-0.59766zm-1.8789 2.082-1.2383 1.248h0.31641a1.0001 1.0001 0 0 0-0.2168 0.023437c-8.3117 1.8321-12.845 8.6588-13.172 15.623-0.32723 6.9642 3.5462 14.186 11.645 16.791 7.2243 2.324 15.121-0.48668 19.25-6.8535 4.0403-6.2297 3.4374-14.332-1.3359-19.971v-1.5879c6.7721 6.1305 8.7741 16.034 4.6211 24.32-4.4027 8.7847-14.401 13.204-23.863 10.549-9.4623-2.6553-15.705-11.631-14.895-21.424 0.81058-9.7929 8.4446-17.625 18.215-18.687 0.22389-0.022775 0.44942-0.015206 0.67383-0.03125z" stroke-linecap="round" stroke-linejoin="round"/>
 <path id="path2" d="m30.729 3.1133c-0.35735 0.094295-0.69459 0.29919-0.93945 0.61523l-9.9844 12.799c-2.5162 3.0873-2.0574 7.659 1.0215 10.186a1.0001 1.0001 0 0 0 0.03125 0.02539c0.57736 0.43536 1.2152 0.78587 1.8926 1.0391a1.0001 1.0001 0 0 0 0.01953 0.0059c1.5832 0.55532 3.3074 0.55532 4.8906 0a1.0001 1.0001 0 0 0 0.01758-0.0059c2.756-1.0244 4.6067-3.6422 4.6523-6.582l0.60937-16.311c0.036335-0.79878-0.50169-1.492-1.1504-1.7305-0.32435-0.11925-0.7032-0.13531-1.0605-0.041016zm0.18555 2.4258-0.58398 15.604a1.0001 1.0001 0 0 0 0 0.02148c-0.03289 2.1193-1.3566 3.9933-3.3418 4.7344-1.1492 0.40068-2.3976 0.40068-3.5469 0-0.48704-0.18294-0.94276-0.43649-1.3594-0.74805-2.2309-1.8448-2.5571-5.1133-0.72656-7.3594a1.0001 1.0001 0 0 0 0.01367-0.01563z" stroke-linecap="round" stroke-linejoin="round"/>
</svg>
