<?xml version="1.0" encoding="UTF-8" standalone="no"?>
<svg
   id="Layer_2"
   data-name="Layer 2"
   viewBox="0 0 48 48"
   version="1.1"
   sodipodi:docname="accessories-text-editor.svg"
   xmlns:inkscape="http://www.inkscape.org/namespaces/inkscape"
   xmlns:sodipodi="http://sodipodi.sourceforge.net/DTD/sodipodi-0.dtd"
   xmlns="http://www.w3.org/2000/svg"
   xmlns:svg="http://www.w3.org/2000/svg">
  <sodipodi:namedview
     id="namedview6"
     pagecolor="#ffffff"
     bordercolor="#666666"
     borderopacity="1.0"
     inkscape:showpageshadow="2"
     inkscape:pageopacity="0.0"
     inkscape:pagecheckerboard="0"
     inkscape:deskcolor="#d1d1d1" />
  <defs
     id="defs1">
    <style
       id="style1">.cls-1{fill:none;stroke:#fff;stroke-width:2px;stroke-linecap:round;stroke-linejoin:round;}</style>
  </defs>
  <path
     style="color:#000000;fill:#ffffff;stroke-linecap:round;stroke-linejoin:round;-inkscape-stroke:none"
     d="m 10.5,3.5 c -1.645008,0 -3,1.354992 -3,3 v 35 c 0,1.645008 1.354992,3 3,3 h 27 c 1.645008,0 3,-1.354992 3,-3 v -26 a 1.0001,1.0001 0 0 0 -1,-1 h -9 c -0.564129,0 -1,-0.435871 -1,-1 v -9 a 1.0001,1.0001 0 0 0 -1,-1 z m 0,2 h 17 v 8 c 0,1.645008 1.354992,3 3,3 h 8 v 25 c 0,0.564129 -0.435871,1 -1,1 h -27 c -0.5641288,0 -1,-0.435871 -1,-1 v -35 c 0,-0.5641288 0.4358712,-1 1,-1 z"
     id="path1" />
  <path
     style="color:#000000;fill:#ffffff;stroke-linecap:round;stroke-linejoin:round;-inkscape-stroke:none"
     d="m 27.792969,3.7929688 a 1,1 0 0 0 0,1.4140624 l 11,10.9999998 a 1,1 0 0 0 1.414062,0 1,1 0 0 0 0,-1.414062 l -11,-11.0000002 a 1,1 0 0 0 -1.414062,0 z"
     id="line1" />
  <path
     style="color:#000000;fill:#ffffff;stroke-linecap:round;stroke-linejoin:round;-inkscape-stroke:none"
     d="m 13.960938,14 a 1,1 0 0 0 -1,1 1,1 0 0 0 1,1 h 8.699218 a 1,1 0 0 0 1,-1 1,1 0 0 0 -1,-1 z"
     id="line2" />
  <path
     style="color:#000000;fill:#ffffff;stroke-linecap:round;stroke-linejoin:round;-inkscape-stroke:none"
     d="m 13.960938,36.019531 a 1,1 0 0 0 -1,1 1,1 0 0 0 1,1 h 5.628906 a 1,1 0 0 0 1,-1 1,1 0 0 0 -1,-1 z"
     id="line3" />
  <path
     style="color:#000000;fill:#ffffff;stroke-linecap:round;stroke-linejoin:round;-inkscape-stroke:none"
     d="m 13.960938,19.5 a 1,1 0 0 0 -1,1 1,1 0 0 0 1,1 h 17.36914 a 1,1 0 0 0 1,-1 1,1 0 0 0 -1,-1 z"
     id="line4" />
  <path
     style="color:#000000;fill:#ffffff;stroke-linecap:round;stroke-linejoin:round;-inkscape-stroke:none"
     d="m 13.960938,25.009766 a 1,1 0 0 0 -1,1 1,1 0 0 0 1,1 h 17.36914 a 1,1 0 0 0 1,-1 1,1 0 0 0 -1,-1 z"
     id="line5" />
  <path
     style="color:#000000;fill:#ffffff;stroke-linecap:round;stroke-linejoin:round;-inkscape-stroke:none"
     d="m 13.960938,30.519531 a 1,1 0 0 0 -1,1 1,1 0 0 0 1,1 h 17.36914 a 1,1 0 0 0 1,-1 1,1 0 0 0 -1,-1 z"
     id="line6" />
</svg>
