<?xml version="1.0" encoding="UTF-8"?>
<svg id="svg2" version="1.1" viewBox="0 0 48 48" xmlns="http://www.w3.org/2000/svg">
 <defs id="defs1">
  <style id="style1">.a{fill:none;stroke:#fff;stroke-width:2px;stroke-linecap:round;stroke-linejoin:round;}</style>
 </defs>
 <path id="path1" d="m5.5 4.5a1.0001 1.0001 0 0 0-1 1v8.0723a1.0001 1.0001 0 0 0 1 1c15.436-1.07e-4 27.928 12.492 27.928 27.928a1.0001 1.0001 0 0 0 1 1h8.0723a1.0001 1.0001 0 0 0 1-1c0-20.975-17.025-38-38-38zm1 2.1016c19.079 0.53219 34.366 15.819 34.898 34.898h-6.0723c-0.52884-15.704-13.123-28.297-28.826-28.826z" color="#000000" fill="#fff" stroke-linecap="round" stroke-linejoin="round" style="-inkscape-stroke:none"/>
 <path id="path2" d="m5.5 17.281a1.0001 1.0001 0 0 0-1 1v7.4004a1.0001 1.0001 0 0 0 1 1c8.7479 5.2e-5 15.818 7.0705 15.818 15.818a1.0001 1.0001 0 0 0 1 1h7.4004a1.0001 1.0001 0 0 0 1-1c-1.15e-4 -13.916-11.303-25.219-25.219-25.219zm1 2.1016c12.02 0.51943 21.598 10.097 22.117 22.117h-5.4004c-0.51091-9.0177-7.6991-16.206-16.717-16.717z" color="#000000" fill="#fff" stroke-linecap="round" stroke-linejoin="round" style="-inkscape-stroke:none"/>
 <path id="circle2" d="m10.246 32.01c-3.1612 0-5.7461 2.5849-5.7461 5.7461 0 3.1612 2.5849 5.7441 5.7461 5.7441 3.1612 0 5.7441-2.5829 5.7441-5.7441 0-3.1612-2.5829-5.7461-5.7441-5.7461zm0 2c2.0803 0 3.7441 1.6658 3.7441 3.7461 0 2.0803-1.6638 3.7441-3.7441 3.7441-2.0803 0-3.7461-1.6638-3.7461-3.7441 0-2.0803 1.6658-3.7461 3.7461-3.7461z" color="#000000" fill="#fff" stroke-linecap="round" stroke-linejoin="round" style="-inkscape-stroke:none"/>
</svg>
