<?xml version="1.0" encoding="UTF-8"?>
<svg id="Layer_2" data-name="Layer 2" version="1.1" viewBox="0 0 48 48" xmlns="http://www.w3.org/2000/svg">
 <defs id="defs1">
  <style id="style1">.cls-1{fill:none;stroke:#fff;stroke-linecap:round;stroke-linejoin:round;}</style>
 </defs>
 <path id="path1" d="m7.4355 4.5c-1.6123-0.0084197-2.944 1.3232-2.9355 2.9355v33.129c-0.0084197 1.6123 1.3232 2.944 2.9355 2.9355h33.129c1.6123 0.00842 2.944-1.3232 2.9355-2.9355v-33.129c0.00842-1.6123-1.3232-2.944-2.9355-2.9355zm-0.011719 2a1.0001 1.0001 0 0 0 0.00586 0h33.141a1.0001 1.0001 0 0 0 0.0059 0c0.52405-0.0027368 0.92652 0.39974 0.92379 0.92383a1.0001 1.0001 0 0 0 0 0.00586v33.141a1.0001 1.0001 0 0 0 0 0.0059c0.0027 0.52409-0.39974 0.92656-0.92383 0.92383a1.0001 1.0001 0 0 0-0.0059 0h-33.141a1.0001 1.0001 0 0 0-0.00586 0c-0.52409 0.002697-0.92656-0.39978-0.92383-0.92387a1.0001 1.0001 0 0 0 0-0.0059v-33.141a1.0001 1.0001 0 0 0 0-0.00586c-0.0027368-0.52409 0.39974-0.92656 0.92383-0.92383zm3.6367 15.545a1 1 0 0 0-1.3672 0.36523 1 1 0 0 0 0.36719 1.3652l11.08 6.4043-11.08 6.4043a1 1 0 0 0-0.36719 1.3672 1 1 0 0 0 1.3672 0.36523l12.58-7.2715a1.0001 1.0001 0 0 0 0-1.7305zm13.379 14.404a1 1 0 0 0-1 1 1 1 0 0 0 1 1h13.451a1 1 0 0 0 1-1 1 1 0 0 0-1-1z" color="#000000" fill="#fff" stroke-linecap="round" stroke-linejoin="round" style="-inkscape-stroke:none"/>
</svg>
