<?xml version="1.0" encoding="UTF-8"?>
<svg id="a" version="1.1" viewBox="0 0 48 48" xmlns="http://www.w3.org/2000/svg">
 <defs id="defs1">
  <style id="style1">.b{fill:none;stroke:#fff;stroke-width:2px;stroke-linecap:round;stroke-linejoin:round;}</style>
 </defs>
 <path id="path1" d="m10.301 21.941a1 1 0 0 0-0.60742 0.4668 1 1 0 0 0 0.36523 1.3652l11.086 6.4023-11.086 6.4043a1 1 0 0 0-0.36523 1.3652 1 1 0 0 0 1.3652 0.36524l12.586-7.2676a1.0001 1.0001 0 0 0 0-1.7324l-12.586-7.2695a1 1 0 0 0-0.75781-0.09961zm14.145 14.504a1 1 0 0 0-1 1 1 1 0 0 0 1 1h13.443a1 1 0 0 0 1-1 1 1 0 0 0-1-1z" fill="#fff" stroke-linecap="round" stroke-linejoin="round"/>
 <path id="path2" d="m9.5 4.5c-2.7496 0-5 2.2504-5 5v29c0 2.7496 2.2504 5 5 5h29c2.7496 0 5-2.2504 5-5v-29c0-2.7496-2.2504-5-5-5zm0 2h29c1.6686 0 3 1.3314 3 3v29c0 1.6686-1.3314 3-3 3h-29c-1.6686 0-3-1.3314-3-3v-29c0-1.6686 1.3314-3 3-3z" fill="#fff" stroke-linecap="round" stroke-linejoin="round"/>
</svg>
