<?xml version="1.0" encoding="UTF-8"?>
<svg id="a" version="1.1" viewBox="0 0 48 48" xmlns="http://www.w3.org/2000/svg">
 <defs id="defs1">
  <style id="style1">.b{fill-rule:evenodd;}.b,.c{fill:none;stroke:#fff;stroke-width:2px;stroke-linecap:round;stroke-linejoin:round;}</style>
 </defs>
 <path id="path1" d="m24 1.5c-1.0791 0-2.0852 0.43843-3.1699 1.1445-1.4112 0.91847-2.272 1.1167-4.4707 0.97852-1.435-0.089855-2.545 0.1908-3.541 0.93359-0.2901 0.21654-0.57751 0.46852-0.83789 0.81641-0.26038 0.34789-0.51098 0.77179-0.94336 1.5078-0.607 1.0311-1.7891 2.0255-3.168 2.584-1.0356 0.41995-1.8795 0.96335-2.4395 1.7891s-0.78773 1.8217-0.89062 3.0488c-0.18321 2.1817-0.44719 2.8789-1.6504 4.3906-0.75188 0.94406-1.2564 1.8537-1.3652 2.8789-0.1088 1.0252 0.18358 2.0322 0.70703 3.1719 0.75814 1.6493 0.87437 2.6932 0.5 4.5039-0.2394 1.1576-0.25716 2.2029 0.11914 3.1582s1.0994 1.719 2.0723 2.4375c1.4503 1.0711 1.9579 1.8355 2.6133 4.0137 0.31041 1.0322 0.77802 1.9 1.5234 2.5234 0.74542 0.62346 1.6874 0.95317 2.8203 1.1484 1.8737 0.32265 2.7014 0.75812 4.0293 2.1211a1.0001 1.0001 0 0 0 2e-3 2e-3c0.90863 0.93138 1.7226 1.4969 2.668 1.7207 4.89e-4 1.16e-4 0.0015-1.16e-4 2e-3 0 0.97709 0.23117 1.9443 0.11853 3.2617-0.31445 1.6405-0.53791 2.6859-0.53733 4.334 0.0078 1.1791 0.3896 2.215 0.56085 3.2207 0.32227 1.0057-0.23859 1.849-0.85958 2.6973-1.7344 1.3217-1.3636 2.1489-1.8006 4.0254-2.123a1.0001 1.0001 0 0 0 2e-3 0c1.1333-0.19526 2.0749-0.52498 2.8203-1.1484 0.74544-0.62346 1.2127-1.4934 1.5234-2.5254 0.65539-2.1782 1.1617-2.9427 2.6113-4.0137 0.97324-0.71857 1.6979-1.4822 2.0742-2.4375 0.3763-0.95533 0.35813-2.0008 0.11914-3.1582-0.37433-1.8099-0.25749-2.8546 0.5-4.5039 0.52421-1.1408 0.81831-2.1499 0.70898-3.1758-0.10933-1.0258-0.61749-1.9342-1.3711-2.877-1.1599-1.4498-1.5144-2.4069-1.6738-4.5996h2e-3c-0.083441-1.1482-0.30659-2.1131-0.89667-2.9063-0.59008-0.79315-1.449-1.3037-2.5645-1.7813-1.2746-0.54514-2.4871-1.5977-2.9941-2.4941-0.6939-1.2273-1.3278-2.1123-2.2207-2.6758s-1.9359-0.6852-3.1191-0.61133c-2.1987 0.13819-3.0595-0.060047-4.4707-0.97852-1.0847-0.7061-2.0908-1.1445-3.1699-1.1445zm0 2c0.5387 0 1.1503 0.21697 2.0801 0.82227 1.6784 1.0923 3.2828 1.4479 5.6855 1.2969 0.992-0.061932 1.491 0.032243 1.9258 0.30664 0.43481 0.2744 0.91662 0.85061 1.5488 1.9688 0.80796 1.4284 2.2805 2.6367 3.9473 3.3496 0.97753 0.41852 1.4699 0.76346 1.7461 1.1348s0.43501 0.88032 0.50586 1.8574c0.1752 2.4101 0.76629 4.0267 2.1074 5.7031h-2e-3c0.6385 0.79875 0.88884 1.3302 0.94336 1.8418 0.05452 0.51158-0.08047 1.1374-0.53516 2.127-0.88191 1.9203-1.0735 3.6512-0.64062 5.7441 0.19622 0.95028 0.16662 1.539-0.02344 2.0215-0.19005 0.4825-0.58743 0.96032-1.4004 1.5605-1.6972 1.2538-2.6225 2.6692-3.3379 5.0469-0.24476 0.81288-0.51794 1.2531-0.89258 1.5664s-0.93185 0.5481-1.877 0.71094c-2.1377 0.36734-3.6183 1.1487-5.125 2.7031-0.72006 0.74261-1.2238 1.0638-1.7207 1.1816-0.49691 0.11789-1.1199 0.05931-2.1328-0.27539-1.9375-0.64086-3.6521-0.64325-5.584-0.0098a1.0001 1.0001 0 0 0-2e-3 0c-1.1807 0.38807-1.5474 0.41713-2.1719 0.26953a1.0001 1.0001 0 0 0-0.0059-2e-3c-0.50691-0.11975-0.90503-0.35791-1.6971-1.1698-1.5121-1.552-2.9897-2.3299-5.123-2.6973-0.9447-0.16283-1.5023-0.3976-1.877-0.71094-0.37463-0.31334-0.64623-0.75371-0.89063-1.5664-0.71542-2.3777-1.642-3.793-3.3398-5.0469-0.81267-0.60025-1.2103-1.078-1.4004-1.5605s-0.21799-1.0713-0.021484-2.0215c0.43283-2.0935 0.24009-3.8239-0.64258-5.7441-0.45405-0.98855-0.58946-1.6133-0.53516-2.125 0.054305-0.51172 0.30398-1.0434 0.94141-1.8438 1.3434-1.6879 1.8797-3.1064 2.0781-5.4688 0.089402-1.0662 0.27574-1.6853 0.55273-2.0938s0.6921-0.71674 1.5352-1.0586c1.7586-0.7123 3.259-1.9252 4.1406-3.4238a1.0001 1.0001 0 0 0 2e-3 -0.00195c0.42772-0.72808 0.66971-1.1191 0.82031-1.3203 0.1506-0.20121 0.1909-0.23291 0.43359-0.41406v0.00195c0.72414-0.54001 1.0059-0.61696 2.2188-0.54102 2.4027 0.15101 4.0072-0.20454 5.6855-1.2969 0.92978-0.6053 1.5413-0.82227 2.08-0.82227z" fill="#fff" stroke-linecap="round" stroke-linejoin="round"/>
 <path id="path2" d="m26.594 25.443c-1.7635 0.65386-3.6143 0.71187-5.3242 0.26953a1 1 0 0 0-1.2188 0.71875 1 1 0 0 0 0.7168 1.2188c2.0915 0.54107 4.3662 0.46711 6.5215-0.33203a1 1 0 0 0 0.58984-1.2852 1 1 0 0 0-1.2852-0.58984z" fill="#fff" fill-rule="evenodd" stroke-linecap="round" stroke-linejoin="round"/>
 <path id="path3" d="m27.945 29.127c-2.6598 0.98209-5.4473 1.0357-7.9922 0.30078l0.0078 0.0098a1 1 0 0 0-0.28516-0.05664 1 1 0 0 0-1 1v0.0078a1.0001 1.0001 0 0 0 0.72266 0.95898c2.9445 0.8503 6.1758 0.78776 9.2402-0.34375a1 1 0 0 0 0.5918-1.2852 1 1 0 0 0-1.2852-0.5918z" fill="#fff" fill-rule="evenodd" stroke-linecap="round" stroke-linejoin="round"/>
 <path id="path4" d="m14.078 20.416v2e-3c-0.74255-0.17466-1.5301-0.0668-2.2012 0.31836-0.66578 0.38212-1.1617 0.99012-1.3945 1.7109-0.22264 0.68915-0.10732 1.3462 0.14062 1.9355 1.79e-4 0.0021 0.0019 0.01362 2e-3 0.01367 1.14e-4 6.85e-4 0.09134 0.28424 0.0918 0.28516 1.6e-5 3.1e-5 0.0109 0.01274 0.01172 0.01367 0.0029 0.0054 0.0029 0.01219 0.0059 0.01758l-0.0039-0.01563c0.0057 0.0065 0.04501 0.05111 0.07226 0.08203l-0.04101-0.02344c1.1168 1.8484 2.5967 3.3905 4.3066 4.5566a1 1 0 0 0 1.3906-0.26172 1 1 0 0 0-0.26367-1.3906c-1.471-1.0032-2.7447-2.3328-3.7109-3.9277-0.10143-0.19622-0.14166-0.53371-0.09766-0.66992 0.07533-0.23318 0.25495-0.46012 0.48438-0.5918 0.22414-0.12864 0.49435-0.16756 0.75-0.10742 0.20916 0.04903 0.38525 0.17873 0.49609 0.36133a1.0001 1.0001 0 0 0 0.03711 0.04687c0.0152 0.02501 0.04125 0.03959 0.05664 0.06445 7.6e-4 0.0012 0.0012 0.0027 2e-3 0.0039 0.60367 0.97417 1.3347 1.8427 2.1875 2.5547a1 1 0 0 0 1.4082-0.12695 1 1 0 0 0-0.12695-1.4082c-0.71502-0.59694-1.3376-1.319-1.8379-2.1484a1.0001 1.0001 0 0 0-0.02344-0.0293c-0.0048-0.0078-0.01662-0.0078-0.02149-0.01563-5e-4 -8.01e-4 -0.0015-0.0012-2e-3 -2e-3 -0.38962-0.62265-1.0008-1.0798-1.7188-1.248zm1.7188 1.248c-0.02193-0.03699-0.03757-0.06099-0.08008-0.11328a1.0001 1.0001 0 0 0-0.02734-0.03516c0.06817 0.06724 0.07622 0.09728 0.10742 0.14844zm-4.1777 1.5742c0.08242 0 0.27218 0.03731 0.27148 0.03711s0.27786 0.12925 0.27734 0.12891c-7.65e-4 -5.1e-4 0.15625 0.17692 0.25195 0.28516a1.0001 1.0001 0 0 0-0.80078-0.45117zm0.87305 0.5332c0.0011 0.0012 0.01369 0.01566 0.01367 0.01563-4.56e-4 -9.12e-4 0.09191 0.28194 0.0918 0.28125-1.14e-4 -6.84e-4 0.01367 0.16211 0.01367 0.16211a1.0001 1.0001 0 0 0-0.11914-0.45898z" fill="#fff" fill-rule="evenodd" stroke-linecap="round" stroke-linejoin="round"/>
 <path id="path5" d="m20.965 13.846a1 1 0 0 0-1.2812 0.59766l-3.582 9.8418-1.4082 3.8594-1.3301 3.6562a1.0001 1.0001 0 0 0 0 2e-3c-0.45852 1.2713-0.05766 2.6572 0.92383 3.5039a1.0001 1.0001 0 0 0 0.02149 0.04687c0.28051 0.23902 0.61206 0.43691 0.97656 0.57226a1.0001 1.0001 0 0 0 0.0059 0.0039c0.34706 0.12624 0.70903 0.18873 1.0703 0.18945 1.3254 0.0087 2.582-0.80375 3.0586-2.1152v-2e-3l1.1953-3.2715a1.0001 1.0001 0 0 0 0.06055-0.3418v0.16797l1.2832-3.5332 2.8398-7.793a1 1 0 0 0-0.59766-1.2812 1 1 0 0 0-1.2812 0.5957l-2.8398 7.7949a1.0001 1.0001 0 0 0-2e-3 0l-1.3418 3.6992a1.0001 1.0001 0 0 0-0.06055 0.3418v-0.16992l-1.1348 3.1074a1.0001 1.0001 0 0 0-2e-3 2e-3c-0.18366 0.50615-0.65705 0.80482-1.1641 0.80078a1.0001 1.0001 0 0 0-0.0078 0c-0.11923 0-0.2534-0.02262-0.38672-0.07031l-0.0059-2e-3c-0.14615-0.05497-0.25506-0.11959-0.36914-0.2168l0.14062 0.30274a1.0001 1.0001 0 0 0-0.15039-0.31836c-0.36447-0.30244-0.53178-0.83624-0.35156-1.3359l1.3281-3.6504 1.4082-3.8594a1.0001 1.0001 0 0 0 0-2e-3l3.5821-9.8417a1 1 0 0 0-0.59766-1.2812z" fill="#fff" stroke-linecap="round" stroke-linejoin="round"/>
 <path id="path6" d="m24.043 7.791c-1.3102 0-2.3945 1.0823-2.3945 2.3926v2.1074a1 1 0 0 0 1 1 1 1 0 0 0 1-1v-2.1074c0-0.23093 0.16368-0.39258 0.39453-0.39258 0.23076 0 0.39453 0.16181 0.39453 0.39258v2.1445a1 1 0 0 0 1 1 1 1 0 0 0 1-1v-2.1445c0-1.3102-1.0843-2.3926-2.3945-2.3926z" fill="#fff" stroke-linecap="round" stroke-linejoin="round"/>
 <path id="path7" d="m27.053 13.912a1 1 0 0 0-0.5957 1.2832l1.8867 5.1523 3.0664 8.3809a1.0001 1.0001 0 0 0 0.93945 0.65625h-0.69141l1.1387 3.1211a1.0001 1.0001 0 0 0 0.0059 0.01367c0.1891 0.4974 0.03259 1.0018-0.32226 1.3027a1.0001 1.0001 0 0 0-0.03125 0.0293c-0.10063 0.09288-0.2079 0.1579-0.33398 0.20703-0.12464 0.04408-0.27349 0.07103-0.41016 0.07617-0.49516 0.0063-0.94707-0.26975-1.1348-0.76758a1.0001 1.0001 0 0 0-0.03711-0.08789l-0.0039-0.0078-1.2988-3.5508-1.3496-3.6836-2.7461-7.4922a1 1 0 0 0-1.2812-0.5957 1 1 0 0 0-0.5957 1.2832l2.7441 7.4922 1.3516 3.6836 1.3203 3.6113a1.0001 1.0001 0 0 0 0.04492 0.10352l0.02148 0.04297-0.04102-0.09375c0.48691 1.2914 1.7346 2.0858 3.043 2.0645a1.0001 1.0001 0 0 0 0.01367-2e-3c0.34187-0.01031 0.69766-0.07006 1.0527-0.19922a1.0001 1.0001 0 0 0 0.01563-0.0059c0.36124-0.13812 0.68393-0.34623 0.95898-0.5957 0.98568-0.84487 1.3716-2.2506 0.88867-3.5234l-1.375-3.7695a1.0001 1.0001 0 0 0-0.93945-0.65625h0.69141l-2.8281-7.7246-1.8848-5.1523a1 1 0 0 0-1.2832-0.5957z" fill="#fff" stroke-linecap="round" stroke-linejoin="round"/>
 <path id="path8" d="m24.006 11.012c-0.60688 0-1.2027 0.12284-1.75 0.36133-1.325 0.56334-2.3037 1.7526-2.6055 3.1855a1.0001 1.0001 0 0 0-0.0039 0.03711 1.0001 1.0001 0 0 0-0.0098 0.01953c-0.04566 0.26477-0.07227 0.54622-0.07227 0.83789 0 2.3708 1.8856 4.3277 4.2402 4.4297 0.07909 6e-3 0.16515 0.01172 0.20117 0.01172 0.0552 0 0.1501-0.0015 0.25195-0.0098 2.3321-0.12714 4.1895-2.0771 4.1895-4.4316 0-0.25319-0.01627-0.51678-0.06836-0.78906-0.26492-1.4513-1.2251-2.6517-2.5234-3.2422-0.57009-0.26553-1.1996-0.41016-1.8496-0.41016zm4.373 3.6523 0.01758 0.17969a1.0001 1.0001 0 0 0-0.01563-0.17773c-1.6e-4 -8.8e-4 -0.0018-0.0011-2e-3 -2e-3zm-4.373-1.6523c0.36133 0 0.69841 0.07821 1.0078 0.22266a1.0001 1.0001 0 0 0 0.01172 0.0039c0.70801 0.32038 1.2403 0.98013 1.3867 1.7852a1.0001 1.0001 0 0 0 2e-3 0.01563c0.02091 0.10932 0.0332 0.25625 0.0332 0.41406 0 1.3121-1.0133 2.3677-2.3027 2.4355a1.0001 1.0001 0 0 0-0.05859 0.0059c-0.0018 1.97e-4 -0.01418 0-0.08008 0-0.0514 0-0.03294 6e-5 -0.0059 0.0039a1.0001 1.0001 0 0 0-0.10156-0.0098c-1.3079-0.05232-2.334-1.1127-2.334-2.4355 0-0.16332 0.01523-0.33722 0.04297-0.49805l-0.27734 0.53711c0.243-0.243 0.30078-0.72112 0.30078-0.72852l-0.02148 0.20703c0.16786-0.79716 0.71598-1.4569 1.4297-1.7598a1.0001 1.0001 0 0 0 0.0098-0.0039c0.28697-0.12586 0.61349-0.19531 0.95703-0.19531z" fill="#fff" fill-rule="evenodd" stroke-linecap="round" stroke-linejoin="round"/>
 <path id="path9" d="m30.324 18.871c-0.44117 0-0.87758 0.05362-1.2988 0.16602a1 1 0 0 0-0.70898 1.2246 1 1 0 0 0 1.2246 0.70898c0.23915-0.06381 0.50518-0.09961 0.7832-0.09961 1.9381 0 3.498 1.5589 3.498 3.5059 0 1.3628-0.78412 2.5398-1.918 3.1152l0.43555-0.10352a1 1 0 0 0-0.99024 0.99609 1 1 0 0 0 1 1h0.0078a1.0001 1.0001 0 0 0 0.45312-0.10938c1.7869-0.90693 3.0117-2.7681 3.0117-4.8984 0-3.0286-2.4752-5.5059-5.498-5.5059z" fill="#fff" stroke-linecap="round" stroke-linejoin="round"/>
 <path id="line9" d="m34.416 18.877a1 1 0 0 0-0.68555 0.3418l-1.0723 1.2285a1 1 0 0 0 0.09766 1.4121 1 1 0 0 0 1.4102-0.09766l1.0723-1.2305a1 1 0 0 0-0.0957-1.4102 1 1 0 0 0-0.72656-0.24414z" fill="#fff" stroke-linecap="round" stroke-linejoin="round"/>
 <path id="line10" d="m34.996 23.988a1 1 0 0 0-1.1582 0.8125 1 1 0 0 0 0.81055 1.1582l1.4531 0.25586a1 1 0 0 0 1.1582-0.81055 1 1 0 0 0-0.81055-1.1582z" fill="#fff" stroke-linecap="round" stroke-linejoin="round"/>
 <path id="line11" d="m31.387 20.58a1 1 0 0 0-1 1 1 1 0 0 0 1 1h0.32031a1 1 0 0 0 1-1 1 1 0 0 0-1-1z" fill="#fff" stroke-linecap="round" stroke-linejoin="round"/>
 <path id="line12" d="m33.064 24.705a1 1 0 0 0-0.68164 0.3457l-0.21094 0.24609a1 1 0 0 0 0.11133 1.4102 1 1 0 0 0 1.4102-0.11133l0.20898-0.24414a1 1 0 0 0-0.11133-1.4102 1 1 0 0 0-0.72656-0.23633z" fill="#fff" stroke-linecap="round" stroke-linejoin="round"/>
 <path id="line13" d="m15.91 34.021a1 1 0 0 0-1.291 0.57812l-0.97852 2.5645a1 1 0 0 0 0.57812 1.291 1 1 0 0 0 1.291-0.57812l0.97852-2.5645a1 1 0 0 0-0.57812-1.291z" fill="#fff" stroke-linecap="round" stroke-linejoin="round"/>
 <path id="line14" d="m32.16 34.041a1 1 0 0 0-0.52148 1.3145l1.0742 2.4961a1 1 0 0 0 1.3145 0.52344 1 1 0 0 0 0.52344-1.3145l-1.0762-2.4961a1 1 0 0 0-1.3145-0.52344z" fill="#fff" stroke-linecap="round" stroke-linejoin="round"/>
</svg>
