<?xml version="1.0" encoding="UTF-8"?>
<svg id="a" version="1.1" viewBox="0 0 48 48" xmlns="http://www.w3.org/2000/svg">
 <defs id="defs1">
  <style id="style1">.b{fill:none;stroke:#fff;stroke-width:2px;stroke-linecap:round;stroke-linejoin:round;}</style>
 </defs>
 <path id="polygon1" d="m5.8301 12.062a1.0001 1.0001 0 0 0-0.49609 0.99219l2.3223 18.527a1.0001 1.0001 0 0 0 0.31641 0.61328l12.076 11.043a1.0001 1.0001 0 0 0 1.6738-0.73828v-18.475a1.0001 1.0001 0 0 0-0.38867-0.79102l-14.398-11.096a1.0001 1.0001 0 0 0-1.1055-0.076172zm1.7871 3.125 12.105 9.3301v15.711l-10.129-9.2617z" fill="#fff" stroke-linecap="round" stroke-linejoin="round"/>
 <path id="polyline1" d="m28.094 4.5527-22.088 7.4297a1 1 0 0 0-0.62891 1.2676 1 1 0 0 0 1.2676 0.62891l21.625-7.2754 12.354 8.123-1.3945 15.262-19.027 11.658a1 1 0 0 0-0.33008 1.375 1 1 0 0 0 1.375 0.33203l19.455-11.922a1.0001 1.0001 0 0 0 0.47266-0.76172l1.4961-16.357a1.0001 1.0001 0 0 0-0.44531-0.92773l-13.264-8.7207a1.0001 1.0001 0 0 0-0.86719-0.11133z" fill="#fff" stroke-linecap="round" stroke-linejoin="round"/>
 <path id="line1" d="m41.25 13.314-20.951 9.8047a1 1 0 0 0-0.48047 1.3301 1 1 0 0 0 1.3281 0.48242l20.951-9.8047a1 1 0 0 0 0.48242-1.3301 1 1 0 0 0-1.3301-0.48242z" fill="#fff" stroke-linecap="round" stroke-linejoin="round"/>
 <path id="path1" d="m6.7656 12.033a1 1 0 0 0-1.3379 0.45703 1 1 0 0 0 0.45898 1.3379c2.2558 1.1049 6.7026 2.8056 11.141 2.5254-0.13464 0.3561-0.29484 0.71101-0.33008 1.0742-0.10609 1.0934 0.16841 2.1486 0.56836 3.1055 0.79989 1.9137 2.1432 3.5029 2.7031 4.1484a1 1 0 0 0 1.4102 0.09961 1 1 0 0 0 0.09961-1.4102c-0.51443-0.593-1.729-2.0826-2.3672-3.6094-0.31909-0.76341-0.48422-1.5201-0.42383-2.1426 0.06039-0.62248 0.2841-1.131 0.94336-1.6504a1.0001 1.0001 0 0 0-0.85547-1.7559c-4.1842 1.0228-9.5864-0.99273-12.01-2.1797z" fill="#fff" stroke-linecap="round" stroke-linejoin="round"/>
 <path id="line2" d="m33.93 8.4141-8.498 3.0938a1 1 0 0 0-0.59766 1.2812 1 1 0 0 0 1.2812 0.59766l8.498-3.0938a1 1 0 0 0 0.59766-1.2813 1 1 0 0 0-1.2812-0.59766z" fill="#fff" stroke-linecap="round" stroke-linejoin="round"/>
 <path id="path2" d="m19.982 12.756-2.0703 0.75391a1.0001 1.0001 0 0 0-0.35547 1.6562s0.34081 0.33149 0.68359 0.66211c0.17139 0.16531 0.34151 0.33045 0.47461 0.45703 0.06655 0.06329 0.12437 0.11607 0.16992 0.1582 0.02277 0.02107 0.04061 0.03768 0.06445 0.05859 0.01192 0.01046 0.02381 0.02153 0.05078 0.04297 0.01348 0.01072 0.02893 0.02308 0.07031 0.05078 0.02069 0.01385 0.1032 0.06039 0.10352 0.06055 1.57e-4 8e-5 0.12879 0.05465 0.12891 0.05469 1.17e-4 4.1e-5 0.32414 0.05469 0.32422 0.05469a1.0001 1.0001 0 0 0 0.40039-0.23633l0.03125 0.13867 1.916-0.91602a1.0001 1.0001 0 0 0 0.25586-1.6289l-1.2188-1.1543a1.0001 1.0001 0 0 0-1.0293-0.21289z" fill="#fff" stroke-linecap="round" stroke-linejoin="round"/>
 <path id="path3" d="m24.143 11.221c-0.69674 0.08137-1.3451 0.32487-1.9316 0.59766-1.1731 0.54557-2.1191 1.252-2.1191 1.252a1 1 0 0 0-0.21094 1.3984 1 1 0 0 0 0.57617 0.08594 1 1 0 0 0-0.12891 0.16602 1 1 0 0 0 1.1172 0.86719s1.4489-0.17918 2.791-0.55078c0.67104-0.1858 1.3076-0.38278 1.8672-0.80078 0.27981-0.209 0.60254-0.51978 0.68945-1.0449 0.08692-0.52514-0.18568-1.0473-0.49609-1.3477-0.61596-0.59603-1.4576-0.70442-2.1543-0.62305z" fill="#fff" stroke-linecap="round" stroke-linejoin="round"/>
</svg>
