<?xml version="1.0" encoding="UTF-8" standalone="no"?>
<svg
   viewBox="0 0 48 48"
   version="1.1"
   id="svg6"
   sodipodi:docname="ark.svg"
   xmlns:inkscape="http://www.inkscape.org/namespaces/inkscape"
   xmlns:sodipodi="http://sodipodi.sourceforge.net/DTD/sodipodi-0.dtd"
   xmlns="http://www.w3.org/2000/svg"
   xmlns:svg="http://www.w3.org/2000/svg">
  <sodipodi:namedview
     id="namedview6"
     pagecolor="#ffffff"
     bordercolor="#666666"
     borderopacity="1.0"
     inkscape:showpageshadow="2"
     inkscape:pageopacity="0.0"
     inkscape:pagecheckerboard="0"
     inkscape:deskcolor="#d1d1d1" />
  <defs
     id="defs1">
    <style
       id="style1">.a{fill:none;stroke:#fff;stroke-width:2px;stroke-linecap:round;stroke-linejoin:round;}</style>
  </defs>
  <path
     style="color:#000000;fill:#ffffff;stroke-linecap:round;stroke-linejoin:round;-inkscape-stroke:none"
     d="m 7.5,5.5 c -1.645008,0 -3,1.354992 -3,3 v 7.669922 c 0,1.645008 1.354992,3 3,3 H 18 a 1,1 0 0 0 1,-1 1,1 0 0 0 -1,-1 H 7.5 c -0.5641288,0 -1,-0.435871 -1,-1 V 8.5 c 0,-0.5641288 0.4358712,-1 1,-1 H 18 a 1,1 0 0 0 1,-1 1,1 0 0 0 -1,-1 z m 22.5,0 a 1,1 0 0 0 -1,1 1,1 0 0 0 1,1 h 10.5 c 0.564129,0 1,0.4358712 1,1 v 7.669922 c 0,0.564129 -0.435871,1 -1,1 H 30 a 1,1 0 0 0 -1,1 1,1 0 0 0 1,1 h 10.5 c 1.645008,0 3,-1.354992 3,-3 V 8.5 c 0,-1.645008 -1.354992,-3 -3,-3 z"
     id="path1" />
  <path
     style="color:#000000;fill:#ffffff;stroke-linecap:round;stroke-linejoin:round;-inkscape-stroke:none"
     d="m 7.5,17.169922 c -1.645008,0 -3,1.354992 -3,3 v 7.660156 c 0,1.645008 1.354992,3 3,3 H 18 a 1,1 0 0 0 1,-1 1,1 0 0 0 -1,-1 H 7.5 c -0.5641288,0 -1,-0.435871 -1,-1 v -7.660156 c 0,-0.564129 0.4358712,-1 1,-1 H 18 a 1,1 0 0 0 1,-1 1,1 0 0 0 -1,-1 z m 22.5,0 a 1,1 0 0 0 -1,1 1,1 0 0 0 1,1 h 10.5 c 0.564129,0 1,0.435871 1,1 v 7.660156 c 0,0.564129 -0.435871,1 -1,1 H 30 a 1,1 0 0 0 -1,1 1,1 0 0 0 1,1 h 10.5 c 1.645008,0 3,-1.354992 3,-3 v -7.660156 c 0,-1.645008 -1.354992,-3 -3,-3 z"
     id="path2" />
  <path
     style="color:#000000;fill:#ffffff;stroke-linecap:round;stroke-linejoin:round;-inkscape-stroke:none"
     d="m 7.5,28.830078 c -1.645008,0 -3,1.354992 -3,3 V 39.5 c 0,1.645008 1.354992,3 3,3 H 18 a 1,1 0 0 0 1,-1 1,1 0 0 0 -1,-1 H 7.5 c -0.5641288,0 -1,-0.435871 -1,-1 v -7.669922 c 0,-0.564129 0.4358712,-1 1,-1 H 18 a 1,1 0 0 0 1,-1 1,1 0 0 0 -1,-1 z m 22.5,0 a 1,1 0 0 0 -1,1 1,1 0 0 0 1,1 h 10.5 c 0.564129,0 1,0.435871 1,1 V 39.5 c 0,0.564129 -0.435871,1 -1,1 H 30 a 1,1 0 0 0 -1,1 1,1 0 0 0 1,1 h 10.5 c 1.645008,0 3,-1.354992 3,-3 v -7.669922 c 0,-1.645008 -1.354992,-3 -3,-3 z"
     id="path3" />
  <path
     style="color:#000000;fill:#ffffff;stroke-linecap:round;stroke-linejoin:round;-inkscape-stroke:none"
     d="m 9.3691406,7.8300781 a 1,1 0 0 0 -1,1 v 6.9999999 a 1,1 0 0 0 1,1 1,1 0 0 0 1.0000004,-1 V 8.8300781 a 1,1 0 0 0 -1.0000004,-1 z"
     id="line3" />
  <path
     style="color:#000000;fill:#ffffff;stroke-linecap:round;stroke-linejoin:round;-inkscape-stroke:none"
     d="m 9.3691406,19.5 a 1,1 0 0 0 -1,1 v 7 a 1,1 0 0 0 1,1 1,1 0 0 0 1.0000004,-1 v -7 a 1,1 0 0 0 -1.0000004,-1 z"
     id="line4" />
  <path
     style="color:#000000;fill:#ffffff;stroke-linecap:round;stroke-linejoin:round;-inkscape-stroke:none"
     d="m 9.3691406,31.169922 a 1,1 0 0 0 -1,1 v 7 a 1,1 0 0 0 1,1 1,1 0 0 0 1.0000004,-1 v -7 a 1,1 0 0 0 -1.0000004,-1 z"
     id="line5" />
  <path
     style="color:#000000;fill:#ffffff;stroke-linecap:round;stroke-linejoin:round;-inkscape-stroke:none"
     d="m 19,3.5 c -1.090702,0 -2,0.9092983 -2,2 v 37 c 0,1.090702 0.909298,2 2,2 h 10 c 1.090702,0 2,-0.909298 2,-2 v -37 c 0,-1.0907017 -0.909298,-2 -2,-2 z m 0,2 h 10 v 37 H 19 Z"
     id="rect5" />
  <path
     style="color:#000000;fill:#ffffff;stroke-linecap:round;stroke-linejoin:round;-inkscape-stroke:none"
     d="m 24,8.3300781 c -3.854144,0 -7,3.1458529 -7,6.9999999 a 1,1 0 0 0 1,1 1,1 0 0 0 1,-1 c 0,-2.773268 2.226734,-5 5,-5 2.773266,0 5,2.226732 5,5 a 1,1 0 0 0 1,1 1,1 0 0 0 1,-1 C 31,11.475931 27.854144,8.3300781 24,8.3300781 Z"
     id="path5" />
  <path
     style="color:#000000;fill:#ffffff;stroke-linecap:round;stroke-linejoin:round;-inkscape-stroke:none"
     d="m 18,15.220703 a 1.0001,1.0001 0 0 0 -1,1 v 3.878906 a 1.0001,1.0001 0 0 0 1,1 h 12 a 1.0001,1.0001 0 0 0 1,-1 v -3.878906 a 1.0001,1.0001 0 0 0 -1,-1 z m 1,2 h 10 v 1.878906 H 19 Z"
     id="rect6" />
</svg>
