<?xml version="1.0" encoding="UTF-8"?>
<svg id="b" version="1.1" viewBox="0 0 48 48" xmlns="http://www.w3.org/2000/svg">
 <defs id="defs1">
  <style id="style1">.c{fill:none;stroke:#fff;stroke-width:2px;stroke-linecap:round;stroke-linejoin:round;}</style>
 </defs>
 <path id="path1" d="m13.648 21.299a1 1 0 0 0-1 1v21.201a1.0001 1.0001 0 0 0 1 1h15.047c6.0901 0 11.049-4.9587 11.049-11.049 0-4.5632-2.7747-8.4949-6.7363-10.176a1 1 0 0 0-1.3125 0.53125 1 1 0 0 0 0.53125 1.3105c3.2405 1.3749 5.5176 4.5806 5.5176 8.334 0 5.0093-4.0396 9.0488-9.0488 9.0488h-14.047v-20.201a1 1 0 0 0-1-1z" fill="#fff" stop-color="#000000" stroke-linecap="round" stroke-linejoin="round"/>
 <path id="path2" d="m18.852 3.5c-5.8399 0-10.596 4.7558-10.596 10.596 0 5.8399 4.7558 10.596 10.596 10.596h2.6504l-2.3633 11.807a1.0001 1.0001 0 0 0 1.6875 0.9043l15.814-15.814c1.9163-1.9163 3.1035-4.5722 3.1035-7.4922 0-5.8399-4.7558-10.596-10.596-10.596zm0 2h10.297c4.7591 0 8.5957 3.8366 8.5957 8.5957 0 2.3796-0.9609 4.5214-2.5176 6.0781l-13.479 13.479 1.9551-9.7656a1.0001 1.0001 0 0 0-0.98047-1.1953h-3.8711c-4.7591 0-8.5957-3.8366-8.5957-8.5957s3.8366-8.5957 8.5957-8.5957z" fill="#fff" stop-color="#000000" stroke-linecap="round" stroke-linejoin="round"/>
</svg>
