<?xml version="1.0" encoding="UTF-8"?>
<svg id="a" version="1.1" viewBox="0 0 48 48" xmlns="http://www.w3.org/2000/svg">
 <defs id="defs1">
  <style id="style1">.b{fill:none;stroke:#fff;stroke-width:2px;stroke-linecap:round;stroke-linejoin:round;}</style>
 </defs>
 <path id="path1" d="m24.018 8.5234a1.0001 1.0001 0 0 0-1 1l-0.017578 28.66a1.0001 1.0001 0 0 0 1.4688 0.88281c3.49-1.854 6.3904-4.0321 8.4531-6.3164s3.3281-4.6943 3.3281-7.0723v-16.154a1.0001 1.0001 0 0 0-1-1zm1 2h9.2324v15.154c0 1.6417-0.95301 3.6731-2.8125 5.7324-1.5557 1.7228-3.8261 3.4133-6.4355 4.9648z" fill="#fff" stroke-linecap="round" stroke-linejoin="round"/>
 <path id="path2" d="m9.7734 3.5312c-1.6432 0-2.998 1.3529-2.998 2.9961v19.15c0 7.4074 6.9345 14.179 15.916 18.553 0.82625 0.40224 1.7909 0.40224 2.6172 0 8.9815-4.3734 15.916-11.145 15.916-18.553v-19.15c0-1.6432-1.3548-2.9961-2.998-2.9961h-14.227zm0 2h28.453c0.56236 0 0.99805 0.43374 0.99805 0.99609v19.15c0 6.1136-6.1861 12.564-14.791 16.754-0.26655 0.12976-0.60064 0.12976-0.86719 0-8.6049-4.19-14.791-10.64-14.791-16.754v-19.15c0-0.56236 0.43569-0.99609 0.99805-0.99609z" fill="#fff" stroke-linecap="round" stroke-linejoin="round"/>
</svg>
