<?xml version="1.0" encoding="UTF-8" standalone="no"?>
<svg
   viewBox="0 0 48 48"
   version="1.1"
   id="svg2"
   sodipodi:docname="btop.svg"
   xmlns:inkscape="http://www.inkscape.org/namespaces/inkscape"
   xmlns:sodipodi="http://sodipodi.sourceforge.net/DTD/sodipodi-0.dtd"
   xmlns="http://www.w3.org/2000/svg"
   xmlns:svg="http://www.w3.org/2000/svg">
  <sodipodi:namedview
     id="namedview2"
     pagecolor="#ffffff"
     bordercolor="#666666"
     borderopacity="1.0"
     inkscape:showpageshadow="2"
     inkscape:pageopacity="0.0"
     inkscape:pagecheckerboard="0"
     inkscape:deskcolor="#d1d1d1" />
  <defs
     id="defs1">
    <style
       id="style1">.a{fill:none;stroke:#fff;stroke-width:2px;stroke-linecap:round;stroke-linejoin:round;}</style>
  </defs>
  <path
     style="color:#000000;fill:#ffffff;stroke-linecap:round;stroke-linejoin:round;-inkscape-stroke:none"
     d="m 7.5,4.5 c -1.645008,0 -3,1.354992 -3,3 v 33 c 0,1.645008 1.354992,3 3,3 h 33 c 1.645008,0 3,-1.354992 3,-3 v -33 c 0,-1.645008 -1.354992,-3 -3,-3 z m 0,2 h 33 c 0.564129,0 1,0.4358712 1,1 v 33 c 0,0.564129 -0.435871,1 -1,1 h -33 c -0.5641288,0 -1,-0.435871 -1,-1 v -33 c 0,-0.5641288 0.4358712,-1 1,-1 z"
     id="path1" />
  <path
     style="color:#000000;fill:#ffffff;stroke-linecap:round;stroke-linejoin:round;-inkscape-stroke:none"
     d="m 24,19.384766 c -3.611199,3.89e-4 -6.560547,2.949348 -6.560547,6.560546 a 1,1 0 0 0 1,1 1,1 0 0 0 1,-1 c 0,-2.530395 2.030151,-4.560273 4.560547,-4.560546 2.530559,4.5e-5 4.560547,2.029987 4.560547,4.560546 v 3.615235 c 0,2.530559 -2.029988,4.560501 -4.560547,4.560547 -2.530396,-2.73e-4 -4.560547,-2.030151 -4.560547,-4.560547 a 1,1 0 0 0 -1,-1 1,1 0 0 0 -1,1 c 0,3.611199 2.949348,6.560157 6.560547,6.560547 3.611426,-6.5e-5 6.560547,-2.949121 6.560547,-6.560547 v -3.615235 c 0,-3.611425 -2.949121,-6.560481 -6.560547,-6.560546 z"
     id="path2" />
  <path
     style="color:#000000;fill:#ffffff;stroke-linecap:round;stroke-linejoin:round;-inkscape-stroke:none"
     d="m 18.439453,11.878906 a 1,1 0 0 0 -1,1 v 22.242188 a 1,1 0 0 0 1,1 1,1 0 0 0 1,-1 V 12.878906 a 1,1 0 0 0 -1,-1 z"
     id="line2" />
</svg>
