<?xml version="1.0" encoding="UTF-8"?>
<svg id="svg1" version="1.1" viewBox="0 0 48 48" xmlns="http://www.w3.org/2000/svg">
 <defs id="defs1">
  <style id="style1">.c{fill:none;stroke:#fff;stroke-width:2px;stroke-linecap:round;stroke-linejoin:round;}</style>
 </defs>
 <g id="a">
  <path id="rect1" d="m9.5 4.5c-2.7527 0-5 2.2473-5 5v29c0 2.7527 2.2473 5 5 5h29c2.7527 0 5-2.2473 5-5v-29c0-2.7527-2.2473-5-5-5zm0 2h29c1.6793 0 3 1.3207 3 3v29c0 1.6793-1.3207 3-3 3h-29c-1.6793 0-3-1.3207-3-3v-29c0-1.6793 1.3207-3 3-3z" fill="#fff" stroke-linecap="round" stroke-linejoin="round"/>
 </g>
 <g id="b" fill="#fff" stroke-linecap="round" stroke-linejoin="round">
  <path id="path1" d="m24 20.4c-2.7496 0-5 2.2504-5 5a1 1 0 0 0 1 1 1 1 0 0 0 1-1c0-1.6686 1.3314-3 3-3s3 1.3314 3 3v2.5996c0 1.6686-1.3314 3-3 3s-3-1.3314-3-3a1 1 0 0 0-1-1 1 1 0 0 0-1 1c0 2.7496 2.2504 5 5 5s5-2.2504 5-5v-2.5996c0-2.7496-2.2504-5-5-5z"/>
  <path id="line1" d="m20 15a1 1 0 0 0-1 1v16a1 1 0 0 0 1 1 1 1 0 0 0 1-1v-16a1 1 0 0 0-1-1z"/>
 </g>
</svg>
