<?xml version="1.0" encoding="UTF-8"?>
<svg id="svg1" version="1.1" viewBox="0 0 48 48" xmlns="http://www.w3.org/2000/svg">
 <defs id="defs1">
  <style id="style1">.a{fill:none;stroke:#fff;stroke-linecap:round;stroke-linejoin:round;}</style>
 </defs>
 <path id="path1" d="m23.209 1.4863c-2.2302 0.095181-4.4366 0.51744-6.5352 1.2402-8.3942 2.8912-15.172 10.63-15.172 21.273 0 9.5987 6.0964 18.148 15.172 21.273 9.0755 3.1251 19.145 0.14211 25.055-7.4219a1.0001 1.0001 0 0 0-0.76758-1.6152l-9.418-0.20703a1.0001 1.0001 0 0 0-0.52344 0.13476c-9.4079 5.4317-21.072-1.305-21.072-12.168s11.664-17.598 21.072-12.166a1.0001 1.0001 0 0 0 0.52148 0.13281l9.4199-0.19922a1.0001 1.0001 0 0 0 0.76758-1.6152c-4.9157-6.2919-11.829-8.9477-18.52-8.6621zm0.07227 1.9863c5.477-0.25265 11.065 1.7281 15.434 6.3379l-7.0293 0.15039c-10.603-5.8109-23.738 1.8543-23.738 14.035 0 12.181 13.135 19.848 23.738 14.037l7.0293 0.1543c-5.4862 5.6925-13.792 7.8111-21.389 5.1953-8.2752-2.8496-13.824-10.63-13.824-19.383 0-9.8007 6.1469-16.739 13.824-19.383 1.9193-0.66107 3.9267-1.051 5.9551-1.1445z" color="#000000" fill="#fff" stroke-linecap="round" stroke-linejoin="round" style="-inkscape-stroke:none"/>
 <path id="circle1" d="m23.939 12.193c-6.4772 0-11.75 5.2728-11.75 11.75 0 6.4772 5.2728 11.748 11.75 11.748 6.4772 0 11.75-5.2709 11.75-11.748 0-6.4772-5.2728-11.75-11.75-11.75zm0 2c5.3963 0 9.75 4.3537 9.75 9.75 0 5.3963-4.3537 9.748-9.75 9.748s-9.75-4.3518-9.75-9.748c0-5.3963 4.3537-9.75 9.75-9.75z" color="#000000" fill="#fff" stroke-linecap="round" stroke-linejoin="round" style="-inkscape-stroke:none"/>
</svg>
