<?xml version="1.0" encoding="UTF-8"?>
<svg id="b" version="1.1" viewBox="0 0 48 48" xmlns="http://www.w3.org/2000/svg">
 <defs id="defs1">
  <style id="style1">.c{fill:none;stroke:#fff;stroke-width:2px;stroke-linecap:round;stroke-linejoin:round;}</style>
 </defs>
 <path id="circle1" d="m24 1.5c-12.415 0-22.5 10.085-22.5 22.5s10.085 22.5 22.5 22.5 22.5-10.085 22.5-22.5-10.085-22.5-22.5-22.5zm0 2c11.334 0 20.5 9.1663 20.5 20.5s-9.1663 20.5-20.5 20.5-20.5-9.1663-20.5-20.5 9.1663-20.5 20.5-20.5z" fill="#fff" stroke-linecap="round" stroke-linejoin="round"/>
 <path id="circle2" d="m24.18 14.02c-5.511 0-10 4.489-10 10s4.489 10 10 10c5.511 0 10-4.489 10-10s-4.489-10-10-10zm0 2c4.4301 0 8 3.5699 8 8 0 4.4301-3.5699 8-8 8-4.4301 0-8-3.5699-8-8 0-4.4301 3.5699-8 8-8z" fill="#fff" stroke-linecap="round" stroke-linejoin="round"/>
 <path id="line2" d="m24.18 14.02a1 1 0 0 0-1 1 1 1 0 0 0 1 1h19.359a1 1 0 0 0 1-1 1 1 0 0 0-1-1z" fill="#fff" stroke-linecap="round" stroke-linejoin="round"/>
 <path id="line3" d="m6.9648 10.787a1 1 0 0 0-0.75977 0.10156 1 1 0 0 0-0.36523 1.3652l9.6797 16.766a1 1 0 0 0 1.3672 0.36719 1 1 0 0 0 0.36523-1.3672l-9.6797-16.766a1 1 0 0 0-0.60742-0.4668z" fill="#fff" stroke-linecap="round" stroke-linejoin="round"/>
 <path id="line4" d="m31.715 27.555a1 1 0 0 0-0.60742 0.46484l-9.6797 16.766a1 1 0 0 0 0.36719 1.3672 1 1 0 0 0 1.3652-0.36719l9.6797-16.766a1 1 0 0 0-0.36524-1.3652 1 1 0 0 0-0.75976-0.09961z" fill="#fff" stroke-linecap="round" stroke-linejoin="round"/>
</svg>
