<?xml version="1.0" encoding="UTF-8"?>
<svg id="svg9" version="1.1" viewBox="0 0 48 48" xmlns="http://www.w3.org/2000/svg">
 <defs id="defs1">
  <style id="style1">.a{fill:none;stroke:#fff;stroke-linecap:round;stroke-linejoin:round;stroke-width:2px;}</style>
 </defs>
 <path id="ellipse1" transform="translate(-6.67 11.9) rotate(-25.08)" d="m23.41 6.9102c-5.6907 0-10.859 1.4933-14.668 3.9766-3.8088 2.4833-6.3027 6.0331-6.3027 10.043 0 4.0098 2.4939 7.5617 6.3027 10.045 3.8088 2.4833 8.9772 3.9746 14.668 3.9746 5.6907 0 10.857-1.4914 14.666-3.9746 3.8088-2.4833 6.3047-6.0351 6.3047-10.045 0-4.0098-2.4959-7.5597-6.3047-10.043-3.8088-2.4833-8.9753-3.9766-14.666-3.9766zm0 2c5.3384 0 10.155 1.4213 13.574 3.6504s5.3965 5.1882 5.3965 8.3691c0 3.1809-1.9776 6.1401-5.3965 8.3691s-8.2358 3.6504-13.574 3.6504c-5.3384 0-10.155-1.4213-13.574-3.6504-3.4189-2.2291-5.3965-5.1882-5.3965-8.3691 0-3.1809 1.9776-6.1401 5.3965-8.3691 3.4189-2.2291 8.2358-3.6504 13.574-3.6504z" fill="#fff" stroke-linecap="round" stroke-linejoin="round"/>
 <path id="line1" d="m21.113 21.221a1 1 0 0 0-0.76562 0.0332l-15.459 7.1992a1 1 0 0 0-0.48438 1.3281 1 1 0 0 0 1.3281 0.48438l15.459-7.1992a1 1 0 0 0 0.48438-1.3281 1 1 0 0 0-0.5625-0.51758z" fill="#fff" stroke-linecap="round" stroke-linejoin="round"/>
 <path id="line2" d="m41.088 11.604-15.461 7.1992a1 1 0 0 0-0.48438 1.3301 1 1 0 0 0 1.3301 0.48438l15.459-7.2012a1 1 0 0 0 0.48438-1.3281 1 1 0 0 0-1.3281-0.48438z" fill="#fff" stroke-linecap="round" stroke-linejoin="round"/>
 <path id="line3" d="m8.3926 15.648a1 1 0 0 0-1.2344 0.68945 1 1 0 0 0 0.68945 1.2344l13.18 3.7305a1 1 0 0 0 1.2344-0.68945 1 1 0 0 0-0.68945-1.2363z" fill="#fff" stroke-linecap="round" stroke-linejoin="round"/>
 <path id="line4" d="m25.793 20.568a1 1 0 0 0-1.2344 0.68945 1 1 0 0 0 0.68945 1.2344l13.18 3.7305a1 1 0 0 0 1.2344-0.68945 1 1 0 0 0-0.68945-1.2363z" fill="#fff" stroke-linecap="round" stroke-linejoin="round"/>
 <path id="line5" d="m18.295 8.1719a1 1 0 0 0-0.76367 0.03125 1 1 0 0 0-0.48828 1.3262l4.7285 10.24a1 1 0 0 0 1.3281 0.48828 1 1 0 0 0 0.48828-1.3281l-4.7305-10.238a1 1 0 0 0-0.5625-0.51953z" fill="#fff" stroke-linecap="round" stroke-linejoin="round"/>
 <path id="line6" d="m23.721 21.613a1 1 0 0 0-0.48828 1.3262l4.7305 10.23a1 1 0 0 0 1.3262 0.48828 1 1 0 0 0 0.48828-1.3281l-4.7305-10.23a1 1 0 0 0-1.3262-0.48633z" fill="#fff" stroke-linecap="round" stroke-linejoin="round"/>
 <path id="line7" d="m30.424 5.5195a1 1 0 0 0-1.3242 0.49609l-5.6406 12.4a1 1 0 0 0 0.49609 1.3242 1 1 0 0 0 1.3242-0.49609l5.6406-12.4a1 1 0 0 0-0.49609-1.3242z" fill="#fff" stroke-linecap="round" stroke-linejoin="round"/>
 <path id="line8" d="m22.148 22.004a1 1 0 0 0-0.55859 0.52148l-5.6797 12.5a1 1 0 0 0 0.49609 1.3242 1 1 0 0 0 1.3242-0.49609l5.6797-12.5a1 1 0 0 0-0.49609-1.3242 1 1 0 0 0-0.76562-0.02539z" fill="#fff" stroke-linecap="round" stroke-linejoin="round"/>
 <path id="ellipse8" transform="translate(-6.66 11.88) rotate(-25.05)" d="m23.41 18.18c-0.96608 0-1.8531 0.22379-2.5723 0.65625-0.71912 0.43246-1.3379 1.1612-1.3379 2.0938 0 0.93259 0.61877 1.6613 1.3379 2.0938 0.71912 0.43246 1.6062 0.65625 2.5723 0.65625s1.8531-0.22379 2.5723-0.65625c0.71912-0.43246 1.3379-1.1612 1.3379-2.0938 0-0.93259-0.61877-1.6613-1.3379-2.0938-0.71912-0.43246-1.6062-0.65625-2.5723-0.65625zm0 2c0.64107 0 1.2089 0.16823 1.543 0.36914s0.36719 0.34695 0.36719 0.38086c0 0.03391-0.0331 0.17995-0.36719 0.38086-0.33409 0.20091-0.9019 0.36914-1.543 0.36914s-1.2089-0.16823-1.543-0.36914c-0.33409-0.20091-0.36719-0.34695-0.36719-0.38086 0-0.03391 0.0331-0.17994 0.36719-0.38086 0.33409-0.20091 0.9019-0.36914 1.543-0.36914z" fill="#fff" stroke-linecap="round" stroke-linejoin="round"/>
 <path id="path8" d="m41.855 11.572a1 1 0 0 0-0.76562 0.0293 1 1 0 0 0-0.48828 1.3281c4.5919 9.938 0.57636 21.53-8.9141 25.943-9.4915 4.4136-20.886 0.015789-25.469-9.9316a1 1 0 0 0-1.3262-0.49023 1 1 0 0 0-0.49023 1.3281c5.0177 10.893 17.62 15.795 28.129 10.908 10.51-4.887 14.915-17.716 9.8867-28.598a1 1 0 0 0-0.5625-0.51758z" fill="#fff" stroke-linecap="round" stroke-linejoin="round"/>
 <path id="path9" d="m16.811 34.439a1.0001 1.0001 0 0 0-0.83789 0.46875s-0.5505 0.84905-0.85742 1.8281c-0.15346 0.48954-0.30134 1.0331-0.09375 1.6953 0.1038 0.3311 0.34496 0.687 0.68555 0.9043 0.34059 0.2173 0.73036 0.29492 1.1133 0.29492 0.38844 0 0.77577-0.07433 1.1211-0.28516 0.34532-0.21083 0.60056-0.56539 0.71094-0.90234 0.22076-0.67391 0.06367-1.2263-0.09766-1.7188-0.32265-0.98492-0.89844-1.832-0.89844-1.832a1.0001 1.0001 0 0 0-0.8457-0.45312z" fill="#fff" stroke-linecap="round" stroke-linejoin="round"/>
</svg>
