<?xml version="1.0" encoding="UTF-8" standalone="no"?>
<svg
   viewBox="0 0 48 48"
   version="1.1"
   id="svg9"
   sodipodi:docname="citra.svg"
   xmlns:inkscape="http://www.inkscape.org/namespaces/inkscape"
   xmlns:sodipodi="http://sodipodi.sourceforge.net/DTD/sodipodi-0.dtd"
   xmlns="http://www.w3.org/2000/svg"
   xmlns:svg="http://www.w3.org/2000/svg">
  <sodipodi:namedview
     id="namedview9"
     pagecolor="#ffffff"
     bordercolor="#666666"
     borderopacity="1.0"
     inkscape:showpageshadow="2"
     inkscape:pageopacity="0.0"
     inkscape:pagecheckerboard="0"
     inkscape:deskcolor="#d1d1d1" />
  <defs
     id="defs1">
    <style
       id="style1">.a{fill:none;stroke:#fff;stroke-linecap:round;stroke-linejoin:round;stroke-width:2px;}</style>
  </defs>
  <path
     style="color:#000000;fill:#ffffff;stroke-linecap:round;stroke-linejoin:round;-inkscape-stroke:none"
     d="m 23.410156,6.9101562 c -5.690735,0 -10.859176,1.4933136 -14.6679685,3.9765628 -3.8087925,2.483249 -6.3027344,6.033137 -6.3027344,10.042968 0,4.009832 2.4939419,7.561673 6.3027344,10.044922 3.8087925,2.483249 8.9772335,3.97461 14.6679685,3.97461 5.690735,0 10.857223,-1.491361 14.666016,-3.97461 3.808792,-2.483249 6.304687,-6.03509 6.304687,-10.044922 0,-4.009831 -2.495895,-7.559719 -6.304687,-10.042968 C 34.267379,8.4034698 29.100891,6.9101563 23.410156,6.9101562 Z m 0,2.0000001 c 5.33838,0 10.155301,1.4213307 13.574219,3.6503907 3.418918,2.229059 5.396484,5.188232 5.396484,8.36914 0,3.180909 -1.977566,6.140082 -5.396484,8.369141 -3.418918,2.22906 -8.235839,3.650391 -13.574219,3.650391 -5.33838,0 -10.1553,-1.421331 -13.5742185,-3.650391 -3.4189184,-2.229059 -5.3964844,-5.188232 -5.3964844,-8.369141 0,-3.180908 1.977566,-6.140081 5.3964844,-8.36914 3.4189185,-2.22906 8.2358385,-3.6503907 13.5742185,-3.6503907 z"
     id="ellipse1"
     transform="translate(-6.67 11.9) rotate(-25.08)" />
  <path
     style="color:#000000;fill:#ffffff;stroke-linecap:round;stroke-linejoin:round;-inkscape-stroke:none"
     d="m 21.113281,21.220703 a 1,1 0 0 0 -0.765625,0.0332 L 4.8886719,28.453125 a 1,1 0 0 0 -0.484375,1.328125 1,1 0 0 0 1.328125,0.484375 L 21.191406,23.066406 a 1,1 0 0 0 0.484375,-1.328125 1,1 0 0 0 -0.5625,-0.517578 z"
     id="line1" />
  <path
     style="color:#000000;fill:#ffffff;stroke-linecap:round;stroke-linejoin:round;-inkscape-stroke:none"
     d="m 41.087891,11.603516 -15.460938,7.199218 a 1,1 0 0 0 -0.484375,1.330078 1,1 0 0 0 1.330078,0.484375 l 15.458985,-7.201171 a 1,1 0 0 0 0.484375,-1.328125 1,1 0 0 0 -1.328125,-0.484375 z"
     id="line2" />
  <path
     style="color:#000000;fill:#ffffff;stroke-linecap:round;stroke-linejoin:round;-inkscape-stroke:none"
     d="m 8.3925781,15.648438 a 1,1 0 0 0 -1.234375,0.689453 1,1 0 0 0 0.6894531,1.234375 l 13.1796878,3.730468 a 1,1 0 0 0 1.234375,-0.689453 1,1 0 0 0 -0.689453,-1.236328 z"
     id="line3" />
  <path
     style="color:#000000;fill:#ffffff;stroke-linecap:round;stroke-linejoin:round;-inkscape-stroke:none"
     d="m 25.792969,20.568359 a 1,1 0 0 0 -1.234375,0.689453 1,1 0 0 0 0.689453,1.234375 l 13.179687,3.730469 a 1,1 0 0 0 1.234375,-0.689453 1,1 0 0 0 -0.689453,-1.236328 z"
     id="line4" />
  <path
     style="color:#000000;fill:#ffffff;stroke-linecap:round;stroke-linejoin:round;-inkscape-stroke:none"
     d="m 18.294922,8.171875 a 1,1 0 0 0 -0.763672,0.03125 1,1 0 0 0 -0.488281,1.3261719 l 4.728515,10.2402341 a 1,1 0 0 0 1.328125,0.488281 1,1 0 0 0 0.488282,-1.328125 L 18.857422,8.6914063 a 1,1 0 0 0 -0.5625,-0.5195313 z"
     id="line5" />
  <path
     style="color:#000000;fill:#ffffff;stroke-linecap:round;stroke-linejoin:round;-inkscape-stroke:none"
     d="m 23.720703,21.613281 a 1,1 0 0 0 -0.488281,1.326172 l 4.730469,10.230469 a 1,1 0 0 0 1.326171,0.488281 1,1 0 0 0 0.488282,-1.328125 L 25.046875,22.099609 a 1,1 0 0 0 -1.326172,-0.486328 z"
     id="line6" />
  <path
     style="color:#000000;fill:#ffffff;stroke-linecap:round;stroke-linejoin:round;-inkscape-stroke:none"
     d="M 30.423828,5.5195312 A 1,1 0 0 0 29.099609,6.015625 l -5.640625,12.400391 a 1,1 0 0 0 0.496094,1.324218 1,1 0 0 0 1.324219,-0.496093 L 30.919922,6.84375 A 1,1 0 0 0 30.423828,5.5195312 Z"
     id="line7" />
  <path
     style="color:#000000;fill:#ffffff;stroke-linecap:round;stroke-linejoin:round;-inkscape-stroke:none"
     d="m 22.148437,22.003906 a 1,1 0 0 0 -0.558593,0.521485 l -5.679688,12.5 a 1,1 0 0 0 0.496094,1.324218 1,1 0 0 0 1.324219,-0.496093 l 5.679687,-12.5 a 1,1 0 0 0 -0.496094,-1.324219 1,1 0 0 0 -0.765625,-0.02539 z"
     id="line8" />
  <path
     style="color:#000000;fill:#ffffff;stroke-linecap:round;stroke-linejoin:round;-inkscape-stroke:none"
     d="m 23.410156,18.179687 c -0.966077,0 -1.853145,0.22379 -2.572265,0.65625 C 20.11877,19.268398 19.5,19.997102 19.5,20.929687 c 0,0.932586 0.61877,1.66129 1.337891,2.09375 0.71912,0.432461 1.606188,0.65625 2.572265,0.65625 0.966077,0 1.853145,-0.223789 2.572266,-0.65625 0.719121,-0.43246 1.33789,-1.161164 1.33789,-2.09375 0,-0.932585 -0.618769,-1.661289 -1.33789,-2.09375 -0.719121,-0.43246 -1.606189,-0.65625 -2.572266,-0.65625 z m 0,2 c 0.64107,0 1.208878,0.168227 1.542969,0.369141 0.334091,0.200914 0.367187,0.346948 0.367187,0.380859 0,0.03391 -0.0331,0.179946 -0.367187,0.38086 -0.334091,0.200914 -0.901899,0.36914 -1.542969,0.36914 -0.64107,0 -1.208877,-0.168226 -1.542969,-0.36914 C 21.533096,21.109633 21.5,20.963599 21.5,20.929687 c 0,-0.03391 0.0331,-0.179945 0.367187,-0.380859 0.334092,-0.200914 0.901899,-0.369141 1.542969,-0.369141 z"
     id="ellipse8"
     transform="translate(-6.66 11.88) rotate(-25.05)" />
  <path
     style="color:#000000;fill:#ffffff;stroke-linecap:round;stroke-linejoin:round;-inkscape-stroke:none"
     d="m 41.855469,11.572266 a 1,1 0 0 0 -0.765625,0.0293 1,1 0 0 0 -0.488282,1.328125 c 4.591921,9.938022 0.57635,21.530317 -8.914062,25.943359 -9.491523,4.413558 -20.886445,0.01578 -25.46875,-9.931641 A 1,1 0 0 0 4.8925781,28.451172 1,1 0 0 0 4.4023437,29.779297 C 9.4200295,40.671856 22.022793,45.573933 32.53125,40.6875 43.040818,35.800551 47.446039,22.9718 42.417969,12.089844 a 1,1 0 0 0 -0.5625,-0.517578 z"
     id="path8" />
  <path
     style="color:#000000;fill:#ffffff;stroke-linecap:round;stroke-linejoin:round;-inkscape-stroke:none"
     d="m 16.810547,34.439453 a 1.0001,1.0001 0 0 0 -0.837891,0.46875 c 0,0 -0.550502,0.849052 -0.857422,1.828125 -0.153459,0.489537 -0.301339,1.033102 -0.09375,1.695313 0.103795,0.331105 0.344957,0.687 0.685547,0.904296 0.340591,0.217297 0.730365,0.294922 1.113281,0.294922 0.388443,0 0.775773,-0.07433 1.121094,-0.285156 0.345322,-0.210828 0.600555,-0.565387 0.710938,-0.902344 0.220764,-0.673913 0.06367,-1.226287 -0.09766,-1.71875 C 18.23204,35.739685 17.65625,34.892578 17.65625,34.892578 a 1.0001,1.0001 0 0 0 -0.845703,-0.453125 z"
     id="path9" />
</svg>
