<?xml version="1.0" encoding="UTF-8"?>
<svg id="b" version="1.1" viewBox="0 0 48 48" xmlns="http://www.w3.org/2000/svg">
 <defs id="defs1">
  <style id="style1">.c{fill:none;stroke:#fff;stroke-width:2px;stroke-linecap:round;stroke-linejoin:round;}</style>
 </defs>
 <path id="circle1" d="m24 1.5c-12.415 0-22.5 10.085-22.5 22.5s10.085 22.5 22.5 22.5 22.5-10.085 22.5-22.5-10.085-22.5-22.5-22.5zm0 2c11.334 0 20.5 9.1663 20.5 20.5s-9.1663 20.5-20.5 20.5-20.5-9.1663-20.5-20.5 9.1663-20.5 20.5-20.5z" fill="#fff" stroke-linecap="round" stroke-linejoin="round"/>
 <path id="path1" d="m24.398 15.088c-5.2151-0.42411-10.376 0.0727-14.338 1.2754a1 1 0 0 0-0.66602 1.248 1 1 0 0 0 1.248 0.66602c7.2655-2.2056 19.793-1.7345 27.396 2.7793a1 1 0 0 0 1.3691-0.34961 1 1 0 0 0-0.34961-1.3711c-4.1762-2.4792-9.4451-3.8239-14.66-4.248zm-6.7734 7.0605c-2.179 0.17074-4.3191 0.56025-6.3477 1.1758a1 1 0 0 0-0.66797 1.2461 1 1 0 0 0 1.248 0.66797c7.5019-2.2763 17.001-1.1424 23.338 2.752a1 1 0 0 0 1.375-0.33008 1 1 0 0 0-0.32812-1.375c-5.2019-3.1967-12.08-4.649-18.617-4.1367zm0.56445 6.623c-1.9572 0.1362-3.9852 0.44567-6.0781 0.92383a1 1 0 0 0-0.75391 1.1973 1 1 0 0 0 1.1992 0.75195c8.0081-1.8296 14.724-1.0322 20.137 2.2754a1 1 0 0 0 1.375-0.33203 1 1 0 0 0-0.33203-1.373c-4.4416-2.7144-9.6752-3.852-15.547-3.4434z" fill="#fff" stroke-linecap="round" stroke-linejoin="round"/>
</svg>
