<?xml version="1.0" encoding="UTF-8"?>
<svg id="svg121" version="1.1" viewBox="0 0 48 48" xmlns="http://www.w3.org/2000/svg">
 <defs id="defs31">
  <style id="style2">.a{fill:none;stroke:#fff;stroke-width:2px;stroke-linecap:round;stroke-linejoin:round}</style>
 </defs>
 <g id="g119" fill="none" stroke="#fff" stroke-width="2">
  <g id="g95" fill="#fff" stroke="none" stroke-linecap="round" stroke-linejoin="round" stroke-width="2">
   <path id="path81" d="m29.773 2.7461a1.0001 1.0001 0 0 0-0.82031 0.28711 1.0001 1.0001 0 0 0-0.11133 0.45312l-0.125-0.078125-4.3301 12.33a1.0001 1.0001 0 0 0 1.1094 1.3164l17.055-2.8691a1.0001 1.0001 0 0 0 0.7207-1.4492c-2.6657-5.1183-7.5748-8.8778-13.426-9.9785l0.01367 0.042969a1.0001 1.0001 0 0 0-0.08594-0.054687zm0.51367 2.2305c4.3843 1.0571 8.0623 3.7878 10.408 7.4922l-13.857 2.332z" color="#000000" style="-inkscape-stroke:none"/>
   <path id="path83" d="m43.514 18.076-12.842 2.4121a1.0001 1.0001 0 0 0-0.58789 1.6211l11.012 13.334a1.0001 1.0001 0 0 0 1.6152-0.09961c3.1005-4.8681 3.9011-10.998 1.9297-16.615l-0.02539 0.11523a1.0001 1.0001 0 0 0-1.1016-0.76758zm-0.57422 2.1426c1.2768 4.326 0.7505 8.8754-1.2852 12.76l-8.9492-10.836z" color="#000000" style="-inkscape-stroke:none"/>
   <path id="path85" d="m30.064 27.535a1.0001 1.0001 0 0 0-0.76172 0.63477l-6.043 16.203a1.0001 1.0001 0 0 0 0.89453 1.3496c5.7662 0.25116 11.475-2.1217 15.354-6.6387l-0.16797-0.0625a1.0001 1.0001 0 0 0 0.41016-0.58789 1.0001 1.0001 0 0 0-0.41016-0.58789l0.16797-0.0625-8.5098-9.9141a1.0001 1.0001 0 0 0-0.93359-0.33398zm0.51953 2.9219 6.7832 7.9004c-3.1074 3.2689-7.3116 5.0884-11.693 5.2676z" color="#000000" style="-inkscape-stroke:none"/>
   <path id="path87" d="m22.514 30.936-17.053 2.8691a1.0001 1.0001 0 0 0-0.72266 1.4473c2.6647 5.1184 7.5748 8.8797 13.426 9.9805a1.0001 1.0001 0 0 0 1.1289-0.65234l4.3301-12.328a1.0001 1.0001 0 0 0-1.1094-1.3164zm-1.3379 2.252-3.4512 9.8262c-4.386-1.0565-8.0643-3.7867-10.41-7.4922z" color="#000000" style="-inkscape-stroke:none"/>
   <path id="path89" d="m6.0723 12.195a1.0001 1.0001 0 0 0-0.78125 0.46094c-3.1004 4.868-3.9022 10.998-1.9297 16.615l0.23047-1.0117a1.0001 1.0001 0 0 0 0.89648 1.6641l12.84-2.4121a1.0001 1.0001 0 0 0 0.58789-1.6211l-11.012-13.334a1.0001 1.0001 0 0 0-0.83203-0.36133zm0.27344 2.8242 8.9492 10.838-10.234 1.9238c-1.2777-4.3267-0.7516-8.8768 1.2852-12.762z" color="#000000" style="-inkscape-stroke:none"/>
   <path id="path91" d="m23.848 2.2773c-5.766-0.2501-11.476 2.1218-15.355 6.6387l0.16797 0.0625a1.0001 1.0001 0 0 0-0.41016 0.58789 1.0001 1.0001 0 0 0 0.41016 0.58789l-0.16797 0.0625 8.5117 9.916a1.0001 1.0001 0 0 0 1.6953-0.30273l6.041-16.203a1.0001 1.0001 0 0 0-0.89258-1.3496zm-1.5195 2.0977-4.9121 13.168-6.7832-7.9004c3.1086-3.2694 7.3127-5.0884 11.695-5.2676z" color="#000000" style="-inkscape-stroke:none"/>
   <path id="circle93" d="m24.006 20.047c-2.1691 0-3.9492 1.7781-3.9492 3.9473 0 2.1691 1.7801 3.9492 3.9492 3.9492 2.1691 0 3.9473-1.7801 3.9473-3.9492 0-2.1691-1.7781-3.9473-3.9473-3.9473zm0 2c1.0882 0 1.9473 0.85902 1.9473 1.9473 0 1.0882-0.85902 1.9492-1.9473 1.9492-1.0882 0-1.9492-0.86097-1.9492-1.9492 0-1.0882 0.86097-1.9473 1.9492-1.9473z" color="#000000" style="-inkscape-stroke:none"/>
  </g>
 </g>
</svg>
