<?xml version="1.0" encoding="UTF-8"?>
<svg id="Layer_2" data-name="Layer 2" version="1.1" viewBox="0 0 48 48" xmlns="http://www.w3.org/2000/svg">
 <defs id="defs4">
  <style id="style2">.cls-1{fill:none;stroke:#fff;stroke-linecap:round;stroke-linejoin:round;}</style>
 </defs>
 <path id="path6" d="m19 3.4902a1.0001 1.0001 0 0 0-1 1.002l0.035156 11.635-11.139-3.5781a1.0001 1.0001 0 0 0-1.2578 0.64258l-3.0898 9.5a1.0001 1.0001 0 0 0 0.64062 1.2598l11.193 3.6445-6.8613 9.457a1.0001 1.0001 0 0 0 0.2168 1.3926l8 5.8711a1.0001 1.0001 0 0 0 1.4004-0.21875l6.8652-9.4609 6.9102 9.3965a1.0001 1.0001 0 0 0 1.3984 0.21289l8-5.8691a1.0001 1.0001 0 0 0 0.2168-1.3945l-6.8594-9.4531 11.137-3.5781a1.0001 1.0001 0 0 0 0.64453-1.2598l-3.0488-9.4297a1.0001 1.0001 0 0 0-1.2578-0.64453l-11.145 3.5801v-11.707a1.0001 1.0001 0 0 0-1-1zm1.0039 2h7.9961v12.08a1.0001 1.0001 0 0 0 1.3066 0.95117l11.5-3.6934 2.4336 7.5273-11.496 3.6934a1.0001 1.0001 0 0 0-0.50391 1.5391l7.0859 9.7637-6.3926 4.6914-7.127-9.6953a1.0001 1.0001 0 0 0-1.6152 0.0059l-7.0801 9.7559-6.3887-4.6875 7.0859-9.7637a1.0001 1.0001 0 0 0-0.49805-1.5391l-11.551-3.7598 2.4727-7.6016 11.502 3.6934a1.0001 1.0001 0 0 0 1.3047-0.95508z" color="#000000" fill="#fff" stroke-linecap="round" stroke-linejoin="round" style="-inkscape-stroke:none"/>
</svg>
