<?xml version="1.0" encoding="UTF-8"?>
<svg id="svg1" version="1.1" viewBox="0 0 48 48" xmlns="http://www.w3.org/2000/svg">
 <defs id="defs1">
  <style id="style1">.a{fill:none;stroke:#fff;stroke-width:2px;stroke-linecap:round;stroke-linejoin:round;}</style>
 </defs>
 <path id="path1" d="m30.734 12.729c-1.3943 0.16846-2.9534 0.70829-4.6035 1.7734-2.366-0.96797-6.6384-1.8571-11-1.3477-2.3107 0.26991-4.5996 0.94425-6.4648 2.3184-1.7723 1.3056-3.0612 3.321-3.5645 5.9648l-1.1406 1.5234a1.0001 1.0001 0 0 0-0.1543 0.29883c-0.1653 0.52344-0.26655 0.92646-0.26367 1.3633 0.00144 0.21841 0.02824 0.46031 0.16016 0.72266 0.13192 0.26234 0.4066 0.51604 0.6875 0.62305 0.56179 0.21402 0.9337 0.05756 1.2617-0.0625 0.32802-0.12006 0.64194-0.28151 0.98242-0.46484 0.16681-0.08982 0.83172-0.35168 1.6406-0.59375 0.8089-0.24207 1.8017-0.49591 2.8047-0.69531s2.0203-0.34319 2.8574-0.37891c0.75127-0.03205 1.2586 0.07598 1.4863 0.1543 0.77409 1.5856 1.7412 2.7648 3.084 3.4688 1.4912 0.78179 3.2863 1.1001 5.707 1.4531a1.0001 1.0001 0 0 0 0.64062-1.8574c-0.7846-0.44834-1.5479-0.7705-2.1367-1.2695-0.32754-0.27757-0.60193-0.63304-0.83203-1.084 1.3672 0.18067 3.0739 0.55217 4.9141 1.2344 2.4811 0.91982 4.952 2.2379 6.2637 3.5059a1.0001 1.0001 0 0 0 1.6191-1.1035c-0.40096-0.96231-1.2764-1.863-2.6016-2.9238-1.3252-1.0608-3.099-2.1827-5.2422-3.1309-3.8925-1.7221-9.0525-2.7573-14.789-1.7852 0.3607-0.4092 0.89963-0.85864 1.6562-1.25 1.6268-0.84143 4.0178-1.4143 6.5781-1.2285 5.1734 0.39044 10.046 1.7599 13.51 4.8496a1.0001 1.0001 0 0 0 0.0098 0.0078c3.7691 3.2774 6.7551 7.3592 8.7383 11.943a1.0001 1.0001 0 0 0 1.8477-0.76562c-0.0045-0.01147-0.0091-0.01784-0.01367-0.0293-4.0493-10.209-8.1745-13.869-11.9-16.789a1.0001 1.0001 0 0 0-2e-3 -0.0039c-0.32198-0.25043-0.40441-0.43271-0.42383-0.52344-0.01942-0.09073-0.02271-0.16558 0.11133-0.36328 0.26807-0.3954 1.2013-1.0484 2.668-1.4609a1.0001 1.0001 0 0 0-0.13477-1.9531c-1.0953-0.14936-2.4376-0.32468-3.9609-0.14062zm0.25 1.9375c0.02645-3e-3 0.04787 0.0067 0.07422 0.0039-0.17052 0.17188-0.41784 0.29609-0.55078 0.49219-0.36596 0.5398-0.55715 1.2337-0.41406 1.9023 0.1427 0.66687 0.57274 1.2326 1.1484 1.6816 7.02e-4 5.5e-4 0.0013 0.0014 2e-3 2e-3 7.68e-4 5.98e-4 0.0012 0.0014 2e-3 2e-3 0.0025 0.0019 0.0053 0.0039 0.0078 0.0059-3.2671-1.6637-7.005-2.5052-10.818-2.793a1.0001 1.0001 0 0 0-0.0039 0c-2.9389-0.21374-5.6467 0.41392-7.6445 1.4473-0.9989 0.51668-1.8244 1.1326-2.4141 1.8594-0.58965 0.72678-0.96134 1.6281-0.79883 2.5625a1.0001 1.0001 0 0 0 0.35938 0.54688c-0.78344 0.17637-1.5807 0.35772-2.2324 0.55274-0.73118 0.21881-1.2357 0.41649-1.6895 0.62695l0.74805-0.99805a1.0001 1.0001 0 0 0 0.18945-0.44922c0.3646-2.3927 1.4207-3.9378 2.9023-5.0293 1.4816-1.0915 3.4349-1.6988 5.5117-1.9414 4.1536-0.48518 8.8184 0.56191 10.479 1.3281a1.0001 1.0001 0 0 0 0.99414-0.0918c1.5767-1.113 2.9217-1.57 4.1484-1.7109zm-15.564 7.3438c2.043-0.07817 3.933 0.15755 5.7168 0.53516-0.2186-0.0094-0.50774-0.09048-0.70898-0.08398a1.0001 1.0001 0 0 0-0.95508 1.1641c0.14501 0.87003 0.42656 1.5922 0.7793 2.1992-0.20212-0.08011-0.64028-0.1079-0.81445-0.19922-1.0838-0.56821-1.7642-1.3379-2.459-2.959a1.0001 1.0001 0 0 0-0.45312-0.49024c-0.33026-0.17382-0.74488-0.10478-1.1055-0.16602z" fill="#fff" stroke-linecap="round" stroke-linejoin="round"/>
</svg>
