<?xml version="1.0" encoding="UTF-8"?>
<svg id="svg14" version="1.1" viewBox="0 0 48 48" xmlns="http://www.w3.org/2000/svg">
 <defs id="defs4">
  <style id="style2">.a{fill:none;stroke:#fff;stroke-linecap:round;stroke-linejoin:round;}</style>
 </defs>
 <path id="rect6" d="m23.252 13.639a1.0001 1.0001 0 0 0-1 1v6.2402a1.0001 1.0001 0 0 0 1 1h2.8047a1.0001 1.0001 0 0 0 1-1v-6.2402a1.0001 1.0001 0 0 0-1-1zm1 2h0.80469v4.2402h-0.80469z" color="#000000" fill="#fff" stroke-linecap="round" stroke-linejoin="round" style="-inkscape-stroke:none"/>
 <path id="polyline8" d="m20.369 7.3984a1.0001 1.0001 0 0 0-1 1v1.0801h-1.0801a1.0001 1.0001 0 0 0-1 1v2.043h-1.043v-1.0801a1.0001 1.0001 0 0 0-1-1h-10.246a1.0001 1.0001 0 0 0-1 1v5.2773a1.0001 1.0001 0 0 0 1 1h9.2461v2.043a1.0001 1.0001 0 0 0 1 1h2.043v13.6a1.0001 1.0001 0 0 0 1 1h1.0801v2.1602a1.0001 1.0001 0 0 0 1 1h1.0801v1.0801a1.0001 1.0001 0 0 0 1 1h8.3223a1.0001 1.0001 0 0 0 1-1v-8.3203a1 1 0 0 0-1-1 1 1 0 0 0-1 1v7.3203h-6.3223v-1.0801a1.0001 1.0001 0 0 0-1-1h-1.0801v-2.1602a1.0001 1.0001 0 0 0-1-1h-1.0801v-13.6a1.0001 1.0001 0 0 0-1-1h-2.043v-2.043a1.0001 1.0001 0 0 0-1-1h-9.2461v-3.2773h8.2461v1.0801a1.0001 1.0001 0 0 0 1 1h3.043a1.0001 1.0001 0 0 0 1-1v-2.043h1.0801a1.0001 1.0001 0 0 0 1-1v-1.0801h11.145v4.2402h-1.8398a1.0001 1.0001 0 0 0-1 1v6.2422a1.0001 1.0001 0 0 0 1 1h5.123a1.0001 1.0001 0 0 0 1-1v-1.082h5.2031v3.0059h-11.326a1.0001 1.0001 0 0 0-1 1v4.4336a1 1 0 0 0 1 1 1 1 0 0 0 1-1v-3.4336h11.326a1.0001 1.0001 0 0 0 1-1v-5.0059a1.0001 1.0001 0 0 0-1-1h-7.2031a1.0001 1.0001 0 0 0-1 1v1.082h-3.123v-4.2422h1.8398a1.0001 1.0001 0 0 0 1-1v-6.2402a1.0001 1.0001 0 0 0-1-1z" color="#000000" fill="#fff" stroke-linecap="round" stroke-linejoin="round" style="-inkscape-stroke:none"/>
 <path id="polyline10" d="m30.674 27.238a1 1 0 0 0-1 1 1 1 0 0 0 1 1h5.2207v7.2832h-1.043v-5.2402a1.0001 1.0001 0 0 0-1-1h-3.0801a1 1 0 0 0-1 1 1 1 0 0 0 1 1h2.0801v5.2402a1.0001 1.0001 0 0 0 1 1h3.043a1.0001 1.0001 0 0 0 1-1v-9.2832a1.0001 1.0001 0 0 0-1-1z" color="#000000" fill="#fff" stroke-linecap="round" stroke-linejoin="round" style="-inkscape-stroke:none"/>
 <path id="rect12" d="m22.803 27.238a1.0001 1.0001 0 0 0-1 1v3.043a1.0001 1.0001 0 0 0 1 1h7.8711a1.0001 1.0001 0 0 0 1-1v-3.043a1.0001 1.0001 0 0 0-1-1zm1 2h5.8711v1.043h-5.8711z" color="#000000" fill="#fff" stroke-linecap="round" stroke-linejoin="round" style="-inkscape-stroke:none"/>
</svg>
