<?xml version="1.0" encoding="UTF-8" standalone="no"?>
<svg
   viewBox="0 0 48 48"
   version="1.1"
   id="svg2"
   sodipodi:docname="Downwell.desktop.svg"
   xmlns:inkscape="http://www.inkscape.org/namespaces/inkscape"
   xmlns:sodipodi="http://sodipodi.sourceforge.net/DTD/sodipodi-0.dtd"
   xmlns="http://www.w3.org/2000/svg"
   xmlns:svg="http://www.w3.org/2000/svg">
  <sodipodi:namedview
     id="namedview2"
     pagecolor="#ffffff"
     bordercolor="#666666"
     borderopacity="1.0"
     inkscape:showpageshadow="2"
     inkscape:pageopacity="0.0"
     inkscape:pagecheckerboard="0"
     inkscape:deskcolor="#d1d1d1" />
  <defs
     id="defs1">
    <style
       id="style1">.a{fill:none;stroke:#fff;stroke-width:2px;stroke-linecap:round;stroke-linejoin:round;}</style>
  </defs>
  <path
     style="color:#000000;fill:#ffffff;stroke-linecap:round;stroke-linejoin:round;-inkscape-stroke:none"
     d="m 23.251953,13.638672 a 1.0001,1.0001 0 0 0 -1,1 v 6.240234 a 1.0001,1.0001 0 0 0 1,1 h 2.804688 a 1.0001,1.0001 0 0 0 1,-1 v -6.240234 a 1.0001,1.0001 0 0 0 -1,-1 z m 1,2 h 0.804688 v 4.240234 h -0.804688 z"
     id="rect1" />
  <path
     style="color:#000000;fill:#ffffff;stroke-linecap:round;stroke-linejoin:round;-inkscape-stroke:none"
     d="m 20.369141,7.3984375 a 1.0001,1.0001 0 0 0 -1,1 v 1.0800781 h -1.080079 a 1.0001,1.0001 0 0 0 -1,1.0000004 v 2.042968 h -1.042968 v -1.080078 a 1.0001,1.0001 0 0 0 -1,-1 H 5 a 1.0001,1.0001 0 0 0 -1,1 v 5.277344 a 1.0001,1.0001 0 0 0 1,1 h 9.246094 v 2.042969 a 1.0001,1.0001 0 0 0 1,1 h 2.042968 v 13.599609 a 1.0001,1.0001 0 0 0 1,1 h 1.080079 v 2.160156 a 1.0001,1.0001 0 0 0 1,1 h 1.080078 v 1.080078 a 1.0001,1.0001 0 0 0 1,1 h 8.322265 a 1.0001,1.0001 0 0 0 1,-1 V 31.28125 a 1,1 0 0 0 -1,-1 1,1 0 0 0 -1,1 v 7.320312 h -6.322265 v -1.080078 a 1.0001,1.0001 0 0 0 -1,-1 h -1.080078 v -2.160156 a 1.0001,1.0001 0 0 0 -1,-1 H 19.289062 V 19.761719 a 1.0001,1.0001 0 0 0 -1,-1 H 16.246094 V 16.71875 a 1.0001,1.0001 0 0 0 -1,-1 H 6 v -3.277344 h 8.246094 v 1.080078 a 1.0001,1.0001 0 0 0 1,1 h 3.042968 a 1.0001,1.0001 0 0 0 1,-1 v -2.042968 h 1.080079 a 1.0001,1.0001 0 0 0 1,-1 V 9.3984375 h 11.144531 v 4.2402345 h -1.839844 a 1.0001,1.0001 0 0 0 -1,1 v 6.242187 a 1.0001,1.0001 0 0 0 1,1 h 5.123047 a 1.0001,1.0001 0 0 0 1,-1 V 19.798828 H 42 v 3.005859 H 30.673828 a 1.0001,1.0001 0 0 0 -1,1 v 4.433594 a 1,1 0 0 0 1,1 1,1 0 0 0 1,-1 V 24.804687 H 43 a 1.0001,1.0001 0 0 0 1,-1 v -5.005859 a 1.0001,1.0001 0 0 0 -1,-1 h -7.203125 a 1.0001,1.0001 0 0 0 -1,1 v 1.082031 h -3.123047 v -4.242187 h 1.839844 a 1.0001,1.0001 0 0 0 1,-1 V 8.3984375 a 1.0001,1.0001 0 0 0 -1,-1 z"
     id="polyline1" />
  <path
     style="color:#000000;fill:#ffffff;stroke-linecap:round;stroke-linejoin:round;-inkscape-stroke:none"
     d="m 30.673828,27.238281 a 1,1 0 0 0 -1,1 1,1 0 0 0 1,1 h 5.220703 v 7.283203 H 34.851562 V 31.28125 a 1.0001,1.0001 0 0 0 -1,-1 h -3.080078 a 1,1 0 0 0 -1,1 1,1 0 0 0 1,1 h 2.080078 v 5.240234 a 1.0001,1.0001 0 0 0 1,1 h 3.042969 a 1.0001,1.0001 0 0 0 1,-1 v -9.283203 a 1.0001,1.0001 0 0 0 -1,-1 z"
     id="polyline2" />
  <path
     style="color:#000000;fill:#ffffff;stroke-linecap:round;stroke-linejoin:round;-inkscape-stroke:none"
     d="m 22.802734,27.238281 a 1.0001,1.0001 0 0 0 -1,1 v 3.042969 a 1.0001,1.0001 0 0 0 1,1 h 7.871094 a 1.0001,1.0001 0 0 0 1,-1 v -3.042969 a 1.0001,1.0001 0 0 0 -1,-1 z m 1,2 h 5.871094 v 1.042969 h -5.871094 z"
     id="rect2" />
</svg>
