<?xml version="1.0" encoding="UTF-8"?>
<svg id="Layer_2" data-name="Layer 2" version="1.1" viewBox="0 0 48 48" xmlns="http://www.w3.org/2000/svg">
 <defs id="defs4">
  <style id="style2">.cls-1{fill:none;stroke:#fff;stroke-miterlimit:10;fill-rule:evenodd;}</style>
 </defs>
 <path id="path6" d="m33.75 5.8145-9.75 6.1914-9.75-6.1895-11.613 7.373 9.6914 6.1699-9.6895 6.1699 11.611 7.4062 9.75-6.209 9.75 6.209 11.611-7.4062-9.6855-6.168 9.6875-6.1504zm-19.5 2.3691 7.8945 5.0137-7.8887 5.0176-7.8906-5.0234zm19.5 0.00195 7.8867 5.0234-7.8906 5.0078-7.8906-5.0195zm-9.75 6.1992 7.8184 4.9766-7.8184 4.9824-7.8184-4.9824zm-9.7461 6.1191 7.8926 5.0312-7.8965 5.0293-7.8906-5.0332zm19.492 0 7.8945 5.0273-7.8906 5.0332-7.8965-5.0293zm-9.6758 6.9004-11.613 7.4082 1.3262 0.8418 10.287 6.5293 11.611-7.3711zm0 2.3711 7.8867 5.0312-7.8867 5.0098-7.8887-5.0098z" color="#000000" fill="#fff" fill-rule="evenodd" stroke-miterlimit="10" style="-inkscape-stroke:none"/>
</svg>
