<?xml version="1.0" encoding="UTF-8" standalone="no"?>
<svg
   viewBox="0 0 48 48"
   version="1.1"
   id="svg22"
   sodipodi:docname="duckstation.svg"
   xmlns:inkscape="http://www.inkscape.org/namespaces/inkscape"
   xmlns:sodipodi="http://sodipodi.sourceforge.net/DTD/sodipodi-0.dtd"
   xmlns="http://www.w3.org/2000/svg"
   xmlns:svg="http://www.w3.org/2000/svg">
  <sodipodi:namedview
     id="namedview22"
     pagecolor="#ffffff"
     bordercolor="#666666"
     borderopacity="1.0"
     inkscape:showpageshadow="2"
     inkscape:pageopacity="0.0"
     inkscape:pagecheckerboard="0"
     inkscape:deskcolor="#d1d1d1" />
  <defs
     id="defs1">
    <style
       id="style1">.a{fill:none;stroke:#fff;stroke-width:2px;stroke-linecap:round;stroke-linejoin:round;}</style>
  </defs>
  <path
     style="color:#000000;fill:#ffffff;stroke-linecap:round;stroke-linejoin:round;-inkscape-stroke:none"
     d="m 26.162109,3.6328125 -9.283203,5.3164063 a 1.0001,1.0001 0 0 0 -0.09961,0.171875 1,1 0 0 0 -0.269531,0.2089843 1,1 0 0 0 0.04687,0.171875 A 1.0001,1.0001 0 0 0 16.375,9.8164063 V 21.068359 a 1.0001,1.0001 0 0 0 0.511719,0.871094 l 9.248047,5.179688 a 1.0001,1.0001 0 0 0 1.488281,-0.876954 L 27.568359,15.058594 A 1.0001,1.0001 0 0 0 27.0625,14.195313 L 19.384766,9.8183594 27.15625,5.3671875 A 1,1 0 0 0 27.525391,4.0039062 1,1 0 0 0 26.162109,3.6328125 Z M 18.375,11.544922 l 7.195312,4.101562 0.04492,8.888672 L 18.375,20.480469 Z"
     id="path1" />
  <path
     style="color:#000000;fill:#ffffff;stroke-linecap:round;stroke-linejoin:round;-inkscape-stroke:none"
     d="m 27.242187,3.6816406 a 1,1 0 0 0 -1.361328,0.3847656 1,1 0 0 0 0.384766,1.3613282 l 7.589844,4.2382812 -7.564453,4.5078124 a 1,1 0 0 0 -0.347657,1.371094 1,1 0 0 0 1.371094,0.347656 l 9.054688,-5.394531 A 1.0001,1.0001 0 0 0 36.34375,8.765625 Z"
     id="path2" />
  <path
     style="color:#000000;fill:#ffffff;stroke-linecap:round;stroke-linejoin:round;-inkscape-stroke:none"
     d="m 35.853516,8.6621094 a 1,1 0 0 0 -1,1 v 8.3789066 a 1.0001,1.0001 0 0 0 -0.910157,0.0078 l -5.441406,3.117188 a 1.0001,1.0001 0 0 0 -0.503906,0.86914 v 2.105469 a 1.0001,1.0001 0 0 0 0.503906,0.867187 l 5.324219,3.050782 a 1.0001,1.0001 0 0 0 0.99414,0 L 40.267578,24.9375 a 1.0001,1.0001 0 0 0 0.503906,-0.869141 v -2.125 a 1.0001,1.0001 0 0 0 -0.503906,-0.86914 L 36.853516,19.119141 V 9.6621094 a 1,1 0 0 0 -1,-1 z m -1.402344,11.4023436 0.902344,0.496094 a 1.0001,1.0001 0 0 0 0.0039,0.0059 l 3.414062,1.955078 v 0.96875 l -4.449218,2.546875 -4.324219,-2.476562 v -0.947266 z"
     id="path3" />
  <path
     style="color:#000000;fill:#ffffff;stroke-linecap:round;stroke-linejoin:round;-inkscape-stroke:none"
     d="m 39.279297,21.111328 c -0.08917,0.04722 -0.06538,0.03592 -0.111328,0.0625 -0.04595,0.02658 -0.107688,0.06211 -0.185547,0.107422 -0.155719,0.09062 -0.372835,0.215698 -0.628906,0.365234 -0.512144,0.299072 -1.184046,0.69429 -1.853516,1.085938 -1.338941,0.783296 -2.664062,1.558594 -2.664063,1.558594 a 1.0001,1.0001 0 0 0 -0.496093,0.861328 l -0.002,1.939453 a 1,1 0 0 0 1,1.001953 1,1 0 0 0 1,-1 l 0.002,-1.365234 c 0.363691,-0.21294 1.07962,-0.633646 2.169922,-1.271485 0.66924,-0.391513 1.342256,-0.783476 1.853515,-1.082031 0.25563,-0.149278 0.470928,-0.275568 0.625,-0.365234 0.07704,-0.04483 0.138562,-0.08055 0.181641,-0.105469 0.04308,-0.02492 0.121184,-0.06773 0.04492,-0.02734 a 1,1 0 0 0 0.416015,-1.351562 1,1 0 0 0 -1.351562,-0.414063 z"
     id="path4" />
  <path
     style="color:#000000;fill:#ffffff;stroke-linecap:round;stroke-linejoin:round;-inkscape-stroke:none"
     d="m 29.660156,21.367187 a 1,1 0 0 0 -1.365234,0.371094 1,1 0 0 0 0.371094,1.365235 l 5.201171,2.978515 a 1,1 0 0 0 1.363282,-0.371094 1,1 0 0 0 -0.371094,-1.365234 z"
     id="path5" />
  <path
     style="color:#000000;fill:#ffffff;stroke-linecap:round;stroke-linejoin:round;-inkscape-stroke:none"
     d="m 28.917969,23.847656 -2.683594,1.53711 A 1,1 0 0 0 25.863281,26.75 a 1,1 0 0 0 1.365235,0.369141 l 2.683593,-1.53711 A 1,1 0 0 0 30.28125,24.21875 1,1 0 0 0 28.917969,23.847656 Z"
     id="path6" />
  <path
     style="color:#000000;fill:#ffffff;stroke-linecap:round;stroke-linejoin:round;-inkscape-stroke:none"
     d="m 29.917969,16.826172 a 1,1 0 0 0 -0.238282,0.09961 1,1 0 0 0 -0.324218,0.04102 l -1.820313,1.041015 a 1.0001,1.0001 0 0 0 -0.501953,0.869141 V 21 a 1.0001,1.0001 0 0 0 1.496094,0.867187 l 1.886719,-1.080078 a 1.0001,1.0001 0 0 0 0.501953,-0.867187 v -2.09375 a 1,1 0 0 0 -1,-1 z"
     id="path7" />
  <path
     style="color:#000000;fill:#ffffff;stroke-linecap:round;stroke-linejoin:round;-inkscape-stroke:none"
     d="m 34.166016,14.15625 -1.917969,1.050781 a 1.0001,1.0001 0 0 0 -0.519531,0.876953 v 2.140625 a 1.0001,1.0001 0 0 0 1.496093,0.867188 l 1.917969,-1.097656 A 1.0001,1.0001 0 0 0 35.646484,17.125 V 15.033203 A 1.0001,1.0001 0 0 0 34.166016,14.15625 Z"
     id="path8" />
  <path
     style="color:#000000;fill:#ffffff;stroke-linecap:round;stroke-linejoin:round;-inkscape-stroke:none"
     d="M 9.375,6.875 A 1.0001,1.0001 0 0 0 7.8789062,7.7421875 v 4.0449215 a 1.0001,1.0001 0 0 0 0.5468751,0.890625 l 3.3496097,1.703125 a 1.0001,1.0001 0 0 0 1.453125,-0.884765 L 13.25,9.6777344 A 1.0001,1.0001 0 0 0 12.746094,8.8046875 Z M 9.8789063,9.4667969 11.246094,10.25 l -0.0078,1.613281 -1.3593747,-0.689453 z"
     id="path9" />
  <path
     style="color:#000000;fill:#ffffff;stroke-linecap:round;stroke-linejoin:round;-inkscape-stroke:none"
     d="m 16.027344,10.613281 a 1,1 0 0 0 -0.757813,0.0957 l -3.578125,2.050782 a 1,1 0 0 0 -0.371093,1.365234 1,1 0 0 0 1.365234,0.371094 l 3.578125,-2.050781 a 1,1 0 0 0 0.36914,-1.365235 1,1 0 0 0 -0.605468,-0.466797 z"
     id="path10" />
  <path
     style="color:#000000;fill:#ffffff;stroke-linecap:round;stroke-linejoin:round;-inkscape-stroke:none"
     d="M 11.78125,4.9394531 8.3808594,6.8867187 A 1,1 0 0 0 8.0117188,8.2519531 1,1 0 0 0 9.375,8.6210938 l 2.902344,-1.6621094 2.396484,1.3730469 v 3.0585937 a 1,1 0 0 0 1,1 1,1 0 0 0 1,-1 V 7.7519531 A 1.0001,1.0001 0 0 0 16.171875,6.8847656 L 12.775391,4.9394531 a 1.0001,1.0001 0 0 0 -0.994141,0 z"
     id="path11" />
  <path
     style="color:#000000;fill:#ffffff;stroke-linecap:round;stroke-linejoin:round;-inkscape-stroke:none"
     d="m 15.837891,7 a 1,1 0 0 0 -0.759766,0.078125 l -3.291016,1.7753906 a 1,1 0 0 0 -0.40625,1.3554684 1,1 0 0 0 1.355469,0.40625 L 16.027344,8.8398438 A 1,1 0 0 0 16.431641,7.484375 1,1 0 0 0 15.837891,7 Z"
     id="path12" />
  <path
     style="color:#000000;fill:#ffffff;stroke-linecap:round;stroke-linejoin:round;-inkscape-stroke:none"
     d="M 17.435547,9.7890625 A 1,1 0 0 0 16.677734,9.890625 l -1.511718,0.880859 A 1,1 0 0 0 14.804688,12.138672 1,1 0 0 0 16.171875,12.5 l 1.511719,-0.880859 a 1,1 0 0 0 0.361328,-1.367188 1,1 0 0 0 -0.609375,-0.4628905 z"
     id="path13" />
  <path
     style="color:#000000;fill:#ffffff;stroke-linecap:round;stroke-linejoin:round;-inkscape-stroke:none"
     d="m 12.40625,12.691406 a 1,1 0 0 0 -0.761719,0.08203 L 7.75,14.898438 a 1.0001,1.0001 0 0 0 -0.5214844,0.876953 v 14.490234 a 1.0001,1.0001 0 0 0 0.5136719,0.873047 l 12.1347655,6.765625 a 1.0001,1.0001 0 0 0 1.488281,-0.88086 L 21.25,23.007812 A 1,1 0 0 0 20.242187,22.015625 1,1 0 0 0 19.25,23.023437 L 19.351562,35.322266 9.2285156,29.677734 V 16.369141 l 3.3730474,-1.839844 a 1,1 0 0 0 0.40039,-1.357422 1,1 0 0 0 -0.595703,-0.480469 z"
     id="path14" />
  <path
     style="color:#000000;fill:#ffffff;stroke-linecap:round;stroke-linejoin:round;-inkscape-stroke:none"
     d="m 8.1425781,14.859375 a 1,1 0 0 0 -0.6113281,0.462891 1,1 0 0 0 0.359375,1.36914 l 8.898437,5.201172 a 1,1 0 0 0 1.369141,-0.357422 1,1 0 0 0 -0.359375,-1.36914 L 8.9003906,14.964844 A 1,1 0 0 0 8.1425781,14.859375 Z"
     id="path15" />
  <path
     style="color:#000000;fill:#ffffff;stroke-linecap:round;stroke-linejoin:round;-inkscape-stroke:none"
     d="m 32.169922,25.216797 a 1,1 0 0 0 -1,1 v 3.451172 l -11.253906,6.445312 a 1,1 0 0 0 -0.371094,1.365235 1,1 0 0 0 1.365234,0.371093 l 11.75586,-6.734375 a 1.0001,1.0001 0 0 0 0.503906,-0.867187 v -4.03125 a 1,1 0 0 0 -1,-1 z"
     id="path16" />
  <path
     style="color:#000000;fill:#ffffff;stroke-linecap:round;stroke-linejoin:round;-inkscape-stroke:none"
     d="m 16.761719,34.638672 a 1,1 0 0 0 -1,1 v 5.367187 A 1.0001,1.0001 0 0 0 16.263672,41.875 l 4.355469,2.492187 a 1.0001,1.0001 0 0 0 0.99414,0 l 2.169922,-1.24414 a 1.0001,1.0001 0 0 0 0.503906,-0.867188 v -2.378906 a 1.0001,1.0001 0 0 0 -0.470703,-0.847656 l -1.664062,-1.035156 v -1.207032 a 1,1 0 0 0 -1,-1 1,1 0 0 0 -1,1 v 1.761719 A 1.0001,1.0001 0 0 0 20.625,39.396484 l 1.662109,1.03711 v 1.242187 l -1.171875,0.671875 -3.353515,-1.921875 v -4.787109 a 1,1 0 0 0 -1,-1 z"
     id="path17" />
  <path
     style="color:#000000;fill:#ffffff;stroke-linecap:round;stroke-linejoin:round;-inkscape-stroke:none"
     d="m 22.5625,39.115234 -1.935547,1.109375 a 1.0001,1.0001 0 0 0 -0.503906,0.867188 v 2.292969 a 1,1 0 0 0 1,1 1,1 0 0 0 1,-1 v -1.712891 l 1.433594,-0.820313 A 1,1 0 0 0 23.927734,39.486328 1,1 0 0 0 22.5625,39.115234 Z"
     id="path18" />
  <path
     style="color:#000000;fill:#ffffff;stroke-linecap:round;stroke-linejoin:round;-inkscape-stroke:none"
     d="m 18.857422,35.337891 a 1,1 0 0 0 -1,1 v 3.49414 a 1.0001,1.0001 0 0 0 0.503906,0.867188 L 20.630859,42 A 1,1 0 0 0 21.996094,41.628906 1,1 0 0 0 21.625,40.263672 l -1.767578,-1.011719 v -2.914062 a 1,1 0 0 0 -1,-1 z"
     id="path19" />
  <path
     style="color:#000000;fill:#ffffff;stroke-linecap:round;stroke-linejoin:round;-inkscape-stroke:none"
     d="M 23.470703,34.40625 A 1,1 0 0 0 22.4375,35.371094 l -0.06445,1.861328 A 1.0001,1.0001 0 0 0 22.875,38.134766 l 4.369141,2.501953 a 1.0001,1.0001 0 0 0 0.216796,0 1,1 0 0 0 0.28711,0.11914 1,1 0 0 0 0.287109,-0.11914 1.0001,1.0001 0 0 0 0.203125,0 l 2.091797,-1.197266 a 1.0001,1.0001 0 0 0 0.503906,-0.869141 v -2.443359 a 1.0001,1.0001 0 0 0 -1.498047,-0.869141 l -2.083984,1.195313 a 1.0001,1.0001 0 0 0 -0.503906,0.867187 v 0.728516 l -2.355469,-1.349609 0.04297,-1.259766 A 1,1 0 0 0 23.470703,34.40625 Z m 5.363281,3.445312 v 0.140625 l -0.08594,0.04883 v -0.140625 z"
     id="path20" />
  <path
     style="color:#000000;fill:#ffffff;stroke-linecap:round;stroke-linejoin:round;-inkscape-stroke:none"
     d="m 27.75,31.951172 a 1,1 0 0 0 -1,1 v 1.808594 a 1.0001,1.0001 0 0 0 0.503906,0.867187 l 2.103516,1.207031 a 1,1 0 0 0 1.365234,-0.371093 1,1 0 0 0 -0.371094,-1.365235 L 28.75,34.179687 v -1.228515 a 1,1 0 0 0 -1,-1 z"
     id="path21" />
  <path
     style="color:#000000;fill:#ffffff;stroke-linecap:round;stroke-linejoin:round;-inkscape-stroke:none"
     d="m 25.507812,33.113281 a 1,1 0 0 0 -1,1 v 1.945313 a 1.0001,1.0001 0 0 0 0.501954,0.86914 l 2.18164,1.248047 a 1,1 0 0 0 1.363281,-0.371094 1,1 0 0 0 -0.371093,-1.363281 l -1.675782,-0.960937 v -1.367188 a 1,1 0 0 0 -1,-1 z"
     id="path22" />
</svg>
