<?xml version="1.0" encoding="UTF-8"?>
<svg id="svg2" version="1.1" viewBox="0 0 48 48" xmlns="http://www.w3.org/2000/svg">
 <defs id="defs1">
  <style id="style1">.a{fill:none;stroke:#fff;stroke-width:2px;stroke-linecap:round;stroke-linejoin:round;}</style>
 </defs>
 <path id="circle1" d="m24 1.5c-12.415 0-22.5 10.085-22.5 22.5s10.085 22.5 22.5 22.5 22.5-10.085 22.5-22.5-10.085-22.5-22.5-22.5zm0 2c11.334 0 20.5 9.1663 20.5 20.5s-9.1663 20.5-20.5 20.5-20.5-9.1663-20.5-20.5 9.1663-20.5 20.5-20.5z" color="#000000" fill="#fff" stroke-linecap="round" stroke-linejoin="round" style="-inkscape-stroke:none"/>
 <path id="ellipse1" d="m16.424 16.461c-1.9386 0-3.4238 1.7182-3.4238 3.6914s1.4852 3.6934 3.4238 3.6934 3.4219-1.7202 3.4219-3.6934-1.4833-3.6914-3.4219-3.6914zm0 2c0.73764 0 1.4219 0.691 1.4219 1.6914 0 1.0004-0.68423 1.6934-1.4219 1.6934-0.73764 0-1.4238-0.69295-1.4238-1.6934 0-1.0004 0.68618-1.6914 1.4238-1.6914z" color="#000000" fill="#fff" stroke-linecap="round" stroke-linejoin="round" style="-inkscape-stroke:none"/>
 <path id="ellipse2" d="m31.576 16.461c-1.9386 0-3.4219 1.7182-3.4219 3.6914s1.4833 3.6934 3.4219 3.6934 3.4238-1.7202 3.4238-3.6934-1.4852-3.6914-3.4238-3.6914zm0 2c0.73764 0 1.4238 0.691 1.4238 1.6914 0 1.0004-0.68618 1.6934-1.4238 1.6934-0.73764 0-1.4219-0.69295-1.4219-1.6934 0-1.0004 0.68423-1.6914 1.4219-1.6914z" color="#000000" fill="#fff" stroke-linecap="round" stroke-linejoin="round" style="-inkscape-stroke:none"/>
 <path id="path2" d="m16.744 26.648a1 1 0 0 0-0.22656 1.3965c1.4836 2.0573 3.8993 3.4941 7.4824 3.4941 3.5832 0 5.9988-1.4373 7.4824-3.4941a1 1 0 0 0-0.22656-1.3965 1 1 0 0 0-1.3945 0.22656c-1.1732 1.6265-2.7731 2.6641-5.8613 2.6641-3.0883 0-4.6862-1.0372-5.8594-2.6641a1 1 0 0 0-1.3965-0.22656z" color="#000000" fill="#fff" stroke-linecap="round" stroke-linejoin="round" style="-inkscape-stroke:none"/>
</svg>
