<?xml version="1.0" encoding="UTF-8"?>
<svg id="a" version="1.1" viewBox="0 0 48 48" xmlns="http://www.w3.org/2000/svg">
 <defs id="defs1">
  <style id="style1">.b{fill:none;stroke:#fff;stroke-width:2px;stroke-linecap:round;stroke-linejoin:round;}</style>
 </defs>
 <path id="line1" d="m30.193 15.359a1 1 0 0 0-1 1v2.4121a1 1 0 0 0 1 1 1 1 0 0 0 1-1v-2.4121a1 1 0 0 0-1-1z" fill="#fff" stroke-linecap="round" stroke-linejoin="round"/>
 <path id="line2" d="m17.887 15.359a1 1 0 0 0-1 1v2.4121a1 1 0 0 0 1 1 1 1 0 0 0 1-1v-2.4121a1 1 0 0 0-1-1z" fill="#fff" stroke-linecap="round" stroke-linejoin="round"/>
 <path id="path2" d="m24.041 4.5c-10.791 0-19.541 8.7031-19.541 19.459 0 10.794 8.7471 19.541 19.541 19.541 10.756 0 19.459-8.7497 19.459-19.541 0-10.753-8.7057-19.459-19.459-19.459zm0 2c9.6771 0 17.459 7.7818 17.459 17.459 0 9.7194-7.7845 17.541-17.459 17.541-9.7168 0-17.541-7.8242-17.541-17.541 0-9.6745 7.8216-17.459 17.541-17.459z" fill="#fff" stroke-linecap="round" stroke-linejoin="round"/>
 <path id="path3" d="m12.238 24.744a1 1 0 0 0-0.83984 1.1367c0.91799 6.1544 6.2255 10.863 12.627 10.863 6.3801 0 11.665-4.7129 12.578-10.865a1 1 0 0 0-0.8418-1.1348 1 1 0 0 0-1.1367 0.8418c-0.77096 5.1939-5.2017 9.1582-10.6 9.1582-5.4232 0-9.876-3.9664-10.65-9.1582a1 1 0 0 0-1.1367-0.8418z" fill="#fff" stroke-linecap="round" stroke-linejoin="round"/>
</svg>
