<?xml version="1.0" encoding="UTF-8"?>
<svg id="a" version="1.1" viewBox="0 0 48 48" xmlns="http://www.w3.org/2000/svg">
 <defs id="defs1">
  <style id="style1">.b{fill:none;stroke:#fff;stroke-width:2px;stroke-linecap:round;stroke-linejoin:round;}</style>
 </defs>
 <path id="circle1" d="m24 12.5c-6.3394 0-11.5 5.1606-11.5 11.5s5.1606 11.5 11.5 11.5 11.5-5.1606 11.5-11.5-5.1606-11.5-11.5-11.5zm0 2c5.2586 0 9.5 4.2414 9.5 9.5s-4.2414 9.5-9.5 9.5-9.5-4.2414-9.5-9.5 4.2414-9.5 9.5-9.5z" fill="#fff" stroke-linecap="round" stroke-linejoin="round"/>
 <path id="path1" d="m24 1.5c-12.415 0-22.5 10.085-22.5 22.5s10.085 22.5 22.5 22.5 22.5-10.085 22.5-22.5a1 1 0 0 0-1-1 1 1 0 0 0-1 1c0 11.334-9.1663 20.5-20.5 20.5s-20.5-9.1663-20.5-20.5 9.1663-20.5 20.5-20.5a1 1 0 0 0 1-1 1 1 0 0 0-1-1z" fill="#fff" stroke-linecap="round" stroke-linejoin="round"/>
 <path id="path2" d="m24 7c-9.377 0-17 7.623-17 17s7.623 17 17 17 17-7.623 17-17a1 1 0 0 0-1-1 1 1 0 0 0-1 1c0 8.2962-6.7038 15-15 15s-15-6.7038-15-15 6.7038-15 15-15a1 1 0 0 0 1-1 1 1 0 0 0-1-1z" fill="#fff" stroke-linecap="round" stroke-linejoin="round"/>
 <path id="line2" d="m34.5 23a1 1 0 0 0-1 1 1 1 0 0 0 1 1h11a1 1 0 0 0 1-1 1 1 0 0 0-1-1z" fill="#fff" stroke-linecap="round" stroke-linejoin="round"/>
 <path id="line3" d="m24 1.5a1 1 0 0 0-1 1v11a1 1 0 0 0 1 1 1 1 0 0 0 1-1v-11a1 1 0 0 0-1-1z" fill="#fff" stroke-linecap="round" stroke-linejoin="round"/>
 <path id="line4" d="m24 39a1 1 0 0 0-1 1v5.4961a1 1 0 0 0 1 1 1 1 0 0 0 1-1v-5.4961a1 1 0 0 0-1-1z" fill="#fff" stroke-linecap="round" stroke-linejoin="round"/>
</svg>
