<?xml version="1.0" encoding="UTF-8"?>
<svg id="Layer_2" data-name="Layer 2" version="1.1" viewBox="0 0 48 48" xmlns="http://www.w3.org/2000/svg">
 <defs id="defs1">
  <style id="style1">.cls-1{fill:none;stroke:#fff;stroke-width:2px;stroke-linecap:round;stroke-linejoin:round;}</style>
 </defs>
 <path id="path1" d="m31.004 0.76172a1.0001 1.0001 0 0 0-0.81055 0.10742c-4.4679 2.7662-7.3869 7.4644-7.8887 12.695a1.0001 1.0001 0 0 0 0.99609 1.0957h0.69922c2.469-5.84e-4 4.758 0.94131 6.5977 2.4648-0.7746-0.12371-1.5489-0.28602-2.3418-0.1875a1.0001 1.0001 0 0 0-0.35156 1.873c2.563 1.3856 4.1426 4.073 4.1055 6.9863a1.0001 1.0001 0 0 0 0 0.01367c0 3.2798-1.3173 5.1047-3.002 6.2656-1.6846 1.1609-3.8217 1.5645-5.1777 1.5645-3.8638 0-5.8746-1.7424-7.082-3.5254-1.0499-1.5504-1.3328-2.8882-1.4043-3.2637 0.04013-0.12035 0.17475-0.61362 0.94531-1.3301 0.85859-0.7983 2.3373-1.6523 5.0703-1.6523 1.2744 0 2.0888-0.87475 2.6445-1.5684 0.55576-0.69361 0.89062-1.375 0.89062-1.375a1.0001 1.0001 0 0 0-0.47266-1.3516s-1.7251-0.80776-4.1426-2.1309c-0.8976-0.55615-1.7025-1.2465-2.3867-2.0508a1.0001 1.0001 0 0 0-0.0332-0.03711c-0.08501-0.09069-0.18695-0.1631-0.2793-0.24609-0.1521-0.70208-0.2579-1.414-0.25977-2.1328v-0.0039c-2e-6 -0.0013 3e-6 -0.0026 0-0.0039 0.0058-0.77616 0.08633-1.5498 0.24024-2.3105a1.0001 1.0001 0 0 0-1.4414-1.0859c-1.4744 0.76379-2.7849 1.7774-4.002 2.8984-0.22603-1.1293-0.52228-2.254-0.44922-3.4082a1.0001 1.0001 0 0 0-1.5391-0.9043c-5.3847 3.4569-8.6377 9.4236-8.6289 15.822 0 9.6086 4.2462 15.566 9.1719 18.963 4.9257 3.3972 10.421 4.3359 13.328 4.3359a1.0001 1.0001 0 0 0 0.0078 0c12.313-0.10653 22.311-10.043 22.492-22.355a1.0001 1.0001 0 0 0 0-0.01367c0-5.3361-1.5048-8.9729-3.0469-11.258s-3.1973-3.2754-3.1973-3.2754a1.0001 1.0001 0 0 0-1.3008 0.74219c-1.2544-1.5414-2.5866-3.0197-3.7402-4.3457a1.0001 1.0001 0 0 0-0.0039-0.00391c-1.4473-1.6468-2.6546-3.4899-3.5859-5.4746a1.0001 1.0001 0 0 0-0.62109-0.5332zm-0.58594 2.4648c0.92064 1.735 1.9925 3.3859 3.291 4.8633 2.6373 3.0312 5.9306 6.5137 7.1738 9.8594a1.0001 1.0001 0 0 0 1.9219-0.52539c-0.0105-0.05886-0.04377-0.11115-0.05469-0.16992l0.0078-2e-3c-0.0068-0.01824-0.02048-0.03451-0.02734-0.05273-0.09256-0.49207-0.34148-0.93688-0.46289-1.4219 1.1508 2.0016 2.2307 4.7968 2.2324 9.123-0.16862 11.243-9.2566 20.277-20.5 20.379h-0.0039c-2.4535-6.37e-4 -7.7048-0.89074-12.188-3.9824-4.4843-3.0927-8.3086-8.285-8.3086-17.316a1.0001 1.0001 0 0 0 0-2e-3c-0.00751-5.072 2.3708-9.7417 6.2441-12.91 0.096954 1.2599 0.29347 2.5085 0.69922 3.7109a1.0001 1.0001 0 0 0 0.94727 0.68164h0.07031a1.0001 1.0001 0 0 0 0.75-0.33984c0.92526-1.0499 2.0129-1.9233 3.166-2.707-0.0085 0.18403-0.05538 0.36447-0.05664 0.54883a1.0001 1.0001 0 0 0 0 0.0098c0.0018 0.96886 0.11791 1.9338 0.34766 2.875a1.0001 1.0001 0 0 0 0.38867 0.57422c0.12411 0.08913 0.23925 0.19125 0.34375 0.30273l-0.03125-0.03711c0.82108 0.96513 1.7875 1.7964 2.8652 2.4629a1.0001 1.0001 0 0 0 0.04492 0.02734c1.9143 1.0498 2.6825 1.3987 3.2832 1.6875-0.06264 0.08835-0.04652 0.09296-0.11914 0.18359-0.40174 0.50139-0.90841 0.82031-1.084 0.82031-3.1669 0-5.2272 1.0678-6.4336 2.1895s-1.6016 2.3574-1.6016 2.3574a1.0001 1.0001 0 0 0-0.0332 0.44336s0.32319 2.195 1.8008 4.377 4.2421 4.4043 8.7383 4.4043c1.724 0 4.1771-0.44641 6.3125-1.918 2.1342-1.4708 3.8653-4.0595 3.8672-7.9062 0.02906-2.395-0.8815-4.6224-2.373-6.3965 0.60576 0.2423 1.2145 0.48947 1.7285 0.91211a1.0001 1.0001 0 0 0 1.5098-1.2558c-2.1001-3.8035-6.0435-6.1633-10.359-6.3457 0.64632-3.8346 2.7517-7.2249 5.9023-9.5039z" fill="#fff" stroke-linecap="round" stroke-linejoin="round"/>
</svg>
