<?xml version="1.0" encoding="UTF-8"?>
<svg id="svg2" version="1.1" viewBox="0 0 48 48" xmlns="http://www.w3.org/2000/svg">
 <defs id="defs1">
  <style id="style1">.a,.b{fill:none;stroke:#fff;stroke-linecap:round;stroke-linejoin:round;}.b{stroke-width:2px;}</style>
 </defs>
 <path id="path1" d="m30.867 1.2383a0.50005 0.50005 0 0 0-0.4043 0.054687c-4.341 2.6823-7.1791 7.2407-7.666 12.32a0.50005 0.50005 0 0 0 0.49805 0.54883h0.70508c3.2639-5.7e-5 6.2571 1.5087 8.3086 3.9551-1.2617-0.5317-2.5995-0.85379-3.9844-0.6875a0.50005 0.50005 0 0 0-0.17969 0.93555c2.7227 1.4774 4.4015 4.34 4.3613 7.4375a0.50005 0.50005 0 0 0 0 0.0059c0 3.4231-1.4195 5.4382-3.2148 6.6758-1.7953 1.2376-4.0099 1.6523-5.459 1.6523-4.0225 0-6.2219-1.863-7.498-3.7461-1.1986-1.7686-1.4903-3.4095-1.5254-3.6172 0.02241-0.07042 0.23404-0.78166 1.1367-1.6191 0.9462-0.87785 2.5721-1.7832 5.4141-1.7832 0.99822 0 1.7343-0.73579 2.252-1.3809 0.5177-0.64507 0.83594-1.2852 0.83594-1.2852a0.50005 0.50005 0 0 0-0.23438-0.67578s-1.7346-0.8153-4.1895-2.2305l-2e-3 -2e-3c-0.94401-0.58587-1.7908-1.3152-2.5078-2.1641a0.50005 0.50005 0 0 0-0.02344-0.02734c-0.11744-0.12041-0.24934-0.22495-0.37891-0.33203-0.18258-0.78223-0.28982-1.5812-0.29102-2.3848v-2e-3c0-6.49e-4 1e-6 -0.0013 0-2e-3 0.0052-0.80858 0.08923-1.6142 0.25195-2.4062a0.50005 0.50005 0 0 0-0.72266-0.54483c-1.7503 0.91979-3.298 2.1597-4.6621 3.5859-0.40455-1.4726-0.61347-2.9938-0.51758-4.5215a0.50005 0.50005 0 0 0-0.76953-0.45117c-5.255 3.3694-8.425 9.1932-8.4004 15.436 0 9.4611 4.1404 15.227 8.9551 18.549 4.8147 3.322 10.249 4.252 13.045 4.252a0.50005 0.50005 0 0 0 0.0039-0.0039v0.0039c3.5387-0.02586 7.0183-0.90178 10.148-2.5527a0.5 0.5 0 0 0 0.20899-0.67578 0.5 0.5 0 0 0-0.67383-0.20898c-2.9873 1.5757-6.3102 2.4122-9.6875 2.4375h-0.0039c-2.5696-6.3e-4 -7.8802-0.90551-12.473-4.0742-4.5941-3.1698-8.5234-8.5541-8.5234-17.727a0.50005 0.50005 0 0 0 0-2e-3c-0.022637-5.5789 2.718-10.735 7.207-13.98 0.01449 1.5559 0.20861 3.1066 0.70508 4.5859a0.50005 0.50005 0 0 0 0.47461 0.33984h0.07226a0.50005 0.50005 0 0 0 0.37695-0.16992c1.1831-1.3567 2.6038-2.4664 4.1426-3.3926-0.06142 0.50625-0.15506 1.009-0.1582 1.5195a0.50005 0.50005 0 0 0 0 0.0039c1e-3 0.92996 0.11308 1.855 0.33594 2.7578a0.50005 0.50005 0 0 0 0.18555 0.28125c0.15349 0.11491 0.29776 0.24164 0.43164 0.37891l-0.023432-0.027337c0.78527 0.92974 1.7119 1.7296 2.7461 2.3711a0.50005 0.50005 0 0 0 0.01367 0.0098c2.2072 1.2735 3.4201 1.8397 3.7754 2.0098-0.1203 0.21071-0.17584 0.3498-0.45312 0.69531-0.4409 0.54938-1.0253 1.0078-1.4727 1.0078-3.0586 0-4.9736 1.0115-6.0938 2.0508s-1.4668 2.1367-1.4668 2.1367a0.50005 0.50005 0 0 0-0.01563 0.2207s0.31137 2.0895 1.7227 4.1719 3.9875 4.1855 8.3262 4.1855c1.6325 0 4.0064-0.43501 6.0273-1.8281 2.0194-1.3921 3.644-3.7892 3.6465-7.4922v-0.0039c0.03579-2.8521-1.2816-5.4761-3.4297-7.2559 1.3049 0.15569 2.5697 0.54496 3.6035 1.3926a0.50005 0.50005 0 0 0 0.75586-0.62891c-2.0971-3.7991-6.0961-6.1583-10.436-6.1582h-0.08984c0.58151-4.3651 2.9982-8.2467 6.6621-10.691 0.9473 1.903 2.1079 3.6919 3.5156 5.2871 2.6134 2.9608 5.9369 6.5071 7.2656 10.023a0.50005 0.50005 0 0 0 0.95898-0.26562c-0.0053-0.02973-0.02192-0.05623-0.02734-0.08594l0.0039-2e-3c-0.0037-0.0098-0.0099-0.01949-0.01367-0.0293-0.29035-1.5776-0.8937-3.0659-1.4785-4.5566 0.43804 0.43661 0.89322 0.87295 1.416 1.6484 1.3841 2.0532 2.7871 5.3628 2.7871 10.424-0.04096 2.9406-0.69535 5.8407-1.9219 8.5137a0.5 0.5 0 0 0 0.24609 0.66406 0.5 0.5 0 0 0 0.66211-0.24609c1.2857-2.802 1.9719-5.8432 2.0137-8.9258a0.50005 0.50005 0 0 0 0-0.0059c0-5.2469-1.4704-8.7763-2.959-10.984-1.4886-2.2081-3.0332-3.123-3.0332-3.123a0.50005 0.50005 0 0 0-0.70312 0.64844c0.2612 0.53985 0.33299 1.1463 0.55274 1.7031-1.5651-2.1938-3.4259-4.257-5.0195-6.0625-1.4813-1.6786-2.7138-3.561-3.6602-5.5898a0.50005 0.50005 0 0 0-0.31055-0.26758z" fill="#fff" stop-color="#000000" stroke-linecap="round" stroke-linejoin="round"/>
 <path id="path2" d="m36.072 33.5a1.0001 1.0001 0 0 0-1 1v8a1.0001 1.0001 0 0 0 1 1h3.3008c0.91667 0 1.7295-0.37976 2.2461-0.96094 0.51661-0.58118 0.75391-1.3168 0.75391-2.0391 0-0.70848-0.24392-1.4242-0.74024-2 0.49631-0.57584 0.74024-1.2915 0.74024-2 0-0.72222-0.2373-1.4579-0.75391-2.0391-0.51661-0.58118-1.3294-0.96094-2.2461-0.96094zm1 2h2.3008c0.41667 0 0.60189 0.12024 0.75195 0.28906 0.15006 0.16882 0.24805 0.43316 0.24805 0.71094s-0.09799 0.54212-0.24805 0.71094c-0.15006 0.16882-0.33529 0.28906-0.75195 0.28906a1.0001 1.0001 0 0 0-0.98633 1 1.0001 1.0001 0 0 0 0.98633 1c0.41667 0 0.60189 0.12024 0.75195 0.28906 0.15006 0.16882 0.24805 0.43316 0.24805 0.71094s-0.09799 0.54212-0.24805 0.71094c-0.15006 0.16882-0.33529 0.28906-0.75195 0.28906h-2.3008z" fill="#fff" stop-color="#000000" stroke-linecap="round" stroke-linejoin="round"/>
 <path id="line2" d="m36.072 37.5a1 1 0 0 0-1 1 1 1 0 0 0 1 1h3.3008a1 1 0 0 0 1-1 1 1 0 0 0-1-1z" fill="#fff" stop-color="#000000" stroke-linecap="round" stroke-linejoin="round"/>
 <path id="circle2" d="m38.5 31c-4.1362 0-7.5 3.3638-7.5 7.5s3.3638 7.5 7.5 7.5 7.5-3.3638 7.5-7.5-3.3638-7.5-7.5-7.5zm0 1c3.5958 0 6.5 2.9042 6.5 6.5s-2.9042 6.5-6.5 6.5-6.5-2.9042-6.5-6.5 2.9042-6.5 6.5-6.5z" fill="#fff" stop-color="#000000" stroke-linecap="round" stroke-linejoin="round"/>
</svg>
