<?xml version="1.0" encoding="UTF-8" standalone="no"?>
<svg
   viewBox="0 0 48 48"
   version="1.1"
   id="svg1"
   sodipodi:docname="firefox-nightly.svg"
   xmlns:inkscape="http://www.inkscape.org/namespaces/inkscape"
   xmlns:sodipodi="http://sodipodi.sourceforge.net/DTD/sodipodi-0.dtd"
   xmlns="http://www.w3.org/2000/svg"
   xmlns:svg="http://www.w3.org/2000/svg">
  <sodipodi:namedview
     id="namedview1"
     pagecolor="#ffffff"
     bordercolor="#666666"
     borderopacity="1.0"
     inkscape:showpageshadow="2"
     inkscape:pageopacity="0.0"
     inkscape:pagecheckerboard="0"
     inkscape:deskcolor="#d1d1d1" />
  <defs
     id="defs1">
    <style
       id="style1">.a{fill:none;stroke:#fff;stroke-width:2px;stroke-linecap:round;stroke-linejoin:round;}</style>
  </defs>
  <path
     style="color:#000000;fill:#ffffff;stroke-linecap:round;stroke-linejoin:round;-inkscape-stroke:none"
     d="m 41.277344,33.691406 a 1,1 0 0 0 -1,1 v 4.681641 l -3.466797,-5.232422 a 1.0001,1.0001 0 0 0 -1.833985,0.550781 v 8 a 1,1 0 0 0 1,1 1,1 0 0 0 1,-1 v -4.679687 l 3.466797,5.232422 a 1.0001,1.0001 0 0 0 1.833985,-0.552735 v -8 a 1,1 0 0 0 -1,-1 z"
     id="polyline1" />
  <path
     style="color:#000000;fill:#ffffff;stroke-linecap:round;stroke-linejoin:round;-inkscape-stroke:none"
     d="m 31.011719,0.75976562 a 1.0001,1.0001 0 0 0 -0.8125,0.10742188 c -4.47371,2.7642661 -7.396614,7.4643914 -7.898438,12.6992185 a 1.0001,1.0001 0 0 0 0.994141,1.095703 H 24 c 2.467576,-4.3e-5 4.754999,0.940461 6.59375,2.462891 -0.77102,-0.124256 -1.54045,-0.286222 -2.330078,-0.191406 a 1.0001,1.0001 0 0 0 -0.357422,1.871093 c 2.560363,1.389328 4.137387,4.079412 4.099609,6.992188 a 1.0001,1.0001 0 0 0 0,0.01172 c 0,3.28069 -1.315514,5.105774 -2.998047,6.265625 -1.682532,1.159851 -3.818437,1.5625 -5.175781,1.5625 -3.864359,0 -5.875345,-1.743938 -7.083984,-3.527344 -1.049736,-1.548937 -1.334025,-2.883867 -1.40625,-3.261719 0.04048,-0.120873 0.172924,-0.611384 0.943359,-1.326172 0.859216,-0.797155 2.340521,-1.65039 5.074219,-1.65039 1.273643,0 2.086487,-0.87545 2.642578,-1.56836 0.556091,-0.692909 0.892578,-1.373047 0.892578,-1.373047 a 1.0001,1.0001 0 0 0 -0.46875,-1.353515 c 0,0 -1.713799,-0.805799 -4.148437,-2.208985 -0.896101,-0.557335 -1.699899,-1.2504 -2.38086,-2.05664 a 1.0001,1.0001 0 0 0 -0.04883,-0.05273 c -0.0826,-0.08469 -0.177518,-0.15557 -0.265625,-0.234375 -0.153837,-0.702043 -0.260498,-1.413618 -0.261719,-2.132813 v -0.0059 c 0.0052,-0.77516 0.08619,-1.547314 0.242188,-2.306641 A 1.0001,1.0001 0 0 0 16.117187,9.4921875 C 14.640413,10.268227 13.329989,11.294793 12.113281,12.427734 11.889885,11.301482 11.595741,10.181951 11.667969,9.03125 A 1.0001,1.0001 0 0 0 10.130859,8.125 C 4.7329266,11.58607 1.4753258,17.570421 1.5,23.982422 c 0,7.08e-4 0,0.0012 0,0.002 2.6e-6,6.57e-4 -2.7e-6,0.0013 0,0.002 0.00125,9.602934 4.2476098,15.559387 9.171875,18.957031 C 15.596867,46.341505 21.089674,47.283203 24,47.283203 a 1.0001,1.0001 0 0 0 0.0078,-0.0039 v 0.0039 c 3.618744,-0.02645 7.178021,-0.923035 10.378907,-2.611328 a 1,1 0 0 0 0.417968,-1.349609 1,1 0 0 0 -1.351562,-0.417969 C 30.537727,44.44201 27.295901,45.257868 24,45.283203 c -8.77e-4,0 -0.003,0 -0.0039,0 C 21.540301,45.282566 16.288788,44.389467 11.806641,41.296875 7.3228917,38.203178 3.5,33.010577 3.5,23.982422 a 1.0001,1.0001 0 0 0 0,-0.0039 c -0.020631,-5.084438 2.3597882,-9.769367 6.2441406,-12.94336 0.09664,1.258477 0.2920084,2.507236 0.6953124,3.708985 a 1.0001,1.0001 0 0 0 0.947266,0.68164 h 0.07226 a 1.0001,1.0001 0 0 0 0.753907,-0.341797 c 0.922885,-1.058359 2.009953,-1.940859 3.162109,-2.734375 -0.0079,0.177498 -0.05359,0.351491 -0.05469,0.529297 a 1.0001,1.0001 0 0 0 0,0.0078 c 0.0011,0.970152 0.119074,1.937022 0.351562,2.878906 a 1.0001,1.0001 0 0 0 0.371094,0.560547 c 0.132767,0.0994 0.257247,0.209392 0.373047,0.328125 l -0.04687,-0.05469 c 0.819131,0.969832 1.784468,1.805498 2.863281,2.47461 a 1.0001,1.0001 0 0 0 0.02734,0.01563 c 1.931818,1.114627 2.713621,1.472133 3.310546,1.763672 -0.06661,0.09449 -0.05074,0.09987 -0.128906,0.197265 -0.402508,0.501539 -0.910075,0.820313 -1.082031,0.820313 -3.166896,0 -5.226461,1.063651 -6.433594,2.183593 -1.207132,1.119943 -1.603515,2.355469 -1.603515,2.355469 a 1.0001,1.0001 0 0 0 -0.0332,0.44336 c 0,0 0.323901,2.196816 1.802734,4.378906 1.478833,2.18209 4.243502,4.404297 8.740234,4.404297 1.724253,0 4.176834,-0.445144 6.310547,-1.916016 2.132164,-1.469803 3.860771,-4.058721 3.863281,-7.904297 0.02956,-2.389453 -0.877478,-4.613027 -2.361328,-6.386719 0.60161,0.242352 1.207357,0.486951 1.71875,0.90625 a 1.0001,1.0001 0 0 0 1.509766,-1.255859 c -2.099959,-3.804203 -6.044683,-6.167721 -10.361328,-6.349609 0.646965,-3.8371154 2.755488,-7.2279822 5.910156,-9.5058596 0.918349,1.7368662 1.989092,3.3879813 3.291016,4.8632812 2.622883,2.9715064 5.900038,6.5033074 7.171875,9.8691404 a 1.0001,1.0001 0 0 0 1.919921,-0.529297 c -0.01089,-0.06089 -0.0453,-0.114987 -0.05664,-0.175781 l 0.0078,-0.002 c -0.0066,-0.01738 -0.01875,-0.03342 -0.02539,-0.05078 -0.09369,-0.496473 -0.342076,-0.946207 -0.464844,-1.435547 1.152268,2.002758 2.233009,4.804585 2.234375,9.142578 -0.03975,2.871569 -0.679218,5.702295 -1.876953,8.3125 a 1,1 0 0 0 0.492187,1.326172 1,1 0 0 0 1.326172,-0.492188 c 1.314798,-2.865317 2.015849,-5.972713 2.058594,-9.125 a 1.0001,1.0001 0 0 0 0,-0.01367 C 46.5,19.57428 44.997814,15.935913 43.457031,13.650391 41.916248,11.364868 40.259766,10.375 40.259766,10.375 a 1.0001,1.0001 0 0 0 -1.298829,0.740234 C 37.706037,9.5622925 36.371731,8.0784942 35.212891,6.765625 33.76323,5.1229136 32.556981,3.2804481 31.630859,1.2949219 a 1.0001,1.0001 0 0 0 -0.61914,-0.53515628 z"
     id="path1" />
  <path
     style="color:#000000;fill:#ffffff;stroke-linecap:round;stroke-linejoin:round;-inkscape-stroke:none"
     d="m 38.5,30.5 c -4.406429,0 -8,3.593571 -8,8 0,4.406429 3.593571,8 8,8 4.406429,0 8,-3.593571 8,-8 0,-4.406429 -3.593571,-8 -8,-8 z m 0,2 c 3.32555,0 6,2.67445 6,6 0,3.32555 -2.67445,6 -6,6 -3.32555,0 -6,-2.67445 -6,-6 0,-3.32555 2.67445,-6 6,-6 z"
     id="circle1" />
</svg>
