<?xml version="1.0" encoding="UTF-8"?>
<svg id="svg24" version="1.1" viewBox="0 0 48 48" xmlns="http://www.w3.org/2000/svg">
 <defs id="defs12">
  <style id="style2">.cls-1{fill:none;stroke:#fff;stroke-width:2px;stroke-linecap:round;stroke-linejoin:round}</style>
 </defs>
 <g id="g22" fill="#fff" stroke-linecap="round" stroke-linejoin="round" stroke-width="2">
  <g id="g18" transform="translate(-.351 1.731)" stroke-width="2">
   <path id="path14" d="m16.066 8.6055a1.0001 1.0001 0 0 0-1.041 0.90625c-0.34003 3.7827 0.01788 7.3151-3.4863 11.332-2.7528 3.155-2.9802 6.4345-2.1172 9.2266 0.86304 2.7921 2.6587 5.1988 3.8125 7.2129a1.0001 1.0001 0 0 0 1.8633-0.39453c0.38854-3.7781 0.45981-6.7389 2.9414-9.4004 2.4419-2.6182 3.0759-5.9038 2.6113-9.123-0.46452-3.2193-1.9625-6.4322-3.7852-9.2988l0.15625 0.53516a1.0001 1.0001 0 0 0-0.95508-0.99609zm0.60352 4.3457c0.94669 1.9019 1.7328 3.8337 2.002 5.6992 0.40347 2.7962-0.09163 5.3239-2.0957 7.4727a1.0001 1.0001 0 0 0 0 2e-3c-2.2079 2.368-2.7427 5.0221-3.0762 7.7266-0.87204-1.4324-1.709-2.8883-2.168-4.373-0.72221-2.3364-0.65429-4.6053 1.7129-7.3184 2.8493-3.2662 3.37-6.3475 3.625-9.209z" color="#000000" style="-inkscape-stroke:none"/>
   <path id="path16" d="m27.24 6.7715a1.0001 1.0001 0 0 0-0.80078 0.96484c-0.07771 4.8324-3.8976 7.8814-7.3262 10.605a1 1 0 0 0-0.16016 1.4043 1 1 0 0 0 1.4043 0.16016c2.564-2.0371 5.7656-4.5435 7.252-8.1367 0.67933 2.5887 1.0348 5.151 0.56055 7.4004-0.69574 3.2998-2.6622 5.9706-6.6777 7.4785-2.5616 0.96226-4.176 2.6429-5.3379 4.4199-1.1619 1.777-1.932 3.6478-2.9004 5.1855a1.0001 1.0001 0 0 0 1.4922 1.2969c2.4319-2.05 6.5726-5.2563 11.145-5.4648a1.0001 1.0001 0 0 0 2e-3 0c4.1885-0.19208 7.4743-2.0858 9.7129-5.3281 2.2386-3.2423 3.5097-7.7581 4.1152-13.377a1.0001 1.0001 0 0 0-1.7656-0.74414c-1.7194 2.077-4.7548 4.2532-7.6309 5.0879 0.27349-3.3702-0.46786-6.9741-1.9707-10.377a1.0001 1.0001 0 0 0-1.1133-0.57617zm9.9629 9.1582c-0.67867 4.0075-1.673 7.4187-3.2422 9.6914-1.9411 2.8115-4.4987 4.2989-8.1602 4.4668-3.4374 0.15681-6.2325 1.6429-8.6309 3.2539 0.21367-0.38281 0.42432-0.82002 0.6582-1.1777 1.0239-1.566 2.2488-2.8488 4.3672-3.6445 4.4473-1.67 6.9494-4.9057 7.832-8.6426 2.721-0.55221 5.1228-2.1432 7.1758-3.9473z" color="#000000" style="-inkscape-stroke:none"/>
  </g>
  <path id="circle20" d="m24 1.5c-12.415 0-22.5 10.085-22.5 22.5s10.085 22.5 22.5 22.5 22.5-10.085 22.5-22.5-10.085-22.5-22.5-22.5zm0 2c11.334 0 20.5 9.1663 20.5 20.5s-9.1663 20.5-20.5 20.5-20.5-9.1663-20.5-20.5 9.1663-20.5 20.5-20.5z" color="#000000" style="-inkscape-stroke:none"/>
 </g>
</svg>
