<?xml version="1.0" encoding="UTF-8"?>
<svg id="a" version="1.1" viewBox="0 0 48 48" xmlns="http://www.w3.org/2000/svg">
 <defs id="defs4">
  <style id="style2">.b{fill:none;stroke:#fff;stroke-width:2px;stroke-linecap:round;stroke-linejoin:round;}</style>
 </defs>
 <g id="g12" fill="#fff" stroke-linecap="round" stroke-linejoin="round">
  <path id="line6" d="m30.482 26.781a1 1 0 0 0-1 1 1 1 0 0 0 1 1h7.5195a1 1 0 0 0 1-1 1 1 0 0 0-1-1z" color="#000000" style="-inkscape-stroke:none"/>
  <path id="path8" d="m30.482 26.781c-2.5787 0-4.6836 2.1249-4.6836 4.7109 0 2.586 2.1049 4.7109 4.6836 4.7109h1.9512c3.615 0 6.5586-2.9714 6.5586-6.6016a1 1 0 0 0-1-1 1 1 0 0 0-1 1c0 2.5575-2.0328 4.6016-4.5586 4.6016h-1.9512c-1.4895 0-2.6836-1.1976-2.6836-2.7109 0-1.5134 1.1941-2.7109 2.6836-2.7109a1 1 0 0 0 1-1 1 1 0 0 0-1-1z" color="#000000" style="-inkscape-stroke:none"/>
  <path id="path10" d="m33.102 19.359c-1.318 0-2.2792 0.01596-3.1836 0.26172-0.90444 0.24576-1.6786 0.75364-2.4258 1.502a1 1 0 0 0 0 1.4141 1 1 0 0 0 1.4141-2e-3c0.60279-0.60368 0.97765-0.83093 1.5352-0.98242 0.55751-0.15149 1.3725-0.19336 2.6602-0.19336 1.3324 0 2.2856 0.29333 2.8926 0.83594 0.60702 0.54261 1.0078 1.4063 1.0078 2.9805v10.027a1.0001 1.0001 0 0 0 1 1h5.498a1.0001 1.0001 0 0 0 1-1v-10.027c0-1.9426-0.57145-3.4855-1.6758-4.4727s-2.6009-1.3438-4.2266-1.3438zm4.6641 2h0.83203c1.3324 0 2.2875 0.29333 2.8945 0.83594 0.60702 0.54261 1.0078 1.4063 1.0078 2.9805v9.0273h-3.498v-9.0273c0-1.6033-0.47964-2.8452-1.2363-3.8164z" color="#000000" style="-inkscape-stroke:none"/>
 </g>
 <g id="g18" fill="#fff" stroke-linecap="round" stroke-linejoin="round">
  <path id="line14" d="m6.959 26.781a1 1 0 0 0-1 1 1 1 0 0 0 1 1h9.9277a1 1 0 0 0 1-1 1 1 0 0 0-1-1z" color="#000000" style="-inkscape-stroke:none"/>
  <path id="polyline16" d="m11.922 11.797a1.0001 1.0001 0 0 0-0.94922 0.68555l-7.4219 22.406a1 1 0 0 0 0.63477 1.2637 1 1 0 0 0 1.2637-0.63477l6.4727-19.541 6.4746 19.541a1 1 0 0 0 1.2637 0.63477 1 1 0 0 0 0.63477-1.2637l-7.4238-22.406a1.0001 1.0001 0 0 0-0.94922-0.68555z" color="#000000" style="-inkscape-stroke:none"/>
 </g>
 <path id="polyline20" d="m11.922 11.797a1 1 0 0 0-1 1 1 1 0 0 0 1 1h4.6152l6.7598 20.406h-3.9512a1 1 0 0 0-1 1 1 1 0 0 0 1 1h5.3359a1.0001 1.0001 0 0 0 0.94922-1.3145l-7.4219-22.406a1.0001 1.0001 0 0 0-0.94922-0.68555z" color="#000000" fill="#fff" stroke-linecap="round" stroke-linejoin="round" style="-inkscape-stroke:none"/>
 <path id="line22" d="m31.307 26.781a1 1 0 0 0-1 1v7.4219a1 1 0 0 0 1 1 1 1 0 0 0 1-1v-7.4219a1 1 0 0 0-1-1z" color="#000000" fill="#fff" stroke-linecap="round" stroke-linejoin="round" style="-inkscape-stroke:none"/>
</svg>
