<?xml version="1.0" encoding="UTF-8"?>
<svg id="svg26" version="1.1" viewBox="0 0 48 48" xmlns="http://www.w3.org/2000/svg">
 <defs id="defs12">
  <style id="style2">.a,.cls-1{fill:none;stroke:#fff;stroke-width:2px;stroke-linecap:round;stroke-linejoin:round}</style>
 </defs>
 <g id="g24" fill="none" stroke-linecap="round" stroke-linejoin="round" stroke-width="2">
  <g id="g16" transform="translate(-2.308 -2.006) scale(1.0924)" stroke="#fff" stroke-width=".91542">
   <path id="ellipse14" transform="matrix(.99984 .01778 -.08649 .99625 0 0)" d="m20.4 12.66c-1.2219 0-2.3057 0.70554-3.0547 1.7676-0.74894 1.062-1.1934 2.4934-1.1934 4.0645 0 1.571 0.44442 3.0005 1.1934 4.0625 0.74894 1.062 1.8328 1.7695 3.0547 1.7695s2.3038-0.7075 3.0527-1.7695c0.74894-1.062 1.1934-2.4915 1.1934-4.0625 0-1.571-0.44442-3.0024-1.1934-4.0645-0.74894-1.062-1.8308-1.7676-3.0527-1.7676zm0 0.91797c0.87071 0 1.6823 0.4963 2.3047 1.3789s1.0254 2.1388 1.0254 3.5352c0 1.3964-0.40298 2.6526-1.0254 3.5352s-1.434 1.3789-2.3047 1.3789-1.6823-0.4963-2.3047-1.3789-1.0273-2.1388-1.0273-3.5352c0-1.3964 0.40494-2.6526 1.0273-3.5352s1.434-1.3789 2.3047-1.3789z" color="#000000" fill="#fff" stroke="none" style="-inkscape-stroke:none"/>
  </g>
  <g id="g20" transform="matrix(-1.0924 0 0 1.0924 50.29 -2.131)" stroke="#fff" stroke-width=".91542">
   <path id="ellipse18" transform="matrix(.99984 .01778 -.08649 .99625 0 0)" d="m20.4 12.66c-1.2219 0-2.3057 0.70554-3.0547 1.7676-0.74894 1.062-1.1934 2.4934-1.1934 4.0645 0 1.571 0.44442 3.0005 1.1934 4.0625 0.74894 1.062 1.8328 1.7695 3.0547 1.7695s2.3038-0.7075 3.0527-1.7695c0.74894-1.062 1.1934-2.4915 1.1934-4.0625 0-1.571-0.44442-3.0024-1.1934-4.0645-0.74894-1.062-1.8308-1.7676-3.0527-1.7676zm0 0.91797c0.87071 0 1.6823 0.4963 2.3047 1.3789s1.0254 2.1388 1.0254 3.5352c0 1.3964-0.40298 2.6526-1.0254 3.5352s-1.434 1.3789-2.3047 1.3789-1.6823-0.4963-2.3047-1.3789-1.0273-2.1388-1.0273-3.5352c0-1.3964 0.40494-2.6526 1.0273-3.5352s1.434-1.3789 2.3047-1.3789z" color="#000000" fill="#fff" stroke="none" style="-inkscape-stroke:none"/>
  </g>
  <path id="path22" d="m22.578 3.8457c-5.7283 0.49677-10.875 3.7113-14.043 8.1367-2.6995-0.16638-4.6728 1.4161-5.2695 3.3867-0.57648 1.9039 0.011408 4.1211 1.7324 5.3379-0.69311 5.792 0.3177 13.168 5.8008 18.111 5.6639 5.1066 15.826 7.3019 32.83 2.5977l-0.26562 0.03516a1.0001 1.0001 0 0 0 0.4043-1.9141c-1.9345-0.85775-2.5628-2.1072-2.6934-3.6504-0.13061-1.5432 0.39927-3.3721 1.1172-4.8223 1.2531-2.5328 1.2939-6.2006 0.89062-10.127 1.8063-1.4549 2.32-3.7319 1.6328-5.5879-0.69359-1.8732-2.6123-3.2754-5.0117-3.1426-5.0366-6.462-11.334-8.8635-17.125-8.3613zm0.17383 1.9922c5.2655-0.45664 10.961 1.6073 15.709 7.9512a1.0001 1.0001 0 0 0 0.96875 0.38672c1.8319-0.3103 2.95 0.62631 3.4102 1.8691s0.20492 2.7008-1.2988 3.627a1.0001 1.0001 0 0 0-0.46875 0.96484c0.4484 3.9661 0.27246 7.6322-0.67188 9.541-0.83208 1.6808-1.4958 3.7809-1.3184 5.877 0.11804 1.3947 0.73126 2.7641 1.8359 3.8711-15.168 3.7559-24.032 1.688-28.781-2.5938-4.9926-4.5014-5.895-11.526-5.127-16.943a1.0001 1.0001 0 0 0-0.56445-1.0449c-1.2435-0.58454-1.6663-2.0711-1.2656-3.3945 0.40072-1.3234 1.4278-2.3727 3.6602-1.998a1.0001 1.0001 0 0 0 0.99609-0.42969c2.791-4.1532 7.6505-7.227 12.916-7.6836z" color="#000000" fill="#fff" style="-inkscape-stroke:none"/>
 </g>
</svg>
