<?xml version="1.0" encoding="UTF-8"?>
<svg id="svg2" version="1.1" viewBox="0 0 48 48" xmlns="http://www.w3.org/2000/svg">
 <defs id="defs1">
  <style id="style1">.b{fill:none;stroke:#fff;stroke-width:2px;stroke-linecap:round;stroke-linejoin:round}</style>
 </defs>
 <g id="g1" transform="translate(-2.308 -2.006) scale(1.0924)">
  <path id="ellipse1" transform="matrix(.99984 .01778 -.08649 .99625 0 0)" d="m20.4 12.119c-1.4295 0-2.6724 0.82995-3.4961 1.998-0.82374 1.1681-1.293 2.7007-1.293 4.375 0 1.6743 0.46923 3.2069 1.293 4.375 0.82374 1.1681 2.0666 1.998 3.4961 1.998 1.4295 0 2.6724-0.82995 3.4961-1.998 0.82374-1.1681 1.293-2.7007 1.293-4.375 0-1.6743-0.46923-3.2069-1.293-4.375-0.82374-1.1681-2.0666-1.998-3.4961-1.998zm0 2c0.66312 0 1.3137 0.37385 1.8613 1.1504 0.54761 0.77654 0.92773 1.9295 0.92773 3.2227 0 1.2932-0.38012 2.4461-0.92773 3.2227-0.54761 0.77654-1.1982 1.1504-1.8613 1.1504-0.66312 0-1.3157-0.37385-1.8633-1.1504-0.54761-0.77654-0.92578-1.9295-0.92578-3.2227 0-1.2932 0.37817-2.4461 0.92578-3.2227 0.54761-0.77654 1.2002-1.1504 1.8633-1.1504z" fill="#fff" stroke-linecap="round" stroke-linejoin="round"/>
 </g>
 <g id="g2" transform="matrix(-1.0924 0 0 1.0924 50.29 -2.131)">
  <path id="ellipse2" transform="matrix(.99984 .01778 -.08649 .99625 0 0)" d="m20.4 12.119c-1.4295 0-2.6724 0.82995-3.4961 1.998-0.82374 1.1681-1.293 2.7007-1.293 4.375 0 1.6743 0.46923 3.2069 1.293 4.375 0.82374 1.1681 2.0666 1.998 3.4961 1.998 1.4295 0 2.6724-0.82995 3.4961-1.998 0.82374-1.1681 1.293-2.7007 1.293-4.375 0-1.6743-0.46923-3.2069-1.293-4.375-0.82374-1.1681-2.0666-1.998-3.4961-1.998zm0 2c0.66312 0 1.3137 0.37385 1.8613 1.1504 0.54761 0.77654 0.92773 1.9295 0.92773 3.2227 0 1.2932-0.38012 2.4461-0.92773 3.2227-0.54761 0.77654-1.1982 1.1504-1.8613 1.1504-0.66312 0-1.3157-0.37385-1.8633-1.1504-0.54761-0.77654-0.92578-1.9295-0.92578-3.2227 0-1.2932 0.37817-2.4461 0.92578-3.2227 0.54761-0.77654 1.2002-1.1504 1.8633-1.1504z" fill="#fff" stroke-linecap="round" stroke-linejoin="round"/>
 </g>
 <path id="path2" d="m22.578 3.8457c-5.7283 0.49677-10.875 3.7113-14.043 8.1367-2.6995-0.16638-4.6728 1.4161-5.2695 3.3867-0.57648 1.9039 0.011406 4.1211 1.7324 5.3379-0.69311 5.792 0.3177 13.168 5.8008 18.111 5.6639 5.1066 15.826 7.302 32.83 2.5977l-0.26562 0.03516a1.0001 1.0001 0 0 0 0.4043-1.9141c-1.9345-0.85775-2.5628-2.1071-2.6934-3.6504s0.39927-3.3721 1.1172-4.8223c1.2531-2.5328 1.2939-6.2006 0.89062-10.127 1.8063-1.4549 2.32-3.7319 1.6328-5.5879-0.6936-1.8732-2.6123-3.2754-5.0117-3.1426-5.0366-6.4621-11.334-8.8635-17.125-8.3613zm0.17383 1.9922c5.2655-0.45664 10.961 1.6073 15.709 7.9512a1.0001 1.0001 0 0 0 0.96875 0.38672c1.8319-0.3103 2.95 0.6263 3.4102 1.8691 0.46019 1.2428 0.20492 2.7008-1.2988 3.627a1.0001 1.0001 0 0 0-0.46875 0.96484c0.4484 3.9661 0.27246 7.6322-0.67188 9.541-0.83208 1.6808-1.4958 3.7809-1.3184 5.877 0.11804 1.3947 0.73126 2.7641 1.8359 3.8711-15.168 3.7559-24.032 1.688-28.781-2.5938-4.9926-4.5014-5.895-11.526-5.127-16.943a1.0001 1.0001 0 0 0-0.56445-1.0449c-1.2435-0.58454-1.6663-2.0711-1.2656-3.3945s1.4277-2.3727 3.6602-1.998a1.0001 1.0001 0 0 0 0.99609-0.42969c2.791-4.1532 7.6505-7.227 12.916-7.6836z" fill="#fff" stroke-linecap="round" stroke-linejoin="round"/>
</svg>
