<?xml version="1.0" encoding="UTF-8"?>
<svg id="a" version="1.1" viewBox="0 0 48 48" xmlns="http://www.w3.org/2000/svg">
 <defs id="defs1">
  <style id="style1">.b{fill:none;stroke:#fff;stroke-width:2px;stroke-linecap:round;stroke-linejoin:round;}</style>
 </defs>
 <path id="ellipse1" d="m23.941 12.115c-3.2961 0-6.0312 2.5954-6.0312 5.8223s2.7352 5.8223 6.0312 5.8223c3.2961 0 6.0293-2.5954 6.0293-5.8223s-2.7332-5.8223-6.0293-5.8223zm0 2c2.2599 0 4.0293 1.7229 4.0293 3.8223s-1.7694 3.8223-4.0293 3.8223c-2.2599 0-4.0312-1.7229-4.0312-3.8223s1.7714-3.8223 4.0312-3.8223z" fill="#fff" stop-color="#000000" stroke-linecap="round" stroke-linejoin="round"/>
 <path id="ellipse2" d="m15.459 14.566c-2.392 0-4.4492 1.7885-4.4492 4.1035s2.0573 4.1035 4.4492 4.1035c2.392 0 4.4512-1.7885 4.4512-4.1035s-2.0592-4.1035-4.4512-4.1035zm0 2c1.4198 0 2.4512 0.99021 2.4512 2.1035 0 1.1133-1.0314 2.1035-2.4512 2.1035-1.4198 0-2.4492-0.99021-2.4492-2.1035 0-1.1133 1.0294-2.1035 2.4492-2.1035z" fill="#fff" stop-color="#000000" stroke-linecap="round" stroke-linejoin="round"/>
 <path id="ellipse3" transform="translate(-12.012 10.066) rotate(-39.169)" d="m8.1406 15.469c-1.4761 0-2.7747 0.81902-3.6465 2-0.87178 1.181-1.373 2.7421-1.373 4.4453 0 1.7032 0.50126 3.2624 1.373 4.4434 0.87178 1.181 2.1704 2.002 3.6465 2.002s2.7767-0.82098 3.6484-2.002c0.87178-1.181 1.373-2.7402 1.373-4.4434 0-1.7032-0.50126-3.2643-1.373-4.4453-0.87178-1.181-2.1723-2-3.6484-2zm0 2c0.74398 0 1.456 0.39955 2.0391 1.1895 0.5831 0.78991 0.98242 1.9516 0.98242 3.2559 0 1.3043-0.39932 2.466-0.98242 3.2559-0.5831 0.78991-1.2951 1.1895-2.0391 1.1895s-1.454-0.39955-2.0371-1.1895c-0.5831-0.78991-0.98242-1.9516-0.98242-3.2559 0-1.3043 0.39932-2.466 0.98242-3.2559 0.5831-0.78991 1.2931-1.1895 2.0371-1.1895z" fill="#fff" stop-color="#000000" stroke-linecap="round" stroke-linejoin="round"/>
 <path id="path3" d="m37.631 5.123a1.0001 1.0001 0 0 0-1.002 0.69922c-1.7848 5.7113-9.5449 7.5508-9.5449 7.5508a1 1 0 0 0-0.76172 1.1914 1 1 0 0 0 1.1914 0.76172s6.0975-1.3018 9.416-5.8516c0.54117 4.232 0.65096 8.9651-0.60156 12.984-0.78037 2.5041-2.0044 4.6518-3.7715 6.166-1.767 1.5142-4.0853 2.4395-7.2676 2.4395-4.8602 0-8.3791-1.2873-10.687-2.5586-2.3084-1.2713-3.3418-2.4668-3.3418-2.4668a1 1 0 0 0-1.4121-0.0918 1 1 0 0 0-0.091797 1.4102s1.3173 1.4885 3.8809 2.9004c2.5636 1.4119 6.4371 2.8066 11.652 2.8066 3.5809 0 6.4396-1.0958 8.5684-2.9199 2.1287-1.8241 3.5186-4.331 4.3789-7.0918 1.7207-5.5216 1.3851-12.119 0.32422-17.139a1.0001 1.0001 0 0 0-0.92969-0.79101z" fill="#fff" stop-color="#000000" stroke-linecap="round" stroke-linejoin="round"/>
 <path id="path4" d="m11.781 8.3828a1.0001 1.0001 0 0 0-0.77148 1.0176s0.30704 7.7061-0.12695 10.709a1 1 0 0 0 0.84766 1.1328 1 1 0 0 0 1.1328-0.8457c0.31279-2.1642 0.29906-5.2647 0.24024-7.7754 2.8369 3.0326 6.5742 3.5879 6.5742 3.5879a1 1 0 0 0 1.1055-0.88281 1 1 0 0 0-0.88086-1.1055s-4.8911-0.5361-6.9785-5.2676a1.0001 1.0001 0 0 0-1.1426-0.57031z" fill="#fff" stop-color="#000000" stroke-linecap="round" stroke-linejoin="round"/>
 <path id="path5" d="m29.23 25.168c-1.1123 1.0617-3.1257 1.9381-6.1426 1.4141a1 1 0 0 0-1.1562 0.8125 1 1 0 0 0 0.81445 1.1562c3.5462 0.61597 6.2661-0.40909 7.8652-1.9355a1 1 0 0 0 0.03125-1.4141 1 1 0 0 0-1.4121-0.0332z" fill="#fff" stop-color="#000000" stroke-linecap="round" stroke-linejoin="round"/>
 <path id="path6" d="m28.785 23.982a1 1 0 0 0-1.1797 0.78125 1 1 0 0 0 0.78125 1.1797c0.32924 0.06674 0.47432 0.18996 0.62305 0.38672 0.14873 0.19676 0.26226 0.4819 0.33789 0.75586a1 1 0 0 0 1.2305 0.69727 1 1 0 0 0 0.69727-1.2305c-0.10927-0.39584-0.28908-0.92327-0.67188-1.4297-0.3828-0.50642-1.0076-0.97627-1.8184-1.1406z" fill="#fff" stop-color="#000000" stroke-linecap="round" stroke-linejoin="round"/>
 <path id="path7" d="m40.711 33.793c-0.5266 0.12179-1.0405 0.40086-1.4512 0.83398-0.75844 0.7999-0.8431 1.951-0.55859 2.8672 0.28451 0.91619 0.85256 1.7372 1.5078 2.4844 0.65525 0.74719 1.4059 1.4088 2.1172 1.916 0.51387 0.36642 0.99231 0.535 1.4941 0.70703 0.0064 0.0059 0.0032 0.01362 0.0098 0.01953l0.0059-0.01172c0.18804 0.06325 0.34499 0.24094 0.55859 0.26367a1.0001 1.0001 0 0 0 0.77539-1.7363c0.08874 0.08004-0.05605-0.09079-0.14258-0.43164-0.08653-0.34085-0.15969-0.82302-0.22656-1.3477-0.13375-1.0493-0.2172-2.2428-0.59766-3.2539-0.36999-0.98327-1.0239-1.8102-1.959-2.2012-0.46756-0.1955-1.0066-0.23116-1.5332-0.10938zm0.76172 1.9551c0.2579 0.10783 0.64387 0.48782 0.85938 1.0605 0.20505 0.54492 0.34467 1.7067 0.48438 2.8027 0.0025 0.01957 0.0073 0.0371 0.0098 0.05664-0.38284-0.32552-0.77511-0.62219-1.1133-1.0078-0.5387-0.61429-0.95087-1.2745-1.1016-1.7598-0.15069-0.48526-0.12795-0.65649 0.09961-0.89648 0.38405-0.40505 0.50382-0.36369 0.76172-0.25586z" fill="#fff" stop-color="#000000" stroke-linecap="round" stroke-linejoin="round"/>
 <path id="line7" d="m29.336 25.963a1 1 0 0 0-1.3984 0.20508 1 1 0 0 0 0.20508 1.3984l11.348 8.4512a1 1 0 0 0 1.3984-0.20508 1 1 0 0 0-0.20508-1.3984z" fill="#fff" stop-color="#000000" stroke-linecap="round" stroke-linejoin="round"/>
 <path id="circle7" d="m25.135 15.629c-1.7656 0-3.2188 1.4531-3.2188 3.2188 0 1.7656 1.4531 3.2168 3.2188 3.2168 1.7656 0 3.2188-1.4512 3.2188-3.2168 0-1.7656-1.4531-3.2188-3.2188-3.2188zm0 2c0.68475 0 1.2188 0.534 1.2188 1.2188 0 0.68475-0.534 1.2168-1.2188 1.2168-0.68475 0-1.2188-0.53205-1.2188-1.2168 0-0.68475 0.534-1.2188 1.2188-1.2188z" fill="#fff" stop-color="#000000" stroke-linecap="round" stroke-linejoin="round"/>
 <path id="circle8" d="m15.953 16.783c-1.3232 0-2.418 1.0948-2.418 2.418s1.0948 2.418 2.418 2.418 2.418-1.0948 2.418-2.418-1.0948-2.418-2.418-2.418zm0 2c0.24231 0 0.41797 0.17566 0.41797 0.41797s-0.17566 0.41797-0.41797 0.41797-0.41797-0.17566-0.41797-0.41797 0.17566-0.41797 0.41797-0.41797z" fill="#fff" stop-color="#000000" stroke-linecap="round" stroke-linejoin="round"/>
 <path id="circle9" d="m6.4082 17.52c-1.0901 0-1.9961 0.90596-1.9961 1.9961s0.90596 1.9961 1.9961 1.9961 1.9941-0.90596 1.9941-1.9961-0.90401-1.9961-1.9941-1.9961zm0 1.9922c-0.00925 0 0.00391 0.01316 0.00391 0.0039 0-0.0092-0.013155 0.0039-0.00391 0.0039 0.00925 0-0.00586-0.01316-0.00586-0.0039 0 0.0092 0.015108-0.0039 0.00586-0.0039z" fill="#fff" stop-color="#000000" stroke-linecap="round" stroke-linejoin="round"/>
 <path id="path9" d="m36.414 10.543a1 1 0 0 0-1.3652 0.36719c-0.45954 0.79917-1.0324 1.6224-1.3867 2.5469-0.35434 0.9245-0.39559 2.1775 0.41016 3.0918a1 1 0 0 0 1.4121 0.08984 1 1 0 0 0 0.08789-1.4121c-0.28765-0.3264-0.26691-0.47041-0.04297-1.0547 0.22394-0.58427 0.74614-1.3806 1.2539-2.2637a1 1 0 0 0-0.36914-1.3652z" fill="#fff" stop-color="#000000" stroke-linecap="round" stroke-linejoin="round"/>
</svg>
