<?xml version="1.0" encoding="UTF-8"?>
<svg id="svg2" version="1.1" viewBox="0 0 48 48" xmlns="http://www.w3.org/2000/svg">
 <defs id="defs1">
  <style id="style1">.a{fill:none;stroke:#fff;stroke-width:2px;stroke-linecap:round;stroke-linejoin:round;}</style>
 </defs>
 <path id="circle1" d="m24 13c-6.0633 0-11 4.9367-11 11s4.9367 11 11 11 11-4.9367 11-11-4.9367-11-11-11zm0 2c4.9824 0 9 4.0176 9 9s-4.0176 9-9 9-9-4.0176-9-9 4.0176-9 9-9z" color="#000000" fill="#fff" stroke-linecap="round" stroke-linejoin="round" style="-inkscape-stroke:none"/>
 <path id="circle2" d="m24 18c-3.3019 0-6 2.6981-6 6s2.6981 6 6 6 6-2.6981 6-6-2.6981-6-6-6zm0 2c2.221 0 4 1.779 4 4s-1.779 4-4 4-4-1.779-4-4 1.779-4 4-4z" color="#000000" fill="#fff" stroke-linecap="round" stroke-linejoin="round" style="-inkscape-stroke:none"/>
 <path id="ellipse2" d="m24 9c-6.113 0-11.662 1.6013-15.748 4.2617-4.0856 2.6604-6.752 6.4573-6.752 10.738s2.6663 8.0779 6.752 10.738c4.0856 2.6604 9.635 4.2617 15.748 4.2617s11.662-1.6013 15.748-4.2617 6.752-6.4573 6.752-10.738-2.6663-8.0779-6.752-10.738-9.635-4.2617-15.748-4.2617zm0 2c5.7611 0 10.96 1.5329 14.656 3.9395s5.8438 5.6095 5.8438 9.0605-2.1479 6.654-5.8438 9.0605-8.8952 3.9395-14.656 3.9395-10.96-1.5329-14.656-3.9395c-3.6958-2.4066-5.8438-5.6095-5.8438-9.0605s2.1479-6.654 5.8438-9.0605c3.6958-2.4066 8.8952-3.9395 14.656-3.9395z" color="#000000" fill="#fff" stroke-linecap="round" stroke-linejoin="round" style="-inkscape-stroke:none"/>
</svg>
