<?xml version="1.0" encoding="UTF-8"?>
<svg id="Layer_2" data-name="Layer 2" version="1.1" viewBox="0 0 48 48" xmlns="http://www.w3.org/2000/svg">
 <defs id="defs1">
  <style id="style1">.cls-1{fill:none;stroke:#fff;stroke-width:2px;stroke-linecap:round;stroke-linejoin:round;}</style>
 </defs>
 <path id="path1" d="m19.91 2.5195c-0.99613-0.0098-1.8606 0.73433-2 1.7207l-0.70312 4.957c-0.91412 0.42124-1.7841 0.92607-2.6055 1.5078l-4.6855-1.8809c-0.92771-0.37681-2.0098 0.00308-2.498 0.87695-4.751e-4 8.502e-4 -0.00148 0.0011-0.00195 0.00195l-4.084 7.082c-7.028e-4 0.0012 7e-4 0.0027 0 0.0039-0.51809 0.86568-0.30206 2.0026 0.5 2.6152l3.8945 3.0566c-0.049323 0.50913-0.10247 1.0176-0.10742 1.5293a1.0001 1.0001 0 0 0 0 0.01953c0.00469 0.51146 0.058046 1.0204 0.10742 1.5293l-3.8945 3.0566c-0.80206 0.61263-1.0181 1.7496-0.5 2.6152 7e-4 0.0012-7.028e-4 0.0027 0 0.0039l4.084 7.082c4.74e-4 8.51e-4 0.00148 0.0011 0.00195 2e-3 0.48829 0.87388 1.5703 1.2538 2.498 0.87695l4.666-1.8809c0.82164 0.57976 1.691 1.0852 2.6035 1.5078l0.70508 4.957c0.13942 0.98637 1.0039 1.7305 2 1.7207h8.1797c0.99613 0.0098 1.8606-0.73433 2-1.7207l0.70312-4.959c0.91364-0.4211 1.7825-0.92442 2.6035-1.5059l4.666 1.8809c0.92861 0.37718 2.0124-0.0032 2.5-0.87891l4.084-7.082c0.52078-0.86611 0.30314-2.0057-0.5-2.6191l-3.8652-3.0547c0.0495-0.50955 0.10273-1.0191 0.10742-1.5312a1.0001 1.0001 0 0 0 0-0.01953c-0.0047-0.51146-0.05805-1.0204-0.10742-1.5293l3.9062-3.0566 2e-3 -0.0039c0.79905-0.6133 1.0153-1.747 0.49805-2.6113v-0.0039l-4.084-7.082-2e-3 -0.00195c-0.48829-0.87392-1.5703-1.2538-2.498-0.877l-4.666 1.8809c-0.82164-0.57976-1.691-1.0852-2.6035-1.5078l-0.70508-4.957c-0.13942-0.98637-1.0039-1.7305-2-1.7207zm-0.01953 2a1.0001 1.0001 0 0 0 0.0098 0h8.2188a1.0001 1.0001 0 0 0 0.0098 0 1.0001 1.0001 0 0 0 2e-3 0l0.76953 5.4316a1.0001 1.0001 0 0 0 0.60352 0.78125c1.1552 0.48343 2.2447 1.1133 3.2402 1.873a1.0001 1.0001 0 0 0 0.98047 0.13281l5.1094-2.0605a1.0001 1.0001 0 0 0 2e-3 -2e-3 1.0001 1.0001 0 0 0 0.0078 0.01367l4.0996 7.1094a1.0001 1.0001 0 0 0 0.0098 0.01563 1.0001 1.0001 0 0 0-0.0098 0.0078l-4.3301 3.3906a1.0001 1.0001 0 0 0-0.375 0.91797c0.08142 0.61985 0.12474 1.244 0.13086 1.8691-0.0061 0.62514-0.04944 1.2493-0.13086 1.8691a1.0001 1.0001 0 0 0 0.37109 0.91602l4.291 3.3887a1.0001 1.0001 0 0 0 0.01172 0.01172 1.0001 1.0001 0 0 0-0.0078 0.01563l-4.0996 7.1094a1.0001 1.0001 0 0 0-0.0078 0.01367 1.0001 1.0001 0 0 0-0.0039-2e-3l-5.1094-2.0605a1.0001 1.0001 0 0 0-0.98242 0.13476c-0.99222 0.76148-2.0793 1.3894-3.2344 1.8691a1.0001 1.0001 0 0 0-0.60742 0.7832l-0.76953 5.4316a1.0001 1.0001 0 0 0-0.0098 0h-8.1992a1.0001 1.0001 0 0 0-0.0098 0 1.0001 1.0001 0 0 0-2e-3 0l-0.76953-5.4316a1.0001 1.0001 0 0 0-0.60352-0.78125c-1.1552-0.48343-2.2447-1.1133-3.2402-1.873a1.0001 1.0001 0 0 0-0.98047-0.13281l-5.1094 2.0605a1.0001 1.0001 0 0 0-0.00195 2e-3 1.0001 1.0001 0 0 0-0.00781-0.01367l-4.0997-7.1093a1.0001 1.0001 0 0 0-0.00977-0.01563 1.0001 1.0001 0 0 0 0.00977-0.0098l4.3203-3.3887a1.0001 1.0001 0 0 0 0.375-0.91797c-0.081418-0.61981-0.12669-1.244-0.13281-1.8691 0.00644-0.62547 0.051668-1.2509 0.13281-1.8711a1.0001 1.0001 0 0 0-0.375-0.91602l-4.3203-3.3887a1.0001 1.0001 0 0 0-0.00977-0.0098 1.0001 1.0001 0 0 0 0.00977-0.01563l4.0996-7.1093a1.0001 1.0001 0 0 0 0.00781-0.01367 1.0001 1.0001 0 0 0 0.00391 2e-3l5.1289 2.0605a1.0001 1.0001 0 0 0 0.98242-0.13476c0.99222-0.76148 2.0793-1.3894 3.2344-1.8691a1.0001 1.0001 0 0 0 0.60547-0.7832zm4.9961 11.346c-2.3098-0.26227-4.7764 0.44363-6.6855 2.3555-2.5456 2.5491-2.9432 6.0831-1.7656 8.918s3.9635 5.046 7.5664 5.041c4.5038-0.0011 8.1743-3.6776 8.168-8.1816-8.37e-4 -3.6019-2.2168-6.3833-5.0527-7.5566-0.70912-0.2934-1.4605-0.48875-2.2305-0.57617zm-0.2207 1.9785c0.57852 0.07056 1.1467 0.22154 1.6875 0.44531 2.1633 0.89507 3.8164 2.9143 3.8164 5.7109a1.0001 1.0001 0 0 0 0 2e-3c0.004773 3.4228-2.7471 6.1777-6.1699 6.1777a1.0001 1.0001 0 0 0-2e-3 0c-2.7967 0.0039-4.8168-1.6465-5.7148-3.8086s-0.64191-4.7596 1.334-6.7383c1.4819-1.484 3.3133-2.0008 5.0488-1.7891z" fill="#fff" stroke-linecap="round" stroke-linejoin="round"/>
</svg>
