<?xml version="1.0" encoding="UTF-8" standalone="no"?>
<svg
   id="a"
   viewBox="0 0 48 48"
   version="1.1"
   sodipodi:docname="kdeconnect.svg"
   xmlns:inkscape="http://www.inkscape.org/namespaces/inkscape"
   xmlns:sodipodi="http://sodipodi.sourceforge.net/DTD/sodipodi-0.dtd"
   xmlns="http://www.w3.org/2000/svg"
   xmlns:svg="http://www.w3.org/2000/svg">
  <sodipodi:namedview
     id="namedview2"
     pagecolor="#ffffff"
     bordercolor="#666666"
     borderopacity="1.0"
     inkscape:showpageshadow="2"
     inkscape:pageopacity="0.0"
     inkscape:pagecheckerboard="0"
     inkscape:deskcolor="#d1d1d1" />
  <defs
     id="defs1">
    <style
       id="style1">.b{fill:none;stroke:#fff;stroke-width:2px;stroke-linecap:round;stroke-linejoin:round;}</style>
  </defs>
  <path
     style="color:#000000;fill:#ffffff;stroke-linecap:round;stroke-linejoin:round;-inkscape-stroke:none"
     d="m 14.5,3.5 c -1.644701,0 -3,1.3552989 -3,3 v 35 c 0,1.644701 1.355299,3 3,3 h 19 c 1.644701,0 3,-1.355299 3,-3 v -35 c 0,-1.6447011 -1.355299,-3 -3,-3 z m 0,2 h 19 c 0.571297,0 1,0.4287033 1,1 v 35 c 0,0.571297 -0.428703,1 -1,1 h -19 c -0.571297,0 -1,-0.428703 -1,-1 v -35 c 0,-0.5712967 0.428703,-1 1,-1 z"
     id="rect1" />
  <path
     style="color:#000000;fill:#ffffff;stroke-linecap:round;stroke-linejoin:round;-inkscape-stroke:none"
     d="m 12.5,7 a 1,1 0 0 0 -1,1 1,1 0 0 0 1,1 h 23 a 1,1 0 0 0 1,-1 1,1 0 0 0 -1,-1 z"
     id="line1" />
  <path
     style="color:#000000;fill:#ffffff;stroke-linecap:round;stroke-linejoin:round;-inkscape-stroke:none"
     d="m 12.5,39 a 1,1 0 0 0 -1,1 1,1 0 0 0 1,1 h 23 a 1,1 0 0 0 1,-1 1,1 0 0 0 -1,-1 z"
     id="line2" />
  <path
     style="color:#000000;fill:#ffffff;stroke-linecap:round;stroke-linejoin:round;-inkscape-stroke:none"
     d="m 24.765625,14.855469 a 1,1 0 0 0 -1,1 v 3.222656 a 1,1 0 0 0 -0.886719,-0.628906 c -0.356221,0.06035 -0.663526,0.259185 -0.990234,0.408203 L 20.355469,17.84375 C 20.243204,17.759327 20.092583,17.786897 19.958984,17.75 a 1.0001,1.0001 0 0 0 -0.375,-0.128906 c -0.02223,0.0019 -0.03665,0.02421 -0.05859,0.02734 -0.01384,0.002 -0.02525,-0.01228 -0.03906,-0.0098 l 0.01953,0.01758 c -0.227096,0.0368 -0.447805,0.117934 -0.613281,0.275391 a 1.0001,1.0001 0 0 0 -0.02148,0.02344 l -1.046875,1.0625 a 1.0001,1.0001 0 0 0 -0.02734,0.02734 c -0.323549,0.355514 -0.389945,0.886823 -0.164063,1.310547 a 1.0001,1.0001 0 0 0 0.02539,0.04297 L 18.625,22.013672 c -0.03512,0.07711 -0.06953,0.153988 -0.101563,0.232422 l -1.75,0.365234 a 1.0001,1.0001 0 0 0 -0.03125,0.0059 c -0.506138,0.122749 -0.871093,0.5867 -0.871093,1.109375 v 1.5 c 0,0.517405 0.360997,0.978433 0.861328,1.103516 a 1.0001,1.0001 0 0 0 0.0039,0.002 l 1.6875,0.416016 c 0.04858,0.140229 0.101924,0.277558 0.160156,0.414062 l -0.984375,1.539063 0.07031,-0.09766 c -0.342758,0.415562 -0.342758,1.031702 0,1.447265 a 1.0001,1.0001 0 0 0 0.06055,0.06641 l 1.044922,1.058594 a 1.0001,1.0001 0 0 0 0.08594,0.07813 c 0.409994,0.328332 1.007975,0.328332 1.417969,0 l -0.09961,0.07031 1.548829,-0.955078 c 0.09212,0.04179 0.185227,0.08001 0.279296,0.117187 l 0.355469,1.738281 c 0.102456,0.534952 0.588295,0.930042 1.134766,0.919922 h 1.460937 a 1.0001,1.0001 0 0 0 0.0059,0 c 0.522139,-0.0034 0.983591,-0.378459 1.097656,-0.886719 l -0.0039,0.02148 0.4375,-1.78125 c 0.107838,-0.04212 0.213048,-0.08862 0.318359,-0.136719 l 1.509766,1.005859 -0.06641,-0.04883 c 0.410029,0.325563 1.004035,0.325563 1.414063,0 a 1.0001,1.0001 0 0 0 0.08984,-0.08008 l 1.044922,-1.058594 a 1.0001,1.0001 0 0 0 0.07227,-0.08008 c 0.325563,-0.410028 0.325563,-1.004034 0,-1.414062 l 0.08203,0.117187 -0.693359,-1.1875 A 1.0001,1.0001 0 0 0 29.09375,27.167969 l -0.230469,0.07617 a 1,1 0 0 0 -0.638672,1.259765 1,1 0 0 0 0.949219,0.482422 l -0.324219,0.328125 -1.365234,-0.910156 a 1.0001,1.0001 0 0 0 -1.068359,-0.02734 c -0.324871,0.194244 -0.674011,0.344843 -1.039063,0.445313 a 1.0001,1.0001 0 0 0 -0.707031,0.724609 l -0.392578,1.597656 h -0.0918 l -0.322266,-1.564453 a 1.0001,1.0001 0 0 0 -0.714844,-0.763672 c -0.35303,-0.0969 -0.692801,-0.239865 -1.007812,-0.425781 a 1.0001,1.0001 0 0 0 -1.033203,0.0098 l -1.404297,0.867187 -0.05664,-0.05664 0.886719,-1.386718 a 1.0001,1.0001 0 0 0 0.0332,-1.023438 c -0.19637,-0.354867 -0.341741,-0.733971 -0.433594,-1.128906 a 1.0001,1.0001 0 0 0 -0.736328,-0.744141 l -1.52539,-0.376953 v -0.126953 l 1.5625,-0.326172 A 1.0001,1.0001 0 0 0 20.1875,23.402344 c 0.10016,-0.338408 0.240508,-0.66388 0.417969,-0.96875 a 1.0001,1.0001 0 0 0 -0.0059,-1.015625 l -0.880859,-1.47461 0.07422,-0.07422 1.408203,0.933593 a 1.0001,1.0001 0 0 0 1.128906,-0.01758 c 0.262951,-0.185881 0.565418,-0.309506 0.882813,-0.363281 a 1,1 0 0 0 0.552734,-0.318359 v 6.800781 a 1,1 0 0 0 1,1 1,1 0 0 0 1,-1 v -4.378906 l 0.691406,-0.08398 3.886719,4.945313 a 1,1 0 0 0 1.404297,0.169922 1,1 0 0 0 0.167969,-1.404297 l -3.740235,-4.765625 3.714844,-4.595703 a 1,1 0 0 0 -0.148438,-1.40625 1,1 0 0 0 -1.40625,0.15039 l -3.960937,4.900391 -0.609375,0.07422 v -4.654297 a 1,1 0 0 0 -1,-1 z m -5.068359,4.710937 a 1.0001,1.0001 0 0 0 0.09961,0.02734 c -0.03314,0.004 -0.06067,-0.02175 -0.09375,-0.02148 z m 9.615234,9.490235 a 1,1 0 0 0 0.173828,0.08789 l -0.173828,0.05664 c 0.01178,-0.0502 -0.02073,-0.09688 0,-0.144531 z"
     id="path2" />
</svg>
