<?xml version="1.0" encoding="UTF-8"?>
<svg id="a" version="1.1" viewBox="0 0 48 48" xmlns="http://www.w3.org/2000/svg">
 <defs id="defs1">
  <style id="style1">.b{fill:none;stroke:#fff;stroke-width:2px;stroke-linecap:round;stroke-linejoin:round;}</style>
 </defs>
 <path id="rect1" d="m14.5 3.5c-1.6447 0-3 1.3553-3 3v35c0 1.6447 1.3553 3 3 3h19c1.6447 0 3-1.3553 3-3v-35c0-1.6447-1.3553-3-3-3zm0 2h19c0.5713 0 1 0.4287 1 1v35c0 0.5713-0.4287 1-1 1h-19c-0.5713 0-1-0.4287-1-1v-35c0-0.5713 0.4287-1 1-1z" fill="#fff" stroke-linecap="round" stroke-linejoin="round"/>
 <path id="line1" d="m12.5 7a1 1 0 0 0-1 1 1 1 0 0 0 1 1h23a1 1 0 0 0 1-1 1 1 0 0 0-1-1z" fill="#fff" stroke-linecap="round" stroke-linejoin="round"/>
 <path id="line2" d="m12.5 39a1 1 0 0 0-1 1 1 1 0 0 0 1 1h23a1 1 0 0 0 1-1 1 1 0 0 0-1-1z" fill="#fff" stroke-linecap="round" stroke-linejoin="round"/>
 <path id="path2" d="m24.766 14.855a1 1 0 0 0-1 1v3.2227a1 1 0 0 0-0.88672-0.62891c-0.35622 0.06035-0.66353 0.25918-0.99023 0.4082l-1.5332-1.0137c-0.11226-0.084423-0.26289-0.056853-0.39648-0.09375a1.0001 1.0001 0 0 0-0.375-0.12891c-0.02223 0.0019-0.03665 0.02421-0.05859 0.02734-0.01384 2e-3 -0.02525-0.01228-0.03906-0.0098l0.01953 0.01758c-0.2271 0.0368-0.4478 0.11793-0.61328 0.27539a1.0001 1.0001 0 0 0-0.02148 0.02344l-1.0469 1.0625a1.0001 1.0001 0 0 0-0.02734 0.02734c-0.32355 0.35551-0.38994 0.88682-0.16406 1.3105a1.0001 1.0001 0 0 0 0.02539 0.04297l0.96678 1.6153c-0.03512 0.07711-0.06953 0.15399-0.10156 0.23242l-1.75 0.36523a1.0001 1.0001 0 0 0-0.03125 0.0059c-0.50614 0.12275-0.87109 0.5867-0.87109 1.1094v1.5c0 0.51741 0.361 0.97843 0.86133 1.1035a1.0001 1.0001 0 0 0 0.0039 2e-3l1.6875 0.41602c0.04858 0.14023 0.10192 0.27756 0.16016 0.41406l-0.98438 1.5391 0.07031-0.09766c-0.34276 0.41556-0.34276 1.0317 0 1.4473a1.0001 1.0001 0 0 0 0.06055 0.06641l1.0449 1.0586a1.0001 1.0001 0 0 0 0.08594 0.07813c0.40999 0.32833 1.008 0.32833 1.418 0l-0.09961 0.07031 1.5488-0.95508c0.09212 0.04179 0.18523 0.08001 0.2793 0.11719l0.35547 1.7383c0.10246 0.53495 0.58829 0.93004 1.1348 0.91992h1.4609a1.0001 1.0001 0 0 0 0.0059 0c0.52214-0.0034 0.98359-0.37846 1.0977-0.88672l-0.0039 0.02148 0.4375-1.7812c0.10784-0.04212 0.21305-0.08862 0.31836-0.13672l1.5098 1.0059-0.06641-0.04883c0.41003 0.32556 1.004 0.32556 1.4141 0a1.0001 1.0001 0 0 0 0.08984-0.08008l1.0449-1.0586a1.0001 1.0001 0 0 0 0.07227-0.08008c0.32556-0.41003 0.32556-1.004 0-1.4141l0.08203 0.11719-0.69336-1.1875a1.0001 1.0001 0 0 0-1.1739-0.44734l-0.23047 0.07617a1 1 0 0 0-0.63867 1.2598 1 1 0 0 0 0.94922 0.48242l-0.32422 0.32812-1.3652-0.91016a1.0001 1.0001 0 0 0-1.0684-0.02734c-0.32487 0.19424-0.67401 0.34484-1.0391 0.44531a1.0001 1.0001 0 0 0-0.70703 0.72461l-0.39258 1.5977h-0.0918l-0.32227-1.5645a1.0001 1.0001 0 0 0-0.71484-0.76367c-0.35303-0.0969-0.6928-0.23986-1.0078-0.42578a1.0001 1.0001 0 0 0-1.0332 0.0098l-1.4043 0.86719-0.05664-0.05664 0.88672-1.3867a1.0001 1.0001 0 0 0 0.0332-1.0234c-0.19637-0.35487-0.34174-0.73397-0.43359-1.1289a1.0001 1.0001 0 0 0-0.73633-0.74414l-1.5254-0.37695v-0.12695l1.5625-0.32617a1.0001 1.0001 0 0 0 0.75391-0.69535c0.10016-0.33841 0.24051-0.66388 0.41797-0.96875a1.0001 1.0001 0 0 0-0.0059-1.0156l-0.88086-1.4746 0.07422-0.07422 1.4082 0.93359a1.0001 1.0001 0 0 0 1.1289-0.01758c0.26295-0.18588 0.56542-0.30951 0.88281-0.36328a1 1 0 0 0 0.55273-0.31836v6.8008a1 1 0 0 0 1 1 1 1 0 0 0 1-1v-4.3789l0.69141-0.08398 3.8867 4.9453a1 1 0 0 0 1.4043 0.16992 1 1 0 0 0 0.16797-1.4043l-3.7402-4.7656 3.7148-4.5957a1 1 0 0 0-0.14844-1.4062 1 1 0 0 0-1.4062 0.15039l-3.9609 4.9004-0.60938 0.07422v-4.6543a1 1 0 0 0-1-1zm-5.0684 4.7109a1.0001 1.0001 0 0 0 0.09961 0.02734c-0.03314 4e-3 -0.06067-0.02175-0.09375-0.02148zm9.6152 9.4902a1 1 0 0 0 0.17383 0.08789l-0.17383 0.05664c0.01178-0.0502-0.02073-0.09688 0-0.14453z" fill="#fff" stroke-linecap="round" stroke-linejoin="round"/>
</svg>
