<?xml version="1.0" encoding="UTF-8"?>
<svg id="Layer_2" data-name="Layer 2" version="1.1" viewBox="0 0 48 48" xmlns="http://www.w3.org/2000/svg">
 <defs id="defs1">
  <style id="style1">.cls-1{fill:none;stroke:#fff;stroke-width:2px;stroke-linecap:round;stroke-linejoin:round;}</style>
 </defs>
 <path id="path1" d="m6.4707 9.6797a1.0001 1.0001 0 0 0-0.052734 0.052734c-1.6173 0.033056-2.9473 1.3539-2.9473 2.9785v22.609c0 1.645 1.355 3 3 3h35.059c1.645 0 3-1.355 3-3v-22.641c0-1.645-1.355-3-3-3zm0.03125 2h35.027c0.56413 0 1 0.43587 1 1v22.641c0 0.56413-0.43587 1-1 1h-35.059c-0.56413 0-1-0.43587-1-1v-22.609c0-0.56413 0.43587-1 1-1a1.0001 1.0001 0 0 0 0.03125-0.03125zm1.668 1.8613a1 1 0 0 0-0.65625 0.39648 1 1 0 0 0 0.21289 1.3984l15.682 11.539a1.0001 1.0001 0 0 0 1.1836 0l15.682-11.539a1 1 0 0 0 0.21289-1.3984 1 1 0 0 0-1.3984-0.21289l-15.088 11.104-15.088-11.104a1 1 0 0 0-0.74219-0.18359z" color="#000000" fill="#fff" stroke-linecap="round" stroke-linejoin="round" style="-inkscape-stroke:none"/>
</svg>
