<?xml version="1.0" encoding="UTF-8" standalone="no"?>
<svg
   id="Layer_2"
   data-name="Layer 2"
   viewBox="0 0 48 48"
   version="1.1"
   sodipodi:docname="kodi.svg"
   xmlns:inkscape="http://www.inkscape.org/namespaces/inkscape"
   xmlns:sodipodi="http://sodipodi.sourceforge.net/DTD/sodipodi-0.dtd"
   xmlns="http://www.w3.org/2000/svg"
   xmlns:svg="http://www.w3.org/2000/svg">
  <sodipodi:namedview
     id="namedview1"
     pagecolor="#ffffff"
     bordercolor="#666666"
     borderopacity="1.0"
     inkscape:showpageshadow="2"
     inkscape:pageopacity="0.0"
     inkscape:pagecheckerboard="0"
     inkscape:deskcolor="#d1d1d1" />
  <defs
     id="defs1">
    <style
       id="style1">.cls-1{fill:none;stroke:#fff;stroke-width:2px;stroke-linecap:round;stroke-linejoin:round;}</style>
  </defs>
  <path
     style="color:#000000;fill:#ffffff;stroke-linecap:round;stroke-linejoin:round;-inkscape-stroke:none"
     d="m 23.982422,2.5 c -0.697168,0.011764 -1.359295,0.3098787 -1.830078,0.8242188 l -3.96875,3.9687499 A 1.0001,1.0001 0 0 0 17.890625,8 v 15.849609 a 1.0001,1.0001 0 0 0 1.707031,0.707032 L 32.646484,11.496094 a 1.0001,1.0001 0 0 0 -0.002,-1.416016 L 25.847656,3.3242188 C 25.376873,2.8098787 24.714746,2.5117641 24.017578,2.5 a 1.0001,1.0001 0 0 0 -0.03516,0 z M 24,4.5078125 c 0.141276,0.00756 0.277098,0.063142 0.373047,0.1679687 a 1.0001,1.0001 0 0 0 0.03125,0.033203 l 6.11914,6.0839846 -10.632812,10.640625 V 8.4140625 l 3.707031,-3.7070313 a 1.0001,1.0001 0 0 0 0.0293,-0.03125 C 23.722902,4.5709547 23.858724,4.5153773 24,4.5078125 Z M 11.830078,14.474609 a 1.0001,1.0001 0 0 0 -1.089844,0.220704 l -7.4492184,7.490234 a 1.0001,1.0001 0 0 0 -0.00195,0.002 c -0.9839229,0.996697 -0.9839229,2.628303 0,3.625 a 1.0001,1.0001 0 0 0 0.00391,0.0039 l 7.4902342,7.490235 a 1.0001,1.0001 0 0 0 1.707031,-0.708985 l -0.04101,-17.199218 a 1.0001,1.0001 0 0 0 -0.619141,-0.923829 z m 25.369141,0.576172 a 1.0001,1.0001 0 0 0 -0.708985,0.294922 l -7.939453,8 a 1.0001,1.0001 0 0 0 0.002,1.412109 l 6.830078,6.830079 1.109375,1.109375 a 1.0001,1.0001 0 0 0 1.419922,-0.0039 L 44.710937,25.8125 c 0.983923,-0.996697 0.983923,-2.628303 0,-3.625 a 1.0001,1.0001 0 0 0 -0.002,-0.002 l -6.800781,-6.839844 a 1.0001,1.0001 0 0 0 -0.708984,-0.294922 z m 0,2.417969 6.089843,6.125 c 0.229325,0.233957 0.230428,0.581034 0,0.814453 l -6.09375,6.164063 -0.398437,-0.398438 -6.125,-6.126953 z m -26.744141,0.349609 0.0293,12.361328 -5.7734375,-5.771484 v -0.002 c -0.2287749,-0.233396 -0.2287749,-0.579104 0,-0.8125 5.499e-4,-5.61e-4 -5.526e-4,-0.0014 0,-0.002 z m 14.25,10.732422 a 1.0001,1.0001 0 0 0 -1.412109,0.002 l -5.111328,5.121094 a 1.0001,1.0001 0 0 0 -0.291016,0.707031 V 40 a 1.0001,1.0001 0 0 0 0.292969,0.707031 l 4,4 a 1.0001,1.0001 0 0 0 0.0039,0.0039 c 0.996697,0.983923 2.628303,0.983923 3.625,0 a 1.0001,1.0001 0 0 0 0.0059,-0.0039 l 6.830078,-6.839844 a 1.0001,1.0001 0 0 0 -0.002,-1.414062 l -1.099609,-1.099609 a 1.0001,1.0001 0 0 0 -0.002,-0.002 z m -0.703125,2.121094 6.132813,6.095703 0.390625,0.392578 -6.119141,6.128906 c -0.233396,0.228775 -0.579104,0.228775 -0.8125,0 h -0.002 l -3.701172,-3.703125 v -4.792968 z"
     id="path1" />
</svg>
