<?xml version="1.0" encoding="UTF-8" standalone="no"?>
<svg
   viewBox="0 0 48 48"
   version="1.1"
   id="svg4"
   sodipodi:docname="krita.svg"
   xmlns:inkscape="http://www.inkscape.org/namespaces/inkscape"
   xmlns:sodipodi="http://sodipodi.sourceforge.net/DTD/sodipodi-0.dtd"
   xmlns="http://www.w3.org/2000/svg"
   xmlns:svg="http://www.w3.org/2000/svg">
  <sodipodi:namedview
     id="namedview4"
     pagecolor="#ffffff"
     bordercolor="#666666"
     borderopacity="1.0"
     inkscape:showpageshadow="2"
     inkscape:pageopacity="0.0"
     inkscape:pagecheckerboard="0"
     inkscape:deskcolor="#d1d1d1" />
  <defs
     id="defs1">
    <style
       id="style1">.a{fill:none;stroke:#fff;stroke-width:2px;stroke-linecap:round;stroke-linejoin:round;}</style>
  </defs>
  <path
     style="color:#000000;fill:#ffffff;stroke-linecap:round;stroke-linejoin:round;-inkscape-stroke:none"
     d="M 25.916016,1.5859375 C 20.362716,1.1113836 14.634453,2.6847793 9.9628906,6.4140625 a 1,1 0 0 0 -0.1582031,1.40625 1,1 0 0 0 1.4062505,0.1582031 c 8.52754,-6.8074897 20.866547,-5.7528326 28.111328,2.4003904 7.2445,8.152908 6.833916,20.520908 -0.927735,28.189453 -7.76165,7.668546 -20.132375,7.928296 -28.197265,0.585938 C 2.1320623,31.811655 1.2248657,19.462349 8.1347656,11.017578 A 1,1 0 0 0 7.9941406,9.609375 1,1 0 0 0 6.5859375,9.75 C -0.98483374,19.002439 0.01243647,32.589315 8.8496094,40.634766 17.686466,48.679929 31.297736,48.391281 39.800781,39.990234 48.303826,31.589188 48.754345,17.984079 40.816406,9.0507813 36.847295,4.5839724 31.469315,2.0604914 25.916016,1.5859375 Z"
     id="path1" />
  <path
     style="color:#000000;fill:#ffffff;stroke-linecap:round;stroke-linejoin:round;-inkscape-stroke:none"
     d="m 29.769531,25.742187 c 0,0 -0.751173,0.240652 -1.521484,0.757813 -0.770311,0.517161 -1.715502,1.411224 -1.757813,2.769531 a 1,1 0 0 0 0.96875,1.03125 1,1 0 0 0 1.029297,-0.96875 c 0.01299,-0.416991 0.363338,-0.828362 0.875,-1.171875 0.511663,-0.343513 1.029297,-0.517578 1.029297,-0.517578 a 1,1 0 0 0 0.638672,-1.263672 1,1 0 0 0 -1.261719,-0.636719 z"
     id="path2" />
  <path
     style="color:#000000;fill:#ffffff;stroke-linecap:round;stroke-linejoin:round;-inkscape-stroke:none"
     d="m 24.816406,21.136719 c -0.495257,0.04869 -0.936721,0.180894 -1.320312,0.394531 -0.767182,0.427275 -1.204203,1.13955 -1.41211,1.787109 -0.415813,1.295119 -0.125,2.533203 -0.125,2.533203 a 1,1 0 0 0 1.173828,0.78711 1,1 0 0 0 0.78711,-1.175781 c 0,0 -0.134601,-0.901049 0.06836,-1.533204 0.101481,-0.316077 0.235634,-0.512944 0.482422,-0.65039 0.246789,-0.137447 0.70566,-0.253677 1.59375,-0.07422 a 1,1 0 0 0 1.177734,-0.783203 1,1 0 0 0 -0.78125,-1.177734 c -0.598528,-0.120946 -1.149273,-0.156116 -1.644531,-0.107422 z"
     id="path3" />
  <path
     style="color:#000000;fill:#ffffff;stroke-linecap:round;stroke-linejoin:round;-inkscape-stroke:none"
     d="M 4.0429687,1.5839844 C 3.371122,1.3897629 2.6443653,1.5375335 2.1015625,1.9785156 A 1.0001,1.0001 0 0 0 1.9375,2.1484375 C 1.5139113,2.705155 1.3876899,3.4380977 1.6035156,4.1035156 a 1.0001,1.0001 0 0 0 0.1328125,0.265625 c 0,0 7.2581714,10.3495804 12.6621099,16.3476564 2.709718,3.007639 4.622066,4.45209 5.999999,5.175781 0.688967,0.361846 1.249065,0.539784 1.667969,0.628906 0.418905,0.08912 0.791411,0.161226 0.550781,0.08008 -0.240526,-0.08116 -0.0535,-0.02093 0.08203,0.07422 0.135527,0.09515 0.327369,0.239105 0.544922,0.408203 0.435105,0.338196 0.983754,0.784644 1.517578,1.226563 0.939033,0.777367 1.624379,1.366393 1.826172,1.539062 0.07013,1.448146 0.59487,2.843083 1.658203,3.851563 a 1.0001,1.0001 0 0 0 0.07227,0.0625 c 0,0 0.473835,0.392979 0.734375,0.93164 0.260541,0.538662 0.425727,1.007166 -0.380859,1.892579 l 0.07031,0.02734 a 1.0001,1.0001 0 0 0 -0.330078,0.644532 v 0.002 a 1.0001,1.0001 0 0 0 1.642578,0.695312 l -0.06055,0.115235 c 0.06594,-0.04739 0.09191,-0.09144 0.15625,-0.138672 2.253233,-1.653972 3.570389,-3.214944 4.142578,-4.730469 0.588528,-1.558802 0.340609,-3.039107 -0.25,-4.148438 -1.079456,-2.027522 -2.956519,-2.958078 -3.302735,-3.123046 -0.07442,-0.08149 -0.866898,-0.946585 -1.751953,-1.949219 -0.462848,-0.524338 -0.930115,-1.064353 -1.285156,-1.492188 -0.17752,-0.213917 -0.327356,-0.399606 -0.427734,-0.533203 -0.100379,-0.133596 -0.16987,-0.322771 -0.08008,-0.08203 0.0887,0.237867 0.0047,-0.131 -0.09766,-0.546875 C 26.995325,20.91225 26.79946,20.356879 26.416016,19.679687 25.649126,18.325304 24.146397,16.459068 21.054687,13.845703 14.888916,8.6338894 4.3144531,1.7070312 4.3144531,1.7070312 A 1.0001,1.0001 0 0 0 4.0429687,1.5839844 Z M 3.7597656,3.75 c 0.8793102,0.5797858 10.3026254,6.803859 16.0039064,11.623047 2.976085,2.51563 4.31275,4.234455 4.912109,5.292969 0.29968,0.529257 0.418344,0.888151 0.480469,1.140625 0.06213,0.252474 -0.0063,0.305511 0.166016,0.767578 0.135416,0.363065 0.219856,0.406095 0.353515,0.583984 0.133659,0.17789 0.298813,0.38106 0.488281,0.609375 0.378937,0.45663 0.854056,1.006439 1.324219,1.539063 0.940326,1.065247 1.855469,2.064453 1.855469,2.064453 a 1.0001,1.0001 0 0 0 0.308594,0.228515 c 0,0 1.867198,0.967497 2.626953,2.394532 0.379877,0.713517 0.533427,1.466733 0.142578,2.501953 -0.220924,0.585149 -0.72925,1.291726 -1.449219,2.060547 -0.05787,-0.237124 -0.02397,-0.53371 -0.11914,-0.730469 C 30.354182,32.79381 29.548828,32.1875 29.548828,32.1875 l 0.07227,0.0625 C 28.833587,31.503118 28.41994,30.446485 28.488281,29.363281 a 1.0001,1.0001 0 0 0 -0.347656,-0.822265 c 0,0 -1.01869,-0.873425 -2.103516,-1.771485 -0.542412,-0.44903 -1.10154,-0.904296 -1.566406,-1.265625 -0.232433,-0.180664 -0.44,-0.337701 -0.621094,-0.464844 -0.181093,-0.127142 -0.229498,-0.209117 -0.59375,-0.332031 a 1.0001,1.0001 0 0 0 0,-0.002 c -0.467329,-0.157597 -0.517198,-0.08653 -0.771484,-0.140625 -0.254286,-0.0541 -0.617806,-0.160568 -1.15625,-0.443359 C 20.251236,23.555511 18.493142,22.272108 15.884766,19.376953 10.888014,13.830832 4.3674095,4.6110171 3.7597656,3.75 Z"
     id="path4" />
</svg>
