<?xml version="1.0" encoding="UTF-8"?>
<svg id="a" version="1.1" viewBox="0 0 48 48" xmlns="http://www.w3.org/2000/svg">
 <defs id="defs1">
  <style id="style1">.b{fill:none;stroke:#fff;stroke-width:2px;stroke-linecap:round;stroke-linejoin:round;}</style>
 </defs>
 <path id="path1" d="m10.5 3.5293c-1.645 0-3 1.355-3 3v35c0 1.645 1.355 3 3 3h27c1.645 0 3-1.355 3-3v-20a1.0001 1.0001 0 0 0 0-0.0039c-0.0033-0.79318-0.32097-1.5537-0.88281-2.1133l-14.998-14.998c-0.55972-0.56302-1.3212-0.88147-2.1152-0.88477a1.0001 1.0001 0 0 0-0.0039 0zm0 2h11.996c0.26514 0.0011 0.518 0.10674 0.70508 0.29492a1.0001 1.0001 0 0 0 2e-3 0.00195l15 15a1.0001 1.0001 0 0 0 2e-3 0.0039c0.18818 0.18708 0.29382 0.43799 0.29492 0.70312v19.996c0 0.56419-0.43581 1-1 1h-27c-0.56419 0-1-0.43581-1-1v-35c0-0.56419 0.43581-1 1-1z" fill="#fff" stroke-linecap="round" stroke-linejoin="round"/>
 <path id="path2" d="m30.295 3.5c-0.87152 0.012364-1.5885 0.75115-1.5762 1.623 0.0059 0.41054 0.169 0.80402 0.45703 1.0977a1.0001 1.0001 0 0 0 0.0078 0.00586l8.5898 8.5898a1.0001 1.0001 0 0 0 0.03906 0.03906c0.64899 0.58191 1.6777 0.52584 2.2598-0.12305 0.24704-0.27532 0.38997-0.62832 0.40625-0.99805a1.0001 1.0001 0 0 0 2e-3 -0.04492v-7.1895c0-1.645-1.355-3-3-3h-7.1699a1.0001 1.0001 0 0 0-0.01563 0zm0.99023 2h6.1953c0.56419 0 1 0.43581 1 1v6.1953z" fill="#fff" stroke-linecap="round" stroke-linejoin="round"/>
 <path id="ellipse2" d="m24 19.514c-2.7931 0-5.3252 0.45117-7.248 1.2363-0.96144 0.39258-1.7759 0.86577-2.3984 1.4668-0.62258 0.60103-1.0684 1.3851-1.0684 2.2637s0.44578 1.6626 1.0684 2.2637c0.62258 0.60103 1.437 1.0742 2.3984 1.4668 1.9229 0.78516 4.455 1.2363 7.248 1.2363s5.3252-0.45117 7.248-1.2363c0.96144-0.39258 1.7759-0.86577 2.3984-1.4668 0.62258-0.60103 1.0684-1.3851 1.0684-2.2637s-0.44578-1.6626-1.0684-2.2637c-0.62258-0.60103-1.437-1.0742-2.3984-1.4668-1.9229-0.78516-4.455-1.2363-7.248-1.2363zm0 2c2.5724 0 4.8989 0.43732 6.4922 1.0879 0.79663 0.32529 1.405 0.70653 1.7656 1.0547 0.36064 0.34816 0.45703 0.60739 0.45703 0.82422s-0.0964 0.47606-0.45703 0.82422c-0.36064 0.34816-0.96899 0.7294-1.7656 1.0547-1.5933 0.65057-3.9198 1.0879-6.4922 1.0879s-4.8989-0.43732-6.4922-1.0879c-0.79663-0.32529-1.405-0.70653-1.7656-1.0547-0.36064-0.34816-0.45703-0.60739-0.45703-0.82422s0.09639-0.47606 0.45703-0.82422c0.36064-0.34816 0.96899-0.7294 1.7656-1.0547 1.5933-0.65057 3.9198-1.0879 6.4922-1.0879z" fill="#fff" stroke-linecap="round" stroke-linejoin="round"/>
 <path id="path3" d="m14.285 26.826a1 1 0 0 0-1 1c0 0.8786 0.44579 1.6626 1.0684 2.2637 0.62257 0.60104 1.437 1.0762 2.3984 1.4688 1.9229 0.78516 4.455 1.2344 7.248 1.2344 2.7931 0 5.3252-0.4492 7.248-1.2344 0.96143-0.39258 1.7759-0.86772 2.3984-1.4688 0.62257-0.60103 1.0684-1.3851 1.0684-2.2637a1 1 0 0 0-1-1 1 1 0 0 0-1 1c0 0.21681-0.0964 0.47802-0.45703 0.82617-0.36063 0.34816-0.969 0.7294-1.7656 1.0547-1.5933 0.65058-3.9198 1.0859-6.4922 1.0859-2.5724 0-4.8989-0.43537-6.4922-1.0859-0.79663-0.32528-1.405-0.70653-1.7656-1.0547-0.36063-0.34816-0.45703-0.60932-0.45703-0.82617a1 1 0 0 0-1-1z" fill="#fff" stroke-linecap="round" stroke-linejoin="round"/>
 <path id="path4" d="m14.285 30.174a1 1 0 0 0-1 1c0 0.8786 0.44579 1.6626 1.0684 2.2637 0.62257 0.60104 1.437 1.0742 2.3984 1.4668 1.9229 0.78516 4.455 1.2363 7.248 1.2363 2.7931 0 5.3252-0.45116 7.248-1.2363 0.96143-0.39258 1.7759-0.86577 2.3984-1.4668 0.62257-0.60103 1.0684-1.3851 1.0684-2.2637a1 1 0 0 0-1-1 1 1 0 0 0-1 1c0 0.21681-0.0964 0.47606-0.45703 0.82422-0.36063 0.34816-0.969 0.7294-1.7656 1.0547-1.5933 0.65058-3.9198 1.0879-6.4922 1.0879-2.5724 0-4.8989-0.43732-6.4922-1.0879-0.79663-0.32528-1.405-0.70653-1.7656-1.0547-0.36063-0.34816-0.45703-0.60737-0.45703-0.82422a1 1 0 0 0-1-1z" fill="#fff" stroke-linecap="round" stroke-linejoin="round"/>
 <path id="path5" d="m14.285 23.494a1.0001 1.0001 0 0 0-1 0.98633v10.039c0 0.8786 0.44579 1.6626 1.0684 2.2637 0.62257 0.60104 1.437 1.0742 2.3984 1.4668 1.9229 0.78516 4.455 1.2363 7.248 1.2363 2.7931 0 5.3252-0.45116 7.248-1.2363 0.96143-0.39258 1.7759-0.86577 2.3984-1.4668 0.62257-0.60103 1.0684-1.3851 1.0684-2.2637v-10.039h-2c0 0.21685-0.0964 0.47606-0.45703 0.82422-0.36063 0.34816-0.969 0.7294-1.7656 1.0547-1.5933 0.65057-3.9198 1.0879-6.4922 1.0879-2.5724 0-4.8989-0.43731-6.4922-1.0879-0.79663-0.32529-1.405-0.70653-1.7656-1.0547-0.36063-0.34815-0.45703-0.60741-0.45703-0.82422a1.0001 1.0001 0 0 0-1-0.98633zm1 3.8203c0.46772 0.31126 0.87892 0.65643 1.4668 0.89648 1.9229 0.78517 4.455 1.2363 7.248 1.2363 2.7931 0 5.3252-0.45117 7.248-1.2363 0.58788-0.24005 0.99907-0.58522 1.4668-0.89648v7.2051c0 0.21681-0.0964 0.47606-0.45703 0.82422-0.36063 0.34816-0.969 0.7294-1.7656 1.0547-1.5933 0.65058-3.9198 1.0879-6.4922 1.0879-2.5724 0-4.8989-0.43732-6.4922-1.0879-0.79663-0.32528-1.405-0.70653-1.7656-1.0547-0.36063-0.34816-0.45703-0.60737-0.45703-0.82422z" fill="#fff" stroke-linecap="round" stroke-linejoin="round"/>
</svg>
