<?xml version="1.0" encoding="UTF-8"?>
<svg id="a" version="1.1" viewBox="0 0 48 48" xmlns="http://www.w3.org/2000/svg">
 <defs id="defs1">
  <style id="style1">.b{fill:none;stroke:#fff;stroke-width:2px;stroke-linecap:round;stroke-linejoin:round;}</style>
 </defs>
 <path id="path1" d="m10.5 3.5293c-1.645 0-3 1.355-3 3v35c0 1.645 1.355 3 3 3h27c1.645 0 3-1.355 3-3v-20a1.0001 1.0001 0 0 0 0-0.0039c-0.0033-0.79318-0.32097-1.5537-0.88281-2.1133l-14.998-14.998c-0.55972-0.56302-1.3212-0.88147-2.1152-0.88477a1.0001 1.0001 0 0 0-0.0039 0zm0 2h11.996c0.26514 0.0011 0.518 0.10674 0.70508 0.29492a1.0001 1.0001 0 0 0 2e-3 0.00195l15 15a1.0001 1.0001 0 0 0 2e-3 0.0039c0.18818 0.18708 0.29382 0.43799 0.29492 0.70312v19.996c0 0.56419-0.43581 1-1 1h-27c-0.56419 0-1-0.43581-1-1v-35c0-0.56419 0.43581-1 1-1z" fill="#fff" stroke-linecap="round" stroke-linejoin="round"/>
 <path id="path2" d="m30.295 3.5c-0.87152 0.012364-1.5885 0.75115-1.5762 1.623 0.0059 0.41054 0.169 0.80402 0.45703 1.0977a1.0001 1.0001 0 0 0 0.0078 0.00586l8.5898 8.5898a1.0001 1.0001 0 0 0 0.03906 0.03906c0.64899 0.58191 1.6777 0.52584 2.2598-0.12305 0.24704-0.27532 0.38997-0.62832 0.40625-0.99805a1.0001 1.0001 0 0 0 2e-3 -0.04492v-7.1895c0-1.645-1.355-3-3-3h-7.1699a1.0001 1.0001 0 0 0-0.01563 0zm0.99023 2h6.1953c0.56419 0 1 0.43581 1 1v6.1953z" fill="#fff" stroke-linecap="round" stroke-linejoin="round"/>
 <path id="path3" d="m18.646 21c-3.3018 0-6 2.6982-6 6s2.6982 6 6 6c3.3019 0 6-2.6982 6-6a1.0001 1.0001 0 0 0-1-1h-4v-4a1.0001 1.0001 0 0 0-1-1zm-1 2.1992v3.8008a1.0001 1.0001 0 0 0 1 1h3.8008c-0.4494 1.7181-1.9351 3-3.8008 3-2.2209 0-4-1.779-4-4 0-1.8657 1.2819-3.3514 3-3.8008z" fill="#fff" stroke-linecap="round" stroke-linejoin="round"/>
 <path id="line3" d="m26.859 21a1 1 0 0 0-1 1 1 1 0 0 0 1 1h7.4941a1 1 0 0 0 1-1 1 1 0 0 0-1-1z" fill="#fff" stroke-linecap="round" stroke-linejoin="round"/>
 <path id="line4" d="m26.859 26a1 1 0 0 0-1 1 1 1 0 0 0 1 1h7.4941a1 1 0 0 0 1-1 1 1 0 0 0-1-1z" fill="#fff" stroke-linecap="round" stroke-linejoin="round"/>
 <path id="line5" d="m26.859 31a1 1 0 0 0-1 1 1 1 0 0 0 1 1h7.4941a1 1 0 0 0 1-1 1 1 0 0 0-1-1z" fill="#fff" stroke-linecap="round" stroke-linejoin="round"/>
 <path id="line6" d="m13.646 36a1 1 0 0 0-1 1 1 1 0 0 0 1 1h20.707a1 1 0 0 0 1-1 1 1 0 0 0-1-1z" fill="#fff" stroke-linecap="round" stroke-linejoin="round"/>
</svg>
