<?xml version="1.0" encoding="UTF-8"?>
<svg id="b" version="1.1" viewBox="0 0 48 48" xmlns="http://www.w3.org/2000/svg">
 <defs id="defs1">
  <style id="style1">.c{fill:none;stroke:#fff;stroke-width:2px;stroke-linecap:round;stroke-linejoin:round;}</style>
 </defs>
 <path id="circle1" d="m24 11.4c-6.9469 0-12.6 5.6527-12.6 12.6s5.6527 12.6 12.6 12.6 12.6-5.6527 12.6-12.6-5.6527-12.6-12.6-12.6zm0 2c5.8661 0 10.6 4.7335 10.6 10.6s-4.7335 10.6-10.6 10.6-10.6-4.7335-10.6-10.6 4.7335-10.6 10.6-10.6z" fill="#fff" stop-color="#000000" stroke-linecap="round" stroke-linejoin="round"/>
 <path id="path1" d="m3.3008 17.1a1 1 0 0 0-0.43555 0.43555 1 1 0 0 0-0.5332 0.31055c-0.5189 1.9718-0.83203 4.0543-0.83203 6.1543s0.31242 4.1837 0.83594 6.0684a1.0001 1.0001 0 0 0 0.96484 0.73242c0.40833 0 0.53978-0.07775 0.83789-0.19531 0.29811-0.11756 0.64372-0.29504 0.99219-0.56055 0.68888-0.52486 1.3777-1.4687 1.457-2.7559 0.07282-0.49432 0.061016-1.0254 0.048828-1.6348-0.012756-0.63779-0.037109-1.296-0.037109-1.6543a1.0001 1.0001 0 0 0-0.0058594-0.11133c-0.034737-0.31263-0.019064-0.92212 0.00586-1.5078 0.024361-0.57248 0.069411-1.0726-0.013672-1.6074-0.13443-1.3028-0.78651-2.2565-1.4492-2.8223-0.33442-0.28548-0.66781-0.48239-0.96094-0.61719-0.18442-0.084807-0.37507-0.1058-0.55078-0.14648a1 1 0 0 0-0.070312-0.05469 1 1 0 0 0-0.041016 0.02344c-0.079448-0.01079-0.10008-0.05664-0.21289-0.05664zm0.75586 2.8066c0.2324 0.28432 0.49581 0.5312 0.54883 1.0879a1.0001 1.0001 0 0 0 0.00781 0.07031c0.00853 0.05118 0.013358 0.64116-0.011719 1.2305s-0.061357 1.229 0.00391 1.8164l-0.0058603-0.11133c0 0.44167 0.026818 1.0831 0.039063 1.6953 0.012244 0.61221-0.010936 1.2531-0.025391 1.3398a1.0001 1.0001 0 0 0-0.011719 0.11524c-0.02668 0.53359-0.28251 0.7641-0.52734 1.0098-0.28304-1.3548-0.57422-2.7316-0.57422-4.1602 0-1.378 0.29045-2.7382 0.55664-4.0938z" fill="#fff" stop-color="#000000" stroke-linecap="round" stroke-linejoin="round"/>
 <path id="path2" d="m44.699 17.199c-0.08552 0-0.11166 0.03615-0.17774 0.04297a1 1 0 0 0-0.07617-0.0098 1 1 0 0 0-0.01953 0.03516c-0.18998 0.03305-0.37337 0.05559-0.57422 0.14062-0.29661 0.12557-0.63566 0.31496-0.97656 0.59766-0.67571 0.56034-1.3287 1.5308-1.4609 2.873-0.0818 0.53258-0.03794 1.0312-0.01367 1.6016 0.02492 0.58569 0.0406 1.1971 0.0059 1.5098a1.0001 1.0001 0 0 0-0.0059 0.10938c0 0.35833-0.02435 1.0185-0.03711 1.6562-0.01219 0.60937-0.02398 1.1385 0.04883 1.6328 0.07932 1.2872 0.76816 2.231 1.457 2.7559 0.34847 0.2655 0.69408 0.44298 0.99219 0.56055s0.42956 0.19531 0.83789 0.19531a1.0001 1.0001 0 0 0 0.96484-0.73242c0.52351-1.8846 0.83593-3.9683 0.83593-6.0683 0-2.1952-0.31533-4.1908-0.83203-6.1543a1 1 0 0 0-0.16211-0.21289 1 1 0 0 0-0.22266-0.29102 1 1 0 0 0-0.33984-0.14062 1 1 0 0 0-0.24414-0.10156zm-0.75977 2.7773c0.26998 1.3411 0.56055 2.6587 0.56055 4.123 0 1.4285-0.29118 2.8053-0.57422 4.1602-0.24483-0.24567-0.50066-0.47617-0.52734-1.0098a1.0001 1.0001 0 0 0-0.01172-0.11523c-0.01445-0.08673-0.03764-0.72764-0.02539-1.3398 0.01224-0.61221 0.03906-1.2536 0.03906-1.6953l-0.0059 0.11133c0.06526-0.58737 0.02898-1.2271 0.0039-1.8164s-0.02025-1.1793-0.01172-1.2305a1.0001 1.0001 0 0 0 0.0098-0.07422c0.05494-0.60437 0.31294-0.83705 0.54297-1.1133z" fill="#fff" stop-color="#000000" stroke-linecap="round" stroke-linejoin="round"/>
 <path id="path3" d="m24 1.5c-2.1 0-4.1837 0.31242-6.0684 0.83594a1.0001 1.0001 0 0 0-0.73242 0.96484c0 0.40833 0.07775 0.53978 0.19531 0.83789 0.11756 0.29811 0.29504 0.64372 0.56055 0.99219 0.52486 0.68888 1.4687 1.3777 2.7559 1.457 0.49432 0.07282 1.0254 0.061016 1.6348 0.048828 0.63779-0.012756 1.296-0.037109 1.6543-0.037109a1.0001 1.0001 0 0 0 0.11133-0.00586c0.31263-0.034737 0.92212-0.019064 1.5078 0.00586 0.57178 0.024331 1.0714 0.068983 1.6055-0.013672 1.3051-0.13429 2.2483-0.79648 2.791-1.4707 0.2737-0.34006 0.45961-0.67842 0.58203-0.97266 0.07614-0.18301 0.09242-0.35827 0.12695-0.52344a1 1 0 0 0 0.03906-0.050781 1 1 0 0 0-0.0098-0.076172c0.0079-0.070061 0.04687-0.098484 0.04687-0.19141a1 1 0 0 0-0.080036-0.080078 1 1 0 0 0-0.65234-0.88477c-1.8847-0.52352-3.9684-0.83594-6.0684-0.83594zm0 2c1.397 0 2.7399 0.289 4.0684 0.56055-0.26417 0.23228-0.49414 0.49079-1.0625 0.54492a1.0001 1.0001 0 0 0-0.07031 0.00781c-0.05118 0.00853-0.64116 0.013358-1.2305-0.011719s-1.229-0.061357-1.8164 0.00391l0.11133-0.0058603c-0.44167 0-1.0831 0.026818-1.6953 0.039063-0.61221 0.012244-1.2531-0.010936-1.3398-0.025391a1.0001 1.0001 0 0 0-0.11524-0.011719c-0.53359-0.02668-0.7641-0.28251-1.0098-0.52734 1.3548-0.28304 2.7316-0.57422 4.1602-0.57422z" fill="#fff" stop-color="#000000" stroke-linecap="round" stroke-linejoin="round"/>
 <path id="path4" d="m22.244 41.363c-0.60937-0.01219-1.1385-0.02398-1.6328 0.04883-1.2872 0.07932-2.231 0.76816-2.7559 1.457-0.2655 0.34847-0.44298 0.69408-0.56055 0.99219s-0.19531 0.42956-0.19531 0.83789a1.0001 1.0001 0 0 0 0.73242 0.96484c1.8847 0.52352 3.9684 0.83594 6.0684 0.83594 2.1952 0 4.1908-0.31533 6.1543-0.83203a1 1 0 0 0 0.66797-0.89062 1 1 0 0 0 0.07813-0.07813c0-0.08552-0.03615-0.11166-0.04297-0.17774a1 1 0 0 0 0.0098-0.07617 1 1 0 0 0-0.03516-0.01953c-0.03305-0.18998-0.05559-0.37337-0.14062-0.57422-0.12557-0.29661-0.31496-0.63566-0.59766-0.97656-0.56034-0.67571-1.5308-1.3287-2.873-1.4609-0.53258-0.0818-1.0312-0.03794-1.6016-0.01367-0.58569 0.02492-1.1971 0.0406-1.5098 0.0059a1.0001 1.0001 0 0 0-0.10938-0.0059c-0.35833 0-1.0185-0.02435-1.6562-0.03711zm-0.03906 1.998c0.61221 0.01224 1.2536 0.03906 1.6953 0.03906l-0.11133-0.0059c0.58737 0.06526 1.2271 0.02898 1.8164 0.0039s1.1793-0.02025 1.2305-0.01172a1.0001 1.0001 0 0 0 0.07422 0.0098c0.60437 0.05494 0.83705 0.31294 1.1133 0.54297-1.3411 0.27-2.6587 0.56056-4.123 0.56056-1.4285 0-2.8053-0.29118-4.1602-0.57422 0.24567-0.24483 0.47617-0.50066 1.0098-0.52734a1.0001 1.0001 0 0 0 0.11523-0.01172c0.08673-0.01445 0.72764-0.03764 1.3398-0.02539z" fill="#fff" stop-color="#000000" stroke-linecap="round" stroke-linejoin="round"/>
 <path id="path5" d="m13.695 4.2188a1 1 0 0 0-0.59766 0.11914 1 1 0 0 0-0.06641-0.021484c-0.02632 0.013932-0.0499 0.03476-0.07617 0.048828a1 1 0 0 0-0.0098 0.00195 1 1 0 0 0 0 0.00391c-1.7527 0.93997-3.4039 2.1774-4.8515 3.7227l-0.00195 0.00195c-1.4665 1.4669-2.7256 3.1408-3.6758 4.9356a1.0001 1.0001 0 0 0 0.17773 1.1758c0.31516 0.31516 0.44632 0.32819 0.74023 0.45117 0.29392 0.12299 0.66396 0.23764 1.0977 0.29492 0.86308 0.11399 2.025-0.04534 3.0078-0.88867 0.65412-0.52635 1.7629-1.6476 2.4199-2.4141l-0.05273 0.05664c0.55951-0.55951 1.7057-1.5744 2.2695-2.2773l2e-3 -0.00391c0.82785-1.0213 0.98942-2.1786 0.875-3.0449-0.1069-0.80899-0.38169-1.3059-0.58013-1.6191a1 1 0 0 0 0.0098-0.029297 1 1 0 0 0-0.02149-0.00586c-0.0099-0.015348-0.01987-0.067892-0.0293-0.082031a1 1 0 0 0-0.63674-0.42578zm-0.80274 2.6895c0.01326 0.38882 0.01866 0.78443-0.36914 1.2617a1.0001 1.0001 0 0 0-0.0039 0.00586c-0.23748 0.29685-1.4877 1.4779-2.127 2.1172a1.0001 1.0001 0 0 0-0.05273 0.05664c-0.53875 0.62854-1.8164 1.8918-2.1641 2.1699a1.0001 1.0001 0 0 0-0.03125 0.02539c-0.4082 0.35378-0.78128 0.34231-1.1523 0.33789 0.74567-1.1793 1.5073-2.3667 2.5156-3.375a1.0001 1.0001 0 0 0 0.023438-0.025391c1.0015-1.0731 2.1848-1.8268 3.3613-2.5742z" fill="#fff" stop-color="#000000" stroke-linecap="round" stroke-linejoin="round"/>
 <path id="path6" d="m41.574 33.082c-0.85622-0.09693-1.9869 0.04984-3.0508 0.80078a1.0001 1.0001 0 0 0-0.04883 0.03711c-0.70315 0.56252-1.7205 1.7127-2.2812 2.2734l0.056643-0.052734c-0.76527 0.65594-1.8847 1.7615-2.4121 2.416-0.8461 0.9836-1.0067 2.1476-0.89258 3.0117 0.05728 0.4337 0.17389 0.80374 0.29688 1.0977 0.12299 0.29392 0.13601 0.42507 0.45117 0.74023a1.0001 1.0001 0 0 0 1.1738 0.17773c1.7947-0.95016 3.4706-2.2093 4.9375-3.6758 1.5723-1.4725 2.8335-3.1529 3.7793-4.9395a1 1 0 0 0-0.0332-0.10938 1 1 0 0 0-0.14453-1.0664c-0.09483-0.09483-0.15239-0.08338-0.22461-0.13477a1 1 0 0 0-0.01367-0.04102 1 1 0 0 0-0.03711 0.01172c-0.14608-0.09375-0.28855-0.20868-0.47266-0.28125-0.2914-0.11486-0.65587-0.21716-1.084-0.26562zm-0.63672 2.0977c-0.73827 1.1485-1.4694 2.309-2.5195 3.2891a1.0001 1.0001 0 0 0-0.02539 0.02344c-1.0083 1.0083-2.1957 1.77-3.375 2.5156-0.0044-0.37106-0.01589-0.74414 0.33789-1.1523a1.0001 1.0001 0 0 0 0.02539-0.03125c0.27811-0.34764 1.5414-1.6253 2.1699-2.1641a1.0001 1.0001 0 0 0 0.05664-0.05273c0.62928-0.62928 1.7649-1.8292 2.084-2.0938 0.47262-0.32881 0.86205-0.32168 1.2461-0.33398z" fill="#fff" stop-color="#000000" stroke-linecap="round" stroke-linejoin="round"/>
 <path id="path7" d="m34.305 4.2188a1 1 0 0 0-0.044921 0.03125 1 1 0 0 0-0.30859 0.20508 1 1 0 0 0-0.2832 0.18945c-0.0074 0.011133-0.01573 0.052572-0.02344 0.064453a1 1 0 0 0-0.02734 0.023437 1 1 0 0 0 0.0098 0.029297c-0.19844 0.31324-0.47323 0.81015-0.58008 1.6191-0.11434 0.86568 0.0468 2.0223 0.87305 3.043 4.82e-4 6.028e-4 0.0015 0.00135 2e-3 0.00195 1e-3 0.00126 9.28e-4 0.00264 2e-3 0.00391 0.56383 0.70299 1.71 1.7178 2.2695 2.2773l-0.05273-0.05664c0.657 0.7665 1.7658 1.8877 2.4199 2.4141 0.98282 0.84333 2.1447 1.0027 3.0078 0.88867 0.4337-0.05728 0.80374-0.17194 1.0977-0.29492 0.29392-0.12299 0.42507-0.13601 0.74023-0.45117a1.0001 1.0001 0 0 0 0.1776-1.1758c-0.95016-1.7947-2.2093-3.4687-3.6758-4.9355-1.4481-1.5462-3.1-2.7842-4.8535-3.7246a1 1 0 0 0 0-0.00391 1 1 0 0 0-0.0098-0.00195c-0.02627-0.014069-0.04986-0.034896-0.07617-0.048828a1 1 0 0 0-0.32614-0.03125 1 1 0 0 0-0.33789-0.066406zm0.80274 2.6895c1.1765 0.74746 2.3598 1.5011 3.3613 2.5742a1.0001 1.0001 0 0 0 0.02344 0.025391c1.0083 1.0083 1.77 2.1957 2.5156 3.375-0.37106 0.0044-0.74414 0.01589-1.1523-0.33789a1.0001 1.0001 0 0 0-0.03125-0.02539c-0.34764-0.27811-1.6253-1.5414-2.1641-2.1699a1.0001 1.0001 0 0 0-0.05273-0.05664c-0.63929-0.63928-1.8895-1.8203-2.127-2.1172a1.0001 1.0001 0 0 0-0.0039-0.00586c-0.38781-0.47729-0.38241-0.8729-0.36915-1.2617z" fill="#fff" stop-color="#000000" stroke-linecap="round" stroke-linejoin="round"/>
 <path id="path8" d="m6.4062 33.047c-0.43531 0.05749-0.80285 0.17355-1.0938 0.29883-0.18269 0.07868-0.31323 0.18894-0.45117 0.28125a1 1 0 0 0-0.029297-0.0098 1 1 0 0 0-0.046875 0.05664c-0.061313 0.0471-0.11532 0.04305-0.19141 0.11914a1 1 0 0 0-0.091797 0.22266 1 1 0 0 0-0.14258 0.3457 1 1 0 0 0 0.033203 0.35938 1 1 0 0 0 0.023437 0.24805c0.94543 1.7858 2.206 3.4654 3.7773 4.9375 6.512e-4 6.51e-4 0.0013 0.0013 0.00195 2e-3 1.4669 1.4665 3.1428 2.7256 4.9375 3.6758a1.0001 1.0001 0 0 0 1.1738-0.17773c0.31516-0.31516 0.32818-0.44632 0.45117-0.74023 0.12299-0.29392 0.23959-0.66396 0.29688-1.0977 0.11413-0.86416-0.04648-2.0281-0.89258-3.0117-0.52743-0.65454-1.6468-1.7601-2.4121-2.416l0.05664 0.05273c-0.56072-0.56071-1.5781-1.7109-2.2812-2.2734a1.0001 1.0001 0 0 0-0.017578-0.013672c-1.0662-0.81535-2.2309-0.97436-3.1016-0.85938zm0.62109 2.0859c0.38078 0.0011 0.76909-0.01376 1.2598 0.35938 0.30488 0.24723 1.4697 1.4795 2.1055 2.1152a1.0001 1.0001 0 0 0 0.05664 0.05273c0.62854 0.53875 1.8918 1.8164 2.1699 2.1641a1.0001 1.0001 0 0 0 0.02539 0.03125c0.35378 0.4082 0.34231 0.78128 0.33789 1.1523-1.1793-0.74567-2.3667-1.5073-3.375-2.5156a1.0001 1.0001 0 0 0-0.02539-0.023433c-1.065-0.99396-1.8104-2.1693-2.5547-3.3359z" fill="#fff" stop-color="#000000" stroke-linecap="round" stroke-linejoin="round"/>
</svg>
