<?xml version="1.0" encoding="UTF-8" standalone="no"?>
<svg
   viewBox="0 0 48 48"
   version="1.1"
   id="svg2"
   sodipodi:docname="microsoft-edge.svg"
   xmlns:inkscape="http://www.inkscape.org/namespaces/inkscape"
   xmlns:sodipodi="http://sodipodi.sourceforge.net/DTD/sodipodi-0.dtd"
   xmlns="http://www.w3.org/2000/svg"
   xmlns:svg="http://www.w3.org/2000/svg">
  <sodipodi:namedview
     id="namedview2"
     pagecolor="#ffffff"
     bordercolor="#666666"
     borderopacity="1.0"
     inkscape:showpageshadow="2"
     inkscape:pageopacity="0.0"
     inkscape:pagecheckerboard="0"
     inkscape:deskcolor="#d1d1d1" />
  <defs
     id="defs1">
    <style
       id="style1">.a{fill:none;stroke:#fff;stroke-width:2px;stroke-linecap:round;stroke-linejoin:round;}</style>
  </defs>
  <path
     style="color:#000000;fill:#ffffff;stroke-linecap:round;stroke-linejoin:round;-inkscape-stroke:none"
     d="m 24,17.599609 c -2.497498,0 -5.137633,1.694205 -7.269531,4.257813 C 14.59857,24.42103 13,27.945172 13,31.869141 c 0,3.228786 1.450578,6.750483 3.871094,9.544921 2.420515,2.794439 5.875135,4.872344 9.898437,4.916016 a 1,1 0 0 0 1.009766,-0.988281 1,1 0 0 0 -0.988281,-1.011719 C 23.444325,44.29375 20.509792,42.561025 18.382812,40.105469 16.255833,37.649912 15,34.480348 15,31.869141 c 0,-3.376024 1.401434,-6.486035 3.269531,-8.732422 1.868098,-2.246388 4.227971,-3.53711 5.730469,-3.53711 1.872001,0 2.879235,0.931596 3.5625,1.951172 0.683265,1.019576 0.898437,2.039063 0.898437,2.039063 a 1,1 0 0 0 1.179688,0.779297 1,1 0 0 0 0.779297,-1.179688 c 0,0 -0.275532,-1.376531 -1.197266,-2.751953 C 28.300923,19.062078 26.587994,17.599609 24,17.599609 Z"
     id="path1" />
  <path
     style="color:#000000;fill:#ffffff;stroke-linecap:round;stroke-linejoin:round;-inkscape-stroke:none"
     d="M 24.962891,1.421875 C 18.705119,1.1334464 12.231612,3.4218009 7.3339844,8.828125 3.5848648,12.96665 1.9312055,17.833567 1.6796875,22.673828 1.6224805,23.117611 1.5,23.532964 1.5,24 a 1,1 0 0 0 0.1894531,0.455078 c 0.083672,2.980837 0.5435927,5.926387 1.7363282,8.623047 C 6.7847339,40.672392 14.27074,46.482578 23.998047,46.5 a 1.0001,1.0001 0 0 0 0.002,0 c 8.380951,0 15.325501,-4.812669 19.554687,-11.289063 v -0.002 c 0.562684,-0.85451 0.369667,-2.042103 -0.367187,-2.603515 -0.737341,-0.561784 -1.887003,-0.477021 -2.685547,0.222656 l 0.07813,-0.0625 c -2.129397,1.513391 -4.627109,2.417418 -7.230469,2.628906 -1.8899,-0.0073 -5.456754,-0.686574 -8.402343,-2.414062 -2.961495,-1.736817 -5.296875,-4.372436 -5.296875,-8.580078 0,-1.712523 0.474481,-2.690936 0.902343,-3.267579 0.427863,-0.576642 0.730469,-0.701171 0.730469,-0.701171 A 1,1 0 0 0 21.75,19.095703 1,1 0 0 0 20.416016,18.628906 c 0,0 -0.796614,0.404691 -1.46875,1.310547 -0.672137,0.905856 -1.296875,2.363464 -1.296875,4.460938 0,4.972348 2.929157,8.336507 6.285156,10.304687 3.355999,1.96818 7.126802,2.695313 9.455078,2.695313 a 1.0001,1.0001 0 0 0 0.07813,-0.0039 c 2.921479,-0.229578 5.71878,-1.251883 8.123047,-2.923828 C 37.645005,40.293018 31.454373,44.499251 24.001953,44.5 15.064679,44.483993 8.3234672,39.209512 5.2539062,32.269531 3.961032,29.346467 3.5014967,26.131411 3.6464844,22.904297 c 0.3489271,-2.740991 1.8832899,-4.928811 4.1074218,-6.513672 2.5215648,-1.796804 5.8263288,-2.771484 8.6152348,-2.771484 2.750762,0 5.853828,1.121397 8.203125,2.998046 C 26.921562,18.493837 28.5,21.058589 28.5,24 c 0,1.399999 -0.289825,1.697745 -0.703125,2.15625 -0.20665,0.229252 -0.491712,0.486919 -0.757813,0.900391 -0.2661,0.413471 -0.458984,0.986146 -0.458984,1.632812 0,0.70807 0.375551,1.329434 0.847656,1.759766 0.472106,0.430332 1.055311,0.736806 1.720703,0.986328 1.330786,0.499045 3.010819,0.753906 4.791016,0.753906 2.886664,0 6.053097,-0.697146 8.539063,-2.361328 2.485966,-1.664182 4.24688,-4.427743 3.988281,-8.097656 a 1.0001,1.0001 0 0 0 -0.002,-0.03125 C 45.489386,12.020929 38.97022,5.1434267 31.082031,2.5488281 29.109984,1.9001785 27.048815,1.5180179 24.962891,1.421875 Z m -0.08398,1.9902344 c 1.897963,0.09215 3.775981,0.4443444 5.578125,1.0371093 7.205213,2.3699527 13.115128,8.5538923 14.015625,17.4394533 0.204601,2.989146 -1.075232,4.916933 -3.107422,6.277344 -2.036529,1.363315 -4.87245,2.023437 -7.425781,2.023437 -1.5798,0 -3.078679,-0.248499 -4.087891,-0.626953 -0.504605,-0.189227 -0.880777,-0.413692 -1.076171,-0.591797 -0.195394,-0.178105 -0.195313,-0.24432 -0.195313,-0.28125 0,-0.313333 0.04673,-0.404878 0.140625,-0.550781 0.0939,-0.145903 0.289151,-0.341284 0.5625,-0.644531 C 29.829902,26.887647 30.5,25.799998 30.5,24 c 0,-3.658582 -1.971489,-6.783919 -4.679688,-8.947266 -2.708198,-2.163346 -6.17194,-3.433593 -9.451171,-3.433593 -3.241089,0 -6.8694614,1.071885 -9.775391,3.142578 -0.5291764,0.377078 -0.9999992,0.82929 -1.4726563,1.277343 0.873371,-2.048776 2.0369776,-4.038561 3.6953126,-5.86914 C 13.316216,5.2027356 19.185017,3.1356605 24.878906,3.4121094 Z"
     id="path2" />
</svg>
