<?xml version="1.0" encoding="UTF-8"?>
<svg id="svg2" version="1.1" viewBox="0 0 48 48" xmlns="http://www.w3.org/2000/svg">
 <defs id="defs1">
  <style id="style1">.a{fill:none;stroke:#fff;stroke-width:2px;stroke-linecap:round;stroke-linejoin:round;}</style>
 </defs>
 <path id="path1" d="m24 17.6c-2.4975 0-5.1376 1.6942-7.2695 4.2578-2.1319 2.5636-3.7305 6.0877-3.7305 10.012 0 3.2288 1.4506 6.7505 3.8711 9.5449 2.4205 2.7944 5.8751 4.8723 9.8984 4.916a1 1 0 0 0 1.0098-0.98828 1 1 0 0 0-0.98828-1.0117c-3.3467-0.036328-6.2812-1.769-8.4082-4.2246-2.127-2.4556-3.3828-5.6251-3.3828-8.2363 0-3.376 1.4014-6.486 3.2695-8.7324 1.8681-2.2464 4.228-3.5371 5.7305-3.5371 1.872 0 2.8792 0.9316 3.5625 1.9512s0.89844 2.0391 0.89844 2.0391a1 1 0 0 0 1.1797 0.7793 1 1 0 0 0 0.7793-1.1797s-0.27553-1.3765-1.1973-2.752c-0.92173-1.3754-2.6347-2.8379-5.2227-2.8379z" fill="#fff" stroke-linecap="round" stroke-linejoin="round"/>
 <path id="path2" d="m24.963 1.4219c-6.2578-0.28843-12.731 1.9999-17.629 7.4062-3.7491 4.1385-5.4028 9.0054-5.6543 13.846-0.057207 0.44378-0.17969 0.85914-0.17969 1.3262a1 1 0 0 0 0.18945 0.45508c0.083672 2.9808 0.54359 5.9264 1.7363 8.623 3.359 7.5943 10.845 13.404 20.572 13.422a1.0001 1.0001 0 0 0 2e-3 0c8.381 0 15.325-4.8127 19.555-11.289v-2e-3c0.56268-0.85451 0.36967-2.0421-0.36719-2.6035-0.73734-0.56178-1.887-0.47702-2.6855 0.22266l0.07813-0.0625c-2.1294 1.5134-4.6271 2.4174-7.2305 2.6289-1.8899-0.0073-5.4568-0.68657-8.4023-2.4141-2.9615-1.7368-5.2969-4.3724-5.2969-8.5801 0-1.7125 0.47448-2.6909 0.90234-3.2676 0.42786-0.57664 0.73047-0.70117 0.73047-0.70117a1 1 0 0 0 0.46674-1.3359 1 1 0 0 0-1.334-0.4668s-0.79661 0.40469-1.4688 1.3105c-0.67214 0.90586-1.2969 2.3635-1.2969 4.4609 0 4.9724 2.9292 8.3365 6.2852 10.305s7.1268 2.6953 9.4551 2.6953a1.0001 1.0001 0 0 0 0.07813-0.0039c2.9215-0.22958 5.7188-1.2519 8.123-2.9238-3.9468 5.8204-10.137 10.027-17.59 10.027-8.9373-0.016007-15.678-5.2905-18.748-12.23-1.2929-2.9231-1.7524-6.1381-1.6074-9.3652 0.34893-2.741 1.8833-4.9288 4.1074-6.5137 2.5216-1.7968 5.8263-2.7715 8.6152-2.7715 2.7508 0 5.8538 1.1214 8.2031 2.998 2.3493 1.8767 3.9277 4.4414 3.9277 7.3828 0 1.4-0.28982 1.6977-0.70312 2.1562-0.20665 0.22925-0.49171 0.48692-0.75781 0.90039-0.2661 0.41347-0.45898 0.98614-0.45898 1.6328 0 0.70807 0.37555 1.3294 0.84766 1.7598 0.47211 0.43033 1.0553 0.7368 1.7207 0.98633 1.3308 0.49904 3.0108 0.75391 4.791 0.75391 2.8867 0 6.0531-0.69714 8.5391-2.3613 2.486-1.6642 4.2469-4.4277 3.9883-8.0977a1.0001 1.0001 0 0 0-2e-3 -0.03125c-0.97541-9.6783-7.4946-16.556-15.383-19.15-1.972-0.64865-4.0332-1.0308-6.1191-1.127zm-0.08398 1.9902c1.898 0.09215 3.776 0.44434 5.5781 1.0371 7.2052 2.37 13.115 8.5539 14.016 17.439 0.2046 2.9891-1.0752 4.9169-3.1074 6.2773-2.0365 1.3633-4.8724 2.0234-7.4258 2.0234-1.5798 0-3.0787-0.2485-4.0879-0.62695-0.50461-0.18923-0.88078-0.41369-1.0762-0.5918-0.1954-0.1781-0.19531-0.24432-0.19531-0.28125 0-0.31333 0.04672-0.40488 0.14062-0.55078 0.0939-0.1459 0.28915-0.34128 0.5625-0.64453 0.5467-0.6065 1.2168-1.6941 1.2168-3.4941 0-3.6586-1.9715-6.7839-4.6797-8.9473-2.7082-2.1633-6.1719-3.4336-9.4512-3.4336-3.2411 0-6.8695 1.0719-9.7754 3.1426-0.52918 0.37708-1 0.82929-1.4727 1.2773 0.87337-2.0488 2.037-4.0386 3.6953-5.8691 4.4998-4.9672 10.369-7.0343 16.062-6.7578z" fill="#fff" stroke-linecap="round" stroke-linejoin="round"/>
</svg>
