<?xml version="1.0" encoding="UTF-8"?>
<svg id="Layer_2" data-name="Layer 2" version="1.1" viewBox="0 0 48 48" xmlns="http://www.w3.org/2000/svg">
 <defs id="defs4">
  <style id="style2">.cls-1{fill:none;stroke:#fff;stroke-width:2px;stroke-linecap:round;stroke-linejoin:round;}</style>
 </defs>
 <path id="path6" d="m16.65 3.5a1.0001 1.0001 0 0 0-0.70703 0.29297l-12.141 12.15a1.0001 1.0001 0 0 0-0.29297 0.70703v14.699a1.0001 1.0001 0 0 0 0.29492 0.70898l2.4902 2.4805a1.0001 1.0001 0 0 0 1.4121-2e-3l8.5176-8.5371h15.561l8.5059 8.5352a1.0001 1.0001 0 0 0 1.418 0l2.4688-2.4785a1.0001 1.0001 0 0 0 0.29297-0.70703v-14.699a1.0001 1.0001 0 0 0-0.29297-0.70703l-12.119-12.15a1.0001 1.0001 0 0 0-0.70898-0.29297h-3.3496a1.0001 1.0001 0 0 0-1 1v10.996l-1.7246 1.7246h-2.5254l-1.75-1.7285v-10.992a1.0001 1.0001 0 0 0-1-1zm0.41406 2h1.9355v10.41a1.0001 1.0001 0 0 0 0.29688 0.71094l2.3398 2.3105a1.0001 1.0001 0 0 0 0.70312 0.28906h3.3496a1.0001 1.0001 0 0 0 0.70703-0.29297l2.3105-2.3105a1.0001 1.0001 0 0 0 0.29297-0.70703v-10.41h1.9355l11.535 11.564v13.873l-1.4707 1.4766-8.0918-8.1191a1.0001 1.0001 0 0 0-0.70898-0.29492h-16.389a1.0001 1.0001 0 0 0-0.70898 0.29297l-8.1035 8.123-1.4883-1.4805v-13.871zm1.7754 24.65a1.0001 1.0001 0 0 0-0.70703 0.29297l-7.2695 7.2695a1.0001 1.0001 0 0 0 0 1.4141l5.0898 5.0801a1.0001 1.0001 0 0 0 0.70703 0.29297h14.68a1.0001 1.0001 0 0 0 0.70703-0.29297l5.0898-5.0898a1.0001 1.0001 0 0 0 0-1.4141l-7.2598-7.2598a1.0001 1.0001 0 0 0-0.70703-0.29297zm0.41406 2h9.502l6.2598 6.2598-4.0898 4.0898h-13.852l-4.0898-4.0801z" color="#000000" fill="#fff" stroke-linecap="round" stroke-linejoin="round" style="-inkscape-stroke:none"/>
</svg>
