<?xml version="1.0" encoding="UTF-8"?>
<svg id="svg11" version="1.1" viewBox="0 0 48 48" xmlns="http://www.w3.org/2000/svg">
 <defs id="defs1">
  <style id="style1">.a{fill:#fff;fill-opacity:0;}.a,.b{stroke:#fff;stroke-width:2px;stroke-linecap:round;stroke-linejoin:round;}.b{fill:none;}</style>
 </defs>
 <g id="path1" class="a" stroke-linecap="round" stroke-linejoin="round">
  <path id="path12" d="m43 31.827-18.984 11.222-19.016-10.979v-10.848" fill-opacity="0"/>
  <path id="path13" d="m5 20.223a1 1 0 0 0-1 1v10.848a1.0001 1.0001 0 0 0 0.5 0.86524l19.016 10.98a1.0001 1.0001 0 0 0 1.0098-0.0059l18.984-11.223a1 1 0 0 0 0.35156-1.3691 1 1 0 0 0-1.3711-0.35156l-18.48 10.924-18.01-10.398v-10.27a1 1 0 0 0-1-1z" fill="#fff"/>
 </g>
 <g id="path2" class="a" stroke-linecap="round" stroke-linejoin="round">
  <path id="path14" d="m9.5524 29.275-1.808-1.0438v5.4239l9.7816 5.6474v-1.8079l-1.566-0.9043v-1.808l-1.888-1.09v-3.616l-4.52-2.61z" fill-opacity="0"/>
  <path id="path15" d="m9.0527 26.6a1.0001 1.0001 0 0 0-0.5 0.86719v0.07617l-0.30859-0.17773a1.0001 1.0001 0 0 0-1.5 0.86524v5.4238a1.0001 1.0001 0 0 0 0.5 0.86719l9.7813 5.6465a1.0001 1.0001 0 0 0 1.5-0.86524v-1.8086a1.0001 1.0001 0 0 0-0.5-0.86524l-1.0645-0.61523v-1.2324a1.0001 1.0001 0 0 0-0.5-0.86523l-1.3887-0.80078v-3.0391a1.0001 1.0001 0 0 0-0.5-0.86524l-4.5195-2.6113a1.0001 1.0001 0 0 0-1 0zm1.5 2.5977 2.5195 1.4551v3.0391a1.0001 1.0001 0 0 0 0.5 0.86719l1.3887 0.80078v1.2305a1.0001 1.0001 0 0 0 0.06641 0.11523l-6.2832-3.627v-3.1152l0.30859 0.17773a1.0001 1.0001 0 0 0 1.5-0.86523z" fill="#fff"/>
 </g>
 <g id="path3" class="a" stroke-linecap="round" stroke-linejoin="round">
  <path id="path16" d="m17.688 39.396-9.5568-5.5176 3.1372-1.7424 2.8036 1.5564" fill-opacity="0"/>
  <path id="path17" d="m10.783 31.262-3.1367 1.7422a1.0001 1.0001 0 0 0-0.015625 1.7402l9.5566 5.5176a1 1 0 0 0 1.3672-0.36524 1 1 0 0 0-0.36719-1.3672l-8.0273-4.6348 1.1094-0.61523 2.3184 1.2871a1 1 0 0 0 1.3594-0.38867 1 1 0 0 0-0.38867-1.3594l-2.8047-1.5566a1.0001 1.0001 0 0 0-0.9707 0z" fill="#fff"/>
 </g>
 <g id="path4" class="a" stroke-linecap="round" stroke-linejoin="round">
  <path id="path18" d="m34.864 17.094-2.6653-1.8714-6.0555 3.6536 4.2008 2.5154v1.808l5.9607 3.4473 3.1357-1.808 3.5595-2.0515-5.4239-3.8154" fill-opacity="0"/>
  <path id="path19" d="m31.682 14.365-6.0547 3.6543a1.0001 1.0001 0 0 0 2e-3 1.7148l3.7148 2.2227v1.2422a1.0001 1.0001 0 0 0 0.5 0.86523l5.9609 3.4473a1.0001 1.0001 0 0 0 1 2e-3l3.1347-1.8086 3.5605-2.0527a1.0001 1.0001 0 0 0 0.07617-1.6836l-5.4238-3.8145a1 1 0 0 0-1.3945 0.24219 1 1 0 0 0 0.24219 1.3926l4.1426 2.9141-2.2012 1.2695-2.6367 1.5195-4.9609-2.8691v-1.2324a1.0001 1.0001 0 0 0-0.48633-0.85742l-2.7734-1.6602 4.0742-2.459 2.1309 1.498a1 1 0 0 0 1.3926-0.24414 1 1 0 0 0-0.24219-1.3926l-2.666-1.8711a1.0001 1.0001 0 0 0-1.0918-0.03906z" fill="#fff"/>
 </g>
 <g id="path5" class="a" stroke-linecap="round" stroke-linejoin="round">
  <path id="path20" d="m32.199 15.222-0.0467-1.8271" fill-opacity="0"/>
  <path id="path21" d="m32.127 12.395a1 1 0 0 0-0.97461 1.0254l0.04687 1.8281a1 1 0 0 0 1.0254 0.97461 1 1 0 0 0 0.97461-1.0254l-0.04687-1.8281a1 1 0 0 0-1.0254-0.97461z" fill="#fff"/>
 </g>
 <g id="path6" class="a" stroke-linecap="round" stroke-linejoin="round">
  <path id="path22" d="m11.245 17.596-6.2448 3.6265 12.688 7.3255 12.656-7.1569-5.78-3.4656 7.588-4.53-6.7973-3.9249-4.7118 2.9144" fill-opacity="0"/>
  <path id="path23" d="m25.855 8.6055a1.0001 1.0001 0 0 0-1.0273 0.015625l-4.7109 2.9141a1 1 0 0 0-0.32422 1.375 1 1 0 0 0 1.377 0.32617l4.2031-2.6016 4.8047 2.7754-6.127 3.6562a1.0001 1.0001 0 0 0 0 1.7168l4.3086 2.582-10.666 6.0312-10.697-6.1758 4.75-2.7598a1 1 0 0 0 0.36328-1.3672 1 1 0 0 0-1.3672-0.36328l-6.2441 3.627a1.0001 1.0001 0 0 0 0.0019531 1.7305l12.688 7.3262a1.0001 1.0001 0 0 0 0.99219 0.0039l12.656-7.1562a1.0001 1.0001 0 0 0 0.02148-1.7285l-4.3477-2.6055 6.1543-3.6738a1.0001 1.0001 0 0 0-0.01172-1.7246z" fill="#fff"/>
 </g>
 <g id="path7" class="a" stroke-linecap="round" stroke-linejoin="round">
  <path id="path24" d="m30.344 23.199-12.656 7.1569v1.808l1.4035 0.81v1.808l4.9244 2.8431 10.848-6.3928v-1.94l1.5116-0.8727-0.0709-1.773" fill-opacity="0"/>
  <path id="path25" d="m29.852 22.328-12.656 7.1582a1.0001 1.0001 0 0 0-0.50781 0.86914v1.8086a1.0001 1.0001 0 0 0 0.5 0.86524l0.9043 0.52148v1.2305a1.0001 1.0001 0 0 0 0.5 0.86719l4.9238 2.8418a1.0001 1.0001 0 0 0 1.0078-0.0039l10.848-6.3926a1.0001 1.0001 0 0 0 0.49219-0.86133v-1.3633l1.0117-0.58398a1.0001 1.0001 0 0 0 0.5-0.90625l-0.07031-1.7715a1 1 0 0 0-1.0391-0.96094 1 1 0 0 0-0.96094 1.041l0.04687 1.168-0.98828 0.57031a1.0001 1.0001 0 0 0-0.5 0.86719v1.3672l-9.8516 5.8066-3.9199-2.2617v-1.2305a1.0001 1.0001 0 0 0-0.5-0.86719l-0.90429-0.52148v-0.64648l12.148-6.8691a1 1 0 0 0 0.37891-1.3633 1 1 0 0 0-1.3633-0.37891z" fill="#fff"/>
 </g>
 <g id="path8" class="a" stroke-linecap="round" stroke-linejoin="round">
  <path id="path26" d="m12.803 18.495 0.0258 3.8213 1.5657 0.7139 1.5658-0.7139v-1.8077l-0.023-1.9927-1.5428 0.8984" fill-opacity="0"/>
  <path id="path27" d="m12.797 17.496a1 1 0 0 0-0.99414 1.0059l0.02539 3.8223a1.0001 1.0001 0 0 0 0.58594 0.90234l1.5664 0.71289a1.0001 1.0001 0 0 0 0.82812 0l1.5664-0.71289a1.0001 1.0001 0 0 0 0.58594-0.91016v-1.8066a1.0001 1.0001 0 0 0 0-0.01172l-0.023437-1.9941a1.0001 1.0001 0 0 0-1.5039-0.85156l-1.543 0.89844a1 1 0 0 0-0.085937 0.32422l-2e-3 -0.38672a1 1 0 0 0-1.0059-0.99219zm1.0156 2.4961a1 1 0 0 0 1.0859 0.28711l0.05859-0.03516 0.0039 0.26953v1.1602l-0.56641 0.25781-0.57031-0.25977z" fill="#fff"/>
 </g>
 <g id="path9" class="a" stroke-linecap="round" stroke-linejoin="round">
  <path id="path28" d="m7.7444 15.575 6.65 3.84 6.0056-3.4679v-7.529l-6.0055-3.4674-6.6501 3.8393z" fill-opacity="0"/>
  <path id="path29" d="m13.895 4.084-6.6504 3.8398a1.0001 1.0001 0 0 0-0.5 0.86523v6.7852a1.0001 1.0001 0 0 0 0.5 0.86719l6.6504 3.8398a1.0001 1.0001 0 0 0 1 0l6.0059-3.4688a1.0001 1.0001 0 0 0 0.5-0.86523v-7.5293a1.0001 1.0001 0 0 0-0.5-0.86523l-6.0059-3.4688a1.0001 1.0001 0 0 0-1 0zm0.5 2.0215 5.0059 2.8906v6.373l-5.0059 2.8906-5.6504-3.2617v-5.6309z" fill="#fff"/>
 </g>
 <g id="path10" class="a" stroke-linecap="round" stroke-linejoin="round">
  <path id="path30" d="m34.864 22.193 1.451 0.8377 1.261-0.728v-7.5838l-1.261-0.7281-1.451 0.97z" fill-opacity="0"/>
  <path id="path31" d="m36.814 13.125a1.0001 1.0001 0 0 0-1.0547 0.0332l-1.4512 0.9707a1.0001 1.0001 0 0 0-0.44531 0.83203v7.2324a1.0001 1.0001 0 0 0 0.5 0.86524l1.4512 0.83789a1.0001 1.0001 0 0 0 1 0l1.2617-0.72852a1.0001 1.0001 0 0 0 0.5-0.86524v-7.584a1.0001 1.0001 0 0 0-0.5-0.86523zm-0.46094 2.043 0.22266 0.12891v6.4277l-0.26172 0.15039-0.45117-0.25977v-6.1211z" fill="#fff"/>
 </g>
 <g id="path11" class="a" stroke-linecap="round" stroke-linejoin="round">
  <path id="path32" d="m43 25.499-3.616 2.0877v0.904l-1.8079 1.0438v1.808l-1.808 1.0438v3.616l7.2319-4.1753z" fill-opacity="0"/>
  <path id="path33" d="m42.5 24.633-3.6152 2.0879a1.0001 1.0001 0 0 0-0.5 0.86523v0.32812l-1.3086 0.75391a1.0001 1.0001 0 0 0-0.5 0.86719v1.2305l-1.3086 0.75391a1.0001 1.0001 0 0 0-0.5 0.86719v3.6152a1.0001 1.0001 0 0 0 1.5 0.86523l7.2324-4.1738a1.0001 1.0001 0 0 0 0.5-0.86719v-6.3281a1.0001 1.0001 0 0 0-1.5-0.86524zm-0.5 2.5977v4.0195l-5.2324 3.0215v-1.3086l1.3086-0.75391a1.0001 1.0001 0 0 0 0.5-0.86719v-1.2305l1.3086-0.75391a1.0001 1.0001 0 0 0 0.5-0.86719v-0.32617z" fill="#fff"/>
 </g>
 <path id="line11" d="m17.688 27.549a1 1 0 0 0-1 1v1.8066a1 1 0 0 0 1 1 1 1 0 0 0 1-1v-1.8066a1 1 0 0 0-1-1z" fill="#fff" stroke-linecap="round" stroke-linejoin="round"/>
</svg>
