<?xml version="1.0" encoding="UTF-8" standalone="no"?>
<svg
   viewBox="0 0 48 48"
   version="1.1"
   id="svg11"
   sodipodi:docname="minetest.svg"
   xmlns:inkscape="http://www.inkscape.org/namespaces/inkscape"
   xmlns:sodipodi="http://sodipodi.sourceforge.net/DTD/sodipodi-0.dtd"
   xmlns="http://www.w3.org/2000/svg"
   xmlns:svg="http://www.w3.org/2000/svg">
  <sodipodi:namedview
     id="namedview11"
     pagecolor="#ffffff"
     bordercolor="#666666"
     borderopacity="1.0"
     inkscape:showpageshadow="2"
     inkscape:pageopacity="0.0"
     inkscape:pagecheckerboard="0"
     inkscape:deskcolor="#d1d1d1" />
  <defs
     id="defs1">
    <style
       id="style1">.a{fill:#fff;fill-opacity:0;}.a,.b{stroke:#fff;stroke-width:2px;stroke-linecap:round;stroke-linejoin:round;}.b{fill:none;}</style>
  </defs>
  <g
     id="path1"
     class="a">
    <path
       style="color:#000000;fill:#ffffff;fill-opacity:0;stroke-linecap:round;stroke-linejoin:round;-inkscape-stroke:none"
       d="m 43,31.8268 v 0 L 24.0162,43.0493 5,32.07 V 21.2225"
       id="path12" />
    <path
       style="color:#000000;fill:#ffffff;stroke-linecap:round;stroke-linejoin:round;-inkscape-stroke:none"
       d="m 5,20.222656 a 1,1 0 0 0 -1,1 v 10.847656 a 1.0001,1.0001 0 0 0 0.5,0.865235 l 19.015625,10.980469 a 1.0001,1.0001 0 0 0 1.009766,-0.0059 L 43.509766,32.6875 a 1,1 0 0 0 0.351562,-1.369141 1,1 0 0 0 -1.371094,-0.351562 L 24.009766,41.890625 6,31.492187 V 21.222656 a 1,1 0 0 0 -1,-1 z"
       id="path13" />
  </g>
  <g
     id="path2"
     class="a">
    <path
       style="color:#000000;fill:#ffffff;fill-opacity:0;stroke-linecap:round;stroke-linejoin:round;-inkscape-stroke:none"
       d="m 9.5524,29.2747 -1.808,-1.0438 v 5.4239 l 9.7816,5.6474 V 37.4943 L 15.96,36.59 v -1.808 l -1.888,-1.09 v -3.616 l -4.52,-2.61 z"
       id="path14" />
    <path
       style="color:#000000;fill:#ffffff;stroke-linecap:round;stroke-linejoin:round;-inkscape-stroke:none"
       d="m 9.0527344,26.599609 a 1.0001,1.0001 0 0 0 -0.5,0.867188 v 0.07617 L 8.2441406,27.365234 a 1.0001,1.0001 0 0 0 -1.5,0.865235 v 5.423828 a 1.0001,1.0001 0 0 0 0.5,0.867187 l 9.7812504,5.646485 a 1.0001,1.0001 0 0 0 1.5,-0.865235 v -1.808593 a 1.0001,1.0001 0 0 0 -0.5,-0.865235 L 16.960937,36.013672 V 34.78125 a 1.0001,1.0001 0 0 0 -0.5,-0.865234 l -1.388671,-0.800782 v -3.039062 a 1.0001,1.0001 0 0 0 -0.5,-0.865235 l -4.519532,-2.611328 a 1.0001,1.0001 0 0 0 -0.9999996,0 z m 1.4999996,2.597657 2.519532,1.455078 v 3.039062 a 1.0001,1.0001 0 0 0 0.5,0.867188 l 1.388672,0.800781 v 1.230469 a 1.0001,1.0001 0 0 0 0.06641,0.115234 L 8.7441406,33.078125 v -3.115234 l 0.3085938,0.177734 a 1.0001,1.0001 0 0 0 1.4999996,-0.865234 z"
       id="path15" />
  </g>
  <g
     id="path3"
     class="a">
    <path
       style="color:#000000;fill:#ffffff;fill-opacity:0;stroke-linecap:round;stroke-linejoin:round;-inkscape-stroke:none"
       d="m 17.6883,39.3959 -9.5568,-5.5176 3.1372,-1.7424 2.8036,1.5564"
       id="path16" />
    <path
       style="color:#000000;fill:#ffffff;stroke-linecap:round;stroke-linejoin:round;-inkscape-stroke:none"
       d="m 10.783203,31.261719 -3.1367186,1.742187 a 1.0001,1.0001 0 0 0 -0.015625,1.740235 L 17.1875,40.261719 A 1,1 0 0 0 18.554687,39.896484 1,1 0 0 0 18.1875,38.529297 l -8.027344,-4.634766 1.109375,-0.615234 2.31836,1.287109 a 1,1 0 0 0 1.359375,-0.388672 1,1 0 0 0 -0.388672,-1.359375 l -2.804688,-1.55664 a 1.0001,1.0001 0 0 0 -0.970703,0 z"
       id="path17" />
  </g>
  <g
     id="path4"
     class="a">
    <path
       style="color:#000000;fill:#ffffff;fill-opacity:0;stroke-linecap:round;stroke-linejoin:round;-inkscape-stroke:none"
       d="m 34.8641,17.0935 -2.6653,-1.8714 -6.0555,3.6536 4.2008,2.5154 v 1.808 l 5.9607,3.4473 3.1357,-1.808 L 43,22.7869 v 0 l -5.4239,-3.8154"
       id="path18" />
    <path
       style="color:#000000;fill:#ffffff;stroke-linecap:round;stroke-linejoin:round;-inkscape-stroke:none"
       d="m 31.681641,14.365234 -6.054688,3.654297 a 1.0001,1.0001 0 0 0 0.002,1.714844 l 3.714844,2.222656 v 1.242188 a 1.0001,1.0001 0 0 0 0.5,0.865234 l 5.960937,3.447266 a 1.0001,1.0001 0 0 0 1,0.002 L 39.939453,25.705078 43.5,23.652344 a 1.0001,1.0001 0 0 0 0.07617,-1.683594 L 38.152344,18.154297 A 1,1 0 0 0 36.757812,18.396484 1,1 0 0 0 37,19.789062 l 4.142578,2.914063 -2.201172,1.269531 -2.636719,1.519531 -4.960937,-2.86914 v -1.232422 a 1.0001,1.0001 0 0 0 -0.486328,-0.857422 l -2.773438,-1.660156 4.074219,-2.458985 2.130859,1.498047 a 1,1 0 0 0 1.392579,-0.24414 1,1 0 0 0 -0.242188,-1.392578 l -2.666016,-1.871094 a 1.0001,1.0001 0 0 0 -1.091796,-0.03906 z"
       id="path19" />
  </g>
  <g
     id="path5"
     class="a">
    <path
       style="color:#000000;fill:#ffffff;fill-opacity:0;stroke-linecap:round;stroke-linejoin:round;-inkscape-stroke:none"
       d="M 32.1988,15.2221 32.1521,13.395"
       id="path20" />
    <path
       style="color:#000000;fill:#ffffff;stroke-linecap:round;stroke-linejoin:round;-inkscape-stroke:none"
       d="m 32.126953,12.394531 a 1,1 0 0 0 -0.974609,1.025391 l 0.04687,1.828125 a 1,1 0 0 0 1.02539,0.974609 1,1 0 0 0 0.97461,-1.02539 l -0.04687,-1.828125 a 1,1 0 0 0 -1.025391,-0.97461 z"
       id="path21" />
  </g>
  <g
     id="path6"
     class="a">
    <path
       style="color:#000000;fill:#ffffff;fill-opacity:0;stroke-linecap:round;stroke-linejoin:round;-inkscape-stroke:none"
       d="M 11.2448,17.596 5,21.2225 l 12.6883,7.3255 12.6558,-7.1569 -5.78,-3.4656 7.588,-4.53 -6.7973,-3.9249 -4.7118,2.9144"
       id="path22" />
    <path
       style="color:#000000;fill:#ffffff;stroke-linecap:round;stroke-linejoin:round;-inkscape-stroke:none"
       d="m 25.855469,8.6054688 a 1.0001,1.0001 0 0 0 -1.027344,0.015625 l -4.710938,2.9140622 a 1,1 0 0 0 -0.324218,1.375 1,1 0 0 0 1.376953,0.326172 l 4.203125,-2.601562 4.804687,2.77539 -6.126953,3.65625 a 1.0001,1.0001 0 0 0 0,1.716797 l 4.308594,2.582031 -10.666016,6.03125 L 6.9960937,21.220703 11.746094,18.460937 A 1,1 0 0 0 12.109375,17.09375 1,1 0 0 0 10.742188,16.730469 L 4.4980469,20.357422 A 1.0001,1.0001 0 0 0 4.5,22.087891 l 12.6875,7.326171 a 1.0001,1.0001 0 0 0 0.992187,0.0039 l 12.65625,-7.15625 a 1.0001,1.0001 0 0 0 0.02148,-1.728516 l -4.347656,-2.605469 6.154296,-3.673828 a 1.0001,1.0001 0 0 0 -0.01172,-1.724609 z"
       id="path23" />
  </g>
  <g
     id="path7"
     class="a">
    <path
       style="color:#000000;fill:#ffffff;fill-opacity:0;stroke-linecap:round;stroke-linejoin:round;-inkscape-stroke:none"
       d="M 30.3441,23.1991 17.6883,30.356 v 1.808 l 1.4035,0.81 v 1.808 l 4.9244,2.8431 10.8479,-6.3928 v -1.94 l 1.5116,-0.8727 -0.0709,-1.773"
       id="path24" />
    <path
       style="color:#000000;fill:#ffffff;stroke-linecap:round;stroke-linejoin:round;-inkscape-stroke:none"
       d="m 29.851562,22.328125 -12.65625,7.158203 A 1.0001,1.0001 0 0 0 16.6875,30.355469 v 1.808593 a 1.0001,1.0001 0 0 0 0.5,0.865235 l 0.904297,0.521484 v 1.230469 a 1.0001,1.0001 0 0 0 0.5,0.867187 l 4.923828,2.841797 a 1.0001,1.0001 0 0 0 1.007812,-0.0039 L 35.371094,32.09375 a 1.0001,1.0001 0 0 0 0.492187,-0.861328 V 29.869141 L 36.875,29.285156 a 1.0001,1.0001 0 0 0 0.5,-0.90625 l -0.07031,-1.771484 A 1,1 0 0 0 36.265625,25.646484 1,1 0 0 0 35.304687,26.6875 l 0.04687,1.167969 -0.988281,0.570312 a 1.0001,1.0001 0 0 0 -0.5,0.867188 v 1.367187 l -9.851562,5.806641 -3.919922,-2.261719 v -1.230469 a 1.0001,1.0001 0 0 0 -0.5,-0.867187 L 18.6875,31.585937 v -0.646484 l 12.148437,-6.869141 a 1,1 0 0 0 0.378907,-1.363281 1,1 0 0 0 -1.363282,-0.378906 z"
       id="path25" />
  </g>
  <g
     id="path8"
     class="a">
    <path
       style="color:#000000;fill:#ffffff;fill-opacity:0;stroke-linecap:round;stroke-linejoin:round;-inkscape-stroke:none"
       d="m 12.803,18.4952 0.0258,3.8213 1.5657,0.7139 1.5658,-0.7139 v -1.8077 l -0.023,-1.9927 -1.5428,0.8984"
       id="path26" />
    <path
       style="color:#000000;fill:#ffffff;stroke-linecap:round;stroke-linejoin:round;-inkscape-stroke:none"
       d="m 12.796875,17.496094 a 1,1 0 0 0 -0.994141,1.005859 l 0.02539,3.822266 a 1.0001,1.0001 0 0 0 0.585938,0.902343 l 1.566406,0.712891 a 1.0001,1.0001 0 0 0 0.828125,0 L 16.375,23.226562 a 1.0001,1.0001 0 0 0 0.585937,-0.910156 v -1.80664 a 1.0001,1.0001 0 0 0 0,-0.01172 L 16.9375,18.503906 a 1.0001,1.0001 0 0 0 -1.503906,-0.851562 l -1.542969,0.898437 A 1,1 0 0 0 13.804688,18.875 l -0.002,-0.386719 a 1,1 0 0 0 -1.005859,-0.992187 z m 1.015625,2.496093 a 1,1 0 0 0 1.085938,0.28711 l 0.05859,-0.03516 0.0039,0.269531 v 1.160156 l -0.566407,0.257813 -0.570312,-0.259766 z"
       id="path27" />
  </g>
  <g
     id="path9"
     class="a">
    <path
       style="color:#000000;fill:#ffffff;fill-opacity:0;stroke-linecap:round;stroke-linejoin:round;-inkscape-stroke:none"
       d="m 7.7444,15.575 6.65,3.84 L 20.4,15.9471 V 8.4181 L 14.3945,4.9507 7.7444,8.79 Z"
       id="path28" />
    <path
       style="color:#000000;fill:#ffffff;stroke-linecap:round;stroke-linejoin:round;-inkscape-stroke:none"
       d="M 13.894531,4.0839844 7.2441406,7.9238281 a 1.0001,1.0001 0 0 0 -0.5,0.8652344 v 6.7851565 a 1.0001,1.0001 0 0 0 0.5,0.867187 l 6.6503904,3.839844 a 1.0001,1.0001 0 0 0 1,0 l 6.00586,-3.46875 a 1.0001,1.0001 0 0 0 0.5,-0.865234 V 8.4179688 a 1.0001,1.0001 0 0 0 -0.5,-0.8652344 l -6.00586,-3.46875 a 1.0001,1.0001 0 0 0 -1,0 z m 0.5,2.0214843 5.00586,2.8906251 v 6.3730472 l -5.00586,2.890625 -5.6503904,-3.261719 V 9.3671875 Z"
       id="path29" />
  </g>
  <g
     id="path10"
     class="a">
    <path
       style="color:#000000;fill:#ffffff;fill-opacity:0;stroke-linecap:round;stroke-linejoin:round;-inkscape-stroke:none"
       d="m 34.8641,22.1927 1.451,0.8377 1.261,-0.728 v -7.5838 l -1.261,-0.7281 -1.451,0.97 z"
       id="path30" />
    <path
       style="color:#000000;fill:#ffffff;stroke-linecap:round;stroke-linejoin:round;-inkscape-stroke:none"
       d="m 36.814453,13.125 a 1.0001,1.0001 0 0 0 -1.054687,0.0332 l -1.451172,0.970703 a 1.0001,1.0001 0 0 0 -0.445313,0.832032 v 7.232421 a 1.0001,1.0001 0 0 0 0.5,0.865235 l 1.451172,0.83789 a 1.0001,1.0001 0 0 0 1,0 l 1.261719,-0.728515 a 1.0001,1.0001 0 0 0 0.5,-0.865235 V 14.71875 a 1.0001,1.0001 0 0 0 -0.5,-0.865234 z m -0.460937,2.042969 0.222656,0.128906 v 6.427734 L 36.314453,21.875 35.863281,21.615234 v -6.121093 z"
       id="path31" />
  </g>
  <g
     id="path11"
     class="a">
    <path
       style="color:#000000;fill:#ffffff;fill-opacity:0;stroke-linecap:round;stroke-linejoin:round;-inkscape-stroke:none"
       d="m 43,25.4988 -3.616,2.0877 v 0.904 l -1.8079,1.0438 v 1.808 l -1.808,1.0438 v 3.616 L 43,31.8268 Z"
       id="path32" />
    <path
       style="color:#000000;fill:#ffffff;stroke-linecap:round;stroke-linejoin:round;-inkscape-stroke:none"
       d="m 42.5,24.632812 -3.615234,2.087891 a 1.0001,1.0001 0 0 0 -0.5,0.865234 v 0.328125 l -1.308594,0.753907 a 1.0001,1.0001 0 0 0 -0.5,0.867187 v 1.230469 l -1.308594,0.753906 a 1.0001,1.0001 0 0 0 -0.5,0.867188 v 3.615234 a 1.0001,1.0001 0 0 0 1.5,0.865234 L 43.5,32.693359 A 1.0001,1.0001 0 0 0 44,31.826172 V 25.498047 A 1.0001,1.0001 0 0 0 42.5,24.632812 Z M 42,27.230469 V 31.25 l -5.232422,3.021484 v -1.308593 l 1.308594,-0.753907 a 1.0001,1.0001 0 0 0 0.5,-0.867187 v -1.230469 l 1.308594,-0.753906 a 1.0001,1.0001 0 0 0 0.5,-0.867188 v -0.326172 z"
       id="path33" />
  </g>
  <path
     style="color:#000000;fill:#ffffff;stroke-linecap:round;stroke-linejoin:round;-inkscape-stroke:none"
     d="m 17.6875,27.548828 a 1,1 0 0 0 -1,1 v 1.806641 a 1,1 0 0 0 1,1 1,1 0 0 0 1,-1 v -1.806641 a 1,1 0 0 0 -1,-1 z"
     id="line11" />
</svg>
