<?xml version="1.0" encoding="UTF-8"?>
<svg id="b" version="1.1" viewBox="0 0 48 48" xmlns="http://www.w3.org/2000/svg">
 <defs id="defs4">
  <style id="style2">.c{fill:none;stroke:#fff;stroke-width:2px;stroke-linecap:round;stroke-linejoin:round;}</style>
 </defs>
 <path id="path6" d="m6.502 6.8262a1 1 0 0 0-1.1523 0.82031c-0.59259 3.5417 0.024372 7.2609 1.7168 10.424a1 1 0 0 0 1.3535 0.41016 1 1 0 0 0 0.41016-1.3535c-1.4786-2.7633-2.025-6.0593-1.5078-9.1504a1 1 0 0 0-0.82031-1.1504z" color="#000000" fill="#fff" stroke-linecap="round" stroke-linejoin="round" style="-inkscape-stroke:none"/>
 <path id="path8" d="m6.4707 6.8223a1 1 0 0 0-0.73828 0.19336 1 1 0 0 0-0.19141 1.4023c0.4738 0.62311 1.1539 0.98478 1.8594 1.1133a1 1 0 0 0 1.1621-0.80469 1 1 0 0 0-0.80469-1.1641c-0.25751-0.046902-0.5016-0.19318-0.625-0.35547a1 1 0 0 0-0.66211-0.38477z" color="#000000" fill="#fff" stroke-linecap="round" stroke-linejoin="round" style="-inkscape-stroke:none"/>
 <path id="path10" d="m8.4473 5.6328a1 1 0 0 0-0.71484 0.27539c-0.7994 0.75904-0.98625 1.7331-1.1328 2.4336a1 1 0 0 0 0.77539 1.1836 1 1 0 0 0 1.1836-0.77344c0.13744-0.65691 0.30838-1.1624 0.55078-1.3926a1 1 0 0 0 0.037109-1.4141 1 1 0 0 0-0.69922-0.3125z" color="#000000" fill="#fff" stroke-linecap="round" stroke-linejoin="round" style="-inkscape-stroke:none"/>
 <path id="path12" d="m8.3691 5.6348a1 1 0 0 0-0.94727 1.0508 1 1 0 0 0 1.0508 0.94727c2.9652-0.15321 6.0734 0.68255 8.2344 2.6289a1 1 0 0 0 1.4121-0.07422 1 1 0 0 0-0.07422-1.4121c-2.6491-2.386-6.2696-3.3166-9.6758-3.1406z" color="#000000" fill="#fff" stroke-linecap="round" stroke-linejoin="round" style="-inkscape-stroke:none"/>
 <path id="path14" d="m10.381 17.182a1 1 0 0 0-0.56445 0.51758c-1.884 4.0165-2.2199 9.0606 0.25391 13.057a1 1 0 0 0 1.377 0.32422 1 1 0 0 0 0.32422-1.377c-2.0272-3.2747-1.7913-7.6454-0.14453-11.156a1 1 0 0 0-0.48047-1.3301 1 1 0 0 0-0.76562-0.03516z" color="#000000" fill="#fff" stroke-linecap="round" stroke-linejoin="round" style="-inkscape-stroke:none"/>
 <path id="path16" d="m13.49 21.053a1 1 0 0 0-0.97266 1.0254c0.01203 0.4539-0.0195 1.1111 0.10547 1.8145 0.12497 0.70337 0.47035 1.549 1.2793 2.0371a1 1 0 0 0 1.373-0.33984 1 1 0 0 0-0.33984-1.3711c-0.18035-0.10882-0.27152-0.26926-0.34375-0.67578-0.07223-0.40652-0.05954-0.96378-0.07422-1.5176a1 1 0 0 0-1.0273-0.97266z" color="#000000" fill="#fff" stroke-linecap="round" stroke-linejoin="round" style="-inkscape-stroke:none"/>
 <path id="path18" d="m16.93 18.561a1 1 0 0 0-1.1621 0.80469c-0.51855 2.847 1.2307 5.5052 3.668 6.6797a1 1 0 0 0 1.334-0.4668 1 1 0 0 0-0.4668-1.334c-1.7036-0.82093-2.9-2.6987-2.5684-4.5195a1 1 0 0 0-0.80469-1.1641z" color="#000000" fill="#fff" stroke-linecap="round" stroke-linejoin="round" style="-inkscape-stroke:none"/>
 <path id="path20" d="m23.199 15.633c-2.7639 2.3374-4.3983 5.9024-4.3301 9.5312a1 1 0 0 0 1.0195 0.98047 1 1 0 0 0 0.98047-1.0195c-0.05635-2.9962 1.332-6.0289 3.6211-7.9648a1 1 0 0 0 0.11719-1.4082 1 1 0 0 0-1.4082-0.11914z" color="#000000" fill="#fff" stroke-linecap="round" stroke-linejoin="round" style="-inkscape-stroke:none"/>
 <path id="path22" d="m23.902 15.398a1 1 0 0 0-1.0566 0.93945c-0.22508 3.7942 2.1366 7.6212 5.9473 8.6582 1.0622 0.46551 2.1122 0.46389 2.9766 0.49414 0.86887 0.03041 1.5218 0.10838 2.0332 0.42578 0.70268 0.54138 1.0186 1.6064 1.0586 2.7305a1 1 0 0 0 1.0332 0.96484 1 1 0 0 0 0.96484-1.0352c-0.05128-1.441-0.42248-3.2125-1.8887-4.2969a1.0001 1.0001 0 0 0-0.05469-0.03711c-1.0378-0.66706-2.1494-0.71756-3.0762-0.75s-1.694-0.05898-2.2773-0.32617a1.0001 1.0001 0 0 0-0.16992-0.06055c-2.8285-0.72168-4.7232-3.7415-4.5508-6.6484a1 1 0 0 0-0.93945-1.0586z" color="#000000" fill="#fff" stroke-linecap="round" stroke-linejoin="round" style="-inkscape-stroke:none"/>
 <path id="path24" d="m27.732 22.836c-1.4078-0.03664-2.8114 0.46719-3.8242 1.6406a1 1 0 0 0 0.10352 1.4102 1 1 0 0 0 1.4102-0.10352c1.1621-1.3463 3.4885-1.1373 4.7734 0.09375 0.33745 0.33027 0.59776 0.54798 0.76172 0.70703a1 1 0 0 0-0.27734 1.2324 1 1 0 0 0 1.3633 0.37891c0.46783-0.26444 0.88668-0.64148 1.0293-1.2012 0.14261-0.55969-0.07617-1.072-0.29492-1.3867-0.43751-0.62948-0.99698-0.97697-1.1895-1.166a1.0001 1.0001 0 0 0-0.0078-0.0078c-1.0275-0.98439-2.4399-1.561-3.8477-1.5977z" color="#000000" fill="#fff" stroke-linecap="round" stroke-linejoin="round" style="-inkscape-stroke:none"/>
 <path id="path26" d="m25.229 25.479a1 1 0 0 0-1.0898 0.90234c-0.06729 0.71377-0.03645 1.424 0.0625 2.1133a1 1 0 0 0 1.1309 0.84766 1 1 0 0 0 0.84766-1.1309c-0.07925-0.5521-0.09934-1.1067-0.04883-1.6426a1 1 0 0 0-0.90234-1.0898z" color="#000000" fill="#fff" stroke-linecap="round" stroke-linejoin="round" style="-inkscape-stroke:none"/>
 <path id="path28" d="m29.699 24.705a1 1 0 0 0-1.0078 0.99023c-0.01151 1.3206 0.14132 2.4055-0.18945 3.2051a1.0001 1.0001 0 0 0-0.01953 0.05273c-0.11245 0.32176-0.24889 0.4318-0.44141 0.51562-0.19252 0.08382-0.47545 0.10715-0.77148 0.0332-0.59207-0.14789-1.0716-0.59595-1.0801-1.1641a1 1 0 0 0-1.0137-0.98438 1 1 0 0 0-0.98633 1.0137c0.0241 1.6108 1.2726 2.7457 2.5957 3.0762 0.66153 0.16524 1.3847 0.15107 2.0547-0.14062 0.66429-0.28922 1.237-0.89089 1.5176-1.6758 0.5903-1.4626 0.32477-2.8571 0.33398-3.9141a1 1 0 0 0-0.99219-1.0078z" color="#000000" fill="#fff" stroke-linecap="round" stroke-linejoin="round" style="-inkscape-stroke:none"/>
 <path id="path30" d="m37.328 31.604a1 1 0 0 0-0.92578 1.0684c0.12667 1.7625-0.99367 3.5324-2.5996 4.334a1 1 0 0 0-0.44922 1.3418 1 1 0 0 0 1.3418 0.44727c2.3073-1.1516 3.8925-3.6053 3.7012-6.2676a1 1 0 0 0-1.0684-0.92383z" color="#000000" fill="#fff" stroke-linecap="round" stroke-linejoin="round" style="-inkscape-stroke:none"/>
 <path id="path32" d="m39.146 26.691a1 1 0 0 0-0.66797 0.37109 1 1 0 0 0 0.1582 1.4043c0.8172 0.65045 1.5848 1.6061 1.9629 2.5684 0.37813 0.96229 0.40704 1.8609-0.10742 2.7363a1.0001 1.0001 0 0 0-0.0098 0.01563c-0.45274 0.80258-1.2189 1.4848-2.0977 2.0703a1 1 0 0 0-0.27734 1.3867 1 1 0 0 0 1.3867 0.27734c1.0178-0.67813 2.0431-1.542 2.7246-2.7461 0.85253-1.4581 0.7813-3.1007 0.24219-4.4727-0.54024-1.3749-1.5075-2.5482-2.5781-3.4004a1 1 0 0 0-0.73633-0.21094z" color="#000000" fill="#fff" stroke-linecap="round" stroke-linejoin="round" style="-inkscape-stroke:none"/>
 <path id="path34" d="m36.328 4.582c-0.54231-0.15194-1.2073-0.070155-1.8164 0.23633l0.30078-0.095703c-3.1133 0.46718-6.6115 1.3446-9.0469 3.9238a1 1 0 0 0 0.04102 1.4141 1 1 0 0 0 1.4141-0.04102c1.9228-2.0364 4.9324-2.8747 7.8887-3.3184a1.0001 1.0001 0 0 0 0.30078-0.095703c0.29031-0.14607 0.32217-0.113 0.37695-0.097656 0.05478 0.015348 0.19575 0.096723 0.42774 0.28906 0.23198 0.19234 0.54158 0.48282 1.0117 0.70508 0.15048 0.071139 0.3856 0.010968 0.56641 0.052734 0.30368 2.8327 0.26539 5.8035-1.5117 7.7168a1 1 0 0 0 0.05273 1.4141 1 1 0 0 0 1.4121-0.05273c2.6337-2.8355 2.4279-6.8755 2.0117-10.066a1.0001 1.0001 0 0 0-1.2227-0.84375c-0.25685 0.06104-0.31997 0.033655-0.45312-0.029298-0.13316-0.062953-0.32345-0.21663-0.58984-0.4375-0.26639-0.22087-0.62175-0.52189-1.1641-0.67383z" color="#000000" fill="#fff" stroke-linecap="round" stroke-linejoin="round" style="-inkscape-stroke:none"/>
 <path id="path36" d="m25.838 8.168a1 1 0 0 0-1.1973 0.75391 1 1 0 0 0 0.75586 1.1973c4.7454 1.0709 9.5695 3.5759 11.617 7.9395 1.1236 2.4249 1.1268 5.3047 0.44141 7.9707a1 1 0 0 0 0.7207 1.2168 1 1 0 0 0 1.2168-0.71875c0.772-3.0027 0.80722-6.3496-0.56836-9.3145a1.0001 1.0001 0 0 0 0-0.0039c-2.4283-5.1746-7.8764-7.8879-12.986-9.041z" color="#000000" fill="#fff" stroke-linecap="round" stroke-linejoin="round" style="-inkscape-stroke:none"/>
 <path id="path38" d="m21.336 8.002c-4.4469 0.23845-8.9027 1.7041-12.145 5a1 1 0 0 0 0.011719 1.4141 1 1 0 0 0 1.4141-0.01172c3.7355-3.7978 9.5784-4.8984 14.881-4.2676a1 1 0 0 0 1.1113-0.875 1 1 0 0 0-0.875-1.1113c-1.4352-0.17074-2.9161-0.22792-4.3984-0.14844z" color="#000000" fill="#fff" stroke-linecap="round" stroke-linejoin="round" style="-inkscape-stroke:none"/>
 <path id="path40" d="m10.445 12.861a1 1 0 0 0-1.3828 0.30274c-3.4722 5.4175-4.5209 12.772-1.1855 18.629 7.348e-4 0.0013 0.00122 0.0026 0.00195 0.0039 0.51239 0.93074 1.1085 1.8092 1.7676 2.6309a1 1 0 0 0 1.4062 0.1543 1 1 0 0 0 0.1543-1.4062c-0.59528-0.74221-1.1281-1.5291-1.582-2.3555a1.0001 1.0001 0 0 0-0.00781-0.01367c-2.886-5.0644-1.9963-11.688 1.1289-16.564a1 1 0 0 0-0.30078-1.3809z" color="#000000" fill="#fff" stroke-linecap="round" stroke-linejoin="round" style="-inkscape-stroke:none"/>
 <path id="path42" d="m10.312 32.809a1 1 0 0 0-0.87891 1.1094c0.15385 1.3258 0.71784 2.6305 1.6484 3.6328 0.9306 1.0023 2.2938 1.6899 3.8477 1.5684a1 1 0 0 0 0.91797-1.0742 1 1 0 0 0-1.0742-0.91992c-0.90403 0.07069-1.624-0.28657-2.2266-0.93555s-1.0222-1.5992-1.127-2.502a1 1 0 0 0-1.1074-0.87891z" color="#000000" fill="#fff" stroke-linecap="round" stroke-linejoin="round" style="-inkscape-stroke:none"/>
 <path id="path44" d="m13.639 34.514c-0.47961 0.24243-0.62137 0.66839-0.67578 0.94531-0.05441 0.27692-0.0453 0.51185-0.01953 0.75195 0.05153 0.4802 0.18815 0.97103 0.39062 1.4414 0.20248 0.47037 0.42133 0.92351 0.94531 1.2891a1 1 0 0 0 1.3926-0.24805 1 1 0 0 0-0.22266-1.3652c0.3611 0.19993 0.67197 0.44048 1.0859 0.58398a1 1 0 0 0 1.2715-0.61719 1 1 0 0 0-0.61719-1.2715c-0.57575-0.19959-1.149-0.54029-1.7305-0.94336-0.17486-0.18142-0.34171-0.35822-0.55664-0.48438-0.28466-0.16708-0.78406-0.32446-1.2637-0.08203z" color="#000000" fill="#fff" stroke-linecap="round" stroke-linejoin="round" style="-inkscape-stroke:none"/>
 <path id="path46" d="m33.99 31.348a1 1 0 0 0-0.75586 0.11328c-1.3551 0.81714-2.7674 1.5305-4.2285 2.0957a1.0001 1.0001 0 0 0-0.01563 0.0059c-5.1605 2.1018-11.547 1.8854-15.93-1.5918a1 1 0 0 0-1.4043 0.16211 1 1 0 0 0 0.16211 1.4062c5.079 4.0295 12.186 4.2109 17.918 1.8789 1.5817-0.61248 3.0915-1.3772 4.5293-2.2441a1 1 0 0 0 0.33984-1.373 1 1 0 0 0-0.61524-0.45312z" color="#000000" fill="#fff" stroke-linecap="round" stroke-linejoin="round" style="-inkscape-stroke:none"/>
 <path id="path48" d="m25.807 31.918a1 1 0 0 0-1.2832 0.59375c-0.21161 0.57608-0.5858 0.81584-1.0859 0.89453-0.50013 0.07869-1.1049-0.08152-1.5449-0.48047a1 1 0 0 0-1.4121 0.06836 1 1 0 0 0 0.06836 1.4121c0.89505 0.81145 2.079 1.1508 3.1992 0.97461 1.1202-0.17624 2.1988-0.94487 2.6523-2.1797a1 1 0 0 0-0.59375-1.2832z" color="#000000" fill="#fff" stroke-linecap="round" stroke-linejoin="round" style="-inkscape-stroke:none"/>
 <path id="path50" d="m16.699 23.178a1.0001 1.0001 0 0 0-0.1875 0.01367c-2.0758 0.34405-4.0969 1.6529-4.9492 3.7441a1 1 0 0 0 0.54883 1.3027 1 1 0 0 0 1.3027-0.54883c0.52009-1.2761 1.9191-2.2254 3.3418-2.4902 1.228 0.05219 2.4236 0.46719 2.9727 1.3535a1 1 0 0 0 1.377 0.32227 1 1 0 0 0 0.32422-1.375c-1.069-1.7255-3.0521-2.2823-4.7305-2.3223z" color="#000000" fill="#fff" stroke-linecap="round" stroke-linejoin="round" style="-inkscape-stroke:none"/>
 <path id="path52" d="m14.52 25.273a1 1 0 0 0-0.54102 0.54102c-0.41148 0.98961-0.57273 2.1662-0.31836 3.3047 0.24992 1.1185 1.0519 2.2316 2.3652 2.6289 1.3003 0.51207 2.6552 0.06851 3.4297-0.78125 0.78398-0.86023 1.1593-2.0293 1.0566-3.1973 0.01934-0.33526 0.05557-0.72612-0.03125-1.2031a1 1 0 0 0-1.1621-0.80469 1 1 0 0 0-0.80664 1.1641c0.03587 0.19708 0.02546 0.48994 0.0059 0.86914a1.0001 1.0001 0 0 0 0.0039 0.14258c0.05222 0.57578-0.1905 1.2928-0.54492 1.6816-0.35442 0.38889-0.63252 0.53545-1.2402 0.28125a1.0001 1.0001 0 0 0-0.11719-0.04102c-0.61905-0.1724-0.86341-0.53823-1.0059-1.1758-0.14245-0.63755-0.04058-1.4967 0.21094-2.1016a1 1 0 0 0-0.53906-1.3066 1 1 0 0 0-0.76562-2e-3z" color="#000000" fill="#fff" stroke-linecap="round" stroke-linejoin="round" style="-inkscape-stroke:none"/>
 <path id="path54" d="m18.469 34.668c-0.9168 0.31421-1.3391 1.0083-1.584 1.2734-0.12243 0.13257-0.18086 0.16865-0.20898 0.17969-0.02812 0.01103-0.06967 0.03609-0.29688-0.01758a1.0001 1.0001 0 0 0-0.83594 0.17773c-0.77715 0.59177-1.5744 1.4745-1.9648 2.5859-0.19521 0.55573-0.28023 1.2042-0.06641 1.8516 0.21229 0.64274 0.73451 1.1974 1.4219 1.5508 0.30501 0.23034 0.62179 0.4501 0.97852 0.61524a1 1 0 0 0 1.3281-0.48828 1 1 0 0 0-0.48633-1.3262c-0.25429-0.11771-0.50152-0.27391-0.73047-0.45898a1.0001 1.0001 0 0 0-0.17578-0.11328c-0.34247-0.17396-0.40122-0.29642-0.4375-0.40625-0.03628-0.10983-0.0403-0.29208 0.05469-0.5625 0.17336-0.49354 0.71951-1.1196 1.1777-1.5117 0.25925-0.0093 0.53975 0.05271 0.76367-0.03516 0.43581-0.17102 0.73646-0.45322 0.94922-0.68359 0.42551-0.46076 0.57412-0.67399 0.76172-0.73828a1 1 0 0 0 0.62109-1.2715 1 1 0 0 0-1.2695-0.62109z" color="#000000" fill="#fff" stroke-linecap="round" stroke-linejoin="round" style="-inkscape-stroke:none"/>
 <path id="path56" d="m15.518 40.482a1 1 0 0 0-0.74805 0.16211c-0.31473 0.21866-0.4438 0.38349-0.66992 0.62109-0.22612 0.23761-0.38255 0.34095-0.60938 0.75195a1 1 0 0 0 0.39258 1.3574 1 1 0 0 0 1.3574-0.39062c-0.11202 0.20299 0.12401-0.14588 0.30859-0.33984 0.18458-0.19396 0.48471-0.44179 0.36328-0.35742a1 1 0 0 0 0.25-1.3926 1 1 0 0 0-0.64453-0.41211z" color="#000000" fill="#fff" stroke-linecap="round" stroke-linejoin="round" style="-inkscape-stroke:none"/>
 <path id="path58" d="m19.719 34.877c-0.84424 0.15646-1.5802 0.57139-1.9023 1.2734s-0.15703 1.4139 0.09961 1.9707c0.51329 1.1137 1.4399 1.9886 2.373 2.4902l-0.14062-0.0918c1.1131 0.86504 2.9322 2.1122 4.1406 2.8379a1 1 0 0 0 1.3711-0.3418 1 1 0 0 0-0.3418-1.373c-1.0948-0.65747-2.9335-1.9184-3.9434-2.7031a1.0001 1.0001 0 0 0-0.14062-0.08984c-0.43773-0.23532-1.2649-1.0502-1.502-1.5645-0.11851-0.25712-0.07871-0.34437-0.09961-0.29883-0.0209 0.04554-0.02983-0.05344 0.45117-0.14258a1 1 0 0 0 0.80078-1.166 1 1 0 0 0-1.166-0.80078z" color="#000000" fill="#fff" stroke-linecap="round" stroke-linejoin="round" style="-inkscape-stroke:none"/>
 <path id="path60" d="m21.426 34.955a1 1 0 0 0-1.25 0.66016c-0.60338 1.9461-0.07005 3.9832 0.96289 5.5469a1 1 0 0 0 1.3848 0.2832 1 1 0 0 0 0.2832-1.3848c-0.76065-1.1515-1.1009-2.6272-0.7207-3.8535a1 1 0 0 0-0.66016-1.252z" color="#000000" fill="#fff" stroke-linecap="round" stroke-linejoin="round" style="-inkscape-stroke:none"/>
 <path id="path62" d="m24.02 34.959a1 1 0 0 0-1.3203 0.50195c-0.77476 1.7273-1.3861 3.8444-0.77539 5.959a1 1 0 0 0 1.2383 0.68359 1 1 0 0 0 0.68164-1.2383c-0.40633-1.407-1.52e-4 -3.0702 0.67969-4.5859a1 1 0 0 0-0.50391-1.3203z" color="#000000" fill="#fff" stroke-linecap="round" stroke-linejoin="round" style="-inkscape-stroke:none"/>
 <path id="path64" d="m24.258 34.803a1 1 0 0 0-0.92383 1.0703 1 1 0 0 0 1.0723 0.92383c0.549-0.0409 1.2321 0.3451 1.4453 0.67578 0.10659 0.16534 0.10986 0.25081 0.08984 0.32812-0.02001 0.07731-0.0898 0.2447-0.48047 0.47266a1.0001 1.0001 0 0 0-0.15039 0.10742c-0.83516 0.72038-1.8416 1.3063-2.9023 1.8809a1 1 0 0 0-0.4043 1.3555 1 1 0 0 0 1.3555 0.4043c1.0492-0.56826 2.1351-1.2105 3.1289-2.043 0.69827-0.41532 1.2121-0.9937 1.3887-1.6758 0.17905-0.69165-0.0066-1.3862-0.3457-1.9121-0.67812-1.0519-1.9148-1.6891-3.2734-1.5879z" color="#000000" fill="#fff" stroke-linecap="round" stroke-linejoin="round" style="-inkscape-stroke:none"/>
 <path id="path66" d="m26.957 34.252a1 1 0 0 0-0.90039 1.0918 1 1 0 0 0 1.0898 0.90039c0.9081-0.08646 1.7131 0.23306 2.5352 0.82812 0.73832 0.53444 1.4281 1.3063 2.0801 2.0527-8.48e-4 0.0022 8.85e-4 -2.81e-4 0 2e-3 -0.05721 0.14438-0.1902 0.3666-0.33398 0.6543a1 1 0 0 0 0.44727 1.3398 1 1 0 0 0 1.3418-0.44727c0.08382-0.16771 0.25753-0.44018 0.4043-0.81055 0.14676-0.37037 0.27236-0.90832 0.08398-1.4746a1.0001 1.0001 0 0 0-0.19141-0.33594c-0.72949-0.84747-1.5916-1.8275-2.6582-2.5996s-2.3938-1.3444-3.8984-1.2012z" color="#000000" fill="#fff" stroke-linecap="round" stroke-linejoin="round" style="-inkscape-stroke:none"/>
 <path id="path68" d="m32.346 38.77a1 1 0 0 0-0.59961 0.47656 1 1 0 0 0 0.38867 1.3594c1.6157 0.89709 3.7726 2.3018 5.875 2.8613a1 1 0 0 0 1.2246-0.70898 1 1 0 0 0-0.70898-1.2246c-1.5898-0.42309-3.7142-1.7287-5.4199-2.6758a1 1 0 0 0-0.75977-0.08789z" color="#000000" fill="#fff" stroke-linecap="round" stroke-linejoin="round" style="-inkscape-stroke:none"/>
 <path id="ellipse70" d="m27.475 24.977c-0.70468 0-1.1916 0.48081-1.4453 0.93164-0.25366 0.45083-0.36719 0.96082-0.36719 1.5117s0.11352 1.0609 0.36719 1.5117c0.25366 0.45083 0.74063 0.93359 1.4453 0.93359 0.70468 0 1.1936-0.48276 1.4473-0.93359 0.25366-0.45083 0.36523-0.96082 0.36523-1.5117s-0.11157-1.0609-0.36523-1.5117c-0.25366-0.45083-0.74259-0.93164-1.4473-0.93164z" color="#000000" fill="#fff" stroke-linecap="round" stroke-linejoin="round" style="-inkscape-stroke:none"/>
 <path id="ellipse72" d="m17.131 25.438c-0.67894 0-1.1784 0.44554-1.4453 0.88867-0.26689 0.44314-0.38867 0.951-0.38867 1.4961s0.12178 1.051 0.38867 1.4941c0.26689 0.44314 0.76637 0.89062 1.4453 0.89062 0.67895 0 1.1804-0.44749 1.4473-0.89062s0.38672-0.94905 0.38672-1.4941-0.11983-1.053-0.38672-1.4961-0.76832-0.88867-1.4473-0.88867z" color="#000000" fill="#fff" stroke-linecap="round" stroke-linejoin="round" style="-inkscape-stroke:none"/>
 <path id="path74" d="m32.859 27.982a1 1 0 0 0-0.61133 0.45898 1 1 0 0 0 0.34766 1.3691c0.59653 0.35408 1.2306 0.85869 1.5879 1.3594 0.35726 0.50068 0.47154 0.87875 0.27148 1.4199a1.0001 1.0001 0 0 0-0.0039 0.01367c-0.30327 0.85828-1.0629 1.621-1.9492 2.3457a1 1 0 0 0-0.14062 1.4062 1 1 0 0 0 1.4062 0.14258c0.96389-0.78806 2.0499-1.7732 2.5645-3.2227 0.44156-1.204 0.08917-2.4145-0.51953-3.2676-0.61004-0.85494-1.4425-1.4692-2.1953-1.916a1 1 0 0 0-0.75781-0.10938z" color="#000000" fill="#fff" stroke-linecap="round" stroke-linejoin="round" style="-inkscape-stroke:none"/>
</svg>
