<?xml version="1.0" encoding="UTF-8"?>
<svg id="b" version="1.1" viewBox="0 0 48 48" xmlns="http://www.w3.org/2000/svg">
 <defs id="defs4">
  <style id="style2">.f,.g{fill:none;stroke:#fff;stroke-width:2px;stroke-linejoin:round;}.g{stroke-linecap:round;}</style>
 </defs>
 <path id="path6" d="m24.117 4.8984c-2.2993-0.01742-4.6395 0.41466-6.8945 1.3496-9.0202 3.7398-13.312 14.113-9.5723 23.133 3.7398 9.0202 14.111 13.312 23.131 9.5723a1 1 0 0 0 0.54102-1.3066 1 1 0 0 0-1.3066-0.54102c-8.0217 3.3258-17.192-0.46848-20.518-8.4902-3.3258-8.0217 0.46848-17.194 8.4902-20.52 8.0217-3.3258 17.194 0.47043 20.52 8.4922 2.3241 5.6056 1.2121 12.042-2.8574 16.543a1 1 0 0 0 0.07031 1.4121 1 1 0 0 0 1.4121-0.07031c4.5845-5.0712 5.839-12.337 3.2207-18.652-2.8048-6.7652-9.3385-10.87-16.236-10.922z" color="#000000" fill="#fff" stroke-linecap="round" stroke-linejoin="round" style="-inkscape-stroke:none"/>
 <path id="circle8" d="m34.992 32.6c-2.8893 0-5.2539 2.3626-5.2539 5.252 0 2.8893 2.3646 5.2539 5.2539 5.2539 2.8893 0 5.252-2.3646 5.252-5.2539 0-2.8893-2.3626-5.252-5.252-5.252zm0 2c1.8084 0 3.252 1.4435 3.252 3.252 0 1.8084-1.4435 3.2539-3.252 3.2539-1.8084 0-3.2539-1.4455-3.2539-3.2539 0-1.8084 1.4455-3.252 3.2539-3.252z" color="#000000" fill="#fff" stroke-linejoin="round" style="-inkscape-stroke:none"/>
 <path id="path10" d="m21.627 11.199a1 1 0 0 0-1 1v1.8184h-5.1504a1 1 0 0 0-1 1 1 1 0 0 0 1 1h5.1504v3.3086c-1.2133 0.43789-2.3553 0.98098-3.3008 1.6934-2.1069 1.5875-3.4844 3.8137-3.4844 6.2344 0 2.7719 2.1317 5.1895 5.0645 5.1895 2.2928 0 4.2113-1.491 5.7188-3.707 1.3602-1.9996 2.4544-4.7198 3.4121-7.8164 2.1883 0.87395 3.6992 2.8472 3.6992 5.1855 0 1.4683-0.53931 2.5033-1.5938 3.3848-1.0544 0.88149-2.6771 1.5516-4.7129 1.9355a1 1 0 0 0-0.79688 1.168 1 1 0 0 0 1.168 0.79688c2.2542-0.4251 4.1919-1.1672 5.625-2.3652 1.4331-1.198 2.3105-2.9093 2.3105-4.9199 0-3.4943-2.4973-6.2617-5.8008-7.2266a1 1 0 0 0-0.25-0.15039 1 1 0 0 0-0.35352 0.03906c-0.60634-0.13145-1.1851-0.33967-1.8301-0.33789-1.023 0.0024-1.934 0.25811-2.875 0.44922v-2.8613h9.2891a1 1 0 0 0 1-1 1 1 0 0 0-1-1h-9.2891v-1.8184a1 1 0 0 0-1-1zm3.8789 9.2305c0.19631-5.42e-4 0.35951 0.08441 0.55078 0.09961-0.72502 2.2993-1.5372 4.2419-2.4199 5.8164-0.64584-1.1746-1.0098-2.6996-1.0098-4.248v-1.2168c0.92274-0.21904 1.8463-0.44876 2.8789-0.45117zm-4.8789 1.1172v0.55078c0 1.9758 0.28318 4.4147 1.7383 6.166-1.1141 1.3687-2.2439 2.1797-3.459 2.1797-1.8793 0-3.0645-1.3833-3.0645-3.1895 0-1.6564 0.9604-3.3354 2.6875-4.6367 0.58584-0.4414 1.3585-0.7437 2.0977-1.0703z" color="#000000" fill="#fff" stroke-linecap="round" stroke-linejoin="round" style="-inkscape-stroke:none"/>
</svg>
