<?xml version="1.0" encoding="UTF-8"?>
<svg id="svg1" version="1.1" viewBox="0 0 48 48" xmlns="http://www.w3.org/2000/svg">
 <defs id="defs1">
  <style id="style1">.a{fill:none;stroke:#fff;stroke-width:2px;stroke-linecap:round;stroke-linejoin:round;}</style>
 </defs>
 <path id="circle1" d="m24 1.5c-12.415 0-22.5 10.085-22.5 22.5s10.085 22.5 22.5 22.5 22.5-10.085 22.5-22.5-10.085-22.5-22.5-22.5zm0 2c11.334 0 20.5 9.1663 20.5 20.5s-9.1663 20.5-20.5 20.5-20.5-9.1663-20.5-20.5 9.1663-20.5 20.5-20.5z" fill="#fff" stroke-linecap="round" stroke-linejoin="round"/>
 <path id="polygon1" d="m19.199 15.623a1.0001 1.0001 0 0 0-0.5 0.86719v15.02a1.0001 1.0001 0 0 0 1.502 0.86523l13-7.5098a1.0001 1.0001 0 0 0 0-1.7305l-13-7.5098a1.0001 1.0001 0 0 0-1.002-2e-3zm1.5 2.5996 10.002 5.7773-10.002 5.7773z" fill="#fff" stroke-linecap="round" stroke-linejoin="round"/>
</svg>
