<?xml version="1.0" encoding="UTF-8" standalone="no"?>
<svg
   viewBox="0 0 48 48"
   version="1.1"
   id="svg6"
   sodipodi:docname="mscore.svg"
   xmlns:inkscape="http://www.inkscape.org/namespaces/inkscape"
   xmlns:sodipodi="http://sodipodi.sourceforge.net/DTD/sodipodi-0.dtd"
   xmlns="http://www.w3.org/2000/svg"
   xmlns:svg="http://www.w3.org/2000/svg">
  <sodipodi:namedview
     id="namedview6"
     pagecolor="#ffffff"
     bordercolor="#666666"
     borderopacity="1.0"
     inkscape:showpageshadow="2"
     inkscape:pageopacity="0.0"
     inkscape:pagecheckerboard="0"
     inkscape:deskcolor="#d1d1d1" />
  <defs
     id="defs1">
    <style
       id="style1">.a{fill:none;stroke:#fff;stroke-width:2px;stroke-linecap:round;stroke-linejoin:round;}.b{fill:#fff;}</style>
  </defs>
  <path
     style="color:#000000;fill:#ffffff;stroke-linecap:round;stroke-linejoin:round;-inkscape-stroke:none"
     d="m 7.5,4.5 c -1.645008,0 -3,1.354992 -3,3 v 33 c 0,1.645008 1.354992,3 3,3 h 33 c 1.645008,0 3,-1.354992 3,-3 v -33 c 0,-1.645008 -1.354992,-3 -3,-3 z m 0,2 h 33 c 0.564129,0 1,0.4358712 1,1 v 33 c 0,0.564129 -0.435871,1 -1,1 h -33 c -0.5641288,0 -1,-0.435871 -1,-1 v -33 c 0,-0.5641288 0.4358712,-1 1,-1 z"
     id="path1" />
  <circle
     class="b"
     cx="33"
     cy="20.4"
     r="0.75"
     id="circle1" />
  <path
     style="color:#000000;fill:#ffffff;stroke-linecap:round;stroke-linejoin:round;-inkscape-stroke:none"
     d="m 19.5,24.349609 a 1,1 0 0 0 -1,1 v 7.201172 a 1,1 0 0 0 1,1 1,1 0 0 0 1,-1 v -7.201172 a 1,1 0 0 0 -1,-1 z"
     id="path2" />
  <path
     style="color:#000000;fill:#ffffff;stroke-linecap:round;stroke-linejoin:round;-inkscape-stroke:none"
     d="M 23.996094,19.849609 C 20.97549,19.858498 18.508888,22.327053 18.5,25.347656 A 1,1 0 0 0 19.496094,26.349609 1,1 0 0 0 20.5,25.353516 c 0.0057,-1.942558 1.557979,-3.496069 3.5,-3.503907 1.942021,0.0078 3.494284,1.561349 3.5,3.503907 A 1,1 0 0 0 28.503906,26.349609 1,1 0 0 0 29.5,25.347656 c -0.0089,-3.020603 -2.47549,-5.489158 -5.496094,-5.498047 a 1.0001,1.0001 0 0 0 -0.0078,0 z"
     id="path3" />
  <path
     style="color:#000000;fill:#ffffff;stroke-linecap:round;stroke-linejoin:round;-inkscape-stroke:none"
     d="m 37.5,22.099609 a 1,1 0 0 0 -1,1 v 5.171875 c -0.0053,1.94228 -1.556305,3.495982 -3.498047,3.503907 -1.942563,-0.0057 -3.494157,-1.557973 -3.501953,-3.5 v -2.925782 a 1,1 0 0 0 -1,-1 1,1 0 0 0 -1,1 v 2.925782 a 1.0001,1.0001 0 0 0 0,0.002 c 0.0088,3.020642 2.477405,5.489225 5.498047,5.498047 a 1.0001,1.0001 0 0 0 0.002,0 h 0.002 a 1.0001,1.0001 0 0 0 0.002,0 c 3.020433,-0.009 5.487807,-2.477612 5.496094,-5.498047 a 1.0001,1.0001 0 0 0 0,-0.002 v -5.175782 a 1,1 0 0 0 -1,-1 z"
     id="path4" />
  <path
     style="color:#000000;fill:#ffffff;stroke-linecap:round;stroke-linejoin:round;-inkscape-stroke:none"
     d="M 14.996094,19.849609 C 11.97549,19.858498 9.5088882,22.327053 9.5,25.347656 a 1.0001,1.0001 0 0 0 0,0.002 v 7.201172 a 1,1 0 0 0 1,1 1,1 0 0 0 1,-1 v -7.197265 -0.0039 c 0.0078,-1.940687 1.559312,-3.492167 3.5,-3.5 1.942021,0.0078 3.494284,1.561349 3.5,3.503907 A 1,1 0 0 0 19.503906,26.349609 1,1 0 0 0 20.5,25.347656 c -0.0089,-3.020603 -2.47549,-5.489158 -5.496094,-5.498047 a 1.0001,1.0001 0 0 0 -0.0078,0 z"
     id="path5" />
  <path
     style="color:#000000;fill:#ffffff;stroke-linecap:round;stroke-linejoin:round;-inkscape-stroke:none"
     d="M 32.996094,14.224609 C 29.97549,14.233498 27.508888,16.702053 27.5,19.722656 A 1,1 0 0 0 28.496094,20.724609 1,1 0 0 0 29.5,19.728516 c 0.0057,-1.942558 1.557979,-3.496069 3.5,-3.503907 6.67e-4,3e-6 0.0013,-2e-6 0.002,0 1.941742,0.0079 3.492718,1.561627 3.498047,3.503907 A 1,1 0 0 0 37.501953,20.724609 1,1 0 0 0 38.5,19.722656 c -0.0083,-3.020435 -2.475661,-5.489022 -5.496094,-5.498047 a 1.0001,1.0001 0 0 0 -0.002,0 H 33 a 1.0001,1.0001 0 0 0 -0.0039,0 z"
     id="path6" />
</svg>
