<?xml version="1.0" encoding="UTF-8"?>
<svg id="a" version="1.1" viewBox="0 0 48 48" xmlns="http://www.w3.org/2000/svg">
 <defs id="defs1">
  <style id="style1">.b{fill:none;stroke:#fff;stroke-linecap:round;stroke-linejoin:round;}.c{fill:#fff;stroke-width:2px;}</style>
 </defs>
 <path id="rect1" d="m9.5 5c-2.4843 0-4.5 2.0157-4.5 4.5v29c0 2.4843 2.0157 4.5 4.5 4.5h29c2.4843 0 4.5-2.0157 4.5-4.5v-29c0-2.4843-2.0157-4.5-4.5-4.5zm0 1h29c1.9476 0 3.5 1.5524 3.5 3.5v29c0 1.9476-1.5524 3.5-3.5 3.5h-29c-1.9476 0-3.5-1.5524-3.5-3.5v-29c0-1.9476 1.5524-3.5 3.5-3.5z" color="#000000" fill="#fff" stroke-linecap="round" stroke-linejoin="round" style="-inkscape-stroke:none"/>
 <circle id="circle1" class="c" cx="33" cy="20.4" r="1.5"/>
 <path id="path1" d="m19.5 24.85a0.5 0.5 0 0 0-0.5 0.5v7.2012a0.5 0.5 0 0 0 0.5 0.5 0.5 0.5 0 0 0 0.5-0.5v-7.2012a0.5 0.5 0 0 0-0.5-0.5z" color="#000000" fill="#fff" stroke-linecap="round" stroke-linejoin="round" style="-inkscape-stroke:none"/>
 <path id="path2" d="m23.998 20.35c-2.7515 0.008092-4.99 2.2466-4.998 4.998a0.5 0.5 0 0 0 0.49805 0.50195 0.5 0.5 0 0 0 0.50195-0.49805c0.0065-2.2118 1.7868-3.9933 3.998-4.002 2.2131 0.0065 3.9954 1.7888 4.002 4.002a0.5 0.5 0 0 0 0.50195 0.49805 0.5 0.5 0 0 0 0.49805-0.50195c-0.0081-2.7515-2.2466-4.99-4.998-4.998a0.50005 0.50005 0 0 0-0.0039 0z" color="#000000" fill="#fff" stroke-linecap="round" stroke-linejoin="round" style="-inkscape-stroke:none"/>
 <path id="path3" d="m37.5 22.6a0.5 0.5 0 0 0-0.5 0.5v5.1738c-0.0061 2.2121-1.7862 3.9943-3.998 4.002-2.2124-0.0064-3.9945-1.7878-4.002-4v-2.9258a0.5 0.5 0 0 0-0.5-0.5 0.5 0.5 0 0 0-0.5 0.5v2.9258a0.50005 0.50005 0 0 0 0 2e-3c8e-3 2.7515 2.2466 4.9901 4.998 4.998a0.50005 0.50005 0 0 0 2e-3 0h2e-3c2.7511-0.00825 4.9904-2.2469 4.998-4.9981a0.50005 0.50005 0 0 0 0-2e-3v-5.1758a0.5 0.5 0 0 0-0.5-0.5z" color="#000000" fill="#fff" stroke-linecap="round" stroke-linejoin="round" style="-inkscape-stroke:none"/>
 <path id="path4" d="m14.998 20.35c-2.7514 0.008092-4.99 2.2466-4.998 4.998a0.50005 0.50005 0 0 0 0 2e-3v7.2012a0.5 0.5 0 0 0 0.5 0.5 0.5 0.5 0 0 0 0.5-0.5v-7.2012c0.0076-2.2109 1.7875-3.9914 3.998-4 2.2131 0.0065 3.9954 1.7888 4.002 4.002a0.5 0.5 0 0 0 0.50195 0.49805 0.5 0.5 0 0 0 0.49805-0.50195c-0.0081-2.7515-2.2466-4.99-4.998-4.998a0.50005 0.50005 0 0 0-0.0039 0z" color="#000000" fill="#fff" stroke-linecap="round" stroke-linejoin="round" style="-inkscape-stroke:none"/>
 <path id="path5" d="m32.998 14.725c-2.7515 0.008092-4.99 2.2466-4.998 4.998a0.5 0.5 0 0 0 0.49805 0.50195 0.5 0.5 0 0 0 0.50195-0.49805c0.0065-2.2125 1.7878-3.9944 4-4.002 2.2128 0.0066 3.9939 1.7892 4 4.002a0.5 0.5 0 0 0 0.50195 0.49805 0.5 0.5 0 0 0 0.49805-0.50195c-0.0075-2.7512-2.2468-4.9898-4.998-4.998h-0.001953a0.50005 0.50005 0 0 0-2e-3 0z" color="#000000" fill="#fff" stroke-linecap="round" stroke-linejoin="round" style="-inkscape-stroke:none"/>
</svg>
