<?xml version="1.0" encoding="UTF-8"?>
<svg id="svg10" version="1.1" viewBox="0 0 48 48" xmlns="http://www.w3.org/2000/svg">
 <defs id="defs1">
  <style id="style1">.a{fill:none;stroke:#fff;stroke-width:2px;stroke-linecap:round;stroke-linejoin:round;}</style>
 </defs>
 <path id="path1" d="m24.773 4.584c-6.8669 0-12.469 5.305-12.469 11.869 0 1.1995 0.18704 2.3607 0.53516 3.4531l0.11133 0.34766h9.9473l-0.91992-0.86523c-1.3777-1.2942-2.2383-3.1284-2.2383-5.1699 0-3.9224 3.1694-7.0918 7.0918-7.0918 1.1428 0 2.1746 0.34549 3.1289 0.82422-1.722 0.58349-2.9863 2.1669-2.9863 4.082 0 2.4023 1.9589 4.3594 4.3613 4.3594 2.4023 0 4.3594-1.9571 4.3594-4.3594 0-1.1323-0.43424-2.17-1.1445-2.9453-2.2871-2.7479-5.8208-4.5039-9.7773-4.5039zm0 1c1.6614 0 3.2174 0.37175 4.6406 0.97266-0.81194-0.27343-1.6795-0.42969-2.582-0.42969-4.4628 0-8.0918 3.6289-8.0918 8.0918 0 1.9419 0.79858 3.6393 1.9414 5.0352h-6.9434c-0.2533-0.89775-0.43359-1.8263-0.43359-2.8008 0-5.9952 5.1152-10.869 11.469-10.869zm4.7285 1.0039c0.45376 0.19582 0.86945 0.43956 1.2891 0.6875-0.42347-0.24206-0.82204-0.52409-1.2891-0.6875zm1.834 2.084c0.02554 0 0.05052-5.72e-4 0.07617 0l1.3047 0.029297c0.36865 0.33953 0.76024 0.65766 1.0781 1.041l0.0078 0.00977 0.0098 0.00977c0.54908 0.5986 0.88281 1.3931 0.88281 2.2715 0 1.8619-1.4975 3.3594-3.3594 3.3594-1.862 0-3.3613-1.4975-3.3613-3.3594 0-1.8619 1.4993-3.3613 3.3613-3.3613z" stop-color="#000000"/>
 <path id="path2" d="m25.205 27.746 0.71875 0.82812c1.1333 1.3046 1.8223 3.021 1.8223 4.9082 0 4.093-3.2327 7.3906-7.2207 7.3906-1.1554 0-2.2008-0.35299-3.168-0.8457 1.6765-0.60846 2.8965-2.178 2.8965-4.0605 0-2.4023-1.959-4.3594-4.3613-4.3594-2.4023 0-4.3594 1.9571-4.3594 4.3594 0 1.1104 0.41756 2.1304 1.1035 2.9004 2.4825 2.7865 6.1845 4.5488 10.312 4.5488 7.446 0 13.518-5.7509 13.518-12.865 0-0.81994-0.08015-1.6244-0.23438-2.4023l-0.08008-0.40234zm1.9688 1h8.1172c0.09552 0.59086 0.17578 1.1878 0.17578 1.8047 0 6.5454-5.585 11.865-12.518 11.865-1.6705 0-3.2363-0.35816-4.6914-0.91992 0.72586 0.21399 1.4754 0.37695 2.2676 0.37695 4.5403 0 8.2207-3.7687 8.2207-8.3906 0-1.7836-0.63954-3.3748-1.5723-4.7363zm-11.281 3.8613c1.8619 0 3.3613 1.4975 3.3613 3.3594 0 1.8492-1.4786 3.3409-3.3223 3.3613l-1.293 0.01367c-0.43212-0.36755-0.88128-0.72017-1.2559-1.1406-0.52947-0.59437-0.84961-1.3738-0.84961-2.2344 0-1.8619 1.4975-3.3594 3.3594-3.3594zm1.5176 8.5645c0.07681 0.03254 0.14079 0.08697 0.21875 0.11719-0.07647-0.03413-0.14314-0.08165-0.21875-0.11719z" stop-color="#000000"/>
 <path id="path3" d="m23.037 20.412-8.0742 7.1758h10l8.0723-7.1758zm0.38086 1h6.9863l-5.8223 5.1758h-6.9863z" stop-color="#000000"/>
</svg>
