<?xml version="1.0" encoding="UTF-8" standalone="no"?>
<svg
   viewBox="0 0 48 48"
   version="1.1"
   id="svg3"
   sodipodi:docname="nextcloud.svg"
   xmlns:inkscape="http://www.inkscape.org/namespaces/inkscape"
   xmlns:sodipodi="http://sodipodi.sourceforge.net/DTD/sodipodi-0.dtd"
   xmlns="http://www.w3.org/2000/svg"
   xmlns:svg="http://www.w3.org/2000/svg">
  <sodipodi:namedview
     id="namedview3"
     pagecolor="#ffffff"
     bordercolor="#666666"
     borderopacity="1.0"
     inkscape:showpageshadow="2"
     inkscape:pageopacity="0.0"
     inkscape:pagecheckerboard="0"
     inkscape:deskcolor="#d1d1d1" />
  <defs
     id="defs1">
    <style
       id="style1">.a{fill:none;stroke:#fff;stroke-width:2px;stroke-linecap:round;stroke-linejoin:round;}</style>
  </defs>
  <path
     style="color:#000000;fill:#ffffff;stroke-linecap:round;stroke-linejoin:round;-inkscape-stroke:none"
     d="m 24,13.560547 c -5.754002,0 -10.439453,4.685451 -10.439453,10.439453 0,5.754002 4.685451,10.439453 10.439453,10.439453 5.754002,0 10.439453,-4.685451 10.439453,-10.439453 0,-5.754002 -4.685451,-10.439453 -10.439453,-10.439453 z m 0,2 c 4.673123,0 8.439453,3.76633 8.439453,8.439453 0,4.673123 -3.76633,8.439453 -8.439453,8.439453 -4.673123,0 -8.439453,-3.76633 -8.439453,-8.439453 0,-4.673123 3.76633,-8.439453 8.439453,-8.439453 z"
     id="circle1" />
  <path
     style="color:#000000;fill:#ffffff;stroke-linecap:round;stroke-linejoin:round;-inkscape-stroke:none"
     d="M 9.5292969,17.970703 C 6.2108677,17.970703 3.5,20.681571 3.5,24 c 0,3.318429 2.7108677,6.029297 6.0292969,6.029297 3.3184291,0 6.0312501,-2.710868 6.0312501,-6.029297 0,-3.318429 -2.712821,-6.029297 -6.0312501,-6.029297 z m 0,2 c 2.2375501,0 4.0312501,1.791747 4.0312501,4.029297 0,2.23755 -1.7937,4.029297 -4.0312501,4.029297 C 7.2917468,28.029297 5.5,26.23755 5.5,24 c 0,-2.23755 1.7917468,-4.029297 4.0292969,-4.029297 z"
     id="circle2" />
  <path
     style="color:#000000;fill:#ffffff;stroke-linecap:round;stroke-linejoin:round;-inkscape-stroke:none"
     d="m 38.470703,17.970703 c -3.318429,0 -6.03125,2.710868 -6.03125,6.029297 0,3.318429 2.712821,6.029297 6.03125,6.029297 C 41.789132,30.029297 44.5,27.318429 44.5,24 c 0,-3.318429 -2.710868,-6.029297 -6.029297,-6.029297 z m 0,2 C 40.708253,19.970703 42.5,21.76245 42.5,24 c 0,2.23755 -1.791747,4.029297 -4.029297,4.029297 -2.23755,0 -4.03125,-1.791747 -4.03125,-4.029297 0,-2.23755 1.7937,-4.029297 4.03125,-4.029297 z"
     id="circle3" />
</svg>
