<?xml version="1.0" encoding="UTF-8"?>
<svg id="svg8" width="48" height="48" version="1.1" viewBox="0 0 48 48" xmlns="http://www.w3.org/2000/svg">
 <path id="path15009" d="m31.521 29.957-1.6934 0.35742a1.0001 1.0001 0 0 0-0.75 0.6875l-0.50195 1.6543a1.0001 1.0001 0 0 0 0.22461 0.96875l9.6113 10.357c0.26692 0.29004 0.62442 0.47062 1.0098 0.50976 0.38543 0.03915 0.82144-0.07702 1.1465-0.375l1.4609-1.3398c0.64999-0.59591 0.58266-1.5802 0.04883-2.1602a1.0001 1.0001 0 0 0-0.0039-0.0039l-9.6133-10.359a1.0001 1.0001 0 0 0-0.93945-0.29688zm-0.14062 2.0723 8.9238 9.6172-0.71875 0.66016-8.9277-9.6211 0.16211-0.53906z" color="#000000" fill="#fff" stroke-linecap="round" stroke-linejoin="round" style="-inkscape-stroke:none"/>
 <path id="path15015" d="m29.498 22.01c-0.50487-0.25657-1.1196-0.20418-1.5742 0.13476l-2.0117 1.5-2.377-0.80664c-0.53612-0.18074-1.1339-0.04336-1.5371 0.35938-0.40328 0.40192-0.54102 1.0023-0.35938 1.5391l0.80469 2.373-1.5 2.0098c-0.34473 0.46149-0.39494 1.0673-0.13476 1.5781 0.25189 0.49282 0.75873 0.82031 1.334 0.82031h0.0059a1.0001 1.0001 0 0 0 0.01367 0l2.5098-0.03516 1.4492 2.0449c0.28465 0.40169 0.74899 0.62891 1.2207 0.62891 0.07365 0 0.15268-0.0065 0.23438-0.01953 0.55998-0.08921 1.0269-0.49161 1.1953-1.0312l0.74414-2.3945 2.3965-0.74414c0.53937-0.16803 0.94377-0.63261 1.0332-1.1934 0.08958-0.56181-0.15139-1.13-0.61328-1.457l-2.0488-1.4473 0.03125-2.5059a1.0001 1.0001 0 0 0 0-2e-3c0.0067-0.56662-0.31149-1.0942-0.81641-1.3516zm-5.9668 2.084h2e-3c4.33e-4 0.0013-4.22e-4 0.0026 0 0.0039zm4.7715 0.26367-0.02539 2.0117a1.0001 1.0001 0 0 0 0.42188 0.83008l1.6445 1.1602-1.9238 0.59766a1.0001 1.0001 0 0 0-0.6582 0.6582l-0.59766 1.9238-1.1641-1.6426a1.0001 1.0001 0 0 0-0.83008-0.42188l-2.0195 0.0293 1.2109-1.6191a1.0001 1.0001 0 0 0 0.14453-0.91992l-0.64648-1.9043 1.9082 0.64648a1.0001 1.0001 0 0 0 0.91992-0.14649zm-5.4082 0.375 0.0039 2e-3c-0.0013-4.25e-4 -0.0026 4.36e-4 -0.0039 0z" color="#000000" fill="#fff" stroke-linecap="round" stroke-linejoin="round" style="-inkscape-stroke:none"/>
 <path id="rect1378" d="m9.5156 7.5c-2.2219 0.055918-4.0156 1.8937-4.0156 4.125v23.744c0 2.2676 1.8574 4.123 4.125 4.123h21.715a1.0001 1.0001 0 0 0 0.73633-1.6758l-2.877-3.125a1.0001 1.0001 0 0 0-0.73438-0.32226h-15.717c-1.1943 0-2.123-0.93099-2.123-2.125v-16.496h26.744v16.496c0 0.41272-0.11022 0.78314-0.30664 1.1055a1.0001 1.0001 0 0 0 0.11719 1.1973l3.0234 3.2812a1.0001 1.0001 0 0 0 1.5566-0.10742c0.46215-0.66563 0.73438-1.4808 0.73438-2.3516v-23.744c0-2.2676-1.8574-4.125-4.125-4.125h-28.744c-0.010326 0-0.047508-0.00156-0.10938 0zm0.050781 2c-0.00811 2.048e-4 0.014828 0 0.058594 0h26.15c-0.85973 0.41582-1.5488 1.1287-1.5488 2.1387-1e-6 0.98124 0.65392 1.6798 1.4746 2.1094h-26.076a1.0001 1.0001 0 0 0-1 1v17.496c0 2.2676 1.8554 4.125 4.123 4.125h15.277l1.0332 1.123h-19.434c-1.1943 0-2.125-0.92902-2.125-2.123v-23.744c0-1.1762 0.90175-2.0957 2.0664-2.125zm28.236 0h0.56641c1.1943 0 2.125 0.93098 2.125 2.125v23.566l-1.4961-1.6211c0.15383-0.43361 0.37109-0.84296 0.37109-1.3262v-17.496a1.0001 1.0001 0 0 0-1-1h-0.49414c0.82104-0.42945 1.4746-1.1279 1.4746-2.1094-3e-6 -1.0096-0.68764-1.7227-1.5469-2.1387zm-1.0137 1.5762c0.32242 0 0.56055 0.24027 0.56055 0.5625 1e-6 0.32224-0.23812 0.5625-0.56055 0.5625-0.32242 0-0.5625-0.24026-0.5625-0.5625 2e-6 -0.32223 0.24008-0.5625 0.5625-0.5625z" color="#000000" fill="#fff" stroke-linecap="round" stroke-linejoin="round" style="-inkscape-stroke:none"/>
</svg>
