<?xml version="1.0" encoding="UTF-8" standalone="no"?>
<svg
   id="b"
   viewBox="0 0 48 48"
   version="1.1"
   sodipodi:docname="opera.svg"
   xmlns:inkscape="http://www.inkscape.org/namespaces/inkscape"
   xmlns:sodipodi="http://sodipodi.sourceforge.net/DTD/sodipodi-0.dtd"
   xmlns="http://www.w3.org/2000/svg"
   xmlns:svg="http://www.w3.org/2000/svg">
  <sodipodi:namedview
     id="namedview2"
     pagecolor="#ffffff"
     bordercolor="#666666"
     borderopacity="1.0"
     inkscape:showpageshadow="2"
     inkscape:pageopacity="0.0"
     inkscape:pagecheckerboard="0"
     inkscape:deskcolor="#d1d1d1" />
  <defs
     id="defs1">
    <style
       id="style1">.c{fill:none;stroke:#fff;stroke-width:2px;stroke-linecap:round;stroke-linejoin:round;}</style>
  </defs>
  <path
     style="color:#000000;fill:#ffffff;stroke-linecap:round;stroke-linejoin:round;-inkscape-stroke:none"
     d="M 24,1.5 C 11.584999,1.4998954 1.5,11.58561 1.5,24 1.5,36.053861 11.005471,45.913287 22.927734,46.472656 23.279895,46.489243 23.637864,46.5 24,46.5 c 5.698886,0 10.904033,-2.135851 14.869141,-5.632813 0.0037,-0.0024 0.0081,-0.0034 0.01172,-0.0059 l -0.002,-0.002 c 0.03588,-0.03168 0.07956,-0.05403 0.115235,-0.08594 a 1.0001,1.0001 0 0 0 -1.21875,-1.578125 c -2.368211,1.570569 -5.117863,2.464844 -8.064454,2.464844 -4.789144,0 -9.079432,-2.366694 -11.996093,-6.154297 l 0.197265,0.583985 A 1.0001,1.0001 0 0 0 17.685547,35.46875 C 15.485419,32.871586 14.001106,28.93246 13.900391,24.484375 v -0.96875 C 14.00053,19.06762 15.484754,15.129099 17.685547,12.53125 a 1.0001,1.0001 0 0 0 0.0293,-0.03711 c 2.915973,-3.787919 7.207416,-6.1542973 11.996093,-6.1542973 2.94542,0 5.694629,0.8953573 8.0625,2.4667969 a 1.0001,1.0001 0 0 0 1.220704,-1.578125 c -0.03567,-0.031916 -0.07936,-0.054246 -0.115235,-0.085937 l 0.002,-0.00195 c -0.0036,-0.00242 -0.0081,-0.00344 -0.01172,-0.00586 C 34.925051,3.6542939 29.750765,1.5224527 24.083984,1.5019531 h -0.06445 A 1.0001,1.0001 0 0 0 24,1.5 Z m -0.0039,2 0.06445,0.00195 a 1.0001,1.0001 0 0 0 0.01563,0 c 1.918792,0.00694 3.739957,0.3565946 5.498047,0.8554688 -5.384012,0.046221 -10.202471,2.7212485 -13.425782,6.8964841 -2.546628,3.014007 -4.138762,7.362616 -4.248046,12.216797 a 1.0001,1.0001 0 0 0 0,0.02344 v 1.011718 a 1.0001,1.0001 0 0 0 0,0.02344 c 0.109539,4.837836 1.693434,9.171274 4.224609,12.183594 a 1.0001,1.0001 0 0 0 0.0059,0.01367 c 0.0054,0.007 0.01217,0.01253 0.01758,0.01953 0.0041,0.0048 0.0076,0.01078 0.01172,0.01563 l -0.002,-0.0078 c 3.223383,4.168401 8.034607,6.841833 13.414063,6.888672 C 27.791106,44.147988 25.945597,44.5 24,44.5 c -0.324463,0 -0.649324,-0.01 -0.976563,-0.02539 a 1.0001,1.0001 0 0 0 -0.002,0 C 12.146571,43.96438 3.5,35.004115 3.5,24 3.5,12.667738 12.66375,3.5020474 23.996094,3.5 Z"
     id="path1" />
  <path
     style="color:#000000;fill:#ffffff;stroke-linecap:round;stroke-linejoin:round;-inkscape-stroke:none"
     d="m 29.710937,4.3398437 c -5.406317,0 -10.240478,2.6782169 -13.492187,6.8417973 l 0.0059,0.0039 c -0.01096,0.01277 -0.02619,0.01843 -0.03711,0.03125 -0.01684,0.02167 -0.03989,0.03684 -0.05664,0.05859 a 1.0001,1.0001 0 0 0 1.498047,1.316406 1.0001,1.0001 0 0 0 0.05664,-0.06055 c 1.825931,-2.155681 4.09505,-3.3789062 6.542969,-3.3789062 2.750691,0 5.288404,1.5502972 7.199218,4.2226562 1.910815,2.672359 3.132813,6.441853 3.132813,10.625 0,4.183189 -1.222021,7.952649 -3.132813,10.625 -1.910792,2.672351 -4.449252,4.224609 -7.201172,4.224609 -2.446798,0 -4.715615,-1.223214 -6.541015,-3.378906 a 1.0001,1.0001 0 0 0 -1.554688,1.255859 c 0.0094,0.01217 0.02185,0.02106 0.03125,0.0332 l -0.002,0.002 c 0.0053,0.0062 0.0123,0.0094 0.01758,0.01563 3.251977,4.191907 8.108582,6.882812 13.535157,6.882812 3.353476,0 6.495883,-1.026627 9.167968,-2.798828 a 1.0001,1.0001 0 0 0 0.113282,-0.08789 C 43.599189,36.655102 46.5,30.659649 46.5,24 46.5,17.340351 43.599206,11.34714 38.996094,7.2285156 A 1.0001,1.0001 0 0 0 38.882812,7.140625 C 36.209724,5.367472 33.064647,4.3398437 29.710937,4.3398437 Z m 0,2 c 2.923966,0 5.650858,0.8920329 8.007813,2.4414063 C 41.878929,12.534241 44.5,17.950665 44.5,24 c 0,6.050321 -2.620596,11.470268 -6.783203,15.222656 -2.35576,1.54832 -5.079724,2.4375 -8.003906,2.4375 -1.670896,0 -3.245423,-0.37806 -4.757813,-0.914062 3.204286,-0.260404 6.065304,-2.11194 8.099609,-4.957032 2.190754,-3.063893 3.50586,-7.21946 3.50586,-11.789062 0,-4.569644 -1.315128,-8.723274 -3.50586,-11.787109 C 31.020403,9.3678536 28.160491,7.516263 24.957031,7.2558594 26.468927,6.7200431 28.040749,6.3398438 29.710937,6.3398437 Z"
     id="path2" />
</svg>
