<?xml version="1.0" encoding="UTF-8" standalone="no"?>
<svg
   id="b"
   viewBox="0 0 48 48"
   version="1.1"
   sodipodi:docname="opera-beta.svg"
   xmlns:inkscape="http://www.inkscape.org/namespaces/inkscape"
   xmlns:sodipodi="http://sodipodi.sourceforge.net/DTD/sodipodi-0.dtd"
   xmlns="http://www.w3.org/2000/svg"
   xmlns:svg="http://www.w3.org/2000/svg">
  <sodipodi:namedview
     id="namedview29"
     pagecolor="#ffffff"
     bordercolor="#666666"
     borderopacity="1.0"
     inkscape:showpageshadow="2"
     inkscape:pageopacity="0.0"
     inkscape:pagecheckerboard="0"
     inkscape:deskcolor="#d1d1d1" />
  <defs
     id="defs1">
    <style
       id="style1">.c{fill:none;stroke:#fff;stroke-width:2px;stroke-linecap:round;stroke-linejoin:round;}</style>
  </defs>
  <path
     style="color:#000000;fill:#ffffff;stroke-linecap:round;stroke-linejoin:round;-inkscape-stroke:none"
     d="M 24,1.5 C 11.584999,1.4998954 1.5,11.58561 1.5,24 1.5,36.053861 11.005471,45.913287 22.927734,46.472656 23.279895,46.489243 23.637864,46.5 24,46.5 c 5.698886,0 10.904033,-2.135851 14.869141,-5.632813 0.0037,-0.0024 0.0081,-0.0034 0.01172,-0.0059 l -0.002,-0.002 c 0.03588,-0.03168 0.07956,-0.05403 0.115235,-0.08594 a 1.0001,1.0001 0 0 0 -1.21875,-1.578125 c -2.368211,1.570569 -5.117863,2.464844 -8.064454,2.464844 -4.789144,0 -9.079432,-2.366694 -11.996093,-6.154297 l 0.197265,0.583985 A 1.0001,1.0001 0 0 0 17.685547,35.46875 C 15.485419,32.871586 14.001106,28.93246 13.900391,24.484375 v -0.96875 C 14.00053,19.06762 15.484754,15.129099 17.685547,12.53125 a 1.0001,1.0001 0 0 0 0.0293,-0.03711 c 2.915973,-3.787919 7.207416,-6.1542973 11.996093,-6.1542973 2.94542,0 5.694629,0.8953573 8.0625,2.4667969 a 1.0001,1.0001 0 0 0 1.220704,-1.578125 c -0.03567,-0.031916 -0.07936,-0.054246 -0.115235,-0.085937 l 0.002,-0.00195 c -0.0036,-0.00242 -0.0081,-0.00344 -0.01172,-0.00586 C 34.925051,3.6542939 29.750765,1.5224527 24.083984,1.5019531 h -0.06445 A 1.0001,1.0001 0 0 0 24,1.5 Z m -0.0039,2 0.06445,0.00195 a 1.0001,1.0001 0 0 0 0.01563,0 c 1.918792,0.00694 3.739957,0.3565946 5.498047,0.8554688 -5.384012,0.046221 -10.202471,2.7212485 -13.425782,6.8964841 -2.546628,3.014007 -4.138762,7.362616 -4.248046,12.216797 a 1.0001,1.0001 0 0 0 0,0.02344 v 1.011718 a 1.0001,1.0001 0 0 0 0,0.02344 c 0.109539,4.837836 1.693434,9.171274 4.224609,12.183594 a 1.0001,1.0001 0 0 0 0.0059,0.01367 c 0.0054,0.007 0.01217,0.01253 0.01758,0.01953 0.0041,0.0048 0.0076,0.01078 0.01172,0.01563 l -0.002,-0.0078 c 3.223383,4.168401 8.034607,6.841833 13.414063,6.888672 C 27.791106,44.147988 25.945597,44.5 24,44.5 c -0.324463,0 -0.649324,-0.01 -0.976563,-0.02539 a 1.0001,1.0001 0 0 0 -0.002,0 C 12.146571,43.96438 3.5,35.004115 3.5,24 3.5,12.667738 12.66375,3.5020474 23.996094,3.5 Z"
     id="path1" />
  <g
     id="g29">
    <path
       style="color:#000000;fill:#ffffff;stroke-linecap:round;stroke-linejoin:round;-inkscape-stroke:none"
       d="m 38.996094,7.2285156 a 1,1 0 0 0 -1.41211,0.078125 1,1 0 0 0 0.07813,1.4121094 c 0.214119,0.19161 0.424835,0.3874964 0.63086,0.5878906 A 1,1 0 0 0 39.707031,9.2871094 1,1 0 0 0 39.6875,7.8730469 C 39.461725,7.6534415 39.230975,7.4387053 38.996094,7.2285156 Z"
       id="path2" />
    <path
       style="color:#000000;fill:#ffffff;stroke-linecap:round;stroke-linejoin:round;-inkscape-stroke:none"
       d="m 40.302734,8.90625 a 1,1 0 0 0 -0.726562,0.2441406 1,1 0 0 0 -0.09766,1.4101564 c 0.377261,0.434127 0.736193,0.883069 1.076171,1.347656 A 1,1 0 0 0 41.951172,12.125 1,1 0 0 0 42.167969,10.728516 C 41.794748,10.218503 41.401819,9.7239191 40.988281,9.2480469 A 1,1 0 0 0 40.302734,8.90625 Z"
       id="path3" />
    <path
       style="color:#000000;fill:#ffffff;stroke-linecap:round;stroke-linejoin:round;-inkscape-stroke:none"
       d="m 41.845703,11.966797 a 1,1 0 0 0 -0.332031,1.375 c 0.298864,0.489778 0.576361,0.992376 0.833984,1.507812 a 1,1 0 0 0 1.341797,0.447266 1,1 0 0 0 0.447266,-1.341797 c -0.282977,-0.566163 -0.58808,-1.116876 -0.916016,-1.654297 a 1,1 0 0 0 -1.375,-0.333984 z"
       id="path4" />
    <path
       style="color:#000000;fill:#ffffff;stroke-linecap:round;stroke-linejoin:round;-inkscape-stroke:none"
       d="m 43.613281,15.123047 a 1,1 0 0 0 -0.560547,1.298828 c 0.21171,0.531608 0.402967,1.074597 0.570313,1.626953 a 1,1 0 0 0 1.246094,0.667969 1,1 0 0 0 0.667968,-1.248047 c -0.183853,-0.606843 -0.392509,-1.201366 -0.625,-1.785156 a 1,1 0 0 0 -1.298828,-0.560547 z"
       id="path5" />
    <path
       style="color:#000000;fill:#ffffff;stroke-linecap:round;stroke-linejoin:round;-inkscape-stroke:none"
       d="m 44.822266,18.533203 a 1,1 0 0 0 -0.769532,1.185547 c 0.11866,0.558225 0.214925,1.124795 0.28711,1.699219 a 1,1 0 0 0 1.115234,0.86914 1,1 0 0 0 0.869141,-1.117187 c -0.07922,-0.630375 -0.186067,-1.254014 -0.316407,-1.867188 a 1,1 0 0 0 -1.185546,-0.769531 z"
       id="path6" />
    <path
       style="color:#000000;fill:#ffffff;stroke-linecap:round;stroke-linejoin:round;-inkscape-stroke:none"
       d="m 45.439453,22.095703 a 1,1 0 0 0 -0.957031,1.041016 C 44.494257,23.423156 44.5,23.710653 44.5,24 c 0,0.289347 -0.0057,0.57674 -0.01758,0.863281 a 1,1 0 0 0 0.957031,1.041016 1,1 0 0 0 1.041016,-0.957031 C 46.493433,24.633408 46.5,24.317052 46.5,24 c 0,-0.317052 -0.0066,-0.63155 -0.01953,-0.945313 a 1,1 0 0 0 -1.041016,-0.958984 z"
       id="path7" />
    <path
       style="color:#000000;fill:#ffffff;stroke-linecap:round;stroke-linejoin:round;-inkscape-stroke:none"
       d="m 45.455078,25.712891 a 1,1 0 0 0 -1.115234,0.867187 c -0.07219,0.574646 -0.168437,1.142507 -0.28711,1.701172 a 1,1 0 0 0 0.769532,1.185547 1,1 0 0 0 1.185546,-0.769531 c 0.130328,-0.613534 0.237195,-1.236635 0.316407,-1.867188 a 1,1 0 0 0 -0.869141,-1.117187 z"
       id="path8" />
    <path
       style="color:#000000;fill:#ffffff;stroke-linecap:round;stroke-linejoin:round;-inkscape-stroke:none"
       d="m 44.869141,29.285156 a 1,1 0 0 0 -1.246094,0.666016 c -0.167374,0.552352 -0.358703,1.095451 -0.570313,1.626953 a 1,1 0 0 0 0.560547,1.298828 1,1 0 0 0 1.298828,-0.558594 c 0.23239,-0.583696 0.441174,-1.180463 0.625,-1.787109 a 1,1 0 0 0 -0.667968,-1.246094 z"
       id="path9" />
    <path
       style="color:#000000;fill:#ffffff;stroke-linecap:round;stroke-linejoin:round;-inkscape-stroke:none"
       d="m 42.927734,32.650391 a 1,1 0 0 0 -0.578125,0.5 c -0.257771,0.515733 -0.537016,1.019859 -0.835937,1.509765 a 1,1 0 0 0 0.332031,1.375 1,1 0 0 0 1.375,-0.333984 c 0.328079,-0.537693 0.634941,-1.089985 0.917969,-1.65625 a 1,1 0 0 0 -0.447266,-1.341797 1,1 0 0 0 -0.763672,-0.05273 z"
       id="path10" />
    <path
       style="color:#000000;fill:#ffffff;stroke-linecap:round;stroke-linejoin:round;-inkscape-stroke:none"
       d="m 41.951172,35.876953 a 1,1 0 0 0 -1.396485,0.216797 c -0.340113,0.46458 -0.701082,0.914067 -1.078125,1.347656 a 1,1 0 0 0 0.09961,1.410156 1,1 0 0 0 1.410156,-0.09766 c 0.413757,-0.47581 0.808555,-0.968897 1.181641,-1.478515 a 1,1 0 0 0 -0.216797,-1.398438 z"
       id="path11" />
    <path
       style="color:#000000;fill:#ffffff;stroke-linecap:round;stroke-linejoin:round;-inkscape-stroke:none"
       d="m 38.291016,38.695312 c -0.206125,0.200399 -0.414687,0.396277 -0.628907,0.587891 a 1,1 0 0 0 -0.08008,1.412109 1,1 0 0 0 1.41211,0.07813 c 0.23498,-0.210184 0.465531,-0.42493 0.691406,-0.644531 a 1,1 0 0 0 0.01953,-1.414062 1,1 0 0 0 -1.414062,-0.01953 z"
       id="path12" />
    <path
       style="color:#000000;fill:#ffffff;stroke-linecap:round;stroke-linejoin:round;-inkscape-stroke:none"
       d="m 17.005859,35.119141 a 1,1 0 0 0 -0.728515,0.234375 1,1 0 0 0 -0.117188,1.408203 c 0.248251,0.293153 0.50512,0.575108 0.771485,0.841797 a 1,1 0 0 0 1.414062,0 1,1 0 0 0 0.002,-1.414063 c -0.226435,-0.226711 -0.44816,-0.466103 -0.662109,-0.71875 a 1,1 0 0 0 -0.679688,-0.351562 z"
       id="path13" />
    <path
       style="color:#000000;fill:#ffffff;stroke-linecap:round;stroke-linejoin:round;-inkscape-stroke:none"
       d="M 19.826172,37.425781 A 1,1 0 0 0 18.4375,37.6875 a 1,1 0 0 0 0.261719,1.388672 c 0.651149,0.444658 1.339171,0.815818 2.058593,1.101562 a 1,1 0 0 0 1.298829,-0.560547 1,1 0 0 0 -0.560547,-1.298828 c -0.574176,-0.228054 -1.132873,-0.525836 -1.669922,-0.892578 z"
       id="path14" />
    <path
       style="color:#000000;fill:#ffffff;stroke-linecap:round;stroke-linejoin:round;-inkscape-stroke:none"
       d="m 23.298828,38.789062 a 1,1 0 0 0 -1.119141,0.865235 1,1 0 0 0 0.863282,1.11914 c 0.389684,0.05034 0.784435,0.07617 1.183593,0.07617 a 1,1 0 0 0 1,-1 1,1 0 0 0 -1,-1 c -0.31304,0 -0.622218,-0.02108 -0.927734,-0.06055 z"
       id="path15" />
    <path
       style="color:#000000;fill:#ffffff;stroke-linecap:round;stroke-linejoin:round;-inkscape-stroke:none"
       d="m 25.167969,38.787109 c -0.309878,0.04067 -0.623429,0.0625 -0.941407,0.0625 a 1,1 0 0 0 -1,1 1,1 0 0 0 1,1 c 0.405022,0 0.807404,-0.02619 1.203125,-0.07813 a 1,1 0 0 0 0.861329,-1.123047 1,1 0 0 0 -1.123047,-0.861328 z"
       id="path16" />
    <path
       style="color:#000000;fill:#ffffff;stroke-linecap:round;stroke-linejoin:round;-inkscape-stroke:none"
       d="m 29.433594,37.222656 a 1,1 0 0 0 -0.748047,0.16211 c -0.542791,0.376453 -1.106146,0.685639 -1.6875,0.919921 a 1,1 0 0 0 -0.554688,1.300782 1,1 0 0 0 1.302735,0.552734 c 0.727845,-0.293317 1.42267,-0.67296 2.080078,-1.128906 a 1,1 0 0 0 0.251953,-1.392578 1,1 0 0 0 -0.644531,-0.414063 z"
       id="path17" />
    <path
       style="color:#000000;fill:#ffffff;stroke-linecap:round;stroke-linejoin:round;-inkscape-stroke:none"
       d="m 32.847656,34.351562 a 1,1 0 0 0 -1.394531,0.236329 c -0.396497,0.558544 -0.821405,1.070569 -1.271484,1.529296 a 1,1 0 0 0 0.01367,1.414063 1,1 0 0 0 1.414063,-0.01367 c 0.52832,-0.538472 1.020107,-1.131229 1.474609,-1.771484 a 1,1 0 0 0 -0.236328,-1.394532 z"
       id="path18" />
    <path
       style="color:#000000;fill:#ffffff;stroke-linecap:round;stroke-linejoin:round;-inkscape-stroke:none"
       d="m 34.615234,30.435547 a 1,1 0 0 0 -1.289062,0.583984 C 33.082124,31.668213 32.805098,32.2863 32.5,32.871094 a 1,1 0 0 0 0.423828,1.349609 1,1 0 0 0 1.349609,-0.423828 c 0.343502,-0.658405 0.65403,-1.351902 0.925782,-2.074219 a 1,1 0 0 0 -0.583985,-1.287109 z"
       id="path19" />
    <path
       style="color:#000000;fill:#ffffff;stroke-linecap:round;stroke-linejoin:round;-inkscape-stroke:none"
       d="m 35.472656,26.224609 a 1,1 0 0 0 -1.134765,0.84375 c -0.10123,0.687736 -0.237159,1.357665 -0.402344,2.00586 a 1,1 0 0 0 0.722656,1.216797 1,1 0 0 0 1.216797,-0.722657 c 0.182414,-0.715803 0.330237,-1.453721 0.441406,-2.208984 a 1,1 0 0 0 -0.84375,-1.134766 z"
       id="path20" />
    <path
       style="color:#000000;fill:#ffffff;stroke-linecap:round;stroke-linejoin:round;-inkscape-stroke:none"
       d="m 35.486328,21.927734 a 1,1 0 0 0 -0.951172,1.046875 c 0.01623,0.339097 0.02539,0.680064 0.02539,1.025391 0,0.345327 -0.0092,0.688247 -0.02539,1.027344 a 1,1 0 0 0 0.951172,1.046875 1,1 0 0 0 1.046875,-0.951172 c 0.01777,-0.371103 0.02734,-0.745974 0.02734,-1.123047 0,-0.377073 -0.0096,-0.749991 -0.02734,-1.121094 a 1,1 0 0 0 -1.046875,-0.951172 z"
       id="path21" />
    <path
       style="color:#000000;fill:#ffffff;stroke-linecap:round;stroke-linejoin:round;-inkscape-stroke:none"
       d="m 34.658203,17.710937 a 1,1 0 0 0 -0.722656,1.214844 c 0.165218,0.648517 0.301017,1.319973 0.402344,2.007813 a 1,1 0 0 0 1.134765,0.841797 1,1 0 0 0 0.84375,-1.134766 C 36.205133,19.885267 36.057381,19.149476 35.875,18.433594 a 1,1 0 0 0 -1.216797,-0.722657 z"
       id="path22" />
    <path
       style="color:#000000;fill:#ffffff;stroke-linecap:round;stroke-linejoin:round;-inkscape-stroke:none"
       d="M 32.923828,13.78125 A 1,1 0 0 0 32.5,15.130859 c 0.304947,0.584404 0.582193,1.203192 0.826172,1.851563 a 1,1 0 0 0 1.289062,0.583984 1,1 0 0 0 0.582032,-1.289062 C 34.925645,15.555516 34.61689,14.863274 34.273437,14.205078 A 1,1 0 0 0 32.923828,13.78125 Z"
       id="path23" />
    <path
       style="color:#000000;fill:#ffffff;stroke-linecap:round;stroke-linejoin:round;-inkscape-stroke:none"
       d="m 30.904297,10.183594 a 1,1 0 0 0 -0.710938,0.287109 1,1 0 0 0 -0.01172,1.414063 c 0.450201,0.458848 0.874741,0.97039 1.271484,1.529297 a 1,1 0 0 0 1.394531,0.236328 1,1 0 0 0 0.236328,-1.394532 c -0.454656,-0.640492 -0.946011,-1.234686 -1.474609,-1.773437 a 1,1 0 0 0 -0.705078,-0.298828 z"
       id="path24" />
    <path
       style="color:#000000;fill:#ffffff;stroke-linecap:round;stroke-linejoin:round;-inkscape-stroke:none"
       d="m 27.746094,7.8417969 a 1,1 0 0 0 -1.300782,0.5546875 1,1 0 0 0 0.552735,1.3007812 c 0.581362,0.2343746 1.146651,0.5414174 1.689453,0.9179684 A 1,1 0 0 0 30.078125,10.363281 1,1 0 0 0 29.826172,8.9726563 C 29.168775,8.5166081 28.47393,8.1352218 27.746094,7.8417969 Z"
       id="path25" />
    <path
       style="color:#000000;fill:#ffffff;stroke-linecap:round;stroke-linejoin:round;-inkscape-stroke:none"
       d="m 24.228516,7.1523437 a 1,1 0 0 0 -1,1.0000001 1,1 0 0 0 1,1 c 0.317568,-1e-7 0.631434,0.019932 0.941406,0.060547 A 1,1 0 0 0 26.291016,8.3515625 1,1 0 0 0 25.429687,7.2304687 C 25.03446,7.1786834 24.633546,7.1523437 24.228516,7.1523437 Z"
       id="path26" />
    <path
       style="color:#000000;fill:#ffffff;stroke-linecap:round;stroke-linejoin:round;-inkscape-stroke:none"
       d="m 24.228516,7.1523437 c -0.39906,0 -0.795339,0.025685 -1.185547,0.076172 a 1,1 0 0 0 -0.863282,1.1191407 1,1 0 0 0 1.121094,0.8632812 c 0.305392,-0.039513 0.614395,-0.058594 0.927735,-0.058594 a 1,1 0 0 0 1,-1 1,1 0 0 0 -1,-1.0000001 z"
       id="path27" />
    <path
       style="color:#000000;fill:#ffffff;stroke-linecap:round;stroke-linejoin:round;-inkscape-stroke:none"
       d="M 20.757812,7.8222656 C 20.03834,8.1078077 19.350344,8.4792213 18.699219,8.9238281 A 1,1 0 0 0 18.4375,10.314453 1,1 0 0 0 19.828125,10.576172 C 20.364998,10.20958 20.921968,9.909498 21.496094,9.6816406 A 1,1 0 0 0 22.056641,8.3828125 1,1 0 0 0 20.757812,7.8222656 Z"
       id="path28" />
    <path
       style="color:#000000;fill:#ffffff;stroke-linecap:round;stroke-linejoin:round;-inkscape-stroke:none"
       d="m 17.638672,10.105469 a 1,1 0 0 0 -0.707031,0.292969 c -0.266269,0.266593 -0.523142,0.546582 -0.771485,0.839843 a 1,1 0 0 0 0.115235,1.410157 1,1 0 0 0 1.410156,-0.117188 c 0.213857,-0.252538 0.433625,-0.491944 0.660156,-0.71875 a 1,1 0 0 0 0,-1.414062 1,1 0 0 0 -0.707031,-0.292969 z"
       id="path29" />
  </g>
</svg>
