<?xml version="1.0" encoding="UTF-8" standalone="no"?>
<svg
   id="Layer_2"
   data-name="Layer 2"
   viewBox="0 0 48 48"
   version="1.1"
   sodipodi:docname="org.gnome.Terminal.svg"
   xmlns:inkscape="http://www.inkscape.org/namespaces/inkscape"
   xmlns:sodipodi="http://sodipodi.sourceforge.net/DTD/sodipodi-0.dtd"
   xmlns="http://www.w3.org/2000/svg"
   xmlns:svg="http://www.w3.org/2000/svg">
  <sodipodi:namedview
     id="namedview1"
     pagecolor="#ffffff"
     bordercolor="#666666"
     borderopacity="1.0"
     inkscape:showpageshadow="2"
     inkscape:pageopacity="0.0"
     inkscape:pagecheckerboard="0"
     inkscape:deskcolor="#d1d1d1" />
  <defs
     id="defs1">
    <style
       id="style1">.cls-1{fill:none;stroke:#fff;stroke-width:2px;stroke-linecap:round;stroke-linejoin:round;}</style>
  </defs>
  <path
     style="color:#000000;fill:#ffffff;stroke-linecap:round;stroke-linejoin:round;-inkscape-stroke:none"
     d="M 7.4355469,4.5 C 5.8232122,4.4915803 4.4915803,5.8232122 4.5,7.4355469 V 40.564453 C 4.4915803,42.176788 5.8232122,43.50842 7.4355469,43.5 H 40.564453 C 42.176788,43.50842 43.50842,42.176788 43.5,40.564453 V 7.4355469 C 43.50842,5.8232122 42.176788,4.4915803 40.564453,4.5 Z m -0.011719,2 a 1.0001,1.0001 0 0 0 0.00586,0 H 40.570312 a 1.0001,1.0001 0 0 0 0.0059,0 C 41.100258,6.4972632 41.502737,6.8997417 41.5,7.4238281 a 1.0001,1.0001 0 0 0 0,0.00586 V 40.570312 a 1.0001,1.0001 0 0 0 0,0.0059 c 0.0027,0.524086 -0.399742,0.926565 -0.923828,0.923828 a 1.0001,1.0001 0 0 0 -0.0059,0 H 7.4296875 a 1.0001,1.0001 0 0 0 -0.00586,0 C 6.8997417,41.502737 6.4972632,41.100258 6.5,40.576172 a 1.0001,1.0001 0 0 0 0,-0.0059 V 7.4296875 a 1.0001,1.0001 0 0 0 0,-0.00586 C 6.4972632,6.8997417 6.8997417,6.4972632 7.4238281,6.5 Z m 3.6367189,15.544922 a 1,1 0 0 0 -1.3671876,0.365234 1,1 0 0 0 0.3671876,1.365235 l 11.080078,6.404296 -11.080078,6.404297 a 1,1 0 0 0 -0.3671876,1.367188 1,1 0 0 0 1.3671876,0.365234 l 12.580078,-7.271484 a 1.0001,1.0001 0 0 0 0,-1.730469 z m 13.378906,14.404297 a 1,1 0 0 0 -1,1 1,1 0 0 0 1,1 h 13.451172 a 1,1 0 0 0 1,-1 1,1 0 0 0 -1,-1 z"
     id="path1" />
</svg>
