<?xml version="1.0" encoding="UTF-8"?>
<svg id="b" version="1.1" viewBox="0 0 48 48" xmlns="http://www.w3.org/2000/svg">
 <defs id="defs1">
  <style id="style1">.c{fill:none;stroke:#fff;stroke-width:2px;stroke-linecap:round;stroke-linejoin:round;}</style>
 </defs>
 <path id="circle1" d="m24 1.5c-12.415 0-22.5 10.085-22.5 22.5s10.085 22.5 22.5 22.5 22.5-10.085 22.5-22.5-10.085-22.5-22.5-22.5zm0 2c11.334 0 20.5 9.1663 20.5 20.5s-9.1663 20.5-20.5 20.5-20.5-9.1663-20.5-20.5 9.1663-20.5 20.5-20.5z" fill="#fff" stop-color="#000000" stroke-linecap="round" stroke-linejoin="round"/>
 <g id="g3" fill="#fff" stroke-linecap="round" stroke-linejoin="round">
  <g id="g1">
   <path id="path1" d="m31.686 16.33c-3.3209 0-6.0352 2.7123-6.0352 6.0332a1 1 0 0 0 1 1 1 1 0 0 0 1-1c0-2.2401 1.7951-4.0332 4.0352-4.0332 2.2401 0 4.0352 1.7931 4.0352 4.0332v3.2734c0 2.2401-1.7951 4.0332-4.0352 4.0332-2.2401 0-4.0352-1.7931-4.0352-4.0332a1 1 0 0 0-1-1 1 1 0 0 0-1 1c0 3.3209 2.7142 6.0332 6.0352 6.0332 3.3209 0 6.0352-2.7123 6.0352-6.0332v-3.2734c0-3.3209-2.7142-6.0332-6.0352-6.0332z" stop-color="#000000"/>
   <path id="line1" d="m26.65 9.5332a1 1 0 0 0-1 1v20.137a1 1 0 0 0 1 1 1 1 0 0 0 1-1v-20.137a1 1 0 0 0-1-1z" stop-color="#000000"/>
  </g>
  <g id="g2">
   <path id="path2" d="m16.314 16.33c-3.3209 0-6.0352 2.7123-6.0352 6.0332v3.2734c0 3.3209 2.7142 6.0332 6.0352 6.0332 3.3209 0 6.0352-2.7123 6.0352-6.0332a1 1 0 0 0-1-1 1 1 0 0 0-1 1c0 2.2401-1.7951 4.0332-4.0352 4.0332-2.2401 0-4.0352-1.7931-4.0352-4.0332v-3.2734c0-2.2401 1.7951-4.0332 4.0352-4.0332 2.2401 0 4.0352 1.7931 4.0352 4.0332a1 1 0 0 0 1 1 1 1 0 0 0 1-1c0-3.3209-2.7142-6.0332-6.0352-6.0332z" stop-color="#000000"/>
   <path id="line2" d="m21.35 16.33a1 1 0 0 0-1 1v20.137a1 1 0 0 0 1 1 1 1 0 0 0 1-1v-20.137a1 1 0 0 0-1-1z" stop-color="#000000"/>
  </g>
 </g>
</svg>
