<?xml version="1.0" encoding="UTF-8"?>
<svg id="b" version="1.1" viewBox="0 0 48 48" xmlns="http://www.w3.org/2000/svg">
 <defs id="defs4">
  <style id="style2">.c{fill:none;stroke:#fff;stroke-width:2px;stroke-linecap:round;stroke-linejoin:round;}</style>
 </defs>
 <path id="path6" d="m28.973 3.5c-4.6736 0-8.4844 3.8107-8.4844 8.4844a1 1 0 0 0 1 1 1 1 0 0 0 1-1c0-3.5928 2.8916-6.4844 6.4844-6.4844 3.5928 0 6.4824 2.8916 6.4824 6.4844 0 3.5928-2.8897 6.4824-6.4824 6.4824a1 1 0 0 0-1 1 1 1 0 0 0 1 1c4.6736 0 8.4824-3.8088 8.4824-8.4824 0-4.6736-3.8088-8.4844-8.4824-8.4844z" color="#000000" fill="#fff" stroke-linecap="round" stroke-linejoin="round" style="-inkscape-stroke:none"/>
 <path id="path8" d="m28.973 10.678c-4.8426 0-8.791 3.9464-8.791 8.7891 0 3.4598 2.057 6.3834 4.9727 7.8125v12.574a1.0001 1.0001 0 0 0 0.20898 0.61133l2.8184 3.6465a1.0001 1.0001 0 0 0 1.582 0l2.8184-3.6465a1.0001 1.0001 0 0 0 0.20703-0.61133v-12.574c2.916-1.429 4.9727-4.3525 4.9727-7.8125 0-4.8426-3.9464-8.7891-8.7891-8.7891zm0 2c3.7618 0 6.7891 3.0273 6.7891 6.7891 0 2.8887-1.8004 5.326-4.334 6.3125a1.0001 1.0001 0 0 0-0.63867 0.93164v12.801l-1.8164 2.3535-1.8184-2.3535v-12.801a1.0001 1.0001 0 0 0-0.63672-0.93164c-2.5335-0.98652-4.3359-3.4239-4.3359-6.3125 0-3.7618 3.0293-6.7891 6.791-6.7891z" color="#000000" fill="#fff" stroke-linecap="round" stroke-linejoin="round" style="-inkscape-stroke:none"/>
 <path id="path10" d="m18.881 24.127-7.7637 7.7637a1.0001 1.0001 0 0 0-0.28516 0.58008l-0.58594 4.5703a1.0001 1.0001 0 0 0 1.1191 1.1191l4.5703-0.58594a1.0001 1.0001 0 0 0 0.58008-0.28516l7.7637-7.7637a1 1 0 0 0 0-1.4141 1 1 0 0 0-1.4141 0l-7.5215 7.5215-2.9492 0.37891 0.37695-2.9492 7.5234-7.5215a1 1 0 0 0 0-1.4141 1 1 0 0 0-1.4141 0z" color="#000000" fill="#fff" stroke-linecap="round" stroke-linejoin="round" style="-inkscape-stroke:none"/>
</svg>
