<?xml version="1.0" encoding="UTF-8"?>
<svg id="svg13" width="48" height="48" version="1.1" viewBox="0 0 48 48" xmlns="http://www.w3.org/2000/svg">
 <defs id="defs1">
  <style id="style1">.b{fill:none;stroke:#fff;stroke-width:2px;stroke-linecap:round;stroke-linejoin:round;}</style>
 </defs>
 <path id="path1" d="m5.0625 29.031a1 1 0 0 0-1 1v6.3125c0 2.2853 1.871 4.1562 4.1562 4.1562h31.562c2.2853 0 4.1562-1.871 4.1562-4.1562v-6.3125a1 1 0 0 0-1-1 1 1 0 0 0-1 1v6.3125c0 1.212-0.94418 2.1562-2.1562 2.1562h-31.562c-1.212 0-2.1562-0.94418-2.1562-2.1562v-6.3125a1 1 0 0 0-1-1z" fill="#fff" stroke-linecap="round" stroke-linejoin="round"/>
 <path id="path2" d="m8.2285 13.25c-2.2974-0.0234-4.166 1.8709-4.166 4.1562v12.625c0 2.2852 1.8709 4.1562 4.1562 4.1562h31.562c2.2852 0 4.1582-1.8704 4.1582-4.1562v-12.625c0-2.2857-1.8727-4.1565-4.1582-4.1562l-25.633 0.0039a1 1 0 0 0-0.99805 1 1 1 0 0 0 1 1l25.631-0.0039c1.2119-1.39e-4 2.1582 0.94476 2.1582 2.1562v12.625c0 1.2116-0.94622 2.1562-2.1582 2.1562h-31.562c-1.2121 0-2.1562-0.94427-2.1562-2.1562v-12.625c0-1.2121 0.94668-2.1685 2.1465-2.1562l0.37695 0.0039a1 1 0 0 0 1.0098-0.99023 1 1 0 0 0-0.99023-1.0098z" fill="#fff" stroke-linecap="round" stroke-linejoin="round"/>
 <path id="path3" d="m24.002 21.211a1 1 0 0 0-1 1v3.0156a1 1 0 0 0 1 1 1 1 0 0 0 1-1v-3.0156a1 1 0 0 0-1-1z" fill="#fff" stroke-linecap="round" stroke-linejoin="round"/>
 <path id="path4" d="m24 24.227c-1.2187 0-2.3398 0.36192-3.2012 1.0078s-1.4785 1.6292-1.4785 2.752c0 1.1224 0.61724 2.1059 1.4785 2.752s1.9823 1.0098 3.2012 1.0098 2.3418-0.36375 3.2031-1.0098 1.4785-1.6295 1.4785-2.752c0-1.1228-0.61712-2.1061-1.4785-2.752s-1.9845-1.0078-3.2031-1.0078zm0 2c0.81353 0 1.5333 0.25647 2.0039 0.60938 0.47065 0.3529 0.67774 0.74796 0.67774 1.1504 0 0.40147-0.20696 0.79923-0.67774 1.1523s-1.1906 0.60938-2.0039 0.60938-1.5312-0.25626-2.002-0.60938-0.67774-0.75087-0.67774-1.1523c0-0.40243 0.20708-0.79749 0.67774-1.1504 0.47065-0.3529 1.1884-0.60937 2.002-0.60938z" fill="#fff" stroke-linecap="round" stroke-linejoin="round"/>
 <path id="path5" d="m24 15.691c-1.2187 0-2.3398 0.36192-3.2012 1.0078s-1.4785 1.6292-1.4785 2.752c0 1.1224 0.61724 2.1059 1.4785 2.752s1.9823 1.0078 3.2012 1.0078 2.3418-0.3618 3.2031-1.0078 1.4785-1.6295 1.4785-2.752c0-1.1228-0.61712-2.1061-1.4785-2.752s-1.9845-1.0078-3.2031-1.0078zm0 2c0.81353 0 1.5333 0.25452 2.0039 0.60742 0.47065 0.3529 0.67774 0.74992 0.67774 1.1523 0 0.40147-0.20696 0.79923-0.67774 1.1523-0.47077 0.35311-1.1906 0.60742-2.0039 0.60742s-1.5312-0.25431-2.002-0.60742c-0.47077-0.35311-0.67774-0.75087-0.67774-1.1523 0-0.40243 0.20708-0.79944 0.67774-1.1523s1.1884-0.60742 2.002-0.60742z" fill="#fff" stroke-linecap="round" stroke-linejoin="round"/>
 <path id="path6" d="m36.627 15.691c-1.2187 0-2.3417 0.36192-3.2031 1.0078s-1.4766 1.6292-1.4766 2.752c0 1.1224 0.61526 2.1059 1.4766 2.752s1.9842 1.0078 3.2031 1.0078c1.2194 0 2.3419-0.3617 3.2031-1.0078s1.4766-1.6298 1.4766-2.752c0-1.1225-0.61522-2.106-1.4766-2.752s-1.9839-1.0078-3.2031-1.0078zm0 2c0.81431 0 1.5315 0.25461 2.002 0.60742 0.47044 0.35282 0.67774 0.74965 0.67774 1.1523 0 0.40176-0.2072 0.79933-0.67774 1.1523-0.47054 0.35301-1.1878 0.60742-2.002 0.60742-0.81332 0-1.5312-0.2543-2.002-0.60742-0.4708-0.35312-0.67773-0.7509-0.67773-1.1523 0-0.40243 0.20707-0.79944 0.67773-1.1523s1.1884-0.60742 2.002-0.60742z" fill="#fff" stroke-linecap="round" stroke-linejoin="round"/>
 <path id="path7" d="m36.627 21.211a1 1 0 0 0-1 1v3.0156a1 1 0 0 0 1 1 1 1 0 0 0 1-1v-3.0156a1 1 0 0 0-1-1z" fill="#fff" stroke-linecap="round" stroke-linejoin="round"/>
 <path id="path8" d="m36.627 24.227c-1.2187 0-2.3417 0.36192-3.2031 1.0078s-1.4766 1.6292-1.4766 2.752c0 1.1225 0.61526 2.1059 1.4766 2.752 0.8613 0.64601 1.9842 1.0098 3.2031 1.0098 1.2194 0 2.3419-0.36365 3.2031-1.0098 0.86121-0.64611 1.4766-1.6298 1.4766-2.752 0-1.1225-0.61522-2.106-1.4766-2.752s-1.9839-1.0078-3.2031-1.0078zm0 2c0.81431 0 1.5315 0.25461 2.002 0.60742 0.47044 0.35282 0.67774 0.74965 0.67774 1.1523 0 0.40176-0.2072 0.79933-0.67774 1.1523-0.47054 0.35301-1.1878 0.60938-2.002 0.60938-0.81332 0-1.5312-0.25626-2.002-0.60938-0.4708-0.35312-0.67773-0.75089-0.67773-1.1523 0-0.40243 0.20707-0.79748 0.67773-1.1504 0.47066-0.3529 1.1884-0.60937 2.002-0.60938z" fill="#fff" stroke-linecap="round" stroke-linejoin="round"/>
 <path id="path9" d="m11.375 20.648a1 1 0 0 0-1 1v3.5781a1 1 0 0 0 1 1 1 1 0 0 0 1-1v-3.5781a1 1 0 0 0-1-1z" fill="#fff" stroke-linecap="round" stroke-linejoin="round"/>
 <path id="path10" d="m8.6152 10.607a1 1 0 0 0-1.0059 0.99414l-0.041016 7.9707a1.0001 1.0001 0 0 0 0 0.0059c0.00112 0.94483 0.5361 1.7528 1.2402 2.2695 0.70413 0.51672 1.6015 0.80078 2.5664 0.80078 0.96434 0 1.8599-0.28289 2.5645-0.79883 0.70459-0.51593 1.2422-1.3259 1.2422-2.2715v-2e-3a1.0001 1.0001 0 0 0 0-0.0059l-0.04687-7.9687a1 1 0 0 0-1.0059-0.99414 1 1 0 0 0-0.99414 1.0059l0.04687 7.9668c-4.4e-4 0.19761-0.10686 0.42415-0.42383 0.65625-0.31764 0.23259-0.82326 0.41211-1.3828 0.41211-0.55898 0-1.0652-0.18096-1.3828-0.41406-0.31765-0.23306-0.42359-0.45949-0.42383-0.65816l0.041016-7.9648a1 1 0 0 0-0.99414-1.0039z" fill="#fff" stroke-linecap="round" stroke-linejoin="round"/>
 <path id="path11" d="m11.375 24.227c-1.2187 0-2.3417 0.36192-3.2031 1.0078s-1.4766 1.6292-1.4766 2.752c0 1.1225 0.61526 2.1059 1.4766 2.752 0.8613 0.64601 1.9842 1.0098 3.2031 1.0098 1.2194 0 2.3419-0.36365 3.2031-1.0098 0.86121-0.64611 1.4766-1.6298 1.4766-2.752 0-1.1225-0.61522-2.106-1.4766-2.752s-1.9839-1.0078-3.2031-1.0078zm0 2c0.81431 0 1.5315 0.25461 2.002 0.60742s0.67774 0.74965 0.67774 1.1523c0 0.40176-0.2072 0.79933-0.67774 1.1523-0.47054 0.35301-1.1878 0.60938-2.002 0.60938-0.81332 0-1.5312-0.25626-2.002-0.60938-0.4708-0.35312-0.67773-0.75089-0.67773-1.1523 0-0.40243 0.20707-0.79748 0.67773-1.1504 0.47066-0.3529 1.1884-0.60938 2.002-0.60938z" fill="#fff" stroke-linecap="round" stroke-linejoin="round"/>
 <path id="path12" d="m11.371 8.5547c-0.9634 0-1.8537 0.28228-2.5488 0.79883-0.69517 0.51654-1.2129 1.3237-1.2129 2.2539s0.51772 1.7374 1.2129 2.2539c0.69517 0.51654 1.5854 0.79688 2.5488 0.79688 0.96386 0 1.8554-0.28034 2.5508-0.79688s1.2129-1.3237 1.2129-2.2539c0-0.93023-0.5175-1.7374-1.2129-2.2539s-1.5869-0.79883-2.5508-0.79883zm0 2c0.56262 0 1.053 0.1782 1.3574 0.4043s0.40625 0.44563 0.40625 0.64844c0 0.20286-0.10187 0.42235-0.40625 0.64844-0.30438 0.22609-0.79478 0.40234-1.3574 0.40234-0.5618 0-1.0512-0.17625-1.3555-0.40234-0.30428-0.2261-0.40625-0.44563-0.40625-0.64844s0.10197-0.42234 0.40625-0.64844c0.30428-0.2261 0.79366-0.4043 1.3555-0.4043z" fill="#fff" stroke-linecap="round" stroke-linejoin="round"/>
 <path id="path13" d="m4.498 2.9238a1 1 0 0 0-0.9707 1.0273 1 1 0 0 0 1.0273 0.9707c1.1802-0.03314 2.2442 0.064491 3.0723 0.32812 1.522 0.4848 2.0917 1.358 2.4336 2.5312 0.34194 1.1732 0.31055 2.6132 0.31055 3.8262a1 1 0 0 0 1 1 1 1 0 0 0 1-1c0-1.1539 0.07542-2.7877-0.39062-4.3867-0.46605-1.5991-1.6166-3.1986-3.7461-3.877-1.1506-0.36629-2.4201-0.45688-3.7363-0.41992z" fill="#fff" stroke-linecap="round" stroke-linejoin="round"/>
</svg>
