<?xml version="1.0" encoding="UTF-8"?>
<svg id="svg8" version="1.1" viewBox="0 0 48 48" xmlns="http://www.w3.org/2000/svg">
 <defs id="defs4">
  <style id="style2">.a{fill:none;stroke:#fff;stroke-width:2px;stroke-linecap:round;stroke-linejoin:round;}</style>
 </defs>
 <path id="path6" d="m28.51 9.1426a1.0001 1.0001 0 0 0-0.85156 0.75781l-6.0645 25.121-7.0508-13.65a1.0001 1.0001 0 0 0-1.6719-0.16211l-9.1563 11.57a1 1 0 0 0 0.16406 1.4043 1 1 0 0 0 1.4062-0.16406l8.1914-10.354 7.5723 14.658a1.0001 1.0001 0 0 0 1.8613-0.22461l6.0645-25.127 3.002 5.791a1.0001 1.0001 0 0 0 1.6309 0.20898l5.1914-5.7637 3.8184 7.1504a1 1 0 0 0 1.3535 0.41016 1 1 0 0 0 0.41211-1.3535l-4.4902-8.4062a1.0001 1.0001 0 0 0-1.625-0.19727l-5.1797 5.75-3.5703-6.8867a1.0001 1.0001 0 0 0-1.0078-0.5332z" color="#000000" fill="#fff" stroke-linecap="round" stroke-linejoin="round" style="-inkscape-stroke:none"/>
</svg>
