<?xml version="1.0" encoding="UTF-8"?>
<svg id="svg2" version="1.1" viewBox="0 0 48 48" xmlns="http://www.w3.org/2000/svg">
 <defs id="defs1">
  <style id="style1">.a{fill:none;stroke:#fff;stroke-width:2px;stroke-linecap:round;stroke-linejoin:round;}</style>
 </defs>
 <path id="path1" d="m24 1.5c-12.412 0.005769-22.494 10.088-22.5 22.5 0 9.9809 6.0697 17.549 13.889 20.787s17.463 2.1778 24.52-4.8789 8.1172-16.701 4.8789-24.52-10.806-13.889-20.787-13.889zm0 2c9.1749 0 15.98 5.5082 18.939 12.654 2.9596 7.1461 2.0415 15.853-4.4453 22.34s-15.194 7.4049-22.34 4.4453c-7.1461-2.9596-12.654-9.7646-12.654-18.939 0.0052669-11.332 9.1683-20.495 20.5-20.5z" color="#000000" fill="#fff" stroke-linecap="round" stroke-linejoin="round" style="-inkscape-stroke:none"/>
 <path id="circle1" d="m24 20.5c-1.9212 0-3.5 1.5788-3.5 3.5s1.5788 3.5 3.5 3.5 3.5-1.5788 3.5-3.5-1.5788-3.5-3.5-3.5zm0 2c0.84027 0 1.5 0.65973 1.5 1.5s-0.65973 1.5-1.5 1.5-1.5-0.65973-1.5-1.5 0.65973-1.5 1.5-1.5z" color="#000000" fill="#fff" stroke-linecap="round" stroke-linejoin="round" style="-inkscape-stroke:none"/>
 <path id="line1" d="m24 10.439a1 1 0 0 0-1 1v10.061a1 1 0 0 0 1 1 1 1 0 0 0 1-1v-10.061a1 1 0 0 0-1-1z" color="#000000" fill="#fff" stroke-linecap="round" stroke-linejoin="round" style="-inkscape-stroke:none"/>
 <path id="line2" d="m25.885 24.373a1 1 0 0 0-0.62695 0.4375 1 1 0 0 0 0.30274 1.3828l12.201 7.7988a1 1 0 0 0 1.3809-0.30273 1 1 0 0 0-0.30469-1.3828l-12.199-7.7988a1 1 0 0 0-0.75391-0.13476z" color="#000000" fill="#fff" stroke-linecap="round" stroke-linejoin="round" style="-inkscape-stroke:none"/>
</svg>
