<?xml version="1.0" encoding="UTF-8"?>
<svg id="Layer_2" data-name="Layer 2" version="1.1" viewBox="0 0 48 48" xmlns="http://www.w3.org/2000/svg">
 <defs id="defs1">
  <style id="style1">.cls-1{fill:none;stroke:#fff;stroke-width:2px;stroke-linecap:round;stroke-linejoin:round;}</style>
 </defs>
 <path id="polygon1" d="m42.172 3.5098-25.1 3.4805a1.0001 1.0001 0 0 0-0.86133 0.99023v8.8789a1.0001 1.0001 0 0 0 1.1367 0.99023l25.1-3.4785a1.0001 1.0001 0 0 0 0.86328-0.99024v-8.8809a1.0001 1.0001 0 0 0-1.1387-0.99023zm-0.86133 2.1387v6.8594l-23.1 3.2031v-6.8594z" fill="#fff" stroke-linecap="round" stroke-linejoin="round"/>
 <path id="line1" d="m42.311 12.381a1 1 0 0 0-1 1v17.148a1 1 0 0 0 1 1 1 1 0 0 0 1-1v-17.148a1 1 0 0 0-1-1z" fill="#fff" stroke-linecap="round" stroke-linejoin="round"/>
 <path id="line2" d="m17.211 15.859a1 1 0 0 0-1 1v20.881a1 1 0 0 0 1 1 1 1 0 0 0 1-1v-20.881a1 1 0 0 0-1-1z" fill="#fff" stroke-linecap="round" stroke-linejoin="round"/>
 <path id="circle2" d="m11.449 30.98c-3.7216 0-6.7598 3.0382-6.7598 6.7598 0 3.7216 3.0382 6.7598 6.7598 6.7598 3.7216 0 6.7617-3.0382 6.7617-6.7598 0-3.7216-3.0401-6.7598-6.7617-6.7598zm0 2c2.6407 0 4.7617 2.119 4.7617 4.7598 0 2.6407-2.121 4.7598-4.7617 4.7598-2.6407 0-4.7598-2.119-4.7598-4.7598 0-2.6407 2.119-4.7598 4.7598-4.7598z" fill="#fff" stroke-linecap="round" stroke-linejoin="round"/>
 <path id="circle3" d="m36.551 23.77c-3.7216 0-6.7617 3.0382-6.7617 6.7598 0 3.7216 3.0401 6.7598 6.7617 6.7598 3.7216 0 6.7598-3.0382 6.7598-6.7598 0-3.7216-3.0382-6.7598-6.7598-6.7598zm0 2c2.6407 0 4.7598 2.119 4.7598 4.7598s-2.119 4.7598-4.7598 4.7598-4.7617-2.119-4.7617-4.7598c0-2.6407 2.121-4.7598 4.7617-4.7598z" fill="#fff" stroke-linecap="round" stroke-linejoin="round"/>
</svg>
