<?xml version="1.0" encoding="UTF-8"?>
<svg id="svg8" version="1.1" viewBox="0 0 48 48" xmlns="http://www.w3.org/2000/svg">
 <defs id="defs1">
  <style id="style1">.a{fill:none;stroke:#fff;stroke-width:2px;stroke-linecap:round;stroke-linejoin:round;}</style>
 </defs>
 <path id="path1" d="m8.0996 6.8594c-1.6005 0-2.9199 1.3175-2.9199 2.918v31.803c0 1.6005 1.3194 2.92 2.9199 2.9199h31.801c1.6005 8.3e-5 2.9199-1.3194 2.9199-2.9199v-31.803c0-1.6005-1.3194-2.918-2.9199-2.918zm0 2h31.801c0.51961 0 0.91992 0.39835 0.91992 0.91797v31.803c1e-6 0.51958-0.40034 0.91995-0.91992 0.91992h-31.801c-0.51958 2.7e-5 -0.91992-0.40034-0.91992-0.91992v-31.803c0-0.51961 0.40031-0.91797 0.91992-0.91797z" color="#000000" fill="#fff" stroke-linecap="round" stroke-linejoin="round" style="-inkscape-stroke:none"/>
 <path id="rect1" d="m9.0684 32.543a1.0001 1.0001 0 0 0-1 1v7.0781a1.0001 1.0001 0 0 0 1 1h7.4961a1.0001 1.0001 0 0 0 1-1v-7.0781a1.0001 1.0001 0 0 0-1-1zm1 2h5.4961v5.0781h-5.4961z" color="#000000" fill="#fff" stroke-linecap="round" stroke-linejoin="round" style="-inkscape-stroke:none"/>
 <path id="rect2" d="m20.252 32.543a1.0001 1.0001 0 0 0-1 1v7.0781a1.0001 1.0001 0 0 0 1 1h7.4961a1.0001 1.0001 0 0 0 1-1v-7.0781a1.0001 1.0001 0 0 0-1-1zm1 2h5.4961v5.0781h-5.4961z" color="#000000" fill="#fff" stroke-linecap="round" stroke-linejoin="round" style="-inkscape-stroke:none"/>
 <path id="rect3" d="m31.436 32.543a1.0001 1.0001 0 0 0-1 1v7.0781a1.0001 1.0001 0 0 0 1 1h7.4961a1.0001 1.0001 0 0 0 1-1v-7.0781a1.0001 1.0001 0 0 0-1-1zm1 2h5.4961v5.0781h-5.4961z" color="#000000" fill="#fff" stroke-linecap="round" stroke-linejoin="round" style="-inkscape-stroke:none"/>
 <path id="rect4" d="m9.0684 22.336a1.0001 1.0001 0 0 0-1 1v7.0781a1.0001 1.0001 0 0 0 1 1h7.4961a1.0001 1.0001 0 0 0 1-1v-7.0781a1.0001 1.0001 0 0 0-1-1zm1 2h5.4961v5.0781h-5.4961z" color="#000000" fill="#fff" stroke-linecap="round" stroke-linejoin="round" style="-inkscape-stroke:none"/>
 <path id="rect5" d="m20.252 22.336a1.0001 1.0001 0 0 0-1 1v7.0781a1.0001 1.0001 0 0 0 1 1h7.4961a1.0001 1.0001 0 0 0 1-1v-7.0781a1.0001 1.0001 0 0 0-1-1zm1 2h5.4961v5.0781h-5.4961z" color="#000000" fill="#fff" stroke-linecap="round" stroke-linejoin="round" style="-inkscape-stroke:none"/>
 <path id="rect6" d="m31.436 22.336a1.0001 1.0001 0 0 0-1 1v7.0781a1.0001 1.0001 0 0 0 1 1h7.4961a1.0001 1.0001 0 0 0 1-1v-7.0781a1.0001 1.0001 0 0 0-1-1zm1 2h5.4961v5.0781h-5.4961z" color="#000000" fill="#fff" stroke-linecap="round" stroke-linejoin="round" style="-inkscape-stroke:none"/>
 <path id="rect7" d="m31.436 12.598a1.0001 1.0001 0 0 0-1 1v7.0781a1.0001 1.0001 0 0 0 1 1h7.4961a1.0001 1.0001 0 0 0 1-1v-7.0781a1.0001 1.0001 0 0 0-1-1zm1 2h5.4961v5.0781h-5.4961z" color="#000000" fill="#fff" stroke-linecap="round" stroke-linejoin="round" style="-inkscape-stroke:none"/>
 <path id="line7" d="m12.816 3.5a1 1 0 0 0-1 1v5.7578a1 1 0 0 0 1 1 1 1 0 0 0 1-1v-5.7578a1 1 0 0 0-1-1z" color="#000000" fill="#fff" stroke-linecap="round" stroke-linejoin="round" style="-inkscape-stroke:none"/>
 <path id="line8" d="m35.184 3.5a1 1 0 0 0-1 1v5.7578a1 1 0 0 0 1 1 1 1 0 0 0 1-1v-5.7578a1 1 0 0 0-1-1z" color="#000000" fill="#fff" stroke-linecap="round" stroke-linejoin="round" style="-inkscape-stroke:none"/>
</svg>
