<?xml version="1.0" encoding="UTF-8"?>
<svg id="b" version="1.1" viewBox="0 0 48 48" xmlns="http://www.w3.org/2000/svg">
 <defs id="defs4">
  <style id="style2">.g{fill:none;stroke:#fff;stroke-width:2px;stroke-linecap:round;stroke-linejoin:round;}</style>
 </defs>
 <path id="c" d="m9.5 4.5c-2.7496 0-5 2.2504-5 5v8c0 2.7496 2.2504 5 5 5h8c2.7496 0 5-2.2504 5-5v-8c0-2.7496-2.2504-5-5-5zm0 2h8c1.6686 0 3 1.3314 3 3v8c0 1.6686-1.3314 3-3 3h-8c-1.6686 0-3-1.3314-3-3v-8c0-1.6686 1.3314-3 3-3z" color="#000000" fill="#fff" stroke-linecap="round" stroke-linejoin="round" style="-inkscape-stroke:none"/>
 <path id="d" d="m30.5 4.5c-2.7496 0-5 2.2504-5 5v8c0 2.7496 2.2504 5 5 5h8c2.7496 0 5-2.2504 5-5v-8c0-2.7496-2.2504-5-5-5zm0 2h8c1.6686 0 3 1.3314 3 3v8c0 1.6686-1.3314 3-3 3h-8c-1.6686 0-3-1.3314-3-3v-8c0-1.6686 1.3314-3 3-3z" color="#000000" fill="#fff" stroke-linecap="round" stroke-linejoin="round" style="-inkscape-stroke:none"/>
 <path id="e" d="m9.5 25.5c-2.7496 0-5 2.2504-5 5v8c0 2.7496 2.2504 5 5 5h8c2.7496 0 5-2.2504 5-5v-8c0-2.7496-2.2504-5-5-5zm0 2h8c1.6686 0 3 1.3314 3 3v8c0 1.6686-1.3314 3-3 3h-8c-1.6686 0-3-1.3314-3-3v-8c0-1.6686 1.3314-3 3-3z" color="#000000" fill="#fff" stroke-linecap="round" stroke-linejoin="round" style="-inkscape-stroke:none"/>
 <path id="f" d="m30.5 25.5c-2.7496 0-5 2.2504-5 5v8c0 2.7496 2.2504 5 5 5h8c2.7496 0 5-2.2504 5-5v-8c0-2.7496-2.2504-5-5-5zm0 2h8c1.6686 0 3 1.3314 3 3v8c0 1.6686-1.3314 3-3 3h-8c-1.6686 0-3-1.3314-3-3v-8c0-1.6686 1.3314-3 3-3z" color="#000000" fill="#fff" stroke-linecap="round" stroke-linejoin="round" style="-inkscape-stroke:none"/>
</svg>
