<?xml version="1.0" encoding="UTF-8"?>
<svg id="a" version="1.1" viewBox="0 0 48 48" xmlns="http://www.w3.org/2000/svg">
 <defs id="defs1">
  <style id="style1">.b{fill:none;stroke:#fff;stroke-width:2px;stroke-linecap:round;stroke-linejoin:round;}</style>
 </defs>
 <path id="path1" d="m12.5 3.5c-2.7496 0-5 2.2504-5 5v31c0 2.7496 2.2504 5 5 5h23c2.7496 0 5-2.2504 5-5v-31c0-2.7496-2.2504-5-5-5zm0 2h23c1.6686 0 3 1.3314 3 3v31c0 1.6686-1.3314 3-3 3h-23c-1.6686 0-3-1.3314-3-3v-31c0-1.6686 1.3314-3 3-3zm11.5 6.7754c-3.5023 0-6.3633 2.859-6.3633 6.3613 0 3.4367 2.7654 6.2217 6.1777 6.3262-2.9976 0.01756-5.7023 0.42236-7.7402 1.123-1.0413 0.35801-1.9149 0.78477-2.5918 1.332-0.67691 0.54726-1.207 1.2916-1.207 2.1875v5.1191a1.0001 1.0001 0 0 0 1 1h21.449a1.0001 1.0001 0 0 0 1-1v-5.1191c0-0.89603-0.53005-1.6403-1.207-2.1875s-1.5505-0.97404-2.5918-1.332c-2.038-0.70066-4.7431-1.1054-7.7402-1.123 3.4123-0.10447 6.1777-2.8895 6.1777-6.3262 0-3.5023-2.8609-6.3613-6.3633-6.3613zm0 2c2.4218 0 4.3633 1.9395 4.3633 4.3613s-1.9414 4.3633-4.3633 4.3633-4.3633-1.9414-4.3633-4.3633 1.9414-4.3613 4.3633-4.3613zm0 12.674c2.8899 4.8e-5 5.487 0.41446 7.2754 1.0293 0.8942 0.30742 1.5826 0.66938 1.9844 0.99414 0.40176 0.32476 0.46484 0.53434 0.46484 0.63281v4.1191h-19.449v-4.1191c0-0.09856 0.06316-0.30807 0.46484-0.63281 0.40168-0.32475 1.0903-0.68672 1.9844-0.99414 1.7882-0.61484 4.385-1.0293 7.2754-1.0293z" color="#000000" fill="#fff" stroke-linecap="round" stroke-linejoin="round" style="-inkscape-stroke:none"/>
</svg>
