<?xml version="1.0" encoding="UTF-8"?>
<svg id="a" version="1.1" viewBox="0 0 48 48" xmlns="http://www.w3.org/2000/svg">
 <defs id="defs4">
  <style id="style2">.d{fill:none;stroke:#fff;stroke-width:2px;stroke-linecap:round;stroke-linejoin:round;}</style>
 </defs>
 <path id="path6" d="m9.5 4.5c-2.7527 0-5 2.2473-5 5v21c0 7.1847 5.8153 13 13 13h21c2.7527 0 5-2.2473 5-5v-21c0-7.1847-5.8153-13-13-13zm0 2h21c6.1113 0 11 4.8887 11 11v21c0 1.6793-1.3207 3-3 3h-21c-6.1113 0-11-4.8887-11-11v-21c0-1.6793 1.3207-3 3-3z" color="#000000" fill="#fff" stroke-linecap="round" stroke-linejoin="round" style="-inkscape-stroke:none"/>
 <path id="path8" d="m29.389 13.666c-5.6173 0-8.8214 2.9666-9.6621 5.9434-0.42035 1.4884-0.29044 3.0034 0.51367 4.1309 0.80411 1.1275 2.3577 1.6714 4.0176 1.2266 1.0702-0.28679 1.5269-0.03031 1.873 0.45508 0.34615 0.48539 0.50715 1.3959 0.2168 2.4238-0.5807 2.0559-2.8014 4.4883-7.7363 4.4883-8.1321 0-12.201-8.75-12.201-8.75a1 1 0 0 0-1.3262-0.49414 1 1 0 0 0-0.49414 1.3262s4.481 9.918 14.021 9.918c5.6171 0 8.8194-2.9666 9.6602-5.9434 0.42039-1.4884 0.29235-3.0033-0.51172-4.1309-0.80407-1.1275-2.3597-1.6714-4.0195-1.2266-1.0702 0.28679-1.5249 0.03033-1.8711-0.45508s-0.50712-1.3959-0.2168-2.4238c0.58064-2.0559 2.8011-4.4883 7.7363-4.4883 8.1322 0 12.201 8.75 12.201 8.75a1 1 0 0 0 1.3262 0.49414 1 1 0 0 0 0.49219-1.3262s-4.4789-9.918-14.02-9.918z" color="#000000" fill="#fff" stroke-linecap="round" stroke-linejoin="round" style="-inkscape-stroke:none"/>
 <path id="path10" d="m23.584 4.5898s-9.918 4.481-9.918 14.021c0 5.6171 2.9666 8.8194 5.9434 9.6602 1.4884 0.42039 3.0033 0.29235 4.1309-0.51172 1.1275-0.80407 1.6714-2.3597 1.2266-4.0195-0.28679-1.0702-0.03033-1.5249 0.45508-1.8711s1.3959-0.50712 2.4238-0.2168c2.0559 0.58064 4.4883 2.8011 4.4883 7.7363 0 8.1322-8.75 12.201-8.75 12.201a1 1 0 0 0-0.49414 1.3262 1 1 0 0 0 1.3262 0.49219s9.918-4.4789 9.918-14.02c0-5.6173-2.9666-8.8214-5.9434-9.6621-1.4884-0.42035-3.0034-0.29044-4.1309 0.51367-1.1275 0.80411-1.6714 2.3577-1.2266 4.0176 0.28679 1.0702 0.03031 1.5269-0.45508 1.873-0.48539 0.34615-1.3959 0.50715-2.4238 0.2168-2.0559-0.5807-4.4883-2.8014-4.4883-7.7363 0-8.1321 8.75-12.201 8.75-12.201a1 1 0 0 0 0.49414-1.3262 1 1 0 0 0-1.3262-0.49414z" color="#000000" fill="#fff" stroke-linecap="round" stroke-linejoin="round" style="-inkscape-stroke:none"/>
</svg>
