<?xml version="1.0" encoding="UTF-8"?>
<svg id="a" version="1.1" viewBox="0 0 48 48" xmlns="http://www.w3.org/2000/svg">
 <defs id="defs1">
  <style id="style1">.b{fill:none;stroke:#fff;stroke-width:2px;stroke-linecap:round;stroke-linejoin:round;}</style>
 </defs>
 <path id="path1" d="m24 1.5c-12.412 0.0057502-22.494 10.088-22.5 22.5 0 12.415 10.085 22.5 22.5 22.5s22.5-10.085 22.5-22.5-10.085-22.5-22.5-22.5zm0 2c11.334 0 20.5 9.1663 20.5 20.5s-9.1663 20.5-20.5 20.5-20.5-9.1663-20.5-20.5c0.0052498-11.332 9.1683-20.495 20.5-20.5z" fill="#fff" stroke-linecap="round" stroke-linejoin="round"/>
 <path id="circle1" d="m24 20.5c-1.9212 0-3.5 1.5788-3.5 3.5s1.5788 3.5 3.5 3.5 3.5-1.5788 3.5-3.5-1.5788-3.5-3.5-3.5zm0 2c0.84027 0 1.5 0.65973 1.5 1.5s-0.65973 1.5-1.5 1.5-1.5-0.65973-1.5-1.5 0.65973-1.5 1.5-1.5z" fill="#fff" stroke-linecap="round" stroke-linejoin="round"/>
 <path id="line1" d="m24 10.439a1 1 0 0 0-1 1v10.061a1 1 0 0 0 1 1 1 1 0 0 0 1-1v-10.061a1 1 0 0 0-1-1z" fill="#fff" stroke-linecap="round" stroke-linejoin="round"/>
 <path id="line2" d="m25.885 24.373a1 1 0 0 0-0.62695 0.4375 1 1 0 0 0 0.30274 1.3828l12.201 7.7988a1 1 0 0 0 1.3809-0.30273 1 1 0 0 0-0.30469-1.3828l-12.199-7.7988a1 1 0 0 0-0.75391-0.13476z" fill="#fff" stroke-linecap="round" stroke-linejoin="round"/>
</svg>
