<?xml version="1.0" encoding="UTF-8"?>
<svg id="a" version="1.1" viewBox="0 0 48 48" xmlns="http://www.w3.org/2000/svg">
 <defs id="defs1">
  <style id="style1">.b{fill:none;stroke:#fff;stroke-width:2px;stroke-linecap:round;stroke-linejoin:round;}</style>
 </defs>
 <path id="path1" d="m29.947 24.947c-2.7496 0-5 2.2504-5 5v8.5527c0 2.7496 2.2504 5 5 5h8.5527c2.7496 0 5-2.2504 5-5v-8.5527c0-2.7496-2.2504-5-5-5zm0 2h8.5527c1.6686 0 3 1.3314 3 3v8.5527c0 1.6686-1.3314 3-3 3h-8.5527c-1.6686 0-3-1.3314-3-3v-8.5527c0-1.6686 1.3314-3 3-3z" fill="#fff" stop-color="#000000" stroke-linecap="round" stroke-linejoin="round"/>
 <path id="path2" d="m9.5 4.5c-2.7496 0-5 2.2504-5 5v8.5527c0 2.7496 2.2504 5 5 5h8.5527c2.7496 0 5-2.2504 5-5v-8.5527c0-2.7496-2.2504-5-5-5zm0 2h8.5527c1.6686 0 3 1.3314 3 3v8.5527c0 1.6686-1.3314 3-3 3h-8.5527c-1.6686 0-3-1.3314-3-3v-8.5527c0-1.6686 1.3314-3 3-3z" fill="#fff" stop-color="#000000" stroke-linecap="round" stroke-linejoin="round"/>
 <path id="rect2" d="m29.947 4.5c-2.7527 0-5 2.2473-5 5v8.5527c0 2.7527 2.2473 5 5 5h8.5527c2.7527 0 5-2.2473 5-5v-8.5527c0-2.7527-2.2473-5-5-5zm0 2h8.5527c1.6793 0 3 1.3207 3 3v8.5527c0 1.6793-1.3207 3-3 3h-8.5527c-1.6793 0-3-1.3207-3-3v-8.5527c0-1.6793 1.3207-3 3-3z" fill="#fff" stop-color="#000000" stroke-linecap="round" stroke-linejoin="round"/>
 <path id="rect3" d="m9.5 24.947c-2.7527 0-5 2.2473-5 5v8.5527c0 2.7527 2.2473 5 5 5h8.5527c2.7527 0 5-2.2473 5-5v-8.5527c0-2.7527-2.2473-5-5-5zm0 2h8.5527c1.6793 0 3 1.3207 3 3v8.5527c0 1.6793-1.3207 3-3 3h-8.5527c-1.6793 0-3-1.3207-3-3v-8.5527c0-1.6793 1.3207-3 3-3z" fill="#fff" stop-color="#000000" stroke-linecap="round" stroke-linejoin="round"/>
 <path id="line3" d="m13.775 7.4219a1 1 0 0 0-1 1v10.709a1 1 0 0 0 1 1 1 1 0 0 0 1-1v-10.709a1 1 0 0 0-1-1z" fill="#fff" stop-color="#000000" stroke-linecap="round" stroke-linejoin="round"/>
 <path id="line4" d="m8.4219 12.775a1 1 0 0 0-1 1 1 1 0 0 0 1 1h10.709a1 1 0 0 0 1-1 1 1 0 0 0-1-1z" fill="#fff" stop-color="#000000" stroke-linecap="round" stroke-linejoin="round"/>
 <path id="line5" d="m28.869 30.303a1 1 0 0 0-1 1 1 1 0 0 0 1 1h10.709a1 1 0 0 0 1-1 1 1 0 0 0-1-1z" fill="#fff" stop-color="#000000" stroke-linecap="round" stroke-linejoin="round"/>
 <path id="line6" d="m28.869 36.145a1 1 0 0 0-1 1 1 1 0 0 0 1 1h10.709a1 1 0 0 0 1-1 1 1 0 0 0-1-1z" fill="#fff" stop-color="#000000" stroke-linecap="round" stroke-linejoin="round"/>
</svg>
