<?xml version="1.0" encoding="UTF-8"?>
<svg id="svg14" version="1.1" viewBox="0 0 48 48" xmlns="http://www.w3.org/2000/svg">
 <defs id="defs4">
  <style id="style2">.a{fill:none;stroke:#fff;stroke-width:2px;stroke-linecap:round;stroke-linejoin:round;}</style>
 </defs>
 <path id="circle6" d="m24 6.5957c-10.455 0-18.953 8.4959-18.953 18.951s8.4979 18.953 18.953 18.953 18.953-8.4979 18.953-18.953-8.4979-18.951-18.953-18.951zm0 2c9.3744 0 16.953 7.5768 16.953 16.951s-7.5787 16.953-16.953 16.953-16.953-7.5787-16.953-16.953 7.5787-16.951 16.953-16.951z" color="#000000" fill="#fff" stroke-linecap="round" stroke-linejoin="round" style="-inkscape-stroke:none"/>
 <path id="path8" d="m24 15.881a1 1 0 0 0-1 1v8.666a1 1 0 0 0 1 1 1 1 0 0 0 1-1v-8.666a1 1 0 0 0-1-1z" color="#000000" fill="#fff" stroke-linecap="round" stroke-linejoin="round" style="-inkscape-stroke:none"/>
 <path id="path10" d="m16.572 3.5a1 1 0 0 0-1 1 1 1 0 0 0 1 1h14.855a1 1 0 0 0 1-1 1 1 0 0 0-1-1z" color="#000000" fill="#fff" stroke-linecap="round" stroke-linejoin="round" style="-inkscape-stroke:none"/>
 <path id="path12" d="m38.242 9.4414-2.4824 2.4824a1 1 0 0 0 0 1.4141 1 1 0 0 0 1.4141 0l1.7754-1.7754 1.0625 1.0605-1.9746 1.9746a1 1 0 0 0 0 1.4141 1 1 0 0 0 1.416 0l2.6797-2.6816a1.0001 1.0001 0 0 0 0-1.4141l-2.4766-2.4746a1.0001 1.0001 0 0 0-1.4141 0z" color="#000000" fill="#fff" stroke-linecap="round" stroke-linejoin="round" style="-inkscape-stroke:none"/>
</svg>
