<?xml version="1.0" encoding="UTF-8"?>
<svg id="a" version="1.1" viewBox="0 0 48 48" xmlns="http://www.w3.org/2000/svg">
 <defs id="defs1">
  <style id="style1">.d{fill:none;stroke:#fff;stroke-width:2px;stroke-linecap:round;stroke-linejoin:round;}</style>
 </defs>
 <path id="c" d="m10.18 6.8594c-2.7496 0-5 2.2504-5 5v27.641c0 2.7496 2.2504 5 5 5h27.641c2.7496 0 5-2.2504 5-5v-27.641c0-2.7496-2.2504-5-5-5zm0 2h27.641c1.6686 0 3 1.3314 3 3v27.641c0 1.6686-1.3314 3-3 3h-27.641c-1.6686 0-3-1.3314-3-3v-27.641c0-1.6686 1.3314-3 3-3z" fill="#fff" stroke-linecap="round" stroke-linejoin="round"/>
 <path id="rect1" d="m10.5 31.926a1.0001 1.0001 0 0 0-1 1v6.4004a1.0001 1.0001 0 0 0 1 1h6.7773a1.0001 1.0001 0 0 0 1-1v-6.4004a1.0001 1.0001 0 0 0-1-1zm1 2h4.7773v4.4004h-4.7773z" fill="#fff" stroke-linecap="round" stroke-linejoin="round"/>
 <path id="rect2" d="m20.611 31.926a1.0001 1.0001 0 0 0-1 1v6.4004a1.0001 1.0001 0 0 0 1 1h6.7773a1.0001 1.0001 0 0 0 1-1v-6.4004a1.0001 1.0001 0 0 0-1-1zm1 2h4.7773v4.4004h-4.7773z" fill="#fff" stroke-linecap="round" stroke-linejoin="round"/>
 <path id="rect3" d="m30.723 31.926a1.0001 1.0001 0 0 0-1 1v6.4004a1.0001 1.0001 0 0 0 1 1h6.7773a1.0001 1.0001 0 0 0 1-1v-6.4004a1.0001 1.0001 0 0 0-1-1zm1 2h4.7773v4.4004h-4.7773z" fill="#fff" stroke-linecap="round" stroke-linejoin="round"/>
 <path id="rect4" d="m10.5 22.697a1.0001 1.0001 0 0 0-1 1v6.3984a1.0001 1.0001 0 0 0 1 1h6.7773a1.0001 1.0001 0 0 0 1-1v-6.3984a1.0001 1.0001 0 0 0-1-1zm1 2h4.7773v4.3984h-4.7773z" fill="#fff" stroke-linecap="round" stroke-linejoin="round"/>
 <path id="rect5" d="m20.611 22.697a1.0001 1.0001 0 0 0-1 1v6.3984a1.0001 1.0001 0 0 0 1 1h6.7773a1.0001 1.0001 0 0 0 1-1v-6.3984a1.0001 1.0001 0 0 0-1-1zm1 2h4.7773v4.3984h-4.7773z" fill="#fff" stroke-linecap="round" stroke-linejoin="round"/>
 <path id="rect6" d="m30.723 22.697a1.0001 1.0001 0 0 0-1 1v6.3984a1.0001 1.0001 0 0 0 1 1h6.7773a1.0001 1.0001 0 0 0 1-1v-6.3984a1.0001 1.0001 0 0 0-1-1zm1 2h4.7773v4.3984h-4.7773z" fill="#fff" stroke-linecap="round" stroke-linejoin="round"/>
 <path id="rect7" d="m30.723 13.893a1.0001 1.0001 0 0 0-1 1v6.4004a1.0001 1.0001 0 0 0 1 1h6.7773a1.0001 1.0001 0 0 0 1-1v-6.4004a1.0001 1.0001 0 0 0-1-1zm1 2h4.7773v4.4004h-4.7773z" fill="#fff" stroke-linecap="round" stroke-linejoin="round"/>
 <path id="line7" d="m12.816 3.5a1 1 0 0 0-1 1v5.7578a1 1 0 0 0 1 1 1 1 0 0 0 1-1v-5.7578a1 1 0 0 0-1-1z" fill="#fff" stroke-linecap="round" stroke-linejoin="round"/>
 <path id="line8" d="m35.184 3.5a1 1 0 0 0-1 1v5.7578a1 1 0 0 0 1 1 1 1 0 0 0 1-1v-5.7578a1 1 0 0 0-1-1z" fill="#fff" stroke-linecap="round" stroke-linejoin="round"/>
</svg>
