<?xml version="1.0" encoding="UTF-8"?>
<svg id="b" version="1.1" viewBox="0 0 48 48" xmlns="http://www.w3.org/2000/svg">
 <defs id="defs1">
  <style id="style1">.d{fill:none;stroke:#fff;stroke-width:2px;stroke-linecap:round;stroke-linejoin:round;}</style>
 </defs>
 <path id="c" d="m24.893 5.4258c-4.4251-0.21256-8.9258 1.1457-12.598 4.1191-7.2209 5.8473-8.9646 16.116-4.1953 24.035l-1.5547 6.7031a1.0001 1.0001 0 0 0 1.1777 1.207l6.9551-1.4355c8.0038 4.6456 18.253 2.7247 23.979-4.6035 5.8177-7.4464 5.1208-18.093-1.6191-24.717-3.37-3.3117-7.7194-5.096-12.145-5.3086zm-0.0957 1.9902c3.9464 0.18957 7.8248 1.7831 10.838 4.7441 6.0263 5.922 6.647 15.403 1.4453 22.061-5.2017 6.658-14.55 8.3482-21.754 3.9336a1.0001 1.0001 0 0 0-0.72461-0.12695l-5.7539 1.1875 1.2187-5.2539-0.20312 0.20312a1.0001 1.0001 0 0 0 0.13672-1.2441c-4.5397-7.1259-3.0134-16.503 3.5527-21.82 3.2831-2.6586 7.2977-3.8732 11.244-3.6836z" fill="#fff" stroke-linecap="round" stroke-linejoin="round"/>
 <path id="line1" d="m13.471 41.902-1.9121 0.44726a1 1 0 0 0-0.74609 1.2031 1 1 0 0 0 1.2031 0.74414l1.9102-0.44727a1 1 0 0 0 0.74609-1.2012 1 1 0 0 0-1.2012-0.74609z" fill="#fff" stroke-linecap="round" stroke-linejoin="round"/>
 <path id="path1" d="m4.291 38.176a1 1 0 0 0-1.209 0.73242l-0.7793 3.1895c-0.52152 2.1332 1.4596 4.1337 3.5977 3.6328l3.1875-0.74805a1 1 0 0 0 0.74609-1.2012 1 1 0 0 0-1.2031-0.74609l-3.1855 0.74805c-0.76778 0.17988-1.3865-0.44491-1.1992-1.2109l0.7793-3.1895a1 1 0 0 0-0.73438-1.207z" fill="#fff" stroke-linecap="round" stroke-linejoin="round"/>
 <path id="line2" d="m5.4414 33.471a1 1 0 0 0-1.209 0.73438l-0.45117 1.8457a1 1 0 0 0 0.73242 1.209 1 1 0 0 0 1.209-0.73438l0.45117-1.8457a1 1 0 0 0-0.73242-1.209z" fill="#fff" stroke-linecap="round" stroke-linejoin="round"/>
 <path id="path2" d="m43.07 12.596a1 1 0 0 0-0.75976 0.08789 1 1 0 0 0-0.38672 1.3613c0.72044 1.2937 1.3013 2.6701 1.7246 4.0898a1 1 0 0 0 1.2441 0.67188 1 1 0 0 0 0.67188-1.2441c-0.46532-1.5607-1.1032-3.0711-1.8945-4.4922a1 1 0 0 0-0.59961-0.47461z" fill="#fff" stroke-linecap="round" stroke-linejoin="round"/>
 <path id="path3" d="m4.9414 12.57a1 1 0 0 0-0.59961 0.47461c-0.79443 1.4222-1.434 2.9326-1.9004 4.4902a1 1 0 0 0 0.67188 1.2441 1 1 0 0 0 1.2441-0.67188c0.42423-1.4169 1.0073-2.7913 1.7305-4.0859a1 1 0 0 0-0.38672-1.3613 1 1 0 0 0-0.75977-0.089843z" fill="#fff" stroke-linecap="round" stroke-linejoin="round"/>
 <path id="path4" d="m38.027 6.4062a1 1 0 0 0-1.4062 0.1582 1 1 0 0 0 0.1582 1.4062c1.1576 0.92472 2.2185 1.9772 3.1523 3.1289a1 1 0 0 0 1.4062 0.14648 1 1 0 0 0 0.14844-1.4063c-1.0251-1.2643-2.1888-2.4189-3.459-3.4336z" fill="#fff" stroke-linecap="round" stroke-linejoin="round"/>
 <path id="path5" d="m10.729 6.1797a1 1 0 0 0-0.73438 0.21094c-1.2726 1.013-2.4376 2.1653-3.4629 3.4277a1 1 0 0 0 0.14648 1.4062 1 1 0 0 0 1.4062-0.14453c0.93374-1.1498 1.9953-2.2024 3.1543-3.125a1 1 0 0 0 0.16016-1.4043 1 1 0 0 0-0.66992-0.37109z" fill="#fff" stroke-linecap="round" stroke-linejoin="round"/>
 <path id="path6" d="m30.277 2.3887a1 1 0 0 0-1.2383 0.68164 1 1 0 0 0 0.68164 1.2383c1.4185 0.41111 2.7989 0.98197 4.1016 1.6934a1 1 0 0 0 1.3574-0.39844 1 1 0 0 0-0.39844-1.3574c-1.4298-0.78081-2.944-1.4053-4.5039-1.8574z" fill="#fff" stroke-linecap="round" stroke-linejoin="round"/>
 <path id="path7" d="m17.752 2.3789c-1.5635 0.45099-3.0801 1.0752-4.5098 1.8555a1 1 0 0 0-0.39844 1.3555 1 1 0 0 0 1.3555 0.39844c1.3007-0.7099 2.6827-1.2771 4.1055-1.6875a1 1 0 0 0 0.68359-1.2383 1 1 0 0 0-1.2363-0.68359z" fill="#fff" stroke-linecap="round" stroke-linejoin="round"/>
 <path id="path8" d="m24 1.5c-0.80502 0-1.6181 0.043022-2.4199 0.12891a1 1 0 0 0-0.88867 1.1016 1 1 0 0 0 1.1016 0.88672c0.72869-0.078046 1.4717-0.11712 2.2051-0.11719 0.74651 9.543e-4 1.5011 0.041891 2.2383 0.12109a1 1 0 0 0 1.1016-0.88672 1 1 0 0 0-0.88867-1.1016c-0.80784-0.086797-1.6292-0.13177-2.4473-0.13281a1.0001 1.0001 0 0 0-0.001953 0z" fill="#fff" stroke-linecap="round" stroke-linejoin="round"/>
 <path id="path9" d="m2.7598 20.51a1 1 0 0 0-1.1094 0.87695c-0.10046 0.85607-0.15039 1.7335-0.15039 2.6133 0 0.87214 0.051353 1.7494 0.15039 2.6113a1 1 0 0 0 1.1074 0.87891 1 1 0 0 0 0.87891-1.1074c-0.090362-0.78644-0.13672-1.5889-0.13672-2.3828 0-0.80386 0.045779-1.6059 0.13672-2.3809a1 1 0 0 0-0.87695-1.1094z" fill="#fff" stroke-linecap="round" stroke-linejoin="round"/>
 <path id="path10" d="m3.1074 29.193a1 1 0 0 0-0.67188 1.2441c0.46532 1.5607 1.1032 3.0711 1.8945 4.4922a1 1 0 0 0 1.3594 0.38672 1 1 0 0 0 0.38672-1.3613c-0.72045-1.2937-1.3013-2.6701-1.7246-4.0898a1 1 0 0 0-1.2441-0.67188z" fill="#fff" stroke-linecap="round" stroke-linejoin="round"/>
 <path id="path11" d="m44.887 29.221a1 1 0 0 0-1.2441 0.67188c-0.42423 1.4169-1.0073 2.7913-1.7305 4.0859a1 1 0 0 0 0.38672 1.3613 1 1 0 0 0 1.3594-0.38477c0.79443-1.4222 1.434-2.9326 1.9004-4.4902a1 1 0 0 0-0.67188-1.2441z" fill="#fff" stroke-linecap="round" stroke-linejoin="round"/>
 <path id="path12" d="m41.322 36.775a1 1 0 0 0-1.4062 0.14453c-0.93374 1.1498-1.9953 2.2024-3.1543 3.125a1 1 0 0 0-0.16016 1.4043 1 1 0 0 0 1.4043 0.16016c1.2726-1.013 2.4376-2.1653 3.4629-3.4277a1 1 0 0 0-0.14648-1.4062z" fill="#fff" stroke-linecap="round" stroke-linejoin="round"/>
 <path id="path13" d="m14.178 41.998a1 1 0 0 0-1.3574 0.39844 1 1 0 0 0 0.39844 1.3574c1.4298 0.78081 2.944 1.4053 4.5039 1.8574a1 1 0 0 0 1.2383-0.68164 1 1 0 0 0-0.68164-1.2383c-1.4185-0.41111-2.7989-0.98197-4.1016-1.6934z" fill="#fff" stroke-linecap="round" stroke-linejoin="round"/>
 <path id="path14" d="m34.561 41.93a1 1 0 0 0-0.75977 0.08203c-1.3007 0.7099-2.6827 1.2771-4.1055 1.6875a1 1 0 0 0-0.68359 1.2383 1 1 0 0 0 1.2363 0.68359c1.5635-0.45099 3.0801-1.0752 4.5098-1.8555a1 1 0 0 0 0.39844-1.3555 1 1 0 0 0-0.5957-0.48047z" fill="#fff" stroke-linecap="round" stroke-linejoin="round"/>
 <path id="path15" d="m45.242 20.51a1 1 0 0 0-0.87891 1.1074c0.090439 0.78629 0.13672 1.5889 0.13672 2.3828 0 0.80386-0.04578 1.606-0.13672 2.3809a1 1 0 0 0 0.87695 1.1094 1 1 0 0 0 1.1094-0.87695c0.10046-0.85599 0.15039-1.7335 0.15039-2.6133 0-0.87206-0.05123-1.7492-0.15039-2.6113a1 1 0 0 0-1.1074-0.87891z" fill="#fff" stroke-linecap="round" stroke-linejoin="round"/>
 <path id="path16" d="m21.764 44.379a1 1 0 0 0-1.1016 0.88672 1 1 0 0 0 0.88867 1.1016c0.80784 0.0868 1.6292 0.13177 2.4473 0.13281a1.0001 1.0001 0 0 0 2e-3 0c0.80502 0 1.6181-0.04302 2.4199-0.12891a1 1 0 0 0 0.88867-1.1016 1 1 0 0 0-1.1016-0.88672c-0.72869 0.07805-1.4717 0.11712-2.2051 0.11719-0.74651-9.54e-4 -1.5011-0.04189-2.2383-0.12109z" fill="#fff" stroke-linecap="round" stroke-linejoin="round"/>
</svg>
