<?xml version="1.0" encoding="UTF-8"?>
<svg id="Layer_2" data-name="Layer 2" version="1.1" viewBox="0 0 48 48" xmlns="http://www.w3.org/2000/svg">
 <defs id="defs4">
  <style id="style2">.cls-1{fill:none;stroke:#fff;stroke-linecap:round;stroke-linejoin:round;}</style>
 </defs>
 <path id="path6" d="m10.324 3.5c-1.6165 0.040426-2.9243 1.383-2.9238 3v35.1c-5.054e-4 1.617 1.3073 2.9596 2.9238 3a1.0001 1.0001 0 0 0 0.02539 0h27.301c1.645 0 3-1.355 3-3v-35.15a1.0001 1.0001 0 0 0 0-0.023437c-0.040426-1.6165-1.383-2.9263-3-2.9258h-27.301a1.0001 1.0001 0 0 0-0.02539 0zm0.05078 2h27.275c0.55362-1.73e-4 0.98616 0.42116 1 0.97461v35.125c0 0.56413-0.43587 1-1 1h-27.275c-0.55345-0.01384-0.97478-0.44637-0.97461-1v-35.1c-1.73e-4 -0.55363 0.42116-0.98616 0.97461-1zm13.623 6.7695c-3.5016 0.0065-6.3574 2.8694-6.3574 6.3711 5e-6 2.7966 1.727 4.9721 3.9336 5.8848 2.2066 0.91268 4.9679 0.59436 6.9434-1.3848s2.2918-4.7424 1.375-6.9473c-0.91679-2.2049-3.098-3.929-5.8945-3.9238zm0.0039 2c1.9903-0.0037 3.4059 1.1612 4.043 2.6934 0.63706 1.5321 0.46443 3.3552-0.94141 4.7637-1.4058 1.4085-3.2303 1.5854-4.7637 0.95117-1.5333-0.6342-2.6992-2.0468-2.6992-4.0371-4e-6 -2.4221 1.9392-4.3666 4.3613-4.3711zm-0.001946 10.73c-3.09 0-5.8557 0.40774-7.9355 1.1113-1.0399 0.3518-1.9115 0.77284-2.5879 1.3164-0.67636 0.54357-1.207 1.288-1.207 2.1816v5.1699a1.0001 1.0001 0 0 0 1 1h21.461a1.0001 1.0001 0 0 0 1-1v-5.1191c0-0.89365-0.52822-1.6392-1.2031-2.1875-0.67491-0.54829-1.5457-0.97537-2.5859-1.334-2.0804-0.71723-4.8486-1.1387-7.9414-1.1387zm0 2c2.9072 0 5.5044 0.41403 7.2891 1.0293 0.89231 0.30763 1.579 0.67157 1.9785 0.99609 0.39947 0.32452 0.46289 0.53341 0.46289 0.63476v4.1191h-19.461v-4.1699c0-0.10135 0.06097-0.30318 0.45898-0.62305 0.39801-0.31987 1.084-0.67852 1.9766-0.98047 1.7852-0.60391 4.3849-1.0059 7.2949-1.0059z" color="#000000" fill="#fff" stroke-linecap="round" stroke-linejoin="round" style="-inkscape-stroke:none"/>
</svg>
