<?xml version="1.0" encoding="UTF-8"?>
<svg id="svg2" version="1.1" viewBox="0 0 48 48" xmlns="http://www.w3.org/2000/svg">
 <defs id="defs1">
  <style id="style1">.a{fill:none;stroke:#fff;stroke-width:2px;stroke-linecap:round;stroke-linejoin:round;}.b{fill:#fff;}</style>
 </defs>
 <path id="circle1" d="m24 1.5c-12.415 0-22.5 10.085-22.5 22.5s10.085 22.5 22.5 22.5 22.5-10.085 22.5-22.5-10.085-22.5-22.5-22.5zm0 2c11.334 0 20.5 9.1663 20.5 20.5s-9.1663 20.5-20.5 20.5-20.5-9.1663-20.5-20.5 9.1663-20.5 20.5-20.5z" color="#000000" fill="#fff" stroke-linecap="round" stroke-linejoin="round" style="-inkscape-stroke:none"/>
 <path id="rect1" d="m12.391 18.961c-2.2929 0-4.1699 1.877-4.1699 4.1699v2.0586c0 2.2929 1.877 4.1699 4.1699 4.1699s4.1699-1.877 4.1699-4.1699v-2.0586c0-2.2929-1.877-4.1699-4.1699-4.1699zm0 2c1.2195 0 2.1699 0.95045 2.1699 2.1699v2.0586c0 1.2195-0.95045 2.1699-2.1699 2.1699s-2.1699-0.95045-2.1699-2.1699v-2.0586c0-1.2195 0.95045-2.1699 2.1699-2.1699z" color="#000000" fill="#fff" stroke-linecap="round" stroke-linejoin="round" style="-inkscape-stroke:none"/>
 <path id="path1" d="m27.57 19a1 1 0 0 0-1 1v5.2305c-0.0051 2.2939 1.8794 4.1772 4.1738 4.1699 2.2889-0.0022 4.1635-1.8845 4.1562-4.1738v-5.2266a1 1 0 0 0-1-1 1 1 0 0 0-1 1v5.2305a1.0001 1.0001 0 0 0 0 2e-3c0.0038 1.2076-0.95259 2.168-2.1602 2.168a1.0001 1.0001 0 0 0-0.0039 0c-1.2104 0.0038-2.1699-0.95761-2.166-2.168a1.0001 1.0001 0 0 0 0-2e-3v-5.2305a1 1 0 0 0-1-1z" color="#000000" fill="#fff" stroke-linecap="round" stroke-linejoin="round" style="-inkscape-stroke:none"/>
 <path id="line1" d="m33.9 24.189a1 1 0 0 0-1 1v3.1699a1 1 0 0 0 1 1 1 1 0 0 0 1-1v-3.1699a1 1 0 0 0-1-1z" color="#000000" fill="#fff" stroke-linecap="round" stroke-linejoin="round" style="-inkscape-stroke:none"/>
 <path id="path2" d="m20.76 18.961c-1.7002 0-3.0996 1.3994-3.0996 3.0996 0 1.7002 1.3994 3.0996 3.0996 3.0996h1.4199c0.61936 0 1.0996 0.48025 1.0996 1.0996 0 0.61936-0.48025 1.0996-1.0996 1.0996h-0.70898a1.0001 1.0001 0 0 0-0.125 0.0078c-0.66879 0.08341-1.3426-0.09906-1.877-0.50976a1 1 0 0 0-1.4023 0.18361 1 1 0 0 0 0.18359 1.4023c0.95104 0.73095 2.1535 1.0567 3.3438 0.9082l-0.12305 0.0078h0.70898c1.7002 0 3.0996-1.3994 3.0996-3.0996 0-1.7002-1.3994-3.0996-3.0996-3.0996h-1.4199c-0.61936 0-1.0996-0.48025-1.0996-1.0996s0.48025-1.0996 1.0996-1.0996h0.71094a1.0001 1.0001 0 0 0 0.12305-0.0078c0.66879-0.08341 1.3426 0.09906 1.877 0.50977a1 1 0 0 0 1.4023-0.18359 1 1 0 0 0-0.18359-1.4023c-0.95104-0.73095-2.1535-1.0586-3.3438-0.91016l0.125-0.0059z" color="#000000" fill="#fff" stroke-linecap="round" stroke-linejoin="round" style="-inkscape-stroke:none"/>
 <circle id="circle2" class="b" cx="38.03" cy="28.17" r="1.5px"/>
 <path id="line2" d="m38.029 14.49a1 1 0 0 0-1 1v9.4297a1 1 0 0 0 1 1 1 1 0 0 0 1-1v-9.4297a1 1 0 0 0-1-1z" color="#000000" fill="#fff" stroke-linecap="round" stroke-linejoin="round" style="-inkscape-stroke:none"/>
</svg>
