<?xml version="1.0" encoding="UTF-8"?>
<svg id="svg2" version="1.1" viewBox="0 0 48 48" xmlns="http://www.w3.org/2000/svg">
 <defs id="defs1">
  <style id="style1">.a{fill:none;stroke:#fff;stroke-width:2px;stroke-linecap:round;stroke-linejoin:round;}</style>
 </defs>
 <path id="path1" d="m10.172 18.26c-1.5895-8.4e-5 -2.9004 1.3109-2.9004 2.9004v20.441c0 1.5894 1.3109 2.8984 2.9004 2.8984h27.656c1.5894 0 2.9004-1.309 2.9004-2.8984v-20.441c0-1.5894-1.311-2.9004-2.9004-2.9004zm-2e-3 2a1.0001 1.0001 0 0 0 2e-3 0h27.656c0.50851 0 0.90039 0.39188 0.90039 0.90039v20.441c0 0.50852-0.39188 0.89844-0.90039 0.89844h-27.656c-0.50857 0-0.90039-0.38987-0.90039-0.89844v-20.441c0-0.50853 0.3899-0.90042 0.89844-0.90039z" fill="#fff" stroke-linecap="round" stroke-linejoin="round"/>
 <path id="path2" d="m23.992 3.5312c-6.2712 0-11.383 5.096-11.402 11.367a1.0001 1.0001 0 0 0 0 2e-3v4.3594a1 1 0 0 0 1 1 1 1 0 0 0 1-1v-4.3594c0.01824-5.1907 4.2111-9.3691 9.4023-9.3691 5.1912 0 9.3822 4.1785 9.4004 9.3691v4.3594a1 1 0 0 0 1 1 1 1 0 0 0 1-1v-4.3594a1.0001 1.0001 0 0 0 0-2e-3c-0.019445-6.2712-5.1292-11.367-11.4-11.367z" fill="#fff" stroke-linecap="round" stroke-linejoin="round"/>
 <path id="circle2" d="m23.99 26.346c-2.7683 0-5.0332 2.2669-5.0332 5.0352 0 2.7683 2.2649 5.0332 5.0332 5.0332 2.7683 0 5.0352-2.2649 5.0352-5.0332 0-2.7683-2.2669-5.0352-5.0352-5.0352zm0 2c1.6874 0 3.0352 1.3477 3.0352 3.0352 0 1.6874-1.3477 3.0332-3.0352 3.0332-1.6874 0-3.0332-1.3458-3.0332-3.0332 0-1.6874 1.3458-3.0352 3.0332-3.0352z" fill="#fff" stroke-linecap="round" stroke-linejoin="round"/>
</svg>
