<?xml version="1.0" encoding="UTF-8"?>
<svg id="svg1" version="1.1" viewBox="0 0 48 48" xmlns="http://www.w3.org/2000/svg">
 <defs id="defs1">
  <style id="style1">.c{fill:none;stroke:#fff;stroke-width:2px;stroke-linecap:round;stroke-linejoin:round;}</style>
 </defs>
 <g id="a">
  <path id="circle1" d="m24 1.5c-12.415 0-22.5 10.085-22.5 22.5s10.085 22.5 22.5 22.5 22.5-10.085 22.5-22.5-10.085-22.5-22.5-22.5zm0 2c11.334 0 20.5 9.1663 20.5 20.5s-9.1663 20.5-20.5 20.5-20.5-9.1663-20.5-20.5 9.1663-20.5 20.5-20.5z" fill="#fff" stroke-linecap="round" stroke-linejoin="round"/>
 </g>
 <g id="b">
  <path id="path1" d="m18.699 15a1.0001 1.0001 0 0 0-1 1v16a1 1 0 0 0 1 1 1 1 0 0 0 1-1v-4.2539h4.2383c3.5029 0 6.3633-2.8661 6.3633-6.373s-2.8604-6.373-6.3633-6.373zm1 2h4.2383c2.4197 0 4.3633 1.9446 4.3633 4.373s-1.9436 4.373-4.3633 4.373h-4.2383z" fill="#fff" stroke-linecap="round" stroke-linejoin="round"/>
 </g>
</svg>
