<?xml version="1.0" encoding="UTF-8"?>
<svg id="svg16" version="1.1" viewBox="0 0 48 48" xmlns="http://www.w3.org/2000/svg">
 <defs id="defs4">
  <style id="style2">.a{fill:none;stroke:#fff;stroke-linecap:round;stroke-linejoin:round;}</style>
 </defs>
 <path id="circle6" d="m20.662 4c-9.0669 0-16.437 7.3725-16.437 16.439s7.3706 16.438 16.437 16.438c9.0669 0 16.439-7.3706 16.439-16.438s-7.3725-16.439-16.439-16.439zm0 2c7.9861 0 14.439 6.4534 14.439 14.439s-6.4534 14.438-14.439 14.438-14.437-6.4514-14.437-14.438 6.4514-14.439 14.437-14.439z" color="#000000" fill="#fff" stroke-linecap="round" stroke-linejoin="round" style="-inkscape-stroke:none"/>
 <path id="line8" d="m6.1094 14.293a1 1 0 0 0-1 1 1 1 0 0 0 1 1h29.107a1 1 0 0 0 1-1 1 1 0 0 0-1-1z" color="#000000" fill="#fff" stroke-linecap="round" stroke-linejoin="round" style="-inkscape-stroke:none"/>
 <path id="line10" d="m6.1094 24.584a1 1 0 0 0-1 1 1 1 0 0 0 1 1h29.107a1 1 0 0 0 1-1 1 1 0 0 0-1-1z" color="#000000" fill="#fff" stroke-linecap="round" stroke-linejoin="round" style="-inkscape-stroke:none"/>
 <path id="ellipse12" d="m20.662 4.418c-1.2037 0-2.3078 0.58068-3.207 1.4688-0.8992 0.88807-1.6415 2.0934-2.2598 3.5371-1.2366 2.8874-1.9648 6.7521-1.9648 11.016s0.72827 8.1263 1.9648 11.014c0.61829 1.4437 1.3606 2.649 2.2598 3.5371s2.0034 1.4688 3.207 1.4688c1.2037 0 2.3078-0.58068 3.207-1.4688 0.8992-0.88807 1.6434-2.0934 2.2617-3.5371 1.2366-2.8874 1.9648-6.7502 1.9648-11.014s-0.72827-8.1282-1.9648-11.016c-0.61829-1.4437-1.3625-2.649-2.2617-3.5371-0.8992-0.88807-2.0034-1.4687-3.207-1.4688zm0 2c0.5727 0 1.1608 0.26049 1.8008 0.89258 0.64002 0.63209 1.2823 1.6259 1.8281 2.9004 1.0916 2.549 1.8047 6.1964 1.8047 10.229s-0.71305 7.6776-1.8047 10.227c-0.54582 1.2745-1.1881 2.2683-1.8281 2.9004-0.64002 0.63209-1.2281 0.89258-1.8008 0.89258-0.5727 0-1.1608-0.26049-1.8008-0.89258s-1.2823-1.6259-1.8281-2.9004c-1.0916-2.549-1.8027-6.1945-1.8027-10.227s0.7111-7.6796 1.8027-10.229c0.54582-1.2745 1.1881-2.2683 1.8281-2.9004s1.2281-0.89258 1.8008-0.89258z" color="#000000" fill="#fff" stroke-linecap="round" stroke-linejoin="round" style="-inkscape-stroke:none"/>
 <path id="path14" d="m38.492 27.971c-1.804-0.1368-3.4995 0.62399-4.6191 1.8652-1.3233 1.4671-1.8166 3.6582-1.0332 5.75l-4.2383 3.6582a1.0001 1.0001 0 0 0-0.05859 0.05469c-0.58357 0.5916-0.86409 1.3681-0.82031 2.0801 0.04378 0.71199 0.36613 1.3388 0.83203 1.8047 0.4659 0.46588 1.0927 0.79024 1.8047 0.83398 0.71199 0.04375 1.4905-0.23672 2.082-0.82031a1.0001 1.0001 0 0 0 0.05469-0.05859l3.6582-4.2383c2.0914 0.78279 4.2812 0.28796 5.748-1.0352 1.655-1.4928 2.4566-4.0075 1.4141-6.4414a1.0001 1.0001 0 0 0-1.627-0.3125l-2.6816 2.6895-0.89062-0.17969-0.17773-0.88867 2.6875-2.6836a1.0001 1.0001 0 0 0-0.3125-1.627c-0.60848-0.26062-1.2209-0.40557-1.8223-0.45117zm-1.3008 2.0723c0.17024-0.04332 0.37942 0.06913 0.55859 0.05273l-1.6035 1.5996a1.0001 1.0001 0 0 0-0.27344 0.9043l0.41602 2.0684a1.0001 1.0001 0 0 0 0.7832 0.7832l2.0664 0.41602a1.0001 1.0001 0 0 0 0.90625-0.27344l1.5996-1.6035c-0.08492 0.92839-0.40403 1.7808-1.0801 2.3906-1.0911 0.98424-2.6661 1.3591-4.2422 0.48242a1.0001 1.0001 0 0 0-1.2422 0.2207l-4.0508 4.6934c-0.23183 0.22587-0.38445 0.25412-0.54688 0.24414-0.1643-0.01009-0.36132-0.09961-0.51367-0.25195-0.15235-0.15234-0.2399-0.34937-0.25-0.51367-0.01-0.16242 0.01828-0.31503 0.24414-0.54688l4.6934-4.0488a1.0001 1.0001 0 0 0 0.2207-1.2441c-0.8767-1.576-0.5018-3.1491 0.48242-4.2402 0.49211-0.54558 1.1201-0.95167 1.832-1.1328z" color="#000000" fill="#fff" stroke-linecap="round" stroke-linejoin="round" style="-inkscape-stroke:none"/>
</svg>
