<?xml version="1.0" encoding="UTF-8"?>
<svg id="a" version="1.1" viewBox="0 0 48 48" xmlns="http://www.w3.org/2000/svg">
 <defs id="defs4">
  <style id="style2">.b{fill:none;stroke:#fff;stroke-width:2px;stroke-linecap:round;stroke-linejoin:round;}</style>
 </defs>
 <path id="circle6" d="m8.6094 15.711c-3.9144-1e-6 -7.1094 3.195-7.1094 7.1094 0 3.9144 3.195 7.1094 7.1094 7.1094 3.9144 0 7.1094-3.195 7.1094-7.1094 0-3.9144-3.195-7.1094-7.1094-7.1094zm0 2c2.8335 0 5.1094 2.2759 5.1094 5.1094 0 2.8335-2.2759 5.1094-5.1094 5.1094-2.8335 0-5.1094-2.2759-5.1094-5.1094 0-2.8335 2.2759-5.1094 5.1094-5.1094z" color="#000000" fill="#fff" stroke-linecap="round" stroke-linejoin="round" style="-inkscape-stroke:none"/>
 <path id="circle8" d="m34.051 2.3145c-3.9144 0-7.1094 3.195-7.1094 7.1094s3.195 7.1094 7.1094 7.1094 7.1094-3.195 7.1094-7.1094-3.195-7.1094-7.1094-7.1094zm0 2c2.8335 0 5.1094 2.2759 5.1094 5.1094 0 2.8335-2.2759 5.1094-5.1094 5.1094-2.8335 0-5.1094-2.2759-5.1094-5.1094 0-2.8335 2.2759-5.1094 5.1094-5.1094z" color="#000000" fill="#fff" stroke-linecap="round" stroke-linejoin="round" style="-inkscape-stroke:none"/>
 <path id="circle10" d="m32.674 31.467c-3.9144 0-7.1074 3.195-7.1074 7.1094s3.193 7.1094 7.1074 7.1094 7.1094-3.195 7.1094-7.1094-3.195-7.1094-7.1094-7.1094zm0 2c2.8335 0 5.1094 2.2759 5.1094 5.1094s-2.2759 5.1094-5.1094 5.1094-5.1074-2.2759-5.1074-5.1094 2.2739-5.1094 5.1074-5.1094z" color="#000000" fill="#fff" stroke-linecap="round" stroke-linejoin="round" style="-inkscape-stroke:none"/>
 <path id="path12" d="m39.203 11.93a1 1 0 0 0-0.73047 0.22461 1 1 0 0 0-0.13476 1.4082c2.3417 2.8375 3.7461 6.4673 3.7461 10.438 0 4.4143-1.7365 8.4099-4.5664 11.359a1 1 0 0 0 0.0293 1.4141 1 1 0 0 0 1.4141-0.0293c3.1725-3.3065 5.123-7.804 5.123-12.744 0-4.443-1.5796-8.5295-4.2051-11.711a1 1 0 0 0-0.67578-0.35938z" color="#000000" fill="#fff" stroke-linecap="round" stroke-linejoin="round" style="-inkscape-stroke:none"/>
 <path id="path14" d="m8.6875 27.959a1 1 0 0 0-0.67773 1.2402c2.245 7.6385 9.3122 13.211 17.664 13.211 0.55282 0 1.0998-0.02449 1.6406-0.07227a1 1 0 0 0 0.9082-1.084 1 1 0 0 0-1.084-0.9082c-0.48242 0.04262-0.97087 0.06445-1.4648 0.06445-7.4629 0-13.747-4.9729-15.746-11.775a1 1 0 0 0-1.2402-0.67577z" color="#000000" fill="#fff" stroke-linecap="round" stroke-linejoin="round" style="-inkscape-stroke:none"/>
 <path id="path16" d="m25.674 5.5898c-6.4171 0-12.08 3.2916-15.373 8.2793-0.53258 0.80664-1.0038 1.6579-1.4062 2.5469a1 1 0 0 0 0.49805 1.3223 1 1 0 0 0 1.3242-0.49805c0.35853-0.79198 0.77909-1.5504 1.2539-2.2695 2.936-4.4467 7.969-7.3809 13.703-7.3809h0.01563c0.91007 8.62e-4 1.8014 0.075884 2.6699 0.21875a1 1 0 0 0 1.1504-0.82422 1 1 0 0 0-0.82422-1.1484c-0.97527-0.16043-1.9769-0.24525-2.9961-0.24609z" color="#000000" fill="#fff" stroke-linecap="round" stroke-linejoin="round" style="-inkscape-stroke:none"/>
</svg>
