<?xml version="1.0" encoding="UTF-8"?>
<svg id="svg9" version="1.1" viewBox="0 0 48 48" xmlns="http://www.w3.org/2000/svg">
 <defs id="defs1">
  <style id="style1">.a{fill:none;stroke:#fff;stroke-width:2px;stroke-linecap:round;stroke-linejoin:round;}</style>
 </defs>
 <path id="line1" d="m18.338 3.5a1 1 0 0 0-0.70508 0.29492l-9.9219 9.9707a1 1 0 0 0 0.00195 1.416 1 1 0 0 0 1.4141-0.0039l9.9238-9.9727a1 1 0 0 0-0.003906-1.4141 1 1 0 0 0-0.70898-0.29102z" fill="#fff" stroke-linecap="round" stroke-linejoin="round"/>
 <path id="line2" d="m15.838 21.928a1 1 0 0 0-1 1 1 1 0 0 0 1 1h7.4355a1 1 0 0 0 1-1 1 1 0 0 0-1-1z" fill="#fff" stroke-linecap="round" stroke-linejoin="round"/>
 <path id="line3" d="m24.463 33.994a1 1 0 0 0-1 1 1 1 0 0 0 1 1h7.6484a1 1 0 0 0 1-1 1 1 0 0 0-1-1z" fill="#fff" stroke-linecap="round" stroke-linejoin="round"/>
 <path id="line4" d="m15.838 33.994a1 1 0 0 0-1 1 1 1 0 0 0 1 1h0.7793a1 1 0 0 0 1-1 1 1 0 0 0-1-1z" fill="#fff" stroke-linecap="round" stroke-linejoin="round"/>
 <path id="line5" d="m28.791 27.961a1 1 0 0 0-1 1 1 1 0 0 0 1 1h3.3203a1 1 0 0 0 1-1 1 1 0 0 0-1-1z" fill="#fff" stroke-linecap="round" stroke-linejoin="round"/>
 <path id="line6" d="m15.838 27.961a1 1 0 0 0-1 1 1 1 0 0 0 1 1h3.1074a1 1 0 0 0 1-1 1 1 0 0 0-1-1z" fill="#fff" stroke-linecap="round" stroke-linejoin="round"/>
 <path id="path6" d="m38.311 2.9648c-1.2724 0.1334-2.5499 0.83446-3.4727 2.1211l-18.502 25.797a1.0001 1.0001 0 0 0-0.17578 0.43359l-1.3105 8.6914a1.0001 1.0001 0 0 0 1.4473 1.0371l7.8105-4.0273a1.0001 1.0001 0 0 0 0.35547-0.30664l18.502-25.797c0.92278-1.2866 1.1762-2.7208 0.89453-3.9688s-1.0498-2.2955-2.043-3.0078-2.2335-1.1061-3.5059-0.97266zm0.20898 1.9902c0.72364-0.075868 1.4988 0.15412 2.1309 0.60742s1.0996 1.1125 1.2598 1.8223 0.06107 1.483-0.57031 2.3633l-18.361 25.602-5.8594 3.0215 0.98242-6.5176 18.361-25.602c0.63138-0.88033 1.333-1.221 2.0566-1.2969z" fill="#fff" stroke-linecap="round" stroke-linejoin="round"/>
 <path id="path7" d="m18.342 3.5a1.0001 1.0001 0 0 0-1 1v7.9766a1.0001 1.0001 0 0 0 0 2e-3c1.45e-4 0.55061-0.42026 0.98036-0.9707 0.99414h-7.9531a1.0001 1.0001 0 0 0-1 1v27.033c0 1.6419 1.3542 2.9941 2.9961 2.9941h27.223a1.0001 1.0001 0 0 0 0.02539 0c1.6135-0.04038 2.9203-1.3802 2.9199-2.9941v-27.59a1 1 0 0 0-1-1 1 1 0 0 0-1 1v27.59c1.45e-4 0.55061-0.42026 0.98036-0.9707 0.99414h-27.197c-0.56104 0-0.99609-0.4331-0.99609-0.99414v-26.033h6.9785a1.0001 1.0001 0 0 0 0.02539-2e-3c1.6135-0.04038 2.9203-1.3802 2.9199-2.9941v-6.9765l17.516 0.00977a1 1 0 0 0 1-1 1 1 0 0 0-1-1z" fill="#fff" stroke-linecap="round" stroke-linejoin="round"/>
 <path id="path8" d="m34.357 8.4785c-1.2724 0.1334-2.5499 0.83446-3.4727 2.1211a1 1 0 0 0 0.22852 1.3965 1 1 0 0 0 1.3965-0.23047c0.63138-0.88033 1.331-1.221 2.0547-1.2969 0.72364-0.07587 1.4988 0.15412 2.1309 0.60742 0.63203 0.4533 1.0996 1.1125 1.2598 1.8223 0.16019 0.70976 0.06107 1.483-0.57031 2.3633a1 1 0 0 0 0.23047 1.3965 1 1 0 0 0 1.3945-0.23047c0.92278-1.2866 1.1781-2.7208 0.89648-3.9688-0.28165-1.2479-1.0517-2.2955-2.0449-3.0078-0.99319-0.71233-2.2315-1.1061-3.5039-0.97266z" fill="#fff" stroke-linecap="round" stroke-linejoin="round"/>
 <path id="path9" d="m19.809 28.762c-1.2724 0.13342-2.5499 0.83442-3.4727 2.1211a1 1 0 0 0 0.23047 1.3965 1 1 0 0 0 1.3945-0.23047c0.63138-0.88036 1.333-1.221 2.0566-1.2969 0.72366-0.07588 1.4988 0.15412 2.1309 0.60742 0.63206 0.4533 1.0976 1.1125 1.2578 1.8223 0.1602 0.70977 0.06302 1.4829-0.56836 2.3633a1 1 0 0 0 0.22852 1.3965 1 1 0 0 0 1.3965-0.23047c0.92278-1.2867 1.1762-2.7208 0.89453-3.9688-0.28167-1.248-1.0498-2.2955-2.043-3.0078s-2.2335-1.1061-3.5059-0.97266z" fill="#fff" stroke-linecap="round" stroke-linejoin="round"/>
</svg>
