<?xml version="1.0" encoding="UTF-8"?>
<svg id="svg6" width="48" height="48" version="1.1" viewBox="0 0 48 48" xml:space="preserve" xmlns="http://www.w3.org/2000/svg"><defs id="defs1"><style id="style1">.b{fill:none;stroke:#fff;stroke-width:2px;stroke-linecap:round;stroke-linejoin:round;}</style></defs><path id="path1" d="m5.3047 4.3164a1.0001 1.0001 0 0 0-1 1.002l0.10352 37.443a1.0001 1.0001 0 0 0 1 0.99805h37.25a1.0001 1.0001 0 0 0 1-1v-37.443a1.0001 1.0001 0 0 0-1-1zm1.002 2h35.352v35.443h-35.252z" fill="#fff" stop-color="#000000" stroke-linecap="round" stroke-linejoin="round"/><path id="path2" d="m16.473 10.338a1.0001 1.0001 0 0 0-1 1v25.301a1.0001 1.0001 0 0 0 1 1h3.0215a1.0001 1.0001 0 0 0 1-1v-9.9453h1.6172l7.5625 10.465a1.0001 1.0001 0 0 0 0.81055 0.41406h4.2578a1.0001 1.0001 0 0 0 0.81641-1.5762l-7.5-10.613c1.3919-0.72686 4.87-2.8068 4.834-7.8398-0.02165-3.0249-1.5148-4.9476-2.9727-5.959-1.4579-1.0113-2.9316-1.2344-2.9316-1.2344a1.0001 1.0001 0 0 0-0.15234-0.01172zm1 2h9.2383c0.02649 0.0043 1.0213 0.16429 2.0684 0.89062 1.0609 0.73593 2.096 1.918 2.1133 4.3281 0.0343 4.7871-4.6074 6.6602-4.6074 6.6602a1.0001 1.0001 0 0 0-0.55078 1.2969h2e-3a1.0001 1.0001 0 0 0 0.11133 0.20508l6.9629 9.8535h-1.8145l-7.5645-10.465a1.0001 1.0001 0 0 0-0.80859-0.41406h-3.1289a1.0001 1.0001 0 0 0-1 1v9.9453h-1.0215z" fill="#fff" stop-color="#000000" stroke-linecap="round" stroke-linejoin="round"/><path id="path3" d="m20.879 12.674c-0.86074 0.04973-1.4258 0.14844-1.4258 0.14844a1.0001 1.0001 0 0 0-0.83789 0.98633v9.1777a1.0001 1.0001 0 0 0 0.92774 0.99805s2.2708 0.17552 4.6191-0.42188c1.1741-0.2987 2.3995-0.79081 3.3828-1.6816s1.6719-2.2296 1.6719-3.8867c0-1.6571-0.70335-2.9746-1.7129-3.7949s-2.2499-1.1968-3.4297-1.3867c-1.1798-0.18987-2.3346-0.18841-3.1953-0.13867zm2.8789 2.1133c0.97079 0.15623 1.881 0.47457 2.4844 0.96484 0.60341 0.49028 0.97461 1.0967 0.97461 2.2422 0 1.1455-0.38595 1.8338-1.0156 2.4043-0.62967 0.57047-1.5548 0.97621-2.5312 1.2246-1.4972 0.38088-2.4162 0.29465-3.0547 0.2793v-7.1094c0.60274-0.07312 1.6097-0.25255 3.1426-0.0059z" fill="#fff" stop-color="#000000" stroke-linecap="round" stroke-linejoin="round"/><path id="path4" d="m16.74 30.869a1 1 0 0 0-0.76172 0.05664l-11.006 5.5449a1 1 0 0 0-0.44336 1.3438 1 1 0 0 0 1.3438 0.44336l11.004-5.5449a1 1 0 0 0 0.44336-1.3438 1 1 0 0 0-0.58008-0.5z" fill="#fff" stop-color="#000000" stroke-linecap="round" stroke-linejoin="round"/><path id="path5" d="m24.475 27.049a1 1 0 0 0-0.76367 0.04883l-4.5605 2.2383a1 1 0 0 0-0.45508 1.3379 1 1 0 0 0 1.3379 0.45703l4.5586-2.2383a1 1 0 0 0 0.45703-1.3379 1 1 0 0 0-0.57422-0.50586z" fill="#fff" stop-color="#000000" stroke-linecap="round" stroke-linejoin="round"/><path id="path6" d="m42.986 17.795a1 1 0 0 0-0.76367 0.05469l-14.859 7.4668a1 1 0 0 0-0.44336 1.3418 1 1 0 0 0 1.3418 0.44531l14.857-7.4668a1 1 0 0 0 0.44531-1.3418 1 1 0 0 0-0.57812-0.5z" fill="#fff" stop-color="#000000" stroke-linecap="round" stroke-linejoin="round"/></svg>
