<?xml version="1.0" encoding="UTF-8"?>
<svg id="a" version="1.1" viewBox="0 0 48 48" xmlns="http://www.w3.org/2000/svg">
 <defs id="defs4">
  <style id="style2">.d{fill:none;stroke:#fff;stroke-width:2px;stroke-linecap:round;stroke-linejoin:round;}</style>
 </defs>
 <path id="path6" d="m29.674 13.18c-4.2558-0.0087-7.8474 1.8056-10.127 4.0977-1.5197 1.528-2.5016 3.2654-2.666 4.9766-0.16265 1.6923 0.73382 3.3908 2.5117 4.1172 1.3858 0.76226 3.032 0.77227 4.5273 0.54492 1.5257-0.23196 2.886-0.70469 3.7695-1.2148 1.2746-0.73586 2.3477-0.98983 3.0801-0.98828 0.73238 0.0016 1.0504 0.26087 1.0977 0.33594 0.04721 0.07507 0.13227 0.12684-0.24219 0.53906-0.37446 0.41222-1.2675 0.98321-2.8027 1.3945-1.5946 0.42725-2.843 1.1432-3.5566 2.1504-0.35681 0.50359-0.58333 1.1414-0.45898 1.8047 0.12434 0.6633 0.60012 1.2194 1.2012 1.5664 0.77787 0.44912 1.5552 0.266 2.2168 0.0625 0.66163-0.20349 1.3038-0.50017 1.8965-0.73828s1.1383-0.40178 1.4375-0.41406c0.16549-0.0068 0.16506 0.06464 0.20508 0.08789-0.07656 0.09066-0.13688 0.17218-0.29297 0.31641-0.23014 0.21264-0.51053 0.43583-0.77344 0.7832-0.13146 0.17369-0.26898 0.39051-0.33789 0.69922-0.06891 0.30871-0.0186 0.7186 0.15625 1.0215a1 1 0 0 0 1.3672 0.36523 1 1 0 0 0 0.48828-0.95508c0.08654-0.09524 0.23584-0.24094 0.45703-0.44531 0.25902-0.23932 0.56728-0.51173 0.81445-0.94726s0.34905-1.1968 0.01953-1.7676c-0.46794-0.81051-1.4196-1.1877-2.1855-1.1562-0.76592 0.03143-1.4494 0.29465-2.1016 0.55664s-1.2707 0.53977-1.7383 0.68359c-0.46761 0.14382-0.68863 0.08075-0.62891 0.11523-0.2509-0.14485-0.23617-0.20228-0.23633-0.20312-1.57e-4 -8.4e-4 -0.01469-0.07939 0.12695-0.2793 0.28328-0.39981 1.1743-1.0355 2.4414-1.375 1.7777-0.47628 3.0012-1.1409 3.7656-1.9824 0.7644-0.8415 1.0111-2.0631 0.45508-2.9473s-1.606-1.269-2.7871-1.2715c-1.1811-0.0025-2.5669 0.37997-4.084 1.2559-0.53383 0.30822-1.7938 0.77663-3.0703 0.9707-1.2765 0.19407-2.5734 0.10087-3.3164-0.32812a1.0001 1.0001 0 0 0-0.13476-0.06641c-1.1301-0.44271-1.3973-1.0545-1.2969-2.0996 0.10045-1.0451 0.81832-2.4754 2.0938-3.7578 2.5509-2.5648 7.1473-4.5422 12.594-2.9258a1 1 0 0 0 1.2422-0.67383 1 1 0 0 0-0.67383-1.2422c-1.5421-0.45768-3.0345-0.66312-4.4531-0.66602z" color="#000000" fill="#fff" stroke-linecap="round" stroke-linejoin="round" style="-inkscape-stroke:none"/>
 <path id="rect8" d="m10.5 3.5c-1.6447 0-3 1.3553-3 3v35c0 1.6447 1.3553 3 3 3h27c1.6447 0 3-1.3553 3-3v-35c0-1.6447-1.3553-3-3-3zm0 2h27c0.5713 0 1 0.4287 1 1v35c0 0.5713-0.4287 1-1 1h-27c-0.5713 0-1-0.4287-1-1v-35c0-0.5713 0.4287-1 1-1z" color="#000000" fill="#fff" stroke-linecap="round" stroke-linejoin="round" style="-inkscape-stroke:none"/>
 <path id="path10" d="m12.75 3.5a1 1 0 0 0-1 1v39a1 1 0 0 0 1 1 1 1 0 0 0 1-1v-39a1 1 0 0 0-1-1z" color="#000000" fill="#fff" stroke-linecap="round" stroke-linejoin="round" style="-inkscape-stroke:none"/>
</svg>
