<?xml version="1.0" encoding="UTF-8"?>
<svg id="b" version="1.1" viewBox="0 0 48 48" xmlns="http://www.w3.org/2000/svg">
 <defs id="defs1">
  <style id="style1">.c{fill:#fff;}.d{fill:none;stroke:#fff;stroke-width:2px;stroke-linecap:round;stroke-linejoin:round;}</style>
 </defs>
 <g id="g7">
  <path id="line1" d="m14.25 14.414a1 1 0 0 0-1 1v5.4258a1 1 0 0 0 1 1 1 1 0 0 0 1-1v-5.4258a1 1 0 0 0-1-1z" fill="#fff" stop-color="#000000" stroke-linecap="round" stroke-linejoin="round"/>
  <path id="line2" d="m11.537 17.127a1 1 0 0 0-1 1 1 1 0 0 0 1 1h5.4258a1 1 0 0 0 1-1 1 1 0 0 0-1-1z" fill="#fff" stop-color="#000000" stroke-linecap="round" stroke-linejoin="round"/>
  <path id="path2" d="m12.365 7.1719c-1.1214 0-2.0527 0.93129-2.0527 2.0527v1.7715a1 1 0 0 0 1 1 1 1 0 0 0 1-1v-1.7715c0-0.040553 0.01218-0.052734 0.05273-0.052734h3.7695c0.04055 0 0.05273 0.012182 0.05273 0.052734v1.6133a1 1 0 0 0 1 1 1 1 0 0 0 1-1v-1.6133c0-1.1214-0.93129-2.0527-2.0527-2.0527z" fill="#fff" stop-color="#000000" stroke-linecap="round" stroke-linejoin="round"/>
  <path id="path3" d="m14.473 9.3398c-3.8256 0-7.2744 2.4358-8.248 6.0195-0.82534 3.0374-1.6055 7.3845-2.5859 12.037-0.61119 2.9001 0.85878 5.8495 3.5391 7.1113 2.8637 1.3483 6.3009 0.39151 8.0566-2.2422l4.2578-6.3848h9.0156l4.2578 6.3848c1.7557 2.6337 5.193 3.5905 8.0566 2.2422 2.6803-1.2618 4.1503-4.2113 3.5391-7.1113-0.98046-4.6527-1.7606-8.9997-2.5859-12.037-0.97378-3.5838-4.4224-6.0195-8.248-6.0195-2.134 0-4.0451 0.84312-5.5547 2.125h-7.9453c-1.5096-1.2818-3.4207-2.125-5.5547-2.125zm0 2c1.7887 0 3.398 0.70337 4.5977 1.8477a1.0001 1.0001 0 0 0 0.69141 0.27734h8.4766a1.0001 1.0001 0 0 0 0.69141-0.27734c1.1995-1.1442 2.809-1.8477 4.5977-1.8477 2.9756 0 5.6007 1.9019 6.3184 4.543 0.78146 2.876 1.5707 7.2395 2.5586 11.928 0.42221 2.0033-0.58008 4.0141-2.4336 4.8867-1.9805 0.93249-4.3267 0.28048-5.541-1.541l-4.5547-6.8301-0.13867 0.25781a1.0001 1.0001 0 0 0-0.69336-0.70312h-10.086a1.0001 1.0001 0 0 0-0.83203 0.44531l-4.5547 6.8301c-1.2143 1.8215-3.5605 2.4735-5.541 1.541-1.8535-0.87259-2.8558-2.8834-2.4336-4.8867 0.98794-4.6882 1.7771-9.0518 2.5586-11.928 0.71752-2.6409 3.3428-4.543 6.3184-4.543z" fill="#fff" stop-color="#000000" stroke-linecap="round" stroke-linejoin="round"/>
  <path id="path4" d="m31.865 7.1719c-1.1214 0-2.0527 0.93129-2.0527 2.0527v1.6133a1 1 0 0 0 1 1 1 1 0 0 0 1-1v-1.6133c0-0.040553 0.01218-0.052734 0.05273-0.052734h3.7695c0.04055 0 0.05273 0.012182 0.05273 0.052734v1.7715a1 1 0 0 0 1 1 1 1 0 0 0 1-1v-1.7715c0-1.1214-0.93129-2.0527-2.0527-2.0527z" fill="#fff" stop-color="#000000" stroke-linecap="round" stroke-linejoin="round"/>
  <circle id="circle4" class="c" cx="31.03" cy="18.127" r="1.5"/>
  <circle id="circle5" class="c" cx="36.463" cy="18.127" r="1.5"/>
  <circle id="circle6" class="c" cx="33.75" cy="15.413" r="1.5"/>
  <circle id="circle7" class="c" cx="33.75" cy="20.84" r="1.5"/>
 </g>
 <g id="g8" fill="#fff" stroke-linecap="round" stroke-linejoin="round">
  <path id="path7" d="m25.67 26.098a1.0001 1.0001 0 0 0-1.3359 1.3652c0.52518 0.96826 0.8132 1.452 0.9375 1.791 0.1243 0.33899 0.16406 0.64719 0.16406 1.5293a1 1 0 0 0 1 1 1 1 0 0 0 1-1c0-0.3143-0.07722-0.4754-0.09375-0.73242 0.39544 0.65384 0.42041 1.2862 0.40234 1.9082a1.0001 1.0001 0 0 0-1.4375 0.71289c0.0046 0.08539-0.09315 0.43959-0.37891 0.91602-0.28575 0.47642-0.71008 1.056-1.1152 1.709s-0.80034 1.3878-0.98438 2.2383c-0.0238 0.11001-0.0025 0.23552-0.01758 0.34961-1.7714-1.4437-1.9258-3.2812-1.9258-3.2812a1 1 0 0 0-1.0703-0.92188 1 1 0 0 0-0.92383 1.0703s0.42104 4.2727 4.8262 6.0059a1.0001 1.0001 0 0 0 1.252-1.3965c-0.26825-0.50797-0.29116-0.91618-0.18555-1.4043 0.10562-0.48811 0.37932-1.0395 0.73047-1.6055 0.10038-0.16179 0.21355-0.33282 0.32226-0.49609a1.0001 1.0001 0 0 0 1.5566 0.42188s1.1711-1.5109 1.418-3.5859-0.65071-4.7964-4.1406-6.5938z" stop-color="#000000"/>
  <path id="path8" d="m22.479 26.051c-2.5675 0.9651-3.9265 2.9705-4.248 4.9941s0.25806 4.0503 1.3672 5.4707a1.0001 1.0001 0 0 0 1.7559-0.36328c0.17155-0.65979 0.42718-1.0563 0.62109-1.2891 0.19392-0.23275 0.25-0.25195 0.25-0.25195a1 1 0 0 0 0.30859-0.41211c0.20384 0.2786 0.264 0.56526 0.54688 0.85547a1.0001 1.0001 0 0 0 1.709-0.81641c-0.23142-1.9436 2.166-3.8262 2.166-3.8262a1 1 0 0 0 0.23828-1.3926 1 1 0 0 0-1.3945-0.23828s-1.3054 0.96315-2.2031 2.4902c-0.0012-0.27465-0.03676-0.37106-0.02344-0.77734a1.0001 1.0001 0 0 0-0.99609-1.0312c-0.37053-7.34e-4 -0.31205-0.07431-0.22852 0.04102 0.08354 0.11533 0.02369 0.14262 0.07813-0.05859 0.10888-0.40243 0.64743-1.2496 1.1387-1.7793a1.0001 1.0001 0 0 0-1.0859-1.6152zm-1.8594 4.3301c0.04511 0.09814 0.03906 0.20055 0.10742 0.29492 0.22455 0.31 0.54045 0.501 0.89062 0.62305-0.0066 0.53841-0.0515 1.0956 0.08008 1.5918 0.01412 0.05325 0.07907 0.0981 0.0957 0.15039a1 1 0 0 0-0.58789-0.15039s-0.39904 0.25141-0.76562 0.69141c-0.01319 0.01583-0.02382 0.05778-0.03711 0.07422-0.21578-0.73402-0.31958-1.527-0.19727-2.2969 0.05594-0.3521 0.28016-0.65006 0.41406-0.97852z" stop-color="#000000"/>
 </g>
</svg>
