<?xml version="1.0" encoding="UTF-8"?>
<!-- Created with Inkscape (http://www.inkscape.org/) -->
<svg id="svg1" width="48" height="48" version="1.1" viewBox="0 0 48 48" xml:space="preserve" xmlns="http://www.w3.org/2000/svg">
  <defs id="defs1">
    <style id="style1">.a{fill:none;stroke:#fff;stroke-width:2px;stroke-width:2px;stroke-linecap:round;stroke-linejoin:round;}</style>
  </defs>
  <g id="layer2" fill="#fff" stroke-linecap="round" stroke-linejoin="round">
    <path id="Steam_logo" d="m23.998 9.5176c-5.0938 0.0023677-9.2457 4.1523-9.248 9.2461v0.34961a1.0001 1.0001 0 0 0 0.65625 0.93945l2.9922 1.0957c-0.01476 0.03793-0.01201 0.08252-0.02539 0.12109l-1.7852-0.6582a1.0001 1.0001 0 0 0-1.2871 1.2754c2.513 6.9903 11.988 8.2659 16.26 2.1895s-0.13425-14.56-7.5625-14.559zm0 2c1.5323-2.1e-4 2.8845 0.44932 4.0059 1.1836-0.17839-0.03113-0.33124-0.10817-0.52148-0.11523-0.0086-3.61e-4 -0.01479-0.0075-0.02344-0.0078a1.0001 1.0001 0 0 0-2e-3 2e-3h-0.0039c-0.39226-0.01601-0.78487 0.02717-1.1641 0.12891-0.02774 0.0075-0.0409 0.03689-0.06836 0.04492-0.72937 0.21393-1.3056 0.65896-1.7793 1.1953-0.11431 0.12786-0.22161 0.22563-0.31836 0.36719-0.36817 0.5373-0.61605 1.1374-0.68555 1.7949l-2.0664 2.9219c-0.01778 5.87e-4 -0.03307 0.0089-0.05078 0.0098-0.23982 0.01131-0.4807 0.01894-0.71289 0.08203-8.67e-4 2.3e-4 -0.0011 0.0017-2e-3 2e-3 -0.06628 0.01766-0.1129 0.07598-0.17774 0.09766-0.22554 0.07695-0.42172 0.18715-0.62305 0.30859l-2.9882-1.0958c0.18189-3.851 3.2846-6.9181 7.1816-6.9199zm3.3965 3.0625c0.51569 0.01534 0.85142 0.21431 1.1406 0.44727 0.23242 0.1938 0.37599 0.47244 0.49609 0.76172 0.03717 0.10329 0.10666 0.18655 0.12891 0.29687 0.14689 0.63756 0.0637 1.0995-0.17383 1.4609-0.25118 0.38224-0.68262 0.6784-1.1738 0.81055-0.49121 0.13215-1.0146 0.09333-1.4238-0.11133-0.40927-0.20466-0.74532-0.54671-0.93359-1.2461-0.10857-0.4114 9e-3 -0.79602 0.14844-1.1602 0.04655-0.11974 0.05426-0.25426 0.12305-0.36133 0.24888-0.38089 0.60708-0.70022 1.0879-0.83008 0.18438-0.04947 0.37567-0.07048 0.56641-0.0625a1.0001 1.0001 0 0 0 0.01367-0.0059zm-3.9453 1.7168c-2.24e-4 0.0039 2.13e-4 0.0079 0 0.01172-0.0041 0.07446-0.06857 0.12785-0.06836 0.20312zm7.6777 1.1055c0.34324 1.8067 0.02662 3.7743-1.2031 5.5234-2.0382 2.899-5.467 3.672-8.332 2.6641 0.11711-0.0042 0.22011-0.05206 0.33398-0.06836 0.08724-0.01289 0.17593 0.05238 0.26172 0.0332 0.07589-0.01696 0.12242-0.1031 0.19727-0.125 0.6203-0.18204 1.1558-0.51423 1.5703-0.99219 0.05686-0.06399 0.15474-0.06148 0.20703-0.13086 0.11435-0.15173 0.16045-0.35537 0.24609-0.53125 0.05556-0.10842 0.10684-0.2114 0.15039-0.32617 0.08148-0.23145 0.12543-0.46552 0.1543-0.7207 0.01402-0.10092 0.0579-0.19142 0.0625-0.29492l2.9043-2.0547c0.21022-0.01964 0.42234-0.02429 0.62695-0.07813 9e-4 -2.3e-4 0.0011-0.0017 2e-3 -2e-3 0.0088-0.0023 0.01469-0.0075 0.02344-0.0098 0.47144-0.12683 0.92136-0.33788 1.3262-0.62305 0.08849-0.06456 0.14134-0.15575 0.22266-0.22656 0.28349-0.2356 0.5671-0.47497 0.77734-0.79492 0.23685-0.36044 0.37277-0.79374 0.46875-1.2422zm-7.0371 1.25c0.2865 0.45057 0.6307 0.80699 1.0371 1.084l-0.98828 0.69922c-0.214-0.30194-0.46374-0.5548-0.76367-0.77148zm-2.5859 2.3594c0.01497 0.0011 0.02999 0.0044 0.04492 0.0059 0.65494 0.03869 1.1367 0.52565 1.2012 1.1719 0.02056 0.20169-0.05303 0.31538-0.09375 0.45703-0.05811 0.19037-0.09056 0.39392-0.2207 0.53516-0.05721 0.05859-0.14458 0.08423-0.21484 0.13281-0.19322 0.13834-0.40822 0.24853-0.66406 0.26562-0.08027 0.0066-0.14825-0.01942-0.22656-0.02539-0.2615-0.03172-0.5004-0.12102-0.68945-0.2793-0.07361-0.06003-0.13012-0.1668-0.19141-0.25586-0.14617-0.20917-0.28878-0.42763-0.29297-0.70703 0.0109-0.72727 0.57999-1.2876 1.3066-1.2949 0.01385-1.2e-4 0.02715-0.0062 0.04102-0.0059z" color="#000000" style="-inkscape-stroke:none"/>
    <path id="path3" d="m36.77 26.982a1 1 0 0 0-0.76367 0.0625 1 1 0 0 0-0.42969 1.3477l5.5996 10.846c0.0056 0.05412 0.04823 0.45308 0.02344 0.51758-0.01324 0.03444 0.08455-0.025-0.03125 0.0059-0.1158 0.03086-0.52378 0.05498-1.2617-0.17383-1.9749-0.61236-2.9761-0.75467-3.0371-0.76367-0.0199-5e-3 -0.62789-0.16014-1.3242 0.0625-0.70765 0.22626-1.5091 0.90778-1.8887 2.0703-0.52724 1.6148-0.86094 2.7359-0.88086 2.8027-0.0038 0.0068-0.15269 0.23936-0.27344 0.42383-0.05176-0.05376-0.06228-0.02251-0.22852-0.35742-0.92595-1.8655-4.8555-10.098-4.8555-10.098a1 1 0 0 0-1.332-0.47266 1 1 0 0 0-0.47266 1.332s3.9037 8.1839 4.8691 10.129c0.37058 0.7466 0.77933 1.2866 1.4355 1.5352 0.65622 0.24855 1.362-0.02522 1.7344-0.33398 0.74479-0.61753 0.98438-1.4199 0.98438-1.4199a1.0001 1.0001 0 0 0 0.0293-0.08594s0.3559-1.1962 0.89062-2.834c0.22177-0.67925 0.4376-0.73594 0.59766-0.78711 0.16005-0.05117 0.24023-0.03125 0.24023-0.03125a1.0001 1.0001 0 0 0 0.11133 0.02344s0.87377 0.11492 2.8086 0.71484c0.94677 0.29356 1.6952 0.37441 2.3672 0.19531 0.672-0.1791 1.188-0.71401 1.3828-1.2207 0.38962-1.0134 0.01563-1.873 0.01563-1.873a1.0001 1.0001 0 0 0-0.06445-0.1582l-5.6621-10.967a1 1 0 0 0-0.58398-0.49219z" color="#000000" style="-inkscape-stroke:none"/>
    <path id="path3-0" d="m11.145 26.963a1 1 0 0 0-0.57422 0.50391l-5.5703 11.289a1.0001 1.0001 0 0 0-0.056641 0.13867s-0.37399 0.86162 0.015625 1.875c0.19481 0.50669 0.71081 1.0416 1.3828 1.2207 0.672 0.1791 1.4224 0.09825 2.3691-0.19531 1.9348-0.59993 2.8066-0.7168 2.8066-0.7168a1.0001 1.0001 0 0 0 0.11133-0.02148s0.08018-0.01992 0.24024 0.03125c0.16005 0.05117 0.37588 0.10786 0.59766 0.78711 0.53473 1.6378 0.89062 2.834 0.89062 2.834a1.0001 1.0001 0 0 0 0.0293 0.08594s0.23959 0.80239 0.98438 1.4199c0.37239 0.30876 1.0782 0.58254 1.7344 0.33398 0.65622-0.24855 1.065-0.78856 1.4355-1.5352 0.98966-1.9939 4.8242-10.43 4.8242-10.43a1 1 0 0 0-0.49609-1.3242 1 1 0 0 0-1.3242 0.49609s-3.8932 8.5505-4.7949 10.367c-0.16674 0.33592-0.17518 0.30604-0.22656 0.35938-0.1212-0.18475-0.27158-0.41893-0.27539-0.42578-0.01992-0.06682-0.35362-1.1879-0.88086-2.8027-0.37956-1.1625-1.181-1.8441-1.8887-2.0703-0.69739-0.22298-1.3061-0.06899-1.3242-0.06445-0.06068 9e-3 -1.0619 0.15317-3.0371 0.76562-0.73794 0.22881-1.144 0.20469-1.2598 0.17383-0.1158-0.03086-0.018009 0.02663-0.03125-0.0078-0.024885-0.06472 0.016105-0.46592 0.021484-0.51758l5.5156-11.182a1 1 0 0 0-0.45508-1.3379 1 1 0 0 0-0.76367-0.05078z" color="#000000" style="-inkscape-stroke:none"/>
    <path id="path4" d="m23.998 2.1797c-9.0413 0-16.381 7.4377-16.381 16.572 0 9.1345 7.3395 16.572 16.381 16.572 9.0413 0 16.379-7.4377 16.379-16.572 0-9.1345-7.3376-16.572-16.379-16.572zm0 2c7.9469 0 14.379 6.5052 14.379 14.572s-6.432 14.572-14.379 14.572-14.381-6.5052-14.381-14.572 6.434-14.572 14.381-14.572z" color="#000000" style="-inkscape-stroke:none"/>
  </g>
</svg>
