<?xml version="1.0" encoding="UTF-8" standalone="no"?>
<svg
   id="Layer_2"
   data-name="Layer 2"
   viewBox="0 0 48 48"
   version="1.1"
   sodipodi:docname="slack.svg"
   xmlns:inkscape="http://www.inkscape.org/namespaces/inkscape"
   xmlns:sodipodi="http://sodipodi.sourceforge.net/DTD/sodipodi-0.dtd"
   xmlns="http://www.w3.org/2000/svg"
   xmlns:svg="http://www.w3.org/2000/svg">
  <sodipodi:namedview
     id="namedview4"
     pagecolor="#ffffff"
     bordercolor="#666666"
     borderopacity="1.0"
     inkscape:showpageshadow="2"
     inkscape:pageopacity="0.0"
     inkscape:pagecheckerboard="0"
     inkscape:deskcolor="#d1d1d1" />
  <defs
     id="defs1">
    <style
       id="style1">.cls-1{fill:none;stroke:#fff;stroke-linecap:round;stroke-linejoin:round;stroke-width:2px;}</style>
  </defs>
  <path
     style="color:#000000;fill:#ffffff;stroke-linecap:round;stroke-linejoin:round;-inkscape-stroke:none"
     d="m 19.060547,4.5 c -1.483332,0 -2.723499,0.5922565 -3.523438,1.4921875 -0.799938,0.899931 -1.177734,2.0598103 -1.177734,3.2070313 0,1.1472212 0.377796,2.3090532 1.177734,3.2089842 0.799939,0.899931 2.040106,1.492188 3.523438,1.492188 h 3.699219 a 1.0001,1.0001 0 0 0 1,-1 V 9.203125 9.1992188 C 23.764583,6.6226504 21.659075,4.5069744 19.082031,4.5 a 1,1 0 0 0 -0.0078,0.00195 A 1,1 0 0 0 19.060547,4.5 Z m 0.01172,1.9941406 A 1,1 0 0 0 19.078125,6.5 c 1.497492,0.00405 2.685704,1.199774 2.681641,2.6972656 a 1.0001,1.0001 0 0 0 0,0.00195 v 2.7011722 h -2.699219 c -0.983332,0 -1.593951,-0.332745 -2.027344,-0.820313 -0.433393,-0.487567 -0.673828,-1.1780821 -0.673828,-1.8808592 0,-0.7027772 0.240435,-1.3913387 0.673828,-1.8789063 C 17.466596,6.8327449 18.077215,6.5 19.060547,6.5 a 1,1 0 0 0 0.01172,-0.00586 z M 9.1992188,14.359375 c -1.4833315,0 -2.7215461,0.592257 -3.5214844,1.492188 C 4.877796,16.751493 4.5,17.913326 4.5,19.060547 c 0,1.147221 0.377796,2.3071 1.1777344,3.207031 0.7999383,0.899931 2.0381529,1.492188 3.5214844,1.492188 h 9.8613282 c 1.483331,0 2.721546,-0.592257 3.521484,-1.492188 0.799939,-0.899931 1.177735,-2.05981 1.177735,-3.207031 0,-1.147221 -0.377796,-2.309053 -1.177735,-3.208984 -0.717845,-0.807577 -1.823135,-1.301859 -3.107422,-1.408204 a 1,1 0 0 0 -0.394531,-0.08398 h -0.01953 z m 0,2 h 9.8613282 c 0.983332,0 1.59395,0.332745 2.027344,0.820312 0.433393,0.487568 0.671875,1.178083 0.671875,1.88086 0,0.702777 -0.238482,1.391339 -0.671875,1.878906 -0.433394,0.487568 -1.044012,0.820313 -2.027344,0.820313 H 9.1992188 c -0.9833318,0 -1.5939505,-0.332745 -2.0273438,-0.820313 C 6.7384817,20.451886 6.5,19.763324 6.5,19.060547 6.5,18.35777 6.7384818,17.667255 7.171875,17.179687 7.6052682,16.69212 8.215887,16.359375 9.1992188,16.359375 Z"
     id="path1" />
  <path
     style="color:#000000;fill:#ffffff;stroke-linecap:round;stroke-linejoin:round;-inkscape-stroke:none"
     d="m 28.939453,4.5 c -1.147221,0 -2.3071,0.377796 -3.207031,1.1777344 -0.899931,0.7999383 -1.492188,2.0381529 -1.492188,3.5214844 v 9.8613282 c 0,1.483331 0.592257,2.721546 1.492188,3.521484 0.899931,0.799939 2.05981,1.177735 3.207031,1.177735 1.147221,0 2.309054,-0.377796 3.208984,-1.177735 0.899931,-0.799938 1.492188,-2.038153 1.492188,-3.521484 V 9.1992188 c 0,-1.4833315 -0.592257,-2.7215461 -1.492188,-3.5214844 C 31.248507,4.877796 30.086674,4.5 28.939453,4.5 Z m 0,2 c 0.702777,0 1.393292,0.2384818 1.880859,0.671875 0.487568,0.4333932 0.820313,1.044012 0.820313,2.0273438 v 9.8613282 c 0,0.983332 -0.332745,1.59395 -0.820313,2.027344 -0.487567,0.433393 -1.178082,0.671875 -1.880859,0.671875 -0.702777,0 -1.391339,-0.238482 -1.878906,-0.671875 -0.487568,-0.433394 -0.820313,-1.044012 -0.820313,-2.027344 V 9.1992188 c 0,-0.9833318 0.332745,-1.5939505 0.820313,-2.0273438 C 27.548114,6.7384817 28.236676,6.5 28.939453,6.5 Z m 9.861328,7.859375 c -1.147221,0 -2.309053,0.377796 -3.208984,1.177734 -0.899931,0.799939 -1.492188,2.040106 -1.492188,3.523438 v 3.699219 a 1.0001,1.0001 0 0 0 1,1 h 3.701172 c 2.583891,0 4.699219,-2.115328 4.699219,-4.699219 a 1,1 0 0 0 -0.07813,-0.384766 c -0.0998,-1.298132 -0.599955,-2.415021 -1.414063,-3.138672 -0.899931,-0.799938 -2.05981,-1.177734 -3.207031,-1.177734 z m 0,2 c 0.702777,0 1.391339,0.240435 1.878906,0.673828 0.487568,0.433393 0.820313,1.044012 0.820313,2.027344 0,1.503012 -1.196207,2.699219 -2.699219,2.699219 h -2.701172 v -2.699219 c 0,-0.983332 0.332745,-1.593951 0.820313,-2.027344 0.487567,-0.433393 1.178082,-0.673828 1.880859,-0.673828 z"
     id="path2" />
  <path
     style="color:#000000;fill:#ffffff;stroke-linecap:round;stroke-linejoin:round;-inkscape-stroke:none"
     d="m 28.939453,24.240234 c -1.483331,0 -2.721546,0.592257 -3.521484,1.492188 -0.799939,0.899931 -1.177735,2.05981 -1.177735,3.207031 0,1.147221 0.377796,2.309053 1.177735,3.208984 0.799938,0.899932 2.038153,1.492188 3.521484,1.492188 h 9.861328 c 1.483332,0 2.721546,-0.592257 3.521485,-1.492188 C 43.122204,31.248507 43.5,30.086674 43.5,28.939453 c 0,-1.147221 -0.377796,-2.3071 -1.177734,-3.207031 -0.799939,-0.899931 -2.038153,-1.492188 -3.521485,-1.492188 z m 0,2 h 9.861328 c 0.983332,0 1.593951,0.332745 2.027344,0.820313 0.433393,0.487567 0.671875,1.176129 0.671875,1.878906 0,0.702777 -0.238482,1.393292 -0.671875,1.880859 -0.433393,0.487568 -1.044012,0.820313 -2.027344,0.820313 h -9.861328 c -0.983332,0 -1.59395,-0.332745 -2.027344,-0.820313 -0.433393,-0.487567 -0.671875,-1.178082 -0.671875,-1.880859 0,-0.702777 0.238482,-1.391339 0.671875,-1.878906 0.433394,-0.487568 1.044012,-0.820313 2.027344,-0.820313 z m -3.699219,7.859375 a 1.0001,1.0001 0 0 0 -1,1 v 3.701172 c 0,2.583891 2.115328,4.699219 4.699219,4.699219 1.483332,0 2.723499,-0.592256 3.523438,-1.492188 0.799938,-0.899931 1.177734,-2.05981 1.177734,-3.207031 0,-1.147221 -0.377796,-2.309053 -1.177734,-3.208984 -0.799939,-0.899931 -2.040106,-1.492188 -3.523438,-1.492188 z m 1,2 h 2.699219 c 0.983332,0 1.593951,0.332745 2.027344,0.820313 0.433393,0.487567 0.673828,1.178082 0.673828,1.880859 0,0.702777 -0.240435,1.391339 -0.673828,1.878906 C 30.533404,41.167255 29.922785,41.5 28.939453,41.5 c -1.503012,0 -2.699219,-1.196207 -2.699219,-2.699219 z"
     id="path3" />
  <path
     style="color:#000000;fill:#ffffff;stroke-linecap:round;stroke-linejoin:round;-inkscape-stroke:none"
     d="M 9.1992188,24.240234 C 6.6153276,24.240234 4.5,26.355562 4.5,28.939453 c 0,1.483332 0.5922565,2.723499 1.4921875,3.523438 0.899931,0.799938 2.0598103,1.177734 3.2070313,1.177734 1.1472212,0 2.3090532,-0.377796 3.2089842,-1.177734 0.899931,-0.799939 1.492188,-2.040106 1.492188,-3.523438 v -3.699219 a 1.0001,1.0001 0 0 0 -1,-1 z m 9.8808592,0 c -2.54787,0 -4.619873,2.062963 -4.677734,4.597657 a 1,1 0 0 0 -0.04297,0.101562 v 9.861328 c 0,1.483332 0.592256,2.721546 1.492188,3.521485 0.899931,0.799938 2.061763,1.177734 3.208984,1.177734 1.147221,0 2.3071,-0.377796 3.207031,-1.177734 0.899931,-0.799939 1.492188,-2.038153 1.492188,-3.521485 v -9.855469 -0.0059 c 0.01074,-2.579864 -2.099075,-4.699257 -4.679688,-4.699219 z m -9.8808592,2 h 2.7011722 v 2.699219 c 0,0.983332 -0.332745,1.593951 -0.820313,2.027344 -0.487567,0.433393 -1.1780821,0.673828 -1.8808592,0.673828 -0.7027772,0 -1.3913387,-0.240435 -1.8789063,-0.673828 C 6.8327449,30.533404 6.5,29.922785 6.5,28.939453 c 0,-1.503012 1.1962068,-2.699219 2.6992188,-2.699219 z m 9.8808592,0 c 1.497876,-2.2e-5 2.687828,1.195506 2.679688,2.69336 a 1.0001,1.0001 0 0 0 0,0.0059 v 9.861328 c 0,0.983332 -0.332745,1.593951 -0.820313,2.027344 C 20.451886,41.261518 19.763324,41.5 19.060547,41.5 c -0.702777,0 -1.393292,-0.238482 -1.88086,-0.671875 -0.487567,-0.433393 -0.820312,-1.044012 -0.820312,-2.027344 v -9.808594 a 1,1 0 0 0 0.02148,-0.05273 c 0,-1.503012 1.196207,-2.699219 2.699219,-2.699219 z"
     id="path4" />
</svg>
