<?xml version="1.0" encoding="UTF-8"?>
<svg id="b" version="1.1" viewBox="0 0 48 48" xmlns="http://www.w3.org/2000/svg">
 <defs id="defs4">
  <style id="style2">.c{fill:none;stroke:#fff;stroke-width:2px;stroke-linecap:round;stroke-linejoin:round;}</style>
 </defs>
 <path id="path6" d="m24.398 15.088c-5.2151-0.42411-10.376 0.0727-14.338 1.2754a1 1 0 0 0-0.66602 1.248 1 1 0 0 0 1.2461 0.66602c7.2655-2.2056 19.794-1.7344 27.396 2.7793a1 1 0 0 0 1.3711-0.34961 1 1 0 0 0-0.34961-1.3711c-4.1758-2.4793-9.4451-3.8239-14.66-4.248zm-6.7734 7.0605c-2.179 0.17074-4.321 0.56025-6.3496 1.1758a1 1 0 0 0-0.66602 1.248 1 1 0 0 0 1.2461 0.66602c7.5019-2.2763 17.002-1.1425 23.34 2.752a1 1 0 0 0 1.375-0.32812 1 1 0 0 0-0.32812-1.377c-5.2022-3.1966-12.08-4.6489-18.617-4.1367zm0.5625 6.625c-1.9572 0.1362-3.9852 0.44372-6.0781 0.92188a1 1 0 0 0-0.75195 1.1973 1 1 0 0 0 1.1992 0.75195c8.0081-1.8296 14.725-1.0303 20.137 2.2773a1 1 0 0 0 1.375-0.33203 1 1 0 0 0-0.33203-1.375c-4.4414-2.7144-9.6771-3.85-15.549-3.4414z" color="#000000" fill="#fff" stroke-linecap="round" stroke-linejoin="round" style="-inkscape-stroke:none"/>
 <path id="path8" d="m14.75 4.5a1.0001 1.0001 0 0 0-0.70703 0.29297l-9.25 9.25a1 1 0 0 0-0.29297 0.70703v27.75a1.0001 1.0001 0 0 0 1 1h27.75a1.0001 1.0001 0 0 0 0.70703-0.29297l9.25-9.25a1.0001 1.0001 0 0 0 0.29297-0.70703v-27.75a1.0001 1.0001 0 0 0-1-1zm0.41406 2h26.336v26.336l-8.6641 8.6641h-26.336v-26.336z" color="#000000" fill="#fff" stroke-linecap="round" stroke-linejoin="round" style="-inkscape-stroke:none"/>
</svg>
