<?xml version="1.0" encoding="UTF-8"?>
<svg id="a" version="1.1" viewBox="0 0 48 48" xmlns="http://www.w3.org/2000/svg">
 <defs id="defs1">
  <style id="style1">.b{fill:none;stroke:#fff;stroke-width:2px;stroke-linecap:round;stroke-linejoin:round;}</style>
 </defs>
 <path id="polygon1" d="m23.779 10.258a1.0001 1.0001 0 0 0-0.67774 0.53906l-1.5938 3.2754-1.0586 1.6953a1.0001 1.0001 0 0 0-0.10547 0.23047l-1.25 3.9863-3.7676 4.7617a1.0001 1.0001 0 0 0-0.04102 0.05469l-1.5332 2.2344-0.08008-0.08594a1.0001 1.0001 0 0 0-1.6152 0.2207l-0.84374 1.6055-0.46289-0.49024a1.0001 1.0001 0 0 0-1.4922 0.03906l-2.1738 2.5781a1.0001 1.0001 0 0 0-0.00391 0.0059l-3.0742 3.6953-1.2734 1.5215a1.0001 1.0001 0 0 0 0.80078 1.6406l14.611-0.49219 1.8203 0.46094a1.0001 1.0001 0 0 0 0.50781-0.0039l1.5508-0.41992 1.3047 0.41016a1.0001 1.0001 0 0 0 0.34766 0.04492l4.9805-0.23828 0.3418 0.15234a1.0001 1.0001 0 0 0 0.44922 0.08594l5.6602-0.23828 0.22461 0.12109a1.0001 1.0001 0 0 0 0.4707 0.11719h8.6973a1.0001 1.0001 0 0 0 0.74805-1.6641l-2.8984-3.2676-2.4102-3.0957-0.59961-1.4844a1.0001 1.0001 0 0 0-0.19727-0.30859l-0.43359-0.46484a1.0001 1.0001 0 0 0-1.4082-0.05469l-0.44141 0.40625-1.4531-1.5957-3.2676-5.7734a1.0001 1.0001 0 0 0-1.3965-0.35742l-0.96094 0.59375-0.95117-1.5-1.5742-5.1816a1.0001 1.0001 0 0 0-0.20703-0.36914l-1.0898-1.2383-0.94726-1.5684a1.0001 1.0001 0 0 0-0.23242-0.26367l-0.1543-0.125a1.0001 1.0001 0 0 0-0.8457-0.19531zm0.35156 2.9941 0.16211 0.26953a1.0001 1.0001 0 0 0 0.10547 0.14453l1.0059 1.1406 1.5527 5.1055a1.0001 1.0001 0 0 0 0.11133 0.24414l1.6152 2.5469a1.0001 1.0001 0 0 0 1.4785 0.23828l0.63281-0.51758 0.11523-0.07031 2.8105 4.9648a1.0001 1.0001 0 0 0 0.13086 0.18164l2.2051 2.4219a1.0001 1.0001 0 0 0 1.418 0.0625l0.29688-0.27344 0.36524 0.90625a1.0001 1.0001 0 0 0 0.13867 0.24024l2.5156 3.2305a1.0001 1.0001 0 0 0 0.04102 0.04883l1.4453 1.6289h-6.2246l-0.24414-0.13086a1.0001 1.0001 0 0 0-0.51367-0.11719l-5.6992 0.24023-0.34375-0.1543a1.0001 1.0001 0 0 0-0.45312-0.08594l-5.041 0.24023-1.416-0.44336a1.0001 1.0001 0 0 0-0.56055-0.0098l-1.5781 0.42777-1.7031-0.43359a1.0001 1.0001 0 0 0-0.2793-0.0293l-12.518 0.42188 2.9121-3.502 1.4492-1.7168 0.7207 0.76562a1.0001 1.0001 0 0 0 1.6484-0.29102l0.44922-1.0508 0.29883-0.56836a1.0001 1.0001 0 0 0 1.5176-0.13477l2.2168-3.2324 3.8613-4.8809a1.0001 1.0001 0 0 0 0.16992-0.32227l1.2656-4.0391 1.0195-1.6309a1.0001 1.0001 0 0 0 0.05273-0.09375z" color="#000000" fill="#fff" stroke-linecap="round" stroke-linejoin="round" style="-inkscape-stroke:none"/>
 <path id="polyline1" d="m20.441 26.979a1 1 0 0 0-1.4141 0.021484 1 1 0 0 0 0.02148 1.4141l1.0254 0.99414a1.0001 1.0001 0 0 0 0.28906 0.19531l1.8223 0.81055 1.834 1.5801a1.0001 1.0001 0 0 0 0.76367 0.23633l4.5-0.49414 4.4902-0.37305a1.0001 1.0001 0 0 0 0.66407-0.33008l2.0391-2.2891a1 1 0 0 0-0.08008-1.4121 1 1 0 0 0-1.4121 0.08008l-1.7734 1.9922-4.1055 0.33984a1.0001 1.0001 0 0 0-0.02734 2e-3l-4.082 0.44922-1.6172-1.3926a1.0001 1.0001 0 0 0-0.24609-0.15625l-1.7949-0.79883z" color="#000000" fill="#fff" stroke-linecap="round" stroke-linejoin="round" style="-inkscape-stroke:none"/>
 <path id="polyline2" d="m36.453 28.311a1 1 0 0 0-0.5957 1.2832l1.4609 3.9766a1.0001 1.0001 0 0 0 0.61328 0.60156l1.0879 0.37109a1 1 0 0 0 1.2695-0.62109 1 1 0 0 0-0.62109-1.2695l-0.63672-0.21875-1.2949-3.5293a1 1 0 0 0-1.2832-0.59375z" color="#000000" fill="#fff" stroke-linecap="round" stroke-linejoin="round" style="-inkscape-stroke:none"/>
 <path id="polyline3" d="m29.246 21.209a1 1 0 0 0-0.5957 0.48047l-0.64453 1.1836-4.1855 3.2578a1 1 0 0 0-0.17383 1.4023 1 1 0 0 0 1.4023 0.17578l4.3496-3.3867a1.0001 1.0001 0 0 0 0.26367-0.30859l0.74414-1.3672a1 1 0 0 0-0.39844-1.3574 1 1 0 0 0-0.76172-0.08008z" color="#000000" fill="#fff" stroke-linecap="round" stroke-linejoin="round" style="-inkscape-stroke:none"/>
 <path id="polyline4" d="m26.6 13.355a1 1 0 0 0-1.2539 0.65234l-0.67969 2.1465-3.2949 3.5645a1.0001 1.0001 0 0 0 0.02148 1.3789l1.7383 1.7715a1.0001 1.0001 0 0 0 0.36719 0.23633l2.0195 0.74609a1 1 0 0 0 1.2832-0.5918 1 1 0 0 0-0.58984-1.2852l-1.8105-0.66797-0.91406-0.92969 2.8008-3.0273a1.0001 1.0001 0 0 0 0.21875-0.37891l0.74609-2.3613a1 1 0 0 0-0.65234-1.2539z" color="#000000" fill="#fff" stroke-linecap="round" stroke-linejoin="round" style="-inkscape-stroke:none"/>
 <path id="polyline5" d="m23.602 21.197-4.0996 1.0254a1.0001 1.0001 0 0 0-0.74414 0.80469l-0.03125 0.18359-0.55273-0.44336a1 1 0 0 0-1.4062 0.15625 1 1 0 0 0 0.15625 1.4062l1.8848 1.5078a1.0001 1.0001 0 0 0 1.6113-0.61719l0.20312-1.2168 3.4648-0.86719a1 1 0 0 0 0.72656-1.2109 1 1 0 0 0-1.2129-0.72852z" color="#000000" fill="#fff" stroke-linecap="round" stroke-linejoin="round" style="-inkscape-stroke:none"/>
 <path id="path5" d="m11.027 32.229a1.0001 1.0001 0 0 0-0.49024 0.02539l-2.6855 0.82227a1 1 0 0 0-0.66406 1.25 1 1 0 0 0 1.248 0.66211l2.4473-0.74805c0.22628 0.04538 1.9849 0.39832 3.9805 0.81055 1.06 0.21896 2.1242 0.44267 2.9219 0.61719 0.39882 0.08726 0.73127 0.16206 0.95703 0.2168 0.11288 0.02737 0.20042 0.05052 0.24219 0.0625 0.02088 6e-3 0.03324 0.0098 0.01172 2e-3 -0.01076-0.0039-0.02866-0.0098-0.07617-0.0332-0.02376-0.0117-0.05414-0.02632-0.10547-0.06055-0.02567-0.01711-0.05829-0.03833-0.09766-0.07227-0.03936-0.03393-0.1449-0.15674-0.14453-0.15625a1 1 0 0 0 1.4004 0.19922 1 1 0 0 0 0.19922-1.4004c-3.64e-4 -4.85e-4 -0.10784-0.1232-0.14844-0.1582-0.0406-0.035-0.0722-0.0579-0.09961-0.07617-0.05481-0.03655-0.09187-0.05397-0.12109-0.06836-0.05846-0.02878-0.08966-0.04195-0.11914-0.05273-0.05896-0.02156-0.10037-0.03364-0.14648-0.04687-0.09223-0.02646-0.19717-0.05123-0.32422-0.08203-0.2541-0.06161-0.59562-0.13961-1.002-0.22852-0.81266-0.17781-1.8795-0.40133-2.9434-0.62109-2.1276-0.43952-4.2402-0.86328-4.2402-0.86328z" color="#000000" fill="#fff" stroke-linecap="round" stroke-linejoin="round" style="-inkscape-stroke:none"/>
 <path id="polyline6" d="m35.205 32.105-1.4766 0.49805-3.9238 0.13476a1.0001 1.0001 0 0 0-0.43359 0.11524l-1.7559 0.93164a1 1 0 0 0-0.41406 1.3535 1 1 0 0 0 1.3516 0.41406l1.5508-0.82422 3.8398-0.13086a1.0001 1.0001 0 0 0 0.2832-0.05273l1.6152-0.54297a1 1 0 0 0 0.62891-1.2676 1 1 0 0 0-1.2656-0.62891z" color="#000000" fill="#fff" stroke-linecap="round" stroke-linejoin="round" style="-inkscape-stroke:none"/>
</svg>
