<?xml version="1.0" encoding="UTF-8"?>
<svg id="b" version="1.1" viewBox="0 0 48 48" xmlns="http://www.w3.org/2000/svg">
 <defs id="defs1">
  <style id="style1">.c{fill:none;stroke:#fff;stroke-width:2px;stroke-linecap:round;stroke-linejoin:round;}</style>
 </defs>
 <path id="path1" d="m29.654 6.1367c-0.32744-0.044566-0.66198-0.015404-1.0176 0.013672-0.71119 0.058152-1.5201 0.23548-2.3867 0.52148-1.7332 0.57201-3.6861 1.5693-5.2168 3.0293a1 1 0 0 0-0.033203 1.4141 1 1 0 0 0 1.4141 0.0332c1.2353-1.1783 2.9727-2.0844 4.4629-2.5762 0.74511-0.24591 1.4316-0.38944 1.9238-0.42969 0.49226-0.040251 0.77671 0.14169 0.57031-0.025391-0.09916-0.080272 0.13403 0.24322 0.19141 0.87695 0.05737 0.63373 0.02458 1.5047-0.07813 2.4355-0.2054 1.8616-0.68936 3.9901-1.1113 5.2266a1 1 0 0 0 0.62305 1.2695 1 1 0 0 0 1.2695-0.625c0.49294-1.4444 0.98304-3.6203 1.207-5.6504 0.112-1.0151 0.15908-1.9869 0.082036-2.8379-0.07704-0.85099-0.19127-1.6554-0.92578-2.25-0.3266-0.26439-0.64717-0.38121-0.97461-0.42578z" fill="#fff" stroke-linecap="round" stroke-linejoin="round"/>
 <path id="path2" d="m27.82 8.6016c-0.23279-0.010279-0.44342 0.014834-0.66406 0.054687-0.44128 0.079707-0.91733 0.23058-1.418 0.43555-1.0013 0.40993-2.0826 1.0118-2.8477 1.8867a1.0001 1.0001 0 0 0 0.29688 1.5469c0.18544 0.09519 0.95252 0.64708 1.6602 1.248 0.70764 0.60097 1.4406 1.2915 1.8242 1.7207a1.0001 1.0001 0 0 0 1.4551 0.03906c0.44321-0.4458 0.64047-0.95854 0.81641-1.5234 0.17594-0.5649 0.2934-1.1849 0.36133-1.7949 0.06792-0.61003 0.08643-1.2034 0.03516-1.7383-0.051279-0.53487-0.012065-1.0503-0.66407-1.5781-0.33763-0.27332-0.62268-0.2866-0.85547-0.29688zm-0.4707 2.0742c0.03149 0.33696 0.022 0.82258-0.0332 1.3184-0.04498 0.40392-0.13456 0.79018-0.22852 1.1484-0.32824-0.30646-0.59084-0.59154-0.94531-0.89258-0.29095-0.24709-0.51592-0.36557-0.7832-0.57617 0.39614-0.26164 0.70698-0.55648 1.1367-0.73242 0.33355-0.13656 0.61618-0.21111 0.85352-0.26562z" fill="#fff" stroke-linecap="round" stroke-linejoin="round"/>
 <path id="path3" d="m24.277 29.686a1 1 0 0 0-0.56641 0.51562c-0.83987 1.7916-2.0194 2.3808-4.5078 2.8359a1 1 0 0 0-0.80469 1.1641 1 1 0 0 0 1.1641 0.80469c2.7455-0.50221 4.8415-1.5732 5.959-3.957a1 1 0 0 0-0.48047-1.3301 1 1 0 0 0-0.76367-0.0332z" fill="#fff" stroke-linecap="round" stroke-linejoin="round"/>
 <path id="path4" d="m24.203 29.17c-0.45391-0.01647-0.95617 0.0682-1.5039 0.23438a1 1 0 0 0-0.66602 1.248 1 1 0 0 0 1.2461 0.66602c0.79814-0.24215 1.0361-0.10529 1.0156-0.11914-0.02052-0.01385 0.0039-0.01844 0.0039 0.16211a1 1 0 0 0 1 1 1 1 0 0 0 1-1c0-0.55605-0.18339-1.347-0.88477-1.8203-0.35069-0.23666-0.75703-0.35462-1.2109-0.37109z" fill="#fff" stroke-linecap="round" stroke-linejoin="round"/>
 <path id="ellipse4" d="m19.254 19.941c-0.54319 0-0.9853 0.29989-1.2617 0.61328-0.27642 0.31339-0.45576 0.67036-0.60352 1.0664-0.29551 0.79209-0.44727 1.7626-0.44727 2.834s0.15176 2.0438 0.44727 2.8359c0.14775 0.39604 0.3271 0.75106 0.60352 1.0645 0.27642 0.31339 0.71852 0.61523 1.2617 0.61523s0.98334-0.30185 1.2598-0.61523c0.27642-0.31339 0.45576-0.66841 0.60352-1.0645 0.29551-0.79209 0.44727-1.7646 0.44727-2.8359s-0.15176-2.0419-0.44727-2.834c-0.14775-0.39604-0.32709-0.75302-0.60352-1.0664-0.27642-0.31339-0.71657-0.61328-1.2598-0.61328zm0 2.4434c0.17138 0.48318 0.31055 1.2269 0.31055 2.0703 0 0.84348-0.13916 1.5891-0.31055 2.0723-0.17139-0.48318-0.3125-1.2288-0.3125-2.0723 0-0.84346 0.14112-1.5871 0.3125-2.0703z" fill="#fff" stroke-linecap="round" stroke-linejoin="round"/>
 <path id="path5" d="m8.9648 21.482a1 1 0 0 0-0.74805 0.16602c-0.58783 0.41152-0.85137 1.059-0.9707 1.7207-0.11934 0.6617-0.11316 1.4075-0.037109 2.2793 0.092549 1.0609 0.30894 1.8973 0.6543 2.5469 0.17268 0.32477 0.377 0.60923 0.66797 0.83984s0.71815 0.40761 1.1699 0.34961c0.53725-0.06888 0.89529-0.441 1.0859-0.75781 0.19065-0.31681 0.28732-0.64179 0.35742-0.99609 0.14021-0.70861 0.14755-1.5444 0.03125-2.4512-0.01579-0.12307-0.03311-0.24463-0.05273-0.36328a1 1 0 0 0-1.1504-0.82226 1 1 0 0 0-0.76758 1.0723c-0.02359-0.52822-0.042152-1.0539 0.00977-1.3418 0.067712-0.37545 0.16946-0.45222 0.14844-0.4375a1 1 0 0 0 0.24609-1.3926 1 1 0 0 0-0.64453-0.41211z" fill="#fff" stroke-linecap="round" stroke-linejoin="round"/>
 <path id="path6" d="m5.166 26.568c-0.88297 0.14201-1.8118 0.5692-2.1094 1.541-0.17775 0.58067-0.035265 1.1767 0.22266 1.6348 0.25792 0.45807 0.62842 0.83336 1.0703 1.166 0.59543 0.44826 1.3294 0.81534 2.1621 1.0703 1.0345 0.31676 2.0389 0.41154 2.9219 0.26953 0.88297-0.14201 1.8118-0.56916 2.1094-1.541 0.29753-0.97182-0.23265-1.847-0.88477-2.459s-1.5377-1.0954-2.5723-1.4121c-1.0346-0.31676-2.037-0.41154-2.9199-0.26953zm0.31836 1.9746c0.48551-0.078087 1.2349-0.032011 2.0156 0.20703 0.78075 0.23905 1.4305 0.62247 1.7891 0.95898s0.31727 0.49418 0.3418 0.41406c0.024572-0.08025-0.030098 0.07426-0.51562 0.15234-0.48553 0.07809-1.2369 0.03005-2.0176-0.20898-0.62848-0.19243-1.1721-0.47176-1.5469-0.75391-0.27821-0.20944-0.45762-0.42348-0.5293-0.55078-0.071679-0.1273-0.038081-0.11428-0.052734-0.066407-0.024562 0.08022 0.030117-0.07426 0.51562-0.15234z" fill="#fff" stroke-linecap="round" stroke-linejoin="round"/>
 <path id="path7" d="m23.916 26.488c-1.0856 0-1.9605 0.29405-2.6641 0.75391-0.70358 0.45986-1.2564 1.0115-2.0781 1.6582-0.33995 0.26754-1.2005 0.83241-4.0098 0.55664-0.86474-0.0849-1.3636-0.40921-2.1035-0.7832-0.73991-0.374-1.797-0.7331-3.0879-0.41406a1 1 0 0 0-0.73047 1.2109 1 1 0 0 0 1.2109 0.73047c0.80468-0.19887 1.0858-0.05522 1.7051 0.25781 0.61929 0.31303 1.5017 0.85978 2.8105 0.98828 3.1441 0.30863 4.7148-0.40274 5.4414-0.97461 0.90168-0.70967 1.4763-1.2564 1.9355-1.5566 0.45929-0.30019 0.78463-0.42774 1.5703-0.42774 1.0566 0 1.5605 0.2774 1.8828 0.64844 0.32234 0.37104 0.50586 0.96011 0.50586 1.7402 0 1.5584-0.59017 2.4223-2.2715 3.6289-0.3568 0.25608-3.0377 2.124-7.4473 1.6484-3.2407-0.3495-6.7923-1.8074-8.6895-5.5273a1 1 0 0 0-1.3457-0.4375 1 1 0 0 0-0.4375 1.3457c2.263 4.4372 6.5665 6.2093 10.258 6.6074 5.0584 0.54559 8.3043-1.6358 8.8281-2.0117 1.9357-1.3892 3.1055-3.0697 3.1055-5.2539 0-1.0912-0.25308-2.1975-0.99609-3.0527-0.74301-0.85528-1.9339-1.3359-3.3926-1.3359z" fill="#fff" stroke-linecap="round" stroke-linejoin="round"/>
 <path id="path8" d="m19.348 13.422c-1.5317 0.19859-3.1093 1.1854-4.5703 2.5273-1.9481 1.7893-3.6689 4.3691-4.2715 7.3555-0.04355 0.21586-0.08681 0.25485-0.13867 0.39648-0.18546-0.32348-0.40358-0.79712-0.61914-1.5195 0.039948 0.13386-0.004418-0.047449-0.025391-0.23438-0.020973-0.18693-0.047745-0.44222-0.078125-0.73633-0.06076-0.58822-0.14171-1.3346-0.27148-2.0781-0.12978-0.74348-0.29587-1.4779-0.5918-2.123-0.14796-0.32256-0.32562-0.63286-0.625-0.90625s-0.79011-0.48974-1.2754-0.44141c-0.71604 0.071313-1.1934 0.49922-1.5371 0.91406s-0.58194 0.87339-0.75 1.3105a1 1 0 0 0 0.57422 1.291 1 1 0 0 0 1.291-0.57422c0.099935-0.25994 0.26765-0.56347 0.42383-0.75195 0.043082-0.05199 0.020992-0.02559 0.054687-0.05469 0.013628 0.0255 0.013316 0.01629 0.027344 0.04687 0.15898 0.34657 0.32217 0.97404 0.4375 1.6348 0.11533 0.66073 0.19454 1.3628 0.25391 1.9375 0.029684 0.28737 0.054379 0.54226 0.078125 0.75391s0.017733 0.31618 0.097656 0.58398c0.26767 0.89705 0.55462 1.5898 0.89063 2.1328 0.33601 0.54297 0.72449 1.0087 1.3965 1.166 0.67199 0.15729 1.3765-0.25747 1.709-0.7168 0.33246-0.45933 0.50942-0.99415 0.63867-1.6348 0.49855-2.471 1.9957-4.7469 3.6641-6.2793 1.6684-1.5324 3.5272-2.1604 4.2383-1.9805 0.60888 0.15406 1.102 0.50611 1.4941 1.3223 0.39218 0.81616 0.63035 2.1295 0.45703 4.0312-0.38072 4.1772-0.50562 4.8178-2.3516 7.4707a1 1 0 0 0 0.25 1.3906 1 1 0 0 0 1.3906-0.24805c1.9337-2.7789 2.3178-4.2044 2.7031-8.4316 0.19528-2.1427-0.03694-3.8116-0.64648-5.0801-0.60954-1.2685-1.6496-2.1018-2.8066-2.3945-0.49436-0.12508-1.0011-0.14628-1.5117-0.08008z" fill="#fff" stroke-linecap="round" stroke-linejoin="round"/>
 <path id="path9" d="m29.852 3.9395c-6.0587-0.21459-12.193 1.5843-16.223 4.0352-3.1475 1.9141-7.6056 4.7129-9.0742 10.031-0.7336 2.6567-0.69086 5.8886 0.54492 9.8027a1 1 0 0 0 1.2539 0.65234 1 1 0 0 0 0.65234-1.2559c-1.1456-3.6285-1.1422-6.4251-0.52344-8.666 1.2388-4.486 5.0687-6.96 8.1855-8.8555 3.6204-2.2017 9.5074-3.9447 15.113-3.7461s10.845 2.2328 13.76 7.4648a1 1 0 0 0 1.3613 0.38672 1 1 0 0 0 0.38672-1.3613c-3.3084-5.9382-9.3788-8.2737-15.438-8.4883z" fill="#fff" stroke-linecap="round" stroke-linejoin="round"/>
 <path id="path10" d="m44.373 11.916c-2.1003 0.08846-6.1656-0.1295-10.949 4.332a1 1 0 0 0-0.04883 1.4121 1 1 0 0 0 1.4141 0.05078c4.3782-4.0835 7.2999-3.6971 9.668-3.7969a1 1 0 0 0 0.95703-1.041 1 1 0 0 0-1.041-0.95703z" fill="#fff" stroke-linecap="round" stroke-linejoin="round"/>
 <path id="path11" d="m34.402 16.023a1 1 0 0 0-1.252 0.66016 1 1 0 0 0 0.66016 1.25c2.9494 0.91144 5.7262 2.3633 7.6055 4.3086 1.8793 1.9453 2.9065 4.3159 2.5078 7.418a1 1 0 0 0 0.86328 1.1191 1 1 0 0 0 1.1191-0.86524c0.47362-3.6851-0.83966-6.7718-3.0508-9.0605-2.2111-2.2888-5.2749-3.8479-8.4531-4.8301z" fill="#fff" stroke-linecap="round" stroke-linejoin="round"/>
 <path id="path12" d="m38.355 27.82c-1.2862 0.14751-2.7077 0.48524-4.2305 1.1113a1 1 0 0 0-0.54492 1.3047 1 1 0 0 0 1.3066 0.54492c5.4289-2.232 8.9555-0.4126 9.5781-0.09961a1 1 0 0 0 1.3438-0.44531 1 1 0 0 0-0.44531-1.3418c-0.50818-0.25546-3.1492-1.5167-7.0078-1.0742z" fill="#fff" stroke-linecap="round" stroke-linejoin="round"/>
 <path id="path13" d="m34.926 28.949a1 1 0 0 0-1.3281 0.48633 1 1 0 0 0 0.48828 1.3281c5.006 2.3169 6.1544 6.8015 5.7148 10.436a1 1 0 0 0 0.87109 1.1133 1 1 0 0 0 1.1133-0.87305c0.51781-4.2807-1.0474-9.8003-6.8594-12.49z" fill="#fff" stroke-linecap="round" stroke-linejoin="round"/>
 <path id="path14" d="m24.344 35.906c-1.9649 0.02912-4.0196 0.16362-6.2266 0.32812a1 1 0 0 0-0.92383 1.0703 1 1 0 0 0 1.0723 0.92383c8.7893-0.65517 14.405-0.87022 21.992 3.9355a1 1 0 0 0 1.3789-0.31055 1 1 0 0 0-0.30859-1.3789c-5.9989-3.8-11.09-4.6557-16.984-4.5684z" fill="#fff" stroke-linecap="round" stroke-linejoin="round"/>
 <path id="path15" d="m6.2285 6.7129c-0.65905-0.0061287-1.225-0.08949-1.8574 0.5293-0.57077 0.55834-0.64679 1.1366-0.76758 1.8691-0.12078 0.73256-0.16427 1.6035-0.11719 2.5469 0.094165 1.8867 0.53437 4.0572 1.6816 5.7773a1 1 0 0 0 1.3867 0.27734 1 1 0 0 0 0.27734-1.3867c-0.83103-1.246-1.2662-3.135-1.3477-4.7676-0.040742-0.8163 6.99e-4 -1.5686 0.091797-2.1211 0.091098-0.55252 0.35318-0.92197 0.19336-0.76562-0.28447 0.27834-0.018237 0.036741 0.44141 0.041016 0.45964 0.00427 1.1068 0.083616 1.7949 0.24023 1.3762 0.31324 2.9316 0.96502 3.7559 1.7012a1 1 0 0 0 1.4121-0.08008 1 1 0 0 0-0.07813-1.4121c-1.2639-1.1288-3.0394-1.7944-4.6465-2.1602-0.80354-0.18289-1.5616-0.28293-2.2207-0.28906z" fill="#fff" stroke-linecap="round" stroke-linejoin="round"/>
</svg>
