<?xml version="1.0" encoding="UTF-8"?>
<svg id="a" version="1.1" viewBox="0 0 48 48" xmlns="http://www.w3.org/2000/svg">
 <defs id="defs1">
  <style id="style1">.b{fill:none;stroke:#fff;stroke-width:2px;stroke-linecap:round;stroke-linejoin:round;}</style>
 </defs>
 <path id="circle1" d="m26.176 10.838c-7.5318 0-13.658 6.1264-13.658 13.658 0 7.5318 6.1264 13.658 13.658 13.658 7.5318 0 13.66-6.1264 13.66-13.658 0-7.5318-6.1284-13.658-13.66-13.658zm0 2c6.4509 0 11.66 5.2073 11.66 11.658 0 6.4509-5.2093 11.658-11.66 11.658-6.4509 0-11.658-5.2073-11.658-11.658 0-6.4509 5.2073-11.658 11.658-11.658z" fill="#fff" stroke-linecap="round" stroke-linejoin="round"/>
 <path id="polyline1" d="m23.525 36.115a1 1 0 0 0-0.59375 1.2832l1.0137 2.7578h-1.3086a1 1 0 0 0-1 1 1 1 0 0 0 1 1h2.7422a1.0001 1.0001 0 0 0 0.9375-1.3457l-1.5078-4.1016a1 1 0 0 0-1.2832-0.59375z" fill="#fff" stroke-linecap="round" stroke-linejoin="round"/>
 <path id="line1" d="m28.799 35.744a1 1 0 0 0-0.70117 0.30273 1 1 0 0 0 0.01953 1.4141l4.2305 4.1055a1 1 0 0 0 1.4141-0.02148 1 1 0 0 0-0.02148-1.4141l-4.2285-4.1055a1 1 0 0 0-0.71289-0.28125z" fill="#fff" stroke-linecap="round" stroke-linejoin="round"/>
 <path id="line2" d="m30.639 39.848a1 1 0 0 0-1 1 1 1 0 0 0 1 1h3.832a1 1 0 0 0 1-1 1 1 0 0 0-1-1z" fill="#fff" stroke-linecap="round" stroke-linejoin="round"/>
 <path id="line3" d="m33.549 30.592a1 1 0 0 0-0.67969 0.34961 1 1 0 0 0 0.11523 1.4082l2.9375 2.4902a1 1 0 0 0 1.4102-0.11524 1 1 0 0 0-0.11719-1.4102l-2.9375-2.4902a1 1 0 0 0-0.72852-0.23242z" fill="#fff" stroke-linecap="round" stroke-linejoin="round"/>
 <path id="path3" d="m41.564 8.0977s-1.9003 0.12484-4.0059 0.82812c-2.1056 0.70328-4.5924 2.0176-5.459 4.623a1 1 0 0 0 0.63281 1.2637 1 1 0 0 0 1.2656-0.63281c0.55681-1.6741 2.3627-2.746 4.1934-3.3574 1.8307-0.61147 3.5098-0.73047 3.5098-0.73047a1 1 0 0 0 0.92969-1.0664 1 1 0 0 0-1.0664-0.92773z" fill="#fff" stroke-linecap="round" stroke-linejoin="round"/>
 <path id="path4" d="m36.217 10.83c-0.9731 0.01718-1.9163 0.23752-2.748 0.67383a1 1 0 0 0-0.41992 1.3496 1 1 0 0 0 1.3496 0.41992c1.0166-0.53327 2.6032-0.5946 4.0176-0.04102 1.1054 0.43262 1.9787 1.3044 2.5918 2.4336-0.71987 0.22534-1.4778 0.47199-2.3477 0.44726-1.2114-0.03443-2.1875-0.23047-2.1875-0.23047a1 1 0 0 0-1.1777 0.7832 1 1 0 0 0 0.7832 1.1777s1.1282 0.22786 2.5254 0.26758c1.3972 0.03972 3.1138-0.03895 4.4668-0.97852a1.0001 1.0001 0 0 0 0.39062-1.0977c-0.6791-2.3445-2.4093-3.9184-4.3145-4.6641-0.95256-0.37282-1.9566-0.55819-2.9297-0.54102z" fill="#fff" stroke-linecap="round" stroke-linejoin="round"/>
 <path id="line4" d="m27.551 16.656a1 1 0 0 0-1.2734 0.61133l-0.86328 2.4629a1 1 0 0 0 0.61328 1.2754 1 1 0 0 0 1.2734-0.61328l0.86328-2.4629a1 1 0 0 0-0.61328-1.2734z" fill="#fff" stroke-linecap="round" stroke-linejoin="round"/>
 <path id="line5" d="m17.896 18.111a1 1 0 0 0-1.2109 0.73047l-0.55859 2.2676a1 1 0 0 0 0.73047 1.209 1 1 0 0 0 1.2109-0.73047l0.55859-2.2656a1 1 0 0 0-0.73047-1.2109z" fill="#fff" stroke-linecap="round" stroke-linejoin="round"/>
 <path id="path5" d="m22.961 20.391a1 1 0 0 0-1.3926 0.24219c-0.07484 0.10614-0.56561 0.33236-0.85547 0.10742a1 1 0 0 0-1.4043 0.17578 1 1 0 0 0 0.17773 1.4043c1.2603 0.97806 2.9225 0.5885 3.7148-0.53516a1 1 0 0 0-0.24024-1.3945z" fill="#fff" stroke-linecap="round" stroke-linejoin="round"/>
 <path id="line6" d="m10.748 22.398a1 1 0 0 0-0.62891 1.2676l0.8457 2.5078a1 1 0 0 0 1.2676 0.62695 1 1 0 0 0 0.62695-1.2676l-0.8457-2.5059a1 1 0 0 0-1.2656-0.62891z" fill="#fff" stroke-linecap="round" stroke-linejoin="round"/>
 <path id="line7" d="m5.1797 5.8965a1 1 0 0 0-0.62695 1.2676l4.3398 12.865a1 1 0 0 0 1.2676 0.62695 1 1 0 0 0 0.62695-1.2676l-4.3398-12.863a1 1 0 0 0-1.2676-0.62891z" fill="#fff" stroke-linecap="round" stroke-linejoin="round"/>
 <path id="line8" d="m11.164 16.252-4.4863 1.709a1 1 0 0 0-0.57812 1.291 1 1 0 0 0 1.2891 0.57812l4.4883-1.7109a1 1 0 0 0 0.57812-1.2891 1 1 0 0 0-1.291-0.57812z" fill="#fff" stroke-linecap="round" stroke-linejoin="round"/>
 <path id="circle8" d="m38.031 32.561c-1.6028 0-2.9238 1.321-2.9238 2.9238s1.321 2.9238 2.9238 2.9238 2.9238-1.321 2.9238-2.9238-1.321-2.9238-2.9238-2.9238zm0 2c0.52194 0 0.92383 0.40189 0.92383 0.92383s-0.40189 0.92383-0.92383 0.92383-0.92383-0.40189-0.92383-0.92383 0.40189-0.92383 0.92383-0.92383z" fill="#fff" stroke-linecap="round" stroke-linejoin="round"/>
 <path id="circle9" d="m10.445 18.607c-1.6028 0-2.9238 1.321-2.9238 2.9238s1.321 2.9238 2.9238 2.9238c1.6028 0 2.9238-1.321 2.9238-2.9238s-1.321-2.9238-2.9238-2.9238zm0 2c0.52193 0 0.92383 0.40189 0.92383 0.92383s-0.40189 0.92383-0.92383 0.92383c-0.52194 0-0.92383-0.40189-0.92383-0.92383s0.40189-0.92383 0.92383-0.92383z" fill="#fff" stroke-linecap="round" stroke-linejoin="round"/>
 <path id="line9" d="m12.645 21.955a1 1 0 0 0-1.4141 0.07227 1 1 0 0 0 0.07226 1.4121l1.5508 1.4004a1 1 0 0 0 1.4121-0.07227 1 1 0 0 0-0.07227-1.4121z" fill="#fff" stroke-linecap="round" stroke-linejoin="round"/>
</svg>
