<?xml version="1.0" encoding="UTF-8"?>
<svg id="Layer_2" data-name="Layer 2" version="1.1" viewBox="0 0 48 48" xmlns="http://www.w3.org/2000/svg">
 <defs id="defs4">
  <style id="style2">.cls-1{fill:none;stroke:#fff;stroke-width:2px;stroke-linecap:round;stroke-linejoin:round;}</style>
 </defs>
 <path id="path6" d="m17.5 3.5a1.0001 1.0001 0 0 0-1 1v0.85938h-0.85938a1.0001 1.0001 0 0 0-1 1v7.4297a1.0001 1.0001 0 0 0 1 1h0.85938v1.7109h-0.85938a1.0001 1.0001 0 0 0-1 1v15.711h-0.85156a1.0001 1.0001 0 0 0-1 1v2.7188h-0.85938a1.0001 1.0001 0 0 0-1 1v3.7109a1.0001 1.0001 0 0 0 1 1h0.85938v0.85938a1.0001 1.0001 0 0 0 1 1h5.5703a1.0001 1.0001 0 0 0 0.92578-0.92578 1.0001 1.0001 0 0 0 0.92578 0.92578h3.7188a1.0001 1.0001 0 0 0 1-1v-0.85938h2.7109a1.0001 1.0001 0 0 0 1-1v-1.8516a1.0001 1.0001 0 0 0-1-1h-2.7109v-4.5781a1.0001 1.0001 0 0 0-1-1h-0.85938v-4.5703a1.0001 1.0001 0 0 0-1-1h-0.85938v-0.85156a1.0001 1.0001 0 0 0-0.85938-0.85938h1.7188a1.0001 1.0001 0 0 0 1-1v-4.5703h7.2891v0.85156a1.0001 1.0001 0 0 0 1 1h3.7109a1.0001 1.0001 0 0 0 1-1v-3.7109a1.0001 1.0001 0 0 0-1-1h-0.85938v-0.85938a1.0001 1.0001 0 0 0-1-1h-10.141v-0.85156a1.0001 1.0001 0 0 0-0.85938-0.85938h3.5781a1.0001 1.0001 0 0 0 1-1v-1.8594a1.0001 1.0001 0 0 0-1-1h-0.85938v-2.7109a1.0001 1.0001 0 0 0-1-1h-0.85938v-0.85938a1.0001 1.0001 0 0 0-1-1zm1 2h3.5703v0.85938a1.0001 1.0001 0 0 0 0.85156 0.85156h-1.7109a1.0001 1.0001 0 0 0-1 1v1.8594a1.0001 1.0001 0 0 0 0.85938 0.85938h-1.7109a1.0001 1.0001 0 0 0-1 1v1.7188a1.0001 1.0001 0 0 0-0.85938-0.85938h-0.85938v-5.4297h0.85938a1.0001 1.0001 0 0 0 1-1zm4.7188 1.8594h0.71094v0.71094a1.0001 1.0001 0 0 0-0.71094-0.71094zm0.78125 2.7812a1.0001 1.0001 0 0 0 0.78906 0.78906h-1.5781a1.0001 1.0001 0 0 0 0.78906-0.78906zm-5.5 3.7891a1.0001 1.0001 0 0 0 0.85938 0.85938h2.7109v0.85156a1.0001 1.0001 0 0 0 1 1h10.141v0.85938a1.0001 1.0001 0 0 0 1 1h0.85938v1.7109h-1.7109v-0.85156a1.0001 1.0001 0 0 0-1-1h-9.2891a1.0001 1.0001 0 0 0-1 1v4.5703h-2.7109a1.0001 1.0001 0 0 0-1 1v1.8594a1.0001 1.0001 0 0 0 1 1h0.85156v0.85156a1.0001 1.0001 0 0 0 1 1h0.85938v4.4297a1.0001 1.0001 0 0 0-0.85938-0.85938h-3.7109a1.0001 1.0001 0 0 0-0.85938 0.85938v-15.57h0.85938a1.0001 1.0001 0 0 0 1-1zm-2 20.422v2.5781h-0.85938a1.0001 1.0001 0 0 0-0.85156 0.85156v-2.5703h0.85156a1.0001 1.0001 0 0 0 0.85938-0.85938zm5.7109 0a1.0001 1.0001 0 0 0 0.85938 0.85938h0.85938v4.5781a1.0001 1.0001 0 0 0 0.92578 0.92578 1.0001 1.0001 0 0 0-0.92578 0.92578v0.85938h-1.7188zm-3.7109 0.85938h1.7109v6.2812a1.0001 1.0001 0 0 0-0.85156-0.85156h-2.7188v-1.7109h0.85938a1.0001 1.0001 0 0 0 1-1zm-3.8594 2.8672v3.4141a1.0001 1.0001 0 0 0-0.85156-0.85156h-0.85938v-1.7109h0.85938a1.0001 1.0001 0 0 0 0.85156-0.85156zm0.14844 3.7109a1.0001 1.0001 0 0 0 0.71094 0.71094h-0.71094z" color="#000000" fill="#fff" stroke-linecap="round" stroke-linejoin="round" style="-inkscape-stroke:none"/>
</svg>
