<?xml version="1.0" encoding="UTF-8"?>
<svg id="svg20" version="1.1" viewBox="0 0 48 48" xmlns="http://www.w3.org/2000/svg">
 <defs id="defs4">
  <style id="style2">.a{fill:none;stroke:#fff;stroke-width:2px;stroke-linecap:round;stroke-linejoin:round;}</style>
 </defs>
 <path id="path6" d="m25.656 25.82c-2.0521 0-4.1398 0.93111-5.793 1.8809-0.82657 0.47488-1.5371 0.96077-2.0645 1.377-0.26369 0.20809-0.47864 0.39575-0.6582 0.58008-0.08978 0.09217-0.17023 0.18092-0.25391 0.30078-0.08368 0.11987-0.23242 0.22882-0.23242 0.6875 0 0.73388 0.38567 1.1879 0.84375 1.627 0.45808 0.43908 1.069 0.84836 1.8457 1.2188 1.5533 0.74078 3.7677 1.3166 6.6152 1.3555 4.7541 0.06475 9.0837-0.71006 12.189-1.5586 1.5529-0.42427 2.7943-0.86423 3.6582-1.2461 0.43194-0.19093 0.76196-0.35743 1.043-0.55274 0.1405-0.09765 0.27274-0.17785 0.43945-0.42383 0.08336-0.12299 0.19458-0.31399 0.19531-0.62109 7.33e-4 -0.30711-0.1952-0.66387-0.39258-0.82422-0.19272-0.15657-0.25728-0.16199-0.33789-0.19531-0.08061-0.03332-0.15565-0.05819-0.24023-0.08594-0.16916-0.0555-0.37205-0.11407-0.61524-0.17969-0.48637-0.13124-1.1331-0.29004-1.8965-0.46875-1.5268-0.35742-3.515-0.79242-5.5215-1.2148-2.0065-0.42242-4.0292-0.83186-5.625-1.1367-0.79789-0.15243-1.4881-0.27968-2.0215-0.36914-0.53339-0.08947-0.79888-0.15039-1.1777-0.15039zm0 2c-0.10798 0 0.33957 0.03783 0.84766 0.12305 0.50808 0.08522 1.1877 0.21062 1.9766 0.36133 1.5777 0.30141 3.5918 0.70868 5.5879 1.1289 1.9961 0.42023 3.9761 0.85338 5.4785 1.2051 0.04638 0.01086 0.06781 0.01664 0.11328 0.02734-0.63954 0.2308-1.1492 0.45023-2.0391 0.69336-2.9471 0.80519-7.1157 1.5498-11.635 1.4883-2.5899-0.03539-4.5346-0.56759-5.7812-1.1621-0.62331-0.29726-1.0722-0.61386-1.3242-0.85547-0.02874-0.02755-0.0034 4e-3 -0.02539-0.02148 0.0677-0.05802 0.09816-0.09274 0.18359-0.16016 0.43399-0.34248 1.0776-0.78618 1.8203-1.2129 1.4855-0.85342 3.3992-1.6152 4.7969-1.6152z" color="#000000" fill="#fff" stroke-linecap="round" stroke-linejoin="round" style="-inkscape-stroke:none"/>
 <path id="path8" d="m42.262 29.418c-12.729 2.5956-21.701 1.232-24.264 0.29102a1 1 0 0 0-1.2832 0.59375 1 1 0 0 0 0.59375 1.2832c3.3142 1.2172 12.32 2.4488 25.354-0.20898a1 1 0 0 0 0.7793-1.1797 1 1 0 0 0-1.1797-0.7793z" color="#000000" fill="#fff" stroke-linecap="round" stroke-linejoin="round" style="-inkscape-stroke:none"/>
 <path id="path10" d="m20.158 3.5664c-0.71902-0.16099-1.6165-0.010752-2.2344 0.60547-0.65235 0.65041-0.99933 1.6074-0.73828 2.4473 0.04033 0.12976 0.14315 0.21638 0.20117 0.33398-0.98739 0.00567-1.8874 0.30735-2.3672 1.0078-0.59544 0.86939-0.53668 2.0737 0.13086 2.9551 0.40849 0.53958 0.97964 0.74338 1.4492 0.86133 0.05656 0.01421 0.09681 0.01697 0.15234 0.0293-1.022 0.076-2.0483 0.0883-3.0645 0.22461a1.0001 1.0001 0 0 0-0.0957 0.01758c-1.0614 0.24976-2.4034 0.5053-3.4609 1.5938-1.0575 1.0884-1.6319 2.8418-1.6152 5.6523 0.032508 5.4676 1.0781 20.412 1.0781 20.412a1.0001 1.0001 0 0 0 0 0.0059c0.14701 1.943 1.8074 3.4478 3.7539 3.4082 1.1993-0.0039 2.102-0.65716 2.7871-1.2598 0.04985 0.13042 0.0052 0.12841 0.06836 0.26172 0.52691 1.1124 1.7529 2.3769 3.6855 2.3769 1.8681 0 3.1892-1.023 3.9668-1.9844 0.54428 0.83833 1.4583 1.6758 2.8945 1.6758 1.7077 0 2.8906-1.1051 3.5605-2.0684 0.17685-0.25427 0.12697-0.2702 0.25195-0.50586 0.65556 0.4632 1.4174 0.72066 2.248 0.5957 1.4012-0.0263 2.6407-0.95918 2.9922-2.3242a1.0001 1.0001 0 0 0 0.03125-0.23633c0.02037-1.4089-0.07759-4.0169-0.13476-6.6152a1 1 0 0 0-1.0215-0.97852 1 1 0 0 0-0.97852 1.0215c0.05578 2.5349 0.14177 5.0186 0.13086 6.3359-0.148 0.4884-0.57096 0.83587-1.0859 0.82812a1.0001 1.0001 0 0 0-0.19727 0.01758c-0.55859 0.10366-1.0984-0.19366-1.3105-0.7207a1.0001 1.0001 0 0 0-1.8848 0.083982s-0.21248 0.68287-0.68164 1.3574-1.064 1.209-1.9199 1.209c-0.89292 0-1.1562-0.38836-1.4121-0.92578-0.25594-0.53743-0.29688-1.1133-0.29688-1.1133a1.0001 1.0001 0 0 0-1.9492-0.25977s-0.21821 0.66143-0.75195 1.3359-1.2646 1.2715-2.4512 1.2715c-1.1532 0-1.5513-0.54087-1.8789-1.2324-0.32756-0.69156-0.37305-1.4219-0.37305-1.4219a1.0001 1.0001 0 0 0-1.8086-0.54102s-0.35077 0.48156-0.88086 0.96289c-0.53009 0.48134-1.208 0.85547-1.6094 0.85547a1.0001 1.0001 0 0 0-0.02539 0c-0.90846 0.02199-1.6541-0.65441-1.7227-1.5605-6e-4 -0.0087-1.0431-15.053-1.0742-20.281-0.01509-2.538 0.48628-3.6651 1.0508-4.2461 0.55605-0.57231 1.3787-0.77407 2.4453-1.0254 1.9631-0.26098 3.9397-0.40896 5.9199-0.43555v-2e-3h0.01563a1.0001 1.0001 0 0 0 0.82617-1.2344l0.07617 0.0625c-0.0097-0.05471-0.06546-0.07357-0.07813-0.12695a1.0001 1.0001 0 0 0-0.19531-0.32227c-0.19855-0.50523-0.41026-1.0271-0.79102-1.2988-0.51243-0.36573-1.0538-0.5031-1.5254-0.59766-0.47155-0.094557-0.89386-0.14648-1.1738-0.2168-0.27997-0.07032-0.35088-0.14349-0.33984-0.12891-0.21066-0.27814-0.17506-0.47281-0.07617-0.61719 0.09888-0.14438 0.32476-0.35046 1.0371-0.21484 0.55138 0.10497 1.5171 0.83889 2.2227 1.6211 0.7056 0.7822 1.1836 1.5215 1.1836 1.5215a1.0001 1.0001 0 0 0 1.4023 0.20312c0.0012 0.11153 0.02729 0.11762 0.02734 0.23438a1.0001 1.0001 0 0 0 0.97852 1.0098c0.0022-4.8e-5 0.0037 4.8e-5 0.0059 0 0.01693-3.68e-4 0.02802 3.64e-4 0.04492 0 1.3796-0.02969 2.6727-0.04687 3.666-0.04687 1.8769-2.96e-4 3.3125 0.95926 4.3613 2.1855 1.0488 1.2263 1.6231 2.7925 1.6699 3.3262 0.06639 0.7623 0.25605 5.194 0.38672 9.6328a1 1 0 0 0 1.0273 0.9707 1 1 0 0 0 0.9707-1.0293c-0.13113-4.4546-0.30116-8.6983-0.39258-9.748-0.1114-1.2702-0.82759-2.9159-2.1406-4.4512-1.313-1.5353-3.313-2.8871-5.8828-2.8867-0.77308 0-1.8074 0.01931-2.8242 0.03711-0.065237-1.544-0.15482-2.9535-0.5098-3.9082-0.44669-1.2013-1.1413-2.0401-1.9258-2.8945-0.48421-0.52739-1.1013-0.9269-1.8203-1.0879zm-0.4375 1.9512c0.22668 0.050755 0.55321 0.23973 0.7832 0.49023a1.0001 1.0001 0 0 0 2e-3 0c0.74492 0.81131 1.2012 1.3718 1.5234 2.2383 0.08588 0.23094 0.07043 0.83103 0.13672 1.125-0.53486-1.0111-1.2307-1.927-2.2129-2.5566a1.0001 1.0001 0 0 0-0.02344-0.013672c-0.57553-0.34732-0.80358-0.67759-0.83398-0.77539-0.0304-0.097798-0.08352-0.11471 0.24023-0.4375 0.10696-0.10668 0.15809-0.12107 0.38477-0.070312z" color="#000000" fill="#fff" stroke-linecap="round" stroke-linejoin="round" style="-inkscape-stroke:none"/>
 <path id="ellipse12" d="m18.123 16.293c-3.095 0-5.5566 2.6759-5.5566 5.873 0 3.1971 2.4616 5.873 5.5566 5.873s5.5586-2.6759 5.5586-5.873c0-3.1971-2.4636-5.873-5.5586-5.873zm0 2c1.9391 0 3.5586 1.6866 3.5586 3.873 0 2.1864-1.6195 3.873-3.5586 3.873s-3.5566-1.6866-3.5566-3.873c0-2.1864 1.6176-3.873 3.5566-3.873z" color="#000000" fill="#fff" stroke-linecap="round" stroke-linejoin="round" style="-inkscape-stroke:none"/>
 <path id="ellipse14" d="m29.064 15.904c-1.3467 0-2.5237 0.76408-3.3027 1.8418-0.77907 1.0777-1.2207 2.492-1.2207 4.0332 0 1.5412 0.44163 2.9535 1.2207 4.0312s1.956 1.8418 3.3027 1.8418c1.3467 0 2.5217-0.76408 3.3008-1.8418s1.2227-2.49 1.2227-4.0312c0-1.5412-0.44358-2.9555-1.2227-4.0332-0.77907-1.0777-1.954-1.8418-3.3008-1.8418zm0 2c0.59913 0 1.1836 0.32738 1.6797 1.0137 0.49611 0.68629 0.84375 1.7108 0.84375 2.8613 0 1.1505-0.34764 2.1731-0.84375 2.8594-0.49611 0.68629-1.0806 1.0137-1.6797 1.0137s-1.1855-0.32739-1.6816-1.0137c-0.49611-0.68629-0.8418-1.7088-0.8418-2.8594 0-1.1506 0.34569-2.175 0.8418-2.8613 0.49611-0.68629 1.0825-1.0137 1.6816-1.0137z" color="#000000" fill="#fff" stroke-linecap="round" stroke-linejoin="round" style="-inkscape-stroke:none"/>
 <path id="path16" d="m28.432 16.705a1.0001 1.0001 0 0 0-0.04297 2e-3c-1.3976 0.06043-2.6525 0.89028-3.2559 2.1523a1 1 0 0 0 0.4707 1.332 1 1 0 0 0 1.332-0.4707c0.28182-0.58949 0.86121-0.9669 1.5117-1.0059 0.91891 0.0129 1.873 1.0446 1.873 2.584 0 1.5492-0.96405 2.5918-1.8887 2.5918-0.8908 0-1.8167-0.95848-1.8867-2.4238a1 1 0 0 0-1.0469-0.95117 1 1 0 0 0-0.95117 1.0449c0.10998 2.3018 1.6996 4.3301 3.8848 4.3301 2.268 0 3.8887-2.1732 3.8887-4.5918 0-2.4187-1.6209-4.5938-3.8887-4.5938z" color="#000000" fill="#fff" stroke-linecap="round" stroke-linejoin="round" style="-inkscape-stroke:none"/>
 <path id="path18" d="m16.984 16.705c-0.44522-3.05e-4 -0.88682 0.0704-1.3105 0.20703a1 1 0 0 0-0.64648 1.2578 1 1 0 0 0 1.2598 0.64453c0.22437-0.07235 0.45762-0.10933 0.69336-0.10938 2.1475 0.0058 3.2367 2.3864 1.8379 4.0156-1.3988 1.6292-3.9154 0.91295-4.2461-1.209a1 1 0 0 0-1.1426-0.83398 1 1 0 0 0-0.83398 1.1426c0.57132 3.666 5.3235 5.018 7.7402 2.2031 2.4168-2.8148 0.3606-7.3083-3.3496-7.3184a1.0001 1.0001 0 0 0-2e-3 0z" color="#000000" fill="#fff" stroke-linecap="round" stroke-linejoin="round" style="-inkscape-stroke:none"/>
</svg>
