<?xml version="1.0" encoding="UTF-8"?>
<svg id="svg10" version="1.1" viewBox="0 0 48 48" xmlns="http://www.w3.org/2000/svg">
 <defs id="defs4">
  <style id="style2">.a{fill:none;stroke:#fff;stroke-width:2px;stroke-linecap:round;stroke-linejoin:round;}</style>
 </defs>
 <path id="rect6" d="m24 7.7637c-2.8059 0-5.0957 2.2898-5.0957 5.0957v6.8281c0 2.8059 2.2898 5.0957 5.0957 5.0957s5.0957-2.2898 5.0957-5.0957v-6.8281c0-2.8059-2.2898-5.0957-5.0957-5.0957zm0 2c1.7325 0 3.0957 1.3632 3.0957 3.0957v6.8281c0 1.7325-1.3632 3.0957-3.0957 3.0957s-3.0957-1.3632-3.0957-3.0957v-6.8281c0-1.7325 1.3632-3.0957 3.0957-3.0957z" color="#000000" fill="#fff" stroke-linecap="round" stroke-linejoin="round" style="-inkscape-stroke:none"/>
 <path id="path8" d="m36.725 5.6582c-0.84925 0.033033-1.733 0.23975-2.625 0.65625a1.0001 1.0001 0 0 0-0.04297 0.021484s-0.17816 0.091878-0.38086 0.20312c-0.2027 0.11125-0.39198 0.21028-0.59961 0.35547l0.0918-0.058594c-1.978 1.0822-4.0944 1.8898-6.291 2.3984a1 1 0 0 0-0.74805 1.1992 1 1 0 0 0 1.1992 0.75c2.3742-0.54973 4.6628-1.4221 6.8008-2.5918a1.0001 1.0001 0 0 0 0.0918-0.058594c-0.01443 0.010092 0.23207-0.13821 0.41797-0.24023 0.16625-0.091243 0.28292-0.15232 0.3125-0.16797 2.6865-1.251 4.8575-0.036034 5.9609 1.8984 1.1043 1.936 1.0456 4.4258-1.4043 6.1016a1.0001 1.0001 0 0 0-0.03711 0.02734c-5.6483 4.2605-10.838 11.727-10.838 19.521 0 2.5701-2.0627 4.6309-4.6328 4.6309s-4.6328-2.0607-4.6328-4.6309c0-7.7941-5.1896-15.261-10.838-19.521a1.0001 1.0001 0 0 0-0.033203-0.02344c-2.4317-1.6791-2.4899-4.1632-1.3887-6.0937 1.1004-1.929 3.2652-3.1419 5.9453-1.9082 0.0321 0.016983 0.14439 0.075895 0.30859 0.16602 0.1859 0.10203 0.4324 0.25033 0.41797 0.24023a1.0001 1.0001 0 0 0 0.0918 0.058594c2.1379 1.1697 4.4266 2.0421 6.8008 2.5918a1 1 0 0 0 1.1992-0.75 1 1 0 0 0-0.74805-1.1992c-2.1966-0.50861-4.313-1.3143-6.291-2.3965l0.0918 0.056641c-0.20764-0.14519-0.39691-0.24227-0.59961-0.35352-0.2027-0.11125-0.38086-0.20508-0.38086-0.20508a1.0001 1.0001 0 0 0-0.046875-0.023438c-3.5617-1.6441-6.9995 0.052104-8.5273 2.7305-1.5278 2.6784-1.2378 6.5015 1.9902 8.7305l-0.035156-0.023437c5.2099 3.9299 10.043 11.04 10.043 17.924 0 3.651 2.9818 6.6309 6.6328 6.6309s6.6328-2.9798 6.6328-6.6309c0-6.8836 4.8331-13.994 10.043-17.924l-0.03906 0.02539c3.2502-2.2232 3.5453-6.059 2.0137-8.7441-1.1487-2.0139-3.378-3.4721-5.9258-3.373z" color="#000000" fill="#fff" stroke-linecap="round" stroke-linejoin="round" style="-inkscape-stroke:none"/>
</svg>
