<?xml version="1.0" encoding="UTF-8" standalone="no"?>
<svg
   id="a"
   viewBox="0 0 48 48"
   version="1.1"
   sodipodi:docname="steam_icon_1677740.svg"
   xmlns:inkscape="http://www.inkscape.org/namespaces/inkscape"
   xmlns:sodipodi="http://sodipodi.sourceforge.net/DTD/sodipodi-0.dtd"
   xmlns="http://www.w3.org/2000/svg"
   xmlns:svg="http://www.w3.org/2000/svg">
  <sodipodi:namedview
     id="namedview1"
     pagecolor="#ffffff"
     bordercolor="#666666"
     borderopacity="1.0"
     inkscape:showpageshadow="2"
     inkscape:pageopacity="0.0"
     inkscape:pagecheckerboard="0"
     inkscape:deskcolor="#d1d1d1" />
  <defs
     id="defs1">
    <style
       id="style1">.p{fill:none;stroke:#fff;stroke-width:2px;stroke-linecap:round;stroke-linejoin:round;}</style>
  </defs>
  <g
     id="b">
    <g
       id="c">
      <path
         style="color:#000000;fill:#ffffff;stroke-linecap:round;stroke-linejoin:round;-inkscape-stroke:none"
         d="M 10.230469,13.710938 C 8.4703273,13.433779 6.7762396,14.167168 5.75,15.287109 c -0.547167,0.597127 -0.6371778,1.316225 -0.6464844,1.990235 -0.00931,0.67401 0.096777,1.358298 0.2304688,1.99414 0.2673834,1.271686 0.671875,2.363282 0.671875,2.363282 a 1.0001,1.0001 0 0 0 0.033203,0.07617 c 0,0 0.4398707,0.944544 1.0253906,1.91211 0.29276,0.483783 0.6201602,0.975877 0.9882813,1.396484 0.3681211,0.420608 0.7301648,0.898645 1.5703125,0.925781 0.5611091,0.01812 1.0124701,-0.1439 1.5546871,-0.386718 0.542218,-0.242818 1.125485,-0.591139 1.679688,-1.050782 0.62446,-0.517911 1.160737,-1.238516 1.548828,-2.064453 0.287451,0.331743 0.379113,0.544071 0.732422,0.900391 0.531593,0.536124 1.111108,1.053855 1.726562,1.460937 0.615455,0.407083 1.269152,0.746391 2.06836,0.716797 a 1,1 0 0 0 0.96289,-1.037109 1,1 0 0 0 -1.035156,-0.960938 c -0.08254,0.0031 -0.453793,-0.09649 -0.892578,-0.386718 -0.438785,-0.290227 -0.941588,-0.72861 -1.410156,-1.201172 C 15.621457,20.990422 14.750399,19.787849 14.673828,19.652344 14.711211,19.7185 14.592768,19.399905 14.505859,19 14.41895,18.600095 14.313812,18.083853 14.154297,17.533203 13.835267,16.431904 13.284173,15.10649 11.990234,14.347656 11.410875,14.007907 10.817183,13.803324 10.230469,13.710938 Z m -1.3847659,2 c 0.6561361,-0.141551 1.3973339,-0.06802 2.1328129,0.363281 0.600159,0.351965 0.995215,1.115876 1.255859,2.015625 0.130322,0.449874 0.224706,0.912033 0.316406,1.333984 0.08092,0.372335 0.155892,0.697955 0.335938,1.070313 0.02846,0.982739 -0.523036,1.824707 -1.306641,2.474609 -0.401033,0.332607 -0.846462,0.596078 -1.220703,0.763672 -0.3742406,0.167594 -0.7267845,0.21307 -0.671875,0.214844 0.333948,0.01079 0.1041689,0.0244 -0.1308594,-0.244141 C 9.3216123,23.434586 9.0337301,23.014794 8.7753906,22.587891 8.2716311,21.755433 7.8928007,20.948123 7.8730469,20.90625 7.8612063,20.873895 7.5177688,19.937821 7.2910156,18.859375 7.1756951,18.310906 7.0975128,17.73943 7.1035156,17.304687 7.1095184,16.869945 7.2329269,16.629595 7.2246094,16.638672 7.6181486,16.2092 8.189567,15.852488 8.8457031,15.710938 Z"
         id="d" />
      <path
         style="color:#000000;fill:#ffffff;stroke-linecap:round;stroke-linejoin:round;-inkscape-stroke:none"
         d="M 9.6289063,23.902344 A 1,1 0 0 0 8.875,24.03125 c -0.2700574,0.170125 -0.5291548,0.585062 -0.546875,0.923828 -0.01772,0.338766 0.085916,0.551727 0.1738281,0.716797 0.1758252,0.33014 0.3796669,0.540064 0.6210938,0.785156 0.4828538,0.490185 1.1281231,1.03565 1.7851561,1.625 0.657033,0.58935 1.31906,1.216479 1.777344,1.771485 0.458284,0.555005 0.626898,1.041934 0.625,1.099609 -0.02949,0.89448 -0.328941,2.699316 -0.568359,4.34375 -0.11971,0.822217 -0.222957,1.613659 -0.267579,2.292969 -0.04462,0.67931 -0.176469,1.153975 0.220704,1.873047 0.274047,0.496155 0.628302,0.787294 1.107421,1.18164 0.479119,0.394347 1.073746,0.819044 1.738282,1.244141 1.32907,0.850193 2.92499,1.696102 4.419921,2.177734 1.529211,0.492677 3.90738,0.85186 6.150391,0.72461 1.121506,-0.06363 2.206329,-0.245331 3.146484,-0.671875 0.940156,-0.426544 1.783934,-1.183789 2.048829,-2.269532 0.346224,-1.418896 0.80852,-2.820594 1.251953,-3.71289 0.153635,-0.309153 0.265889,-0.436991 0.380859,-0.587891 0.01203,0.07672 0.01278,0.134175 0.07422,0.310547 0.08925,0.256187 0.360158,0.634656 0.699219,0.808594 0.562097,0.288341 0.927399,0.141753 1.259765,0.04492 0.332366,-0.09683 0.656637,-0.241555 1.003906,-0.419922 0.69454,-0.356734 1.465774,-0.852499 2.201172,-1.38086 0.735398,-0.52836 1.42359,-1.08172 1.939453,-1.578125 0.257932,-0.248202 0.472183,-0.471909 0.652344,-0.736328 0.09008,-0.132209 0.179358,-0.269241 0.244141,-0.501953 0.06478,-0.232712 0.0829,-0.686962 -0.205078,-1.039062 a 1.0001,1.0001 0 0 0 -0.0293,-0.03516 c 0,0 -2.795484,-3.194321 -5.595703,-4.736328 -2.562976,-1.411362 -5.400391,-2.71289 -5.400391,-2.71289 a 1,1 0 0 0 -1.326172,0.492187 1,1 0 0 0 0.492188,1.326172 c 0,0 2.798312,1.28565 5.269531,2.646484 1.895027,1.043542 3.89327,3.106097 4.556641,3.804688 -0.02234,0.02232 -0.0209,0.02766 -0.04492,0.05078 -0.405668,0.390366 -1.044225,0.911859 -1.71875,1.396484 -0.674526,0.484626 -1.393928,0.939398 -1.949219,1.22461 -0.179162,0.09202 -0.291142,0.128785 -0.419922,0.179687 -0.162152,-0.395968 -0.392441,-0.897634 -0.970703,-1.207031 -0.323119,-0.172883 -0.75185,-0.222776 -1.097656,-0.134766 -0.345807,0.08801 -0.605,0.269078 -0.816407,0.462891 -0.422813,0.387626 -0.709688,0.867115 -0.990234,1.431641 -0.561091,1.129052 -1.032669,2.613905 -1.402344,4.128906 -0.09301,0.381206 -0.344585,0.656598 -0.933593,0.923828 -0.589009,0.26723 -1.468089,0.441319 -2.433594,0.496094 -1.93101,0.10955 -4.228141,-0.24759 -5.423828,-0.632813 -1.229966,-0.396266 -2.740105,-1.178575 -3.957032,-1.957031 -0.608463,-0.389228 -1.146726,-0.779335 -1.542968,-1.105469 -0.396243,-0.326133 -0.660504,-0.660721 -0.628906,-0.603515 0.154722,0.280121 -0.01226,-0.202161 0.02539,-0.775391 0.03765,-0.573229 0.134963,-1.331222 0.251953,-2.134766 0.233981,-1.607087 0.546125,-3.358688 0.585938,-4.566406 0.0327,-0.993424 -0.496804,-1.733078 -1.080078,-2.439453 -0.583275,-0.706375 -1.306025,-1.376104 -1.986328,-1.986328 -0.680304,-0.610224 -1.325433,-1.16552 -1.695313,-1.541016 -0.104823,-0.106414 -0.110186,-0.121533 -0.158203,-0.18164 A 1,1 0 0 0 10.253906,24.34375 1,1 0 0 0 9.6289063,23.902344 Z"
         id="e" />
      <path
         style="color:#000000;fill:#ffffff;stroke-linecap:round;stroke-linejoin:round;-inkscape-stroke:none"
         d="m 40.138672,33.388672 a 1,1 0 0 0 -0.761719,0.07813 1,1 0 0 0 -0.402344,1.355469 c 0.687465,1.268375 1.338036,2.822482 1.673828,4.238281 0.335793,1.415799 0.30346,2.659503 -0.04102,3.304687 -0.411239,0.770302 -0.703534,0.83152 -1.201172,0.902344 -0.472078,0.06719 -1.118599,-0.06626 -1.947266,0.222656 -0.0081,-0.0074 0.0085,0.0081 -0.01172,-0.01953 -0.09342,-0.127444 -0.199219,-0.491638 -0.199219,-0.611328 0,-0.303146 -0.05505,-0.46614 -0.115235,-0.691406 -0.06018,-0.225266 -0.138488,-0.474547 -0.230468,-0.746094 -0.183961,-0.543095 -0.421344,-1.171739 -0.658203,-1.777344 -0.47372,-1.21121 -0.945313,-2.324219 -0.945313,-2.324219 a 1,1 0 0 0 -1.310547,-0.529296 1,1 0 0 0 -0.53125,1.310546 c 0,0 0.464802,1.092847 0.925781,2.271485 0.23049,0.589319 0.458449,1.199708 0.625,1.691406 0.08328,0.245849 0.151309,0.463695 0.19336,0.621094 0.04205,0.157399 0.04687,0.292174 0.04687,0.173828 0,0.619509 0.171333,1.227364 0.585937,1.792969 0.207302,0.282802 0.494649,0.560797 0.902344,0.722656 0.407695,0.161859 0.924912,0.158998 1.361328,-0.01563 0.02553,-0.01022 0.707683,0.01422 1.589844,-0.111328 0.882161,-0.12555 2.009534,-0.676857 2.683594,-1.939453 0.740924,-1.387714 0.614938,-3.055012 0.222656,-4.708985 -0.392282,-1.653973 -1.102294,-3.330047 -1.861328,-4.730468 a 1,1 0 0 0 -0.59375,-0.480469 z"
         id="f" />
      <path
         style="color:#000000;fill:#ffffff;stroke-linecap:round;stroke-linejoin:round;-inkscape-stroke:none"
         d="m 20.394531,24.455078 a 1,1 0 0 0 -0.660156,0.384766 c 0,0 -0.321431,0.417037 -0.625,0.945312 -0.151784,0.264138 -0.304301,0.558346 -0.419922,0.886719 -0.115621,0.328373 -0.235019,0.6962 -0.109375,1.205078 0.147321,0.594743 0.479445,0.941084 0.890625,1.326172 0.411598,0.385479 0.935135,0.758984 1.558594,1.095703 1.246918,0.673438 2.899102,1.199115 4.748047,1.132813 0.619067,-0.02221 1.160605,-0.234217 1.787109,-0.525391 0.626504,-0.291174 1.281833,-0.679334 1.857422,-1.144531 0.575589,-0.465198 1.101839,-0.985959 1.351562,-1.742188 0.249724,-0.756229 -0.07367,-1.801379 -0.816406,-2.345703 a 1,1 0 0 0 -1.396484,0.216797 1,1 0 0 0 0.214844,1.396484 c 0.250216,0.183375 0.135132,-0.008 0.09766,0.105469 -0.03748,0.113489 -0.293121,0.479926 -0.707031,0.814453 -0.413911,0.334527 -0.955915,0.658221 -1.44336,0.884766 -0.487445,0.226545 -0.976095,0.338355 -1.017578,0.339844 -1.422152,0.051 -2.753033,-0.366793 -3.726562,-0.892579 -0.486765,-0.262892 -0.88183,-0.552548 -1.140625,-0.794921 -0.258796,-0.242374 -0.349103,-0.488009 -0.314454,-0.347657 0.04089,0.165629 0.001,0.08627 0.05273,-0.06055 0.05169,-0.146817 0.1539,-0.356863 0.267578,-0.554687 0.227356,-0.395648 0.480469,-0.730469 0.480469,-0.730469 a 1,1 0 0 0 -0.189453,-1.40039 1,1 0 0 0 -0.740235,-0.195313 z"
         id="g" />
      <path
         style="color:#000000;fill:#ffffff;stroke-linecap:round;stroke-linejoin:round;-inkscape-stroke:none"
         d="m 18.068359,14.234375 a 1,1 0 0 0 -1.183593,0.771484 c 0,0 -0.308871,1.463203 -0.572266,3.044922 -0.131698,0.79086 -0.25193,1.611157 -0.318359,2.316406 -0.03322,0.352625 -0.05517,0.675463 -0.05274,0.970704 0.0024,0.29524 -0.01526,0.532183 0.152344,0.919921 0.172216,0.398405 0.614627,1.483127 1.644531,2.5 1.029905,1.016874 2.661524,1.985791 5.132813,2.408204 2.372789,0.405524 4.795025,0.549407 6.912109,0.226562 2.117084,-0.322845 4.025224,-1.133808 5.017578,-2.826172 1.636312,-2.790465 2.142578,-5.361328 2.142578,-5.361328 a 1,1 0 0 0 -0.785156,-1.175781 1,1 0 0 0 -1.175781,0.787109 c 0,0 -0.448165,2.251752 -1.90625,4.738281 -0.554844,0.946234 -1.798566,1.587274 -3.595703,1.861329 -1.797137,0.274054 -4.050732,0.159171 -6.273438,-0.220704 -2.124206,-0.363086 -3.322009,-1.126325 -4.064453,-1.859375 -0.742443,-0.733049 -1.015607,-1.414699 -1.212891,-1.871093 0.07523,0.174039 0.01325,0.04266 0.01172,-0.142578 -0.0015,-0.185244 0.01369,-0.456792 0.04297,-0.767579 0.05855,-0.621573 0.173467,-1.409289 0.300781,-2.173828 0.254629,-1.529077 0.556641,-2.96289 0.556641,-2.96289 a 1,1 0 0 0 -0.773438,-1.183594 z"
         id="h" />
      <path
         style="color:#000000;fill:#ffffff;stroke-linecap:round;stroke-linejoin:round;-inkscape-stroke:none"
         d="m 24.261719,3.2148438 c -1.493555,0.1391198 -2.63499,0.3924111 -3.560547,0.8339843 -0.925557,0.4415733 -1.612678,1.1046922 -2.060547,1.8789063 -0.895739,1.5484281 -1.011221,3.3615461 -1.626953,5.7246096 a 1,1 0 0 0 0.714844,1.21875 1,1 0 0 0 1.220703,-0.714844 c 0.654366,-2.5113318 0.874315,-4.2800181 1.421875,-5.2265625 0.27378,-0.4732722 0.585627,-0.7852084 1.191406,-1.0742188 0.605779,-0.2890103 1.526373,-0.5219076 2.884766,-0.6484375 2.631978,-0.2451603 5.542885,0.3840531 7.917968,1.3691407 2.375084,0.9850875 4.210206,2.4327419 4.652344,3.2109375 0.160343,0.2822356 0.292797,1.0547826 0.234375,2.0039066 -0.05842,0.949123 -0.259935,2.065588 -0.507812,3.117187 -0.495754,2.103199 -1.160157,3.929688 -1.160157,3.929688 a 1,1 0 0 0 0.595703,1.283203 1,1 0 0 0 1.283204,-0.597657 c 0,0 0.698592,-1.916377 1.226562,-4.156249 0.263985,-1.119937 0.489038,-2.323129 0.558594,-3.453125 0.06956,-1.129997 0.03187,-2.194269 -0.490235,-3.1132817 C 37.834952,7.1764792 35.754696,5.816776 33.130859,4.7285156 30.507023,3.6402552 27.333635,2.9287046 24.261719,3.2148438 Z"
         id="i" />
      <path
         style="color:#000000;fill:#ffffff;stroke-linecap:round;stroke-linejoin:round;-inkscape-stroke:none"
         d="m 16.302734,11.181641 c -1.074076,0.04457 -1.960291,0.194934 -2.671875,0.46875 -0.355792,0.136907 -0.672183,0.302212 -0.953125,0.55664 -0.280941,0.254428 -0.539724,0.647714 -0.566406,1.119141 -0.02729,0.482088 0.207121,0.907313 0.453125,1.169922 0.246004,0.262609 0.515244,0.431425 0.798828,0.578125 0.567169,0.2934 1.211678,0.490211 1.84961,0.652344 1.275862,0.324264 2.52539,0.478515 2.52539,0.478515 l -0.433594,-0.490234 a 1.0001,1.0001 0 0 0 1.546875,-0.488281 c 8.59e-4,0.0426 0.007,0.062 0.002,0.0957 -0.01513,0.10112 -0.05379,0.205798 -0.101563,0.283203 -0.09555,0.154809 -0.19726,0.175165 -0.103516,0.138672 0.18749,-0.07299 1.056517,-0.249702 2.994141,-0.09375 1.802086,0.144994 4.581492,0.97299 6.839844,1.77539 2.258352,0.8024 4.019531,1.564453 4.019531,1.564453 a 1.0001,1.0001 0 0 0 1.380859,-1.103515 C 33.6826,16.83071 32.836991,16.149482 31.416016,15.351563 c -1.420976,-0.79792 -3.55635,-1.694096 -6.763672,-2.777344 -3.310391,-1.118015 -6.201457,-1.481713 -8.34961,-1.392578 z m 0.08203,1.998047 c 1.183081,-0.04909 2.794234,0.161403 4.55664,0.52539 -1.293096,-0.04008 -2.443615,-0.04961 -3.017578,0.173828 -0.144238,0.05615 -0.218597,0.183196 -0.341797,0.263672 -0.308978,-0.04308 -0.955799,-0.121851 -1.875,-0.355469 -0.380763,-0.09677 -0.669689,-0.217832 -0.970703,-0.333984 0.416754,-0.118634 0.901636,-0.24245 1.648438,-0.273437 z m 2.46289,1.855468 c 0,0 8.74e-4,0.09301 0.0039,0.164063 a 1.0001,1.0001 0 0 0 -0.134765,-0.152344 z m -1.970703,0.175782 c 3.69e-4,0.0069 -4.09e-4,0.01103 0,0.01758 l -0.01367,-0.01563 z"
         id="j" />
      <path
         style="color:#000000;fill:#ffffff;stroke-linecap:round;stroke-linejoin:round;-inkscape-stroke:none"
         d="m 33.714844,4.9882812 a 1,1 0 0 0 -1.369141,0.3515625 1,1 0 0 0 0.351563,1.3710938 c 0,0 1.297318,0.7242637 1.111328,2.2363281 -0.115644,0.9398467 -0.590138,3.2240154 -1.03125,5.2011724 -0.441112,1.977156 -0.84961,3.691406 -0.84961,3.691406 a 1,1 0 0 0 0.740235,1.205078 1,1 0 0 0 1.205078,-0.740235 c 0,0 0.410657,-1.726963 0.855469,-3.720703 0.444812,-1.993739 0.92075,-4.208827 1.066406,-5.3925777 0.336409,-2.7349314 -2.080078,-4.203125 -2.080078,-4.2031251 z"
         id="k" />
      <path
         style="color:#000000;fill:#ffffff;stroke-linecap:round;stroke-linejoin:round;-inkscape-stroke:none"
         d="m 33.191406,17.115234 a 1,1 0 0 0 -1.248047,0.664063 1,1 0 0 0 0.664063,1.25 l 3.623047,1.107422 a 1,1 0 0 0 1.248047,-0.66211 1,1 0 0 0 -0.664063,-1.25 z"
         id="l" />
      <path
         style="color:#000000;fill:#ffffff;stroke-linecap:round;stroke-linejoin:round;-inkscape-stroke:none"
         d="m 28.451172,2.5664063 c -0.438783,0.1074895 -0.850779,0.4082081 -1.052735,0.7578125 -0.403911,0.6992087 -0.146484,1.3242187 -0.146484,1.3242187 a 1,1 0 0 0 1.244141,0.671875 1,1 0 0 0 0.689453,-0.7890625 c 0.09199,0.00187 0.101609,-0.01409 0.294922,0.027344 0.723936,0.155166 0.97783,0.2848536 1.08789,0.3242188 a 1,1 0 0 0 0.400391,1.15625 1,1 0 0 0 1.363281,-0.375 C 32.50105,5.366823 32.654046,5.0418152 32.654297,4.6074219 32.654548,4.1730285 32.404882,3.6953732 32.103516,3.4355469 31.500783,2.9158943 30.85324,2.805793 29.900391,2.6015625 29.349485,2.4834832 28.889955,2.4589167 28.451172,2.5664063 Z"
         id="m" />
      <path
         style="color:#000000;fill:#ffffff;stroke-linecap:round;stroke-linejoin:round;-inkscape-stroke:none"
         d="m 22.929687,16.804687 a 1,1 0 0 0 -1.18164,0.775391 c 0,0 -0.171221,0.820283 -0.341797,1.650391 -0.08529,0.415053 -0.169991,0.832472 -0.234375,1.152343 -0.03219,0.159936 -0.05857,0.295355 -0.07813,0.396485 -0.0098,0.05056 -0.01891,0.09276 -0.02539,0.128906 -0.0032,0.01807 -0.0045,0.03364 -0.0078,0.05469 -0.0033,0.02104 -0.01367,-0.03703 -0.01367,0.169921 a 1,1 0 0 0 1,1 1,1 0 0 0 1,-1 c 0,0.18538 -0.0079,0.13185 -0.0098,0.126954 0.0035,-0.01952 0.01068,-0.05384 0.01953,-0.09961 0.0177,-0.09153 0.0445,-0.225465 0.07617,-0.382812 0.06334,-0.314694 0.147411,-0.730824 0.232422,-1.144532 0.170024,-0.827415 0.341797,-1.646484 0.341797,-1.646484 a 1,1 0 0 0 -0.777344,-1.181641 z"
         id="n" />
      <path
         style="color:#000000;fill:#ffffff;stroke-linecap:round;stroke-linejoin:round;-inkscape-stroke:none"
         d="m 28.835937,18.054687 a 1,1 0 0 0 -1.230468,0.699219 l -0.888672,3.222656 a 1,1 0 0 0 0.697265,1.230469 1,1 0 0 0 1.230469,-0.699219 l 0.888672,-3.222656 a 1,1 0 0 0 -0.697266,-1.230469 z"
         id="o" />
    </g>
  </g>
</svg>
