<?xml version="1.0" encoding="UTF-8"?>
<svg id="a" version="1.1" viewBox="0 0 48 48" xmlns="http://www.w3.org/2000/svg">
 <defs id="defs1">
  <style id="style1">.q{stroke-width:2px;}.q,.r,.s{fill:none;stroke:#fff;stroke-linecap:round;stroke-linejoin:round;}.t{fill:#fff;stroke-width:2px;}.s{stroke-width:2px;}</style>
 </defs>
 <g id="b">
  <path id="c" d="m24.453 5.8184c-0.11421-0.00898-0.22993-0.00606-0.34375 0.00781a0.50005 0.50005 0 0 0-2e-3 0l-18.119 2.2832c-0.92314 0.11445-1.5881 0.96712-1.4746 1.8906a0.50005 0.50005 0 0 0 0 0.0078c-0.00171-0.012539-8.611e-4 -0.00993 0.00195 0.0098l3.2227 25.582c0.11577 0.92308 0.969 1.5889 1.8926 1.4746a0.50005 0.50005 0 0 0 0.00391 0h0.00391l8.0586-1.0156-0.15625 0.85547c-0.16598 0.91811 0.45087 1.8085 1.3691 1.9746l17.969 3.2695c0.9161 0.16698 1.8042-0.4479 1.9727-1.3633 4.5e-5 -1.96e-4 0.0019-0.0017 2e-3 -2e-3 9.9e-5 -4.42e-4 -1.34e-4 -0.0033 0-0.0039l4.6172-25.375c0.17013-0.91423-0.44122-1.8045-1.3555-1.9746-0.0034-6.2e-4 -0.01021-0.0028-0.0059-2e-3a0.5 0.5 0 0 0-0.0039 0 0.5 0.5 0 0 0-2e-3 0l-15.682-2.8515-0.41406-3.2813v-0.00195c-0.0994-0.7965-0.75071-1.4187-1.5508-1.4824-0.0015-1.221e-4 -0.0024-0.00184-0.0039-0.00195zm-0.078125 0.99805a0.50005 0.50005 0 0 0 2e-3 0c0.33441 0.025701 0.59749 0.27843 0.63867 0.61133l0.37305 2.9687-1.2539-0.23047c-0.0014-2.64e-4 -0.0052-2.38e-4 -0.0039 0a0.50005 0.50005 0 0 0-0.0039 0c-0.91702-0.16396-1.8048 0.45404-1.9688 1.3711l-1.3672 7.5078c-0.60619-0.21772-1.2562-0.31431-1.8984-0.12305-0.69586 0.20724-1.2849 0.76853-1.7266 1.5195-0.77536-0.71033-1.5936-1.1523-2.3828-1.1973-0.95434-0.0544-1.8204 0.34518-2.4062 0.99023-1.1716 1.2901-1.1908 3.6075 0.86133 5.1914l4.418 3.4277a0.50005 0.50005 0 0 0 0.69922-0.08789l0.87109-1.1152-1.3438 7.377-8.3711 1.0547a0.50005 0.50005 0 0 0-0.00391 0c-0.38833 0.04803-0.72937-0.21918-0.7774-0.60742l-3.2246-25.59a0.50005 0.50005 0 0 0 0-0.00586c-0.047641-0.38769 0.21774-0.72774 0.60547-0.77539a0.50005 0.50005 0 0 0 0.00195-0.00195l18.117-2.2832c0.04793-0.00584 0.09638-0.00579 0.14453-0.00195zm-0.42383 4.334c4.7e-5 6e-6 0.0026 1.18e-4 2e-3 0a0.50005 0.50005 0 0 0 2e-3 0l1.9219 0.35156a0.5 0.5 0 0 0 0.0039 2e-3l16.039 2.916c0.01328 0.0026 0.01489 0.0033 0.0078 2e-3a0.50005 0.50005 0 0 0 0.0039 0c0.38296 0.07127 0.62791 0.42758 0.55664 0.81055a0.50005 0.50005 0 0 0 0 2e-3l-4.6172 25.375a0.50005 0.50005 0 0 0-0.0059 0.04102c0.0026-0.02622 3e-3 -0.03339 0.0039-0.03711-0.07023 0.38524-0.42715 0.63274-0.8125 0.5625l-17.967-3.2697c-0.38933-0.07044-0.63487-0.42496-0.56445-0.81445l0.27734-1.5254a0.5 0.5 0 0 0-2e-3 -0.0039l1.7734-9.7324 1.0938-6.0234a0.50005 0.50005 0 0 0 2e-3 -0.0039l1.4727-8.0879c0.06883-0.38495 0.42361-0.63329 0.80859-0.56445zm-4.7734 8.7305c0.4785-0.14251 0.9756 8e-3 1.4238 0.20703l-0.99023 5.4434-1.7363 2.2266-4.0254-3.123a0.50005 0.50005 0 0 0-2e-3 0c-1.6991-1.3114-1.5272-2.8512-0.73047-3.7285 0.39835-0.43864 0.96303-0.7009 1.6094-0.66406 0.64634 0.03684 1.4055 0.375 2.1758 1.2617a0.50005 0.50005 0 0 0 0.8457-0.15625c0.31615-0.86475 0.84812-1.2936 1.4297-1.4668z" fill="#fff" stop-color="#000000" stroke-linecap="round" stroke-linejoin="round"/>
  <path id="d" d="m31.309 19.691c-0.51312 0.134-1.0181 0.41951-1.4531 0.87109-1.8209 1.8918-3.2825 4.7412-3.6699 7.3516-0.17131 1.1504-0.05457 2.6112 0.91602 3.5156 1.3914 1.2981 3.7588 1.8375 5.5059 0.94922 0.59296-0.30189 0.94165-0.84988 1.1621-1.4043 0.22046-0.55441 0.3293-1.1424 0.41797-1.6367 0.18988-1.0645 0.02669-2.4824-0.16211-3.6797-0.18538-1.1756-0.40397-2.0852-0.41211-2.1191-0.0526-0.51429-0.09725-0.97676-0.08984-1.1855 0.07096 0.02158 0.11666 0.0197 0.34766 0.16211a0.50005 0.50005 0 0 0 0.75781-0.48633c-0.1343-1.1198-0.87151-1.9786-1.8145-2.2949-0.47147-0.15818-0.99274-0.17696-1.5059-0.04297zm0.25 0.95508c0.32755-0.08527 0.64651-0.06247 0.9375 0.03516 0.31695 0.10633 0.5845 0.32228 0.79102 0.60547-0.18886 0.01541-0.39401 0.10594-0.52539 0.24609-0.13237 0.14121-0.19158 0.30202-0.22461 0.44727-0.13211 0.58097 0.0308 1.1643 0.08398 1.6875a0.50005 0.50005 0 0 0 0.01172 0.06641s0.22222 0.9255 0.4043 2.0801c0.18207 1.1546 0.30764 2.5537 0.16602 3.3477-0.08714 0.48583-0.19264 1.0142-0.36328 1.4434-0.17064 0.42911-0.39131 0.73301-0.68555 0.88281-1.2337 0.62728-3.3165 0.19186-4.3691-0.78906a0.50005 0.50005 0 0 0-2e-3 0 0.50005 0.50005 0 0 0 0-2e-3c-0.57356-0.53449-0.74922-1.6953-0.60932-2.6347a0.50005 0.50005 0 0 0 0-2e-3c0.34814-2.3455 1.7488-5.0867 3.4023-6.8047 0.31942-0.33162 0.65487-0.52411 0.98242-0.60938z" fill="#fff" stop-color="#000000" stroke-linecap="round" stroke-linejoin="round"/>
  <path id="e" d="m26.91 22.277c-0.55925 0.11122-1.0257 0.38162-1.3828 0.77148-0.71415 0.77972-1.0458 1.8943-1.3711 3.0605a0.50005 0.50005 0 0 0 0.74219 0.5625c0.57768-0.35346 1.0902-0.82955 1.541-1.1094 0.22538-0.13991 0.42866-0.22661 0.58594-0.25195 0.15728-0.02534 0.267-0.01124 0.42578 0.08594a0.5 0.5 0 0 0 0.6875-0.16602 0.5 0.5 0 0 0-0.16602-0.6875c-0.35152-0.21512-0.7527-0.27786-1.1074-0.2207-0.35472 0.05716-0.66552 0.21209-0.95312 0.39062-0.04004 0.02486-0.06798 0.05029-0.10742 0.07617 0.15677-0.33979 0.26834-0.85417 0.46094-1.0645 0.48008-0.52416 1.0375-0.72891 2.2715-0.31836a0.5 0.5 0 0 0 0.63086-0.31836 0.5 0.5 0 0 0-0.31641-0.63086c-0.73013-0.24292-1.3822-0.29091-1.9414-0.17969z" fill="#fff" stop-color="#000000" stroke-linecap="round" stroke-linejoin="round"/>
  <path id="f" d="m33.371 23.25a0.5 0.5 0 0 0-0.44141 0.55469 0.5 0.5 0 0 0 0.55274 0.43945c0.73255-0.08335 1.203 0.17796 1.5527 0.71484 0.09771 0.15001 0.04363 0.4722 0.11133 0.66797-0.21533-0.20571-0.48769-0.42457-0.85547-0.37695-0.41974 0.05434-0.73305 0.33944-1.0449 0.76172a0.5 0.5 0 0 0 0.10547 0.69922 0.5 0.5 0 0 0 0.69922-0.10547c0.23782-0.32202 0.38266-0.36528 0.36719-0.36328-0.01547 2e-3 -0.0076-0.01973 0.10938 0.10938 0.2339 0.25822 0.53694 0.93081 1.0586 1.4238a0.50005 0.50005 0 0 0 0.83984-0.29883c0.14924-1.179-0.0303-2.2604-0.55273-3.0625-0.52244-0.8021-1.4408-1.2848-2.502-1.1641z" fill="#fff" stop-color="#000000" stroke-linecap="round" stroke-linejoin="round"/>
  <path id="g" d="m27.629 30.836c-1.3742-0.06909-2.3949 0.0125-3.1777 0.22461-0.78283 0.21211-1.3394 0.57304-1.6914 1.0371-0.70408 0.92815-0.56544 2.0533-0.64062 2.9141a0.50005 0.50005 0 0 0 0.63867 0.52344c0.60215-0.17631 1.0315-0.4433 1.4629-0.61719 0.2626-0.10584 0.64821-0.09814 0.98438-0.13086-0.13727 0.42946-0.30422 0.86808-0.35938 1.2734-0.08788 0.64592-0.04002 1.2957 0.35742 1.8047a0.50005 0.50005 0 0 0 0.53711 0.17188c1.4026-0.41804 2.2505-1.3185 3.0488-2.1543 0.6384 1.3267 1.3451 2.6526 2.6953 3.1172a0.50005 0.50005 0 0 0 0.60547-0.24023c0.24929-0.4755 0.39524-0.74131 0.49805-1.1719 0.07341-0.30745 0.14918-0.9316 0.23047-1.5508 0.21075 0.07831 0.41011 0.10681 0.62891 0.2832 0.3633 0.29289 0.69584 0.6972 0.9043 1.0781a0.50005 0.50005 0 0 0 0.85156 0.04102c0.6523-0.96333 0.95777-1.743 0.96484-2.4414 0.0071-0.69836-0.32823-1.2646-0.75781-1.6582-0.85917-0.78716-2.0648-1.1639-2.625-1.7051a0.5 0.5 0 0 0-0.70703 0.01172 0.5 0.5 0 0 0 0.01367 0.70703c0.84155 0.81303 2.0549 1.1842 2.6426 1.7227 0.29385 0.26922 0.43767 0.50962 0.43359 0.91211-0.0027 0.26358-0.29284 0.77979-0.51758 1.2383-0.19391-0.2323-0.33882-0.49419-0.57617-0.68555-0.47622-0.38393-1.0337-0.67443-1.6484-0.68945a0.50005 0.50005 0 0 0-0.50781 0.43359c-0.15684 1.1923-0.22566 1.7475-0.30274 2.0703-0.03141 0.13154-0.12387 0.27779-0.16797 0.38281-0.81037-0.52239-1.4606-1.5847-2.082-2.8965a0.50005 0.50005 0 0 0-0.80664-0.13867c-0.85463 0.85729-1.6018 1.6289-2.6328 2.1035-0.04177-0.18833-0.12802-0.31638-0.08789-0.61133 0.06924-0.5089 0.26874-1.1443 0.51758-1.8164a0.50005 0.50005 0 0 0-0.42188-0.66992c-0.89525-0.08717-1.559 0.06808-2.0879 0.28125-0.22106 0.0891-0.38569 0.15583-0.57227 0.24414 0.0411-0.56043 0.0231-1.1903 0.2832-1.5332 0.20326-0.26795 0.52657-0.50517 1.1562-0.67578 0.62968-0.17061 1.5564-0.25526 2.8652-0.18945a0.5 0.5 0 0 0 0.52344-0.47461 0.5 0.5 0 0 0-0.47266-0.52539z" fill="#fff" stop-color="#000000" stroke-linecap="round" stroke-linejoin="round"/>
  <path id="h" d="m27.945 28.828a0.5 0.5 0 0 0-0.07617 0.70312c0.57769 0.71434 1.2542 1.1779 2.002 1.3086s1.5219-0.08494 2.2461-0.56641a0.5 0.5 0 0 0 0.13867-0.69336 0.5 0.5 0 0 0-0.69336-0.13867c-0.57235 0.38054-1.0635 0.49379-1.5195 0.41406-0.45604-0.07972-0.92122-0.36786-1.3945-0.95312a0.5 0.5 0 0 0-0.70312-0.07422z" fill="#fff" stop-color="#000000" stroke-linecap="round" stroke-linejoin="round"/>
  <path id="i" class="t" d="M29.8364,27.3623c0,.4142-.3358.75-.75.75s-.75-.3358-.75-.75.3358-.75.75-.75.75.3358.75.75Z"/>
  <path id="j" class="t" d="M32.1779,27.716c0,.4142-.3358.75-.75.75s-.75-.3358-.75-.75.3358-.75.75-.75h0c.4142,0,.75.3358.75.75h0Z"/>
  <path id="k" d="m29.643 24.863c-0.73787 0.11477-1.5604 0.42198-2.4727 0.95312a0.5 0.5 0 0 0-0.17969 0.68359 0.5 0.5 0 0 0 0.68359 0.18164c1.6711-0.973 2.7392-1.0316 3.5527-0.69141 0.81349 0.34014 1.467 1.1688 2.0742 2.2188a0.5 0.5 0 0 0 0.68164 0.18359 0.5 0.5 0 0 0 0.18359-0.68359c-0.64474-1.1147-1.3996-2.1576-2.5547-2.6406-0.57754-0.24149-1.2309-0.31984-1.9688-0.20508z" fill="#fff" stop-color="#000000" stroke-linecap="round" stroke-linejoin="round"/>
  <g id="l">
   <path id="m" d="m29.186 12.389a1 1 0 0 0-1.1602 0.80859l-1.0625 5.9707c-0.09937 0.55743-0.62808 0.92555-1.1855 0.82617-0.55743-0.09937-0.92555-0.62808-0.82617-1.1855l0.125-0.69531a1 1 0 0 0-0.80859-1.1602 1 1 0 0 0-1.1602 0.80859l-0.125 0.69531c-0.29082 1.6313 0.81199 3.215 2.4434 3.5059 1.6313 0.29082 3.215-0.81394 3.5059-2.4453l1.0625-5.9688a1 1 0 0 0-0.80859-1.1602z" fill="#fff" stop-color="#000000" stroke-linecap="round" stroke-linejoin="round"/>
  </g>
  <g id="n" fill="#fff" stroke-linecap="round" stroke-linejoin="round">
   <path id="o" d="m11.867 13.691-3.5977 0.53906a1 1 0 0 0-0.83984 1.1367 1 1 0 0 0 1.1367 0.8418l3.5977-0.53906a1 1 0 0 0 0.83984-1.1387 1 1 0 0 0-1.1367-0.83984z" stop-color="#000000"/>
   <path id="p" d="m9.2754 8.6641a1.0001 1.0001 0 0 0-0.83594 0.8125l-1.5 8.4004a1 1 0 0 0 0.80664 1.1602 1 1 0 0 0 1.1621-0.80859l0.97852-5.4824 2.543 4.9551a1 1 0 0 0 1.3457 0.43164 1 1 0 0 0 0.43359-1.3457l-3.8965-7.5918a1.0001 1.0001 0 0 0-1.0371-0.53125z" stop-color="#000000"/>
  </g>
 </g>
</svg>
