<?xml version="1.0" encoding="UTF-8" standalone="no"?>
<svg
   id="b"
   viewBox="0 0 48 48"
   version="1.1"
   sodipodi:docname="steam_icon_48000.svg"
   xmlns:inkscape="http://www.inkscape.org/namespaces/inkscape"
   xmlns:sodipodi="http://sodipodi.sourceforge.net/DTD/sodipodi-0.dtd"
   xmlns="http://www.w3.org/2000/svg"
   xmlns:svg="http://www.w3.org/2000/svg">
  <sodipodi:namedview
     id="namedview2"
     pagecolor="#ffffff"
     bordercolor="#666666"
     borderopacity="1.0"
     inkscape:showpageshadow="2"
     inkscape:pageopacity="0.0"
     inkscape:pagecheckerboard="0"
     inkscape:deskcolor="#d1d1d1" />
  <defs
     id="defs1">
    <style
       id="style1">.c{fill:none;stroke:#fff;stroke-linecap:round;stroke-linejoin:round;}.d{fill:#fff;stroke-width:2px;}</style>
  </defs>
  <path
     style="color:#000000;fill:#ffffff;stroke-linecap:round;stroke-linejoin:round;-inkscape-stroke:none"
     d="m 31.205078,3.0058594 c -1.067749,0.064013 -2.802187,0.7639875 -5.601562,2.1113281 -0.01701,-0.1490814 0.0721,-0.3154627 -0.0078,-0.4609375 -0.116818,-0.212672 -0.345364,-0.3838054 -0.580078,-0.4453125 -0.234714,-0.061507 -0.467507,-0.043339 -0.714844,0.00977 -0.989347,0.2124194 -2.395407,1.0377823 -4.720703,2.671875 L 19.759766,6.8125 c -1.331454,0.2943476 -2.16961,0.8293757 -2.667969,1.3125 -0.336978,0.3266766 -0.369281,0.4752606 -0.457031,0.6523438 -2.109206,-0.091521 -4.129613,1.3656822 -5.617188,3.1796872 -1.466629,1.788464 -2.3944813,3.85326 -2.3046874,5.501953 -0.7475874,0.528173 -1.2023098,1.144828 -1.2324219,1.775391 -0.016384,0.343084 0.1699055,0.766836 0.5390626,0.914062 0.1437962,0.05735 0.2921061,-0.05145 0.4375,-0.06055 -0.1818994,3.257192 0.6732892,5.896699 2.1972657,7.951171 1.623369,2.188465 3.872601,3.794412 6.082031,5.138672 4.044341,2.460655 5.35262,3.350146 6.167969,4.291016 -1.636275,1.771426 -3.150693,3.842712 -3.763672,6.933594 a 0.5,0.5 0 0 0 0.392578,0.58789 0.5,0.5 0 0 0 0.587891,-0.392578 c 0.609341,-3.072535 2.110609,-5.048467 3.822265,-6.83789 a 0.50005,0.50005 0 0 0 0.03516,-0.650391 C 23.032872,35.877233 21.631626,34.984566 17.255859,32.322266 15.091994,31.005728 12.955534,29.463491 11.457031,27.443359 9.9585289,25.423228 9.0749912,22.939491 9.40625,19.601562 A 0.50005,0.50005 0 0 0 8.6738281,19.109375 c -0.065144,0.03465 -0.033969,0.01483 -0.078125,0.0293 0.062049,-0.207524 0.2245958,-0.607948 0.8164063,-0.982422 a 0.50005,0.50005 0 0 0 0.2265625,-0.496094 c -0.163186,-1.087084 0.7098301,-3.309303 2.1523441,-5.068359 1.442513,-1.759056 3.376285,-3.0468398 5.039062,-2.8457032 a 0.50005,0.50005 0 0 0 0.533203,-0.3339844 c 0,0 0.06134,-0.2170127 0.425781,-0.5703125 0.364441,-0.3532998 1.014203,-0.7937826 2.185547,-1.0527344 a 0.50005,0.50005 0 0 0 0.179688,-0.078125 c 2.292299,-1.610904 3.751221,-2.3835166 4.357422,-2.5136719 0.122174,-0.026232 0.169862,-0.018925 0.203125,-0.015625 -0.0032,0.015281 0.03321,0.2034348 -0.0625,0.5703125 a 0.50005,0.50005 0 0 0 0.705078,0.5761719 c 3.296042,-1.6174318 5.136874,-2.2779767 5.908203,-2.3242188 0.192832,-0.011561 0.307087,0.011844 0.359375,0.033203 0.05229,0.021359 0.05483,0.026903 0.07617,0.064453 0.04268,0.075101 0.08758,0.3620693 0.05078,0.7851562 a 0.50005,0.50005 0 0 0 0.736328,0.4824219 c 0.427233,-0.2310988 1.733283,-0.4693836 2.679688,-0.3515625 0.473202,0.058911 0.851251,0.2061619 1.011718,0.3535156 0.160468,0.1473538 0.219216,0.2378757 0.07813,0.6269532 a 0.50005,0.50005 0 0 0 0.642579,0.6386718 c 0.466793,-0.1711107 0.938659,-0.061436 1.251953,0.1738282 0.313294,0.2352644 0.445045,0.5298433 0.33789,0.8652343 a 0.50005,0.50005 0 0 0 0.732422,0.5820313 c 0.172852,-0.1023774 0.265726,-0.076704 0.279297,-0.070312 0.01357,0.00639 0.02555,-0.020343 0.01953,0.1015625 -0.01204,0.2438119 -0.418529,1.0487298 -1.976562,1.8906255 l 0.0039,0.0059 c -0.01432,0.0092 -0.02857,0.008 -0.04297,0.01758 a 0.50005,0.50005 0 0 0 0.513672,0.857422 c 0.01695,-0.0092 0.02035,-0.01819 0.03711,-0.02734 l 0.002,0.0039 c 0.08446,-0.05607 0.111803,-0.05611 0.167968,-0.08008 -0.01076,0.05665 -0.0081,0.08929 -0.03906,0.169922 -0.233839,0.608197 -1.119348,1.713286 -2.914063,2.572266 a 0.50005,0.50005 0 0 0 -0.236328,0.664062 c 0.932521,1.994635 2.876953,6.758368 2.876953,12.03711 0,1.490656 -1.066585,3.561246 -2.533203,5.380859 -1.466617,1.819613 -3.321488,3.409972 -4.669922,4.078125 a 0.50005,0.50005 0 0 0 -0.279296,0.447266 v 1.84375 a 0.50005,0.50005 0 0 0 0.224609,0.417968 c 1.883674,1.247948 2.494955,3.922704 2.648437,5.96875 a 0.5,0.5 0 0 0 0.53711,0.460938 0.5,0.5 0 0 0 0.460937,-0.535156 C 34.14628,42.37723 33.547094,39.539926 31.431641,37.949219 v -1.388672 c 1.519284,-0.826736 3.268499,-2.343343 4.726562,-4.152344 1.543305,-1.914758 2.755859,-4.073572 2.755859,-6.007812 0,-5.29751 -1.818651,-9.863464 -2.820312,-12.058594 1.668481,-0.900412 2.684174,-1.962912 3.027344,-2.855469 0.09367,-0.243632 0.145901,-0.476083 0.138672,-0.710937 -0.0051,-0.164895 -0.108832,-0.323185 -0.203125,-0.478516 0.865952,-0.6652464 1.431567,-1.3249361 1.46289,-1.9589844 0.02165,-0.4382935 -0.2118,-0.875717 -0.591797,-1.0546875 -0.158255,-0.074535 -0.333377,0.044737 -0.505859,0.048828 C 39.369452,6.8091138 39.163511,6.3193066 38.753906,6.0117187 38.346169,5.7055326 37.809227,5.6052829 37.253906,5.6308594 37.229299,5.2398042 37.119694,4.8756041 36.857422,4.6347656 36.440015,4.2514699 35.880865,4.0966268 35.292969,4.0234375 34.354412,3.9065933 33.453391,4.1355593 32.673828,4.3964844 32.663426,4.1305967 32.709983,3.853194 32.570312,3.6074219 32.449499,3.394832 32.245119,3.2098606 32.003906,3.1113281 31.762693,3.0127957 31.497433,2.9883324 31.205078,3.0058594 Z"
     id="path1" />
  <circle
     class="d"
     cx="27.964"
     cy="23.4241"
     r=".75"
     id="circle1" />
  <circle
     class="d"
     cx="34.9399"
     cy="21.0618"
     r=".75"
     id="circle2" />
</svg>
