<?xml version="1.0" encoding="UTF-8"?>
<svg id="a" version="1.1" viewBox="0 0 48 48" xmlns="http://www.w3.org/2000/svg">
 <defs id="defs1">
  <style id="style1">.b{fill:none;stroke:#fff;stroke-width:2px;stroke-linecap:round;stroke-linejoin:round;}</style>
 </defs>
 <path id="path1" d="m3.5 11.557a1.0001 1.0001 0 0 0-0.71094 1.7031l15.439 15.648v1.002h-1.2539a1.0001 1.0001 0 0 0-1 1v2.6211a1.0001 1.0001 0 0 0 1.707 0.70703l0.72852-0.73047h0.37305l-0.52344 0.52148a1.0001 1.0001 0 0 0 0.70703 1.707h2.6797l1.6465 1.6484a1 1 0 0 0 1.4141 0 1 1 0 0 0 0-1.4141l-1.9395-1.9414a1.0001 1.0001 0 0 0-0.70703-0.29297h-1.0332a1.0001 1.0001 0 0 0 0.04102-0.09961v-1.1289a1.0001 1.0001 0 0 0-1-1h-0.4375a1.0001 1.0001 0 0 0 0.59766-0.59766v-2.4121a1.0001 1.0001 0 0 0-0.28907-0.70312l-14.049-14.238h9.2539l2.0879 2.0879v2.4785a1.0001 1.0001 0 0 0 0.29297 0.70703l0.93555 0.93555a1.0001 1.0001 0 0 0 0.70703 0.29297h2.4727a1 1 0 0 0 1-1 1 1 0 0 0-1-1h-2.0586l-0.34961-0.34961v-2.4785a1.0001 1.0001 0 0 0-0.29297-0.70703l-2.6738-2.6738a1.0001 1.0001 0 0 0-0.70703-0.29297z" fill="#fff" stop-color="#000000" stroke-linecap="round" stroke-linejoin="round"/>
 <path id="path2" d="m32.441 11.557a1.0001 1.0001 0 0 0-0.70703 0.29297l-2.6738 2.6738a1.0001 1.0001 0 0 0-0.29297 0.70703v2.4785l-0.34961 0.34961h-2.0586a1 1 0 0 0-1 1 1 1 0 0 0 1 1h2.4727a1.0001 1.0001 0 0 0 0.70703-0.29297l0.93555-0.93555a1.0001 1.0001 0 0 0 0.29297-0.70703v-2.4785l2.0879-2.0879h9.252l-14.047 14.238a1.0001 1.0001 0 0 0-0.28906 0.70312v2.4121a1.0001 1.0001 0 0 0 0.59766 0.59766h-0.4375a1.0001 1.0001 0 0 0-1 1v1.1289a1.0001 1.0001 0 0 0 0.04102 0.09961h-1.0332a1.0001 1.0001 0 0 0-0.70703 0.29297l-1.9395 1.9414a1 1 0 0 0 0 1.4141 1 1 0 0 0 1.4141 0l1.6465-1.6484h2.6797a1.0001 1.0001 0 0 0 0.70703-1.707l-0.52344-0.52148h0.37305l0.72852 0.73047a1.0001 1.0001 0 0 0 1.707-0.70703v-2.6211a1.0001 1.0001 0 0 0-1-1h-1.2539v-1.002l15.439-15.648a1.0001 1.0001 0 0 0-0.71094-1.7031z" fill="#fff" stop-color="#000000" stroke-linecap="round" stroke-linejoin="round"/>
 <path id="polyline2" d="m24.068 20.346a1 1 0 0 0-0.70703 0.29297l-0.62305 0.62305h-0.82812l-0.62305-0.62305a1.0001 1.0001 0 0 0-1.707 0.70703v4.7461a1.0001 1.0001 0 0 0 0.08008 0.39258l0.65625 1.5371a1.0001 1.0001 0 0 0 0.2793 0.37695l1.4492 1.2051a1.0001 1.0001 0 0 0 0.33984 0.18359l1.3848 0.43555a1 1 0 0 0 1.2539-0.6543 1 1 0 0 0-0.6543-1.2539l-1.1973-0.375-1.1113-0.92383-0.48047-1.1289v-2.625h1.5723a1.0001 1.0001 0 0 0 0.70703-0.29297l0.91602-0.91602a1 1 0 0 0 0-1.4141 1 1 0 0 0-0.70703-0.29297z" fill="#fff" stop-color="#000000" stroke-linecap="round" stroke-linejoin="round"/>
 <path id="polyline3" d="m27.941 20.422a1.0001 1.0001 0 0 0-1.0898 0.2168l-0.625 0.62305h-0.82617l-0.625-0.62305a1 1 0 0 0-1.4141 0 1 1 0 0 0 0 1.4141l0.91797 0.91602a1.0001 1.0001 0 0 0 0.70703 0.29297h1.5723v2.625l-0.48242 1.1289-1.1094 0.92383-1.1973 0.375a1 1 0 0 0-0.6543 1.2539 1 1 0 0 0 1.2539 0.6543l1.3848-0.43555a1.0001 1.0001 0 0 0 0.33984-0.18359l1.4473-1.2051a1.0001 1.0001 0 0 0 0.28125-0.37695l0.65625-1.5371a1.0001 1.0001 0 0 0 0.08008-0.39258v-4.7461a1.0001 1.0001 0 0 0-0.61719-0.92383z" fill="#fff" stop-color="#000000" stroke-linecap="round" stroke-linejoin="round"/>
 <path id="line3" d="m24.691 23.168-2.8652 2.8633a1 1 0 0 0 0 1.416 1 1 0 0 0 1.4141 0l2.8652-2.8652a1 1 0 0 0 0-1.4141 1 1 0 0 0-1.4141 0z" fill="#fff" stop-color="#000000" stroke-linecap="round" stroke-linejoin="round"/>
 <path id="path3" d="m26.873 10.549a1.0001 1.0001 0 0 0-1.3418 0.06641l-2.4629 2.4648h-0.37695a1.0001 1.0001 0 0 0-0.70703 0.29297l-1.0508 1.0508a1.0001 1.0001 0 0 0-0.29297 0.70703v3.9277a1 1 0 0 0 1 1 1 1 0 0 0 1-1v-3.5137l0.46484-0.46484h0.37695a1.0001 1.0001 0 0 0 0.60352-0.25 1 1 0 0 0 0.28516 0.72461 1 1 0 0 0 1.4141 0l1.5391-1.541h0.97852a1.0001 1.0001 0 0 0 0.63477-1.7734z" fill="#fff" stop-color="#000000" stroke-linecap="round" stroke-linejoin="round"/>
 <path id="polyline4" d="m25.652 13.338a1 1 0 0 0-1 1 1 1 0 0 0 0.96094 0.96094 1.0001 1.0001 0 0 0-0.25391 0.64062v3.1191a1 1 0 0 0 1 1 1 1 0 0 0 1-1v-2.7227l1.2324-1.3145a1.0001 1.0001 0 0 0-0.73047-1.6836z" fill="#fff" stop-color="#000000" stroke-linecap="round" stroke-linejoin="round"/>
</svg>
