<?xml version="1.0" encoding="UTF-8" standalone="no"?>
<svg
   viewBox="0 0 48 48"
   version="1.1"
   id="svg8"
   sodipodi:docname="steam_icon_248970.svg"
   xmlns:inkscape="http://www.inkscape.org/namespaces/inkscape"
   xmlns:sodipodi="http://sodipodi.sourceforge.net/DTD/sodipodi-0.dtd"
   xmlns="http://www.w3.org/2000/svg"
   xmlns:svg="http://www.w3.org/2000/svg">
  <sodipodi:namedview
     id="namedview8"
     pagecolor="#ffffff"
     bordercolor="#666666"
     borderopacity="1.0"
     inkscape:showpageshadow="2"
     inkscape:pageopacity="0.0"
     inkscape:pagecheckerboard="0"
     inkscape:deskcolor="#d1d1d1" />
  <defs
     id="defs1">
    <style
       id="style1">.a{fill:none;stroke:#fff;stroke-width:2px;stroke-linecap:round;stroke-linejoin:round;}</style>
  </defs>
  <path
     style="color:#000000;fill:#ffffff;stroke-linecap:round;stroke-linejoin:round;-inkscape-stroke:none"
     d="m 33.40625,8.2207031 c -1.67955,-0.041514 -2.776413,1.1399665 -3.261719,2.1347659 -0.301719,0.618476 -0.286902,0.846846 -0.355469,1.216797 L 25.791016,9.7929688 A 1.0001,1.0001 0 0 0 24.757812,9.9296875 L 24.425781,10.197266 16.537109,9.8925781 a 1.0001,1.0001 0 0 0 -0.410156,0.070312 c 0,0 -1.198342,0.4817724 -2.509765,0.9980474 -1.311424,0.516274 -2.809663,1.0896 -3.132813,1.191406 -0.5347129,0.168457 -0.8940108,0.570365 -1.1132812,0.984375 -0.096295,0.0016 -0.073494,0.0029 -0.2011719,0.0039 -0.6105918,0.005 -1.1268952,0.343645 -1.4414063,0.705078 -0.314511,0.361433 -0.5031107,0.761643 -0.6484375,1.158203 -0.2906536,0.79312 -0.399344,1.54064 -0.3886719,2.111328 0.00669,0.357543 0.1270303,0.760149 0.3945313,1.046875 0.267501,0.286727 0.6112661,0.402932 0.8613281,0.4375 0.1276448,0.01765 0.1108115,-0.01655 0.2148438,-0.02148 l 0.3261719,0.230469 a 1.0001,1.0001 0 0 0 1.2011718,-0.03516 l 2.0957029,-1.671875 a 1,1 0 0 0 0.15625,-1.406249 1,1 0 0 0 -1.404297,-0.158204 l -1.5097652,1.205078 0.015625,0.0098 a 1.0001,1.0001 0 0 0 -0.2832032,-0.04102 c 0.033288,-0.297705 0.064395,-0.65163 0.1992188,-1.019531 0.091673,-0.250152 0.2081802,-0.453721 0.2773437,-0.533203 0.069164,-0.07948 0.014914,-0.0181 -0.048828,-0.01758 0.5556697,-0.0045 0.8102664,-0.01361 0.974609,-0.02539 0.08217,-0.0059 0.07426,0.02555 0.326172,-0.05664 0.03149,-0.01027 0.07037,-0.02374 0.123047,-0.04883 0.05267,-0.02509 0.212558,-0.138394 0.212891,-0.138672 1.66e-4,-1.39e-4 0.154198,-0.160027 0.154297,-0.160156 9.8e-5,-1.3e-4 0.150349,-0.281131 0.15039,-0.28125 4.1e-5,-1.2e-4 0.05274,-0.388563 0.05274,-0.388672 -1e-6,-6e-6 -0.0035,-0.01594 -0.0039,-0.01758 0.611855,-0.198562 1.890964,-0.696909 3.171875,-1.201172 1.215603,-0.478553 2.15682,-0.856737 2.324219,-0.923828 l 8.048828,0.310546 a 1.0001,1.0001 0 0 0 0.666016,-0.220703 l 0.148437,-0.11914 3.601563,1.601562 a 1.0001,1.0001 0 0 0 0.208984,0.06836 l 0.615235,0.123046 a 1.0001,1.0001 0 0 0 0.74414,-0.144531 l 0.40625,-0.265625 A 1.0001,1.0001 0 0 0 31.5625,12.515625 c 0,0 0.07769,-0.665754 0.378906,-1.283203 0.301219,-0.617449 0.611468,-1.031605 1.416016,-1.011719 1.012434,0.02502 1.713592,0.37089 2.335937,0.777344 0.311173,0.203227 0.593477,0.421614 0.888672,0.626953 0.01884,0.01311 0.05139,0.01995 0.07031,0.0332 -0.136108,0.1581 -0.271307,0.314869 -0.416016,0.492188 -0.209118,0.256242 -0.423149,0.454186 -0.566406,0.943359 -0.136565,0.466322 -0.465545,1.377542 -2.441406,2.888672 a 1,1 0 0 0 -0.1875,1.402344 1,1 0 0 0 1.402343,0.1875 c 2.224735,-1.701467 2.91745,-3.133939 3.146485,-3.916016 -0.05186,0.177073 0.03305,-0.04336 0.195312,-0.242187 0.162263,-0.198829 0.382863,-0.444361 0.59375,-0.699219 0.210888,-0.254859 0.420226,-0.470974 0.580078,-0.902344 0.07993,-0.215685 0.176041,-0.581391 -0.03516,-1.001953 C 38.712632,10.389985 38.275668,10.207766 38,10.164063 38.105016,10.180711 37.951676,10.143682 37.722656,9.984375 37.493637,9.8250678 37.178948,9.5801289 36.787109,9.3242188 36.003431,8.8123985 34.877913,8.2570785 33.40625,8.2207031 Z m -22.310547,5.4824219 0.0039,0.0039 c 0,0 0.0019,0.02565 0.0039,0.0293 -0.002,-0.0078 -0.0071,-0.03041 -0.0078,-0.0332 z m -1.8886717,0.298828 c 0.034876,0.166124 0.040253,0.430129 0.048828,0.449219 -0.022267,-0.08885 -0.070318,-0.285244 -0.070312,-0.285156 2.9e-6,4.6e-5 0.010658,-0.08381 0.021484,-0.164063 z m 0.0625,0.503906 a 1.0001,1.0001 0 0 0 0.6171875,0.552735 c 0,0 -0.1664174,-0.06857 -0.1660157,-0.06836 2.009e-4,1.05e-4 -0.1759656,-0.115386 -0.1757812,-0.115234 9.22e-5,7.6e-5 -0.1289798,-0.128994 -0.1289063,-0.128906 7.35e-5,8.7e-5 -0.1426231,-0.226661 -0.1425781,-0.226563 1.8e-6,4e-6 -0.00365,-0.01264 -0.00391,-0.01367 z m -1.0488282,2.111328 c 0.00728,0.001 0.031061,0.02122 0.041016,0.02344 a 1.0001,1.0001 0 0 0 -0.1191407,-0.01758 c 0,0 -0.037524,-0.02185 0.078125,-0.0059 z"
     id="path1" />
  <path
     style="color:#000000;fill:#ffffff;stroke-linecap:round;stroke-linejoin:round;-inkscape-stroke:none"
     d="m 34.181641,15.839844 a 1,1 0 0 0 -0.763672,0.03125 1,1 0 0 0 -0.490235,1.326172 c 0.447546,0.969648 0.962714,1.906866 1.541016,2.804687 0.429935,0.679385 0.522517,1.007309 0.666016,1.488281 0.14411,0.483022 0.341098,1.128047 0.865234,1.980469 0.429807,0.699011 0.831615,1.550835 1.197266,2.292969 0.182825,0.371067 0.356847,0.714657 0.539062,1.019531 0.182215,0.304874 0.317601,0.581426 0.734375,0.853516 -0.192074,-0.125395 -0.08985,-0.09325 -0.0059,0.08789 0.08399,0.181141 0.192013,0.473814 0.322265,0.814453 0.260504,0.68128 0.604193,1.564129 1.238282,2.357422 a 1,1 0 0 0 1.40625,0.15625 1,1 0 0 0 0.15625,-1.404297 c -0.38911,-0.486805 -0.682545,-1.172774 -0.931641,-1.824218 -0.124548,-0.325722 -0.237008,-0.639595 -0.376953,-0.941407 -0.139945,-0.301811 -0.26467,-0.62798 -0.714844,-0.921875 0.158675,0.103591 0.01353,0.0058 -0.111328,-0.203125 -0.124856,-0.208903 -0.284725,-0.519308 -0.460938,-0.876953 -0.352424,-0.715289 -0.77497,-1.620944 -1.289062,-2.457031 -0.419763,-0.682676 -0.505479,-1.011653 -0.652344,-1.503906 -0.146864,-0.492253 -0.355768,-1.141656 -0.896484,-1.994141 a 1.0001,1.0001 0 0 0 -0.0039,-0.0059 c -0.527811,-0.819432 -0.99778,-1.675558 -1.40625,-2.560547 a 1,1 0 0 0 -0.5625,-0.519531 z"
     id="path2" />
  <path
     style="color:#000000;fill:#ffffff;stroke-linecap:round;stroke-linejoin:round;-inkscape-stroke:none"
     d="m 17.189453,12.984375 a 1.0001,1.0001 0 0 0 -0.736328,0.232422 c -0.485701,0.409061 -1.06545,0.688771 -1.6875,0.816406 a 1.0001,1.0001 0 0 0 -0.181641,0.05664 c -0.969784,0.400374 -1.90032,0.884379 -2.798828,1.425781 -0.221661,0.08751 -0.132989,0.0166 0.0039,0.08203 0.136895,0.06543 0.285156,0.3125 0.285156,0.3125 a 1,1 0 0 0 -0.373047,-0.351562 1,1 0 0 0 0,-0.002 1,1 0 0 0 -0.949219,-0.150391 1,1 0 0 0 -0.503906,1.322266 c 0,0 0.245692,0.466398 0.679687,0.673828 0.433995,0.207429 1.019659,0.200495 1.591797,-0.02539 a 1.0001,1.0001 0 0 0 0.15625,-0.07813 c 0.466564,-0.286493 0.971626,-0.49947 1.460938,-0.744141 -0.123935,0.548205 -0.163329,1.220388 -0.115235,2.021485 -0.01933,0.0149 -0.01354,0.01415 -0.03711,0.03125 -0.273596,0.198449 -0.840875,0.540551 -1.894531,0.964844 -1.434652,0.577713 -2.7229736,1.852277 -3.8320315,3.068359 -1.1090579,1.216082 -1.9414616,2.333693 -2.2363281,2.78125 -0.00369,0.0056 0.1884831,-0.104796 -0.039063,-0.02734 -0.2275456,0.07745 -0.7379679,0.287643 -1.1484375,0.732422 a 1,1 0 0 0 0.056641,1.414063 1,1 0 0 0 1.4140625,-0.05664 c 0.1518298,-0.164521 0.1254366,-0.130268 0.3222656,-0.197266 0.196829,-0.067 0.7523448,-0.289974 1.0644531,-0.763672 0.1566331,-0.237742 1.018482,-1.409665 2.0449219,-2.535156 1.0264399,-1.125491 2.3151629,-2.244661 3.0996099,-2.560547 1.165441,-0.469307 1.87539,-0.875621 2.324218,-1.201172 0.224414,-0.162775 0.382422,-0.306686 0.498047,-0.429687 0.115625,-0.123001 0.232422,-0.304688 0.232422,-0.304688 a 1.0001,1.0001 0 0 0 0.119141,-0.605468 c -0.168649,-1.418117 0.05466,-2.151304 0.232421,-2.503907 0.06232,-0.123619 0.103787,-0.161533 0.146485,-0.210937 1.883021,0.03983 3.246232,-0.05762 3.992187,-0.269531 0.416951,-0.118447 0.713961,-0.258059 0.939453,-0.414063 0.112747,-0.078 0.206984,-0.160323 0.283204,-0.24414 0.07622,-0.08382 0.175781,-0.248047 0.175781,-0.248047 a 1.0001,1.0001 0 0 0 -0.691406,-1.441406 c -1.28897,-0.258446 -2.589347,-0.449822 -3.898438,-0.570313 z"
     id="path3" />
  <path
     style="color:#000000;fill:#ffffff;stroke-linecap:round;stroke-linejoin:round;-inkscape-stroke:none"
     d="m 16.605469,24.136719 c -1.042875,0.172099 -2.259333,0.74792 -4.398438,1.861328 C 9.9502825,27.172688 8.7305944,28.515114 8,29.509766 c -0.3652972,0.497325 -0.6214762,0.903176 -0.7792969,1.099609 -0.1578207,0.196433 -0.079079,0.09204 0.027344,0.08789 a 1.0001,1.0001 0 0 0 -0.2070313,0.0293 c -0.8273318,0.209769 -1.5727097,0.661477 -2.1425781,1.296875 a 1,1 0 0 0 0.076172,1.41211 1,1 0 0 0 1.4121093,-0.07617 c 0.3048167,-0.339868 0.7039532,-0.581157 1.1464844,-0.693359 l -0.2070312,0.0293 c 0.6614221,-0.0258 1.1615055,-0.466633 1.4550781,-0.832031 0.2935726,-0.365397 0.5201541,-0.745323 0.8320313,-1.169922 0.6237547,-0.849196 1.5405307,-1.892818 3.5175777,-2.921875 2.094691,-1.09029 3.314032,-1.579831 3.800782,-1.660156 0.243374,-0.04016 0.231143,-0.0086 0.205078,-0.02344 -0.02606,-0.01484 0.02706,0.01371 0.142578,0.214843 a 1,1 0 0 0 1.365234,0.369141 1,1 0 0 0 0.369141,-1.365234 C 18.827036,24.981672 18.573368,24.604804 18.125,24.349609 c -0.448368,-0.255194 -0.998094,-0.29894 -1.519531,-0.21289 z"
     id="path4" />
  <path
     style="color:#000000;fill:#ffffff;stroke-linecap:round;stroke-linejoin:round;-inkscape-stroke:none"
     d="M 30.472656,22.453125 A 1.0001,1.0001 0 0 0 30.3125,23.792969 c 0,0 -0.08163,-0.130406 -0.105469,-0.189453 -0.02383,-0.05905 -0.03691,-0.110883 -0.04297,-0.148438 -0.01212,-0.07511 1.93e-4,-0.09127 -0.01172,-0.02734 -0.02382,0.127849 -0.153006,0.558695 -0.619141,1.339844 -0.04344,0.07279 -0.486489,0.464628 -1.164062,0.796875 -0.677573,0.332247 -1.558651,0.662508 -2.447266,0.970703 -0.888615,0.308195 -1.783269,0.594632 -2.535156,0.869141 -0.375944,0.137254 -0.716941,0.271043 -1.017578,0.414062 -0.300637,0.14302 -0.559163,0.260167 -0.841797,0.564453 l 0.01172,-0.01367 c -0.47801,0.49713 -1.080734,0.855644 -1.746093,1.037109 a 1.0001,1.0001 0 0 0 -0.05859,0.01953 c -0.299406,0.101967 -0.605338,0.385875 -0.728516,0.666016 -0.123177,0.28014 -0.122622,0.511405 -0.107422,0.697265 0.0304,0.371722 0.135585,0.633494 0.240235,0.894532 0.152554,0.380532 0.248726,0.590069 0.326172,0.755859 -0.242815,0.05595 -0.819405,0.09347 -1.855469,-0.359375 -1.132329,-0.494924 -1.589802,-0.927237 -1.746094,-1.126953 -0.07451,-0.09521 -0.08093,-0.129168 -0.07813,-0.121094 a 1.0001,1.0001 0 0 0 -0.314453,-0.617187 c -0.307959,-0.281295 -0.41582,-0.463287 -0.46289,-0.558594 a 1.0001,1.0001 0 0 0 0.36914,-0.949219 c 0,0 -0.02252,0.0378 0.05859,-0.115234 0.08111,-0.153038 0.298352,-0.471544 1.242187,-0.730469 1.214147,-0.33308 1.801876,-0.559633 2.244141,-1.134766 0.221133,-0.287566 0.328457,-0.761241 0.238281,-1.097656 -0.09018,-0.336414 -0.349609,-0.572265 -0.349609,-0.572265 a 1,1 0 0 0 -1.41211,0.08398 1,1 0 0 0 -0.134765,0.392578 c 0.08389,-0.117339 -0.127751,0.127539 -1.115235,0.398438 -1.321661,0.362574 -2.115702,1.038119 -2.478515,1.722656 -0.219986,0.415057 -0.153454,0.578739 -0.158203,0.851562 -0.205944,0.173158 -0.356711,0.159551 -0.480469,0.570313 -0.118239,0.392441 -0.08764,0.885373 0.103516,1.328125 0.140626,0.32572 0.435731,0.634392 0.726562,0.947265 0.0067,0.02949 0.0011,0.03633 0.0098,0.06445 0.07037,0.227958 0.202065,0.493639 0.417969,0.769531 0.431807,0.551783 1.181862,1.141887 2.519531,1.726562 1.372829,0.600043 2.465543,0.736048 3.357422,0.458985 0.891878,-0.277063 1.571698,-1.187098 1.373046,-2.083985 -0.137633,-0.621696 -0.394767,-0.977983 -0.542968,-1.347656 -9.73e-4,-0.0024 -9.95e-4,-0.0015 -0.002,-0.0039 0.71657,-0.305661 1.444612,-0.614272 1.988281,-1.179688 a 1.0001,1.0001 0 0 0 0.01172,-0.01172 c -0.08161,0.08786 0.03153,-0.02264 0.234375,-0.119141 0.202843,-0.0965 0.498358,-0.215697 0.84375,-0.341797 0.690783,-0.2522 1.587989,-0.541033 2.505859,-0.859375 0.91787,-0.318342 1.855953,-0.664366 2.671875,-1.064453 0.815922,-0.400087 1.54169,-0.795097 2.001953,-1.566406 0.203238,-0.340585 0.200463,-0.484891 0.326172,-0.75 l 1.78125,1.728515 0.0078,0.263672 a 1.0001,1.0001 0 0 0 0.251954,0.636719 l 0.449218,0.503906 0.0039,0.121094 A 1.0001,1.0001 0 0 0 34.25,28.835937 l 3.482422,5.017579 a 1,1 0 0 0 1.392578,0.251953 1,1 0 0 0 0.25,-1.390625 L 36.060547,27.9375 36.054687,27.75 a 1.0001,1.0001 0 0 0 -0.251953,-0.630859 l -0.445312,-0.503907 -0.0098,-0.304687 a 1.0001,1.0001 0 0 0 -0.302734,-0.691406 l -3.22461,-3.126954 a 1.0001,1.0001 0 0 0 -1.347656,-0.03906 z m -13.228515,3.605469 a 1,1 0 0 0 0.240234,0.49414 c 0,0 -0.194562,-0.177569 -0.255859,-0.40625 -0.0084,-0.03152 0.01849,-0.05381 0.01563,-0.08789 z m 23.740234,3.228515 a 1,1 0 0 0 -0.748047,0.164063 1,1 0 0 0 -0.25,1.392578 l 1.683594,2.417969 a 1,1 0 0 0 1.390625,0.25 1,1 0 0 0 0.25,-1.390625 l -1.681641,-2.419922 a 1,1 0 0 0 -0.644531,-0.414063 z m -20.550781,1.980469 c -0.02116,0.01063 -0.03467,0.04396 -0.05469,0.05078 l -0.06055,0.01758 c 0.04386,-0.01196 0.07174,-0.05539 0.115235,-0.06836 z"
     id="path5" />
  <path
     style="color:#000000;fill:#ffffff;stroke-linecap:round;stroke-linejoin:round;-inkscape-stroke:none"
     d="M 42.339844,32.017578 5.3515625,37.791016 a 1,1 0 0 0 -0.8339844,1.142578 1,1 0 0 0 1.1425781,0.833984 L 42.648437,33.992187 a 1,1 0 0 0 0.833985,-1.142578 1,1 0 0 0 -1.142578,-0.832031 z"
     id="path6" />
  <path
     style="color:#000000;fill:#ffffff;stroke-linecap:round;stroke-linejoin:round;-inkscape-stroke:none"
     d="m 29.146484,15.255859 0.970703,0.257813 a 1.0001,1.0001 0 0 0 -1.044921,-0.234375 c -0.710637,0.255139 -1.166696,0.946949 -1.292969,1.421875 -0.02137,0.08039 -0.01339,0.06875 -0.0293,0.138672 -0.159953,0.0078 -0.316466,0.01325 -0.486328,0.02148 -0.588034,0.02852 -1.239102,0.02053 -1.720703,-0.125 a 1.0001,1.0001 0 0 0 -0.08398,-0.02148 c -1.414049,-0.297363 -2.865939,-0.37036 -4.302734,-0.216797 a 1.0001,1.0001 0 0 0 -0.798828,0.570312 l -0.875,1.875 a 1.0001,1.0001 0 0 0 0.617187,1.38086 l 1.992188,0.601562 a 1.0001,1.0001 0 0 0 0.394531,0.03711 c 0.753854,-0.07922 1.198342,-0.274296 1.601563,-0.376954 0.40322,-0.102657 0.898019,-0.182017 2.044921,-0.111328 1.437434,0.0886 2.468531,-0.381433 3.041016,-0.970703 0.158302,-0.162942 0.09777,-0.197665 0.195313,-0.363281 0.141308,0.0069 0.276515,0.02494 0.427734,0.01758 0.279661,-0.01362 0.566031,-0.04432 0.878906,-0.148437 0.312875,-0.104115 0.827227,-0.306495 0.984375,-0.982422 0.158469,-0.681582 -0.06632,-0.824856 -0.189453,-1.072266 -0.123132,-0.247409 -0.276549,-0.483507 -0.451172,-0.712891 -0.174623,-0.229383 -0.36309,-0.445759 -0.601562,-0.640624 -0.238473,-0.194866 -0.551516,-0.542864 -1.271485,-0.345704 z m 0.560547,2.367188 c 0.07883,0.129129 0.183594,0.20193 0.183594,0.404297 a 1.0001,1.0001 0 0 0 -0.205078,-0.222657 c 0.0018,0.06428 -0.0071,0.01951 0.02148,-0.18164 z m -7.816406,0.888672 c 0.710344,-0.04407 1.417065,0.02305 2.123047,0.107422 -0.103377,0.02052 -0.327975,0.0039 -0.419922,0.02734 -0.518929,0.132117 -0.776276,0.231027 -1.171875,0.291016 l -0.638672,-0.195313 z"
     id="path7" />
  <path
     style="color:#000000;fill:#ffffff;stroke-linecap:round;stroke-linejoin:round;-inkscape-stroke:none"
     d="m 7.5,4.5 c -1.645008,0 -3,1.354992 -3,3 v 33 c 0,1.645008 1.354992,3 3,3 h 33 c 1.645008,0 3,-1.354992 3,-3 v -33 c 0,-1.645008 -1.354992,-3 -3,-3 z m 0,2 h 33 c 0.564129,0 1,0.4358712 1,1 v 33 c 0,0.564129 -0.435871,1 -1,1 h -33 c -0.5641288,0 -1,-0.435871 -1,-1 v -33 c 0,-0.5641288 0.4358712,-1 1,-1 z"
     id="path8" />
</svg>
