<?xml version="1.0" encoding="UTF-8"?>
<svg id="a" version="1.1" viewBox="0 0 48 48" xmlns="http://www.w3.org/2000/svg">
 <defs id="defs1">
  <style id="style1">.b{fill:none;stroke:#fff;stroke-width:2px;stroke-linecap:round;stroke-linejoin:round;}</style>
 </defs>
 <path id="path1" d="m25.377 19.238a1 1 0 0 0-1.3398 0.44727l-0.01758 0.0332a1.0001 1.0001 0 0 0 0.35547 1.1738c-0.04386-0.0597-0.09972-0.09365-0.10742-0.14844-0.01764-0.12547 0.02903 0.03971-0.27734 0.5a1.0001 1.0001 0 0 0-0.01367 0.02344l-4.0918 6.543a1.0001 1.0001 0 0 0 0.99805 1.5195l5.3438-0.81836a1 1 0 0 0 0.83789-1.1406 1 1 0 0 0-1.1406-0.83594l-3.1875 0.48633 2.9199-4.6699c0.45043-0.67671 0.67909-1.2639 0.5918-1.8848-0.02178-0.15492-0.1561-0.16761-0.21875-0.29688l-0.20312 0.4082a1 1 0 0 0 0.078123-0.57813c-0.18944-0.27605-0.35034-0.63599-0.5332-0.72266l0.06836 0.03516 0.13281 0.07617a1 1 0 0 0-0.19531-0.15039z" fill="#fff" stroke-linecap="round" stroke-linejoin="round"/>
 <path id="path2" d="m35.084 19.17a1 1 0 0 0-0.60156 0.47266l-2.3281 4.1504c-0.58945 0.87775-1.1518 1.544-1.9551 1.9883a1.0001 1.0001 0 0 0-2e-3 0c-0.1717 0.09559-0.39683 0.17033-0.70312 0.22656l-1.4395 0.2207 2.4336-3.9258c0.45051-0.67692 0.67795-1.2657 0.58984-1.8867-0.0881-0.62104-0.57663-1.0452-0.87695-1.1875a1 1 0 0 0-1.332 0.47656 1 1 0 0 0 0.20508 1.0332c-0.0089-0.07127 0.02883 0.03514-0.25195 0.45703a1.0001 1.0001 0 0 0-0.01758 0.02734l-3.5742 5.7637-0.0098 0.01758a1.0001 1.0001 0 0 0 0.99023 1.5332l3.5977-0.55273a1.0001 1.0001 0 0 0 0.02539-0.0059c0.4493-0.08063 0.90187-0.20712 1.334-0.44727l2e-3 -2e-3c1.2063-0.66792 1.9935-1.6501 2.6523-2.6328a1.0001 1.0001 0 0 0 0.04297-0.06641l2.3613-4.209a1 1 0 0 0-0.38281-1.3613 1 1 0 0 0-0.75977-0.08984z" fill="#fff" stroke-linecap="round" stroke-linejoin="round"/>
 <path id="path3" d="m4.3105 19.133a1.0001 1.0001 0 0 0-0.32422 1.9453l12.672 4.3535-2.1113 3.1738a1.0001 1.0001 0 0 0 0.98438 1.541l5.3516-0.81641a1 1 0 0 0 0.83789-1.1406 1 1 0 0 0-1.1406-0.83789l-3.1133 0.47656 1.5723-2.3672a1.0001 1.0001 0 0 0-0.50781-1.498l-8.2363-2.8301h1.4863a1 1 0 0 0 1-1 1 1 0 0 0-1-1z" fill="#fff" stroke-linecap="round" stroke-linejoin="round"/>
 <path id="path4" d="m11.324 21.52a1 1 0 0 0-1.3867 0.2793l-7.2695 10.938a1.0001 1.0001 0 0 0 1.0332 1.5332l10.576-2.168a1.0001 1.0001 0 0 0 0.63281-0.42578l1.3027-1.9648a1 1 0 0 0-0.2793-1.3848 1 1 0 0 0-1.3867 0.2793l-1.0762 1.6191-7.7949 1.5977 5.9277-8.916a1 1 0 0 0-0.2793-1.3867z" fill="#fff" stroke-linecap="round" stroke-linejoin="round"/>
 <path id="path5" d="m19.514 13.711c-2.2745 0.10695-4.023 0.96607-5.3613 2.0566-1.0222 0.83331-1.8443 1.8308-2.5664 2.8516a1.0001 1.0001 0 0 0-0.01758 0.02539l-0.62109 0.93555a1.0001 1.0001 0 0 0 0.83398 1.5527h24.756a1.0001 1.0001 0 0 0 0.04297-2e-3c1.5694-0.06732 2.855-0.41423 3.998-1.0391v2e-3c1.8104-0.98785 3.1167-2.4307 4.1895-3.9785a1.0001 1.0001 0 0 0 0.0098-0.01563l0.55469-0.83398a1.0001 1.0001 0 0 0-0.83206-1.5547h-22.125-2.8145a1.0001 1.0001 0 0 0-0.04687 0zm0.08398 2h2.7773s16.706-1.94e-4 20.143 0c-0.82705 1.0558-1.7273 1.9889-2.8965 2.627a1.0001 1.0001 0 0 0-2e-3 0c-0.87657 0.47917-1.7896 0.73764-3.125 0.79492h-22.701c0.51205-0.65344 1.016-1.3196 1.623-1.8145 1.091-0.88901 2.3492-1.5189 4.1816-1.6074z" fill="#fff" stroke-linecap="round" stroke-linejoin="round"/>
</svg>
