<?xml version="1.0" encoding="UTF-8"?>
<svg id="a" version="1.1" viewBox="0 0 48 48" xmlns="http://www.w3.org/2000/svg">
 <defs id="defs1">
  <style id="style1">.b{fill:none;stroke:#fff;stroke-width:2px;stroke-linecap:round;stroke-linejoin:round;}</style>
 </defs>
 <path id="path1" d="m33.406 8.2207c-1.6796-0.041514-2.7764 1.14-3.2617 2.1348-0.30172 0.61848-0.2869 0.84685-0.35547 1.2168l-3.998-1.7793a1.0001 1.0001 0 0 0-1.0332 0.13672l-0.33203 0.26758-7.8887-0.30469a1.0001 1.0001 0 0 0-0.41016 0.070312s-1.1983 0.48177-2.5098 0.99805c-1.3114 0.51628-2.8097 1.0896-3.1328 1.1914-0.53471 0.16846-0.89401 0.57036-1.1133 0.98438-0.096295 0.0016-0.073494 0.0029-0.20117 0.0039-0.61059 5e-3 -1.1269 0.34364-1.4414 0.70508-0.31451 0.36143-0.50311 0.76164-0.64844 1.1582-0.29065 0.79312-0.39934 1.5406-0.38867 2.1113 0.00669 0.35754 0.12703 0.76015 0.39453 1.0469 0.2675 0.28673 0.61127 0.40293 0.86133 0.4375 0.12764 0.01765 0.11081-0.01655 0.21484-0.02148l0.32617 0.23047a1.0001 1.0001 0 0 0 1.2012-0.03516l2.0957-1.6719a1 1 0 0 0 0.15625-1.4062 1 1 0 0 0-1.4043-0.1582l-1.5098 1.2051 0.015625 0.0098a1.0001 1.0001 0 0 0-0.2832-0.04102c0.033288-0.2977 0.064395-0.65163 0.19922-1.0195 0.091673-0.25015 0.20818-0.45372 0.27734-0.5332 0.069164-0.07948 0.014914-0.0181-0.048828-0.01758 0.55567-0.0045 0.81027-0.01361 0.97461-0.02539 0.08217-0.0059 0.07426 0.02555 0.32617-0.05664 0.03149-0.01027 0.07037-0.02374 0.12305-0.04883 0.05267-0.02509 0.21256-0.13839 0.21289-0.13867 1.66e-4 -1.39e-4 0.1542-0.16003 0.1543-0.16016 9.8e-5 -1.3e-4 0.15035-0.28113 0.15039-0.28125 4.1e-5 -1.2e-4 0.05274-0.38856 0.05274-0.38867-1e-6 -6e-6 -0.0035-0.01594-0.0039-0.01758 0.61186-0.19856 1.891-0.69691 3.1719-1.2012 1.2156-0.47855 2.1568-0.85674 2.3242-0.92383l8.0488 0.31055a1.0001 1.0001 0 0 0 0.66602-0.2207l0.14844-0.11914 3.6016 1.6016a1.0001 1.0001 0 0 0 0.20898 0.06836l0.61524 0.12305a1.0001 1.0001 0 0 0 0.74414-0.14453l0.40625-0.26562a1.0001 1.0001 0 0 0 0.44921-0.73635s0.07769-0.66575 0.37891-1.2832c0.30122-0.61745 0.61147-1.0316 1.416-1.0117 1.0124 0.02502 1.7136 0.37089 2.3359 0.77734 0.31117 0.20323 0.59348 0.42161 0.88867 0.62695 0.01884 0.01311 0.05139 0.01995 0.07031 0.0332-0.13611 0.1581-0.27131 0.31487-0.41602 0.49219-0.20912 0.25624-0.42315 0.45418-0.56641 0.94336-0.13656 0.46632-0.46554 1.3775-2.4414 2.8887a1 1 0 0 0-0.1875 1.4023 1 1 0 0 0 1.4023 0.1875c2.2247-1.7015 2.9174-3.1339 3.1465-3.916-0.05186 0.17707 0.03305-0.04336 0.19531-0.24219 0.16226-0.19883 0.38286-0.44436 0.59375-0.69922s0.42023-0.47097 0.58008-0.90234c0.07993-0.21568 0.17604-0.58139-0.03516-1.002-0.21119-0.42056-0.64815-0.60278-0.92382-0.64648 0.10502 0.016648-0.048324-0.020381-0.27734-0.17969-0.22902-0.15931-0.54371-0.40425-0.93555-0.66016-0.78368-0.51182-1.9092-1.0671-3.3809-1.1035zm-22.311 5.4824 0.0039 0.0039s0.0019 0.02565 0.0039 0.0293c-2e-3 -0.0078-0.0071-0.03041-0.0078-0.0332zm-1.8887 0.29883c0.034876 0.16612 0.040253 0.43013 0.048828 0.44922-0.022267-0.08885-0.070318-0.28524-0.070312-0.28516 2.9e-6 4.6e-5 0.010658-0.08381 0.021484-0.16406zm0.0625 0.50391a1.0001 1.0001 0 0 0 0.61719 0.55274s-0.16642-0.06857-0.16602-0.06836c2.009e-4 1.05e-4 -0.17597-0.11539-0.17578-0.11523 9.22e-5 7.6e-5 -0.12898-0.12899-0.12891-0.12891 7.35e-5 8.7e-5 -0.14262-0.22666-0.14258-0.22656 1.8e-6 4e-6 -0.00365-0.01264-0.00391-0.01367zm-1.0488 2.1113c0.00728 1e-3 0.031061 0.02122 0.041016 0.02344a1.0001 1.0001 0 0 0-0.11914-0.01758s-0.037525-0.02185 0.078125-0.0059z" fill="#fff" stop-color="#000000" stroke-linecap="round" stroke-linejoin="round"/>
 <path id="path2" d="m33.418 15.871a1 1 0 0 0-0.49024 1.3262c0.44752 0.9696 0.96263 1.9068 1.541 2.8047 0.42994 0.67939 0.52252 1.0073 0.66602 1.4883 0.14411 0.48302 0.3411 1.128 0.86523 1.9805 0.42981 0.69901 0.83162 1.5508 1.1973 2.293 0.18282 0.37107 0.35685 0.71466 0.53906 1.0195 0.18222 0.30487 0.3176 0.58142 0.73438 0.85352-0.19207-0.1254-0.08985-0.09325-0.0059 0.08789 0.08399 0.18114 0.19201 0.47381 0.32226 0.81445 0.2605 0.68128 0.60419 1.5641 1.2383 2.3574a1 1 0 0 0 1.4062 0.15625 1 1 0 0 0 0.15625-1.4043c-0.38907-0.48681-0.6825-1.1728-0.9316-1.8242-0.12455-0.32572-0.23701-0.63959-0.37695-0.94141-0.13995-0.30181-0.26467-0.62798-0.71484-0.92188 0.15868 0.10359 0.01353 0.0058-0.11133-0.20312-0.12486-0.2089-0.28472-0.51931-0.46094-0.87695-0.35242-0.71529-0.77497-1.6209-1.2891-2.457-0.41976-0.68268-0.50548-1.0117-0.65234-1.5039-0.14686-0.49225-0.35577-1.1417-0.89648-1.9941a1.0001 1.0001 0 0 0-0.0039-0.0059c-0.52782-0.81935-0.99777-1.6755-1.4062-2.5605a1 1 0 0 0-1.3262-0.48828z" fill="#fff" stop-color="#000000" stroke-linecap="round" stroke-linejoin="round"/>
 <path id="path3" d="m17.189 12.984a1.0001 1.0001 0 0 0-0.73633 0.23047c-0.48575 0.40907-1.0656 0.69077-1.6875 0.81836a1.0001 1.0001 0 0 0-0.18164 0.05664c-0.96982 0.40038-1.9003 0.88435-2.7988 1.4258-0.22166 0.08751-0.13299 0.0166 0.0039 0.08203 0.1369 0.06543 0.28516 0.3125 0.28516 0.3125a1 1 0 0 0-0.37305-0.35156 1 1 0 0 0 0-2e-3 1 1 0 0 0-0.94922-0.15039 1 1 0 0 0-0.50391 1.3223s0.24569 0.4664 0.67969 0.67383c0.434 0.20743 1.0197 0.2005 1.5918-0.02539a1.0001 1.0001 0 0 0 0.15625-0.07813c0.46658-0.28651 0.97164-0.49948 1.4609-0.74414-0.12394 0.54821-0.16333 1.2204-0.11524 2.0215-0.01933 0.0149-0.01354 0.01415-0.03711 0.03125-0.2736 0.19845-0.84087 0.54055-1.8945 0.96484-1.4347 0.57771-2.723 1.8523-3.832 3.0684s-1.9415 2.3337-2.2363 2.7812c-0.00369 0.0056 0.18848-0.1048-0.039063-0.02734-0.22755 0.07745-0.73797 0.28764-1.1484 0.73242a1 1 0 0 0 0.056641 1.4141 1 1 0 0 0 1.4141-0.05664c0.15183-0.16452 0.12544-0.13027 0.32227-0.19727 0.19683-0.067 0.75234-0.28997 1.0645-0.76367 0.15663-0.23774 1.0185-1.4097 2.0449-2.5352s2.3152-2.2447 3.0996-2.5605c1.1654-0.46931 1.8754-0.87562 2.3242-1.2012 0.22442-0.16278 0.38242-0.30669 0.49805-0.42969s0.23242-0.30469 0.23242-0.30469a1.0001 1.0001 0 0 0 0.11914-0.60547c-0.16865-1.4181 0.05466-2.1513 0.23242-2.5039 0.06232-0.12362 0.10379-0.16153 0.14648-0.21094 1.883 0.03983 3.2462-0.05762 3.9922-0.26953 0.41695-0.11845 0.71396-0.25806 0.93945-0.41406 0.11275-0.078 0.20698-0.16032 0.2832-0.24414 0.07622-0.08382 0.17578-0.24805 0.17578-0.24805a1.0001 1.0001 0 0 0-0.6914-1.4414c-1.289-0.25845-2.5893-0.44987-3.8984-0.57031z" fill="#fff" stop-color="#000000" stroke-linecap="round" stroke-linejoin="round"/>
 <path id="path4" d="m16.605 24.137c-1.0429 0.1721-2.2593 0.74792-4.3984 1.8613-2.2568 1.1746-3.4764 2.5171-4.207 3.5117-0.3653 0.49733-0.62148 0.90318-0.7793 1.0996-0.15782 0.19643-0.079079 0.09204 0.027344 0.08789a1.0001 1.0001 0 0 0-0.20703 0.0293c-0.82729 0.20979-1.5727 0.66146-2.1426 1.2969a1 1 0 0 0 0.076172 1.4121 1 1 0 0 0 1.4121-0.07617c0.30473-0.33979 0.70397-0.58115 1.1465-0.69336l-0.20703 0.0293c0.66142-0.0258 1.1615-0.46663 1.4551-0.83203s0.52015-0.74532 0.83203-1.1699c0.62375-0.8492 1.5405-1.8928 3.5176-2.9219 2.0947-1.0903 3.314-1.5798 3.8008-1.6602 0.24337-0.04016 0.23114-0.0086 0.20508-0.02344-0.02606-0.01484 0.02706 0.01371 0.14258 0.21484a1 1 0 0 0 1.3652 0.36914 1 1 0 0 0 0.36914-1.3652c-0.18664-0.32497-0.4403-0.70184-0.88867-0.95703-0.44837-0.25519-0.99809-0.29894-1.5195-0.21289z" fill="#fff" stop-color="#000000" stroke-linecap="round" stroke-linejoin="round"/>
 <path id="path5" d="m30.473 22.453a1.0001 1.0001 0 0 0-0.16016 1.3398s-0.08163-0.13041-0.10547-0.18945c-0.02383-0.05905-0.03691-0.11088-0.04297-0.14844-0.01212-0.07511 1.93e-4 -0.09127-0.01172-0.02734-0.02382 0.12785-0.153 0.55869-0.61914 1.3398-0.04344 0.07279-0.48649 0.46463-1.1641 0.79688-0.67757 0.33225-1.5586 0.66251-2.4473 0.9707-0.88862 0.3082-1.7833 0.59463-2.5352 0.86914-0.37594 0.13725-0.71694 0.27104-1.0176 0.41406-0.30064 0.14302-0.55916 0.26017-0.8418 0.56445l0.01172-0.01367c-0.47802 0.49712-1.0807 0.85564-1.7461 1.0371a1.0001 1.0001 0 0 0-0.05859 0.01953c-0.29941 0.10197-0.60534 0.38588-0.72852 0.66602s-0.12262 0.5114-0.10742 0.69726c0.0304 0.37172 0.13558 0.63349 0.24024 0.89453 0.15255 0.38053 0.24872 0.59007 0.32617 0.75586-0.24282 0.05595-0.8194 0.09347-1.8555-0.35938-1.1323-0.49492-1.5898-0.92724-1.7461-1.127-0.07815-0.09986-0.08624-0.14057-0.08203-0.12695 0.0042 0.01362 0.01367 0.1875 0.01367 0.1875a1.0001 1.0001 0 0 0-0.32422-0.79883c-0.33269-0.30389-0.46393-0.51998-0.5-0.60352-0.03607-0.08354-0.0056-0.0162-0.02344 0.04297-0.03565 0.11833-0.11328 0.125-0.11328 0.125a1.0001 1.0001 0 0 0 0.54297-1.0723s-0.02252 0.0378 0.05859-0.11523c0.08111-0.15304 0.29835-0.47154 1.2422-0.73047 1.2141-0.33308 1.8019-0.55963 2.2441-1.1348 0.22113-0.28757 0.32846-0.76124 0.23828-1.0977-0.09018-0.33642-0.34961-0.57226-0.34961-0.57226a1 1 0 0 0-1.4121 0.08398 1 1 0 0 0-0.13476 0.39258c0.08389-0.11734-0.12775 0.12754-1.1152 0.39844-1.3217 0.36258-2.1157 1.0381-2.4785 1.7227-0.21999 0.41506-0.15345 0.57874-0.1582 0.85156-0.20594 0.17316-0.35671 0.15955-0.48047 0.57031-0.11824 0.39244-0.08764 0.88537 0.10352 1.3281 0.14063 0.32572 0.43573 0.63439 0.72656 0.94726 0.0067 0.02949 0.0011 0.03633 0.0098 0.06445 0.07037 0.22796 0.20206 0.49364 0.41797 0.76953 0.43181 0.55178 1.1819 1.1419 2.5195 1.7266 1.3728 0.60004 2.4655 0.73605 3.3574 0.45898 0.89188-0.27706 1.5717-1.1871 1.373-2.084-0.13763-0.6217-0.39477-0.97798-0.54297-1.3477-9.73e-4 -0.0024-9.95e-4 -0.0015-2e-3 -0.0039 0.71656-0.30567 1.4446-0.6143 1.9883-1.1797a1.0001 1.0001 0 0 0 0.01172-0.01172c-0.08161 0.08786 0.03153-0.02264 0.23438-0.11914 0.20284-0.0965 0.49836-0.2157 0.84375-0.3418 0.69078-0.2522 1.588-0.54103 2.5059-0.85938s1.856-0.66437 2.6719-1.0645 1.5417-0.7951 2.002-1.5664c0.20324-0.34059 0.20046-0.48489 0.32617-0.75l1.7812 1.7285 0.0078 0.26367a1.0001 1.0001 0 0 0 0.25195 0.63672l0.44922 0.50391 0.0039 0.12109a1.0001 1.0001 0 0 0 0.17777 0.53906l3.4824 5.0176a1 1 0 0 0 1.3926 0.25195 1 1 0 0 0 0.25-1.3906l-3.3145-4.7773-0.00586-0.1875a1.0001 1.0001 0 0 0-0.25195-0.63086l-0.44531-0.50391-0.0098-0.30469a1.0001 1.0001 0 0 0-0.30273-0.69141l-3.2246-3.127a1.0001 1.0001 0 0 0-1.3477-0.03906zm-13.229 3.6055a1 1 0 0 0 0.24023 0.49414s-0.19456-0.17757-0.25586-0.40625c-0.0084-0.03152 0.01849-0.05381 0.01563-0.08789zm23.74 3.2285a1 1 0 0 0-0.74805 0.16406 1 1 0 0 0-0.25 1.3926l1.6836 2.418a1 1 0 0 0 1.3906 0.25 1 1 0 0 0 0.25-1.3906l-1.6816-2.4199a1 1 0 0 0-0.64453-0.41406zm-20.551 1.9805c-0.02116 0.01063-0.03467 0.04396-0.05469 0.05078l-0.06055 0.01758c0.04386-0.01196 0.07174-0.05539 0.11524-0.06836z" fill="#fff" stop-color="#000000" stroke-linecap="round" stroke-linejoin="round"/>
 <path id="path6" d="m42.34 32.018-36.988 5.7734a1 1 0 0 0-0.83398 1.1426 1 1 0 0 0 1.1426 0.83398l36.988-5.7754a1 1 0 0 0 0.83398-1.1426 1 1 0 0 0-1.1426-0.83203z" fill="#fff" stop-color="#000000" stroke-linecap="round" stroke-linejoin="round"/>
 <path id="path7" d="m29.146 15.256 0.9707 0.25781a1.0001 1.0001 0 0 0-1.0449-0.23438c-0.71064 0.25514-1.1667 0.94695-1.293 1.4219-0.02137 0.08039-0.01339 0.06875-0.0293 0.13867-0.15995 0.0078-0.31647 0.01325-0.48633 0.02148-0.58804 0.02852-1.2391 0.02053-1.7207-0.125a1.0001 1.0001 0 0 0-0.08398-0.02148c-1.4141-0.29737-2.866-0.37033-4.3027-0.2168a1.0001 1.0001 0 0 0-0.79883 0.57031l-0.875 1.875a1.0001 1.0001 0 0 0 0.61719 1.3809l1.9922 0.60156a1.0001 1.0001 0 0 0 0.39453 0.03711c0.75386-0.07922 1.1983-0.2743 1.6016-0.37695 0.40322-0.10266 0.89802-0.18202 2.0449-0.11133 1.4374 0.0886 2.4685-0.38143 3.041-0.9707 0.1583-0.16294 0.09776-0.19766 0.19531-0.36328 0.14131 0.0069 0.27652 0.02494 0.42773 0.01758 0.27966-0.01362 0.56603-0.04432 0.87891-0.14844 0.31288-0.10412 0.82723-0.3065 0.98438-0.98242 0.15847-0.68158-0.06632-0.82486-0.18945-1.0723-0.12313-0.24741-0.27655-0.48351-0.45117-0.71289-0.17462-0.22938-0.36309-0.44576-0.60156-0.64062-0.23847-0.19487-0.55152-0.54286-1.2715-0.3457zm0.56055 2.3672c0.07883 0.12913 0.18359 0.20193 0.18359 0.4043a1.0001 1.0001 0 0 0-0.20508-0.22266c0.0018 0.06428-0.0071 0.01951 0.02148-0.18164zm-7.8164 0.88867c0.71036-0.04406 1.4171 0.02305 2.123 0.10742-0.10338 0.02052-0.32798 0.0039-0.41992 0.02734-0.51893 0.13212-0.77628 0.23103-1.1719 0.29102l-0.63867-0.19531z" fill="#fff" stop-color="#000000" stroke-linecap="round" stroke-linejoin="round"/>
 <path id="rect7" d="m9.5 4.5c-2.7527 0-5 2.2473-5 5v29c0 2.7527 2.2473 5 5 5h29c2.7527 0 5-2.2473 5-5v-29c0-2.7527-2.2473-5-5-5zm0 2h29c1.6793 0 3 1.3207 3 3v29c0 1.6793-1.3207 3-3 3h-29c-1.6793 0-3-1.3207-3-3v-29c0-1.6793 1.3207-3 3-3z" fill="#fff" stop-color="#000000" stroke-linecap="round" stroke-linejoin="round"/>
</svg>
