<?xml version="1.0" encoding="UTF-8"?>
<svg id="b" version="1.1" viewBox="0 0 48 48" xmlns="http://www.w3.org/2000/svg">
 <defs id="defs1">
  <style id="style1">.c{fill:none;stroke:#fff;stroke-width:2px;stroke-linecap:round;stroke-linejoin:round;}</style>
 </defs>
 <path id="path1" d="m12.51 3.5273c-0.37904 0.054288-0.77136 0.17824-1.1973 0.36523-0.85182 0.37399-1.8289 1.0137-2.7754 1.9766-1.8929 1.9258-3.6191 5.1639-3.6191 9.9336 0 3.9195 1.378 6.491 2.8184 8.1367 0.72019 0.82284 1.4484 1.424 1.9941 1.873 0.54576 0.44906 0.87036 0.86217 0.80469 0.71094-0.10178-0.23438-0.0088 0.0061 0.01563 0.26758 0.02444 0.26146 0.04881 0.63256 0.07813 1.0781 0.05863 0.89114 0.13778 2.0833 0.29883 3.416 0.32209 2.6654 0.95262 5.8988 2.4902 8.5547 1.2868 2.2227 3.3504 3.4448 5.4375 4.0547 2.0871 0.6099 4.2288 0.65378 5.9199 0.57812 2.5572-0.11436 5.1222-0.47883 7.2969-1.4941 2.1747-1.0153 3.9587-2.7713 4.6465-5.4062 0.65204-2.4981 0.70427-5.0779 0.66992-7.1484-0.01717-1.0353-0.05655-1.9463-0.0625-2.6289-0.0059-0.68262 0.12523-1.2218 0.04687-1.0547-0.04458 0.09511 0.06444-0.09477 0.24805-0.30469 0.18361-0.20992 0.44318-0.48838 0.74414-0.81836 0.60193-0.65995 1.3738-1.527 2.1172-2.5742 1.4869-2.0945 2.8962-4.958 2.5449-8.3301-0.38075-3.6554-1.9068-6.6701-3.625-8.6309-0.85911-0.9804-1.7598-1.7049-2.6856-2.1074s-2.0615-0.47135-2.8555 0.23633c-0.25179 0.22442-0.43788 0.57958-0.47852 0.9043-0.04063 0.32472 0.02637 0.59583 0.10742 0.81641 0.16211 0.44116 0.39962 0.75447 0.62305 1.0566 0.16968 0.22947 0.30563 0.41394 0.43164 0.5918-0.11599 0.031774-0.17917 0.015959-0.32422 0.095703-0.34604 0.19025-0.67699 0.63375-0.76758 1.0703-0.10481 0.50512 0.06542 0.82111 0.19922 1.0723 0.1338 0.25115 0.29134 0.46515 0.4668 0.69336 0.35092 0.45642 0.78033 0.95366 1.1895 1.502 0.81824 1.0966 1.4757 2.3316 1.3418 3.4844-0.16482 1.4187-0.61719 2.4022-1.0684 3.0117s-0.9922 0.77145-0.85742 0.76367c0.1595-0.0092-0.41387-0.05776-1.0488-0.19336-0.63496-0.1356-1.4724-0.3249-2.4277-0.51758-1.9106-0.38536-4.294-0.78516-6.6133-0.78516-6.2363 0-10.033 1.3596-10.824 1.6562-0.23033-0.1664-0.65272-0.44186-1.2949-1.1445-0.79903-0.87427-1.4765-2.0109-1.4316-3.0312 0.04669-1.0623 0.80954-2.4186 1.6504-3.5391 0.42043-0.56025 0.84635-1.0626 1.1855-1.4824 0.1696-0.2099 0.31644-0.39689 0.44531-0.58984 0.12888-0.19295 0.32973-0.29726 0.3125-0.90039-0.008681-0.30392-0.16071-0.63704-0.3457-0.83203-0.185-0.19499-0.36781-0.28632-0.51758-0.34961-0.26424-0.11167-0.44968-0.14047-0.61328-0.17773 0.13505-0.21888 0.3305-0.49294 0.53516-0.79688 0.21666-0.32177 0.44432-0.65196 0.58203-1.1152 0.068857-0.23164 0.11717-0.51776 0.042969-0.84961s-0.30613-0.66835-0.58008-0.86328c-0.50377-0.35847-0.89245-0.28866-1.2715-0.23438zm23.197 2.252c0.0958 0.023449 0.05821-0.037955 0.21289 0.029297 0.52966 0.23028 1.2637 0.77604 1.9785 1.5918 1.4297 1.6315 2.8058 4.3068 3.1406 7.5215 0.28176 2.7049-0.85238 5.0822-2.1875 6.9629-0.66756 0.94035-1.3776 1.743-1.9629 2.3848-0.29266 0.32088-0.55333 0.60019-0.77148 0.84961-0.21816 0.24942-0.39083 0.42193-0.55469 0.77148-0.31691 0.67606-0.2428 1.1787-0.23633 1.9219 0.0065 0.74317 0.04783 1.6423 0.06445 2.6445 0.03325 2.0045-0.03496 4.4162-0.60742 6.6094-0.53674 2.0563-1.7735 3.2662-3.5586 4.0996-1.7851 0.83342-4.1187 1.2004-6.5391 1.3086-1.5746 0.07044-3.5175 0.01198-5.2695-0.5-1.752-0.51198-3.2803-1.4315-4.2676-3.1367-1.2966-2.2395-1.9276-5.254-2.2344-7.793-0.1534-1.2695-0.23057-2.4176-0.28906-3.3066-0.02925-0.44454-0.05299-0.824-0.08203-1.1348s0.0058-0.46317-0.17383-0.87695c-0.32807-0.75553-0.82609-1.0138-1.3672-1.459s-1.164-0.96353-1.7617-1.6465c-1.1955-1.3659-2.3223-3.351-2.3223-6.8184 0-4.2949 1.5028-6.9624 3.0449-8.5312 0.62788-0.63878 1.2181-0.97544 1.7539-1.2617-0.09108 0.13404-0.17617 0.2486-0.26367 0.39453-0.20688 0.345-0.45827 0.71005-0.41016 1.3477 0.03929 0.52074 0.40581 1.0038 0.74023 1.2168 0.17602 0.11209 0.30022 0.12538 0.44922 0.17578-0.30485 0.37322-0.683 0.82048-1.0977 1.373-0.92832 1.2371-1.9683 2.8203-2.0488 4.6523-0.082358 1.874 0.979 3.4029 1.9531 4.4688 0.97412 1.0659 1.9688 1.7324 1.9688 1.7324a1.0001 1.0001 0 0 0 0.9375 0.09766s4.1135-1.6914 10.689-1.6914c2.0858 0 4.3644 0.37207 6.2188 0.74609 0.9272 0.18701 1.7477 0.37345 2.4043 0.51367 0.65664 0.14023 1.0091 0.26547 1.582 0.23242 0.96168-0.05547 1.6677-0.64914 2.3496-1.5703s1.2463-2.2407 1.4473-3.9707c0.23181-1.996-0.80345-3.673-1.7266-4.9102-0.4596-0.61595-0.90891-1.1399-1.2012-1.5195 0.11868-0.030649 0.18159-0.011714 0.33789-0.099609 0.3551-0.19969 0.67919-0.69887 0.73047-1.1348 0.07744-0.65828-0.19637-1.0377-0.41016-1.373-0.21379-0.33533-0.45248-0.6302-0.64648-0.89258-7e-3 -0.00945-0.0068-0.010141-0.01367-0.019531z" fill="#fff" stop-color="#000000" stroke-linecap="round" stroke-linejoin="round"/>
 <path id="path2" d="m18.041 31.012c-0.49198 0.08302-1.3444 0.24735-2.0488 0.9375-0.7044 0.69015-1.1181 1.8256-1.0508 3.3984 0.13735 3.2092 2.3549 5.257 4.6387 5.2422 1.0435-0.0068 2.0536-0.35842 2.748-1.1172s1.018-1.8316 1.0117-3.0762c-0.0065-1.2868-0.394-2.6776-1.2539-3.7871-0.8599-1.1095-2.3325-1.8865-4.0449-1.5977zm0.33203 1.9727c1.0227-0.17249 1.6111 0.17892 2.1309 0.84961 0.5198 0.67069 0.83157 1.7116 0.83594 2.5723 0.0046 0.9029-0.21541 1.4188-0.48633 1.7148s-0.64939 0.46462-1.2871 0.46875c-1.0787 7e-3 -2.5257-0.96058-2.627-3.3262-0.05199-1.2147 0.21739-1.6577 0.45117-1.8867s0.5742-0.3237 0.98242-0.39258z" fill="#fff" stop-color="#000000" stroke-linecap="round" stroke-linejoin="round"/>
 <path id="path3" d="m31.381 30.879c-1.7124-0.28881-3.185 0.48814-4.0449 1.5977-0.8599 1.1095-1.2474 2.5003-1.2539 3.7871-0.0063 1.2446 0.31731 2.3174 1.0117 3.0762s1.7046 1.1104 2.748 1.1172c2.2837 0.01481 4.5013-2.031 4.6387-5.2402 0.06732-1.5728-0.3464-2.7102-1.0508-3.4004-0.70438-0.69015-1.5568-0.85448-2.0488-0.9375zm-0.33203 1.9727c0.40818 0.06888 0.74863 0.16546 0.98242 0.39453s0.50316 0.67015 0.45117 1.8848c-0.10125 2.3656-1.5502 3.3332-2.6289 3.3262-0.63772-0.0041-1.0142-0.17077-1.2852-0.4668-0.27092-0.29603-0.49091-0.81389-0.48633-1.7168 0.0044-0.8607 0.31614-1.9016 0.83594-2.5723 0.5198-0.67069 1.1082-1.0221 2.1309-0.84961z" fill="#fff" stop-color="#000000" stroke-linecap="round" stroke-linejoin="round"/>
</svg>
