<?xml version="1.0" encoding="UTF-8" standalone="no"?>
<svg
   id="b"
   viewBox="0 0 48 48"
   version="1.1"
   sodipodi:docname="steam_icon_367520.svg"
   xmlns:inkscape="http://www.inkscape.org/namespaces/inkscape"
   xmlns:sodipodi="http://sodipodi.sourceforge.net/DTD/sodipodi-0.dtd"
   xmlns="http://www.w3.org/2000/svg"
   xmlns:svg="http://www.w3.org/2000/svg">
  <sodipodi:namedview
     id="namedview3"
     pagecolor="#ffffff"
     bordercolor="#666666"
     borderopacity="1.0"
     inkscape:showpageshadow="2"
     inkscape:pageopacity="0.0"
     inkscape:pagecheckerboard="0"
     inkscape:deskcolor="#d1d1d1" />
  <defs
     id="defs1">
    <style
       id="style1">.c{fill:none;stroke:#fff;stroke-width:2px;stroke-linecap:round;stroke-linejoin:round;}</style>
  </defs>
  <path
     style="color:#000000;fill:#ffffff;stroke-linecap:round;stroke-linejoin:round;-inkscape-stroke:none"
     d="M 12.509766,3.5273438 C 12.13073,3.5816315 11.738409,3.7055817 11.3125,3.8925781 10.460682,4.2665709 9.4835624,4.9062591 8.5371094,5.8691406 6.6442033,7.7949036 4.9179687,11.03301 4.9179687,15.802734 c 0,3.919448 1.3779788,6.491038 2.8183594,8.136719 0.7201903,0.822841 1.4483815,1.423988 1.9941407,1.873047 0.5457592,0.449059 0.8703562,0.862171 0.8046872,0.710937 -0.101775,-0.234383 -0.0088,0.0061 0.01563,0.267579 0.02444,0.261454 0.04881,0.632556 0.07813,1.078125 0.05863,0.891136 0.137783,2.083315 0.298828,3.416015 0.322091,2.6654 0.952624,5.898834 2.490235,8.554688 1.286847,2.222741 3.350415,3.444792 5.4375,4.054687 2.087084,0.609895 4.228824,0.653781 5.919922,0.578125 2.557234,-0.11436 5.122195,-0.478834 7.296875,-1.49414 2.17468,-1.015307 3.958722,-2.771301 4.646484,-5.40625 0.652036,-2.498079 0.70427,-5.077856 0.669922,-7.148438 -0.01717,-1.035291 -0.05655,-1.94629 -0.0625,-2.628906 -0.0059,-0.682616 0.125232,-1.221848 0.04687,-1.054688 -0.04458,0.09511 0.06444,-0.09477 0.248047,-0.304687 0.183607,-0.209918 0.443176,-0.488383 0.74414,-0.81836 0.60193,-0.659953 1.373758,-1.526993 2.117188,-2.574218 1.486859,-2.094451 2.896167,-4.958014 2.544922,-8.330078 -0.380753,-3.655354 -1.906793,-6.6700716 -3.625,-8.6308598 C 38.54324,5.1016372 37.642569,4.3771045 36.716797,3.9746094 35.791025,3.5721143 34.655286,3.5032625 33.861328,4.2109375 c -0.251789,0.2244242 -0.437881,0.5795812 -0.478516,0.9042969 -0.04063,0.3247156 0.02637,0.5958257 0.107422,0.8164062 0.16211,0.441161 0.399618,0.7544712 0.623047,1.0566406 0.169676,0.2294725 0.305631,0.4139439 0.431641,0.5917969 -0.115991,0.031774 -0.179174,0.015959 -0.324219,0.095703 -0.346037,0.1902466 -0.676993,0.6337531 -0.767578,1.0703126 -0.10481,0.5051151 0.06542,0.8211137 0.199219,1.0722656 0.133797,0.2511516 0.291335,0.4651496 0.466797,0.6933596 0.350923,0.456419 0.780335,0.953661 1.189453,1.501953 0.818236,1.096584 1.475684,2.331558 1.341797,3.484375 -0.164822,1.418732 -0.617191,2.402243 -1.06836,3.011719 -0.451168,0.609475 -0.992197,0.771446 -0.857422,0.763671 0.1595,-0.0092 -0.413869,-0.05776 -1.048828,-0.193359 -0.634959,-0.135596 -1.472433,-0.3249 -2.427734,-0.517578 -1.910602,-0.385355 -4.294005,-0.785156 -6.613281,-0.785156 -6.236264,0 -10.033397,1.359616 -10.824219,1.65625 -0.230332,-0.166401 -0.652723,-0.441857 -1.294922,-1.144532 -0.799028,-0.874271 -1.476482,-2.010927 -1.431641,-3.031249 0.04669,-1.062299 0.80954,-2.418558 1.650391,-3.539063 0.420426,-0.560253 0.846349,-1.062623 1.185547,-1.482422 0.169599,-0.209899 0.316435,-0.3968904 0.445312,-0.5898436 0.128878,-0.1929533 0.32973,-0.2972581 0.3125,-0.9003906 C 14.669053,8.4421772 14.517028,8.1090492 14.332031,7.9140625 14.147035,7.7190758 13.964223,7.6277462 13.814453,7.5644531 13.550218,7.4527869 13.364774,7.4239848 13.201172,7.3867187 13.336221,7.1678393 13.531677,6.8937789 13.736328,6.5898437 13.952991,6.2680706 14.180647,5.9378856 14.318359,5.4746094 14.387216,5.2429713 14.435529,4.9568465 14.361328,4.625 14.287127,4.2931535 14.0552,3.956654 13.78125,3.7617188 13.277476,3.4032469 12.888801,3.473056 12.509766,3.5273438 Z m 23.197265,2.2519531 c 0.0958,0.023449 0.05821,-0.037955 0.212891,0.029297 0.529661,0.2302793 1.263683,0.7760428 1.978515,1.5917969 1.429665,1.6315083 2.805779,4.3068444 3.140625,7.5214844 0.281755,2.704929 -0.852387,5.082196 -2.1875,6.962891 -0.667556,0.940347 -1.377562,1.743013 -1.96289,2.384765 -0.292664,0.320876 -0.553329,0.600193 -0.771485,0.84961 -0.218155,0.249417 -0.390829,0.421926 -0.554687,0.771484 -0.316907,0.67606 -0.242804,1.178708 -0.236328,1.921875 0.0065,0.743167 0.04783,1.642287 0.06445,2.644531 0.03325,2.004489 -0.03496,4.416159 -0.607422,6.609375 -0.536737,2.056346 -1.773503,3.266193 -3.558594,4.09961 -1.785091,0.833416 -4.118701,1.200354 -6.539062,1.308593 -1.574599,0.07044 -3.51752,0.01198 -5.269531,-0.5 -1.752012,-0.511979 -3.280328,-1.431464 -4.267578,-3.136718 -1.296587,-2.239542 -1.927566,-5.254024 -2.234375,-7.792969 -0.153405,-1.269473 -0.230568,-2.41756 -0.289063,-3.306641 -0.02925,-0.44454 -0.05299,-0.824 -0.08203,-1.134765 -0.02904,-0.310766 0.0058,-0.46317 -0.173828,-0.876954 C 12.041072,24.97103 11.543055,24.712806 11.001953,24.267578 10.460851,23.822351 9.8379928,23.304052 9.2402344,22.621094 8.0447176,21.255178 6.9179688,19.270079 6.9179687,15.802734 c 0,-4.294866 1.5028064,-6.9623661 3.0449219,-8.5312496 0.6278784,-0.6387776 1.2180564,-0.9754381 1.7539064,-1.2617188 -0.09108,0.1340413 -0.176166,0.2486013 -0.263672,0.3945313 -0.206878,0.3450029 -0.458266,0.7100481 -0.410156,1.3476562 0.03929,0.5207442 0.405807,1.0038286 0.740234,1.2167969 0.176014,0.1120886 0.300221,0.1253784 0.449219,0.1757813 -0.304853,0.3732165 -0.682998,0.8204798 -1.097656,1.3730467 -0.928322,1.237068 -1.968315,2.820345 -2.0488285,4.652344 -0.082358,1.873974 0.9790045,3.402898 1.9531255,4.46875 0.97412,1.065852 1.96875,1.732422 1.96875,1.732422 a 1.0001,1.0001 0 0 0 0.9375,0.09766 c 0,0 4.113492,-1.691406 10.689453,-1.691406 2.085819,0 4.364355,0.372075 6.21875,0.746093 0.927197,0.18701 1.747657,0.373447 2.404296,0.513672 0.65664,0.140226 1.009082,0.265473 1.582032,0.232422 0.961674,-0.05547 1.667704,-0.649139 2.349609,-1.570312 0.681905,-0.921173 1.246287,-2.240739 1.447266,-3.970703 0.231812,-1.99598 -0.80345,-3.673018 -1.726563,-4.910157 -0.459603,-0.615951 -0.908909,-1.1399389 -1.201172,-1.5195309 0.118678,-0.030649 0.181589,-0.011714 0.337891,-0.099609 C 36.401977,8.9995291 36.726069,8.5003445 36.777344,8.0644531 36.854779,7.406171 36.580975,7.026738 36.367187,6.6914062 36.1534,6.3560745 35.914711,6.0612081 35.720703,5.7988281 c -0.007,-0.00945 -0.0068,-0.010141 -0.01367,-0.019531 z"
     id="path1" />
  <path
     style="color:#000000;fill:#ffffff;stroke-linecap:round;stroke-linejoin:round;-inkscape-stroke:none"
     d="m 18.041016,31.011719 c -0.491981,0.08302 -1.344434,0.247351 -2.048828,0.9375 -0.704395,0.690148 -1.118096,1.825608 -1.050782,3.398437 0.137353,3.209205 2.354933,5.256994 4.638672,5.242188 1.043477,-0.0068 2.053639,-0.358415 2.748047,-1.117188 0.694408,-0.758772 1.018036,-1.831575 1.011719,-3.076172 -0.0065,-1.286795 -0.394006,-2.677596 -1.253907,-3.787109 -0.8599,-1.109513 -2.33253,-1.886467 -4.044921,-1.597656 z m 0.332031,1.972656 c 1.022706,-0.172489 1.611062,0.178924 2.130859,0.849609 0.519798,0.670685 0.831569,1.711564 0.835938,2.572266 0.0046,0.902901 -0.215413,1.418817 -0.486328,1.714844 -0.270916,0.296026 -0.649388,0.464615 -1.28711,0.46875 -1.078657,0.007 -2.525706,-0.960583 -2.626953,-3.326172 -0.05199,-1.214668 0.217393,-1.657668 0.451172,-1.886719 0.233779,-0.229051 0.574203,-0.323695 0.982422,-0.392578 z"
     id="path2" />
  <path
     style="color:#000000;fill:#ffffff;stroke-linecap:round;stroke-linejoin:round;-inkscape-stroke:none"
     d="m 31.380859,30.878906 c -1.712391,-0.28881 -3.185021,0.488143 -4.044922,1.597656 -0.8599,1.109514 -1.247374,2.500314 -1.253906,3.78711 -0.0063,1.244597 0.317311,2.317399 1.011719,3.076172 0.694408,0.758772 1.70457,1.110422 2.748047,1.117187 2.283739,0.01481 4.501319,-2.031029 4.638672,-5.240234 0.06732,-1.572786 -0.346401,-2.710238 -1.050782,-3.400391 -0.70438,-0.690153 -1.556812,-0.854477 -2.048828,-0.9375 z m -0.332031,1.972656 c 0.408183,0.06888 0.748629,0.165461 0.982422,0.394532 0.233793,0.229071 0.503157,0.670154 0.451172,1.884765 -0.101247,2.36559 -1.550249,3.333166 -2.628906,3.326172 -0.637722,-0.0041 -1.014241,-0.17077 -1.285157,-0.466797 -0.270915,-0.296026 -0.490911,-0.813895 -0.486328,-1.716797 0.0044,-0.860702 0.31614,-1.90158 0.835938,-2.572265 0.519797,-0.670685 1.108153,-1.022098 2.130859,-0.84961 z"
     id="path3" />
</svg>
