<?xml version="1.0" encoding="UTF-8"?>
<svg id="a" version="1.1" viewBox="0 0 48 48" xmlns="http://www.w3.org/2000/svg">
 <defs id="defs1">
  <style id="style1">.b{fill:none;stroke:#fff;stroke-width:2px;stroke-linecap:round;stroke-linejoin:round;}</style>
 </defs>
 <path id="circle1" d="m20.809 5.793c-10.1 0-18.309 8.2086-18.309 18.309 0 10.1 8.2086 18.309 18.309 18.309 10.1 0 18.311-8.2086 18.311-18.309 0-10.1-8.2106-18.309-18.311-18.309zm0 2c9.0191 1e-7 16.311 7.2895 16.311 16.309 0 9.0191-7.2914 16.309-16.311 16.309-9.0191 0-16.309-7.2895-16.309-16.309 0-9.0191 7.2895-16.309 16.309-16.309z" fill="#fff" stop-color="#000000" stroke-linecap="round" stroke-linejoin="round"/>
 <path id="polyline1" d="m16.391 14.648a1 1 0 0 0-1 1 1 1 0 0 0 1 1h2.4492l6.3613 16.27a1.0001 1.0001 0 0 0 1.2676 0.57812l2.9863-1.0703a1 1 0 0 0 0.60352-1.2793 1 1 0 0 0-1.2793-0.60352l-2.0703 0.74219-6.2559-16.002a1.0001 1.0001 0 0 0-0.93164-0.63476z" fill="#fff" stop-color="#000000" stroke-linecap="round" stroke-linejoin="round"/>
 <path id="line1" d="m21.219 19.596a1 1 0 0 0-0.62109 0.44727l-7.4453 11.984a1 1 0 0 0 0.32226 1.377 1 1 0 0 0 1.377-0.32227l7.4434-11.984a1 1 0 0 0-0.32031-1.377 1 1 0 0 0-0.75586-0.125z" fill="#fff" stop-color="#000000" stroke-linecap="round" stroke-linejoin="round"/>
 <path id="path1" d="m40.195 5.5898-19.396 0.20312a1 1 0 0 0-0.99023 1.0098 1 1 0 0 0 1.0117 0.99023l19.396-0.20312c2.3616-0.024609 3.9339 2.3011 3.0332 4.4844l-8.377 20.307a1 1 0 0 0 0.54297 1.3066 1 1 0 0 0 1.3047-0.54297l8.3789-20.309c1.4197-3.4415-1.1817-7.2849-4.9043-7.2461z" fill="#fff" stop-color="#000000" stroke-linecap="round" stroke-linejoin="round"/>
 <path id="path2" d="m39.818 7.4766c-1.8573-0.35694-3.5703 1.1011-3.5703 2.9316a1 1 0 0 0 1 1 1 1 0 0 0 1-1c0-0.62265 0.50928-1.0983 1.1934-0.9668 0.38441 0.073885 0.73786 0.45784 0.77539 0.83984 0.03503 0.3567-0.09289 0.65536-0.23633 0.78125-0.67354 0.59111-3.3242 2.5527-3.3242 2.5527a1.0001 1.0001 0 0 0 0.5918 1.8047h3.9746a1 1 0 0 0 1-1 1 1 0 0 0-1-1h-1.0332c0.4921-0.37928 0.81118-0.59206 1.1113-0.85547 0.72456-0.63591 0.99462-1.5786 0.90625-2.4785-0.12846-1.3074-1.1061-2.3629-2.3887-2.6094z" fill="#fff" stop-color="#000000" stroke-linecap="round" stroke-linejoin="round"/>
</svg>
