<?xml version="1.0" encoding="UTF-8"?>
<svg id="svg36" version="1.1" viewBox="0 0 48 48" xmlns="http://www.w3.org/2000/svg">
 <defs id="defs4">
  <style id="style2">.a{fill:none;stroke:#fff;stroke-width:2px;stroke-linecap:round;stroke-linejoin:round;}</style>
 </defs>
 <path id="path6" d="m24 6.5254c-11.31 0-20.5 9.19-20.5 20.5a1.0001 1.0001 0 0 0 1 1h39a1.0001 1.0001 0 0 0 1-1c0-11.31-9.19-20.5-20.5-20.5zm0 2c9.8864 0 17.872 7.7473 18.4 17.5h-36.801c0.52881-9.7527 8.514-17.5 18.4-17.5z" color="#000000" fill="#fff" stroke-linecap="round" stroke-linejoin="round" style="-inkscape-stroke:none"/>
 <path id="line8" d="m6.3301 17.775a1 1 0 0 0-1 1 1 1 0 0 0 1 1h6.3945a1 1 0 0 0 1-1 1 1 0 0 0-1-1z" color="#000000" fill="#fff" stroke-linecap="round" stroke-linejoin="round" style="-inkscape-stroke:none"/>
 <path id="line10" d="m22.838 12.131a1 1 0 0 0-1 1 1 1 0 0 0 1 1h14.838a1 1 0 0 0 1-1 1 1 0 0 0-1-1z" color="#000000" fill="#fff" stroke-linecap="round" stroke-linejoin="round" style="-inkscape-stroke:none"/>
 <path id="line12" d="m30.258 10.16a1 1 0 0 0-1 1 1 1 0 0 0 1 1h5.0371a1 1 0 0 0 1-1 1 1 0 0 0-1-1z" color="#000000" fill="#fff" stroke-linecap="round" stroke-linejoin="round" style="-inkscape-stroke:none"/>
 <path id="line14" d="m20.289 29.078a1 1 0 0 0-1 1 1 1 0 0 0 1 1h6.8887a1 1 0 0 0 1-1 1 1 0 0 0-1-1z" color="#000000" fill="#fff" stroke-linecap="round" stroke-linejoin="round" style="-inkscape-stroke:none"/>
 <path id="line16" d="m23.732 29.078a1 1 0 0 0-1 1v10.396a1 1 0 0 0 1 1 1 1 0 0 0 1-1v-10.396a1 1 0 0 0-1-1z" color="#000000" fill="#fff" stroke-linecap="round" stroke-linejoin="round" style="-inkscape-stroke:none"/>
 <path id="polyline18" d="m42.5 29.078a1 1 0 0 0-1 1v7.0742l-5.0527-7.627a1.0001 1.0001 0 0 0-1.834 0.55273v10.396a1 1 0 0 0 1 1 1 1 0 0 0 1-1v-7.0762l5.0527 7.627a1.0001 1.0001 0 0 0 1.834-0.55078v-10.396a1 1 0 0 0-1-1z" color="#000000" fill="#fff" stroke-linecap="round" stroke-linejoin="round" style="-inkscape-stroke:none"/>
 <path id="path20" d="m8.9434 29.078c-2.4422 7.1e-5 -4.4433 2.0011-4.4434 4.4434v3.5078c0 2.4423 2.0011 4.4434 4.4434 4.4434 2.4423 7.1e-5 4.4434-2.001 4.4434-4.4434v-0.04102a1 1 0 0 0-1-1 1 1 0 0 0-1 1v0.04102c0 1.3614-1.0819 2.4434-2.4434 2.4434-1.3614 0-2.4434-1.082-2.4434-2.4434v-3.5078c3.95e-5 -1.3614 1.082-2.4433 2.4434-2.4434 1.3614 0 2.4433 1.0819 2.4434 2.4434v0.04297a1 1 0 0 0 1 1 1 1 0 0 0 1-1v-0.04297c-7.1e-5 -2.4423-2.0011-4.4434-4.4434-4.4434z" color="#000000" fill="#fff" stroke-linecap="round" stroke-linejoin="round" style="-inkscape-stroke:none"/>
 <path id="line22" d="m17.93 29.129a1 1 0 0 0-1.2656 0.63281l-3.4492 10.365a1 1 0 0 0 0.63281 1.2656 1 1 0 0 0 1.2637-0.63281l3.4512-10.365a1 1 0 0 0-0.63281-1.2656z" color="#000000" fill="#fff" stroke-linecap="round" stroke-linejoin="round" style="-inkscape-stroke:none"/>
 <path id="line24" d="m17.311 29.125a1 1 0 0 0-0.65039 1.2559l3.3066 10.396a1 1 0 0 0 1.2559 0.65039 1 1 0 0 0 0.65039-1.2578l-3.3066-10.395a1 1 0 0 0-1.2559-0.65039z" color="#000000" fill="#fff" stroke-linecap="round" stroke-linejoin="round" style="-inkscape-stroke:none"/>
 <path id="line26" d="m15.311 35.996a1 1 0 0 0-1 1 1 1 0 0 0 1 1h4.5039a1 1 0 0 0 1-1 1 1 0 0 0-1-1z" color="#000000" fill="#fff" stroke-linecap="round" stroke-linejoin="round" style="-inkscape-stroke:none"/>
 <path id="line28" d="m30.121 29.129a1 1 0 0 0-1.2637 0.63281l-3.4512 10.365a1 1 0 0 0 0.63281 1.2656 1 1 0 0 0 1.2656-0.63281l3.4492-10.365a1 1 0 0 0-0.63281-1.2656z" color="#000000" fill="#fff" stroke-linecap="round" stroke-linejoin="round" style="-inkscape-stroke:none"/>
 <path id="line30" d="m29.502 29.125a1 1 0 0 0-0.64844 1.2559l3.3066 10.396a1 1 0 0 0 1.2559 0.65039 1 1 0 0 0 0.65039-1.2578l-3.3086-10.395a1 1 0 0 0-1.2559-0.65039z" color="#000000" fill="#fff" stroke-linecap="round" stroke-linejoin="round" style="-inkscape-stroke:none"/>
 <path id="line32" d="m27.502 35.996a1 1 0 0 0-1 1 1 1 0 0 0 1 1h4.5039a1 1 0 0 0 1-1 1 1 0 0 0-1-1z" color="#000000" fill="#fff" stroke-linecap="round" stroke-linejoin="round" style="-inkscape-stroke:none"/>
 <path id="line34" d="m7.3125 15.934a1 1 0 0 0-1 1 1 1 0 0 0 1 1h2.7812a1 1 0 0 0 1-1 1 1 0 0 0-1-1z" color="#000000" fill="#fff" stroke-linecap="round" stroke-linejoin="round" style="-inkscape-stroke:none"/>
</svg>
