<?xml version="1.0" encoding="UTF-8"?>
<svg id="b" version="1.1" viewBox="0 0 48 48" xmlns="http://www.w3.org/2000/svg">
 <defs id="defs1">
  <style id="style1">.c{fill:none;stroke:#fff;stroke-linecap:round;stroke-linejoin:round;}.d{fill:#fff;stroke-width:2px;}</style>
 </defs>
 <path id="path1" d="m31.205 3.0059c-1.0678 0.064013-2.8022 0.76399-5.6016 2.1113-0.017011-0.14908 0.072095-0.31546-0.007813-0.46094-0.11682-0.21267-0.34536-0.38381-0.58008-0.44531s-0.46751-0.043339-0.71484 0.0097656c-0.98935 0.21242-2.3954 1.0378-4.7207 2.6719l0.17969-0.080078c-1.3315 0.29435-2.1696 0.82938-2.668 1.3125-0.33698 0.32668-0.36928 0.47526-0.45703 0.65234-2.1092-0.091521-4.1296 1.3657-5.6172 3.1797-1.4666 1.7885-2.3945 3.8533-2.3047 5.502-0.74759 0.52817-1.2023 1.1448-1.2324 1.7754-0.016384 0.34308 0.16991 0.76684 0.53906 0.91406 0.1438 0.05735 0.29211-0.05145 0.4375-0.06055-0.1819 3.2572 0.67329 5.8967 2.1973 7.9512 1.6234 2.1885 3.8726 3.7944 6.082 5.1387 4.0443 2.4607 5.3526 3.3501 6.168 4.291-1.6363 1.7714-3.1507 3.8427-3.7637 6.9336a0.5 0.5 0 0 0 0.39258 0.58789 0.5 0.5 0 0 0 0.58789-0.39258c0.60934-3.0725 2.1106-5.0485 3.8223-6.8379a0.50005 0.50005 0 0 0 0.03516-0.65039c-0.94565-1.2321-2.3469-2.1248-6.7227-4.7871-2.1639-1.3165-4.3003-2.8588-5.7988-4.8789-1.4985-2.0201-2.382-4.5039-2.0508-7.8418a0.50005 0.50005 0 0 0-0.73242-0.49219c-0.065144 0.03465-0.033969 0.01483-0.078125 0.0293 0.062049-0.20752 0.2246-0.60795 0.81641-0.98242a0.50005 0.50005 0 0 0 0.22656-0.49609c-0.16319-1.0871 0.70983-3.3093 2.1523-5.0684 1.4425-1.7591 3.3763-3.0468 5.0391-2.8457a0.50005 0.50005 0 0 0 0.5332-0.33398s0.06134-0.21701 0.42578-0.57031 1.0142-0.79378 2.1855-1.0527a0.50005 0.50005 0 0 0 0.17969-0.078125c2.2923-1.6109 3.7512-2.3835 4.3574-2.5137 0.12217-0.026232 0.16986-0.018925 0.20312-0.015625-0.0032 0.015281 0.03321 0.20343-0.0625 0.57031a0.50005 0.50005 0 0 0 0.70508 0.57617c3.296-1.6174 5.1369-2.278 5.9082-2.3242 0.19283-0.011561 0.30709 0.011844 0.35938 0.033203 0.05229 0.021359 0.05483 0.026903 0.07617 0.064453 0.04268 0.075101 0.08758 0.36207 0.05078 0.78516a0.50005 0.50005 0 0 0 0.73633 0.48242c0.42723-0.2311 1.7333-0.46938 2.6797-0.35156 0.4732 0.058911 0.85125 0.20616 1.0117 0.35352 0.16047 0.14735 0.21922 0.23788 0.07813 0.62695a0.50005 0.50005 0 0 0 0.64258 0.63867c0.46679-0.17111 0.93866-0.061437 1.252 0.17383 0.31329 0.23526 0.44504 0.52984 0.33789 0.86523a0.50005 0.50005 0 0 0 0.73242 0.58203c0.17285-0.10238 0.26573-0.076704 0.2793-0.070312 0.01357 0.00639 0.02555-0.020344 0.01953 0.10156-0.01204 0.24381-0.41853 1.0487-1.9766 1.8906l0.0039 0.0059c-0.01432 0.0092-0.02857 8e-3 -0.04297 0.01758a0.50005 0.50005 0 0 0 0.51367 0.85742c0.01695-0.0092 0.02035-0.01819 0.03711-0.02734l2e-3 0.0039c0.08446-0.05607 0.1118-0.05611 0.16797-0.08008-0.01076 0.05665-0.0081 0.08929-0.03906 0.16992-0.23384 0.6082-1.1193 1.7133-2.9141 2.5723a0.50005 0.50005 0 0 0-0.23633 0.66406c0.93252 1.9946 2.877 6.7584 2.877 12.037 0 1.4907-1.0666 3.5612-2.5332 5.3809s-3.3215 3.41-4.6699 4.0781a0.50005 0.50005 0 0 0-0.2793 0.44727v1.8438a0.50005 0.50005 0 0 0 0.22461 0.41797c1.8837 1.2479 2.495 3.9227 2.6484 5.9688a0.5 0.5 0 0 0 0.53711 0.46094 0.5 0.5 0 0 0 0.46094-0.53516c-0.1565-2.0857-0.75568-4.923-2.8711-6.5137v-1.3887c1.5193-0.82674 3.2685-2.3433 4.7266-4.1523 1.5433-1.9148 2.7559-4.0736 2.7559-6.0078 0-5.2975-1.8186-9.8635-2.8203-12.059 1.6685-0.90041 2.6842-1.9629 3.0273-2.8555 0.09367-0.24363 0.1459-0.47608 0.13867-0.71094-0.0051-0.1649-0.10883-0.32318-0.20312-0.47852 0.86595-0.66525 1.4316-1.3249 1.4629-1.959 0.02165-0.43829-0.2118-0.87572-0.5918-1.0547-0.15826-0.074535-0.33338 0.044737-0.50586 0.048828-0.05242-0.52292-0.25836-1.0127-0.66797-1.3203-0.40774-0.30619-0.94468-0.40644-1.5-0.38086-0.024607-0.39106-0.13421-0.75526-0.39648-0.99609-0.41741-0.3833-0.97656-0.53814-1.5645-0.61133-0.93856-0.11684-1.8396 0.11212-2.6191 0.37305-0.010402-0.26589 0.036155-0.54329-0.10352-0.78906-0.12081-0.21259-0.32519-0.39756-0.56641-0.49609-0.24121-0.098532-0.50647-0.123-0.79883-0.10547z" fill="#fff" stroke-linecap="round" stroke-linejoin="round"/>
 <circle id="circle1" class="d" cx="27.964" cy="23.424" r="1.5"/>
 <circle id="circle2" class="d" cx="34.94" cy="21.062" r="1.5"/>
</svg>
