<?xml version="1.0" encoding="UTF-8"?>
<svg id="b" version="1.1" viewBox="0 0 48 48" xmlns="http://www.w3.org/2000/svg">
 <defs id="defs1">
  <style id="style1">.c{fill:none;stroke:#fff;stroke-width:2px;stroke-linecap:round;stroke-linejoin:round;}.d{fill:#fff;stroke-width:2px;}</style>
 </defs>
 <path id="path1" d="m31.176 2.5059c-1.1452 0.068657-2.789 0.74623-5.1816 1.8809-0.18547-0.30537-0.52098-0.57157-0.85156-0.6582-0.34558-0.09056-0.65008-0.061435-0.94531 0.00195-1.1606 0.2492-2.5353 1.0968-4.8047 2.6875-1.243 0.32417-2.1246 0.83985-2.6484 1.3477-0.25968 0.25174-0.23756 0.32111-0.36719 0.53516-2.2452 0.029632-4.2641 1.5326-5.7461 3.3398-1.4428 1.7594-2.3501 3.7285-2.3594 5.5488-0.73961 0.56145-1.2519 1.2023-1.291 2.0215-0.022886 0.47925 0.27244 1.1706 0.85352 1.4023 0.06398 0.02552 0.10762-0.03576 0.16992-0.01953-0.050355 3.1055 0.75574 5.7324 2.248 7.7441 1.6858 2.2726 3.9924 3.9095 6.2246 5.2676 3.6806 2.2394 4.9556 3.125 5.75 3.9238-1.5423 1.7404-2.9853 3.786-3.5781 6.7754a1 1 0 0 0 0.78711 1.1758 1 1 0 0 0 1.1758-0.78516c0.58648-2.9573 2.0088-4.8307 3.6934-6.5918a1.0001 1.0001 0 0 0 0.070313-1.2988c-1.0219-1.3315-2.4811-2.2444-6.8594-4.9082-2.1411-1.3027-4.2221-2.814-5.6582-4.75-1.4361-1.936-2.2751-4.2714-1.9551-7.4961a1.0001 1.0001 0 0 0-0.43555-0.85156c0.10155-0.1133 0.037756-0.10988 0.21289-0.2207a1.0001 1.0001 0 0 0 0.45508-0.99219c-0.11787-0.78522 0.66053-2.9919 2.043-4.6777 1.3824-1.6858 3.2098-2.8312 4.5918-2.6641a1.0001 1.0001 0 0 0 1.0684-0.67188s0.0013-0.082706 0.29883-0.37109c0.29748-0.28839 0.85598-0.68257 1.9473-0.92383a1.0001 1.0001 0 0 0 0.35742-0.1582c2.08-1.4617 3.2712-2.0369 3.8164-2.2227a1.0001 1.0001 0 0 0 1.3184 0.87891c3.2623-1.6009 5.1016-2.2187 5.6855-2.2598 4e-3 0.060951 0.01472 0.069031-0.0078 0.32812a1.0001 1.0001 0 0 0 1.4707 0.96484c0.24292-0.1314 1.5511-0.39846 2.3828-0.29492 0.41586 0.051771 0.70238 0.19718 0.73438 0.22656 0.032 0.029383 0.03882-0.16996-0.05469 0.087891a1.0001 1.0001 0 0 0 1.2852 1.2793c0.30219-0.11077 0.60069-0.032076 0.78125 0.10352 0.18056 0.13559 0.20022 0.19322 0.16211 0.3125a1.0001 1.0001 0 0 0 0.73242 1.1133c-0.23021 0.28107-0.63154 0.6659-1.4414 1.1035l0.0059 0.011719c-0.02595 0.016378-0.05812 0.017985-0.08398 0.035156a1.0001 1.0001 0 0 0 0.24023 1.4961c-0.31837 0.51016-0.98974 1.285-2.4102 1.9648a1.0001 1.0001 0 0 0-0.47461 1.3262c0.91664 1.9607 2.8301 6.6694 2.8301 11.826 0 1.2689-0.9936 3.2944-2.4219 5.0664-1.4283 1.772-3.2692 3.3316-4.5039 3.9434a1.0001 1.0001 0 0 0-0.55664 0.89648v1.8438a1.0001 1.0001 0 0 0 0.44922 0.83398c1.6598 1.0996 2.2769 3.6053 2.4258 5.5898a1 1 0 0 0 1.0723 0.92383 1 1 0 0 0 0.92188-1.0723c-0.15544-2.0721-0.74724-4.9216-2.8691-6.6797v-0.92774c1.5456-0.90258 3.2027-2.3408 4.6172-4.0957 1.5816-1.9623 2.8652-4.1662 2.8652-6.3223 0-5.1899-1.6754-9.5321-2.7148-11.867 1.4952-0.89059 2.5145-1.894 2.8887-2.8672 0.11128-0.28942 0.18192-0.57992 0.17188-0.90625-0.0026-0.08543-0.1005-0.17809-0.11914-0.27148 0.78785-0.65805 1.34-1.3385 1.3788-2.125 0.029468-0.59649-0.3157-1.266-0.87891-1.5313-0.088216-0.041548-0.17315 0.045411-0.26367 0.021484-0.15377-0.49919-0.4291-0.94694-0.82227-1.2422-0.39709-0.29819-0.88896-0.4558-1.4082-0.50781-0.10007-0.31714-0.2264-0.62954-0.45117-0.83594-0.54588-0.50127-1.1966-0.65991-1.8418-0.74023-0.79893-0.099462-1.5738-0.029004-2.3047 0.12695-0.037858-0.10311 0.017705-0.18816-0.042969-0.29492-0.17055-0.30011-0.47878-0.57382-0.81445-0.71094-0.33568-0.13712-0.67351-0.16309-1.0156-0.14258z" color="#000000" fill="#fff" stroke-linecap="round" stroke-linejoin="round" style="-inkscape-stroke:none"/>
 <circle id="circle1" class="d" cx="27.964" cy="23.424" r="1.5px"/>
 <circle id="circle2" class="d" cx="34.94" cy="21.062" r="1.5px"/>
</svg>
