<?xml version="1.0" encoding="UTF-8"?>
<svg id="a" version="1.1" viewBox="0 0 48 48" xmlns="http://www.w3.org/2000/svg">
 <defs id="defs1">
  <style id="style1">.b{fill:none;stroke:#fff;stroke-width:2px;stroke-linecap:round;stroke-linejoin:round;}</style>
 </defs>
 <path id="circle1" d="m24 1.5c-5.1343 0-9.3184 4.1841-9.3184 9.3184 0 5.1343 4.1841 9.3184 9.3184 9.3184s9.3184-4.1841 9.3184-9.3184c0-5.1343-4.1841-9.3184-9.3184-9.3184zm0 2c4.0534 0 7.3184 3.265 7.3184 7.3184 0 4.0534-3.265 7.3184-7.3184 7.3184s-7.3184-3.265-7.3184-7.3184c0-4.0534 3.265-7.3184 7.3184-7.3184z" fill="#fff" stroke-linecap="round" stroke-linejoin="round"/>
 <path id="circle2" d="m24 27.863c-5.1343 0-9.3184 4.1841-9.3184 9.3184 0 5.1343 4.1841 9.3184 9.3184 9.3184s9.3184-4.1841 9.3184-9.3184c0-5.1343-4.1841-9.3184-9.3184-9.3184zm0 2c4.0534 0 7.3184 3.265 7.3184 7.3184s-3.265 7.3184-7.3184 7.3184-7.3184-3.265-7.3184-7.3184 3.265-7.3184 7.3184-7.3184z" fill="#fff" stroke-linecap="round" stroke-linejoin="round"/>
 <path id="path2" d="m24 1.5a1 1 0 0 0-1 1 1 1 0 0 0 1 1c11.332 0 20.496 9.1641 20.496 20.496 0 2.4673-0.5601 4.7692-1.3574 6.957-3.1207-7.5201-10.501-12.824-19.139-12.824a1 1 0 0 0-1 1 1 1 0 0 0 1 1c8.7181 0 16.031 5.9394 18.141 13.982a1.0001 1.0001 0 0 0 1.8555 0.20508c1.5985-3.0911 2.5-6.6044 2.5-10.32 0-12.413-10.083-22.496-22.496-22.496z" fill="#fff" stroke-linecap="round" stroke-linejoin="round"/>
 <path id="path3" d="m5.0039 13.148a1.0001 1.0001 0 0 0-1 0.53516c-1.5985 3.0911-2.5 6.6044-2.5 10.32 0 12.413 10.083 22.496 22.496 22.496a1 1 0 0 0 1-1 1 1 0 0 0-1-1c-11.332 0-20.496-9.1641-20.496-20.496 0-2.4673 0.5601-4.7692 1.3574-6.957 3.1207 7.5201 10.501 12.824 19.139 12.824a1 1 0 0 0 1-1 1 1 0 0 0-1-1c-8.7181 0-16.031-5.9394-18.141-13.982a1.0001 1.0001 0 0 0-0.85547-0.74023z" fill="#fff" stroke-linecap="round" stroke-linejoin="round"/>
</svg>
