<?xml version="1.0" encoding="UTF-8"?>
<svg id="svg8" version="1.1" viewBox="0 0 48 48" xmlns="http://www.w3.org/2000/svg">
 <defs id="defs4">
  <style id="style2">.a{fill:none;stroke:#fff;stroke-width:2px;stroke-linecap:round;stroke-linejoin:round;}</style>
 </defs>
 <path id="path6" d="m24 1.5c-12.412 0.005769-22.494 10.088-22.5 22.5v0.91016a1.0001 1.0001 0 0 0 0.65625 0.93945l9.5801 3.5078c-0.67635 0.96972-1.1293 2.0702-1.2461 3.3086l-6.3652-2.3438a1.0001 1.0001 0 0 0-1.2852 1.2754c6.1431 17.088 29.117 20.181 39.561 5.3262 10.444-14.854-0.24145-35.426-18.4-35.424zm0 2c16.657-0.0022767 26.343 18.648 16.764 32.273-9.0857 12.923-28.135 10.919-34.898-2.6797l4.666 1.7188c0.02269 0.10948 0.03234 0.22182 0.06055 0.33008a1.0001 1.0001 0 0 0 0.0059 0.01953c0.06139 0.21739 0.21473 0.37528 0.29492 0.58203 0.08759 0.22335 0.20732 0.41529 0.31641 0.62695 0.31565 0.61949 0.67225 1.1809 1.1406 1.6699 0.12712 0.13313 0.26919 0.23646 0.40625 0.35938 0.53134 0.47533 1.0938 0.86933 1.7402 1.166 0.18363 0.08506 0.37085 0.1397 0.5625 0.20898 0.65614 0.23622 1.3197 0.37557 2.0312 0.4082 0.11553 0.0057 0.21319 0.06641 0.33008 0.06641 0.15423 2.17e-4 0.2837-0.07825 0.43555-0.08789 0.36164-0.02312 0.71234 0.05203 1.0762-0.0293 0.28958-0.06473 0.51231-0.24591 0.78516-0.34375 0.30676-0.10719 0.58505-0.23399 0.87109-0.38086 0.49773-0.25955 0.94638-0.54786 1.3613-0.91016 0.28595-0.24402 0.53141-0.50106 0.77539-0.78711 0.30596-0.36567 0.56405-0.73896 0.79102-1.1582 0.21717-0.39068 0.38681-0.78345 0.52734-1.2148 0.12801-0.40177 0.20352-0.80038 0.25781-1.2246 0.03994-0.29309 0.17718-0.55223 0.17969-0.85547a1.0001 1.0001 0 0 0 0-0.0059c2.88e-4 -0.17429-0.08734-0.32098-0.09961-0.49219l8.5977-6.0801c0.62577-0.02298 1.2532-0.07008 1.8594-0.23047 9.09e-4 -2.33e-4 1e-3 -0.0017 2e-3 -2e-3 3.8364-0.98143 5.8711-3.9469 6.3105-7.0898 0.01472-0.09814 0.0043-0.19605 0.01563-0.29492 0.06817-0.64278 0.17496-1.286 0.10352-1.9238-0.03912-0.34928-0.20642-0.67214-0.28711-1.0156-0.02089-0.08867 0.0063-0.17509-0.01758-0.26367-0.034529-0.1295-0.12014-0.23047-0.16025-0.35734-0.21297-0.68047-0.48821-1.3111-0.86133-1.9258-0.11088-0.17951-0.23425-0.33975-0.35742-0.50977-0.42021-0.59147-0.88582-1.1233-1.457-1.5957-0.16074-0.13324-0.34365-0.2264-0.51367-0.34766-0.56223-0.39745-1.1276-0.77336-1.8086-1.0273-0.89297-0.35342-1.8432-0.58015-2.8418-0.61523a1.0001 1.0001 0 0 0-0.0098 0.00391c-5e-3 -1.447e-4 -0.0087-0.00182-0.01367-0.00195-0.85975-0.034946-1.7197 0.058254-2.5508 0.28125-1.0874 0.29218-2.0391 0.82883-2.9004 1.4766-0.15995 0.12053-0.27736 0.27164-0.42773 0.40234-0.64919 0.56172-1.2048 1.1898-1.6602 1.9141-0.14087 0.22385-0.24722 0.4498-0.36719 0.68555-0.35293 0.69266-0.60172 1.4144-0.75781 2.1914-0.06129 0.29949-0.11736 0.58377-0.14648 0.89062-0.01206 0.12969-0.0563 0.24985-0.0625 0.38086l-6.0723 8.582c-0.06589-0.0066-0.13124-0.01833-0.19727-0.02344-0.12902-0.0071-0.2384-0.07422-0.36914-0.07422a1.0001 1.0001 0 0 0-0.08984 0.07617c-0.09243 0.0011-0.17015 0.04808-0.26172 0.05273-0.50589 0.02505-1.0142 0.04204-1.5039 0.17578-8.68e-4 2.3e-4 -0.0011 0.0017-2e-3 2e-3 -0.13542 0.03603-0.23069 0.15528-0.36328 0.19922-0.7306 0.24637-1.37 0.62426-1.9727 1.082l-9.7363-3.5665v-0.21094c0.0052669-11.332 9.1683-20.495 20.5-20.5zm8.9199 7.9883c0.78967 0.02523 1.4591 0.21347 2.1016 0.43164 1.907 0.73116 3.3987 2.3265 3.9727 4.3711 0.01512 0.05702 0.03311 0.11249 0.04687 0.16992 0.89874 3.5163-1.1664 7.0875-4.6816 8.0332-3.5423 0.95297-7.1594-1.13-8.1133-4.6719v-2e-3c-0.20777-0.78163-0.21473-1.5594-0.14453-2.3184 0.02186-0.23619 0.06713-0.46415 0.11328-0.69336 0.11862-0.58202 0.30689-1.1399 0.57226-1.6641 0.09275-0.18325 0.18003-0.36765 0.28906-0.54102 0.35092-0.55612 0.78932-1.0533 1.2949-1.4863 0.1024-0.08765 0.18503-0.1939 0.29297-0.27539 0.66091-0.49817 1.415-0.89797 2.2656-1.127v2e-3c0.63825-0.17125 1.2988-0.24441 1.959-0.2168a1.0001 1.0001 0 0 0 0.03125-0.01172zm-8.4648 9.1328c0.87073 2.8121 3.083 4.7691 5.7344 5.5801l-6.2402 4.4141c-0.70772-1.7478-2.0816-3.1508-3.8203-3.877zm-6.8672 7.6289c0.1219 0.0084 0.24203 0.03014 0.36328 0.04492 2.3602 0.2518 4.1714 2.0627 4.4238 4.4219 0.04206 0.40233 0.01925 0.79334-0.03125 1.1797-0.04065 0.28482-0.08819 0.56504-0.17383 0.83203-0.09701 0.31158-0.22908 0.60587-0.38281 0.89062-0.16344 0.29406-0.34574 0.57241-0.5625 0.82617-0.16747 0.20023-0.3511 0.38373-0.54883 0.55664-0.30513 0.26006-0.63806 0.48408-1 0.66602-0.1841 0.09485-0.37414 0.17724-0.57226 0.25-0.46187 0.16282-0.94938 0.26704-1.4629 0.28906-0.12834 0.0064-0.25579 0.0131-0.38281 0.0098-0.58504-0.01933-1.1448-0.12997-1.6621-0.33008-0.07078-0.02738-0.14351-0.04763-0.21289-0.07813-0.52353-0.2306-0.99301-0.55417-1.4043-0.93945-0.05338-0.0502-0.11281-0.09192-0.16406-0.14453-0.37197-0.38059-0.65953-0.83445-0.89648-1.3184-0.05405-0.11162-0.11973-0.2133-0.16602-0.33008-0.22651-0.56698-0.37445-1.1769-0.38086-1.8262 0.01576-1.596 0.80683-2.9447 1.9648-3.8574 0.45378-0.35465 0.94852-0.64564 1.4961-0.82617 0.42824-0.14277 0.87406-0.24429 1.3457-0.26758 0.13801-0.0067 0.27175-0.05357 0.41016-0.04883z" color="#000000" fill="#fff" stroke-linecap="round" stroke-linejoin="round" style="-inkscape-stroke:none"/>
</svg>
