<?xml version="1.0" encoding="UTF-8"?>
<svg id="a" version="1.1" viewBox="0 0 48 48" xmlns="http://www.w3.org/2000/svg">
 <defs id="defs1">
  <style id="style1">.b{fill:none;stroke:#fff;stroke-width:2px;stroke-linecap:round;stroke-linejoin:round;}</style>
 </defs>
 <path id="circle1" d="m24 1.5c-12.415 0-22.5 10.085-22.5 22.5s10.085 22.5 22.5 22.5 22.5-10.085 22.5-22.5-10.085-22.5-22.5-22.5zm0 2c11.334 0 20.5 9.1663 20.5 20.5s-9.1663 20.5-20.5 20.5-20.5-9.1663-20.5-20.5 9.1663-20.5 20.5-20.5z" fill="#fff" stroke-linecap="round" stroke-linejoin="round"/>
 <path id="path1" d="m15.301 10.199c-3.8694 0-7.5152 0.98557-10.695 2.7012a1 1 0 0 0-0.40625 1.3535 1 1 0 0 0 1.3555 0.40625c2.8999-1.5644 6.2155-2.4609 9.7461-2.4609 11.329 0 20.5 9.1709 20.5 20.5 0 3.5306-0.89654 6.8462-2.4609 9.7461a1 1 0 0 0 0.40625 1.3555 1 1 0 0 0 1.3535-0.40625c1.7156-3.1801 2.7012-6.8259 2.7012-10.695 0-12.411-10.089-22.5-22.5-22.5z" fill="#fff" stroke-linecap="round" stroke-linejoin="round"/>
</svg>
