<?xml version="1.0" encoding="UTF-8"?>
<svg id="svg12" version="1.1" viewBox="0 0 48 48" xmlns="http://www.w3.org/2000/svg">
 <defs id="defs4">
  <style id="style2">.a{fill:none;stroke:#fff;stroke-linecap:round;stroke-linejoin:round;}</style>
 </defs>
 <path id="polygon6" d="m23.391 3.6348-16.861 9.7285a1.0001 1.0001 0 0 0 0 1.7324l16.971 9.8008a1.0001 1.0001 0 0 0 1 0l16.859-9.7305a1.0001 1.0001 0 0 0 0-1.7324l-16.969-9.7988a1.0001 1.0001 0 0 0-1 0zm0.5 2.0195 14.969 8.6445-14.859 8.5762-14.971-8.6445z" color="#000000" fill="#fff" stroke-linecap="round" stroke-linejoin="round" style="-inkscape-stroke:none"/>
 <path id="polygon8" d="m6.5293 13.363a1.0001 1.0001 0 0 0-0.5 0.86719v19.469a1.0001 1.0001 0 0 0 0.5 0.86719l16.971 9.7988a1.0001 1.0001 0 0 0 1.5-0.86523v-19.471a1.0001 1.0001 0 0 0-0.5-0.86524l-16.971-9.8008a1.0001 1.0001 0 0 0-1 0zm1.5 2.5996 14.971 8.6445v17.16l-14.971-8.6445z" color="#000000" fill="#fff" stroke-linecap="round" stroke-linejoin="round" style="-inkscape-stroke:none"/>
 <path id="polygon10" d="m40.359 13.434-16.859 9.7305a1.0001 1.0001 0 0 0-0.5 0.86524v19.471a1.0001 1.0001 0 0 0 1.5 0.86523l16.859-9.7285a1.0001 1.0001 0 0 0 0.5-0.86719v-19.469a1.0001 1.0001 0 0 0-1.5-0.86719zm-0.5 2.5977v17.162l-14.859 8.5762v-17.162z" color="#000000" fill="#fff" stroke-linecap="round" stroke-linejoin="round" style="-inkscape-stroke:none"/>
</svg>
