<?xml version="1.0" encoding="UTF-8"?>
<svg id="b" version="1.1" viewBox="0 0 48 48" xmlns="http://www.w3.org/2000/svg">
 <defs id="defs4">
  <style id="style2">.c{fill:none;stroke:#fff;stroke-width:2px;stroke-linecap:round;stroke-linejoin:round;}</style>
 </defs>
 <path id="path6" d="m24 3.5059c-4.39 0-8.7794 1.672-12.123 5.0156-6.6873 6.6873-6.6873 17.561 0 24.248l11.438 11.438a1.0001 1.0001 0 0 0 1.416-2e-3l11.393-11.436 2e-3 -2e-3c6.6854-6.6875 6.6847-17.559-2e-3 -24.246-3.3437-3.3436-7.7331-5.0156-12.123-5.0156zm0 1.9883c3.874 0 7.7475 1.4799 10.709 4.4414 5.923 5.923 5.923 15.497 0 21.42l-10.689 10.729-10.729-10.729c-5.923-5.923-5.923-15.497 0-21.42 2.9615-2.9615 6.835-4.4414 10.709-4.4414z" color="#000000" fill="#fff" stroke-linecap="round" stroke-linejoin="round" style="-inkscape-stroke:none"/>
 <path id="circle8" d="m24 14.617c-3.3178 0-6.0293 2.7095-6.0293 6.0273 0 3.3178 2.7115 6.0293 6.0293 6.0293s6.0293-2.7115 6.0293-6.0293c0-3.3178-2.7115-6.0273-6.0293-6.0273zm0 2c2.2369 0 4.0293 1.7904 4.0293 4.0273 0 2.2369-1.7924 4.0293-4.0293 4.0293s-4.0293-1.7924-4.0293-4.0293c0-2.2369 1.7924-4.0273 4.0293-4.0273z" color="#000000" fill="#fff" stroke-linecap="round" stroke-linejoin="round" style="-inkscape-stroke:none"/>
 <path id="line10" d="m19.736 23.494a1 1 0 0 0 0 1.4141l11.424 11.424a1 1 0 0 0 1.4141 0 1 1 0 0 0 0-1.4141l-11.424-11.424a1 1 0 0 0-1.4141 0z" color="#000000" fill="#fff" stroke-linecap="round" stroke-linejoin="round" style="-inkscape-stroke:none"/>
</svg>
