<?xml version="1.0" encoding="UTF-8"?>
<svg id="svg10" version="1.1" viewBox="0 0 48 48" xmlns="http://www.w3.org/2000/svg">
 <defs id="defs4">
  <style id="style2">.a{fill:none;stroke:#fff;stroke-width:2px;stroke-linecap:round;stroke-linejoin:round;}</style>
 </defs>
 <path id="path6" d="m24 14.084c-1.9734 0-3.9466 0.51832-5.707 1.5547a1 1 0 0 0-0.35547 1.3691 1 1 0 0 0 1.3691 0.35352c2.8977-1.7058 6.4891-1.7058 9.3867 0a1 1 0 0 0 1.3691-0.35352 1 1 0 0 0-0.35547-1.3691c-1.7604-1.0364-3.7336-1.5547-5.707-1.5547zm-10.016 9.5156a1 1 0 0 0-0.98438 1.0176c0.07454 4.5897 2.166 8.1552 5.8184 10.16a1 1 0 0 0 1.3574-0.39648 1 1 0 0 0-0.39453-1.3574c-3.0876-1.695-4.7158-4.4092-4.7812-8.4395a1 1 0 0 0-1.0156-0.98438zm19.82 0.01953-2.5 0.5a1 1 0 0 0-0.78516 1.1777 1 1 0 0 0 1.1758 0.7832l1.1992-0.24023c-0.24502 2.9947-1.8866 5.7175-4.5723 7.1816a1 1 0 0 0-0.40039 1.3574 1 1 0 0 0 1.3574 0.39844c3.7139-2.0246 5.9387-6.0044 5.7188-10.229a1.0001 1.0001 0 0 0-1.1934-0.92969z" color="#000000" fill="#fff" stroke-linecap="round" stroke-linejoin="round" style="-inkscape-stroke:none"/>
 <path id="path8" d="m21.828 5.0156c-0.03161 0.00554-0.05637 0.025464-0.08789 0.03125l-2e-3 -0.011719c-0.05114 0.013912-0.08989 0.049692-0.14062 0.064453-5.5921 1.1015-9.6792 5.9748-9.6972 11.697-0.0014 0.48753 0.07236 0.96959 0.13086 1.4531-4.2927 1.9067-7.1619 6.0936-7.1797 10.84-0.020281 1.0813 0.15805 2.1525 0.45508 3.1914 0.011836 0.06058 0.00425 0.12328 0.017578 0.18359l0.00977-2e-3c0.00847 0.02783 0.00302 0.05817 0.011719 0.08594a1.0001 1.0001 0 0 0 1.9316-0.51363c-0.10137-0.45877-0.14589-0.9289-0.12891-1.3984a1.0001 1.0001 0 0 0 0.00195-0.04102c-0.011522-3.4339 2.1192-5.7754 4.7891-6.6641 2.6698-0.8887 5.7793-0.29089 7.8281 2.4648a1.0001 1.0001 0 0 0 1.1152 0.28125 1.0001 1.0001 0 0 0-0.3457 1.1113c2.0893 4.665-1.2752 9.8606-6.3867 9.8613a1.0001 1.0001 0 0 0-0.01172 0c-1.8432 0.02013-3.6186-0.68704-4.9434-1.9688a1.0001 1.0001 0 0 0-1.4453 1.3809c0.018581 0.02102 0.045757 0.02797 0.064453 0.04883l-0.00977 0.0078c0.038631 0.03737 0.093589 0.04932 0.13281 0.08594 4.2012 4.5654 11.112 5.105 16.045 1.4355 2.0743 1.5624 4.5539 2.5091 7.1641 2.5098 3.4495 0.03493 6.7368-1.4374 9.0234-4.0156 0.0086-0.0083 0.02074-0.01117 0.0293-0.01953l-0.0039-0.0039c0.01788-0.02028 0.04084-0.03428 0.05859-0.05469a1.0001 1.0001 0 0 0-1.4531-1.3711c-1.3171 1.2876-3.0939 1.9945-4.9355 1.9648a1.0001 1.0001 0 0 0-0.01563 0c-3.8778 0-7-3.1222-7-7a1.0001 1.0001 0 0 0 0-0.0039c-3e-3 -0.95901 0.19289-1.908 0.57617-2.7871a1.0001 1.0001 0 0 0-0.20312-1.084 1.0001 1.0001 0 0 0 0.98242-0.28125c2.0387-2.7663 5.1479-3.3778 7.8223-2.498 2.6738 0.87954 4.8133 3.2171 4.8125 6.6523-0.0016 0.47688-0.0594 0.95259-0.17188 1.416a1.0001 1.0001 0 0 0 1.9238 0.54492c8e-3 -0.02458 0.0039-0.05155 0.01172-0.07617l0.0078 2e-3c0.01646-0.0678 0.01071-0.13888 0.02539-0.20703 0.30674-1.0333 0.50311-2.0989 0.50391-3.1777-4.99e-4 -4.837-2.9646-9.0928-7.3691-10.961 0.05098-0.44365 0.11792-0.88704 0.11914-1.334v-2e-3c0.023502-5.361-3.4866-10.073-8.5879-11.66-0.04423-0.018528-0.076474-0.054376-0.12109-0.072266l-0.0039 0.011719c-0.03265-0.00974-0.05706-0.033485-0.08984-0.042969a1.0001 1.0001 0 0 0-0.6504 1.8887c2.7882 1.1179 4.6082 3.8144 4.6016 6.8184a1.0001 1.0001 0 0 0 0 0.0078c0.016 3.6324-2.7273 6.6595-6.3438 7a1.0001 1.0001 0 0 0-0.70312 0.77344 1.0001 1.0001 0 0 0-0.7832-0.87305c-3.5334-0.38423-6.1755-3.382-6.1094-6.9355a1.0001 1.0001 0 0 0 0-0.02344c-0.012108-3.1731 2.1003-5.9483 5.1621-6.7812a1.0001 1.0001 0 0 0-0.43359-1.9492zm-6.4121 6.8008c-0.13972 0.63344-0.3161 1.2569-0.31445 1.9258-0.07309 4.2431 2.9349 7.7875 6.998 8.6797v0.16992c-0.68293 0.48816-1.1047 1.1508-1.2559 1.9766l-0.08398 0.03906c-2.5698-2.8601-6.2976-3.6246-9.4531-2.5742-0.99576 0.33146-1.9018 0.88388-2.7363 1.541 1.1536-1.7189 2.813-3.0903 4.8516-3.834a1.0001 1.0001 0 0 0 0.64062-1.1211c-0.11044-0.59893-0.16383-1.2074-0.16211-1.8164 0.0058-1.8387 0.63243-3.495 1.5156-4.9863zm17.443 0.7832c0.6059 1.3184 1.0382 2.7233 1.0312 4.2461a1.0001 1.0001 0 0 0 0 2e-3c-0.0014 0.57915-0.05286 1.1564-0.1543 1.7266a1.0001 1.0001 0 0 0 0.6582 1.1211c2.1471 0.73902 3.8731 2.1825 5.0605 3.9902-0.85306-0.67963-1.7795-1.2513-2.8027-1.5879-3.1717-1.0433-6.9128-0.25901-9.4727 2.6387l-0.23438-0.09375c-0.14745-0.78232-0.53253-1.4288-1.1562-1.9258v-0.18359c4.1512-0.8461 7.2671-4.4122 7.25-8.7344 7.35e-4 -0.41348-0.1271-0.79661-0.17969-1.1992zm-8.9551 10.68a1.0001 1.0001 0 0 0 0.4707 0.73047c0.50939 0.2322 0.81318 0.75064 0.76758 1.3086a1.0001 1.0001 0 0 0 0.40625 0.6543 1.0001 1.0001 0 0 0-0.80078 0.06836c-0.49292 0.42407-1.2024 0.42407-1.6953 0a1.0001 1.0001 0 0 0-0.69531-0.05469 1.0001 1.0001 0 0 0 0.2793-0.77734c-0.05153-0.56165 0.2745-1.0771 0.80469-1.2695a1.0001 1.0001 0 0 0 0.46289-0.66016zm1.3242 4.584 0.17773 0.10547c-0.27716 0.87647-0.55932 1.7587-0.55664 2.6816 0 4.0443 2.7382 7.3476 6.4199 8.4766-0.03812 2.8e-5 -0.0712 0.02385-0.10938 0.02344a1.0001 1.0001 0 0 0-0.0098 0c-2.3837 1.83e-4 -4.6884-0.85119-6.5-2.4004a1.0001 1.0001 0 0 0-1.2969-2e-3c-1.7433 1.4799-3.8513 2.1054-5.9688 2.2266 4.2812-1.6822 6.7507-6.4856 5.2539-11.088 0.86136 0.37386 1.7353 0.37 2.5898-0.02344zm-20.078 2.7012c-3.082e-4 0.0085 0.00223 0.01687 0.00195 0.02539 9.2e-6 0.0049-0.00197 0.0088-0.00195 0.01367zm28.691 9.084c0.0028 3e-6 5e-3 2e-3 0.0078 2e-3h-0.01563c0.0027 4.4e-5 0.0051-2e-3 0.0078-2e-3z" color="#000000" fill="#fff" stroke-linecap="round" stroke-linejoin="round" style="-inkscape-stroke:none"/>
</svg>
