<?xml version="1.0" encoding="UTF-8" standalone="no"?>
<svg
   viewBox="0 0 48 48"
   version="1.1"
   id="svg1"
   sodipodi:docname="steam_icon_1085660.svg"
   xmlns:inkscape="http://www.inkscape.org/namespaces/inkscape"
   xmlns:sodipodi="http://sodipodi.sourceforge.net/DTD/sodipodi-0.dtd"
   xmlns="http://www.w3.org/2000/svg"
   xmlns:svg="http://www.w3.org/2000/svg">
  <sodipodi:namedview
     id="namedview1"
     pagecolor="#ffffff"
     bordercolor="#666666"
     borderopacity="1.0"
     inkscape:showpageshadow="2"
     inkscape:pageopacity="0.0"
     inkscape:pagecheckerboard="0"
     inkscape:deskcolor="#d1d1d1" />
  <defs
     id="defs1">
    <style
       id="style1">.a{fill:none;stroke:#fff;stroke-width:2px;stroke-linecap:round;stroke-linejoin:round;}</style>
  </defs>
  <path
     style="color:#000000;fill:#ffffff;stroke-linecap:round;stroke-linejoin:round;-inkscape-stroke:none"
     d="m 24,7.7636719 c -2.805939,0 -5.095703,2.2897641 -5.095703,5.0957031 V 19.6875 c 0,2.805939 2.289764,5.095703 5.095703,5.095703 2.805939,0 5.095703,-2.289764 5.095703,-5.095703 V 12.859375 C 29.095703,10.053436 26.805939,7.7636719 24,7.7636719 Z m 0,2 c 1.732535,0 3.095703,1.3631681 3.095703,3.0957031 V 19.6875 c 0,1.732535 -1.363168,3.095703 -3.095703,3.095703 -1.732535,0 -3.095703,-1.363168 -3.095703,-3.095703 v -6.828125 c 0,-1.732535 1.363168,-3.0957031 3.095703,-3.0957031 z"
     id="rect1" />
  <path
     style="color:#000000;fill:#ffffff;stroke-linecap:round;stroke-linejoin:round;-inkscape-stroke:none"
     d="m 36.724609,5.6582031 c -0.849253,0.033033 -1.732998,0.2397483 -2.625,0.65625 a 1.0001,1.0001 0 0 0 -0.04297,0.021484 c 0,0 -0.178161,0.091878 -0.38086,0.203125 -0.202698,0.1112468 -0.391977,0.2102767 -0.599609,0.3554687 l 0.0918,-0.058594 C 31.189953,7.9181082 29.073534,8.7257769 26.876953,9.234375 a 1,1 0 0 0 -0.748047,1.199219 1,1 0 0 0 1.199219,0.75 c 2.374215,-0.549728 4.662806,-1.4221127 6.800781,-2.5917971 a 1.0001,1.0001 0 0 0 0.0918,-0.058594 c -0.01443,0.010092 0.232068,-0.1382064 0.417969,-0.2402343 0.166251,-0.091243 0.282919,-0.152322 0.3125,-0.1679688 2.686544,-1.2509523 4.857496,-0.036034 5.960937,1.898438 1.104302,1.935979 1.045593,4.425817 -1.404297,6.101562 a 1.0001,1.0001 0 0 0 -0.03711,0.02734 c -5.648277,4.260526 -10.837891,11.727337 -10.837891,19.521484 0,2.570138 -2.062676,4.630859 -4.632812,4.630859 -2.570136,0 -4.632812,-2.060721 -4.632813,-4.630859 0,-7.794147 -5.189613,-15.260958 -10.8378901,-19.521484 a 1.0001,1.0001 0 0 0 -0.033203,-0.02344 C 6.0644332,14.449824 6.0061965,11.965664 7.1074219,10.035156 8.207786,8.1061589 10.372648,6.8932692 13.052734,8.1269531 c 0.0321,0.016983 0.144389,0.075895 0.308594,0.1660157 0.185901,0.1020279 0.432401,0.2503265 0.417969,0.2402343 a 1.0001,1.0001 0 0 0 0.0918,0.058594 c 2.137942,1.1696743 4.426602,2.0420591 6.800781,2.5917971 a 1,1 0 0 0 1.199219,-0.75 1,1 0 0 0 -0.748047,-1.199219 C 18.926499,8.7257674 16.810017,7.9200523 14.832031,6.8378906 l 0.0918,0.056641 C 14.716196,6.7493392 14.526917,6.6522625 14.324219,6.5410156 14.12152,6.4297688 13.943359,6.3359375 13.943359,6.3359375 A 1.0001,1.0001 0 0 0 13.896484,6.3125 C 10.334787,4.6683985 6.8969687,6.3646041 5.3691406,9.0429688 3.8413126,11.721333 4.1313217,15.54444 7.359375,17.773437 L 7.3242187,17.75 c 5.2099123,3.929865 10.0429693,11.040189 10.0429683,17.923828 10e-7,3.651016 2.981799,6.63086 6.632813,6.630859 3.651014,0 6.632812,-2.979843 6.632812,-6.630859 0,-6.883639 4.833057,-13.993963 10.042969,-17.923828 l -0.03906,0.02539 C 43.886918,15.552227 44.182046,11.716435 42.650391,9.03125 41.501649,7.0173615 39.272369,5.5591038 36.724609,5.6582031 Z"
     id="path1" />
</svg>
