<?xml version="1.0" encoding="UTF-8" standalone="no"?>
<svg
   id="b"
   viewBox="0 0 48 48"
   version="1.1"
   sodipodi:docname="steam_icon_1474700.svg"
   xmlns:inkscape="http://www.inkscape.org/namespaces/inkscape"
   xmlns:sodipodi="http://sodipodi.sourceforge.net/DTD/sodipodi-0.dtd"
   xmlns="http://www.w3.org/2000/svg"
   xmlns:svg="http://www.w3.org/2000/svg">
  <sodipodi:namedview
     id="namedview10"
     pagecolor="#ffffff"
     bordercolor="#666666"
     borderopacity="1.0"
     inkscape:showpageshadow="2"
     inkscape:pageopacity="0.0"
     inkscape:pagecheckerboard="0"
     inkscape:deskcolor="#d1d1d1" />
  <defs
     id="defs1">
    <style
       id="style1">.c{fill:none;stroke:#fff;stroke-width:2px;stroke-linecap:round;stroke-linejoin:round;}</style>
  </defs>
  <path
     style="color:#000000;fill:#ffffff;stroke-linecap:round;stroke-linejoin:round;-inkscape-stroke:none"
     d="m 32.236328,13.654297 c -0.874803,0.0027 -1.78061,0.104173 -2.707031,0.261719 -3.705684,0.630181 -7.822777,2.19834 -11.373047,2.888671 -4.150376,0.807001 -7.398938,1.989971 -9.4375,3.560547 -1.0192809,0.785289 -1.7675384,1.700268 -2.0292969,2.789063 -0.2617585,1.088794 0.058912,2.264394 0.828125,3.255859 1.1645071,1.500878 2.8299099,2.297269 4.3730469,2.736328 A 1,1 0 0 0 13.125,28.457031 1,1 0 0 0 12.4375,27.222656 C 11.14784,26.855717 9.8995472,26.217113 9.0976563,25.183594 8.5977211,24.539211 8.5210464,24.094113 8.6347656,23.621094 c 0.1137193,-0.47302 0.5118577,-1.061052 1.3046875,-1.671875 1.5856599,-1.221646 4.6271939,-2.409243 8.5996089,-3.181641 3.812224,-0.741267 7.929835,-2.301664 11.324219,-2.878906 1.697192,-0.288621 3.19159,-0.32194 4.322266,0.01367 1.130675,0.335611 1.938471,0.95727 2.541015,2.294922 0.569545,1.264301 0.567282,2.198587 0.306641,3.001953 -0.26064,0.803365 -0.82726,1.509568 -1.550781,2.105468 a 1,1 0 0 0 -0.136719,1.40625 1,1 0 0 0 1.408203,0.136719 c 0.922277,-0.759598 1.766807,-1.752617 2.181641,-3.03125 0.414834,-1.278632 0.349788,-2.808857 -0.384766,-4.439453 -0.807654,-1.792995 -2.196356,-2.917506 -3.796875,-3.392578 -0.800259,-0.237536 -1.642774,-0.332771 -2.517578,-0.330078 z"
     id="path1" />
  <path
     style="color:#000000;fill:#ffffff;stroke-linecap:round;stroke-linejoin:round;-inkscape-stroke:none"
     d="M 25.927734,3.59375 C 23.297824,3.2886016 20.133244,3.7170448 16.583984,4.8164062 13.244831,5.8506684 11.015811,7.4219337 9.625,8.7519531 8.2341889,10.081973 7.6386719,11.248047 7.6386719,11.248047 a 1.0001,1.0001 0 0 0 0.013672,0.923828 c 1.613628,2.976854 2.4058313,4.934511 2.7890623,6.115234 0.191616,0.590362 0.28088,0.985909 0.322266,1.216797 0.04139,0.230888 0.03516,0.228516 0.03516,0.228516 a 1,1 0 0 0 0.996094,1.003906 1,1 0 0 0 1.003906,-0.998047 c 0,0 -0.0066,-0.252291 -0.06641,-0.585937 -0.0598,-0.333646 -0.172726,-0.817098 -0.388672,-1.482422 -0.391352,-1.205743 -1.289408,-3.241445 -2.65625,-5.845703 0.1163,-0.210698 0.32553,-0.675653 1.320313,-1.626953 1.189861,-1.1378534 3.133028,-2.5306676 6.167968,-3.4707035 3.364833,-1.0422364 6.29425,-1.4029572 8.521485,-1.1445313 2.133111,0.2475049 3.524602,1.0395278 4.341796,2.2636719 v 6.8749999 a 1,1 0 0 0 1,1 1,1 0 0 0 1,-1 V 7.4648437 A 1.0001,1.0001 0 0 0 31.894531,6.9472656 C 30.717109,4.9961068 28.557645,3.8988984 25.927734,3.59375 Z"
     id="path2" />
  <path
     style="color:#000000;fill:#ffffff;stroke-linecap:round;stroke-linejoin:round;-inkscape-stroke:none"
     d="m 28.835937,18.716797 c -2.567039,-0.05151 -5.255241,0.645813 -7.929687,1.314453 -3.829203,0.957314 -6.661638,2.315059 -8.316406,4.566406 -1.654769,2.251348 -1.936544,5.253256 -1.023438,8.994141 a 1,1 0 0 0 1.208985,0.734375 1,1 0 0 0 0.734375,-1.207031 c -0.835492,-3.422909 -0.535348,-5.666914 0.691406,-7.335938 1.226753,-1.669024 3.574716,-2.906362 7.191406,-3.810547 3.561765,-0.890478 6.889309,-1.652622 9.464844,-0.988281 2.575535,0.664341 4.682294,2.604089 6.097656,7.958984 a 1,1 0 0 0 1.220703,0.712891 1,1 0 0 0 0.712891,-1.222656 C 37.370837,22.691 34.652656,19.896857 31.357422,19.046875 30.533613,18.834379 29.691617,18.733967 28.835937,18.716797 Z"
     id="path3" />
  <path
     style="color:#000000;fill:#ffffff;stroke-linecap:round;stroke-linejoin:round;-inkscape-stroke:none"
     d="m 39.324219,27.826172 c -1.237743,-0.19122 -2.451627,0.333735 -3.09375,1.433594 a 1,1 0 0 0 0.359375,1.367187 1,1 0 0 0 1.367187,-0.359375 c 0.122276,-0.20944 0.752095,-0.512798 1.0625,-0.464844 0.155203,0.02398 0.201839,0.04987 0.269531,0.158203 0.06769,0.108335 0.167544,0.388452 0.08594,0.97461 -0.129373,0.929241 -0.419833,1.172015 -0.541016,1.236328 -0.121182,0.06431 -0.249757,0.03079 -0.33789,-0.03125 a 1.0001,1.0001 0 0 0 -1.564453,0.669922 c -0.119308,0.796252 -1.118107,3.813901 -3.390625,6.15625 -2.272518,2.342349 -5.734674,4.203861 -11.273438,3.310547 -3.241034,-0.522763 -4.975255,-1.78412 -5.978516,-3.269532 a 1,1 0 0 0 -1.388671,-0.269531 1,1 0 0 0 -0.267578,1.388672 c 1.324737,1.961385 3.669447,3.536764 7.316406,4.125 6.118924,0.986884 10.392366,-1.176632 13.027343,-3.892578 2.185795,-2.252961 3.130605,-4.554595 3.572266,-6.175781 0.402124,0.02669 0.823766,-0.03244 1.222656,-0.244141 0.838467,-0.444986 1.399658,-1.404559 1.583985,-2.728516 0.125194,-0.89924 0.01644,-1.690335 -0.371094,-2.310546 -0.387538,-0.620212 -1.041285,-0.978609 -1.660156,-1.074219 z"
     id="path4" />
  <path
     style="color:#000000;fill:#ffffff;stroke-linecap:round;stroke-linejoin:round;-inkscape-stroke:none"
     d="m 30.333984,31.242187 a 1.0001,1.0001 0 0 0 -0.878906,0.794922 c -0.136888,0.670904 -0.417695,1.172362 -0.693359,1.414063 -0.275664,0.2417 -0.504317,0.332488 -1.044922,0.18164 -0.547254,-0.152703 -0.926659,-0.522093 -1.691406,-1.046875 -0.764748,-0.524781 -1.872507,-1.070203 -3.574219,-1.205078 A 1,1 0 0 0 21.375,32.298828 1,1 0 0 0 22.292969,33.375 c 1.381885,0.109525 2.003111,0.448708 2.601562,0.859375 0.598452,0.410667 1.215412,1.027676 2.285156,1.326172 0.961044,0.268165 1.901606,0.03274 2.619141,-0.464844 -0.0103,0.09347 0.04285,0.147507 0.02734,0.244141 -0.160937,1.003066 -0.551418,1.440911 -1.167969,1.755859 -0.616551,0.314948 -1.542472,0.43014 -2.580078,0.333984 -2.075212,-0.19231 -4.54591,-1.237535 -5.503906,-1.904296 a 1.0001,1.0001 0 0 0 -1.404297,0.265625 c -0.642022,0.963013 -2.18595,1.832368 -3.638672,2.107421 -0.726361,0.137527 -1.418123,0.132171 -1.914062,0.0078 -0.49594,-0.124358 -0.754952,-0.322079 -0.892579,-0.582031 -0.254908,-0.481476 -0.321602,-0.998886 -0.322265,-1.50586 0.394615,0.290629 0.85068,0.512651 1.341797,0.529297 0.725389,0.02459 1.21893,-0.418527 1.533203,-0.761719 0.314273,-0.343191 0.55666,-0.693112 0.820312,-0.99414 0.527304,-0.602056 0.935203,-0.993797 1.994141,-0.88086 a 1,1 0 0 0 1.099609,-0.888671 1,1 0 0 0 -0.888672,-1.09961 c -1.761459,-0.187862 -3.009414,0.753991 -3.708984,1.552735 -0.349785,0.399371 -0.613492,0.767079 -0.791016,0.960937 -0.177523,0.193858 -0.160974,0.107494 0.0098,0.113281 -0.342041,-0.01159 -0.188537,0.05111 -0.292969,-0.11914 -0.104431,-0.170252 -0.282674,-0.713838 -0.511718,-1.53711 a 1.0001,1.0001 0 0 0 -1.845704,-0.205078 c 0,0 -1.6903618,2.967999 -0.205078,5.773438 0.454673,0.858797 1.298935,1.364602 2.173828,1.583984 0.874894,0.219382 1.824013,0.197339 2.773438,0.01758 1.596775,-0.302327 3.117504,-1.143046 4.242187,-2.339844 1.451885,0.850811 3.531328,1.693014 5.748047,1.898438 1.270442,0.117732 2.554644,0.02678 3.673828,-0.544922 1.119185,-0.571704 1.98911,-1.702268 2.232422,-3.21875 0.231266,-1.441027 0.01345,-2.73769 -0.447265,-3.814453 a 1.0001,1.0001 0 0 0 -1.019532,-0.601563 z"
     id="path5" />
  <path
     style="color:#000000;fill:#ffffff;stroke-linecap:round;stroke-linejoin:round;-inkscape-stroke:none"
     d="m 22.271484,29.392578 a 1,1 0 0 0 -0.761718,0.07031 1,1 0 0 0 -0.417969,1.351562 c 0.342394,0.648368 0.330394,1.091342 0.205078,1.361328 -0.125316,0.269986 -0.418217,0.548889 -1.214844,0.681641 -0.277239,0.0462 -0.387803,0.0034 -0.503906,-0.06836 -0.116103,-0.07174 -0.24574,-0.213217 -0.353516,-0.433593 -0.21555,-0.440753 -0.249886,-1.193756 -0.191406,-1.419922 a 1,1 0 0 0 -0.716797,-1.21875 1,1 0 0 0 -1.21875,0.71875 c -0.223519,0.864433 -0.132795,1.852357 0.330078,2.798828 0.231437,0.473236 0.579757,0.935868 1.097657,1.255859 0.517899,0.319992 1.196756,0.454495 1.884765,0.339844 1.234071,-0.205648 2.248289,-0.836787 2.701172,-1.8125 0.452884,-0.975712 0.291305,-2.111688 -0.25,-3.136719 a 1,1 0 0 0 -0.589844,-0.488281 z"
     id="path6" />
  <path
     style="color:#000000;fill:#ffffff;stroke-linecap:round;stroke-linejoin:round;-inkscape-stroke:none"
     d="m 27.25,21.488281 c -0.542365,-0.03918 -1.072649,0.0061 -1.566406,0.119141 a 1,1 0 0 0 -0.751953,1.197265 1,1 0 0 0 1.197265,0.751954 c 0.573085,-0.131208 1.354659,-0.09757 2.003906,0.166015 0.649248,0.263587 1.169281,0.701402 1.462891,1.484375 a 1,1 0 0 0 1.287109,0.585938 1,1 0 0 0 0.585938,-1.28711 C 30.972661,23.182934 29.960691,22.305953 28.884766,21.869141 28.346803,21.650734 27.792365,21.52746 27.25,21.488281 Z"
     id="path7" />
  <path
     style="color:#000000;fill:#ffffff;stroke-linecap:round;stroke-linejoin:round;-inkscape-stroke:none"
     d="M 36.662109,24.886719 34.84375,25.486328 A 1,1 0 0 0 34.207031,26.75 a 1,1 0 0 0 1.263672,0.634766 l 1.818359,-0.59961 a 1,1 0 0 0 0.636719,-1.261719 1,1 0 0 0 -1.263672,-0.636718 z"
     id="line7" />
  <path
     style="color:#000000;fill:#ffffff;stroke-linecap:round;stroke-linejoin:round;-inkscape-stroke:none"
     d="m 37.265625,26.490234 -2.402344,0.738282 a 1,1 0 0 0 -0.662109,1.25 1,1 0 0 0 1.25,0.662109 l 2.402344,-0.738281 a 1,1 0 0 0 0.662109,-1.25 1,1 0 0 0 -1.25,-0.66211 z"
     id="line8" />
  <path
     style="color:#000000;fill:#ffffff;stroke-linecap:round;stroke-linejoin:round;-inkscape-stroke:none"
     d="m 24.140625,37.220703 a 1,1 0 0 0 -0.583984,0.496094 c -0.534295,1.043795 -1.087597,1.547901 -1.56836,1.783203 -0.480762,0.235302 -0.934684,0.241836 -1.425781,0.107422 -0.491097,-0.134414 -0.996012,-0.434541 -1.384766,-0.777344 -0.388753,-0.342803 -0.654745,-0.756717 -0.701172,-0.880859 a 1,1 0 0 0 -1.287109,-0.585938 1,1 0 0 0 -0.585937,1.28711 c 0.234973,0.628307 0.670679,1.167119 1.251953,1.679687 0.581274,0.512568 1.31467,0.970809 2.177734,1.207031 0.863065,0.236223 1.880945,0.224263 2.833984,-0.242187 0.95304,-0.466451 1.796049,-1.348014 2.470704,-2.666016 a 1,1 0 0 0 -0.435547,-1.345703 1,1 0 0 0 -0.761719,-0.0625 z"
     id="path8" />
  <path
     style="color:#000000;fill:#ffffff;stroke-linecap:round;stroke-linejoin:round;-inkscape-stroke:none"
     d="m 15.572266,22.177734 a 1,1 0 0 0 -0.958985,1.039063 1,1 0 0 0 1.039063,0.958984 c 0.668308,-0.02689 1.10431,0.139541 1.384765,0.294922 0.280456,0.155381 0.339844,0.240234 0.339844,0.240234 a 1,1 0 0 0 1.408203,0.121094 1,1 0 0 0 0.119141,-1.410156 c 0,0 -0.344644,-0.394353 -0.898438,-0.701172 -0.553793,-0.306819 -1.381903,-0.585281 -2.433593,-0.542969 z"
     id="path9" />
  <path
     style="color:#000000;fill:#ffffff;stroke-linecap:round;stroke-linejoin:round;-inkscape-stroke:none"
     d="m 15.751953,25.027344 c -1.467372,0 -2.453125,1.360444 -2.453125,2.787109 0,1.426665 0.985753,2.78711 2.453125,2.787109 1.467372,0 2.455078,-1.360444 2.455078,-2.787109 0,-1.426665 -0.987706,-2.787109 -2.455078,-2.787109 z m 0,2 c 0.138118,0 0.455078,0.239358 0.455078,0.787109 0,0.547751 -0.31696,0.78711 -0.455078,0.787109 -0.138118,0 -0.453125,-0.239358 -0.453125,-0.787109 0,-0.547751 0.315007,-0.787109 0.453125,-0.787109 z"
     id="ellipse9" />
  <path
     style="color:#000000;fill:#ffffff;stroke-linecap:round;stroke-linejoin:round;-inkscape-stroke:none"
     d="m 26.769531,24.480469 c -1.468142,0 -2.460937,1.358056 -2.460937,2.787109 0,1.429053 0.992795,2.78711 2.460937,2.787109 1.468143,0 2.462891,-1.358056 2.462891,-2.787109 0,-1.429053 -0.994748,-2.787109 -2.462891,-2.787109 z m 0,2 c 0.146074,0 0.462891,0.241746 0.462891,0.787109 0,0.545363 -0.316817,0.787109 -0.462891,0.787109 -0.146073,0 -0.460937,-0.241746 -0.460937,-0.787109 0,-0.545363 0.314864,-0.787109 0.460937,-0.787109 z"
     id="ellipse10" />
</svg>
