<?xml version="1.0" encoding="UTF-8"?>
<svg id="svg1" version="1.1" viewBox="0 0 48 48" xmlns="http://www.w3.org/2000/svg">
 <defs id="defs1">
  <style id="style1">.a{fill:none;stroke:#fff;stroke-width:2px;stroke-linecap:round;stroke-linejoin:round;}</style>
 </defs>
 <path id="path1" d="m24.078 3.502a1.0001 1.0001 0 0 0-0.98633 0.91211s-0.24844 2.8491-0.61133 5.9922c-0.18144 1.5715-0.39072 3.2157-0.61133 4.6016-0.17878 1.1231-0.36241 1.8562-0.51758 2.4043-0.24162 0.02341-0.29532 0.02814-0.62891 0.0625-0.37415 0.03854-0.64965 0.0788-0.99219 0.11914-0.14778-0.45494-0.30624-0.91598-0.4707-1.7344-0.22668-1.128-0.44243-2.467-0.62695-3.7441-0.36904-2.5543-0.61523-4.8594-0.61523-4.8594a1.0001 1.0001 0 0 0-1.9863-0.013672s-0.27529 2.2902-0.69531 4.9551c-0.39551 2.5094-0.95243 5.2373-1.4336 6.6523-0.34751 0.11824-0.73841 0.24669-1.3008 0.43359-0.12109-0.23563-0.20421-0.35092-0.35742-0.81055-0.24894-0.74681-0.49392-1.6824-0.70508-2.5879-0.42231-1.8109-0.71094-3.4961-0.71094-3.4961a1.0001 1.0001 0 0 0-1.9805 0.06836l-0.99219 9.8066a1.0001 1.0001 0 0 0 0.67578 1.0488s12.473 4.0832 14.77 20.328a1.0001 1.0001 0 0 0 1.9785 0.01367c1.279-8.186 4.8608-13.229 8.1094-16.268 3.2486-3.0386 6.0898-4.0195 6.0898-4.0195a1.0001 1.0001 0 0 0 0.66797-1.0215l-0.75781-9.6348a1.0001 1.0001 0 0 0-1.9824-0.0957s-0.27118 1.5339-0.69922 3.2461c-0.21402 0.85609-0.46903 1.7534-0.73633 2.5039-0.17029 0.47811-0.31322 0.69418-0.46875 0.98438-0.38361-0.13774-0.70444-0.23547-1.2656-0.40039-0.1431-0.39004-0.36157-1.1121-0.5625-2.1699-0.23256-1.2243-0.45644-2.6966-0.64844-4.1094-0.38399-2.8256-0.64453-5.4102-0.64453-5.4102a1.0001 1.0001 0 0 0-1.9863-0.025391s-0.29113 2.2623-0.71094 4.8027c-0.37366 2.2612-0.89056 4.4894-1.2676 5.5977-0.45724-0.06949-0.80842-0.11593-1.4062-0.19336-0.15718-0.57382-0.33982-1.3314-0.53125-2.4668-0.23479-1.3925-0.47069-3.0382-0.67774-4.6074-0.4141-3.1385-0.71875-5.9746-0.71875-5.9746a1.0001 1.0001 0 0 0-1.0039-0.89062zm0.08203 9.4492c0.11616 0.79819 0.22415 1.6345 0.3457 2.3555 0.2414 1.4318 0.46565 2.5929 0.74219 3.3672a1.0001 1.0001 0 0 0 0.85742 0.66016c0.54945 0.0458 2.9102 0.40039 2.9102 0.40039a1.0001 1.0001 0 0 0 1.0586-0.57031c0.49941-1.082 0.82302-3.1121 1.1641-5.002 0.15028 1.0271 0.29779 2.08 0.4707 2.9902 0.24362 1.2825 0.45353 2.2879 0.82617 3.0332a1.0001 1.0001 0 0 0 0.68359 0.5293c0.61397 0.1316 2.4355 0.7793 2.4355 0.7793a1.0001 1.0001 0 0 0 1.1074-0.29297c0.49375-0.58351 0.79181-1.3163 1.0938-2.1641 0.0077-0.02148 0.01193-0.04675 0.01953-0.06836l0.22656 2.8535c-0.86378 0.35477-3.1656 1.3793-6.0781 4.1035-2.9095 2.7214-5.955 7.0613-7.7168 13.307-3.4828-12.465-12.603-16.751-14.391-17.469l0.3125-3.0918c0.04281 0.13849 0.07494 0.30101 0.11914 0.43359 0.28197 0.84592 0.48625 1.5195 1.0645 2.0977a1.0001 1.0001 0 0 0 0.99414 0.25195c0.67202-0.20153 2.6641-0.88867 2.6641-0.88867a1.0001 1.0001 0 0 0 0.60938-0.58594c0.51957-1.3509 0.89873-3.6602 1.2695-5.8164 0.11593 0.70936 0.22028 1.4443 0.34961 2.0879 0.23858 1.1872 0.46099 2.1534 0.81055 2.873a1.0001 1.0001 0 0 0 1.0781 0.54688c0.21091-0.03833 1.0382-0.13668 1.7402-0.20898 0.70202-0.07231 1.3262-0.12891 1.3262-0.12891a1.0001 1.0001 0 0 0 0.83984-0.63281c0.30963-0.79393 0.52188-1.9458 0.75-3.3789 0.11539-0.72492 0.2107-1.5673 0.31641-2.3711z" fill="#fff" stop-color="#000000" stroke-linecap="round" stroke-linejoin="round"/>
</svg>
