<?xml version="1.0" encoding="UTF-8" standalone="no"?>
<svg
   viewBox="0 0 48 48"
   version="1.1"
   id="svg5"
   sodipodi:docname="steam_icon_1014140.svg"
   xmlns:inkscape="http://www.inkscape.org/namespaces/inkscape"
   xmlns:sodipodi="http://sodipodi.sourceforge.net/DTD/sodipodi-0.dtd"
   xmlns="http://www.w3.org/2000/svg"
   xmlns:svg="http://www.w3.org/2000/svg">
  <sodipodi:namedview
     id="namedview5"
     pagecolor="#ffffff"
     bordercolor="#666666"
     borderopacity="1.0"
     inkscape:showpageshadow="2"
     inkscape:pageopacity="0.0"
     inkscape:pagecheckerboard="0"
     inkscape:deskcolor="#d1d1d1" />
  <defs
     id="defs1">
    <style
       id="style1">.a{fill:none;stroke:#fff;stroke-width:2px;stroke-linecap:round;stroke-linejoin:round;}</style>
  </defs>
  <path
     style="color:#000000;fill:#ffffff;stroke-linecap:round;stroke-linejoin:round;-inkscape-stroke:none"
     d="m 25.65625,25.820312 c -2.052105,0 -4.13983,0.931106 -5.792969,1.88086 -0.826569,0.474877 -1.537077,0.960768 -2.064453,1.376953 -0.263688,0.208093 -0.478638,0.395748 -0.658203,0.580078 -0.08978,0.09217 -0.170227,0.180916 -0.253906,0.300781 -0.08368,0.119866 -0.232422,0.22882 -0.232422,0.6875 0,0.733885 0.385674,1.187878 0.84375,1.626953 0.458076,0.439076 1.069042,0.84836 1.845703,1.21875 1.553322,0.740782 3.767723,1.316559 6.615234,1.355469 4.75406,0.06475 9.083689,-0.710058 12.189453,-1.558594 1.552883,-0.424267 2.79432,-0.864229 3.658204,-1.246093 0.431941,-0.190932 0.761963,-0.357428 1.042968,-0.552735 0.140503,-0.09765 0.272739,-0.177854 0.439453,-0.423828 0.08336,-0.122986 0.19458,-0.313987 0.195313,-0.621094 7.33e-4,-0.307106 -0.195197,-0.663866 -0.392578,-0.824218 -0.192722,-0.156568 -0.257281,-0.161991 -0.337891,-0.195313 -0.08061,-0.03332 -0.155652,-0.05819 -0.240234,-0.08594 -0.169164,-0.0555 -0.372048,-0.114069 -0.615235,-0.179688 -0.486372,-0.131238 -1.133063,-0.290037 -1.896484,-0.46875 -1.526841,-0.357425 -3.514957,-0.792425 -5.521484,-1.214844 -2.006527,-0.422418 -4.029219,-0.831856 -5.625,-1.136718 -0.797891,-0.152432 -1.488095,-0.279675 -2.021485,-0.369141 -0.533389,-0.08947 -0.79888,-0.150391 -1.177734,-0.150391 z m 0,2 c -0.107979,0 0.339572,0.03783 0.847656,0.123047 0.508085,0.08522 1.187703,0.210623 1.976563,0.361328 1.577718,0.301412 3.591759,0.708676 5.58789,1.128907 1.996132,0.42023 3.976132,0.853378 5.478516,1.205078 0.04638,0.01086 0.06781,0.01664 0.113281,0.02734 -0.639539,0.230795 -1.149161,0.450226 -2.039062,0.693359 -2.947105,0.805188 -7.115735,1.549831 -11.634766,1.488281 -2.589883,-0.03539 -4.534624,-0.567592 -5.78125,-1.162109 -0.623313,-0.297259 -1.072152,-0.613858 -1.324219,-0.855469 -0.02874,-0.02755 -0.0034,0.004 -0.02539,-0.02148 0.0677,-0.05802 0.09816,-0.09274 0.183593,-0.160157 0.433986,-0.342485 1.077584,-0.786181 1.820313,-1.21289 1.485458,-0.853419 3.399184,-1.615235 4.796875,-1.615235 z"
     id="path1" />
  <path
     style="color:#000000;fill:#ffffff;stroke-linecap:round;stroke-linejoin:round;-inkscape-stroke:none"
     d="m 42.261719,29.417969 c -12.728672,2.595617 -21.701482,1.23202 -24.263672,0.291015 a 1,1 0 0 0 -1.283203,0.59375 1,1 0 0 0 0.59375,1.283203 c 3.314204,1.217194 12.320013,2.448794 25.353515,-0.208984 a 1,1 0 0 0 0.779297,-1.179687 1,1 0 0 0 -1.179687,-0.779297 z"
     id="path2" />
  <path
     style="color:#000000;fill:#ffffff;stroke-linecap:round;stroke-linejoin:round;-inkscape-stroke:none"
     d="m 20.158203,3.5664063 c -0.71902,-0.1609946 -1.616535,-0.010752 -2.234375,0.6054687 -0.652349,0.6504115 -0.999332,1.6074143 -0.738281,2.4472656 0.04033,0.1297563 0.143151,0.2163834 0.201172,0.3339844 -0.987394,0.00567 -1.887449,0.3073523 -2.367188,1.0078125 -0.595439,0.8693927 -0.53668,2.0737165 0.13086,2.9550785 0.408487,0.53958 0.979644,0.743385 1.449218,0.861328 0.05656,0.01421 0.09681,0.01697 0.152344,0.0293 -1.021964,0.076 -2.048307,0.0883 -3.064453,0.224609 a 1.0001,1.0001 0 0 0 -0.0957,0.01758 c -1.061408,0.249755 -2.40341,0.505302 -3.460938,1.59375 -1.0575272,1.088448 -1.6319441,2.841797 -1.615234,5.652344 0.032508,5.467624 1.078125,20.412109 1.078125,20.412109 a 1.0001,1.0001 0 0 0 0,0.0059 c 0.1470124,1.942964 1.807361,3.447781 3.753906,3.408203 1.199316,-0.0039 2.101987,-0.65716 2.78711,-1.259766 0.04985,0.130415 0.0052,0.12841 0.06836,0.261719 C 16.73004,43.235489 17.955994,44.5 19.888672,44.5 c 1.868062,0 3.189187,-1.022996 3.966797,-1.984375 0.544283,0.838331 1.458297,1.675781 2.894531,1.675781 1.70771,0 2.890604,-1.105114 3.560547,-2.068359 0.176847,-0.254272 0.12697,-0.270202 0.251953,-0.50586 0.655557,0.463205 1.417427,0.720655 2.248047,0.595704 1.401218,-0.0263 2.640748,-0.959178 2.992187,-2.324219 a 1.0001,1.0001 0 0 0 0.03125,-0.236328 c 0.02037,-1.408876 -0.07759,-4.016932 -0.134765,-6.615235 a 1,1 0 0 0 -1.021485,-0.978515 1,1 0 0 0 -0.978515,1.021484 c 0.05578,2.534885 0.141771,5.018606 0.130859,6.335938 -0.147999,0.488402 -0.570965,0.83587 -1.085937,0.828125 a 1.0001,1.0001 0 0 0 -0.197266,0.01758 c -0.558589,0.103662 -1.09843,-0.193661 -1.310547,-0.720703 A 1.0001,1.0001 0 0 0 29.351562,39.625 c 0,0 -0.212484,0.682869 -0.68164,1.357422 -0.469156,0.674553 -1.064034,1.208984 -1.919922,1.208984 -0.892919,0 -1.156173,-0.388355 -1.412109,-0.925781 -0.255937,-0.537426 -0.296875,-1.113281 -0.296875,-1.113281 a 1.0001,1.0001 0 0 0 -1.949219,-0.259766 c 0,0 -0.218207,0.661429 -0.751953,1.335938 C 21.806098,41.903025 21.075225,42.5 19.888672,42.5 c -1.153219,0 -1.551347,-0.540866 -1.878906,-1.232422 -0.32756,-0.691556 -0.373047,-1.421875 -0.373047,-1.421875 a 1.0001,1.0001 0 0 0 -1.808594,-0.541016 c 0,0 -0.350772,0.481556 -0.880859,0.962891 -0.530088,0.481335 -1.207976,0.855469 -1.609375,0.855469 a 1.0001,1.0001 0 0 0 -0.02539,0 c -0.908457,0.02199 -1.654095,-0.654414 -1.722656,-1.560547 -6e-4,-0.0087 -1.043136,-15.053191 -1.074219,-20.28125 -0.01509,-2.538048 0.486285,-3.665093 1.050781,-4.246094 0.556052,-0.57231 1.378687,-0.774066 2.445313,-1.02539 1.963069,-0.260975 3.939725,-0.408956 5.919922,-0.435547 v -0.002 h 0.01563 a 1.0001,1.0001 0 0 0 0.826171,-1.234375 l 0.07617,0.0625 c -0.0097,-0.05471 -0.06546,-0.07357 -0.07813,-0.126953 a 1.0001,1.0001 0 0 0 -0.195312,-0.322266 c -0.19855,-0.50523 -0.410256,-1.027075 -0.791016,-1.298828 -0.512431,-0.36573 -1.05384,-0.5031 -1.52539,-0.597656 -0.47155,-0.094557 -0.89386,-0.1464777 -1.173829,-0.2167974 -0.279968,-0.07032 -0.350882,-0.1434869 -0.339843,-0.1289062 -0.21066,-0.2781368 -0.175058,-0.4728062 -0.07617,-0.6171875 0.09888,-0.1443813 0.324758,-0.3504616 1.037109,-0.2148438 0.551381,0.1049723 1.517062,0.8388897 2.222656,1.6210939 0.705595,0.782204 1.183594,1.521484 1.183594,1.521484 a 1.0001,1.0001 0 0 0 1.402344,0.203125 c 0.0012,0.11153 0.02729,0.117625 0.02734,0.234375 a 1.0001,1.0001 0 0 0 0.978515,1.009766 c 0.0022,-4.8e-5 0.0037,4.8e-5 0.0059,0 0.01693,-3.68e-4 0.02802,3.64e-4 0.04492,0 1.37959,-0.02969 2.672739,-0.04687 3.666015,-0.04687 1.876883,-2.96e-4 3.312541,0.959258 4.361328,2.185547 1.048788,1.226288 1.623118,2.792473 1.669922,3.326172 0.06639,0.762296 0.256051,5.19398 0.386719,9.632812 a 1,1 0 0 0 1.027344,0.970703 1,1 0 0 0 0.970703,-1.029297 c -0.131131,-4.454559 -0.301164,-8.698344 -0.392578,-9.748047 -0.111395,-1.270199 -0.82759,-2.915913 -2.140625,-4.451171 -1.313035,-1.535259 -3.313,-2.887124 -5.882813,-2.886719 -0.773078,0 -1.80739,0.01931 -2.824219,0.03711 C 24.34886,9.9130257 24.25928,8.5034597 23.904297,7.5488281 23.457606,6.3475742 22.762991,5.5086846 21.978516,4.6542969 21.494308,4.126902 20.877223,3.7274008 20.158203,3.5664063 Z m -0.4375,1.9511718 c 0.226679,0.050755 0.553212,0.23973 0.783203,0.4902344 a 1.0001,1.0001 0 0 0 0.002,0 c 0.744923,0.8113106 1.201229,1.3717872 1.523438,2.2382813 0.08588,0.2309404 0.07043,0.8310324 0.136719,1.125 C 21.631204,8.3599539 20.935407,7.444107 19.953125,6.8144531 a 1.0001,1.0001 0 0 0 -0.02344,-0.013672 C 19.354156,6.4534639 19.126102,6.1231883 19.095703,6.0253906 c -0.0304,-0.097798 -0.08352,-0.1147124 0.240234,-0.4375 0.10696,-0.1066789 0.158087,-0.1210677 0.384766,-0.070312 z"
     id="path3" />
  <path
     style="color:#000000;fill:#ffffff;stroke-linecap:round;stroke-linejoin:round;-inkscape-stroke:none"
     d="m 18.123047,16.292969 c -3.094994,0 -5.556641,2.675913 -5.556641,5.873047 0,3.197133 2.461647,5.873046 5.556641,5.873046 3.094994,0 5.558594,-2.675913 5.558594,-5.873046 0,-3.197134 -2.4636,-5.873047 -5.558594,-5.873047 z m 0,2 c 1.939076,0 3.558594,1.686624 3.558594,3.873047 0,2.186422 -1.619518,3.873046 -3.558594,3.873046 -1.939076,0 -3.556641,-1.686624 -3.556641,-3.873046 0,-2.186423 1.617565,-3.873047 3.556641,-3.873047 z"
     id="ellipse3" />
  <path
     style="color:#000000;fill:#ffffff;stroke-linecap:round;stroke-linejoin:round;-inkscape-stroke:none"
     d="m 29.064453,15.904297 c -1.346735,0 -2.523662,0.76408 -3.302734,1.841797 -0.779072,1.077716 -1.220703,2.491974 -1.220703,4.033203 0,1.541228 0.441631,2.953533 1.220703,4.03125 0.779072,1.077717 1.955999,1.841797 3.302734,1.841797 1.346736,0 2.521709,-0.76408 3.300781,-1.841797 0.779072,-1.077717 1.222657,-2.490022 1.222657,-4.03125 0,-1.541229 -0.443585,-2.955487 -1.222657,-4.033203 -0.779072,-1.077717 -1.954045,-1.841797 -3.300781,-1.841797 z m 0,2 c 0.599127,0 1.183577,0.327385 1.679688,1.013672 0.49611,0.686286 0.84375,1.710778 0.84375,2.861328 0,1.150549 -0.34764,2.173089 -0.84375,2.859375 -0.496111,0.686286 -1.080561,1.013672 -1.679688,1.013672 -0.599127,0 -1.18553,-0.327386 -1.681641,-1.013672 -0.49611,-0.686286 -0.841796,-1.708826 -0.841796,-2.859375 0,-1.15055 0.345686,-2.175042 0.841796,-2.861328 0.496111,-0.686287 1.082514,-1.013672 1.681641,-1.013672 z"
     id="ellipse4" />
  <path
     style="color:#000000;fill:#ffffff;stroke-linecap:round;stroke-linejoin:round;-inkscape-stroke:none"
     d="m 28.431641,16.705078 a 1.0001,1.0001 0 0 0 -0.04297,0.002 c -1.397569,0.06043 -2.652491,0.890284 -3.25586,2.152344 a 1,1 0 0 0 0.470704,1.332031 1,1 0 0 0 1.332031,-0.470703 c 0.281823,-0.589486 0.861208,-0.966901 1.511719,-1.005859 0.918912,0.0129 1.873046,1.044571 1.873046,2.583984 0,1.549166 -0.964051,2.591797 -1.888671,2.591797 -0.890795,0 -1.816703,-0.958475 -1.886719,-2.423828 a 1,1 0 0 0 -1.046875,-0.951172 1,1 0 0 0 -0.951172,1.044922 c 0.109984,2.301843 1.699564,4.330078 3.884766,4.330078 2.267976,0 3.888671,-2.173166 3.888671,-4.591797 0,-2.418731 -1.620869,-4.59375 -3.888671,-4.59375 z"
     id="path4" />
  <path
     style="color:#000000;fill:#ffffff;stroke-linecap:round;stroke-linejoin:round;-inkscape-stroke:none"
     d="m 16.984375,16.705078 c -0.445216,-3.05e-4 -0.886815,0.0704 -1.310547,0.207031 a 1,1 0 0 0 -0.646484,1.257813 1,1 0 0 0 1.259765,0.644531 c 0.224368,-0.07235 0.457624,-0.109334 0.69336,-0.109375 2.147544,0.0058 3.2367,2.386424 1.83789,4.015625 -1.398809,1.629201 -3.915404,0.912954 -4.246093,-1.208984 a 1,1 0 0 0 -1.142578,-0.833985 1,1 0 0 0 -0.833985,1.142578 c 0.571316,3.665968 5.323454,5.017964 7.740234,2.203125 2.416781,-2.814838 0.360596,-7.308274 -3.349609,-7.318359 a 1.0001,1.0001 0 0 0 -0.002,0 z"
     id="path5" />
</svg>
