<?xml version="1.0" encoding="UTF-8"?>
<svg id="a" version="1.1" viewBox="0 0 48 48" xmlns="http://www.w3.org/2000/svg">
 <defs id="defs1">
  <style id="style1">.b{fill:none;stroke:#fff;stroke-width:2px;stroke-linecap:round;stroke-linejoin:round;}</style>
 </defs>
 <path id="polyline1" d="m24.072 6.2988-19.674 1.998a1.0001 1.0001 0 0 0-0.89258 1.0957l1.9961 19.674a1.0001 1.0001 0 0 0 1.0957 0.89258l14.752-1.4961a1 1 0 0 0 0.89453-1.0957 1 1 0 0 0-1.0957-0.89453l-13.758 1.3965-1.7949-17.684 17.684-1.7949 1.3262 13.053a1 1 0 0 0 1.0957 0.89453 1 1 0 0 0 0.89258-1.0957l-1.4258-14.049a1.0001 1.0001 0 0 0-1.0957-0.89453z" color="#000000" fill="#fff" stroke-linecap="round" stroke-linejoin="round" style="-inkscape-stroke:none"/>
 <path id="polygon1" d="m33.174 9.8223a1.0001 1.0001 0 0 0-0.91406 0.41602l-14.809 20.85a1.0001 1.0001 0 0 0 0.71875 1.5742l25.232 2.4609a1.0001 1.0001 0 0 0 1.0098-1.4043l-10.424-23.309a1.0001 1.0001 0 0 0-0.81445-0.58789zm-0.29688 3.002 9.0078 20.141-21.803-2.127z" color="#000000" fill="#fff" stroke-linecap="round" stroke-linejoin="round" style="-inkscape-stroke:none"/>
 <path id="polyline2" d="m29.779 21.861a1 1 0 0 0-1.084 0.9082l-0.41797 4.7559a1.0001 1.0001 0 0 0 0.93945 1.0859l1.6094 0.0918a1 1 0 0 0 1.0547-0.94141 1 1 0 0 0-0.94141-1.0566l-0.58008-0.0332 0.32812-3.7266a1 1 0 0 0-0.9082-1.084z" color="#000000" fill="#fff" stroke-linecap="round" stroke-linejoin="round" style="-inkscape-stroke:none"/>
 <path id="polyline3" d="m24.613 31.285a1 1 0 0 0-1 1v7.4199h-2.2305a1 1 0 0 0-1 1 1 1 0 0 0 1 1h3.2305a1.0001 1.0001 0 0 0 1-1v-8.4199a1 1 0 0 0-1-1z" color="#000000" fill="#fff" stroke-linecap="round" stroke-linejoin="round" style="-inkscape-stroke:none"/>
 <path id="polyline4" d="m37.346 32.527a1 1 0 0 0-1 1v6.1777h-2.2305a1 1 0 0 0-1 1 1 1 0 0 0 1 1h3.2305a1.0001 1.0001 0 0 0 1-1v-7.1777a1 1 0 0 0-1-1z" color="#000000" fill="#fff" stroke-linecap="round" stroke-linejoin="round" style="-inkscape-stroke:none"/>
 <path id="line4" d="m27.314 21.004a1 1 0 0 0-1.0586 0.9375l-0.05859 0.94141a1 1 0 0 0 0.9375 1.0586 1 1 0 0 0 1.0586-0.93555l0.05859-0.94336a1 1 0 0 0-0.9375-1.0586z" color="#000000" fill="#fff" stroke-linecap="round" stroke-linejoin="round" style="-inkscape-stroke:none"/>
 <path id="line5" d="m35.037 21.754a1 1 0 0 0-1.0605 0.93555l-0.05664 0.94336a1 1 0 0 0 0.9375 1.0586 1 1 0 0 0 1.0586-0.9375l0.05664-0.94141a1 1 0 0 0-0.93555-1.0586z" color="#000000" fill="#fff" stroke-linecap="round" stroke-linejoin="round" style="-inkscape-stroke:none"/>
 <path id="polyline5" d="m20.027 10.854a1 1 0 0 0-1.1113 0.87305l-0.87891 7.3477-2.3379-7.0215a1.0001 1.0001 0 0 0-1.9414 0.19727l-0.87891 7.3477-2.3379-7.0215a1 1 0 0 0-1.2637-0.63281 1 1 0 0 0-0.63281 1.2656l3.748 11.258a1.0001 1.0001 0 0 0 1.9414-0.19727l0.87891-7.3418 2.3359 7.0156a1.0001 1.0001 0 0 0 1.9434-0.19726l1.4082-11.781a1 1 0 0 0-0.87305-1.1113z" color="#000000" fill="#fff" stroke-linecap="round" stroke-linejoin="round" style="-inkscape-stroke:none"/>
</svg>
