<?xml version="1.0" encoding="UTF-8" standalone="no"?>
<svg
   viewBox="0 0 48 48"
   version="1.1"
   id="svg4"
   sodipodi:docname="steam_icon_322170.svg"
   xmlns:inkscape="http://www.inkscape.org/namespaces/inkscape"
   xmlns:sodipodi="http://sodipodi.sourceforge.net/DTD/sodipodi-0.dtd"
   xmlns="http://www.w3.org/2000/svg"
   xmlns:svg="http://www.w3.org/2000/svg">
  <sodipodi:namedview
     id="namedview4"
     pagecolor="#ffffff"
     bordercolor="#666666"
     borderopacity="1.0"
     inkscape:showpageshadow="2"
     inkscape:pageopacity="0.0"
     inkscape:pagecheckerboard="0"
     inkscape:deskcolor="#d1d1d1" />
  <defs
     id="defs1">
    <style
       id="style1">.a{fill:none;stroke:#fff;stroke-width:2px;stroke-linecap:round;stroke-linejoin:round;}</style>
  </defs>
  <path
     style="color:#000000;fill:#ffffff;stroke-linecap:round;stroke-linejoin:round;-inkscape-stroke:none"
     d="m 9.4804688,8.5 a 1.0001,1.0001 0 0 0 -1,1 v 28.990234 a 1.0001,1.0001 0 0 0 1,1 H 38.470703 a 1.0001,1.0001 0 0 0 1,-1 V 9.5 a 1.0001,1.0001 0 0 0 -1,-1 z m 1.0000002,2 H 37.470703 V 37.490234 H 10.480469 Z"
     id="rect1"
     transform="translate(-9.95 23.98) rotate(-45)" />
  <path
     style="color:#000000;fill:#ffffff;stroke-linecap:round;stroke-linejoin:round;-inkscape-stroke:none"
     d="m 15.859375,22.300781 a 1.0001,1.0001 0 0 0 -1,1 V 28 a 1.0001,1.0001 0 0 0 1,1 h 19.589844 a 1.0001,1.0001 0 0 0 1,-1 v -4.699219 a 1.0001,1.0001 0 0 0 -1,-1 z m 1,2 H 34.449219 V 27 H 16.859375 Z"
     id="rect2"
     transform="translate(-10.62 25.65) rotate(-45)" />
  <path
     style="color:#000000;fill:#ffffff;stroke-linecap:round;stroke-linejoin:round;-inkscape-stroke:none"
     d="m 13.339844,19.019531 a 1.0001,1.0001 0 0 0 -1,1 v 4.84961 a 1.0001,1.0001 0 0 0 1,1 h 4.849609 a 1.0001,1.0001 0 0 0 1,-1 v -4.84961 a 1.0001,1.0001 0 0 0 -1,-1 z m 1,2 h 2.849609 v 2.84961 h -2.849609 z"
     id="rect3"
     transform="translate(-11.25 17.72) rotate(-45)" />
  <path
     style="color:#000000;fill:#ffffff;stroke-linecap:round;stroke-linejoin:round;-inkscape-stroke:none"
     d="m 20.029297,12.339844 a 1.0001,1.0001 0 0 0 -1,1 v 4.849609 a 1.0001,1.0001 0 0 0 1,1 h 4.851562 a 1.0001,1.0001 0 0 0 1,-1 v -4.849609 a 1.0001,1.0001 0 0 0 -1,-1 z m 1,2 h 2.851562 v 2.849609 h -2.851562 z"
     id="rect4"
     transform="translate(-4.57 20.49) rotate(-45)" />
</svg>
