<?xml version="1.0" encoding="UTF-8"?>
<svg id="a" version="1.1" viewBox="0 0 48 48" xmlns="http://www.w3.org/2000/svg">
 <defs id="defs4">
  <style id="style2">.b{fill:none;stroke:#fff;stroke-width:2px;stroke-linecap:round;stroke-linejoin:round;}</style>
 </defs>
 <path id="path6" d="m24 24.666a1.0001 1.0001 0 0 0-0.88867 0.54102l-9.1699 17.762a1.0001 1.0001 0 0 0 0.46094 1.3633c2.9996 1.422 6.2762 2.1618 9.5957 2.168a1.0001 1.0001 0 0 0 0.0039 0c3.3196-0.0062 6.5961-0.74597 9.5957-2.168a1.0001 1.0001 0 0 0 0.46094-1.3633l-9.1699-17.762a1.0001 1.0001 0 0 0-0.88867-0.54102zm0 3.1797 7.7539 15.02c-2.4643 1.0171-5.0793 1.6293-7.752 1.6348-2.6744-5e-3 -5.29-0.61682-7.7559-1.6348z" color="#000000" fill="#fff" stroke-linecap="round" stroke-linejoin="round" style="-inkscape-stroke:none"/>
 <path id="path8" d="m24 1.5c-12.414 0-22.5 10.086-22.5 22.5a1.0001 1.0001 0 0 0 0 2e-3c0.016115 5.6886 2.1883 11.162 6.0762 15.314a1.0001 1.0001 0 0 0 1.6172-0.22466l14.807-28.688 14.807 28.688a1.0001 1.0001 0 0 0 1.6191 0.22461c3.8878-4.1527 6.0581-9.6258 6.0742-15.314a1.0001 1.0001 0 0 0 0-0.001953c0-12.414-10.086-22.5-22.5-22.5zm0 2c11.334 0 20.5 9.1665 20.5 20.5-0.01417 4.6862-1.7041 9.1627-4.6328 12.783l-14.979-29.02a1.0001 1.0001 0 0 0-1.7773 0l-14.979 29.02c-2.9287-3.6204-4.6186-8.097-4.6328-12.783v-2e-3c-1.9e-6 -6.54e-4 1.9e-6 -0.0013 0-2e-3 0.0021429-11.332 9.1678-20.496 20.5-20.496z" color="#000000" fill="#fff" stroke-linecap="round" stroke-linejoin="round" style="-inkscape-stroke:none"/>
</svg>
