<?xml version="1.0" encoding="UTF-8"?>
<svg id="a" version="1.1" viewBox="0 0 48 48" xmlns="http://www.w3.org/2000/svg">
 <defs id="defs1">
  <style id="style1">.b{fill:none;stroke:#fff;stroke-width:2px;stroke-linecap:round;stroke-linejoin:round;}</style>
 </defs>
 <path id="rect1" transform="translate(-4.4595 10.068) rotate(-27.864)" d="m9.2031 8.5918a1.0001 1.0001 0 0 0-1 1v8.8613a1.0001 1.0001 0 0 0 1 1h17.721a1.0001 1.0001 0 0 0 1-1v-8.8613a1.0001 1.0001 0 0 0-1-1zm1 2h15.721v6.8613h-15.721z" fill="#fff" stroke-linecap="round" stroke-linejoin="round"/>
 <path id="path1" d="m17.047 18.625a1 1 0 0 0-1.0898 0.90234c-0.71735 7.5557 0.37872 12.512 3.2578 15.939 2.6009 3.0972 6.5498 4.9145 11.287 5.3105a1 1 0 0 0 1.0801-0.91211 1 1 0 0 0-0.91211-1.0801c-4.3273-0.36176-7.7141-1.974-9.9238-4.6055-2.4333-2.8967-3.4907-7.1777-2.7988-14.465a1 1 0 0 0-0.90039-1.0898z" fill="#fff" stroke-linecap="round" stroke-linejoin="round"/>
 <path id="path2" d="m13.781 20.35a1 1 0 0 0-1.0859 0.9043c-0.51116 5.6425 0.49761 10.454 2.8027 14.178 2.3051 3.7236 5.903 6.3211 10.377 7.5664a1 1 0 0 0 1.2324-0.69531 1 1 0 0 0-0.69531-1.2324c-4.0547-1.1287-7.1779-3.401-9.2148-6.6914-2.037-3.2904-2.9905-7.6367-2.5098-12.943a1 1 0 0 0-0.90625-1.0859z" fill="#fff" stroke-linecap="round" stroke-linejoin="round"/>
 <path id="path3" d="m25.369 14.236a1 1 0 0 0-1.0938 0.89648c-0.50454 5.0763 0.27238 8.8628 2.2578 11.781 2.4082 3.568 7.7139 5.3186 13.221 5.793a1 1 0 0 0 1.082-0.91016 1 1 0 0 0-0.91016-1.082c-5.1715-0.44548-9.9634-2.2922-11.736-4.9219a1.0001 1.0001 0 0 0-0.0039-0.0039c-1.6746-2.4615-2.3954-5.6753-1.9199-10.459a1 1 0 0 0-0.89648-1.0938z" fill="#fff" stroke-linecap="round" stroke-linejoin="round"/>
 <path id="path4" d="m21.982 15.992a1 1 0 0 0-1.041 0.95703c-0.44544 10.504 5.1732 18.652 15.092 20.535a1 1 0 0 0 1.168-0.79688 1 1 0 0 0-0.79492-1.168c-9.0414-1.7167-13.881-8.7103-13.467-18.486a1 1 0 0 0-0.95703-1.041z" fill="#fff" stroke-linecap="round" stroke-linejoin="round"/>
 <path id="rect4" transform="translate(-4.5925 9.9196) rotate(-27.864)" d="m12.369 8.7871a1.0001 1.0001 0 0 0-1 1v8.8594a1.0001 1.0001 0 0 0 1 1h10.656a1.0001 1.0001 0 0 0 1-1v-8.8594a1.0001 1.0001 0 0 0-1-1zm1 2h8.6562v6.8594h-8.6562z" fill="#fff" stroke-linecap="round" stroke-linejoin="round"/>
</svg>
