<?xml version="1.0" encoding="UTF-8"?>
<svg id="svg40" version="1.1" viewBox="0 0 48 48" xmlns="http://www.w3.org/2000/svg">
 <defs id="defs4">
  <style id="style2">.a{fill:none;stroke:#fff;stroke-linecap:round;stroke-linejoin:round;}</style>
 </defs>
 <path id="path6" d="m11.352 26.102a1.0001 1.0001 0 0 0-0.0059 2e-3c-0.65943 0.32685-0.97354 0.9264-1.1699 1.541-0.19638 0.61462-0.27838 1.3137-0.2832 2.0918-0.00965 1.5561 0.30671 3.4262 0.99414 5.2793s1.7495 3.6909 3.2891 5.0996c1.5395 1.4087 3.5888 2.3652 6.0547 2.3652a1.0001 1.0001 0 0 0 0.01758 0c2.5292-0.04447 4.8081-1.4339 6.0879-3.5918 2.7477 0.02073 5.0034-0.46167 6.4199-1.2695 1.7996-1.0263 2.6387-2.3125 2.6387-2.3125a1 1 0 0 0-0.30859-1.3809 1 1 0 0 0-1.3789 0.30664s-0.50793 0.82978-1.9434 1.6484c-1.4354 0.81866-3.7396 1.5606-7.3223 1.0488-3.3153-0.47361-5.5683-3.2249-7.3711-5.9316-0.90142-1.3534-1.6609-2.6591-2.4551-3.6387-0.39709-0.48981-0.80085-0.91329-1.3418-1.2012-0.54095-0.28788-1.309-0.35634-1.9219-0.05664zm0.88086 1.7988c0.05689-0.03202-0.02708-0.04502 0.10156 0.02344 0.13389 0.07126 0.41302 0.30856 0.72656 0.69531 0.62708 0.7735 1.4052 2.0791 2.3438 3.4883 1.8094 2.7166 4.3556 5.8967 8.3359 6.6699-0.95096 0.96284-2.1241 1.6744-3.5195 1.7012-1.9587-0.0026-3.4647-0.71183-4.6953-1.8379-1.2329-1.1282-2.1611-2.6959-2.7637-4.3203-0.60257-1.6244-0.87699-3.3045-0.86914-4.5703 0.0039-0.63288 0.08302-1.163 0.18945-1.4961 0.10524-0.32938 0.22914-0.39247 0.15039-0.35352z" color="#000000" fill="#fff" stroke-linecap="round" stroke-linejoin="round" style="-inkscape-stroke:none"/>
 <path id="path8" d="m13.35 22.939c-1.6065 0-2.9191 0.61735-3.7598 1.6016-0.84071 0.98421-1.2305 2.2431-1.3984 3.543-0.3358 2.5997 0.20137 5.4765 0.70312 7.3633 0.5046 1.8975 1.3762 4.125 3.0293 5.9277 1.653 1.8027 4.1302 3.125 7.5059 3.125 2.4061 0 4.0746-0.78812 5.0781-1.8867 1.0035-1.0986 1.3244-2.4021 1.418-3.3438a1 1 0 0 0-0.89648-1.0938 1 1 0 0 0-1.0938 0.89453c-0.06642 0.66838-0.29784 1.5295-0.9043 2.1934s-1.6076 1.2363-3.6016 1.2363c-2.8743 0-4.7018-1.0268-6.0312-2.4766-1.3294-1.4498-2.1169-3.3774-2.5723-5.0898-0.45824-1.7232-0.92654-4.471-0.65234-6.5938 0.1371-1.0614 0.45626-1.9389 0.93555-2.5 0.47929-0.5611 1.0968-0.90039 2.2402-0.90039 0.74796 0 1.1216 0.27169 1.6562 0.92578 0.53466 0.65409 1.081 1.6777 1.8203 2.7695 1.4787 2.1837 3.9688 4.5762 8.9434 4.5762 2.8664 0 5.2054-0.07031 7.0605-0.07031a1 1 0 0 0 1-1 1 1 0 0 0-1-1c-1.9048 0-4.2269 0.07031-7.0605 0.07031-4.3855 1e-6 -5.9658-1.746-7.2871-3.6973-0.66064-0.97563-1.1949-2.0175-1.9277-2.9141-0.73284-0.89654-1.813-1.6602-3.2051-1.6602z" color="#000000" fill="#fff" stroke-linecap="round" stroke-linejoin="round" style="-inkscape-stroke:none"/>
 <path id="path10" d="m37.848 28.492c-2.038 0.0157-3.5334 0.52725-4.5215 1.3496-1.0033 0.83502-1.4453 1.9483-1.4453 2.9277 0 1.2616 0.98872 2.0981 2.0391 2.6016 1.0503 0.50351 2.3286 0.76953 3.6191 0.76953a1.0001 1.0001 0 0 0 0.02734 0c2.2591-0.05871 4.1488-1.7747 4.4258-4.0176a1.0001 1.0001 0 0 0 0.0059-0.19531c-0.1535-2.1062-2.0572-3.6709-4.1504-3.4355zm0.20508 1.9805c0.96418-0.11958 1.7748 0.56041 1.9023 1.5078-0.2071 1.2099-1.1953 2.1197-2.4336 2.1562-0.99367-3e-3 -2.0356-0.23349-2.7383-0.57031-0.70715-0.33899-0.90234-0.68852-0.90234-0.79688 0-0.3906 0.16291-0.92314 0.72461-1.3906 0.5617-0.46748 1.5709-0.89844 3.3242-0.89844a1.0001 1.0001 0 0 0 0.12305-0.0078z" color="#000000" fill="#fff" stroke-linecap="round" stroke-linejoin="round" style="-inkscape-stroke:none"/>
 <path id="path12" d="m6.0547 3.6309a1.0001 1.0001 0 0 0-0.50391 0.86914v11.84c0 2.1432 0.65134 3.7826 1.7324 4.8652 0.68372 0.6847 1.5169 1.0707 2.3828 1.3418-0.84791 1.2699-1.3759 2.7283-1.123 4.2754a1 1 0 0 0 1.1484 0.82422 1 1 0 0 0 0.82617-1.1484c-0.23421-1.4331 0.30134-2.8796 1.4141-3.8125a1.0001 1.0001 0 0 0-0.54102-1.7598c-1.0808-0.10896-2.0244-0.46294-2.6934-1.1328s-1.1465-1.6963-1.1465-3.4531v-9.9336c3.8512 2.6403 7.0116 6.1765 9.082 10.385a1 1 0 0 0 1.3379 0.45703 1 1 0 0 0 0.45703-1.3398c-2.5139-5.1096-6.4657-9.374-11.369-12.27a1.0001 1.0001 0 0 0-1.0039-0.00781z" color="#000000" fill="#fff" stroke-linecap="round" stroke-linejoin="round" style="-inkscape-stroke:none"/>
 <path id="path14" d="m24.416 16.99c-0.54236-0.07159-1.0892-0.0362-1.6074 0.08203-1.0364 0.23646-1.9956 0.76504-2.8574 1.4121-1.7237 1.2941-3.0756 2.9952-3.5859 4.4805a1.0001 1.0001 0 0 0 0.5 1.2207l7.459 3.709a1.0001 1.0001 0 0 0 1.3223-0.41211s0.96799-1.7481 1.5547-3.7988c0.29335-1.0254 0.5047-2.1355 0.41211-3.2266-0.09259-1.0911-0.56708-2.2383-1.6211-2.9023-0.4972-0.31324-1.0338-0.49286-1.5762-0.56445zm-1.1621 2.0312c0.65107-0.14854 1.1682-0.09392 1.6738 0.22461 0.44599 0.28097 0.63407 0.68027 0.69336 1.3789 0.05929 0.69864-0.08765 1.6194-0.3418 2.5078-0.37486 1.3103-0.74536 1.9467-1.0215 2.4961l-5.5449-2.7578c0.51-0.86372 1.3476-1.9674 2.4395-2.7871 0.70316-0.52793 1.4505-0.91396 2.1016-1.0625z" color="#000000" fill="#fff" stroke-linecap="round" stroke-linejoin="round" style="-inkscape-stroke:none"/>
 <path id="path16" d="m29.707 24.705c-1.7341-0.0034-3.3857 1.1099-3.9238 2.8848a1.0001 1.0001 0 0 0 0.58984 1.2207l5.3594 2.1191a1.0001 1.0001 0 0 0 1.248-0.45508c1.0122-1.8747 0.36171-4.2385-1.4668-5.332a1.0001 1.0001 0 0 0-0.08398-0.04492c-0.55796-0.26623-1.1446-0.39144-1.7227-0.39258zm-0.86914 2.1621c0.51098-0.2255 1.116-0.21928 1.6816 0.0332 0.61217 0.38981 0.82382 1.0405 0.80664 1.7188l-2.9863-1.1816c0.18059-0.1816 0.26785-0.46872 0.49805-0.57031z" color="#000000" fill="#fff" stroke-linecap="round" stroke-linejoin="round" style="-inkscape-stroke:none"/>
 <path id="path18" d="m25.244 26.119a1 1 0 0 0-1.3555 0.40625 1 1 0 0 0 0.4082 1.3555c0.68895 0.37096 1.4056 0.68605 2.1445 0.94336a1 1 0 0 0 1.2734-0.61524 1 1 0 0 0-0.61524-1.2734c-0.63889-0.22247-1.2598-0.49568-1.8555-0.81641z" color="#000000" fill="#fff" stroke-linecap="round" stroke-linejoin="round" style="-inkscape-stroke:none"/>
 <path id="path20" d="m32.551 29.092a1 1 0 0 0-1.3281 0.48828 1 1 0 0 0 0.48633 1.3281c0.92958 0.43054 1.5566 0.75781 1.5566 0.75781a1 1 0 0 0 1.3496-0.42188 1 1 0 0 0-0.42188-1.3496s-0.67216-0.35328-1.6426-0.80273z" color="#000000" fill="#fff" stroke-linecap="round" stroke-linejoin="round" style="-inkscape-stroke:none"/>
 <path id="path22" d="m38.691 21.668c-0.95603 0.06543-1.9045 0.23708-2.8281 0.51367a1 1 0 0 0-0.67188 1.2461 1 1 0 0 0 1.2461 0.66992c1.1428-0.34222 2.3292-0.42591 3.5156-0.38476-0.24833 0.69589-0.46002 1.4042-1.0723 2.2539-0.87327 1.212-1.9601 2.3428-2.5 2.7676a1 1 0 0 0-0.16602 1.4043 1 1 0 0 0 1.4043 0.16797c0.8201-0.64523 1.908-1.8144 2.8848-3.1699 0.97673-1.3555 1.8636-2.8083 1.9062-4.3281a1.0001 1.0001 0 0 0-0.8457-1.0176c-0.95274-0.14817-1.917-0.18848-2.873-0.12305z" color="#000000" fill="#fff" stroke-linecap="round" stroke-linejoin="round" style="-inkscape-stroke:none"/>
 <path id="circle24" d="m22.109 19.939c-1.5511 0-2.8301 1.279-2.8301 2.8301 0 1.5511 1.279 2.8301 2.8301 2.8301s2.8301-1.279 2.8301-2.8301c0-1.5511-1.279-2.8301-2.8301-2.8301zm0 2c0.47024 0 0.83008 0.35984 0.83008 0.83008 0 0.47024-0.35984 0.83008-0.83008 0.83008s-0.83008-0.35984-0.83008-0.83008c0-0.47024 0.35984-0.83008 0.83008-0.83008z" color="#000000" fill="#fff" stroke-linecap="round" stroke-linejoin="round" style="-inkscape-stroke:none"/>
 <path id="path26" d="m29.127 24.703a1 1 0 0 0-0.60938 0.46094 1 1 0 0 0 0.35742 1.3691c0.29544 0.17317 0.36883 0.41311 0.33594 0.67969-0.03289 0.26658-0.16352 0.48196-0.49219 0.57812a1 1 0 0 0-0.67773 1.2402 1 1 0 0 0 1.2402 0.67773c1.0935-0.31995 1.7929-1.2699 1.9141-2.252 0.12116-0.98207-0.32762-2.0743-1.3105-2.6504a1 1 0 0 0-0.75781-0.10352z" color="#000000" fill="#fff" stroke-linecap="round" stroke-linejoin="round" style="-inkscape-stroke:none"/>
 <path id="path28" d="m26.596 26.596a1 1 0 0 0-0.75 1.1992c0.06067 0.26301 0.16577 0.51439 0.31055 0.74219a1 1 0 0 0 1.3809 0.30664 1 1 0 0 0 0.30664-1.3809c-0.02312-0.03638-0.03914-0.07519-0.04883-0.11719a1 1 0 0 0-1.1992-0.75z" color="#000000" fill="#fff" stroke-linecap="round" stroke-linejoin="round" style="-inkscape-stroke:none"/>
 <path id="path30" d="m24.311 10.221c-1.7421 0-3.6558 0.67697-5.2148 1.9707-1.559 1.2937-2.7452 3.2677-2.7852 5.7324a1.0001 1.0001 0 0 0 1.6758 0.75195s3.1742-2.7398 6.1582-2.3926c1.3835 0.16096 2.3021 1.1614 2.9316 2.2617 0.62953 1.1003 0.86719 2.1602 0.86719 2.1602a1.0001 1.0001 0 0 0 1.9512 0.01367c0.68168-2.9052 0.24435-5.4881-0.83594-7.375s-2.8359-3.123-4.748-3.123zm0 2c1.0278 0 2.207 0.71162 3.0117 2.1172 0.36188 0.63209 0.60054 1.4341 0.74609 2.3066-0.84059-1.0987-1.9586-2.1458-3.6934-2.3477-2.1412-0.24912-4.0747 0.48687-5.4844 1.2852 0.365-0.7259 0.87248-1.3454 1.4824-1.8516 1.1885-0.98626 2.7396-1.5098 3.9375-1.5098z" color="#000000" fill="#fff" stroke-linecap="round" stroke-linejoin="round" style="-inkscape-stroke:none"/>
 <path id="path32" d="m33.867 19.17c-2.6961-0.37578-4.6736 1.2232-5.8145 2.7578-1.1409 1.5346-1.6367 3.1309-1.6367 3.1309a1.0001 1.0001 0 0 0 1.1953 1.2715c1.619-0.40374 3.2732-0.65106 4.9395-0.74023 0.76447-0.03053 1.4432 0.44497 1.6758 1.1738a1.0001 1.0001 0 0 0 1.832 0.17188s0.84575-1.51 1.082-3.2559c0.11814-0.87292 0.09978-1.859-0.4043-2.7578-0.50407-0.89877-1.5207-1.564-2.8691-1.752zm-0.27539 1.9805c0.91155 0.12705 1.2088 0.4065 1.4004 0.74805 0.19155 0.34154 0.25038 0.89035 0.16602 1.5137-0.0643 0.47509-0.17756 0.56028-0.32617 0.98047-0.66937-0.5154-1.4755-0.83811-2.3613-0.80273a1.0001 1.0001 0 0 0-0.01367 2e-3c-1.1157 0.0592-2.207 0.30533-3.3066 0.49609 0.209-0.41514 0.16166-0.50118 0.50781-0.9668 0.90915-1.2229 2.1097-2.2249 3.9336-1.9707z" color="#000000" fill="#fff" stroke-linecap="round" stroke-linejoin="round" style="-inkscape-stroke:none"/>
 <path id="path34" d="m29.631 4.2676a1.0001 1.0001 0 0 0-1.2793 1.3262c0.12069 0.28165 0.08576 0.58758 0.1543 0.88086-0.10794-0.1195-0.18308-0.31431-0.29297-0.41797-0.85023-0.80204-1.4964-1.0359-1.7656-1.1504-0.05156-0.021928-0.33789-0.2207-0.33789-0.2207a1.0001 1.0001 0 0 0-1.0566 1.6504c0.0062 0.00599 0.13536 0.22474 0.17578 0.625 0.04042 0.40026 0.01344 0.93242-0.05078 1.4434-0.03662 0.29129-0.06232 0.2971-0.11133 0.55273-0.95547-0.50821-1.9574-0.78378-2.8105-0.74414-1.3144 0.061066-2.3457 0.47852-2.3457 0.47852a1.0001 1.0001 0 0 0 0.3125 1.9277c0.69006 0.04007 1.3318 0.17481 1.752 0.36523 0.42019 0.19042 0.56151 0.36668 0.60938 0.54492a1 1 0 0 0 1.2246 0.70703 1 1 0 0 0 0.70703-1.2266c-0.0167-0.06218-0.07071-0.09689-0.0918-0.15625 0.17857 0.13314 0.38316 0.18619 0.53906 0.38476a1.0001 1.0001 0 0 0 1.748-0.34375s0.29962-1.0346 0.45117-2.2402c0.02726-0.21689 0.0041-0.45513 0.01953-0.68164 0.52259 0.62373 0.93701 1.392 0.78516 2.6035a1.0001 1.0001 0 0 0 1.8613 0.61914c0.06622-0.11635 0.05205-0.25589 0.11133-0.375l0.01367 0.0039c0.0017-0.01352-0.0075-0.02168-0.0059-0.03516 0.56277-1.1439 0.74013-2.3693 0.65625-3.6191 0.29591 0.1902 0.34382 0.13519 0.64648 0.39453 1.0969 0.93988 1.9369 2.1038 1.5098 3.8125a1.0001 1.0001 0 0 0 0.63086 1.0996c-0.18777 1.2959-0.57615 2.5932-1.5371 3.4277a1.0001 1.0001 0 0 0 0.97266 1.7051s0.43754-0.22136 0.58398-0.27539c-0.33522 0.41369-0.67628 0.83046-1.041 1.0781a1.0001 1.0001 0 0 0-0.21875 1.4531c0.06323 0.07896 0.09735 0.17621 0.09961 0.27734a1 1 0 0 0 1.0215 0.97657 1 1 0 0 0 0.97852-1.0215c-0.0047-0.21126-0.15363-0.37937-0.21094-0.58008 1.1395-1.0005 1.9948-2.2935 2.5586-3.4629 0.62064-1.2873 0.90246-2.2494 0.94141-2.3789 0.0021-0.0045 0.0057-0.0072 0.0078-0.01172l-0.0039-2e-3c0.0021-7e-3 0.05664-0.14062 0.05664-0.14062a1.0001 1.0001 0 0 0-1.8652-0.70508c-0.12337 0.26421-0.33592 0.46834-0.51562 0.69727 0.13828-0.65529 0.319-1.3269 0.3457-1.9238 0.0773-1.7281-0.1836-2.919-0.22656-3.1289-2.7e-5 -1.303e-4 2.6e-5 -0.00182 0-0.00195-0.0035-0.017302-0.01953-0.25977-0.01953-0.25977a1.0001 1.0001 0 0 0-1.4238-0.40816c-0.40992-0.64687-0.83111-1.3085-1.3418-1.7461-1.4006-1.2001-2.9219-1.7773-2.9219-1.7773z" color="#000000" fill="#fff" stroke-linecap="round" stroke-linejoin="round" style="-inkscape-stroke:none"/>
 <path id="path36" d="m9.8789 9.5723c-1.071e-4 -1.13e-5 -0.76156 0.23814-0.76172 0.23828-1.575e-4 1.366e-4 -0.15214 0.16573-0.15234 0.16602-4.173e-4 5.711e-4 -0.065796 0.09993-0.078125 0.12305a1.0001 1.0001 0 0 0 0.2207 1.0215c-0.1216-0.09545-0.27541-0.2149-0.27539-0.21484 5.7e-5 1.59e-4 -0.058601-0.31476-0.058594-0.31445 1.52e-5 6.09e-4 0.00565-0.14258 0.00977-0.16992 0.016464-0.10937 0.016601-0.08376 0.015625-0.08008-0.00195 0.0074-0.013802 0.0558-0.03125 0.11719-0.034896 0.12278-0.090628 0.31609-0.1543 0.56055-0.12734 0.48892-0.29016 1.1815-0.41406 1.9707-0.24781 1.5783-0.41525 3.5454 0.46094 5.166a1.0001 1.0001 0 0 0 0.041016 0.06836c1.0224 1.5723 2.5832 2.7207 4.3887 3.2285a1 1 0 0 0 1.2324-0.69141 1 1 0 0 0-0.69141-1.2344c-1.323-0.3721-2.4604-1.2126-3.2188-2.3574-0.44039-0.84729-0.45575-2.4841-0.23828-3.8691 0.03669-0.23369 0.08234-0.37953 0.125-0.59375 0.0033 0.0044 0.0045 0.0034 0.0078 0.0078 0.53068 0.71449 1.1402 1.6128 1.7168 2.5234 0.57664 0.91061 1.1222 1.8354 1.5234 2.5996 0.40124 0.76423 0.64279 1.4857 0.64062 1.4688a1 1 0 0 0 1.1191 0.86523 1 1 0 0 0 0.86523-1.1191c-0.09216-0.72193-0.41765-1.3106-0.85547-2.1445s-1.0039-1.7933-1.6035-2.7402c-0.59961-0.94689-1.2299-1.8779-1.8008-2.6465-0.57088-0.76863-1.0115-1.3407-1.5312-1.7422l0.04883 0.22656c-0.2475-0.19433-0.5507-0.43357-0.55077-0.43358z" color="#000000" fill="#fff" stroke-linecap="round" stroke-linejoin="round" style="-inkscape-stroke:none"/>
 <path id="path38" d="m15.361 17.805c-0.4725 0.31068-1.2603 0.93217-2.002 1.5215s-1.3906 1.1191-1.3906 1.1191a1 1 0 0 0-0.14453 1.4062 1 1 0 0 0 1.4062 0.14453s0.64223-0.52283 1.373-1.1035c0.73082-0.58068 1.598-1.2487 1.8555-1.418a1 1 0 0 0 0.28711-1.3848 1 1 0 0 0-1.3848-0.28516z" color="#000000" fill="#fff" stroke-linecap="round" stroke-linejoin="round" style="-inkscape-stroke:none"/>
</svg>
