<?xml version="1.0" encoding="UTF-8"?>
<svg id="a" version="1.1" viewBox="0 0 48 48" xmlns="http://www.w3.org/2000/svg">
 <defs id="defs1">
  <style id="style1">.p{fill:none;stroke:#fff;stroke-width:2px;stroke-linecap:round;stroke-linejoin:round;}</style>
 </defs>
 <g id="b">
  <g id="c" fill="#fff" stroke-linecap="round" stroke-linejoin="round">
   <path id="d" d="m10.23 13.711c-1.7601-0.27716-3.4542 0.45623-4.4805 1.5762-0.54717 0.59713-0.63718 1.3162-0.64648 1.9902-0.00931 0.67401 0.096777 1.3583 0.23047 1.9941 0.26738 1.2717 0.67188 2.3633 0.67188 2.3633a1.0001 1.0001 0 0 0 0.033203 0.07617s0.43987 0.94454 1.0254 1.9121c0.29276 0.48378 0.62016 0.97588 0.98828 1.3965 0.36812 0.42061 0.73016 0.89864 1.5703 0.92578 0.56111 0.01812 1.0125-0.1439 1.5547-0.38672 0.54222-0.24282 1.1255-0.59114 1.6797-1.0508 0.62446-0.51791 1.1607-1.2385 1.5488-2.0645 0.28745 0.33174 0.37911 0.54407 0.73242 0.90039 0.53159 0.53612 1.1111 1.0539 1.7266 1.4609 0.61546 0.40708 1.2692 0.74639 2.0684 0.7168a1 1 0 0 0 0.96289-1.0371 1 1 0 0 0-1.0352-0.96094c-0.08254 0.0031-0.45379-0.09649-0.89258-0.38672-0.43878-0.29023-0.94159-0.72861-1.4102-1.2012-0.93714-0.94513-1.8082-2.1477-1.8848-2.2832 0.037383 0.066156-0.08106-0.25244-0.16797-0.65234-0.08691-0.3999-0.19205-0.91615-0.35156-1.4668-0.31903-1.1013-0.87012-2.4267-2.1641-3.1855-0.57936-0.33975-1.1731-0.54433-1.7598-0.63672zm-1.3848 2c0.65614-0.14155 1.3973-0.06802 2.1328 0.36328 0.60016 0.35196 0.99522 1.1159 1.2559 2.0156 0.13032 0.44988 0.22471 0.91203 0.31641 1.334 0.08092 0.37234 0.15589 0.69795 0.33594 1.0703 0.02846 0.98274-0.52304 1.8247-1.3066 2.4746-0.40103 0.33261-0.84646 0.59608-1.2207 0.76367s-0.72678 0.21307-0.67188 0.21484c0.33395 0.01079 0.10417 0.0244-0.13086-0.24414-0.23503-0.26854-0.52291-0.68833-0.78125-1.1152-0.50376-0.83246-0.88259-1.6398-0.90234-1.6816-0.011841-0.032355-0.35528-0.96843-0.58203-2.0469-0.11532-0.54847-0.1935-1.1199-0.1875-1.5547 6e-3 -0.43474 0.12941-0.67509 0.12109-0.66602 0.39354-0.42947 0.96496-0.78618 1.6211-0.92773z" stop-color="#000000"/>
   <path id="e" d="m9.6289 23.902a1 1 0 0 0-0.75391 0.12891c-0.27006 0.17012-0.52915 0.58506-0.54688 0.92383-0.01772 0.33877 0.085916 0.55173 0.17383 0.7168 0.17583 0.33014 0.37967 0.54006 0.62109 0.78516 0.48285 0.49019 1.1281 1.0356 1.7852 1.625 0.65703 0.58935 1.3191 1.2165 1.7773 1.7715 0.45828 0.555 0.6269 1.0419 0.625 1.0996-0.02949 0.89448-0.32894 2.6993-0.56836 4.3438-0.11971 0.82222-0.22296 1.6137-0.26758 2.293-0.04462 0.67931-0.17647 1.154 0.2207 1.873 0.27405 0.49616 0.6283 0.78729 1.1074 1.1816 0.47912 0.39435 1.0737 0.81904 1.7383 1.2441 1.3291 0.85019 2.925 1.6961 4.4199 2.1777 1.5292 0.49268 3.9074 0.85186 6.1504 0.72461 1.1215-0.06363 2.2063-0.24533 3.1465-0.67188 0.94016-0.42654 1.7839-1.1838 2.0488-2.2695 0.34622-1.4189 0.80852-2.8206 1.252-3.7129 0.15364-0.30915 0.26589-0.43699 0.38086-0.58789 0.01203 0.07672 0.01278 0.13418 0.07422 0.31055 0.08925 0.25619 0.36016 0.63466 0.69922 0.80859 0.5621 0.28834 0.9274 0.14175 1.2598 0.04492 0.33237-0.09683 0.65664-0.24156 1.0039-0.41992 0.69454-0.35674 1.4658-0.8525 2.2012-1.3809 0.7354-0.52836 1.4236-1.0817 1.9395-1.5781 0.25793-0.2482 0.47218-0.47191 0.65234-0.73633 0.09008-0.13221 0.17936-0.26924 0.24414-0.50195 0.06478-0.23271 0.0829-0.68696-0.20508-1.0391a1.0001 1.0001 0 0 0-0.0293-0.03516s-2.7955-3.1943-5.5957-4.7363c-2.563-1.4114-5.4004-2.7129-5.4004-2.7129a1 1 0 0 0-1.3262 0.49219 1 1 0 0 0 0.49219 1.3262s2.7983 1.2856 5.2695 2.6465c1.895 1.0435 3.8933 3.1061 4.5566 3.8047-0.02234 0.02232-0.0209 0.02766-0.04492 0.05078-0.40567 0.39037-1.0442 0.91186-1.7188 1.3965-0.67453 0.48463-1.3939 0.9394-1.9492 1.2246-0.17916 0.09202-0.29114 0.12878-0.41992 0.17969-0.16215-0.39597-0.39244-0.89763-0.9707-1.207-0.32312-0.17288-0.75185-0.22278-1.0977-0.13477-0.34581 0.08801-0.605 0.26908-0.81641 0.46289-0.42281 0.38763-0.70969 0.86711-0.99023 1.4316-0.56109 1.1291-1.0327 2.6139-1.4023 4.1289-0.09301 0.38121-0.34458 0.6566-0.93359 0.92383-0.58901 0.26723-1.4681 0.44132-2.4336 0.49609-1.931 0.10955-4.2281-0.24759-5.4238-0.63281-1.23-0.39627-2.7401-1.1786-3.957-1.957-0.60846-0.38923-1.1467-0.77933-1.543-1.1055-0.39624-0.32613-0.6605-0.66072-0.62891-0.60352 0.15472 0.28012-0.01226-0.20216 0.02539-0.77539s0.13496-1.3312 0.25195-2.1348c0.23398-1.6071 0.54612-3.3587 0.58594-4.5664 0.0327-0.99342-0.4968-1.7331-1.0801-2.4395-0.58328-0.70638-1.306-1.3761-1.9863-1.9863-0.6803-0.61022-1.3254-1.1655-1.6953-1.541-0.18494-0.18775-0.29623-0.3521-0.2793-0.32031 0.0085 0.0159 0.0706 0.09854 0.05859 0.32812-0.01201 0.22959-0.21972 0.55691-0.38672 0.66211a1 1 0 0 0 0.31446-1.3789 1 1 0 0 0-0.625-0.44141z" stop-color="#000000"/>
   <path id="f" d="m40.139 33.389a1 1 0 0 0-0.76172 0.07813 1 1 0 0 0-0.40234 1.3555c0.68747 1.2684 1.338 2.8225 1.6738 4.2383 0.33579 1.4158 0.30346 2.6595-0.04102 3.3047-0.41124 0.7703-0.70353 0.83152-1.2012 0.90234-0.47208 0.06719-1.1186-0.06626-1.9473 0.22266-0.0081-0.0074 0.0085 0.0081-0.01172-0.01953-0.09342-0.12744-0.19922-0.49164-0.19922-0.61133 0-0.30315-0.05505-0.46614-0.11524-0.69141-0.060175-0.22527-0.13848-0.47455-0.23046-0.7461-0.18396-0.5431-0.42134-1.1717-0.6582-1.7773-0.47372-1.2112-0.94531-2.3242-0.94531-2.3242a1 1 0 0 0-1.3105-0.5293 1 1 0 0 0-0.53125 1.3105s0.4648 1.0928 0.92578 2.2715c0.23049 0.58932 0.45845 1.1997 0.625 1.6914 0.08328 0.24585 0.15131 0.4637 0.19336 0.62109 0.04205 0.1574 0.04687 0.29217 0.04687 0.17383 0 0.61951 0.17133 1.2274 0.58594 1.793 0.2073 0.2828 0.49465 0.5608 0.90234 0.72266 0.4077 0.16186 0.92491 0.159 1.3613-0.01563 0.02553-0.01022 0.70768 0.01422 1.5898-0.11133 0.88216-0.12555 2.0095-0.67686 2.6836-1.9395 0.74092-1.3877 0.61494-3.055 0.22266-4.709-0.39228-1.654-1.1023-3.33-1.8613-4.7305a1 1 0 0 0-0.59375-0.48047z" stop-color="#000000"/>
   <path id="g" d="m20.395 24.455a1 1 0 0 0-0.66016 0.38477s-0.32143 0.41704-0.625 0.94531c-0.15178 0.26414-0.3043 0.55835-0.41992 0.88672s-0.23502 0.6962-0.10938 1.2051c0.14732 0.59474 0.47944 0.94108 0.89062 1.3262 0.4116 0.38548 0.93513 0.75898 1.5586 1.0957 1.2469 0.67344 2.8991 1.1991 4.748 1.1328 0.61907-0.02221 1.1606-0.23422 1.7871-0.52539 0.6265-0.29117 1.2818-0.67933 1.8574-1.1445s1.1018-0.98596 1.3516-1.7422c0.24972-0.75623-0.07367-1.8014-0.81641-2.3457a1 1 0 0 0-1.3965 0.2168 1 1 0 0 0 0.21484 1.3965c0.25022 0.18338 0.13513-8e-3 0.09766 0.10547-0.03748 0.11349-0.29312 0.47993-0.70703 0.81445-0.41391 0.33453-0.95591 0.65822-1.4434 0.88477-0.48744 0.22654-0.9761 0.33836-1.0176 0.33984-1.4222 0.051-2.753-0.36679-3.7266-0.89258-0.48677-0.26289-0.88183-0.55255-1.1406-0.79492-0.2588-0.24237-0.3491-0.48801-0.31445-0.34766 0.04089 0.16563 1e-3 0.08627 0.05273-0.06055 0.05169-0.14682 0.1539-0.35686 0.26758-0.55469 0.22736-0.39565 0.48047-0.73047 0.48047-0.73047a1 1 0 0 0-0.18945-1.4004 1 1 0 0 0-0.74024-0.19531z" stop-color="#000000"/>
   <path id="h" d="m18.068 14.234a1 1 0 0 0-1.1836 0.77148s-0.30887 1.4632-0.57227 3.0449c-0.1317 0.79086-0.25193 1.6112-0.31836 2.3164-0.03322 0.35263-0.05517 0.67546-0.05274 0.9707 0.0024 0.29524-0.01526 0.53218 0.15234 0.91992 0.17222 0.3984 0.61462 1.4831 1.6445 2.5 1.0299 1.0169 2.6615 1.9858 5.1328 2.4082 2.3728 0.40552 4.795 0.54941 6.9121 0.22656s4.0252-1.1338 5.0176-2.8262c1.6363-2.7905 2.1426-5.3613 2.1426-5.3613a1 1 0 0 0-0.78516-1.1758 1 1 0 0 0-1.1758 0.78711s-0.44816 2.2518-1.9062 4.7383c-0.55484 0.94624-1.7986 1.5873-3.5957 1.8613-1.7971 0.27405-4.0507 0.15917-6.2734-0.2207-2.1242-0.36309-3.322-1.1263-4.0645-1.8594-0.74244-0.73305-1.0156-1.4147-1.2129-1.8711 0.07523 0.17404 0.01325 0.04266 0.01172-0.14258-0.0015-0.18524 0.01369-0.45679 0.04297-0.76758 0.05855-0.62157 0.17347-1.4093 0.30078-2.1738 0.25463-1.5291 0.55664-2.9629 0.55664-2.9629a1 1 0 0 0-0.77344-1.1836z" stop-color="#000000"/>
   <path id="i" d="m24.262 3.2148c-1.4936 0.13912-2.635 0.39241-3.5605 0.83398s-1.6127 1.1047-2.0605 1.8789c-0.89574 1.5484-1.0112 3.3615-1.627 5.7246a1 1 0 0 0 0.71484 1.2188 1 1 0 0 0 1.2207-0.71484c0.65437-2.5113 0.87432-4.28 1.4219-5.2266 0.27378-0.47327 0.58563-0.78521 1.1914-1.0742 0.60578-0.28901 1.5264-0.52191 2.8848-0.64844 2.632-0.24516 5.5429 0.38405 7.918 1.3691 2.3751 0.98509 4.2102 2.4327 4.6523 3.2109 0.16034 0.28224 0.2928 1.0548 0.23438 2.0039-0.05842 0.94912-0.25994 2.0656-0.50781 3.1172-0.49576 2.1032-1.1602 3.9297-1.1602 3.9297a1 1 0 0 0 0.5957 1.2832 1 1 0 0 0 1.2832-0.59766s0.69859-1.9164 1.2266-4.1562c0.26398-1.1199 0.48904-2.3231 0.55859-3.4531 0.06956-1.13 0.03187-2.1943-0.49024-3.1133-0.92286-1.6243-3.0031-2.984-5.627-4.0723-2.6238-1.0883-5.7972-1.7998-8.8691-1.5137z" stop-color="#000000"/>
   <path id="j" d="m16.303 11.182c-1.0741 0.04457-1.9603 0.19493-2.6719 0.46875-0.35579 0.13691-0.67218 0.30221-0.95312 0.55664-0.28094 0.25443-0.53972 0.64771-0.56641 1.1191-0.02729 0.48209 0.20712 0.90731 0.45312 1.1699 0.246 0.26261 0.51524 0.43142 0.79883 0.57812 0.56717 0.2934 1.2117 0.49021 1.8496 0.65234 1.2759 0.32426 2.5254 0.47852 2.5254 0.47852l-0.43359-0.49023a1.0001 1.0001 0 0 0 1.5469-0.48828c8.59e-4 0.0426 7e-3 0.062 2e-3 0.0957-0.01513 0.10112-0.05379 0.2058-0.10156 0.2832-0.09555 0.15481-0.19726 0.17516-0.10352 0.13867 0.18749-0.07299 1.0565-0.2497 2.9941-0.09375 1.8021 0.14499 4.5815 0.97299 6.8398 1.7754s4.0195 1.5645 4.0195 1.5645a1.0001 1.0001 0 0 0 1.3809-1.1035c-0.20026-1.056-1.0459-1.7372-2.4668-2.5352-1.421-0.79792-3.5563-1.6941-6.7637-2.7773-3.3104-1.118-6.2015-1.4817-8.3496-1.3926zm0.08203 1.998c1.1831-0.04909 2.7942 0.1614 4.5566 0.52539-1.2931-0.04008-2.4436-0.04961-3.0176 0.17383-0.14424 0.05615-0.2186 0.1832-0.3418 0.26367-0.30898-0.04308-0.9558-0.12185-1.875-0.35547-0.38076-0.09677-0.66969-0.21783-0.9707-0.33398 0.41676-0.11863 0.90164-0.24245 1.6484-0.27344zm2.4629 1.8555s8.74e-4 0.09301 0.0039 0.16406a1.0001 1.0001 0 0 0-0.13476-0.15234zm-1.9707 0.17578c3.69e-4 0.0069-4.09e-4 0.01103 0 0.01758l-0.01367-0.01563z" stop-color="#000000"/>
   <path id="k" d="m33.715 4.9883a1 1 0 0 0-1.3691 0.35156 1 1 0 0 0 0.35156 1.3711s1.2973 0.72426 1.1113 2.2363c-0.11564 0.93985-0.59014 3.224-1.0312 5.2012-0.44111 1.9772-0.84961 3.6914-0.84961 3.6914a1 1 0 0 0 0.74024 1.2051 1 1 0 0 0 1.2051-0.74024s0.41066-1.727 0.85547-3.7207c0.44481-1.9937 0.92075-4.2088 1.0664-5.3926 0.33641-2.7349-2.0801-4.2031-2.0801-4.2031z" stop-color="#000000"/>
   <path id="l" d="m33.191 17.115a1 1 0 0 0-1.248 0.66406 1 1 0 0 0 0.66406 1.25l3.623 1.1074a1 1 0 0 0 1.248-0.66211 1 1 0 0 0-0.66406-1.25z" stop-color="#000000"/>
   <path id="m" d="m28.451 2.5664c-0.43878 0.10749-0.85078 0.40821-1.0527 0.75781-0.40391 0.69921-0.14648 1.3242-0.14648 1.3242a1 1 0 0 0 1.2441 0.67188 1 1 0 0 0 0.43945-0.8125c0.01583-0.0032 0.18773-0.025779 0.54492 0.050781 0.72394 0.15517 0.97783 0.28485 1.0879 0.32422a1 1 0 0 0 0.40039 1.1562 1 1 0 0 0 1.3633-0.375c0.16902-0.29724 0.32202-0.62225 0.32227-1.0566s-0.24942-0.91205-0.55078-1.1719c-0.60273-0.51965-1.2503-0.62975-2.2031-0.83398-0.55091-0.11808-1.0104-0.14265-1.4492-0.035156zm0.71875 1.5117s0.08223 0.036134-0.03906 0.24609c-0.05425 0.093906-0.16415 0.15108-0.18359 0.16406a1 1 0 0 0 0.22265-0.41016z" stop-color="#000000"/>
   <path id="n" d="m22.93 16.805a1 1 0 0 0-1.1816 0.77539s-0.17122 0.82028-0.3418 1.6504c-0.08529 0.41505-0.16999 0.83247-0.23438 1.1523-0.03219 0.15994-0.05857 0.29535-0.07813 0.39648-0.0098 0.05056-0.01891 0.09276-0.02539 0.12891-0.0032 0.01807-0.0045 0.03364-0.0078 0.05469-0.0033 0.02104-0.01367-0.03703-0.01367 0.16992a1 1 0 0 0 1 1 1 1 0 0 0 1-1c0 0.18538-0.0079 0.13185-0.0098 0.12695 0.0035-0.01952 0.01068-0.05384 0.01953-0.09961 0.0177-0.09153 0.0445-0.22546 0.07617-0.38281 0.06334-0.31469 0.14741-0.73082 0.23242-1.1445 0.17002-0.82742 0.3418-1.6465 0.3418-1.6465a1 1 0 0 0-0.77734-1.1816z" stop-color="#000000"/>
   <path id="o" d="m28.836 18.055a1 1 0 0 0-1.2305 0.69922l-0.88867 3.2227a1 1 0 0 0 0.69726 1.2305 1 1 0 0 0 1.2305-0.69922l0.88867-3.2227a1 1 0 0 0-0.69727-1.2305z" stop-color="#000000"/>
  </g>
 </g>
</svg>
