<?xml version="1.0" encoding="UTF-8"?>
<svg id="svg4" version="1.1" viewBox="0 0 48 48" xmlns="http://www.w3.org/2000/svg">
 <defs id="defs1">
  <style id="style1">.a{fill:none;stroke:#fff;stroke-width:2px;stroke-linecap:round;stroke-linejoin:round;}</style>
 </defs>
 <path id="path1" d="m26.164 18.99a1 1 0 0 0-1 1v18.383c1e-6 0.34915 0.07917 0.48309 0.15039 0.65625 0.07122 0.17316 0.15731 0.34308 0.25977 0.52539 0.20492 0.36462 0.47234 0.76886 0.7793 1.1641s0.6478 0.77896 1.0312 1.0996c5e-3 0.0042 0.01453 0.0036 0.01953 0.0078-0.26635 0.13874-0.50855 0.29176-0.84766 0.45508-0.18557 0.08937-0.36915 0.16458-0.47461 0.19531-0.10546 0.03073-0.13026-0.06542 0.18555 0.06445l0.16211 0.08594c-0.7683-0.49616-1.6366-0.81676-2.543-0.93944a1.0001 1.0001 0 0 0-0.17969-0.0078c-0.72816 0.03271-1.1317 0.43957-1.3672 0.61328-0.2355 0.17371-0.27737 0.20051-0.41797 0.19922 0.11897 0.0011-0.16476-0.08488-0.59375-0.32422-0.22417-0.12507-0.65628-0.14881-0.99414-0.25195 0.1143-0.06788 0.26064-0.05879 0.36914-0.13672a1.0001 1.0001 0 0 0 0.31445-0.375c0.40048-0.82167 0.93965-1.5666 1.5938-2.2051a1.0001 1.0001 0 0 0 0.30273-0.7168v-12.145c0-0.59002-0.20464-0.83982-0.30469-1.0859s-0.15625-0.43694-0.15625-0.625 0.01602-0.19798 0.10352-0.35547c0.0875-0.15749 0.35742-0.51206 0.35742-1.0801v-1.9316a1 1 0 0 0-1-1 1 1 0 0 0-1 1v1.9316c0-0.12642 0.03703-0.14906-0.10547 0.10742-0.1425 0.25649-0.35547 0.74329-0.35547 1.3281 0 0.58484 0.17278 1.0572 0.30273 1.377 0.12996 0.3197 0.1582 0.53761 0.1582 0.33398v11.846c-0.55885 0.60526-1.0462 1.2681-1.4395 1.9922-0.36883 0.25108-0.78904 0.41926-1.2344 0.45703l0.08398-0.0039c-0.90927 0-1.2638 0.54014-1.5508 0.88086-0.28694 0.34072-0.47266 0.66797-0.47266 0.66797a1.0001 1.0001 0 0 0-0.13476 0.5c0 0.55362 0.2532 1.1487 0.67773 1.4648s0.87004 0.36267 1.2207 0.35742c0.78933-0.01181 1.0633-0.39857 1.3262-0.59961 0.2629-0.20104 0.51309-0.257 0.26172-0.22852 0.15226-0.01723 0.35441 0.04872 0.70117 0.24219 0.34676 0.19346 0.76251 0.57082 1.5508 0.57812 0.7425 0.0068 1.3115-0.3615 1.6211-0.58984 0.25464-0.18782 0.25912-0.18175 0.22266-0.18555 0.56556 0.09556 1.1131 0.27814 1.5957 0.58984a1.0001 1.0001 0 0 0 0.16406 0.08594c0.53661 0.22067 0.8484 0.08679 1.1328 0.0039 0.28441-0.08288 0.5429-0.19778 0.78516-0.31445 0.30518-0.14698 0.41567-0.21743 0.59766-0.32031 0.627 0.18385 1.2495 0.37938 1.8574 0.61914a1.0001 1.0001 0 0 0 0.24414 0.0625c0.29204 0.0365 0.77899 0.10472 1.2754-0.26758 0.4964-0.3723 0.62109-0.96879 0.62109-1.498 0-0.88644-0.66094-1.4926-1.2578-1.791s-1.2515-0.42188-1.8965-0.42188c0.1868 0 0.01765-2.94e-4 -0.19922-0.18164-0.21687-0.18135-0.4893-0.47744-0.73438-0.79297-0.24507-0.31552-0.46823-0.65249-0.61524-0.91406-0.0735-0.13079-0.12805-0.24477-0.1543-0.30859v-18.277a1 1 0 0 0-1-1z" color="#000000" fill="#fff" stroke-linecap="round" stroke-linejoin="round" style="-inkscape-stroke:none"/>
 <path id="path2" d="m25.223 3.5098c-0.72404-0.078858-1.1866 0.25523-1.5098 0.50195-0.878-0.43274-1.8608-0.61537-2.8008-0.25781a1.0001 1.0001 0 0 0-0.01172 0.00391c-0.79322 0.31352-1.2615 0.8626-1.502 1.3672-0.35324-0.013615-0.48913-0.050765-1.0488 0.00391-0.50498 0.049326-1.0519 0.14152-1.5859 0.34961s-1.0991 0.55275-1.4355 1.1738a1.0001 1.0001 0 0 0-0.05664 0.125c-0.37218 0.99181-0.38517 2.0487-0.20703 3.082-0.60502 0.32169-1.1425 0.7561-1.459 1.3809a1.0001 1.0001 0 0 0-0.0332 0.07031c-0.20063 0.48837-0.17178 1.0514 0 1.4609 0.1148 0.27369 0.29001 0.4235 0.45312 0.59766-0.51161 0.65239-0.9196 1.6711-0.85938 3.1465 0.07203 1.7646 1.3604 2.8214 2.4277 3.2109 0.56248 0.20527 0.7002 0.1479 1.0879 0.18164 0.09564 0.44064 0.2921 0.84617 0.61719 1.1758 0.31857 0.36497 0.82542 0.6222 1.2715 0.61133 0.33717-0.0082 0.54493-0.14392 0.76172-0.26172 0.45582 0.48836 1.0344 0.84293 1.7344 0.875 0.60038 0.03627 1.1655-0.20188 1.5371-0.52148 0.16058-0.1381 0.21685-0.29604 0.33008-0.44726 0.26888 0.128 0.51682 0.29899 0.83203 0.3125 0.94347 0.04043 1.6127-0.47931 2.043-0.96875 0.78517 0.4199 1.9324 0.60601 3.7461 0.29102 2.1442-0.3724 3.4508-1.9537 4.0039-3.4277 0.27655-0.737 0.39158-1.4568 0.33984-2.1152-0.01924-0.24483-0.1022-0.48111-0.18945-0.71875 0.0971-0.11563 0.12548-0.07578 0.21484-0.22656 0.19001-0.32061 0.37449-0.81179 0.22461-1.3691-0.02432-0.09044-0.14409-0.11623-0.18359-0.19922 0.34539-0.44724 0.55746-0.97251 0.48047-1.5371-0.10647-0.7808-0.80986-1.3308-1.6641-1.6113-0.59391-1.9358-1.7319-3.6643-3.3848-4.8516a1.0001 1.0001 0 0 0-0.39648-0.17188c-0.60888-0.11632-1.1321-0.027833-1.582 0.15039-0.55034-0.65619-1.2306-1.188-2.0957-1.3711a1.0001 1.0001 0 0 0-0.09961-0.015625zm-0.24023 2.0117c0.63892 0.16586 1.1546 0.63102 1.3457 1.2676a1.0001 1.0001 0 0 0 1.9531-0.38867s-0.0165 0.079317-0.03711 0.14648l-0.01367-0.00586c0.0053 0.00382 0.0084 0.00984 0.01367 0.013672-0.0085 0.023948 0.0064 0.024406-0.01367 0.050781-0.01725 0.022627 0.09856 0.016648 0.08398 0.023437 1.3647 1.0158 2.3462 2.4628 2.7461 4.1191a1.0001 1.0001 0 0 0 0.93164 0.76367c0.57595 0.02351 0.46953 0.13199 0.4707 0.14062 0.0012 0.0086 0.02016 0.11764-0.21094 0.19922a1.0001 1.0001 0 0 0-0.16406 1.7344c-0.10072 0.10307-0.22656 0.23242-0.22656 0.23242a1.0001 1.0001 0 0 0 0.31055 1.7812c-0.19014-0.05245-0.29412-0.1982-0.30273-0.21484-0.0086-0.01664 0.02618 0.06595 0.03711 0.20508 0.02186 0.27825-0.03722 0.76493-0.2207 1.2539-0.36697 0.97795-1.1207 1.9254-2.4727 2.1602-1.6098 0.27958-2.2957 0.04493-2.5137-0.08203-0.10898-0.06348-0.12368-0.10064-0.12305-0.09961 6.3e-4 1e-3 0.03906 0.13086 0.03906 0.13086a1.0001 1.0001 0 0 0-1.9336-0.14844s-0.09233 0.25572-0.27734 0.5c-0.18502 0.24428-0.32304 0.3575-0.55274 0.34766-0.09878-0.0042-0.0646 5.45e-4 -0.05469 0.0039-0.01073-0.07651-0.0059-0.20898-0.0059-0.20898l-0.0059-2e-3c2.81e-4 -0.0018 0.01563-0.05078 0.01563-0.05078a1.0001 1.0001 0 0 0-1.9648-0.37109s0.0025 0.05237 2e-3 0.05469l-0.01172-2e-3s-0.07705 0.42875-0.25586 0.80078c-0.0894 0.18602-0.20111 0.33569-0.26953 0.39453-0.06842 0.05884-0.04615 0.04939-0.11133 0.04492a1.0001 1.0001 0 0 0-0.0293 0c-0.29413-0.011387-0.52908-0.21616-0.58199-0.50576a1.0001 1.0001 0 0 0-1.7852-0.41797s-0.08354 0.07495-0.13281 0.12695c-0.02454-0.07216-0.08148-0.13499-0.0625-0.21289a1.0001 1.0001 0 0 0-1.0059-1.2363s-0.67772 9e-3 -1.3125-0.22266c-0.63478-0.23165-1.0769-0.47209-1.1152-1.4121-0.04727-1.1579 0.24199-1.6467 0.44922-1.8906 0.20722-0.24388 0.26758-0.23242 0.26758-0.23242a1.0001 1.0001 0 0 0 0.11328-1.8926s-0.26452-0.11882-0.44531-0.27344c-0.0452-0.03865-0.04422-0.04663-0.06641-0.07422 0.19927-0.31875 0.48843-0.57782 0.86133-0.65039a1.0001 1.0001 0 0 0 0.75586-1.3027c-0.28029-0.83002-0.2449-1.7253 0.04297-2.5508 0.04062-0.051552 0.1128-0.13504 0.34766-0.22656 0.27165-0.10586 0.66296-0.18263 1.0527-0.2207 0.77956-0.076147 1.5059-0.00977 1.5059-0.00977a1.0001 1.0001 0 0 0 1.0859-1.1445s-0.0037 0.068149 0.02148 0.00781c0.02485-0.059625 0.06561-0.18799 0.47266-0.35156 0.55053-0.20697 1.1653-0.093972 1.6035 0.29883a1.0001 1.0001 0 0 0 1.4316-0.099609s0.09464-0.1086 0.23047-0.21289c0.10724-0.082335 0.12402-0.078585 0.08789-0.087891z" color="#000000" fill="#fff" stroke-linecap="round" stroke-linejoin="round" style="-inkscape-stroke:none"/>
 <path id="line2" d="m18.113 28.059a1 1 0 0 0-0.5957 0.48047 1 1 0 0 0 0.39844 1.3574l3.1855 1.7363a1 1 0 0 0 1.3574-0.39844 1 1 0 0 0-0.39844-1.3574l-3.1875-1.7363a1 1 0 0 0-0.75977-0.08203z" color="#000000" fill="#fff" stroke-linecap="round" stroke-linejoin="round" style="-inkscape-stroke:none"/>
 <path id="line3" d="m29.783 32.752a1 1 0 0 0-0.75586 0.12305l-3.3926 2.1094a1 1 0 0 0-0.32031 1.377 1 1 0 0 0 1.377 0.32031l3.3906-2.1074a1 1 0 0 0 0.32227-1.377 1 1 0 0 0-0.62109-0.44531z" color="#000000" fill="#fff" stroke-linecap="round" stroke-linejoin="round" style="-inkscape-stroke:none"/>
 <path id="path3" d="m30.961 28.725c-0.92168-0.05909-1.8674 0.29591-2.5059 1.0801-0.29912 0.35828-0.47203 0.82785-0.46094 1.248 0.0112 0.4241 0.16738 0.76144 0.32617 1.0098 0.09418 0.14729 0.11941 0.11923 0.2168 0.22461-0.17882 0.72518-0.1534 1.469 0.22266 2.0547 0.38438 0.5986 1.0716 0.9381 1.8262 1.0664 0.29588 0.56084 0.73399 1.0377 1.3457 1.1582 0.89443 0.17617 1.8275-0.17425 2.6387-0.89062 0.46177-0.4078 0.76082-0.9307 0.8457-1.4473 0.08488-0.51656-0.02882-0.98192-0.18164-1.3379-0.10907-0.25405-0.1609-0.23145-0.28906-0.40625 0.29051-0.55552 0.40351-1.1754 0.12695-1.7734-0.1813-0.4344-0.51402-0.80291-0.87695-0.98438-0.37664-0.18832-0.73924-0.22293-1.0371-0.2168-0.22058 0.0045-0.22374 0.04089-0.39062 0.07617-0.51569-0.47924-1.1289-0.81788-1.8066-0.86133zm-0.125 1.957c0.30057 0.01927 0.59242 0.18562 0.7793 0.49023a1.0001 1.0001 0 0 0 1.2148 0.4082s0.20574-0.06695 0.36914-0.07031c0.04872-1e-3 0.04546 1e-3 0.06055 0.0039a1.0001 1.0001 0 0 0 0.01563 0.03516c0.01996 0.04043 0.01347 0.06501-0.02539 0.08789a1.0001 1.0001 0 0 0-0.16016 1.6074s0.21366 0.21898 0.30664 0.43555c0.04649 0.10828 0.05429 0.17946 0.04687 0.22461-0.0074 0.04515-0.01429 0.10989-0.19726 0.27148-0.47833 0.42243-0.83429 0.44614-0.92774 0.42774-0.09344-0.01841-0.05946 0.06305-0.07422-0.13867a1.0001 1.0001 0 0 0-1.1562-0.91406c-0.31675 0.05105-0.50902-0.07802-0.64453-0.28906-0.13551-0.21104-0.17236-0.44025 0.0059-0.70703a1.0001 1.0001 0 0 0-0.26176-1.377s-0.07076-0.07579-0.12695-0.13672c0.21924-0.23886 0.49596-0.37729 0.77539-0.35938z" color="#000000" fill="#fff" stroke-linecap="round" stroke-linejoin="round" style="-inkscape-stroke:none"/>
 <path id="path4" d="m16.934 23.658c-0.52748 0.05421-0.95303 0.28437-1.2637 0.52734-0.23353 0.18266-0.1997 0.23337-0.3418 0.41211-0.62791-0.145-1.2728-0.09885-1.793 0.33398-0.37904 0.28998-0.65394 0.71157-0.73828 1.1152-0.08745 0.41854-0.02637 0.783 0.05859 1.0742 0.06383 0.21877 0.1013 0.2134 0.18164 0.36914-0.80712 1.4922-0.29252 3.4629 1.3516 4.1797 0.43166 0.19591 0.93179 0.23801 1.3379 0.11719 0.40968-0.12188 0.70138-0.36197 0.9043-0.58203 0.11579-0.12558 0.08316-0.14066 0.16016-0.25977 0.6966 0.0037 1.3778-0.17543 1.8848-0.68359 0.61526-0.56882 0.78045-1.3782 0.68945-2.1816 0.48113-0.43578 0.84108-0.99254 0.79883-1.6309-0.06126-0.92551-0.65757-1.7497-1.584-2.3535-0.52611-0.34288-1.119-0.49171-1.6465-0.4375zm0.20508 1.9883c0.05827-6e-3 0.13366-0.01447 0.34766 0.125 0.55378 0.36092 0.67497 0.70783 0.68164 0.80859 0.0067 0.10077 0.06974 0.06404-0.14453 0.13867a1.0001 1.0001 0 0 0-0.56641 1.3887c0.11931 0.24051 0.06514 0.51804-0.13476 0.69726a1.0001 1.0001 0 0 0-0.05078 0.04883c-0.17806 0.18385-0.44098 0.24532-0.68164 0.1582a1.0001 1.0001 0 0 0-1.2793 0.59766s-0.06947 0.13094-0.13477 0.21484c-0.66392-0.30181-0.826-1.0946-0.31445-1.623a1.0001 1.0001 0 0 0 0.08203-1.293s-0.12078-0.18593-0.16797-0.34766c-0.01612-0.05525-0.0128-0.05977-0.01367-0.07227a1.0001 1.0001 0 0 0 0.04297-0.03516c0.05018-0.04397 0.10232-0.04235 0.15039 0.0039a1.0001 1.0001 0 0 0 1.584-0.26562s0.16266-0.27277 0.36328-0.42969c0.10031-0.07846 0.17806-0.10925 0.23633-0.11524z" color="#000000" fill="#fff" stroke-linecap="round" stroke-linejoin="round" style="-inkscape-stroke:none"/>
</svg>
