<?xml version="1.0" encoding="UTF-8" standalone="no"?>
<svg
   id="Layer_2"
   data-name="Layer 2"
   viewBox="0 0 48 48"
   version="1.1"
   sodipodi:docname="steam_icon_233740.svg"
   xmlns:inkscape="http://www.inkscape.org/namespaces/inkscape"
   xmlns:sodipodi="http://sodipodi.sourceforge.net/DTD/sodipodi-0.dtd"
   xmlns="http://www.w3.org/2000/svg"
   xmlns:svg="http://www.w3.org/2000/svg">
  <sodipodi:namedview
     id="namedview1"
     pagecolor="#ffffff"
     bordercolor="#666666"
     borderopacity="1.0"
     inkscape:showpageshadow="2"
     inkscape:pageopacity="0.0"
     inkscape:pagecheckerboard="0"
     inkscape:deskcolor="#d1d1d1" />
  <defs
     id="defs1">
    <style
       id="style1">.cls-1{fill:none;stroke:#fff;stroke-width:2px;stroke-linecap:round;stroke-linejoin:round;}</style>
  </defs>
  <path
     style="color:#000000;fill:#ffffff;stroke-linecap:round;stroke-linejoin:round;-inkscape-stroke:none"
     d="m 17.5,3.5 a 1.0001,1.0001 0 0 0 -1,1 v 0.859375 h -0.859375 a 1.0001,1.0001 0 0 0 -1,1 v 7.429688 a 1.0001,1.0001 0 0 0 1,1 H 16.5 V 16.5 h -0.859375 a 1.0001,1.0001 0 0 0 -1,1 v 15.710937 h -0.851562 a 1.0001,1.0001 0 0 0 -1,1 v 2.71875 h -0.859375 a 1.0001,1.0001 0 0 0 -1,1 v 3.710938 a 1.0001,1.0001 0 0 0 1,1 h 0.859375 V 43.5 a 1.0001,1.0001 0 0 0 1,1 h 5.570312 A 1.0001,1.0001 0 0 0 20.285156,43.574219 1.0001,1.0001 0 0 0 21.210937,44.5 h 3.71875 a 1.0001,1.0001 0 0 0 1,-1 v -0.859375 h 2.710938 a 1.0001,1.0001 0 0 0 1,-1 v -1.851563 a 1.0001,1.0001 0 0 0 -1,-1 h -2.710938 v -4.578125 a 1.0001,1.0001 0 0 0 -1,-1 h -0.859375 v -4.570312 a 1.0001,1.0001 0 0 0 -1,-1 h -0.859375 v -0.851563 a 1.0001,1.0001 0 0 0 -0.859375,-0.859375 h 1.71875 a 1.0001,1.0001 0 0 0 1,-1 v -4.570312 h 7.289063 v 0.851562 a 1.0001,1.0001 0 0 0 1,1 h 3.710937 a 1.0001,1.0001 0 0 0 1,-1 V 17.5 a 1.0001,1.0001 0 0 0 -1,-1 h -0.859375 v -0.859375 a 1.0001,1.0001 0 0 0 -1,-1 H 24.070312 v -0.851562 a 1.0001,1.0001 0 0 0 -0.859375,-0.859375 h 3.578125 a 1.0001,1.0001 0 0 0 1,-1 v -1.859375 a 1.0001,1.0001 0 0 0 -1,-1.0000005 H 25.929687 V 6.359375 a 1.0001,1.0001 0 0 0 -1,-1 H 24.070312 V 4.5 a 1.0001,1.0001 0 0 0 -1,-1 z m 1,2 h 3.570312 v 0.859375 a 1.0001,1.0001 0 0 0 0.851563,0.8515625 h -1.710938 a 1.0001,1.0001 0 0 0 -1,1 v 1.8593755 a 1.0001,1.0001 0 0 0 0.859375,0.859375 h -1.710937 a 1.0001,1.0001 0 0 0 -1,1 v 1.71875 A 1.0001,1.0001 0 0 0 17.5,12.789063 H 16.640625 V 7.359375 H 17.5 a 1.0001,1.0001 0 0 0 1,-1 z m 4.71875,1.859375 h 0.710937 V 8.0703125 A 1.0001,1.0001 0 0 0 23.21875,7.359375 Z M 24,10.140625 a 1.0001,1.0001 0 0 0 0.789062,0.789063 H 23.210937 A 1.0001,1.0001 0 0 0 24,10.140625 Z m -5.5,3.789063 a 1.0001,1.0001 0 0 0 0.859375,0.859375 h 2.710937 v 0.851562 a 1.0001,1.0001 0 0 0 1,1 H 33.210937 V 17.5 a 1.0001,1.0001 0 0 0 1,1 h 0.859375 v 1.710937 h -1.710937 v -0.851562 a 1.0001,1.0001 0 0 0 -1,-1 h -9.289063 a 1.0001,1.0001 0 0 0 -1,1 v 4.570312 h -2.710937 a 1.0001,1.0001 0 0 0 -1,1 v 1.859375 a 1.0001,1.0001 0 0 0 1,1 h 0.851562 v 0.851563 a 1.0001,1.0001 0 0 0 1,1 h 0.859375 v 4.429687 A 1.0001,1.0001 0 0 0 21.210937,33.210937 H 17.5 a 1.0001,1.0001 0 0 0 -0.859375,0.859375 V 18.5 H 17.5 a 1.0001,1.0001 0 0 0 1,-1 z m -2,20.421874 v 2.578125 h -0.859375 a 1.0001,1.0001 0 0 0 -0.851562,0.851563 v -2.570313 h 0.851562 A 1.0001,1.0001 0 0 0 16.5,34.351562 Z m 5.710937,0 a 1.0001,1.0001 0 0 0 0.859375,0.859375 h 0.859375 v 4.578125 a 1.0001,1.0001 0 0 0 0.925782,0.925782 1.0001,1.0001 0 0 0 -0.925782,0.925781 V 42.5 h -1.71875 z M 18.5,35.210937 h 1.710937 v 6.28125 a 1.0001,1.0001 0 0 0 -0.851562,-0.851562 h -2.71875 V 38.929687 H 17.5 a 1.0001,1.0001 0 0 0 1,-1 z m -3.859375,2.867188 v 3.414062 a 1.0001,1.0001 0 0 0 -0.851562,-0.851562 h -0.859375 v -1.710938 h 0.859375 a 1.0001,1.0001 0 0 0 0.851562,-0.851562 z m 0.148438,3.710937 A 1.0001,1.0001 0 0 0 15.5,42.5 h -0.710937 z"
     id="path1" />
</svg>
