<?xml version="1.0" encoding="UTF-8" standalone="no"?>
<svg
   viewBox="0 0 48 48"
   version="1.1"
   id="svg12"
   sodipodi:docname="steam_icon_544730.svg"
   xmlns:inkscape="http://www.inkscape.org/namespaces/inkscape"
   xmlns:sodipodi="http://sodipodi.sourceforge.net/DTD/sodipodi-0.dtd"
   xmlns="http://www.w3.org/2000/svg"
   xmlns:svg="http://www.w3.org/2000/svg">
  <sodipodi:namedview
     id="namedview12"
     pagecolor="#ffffff"
     bordercolor="#666666"
     borderopacity="1.0"
     inkscape:showpageshadow="2"
     inkscape:pageopacity="0.0"
     inkscape:pagecheckerboard="0"
     inkscape:deskcolor="#d1d1d1" />
  <defs
     id="defs1">
    <style
       id="style1">.a{fill:none;stroke:#fff;stroke-width:2px;stroke-linecap:round;stroke-linejoin:round;}</style>
  </defs>
  <path
     style="color:#000000;fill:#ffffff;stroke-linecap:round;stroke-linejoin:round;-inkscape-stroke:none"
     d="m 24,6.5253906 c -11.30998,0 -20.5,9.1900114 -20.5,20.5000004 a 1.0001,1.0001 0 0 0 1,1 h 39 a 1.0001,1.0001 0 0 0 1,-1 C 44.5,15.715402 35.30998,6.5253906 24,6.5253906 Z m 0,2 c 9.886379,0 17.871581,7.7472884 18.400391,17.5000004 H 5.5996094 C 6.1284194,16.272679 14.113621,8.5253906 24,8.5253906 Z"
     id="path1" />
  <path
     style="color:#000000;fill:#ffffff;stroke-linecap:round;stroke-linejoin:round;-inkscape-stroke:none"
     d="m 6.3300781,17.775391 a 1,1 0 0 0 -1,1 1,1 0 0 0 1,1 h 6.3945309 a 1,1 0 0 0 1,-1 1,1 0 0 0 -1,-1 z"
     id="line1" />
  <path
     style="color:#000000;fill:#ffffff;stroke-linecap:round;stroke-linejoin:round;-inkscape-stroke:none"
     d="m 22.837891,12.130859 a 1,1 0 0 0 -1,1 1,1 0 0 0 1,1 h 14.83789 a 1,1 0 0 0 1,-1 1,1 0 0 0 -1,-1 z"
     id="line2" />
  <path
     style="color:#000000;fill:#ffffff;stroke-linecap:round;stroke-linejoin:round;-inkscape-stroke:none"
     d="m 30.257812,10.160156 a 1,1 0 0 0 -1,1 1,1 0 0 0 1,1 h 5.03711 a 1,1 0 0 0 1,-1 1,1 0 0 0 -1,-1 z"
     id="line3" />
  <path
     style="color:#000000;fill:#ffffff;stroke-linecap:round;stroke-linejoin:round;-inkscape-stroke:none"
     d="m 20.289062,29.078125 a 1,1 0 0 0 -1,1 1,1 0 0 0 1,1 h 6.888672 a 1,1 0 0 0 1,-1 1,1 0 0 0 -1,-1 z"
     id="line4" />
  <path
     style="color:#000000;fill:#ffffff;stroke-linecap:round;stroke-linejoin:round;-inkscape-stroke:none"
     d="m 23.732422,29.078125 a 1,1 0 0 0 -1,1 v 10.396484 a 1,1 0 0 0 1,1 1,1 0 0 0 1,-1 V 30.078125 a 1,1 0 0 0 -1,-1 z"
     id="line5" />
  <path
     style="color:#000000;fill:#ffffff;stroke-linecap:round;stroke-linejoin:round;-inkscape-stroke:none"
     d="m 42.5,29.078125 a 1,1 0 0 0 -1,1 v 7.074219 l -5.052734,-7.626953 a 1.0001,1.0001 0 0 0 -1.833985,0.552734 v 10.396484 a 1,1 0 0 0 1,1 1,1 0 0 0 1,-1 v -7.076172 l 5.052735,7.626954 A 1.0001,1.0001 0 0 0 43.5,40.474609 V 30.078125 a 1,1 0 0 0 -1,-1 z"
     id="polyline5" />
  <path
     style="color:#000000;fill:#ffffff;stroke-linecap:round;stroke-linejoin:round;-inkscape-stroke:none"
     d="M 8.9433594,29.078125 C 6.5011173,29.078196 4.5000709,31.079242 4.5,33.521484 v 3.507813 c 0,2.442285 2.0010739,4.443359 4.4433594,4.443359 2.4423346,7.1e-5 4.4433596,-2.001024 4.4433596,-4.443359 v -0.04102 a 1,1 0 0 0 -1,-1 1,1 0 0 0 -1,1 v 0.04102 c 0,1.361435 -1.081925,2.443399 -2.4433596,2.443359 C 7.5819531,39.472656 6.5,38.390703 6.5,37.029297 v -3.507813 c 3.95e-5,-1.361404 1.0819554,-2.443319 2.4433594,-2.443359 1.3614326,0 2.4433196,1.081927 2.4433596,2.443359 v 0.04297 a 1,1 0 0 0 1,1 1,1 0 0 0 1,-1 v -0.04297 c -7.1e-5,-2.442291 -2.001068,-4.443359 -4.4433596,-4.443359 z"
     id="path5" />
  <path
     style="color:#000000;fill:#ffffff;stroke-linecap:round;stroke-linejoin:round;-inkscape-stroke:none"
     d="m 17.929687,29.128906 a 1,1 0 0 0 -1.265625,0.632813 l -3.449218,10.365234 a 1,1 0 0 0 0.632812,1.265625 1,1 0 0 0 1.263672,-0.632812 L 18.5625,30.394531 a 1,1 0 0 0 -0.632813,-1.265625 z"
     id="line6" />
  <path
     style="color:#000000;fill:#ffffff;stroke-linecap:round;stroke-linejoin:round;-inkscape-stroke:none"
     d="m 17.310547,29.125 a 1,1 0 0 0 -0.650391,1.255859 l 3.306641,10.396485 a 1,1 0 0 0 1.255859,0.65039 1,1 0 0 0 0.650391,-1.257812 L 18.566406,29.775391 A 1,1 0 0 0 17.310547,29.125 Z"
     id="line7" />
  <path
     style="color:#000000;fill:#ffffff;stroke-linecap:round;stroke-linejoin:round;-inkscape-stroke:none"
     d="m 15.310547,35.996094 a 1,1 0 0 0 -1,1 1,1 0 0 0 1,1 h 4.503906 a 1,1 0 0 0 1,-1 1,1 0 0 0 -1,-1 z"
     id="line8" />
  <path
     style="color:#000000;fill:#ffffff;stroke-linecap:round;stroke-linejoin:round;-inkscape-stroke:none"
     d="m 30.121094,29.128906 a 1,1 0 0 0 -1.263672,0.632813 L 25.40625,40.126953 a 1,1 0 0 0 0.632812,1.265625 1,1 0 0 0 1.265625,-0.632812 l 3.449219,-10.365235 a 1,1 0 0 0 -0.632812,-1.265625 z"
     id="line9" />
  <path
     style="color:#000000;fill:#ffffff;stroke-linecap:round;stroke-linejoin:round;-inkscape-stroke:none"
     d="m 29.501953,29.125 a 1,1 0 0 0 -0.648437,1.255859 l 3.30664,10.396485 a 1,1 0 0 0 1.25586,0.65039 1,1 0 0 0 0.65039,-1.257812 L 30.757812,29.775391 A 1,1 0 0 0 29.501953,29.125 Z"
     id="line10" />
  <path
     style="color:#000000;fill:#ffffff;stroke-linecap:round;stroke-linejoin:round;-inkscape-stroke:none"
     d="m 27.501953,35.996094 a 1,1 0 0 0 -1,1 1,1 0 0 0 1,1 h 4.503906 a 1,1 0 0 0 1,-1 1,1 0 0 0 -1,-1 z"
     id="line11" />
  <path
     style="color:#000000;fill:#ffffff;stroke-linecap:round;stroke-linejoin:round;-inkscape-stroke:none"
     d="m 7.3125,15.933594 a 1,1 0 0 0 -1,1 1,1 0 0 0 1,1 h 2.78125 a 1,1 0 0 0 1,-1 1,1 0 0 0 -1,-1 z"
     id="line12" />
</svg>
