<?xml version="1.0" encoding="UTF-8"?>
<svg id="svg33" version="1.1" viewBox="0 0 48 48" xmlns="http://www.w3.org/2000/svg">
 <defs id="defs1">
  <style id="style1">.a{fill:none;stroke:#fff;stroke-width:2px;stroke-linecap:round;stroke-linejoin:round;}</style>
 </defs>
 <path id="path1" d="m36.295 22.836a1 1 0 0 0-1.1875 0.76562 1 1 0 0 0 0.76758 1.1895c0.60962 0.13118 2.3199 1.1785 3.668 2.377 0.67404 0.59924 1.2931 1.2332 1.7363 1.7793 0.44322 0.54612 0.67705 1.0742 0.67773 1.0781a1 1 0 0 0 1.1562 0.8125 1 1 0 0 0 0.81445-1.1562c-0.13462-0.77493-0.55902-1.3348-1.0957-1.9961-0.53668-0.66128-1.2194-1.3544-1.9609-2.0137-1.483-1.3184-3.0658-2.5109-4.5762-2.8359z" fill="#fff" stroke-linecap="round" stroke-linejoin="round"/>
 <path id="path2" d="m23.623 3.7305c-3.6494 0.018913-7.5804 0.62748-10.449 2.082-2.85 1.445-4.9451 3.8037-6.3184 5.9082-0.68662 1.0522-1.1927 2.0413-1.5195 2.8555-0.1634 0.4071-0.28289 0.76882-0.35742 1.0977-0.074535 0.32884-0.18722 0.56751 0 1.0957 0.28494 0.80387 0.91276 1.1847 1.377 1.418 0.46419 0.23326 0.88477 0.33203 0.88477 0.33203a1 1 0 0 0 1.2051-0.74023 1 1 0 0 0-0.73828-1.2051s-0.21309-0.05321-0.45312-0.17383c-0.24003-0.12062-0.38927-0.295-0.39062-0.29883 0.11565 0.32627 0.025998 0.19195 0.066406 0.01367 0.040408-0.17827 0.12936-0.4603 0.26367-0.79492 0.26862-0.66923 0.72055-1.5617 1.3379-2.5078 1.2347-1.8921 3.1349-3.9939 5.5469-5.2168 2.3931-1.2133 6.1323-1.8475 9.5547-1.8652 3.4224-0.017737 6.604 0.69753 7.5938 1.4453 2.552 1.9282 3.609 5.1265 5.0566 8.2676 0.59894 1.2996 0.72356 2.934 0.55664 4.3223-0.08346 0.69411-0.23726 1.3253-0.41406 1.8027-0.1768 0.47745-0.4115 0.79996-0.44922 0.83398a1.0001 1.0001 0 0 0-0.06641 0.06641c-1.3384 1.4606-2.597 2.9935-3.7676 4.5918a1 1 0 0 0 0.2168 1.3984 1 1 0 0 0 1.3965-0.21484c1.1273-1.5393 2.3399-3.0171 3.6289-4.4238l-0.06836 0.06836c0.47573-0.42908 0.74232-0.97135 0.98438-1.625 0.24205-0.65365 0.42468-1.4202 0.52539-2.2578 0.20143-1.6752 0.0854-3.6386-0.72656-5.4004-1.3742-2.9818-2.498-6.6318-5.666-9.0254-1.8703-1.4131-5.1611-1.8685-8.8105-1.8496z" fill="#fff" stroke-linecap="round" stroke-linejoin="round"/>
 <path id="path3" d="m8.9004 15.818c-0.52236 0.01197-0.96095 0.12517-1.3145 0.30274-0.707 0.35513-1.0371 1.043-1.0371 1.043a1 1 0 0 0 0.54102 1.3066 1 1 0 0 0 1.3066-0.54102s-0.07001 0.05783 0.087891-0.02148c0.1579-0.07932 0.57832-0.22359 1.6152 0.11328 0.73333 0.23825 1.7278 1.345 2.1445 2.5996 0.41675 1.2546 0.30478 2.4167-0.42383 3.0547-0.99414 0.87055-1.6315 1.0157-2.1055 0.98438-0.47395-0.031281-0.91748-0.28527-1.3906-0.64844-0.20945-0.16076-0.4283-0.31712-0.81445-0.36328-0.38615-0.046159-0.96185 0.22765-1.166 0.56641-0.40832 0.67751-0.2141 1.069-0.095703 1.543 0.2368 0.94792 0.81626 2.1291 1.7402 3.3125a1 1 0 0 0 1.4023 0.17188 1 1 0 0 0 0.17383-1.4023c-0.41376-0.52992-0.50931-0.91301-0.74609-1.3926 0.25204 0.07578 0.47386 0.18986 0.76367 0.20898 1.0819 0.0714 2.2998-0.37576 3.5547-1.4746 1.5204-1.3314 1.5807-3.4551 1.0039-5.1914s-1.7414-3.3251-3.4219-3.8711c-0.68844-0.22366-1.296-0.31275-1.8184-0.30078z" fill="#fff" stroke-linecap="round" stroke-linejoin="round"/>
 <path id="path4" d="m10.648 26.748a1 1 0 0 0-1.168 0.79688c-0.019585 0.10385-0.00552 0.03408 0.027344 0.0098 0.032863-0.02431 0.023001-7e-3 -0.046875-2e-3 -0.13975 0.01007-0.36133-0.04492-0.36133-0.04492a1 1 0 0 0-1.2695 0.62305 1 1 0 0 0 0.62305 1.2695s0.50625 0.19302 1.1523 0.14648c0.32305-0.02327 0.72112-0.11056 1.0918-0.38477 0.37068-0.27421 0.65263-0.74015 0.74805-1.2461a1 1 0 0 0-0.79688-1.168z" fill="#fff" stroke-linecap="round" stroke-linejoin="round"/>
 <path id="path5" d="m18.004 26.303c-4.4141 0.04283-7.6621 0.43555-7.6621 0.43555a1 1 0 0 0-0.87109 1.1133 1 1 0 0 0 1.1133 0.87305s3.1341-0.3801 7.4395-0.42188c2.0938-0.02032 3.1627 0.23759 3.8477 0.58203 0.68498 0.34444 1.1014 0.84275 1.8477 1.5566 0.41271 0.3948 0.55781 1.0453 0.49219 1.6562-0.03281 0.30548-0.12384 0.58384-0.20508 0.74024-0.08124 0.1564-0.169 0.11567 0.08008 0.04687 0.18584-0.05132-0.1318 0.01339-0.45898 0.02539-0.32718 0.012-0.77115 0.01832-1.2852 0.01953-1.028 0.0024-2.3382-0.01495-3.623-0.03906-2.5698-0.04822-5.043-0.125-5.043-0.125a1 1 0 0 0-1.0293 0.96875 1 1 0 0 0 0.96875 1.0312s2.4815 0.07454 5.0664 0.12305c1.2925 0.02425 2.6099 0.04351 3.6641 0.04102 0.52708-0.0012 0.98835-8e-3 1.3555-0.02148 0.36712-0.01347 0.53326 0.01055 0.91797-0.0957 0.64683-0.17864 0.93917-0.62353 1.1621-1.0527 0.22294-0.4292 0.36082-0.91717 0.41797-1.4492 0.1143-1.0641-0.10957-2.3693-1.0977-3.3145-0.65452-0.62611-1.259-1.3569-2.332-1.8965-1.073-0.53958-2.4997-0.81886-4.7656-0.79688z" fill="#fff" stroke-linecap="round" stroke-linejoin="round"/>
 <path id="path6" d="m17.613 26.699a1 1 0 0 0-1.0703 0.92383s-0.04723 0.56003 0.02344 1.1992c0.03534 0.31959 0.09384 0.66862 0.24414 1.0332 0.1503 0.36458 0.42764 0.81286 0.97461 1.0273a1.0001 1.0001 0 0 0 0.17774 0.05078c0.31094 0.05935 0.8148 0.17342 1.4141 0.10547 0.59926-0.06795 1.4233-0.49209 1.7129-1.291a1.0001 1.0001 0 0 0 0.03125-0.58398c-0.11192-0.446-0.20619-0.88497-0.27148-1.209-0.03265-0.16201-0.05853-0.29517-0.07617-0.38867-0.0088-0.04675-0.01643-0.08242-0.02148-0.10938-0.0025-0.01348-0.0035-0.02495-0.0059-0.03711-0.0012-0.0061-0.0029-0.01138-0.0059-0.02539-0.0015-7e-3 -0.0014-0.01391-0.0078-0.03906-0.0032-0.01258-0.02145-0.07216-0.02148-0.07227-1.7e-5 -5.2e-5 -0.94922 0.31836-0.94922 0.31836s0.54102-0.8418 0.54102-0.8418a1 1 0 0 0-1.5391 0.88672 1 1 0 0 0 0.16406 0.35156c-0.02299-0.01577-0.11328-0.07813-0.11328-0.07813 3.5e-5 1.05e-4 -0.01839-0.06011-0.02148-0.07227-0.0041-0.01631-0.0048-0.01837-0.0059-0.02344 0.0045 0.02424 0.01217 0.0639 0.02148 0.11328 0.01863 0.09876 0.04535 0.23977 0.08008 0.41211 0.03682 0.1827 0.10166 0.4534 0.1543 0.68945-0.1044 0.0017-0.25285-0.01905-0.40234-0.03906-0.03121-0.10088-0.06743-0.22909-0.08594-0.39648-0.04575-0.41382-0.01758-0.83203-0.01758-0.83203a1 1 0 0 0-0.92383-1.0723z" fill="#fff" stroke-linecap="round" stroke-linejoin="round"/>
 <path id="path7" d="m21.33 26.922a1 1 0 0 0-1.0176 0.98047s-0.01084 0.38275 0.07813 0.83008 0.23523 1.1392 1.0215 1.5234a1.0001 1.0001 0 0 0 0.05469 0.02539c0.95386 0.39561 2.066 0.12447 2.7305-0.66602a1 1 0 0 0-0.12305-1.4082 1 1 0 0 0-1.4082 0.12109c-0.08862 0.10543-0.22438 0.10786-0.35352 0.08594 0.01381 4.58e-4 0.06396 0.05292 0.03906-0.07227-0.04025-0.2024-0.03906-0.40234-0.03906-0.40234a1 1 0 0 0-0.98242-1.0176z" fill="#fff" stroke-linecap="round" stroke-linejoin="round"/>
 <path id="path8" d="m16.338 26.578a1 1 0 0 0-0.76367 0.05078c-0.41426 0.20471-0.51053 0.51989-0.55664 0.6875-0.04612 0.16761-0.04862 0.2795-0.04883 0.38477-4.18e-4 0.21052 0.02805 0.39376 0.07031 0.60547 0.06026 0.30189 0.20341 0.6965 0.33984 1.082-0.4093 0.05267-1.1124 0.02243-1.7383-0.12695 2.19e-4 -0.02824-0.0102-0.06149 0.02148-0.19531 0.08557-0.36137 0.3457-0.8125 0.3457-0.8125a1 1 0 0 0-0.31835-1.3789 1 1 0 0 0-1.3789 0.32031s-0.40476 0.612-0.59375 1.4102c-0.09449 0.39908-0.15955 0.88513 0.04297 1.4258 0.20252 0.54065 0.76412 1.019 1.3945 1.1719 0.89073 0.21597 1.8316 0.31343 2.6836 0.16211 0.42598-0.07566 0.86926-0.19419 1.2578-0.60742 0.38855-0.41323 0.47964-1.1788 0.27148-1.6895-0.1962-0.48133-0.31618-0.8988-0.36719-1.1543-0.01907-0.09552-0.02077-0.12829-0.02344-0.15625a1 1 0 0 0-0.0625-0.67578 1 1 0 0 0-0.57617-0.50391z" fill="#fff" stroke-linecap="round" stroke-linejoin="round"/>
 <path id="path9" d="m15.135 30.676c-0.66316-0.03866-1.2509 0.08417-1.4902 0.11133-0.31389 0.03562-0.70535 0.2556-0.89453 0.54297s-0.21459 0.54918-0.2168 0.75195c-0.0044 0.40554 0.09469 0.68696 0.19141 0.96094 0.19344 0.54794 0.45703 1.0215 0.45703 1.0215a1 1 0 0 0 1.3574 0.39844 1 1 0 0 0 0.39844-1.3574s-0.10518-0.24087-0.18359-0.4082c0.08287-0.0041 0.19041-0.02771 0.26367-0.02344 0.26502 0.01545 0.29783 0.05425 0.34961 0.12109-7e-3 0.02766-0.09269 0.29912-0.17578 0.80469a1 1 0 0 0 0.82422 1.1484 1 1 0 0 0 1.1484-0.82422c0.06749-0.41068 0.10834-0.46362 0.16602-0.74414 0.05768-0.28052 0.03549-0.62341-0.03711-1.0273a1.0001 1.0001 0 0 0-0.11328-0.31445c-0.47119-0.83433-1.3818-1.1235-2.0449-1.1621z" fill="#fff" stroke-linecap="round" stroke-linejoin="round"/>
 <path id="path10" d="m21.105 29.869c-0.28279 0.03112-0.61044 0.08974-0.95312 0.32226-0.34268 0.23252-0.63161 0.70719-0.67188 1.1602a1.0001 1.0001 0 0 0-0.0039 0.08008c-0.0085 1.0223 0.23999 2.0304 0.72266 2.9316a1 1 0 0 0 1.3535 0.4082 1 1 0 0 0 0.44922-0.52734 1 1 0 0 0 0.62109 0.64453c0.427 0.0076 0.84246-0.20454 1.0879-0.44727 0.24544-0.24273 0.3806-0.50149 0.48828-0.75781 0.21537-0.51265 0.3125-1.054 0.38672-1.5859 0.1043-0.74757-0.26635-1.581-0.81837-1.9082-0.55202-0.32724-1.0475-0.31445-1.4082-0.31445-0.18221 0-0.68833-0.06811-1.2539-0.0059zm0.47266 1.9902c0.22026 2e-3 0.45891 0.01563 0.78125 0.01563 0.14619 0 0.1597 0.0093 0.22852 0.02148-0.06293 0.41502-0.15042 0.81651-0.23242 1.0117-0.04402 0.10478-0.08628 0.14643-0.05078 0.11133 0.0355-0.03511 0.20772-0.13155 0.35547-0.12891a1 1 0 0 0-0.74219 0.34961c-0.20743-0.43328-0.29367-0.90398-0.33984-1.3809z" fill="#fff" stroke-linecap="round" stroke-linejoin="round"/>
 <path id="path11" d="m13.375 31.699a1 1 0 0 0-0.75195 0.14648s-0.52606 0.33527-0.99414 0.86523c-0.23404 0.26498-0.47843 0.58497-0.61133 1.0449-0.1329 0.45996-0.05973 1.1298 0.31445 1.5918 0.53464 0.66005 1.2976 0.95183 1.9375 1.0371 0.63992 0.08528 1.207 0.02499 1.625 0.01172a1 1 0 0 0 0.9668-1.0312 1 1 0 0 0-1.0312-0.96875c-0.50826 0.01613-0.96766 0.04973-1.2969 0.0059-0.25071-0.03341-0.3619-0.12734-0.49219-0.23828 0.03162-0.05005 0.03163-0.06521 0.08789-0.12891 0.24107-0.27293 0.59766-0.52344 0.59766-0.52344a1 1 0 0 0 0.2832-1.3848 1 1 0 0 0-0.63477-0.42773z" fill="#fff" stroke-linecap="round" stroke-linejoin="round"/>
 <path id="path12" d="m29.742 30.816a1 1 0 0 0-0.64844 0.4043s-0.54526 0.7665-1.1055 1.5566c-0.2801 0.39507-0.5632 0.79489-0.78516 1.1113-0.11098 0.15822-0.20802 0.29599-0.28125 0.40234-0.01153 0.01674-0.01808 0.02795-0.02734 0.04102-0.01181 0.0067-0.01202 0.0082-0.02539 0.01563-0.13197 0.07348-0.33701 0.18138-0.58398 0.30664-0.49394 0.25053-1.1582 0.57382-1.8281 0.89453-0.66997 0.32072-1.3468 0.63926-1.873 0.88281-0.26311 0.12178-0.48884 0.22463-0.6543 0.29883-0.13021 0.05839-0.18755 0.0823-0.18555 0.08398-0.04006 0.0044-0.09168 0.0097-0.16602 0.01563-0.17502 0.01394-0.42636 0.02879-0.72461 0.04297-0.5965 0.02836-1.3851 0.05296-2.1973 0.06055-0.81214 0.0076-1.6498-0.0028-2.3379-0.03906-0.62694-0.03302-1.0896-0.11798-1.2012-0.14062 0.0028-0.03347-0.0025-0.01722 0.0098-0.06641 0.06921-0.27813 0.26562-0.62305 0.26562-0.62305a1 1 0 0 0-0.31644-1.377 1 1 0 0 0-1.3789 0.31641s-0.34077 0.5122-0.51172 1.1992c-0.08547 0.34351-0.14891 0.76203-0.0039 1.2461 0.145 0.48406 0.59268 0.97466 1.1348 1.1719 0.57146 0.2079 1.1423 0.23176 1.8965 0.27148 0.75421 0.03972 1.6233 0.04886 2.4629 0.04102 0.83961-0.0078 1.6476-0.03275 2.2734-0.0625 0.3129-0.01488 0.57812-0.03218 0.78711-0.04883 0.1045-0.0083 0.19515-0.01546 0.27734-0.02539 0.08219-0.0099 0.09926 0.0083 0.32031-0.06641 0.19523-0.06598 0.23667-0.09428 0.41406-0.17383 0.17739-0.07955 0.40791-0.18656 0.67578-0.31055 0.53575-0.24797 1.2182-0.56789 1.8965-0.89258 0.67826-0.32468 1.3503-0.65287 1.8691-0.91602 0.25941-0.13157 0.47836-0.24492 0.65234-0.3418 0.08699-0.04844 0.16219-0.09162 0.23828-0.14062 0.03805-0.0245 0.07613-0.0504 0.12891-0.0918 0.05278-0.0414 0.11676-0.03905 0.27344-0.31055-0.05359 0.09286 0.02056-0.02917 0.08789-0.12695 0.06733-0.09778 0.16039-0.23307 0.26953-0.38867 0.21828-0.3112 0.50023-0.7099 0.7793-1.1035 0.55814-0.78723 1.1035-1.5508 1.1035-1.5508a1 1 0 0 0-0.23438-1.3945 1 1 0 0 0-0.74609-0.17188z" fill="#fff" stroke-linecap="round" stroke-linejoin="round"/>
 <path id="path13" d="m34.486 28.604a1 1 0 0 0-1.4082 0.12891c-1.3498 1.6202-2.9735 2.9919-4.7949 4.0547a1 1 0 0 0-0.35938 1.3672 1 1 0 0 0 1.3691 0.35938c2.0223-1.18 3.8216-2.703 5.3203-4.502a1 1 0 0 0-0.12695-1.4082z" fill="#fff" stroke-linecap="round" stroke-linejoin="round"/>
 <path id="path14" d="m21.98 37.154a1 1 0 0 0-1.4141 0.06445c-0.44202 0.48402-0.83325 1.0098-1.1699 1.5723a1.0001 1.0001 0 0 0-0.08789 0.1875c-0.61322 1.7694-0.24653 3.7346 0.96094 5.166a1 1 0 0 0 1.4082 0.11914 1 1 0 0 0 0.11914-1.4082c-0.73718-0.87392-0.95042-2.0592-0.60352-3.1445 0.25182-0.40466 0.53003-0.79245 0.85156-1.1445a1 1 0 0 0-0.06445-1.4121z" fill="#fff" stroke-linecap="round" stroke-linejoin="round"/>
 <path id="path15" d="m33.633 25.838a1 1 0 0 0-0.82226 1.1484s0.35874 2.1918 0.19141 4.8184c-0.16734 2.6266-0.90283 5.5586-2.7598 7.1035a1 1 0 0 0-0.12891 1.4082 1 1 0 0 0 1.4082 0.12891c2.5703-2.1384 3.2912-5.6348 3.4746-8.5137s-0.21289-5.2715-0.21289-5.2715a1 1 0 0 0-1.1504-0.82226z" fill="#fff" stroke-linecap="round" stroke-linejoin="round"/>
 <path id="path16" d="m28.436 32.953a1 1 0 0 0-0.91602 1.0781 1 1 0 0 0 1.0781 0.91602c-0.35032 0.0284-0.44216-0.07557-0.48633-0.10156-0.04417-0.026-0.03523-0.0228-0.01172-2e-3 0.04703 0.0417 0.15749 0.153 0.28125 0.30469 0.24752 0.30338 0.56754 0.76937 0.84961 1.291 0.56413 1.0433 0.88888 2.3142 0.69531 2.9434a1 1 0 0 0 0.66211 1.25 1 1 0 0 0 1.248-0.66211c0.49273-1.6015-0.15851-3.2116-0.8457-4.4824-0.3436-0.63543-0.7189-1.1848-1.0605-1.6035-0.17082-0.20938-0.32864-0.38344-0.50195-0.53711-0.08666-0.07683-0.17509-0.14948-0.30273-0.22461s-0.28778-0.20248-0.68945-0.16992z" fill="#fff" stroke-linecap="round" stroke-linejoin="round"/>
 <path id="path17" d="m22.941 36.434a1 1 0 0 0-1.1055 0.88281c-0.1288 1.1522-0.10024 2.3163 0.08398 3.4609a1.0001 1.0001 0 0 0 0.15234 0.39258c0.44894 0.68188 1.0823 1.2221 1.8262 1.5586a1 1 0 0 0 1.3223-0.5 1 1 0 0 0-0.49805-1.3223c-0.33958-0.1536-0.60468-0.4196-0.83398-0.71094-0.11957-0.88083-0.16328-1.7722-0.06445-2.6562a1 1 0 0 0-0.88281-1.1055z" fill="#fff" stroke-linecap="round" stroke-linejoin="round"/>
 <path id="path18" d="m29.551 35.209a1 1 0 0 0-0.5625 0.51953c-0.3589 0.77804-1.0699 1.3079-1.8984 1.498-0.5901-0.08532-1.1368-0.37689-1.4629-0.88086a1 1 0 0 0-1.3828-0.29688 1 1 0 0 0-0.29492 1.3828c0.68141 1.0533 1.8128 1.7342 3.0625 1.8438a1.0001 1.0001 0 0 0 0.25-0.0098c1.5549-0.25612 2.8829-1.2683 3.543-2.6992a1 1 0 0 0-0.48828-1.3262 1 1 0 0 0-0.76562-0.03125z" fill="#fff" stroke-linecap="round" stroke-linejoin="round"/>
 <path id="path19" d="m26.139 37.234a1 1 0 0 0-1.2656 0.63086s-0.32845 0.97642-0.6875 2.1016-0.74102 2.3476-0.89062 3.0586a1 1 0 0 0 0.77344 1.1836 1 1 0 0 0 1.1836-0.77148c0.0946-0.44958 0.48599-1.7525 0.83984-2.8613s0.67773-2.0762 0.67773-2.0762a1 1 0 0 0-0.63086-1.2656z" fill="#fff" stroke-linecap="round" stroke-linejoin="round"/>
 <path id="path20" d="m29.4 36.287a1 1 0 0 0-1.1562 0.81445c-0.31037 1.7916-0.4841 3.604-0.52148 5.4219a1 1 0 0 0 0.97852 1.0215 1 1 0 0 0 1.0215-0.98047c0.03531-1.7172 0.19901-3.4287 0.49219-5.1211a1 1 0 0 0-0.81445-1.1562z" fill="#fff" stroke-linecap="round" stroke-linejoin="round"/>
 <path id="path21" d="m19.041 9.7832c-0.89112 0.11927-1.7613 0.39533-2.5684 0.82227l0.02539-0.01367c-0.80114 0.39432-1.2626 0.36924-1.5176 0.31641-0.25502-0.05283-0.23633-0.07031-0.23633-0.07031a1 1 0 0 0-1.4121 0.05273 1 1 0 0 0 0.05274 1.4141s0.49057 0.41771 1.1895 0.5625c0.69888 0.14479 1.6734 0.07731 2.8066-0.48047a1.0001 1.0001 0 0 0 0.02734-0.01367c1.1934-0.63134 2.5712-0.8148 3.8887-0.51953a1 1 0 0 0 1.1953-0.75782 1 1 0 0 0-0.75781-1.1934c-0.89091-0.19967-1.8022-0.23841-2.6934-0.11914z" fill="#fff" stroke-linecap="round" stroke-linejoin="round"/>
 <path id="path22" d="m20.002 11.594c-0.83387 0.0709-1.651 0.32629-2.3906 0.75977l0.0332-0.01758c-1.011 0.54233-2.128 0.68005-3.0391 0.54688-0.91102-0.13318-1.5551-0.5672-1.7324-0.86328a1 1 0 0 0-1.3711-0.3457 1 1 0 0 0-0.34375 1.373c0.6375 1.0646 1.8293 1.6221 3.1582 1.8164 1.3289 0.19427 2.8567-0.0057 4.2734-0.76562a1.0001 1.0001 0 0 0 0.0332-0.01758c0.95956-0.56239 2.1194-0.66185 3.1602-0.26953a1 1 0 0 0 1.2871-0.58398 1 1 0 0 0-0.58203-1.2871c-0.80217-0.30239-1.6525-0.4166-2.4863-0.3457z" fill="#fff" stroke-linecap="round" stroke-linejoin="round"/>
 <path id="path23" d="m18.607 20.428c-0.4354-0.14407-0.9318-0.1068-1.3438 0.16016a1 1 0 0 0-0.29492 1.3828 1 1 0 0 0 0.78516 0.16797 1.0001 1.0001 0 0 0 0.02539 0.05469c0.14403 0.2584 0.36936 0.73414 0.47461 1.0918 0.05262 0.17883 0.06914 0.33093 0.06836 0.35547-7.86e-4 0.02454 0.02166-0.1723 0.20508-0.31055a1 1 0 0 0-0.19727 1.4004 1 1 0 0 0 1.4004 0.19531c0.44207-0.3332 0.578-0.85295 0.58984-1.2227 0.01184-0.3697-0.05801-0.68175-0.14648-0.98242-0.16179-0.54982-0.40142-1.0163-0.59375-1.3711-0.17355-0.45329-0.54126-0.77913-0.97266-0.92188z" fill="#fff" stroke-linecap="round" stroke-linejoin="round"/>
 <path id="path24" d="m15.4 21.58c-0.43456-0.0087-0.98596 0.27831-1.3027 0.7168-0.56962 0.75434-0.608 1.7958-0.07617 2.5801a1 1 0 0 0 1.3906 0.26562 1 1 0 0 0 0.26562-1.3887c-0.05581-0.0823-0.05336-0.17942 0.0078-0.25781a1.0001 1.0001 0 0 0 0.0332-0.04297c0.02724-0.03904-0.18588 0.13039-0.35742 0.12695-0.17154-0.0034-0.32226-0.11133-0.32226-0.11133a1 1 0 0 0 1.3906-0.25391 1 1 0 0 0-0.25195-1.3906s-0.33613-0.23531-0.77734-0.24414z" fill="#fff" stroke-linecap="round" stroke-linejoin="round"/>
 <path id="circle24" d="m26.268 13.785c-3.3509 0-6.0898 2.737-6.0898 6.0879s2.7389 6.0898 6.0898 6.0898 6.0879-2.7389 6.0879-6.0898-2.737-6.0879-6.0879-6.0879zm0 2c2.27 0 4.0879 1.8179 4.0879 4.0879 0 2.27-1.8179 4.0898-4.0879 4.0898-2.27 0-4.0898-1.8198-4.0898-4.0898 0-2.27 1.8198-4.0879 4.0898-4.0879z" fill="#fff" stroke-linecap="round" stroke-linejoin="round"/>
 <path id="path25" d="m33.75 25.311a1 1 0 0 0-0.18945 1.4004s3.9964 5.4077 2.8281 10.797a1 1 0 0 0 0.76562 1.1895 1 1 0 0 0 1.1875-0.76562c1.4182-6.5422-3.1895-12.432-3.1895-12.432a1 1 0 0 0-1.4023-0.18945z" fill="#fff" stroke-linecap="round" stroke-linejoin="round"/>
 <path id="path26" d="m10.67 3.7832a1 1 0 0 0-0.57422 0.50781c-0.89413 1.8285-0.17416 4.0626 1.6191 5.0254a1 1 0 0 0 1.3555-0.4082 1 1 0 0 0-0.4082-1.3535c-0.86459-0.46417-1.2006-1.5032-0.76953-2.3848a1 1 0 0 0-0.45898-1.3379 1 1 0 0 0-0.76367-0.048828z" fill="#fff" stroke-linecap="round" stroke-linejoin="round"/>
 <path id="path27" d="m4.9551 7.2539c-0.36496 0.2099-0.50086 0.48827-0.58984 0.71484-0.088986 0.22658-0.1263 0.43981-0.14258 0.65625-0.032564 0.43289 0.016595 0.88143 0.21875 1.3418 0.20216 0.46037 0.65948 0.99292 1.3418 1.1094 0.68232 0.11645 1.3239-0.17087 1.9238-0.64844 0.35296-0.28098 0.52995-0.32044 0.58789-0.33203 0.030329 0.06474 0.074219 0.1582 0.074219 0.1582a1 1 0 0 0 1.166 0.80274 1 1 0 0 0 0.80078-1.166s-0.06771-0.74351-0.73242-1.3438c-0.33235-0.30012-0.89158-0.52963-1.4629-0.4707s-1.1093 0.33304-1.6797 0.78711c-0.21668 0.17249-0.17271 0.13546-0.20898 0.14844-0.016004-0.084907-0.0406-0.16592-0.035156-0.23828 0.0012-0.015951-5.97e-5 -0.00729 0.00195-0.019531a1 1 0 0 0 0.10157-1.1328 1 1 0 0 0-1.3652-0.36719z" fill="#fff" stroke-linecap="round" stroke-linejoin="round"/>
 <path id="path28" d="m8.1113 10.732c-1.5048-0.42295-3.1186 0.2248-3.9141 1.5703a1 1 0 0 0 0.35156 1.3691 1 1 0 0 0 1.3691-0.35156c0.33906-0.57349 1.011-0.84238 1.6523-0.66211a1 1 0 0 0 1.2324-0.69336 1 1 0 0 0-0.69141-1.2324z" fill="#fff" stroke-linecap="round" stroke-linejoin="round"/>
 <path id="path29" d="m32.672 3.5098c-1.2755 0.18546-2.0555 1.1259-2.5273 1.8867-0.23594 0.3804-0.40848 0.74032-0.53125 1.0039-0.06138 0.13179-0.11164 0.24029-0.14062 0.29883-0.02899 0.058539-0.13073 0.10824 0.11328-0.11914a1 1 0 0 0-0.05078 1.4121 1 1 0 0 0 1.4141 0.050781c0.29684-0.27661 0.26206-0.34533 0.31641-0.45508s0.10336-0.2218 0.16016-0.34375c0.1136-0.2439 0.25219-0.52764 0.41797-0.79492 0.33155-0.53456 0.72008-0.90124 1.1172-0.95898a1 1 0 0 0 0.8457-1.1348 1 1 0 0 0-1.1348-0.8457z" fill="#fff" stroke-linecap="round" stroke-linejoin="round"/>
 <path id="path30" d="m38.51 13.533c-1.2462-0.20517-2.5017 0.3563-3.1797 1.4219a1 1 0 0 0 0.30664 1.3809 1 1 0 0 0 1.3809-0.30664c0.25089-0.39433 0.7068-0.59741 1.168-0.52148a1 1 0 0 0 1.1484-0.82422 1 1 0 0 0-0.82422-1.1504z" fill="#fff" stroke-linecap="round" stroke-linejoin="round"/>
 <path id="circle30" d="m26.803 17.572c-1.0927 0-2 0.90728-2 2 0 1.0927 0.90728 2 2 2 1.0927 0 2-0.90728 2-2 0-1.0927-0.90728-2-2-2z" fill="#fff" stroke-linecap="round" stroke-linejoin="round"/>
 <path id="circle31" d="m9.1523 18.949c-1.068 0-1.9551 0.8871-1.9551 1.9551 0 1.068 0.8871 1.9551 1.9551 1.9551 1.068 0 1.9551-0.8871 1.9551-1.9551 0-1.068-0.8871-1.9551-1.9551-1.9551zm0 1.9102c0.012898 0 0.044922 0.03202 0.044922 0.04492s-0.032024 0.04492-0.044922 0.04492-0.044922-0.03202-0.044922-0.04492 0.032024-0.04492 0.044922-0.04492z" fill="#fff" stroke-linecap="round" stroke-linejoin="round"/>
 <path id="path31" d="m9.7168 15.939c-2.7889 0.17457-4.9632 2.5215-4.9375 5.3125-0.051454 1.6301 0.68706 3.1895 1.9902 4.1719a1 1 0 0 0 1.4004-0.19727 1 1 0 0 0-0.19531-1.4004c-0.7899-0.59544-1.2376-1.5369-1.2012-2.5254a1.0001 1.0001 0 0 0 0-0.05078c-0.0258-1.7568 1.3148-3.2047 3.0684-3.3145a1 1 0 0 0 0.93555-1.0605 1 1 0 0 0-1.0605-0.93555z" fill="#fff" stroke-linecap="round" stroke-linejoin="round"/>
 <path id="path32" d="m13.49 29.381a1 1 0 0 0-0.625 0.44141 1 1 0 0 0 0.30274 1.3398 1 1 0 0 0 0.03125 1.375 1 1 0 0 0 1.4141-0.03125c0.83641-0.87475 0.65588-2.3495-0.36719-2.9961a1 1 0 0 0-0.75586-0.12891z" fill="#fff" stroke-linecap="round" stroke-linejoin="round"/>
 <path id="path33" d="m32.021 23.859c-0.67291 0.48332-1.2449 1.0921-1.6836 1.7949a1.0001 1.0001 0 0 0-0.09375 0.19141c-0.23028 0.63942-0.04806 1.2048 0.0332 1.4922 0.06635 0.23465 0.06006 0.26387 0.05273 0.3125-0.35578 0.61594-0.7819 1.1884-1.3008 1.6758a1 1 0 0 0-0.04492 1.4141 1 1 0 0 0 1.4141 0.04492c0.70795-0.66492 1.307-1.4382 1.7754-2.2891a1.0001 1.0001 0 0 0 0.08008-0.1875c0.19889-0.6447 0.0336-1.2172-0.05078-1.5156-0.0624-0.22069-0.0536-0.19542-0.05664-0.19922 0.28704-0.42287 0.6252-0.81267 1.041-1.1113a1 1 0 0 0 0.22852-1.3945 1 1 0 0 0-1.3945-0.22852z" fill="#fff" stroke-linecap="round" stroke-linejoin="round"/>
</svg>
