<?xml version="1.0" encoding="UTF-8" standalone="no"?>
<svg
   viewBox="0 0 48 48"
   version="1.1"
   id="svg2"
   sodipodi:docname="steam_icon_246620.svg"
   xmlns:inkscape="http://www.inkscape.org/namespaces/inkscape"
   xmlns:sodipodi="http://sodipodi.sourceforge.net/DTD/sodipodi-0.dtd"
   xmlns="http://www.w3.org/2000/svg"
   xmlns:svg="http://www.w3.org/2000/svg">
  <sodipodi:namedview
     id="namedview2"
     pagecolor="#ffffff"
     bordercolor="#666666"
     borderopacity="1.0"
     inkscape:showpageshadow="2"
     inkscape:pageopacity="0.0"
     inkscape:pagecheckerboard="0"
     inkscape:deskcolor="#d1d1d1" />
  <defs
     id="defs1">
    <style
       id="style1">.a{fill:none;stroke:#fff;stroke-width:2px;stroke-linecap:round;stroke-linejoin:round;}</style>
  </defs>
  <path
     style="color:#000000;fill:#ffffff;stroke-linecap:round;stroke-linejoin:round;-inkscape-stroke:none"
     d="m 24,14.083984 c -1.973442,0 -3.946603,0.518325 -5.707031,1.554688 a 1,1 0 0 0 -0.355469,1.36914 1,1 0 0 0 1.369141,0.353516 c 2.897652,-1.705845 6.489066,-1.705845 9.386718,0 A 1,1 0 0 0 30.0625,17.007812 1,1 0 0 0 29.707031,15.638672 C 27.946603,14.602309 25.973442,14.083984 24,14.083984 Z M 13.984375,23.599609 A 1,1 0 0 0 13,24.617187 c 0.07454,4.5897 2.166005,8.155155 5.818359,10.160157 A 1,1 0 0 0 20.175781,34.380859 1,1 0 0 0 19.78125,33.023437 C 16.693611,31.328443 15.065457,28.614276 15,24.583984 a 1,1 0 0 0 -1.015625,-0.984375 z m 19.820312,0.01953 -2.5,0.5 a 1,1 0 0 0 -0.785156,1.177734 1,1 0 0 0 1.175781,0.783203 l 1.199219,-0.240234 c -0.245022,2.994699 -1.886563,5.717524 -4.572265,7.18164 a 1,1 0 0 0 -0.400391,1.357422 1,1 0 0 0 1.357422,0.398438 c 3.71386,-2.024619 5.938673,-6.004362 5.71875,-10.228516 a 1.0001,1.0001 0 0 0 -1.19336,-0.929687 z"
     id="path1" />
  <path
     style="color:#000000;fill:#ffffff;stroke-linecap:round;stroke-linejoin:round;-inkscape-stroke:none"
     d="m 21.828125,5.015625 c -0.03161,0.00554 -0.05637,0.025464 -0.08789,0.03125 l -0.002,-0.011719 c -0.05114,0.013912 -0.08989,0.049692 -0.140625,0.064453 C 16.00555,6.2010649 11.91843,11.0744 11.900391,16.796875 c -0.0014,0.487527 0.07236,0.969587 0.130859,1.453125 -4.2927134,1.906745 -7.1618716,6.093558 -7.1796875,10.839844 -0.020281,1.081269 0.158049,2.152546 0.4550781,3.191406 0.011836,0.06058 0.00425,0.123278 0.017578,0.183594 l 0.00977,-0.002 c 0.00847,0.02783 0.00302,0.05817 0.011719,0.08594 A 1.0001,1.0001 0 0 0 7.2773437,32.035156 C 7.1759698,31.576383 7.1314549,31.106251 7.1484375,30.636719 a 1.0001,1.0001 0 0 0 0.00195,-0.04102 c -0.011522,-3.43389 2.1192442,-5.775357 4.7890624,-6.664062 2.669818,-0.888705 5.779301,-0.290889 7.828125,2.464843 a 1.0001,1.0001 0 0 0 1.115234,0.28125 1.0001,1.0001 0 0 0 -0.345703,1.111328 c 2.089334,4.66501 -1.275199,9.86058 -6.386718,9.861329 a 1.0001,1.0001 0 0 0 -0.01172,0 c -1.843197,0.02013 -3.618592,-0.687043 -4.9433595,-1.96875 A 1.0001,1.0001 0 0 0 7.75,37.0625 c 0.018581,0.02102 0.045757,0.02797 0.064453,0.04883 l -0.00977,0.0078 c 0.038631,0.03737 0.093589,0.04932 0.1328125,0.08594 4.201245,4.565429 11.112136,5.104952 16.044922,1.435547 2.074335,1.562421 4.55394,2.509118 7.164062,2.509766 3.449454,0.03493 6.736815,-1.43742 9.023438,-4.015625 0.0086,-0.0083 0.02074,-0.01117 0.0293,-0.01953 l -0.0039,-0.0039 c 0.01788,-0.02028 0.04084,-0.03428 0.05859,-0.05469 a 1.0001,1.0001 0 0 0 -1.453125,-1.371094 c -1.317072,1.287608 -3.093881,1.994547 -4.935547,1.964844 a 1.0001,1.0001 0 0 0 -0.01563,0 c -3.877834,0 -7,-3.122166 -7,-7 a 1.0001,1.0001 0 0 0 0,-0.0039 c -0.003,-0.95901 0.192889,-1.908017 0.576172,-2.787109 a 1.0001,1.0001 0 0 0 -0.203125,-1.083984 1.0001,1.0001 0 0 0 0.982422,-0.28125 c 2.038721,-2.766292 5.147942,-3.377759 7.822266,-2.498047 2.673786,0.879535 4.813271,3.217091 4.8125,6.652343 -0.0016,0.476875 -0.0594,0.952589 -0.171875,1.416016 a 1.0001,1.0001 0 0 0 1.923828,0.544922 c 0.008,-0.02458 0.0039,-0.05155 0.01172,-0.07617 l 0.0078,0.002 c 0.01646,-0.0678 0.01071,-0.13888 0.02539,-0.207031 0.306742,-1.033293 0.50311,-2.098879 0.503906,-3.177734 -4.99e-4,-4.837048 -2.96464,-9.092838 -7.369141,-10.960938 0.05098,-0.443648 0.117915,-0.887037 0.119141,-1.333984 v -0.002 C 35.914111,11.49257 32.404004,6.7801828 27.302734,5.1933594 27.258504,5.1748309 27.22626,5.1389837 27.181641,5.1210937 l -0.0039,0.011719 c -0.03265,-0.00974 -0.05706,-0.033485 -0.08984,-0.042969 A 1.0001,1.0001 0 0 0 26.4375,6.9785156 c 2.788241,1.1179305 4.608166,3.8143594 4.601562,6.8183594 a 1.0001,1.0001 0 0 0 0,0.0078 c 0.016,3.632447 -2.727262,6.659489 -6.34375,6.999999 a 1.0001,1.0001 0 0 0 -0.703125,0.773438 1.0001,1.0001 0 0 0 -0.783203,-0.873047 c -3.533356,-0.384233 -6.175481,-3.381975 -6.109375,-6.935547 a 1.0001,1.0001 0 0 0 0,-0.02344 C 17.087501,10.57302 19.19989,7.7977586 22.261719,6.9648437 A 1.0001,1.0001 0 0 0 21.828125,5.015625 Z m -6.412109,6.800781 c -0.139722,0.633444 -0.316104,1.256902 -0.314453,1.925782 -0.07309,4.24308 2.934893,7.787478 6.998046,8.679687 v 0.169922 c -0.682928,0.488161 -1.104746,1.150816 -1.255859,1.976562 l -0.08398,0.03906 C 18.19001,21.747359 14.462155,20.982824 11.306641,22.033203 10.310878,22.364664 9.4048367,22.917082 8.5703125,23.574219 9.723908,21.855288 11.383343,20.483926 13.421875,19.740234 A 1.0001,1.0001 0 0 0 14.0625,18.619141 c -0.110438,-0.598933 -0.163831,-1.207379 -0.162109,-1.816407 0.0058,-1.838739 0.632432,-3.49495 1.515625,-4.986328 z m 17.443359,0.783203 c 0.605898,1.318396 1.038167,2.723336 1.03125,4.246094 a 1.0001,1.0001 0 0 0 0,0.002 c -0.0014,0.579146 -0.05286,1.156367 -0.154297,1.726563 a 1.0001,1.0001 0 0 0 0.658203,1.121093 c 2.147098,0.739017 3.873052,2.1825 5.060547,3.990235 -0.853065,-0.679633 -1.779508,-1.251303 -2.802734,-1.587891 -3.171729,-1.043332 -6.912795,-0.259013 -9.472657,2.638672 l -0.234375,-0.09375 c -0.147453,-0.782317 -0.532532,-1.428809 -1.15625,-1.925781 v -0.183594 c 4.151159,-0.846102 7.267141,-4.412153 7.25,-8.734375 7.35e-4,-0.413485 -0.127099,-0.796612 -0.179687,-1.199219 z M 23.904297,23.279297 A 1.0001,1.0001 0 0 0 24.375,24.009766 c 0.509386,0.232199 0.813179,0.750641 0.767578,1.308593 a 1.0001,1.0001 0 0 0 0.40625,0.654297 1.0001,1.0001 0 0 0 -0.800781,0.06836 c -0.492923,0.424066 -1.20239,0.424066 -1.695313,0 a 1.0001,1.0001 0 0 0 -0.695312,-0.05469 1.0001,1.0001 0 0 0 0.279297,-0.777344 c -0.05153,-0.56165 0.274505,-1.077142 0.804687,-1.269531 a 1.0001,1.0001 0 0 0 0.462891,-0.660156 z m 1.324219,4.583984 0.177734,0.105469 c -0.277164,0.876472 -0.559315,1.75867 -0.556641,2.681641 0,4.04432 2.738197,7.347602 6.419922,8.476562 -0.03812,2.8e-5 -0.0712,0.02385 -0.109375,0.02344 a 1.0001,1.0001 0 0 0 -0.0098,0 c -2.383672,1.83e-4 -4.68841,-0.851188 -6.5,-2.400391 a 1.0001,1.0001 0 0 0 -1.296875,-0.002 c -1.743257,1.479947 -3.851288,2.105364 -5.96875,2.226562 4.281152,-1.682205 6.750719,-6.485569 5.253906,-11.08789 0.861356,0.373865 1.735251,0.369996 2.589844,-0.02344 z M 5.1503906,30.564453 c -3.082e-4,0.0085 0.00223,0.01687 0.00195,0.02539 9.2e-6,0.0049 -0.00197,0.0088 -0.00195,0.01367 z m 28.6914064,9.083984 c 0.0028,3e-6 0.005,0.002 0.0078,0.002 h -0.01563 c 0.0027,4.4e-5 0.0051,-0.002 0.0078,-0.002 z"
     id="path2" />
</svg>
