<?xml version="1.0" encoding="UTF-8"?>
<svg id="svg5" version="1.1" viewBox="0 0 48 48" xmlns="http://www.w3.org/2000/svg">
 <defs id="defs1">
  <style id="style1">.a{fill:none;stroke:#fff;stroke-width:2px;stroke-linecap:round;stroke-linejoin:round;}</style>
 </defs>
 <path id="path1" d="m35.662 3.5117a1.0001 1.0001 0 0 0-0.81641 0.75391s-0.51531 2.1289-1.5195 4.5664c-0.957 2.3229-2.4247 4.7846-3.9863 5.9199-7.6096-1.0509-13.732-4.7957-19.639-8.4785a1.0001 1.0001 0 0 0-1.5254 0.75977c-0.48172 5.3896 1.3473 9.7762 2.2305 11.699-0.12431-0.02098-0.25112-0.02529-0.375-0.04883a1.0001 1.0001 0 0 0-1.1582 1.2109c0.59239 2.5095 1.9881 5.4912 2.875 7.3047a1.0001 1.0001 0 0 0-1.2969 1.2344c0.44998 1.4323 1.9904 4.9564 5.375 8.4316 3.3846 3.4752 8.6289 6.8303 16.273 7.6289a1 1 0 0 0 0.16602-0.04883 1 1 0 0 0 0.34766-0.10352 1 1 0 0 0 0.30274-0.21484 1 1 0 0 0 0.13867-0.09961c6.6193-10.674 7.0598-22.414 6.7734-29.172-0.051827-3.8451-1.142-7.6042-3.1582-10.879a1.0001 1.0001 0 0 0-1.0078-0.46484zm0.29297 3.7402c1.093 2.4157 1.8408 4.9738 1.875 7.6426a1.0001 1.0001 0 0 0 0 0.0293c0.27411 6.4407-0.23334 17.451-6.1895 27.451-6.768-0.87367-11.369-3.8136-14.381-6.9062-2.278-2.339-3.433-4.4615-4.1445-6.0137 0.12619 8e-3 0.2444 0.06714 0.37109 0.06836a1.0001 1.0001 0 0 0 0.90039-1.4531s-2.0052-4.1818-3.0234-7.1953c0.17769 0.01846 0.35309 0.05651 0.53125 0.07031a1.0001 1.0001 0 0 0 0.96484-1.457s-2.5117-5.2176-2.6172-10.605c5.6064 3.4706 11.65 7.0111 19.289 7.9492a1.0001 1.0001 0 0 0 0.6543-0.14844c2.3912-1.5101 3.9215-4.4958 4.9902-7.0898 0.51508-1.2502 0.50952-1.4613 0.7793-2.3418z" color="#000000" fill="#fff" stroke-linecap="round" stroke-linejoin="round" style="-inkscape-stroke:none"/>
 <path id="path2" d="m8.7246 11.373a1 1 0 0 0-0.025391 1.4141c2.107 2.1832 6.1868 5.0356 10.74 7.459 4.5534 2.4234 9.5087 4.4009 13.488 4.5293a1.0001 1.0001 0 0 0 0.81445-0.37695s1.189-1.4934 2.5156-3.5762c1.3266-2.0828 2.8145-4.7507 3.4258-7.3008a1 1 0 0 0-0.74024-1.2051 1 1 0 0 0-1.2051 0.74024c-0.50958 2.1257-1.8974 4.6998-3.166 6.6914-1.0887 1.7093-1.7978 2.5925-2.0547 2.9219-3.3229-0.23526-7.9065-1.937-12.139-4.1895-4.4094-2.3468-8.4393-5.216-10.24-7.082a1 1 0 0 0-1.4141-0.02539z" color="#000000" fill="#fff" stroke-linecap="round" stroke-linejoin="round" style="-inkscape-stroke:none"/>
 <path id="path3" d="m32.875 22.779a1 1 0 0 0-0.91211 1.082c0.22351 2.5922 0.04596 7.5428-0.20117 11.773-0.24713 4.2306-0.55469 7.7793-0.55469 7.7793a1 1 0 0 0 0.91211 1.082 1 1 0 0 0 1.082-0.91016s0.3077-3.5724 0.55664-7.834c0.24894-4.2616 0.44821-9.1747 0.19922-12.062a1 1 0 0 0-1.082-0.91016z" color="#000000" fill="#fff" stroke-linecap="round" stroke-linejoin="round" style="-inkscape-stroke:none"/>
 <path id="path4" d="m37.293 23.537a1 1 0 0 0-1.1406 0.83594c-0.23443 1.507-1.964 3.7917-2.6484 6.5781a1 1 0 0 0 0.73242 1.2109 1 1 0 0 0 1.209-0.73438c0.53919-2.1952 2.3062-4.3222 2.6836-6.748a1 1 0 0 0-0.83594-1.1426z" color="#000000" fill="#fff" stroke-linecap="round" stroke-linejoin="round" style="-inkscape-stroke:none"/>
 <path id="path5" d="m15.219 23.828a1.0001 1.0001 0 0 0-0.57812 1.1289c1.0916 4.9982 3.7268 7.1678 6.3906 8.1914 2.6638 1.0236 5.2131 1.1978 6.7012 2.3848a1.0001 1.0001 0 0 0 1.6035-0.98438c-0.39047-1.8953-1.2241-3.2389-2.3066-4.1445-1.0826-0.90564-2.3413-1.3787-3.5918-1.8105-2.5009-0.86378-4.9765-1.5177-6.998-4.4199a1.0001 1.0001 0 0 0-1.2207-0.3457zm2.9648 4.6348c1.5933 0.98433 3.2199 1.545 4.5996 2.0215 1.2048 0.41614 2.2135 0.82625 2.9629 1.4531 0.27819 0.23273 0.50086 0.5468 0.72461 0.86328-1.6022-0.56988-3.2482-0.95296-4.7227-1.5195-1.3746-0.52822-2.5823-1.337-3.5645-2.8184z" color="#000000" fill="#fff" stroke-linecap="round" stroke-linejoin="round" style="-inkscape-stroke:none"/>
</svg>
