<?xml version="1.0" encoding="UTF-8" standalone="no"?>
<svg
   viewBox="0 0 48 48"
   version="1.1"
   id="svg4"
   sodipodi:docname="steam_icon_2280.svg"
   xmlns:inkscape="http://www.inkscape.org/namespaces/inkscape"
   xmlns:sodipodi="http://sodipodi.sourceforge.net/DTD/sodipodi-0.dtd"
   xmlns="http://www.w3.org/2000/svg"
   xmlns:svg="http://www.w3.org/2000/svg">
  <sodipodi:namedview
     id="namedview4"
     pagecolor="#ffffff"
     bordercolor="#666666"
     borderopacity="1.0"
     inkscape:showpageshadow="2"
     inkscape:pageopacity="0.0"
     inkscape:pagecheckerboard="0"
     inkscape:deskcolor="#d1d1d1" />
  <defs
     id="defs1">
    <style
       id="style1">.a{fill:none;stroke:#fff;stroke-width:2px;stroke-linecap:round;stroke-linejoin:round;}</style>
  </defs>
  <path
     style="color:#000000;fill:#ffffff;stroke-linecap:round;stroke-linejoin:round;-inkscape-stroke:none"
     d="m 6.5683594,13.564453 a 1.0001,1.0001 0 0 0 -1,1 v 18.871094 a 1.0001,1.0001 0 0 0 1.5996093,0.800781 l 7.2792973,-5.464844 a 1.0001,1.0001 0 0 0 0.398437,-0.800781 v -13.40625 a 1.0001,1.0001 0 0 0 -1,-1 z m 1,2 h 5.2773436 v 11.908203 l -5.2773436,3.960938 z"
     id="polygon1" />
  <path
     style="color:#000000;fill:#ffffff;stroke-linecap:round;stroke-linejoin:round;-inkscape-stroke:none"
     d="m 15.763672,13.564453 a 1.0001,1.0001 0 0 0 -1,1 v 12.128906 a 1.0001,1.0001 0 0 0 0.400391,0.800782 l 4.912109,3.689453 a 1.0001,1.0001 0 0 0 1.238281,-0.0293 l 2.363281,-1.953125 a 1.0001,1.0001 0 0 0 0.363282,-0.769531 V 14.564453 a 1.0001,1.0001 0 0 0 -1,-1 z m 1,2 h 5.277344 v 12.394531 l -1.392579,1.152344 -3.884765,-2.917969 z"
     id="polygon2" />
  <path
     style="color:#000000;fill:#ffffff;stroke-linecap:round;stroke-linejoin:round;-inkscape-stroke:none"
     d="m 24.958984,13.564453 a 1.0001,1.0001 0 0 0 -1,1 v 13.867188 a 1.0001,1.0001 0 0 0 0.363282,0.769531 l 2.363281,1.953125 a 1.0001,1.0001 0 0 0 1.238281,0.0293 l 4.912109,-3.689453 a 1.0001,1.0001 0 0 0 0.400391,-0.800782 V 14.564453 a 1.0001,1.0001 0 0 0 -1,-1 z m 1,2 h 5.277344 v 10.628906 l -3.884766,2.917969 -1.392578,-1.152344 z"
     id="polygon3" />
  <path
     style="color:#000000;fill:#ffffff;stroke-linecap:round;stroke-linejoin:round;-inkscape-stroke:none"
     d="m 4.5,13.564453 a 1,1 0 0 0 -1,1 1,1 0 0 0 1,1 h 2.0683594 a 1,1 0 0 0 1,-1 1,1 0 0 0 -1,-1 z"
     id="line3" />
  <path
     style="color:#000000;fill:#ffffff;stroke-linecap:round;stroke-linejoin:round;-inkscape-stroke:none"
     d="m 34.154297,13.564453 a 1.0001,1.0001 0 0 0 -1,1 v 13.40625 a 1,1 0 0 0 1,1 1,1 0 0 0 1,-1 v -8.462891 l 1.59375,10.65625 a 1.0001,1.0001 0 0 0 1.978515,0.0059 L 40.431641,19.28125 v 14.154297 a 1,1 0 0 0 1,1 1,1 0 0 0 1,-1 V 14.564453 a 1.0001,1.0001 0 0 0 -1,-1 h -1.273438 a 1.0001,1.0001 0 0 0 -0.986328,0.845703 l -1.412109,9.003906 -1.345704,-8.998046 a 1.0001,1.0001 0 0 0 -0.988281,-0.851563 z"
     id="polyline3" />
  <path
     style="color:#000000;fill:#ffffff;stroke-linecap:round;stroke-linejoin:round;-inkscape-stroke:none"
     d="m 41.431641,13.564453 a 1,1 0 0 0 -1,1 1,1 0 0 0 1,1 H 43.5 a 1,1 0 0 0 1,-1 1,1 0 0 0 -1,-1 z"
     id="line4" />
</svg>
