<?xml version="1.0" encoding="UTF-8"?>
<svg id="a" version="1.1" viewBox="0 0 48 48" xmlns="http://www.w3.org/2000/svg">
 <defs id="defs1">
  <style id="style1">.b{fill:none;stroke:#fff;stroke-width:2px;stroke-linecap:round;stroke-linejoin:round;}</style>
 </defs>
 <path id="circle1" d="m24 1.5c-12.415 0-22.5 10.085-22.5 22.5s10.085 22.5 22.5 22.5 22.5-10.085 22.5-22.5-10.085-22.5-22.5-22.5zm0 2c11.334 0 20.5 9.1663 20.5 20.5s-9.1663 20.5-20.5 20.5-20.5-9.1663-20.5-20.5 9.1663-20.5 20.5-20.5z" fill="#fff" stroke-linecap="round" stroke-linejoin="round"/>
 <path id="polyline1" d="m18.514 12.5a1 1 0 0 0-1 1 1 1 0 0 0 1 1h3.2051l7.9609 20.363a1.0001 1.0001 0 0 0 1.2695 0.57812l3.709-1.3301a1 1 0 0 0 0.60352-1.2793 1 1 0 0 0-1.2793-0.60352l-2.793 1.002-7.8574-20.094a1.0001 1.0001 0 0 0-0.93164-0.63672z" fill="#fff" stroke-linecap="round" stroke-linejoin="round"/>
 <path id="line1" d="m25.318 18.766a1 1 0 0 0-1.377 0.32031l-9.2441 14.887a1 1 0 0 0 0.32031 1.377 1 1 0 0 0 1.377-0.32226l9.2461-14.885a1 1 0 0 0-0.32227-1.377z" fill="#fff" stroke-linecap="round" stroke-linejoin="round"/>
</svg>
