<?xml version="1.0" encoding="UTF-8" standalone="no"?>
<svg
   id="b"
   viewBox="0 0 48 48"
   version="1.1"
   sodipodi:docname="steam_icon_252950.svg"
   xmlns:inkscape="http://www.inkscape.org/namespaces/inkscape"
   xmlns:sodipodi="http://sodipodi.sourceforge.net/DTD/sodipodi-0.dtd"
   xmlns="http://www.w3.org/2000/svg"
   xmlns:svg="http://www.w3.org/2000/svg">
  <sodipodi:namedview
     id="namedview6"
     pagecolor="#ffffff"
     bordercolor="#666666"
     borderopacity="1.0"
     inkscape:showpageshadow="2"
     inkscape:pageopacity="0.0"
     inkscape:pagecheckerboard="0"
     inkscape:deskcolor="#d1d1d1" />
  <defs
     id="defs1">
    <style
       id="style1">.c{fill:none;stroke:#fff;stroke-width:2px;stroke-linecap:round;stroke-linejoin:round;}</style>
  </defs>
  <path
     style="color:#000000;fill:#ffffff;stroke-linecap:round;stroke-linejoin:round;-inkscape-stroke:none"
     d="m 8.7910156,4.0078125 c -3.3866915,0 -6.1542968,2.7656522 -6.1542968,6.1523435 0,3.386692 2.7676053,6.154297 6.1542968,6.154297 3.3866914,0 6.1542974,-2.767605 6.1542974,-6.154297 0,-3.3866913 -2.767606,-6.1523435 -6.1542974,-6.1523435 z m 0,2 c 2.3058124,0 4.1542974,1.8465314 4.1542974,4.1523435 0,2.305813 -1.848485,4.154297 -4.1542974,4.154297 -2.3058124,0 -4.1542968,-1.848484 -4.1542969,-4.154297 10e-8,-2.3058121 1.8484845,-4.1523435 4.1542969,-4.1523435 z"
     id="circle1" />
  <g
     id="g2">
    <path
       style="color:#000000;fill:#ffffff;stroke-linecap:round;stroke-linejoin:round;-inkscape-stroke:none"
       d="m 14.191406,28.439453 c -0.780516,0.02313 -1.431886,0.101836 -1.99414,0.291016 -0.281128,0.09459 -0.549322,0.211483 -0.808594,0.445312 -0.253487,0.228611 -0.481188,0.661788 -0.462891,1.097656 a 1.0001,1.0001 0 0 0 0.125,0.460938 c 3.96138,6.755824 8.444709,10.196979 12.865235,13.09375 a 1.0001,1.0001 0 0 0 1.095703,0 c 2.315528,-1.517429 4.647838,-3.178582 6.914062,-5.390625 a 1.0001,1.0001 0 0 0 0.177735,-1.201172 C 29.559544,32.641424 24.435278,30.240776 20.011719,29.152344 17.799939,28.608128 15.75244,28.3932 14.191406,28.439453 Z m 0.06055,1.998047 c 1.318855,-0.03908 3.232272,0.152092 5.28125,0.65625 3.836039,0.94387 8.032581,3.042647 10.306641,6.449219 -1.748415,1.612548 -3.540536,2.964715 -5.378907,4.189453 -3.917801,-2.607744 -7.655869,-5.610225 -11.117187,-11.175781 0.270141,-0.04848 0.4859,-0.106628 0.908203,-0.119141 z"
       id="path1" />
    <path
       style="color:#000000;fill:#ffffff;stroke-linecap:round;stroke-linejoin:round;-inkscape-stroke:none"
       d="m 24.462891,5.4316406 c -4.389826,-0.00381 -8.099592,0.4929296 -11.369141,1.359375 a 1,1 0 0 0 -0.710937,1.2226563 1,1 0 0 0 1.222656,0.7109375 C 16.696792,7.9053946 20.223642,7.4278091 24.462891,7.4316406 a 1.0001,1.0001 0 0 0 0.002,0 c 7.359697,-0.00666 12.544221,1.4482647 17.068359,3.6386724 -0.462578,5.059944 -1.59764,12.096016 -5.21875,18.380859 -1.455944,2.526866 -2.97778,4.4492 -4.529297,6.146484 -0.690899,-2.112344 -2.071278,-3.848753 -3.792969,-5.234375 -2.24519,-1.806935 -5.053912,-3.09867 -7.820312,-4.148437 -2.7664,-1.049768 -5.50226,-1.854177 -7.556641,-2.601563 -1.02719,-0.373693 -1.884262,-0.73847 -2.455078,-1.072265 C 9.5893405,22.20722 9.3886961,21.907866 9.3808594,21.880859 a 1.0001,1.0001 0 0 0 -0.00391,-0.01367 C 8.6262739,19.406101 8.1285324,16.986152 7.7929687,14.767578 A 1,1 0 0 0 6.65625,13.929688 1,1 0 0 0 5.8164062,15.068359 c 0.3463845,2.290116 0.8595459,4.798895 1.6425782,7.369141 2.69e-4,9.27e-4 0.00168,0.001 0.00195,0.002 0.2527424,0.867134 0.9254019,1.381332 1.6894531,1.828125 0.7648673,0.447271 1.7041924,0.832775 2.7812504,1.224609 2.154114,0.783669 4.857905,1.577342 7.53125,2.591797 2.673344,1.014456 5.306935,2.253673 7.27539,3.837891 1.968456,1.584218 3.260567,3.446042 3.496094,5.894531 a 1.0001,1.0001 0 0 0 1.693359,0.619141 c 2.1225,-2.072028 4.182543,-4.625261 6.119141,-7.986328 4.004951,-6.951042 5.153548,-14.686381 5.587891,-19.902344 A 1.0001,1.0001 0 0 0 43.089844,9.5722656 c -4.907173,-2.4846807 -10.647653,-4.147558 -18.625,-4.140625 z"
       id="path2" />
  </g>
  <path
     style="color:#000000;fill:#ffffff;stroke-linecap:round;stroke-linejoin:round;-inkscape-stroke:none"
     d="m 20.673828,17.316406 c -2.064026,0 -3.757812,1.693787 -3.757812,3.757813 0,2.064026 1.693786,3.759765 3.757812,3.759765 2.064026,0 3.759766,-1.695739 3.759766,-3.759765 0,-2.064026 -1.69574,-3.757813 -3.759766,-3.757813 z m 0,2 c 0.983147,0 1.759766,0.774666 1.759766,1.757813 0,0.983147 -0.776619,1.759765 -1.759766,1.759765 -0.983147,0 -1.757812,-0.776618 -1.757812,-1.759765 0,-0.983147 0.774665,-1.757813 1.757812,-1.757813 z"
     id="circle2" />
  <path
     style="color:#000000;fill:#ffffff;stroke-linecap:round;stroke-linejoin:round;-inkscape-stroke:none"
     d="m 12.808594,15.300781 a 1,1 0 0 0 -0.626953,0.435547 c -0.352572,0.5497 -0.558594,1.208633 -0.558594,1.90625 0,1.940147 1.595009,3.535156 3.535156,3.535156 1.06782,0 2.036379,-0.479104 2.683594,-1.234375 a 1,1 0 0 0 -0.107422,-1.410156 1,1 0 0 0 -1.410156,0.107422 c -0.282384,0.329529 -0.693038,0.537109 -1.166016,0.537109 -0.85925,0 -1.535156,-0.675906 -1.535156,-1.535156 0,-0.308982 0.08896,-0.587272 0.242187,-0.826172 A 1,1 0 0 0 13.5625,15.435547 1,1 0 0 0 12.808594,15.300781 Z"
     id="path3" />
  <path
     style="color:#000000;fill:#ffffff;stroke-linecap:round;stroke-linejoin:round;-inkscape-stroke:none"
     d="m 31.294922,20.580078 c -1.784515,0 -3.253906,1.469391 -3.253906,3.253906 0,1.784515 1.469391,3.251954 3.253906,3.251953 1.784515,0 3.251953,-1.467438 3.251953,-3.251953 0,-1.784515 -1.467438,-3.253906 -3.251953,-3.253906 z m 0,2 c 0.703636,0 1.251953,0.550271 1.251953,1.253906 0,0.703636 -0.548317,1.251953 -1.251953,1.251953 -0.703636,0 -1.253906,-0.548317 -1.253906,-1.251953 0,-0.703635 0.55027,-1.253906 1.253906,-1.253906 z"
     id="circle3" />
  <path
     style="color:#000000;fill:#ffffff;stroke-linecap:round;stroke-linejoin:round;-inkscape-stroke:none"
     d="m 21.955078,13.230469 c -0.810954,0.05628 -1.461494,0.212623 -1.976562,0.412109 -0.490425,0.189941 -0.836191,0.417158 -1.089844,0.619141 l -5.386719,-0.726563 a 1.0001,1.0001 0 0 0 -0.923828,0.38086 L 11.546875,15.25 a 1.0001,1.0001 0 0 0 0.271484,1.464844 l 0.646485,0.392578 5.052734,3.751953 a 1,1 0 0 0 1.398438,-0.207031 1,1 0 0 0 -0.207032,-1.398438 l -4.912109,-3.648437 0.0098,-0.01172 5.279296,0.712891 a 1.0001,1.0001 0 0 0 0.957032,-0.423828 c 0,0 -0.03848,0.03674 0.05859,-0.04297 0.09708,-0.07971 0.282992,-0.209405 0.59961,-0.332031 0.633236,-0.245253 1.809688,-0.472288 3.847656,-0.117188 2.816221,0.490686 4.110108,1.221104 4.810547,1.890625 0.700439,0.669521 0.878515,1.368117 1.400391,2.244141 a 1.0001,1.0001 0 0 0 0.859375,0.488281 c 0.0071,0 0.05754,0.02576 0.06836,0.02734 -0.35438,0.25057 -0.707636,0.504854 -1.035156,0.783203 a 1,1 0 0 0 -0.115235,1.410156 1,1 0 0 0 1.410157,0.113281 c 0.781948,-0.664552 1.681539,-1.216941 2.130859,-1.316406 a 1.0001,1.0001 0 0 0 0.408203,-1.755859 c 0,0 -0.376838,-0.303818 -0.886719,-0.603516 -0.320807,-0.188564 -0.80752,-0.282618 -1.246093,-0.414063 -0.30187,-0.587782 -0.654347,-1.507135 -1.611329,-2.421874 -1.070034,-1.022803 -2.801935,-1.885003 -5.849609,-2.416016 -1.155863,-0.2014 -2.126546,-0.245729 -2.9375,-0.189453 z"
     id="path4" />
  <path
     style="color:#000000;fill:#ffffff;stroke-linecap:round;stroke-linejoin:round;-inkscape-stroke:none"
     d="m 23.644531,20.910156 a 1,1 0 0 0 -1.271484,0.619141 1,1 0 0 0 0.61914,1.271484 l 5.722657,1.978516 a 1,1 0 0 0 1.271484,-0.619141 1,1 0 0 0 -0.617187,-1.271484 z"
     id="line4" />
  <path
     style="color:#000000;fill:#ffffff;stroke-linecap:round;stroke-linejoin:round;-inkscape-stroke:none"
     d="m 34.339844,20.443359 c -0.82425,0.0277 -1.661609,0.134158 -2.501953,0.25586 a 1,1 0 0 0 -0.845704,1.132812 1,1 0 0 0 1.132813,0.845703 c 1.617109,-0.234195 3.072564,-0.342612 4.160156,-0.07617 1.087593,0.266441 1.850585,0.785637 2.464844,2.197266 A 1,1 0 0 0 40.066406,25.316406 1,1 0 0 0 40.583984,24 c -0.818139,-1.880168 -2.24946,-2.956488 -3.822265,-3.341797 -0.786403,-0.192654 -1.597626,-0.242539 -2.421875,-0.214844 z"
     id="path5" />
  <path
     style="color:#000000;fill:#ffffff;stroke-linecap:round;stroke-linejoin:round;-inkscape-stroke:none"
     d="m 32.613281,24.330078 a 1,1 0 0 0 -0.4375,1.34375 c 0.38983,0.765968 1.085063,1.121444 1.773438,1.378906 0.688375,0.257463 1.438189,0.403955 2.15039,0.501953 1.424404,0.195997 2.720703,0.181641 2.720703,0.181641 a 1,1 0 0 0 0.990235,-1.009766 1,1 0 0 0 -1.009766,-0.990234 c 0,0 -1.17934,0.0077 -2.427734,-0.164062 -0.624197,-0.08589 -1.259783,-0.219457 -1.722656,-0.392579 -0.462874,-0.173121 -0.684037,-0.397628 -0.691407,-0.412109 a 1,1 0 0 0 -1.345703,-0.4375 z"
     id="path6" />
</svg>
