<?xml version="1.0" encoding="UTF-8" standalone="no"?>
<svg
   id="b"
   viewBox="0 0 48 48"
   version="1.1"
   sodipodi:docname="steam_icon_404790.svg"
   xmlns:inkscape="http://www.inkscape.org/namespaces/inkscape"
   xmlns:sodipodi="http://sodipodi.sourceforge.net/DTD/sodipodi-0.dtd"
   xmlns="http://www.w3.org/2000/svg"
   xmlns:svg="http://www.w3.org/2000/svg">
  <sodipodi:namedview
     id="namedview4"
     pagecolor="#ffffff"
     bordercolor="#666666"
     borderopacity="1.0"
     inkscape:showpageshadow="2"
     inkscape:pageopacity="0.0"
     inkscape:pagecheckerboard="0"
     inkscape:deskcolor="#d1d1d1" />
  <defs
     id="defs1">
    <style
       id="style1">.c{fill:#fff;}.d{fill:none;stroke:#fff;stroke-width:2px;stroke-linecap:round;stroke-linejoin:round;}</style>
  </defs>
  <g
     id="g4">
    <path
       class="c"
       d="m32.1691,23.9717c-.4142,0-.7498.336-.7498.7502s.3356.7498.7498.7498c.4146,0,.7501-.3357.7501-.7498s-.3355-.7502-.7501-.7502Z"
       id="path1" />
    <g
       id="g3">
      <path
         style="color:#000000;fill:#ffffff;stroke-linecap:round;stroke-linejoin:round;-inkscape-stroke:none"
         d="M 7.7675781,29.328125 A 1,1 0 0 0 6.7597656,30.320312 L 6.75,31.615234 a 1.0001,1.0001 0 0 0 0,0.01367 c 0.00252,0.585852 0.00977,1.250128 0.00977,1.337891 0,3.275299 2.1693445,5.767489 5.3105474,7.269531 3.141202,1.502042 7.317708,2.192831 11.914062,2.208984 a 1.0001,1.0001 0 0 0 0.0039,0 h 0.02148 a 1.0001,1.0001 0 0 0 0.0039,0 c 4.59641,-0.0161 8.773385,-0.706892 11.914062,-2.208984 3.140678,-1.502092 5.308594,-3.994366 5.308594,-7.269531 0,-0.14192 -0.0025,-2.066645 0,-2.634766 a 1,1 0 0 0 -0.994141,-1.003906 1,1 0 0 0 -1.005859,0.996094 c -0.0027,0.593678 0,2.526498 0,2.642578 0,2.429729 -1.447358,4.161789 -4.171875,5.464844 -2.724087,1.302849 -6.660543,1.998063 -11.054687,2.013671 h -0.01758 -0.0039 C 19.595017,40.429443 15.657852,39.734311 12.933594,38.431641 10.208477,37.12856 8.7597656,35.396392 8.7597656,32.966797 c 0,-0.163957 -0.00722,-0.764086 -0.00977,-1.333985 v -0.0059 c -1.47e-5,-0.0033 1.44e-5,-0.0045 0,-0.0078 l 0.00977,-1.283204 A 1,1 0 0 0 7.7675781,29.328125 Z"
         id="path2" />
      <path
         style="color:#000000;fill:#ffffff;stroke-linecap:round;stroke-linejoin:round;-inkscape-stroke:none"
         d="m 20.019531,5.578125 c -1.745689,0.3881375 -3.497962,0.9338903 -5.162109,1.7714844 a 1.0001,1.0001 0 0 0 -0.550781,0.9179687 c 0.03079,1.1904426 0.133959,2.3478659 0.267578,3.5156249 -0.45008,0.269799 -0.909233,0.520483 -1.400391,0.914063 -0.0016,0.0013 -0.0023,0.0026 -0.0039,0.0039 -0.36538,0.280707 -0.766004,0.628192 -1.160156,0.958984 C 11.120838,13.098739 10.216927,12.542265 9.2636719,12.0625 a 1.0001,1.0001 0 0 0 -1.1816406,0.212891 c -1.2609561,1.357044 -2.4563995,2.840058 -3.4433594,4.519531 a 1.0001,1.0001 0 0 0 0.00977,1.033203 c 0.6626148,1.07188 1.3677479,2.073622 2.1113281,3.042969 v 9.457031 a 1.0001,1.0001 0 0 0 0.9960938,1 c -0.00813,-4.5e-5 -0.019948,-3.05e-4 -0.037109,-0.002 l 5.708984,0.548828 0.164063,2.355469 a 1.0001,1.0001 0 0 0 0.927734,0.927734 l 5.240235,0.373047 a 1.0001,1.0001 0 0 0 1.058593,-0.851563 l 0.316407,-2.144531 h 5.730468 l 0.314453,2.144531 a 1.0001,1.0001 0 0 0 1.060547,0.851563 l 5.240235,-0.373047 a 1.0001,1.0001 0 0 0 0.927734,-0.927734 L 34.570312,31.875 40.248047,31.328125 a 1.0001,1.0001 0 0 0 0.988281,-1 v -0.04297 l -0.703125,0.216797 a 1.0001,1.0001 0 0 0 0.705078,-0.957031 v -8.671875 c 0.744275,-0.97014 1.448116,-1.972626 2.111328,-3.044922 a 1.0001,1.0001 0 0 0 0.01172,-1.033203 C 42.388114,15.138207 41.20664,13.679528 39.964844,12.337891 a 1.0001,1.0001 0 0 0 -0.0098,-0.01367 c -0.0136,-0.01468 -0.0235,-0.03418 -0.03711,-0.04883 l -0.01172,0.02539 a 1.0001,1.0001 0 0 0 -0.720703,-0.34375 h -0.002 a 1.0001,1.0001 0 0 0 -0.410157,0.269532 L 38.734375,12.0625 c -0.952787,0.479572 -1.855061,1.036149 -2.744141,1.597656 -0.393861,-0.330813 -0.793668,-0.677855 -1.160156,-0.958984 l -0.0039,-0.0039 c -0.49171,-0.394313 -0.950737,-0.642509 -1.400391,-0.91211 0.133454,-1.168235 0.236599,-2.3265142 0.267578,-3.5175779 A 1.0001,1.0001 0 0 0 33.142578,7.3496094 C 31.47834,6.5119168 29.725199,5.9661735 27.978516,5.578125 A 1.0001,1.0001 0 0 0 26.902344,6.0429687 C 26.323917,7.0151228 25.82556,8.0506673 25.347656,9.0722656 24.903854,9.0287598 24.455756,8.969944 24.025391,8.9648438 l 0.986328,1 a 1.0001,1.0001 0 0 0 -1,-1 c -0.137833,-1e-7 -0.165814,-1e-7 -0.01172,0 0.146,-1e-7 0.142281,-1e-7 -0.01172,0 a 1.0001,1.0001 0 0 0 -1,1 l 0.988281,-1 c -0.431394,0.0051 -0.880174,0.063867 -1.324218,0.1074218 C 22.174691,8.0506253 21.675315,7.0155879 21.095703,6.0429687 A 1.0001,1.0001 0 0 0 20.019531,5.578125 Z m -0.279297,2.1972656 c 0.500444,0.8980462 0.996785,1.8192514 1.414063,2.7519534 a 1.0001,1.0001 0 0 0 1.078125,0.578125 c 0.566218,-0.09465 1.150674,-0.133065 1.755859,-0.140625 -0.146,0 -0.142281,0 0.01172,0 0.004,4.7e-5 0.0077,-5e-5 0.01172,0 0.603875,0.0076 1.18985,0.04599 1.755859,0.140625 a 1.0001,1.0001 0 0 0 1.078125,-0.578125 c 0.417441,-0.9326235 0.91184,-1.8535795 1.412109,-2.7519534 1.166224,0.2932709 2.302644,0.6624695 3.382813,1.1523438 -0.04529,1.0950196 -0.100497,2.1685406 -0.244141,3.2382816 a 1.0001,1.0001 0 0 0 0.449219,0.974609 c 0.657656,0.422129 1.262094,0.742892 1.730469,1.119141 a 1.0001,1.0001 0 0 0 0.01758,0.01367 c 0.594099,0.456383 1.145664,0.859269 1.595703,1.30664 a 1.0001,1.0001 0 0 0 1.255859,0.125 c 0.789576,-0.522354 1.636517,-0.987348 2.482422,-1.443359 0.855164,0.964253 1.652151,1.974998 2.339844,3.0625 -0.577086,0.898404 -1.157592,1.776943 -1.792969,2.58789 l 0.742188,-0.361328 a 1.0001,1.0001 0 0 0 -0.978516,0.978516 v 8.277344 l 0.705078,-0.216797 a 1.0001,1.0001 0 0 0 -0.603515,0.818359 l -5.257813,0.505859 c -0.793553,0.07719 -1.428636,0.730172 -1.484375,1.525391 l -0.125,1.785156 -3.449219,0.246094 -0.224609,-1.529297 c -0.118099,-0.800702 -0.82149,-1.40625 -1.630859,-1.40625 h -6.337891 c -0.809265,0 -1.510807,0.605548 -1.628906,1.40625 l -0.22461,1.529297 -3.449218,-0.246094 -0.125,-1.785156 c -0.05525,-0.795776 -0.69025,-1.448678 -1.484375,-1.525391 L 8.7597656,29.417969 V 20.529297 A 1.0001,1.0001 0 0 0 7.7792969,19.548828 l 0.7460937,0.363281 c -0.6354185,-0.811023 -1.2179793,-1.689531 -1.7949219,-2.58789 0.6881451,-1.088022 1.4843999,-2.099837 2.3398438,-3.064453 0.8466743,0.456387 1.6938865,0.922505 2.4843755,1.445312 a 1.0001,1.0001 0 0 0 1.255859,-0.125 c 0.449641,-0.446889 1.001448,-0.849403 1.595703,-1.30664 a 1.0001,1.0001 0 0 0 0.01563,-0.01367 c 0.469355,-0.376755 1.072639,-0.695779 1.730469,-1.117188 a 1.0001,1.0001 0 0 0 0.453125,-0.976562 C 16.461467,11.096638 16.406501,10.022658 16.361328,8.9277344 17.440812,8.4383694 18.575169,8.0685426 19.740234,7.7753906 Z M 15.484375,19.888672 c -2.538736,0 -4.619141,2.079546 -4.619141,4.61914 0,2.540511 2.080065,4.619141 4.619141,4.619141 2.539806,0 4.619141,-2.078764 4.619141,-4.619141 0,-2.539794 -2.080405,-4.61914 -4.619141,-4.61914 z m 17.03125,0 c -2.539758,0 -4.621094,2.079746 -4.621094,4.61914 0,2.540344 2.08107,4.619141 4.621094,4.619141 2.539003,0 4.619141,-2.07873 4.619141,-4.619141 0,-2.539494 -2.080478,-4.61914 -4.619141,-4.61914 z m -17.03125,2 c 1.45826,0 2.619141,1.161139 2.619141,2.61914 0,1.46002 -1.159751,2.619141 -2.619141,2.619141 -1.45812,0 -2.619141,-1.159255 -2.619141,-2.619141 0,-1.458201 1.160881,-2.61914 2.619141,-2.61914 z m 17.03125,0 c 1.458133,0 2.619141,1.160839 2.619141,2.61914 0,1.459986 -1.161148,2.619141 -2.619141,2.619141 -1.459772,0 -2.621094,-1.159088 -2.621094,-2.619141 0,-1.458401 1.161056,-2.61914 2.621094,-2.61914 z"
         id="path3" />
    </g>
    <path
       class="c"
       d="m15.8304,23.9717c-.4143,0-.7501.336-.7501.7502s.3358.7498.7501.7498c.4145,0,.7502-.3357.7502-.7498s-.3357-.7502-.7502-.7502Z"
       id="path4" />
  </g>
  <path
     style="color:#000000;fill:#ffffff;stroke-linecap:round;stroke-linejoin:round;-inkscape-stroke:none"
     d="m 24,23.005859 a 1,1 0 0 0 -1,1 v 3.451172 a 1,1 0 0 0 1,1 1,1 0 0 0 1,-1 v -3.451172 a 1,1 0 0 0 -1,-1 z"
     id="line4" />
</svg>
