<?xml version="1.0" encoding="UTF-8"?>
<svg id="svg14" version="1.1" viewBox="0 0 48 48" xmlns="http://www.w3.org/2000/svg">
 <defs id="defs1">
  <style id="style1">.a{fill:none;stroke:#fff;stroke-width:2px;stroke-linecap:round;stroke-linejoin:round;}</style>
 </defs>
 <path id="path1" d="m21.926 5.1211c-3.2477 0-5.7804 1.122-7.4297 2.9707s-2.3984 4.3468-2.3984 6.998c0 2.0259-1.4146 3.9125-3.0488 6.2227s-3.4141 5.0583-3.4141 8.7656c0 1.9189 1.103 4.0909 2.6602 5.9668s3.6276 3.4766 5.9707 3.4766c2.6366 0 4.3081 0.40089 6.1562 0.7207 1.8481 0.31981 3.8572 0.53567 6.8164 0.08008a1 1 0 0 0 0.83594-1.1406 1 1 0 0 0-1.1406-0.83594c-2.7397 0.42181-4.4025 0.23162-6.1699-0.07422-1.7674-0.30584-3.6558-0.75-6.498-0.75-1.3516 0-3.0967-1.1456-4.4316-2.7539-1.335-1.6083-2.1992-3.661-2.1992-4.6895 0-3.0717 1.4495-5.3532 3.0469-7.6113 1.5974-2.2582 3.416-4.4764 3.416-7.377 0-2.2752 0.63814-4.2621 1.8906-5.666 1.2525-1.4039 3.1352-2.3027 5.9375-2.3027 2.8486 0 4.9607 0.84674 6.293 2.1934 1.3323 1.3466 1.9623 3.2256 1.6758 5.6133a1 1 0 0 0 0.87305 1.1133 1 1 0 0 0 1.1113-0.875c0.34507-2.8754-0.45668-5.4571-2.2383-7.2578-1.7816-1.8008-4.4657-2.7871-7.7148-2.7871z" color="#000000" fill="#fff" stroke-linecap="round" stroke-linejoin="round" style="-inkscape-stroke:none"/>
 <path id="path2" d="m28.275 19.438a1.0001 1.0001 0 0 0-0.07813 2e-3c-3.661 0.28578-6.7919 2.7613-7.9141 6.2578a1 1 0 0 0 0.64648 1.2578 1 1 0 0 0 1.2578-0.64648c0.87039-2.7119 3.281-4.6207 6.1152-4.8633 0.97747 0.01017 2.7045 0.71572 4.1035 2.2812 1.4078 1.5754 2.5331 3.963 2.5352 7.2871-0.05537 4.1025-3.3945 7.3683-7.498 7.3281a1.0001 1.0001 0 0 0-0.0098 0c-1.0876 0-2.3497-0.27389-3.4062-1.1133-1.0566-0.83939-1.9854-2.2639-2.3262-4.8555a1 1 0 0 0-1.1211-0.86133 1 1 0 0 0-0.86133 1.123c0.39156 2.9781 1.5699 4.9728 3.0645 6.1602 1.4927 1.1859 3.2212 1.546 4.6445 1.5469 5.1827 0.04855 9.45-4.1256 9.5156-9.3086a1.0001 1.0001 0 0 0 0-0.01172c0-3.7869-1.3146-6.6907-3.0449-8.627-1.7303-1.9363-3.8175-2.9571-5.623-2.9571z" color="#000000" fill="#fff" stroke-linecap="round" stroke-linejoin="round" style="-inkscape-stroke:none"/>
 <path id="path3" d="m16.955 22.078a1 1 0 0 0-0.1543 1.4062c1.6371 2.0387 3.7943 3.5987 6.2422 4.5176l-0.04102-0.01563c0.84456 0.36048 1.5699 0.79653 1.9922 1.1875 0.42227 0.39097 0.46853 0.60682 0.44726 0.7207-0.06011 0.32157-0.18562 0.51131-0.46289 0.72461-0.27727 0.2133-0.72513 0.41135-1.3008 0.55469-1.1513 0.28668-2.7693 0.34766-4.3496 0.34766-1.8452 0-3.2308-1.3573-4.2188-2.8984s-1.4531-3.0996-1.4531-3.0996a1 1 0 0 0-1.2422-0.67773 1 1 0 0 0-0.67578 1.2422s0.52286 1.7985 1.6875 3.6152c1.1646 1.8167 3.0949 3.8184 5.9023 3.8184 1.6197 0 3.3413-0.03505 4.832-0.40625 0.74538-0.1856 1.4446-0.45633 2.0371-0.91211 0.59247-0.45578 1.0585-1.1347 1.209-1.9395a1.0001 1.0001 0 0 0 0-2e-3c0.19014-1.0182-0.36465-1.9176-1.0527-2.5546-0.68808-0.63708-1.581-1.1399-2.5664-1.5605a1.0001 1.0001 0 0 0-0.04102-0.01563c-2.112-0.79281-3.9723-2.1395-5.3848-3.8984a1 1 0 0 0-1.4062-0.1543z" color="#000000" fill="#fff" stroke-linecap="round" stroke-linejoin="round" style="-inkscape-stroke:none"/>
 <path id="path4" d="m30.342 17.66a1 1 0 0 0-0.9375 1.0586c0.12802 2.1321 1.7688 3.4306 2.8574 4.8457a1 1 0 0 0 1.4023 0.18164 1 1 0 0 0 0.18164-1.4023c-1.2456-1.6191-2.3837-2.7204-2.4453-3.7461a1 1 0 0 0-1.0586-0.9375z" color="#000000" fill="#fff" stroke-linecap="round" stroke-linejoin="round" style="-inkscape-stroke:none"/>
 <path id="path5" d="m27.15 13.646c-2.5525 0-3.9883 2.3691-3.9883 2.3691a1.0001 1.0001 0 0 0-0.02734 1.0723s0.3956 0.66658 1.0078 1.3418c0.61222 0.67522 1.4529 1.5117 2.7227 1.5117 0.90945 0 2.8756-0.14411 4.7344-0.45117 0.92938-0.15353 1.8143-0.34169 2.5449-0.60742 0.36531-0.13286 0.69268-0.27733 1.002-0.50976 0.30927-0.23244 0.67774-0.6449 0.67774-1.2305 0-0.5471-0.29746-0.93553-0.57031-1.1914-0.27285-0.25588-0.57556-0.43735-0.91406-0.60938-0.677-0.34404-1.5053-0.62739-2.3867-0.87305-1.7629-0.49131-3.6451-0.82227-4.8027-0.82227zm0 2c0.70561 0 2.6575 0.30182 4.2656 0.75 0.72695 0.2026 1.3534 0.43807 1.8242 0.6582-0.51406 0.16749-1.191 0.33474-1.9668 0.46289-1.7255 0.28504-3.7388 0.42383-4.4082 0.42383-0.18281 0-0.77875-0.34649-1.2402-0.85547-0.19748-0.2178-0.20162-0.25964-0.33203-0.43945 0.42589-0.4396 1.0662-1 1.8574-1z" color="#000000" fill="#fff" stroke-linecap="round" stroke-linejoin="round" style="-inkscape-stroke:none"/>
 <path id="path6" d="m26.199 16.008a1 1 0 0 0-1.3203 0.50586 1 1 0 0 0 0.50586 1.3203c1.4234 0.63506 3.5465 0.71342 5.5059 0.76953 1.9593 0.05611 3.6523-0.0059 3.6523-0.0059a1 1 0 0 0 0.96289-1.0332 1 1 0 0 0-1.0352-0.96484s-1.6383 0.05789-3.5234 0.0039-4.1188-0.31496-4.748-0.5957z" color="#000000" fill="#fff" stroke-linecap="round" stroke-linejoin="round" style="-inkscape-stroke:none"/>
 <path id="path7" d="m36.734 24.402c-0.44182 0.16326-0.77365 0.44263-1.041 0.73633-0.53474 0.58739-0.8642 1.2796-1.127 1.8535a1 1 0 0 0 0.49414 1.3242 1 1 0 0 0 1.3262-0.49219c0.23725-0.51825 0.53587-1.066 0.78516-1.3398 0.12464-0.13692 0.22472-0.19357 0.25586-0.20508 0.03114-0.01151-0.0044-0.02132 0.07227 0.0078 0.15935 0.06059 0.55412 0.45573 0.8125 0.89844 0.25838 0.44271 0.40039 0.83789 0.40039 0.83789a1.0001 1.0001 0 0 0 1.2363 0.62109s0.24777-0.06693 0.5293-0.05078c0.28153 0.01615 0.41907 0.03653 0.55859 0.28906 0.2309 0.41791 0.14002 0.44877 0.15625 0.4082 0.01623-0.04057 0.14258-0.13086 0.14258-0.13086a1.0001 1.0001 0 0 0 0.66016 1.8535s0.16973-0.02548 0.37109-0.01758c0.01943 7.63e-4 0.0035-0.0023 0.02148 0-0.03959 0.11485-0.04753 0.19538-0.25195 0.52539-0.91174 1.4728-2.1371 2.3906-3.5371 3.3047-1.4 0.91408-2.9735 1.8004-4.332 3.2461-0.83559 0.88883-1.9356 2.0377-2.7891 2.3828-0.42692 0.17263-0.7115 0.18813-1.0664 0.02344-0.35491-0.16468-0.85142-0.60239-1.3848-1.6055a1 1 0 0 0-1.3516-0.41406 1 1 0 0 0-0.41406 1.3535c0.6588 1.239 1.4098 2.0634 2.3086 2.4805 0.89881 0.41708 1.8737 0.33283 2.6582 0.01563 1.5689-0.63442 2.7038-2.0203 3.498-2.8652 1.1045-1.1754 2.501-1.9864 3.9668-2.9434 1.4658-0.957 3.0017-2.0828 4.1426-3.9258 0.37515-0.60563 0.59926-1.0776 0.6543-1.6055 0.05503-0.52788-0.20823-1.104-0.47461-1.375-0.3693-0.37572-0.72006-0.35432-1.0703-0.40625-0.0085-0.41997 0.10299-0.80227-0.15625-1.2715-0.52348-0.94747-1.5156-1.2812-2.1973-1.3203-0.18606-0.01067-0.17808 0.02366-0.33594 0.03711-0.08867-0.19252-0.07706-0.21566-0.2168-0.45508-0.36134-0.61912-0.86638-1.3941-1.8281-1.7598-0.48393-0.18402-1.0347-0.17888-1.4766-0.01563z" color="#000000" fill="#fff" stroke-linecap="round" stroke-linejoin="round" style="-inkscape-stroke:none"/>
 <path id="path8" d="m6.3906 29.109c-0.74948 0.18738-1.6231 0.50575-2.2754 1.2598s-0.80749 2.0684-0.13672 3.2227c0.48454 0.83382 1.5998 3.0171 2.9258 4.9844 0.66297 0.98364 1.38 1.9231 2.1602 2.6621 0.78015 0.73904 1.6471 1.3477 2.7266 1.3477 0.7938 0 1.4442 0.0095 2.1094-0.25 0.33258-0.12974 0.68353-0.36726 0.91406-0.7168s0.31445-0.7585 0.31445-1.1406a1.0001 1.0001 0 0 0-2e-3 -0.04687c-0.0511-1.071-0.52216-2.0799-1.3105-2.8066a1 1 0 0 0-1.4121 0.05664 1 1 0 0 0 0.05664 1.4141c0.3887 0.35833 0.60522 0.85707 0.64453 1.3828-0.14958 0.04593-0.6072 0.10742-1.3145 0.10742-0.22583 0-0.74871-0.22774-1.3516-0.79883-0.60285-0.57108-1.2609-1.416-1.877-2.3301-1.2321-1.8281-2.286-3.8925-2.8535-4.8691-0.38133-0.6562-0.27204-0.6905-0.082031-0.91016s0.73638-0.50049 1.25-0.62891a1 1 0 0 0 0.72656-1.2129 1 1 0 0 0-1.2129-0.72656z" color="#000000" fill="#fff" stroke-linecap="round" stroke-linejoin="round" style="-inkscape-stroke:none"/>
 <path id="path9" d="m7.2734 35.576a1 1 0 0 0-1.3867 0.27734c-0.51508 0.77174-1.12 1.6406-1.4902 2.168-0.56348 0.79103-0.19095 1.9608 0.72656 2.2793a1.0001 1.0001 0 0 0 0.039063 0.01367c1.2612 0.38032 2.594 0.46972 3.8945 0.25977a1 1 0 0 0 0.82617-1.1484 1 1 0 0 0-1.1465-0.82617c-0.73878 0.11927-1.4776-0.017576-2.2109-0.14648 0.33437-0.48121 0.66472-0.95277 1.0234-1.4902a1 1 0 0 0-0.27539-1.3867z" color="#000000" fill="#fff" stroke-linecap="round" stroke-linejoin="round" style="-inkscape-stroke:none"/>
 <path id="path10" d="m16.74 37.654a1 1 0 0 0-1.2246 0.70703 1 1 0 0 0 0.70703 1.2246c0.33786 0.09069 0.54863 0.39823 0.51172 0.74609a1.0001 1.0001 0 0 0-0.0059 0.10547c0 0.09031 0.01749 0.05926-0.08203 0.13672-0.09952 0.07746-0.34509 0.18668-0.65625 0.23438-0.62232 0.0954-1.4726-0.11027-1.7031-0.28125a1 1 0 0 0-1.3984 0.20703 1 1 0 0 0 0.20703 1.3984c0.92213 0.68382 2.0912 0.8222 3.1992 0.65234 0.554-0.08492 1.1028-0.26132 1.5801-0.63281 0.46533-0.36218 0.81376-0.99304 0.83203-1.6719 0.10357-1.2869-0.71406-2.4899-1.9668-2.8262z" color="#000000" fill="#fff" stroke-linecap="round" stroke-linejoin="round" style="-inkscape-stroke:none"/>
 <path id="path11" d="m20.229 38.188a1 1 0 0 0-0.76367 0.04297 1 1 0 0 0-0.46875 1.334c0.16735 0.34925 0.2467 0.83722 0.20703 1.0586-0.03967 0.22137 0.08004 0.18072-0.27148 0.22461a1.0001 1.0001 0 0 0-0.07813 0.01172c-0.47872 0.0988-0.97678 0.02863-1.4082-0.20117a1 1 0 0 0-1.3535 0.41211 1 1 0 0 0 0.41406 1.3535c0.83095 0.44262 1.7898 0.56963 2.7129 0.38867 1.0354-0.15193 1.8055-1.0141 1.9531-1.8379 0.14981-0.83598-0.0562-1.6141-0.37305-2.2754a1 1 0 0 0-0.57031-0.51172z" color="#000000" fill="#fff" stroke-linecap="round" stroke-linejoin="round" style="-inkscape-stroke:none"/>
 <path id="path12" d="m22.691 9.4043c-1.2138 0.012835-2.2382 0.32939-2.9727 0.94336-0.7495 0.62652-1.1484 1.55-1.1484 2.4688 0 1.0112 0.15871 2.0208 0.77344 2.8535 0.60848 0.8242 1.6773 1.3065 2.9395 1.3164 2.2153 0.13642 4.0961-1.6495 4.0938-3.8633 0.20182-2.1006-1.5787-3.9082-3.6855-3.7188zm0.16797 1.9863c0.91655-0.09084 1.6443 0.64945 1.5391 1.5645a1.0001 1.0001 0 0 0-0.0059 0.13477c0.02454 1.1171-0.88933 1.9876-2.0039 1.9082a1.0001 1.0001 0 0 0-0.07031-0.0039c-0.84267 0-1.1368-0.20229-1.3652-0.51172s-0.38281-0.88782-0.38281-1.666c0-0.38653 0.12335-0.67589 0.43164-0.93359 0.3083-0.25771 0.85755-0.48828 1.7578-0.48828a1.0001 1.0001 0 0 0 0.09961-0.0039z" color="#000000" fill="#fff" stroke-linecap="round" stroke-linejoin="round" style="-inkscape-stroke:none"/>
 <path id="path13" d="m28.949 9.7949c-0.72336 0-1.485 0.3552-1.8867 0.95313s-0.50195 1.2867-0.50195 2.0469c0 1.6072 0.80081 2.7968 1.9512 2.9824a1 1 0 0 0 1.1465-0.82812 1 1 0 0 0-0.82812-1.1465c0.11296 0.01823-0.26953-0.0046-0.26953-1.0078 0-0.54506 0.1112-0.85587 0.16211-0.93164 0.05091-0.07578-0.01848-0.06836 0.22656-0.06836 0.30387 0 0.45855 0.13845 0.66016 0.45703s0.31469 0.85091 0.3125 0.81836a1 1 0 0 0 1.0645 0.93164 1 1 0 0 0 0.93164-1.0645c-0.034787-0.51785-0.19845-1.0891-0.61914-1.7539s-1.2353-1.3887-2.3496-1.3887z" color="#000000" fill="#fff" stroke-linecap="round" stroke-linejoin="round" style="-inkscape-stroke:none"/>
 <path id="line13" d="m29.24 11.512a1 1 0 0 0-1 1v0.93945a1 1 0 0 0 1 1 1 1 0 0 0 1-1v-0.93945a1 1 0 0 0-1-1z" color="#000000" fill="#fff" stroke-linecap="round" stroke-linejoin="round" style="-inkscape-stroke:none"/>
 <path id="line14" d="m22.824 11.582a1 1 0 0 0-1 1v0.93945a1 1 0 0 0 1 1 1 1 0 0 0 1-1v-0.93945a1 1 0 0 0-1-1z" color="#000000" fill="#fff" stroke-linecap="round" stroke-linejoin="round" style="-inkscape-stroke:none"/>
</svg>
