<?xml version="1.0" encoding="UTF-8"?>
<svg id="svg6" version="1.1" viewBox="0 0 48 48" xmlns="http://www.w3.org/2000/svg">
 <defs id="defs1">
  <style id="style1">.a{fill:none;stroke:#fff;stroke-width:2px;stroke-linecap:round;stroke-linejoin:round;}</style>
 </defs>
 <path id="path1" d="m23.352 3.9805c-1.9401 0.13121-3.851 0.53903-5.666 1.2031-7.2601 2.6564-13.064 9.4271-13.166 18.615a1 1 0 0 0 0.99023 1.0117 1 1 0 0 0 1.0098-0.99024c0.093233-8.3633 5.2917-14.357 11.854-16.758s14.402-1.1779 19.871 5.1504a1 1 0 0 0 1.4102 0.10352 1 1 0 0 0 0.10156-1.4102c-4.506-5.2143-10.584-7.3194-16.404-6.9258zm19.791 15.605a1 1 0 0 0-0.80664 1.1621c0.19444 1.0734 0.29375 2.163 0.29492 3.2539 0.0074 3.5569-1.0445 7.0353-3.0215 9.9922a1 1 0 0 0 0.27539 1.3867 1 1 0 0 0 1.3867-0.27539c2.1977-3.2869 3.3676-7.1535 3.3594-11.107-0.0013-1.2097-0.11056-2.4152-0.32617-3.6055a1 1 0 0 0-1.1621-0.80664zm-34.832 12.928a1 1 0 0 0-0.75781 0.09961 1 1 0 0 0-0.36914 1.3652c5.2406 9.12 16.66 12.648 26.131 8.0723a1 1 0 0 0 0.4668-1.3359 1 1 0 0 0-1.3359-0.46484c-8.5435 4.1274-18.8 0.95912-23.527-7.2676a1 1 0 0 0-0.60742-0.46875z" fill="#fff" stop-color="#000000" stroke-linecap="round" stroke-linejoin="round"/>
 <path id="circle1" d="m27.32 19.561c-3.335 0-6.0605 2.7236-6.0605 6.0586s2.7255 6.0605 6.0605 6.0605c3.335 0 6.0605-2.7255 6.0605-6.0605s-2.7255-6.0586-6.0605-6.0586zm0 2c2.2541 0 4.0605 1.8045 4.0605 4.0586 0 2.2541-1.8064 4.0605-4.0605 4.0605-2.2541 0-4.0605-1.8064-4.0605-4.0605 0-2.2541 1.8064-4.0586 4.0605-4.0586z" fill="#fff" stop-color="#000000" stroke-linecap="round" stroke-linejoin="round"/>
 <path id="path2" d="m40.412 10.354c-0.57743 0.0025-1.1518 0.08769-1.7031 0.25976-3.1111 0.92974-4.5598 3.7968-4.2949 6.416 0.26501 2.621 2.26 5.1424 5.498 5.4277a1.0001 1.0001 0 0 0 0.087891 0.003906h0.43945l-0.04297-2e-3c3.4356 0.15284 6.3281-2.6157 6.3281-6.0547 0-3.4335-2.8841-6.1941-6.3125-6.0508zm0.02734 1.9961a1.0001 1.0001 0 0 0 0.04492 0c2.3244-0.10341 4.2402 1.728 4.2402 4.0547s-1.9159 4.16-4.2402 4.0566a1.0001 1.0001 0 0 0-0.04492 0h-0.35937c-2.3149-0.20787-3.4937-1.8317-3.6758-3.6328-0.18234-1.8034 0.648-3.6339 2.8809-4.2988a1.0001 1.0001 0 0 0 0.01367-0.0059c0.36893-0.11572 0.75397-0.17411 1.1406-0.17383z" fill="#fff" stop-color="#000000" stroke-linecap="round" stroke-linejoin="round"/>
 <path id="path3" d="m36.121 31.211c-0.57256-0.0011-1.1417 0.07796-1.6914 0.23828-3.4958 1.0142-4.8409 4.316-4.2363 7.0957 0.6047 2.7801 3.1922 5.229 6.7754 4.7207s5.3876-3.5813 5.1953-6.4199c-0.19229-2.8386-2.4019-5.6337-6.043-5.6348zm-0.0039 2a1.0001 1.0001 0 0 0 2e-3 0c2.671 7.68e-4 3.9151 1.7956 4.0488 3.7695 0.13372 1.974-0.8648 3.9337-3.4805 4.3047s-4.1186-1.2327-4.5391-3.166c-0.4205-1.9333 0.27445-4.0045 2.8398-4.748a1.0001 1.0001 0 0 0 2e-3 -2e-3c0.36644-0.10688 0.74524-0.15896 1.127-0.1582z" fill="#fff" stop-color="#000000" stroke-linecap="round" stroke-linejoin="round"/>
 <path id="path4" d="m7.5625 22.381c-0.82587-0.0044-1.645 0.16272-2.4023 0.49219-2.9238 1.2732-4.0334 4.2278-3.5078 6.7715 0.52555 2.5436 2.7153 4.8159 5.9043 4.8262a1.0001 1.0001 0 0 0 0.00391 0h0.50977a1.0001 1.0001 0 0 0 0.10156-0.0059c3.23-0.33127 5.1875-2.8759 5.418-5.498s-1.2523-5.4698-4.375-6.3594a1.0001 1.0001 0 0 0-0.00781-2e-3c-0.5343-0.14816-1.0862-0.22252-1.6406-0.22452zm-0.00781 2a1.0001 1.0001 0 0 0 0.00195 0c0.37642 0.0011 0.75052 0.05187 1.1133 0.15234 6.247e-4 1.73e-4 0.00133-1.73e-4 0.00195 0 2.2328 0.63909 3.0842 2.4556 2.9258 4.2578-0.15818 1.7999-1.3111 3.4365-3.6152 3.6797h-0.42187c-2.276-0.008248-3.5905-1.4847-3.9512-3.2305-0.36081-1.7463 0.26164-3.6239 2.3496-4.5332 0.50316-0.21889 1.047-0.32943 1.5957-0.32617z" fill="#fff" stop-color="#000000" stroke-linecap="round" stroke-linejoin="round"/>
 <path id="line4" d="m22.121 25.227-9.709 1.7598a1 1 0 0 0-0.80664 1.1621 1 1 0 0 0 1.1621 0.80469l9.7109-1.7598a1 1 0 0 0 0.80469-1.1621 1 1 0 0 0-1.1621-0.80469z" fill="#fff" stop-color="#000000" stroke-linecap="round" stroke-linejoin="round"/>
 <path id="line5" d="m36.055 18.699-5.3496 2.7402a1 1 0 0 0-0.43555 1.3457 1 1 0 0 0 1.3457 0.43555l5.3516-2.7402a1 1 0 0 0 0.43359-1.3457 1 1 0 0 0-1.3457-0.43555z" fill="#fff" stop-color="#000000" stroke-linecap="round" stroke-linejoin="round"/>
 <path id="line6" d="m30.652 28.537a1 1 0 0 0-0.73633 0.21094 1 1 0 0 0-0.1582 1.4062l2.8008 3.5098a1 1 0 0 0 1.4043 0.1582 1 1 0 0 0 0.1582-1.4062l-2.7988-3.5098a1 1 0 0 0-0.66992-0.36914z" fill="#fff" stop-color="#000000" stroke-linecap="round" stroke-linejoin="round"/>
</svg>
