<?xml version="1.0" encoding="UTF-8"?>
<svg id="svg1" version="1.1" viewBox="0 0 48 48" xmlns="http://www.w3.org/2000/svg">
 <defs id="defs1">
  <style id="style1">.a{fill:none;stroke:#fff;stroke-width:2px;stroke-linecap:round;stroke-linejoin:round}</style>
 </defs>
 <path id="path1" d="m6.5 3.5c-1.645 0-3 1.355-3 3v35c0 1.645 1.355 3 3 3h21c1.645 0 3-1.355 3-3v-13.5a1 1 0 0 0-1-1 1 1 0 0 0-1 1v13.5c0 0.56413-0.43587 1-1 1h-21c-0.56413 0-1-0.43587-1-1v-35c0-0.56413 0.43587-1 1-1h21c0.56413 0 1 0.43587 1 1v13.5a1 1 0 0 0 1 1 1 1 0 0 0 1-1v-13.5c0-1.645-1.355-3-3-3zm30.824 13.764a1 1 0 0 0-0.06055 1.4121l3.9629 4.3242h-21.227a1 1 0 0 0-1 1 1 1 0 0 0 1 1h21.227l-3.9629 4.3242a1 1 0 0 0 0.06055 1.4121 1 1 0 0 0 1.4121-0.06055l5.4707-5.9688 0.0293-0.03125a1.0001 1.0001 0 0 0 0.26367-0.67578 1.0001 1.0001 0 0 0-0.07422-0.37305 1 1 0 0 0-0.06836-0.11133 1.0001 1.0001 0 0 0-0.12109-0.19141l-0.0293-0.03125-5.4707-5.9688a1 1 0 0 0-1.4121-0.06055z" color="#000000" fill="#fff" stroke-linecap="round" stroke-linejoin="round" style="-inkscape-stroke:none"/>
</svg>
