<?xml version="1.0" encoding="UTF-8" standalone="no"?>
<svg
   id="Layer_2"
   data-name="Layer 2"
   viewBox="0 0 48 48"
   version="1.1"
   sodipodi:docname="teams.svg"
   xmlns:inkscape="http://www.inkscape.org/namespaces/inkscape"
   xmlns:sodipodi="http://sodipodi.sourceforge.net/DTD/sodipodi-0.dtd"
   xmlns="http://www.w3.org/2000/svg"
   xmlns:svg="http://www.w3.org/2000/svg">
  <sodipodi:namedview
     id="namedview4"
     pagecolor="#ffffff"
     bordercolor="#666666"
     borderopacity="1.0"
     inkscape:showpageshadow="2"
     inkscape:pageopacity="0.0"
     inkscape:pagecheckerboard="0"
     inkscape:deskcolor="#d1d1d1" />
  <defs
     id="defs1">
    <style
       id="style1">.cls-1,.cls-2{fill:none;stroke:#fff;stroke-width:2px;stroke-linejoin:round;}.cls-2{stroke-linecap:round;}</style>
  </defs>
  <path
     style="color:#000000;fill:#ffffff;stroke-linejoin:round;-inkscape-stroke:none"
     d="m 37.070312,8.0292969 c -2.837941,0 -5.160156,2.3222141 -5.160156,5.1601561 0,2.837942 2.322215,5.160156 5.160156,5.160156 2.837942,0 5.160157,-2.322214 5.160157,-5.160156 0,-2.837942 -2.322215,-5.1601561 -5.160157,-5.1601561 z m 0,2.0000001 c 1.757063,0 3.160157,1.403094 3.160157,3.160156 0,1.757063 -1.403094,3.160156 -3.160157,3.160156 -1.757062,0 -3.160156,-1.403093 -3.160156,-3.160156 0,-1.757062 1.403094,-3.160156 3.160156,-3.160156 z"
     id="circle1" />
  <path
     style="color:#000000;fill:#ffffff;stroke-linejoin:round;-inkscape-stroke:none"
     d="m 32.419922,18.380859 v 2 h 9.345703 c 0.420635,0.0089 0.736844,0.332668 0.734375,0.753907 a 1.0001,1.0001 0 0 0 0,0.0059 v 9.378906 a 1.0001,1.0001 0 0 0 0,0.0039 c 0.01302,3.858869 -3.80306,6.470987 -7.396484,5.064454 a 1.0001,1.0001 0 0 0 -0.0078,-0.002 c -0.354598,-0.135018 -0.679324,-0.337312 -0.958984,-0.59375 l -1.353516,1.47461 c 0.464337,0.425779 1.0073,0.759375 1.595703,0.984375 C 39.222707,39.344104 44.517543,35.718931 44.5,30.517578 v -9.371094 c 0.0088,-1.495237 -1.208081,-2.740017 -2.703125,-2.765625 a 1.0001,1.0001 0 0 0 -0.01758,0 z"
     id="path1" />
  <path
     style="color:#000000;fill:#ffffff;stroke-linejoin:round;-inkscape-stroke:none"
     d="M 22.925781,4.625 C 19.851475,5.1028171 17.01466,7.6345178 17,11.515625 a 1.0001,1.0001 0 0 0 0,0.0039 c -7.65e-4,0.531765 0.05719,1.061262 0.173828,1.580078 a 1.0001,1.0001 0 0 0 0.0059,0.02344 l 0.279297,1.119141 1.941407,-0.484375 -0.277344,-1.111329 C 19.041,12.276899 18.999455,11.900095 19,11.521484 c 0.01207,-2.9440031 1.982846,-4.5702864 4.232422,-4.9199215 2.250118,-0.3497194 4.620836,0.6032182 5.52539,3.4062505 a 1.0001,1.0001 0 0 0 0.0059,0.01367 c 0.899055,2.641841 -0.565499,5.46823 -3.238281,6.261719 -0.26398,0.05621 -1.3125,0.228516 -1.3125,0.228516 l 0.314453,1.976562 c 0,0 1.004734,-0.153593 1.486328,-0.263672 a 1.0001,1.0001 0 0 0 0.05664,-0.01563 C 29.81876,17.110824 31.911171,13.080895 30.65625,9.3828125 29.460765,5.6976607 25.99684,4.1476877 22.925781,4.625 Z"
     id="path2" />
  <path
     style="color:#000000;fill:#ffffff;stroke-linejoin:round;-inkscape-stroke:none"
     d="m 24.419922,18.380859 v 2 h 7.978515 c 0.41892,0.0112 0.732411,0.336374 0.722657,0.75586 a 1.0001,1.0001 0 0 0 -0.002,0.02344 v 10.669922 a 1.0001,1.0001 0 0 0 0.002,0.02344 c 0.121671,5.188394 -3.944672,9.475476 -9.128907,9.640625 -3.729207,-0.09365 -7.050767,-2.35203 -8.505859,-5.78711 -0.208161,-0.621652 -0.379891,-1.255044 -0.505859,-1.898437 l -1.960938,0.382812 c 0.14583,0.744841 0.340873,1.480226 0.583985,2.199219 a 1.0001,1.0001 0 0 0 0.02539,0.06641 c 1.757117,4.181753 5.814785,6.943539 10.34961,7.042969 a 1.0001,1.0001 0 0 0 0.05078,0 C 30.300772,43.315243 35.266234,38.079112 35.119141,31.806641 V 21.183594 c 0.03491,-1.501554 -1.174209,-2.768613 -2.675782,-2.802735 a 1.0001,1.0001 0 0 0 -0.02344,0 z"
     id="path3" />
  <path
     style="color:#000000;fill:#ffffff;stroke-linecap:round;stroke-linejoin:round;-inkscape-stroke:none"
     d="m 10.349609,17.5 a 1,1 0 0 0 -0.9999996,1 1,1 0 0 0 0.9999996,1 h 8.300782 a 1,1 0 0 0 1,-1 1,1 0 0 0 -1,-1 z"
     id="line3" />
  <path
     style="color:#000000;fill:#ffffff;stroke-linecap:round;stroke-linejoin:round;-inkscape-stroke:none"
     d="m 14.5,17.5 a 1,1 0 0 0 -1,1 v 11 a 1,1 0 0 0 1,1 1,1 0 0 0 1,-1 v -11 a 1,1 0 0 0 -1,-1 z"
     id="line4" />
  <path
     style="color:#000000;fill:#ffffff;stroke-linejoin:round;-inkscape-stroke:none"
     d="m 6.5,13 c -1.645008,0 -3,1.354992 -3,3 v 16 c 0,1.645008 1.354992,3 3,3 h 16 c 1.645008,0 3,-1.354992 3,-3 V 16 c 0,-1.645008 -1.354992,-3 -3,-3 z m 0,2 h 16 c 0.564129,0 1,0.435871 1,1 v 16 c 0,0.564129 -0.435871,1 -1,1 h -16 c -0.5641288,0 -1,-0.435871 -1,-1 V 16 c 0,-0.564129 0.4358712,-1 1,-1 z"
     id="path4" />
</svg>
