<?xml version="1.0" encoding="UTF-8"?>
<svg id="Layer_2" data-name="Layer 2" version="1.1" viewBox="0 0 48 48" xmlns="http://www.w3.org/2000/svg">
 <defs id="defs1">
  <style id="style1">.cls-1{fill:none;stroke:#fff;stroke-width:2px;stroke-linecap:round;stroke-linejoin:round;}</style>
 </defs>
 <path id="path1" d="m40.781 7.4805c-0.42118 0.020362-0.8327 0.1262-1.2129 0.30859l0.07227-0.03125-32.77 12.639a1.0001 1.0001 0 0 0-0.011719 0.0039c-0.63235 0.25237-1.1443 0.5392-1.5508 0.89648-0.40651 0.35729-0.73614 0.81778-0.79688 1.3984-0.060733 0.58066 0.22268 1.1618 0.60938 1.5215 0.38606 0.35905 0.86284 0.58025 1.418 0.74219 9.145e-4 2.67e-4 0.00104 0.0017 0.00195 2e-3l8.1484 2.5762c0.42382 0.14413 0.89256 0.08442 1.2676-0.16016l14.322-9.0352-10.549 9.5254 0.08594-0.07031c-0.7543 0.5412-0.7543 1.7342 0 2.2754l13.299 9.8223a1.0001 1.0001 0 0 0 0.10742 0.06836c0.93376 0.52075 1.9588 0.75615 2.877 0.3418 0.91688-0.41379 1.4364-1.3507 1.668-2.457l2e-3 -0.0039 5.5703-26.264c0.27485-1.1116 0.19023-2.1225-0.29106-2.8965-0.48129-0.77408-1.3564-1.2031-2.2188-1.2031a1.0001 1.0001 0 0 0-0.04883 0zm0.0625 2.0078c0.26217 0.00369 0.39231 0.066183 0.50781 0.25195 0.11871 0.19092 0.23198 0.61091 0.04687 1.3594a1.0001 1.0001 0 0 0-0.0059 0.0332l-5.58 26.299a1.0001 1.0001 0 0 0-2e-3 0.0039c-0.15886 0.76173-0.39883 0.98428-0.5332 1.0449-0.13168 0.05943-0.45687 0.06992-1.0586-0.25781l-12.637-9.334 14.852-13.41v-2e-3c0.2798-0.24793 0.57081-0.54283 0.59375-1.1016 0.01149-0.27975-0.09934-0.60521-0.2793-0.82031-0.17995-0.2151-0.39256-0.32812-0.58008-0.39258-0.75006-0.25783-1.3437-0.03884-1.9883 0.35352a1.0001 1.0001 0 0 0-0.01367 0.0078l-19.084 12.041-7.9609-2.5176a1.0001 1.0001 0 0 0-0.021484-0.0078c-0.2795-0.081404-0.39249-0.16264-0.48633-0.22658 0.014921-0.01497-0.00478 0.0043 0.015625-0.01367 0.16187-0.14227 0.48763-0.34454 0.96094-0.53516l0.00391-2e-3c0.00376-0.0015 0.00403-0.0024 0.00781-0.0039l32.758-12.635a1.0001 1.0001 0 0 0 0.07227-0.03125c0.12854-0.061669 0.27021-0.09215 0.41211-0.10352z" fill="#fff" stroke-linecap="round" stroke-linejoin="round"/>
</svg>
