<?xml version="1.0" encoding="UTF-8"?>
<svg id="a" version="1.1" viewBox="0 0 48 48" xmlns="http://www.w3.org/2000/svg">
 <defs id="defs1">
  <style id="style1">.b{fill:none;stroke:#fff;stroke-width:2px;stroke-linecap:round;stroke-linejoin:round;}</style>
 </defs>
 <path id="rect1" d="m7.5 4.5c-1.6447 0-3 1.3553-3 3v33c0 1.6447 1.3553 3 3 3h33c1.6447 0 3-1.3553 3-3v-33c0-1.6447-1.3553-3-3-3zm0 2h33c0.5713 0 1 0.4287 1 1v33c0 0.5713-0.4287 1-1 1h-33c-0.5713 0-1-0.4287-1-1v-33c0-0.5713 0.4287-1 1-1z" color="#000000" fill="#fff" stroke-linecap="round" stroke-linejoin="round" style="-inkscape-stroke:none"/>
 <path id="path1" d="m14.084 17.67c-1.2547 0-2.3602 0.54717-3.2617 1.3184-0.90156 0.77118-1.6477 1.7687-2.3379 2.8379-1.3805 2.1384-2.5629 4.6009-3.7656 6.1094a1 1 0 0 0 0.1582 1.4062 1 1 0 0 0 1.4043-0.1582c1.4471-1.8149 2.6095-4.298 3.8848-6.2734 0.63765-0.98772 1.2979-1.8386 1.957-2.4023 0.65909-0.56378 1.2681-0.83789 1.9609-0.83789 1.204 0 2.1753 0.53143 3.1406 1.4746 0.96534 0.94318 1.8536 2.2885 2.7031 3.6797 0.84955 1.3912 1.657 2.8234 2.5879 3.9785 0.93087 1.1551 2.0844 2.1328 3.584 2.1328 2.3282 0 3.7327-0.8574 4.7754-1.5586s1.701-1.2188 3.3965-1.2188c1.4563 0 3.1014 1.1662 4.4863 2.5059 0.69248 0.66981 1.3129 1.3577 1.8516 1.9121 0.26935 0.27722 0.51556 0.52057 0.77148 0.72852 0.25592 0.20794 0.48379 0.44086 1.0371 0.48633a1 1 0 0 0 1.0781-0.91406 1 1 0 0 0-0.91406-1.0801c0.29747 0.02445 0.19808 0.06683 0.06055-0.04492-0.13753-0.11175-0.3518-0.31526-0.59961-0.57031-0.49562-0.5101-1.1413-1.2265-1.8945-1.9551-1.5064-1.4571-3.4641-3.0684-5.877-3.0684-2.1737 0-3.4926 0.87194-4.5137 1.5586-1.0211 0.68665-1.7687 1.2188-3.6582 1.2188-0.6093 0-1.2541-0.43166-2.0254-1.3887s-1.5693-2.3407-2.4395-3.7656c-0.8702-1.425-1.8153-2.8975-3.0117-4.0664s-2.715-2.0449-4.5391-2.0449z" color="#000000" fill="#fff" stroke-linecap="round" stroke-linejoin="round" style="-inkscape-stroke:none"/>
 <path id="rect2" d="m11.604 15.189a1.0001 1.0001 0 0 0-1 1v4.9609a1.0001 1.0001 0 0 0 1 1h4.9609a1.0001 1.0001 0 0 0 1-1v-4.9609a1.0001 1.0001 0 0 0-1-1zm1 2h2.9609v2.9609h-2.9609z" color="#000000" fill="#fff" stroke-linecap="round" stroke-linejoin="round" style="-inkscape-stroke:none"/>
 <path id="rect3" d="m31.744 23.848a1.0001 1.0001 0 0 0-1 1v4.6309a1.0001 1.0001 0 0 0 1 1h4.6289a1.0001 1.0001 0 0 0 1-1v-4.6309a1.0001 1.0001 0 0 0-1-1zm1 2h2.6289v2.6309h-2.6289z" color="#000000" fill="#fff" stroke-linecap="round" stroke-linejoin="round" style="-inkscape-stroke:none"/>
</svg>
