<?xml version="1.0" encoding="UTF-8"?>
<svg id="a" version="1.1" viewBox="0 0 48 48" xmlns="http://www.w3.org/2000/svg">
 <defs id="defs1">
  <style id="style1">.b{fill:none;stroke:#fff;stroke-width:2px;stroke-linecap:round;stroke-linejoin:round;}</style>
 </defs>
 <path id="line1" d="m15.961 34.463a1 1 0 0 0 0 1.4141l6.9961 6.9961a1 1 0 0 0 1.4141 0 1 1 0 0 0 0-1.4141l-6.9961-6.9961a1 1 0 0 0-1.4141 0z" color="#000000" fill="#fff" stroke-linecap="round" stroke-linejoin="round" style="-inkscape-stroke:none"/>
 <path id="polyline1" d="m10.836 17.662a1 1 0 0 0-0.70703 0.29297l-5.3359 5.3359a1.0001 1.0001 0 0 0 0 1.4121l5.334 5.3457a1 1 0 0 0 1.4141 0 1 1 0 0 0 2e-3 -1.4141l-4.629-4.6367 4.6289-4.6289a1 1 0 0 0 0-1.4141 1 1 0 0 0-0.70703-0.29297z" color="#000000" fill="#fff" stroke-linecap="round" stroke-linejoin="round" style="-inkscape-stroke:none"/>
 <path id="polyline2" d="m33.844 16.014a1 1 0 0 0 0 1.4141l6.5703 6.5703-3.4277 3.4258a1 1 0 0 0 0 1.416 1 1 0 0 0 1.4141 0l4.1348-4.1348a1.0001 1.0001 0 0 0 0-1.4141l-7.2773-7.2773a1 1 0 0 0-1.4141 0z" color="#000000" fill="#fff" stroke-linecap="round" stroke-linejoin="round" style="-inkscape-stroke:none"/>
 <path id="polyline3" d="m22.957 5.127-5.3438 5.3437a1 1 0 0 0 0 1.4141 1 1 0 0 0 1.4141 0l4.6367-4.6367 5.4316 5.4316a1 1 0 0 0 1.4141 0 1 1 0 0 0 0-1.4141l-6.1387-6.1387a1.0001 1.0001 0 0 0-1.4141 0z" color="#000000" fill="#fff" stroke-linecap="round" stroke-linejoin="round" style="-inkscape-stroke:none"/>
 <path id="line3" d="m9.3555 7.5273a1 1 0 0 0-1 1 1 1 0 0 0 1 1h9.9844a1 1 0 0 0 1-1 1 1 0 0 0-1-1z" color="#000000" fill="#fff" stroke-linecap="round" stroke-linejoin="round" style="-inkscape-stroke:none"/>
 <path id="line4" d="m29.971 7.5273a1 1 0 0 0-1 1 1 1 0 0 0 1 1h12.529a1 1 0 0 0 1-1 1 1 0 0 0-1-1z" color="#000000" fill="#fff" stroke-linecap="round" stroke-linejoin="round" style="-inkscape-stroke:none"/>
 <path id="polyline4" d="m10.836 7.5273a1 1 0 0 0-1 1v29.957a1.0001 1.0001 0 0 0 1 1h2.6191a1.0001 1.0001 0 0 0 0.7168-0.30469l29.047-29.955a1 1 0 0 0-0.02344-1.4141 1 1 0 0 0-1.4141 0.021484l-28.75 29.652h-1.1953v-28.957a1 1 0 0 0-1-1z" color="#000000" fill="#fff" stroke-linecap="round" stroke-linejoin="round" style="-inkscape-stroke:none"/>
 <path id="polyline5" d="m18.322 7.5273a1 1 0 0 0-1 1v15.844a1.0001 1.0001 0 0 0 1.7344 0.67969l14.686-15.844a1 1 0 0 0-0.054687-1.4121 1 1 0 0 0-1.4121 0.052734l-12.953 13.975v-13.295a1 1 0 0 0-1-1z" color="#000000" fill="#fff" stroke-linecap="round" stroke-linejoin="round" style="-inkscape-stroke:none"/>
 <path id="polyline6" d="m23.33 30.08a1 1 0 0 0-1 1 1 1 0 0 0 1 1h0.33789l-2.5469 6.0137a1.0001 1.0001 0 0 0 0.92188 1.3906h1.9492a1 1 0 0 0 1-1 1 1 0 0 0-1-1h-0.44141l2.5469-6.0137a1.0001 1.0001 0 0 0-0.91992-1.3906z" color="#000000" fill="#fff" stroke-linecap="round" stroke-linejoin="round" style="-inkscape-stroke:none"/>
 <path id="polyline7" d="m28.072 30.08a1 1 0 0 0-1 1 1 1 0 0 0 1 1h0.33984l-2.5469 6.0137a1.0001 1.0001 0 0 0 0.91992 1.3906h1.9492a1 1 0 0 0 1-1 1 1 0 0 0-1-1h-0.43945l2.5469-6.0137a1.0001 1.0001 0 0 0-0.92188-1.3906z" color="#000000" fill="#fff" stroke-linecap="round" stroke-linejoin="round" style="-inkscape-stroke:none"/>
 <path id="polyline8" d="m33.316 30.08a1.0001 1.0001 0 0 0-0.77148 0.36523l-0.5957 0.72266h-2.4902a1 1 0 0 0-1 1 1 1 0 0 0 1 1h2.9609a1.0001 1.0001 0 0 0 0.77344-0.36328l0.32227-0.39062-2.4062 5.6797a1.0001 1.0001 0 0 0 0.92188 1.3906h1.9473a1 1 0 0 0 1-1 1 1 0 0 0-1-1h-0.43945l2.5469-6.0137a1.0001 1.0001 0 0 0-0.92188-1.3906z" color="#000000" fill="#fff" stroke-linecap="round" stroke-linejoin="round" style="-inkscape-stroke:none"/>
 <path id="polyline9" d="m38.549 30.08a1.0001 1.0001 0 0 0-0.77148 0.36523l-0.5957 0.72266h-2.4902a1 1 0 0 0-1 1 1 1 0 0 0 1 1h2.9609a1.0001 1.0001 0 0 0 0.77344-0.36328l0.32227-0.39062-2.4062 5.6797a1.0001 1.0001 0 0 0 0.92188 1.3906h1.9473a1 1 0 0 0 1-1 1 1 0 0 0-1-1h-0.43945l2.5469-6.0137a1.0001 1.0001 0 0 0-0.92188-1.3906z" color="#000000" fill="#fff" stroke-linecap="round" stroke-linejoin="round" style="-inkscape-stroke:none"/>
 <path id="line9" d="m25.887 27.342a1 1 0 0 0-0.54492 0.53711l-0.44336 1.0449a1 1 0 0 0 0.53125 1.3125 1 1 0 0 0 1.3105-0.53125l0.44336-1.0469a1 1 0 0 0-0.53125-1.3105 1 1 0 0 0-0.76562-0.0059z" color="#000000" fill="#fff" stroke-linecap="round" stroke-linejoin="round" style="-inkscape-stroke:none"/>
</svg>
