<?xml version="1.0" encoding="UTF-8" standalone="no"?>
<svg
   id="Layer_2"
   data-name="Layer 2"
   viewBox="0 0 48 48"
   version="1.1"
   sodipodi:docname="vivaldi.svg"
   xmlns:inkscape="http://www.inkscape.org/namespaces/inkscape"
   xmlns:sodipodi="http://sodipodi.sourceforge.net/DTD/sodipodi-0.dtd"
   xmlns="http://www.w3.org/2000/svg"
   xmlns:svg="http://www.w3.org/2000/svg">
  <sodipodi:namedview
     id="namedview1"
     pagecolor="#ffffff"
     bordercolor="#666666"
     borderopacity="1.0"
     inkscape:showpageshadow="2"
     inkscape:pageopacity="0.0"
     inkscape:pagecheckerboard="0"
     inkscape:deskcolor="#d1d1d1" />
  <defs
     id="defs1">
    <style
       id="style1">.cls-1{fill:none;stroke:#fff;stroke-width:2px;stroke-linecap:round;stroke-linejoin:round;}</style>
  </defs>
  <path
     style="color:#000000;fill:#ffffff;stroke-linecap:round;stroke-linejoin:round;-inkscape-stroke:none"
     d="M 8.9453125,6.6855469 C 4.5590162,6.8878304 1.9289824,11.789542 4.1933594,15.554688 c 1.8283062,3.206844 3.674326,6.401681 5.5097656,9.593749 3.022811,5.257497 6.028499,10.516589 9.074219,15.769532 1.069594,2.017368 3.261281,3.1849 5.53125,2.955078 2.048983,-0.135628 3.88089,-1.339011 4.8125,-3.169922 l -0.02344,0.04492 c 4.820152,-8.380264 9.635734,-16.76346 14.449219,-25.150391 a 1,1 0 0 0 0.04687,-0.175781 c 0.617434,-1.132738 0.891406,-2.42274 0.716797,-3.705078 C 43.823233,8.1004266 40.128516,5.7896417 36.664062,6.9355469 33.199609,8.0814521 31.60981,12.140285 33.375,15.333984 l -0.02539,-0.04687 c 0.48036,0.990248 0.725551,2.077222 0.71875,3.177735 C 34.061551,18.508754 34,18.85661 34,19.279297 l 0.0059,-0.109375 c -0.403166,3.609682 -3.548838,6.249082 -7.173828,6.021484 a 1.0001,1.0001 0 0 0 -0.02344,0 c -2.329424,-0.08937 -4.438311,-1.391438 -5.5625,-3.433594 a 1.0001,1.0001 0 0 0 -0.01563,-0.02734 c -0.974296,-1.643509 -1.89261,-3.327175 -2.900391,-5.03125 l -0.0098,-0.01758 C 17.013139,14.366673 15.685304,12.017406 14.324219,9.6855469 l 0.02344,0.044922 C 13.314978,7.731703 11.189266,6.5370089 8.9453125,6.6855469 Z M 39.009766,8.6640625 c 1.665963,0.2118931 3.074215,1.5085125 3.318359,3.3203125 a 1.0001,1.0001 0 0 0 0.002,0 c 0.124625,0.913022 -0.06636,1.841805 -0.539062,2.632813 a 1,1 0 0 0 0.0039,0.01563 c -4.807231,8.376011 -9.61776,16.749779 -14.431641,25.11914 a 1.0001,1.0001 0 0 0 -0.02539,0.04492 c -0.614878,1.208431 -1.818708,2.000379 -3.171875,2.085937 a 1.0001,1.0001 0 0 0 -0.04102,0.002 c -1.473452,0.156584 -2.88794,-0.593215 -3.582031,-1.902344 a 1.0001,1.0001 0 0 0 -0.01758,-0.0332 C 17.477573,34.692982 14.468445,29.423987 11.4375,24.152344 9.5967214,20.95099 7.7459718,17.751419 5.9179687,14.544922 A 1.0001,1.0001 0 0 0 5.90625,14.525391 C 4.3747353,11.978829 6.0762087,8.8110452 9.0449219,8.6796875 a 1.0001,1.0001 0 0 0 0.023437,-0.00195 c 1.4589716,-0.100399 2.8326336,0.6714451 3.5039066,1.9707036 a 1.0001,1.0001 0 0 0 0.02344,0.04492 c 1.355515,2.322317 2.68447,4.668865 3.994141,6.988282 a 1.0001,1.0001 0 0 0 0.0098,0.01758 c 0.982758,1.66086 1.898498,3.341783 2.894532,5.023437 1.458227,2.648957 4.200245,4.340621 7.220703,4.462891 4.666034,0.288583 8.760271,-3.147916 9.279297,-7.794922 A 1.0001,1.0001 0 0 0 36,19.279297 c 0,-0.195 0.04877,-0.407298 0.06836,-0.740235 a 1.0001,1.0001 0 0 0 0.002,-0.05078 c 0.01032,-1.410562 -0.304266,-2.805061 -0.919921,-4.074218 A 1.0001,1.0001 0 0 0 35.125,14.367188 c -1.179146,-2.13339 -0.148237,-4.7677396 2.166016,-5.5332036 0.578563,-0.191366 1.163429,-0.2405529 1.71875,-0.1699219 z"
     id="path1" />
</svg>
