<?xml version="1.0" encoding="UTF-8"?>
<svg id="svg2" version="1.1" viewBox="0 0 48 48" xmlns="http://www.w3.org/2000/svg">
 <defs id="defs1">
  <style id="style1">.a{fill:none;stroke:#fff;stroke-width:2px;stroke-linecap:round;stroke-linejoin:round;}</style>
 </defs>
 <path id="path1" d="m8.9668 6.6875c-4.3823 0.20377-7.0095 5.1042-4.7461 8.8652 0.00114 0.0019 8.094e-4 4e-3 0.00195 0.0059 1.8364 3.1971 3.6727 6.3957 5.5098 9.5938 3.0192 5.2518 6.0289 10.514 9.0723 15.76 1.0672 2.023 3.2638 3.1927 5.5371 2.957 2.0396-0.14282 3.8609-1.3452 4.7852-3.1699l0.76953-1.3379a1 1 0 0 0-0.37109-1.3652 1 1 0 0 0-1.3652 0.36914l-0.79297 1.3847a1.0001 1.0001 0 0 0-0.02539 0.04492c-0.60929 1.2029-1.8031 1.9938-3.1484 2.084a1.0001 1.0001 0 0 0-0.04102 0.0039c-1.4734 0.15961-2.8886-0.59347-3.5801-1.9043a1.0001 1.0001 0 0 0-0.01953-0.03516c-3.0455-5.2488-6.0587-10.521-9.0859-15.787v-2e-3c-1.8404-3.2038-3.6817-6.4084-5.5215-9.6113a1.0001 1.0001 0 0 0-0.00977-0.01758c-1.5352-2.5447 0.16366-5.7142 3.1328-5.8437a1.0001 1.0001 0 0 0 0.027344-0.00195c1.4597-0.10369 2.8347 0.66836 3.5059 1.9687a1.0001 1.0001 0 0 0 0.02539 0.04492c1.3553 2.325 2.6871 4.6692 4.0332 7.0098 0.9596 1.6664 1.9077 3.3568 2.9082 5.0293 4.45e-4 8.11e-4 0.0015 0.0011 2e-3 2e-3 1.4554 2.6516 4.1966 4.3469 7.2188 4.4668 4.6521 0.26461 8.7198-3.1721 9.2305-7.8047v-0.0039c0.03913-0.34415 0.06351-0.67603 0.07617-0.82227a1.0001 1.0001 0 0 0 0.0039-0.08008c0.01044-1.4137-0.30605-2.8094-0.92578-4.0801a1.0001 1.0001 0 0 0-0.01953-0.03711c-1.1484-2.125-0.11762-4.7265 2.1738-5.4902 2.2888-0.76289 4.6688 0.69604 5.0293 3.0801 0.12357 0.91242-0.0651 1.839-0.53516 2.6309a1 1 0 0 0-2e-3 0.0078 1 1 0 0 0-0.0039 0.0039c-2.3896 4.1583-4.7812 8.316-7.1719 12.473a1 1 0 0 0 0.36914 1.3652 1 1 0 0 0 1.3652-0.36719c2.3882-4.1524 4.777-8.307 7.1641-12.461 0.0026-0.0046 0.0052-0.0091 0.0078-0.01367a1 1 0 0 0 0.01563-0.04883c0.67606-1.1682 0.95604-2.5266 0.77344-3.8652a1.0001 1.0001 0 0 0-2e-3 -0.01172c-0.53363-3.5791-4.2096-5.8357-7.6425-4.6914-3.433 1.1443-5.0212 5.1544-3.3008 8.3379l-0.01758-0.03711c0.48291 0.99013 0.72729 2.0801 0.7207 3.1816-0.01524 0.18167-0.03395 0.43573-0.06445 0.70312a1.0001 1.0001 0 0 0-2e-3 0.0039c-0.39528 3.6002-3.5211 6.2419-7.1367 6.0312a1.0001 1.0001 0 0 0-0.01953 0c-2.3272-0.09014-4.4328-1.3935-5.5527-3.4355a1.0001 1.0001 0 0 0-0.01953-0.03125c-0.98786-1.65-1.9341-3.3417-2.9082-5.0332-1.3345-2.3203-2.6623-4.6523-4.0156-6.9746-1.0334-2.0024-3.1648-3.1977-5.4121-3.043z" color="#000000" fill="#fff" stroke-linecap="round" stroke-linejoin="round" style="-inkscape-stroke:none"/>
 <path id="circle1" d="m34.5 26.5c-4.4064 0-8 3.5936-8 8s3.5936 8 8 8 8-3.5936 8-8-3.5936-8-8-8zm0 2c3.3256 0 6 2.6744 6 6s-2.6744 6-6 6-6-2.6744-6-6 2.6744-6 6-6z" color="#000000" fill="#fff" stroke-linecap="round" stroke-linejoin="round" style="-inkscape-stroke:none"/>
 <path id="path2" d="m33.844 29.5c-1.6432 0.0017-2.9949 1.357-2.9941 3-7.46e-4 1.643 1.3509 2.9983 2.9941 3a1.0001 1.0001 0 0 0 2e-3 0h1.3086c0.56294 5.91e-4 0.99671 0.43511 0.99609 0.99805a1.0001 1.0001 0 0 0 0 0.0039c6.2e-4 0.56294-0.43316 0.99746-0.99609 0.99805h-1.1836a1.0001 1.0001 0 0 0-0.08203 0.0039c-0.42197 0.03403-0.82782-0.14929-1.084-0.48633a1 1 0 0 0-1.4023-0.18945 1 1 0 0 0-0.18945 1.4004c0.66722 0.87788 1.7388 1.3562 2.8379 1.2676l-0.080126 0.003918h1.1836a1.0001 1.0001 0 0 0 2e-3 0c1.6432-0.0017 2.9949-1.357 2.9941-3 7.46e-4 -1.643-1.3509-2.9983-2.9941-3a1.0001 1.0001 0 0 0-2e-3 0h-1.3086c-0.56197-0.0016-0.99671-0.43578-0.99609-0.99805a1.0001 1.0001 0 0 0 0-2e-3 1.0001 1.0001 0 0 0 0-2e-3c-5.72e-4 -0.56218 0.43417-0.99634 0.99614-0.99795h1.1836a1.0001 1.0001 0 0 0 0.08008-0.0039c0.42195-0.03401 0.82978 0.1493 1.0859 0.48633a1 1 0 0 0 1.4004 0.18945 1 1 0 0 0 0.19141-1.4004c-0.66719-0.87784-1.7388-1.3562-2.8379-1.2676l0.080076-0.003912h-1.1836a1.0001 1.0001 0 0 0-2e-3 0z" color="#000000" fill="#fff" stroke-linecap="round" stroke-linejoin="round" style="-inkscape-stroke:none"/>
</svg>
