<?xml version="1.0" encoding="UTF-8"?>
<svg id="b" version="1.1" viewBox="0 0 48 48" xmlns="http://www.w3.org/2000/svg">
 <defs id="defs1">
  <style id="style1">.c{fill:none;stroke:#fff;stroke-width:2px;stroke-linecap:round;stroke-linejoin:round;}</style>
 </defs>
 <path id="path1" d="m23.998 1.5c-12.426 0.013382-22.507 10.119-22.494 22.545 0.00393 3.6343 0.93237 7.1926 2.6172 10.408l-1.6074 9.8867a1.0001 1.0001 0 0 0 1.1465 1.1465l9.8652-1.6035c10.825 5.69 24.276 1.7046 30.182-9.0605 5.9709-10.884 1.98-24.578-8.9043-30.549-3.3106-1.8161-7.0248-2.77-10.801-2.7734a1.0001 1.0001 0 0 0-2e-3 0 1.0001 1.0001 0 0 0-2e-3 0zm0.001953 2h2e-3c3.4398 0.00347 6.8221 0.87296 9.8379 2.5273 9.9367 5.4511 13.564 17.895 8.1133 27.832-5.4511 9.9367-17.895 13.564-27.832 8.1133a1.0001 1.0001 0 0 0-0.64262-0.10938l-8.7695 1.4277 1.4277-8.7695a1.0001 1.0001 0 0 0-0.10938-0.64258c-1.6524-3.016-2.5197-6.3971-2.5234-9.8359-0.012122-11.344 9.1522-20.53 20.496-20.543zm-10.75 7.7695a1.0001 1.0001 0 0 0-0.03711 2e-3c-1.0951 0.04101-1.9828 0.95473-1.9922 2.0508a1.0001 1.0001 0 0 0 0 0.05078c0.25912 6.1333 2.8035 11.949 7.1309 16.303a1.0001 1.0001 0 0 0 0.0039 0.0039c4.3581 4.3199 10.17 6.8618 16.301 7.1289a1.0001 1.0001 0 0 0 0.08984 0c1.0485-0.04879 1.9043-0.90269 1.9531-1.9512a1.0001 1.0001 0 0 0 0-0.04687v-5.8613a1.0001 1.0001 0 0 0 0-0.04492c-0.04879-1.0485-0.90464-1.9043-1.9531-1.9531a1.0001 1.0001 0 0 0-0.07031 0c-1.2054 0.02965-2.4063-0.17402-3.5352-0.59766a1.0001 1.0001 0 0 0-0.02344-0.0078c-0.53577-0.18588-1.1146-0.3504-1.7617-0.20312s-1.1587 0.5454-1.7129 1.0996a1.0001 1.0001 0 0 0-0.0078 0.0098l-1.3965 1.4297c-1.4284-0.82783-2.7913-1.7697-3.9355-2.963a1.0001 1.0001 0 0 0-0.02148-0.02148c-1.1755-1.155-2.101-2.5259-2.9102-3.959l1.4375-1.4023-0.14062 0.11328c1.2024-0.80972 1.6322-2.3977 1.002-3.7031l0.03711 0.08203c-0.42364-1.1288-0.6273-2.3278-0.59766-3.5332a1.0001 1.0001 0 0 0 0-0.02539c0-1.0927-0.90729-2-2-2zm5.8594 1.9766c-0.03595 1.4618 0.21085 2.9162 0.72461 4.2852a1.0001 1.0001 0 0 0 0.03516 0.08398c0.20431 0.42316 0.07142 0.9133-0.31836 1.1758a1.0001 1.0001 0 0 0-0.13867 0.11328l-2.0508 2a1.0001 1.0001 0 0 0-0.19141 1.1719c0.95576 1.8663 2.2046 3.5666 3.6992 5.0371 1.4582 1.5182 3.1523 2.792 5.0156 3.7715a1.0001 1.0001 0 0 0 1.1816-0.18555l1.998-2.0488 2e-3 -2e-3c0.43382-0.43074 0.65557-0.53915 0.73242-0.55664 0.0779-0.01773 0.21984-0.01154 0.66406 0.14258l-0.02344-0.0078c1.369 0.51376 2.8233 0.75861 4.2852 0.72266h-0.07031c0.03308 0.0015 0.04257 0.01366 0.04492 0.04492v5.7715c-0.0017 0.0231-0.01634 0.02799-0.0332 0.0332-5.6022-0.26378-10.911-2.5852-14.896-6.5332l-2e-3 -0.0039c-1e-3 -1e-3 -0.0029-9.46e-4 -0.0039-2e-3 -3.9611-3.9885-6.29-9.3109-6.5391-14.926 0.0025-0.04181 0.01757-0.06277 0.0625-0.06445h5.8223z" fill="#fff" stroke-linecap="round" stroke-linejoin="round"/>
</svg>
