<?xml version="1.0" encoding="UTF-8" standalone="no"?>
<svg
   viewBox="0 0 48 48"
   version="1.1"
   id="svg2"
   sodipodi:docname="youtube.svg"
   xmlns:inkscape="http://www.inkscape.org/namespaces/inkscape"
   xmlns:sodipodi="http://sodipodi.sourceforge.net/DTD/sodipodi-0.dtd"
   xmlns="http://www.w3.org/2000/svg"
   xmlns:svg="http://www.w3.org/2000/svg">
  <sodipodi:namedview
     id="namedview2"
     pagecolor="#ffffff"
     bordercolor="#666666"
     borderopacity="1.0"
     inkscape:showpageshadow="2"
     inkscape:pageopacity="0.0"
     inkscape:pagecheckerboard="0"
     inkscape:deskcolor="#d1d1d1" />
  <defs
     id="defs1">
    <style
       id="style1">.a{fill:none;stroke:#fff;stroke-width:2px;stroke-linecap:round;stroke-linejoin:round;}</style>
  </defs>
  <path
     style="color:#000000;fill:#ffffff;stroke-linecap:round;stroke-linejoin:round;-inkscape-stroke:none"
     d="M 25.539062,9.0292969 C 18.80397,8.977554 11.636244,9.1783769 8.1386719,9.9082031 a 1.0001,1.0001 0 0 0 -0.054687,0.011719 C 6.017703,10.475885 4.3995958,12.093843 3.84375,14.160156 a 1.0001,1.0001 0 0 0 -0.00781,0.03711 c -1.1115635,4.87679 -1.2004772,14.626179 0.029297,19.638671 a 1.0001,1.0001 0 0 0 0.00391,0.02148 c 0.5559772,2.066155 2.1740634,3.682362 4.2402344,4.238281 a 1.0001,1.0001 0 0 0 0.035156,0.0098 c 1.309511,0.301397 3.5175577,0.492122 6.3027347,0.636718 2.785176,0.144597 6.103437,0.225054 9.43164,0.234375 3.328203,0.0093 6.663409,-0.05138 9.486328,-0.191406 2.82292,-0.14003 5.090753,-0.339835 6.480469,-0.683594 a 1.0001,1.0001 0 0 0 0.01953,-0.0059 c 2.066138,-0.555932 3.682408,-2.172128 4.238282,-4.238281 a 1.0001,1.0001 0 0 0 0.0098,-0.04297 c 1.169014,-5.240513 1.262667,-14.448623 -0.0293,-19.660156 a 1.0001,1.0001 0 0 0 -0.0059,-0.01953 C 43.526076,12.082914 41.922612,10.482598 39.876953,9.9160156 39.360562,9.7260609 38.799435,9.6516005 37.951172,9.5566406 37.075374,9.4585984 35.969467,9.3722537 34.693359,9.2988281 32.141144,9.1519769 28.906609,9.0551683 25.539062,9.0292969 Z m -0.01563,2.0000001 c 3.339185,0.02565 6.55129,0.12147 9.056641,0.265625 1.252676,0.07208 2.329834,0.156407 3.148438,0.248047 0.818603,0.09164 1.44113,0.231041 1.490234,0.25 a 1.0001,1.0001 0 0 0 0.101562,0.0332 c 1.379726,0.371214 2.452098,1.446839 2.824219,2.826172 2.4e-4,8.89e-4 0.0017,0.0011 0.002,0.002 1.139377,4.618483 1.069899,13.946012 0.01758,18.693359 -0.374545,1.372436 -1.440601,2.443145 -2.814453,2.814453 -1.046245,0.257099 -3.315389,0.487762 -6.082031,0.625 -2.773766,0.137592 -6.08301,0.198695 -9.382812,0.189453 -3.299803,-0.0092 -6.592901,-0.08816 -9.333985,-0.230468 C 11.821356,36.604392 9.6074963,36.383207 8.6191406,36.158203 7.2462653,35.784519 6.1769367,34.715304 5.8046875,33.341797 4.7403215,28.981784 4.8101005,18.959784 5.7832031,14.666016 6.1567224,13.299505 7.2200887,12.23639 8.5859375,11.861328 11.606759,11.237892 18.86342,10.978131 25.523437,11.029297 Z"
     id="path1" />
  <path
     style="color:#000000;fill:#ffffff;stroke-linecap:round;stroke-linejoin:round;-inkscape-stroke:none"
     d="m 20.619141,17.136719 a 1.0001,1.0001 0 0 0 -1.498047,0.867187 v 11.982422 a 1.0001,1.0001 0 0 0 1.498047,0.867188 l 10.445312,-5.990235 a 1.0001,1.0001 0 0 0 0,-1.736328 z m 0.501953,2.59375 7.435547,4.265625 -7.435547,4.263672 z"
     id="path2" />
</svg>
