<?xml version="1.0" encoding="UTF-8"?>
<svg id="svg10" version="1.1" viewBox="0 0 48 48" xmlns="http://www.w3.org/2000/svg">
 <defs id="defs4">
  <style id="style2">.a{fill:none;stroke:#fff;stroke-linecap:round;stroke-linejoin:round;}</style>
 </defs>
 <path id="path6" d="m25.539 9.0293c-6.7351-0.051743-13.903 0.14908-17.4 0.87891a1.0001 1.0001 0 0 0-0.054687 0.011719c-2.0663 0.55596-3.6844 2.1739-4.2402 4.2402a1.0001 1.0001 0 0 0-0.00781 0.03711c-1.1116 4.8768-1.2005 14.626 0.029297 19.639a1.0001 1.0001 0 0 0 0.00391 0.02148c0.55598 2.0662 2.1741 3.6824 4.2402 4.2383a1.0001 1.0001 0 0 0 0.035156 0.0098c1.3095 0.3014 3.5176 0.49212 6.3027 0.63672 2.7852 0.1446 6.1034 0.22505 9.4316 0.23438 3.3282 0.0093 6.6634-0.05138 9.4863-0.19141 2.8229-0.14003 5.0908-0.33984 6.4805-0.68359a1.0001 1.0001 0 0 0 0.01953-0.0059c2.0661-0.55593 3.6824-2.1721 4.2383-4.2383a1.0001 1.0001 0 0 0 0.0098-0.04297c1.169-5.2405 1.2627-14.449-0.0293-19.66a1.0001 1.0001 0 0 0-0.0059-0.01953c-0.55205-2.0518-2.1555-3.6522-4.2012-4.2187-0.51639-0.18995-1.0775-0.26442-1.9258-0.35938-0.8758-0.098042-1.9817-0.18439-3.2578-0.25781-2.5522-0.14685-5.7868-0.24366-9.1543-0.26953zm-0.01563 2c3.3392 0.02565 6.5513 0.12147 9.0566 0.26562 1.2527 0.07208 2.3298 0.15641 3.1484 0.24805 0.8186 0.09164 1.4411 0.23104 1.4902 0.25a1.0001 1.0001 0 0 0 0.10156 0.0332c1.3797 0.37121 2.4521 1.4468 2.8242 2.8262 2.4e-4 8.89e-4 0.0017 0.0011 2e-3 2e-3 1.1394 4.6185 1.0699 13.946 0.01758 18.693-0.37454 1.3724-1.4406 2.4431-2.8145 2.8145-1.0462 0.2571-3.3154 0.48776-6.082 0.625-2.7738 0.13759-6.083 0.1987-9.3828 0.18945-3.2998-0.0092-6.5929-0.08816-9.334-0.23047-2.7295-0.14175-4.9433-0.36293-5.9317-0.58794-1.3729-0.37368-2.4422-1.4429-2.8145-2.8164-1.0644-4.36-0.99459-14.382-0.021484-18.676 0.37352-1.3665 1.4369-2.4296 2.8027-2.8047 3.0208-0.62344 10.277-0.8832 16.937-0.83203z" color="#000000" fill="#fff" stroke-linecap="round" stroke-linejoin="round" style="-inkscape-stroke:none"/>
 <path id="path8" d="m20.619 17.137a1.0001 1.0001 0 0 0-1.498 0.86719v11.982a1.0001 1.0001 0 0 0 1.498 0.86719l10.445-5.9902a1.0001 1.0001 0 0 0 0-1.7363zm0.50195 2.5938 7.4355 4.2656-7.4355 4.2637z" color="#000000" fill="#fff" stroke-linecap="round" stroke-linejoin="round" style="-inkscape-stroke:none"/>
</svg>
