<?xml version="1.0" encoding="UTF-8"?>
<svg id="svg2" version="1.1" viewBox="0 0 48 48" xmlns="http://www.w3.org/2000/svg">
 <defs id="defs1">
  <style id="style1">.c{fill:none;stroke:#fff;stroke-width:2px;stroke-linecap:round;stroke-linejoin:round;}</style>
 </defs>
 <g id="a">
  <path id="rect1" d="m9.5 4.5c-2.7527 0-5 2.2473-5 5v29c0 2.7527 2.2473 5 5 5h29c2.7527 0 5-2.2473 5-5v-29c0-2.7527-2.2473-5-5-5zm0 2h29c1.6793 0 3 1.3207 3 3v29c0 1.6793-1.3207 3-3 3h-29c-1.6793 0-3-1.3207-3-3v-29c0-1.6793 1.3207-3 3-3z" color="#000000" fill="#fff" stroke-linecap="round" stroke-linejoin="round" style="-inkscape-stroke:none"/>
 </g>
 <g id="b" fill="#fff" stroke-linecap="round" stroke-linejoin="round">
  <path id="polyline1" d="m18.699 15a1 1 0 0 0-1 1 1 1 0 0 0 1 1h8.7383l-9.5703 14.447a1.0001 1.0001 0 0 0 0.83203 1.5527h10.602a1 1 0 0 0 1-1 1 1 0 0 0-1-1h-8.7383l9.5703-14.447a1.0001 1.0001 0 0 0-0.83203-1.5527z" color="#000000" style="-inkscape-stroke:none"/>
  <path id="polyline2" d="m18.699 15a1 1 0 0 0-1 1 1 1 0 0 0 1 1h8.7383l-9.5703 14.447a1.0001 1.0001 0 0 0 0.83203 1.5527h10.602a1 1 0 0 0 1-1 1 1 0 0 0-1-1h-8.7383l9.5703-14.447a1.0001 1.0001 0 0 0-0.83203-1.5527z" color="#000000" style="-inkscape-stroke:none"/>
 </g>
</svg>
