<?xml version='1.0' encoding='UTF-8'?>
<svg xmlns="http://www.w3.org/2000/svg" width="48" height="48"><defs><style>.b{fill:none;stroke:#fff;stroke-width:2px;stroke-linecap:round;stroke-linejoin:round;}</style></defs><path d="M12.176 42.5a31.763 31.763 0 011.266-3.416 14.844 14.844 0 011.713-2.948 8.278 8.278 0 012.419-2.168 7.293 7.293 0 013.214-.911 24.12 24.12 0 011.334-.033c.789-.017 1.577.049 2.35.18.72.124 1.418.353 2.078.665a9.514 9.514 0 011.895 1.24 19.36 19.36 0 011.888 1.807c.796.838 1.66 1.601 2.585 2.275a42.1 42.1 0 002.449 1.642c.417.255.826.526 1.228.797.356.23.682.509.97.829l.037.041" class="b"/><path d="M24 5.5l-18.5 37h6.676M24 5.5l18.5 37h-4.898M16.707 40.728v-6.172M20.873 39.826v-6.774M25.039 40.728v-7.404M29.205 41.63v-5.852M33.37 42.5v-2.987" class="b"/></svg>