<?xml version="1.0"?>
<svg xmlns="http://www.w3.org/2000/svg" version="1.1" viewBox="0 0 48 48" id="svg121">
  <defs id="defs31">
    <filter id="filter3873-2" x="-.16" y="-.179" width="1.32" height="1.357" color-interpolation-filters="sRGB">
      <feGaussianBlur stdDeviation="11.392" id="feGaussianBlur4"/>
    </filter>
    <filter id="filter3968-2" x="-.083" y="-.07" width="1.165" height="1.143">
      <feGaussianBlur stdDeviation="4.612" id="feGaussianBlur7"/>
    </filter>
    <filter id="filter3936-8" x="-.066" y="-.091" width="1.132" height="1.183">
      <feGaussianBlur stdDeviation="4.822" id="feGaussianBlur10"/>
    </filter>
    <filter id="filter3992-7" x="-.08" y="-.071" width="1.16" height="1.144">
      <feGaussianBlur stdDeviation="4.717" id="feGaussianBlur13"/>
    </filter>
    <filter id="filter4032-6" x="-.081" y="-.074" width="1.162" height="1.144">
      <feGaussianBlur stdDeviation="5.065" id="feGaussianBlur16"/>
    </filter>
    <filter id="filter4056-9" x="-.065" y="-.091" width="1.131" height="1.182">
      <feGaussianBlur stdDeviation="4.766" id="feGaussianBlur19"/>
    </filter>
    <filter id="filter4092-1" x="-.08" y="-.073" width="1.163" height="1.145">
      <feGaussianBlur stdDeviation="4.72" id="feGaussianBlur22"/>
    </filter>
    <filter id="filter4226-7" x="-.302" y="-.302" width="1.605" height="1.605">
      <feGaussianBlur stdDeviation="25.864" id="feGaussianBlur25"/>
    </filter>
    <filter id="filter4230-4" x="-.61" y="-.61" width="2.221" height="2.221">
      <feGaussianBlur stdDeviation="12" id="feGaussianBlur28"/>
    </filter>
    <style id="style2">.a{fill:none;stroke:#fff;stroke-width:2px;stroke-linecap:round;stroke-linejoin:round}</style>
  </defs>
  <g fill="none" stroke-width="2" id="g119" style="stroke:#fff;stroke-width:2px;stroke-opacity:1;stroke-width:2;stroke-miterlimit:4;stroke-dasharray:none">
    <g stroke="#fff" stroke-linecap="round" stroke-linejoin="round" id="g95" style="stroke:#fff;stroke-width:2px;stroke-opacity:1;stroke-width:2;stroke-miterlimit:4;stroke-dasharray:none">
      <path d="m29.661 3.74-4.33 12.329 17.053-2.87c-2.526-4.85-7.18-8.415-12.724-9.458z" id="path81" style="stroke:#fff;stroke-width:2px;stroke-opacity:1;stroke-width:2;stroke-miterlimit:4;stroke-dasharray:none"/>
      <path d="m43.698 19.058-12.842 2.414 11.011 13.335c2.938-4.613 3.698-10.425 1.83-15.748z" id="path83" style="stroke:#fff;stroke-width:2px;stroke-opacity:1;stroke-width:2;stroke-miterlimit:4;stroke-dasharray:none"/>
      <path d="m38.75 38.434-8.511-9.914-6.042 16.203c5.464.238 10.878-2.01 14.553-6.29z" id="path85" style="stroke:#fff;stroke-width:2px;stroke-opacity:1;stroke-width:2;stroke-miterlimit:4;stroke-dasharray:none"/>
      <path d="m18.349 44.249 4.33-12.328-17.053 2.87c2.525 4.85 7.179 8.415 12.723 9.458z" id="path87" style="stroke:#fff;stroke-width:2px;stroke-opacity:1;stroke-width:2;stroke-miterlimit:4;stroke-dasharray:none"/>
      <path d="m4.303 28.942 12.841-2.414-11.01-13.335c-2.938 4.613-3.699 10.425-1.83 15.748z" id="path89" style="stroke:#fff;stroke-width:2px;stroke-opacity:1;stroke-width:2;stroke-miterlimit:4;stroke-dasharray:none"/>
      <path d="m9.25 9.566 8.512 9.915 6.042-16.204C18.34 3.04 12.926 5.287 9.25 9.567z" id="path91" style="stroke:#fff;stroke-width:2px;stroke-opacity:1;stroke-width:2;stroke-miterlimit:4;stroke-dasharray:none"/>
      <circle cx="24.005" cy="23.995" r="2.949" id="circle93" style="stroke:#fff;stroke-width:2px;stroke-opacity:1;stroke-width:2;stroke-miterlimit:4;stroke-dasharray:none"/>
    </g>
  </g>
</svg>
