<?xml version='1.0' encoding='UTF-8'?>
<svg xmlns="http://www.w3.org/2000/svg" version="1.1" viewBox="0 0 48 48"><defs><style>.b{fill:none;stroke:#fff;stroke-width:2px;stroke-linecap:round;stroke-linejoin:round;}</style></defs><path class="b" d="M29.661 3.74l-4.33 12.329 17.053-2.87c-2.526-4.85-7.18-8.415-12.724-9.458z"/><path class="b" d="M43.698 19.058l-12.842 2.414 11.011 13.335c2.938-4.613 3.698-10.425 1.83-15.748z"/><path class="b" d="M38.75 38.434l-8.511-9.914-6.042 16.203c5.464.238 10.878-2.01 14.553-6.29z"/><path class="b" d="M18.349 44.249l4.33-12.328-17.053 2.87c2.525 4.85 7.179 8.415 12.723 9.458z"/><path class="b" d="M4.303 28.942l12.841-2.414-11.01-13.335c-2.938 4.613-3.699 10.425-1.83 15.748z"/><path class="b" d="M9.25 9.566l8.512 9.915 6.042-16.204C18.34 3.04 12.926 5.287 9.25 9.567z"/><circle class="b" cx="24.005" cy="23.995" r="2.949"/></svg>