<?xml version='1.0' encoding='UTF-8'?>
<svg xmlns="http://www.w3.org/2000/svg" xmlns:svg="http://www.w3.org/2000/svg" viewBox="0 0 48 48" version="1.1"><defs><style>.b{fill:none;stroke:#fff;stroke-width:2px;stroke-linecap:round;stroke-linejoin:round;}</style></defs><path class="b" d="m 40.5,5.5 h -33 a 2,2 0 0 0 -2,2 v 33 a 2,2 0 0 0 2,2 h 33 a 2,2 0 0 0 2,-2 v -33 a 2,2 0 0 0 -2,-2 z"/><path class="b" d="m 36.107704,10.429997 h -24.21041 a 1.4672975,1.4672977 0 0 0 -1.467297,1.467297 v 24.210409 a 1.4672975,1.4672977 0 0 0 1.467297,1.467299 h 24.21041 a 1.4672975,1.4672977 0 0 0 1.467298,-1.467299 V 11.897294 a 1.4672975,1.4672977 0 0 0 -1.467298,-1.467297 z"/><path class="b" d="m 23.499948,13.9446 v 7.113629 c 0,1.309619 -1.040901,2.37121 -2.324998,2.37121 v 0 c -1.284097,0 -2.324998,-1.061591 -2.324998,-2.37121 V 20.27075"/><path class="b" d="m 13.945095,33.64 h 9.55981"/><path class="b" d="M 13.945,23.429569 V 13.944526"/></svg>