<?xml version='1.0' encoding='UTF-8'?>
<svg xmlns="http://www.w3.org/2000/svg" id="a" viewBox="0 0 48 48"><defs><style>.d{fill:none;stroke:#fff;stroke-width:2px;stroke-linecap:round;stroke-linejoin:round;}</style></defs><path id="b" class="d" d="m20.7308,7.0267l-13.6075,13.9378c-5.1523,5.1523,3.3358,4.723,6.4074,6.6716,1.4202.9248-4.5578,2.1138-3.3358,3.3358,1.189,1.222,7.167,2.345,8.356,3.534,1.189,1.222-2.411,2.5101-1.222,3.7321,1.156,1.222,3.9303.0661,4.4257,2.8404.3633,2.0477,5.0863,1.0239,7.2001-.7266,1.3211-1.1229-2.2789-1.1229-1.0899-2.345,2.9725-3.0055,5.6147-1.3541,6.7047-4.1285.5945-1.4863-4.4918-2.5431-3.1376-3.501,3.2367-2.2789,15.1268-3.4349,9.6441-8.9175l-14.1029-14.4332c-1.7505-1.6514-4.6239-1.6514-6.2423,0Zm15.6222,26.8516c0,.6936,5.3835,1.0899,5.0863-.1651-.4294-2.1138-4.4918-1.9486-5.0863.1651Zm-22.9544,3.6661c1.222,1.0569,3.0716-.2312,3.6661-1.7174-1.189-1.5523-5.5817.0991-3.6661,1.7174Zm22.2938-2.2129c-1.5193,1.3872.2642,2.8404,1.7505,1.8826.3963-.2642-.033-1.5523-1.7505-1.8826Z"/><path id="c" class="d" d="m31.6093,11.7716c1.1369,1.008.417,3.2479.1197,3.5451l-2.6753-2.1798-.5284,3.2037-2.2129-1.189-3.6,2.2789-1.189-4.789-1.9156,4.1615-4.789-.033c-.9248,0-1.904-1.7608-.9462-2.7186"/><path class="d" d="m16.3785,28.5794c2.3692.9252,7.5701,1.4019,11.229,1.5701"/></svg>