<?xml version="1.0" encoding="utf-8"?>
<!-- Generator: Adobe Illustrator 28.0.0, SVG Export Plug-In . SVG Version: 6.00 Build 0)  -->
<svg xmlns:svg="http://www.w3.org/2000/svg" xmlns="http://www.w3.org/2000/svg" xmlns:xlink="http://www.w3.org/1999/xlink" version="1.1" id="svg1" x="0px" y="0px" viewBox="0 0 48 48" style="enable-background:new 0 0 48 48;" xml:space="preserve">
<style type="text/css">
	.st0{fill:none;stroke:#FFFFFF;stroke-width:2px;stroke-linecap:round;stroke-linejoin:round;}
</style>
<path id="v" class="st0" d="M24,2.5C12.1,2.5,2.5,12.1,2.5,24S12.1,45.5,24,45.5S45.5,35.9,45.5,24S35.9,2.5,24,2.5z M20.7,6.2  C21.8,6,22.9,5.9,24,5.9c1.1,0,2.2,0.1,3.3,0.3c0,0.2,0.1,0.5,0.1,0.7c0,1.9-1.5,3.4-3.4,3.4s-3.4-1.5-3.4-3.4  C20.6,6.7,20.7,6.4,20.7,6.2L20.7,6.2z M22.7,21.1v13.6 M24,42.1C14,42.1,5.9,34,5.9,24c0-6.4,3.3-12.2,8.8-15.5  c-0.1,0.6-0.2,1.2-0.2,1.9c0,3.8,2.2,7.1,5.4,8.6v17.2l4.1,4.1l4.1-4.1l-0.2-3.6l1.9-1.9l-1.9-1.9l2.9-2.9l-2.9-2.9l0.2-4  c3.2-1.5,5.4-4.8,5.4-8.6c0-0.6,0-1.2-0.2-1.9c5.4,3.3,8.8,9.2,8.8,15.5C42.1,34,34,42.1,24,42.1z"/>
</svg>
