<?xml version='1.0' encoding='UTF-8'?>
<svg xmlns="http://www.w3.org/2000/svg" id="a" viewBox="0 0 48 48"><defs><style>.b{fill:none;stroke:#fff;stroke-width:2px;stroke-linecap:round;stroke-linejoin:round;}</style></defs><path class="b" d="m38.91,20.12l-15-15c-.3734-.3756-.8804-.5878-1.41-.59h-12c-1.1046,0-2,.8954-2,2v35c0,1.1046.8954,2,2,2h27c1.1046,0,2-.8954,2-2v-20c-.0022-.5296-.2144-1.0366-.59-1.41Z"/><path class="b" d="m29.89,5.52l8.59,8.59c.2467.2212.626.2006.8473-.0461.0926-.1032.1466-.2354.1527-.3739v-7.19c0-1.1046-.8954-2-2-2h-7.17c-.3313.0047-.5962.277-.5915.6084.0022.1541.0636.3016.1715.4116Z"/><circle class="b" cx="18.2296" cy="25.5788" r="4.2891"/><rect class="b" x="26.5744" y="25.2141" width="7.4851" height="7.4851"/><polygon class="b" points="22.9778 30.1544 18.6153 37.7103 27.3402 37.7103 22.9778 30.1544"/></svg>