<?xml version='1.0' encoding='UTF-8'?>
<svg xmlns="http://www.w3.org/2000/svg" width="48" height="48" version="1.1" viewBox="0 0 48 48"><defs><style>.b{fill:none;stroke:#fff;stroke-width:2px;stroke-linecap:round;stroke-linejoin:round;}</style></defs><path class="b" d="m29.5 22h8"/><path class="b" d="m29.5 26h8"/><rect class="b b" x="5.5" y="5.5" width="37" height="37" rx="2" ry="2"/><path class="b" d="m24 5.5v37"/><path class="b" d="m24 24h-18.5"/><path class="b" d="m19.25 37.041h-2.79l1.458-1.6093c0.72-0.80016 1.116-1.8161 1.116-2.859 0-1.0789-0.45-2.1127-1.251-2.8769-0.801-0.76419-1.89-1.1958-3.033-1.1958-1.134 0-2.223 0.43156-3.033 1.1958-0.801 0.76419-1.251 1.7981-1.251 2.8769 0 1.0519 0.39599 2.0678 1.116 2.859l1.458 1.6093h-2.79"/><line class="cls-2 b" x1="18.25" x2="11.25" y1="10" y2="19.238"/><line class="cls-2 b" x1="18.25" x2="11.25" y1="19.238" y2="10"/></svg>