<svg viewBox="0 0 48 48" xmlns="http://www.w3.org/2000/svg">
 <defs>
  <style>.a{fill:none;stroke:#fff;stroke-linecap:round;stroke-linejoin:round;}</style>
 </defs>
 <path class="a" d="m40.5 5.5h-33a2 2 0 0 0-2 2v33a2 2 0 0 0 2 2h33a2 2 0 0 0 2-2v-33a2 2 0 0 0-2-2z"/>
 <path class="a" d="M25.5785,36.1424c-.041-4.7889,1.0624-8.7464,7.0814-8.4979C41.246,5.7628,6.2359,6.5969,15.5681,27.5138c2.83-.1756,7.5212,1.5092,6.72,9.1465"/>
 <path class="a" d="m42.5 33.479-37 5.8236"/>
 <path class="a" d="m5.5 11.04 12.3448 2.29"/>
 <path class="a" d="M32.3554,15.53,42.5,17.0114"/>
</svg>
