<!-- Generator: Adobe Illustrator 25.3.0, SVG Export Plug-In . SVG Version: 6.00 Build 0)  -->
<svg id="Layer_1" style="enable-background:new 0 0 48 48" version="1.1" viewBox="0 0 48 48" xmlns="http://www.w3.org/2000/svg">
 <style type="text/css">.st0{fill:none;stroke:#FFFFFF;stroke-linecap:round;stroke-linejoin:round;}
	.st1{fill:none;stroke:#FFFFFF;stroke-linecap:round;stroke-linejoin:round;stroke-miterlimit:10;}</style>
 <path class="st0" d="m43.5 28.8v0.2c0 5.4-4.4 9.8-9.8 9.8s-9.8-4.4-9.8-9.8v-10c0-5.4 4.4-9.8 9.8-9.8s9.8 4.4 9.8 9.8v0.1"/>
 <path class="st0" d="m38.9 24.7c0.1-0.5 0.1-0.9 0-1.4l1.5-1.2c0.1-0.1 0.2-0.3 0.1-0.4l-1.4-2.4c-0.1-0.1-0.3-0.2-0.4-0.2l-1.7 0.7c-0.4-0.3-0.8-0.5-1.2-0.7l-0.3-1.9c0-0.2-0.2-0.3-0.3-0.3h-2.8c-0.2 0-0.3 0.1-0.3 0.3l-0.3 1.9c-0.4 0.2-0.8 0.4-1.2 0.7l-1.7-0.7c-0.2-0.1-0.3 0-0.4 0.2l-1.5 2.4c-0.1 0.1-0.1 0.3 0.1 0.4l1.5 1.2c-0.1 0.5-0.1 0.9 0 1.4l-1.5 1.2c-0.1 0.1-0.2 0.3-0.1 0.4l1.4 2.4c0.1 0.1 0.3 0.2 0.4 0.2l1.7-0.7c0.4 0.3 0.8 0.5 1.2 0.7l0.3 1.9c0 0.2 0.2 0.3 0.3 0.3h2.8c0.2 0 0.3-0.1 0.3-0.3l0.3-1.9c0.4-0.2 0.8-0.4 1.2-0.7l1.7 0.7c0.2 0.1 0.3 0 0.4-0.2l1.4-2.4c0.1-0.1 0.1-0.3-0.1-0.4l-1.4-1.2zm-5.2 1.3c-1.1 0-2-0.9-2-2s0.9-2 2-2 2 0.9 2 2-0.8 2-2 2c0.1 0 0 0 0 0z"/>
 <path class="st1" d="m16.6 24c4 0 7.4 3.3 7.4 7.4 0 4-3.3 7.4-7.4 7.4h-2.9c-5.1 0-7-0.7-9.2-2.6"/>
 <path class="st1" d="m4.5 11.9c2.2-1.8 4.4-2.6 9.2-2.6h2.9c4 0 7.4 3.3 7.4 7.4 0 4-3.3 7.4-7.4 7.4h-7.3"/>
</svg>
