<svg viewBox="0 0 48 48" xmlns="http://www.w3.org/2000/svg">
 <defs>
  <style>.a{fill:none;stroke:#fff;stroke-linecap:round;stroke-linejoin:round;}</style>
 </defs>
 <path class="a" d="m6.5281 16.4311v15.1378a4.3619 4.3619 0 0 0 2.1811 3.7777l13.11 7.569a4.3624 4.3624 0 0 0 4.3622 0l13.11-7.569a4.3619 4.3619 0 0 0 2.1811-3.7777v-15.1378a4.3619 4.3619 0 0 0-2.1811-3.7777l-13.11-7.569a4.3624 4.3624 0 0 0-4.3622 0l-13.11 7.569a4.3619 4.3619 0 0 0-2.1811 3.7777z"/>
 <polyline class="a" points="19.304 41.408 28.638 24.061 17.146 24.061"/>
</svg>
