<svg viewBox="0 0 48 48" xmlns="http://www.w3.org/2000/svg">
 <defs>
  <style>.a{fill:none;stroke:#feffff;stroke-linecap:round;stroke-linejoin:round;}</style>
 </defs>
 <path class="a" d="m11.11 25.66a13 13 0 0 1 6.45-11.23 12.65 12.65 0 0 1 12.88 0 13 13 0 0 1 6.45 11.23"/>
 <path class="a" d="m8.18 25.66a17.87 17.87 0 0 1 8.11-15.14 15.19 15.19 0 0 1 16.2 0 17.87 17.87 0 0 1 8.11 15.14"/>
 <path class="a" d="m22 22.24a2.21 2.21 0 0 1-2.25 2.24 2.2 2.2 0 0 1-2.24-2.24 2.21 2.21 0 0 1 2.19-2.24 2.27 2.27 0 0 1 2.3 2.24z"/>
 <path class="a" d="m31.52 22.24a2.21 2.21 0 0 1-2.25 2.24 2.2 2.2 0 0 1-2.27-2.24 2.21 2.21 0 0 1 2.27-2.24 2.22 2.22 0 0 1 2.25 2.25z"/>
 <path class="a" d="M24,31.05c2-2,8.43,3.34,14.17,3.34,3.6,0,5-4.39,5-4.39S46.46,39.82,33,39.82a10,10,0,0,1-9-5,10,10,0,0,1-9,5C1.54,39.82,4.86,30,4.86,30s1.37,4.39,5,4.39C15.57,34.39,22,29,24,31.05Z"/>
</svg>
