<svg viewBox="0 0 48 48" xmlns="http://www.w3.org/2000/svg">
 <defs>
  <style>.a{fill:none;stroke:#fff;stroke-linecap:round;stroke-linejoin:round;}</style>
 </defs>
 <path class="a" d="m33.4258 18.0033v0.0524a4.2378 4.2378 0 0 1-4.2378 4.2379 4.2379 4.2379 0 0 1-4.238-4.2379v-4.3178a4.2379 4.2379 0 0 1 4.238-4.2379 4.2378 4.2378 0 0 1 4.2378 4.2379v0.0521"/>
 <line class="a" x1="14.5742" x2="18.8201" y1="22.2556" y2="9.5"/>
 <line class="a" x1="22.89" x2="18.8201" y1="22.2936" y2="9.5"/>
 <line class="a" x1="21.5285" x2="15.9861" y1="18.014" y2="18.014"/>
 <polyline class="a" points="18.43 33.222 23.708 38.5 28.986 33.222"/>
 <line class="a" x1="23.7083" x2="23.7083" y1="38.5" y2="25.7064"/>
 <rect class="a" x="5.5" y="5.5" width="37" height="37" rx="2"/>
</svg>
