<svg viewBox="0 0 48 48" xmlns="http://www.w3.org/2000/svg">
 <defs>
  <style>.a{fill:none;stroke:#fff;stroke-linecap:round;stroke-linejoin:round;}</style>
 </defs>
 <line class="a" x1="8.26" x2="10.34" y1="12.79" y2="12.79"/>
 <line class="a" x1="21.38" x2="39.74" y1="12.79" y2="12.79"/>
 <line class="a" x1="41.22" x2="43.2" y1="13.73" y2="17.49"/>
 <line class="a" x1="42.25" x2="42.25" y1="19.21" y2="34.85"/>
 <line class="a" x1="43.5" x2="41.87" y1="36.65" y2="39.91"/>
 <line class="a" x1="40.18" x2="8.26" y1="40.85" y2="40.85"/>
 <line class="a" x1="6.93" x2="4.75" y1="39.91" y2="36.3"/>
 <line class="a" x1="5.84" x2="5.84" y1="34.83" y2="19"/>
 <line class="a" x1="4.5" x2="6.48" y1="17.64" y2="14.23"/>
 <line class="a" x1="29.25" x2="29.25" y1="24.32" y2="29.62"/>
 <line class="a" x1="25.08" x2="27.4" y1="32.83" y2="32.83"/>
 <line class="a" x1="19.2" x2="19.2" y1="29.62" y2="24.32"/>
 <line class="a" x1="14.3" x2="17.27" y1="12.79" y2="12.79"/>
 <line class="a" x1="19.3" x2="19.3" y1="12.79" y2="7.15"/>
 <line class="a" x1="20.88" x2="11.08" y1="7.15" y2="7.15"/>
 <line class="a" x1="12.37" x2="12.37" y1="7.15" y2="12.79"/>
 <line class="a" x1="21.04" x2="23.37" y1="32.83" y2="32.83"/>
 <line class="a" x1="25.08" x2="27.4" y1="21.7" y2="21.7"/>
 <line class="a" x1="21.04" x2="23.37" y1="21.7" y2="21.7"/>
</svg>
