<svg viewBox="0 0 48 48" xmlns="http://www.w3.org/2000/svg">
 <defs>
  <style>.a,.b{fill:none;stroke:#fff;}.a{stroke-linecap:round;stroke-linejoin:round;}</style>
 </defs>
 <path class="a" d="M45.5,24A21.5,21.5,0,1,1,24,2.5,21.47,21.47,0,0,1,45.5,24Z"/>
 <path class="b" d="m19.8 20h8.4a1.16 1.16 0 0 1 1.2 1.2v5.6a1.16 1.16 0 0 1-1.2 1.2h-8.4a1.16 1.16 0 0 1-1.2-1.2v-5.6a1.16 1.16 0 0 1 1.2-1.2z"/>
 <path class="a" d="M14.1,24a8.42,8.42,0,0,1,7.2-8.4V7.8a16.43,16.43,0,0,0,0,32.4V32.4A8.42,8.42,0,0,1,14.1,24Z"/>
 <path class="a" d="m33.9 24a8.42 8.42 0 0 1-7.2 8.4v7.8a16.43 16.43 0 0 0 0-32.4v7.8a8.42 8.42 0 0 1 7.2 8.4z"/>
</svg>
