<svg viewBox="0 0 48 48" xmlns="http://www.w3.org/2000/svg">
 <defs>
  <style>.a{fill:none;stroke:#fff;stroke-linecap:round;stroke-linejoin:round;}</style>
 </defs>
 <circle class="a" cx="24" cy="24" r="21.5"/>
 <circle class="a" cx="24" cy="24" r="12.5"/>
 <path class="a" d="m18.7937 29.31a3.1384 3.1384 0 0 0 3.0622 1.49h2.0134a4.2625 4.2625 0 0 0 4.0142-3.4 2.7523 2.7523 0 0 0-2.7712-3.4h-2.2246a2.7523 2.7523 0 0 1-2.7712-3.4 4.2625 4.2625 0 0 1 4.0142-3.4h2.0134a3.1384 3.1384 0 0 1 3.0622 1.49"/>
 <line class="a" x1="25.243" x2="25.5537" y1="17.2" y2="15.5"/>
 <line class="a" x1="22.4463" x2="22.757" y1="32.5" y2="30.8"/>
 <line class="a" x1="24" x2="24" y1="36.5" y2="45.4993"/>
 <line class="a" x1="13.1942" x2="5.4147" y1="17.7162" y2="13.1923"/>
 <line class="a" x1="34.8642" x2="42.6857" y1="17.8177" y2="13.3669"/>
</svg>
