<svg viewBox="0 0 48 48" xmlns="http://www.w3.org/2000/svg">
 <defs>
  <style>.a{fill:none;stroke:#fff;stroke-linecap:round;stroke-linejoin:round;}</style>
 </defs>
 <rect class="a" x="4.5" y="8.4" width="39" height="31.2" rx="2"/>
 <rect class="a" x="8.5" y="12.4" width="31" height="23.2" rx="1"/>
 <rect class="a" x="29.68" y="33.41" width="6.62" height="2.19"/>
 <path class="a" d="m25.84 19a2.6 2.6 0 0 0-3.68 0 2.61 2.61 0 1 0 4.46 1.86 2.54 2.54 0 0 0-0.8-1.86z"/>
 <path class="a" d="m22 25.53h4a3 3 0 0 1 3 3v1.21h-10v-1.21a3 3 0 0 1 3-3z"/>
 <path class="a" d="m17.42 21.47a2 2 0 0 0-2.84 0 2 2 0 1 0 3.42 1.44 2 2 0 0 0-0.6-1.43z"/>
 <path class="a" d="M19.34,27.14a2,2,0,0,0-1.47-.65H14.13a2,2,0,0,0-2,2v1.25H19"/>
 <path class="a" d="m33.42 21.47a2 2 0 0 0-2.84 0 2 2 0 1 0 3.42 1.44 2 2 0 0 0-0.6-1.43z"/>
 <path class="a" d="M29,29.74h6.86V28.49a2,2,0,0,0-2-2H30.13a2,2,0,0,0-1.47.65"/>
</svg>
