<svg viewBox="0 0 48 48" xmlns="http://www.w3.org/2000/svg">
 <defs>
  <style>.a{fill:none;stroke:#fff;stroke-linecap:round;stroke-linejoin:round;}.b{fill:#fff;}</style>
 </defs>
 <path class="a" d="m29.88 32.72a2.4 2.4 0 0 1-1.87 1 1.58 1.58 0 0 1-1.6-2l0.22-1.26a2.42 2.42 0 0 1 2.29-1.95 1.58 1.58 0 0 1 1.6 1.95l-0.11 0.63h-3.89"/>
 <path class="a" d="M24.07,33.7l.57-3.21A1.59,1.59,0,0,0,23,28.54h0a2.43,2.43,0,0,0-2.29,1.95l-.57,3.21"/>
 <line class="a" x1="20.74" x2="21.08" y1="30.49" y2="28.54"/>
 <path class="a" d="M13.48,31.12A2.1,2.1,0,0,0,15.6,33.7a3.21,3.21,0,0,0,3-2.58l.46-2.63A2.11,2.11,0,0,0,17,25.91a3.22,3.22,0,0,0-3,2.58Z"/>
 <path class="a" d="m17.94 19.31a2.43 2.43 0 0 1 2.3-1.94"/>
 <line class="a" x1="18.29" x2="17.38" y1="17.37" y2="22.53"/>
 <ellipse class="b" transform="translate(-1.23 26.79) rotate(-42.48)" cx="33.85" cy="14.98" rx=".74" ry=".62"/>
 <line class="a" x1="33.43" x2="32.52" y1="17.37" y2="22.53"/>
 <path class="a" d="m24.54 21.55a2.41 2.41 0 0 1-1.87 1 1.59 1.59 0 0 1-1.6-2l0.22-1.27a2.43 2.43 0 0 1 2.29-1.94 1.59 1.59 0 0 1 1.61 1.94l-0.11 0.64h-3.9"/>
 <path class="a" d="M36.67,15.76l-1,5.79a.81.81,0,0,0,.81,1h.29"/>
 <line class="a" x1="35.36" x2="37.4" y1="17.37" y2="17.37"/>
 <path class="a" d="m15.8 19.92a3.22 3.22 0 0 1-3 2.58 2.1 2.1 0 0 1-2.16-2.5l0.46-2.63a3.21 3.21 0 0 1 3-2.58 2.1 2.1 0 0 1 2.12 2.58"/>
 <path class="a" d="m31.05 19.31a1.59 1.59 0 0 0-1.61-1.94 2.42 2.42 0 0 0-2.29 1.94l-0.22 1.27a1.58 1.58 0 0 0 1.6 2 2.42 2.42 0 0 0 2.29-2"/>
 <line class="a" x1="30.48" x2="31.85" y1="22.53" y2="14.74"/>
 <path class="a" d="m40.5 42.5h-33a2 2 0 0 1-2-2v-33a2 2 0 0 1 2-2h33a2 2 0 0 1 2 2v33a2 2 0 0 1-2 2z"/>
</svg>
