<svg id="Layer_2" data-name="Layer 2" viewBox="0 0 48 48" xmlns="http://www.w3.org/2000/svg">
 <defs>
  <style>.cls-1{fill:none;stroke:#fff;stroke-linecap:round;stroke-linejoin:round;}</style>
 </defs>
 <path class="cls-1" d="m14.5 15.89a3 3 0 0 1 3 3 3 3 0 1 1-3-3zm9.5 0a3 3 0 0 1 3 3 3 3 0 1 1-3-3zm9.5 0a3 3 0 0 1 3 3 3 3 0 1 1-3-3zm-19 10.21a3 3 0 1 1 0 6 3 3 0 0 1-3-3 3 3 0 0 1 3-3zm9.5 0a3 3 0 0 1 0 6 3 3 0 0 1-3-3 3 3 0 0 1 3-3zm9.5 0a3 3 0 0 1 0 6 3 3 0 0 1-3-3 3 3 0 0 1 3-3z"/>
 <circle class="cls-1" cx="24" cy="24" r="21.5"/>
</svg>
