<svg viewBox="0 0 48 48" xmlns="http://www.w3.org/2000/svg">
 <defs>
  <style>.a{fill:none;stroke:#fff;stroke-linecap:round;stroke-linejoin:round;}</style>
 </defs>
 <polyline class="a" points="18.31 33.36 18.31 13.89 35.56 11.5 35.56 29.4"/>
 <circle class="a" cx="14.35" cy="33.36" r="3.96"/>
 <circle class="a" cx="31.61" cy="29.4" r="3.96"/>
 <path class="a" d="m5.5 24.8a10 10 0 0 0 9.25-6.2 10 10 0 0 0 18.5 0 10 10 0 0 0 9.25 6.2"/>
 <path class="a" d="m7.48 5.5a2 2 0 0 0-2 2v33a2 2 0 0 0 2 2h33.04a2 2 0 0 0 2-2v-33a2 2 0 0 0-2-2h-33.04z"/>
</svg>
