<svg viewBox="0 0 48 48" xmlns="http://www.w3.org/2000/svg">
 <defs>
  <style>.a{fill:none;stroke:#fff;stroke-linecap:round;stroke-linejoin:round;}</style>
 </defs>
 <path class="a" d="M15.64,4.51a2.6,2.6,0,0,0-2.78,2.78H10.08a2.59,2.59,0,0,0-2.79,2.79V40.71a2.59,2.59,0,0,0,2.79,2.78H37.92a2.59,2.59,0,0,0,2.79-2.78V10.08a2.59,2.59,0,0,0-2.79-2.79H35.14c0-3.71-5.57-3.71-5.57,0H18.43a2.6,2.6,0,0,0-2.79-2.78Z"/>
 <line class="a" x1="12.85" x2="35.15" y1="14.05" y2="14.05"/>
 <line class="a" x1="12.85" x2="35.15" y1="21.54" y2="21.54"/>
 <line class="a" x1="12.85" x2="35.15" y1="29.03" y2="29.03"/>
 <line class="a" x1="12.85" x2="35.15" y1="36.53" y2="36.53"/>
</svg>
