<svg id="Layer_2" data-name="Layer 2" viewBox="0 0 48 48" xmlns="http://www.w3.org/2000/svg">
 <defs>
  <style>.cls-1{fill:none;stroke:#fff;stroke-linecap:round;stroke-linejoin:round;}</style>
 </defs>
 <line class="cls-1" x1="24" x2="24" y1="4.5" y2="43.5"/>
 <line class="cls-1" x1="40.89" x2="7.11" y1="14.25" y2="33.75"/>
 <line class="cls-1" x1="40.89" x2="7.11" y1="33.75" y2="14.25"/>
 <line class="cls-1" x1="18.44" x2="18.44" y1="27.21" y2="37.13"/>
 <line class="cls-1" x1="29.56" x2="29.56" y1="27.21" y2="37.13"/>
 <line class="cls-1" x1="29.56" x2="29.56" y1="20.79" y2="10.87"/>
 <line class="cls-1" x1="18.44" x2="18.44" y1="10.87" y2="20.79"/>
 <line class="cls-1" x1="18.44" x2="9.84" y1="20.79" y2="25.75"/>
 <line class="cls-1" x1="24" x2="15.41" y1="30.42" y2="35.38"/>
 <line class="cls-1" x1="29.56" x2="38.16" y1="27.21" y2="22.25"/>
 <line class="cls-1" x1="32.59" x2="24" y1="12.62" y2="17.58"/>
 <line class="cls-1" x1="24" x2="15.41" y1="30.42" y2="35.38"/>
 <line class="cls-1" x1="29.56" x2="38.16" y1="27.21" y2="22.25"/>
 <line class="cls-1" x1="24" x2="15.41" y1="17.58" y2="12.62"/>
 <line class="cls-1" x1="18.44" x2="9.85" y1="27.21" y2="22.25"/>
 <line class="cls-1" x1="24" x2="32.59" y1="30.42" y2="35.38"/>
 <line class="cls-1" x1="38.15" x2="29.56" y1="25.75" y2="20.79"/>
</svg>
