<svg viewBox="0 0 48 48" xmlns="http://www.w3.org/2000/svg">
 <defs>
  <style>.a{fill:none;stroke:#fff;stroke-linecap:round;stroke-linejoin:round;}</style>
 </defs>
 <line class="a" x1="38.7836" x2="41.4154" y1="13.6394" y2="13.6374"/>
 <line class="a" x1="40.1104" x2="43.5" y1="17.1176" y2="17.115"/>
 <path class="a" d="m21.5207 25.9358c5.266-3.276 11.4 3.8213 15.5614-1.99 3.5079-4.8984-5.2171-11.3053-8.2671-13.289-3.68-2.3937-6.9024-1.979-8.885-0.7456-2.37 1.4742-2.6739 4.542-4.7493 5.8332s-4.9619 0.2081-7.3317 1.6823c-1.9825 1.2333-3.7786 3.94-3.258 8.3 0.4315 3.6127 2.3227 14.2709 8.2671 13.2891 7.0519-1.1651 3.3965-9.804 8.6626-13.08z"/>
 <circle class="a" cx="11.9832" cy="24.6938" r="3.1192"/>
 <circle class="a" cx="22.5004" cy="16.0459" r="1.3133"/>
 <circle class="a" cx="27.2715" cy="17.1574" r="1.3133"/>
 <line class="a" x1="14.4153" x2="18.8956" y1="38.5713" y2="38.5679"/>
 <line class="a" x1="17.6687" x2="21.2446" y1="34.0464" y2="34.0436"/>
 <line class="a" x1="36.9655" x2="38.0987" y1="24.1032" y2="24.1023"/>
 <line class="a" x1="37.7995" x2="40.4187" y1="20.4977" y2="20.4957"/>
 <line class="a" x1="36.1412" x2="37.6643" y1="17.1206" y2="17.1194"/>
 <line class="a" x1="32.9255" x2="36.3382" y1="13.7483" y2="13.7456"/>
 <line class="a" x1="40.1157" x2="42.3558" y1="24.1008" y2="24.0991"/>
 <line class="a" x1="21.6051" x2="23.8453" y1="38.5658" y2="38.5641"/>
 <line class="a" x1="27.8634" x2="31.8235" y1="10.0942" y2="10.0911"/>
</svg>
