<svg viewBox="0 0 48 48" xmlns="http://www.w3.org/2000/svg">
 <defs>
  <style>.a{fill:none;stroke:#fff;stroke-linecap:round;stroke-linejoin:round;}</style>
 </defs>
 <path class="a" d="M24,3a4.77,4.77,0,1,0,4.77,4.77A4.78,4.78,0,0,0,24,3ZM7.69,14.86a4.77,4.77,0,1,0,4.76,4.77A4.76,4.76,0,0,0,7.69,14.86Zm32.64,0a4.77,4.77,0,1,0,4.77,4.77A4.77,4.77,0,0,0,40.33,14.86ZM13.92,34.05a4.77,4.77,0,1,0,4.77,4.77A4.76,4.76,0,0,0,13.92,34.05Zm20.18,0a4.77,4.77,0,1,0,4.76,4.77A4.76,4.76,0,0,0,34.1,34.05Z"/>
 <path class="a" d="m19.27 8.35a17.24 17.24 0 0 0-9.73 6.87"/>
 <path class="a" d="m38.05 15.44a17.28 17.28 0 0 0-9.34-6.94"/>
 <path class="a" d="m37.41 35.39a17.09 17.09 0 0 0 3.52-10.39v-0.61"/>
 <path class="a" d="m18 41.22a17.23 17.23 0 0 0 5.68 1 17 17 0 0 0 6.2-1.22"/>
 <path class="a" d="m6.53 24.25v0.72a17.16 17.16 0 0 0 3.77 10.76"/>
</svg>
