<svg viewBox="0 0 48 48" xmlns="http://www.w3.org/2000/svg">
 <defs>
  <style>.a{fill:#fff;}.b{fill:none;stroke:#fff;stroke-linecap:round;stroke-linejoin:round;}</style>
 </defs>
 <circle class="a" cx="17.57" cy="12.56" r=".75"/>
 <path class="b" d="m24 22.64v-8.58a1.82 1.82 0 0 1 1.83-1.82 2.09 2.09 0 0 1 1.83 0.76"/>
 <line class="b" x1="20.45" x2="26.25" y1="15.75" y2="15.75"/>
 <path class="b" d="m22.86 12.28a3.65 3.65 0 0 0-0.59 0 1.81 1.81 0 0 0-1.82 1.82v8.58h-2.88v-6.93h-2.87v7.8a2.59 2.59 0 0 1-2.6 2.6 2.59 2.59 0 0 1-1.84-0.76"/>
 <rect class="b" transform="translate(24.2 38.39) rotate(180)" x="9.5" y="15.75" width="5.2" height="6.89" rx="2.6"/>
 <rect class="b" transform="translate(35.69 58.78) rotate(180)" x="15.25" y="25.94" width="5.2" height="6.89" rx="2.6"/>
 <path class="b" d="m34.84 32.84v-8.59a1.82 1.82 0 0 1 1.82-1.82 2.13 2.13 0 0 1 1.84 0.76"/>
 <line class="b" x1="31.25" x2="37.06" y1="25.94" y2="25.94"/>
 <path class="b" d="m20.45 25.94v7.81a2.61 2.61 0 0 1-2.6 2.6 2.59 2.59 0 0 1-1.85-0.76"/>
 <path class="b" d="m28.38 30.24a2.6 2.6 0 0 1-2.6 2.6 2.61 2.61 0 0 1-2.6-2.6v-1.69a2.61 2.61 0 0 1 2.6-2.61 2.6 2.6 0 0 1 2.6 2.61"/>
 <path class="b" d="m33.66 22.48a3.42 3.42 0 0 0-0.59-0.05 1.83 1.83 0 0 0-1.82 1.82v8.59h-2.87v-6.9"/>
 <path class="b" d="m40.5 5.5h-33a2 2 0 0 0-2 2v33a2 2 0 0 0 2 2h33a2 2 0 0 0 2-2v-33a2 2 0 0 0-2-2z"/>
</svg>
