<svg viewBox="0 0 48 48" xmlns="http://www.w3.org/2000/svg">
 <defs>
  <style>.a{fill:none;stroke:#fff;stroke-linecap:round;stroke-linejoin:round;}.b{fill:#fff;}</style>
 </defs>
 <path class="a" d="m27.2 29h5.54l-1.3 6.48-1.06-2.28c-3.7 3.11-13.66 6-17-4.24 3.8 7.74 13.19 4.07 15.67 1.65z"/>
 <path class="a" d="m18.09 25.64a2.74 2.74 0 0 1-2.75-3.34l0.39-2.17a4.15 4.15 0 0 1 3.92-3.33 2.73 2.73 0 0 1 2.75 3.33l-0.4 2.17a4.15 4.15 0 0 1-3.91 3.34z"/>
 <path class="a" d="m28 25.64a2.73 2.73 0 0 1-2.75-3.34l0.38-2.17a4.17 4.17 0 0 1 3.93-3.33 2.73 2.73 0 0 1 2.75 3.33l-0.39 2.17a4.16 4.16 0 0 1-3.92 3.34z"/>
 <ellipse class="b" transform="translate(-6.86 7.93) rotate(-42.48)" cx="6.76" cy="12.79" rx=".82" ry=".69"/>
 <line class="a" x1="6.06" x2="4.5" y1="16.8" y2="25.64"/>
 <path class="a" d="m42.12 20.13a2.73 2.73 0 0 0-2.75-3.33 4.15 4.15 0 0 0-3.92 3.33l-0.39 2.17a2.74 2.74 0 0 0 2.75 3.34 4.17 4.17 0 0 0 3.93-3.34"/>
 <line class="a" x1="41.15" x2="43.5" y1="25.64" y2="12.29"/>
 <path class="a" d="m9.25 28.26 2.4-13.63a2.84 2.84 0 0 1 2.75-2.34 2.17 2.17 0 0 1 2.16 1"/>
 <line class="a" x1="9.44" x2="14.11" y1="16.8" y2="16.8"/>
</svg>
