<svg viewBox="0 0 48 48" xmlns="http://www.w3.org/2000/svg">
 <defs>
  <style>.a{fill:none;stroke:#fff;stroke-linecap:round;stroke-linejoin:round;}</style>
 </defs>
 <path class="a" d="m40.5 42.5h-33a2 2 0 0 1-2-2v-33a2 2 0 0 1 2-2h33a2 2 0 0 1 2 2v33a2 2 0 0 1-2 2z"/>
 <line class="a" x1="10.15" x2="10.15" y1="18.5" y2="29.5"/>
 <line class="a" x1="22.92" x2="28.42" y1="18.5" y2="18.5"/>
 <line class="a" x1="22.92" x2="26.49" y1="24" y2="24"/>
 <line class="a" x1="22.92" x2="22.92" y1="18.5" y2="29.5"/>
 <path class="a" d="m12.92 29.5v-11h3.6a3.7 3.7 0 0 1 0 7.39h-3.6"/>
 <path class="a" d="m30.78 28.29a3.07 3.07 0 0 0 2.69 1.21h1.63a2.75 2.75 0 0 0 2.75-2.75 2.75 2.75 0 0 0-2.75-2.75h-1.8a2.75 2.75 0 0 1-2.74-2.75 2.75 2.75 0 0 1 2.74-2.75h1.63a3.08 3.08 0 0 1 2.7 1.21"/>
</svg>
