<svg viewBox="0 0 48 48" xmlns="http://www.w3.org/2000/svg">
 <defs>
  <style>.a{fill:none;stroke:#fff;stroke-linecap:round;stroke-linejoin:round;}</style>
 </defs>
 <circle class="a" cx="33.14" cy="31.93" r="6.54"/>
 <path class="a" d="m42.5 31.5c0.33-5.14-5.65-9.61-8.17-11.87 1.72-4.43-3.52-9.07-8.16-6.84a14.61 14.61 0 0 0-10.26-4.27c-9.26 0.13-16.37 10.27-7.27 19.37 2.25 2.25 3-2.51 6.76-3.64 6.09-2.56 14.7 4.07 18.93-4.62m-3.28-1.54a1.22 1.22 0 0 0-1.19-1.2 1.24 1.24 0 0 0-1.2 1.26 1.31 1.31 0 0 0 0.42 1 2 2 0 0 1 0.32-3.9 1.92 1.92 0 0 1 1.87 2 2.11 2.11 0 0 1-0.22 0.84z"/>
 <path class="a" d="M33.61,20.9a1.08,1.08,0,0,1,1.72-.4"/>
 <path class="a" d="m9.74 25.38s1 6.56 2.73 9.63c0 0 3-1.3 7 1.6"/>
 <path class="a" d="M12.47,35c2.16.38,5.09,2.24,5.27,4"/>
 <path class="a" d="M10.69,39.71c-.5-2.16.48-4.17,1.78-4.7"/>
 <path class="a" d="M14.37,25.2a22.77,22.77,0,0,0,2.32,7s1.28-1.93,5.15.26"/>
 <path class="a" d="M16.69,32.24c2.16.38,5.55,1.74,5.72,3.5"/>
 <path class="a" d="M14.66,33.48c.13-.85.59-1.11,2-1.24"/>
</svg>
