<svg viewBox="0 0 48 48" xmlns="http://www.w3.org/2000/svg">
 <defs>
  <style>.a,.b,.c{fill:none;stroke-linecap:round;stroke-linejoin:round;}.a,.b{stroke:#fffff7;}.c{stroke:#fff;}</style>
 </defs>
 <polyline class="a" points="31.05 16.96 31.05 30.47 38.5 30.47"/>
 <line class="b" x1="9.5" x2="15.93" y1="30.63" y2="30.63"/>
 <line class="b" x1="9.5" x2="15.93" y1="17.91" y2="17.91"/>
 <line class="b" x1="9.5" x2="13.68" y1="24.27" y2="24.27"/>
 <line class="b" x1="9.5" x2="9.5" y1="17.91" y2="30.63"/>
 <path class="a" d="M18.52,29.52A4.55,4.55,0,0,0,22.19,31H24.4a3.54,3.54,0,0,0,3.67-3.39h0a3.54,3.54,0,0,0-3.67-3.38H22a3.54,3.54,0,0,1-3.67-3.38h0A3.55,3.55,0,0,1,22,17.5h2.2A4.08,4.08,0,0,1,27.89,19"/>
 <path class="c" d="m40.5 42.5h-33a2 2 0 0 1-2-2v-33a2 2 0 0 1 2-2h33a2 2 0 0 1 2 2v33a2 2 0 0 1-2 2z"/>
</svg>
