<svg id="Layer_2" data-name="Layer 2" viewBox="0 0 48 48" xmlns="http://www.w3.org/2000/svg">
 <defs>
  <style>.cls-1{fill:none;stroke:#fff;stroke-linecap:round;stroke-linejoin:round;}</style>
 </defs>
 <path class="cls-1" d="m6.45 8.4a2 2 0 0 0-1.95 1.95v27.3a2 2 0 0 0 2 2h35.1a2 2 0 0 0 2-2v-27.3a2 2 0 0 0-2-1.95zm3.79 8.14 1.71-3 1.71 3m0 2.41-1.71 3-1.71-3m0 10.08 1.71-3 1.71 3m0 2.41-1.71 3-1.71-3"/>
 <line class="cls-1" x1="17.92" x2="39.03" y1="13.58" y2="13.58"/>
 <line class="cls-1" x1="39.03" x2="21.65" y1="17.75" y2="17.75"/>
 <line class="cls-1" x1="25.37" x2="39.03" y1="21.91" y2="21.91"/>
 <line class="cls-1" x1="17.92" x2="39.03" y1="26.09" y2="26.09"/>
 <line class="cls-1" x1="39.03" x2="21.65" y1="30.25" y2="30.25"/>
 <line class="cls-1" x1="25.37" x2="39.03" y1="34.42" y2="34.42"/>
</svg>
