<svg id="Layer_2" data-name="Layer 2" viewBox="0 0 48 48" xmlns="http://www.w3.org/2000/svg">
 <defs>
  <style>.cls-1{fill:none;stroke:#fff;stroke-linecap:round;stroke-linejoin:round;}</style>
 </defs>
 <line class="cls-1" x1="9.79" x2="9.79" y1="18.85" y2="29.31"/>
 <line class="cls-1" x1="16.81" x2="16.81" y1="29.31" y2="18.85"/>
 <line class="cls-1" x1="9.79" x2="16.81" y1="18.85" y2="29.31"/>
 <path class="cls-1" d="m34.51 18.83a3.65 3.65 0 0 0-3.32 3.71v3.26a3.51 3.51 0 0 0 3.51 3.51 3.51 3.51 0 0 0 3.51-3.51"/>
 <path class="cls-1" d="m38.21 25.8a3.52 3.52 0 0 0-3.51-3.52 3.52 3.52 0 0 0-3.51 3.52"/>
 <line class="cls-1" x1="34.51" x2="36.36" y1="18.83" y2="18.83"/>
 <path class="cls-1" d="m27.47 22.34a3.5 3.5 0 0 0-3.7-3.51 3.64 3.64 0 0 0-3.32 3.7"/>
 <path class="cls-1" d="M27.47,29.31h-7l5.29-3.67a3.81,3.81,0,0,0,1.6-2.12,3.64,3.64,0,0,0,.13-1"/>
 <line class="cls-1" x1="9.79" x2="16.81" y1="31.76" y2="31.76"/>
 <line class="cls-1" x1="9.79" x2="16.81" y1="16.24" y2="16.24"/>
 <rect class="cls-1" x="5" y="5" width="38" height="38" rx="2"/>
</svg>
