<svg id="Layer_2" data-name="Layer 2" viewBox="0 0 48 48" xmlns="http://www.w3.org/2000/svg">
 <defs>
  <style>.cls-1{fill:none;stroke:#fff;stroke-linecap:round;stroke-linejoin:round;}</style>
 </defs>
 <path class="cls-1" d="m40.5 5.5h-33a2 2 0 0 0-2 2v33a2 2 0 0 0 2 2h33a2 2 0 0 0 2-2v-33a2 2 0 0 0-2-2z"/>
 <rect class="cls-1" x="23.01" y="20.35" width="4.7" height="6.25" rx="2.35"/>
 <line class="cls-1" x1="27.71" x2="27.71" y1="22.7" y2="26.6"/>
 <path class="cls-1" d="m20.09 25.91a2.31 2.31 0 0 1-1.66 0.69 2.35 2.35 0 0 1-2.35-2.35v-1.55a2.35 2.35 0 0 1 2.35-2.35 2.35 2.35 0 0 1 2.35 2.35v0.71"/>
 <line class="cls-1" x1="20.78" x2="16.08" y1="23.48" y2="23.48"/>
 <rect class="cls-1" x="34.15" y="20.49" width="4.7" height="6.11" rx="2.35"/>
 <path class="cls-1" d="m9.15 22.84a2.35 2.35 0 0 1 2.35-2.35 2.35 2.35 0 0 1 2.35 2.35v3.76"/>
 <line class="cls-1" x1="9.15" x2="9.15" y1="22.84" y2="26.6"/>
 <line class="cls-1" x1="31.21" x2="31.21" y1="17.21" y2="26.6"/>
 <line class="cls-1" x1="29.98" x2="31.21" y1="20.49" y2="20.49"/>
 <line class="cls-1" x1="31.21" x2="32.43" y1="20.49" y2="20.49"/>
</svg>
