<svg id="Layer_2" data-name="Layer 2" viewBox="0 0 48 48" xmlns="http://www.w3.org/2000/svg">
 <defs>
  <style>.cls-1{fill:none;stroke:#fff;stroke-linecap:round;stroke-linejoin:round;}</style>
 </defs>
 <path class="cls-1" d="m40.5 5.5h-33a2 2 0 0 0-2 2v33a2 2 0 0 0 2 2h33a2 2 0 0 0 2-2v-33a2 2 0 0 0-2-2z"/>
 <path class="cls-1" d="M33.05,19.55a9.06,9.06,0,0,0-9.54-9c-4.89.26-8.56,4.65-8.56,9.55v8.39A9,9,0,0,0,24,37.5h0a9,9,0,0,0,9-9v-8.9"/>
 <line class="cls-1" x1="30.9" x2="17.09" y1="13.7" y2="34.29"/>
</svg>
