<svg viewBox="0 0 48 48" xmlns="http://www.w3.org/2000/svg">
 <defs>
  <style>.a{fill:none;stroke:#fff;stroke-linecap:round;stroke-linejoin:round;}</style>
 </defs>
 <path class="a" d="M19.14,22.2a8.93,8.93,0,1,1,9.7.06"/>
 <path class="a" d="m22.36 33.28a8.93 8.93 0 1 1-4.71-7.88"/>
 <path class="a" d="M39.41,25.77a8.93,8.93,0,1,1-9.59-.06"/>
 <path class="a" d="M21.72,18.05A4.2,4.2,0,1,1,26.44,18"/>
 <path class="a" d="m17.63 33.28a4.2 4.2 0 1 1-2.22-3.7"/>
 <path class="a" d="M37,29.93a4.15,4.15,0,1,1-4.84-.06"/>
 <path class="a" d="m21.72 18.05-2.58 4.15"/>
 <path class="a" d="m17.65 25.4-2.24 4.18"/>
 <path class="a" d="m28.84 22.26-2.4-4.26"/>
 <path class="a" d="m29.82 25.71 2.37 4.16"/>
 <path class="a" d="m37 29.93 2.38-4.16"/>
 <path class="a" d="m22.31 33.28h-4.63"/>
</svg>
