<svg viewBox="0 0 48 48" xmlns="http://www.w3.org/2000/svg">
 <defs>
  <style>.a,.b{fill:none;stroke:#fff;}.a{stroke-linecap:square;stroke-miterlimit:15.1181;}.b{stroke-linecap:round;stroke-linejoin:round;}</style>
 </defs>
 <circle class="a" cx="24" cy="24" r="15.3709"/>
 <polygon class="b" points="24 2.5 25.953 6.389 22.047 6.389"/>
 <line class="b" x1="24" x2="24" y1="6.3892" y2="10.2192"/>
 <polygon class="b" points="39.203 8.797 37.834 12.928 35.072 10.166"/>
 <line class="b" x1="36.4527" x2="33.7445" y1="11.5473" y2="14.2555"/>
 <polygon class="b" points="45.5 24 41.611 25.953 41.611 22.047"/>
 <line class="b" x1="41.6108" x2="37.7808" y1="24" y2="24"/>
 <polygon class="b" points="39.203 39.203 35.072 37.834 37.834 35.072"/>
 <line class="b" x1="36.4527" x2="33.7445" y1="36.4527" y2="33.7445"/>
 <polygon class="b" points="24 45.5 22.047 41.611 25.953 41.611"/>
 <line class="b" x1="24" x2="24" y1="41.6108" y2="37.7808"/>
 <polygon class="b" points="8.797 39.203 10.166 35.072 12.928 37.834"/>
 <line class="b" x1="11.5473" x2="14.2555" y1="36.4527" y2="33.7445"/>
 <polygon class="b" points="2.5 24 6.389 22.047 6.389 25.953"/>
 <line class="b" x1="6.3892" x2="10.2192" y1="24" y2="24"/>
 <polygon class="b" points="8.797 8.797 12.928 10.166 10.166 12.928"/>
 <line class="b" x1="11.5473" x2="14.2555" y1="11.5473" y2="14.2555"/>
 <path class="b" d="m21.6175 20.1182c0-1.1648 0.5511-2.109 1.2309-2.109h2.3267c0.68 0 1.2309 0.9442 1.2309 2.109 0 1.1647-0.5511 2.109-1.2309 2.109h-2.3267c-0.6798 0-1.2309-0.9443-1.2309-2.109z"/>
 <rect class="b" x="23.1642" y="22.2272" width="1.695" height="1.8336"/>
 <path class="b" d="M27.6713,34.5H20.35a.8935.8935,0,0,1-.9786-.9615,3.2777,3.2777,0,0,1,2.5475-3.2222l1.0181-.3089h0V24.0608h2.15v5.9466h0l1.0158.3089a3.2568,3.2568,0,0,1,2.5264,3.3315C28.6018,34.2312,28.2879,34.4583,27.6713,34.5Z"/>
 <line class="b" x1="24.0117" x2="24.0117" y1="13.5" y2="18.0091"/>
 <line class="b" x1="21.9809" x2="26.0426" y1="15.6668" y2="15.6668"/>
 <line class="b" x1="21.6175" x2="26.406" y1="24.0608" y2="24.0608"/>
</svg>
