<svg id="Layer_2" data-name="Layer 2" viewBox="0 0 48 48" xmlns="http://www.w3.org/2000/svg">
 <defs>
  <style>.cls-1{fill:none;stroke:#fff;stroke-linecap:round;stroke-linejoin:round;}</style>
 </defs>
 <polygon class="cls-1" points="17.51 22.35 4.5 25.43 4.5 31.26 17.51 28.18"/>
 <path class="cls-1" d="m21.66 17.07a3.24 3.24 0 0 1 6.4-0.72l15.07-3.44v-5.84l-18.32 4.19-7.3-1.81v3.48l-13 3v5.84l17.25-3.9a3.31 3.31 0 0 1-0.1-0.8z"/>
 <path class="cls-1" d="M43.38,16.44l-6,1.51c.18,4.35-5.5,11-12.45,12.32L4.5,34.91v5.84l13-3v3.17H24.9V36.07C35.5,33.81,44.66,24.6,43.38,16.44Z"/>
</svg>
