<svg viewBox="0 0 48 48" xmlns="http://www.w3.org/2000/svg">
 <defs>
  <style>.a{fill:none;stroke:#fff;stroke-linecap:round;stroke-linejoin:round;}</style>
 </defs>
 <path class="a" d="m12.94 8.74v-1.88a2.36 2.36 0 0 1 2.36-2.36 2.36 2.36 0 0 1 2.36 2.36v1.88m12.68 0v-1.88a2.36 2.36 0 0 1 2.36-2.36 2.36 2.36 0 0 1 2.36 2.36v1.88"/>
 <rect class="a" x="6.62" y="8.74" width="34.76" height="34.76" rx="1.88"/>
 <path class="a" d="m18.58 38.33a3.82 3.82 0 0 0 3.83-3.83 3.83 3.83 0 0 0-3.83-3.84 3.83 3.83 0 0 0 3.83-3.84 3.82 3.82 0 0 0-3.83-3.82"/>
 <path class="a" d="M12.5,37c1.06.89,2.21,1.29,4.78,1.29h1.3"/>
 <path class="a" d="M12.5,24.26c1.06-.88,2.21-1.28,4.78-1.28h1.3"/>
 <path class="a" d="m25.33 33.25a5.09 5.09 0 0 0 10.17 0v-5.18a5.09 5.09 0 1 0-10.17 0z"/>
 <line class="a" x1="6.62" x2="41.38" y1="17.69" y2="17.69"/>
</svg>
