<svg viewBox="0 0 48 48" xmlns="http://www.w3.org/2000/svg">
 <defs>
  <style>.a{fill:none;stroke:#fff;stroke-linecap:round;stroke-linejoin:round;}</style>
 </defs>
 <path class="a" d="m6.27 9.47a1.77 1.77 0 0 0-1.77 1.78v24.82a1.77 1.77 0 0 0 1.77 1.77h35.46a1.78 1.78 0 0 0 1.77-1.77v-24.82a1.78 1.78 0 0 0-1.77-1.78zm12.41 7a1.77 1.77 0 0 1 1.77 1.77 1.77 1.77 0 1 1-1.77-1.77zm5.32 0a1.77 1.77 0 0 1 1.77 1.77 1.77 1.77 0 1 1-1.77-1.72zm5.32 0a1.77 1.77 0 0 1 1.77 1.77 1.77 1.77 0 1 1-1.77-1.77zm5.32 0a1.77 1.77 0 0 1 1.77 1.77 1.78 1.78 0 1 1-1.77-1.77zm-16 5.32a1.77 1.77 0 1 1-1.77 1.77 1.77 1.77 0 0 1 1.81-1.72zm5.32 0a1.77 1.77 0 1 1-1.77 1.77 1.77 1.77 0 0 1 1.81-1.72zm5.32 0a1.77 1.77 0 1 1-1.77 1.77 1.77 1.77 0 0 1 1.81-1.72zm5.32 0a1.77 1.77 0 1 1-1.78 1.77 1.77 1.77 0 0 1 1.82-1.72zm-16 5.32a1.77 1.77 0 1 1-1.77 1.77 1.77 1.77 0 0 1 1.85-1.72zm5.32 0a1.77 1.77 0 1 1-1.77 1.77 1.77 1.77 0 0 1 1.85-1.72zm5.32 0a1.77 1.77 0 1 1-1.77 1.77 1.77 1.77 0 0 1 1.85-1.72zm5.32 0a1.77 1.77 0 1 1-1.78 1.77 1.77 1.77 0 0 1 1.86-1.72z"/>
 <line class="a" x1="24" x2="13.08" y1="5.39" y2="9.47"/>
</svg>
