<svg viewBox="0 0 48 48" xmlns="http://www.w3.org/2000/svg">
 <defs>
  <style>.a{fill:none;stroke:#fff;stroke-linecap:round;stroke-linejoin:round;}.b{fill:#fff;}</style>
 </defs>
 <path class="a" d="m40.5 42.5h-33a2.0059 2.0059 0 0 1-2-2v-33a2.0059 2.0059 0 0 1 2-2h33a2.0059 2.0059 0 0 1 2 2v33a2.0059 2.0059 0 0 1-2 2z"/>
 <rect class="a" x="32.2026" y="20.442" width="5.7974" height="7.6815" rx="2.8987"/>
 <path class="a" d="m10 23.3406a2.8986 2.8986 0 0 1 2.8987-2.8986"/>
 <line class="a" x1="10" x2="10" y1="20.442" y2="28.1235"/>
 <circle class="b" cx="29.2885" cy="16.8911" r=".75"/>
 <line class="a" x1="29.2885" x2="29.2885" y1="20.442" y2="28.1235"/>
 <line class="a" x1="24.9868" x2="24.9868" y1="18.0506" y2="28.1235"/>
 <line class="a" x1="23.465" x2="26.5086" y1="20.442" y2="20.442"/>
 <path class="a" d="m20.6388 25.2248a2.8987 2.8987 0 0 1-2.8988 2.8987 2.8987 2.8987 0 0 1-2.8987-2.8987v-1.8842a2.8986 2.8986 0 0 1 2.8987-2.8986 2.8986 2.8986 0 0 1 2.8987 2.8986"/>
 <line class="a" x1="20.6388" x2="20.6388" y1="28.1235" y2="20.442"/>
</svg>
