<svg viewBox="0 0 48 48" xmlns="http://www.w3.org/2000/svg">
 <defs>
  <style>.a{fill:none;stroke:#fff;stroke-linecap:round;stroke-linejoin:round;}</style>
 </defs>
 <path class="a" d="m30.42 11.45-13.9 17.19a4.7 4.7 0 0 0-1.19 3.08 4.8 4.8 0 0 0 9.33 1.64z"/>
 <path class="a" d="M26.83,15.89a20.38,20.38,0,0,0-2.83-.2A19.5,19.5,0,0,0,4.5,35.19,15.65,15.65,0,0,1,20.16,19.54a15.45,15.45,0,0,1,3.42.37"/>
 <path class="a" d="m27.78 21.51a15.66 15.66 0 0 1 8 13.68h7.72a19.51 19.51 0 0 0-14.37-18.82"/>
 <line class="a" x1="22.88" x2="22.88" y1="15.72" y2="19.77"/>
 <line class="a" x1="29.54" x2="32.41" y1="22.66" y2="17.59"/>
 <line class="a" x1="34" x2="40.14" y1="27.87" y2="24.25"/>
 <line class="a" x1="14.95" x2="13.87" y1="20.42" y2="18.53"/>
 <circle class="a" cx="20.17" cy="31.84" r="1.74"/>
</svg>
