<svg viewBox="0 0 48 48" xmlns="http://www.w3.org/2000/svg">
 <defs>
  <style>.a{fill:none;stroke:#fff;stroke-linecap:round;stroke-linejoin:round;}</style>
 </defs>
 <path class="a" d="m40.5 5.5h-33a2 2 0 0 0-2 2v33a2 2 0 0 0 2 2h33a2 2 0 0 0 2-2v-33a2 2 0 0 0-2-2z"/>
 <path class="a" d="M11.56,20.91V11.5h3.08a3.16,3.16,0,0,1,0,6.32H11.56"/>
 <line class="a" x1="14.64" x2="17.71" y1="17.82" y2="20.9"/>
 <polyline class="a" points="23.7 14.23 24.76 12.26 25.82 14.23"/>
 <line class="a" x1="21.82" x2="27.7" y1="19.73" y2="19.73"/>
 <line class="a" x1="21.82" x2="27.7" y1="16.2" y2="16.2"/>
 <path class="a" d="m36.44 17.2a2.35 2.35 0 0 0-2.35-2.35 2.35 2.35 0 0 0-2.35 2.35v1.53a2.35 2.35 0 0 0 2.35 2.35 2.35 2.35 0 0 0 2.35-2.35"/>
 <line class="a" x1="36.44" x2="36.44" y1="21.08" y2="11.68"/>
 <line class="a" x1="36.44" x2="31.74" y1="30.27" y2="36.5"/>
 <line class="a" x1="36.44" x2="31.74" y1="36.5" y2="30.27"/>
 <path class="a" d="M12.79,28.33v7A1.18,1.18,0,0,0,14,36.5h.35"/>
 <line class="a" x1="11.56" x2="14.03" y1="30.27" y2="30.27"/>
 <polyline class="a" points="23.7 29.65 24.76 27.68 25.82 29.65"/>
 <line class="a" x1="21.82" x2="27.7" y1="35.15" y2="35.15"/>
 <line class="a" x1="21.82" x2="27.7" y1="31.62" y2="31.62"/>
</svg>
