<svg viewBox="0 0 48 48" xmlns="http://www.w3.org/2000/svg">
 <defs>
  <style>.a{fill:none;stroke:#fff;stroke-linecap:round;stroke-linejoin:round;}</style>
 </defs>
 <path class="a" d="m41.47 7.28h-34.94a2 2 0 0 0-2 1.88v22.25a2 2 0 0 0 2 1.88h2.61v7.43l8.26-7.43h24.07a2 2 0 0 0 2-1.88v-22.25a2 2 0 0 0-2-1.88z"/>
 <path class="a" d="M25.61,28.6A8.47,8.47,0,0,0,30,14.3"/>
 <path class="a" d="M22.38,12A8.47,8.47,0,0,0,18,26.27"/>
 <polygon class="a" points="29.39 14.9 28.01 16.28 28.01 12.48 31.81 12.48 31.81 12.48 30.42 13.86"/>
 <polygon class="a" points="18.61 25.67 19.99 24.29 19.99 28.09 16.2 28.09 17.58 26.71"/>
 <line class="a" x1="24" x2="24" y1="20.99" y2="15.03"/>
 <line class="a" x1="28.01" x2="24" y1="23.1" y2="20.99"/>
</svg>
