<svg id="Layer_2" data-name="Layer 2" viewBox="0 0 48 48" xmlns="http://www.w3.org/2000/svg">
 <defs>
  <style>.cls-1{fill:none;stroke:#fff;stroke-linecap:round;stroke-linejoin:round;}</style>
 </defs>
 <path class="cls-1" d="M41.68,13H24.77c-2-.1-5.93-4.23-8.19-4.23H6.68A2.18,2.18,0,0,0,4.5,11h0v7.29h39V14.87A1.83,1.83,0,0,0,41.68,13Z"/>
 <path class="cls-1" d="M43.5,18.28H4.5V37A2.18,2.18,0,0,0,6.67,39.2H41.32A2.18,2.18,0,0,0,43.5,37h0Z"/>
 <path class="cls-1" d="m38.85 30.8a5.13 5.13 0 0 1-9.59 2.55l2.3-2.35a5.14 5.14 0 0 1 2.81-9.46 5.13 5.13 0 0 1 4.48 2.59l-2.35 2.35a5.13 5.13 0 0 1 2.35 4.32z"/>
 <line class="cls-1" x1="31.56" x2="36.5" y1="31" y2="26.48"/>
</svg>
