<svg id="Layer_2" data-name="Layer 2" viewBox="0 0 48 48" xmlns="http://www.w3.org/2000/svg">
 <defs>
  <style>.cls-1{fill:none;stroke:#fff;stroke-linecap:round;stroke-linejoin:round;}</style>
 </defs>
 <path class="cls-1" d="M38.36,6.19H37.29a1.79,1.79,0,0,0-3.57,0H14.3a1.79,1.79,0,0,0-3.57,0H9.66A2.88,2.88,0,0,0,6.76,9v3.68H41.24V9.06a2.87,2.87,0,0,0-2.86-2.87Z"/>
 <path class="cls-1" d="m41.24 12.71h-34.48v28a2.85 2.85 0 0 0 2.86 2.86h28.74a2.86 2.86 0 0 0 2.88-2.85z"/>
 <line class="cls-1" x1="12.38" x2="35.62" y1="18.75" y2="18.75"/>
 <line class="cls-1" x1="12.5" x2="31.32" y1="25" y2="25"/>
 <line class="cls-1" x1="12.38" x2="35.62" y1="31.25" y2="31.25"/>
 <line class="cls-1" x1="12.5" x2="31.32" y1="37.5" y2="37.5"/>
</svg>
