<svg viewBox="0 0 48 48" xmlns="http://www.w3.org/2000/svg">
 <defs>
  <style>.a{fill:none;stroke:#fff;stroke-linecap:round;stroke-linejoin:round;}</style>
 </defs>
 <path class="a" d="m24 2.5a21.51 21.51 0 0 0-21.5 21.5v0.91l10.79 3.95a6 6 0 0 1 2.54-1.4 6 6 0 0 1 1.8-0.21 8 8 0 0 1 0.84 0.1l6.53-9.23a7.63 7.63 0 0 1 5.65-7.39 7.51 7.51 0 0 1 2.26-0.25 7.62 7.62 0 0 1 1.68 15 7.46 7.46 0 0 1-2 0.25l-9.22 6.52a6.06 6.06 0 0 1-11.81 2.64 5.64 5.64 0 0 1-0.15-0.82l-7.63-2.81a21.49 21.49 0 1 0 20.22-28.76zm8.93 8a7.51 7.51 0 0 0-2.26 0.25 7.63 7.63 0 0 0-5.39 9.33 7.62 7.62 0 0 0 14.72-3.96 7.59 7.59 0 0 0-7.07-5.64zm-15.51 16.75a6.05 6.05 0 0 0-6.05 6 6.05 6.05 0 0 0 6.05 6 6.05 6.05 0 0 0 6.06-6 6.05 6.05 0 0 0-6.05-6.06z"/>
</svg>
