<svg id="Layer_2" data-name="Layer 2" viewBox="0 0 48 48" xmlns="http://www.w3.org/2000/svg">
 <defs>
  <style>.cls-1{fill:none;}.cls-1,.cls-2{stroke:#fff;stroke-linecap:round;stroke-linejoin:round;}.cls-2{fill:#fff;}</style>
 </defs>
 <circle class="cls-1" cx="24" cy="24" r="21.5"/>
 <path class="cls-1" d="m26.16 36.79c3.87-2.7 12.57-4.64 17.1-3.56"/>
 <path class="cls-1" d="m34.75 11.32a6.9 6.9 0 0 1-5.37 12.25 6.9 6.9 0 1 0 5.37-12.25z"/>
 <path class="cls-2" d="m15.79 18.05"/>
 <path class="cls-1" d="m14.52 9.84"/>
 <circle class="cls-1" cx="17.01" cy="11.68" r=".5"/>
 <circle class="cls-1" cx="14.71" cy="25.08" r=".5"/>
 <circle class="cls-1" cx="21.12" cy="22.9" r="1"/>
 <circle class="cls-1" cx="10.8" cy="11.91" r="1"/>
 <path class="cls-1" d="m30.2 44.17-11.32-19.6-3.58 6.2-1.66-2.88-1.64 2.84-6.46-11.16-2.71 4.69"/>
 <g>
  <path class="cls-1" d="m24 15.15h5"/>
  <path class="cls-1" d="m26.48 12.65v5"/>
 </g>
 <path class="cls-2" d="m14.69 19.13"/>
 <path class="cls-2" d="m16.83 17"/>
</svg>
