<svg viewBox="0 0 48 48" xmlns="http://www.w3.org/2000/svg">
 <defs>
  <style>.a{fill:none;stroke:#fff;stroke-linecap:round;stroke-linejoin:round;}</style>
 </defs>
 <circle class="a" cx="24" cy="24" r="21.5"/>
 <path class="a" d="m24 45.013v-3.3616"/>
 <path class="a" d="m13.504 42.2 1.6808-2.9112"/>
 <path class="a" d="m5.8206 34.517 2.9112-1.6808"/>
 <path class="a" d="M3.0082,24.021H6.37"/>
 <path class="a" d="m5.8206 13.525 2.9112 1.6808"/>
 <path class="a" d="m13.504 5.8414 1.6808 2.9112"/>
 <path class="a" d="m24 3.029v3.3616"/>
 <path class="a" d="m34.496 5.8414-1.6808 2.9112"/>
 <path class="a" d="m42.179 13.525-2.9112 1.6808"/>
 <path class="a" d="M44.992,24.021H41.63"/>
 <path class="a" d="m42.179 34.517-2.9112-1.6808"/>
 <path class="a" d="m34.496 42.2-1.6808-2.9112"/>
 <circle class="a" cx="24" cy="24" r="2.498"/>
 <path class="a" d="m24 26.495v7.0632"/>
 <path class="a" d="M37.91,24H26.63"/>
 <path class="a" d="m21.953 21.953-8.7442-8.7442"/>
</svg>
