<svg viewBox="0 0 48 48" xmlns="http://www.w3.org/2000/svg">
 <defs>
  <style>.a{fill:none;stroke:#fff;stroke-linecap:round;stroke-linejoin:round;}.b{fill:#fff;}</style>
 </defs>
 <path class="a" d="m40.49 5.5h-32.99a2 2 0 0 0-2 2v33a2 2 0 0 0 2 2h33a2 2 0 0 0 2-2v-33a2 2 0 0 0-2.01-2z"/>
 <circle class="a" cx="11.88" cy="12.18" r="2.48"/>
 <circle class="a" cx="21.31" cy="12.72" r="1.68"/>
 <circle class="a" cx="31.82" cy="10.54" r="1.68"/>
 <circle class="a" cx="37.66" cy="31.9" r="1.68"/>
 <circle class="a" cx="30.74" cy="37.3" r="1.68"/>
 <circle class="a" cx="22" cy="38.55" r="1.68"/>
 <circle class="a" cx="13.25" cy="33.56" r="1.68"/>
 <circle class="a" cx="9.15" cy="23.56" r="1.68"/>
 <path class="a" d="m32.43 9 1.32-3.46"/>
 <path class="a" d="M36.14,18.65,32.68,12"/>
 <path class="a" d="m38.41 19.59 4.09-1.82"/>
 <path class="a" d="m39.18 32.63 3.31 1.68"/>
 <path class="a" d="m36.12 31.23-3.44-1.62"/>
 <path class="a" d="m36.29 32.88-4.18 3.41"/>
 <path class="a" d="m31.52 38.79 2.11 3.71"/>
 <path class="a" d="M23.66,38.28l5.43-.65"/>
 <path class="a" d="m21.77 40.23v2.27"/>
 <path class="a" d="m12.23 34.91-5.57 7.41"/>
 <path class="a" d="m22.94 12.3 7.23-1.39"/>
 <path class="a" d="m19.64 12.58-5.28-0.15"/>
 <path class="a" d="M11,9.84,9.39,5.5"/>
 <path class="a" d="M37.47,30.22,37,21.86"/>
 <path class="a" d="m20.56 14.21-2 3.78"/>
 <path class="a" d="M10.79,23.16l2.61-.66"/>
 <path class="a" d="m7.5 23.23-2-0.49"/>
 <path class="a" d="M13.72,31.94,14.2,30"/>
 <path class="a" d="m20.51 37.77-5.82-3.34"/>
 <path class="a" d="m26.08 17.58-3.58-3.68"/>
 <line class="a" x1="26.96" x2="26.96" y1="19.8" y2="27.92"/>
 <path class="a" d="m27 24.57a2 2 0 0 1 2-2 2 2 0 0 1 2 2v3.35"/>
 <circle class="b" cx="33.09" cy="20.06" r=".75"/>
 <line class="a" x1="33.09" x2="33.09" y1="22.54" y2="27.92"/>
 <path class="a" d="m24.85 26.9a2 2 0 0 1-1.76 1 2 2 0 0 1-2-2v-1.33a2 2 0 0 1 2-2 2 2 0 0 1 1.76 1"/>
 <line class="a" x1="14.2" x2="16.89" y1="27.89" y2="19.8"/>
 <line class="a" x1="19.48" x2="16.89" y1="27.92" y2="19.8"/>
 <line class="a" x1="18.61" x2="15.1" y1="25.2" y2="25.2"/>
 <circle class="a" cx="36.81" cy="20.2" r="1.68"/>
 <line class="a" x1="10.84" x2="9.15" y1="14.43" y2="21.87"/>
 <line class="a" x1="9.15" x2="12.1" y1="25.24" y2="32.34"/>
</svg>
