<svg id="Layer_2" data-name="Layer 2" viewBox="0 0 48 48" xmlns="http://www.w3.org/2000/svg">
 <defs>
  <style>.cls-1{fill:none;stroke:#fff;stroke-linecap:round;stroke-linejoin:round;}</style>
 </defs>
 <path class="cls-1" d="m31.3 14.62v14.1m3.52 0a3.53 3.53 0 0 1-3.52-3.52v-2.33a3.52 3.52 0 0 1 3.52-3.52 3.52 3.52 0 0 1 3.53 3.52v2.33a3.53 3.53 0 0 1-3.53 3.52zm-7.3-14.1v14.1m-3.52 0a3.52 3.52 0 0 1-3.52-3.52v-2.33a3.51 3.51 0 0 1 3.52-3.52 3.51 3.51 0 0 1 3.52 3.52v2.33a3.52 3.52 0 0 1-3.52 3.52zm-10.82 0a3.53 3.53 0 0 1-3.53-3.52v-2.33a3.52 3.52 0 0 1 3.53-3.52 3.52 3.52 0 0 1 3.52 3.52v2.33a3.53 3.53 0 0 1-3.52 3.52zm3.52-9.37v9.37"/>
 <path class="cls-1" d="m40.5 5.5h-33a2 2 0 0 0-2 2v33a2 2 0 0 0 2 2h33a2 2 0 0 0 2-2v-33a2 2 0 0 0-2-2z"/>
</svg>
