<svg id="Layer_2" data-name="Layer 2" viewBox="0 0 48 48" xmlns="http://www.w3.org/2000/svg">
 <defs>
  <style>.cls-1{fill:none;stroke:#fff;stroke-linecap:round;stroke-linejoin:round;}</style>
 </defs>
 <path class="cls-1" d="m40.5 5.5h-33a2 2 0 0 0-2 2v33a2 2 0 0 0 2 2h33a2 2 0 0 0 2-2v-33a2 2 0 0 0-2-2z"/>
 <path class="cls-1" d="M9.94,33.89V14h6.65a6.67,6.67,0,0,1,0,13.33H9.94"/>
 <line class="cls-1" x1="16.59" x2="23.17" y1="27.37" y2="33.96"/>
 <path class="cls-1" d="m38.06 28.91a5 5 0 0 1-5 5 5 5 0 0 1-5-5v-8"/>
 <line class="cls-1" x1="38.06" x2="38.06" y1="33.89" y2="20.94"/>
</svg>
