<svg viewBox="0 0 48 48" xmlns="http://www.w3.org/2000/svg">
 <defs>
  <style>.a{fill:none;stroke:#fff;stroke-linecap:round;stroke-linejoin:round;}</style>
 </defs>
 <path class="a" d="M8.34,8.27A2.77,2.77,0,0,0,5.5,11.1V39.87A2.8,2.8,0,0,0,8.4,42.5H39.76a2.77,2.77,0,0,0,2.74-3V11a2.8,2.8,0,0,0-3.13-2.68Z"/>
 <path class="a" d="m39.72 8.27a2.77 2.77 0 0 0-2.72-2.77h-26a2.77 2.77 0 0 0-2.73 2.77"/>
 <circle class="a" cx="13.13" cy="22.11" r="1.94"/>
 <circle class="a" cx="34.86" cy="22.11" r="1.94"/>
 <path class="a" d="m13.3 24a10.87 10.87 0 0 0 21.39 0"/>
</svg>
