<svg viewBox="0 0 48 48" xmlns="http://www.w3.org/2000/svg">
 <defs>
  <style>.a{fill:none;stroke:#fff;stroke-linecap:round;stroke-linejoin:round;}</style>
 </defs>
 <path class="a" d="m40.5 42.5h-33a2.0059 2.0059 0 0 1-2-2v-33a2.0059 2.0059 0 0 1 2-2h33a2.0059 2.0059 0 0 1 2 2v33a2.0059 2.0059 0 0 1-2 2z"/>
 <line class="a" x1="19.1434" x2="26.1198" y1="36.0962" y2="36.0962"/>
 <line class="a" x1="19.1434" x2="26.1198" y1="25.3633" y2="25.3633"/>
 <line class="a" x1="19.1434" x2="23.692" y1="30.7297" y2="30.7297"/>
 <line class="a" x1="19.1434" x2="19.1434" y1="25.3633" y2="36.0962"/>
 <polyline class="a" points="28.803 22.625 28.803 11.904 34.169 22.637 39.536 11.92 39.536 22.637"/>
 <line class="a" x1="28.803" x2="39.5359" y1="25.3633" y2="36.0962"/>
 <line class="a" x1="39.5359" x2="28.803" y1="25.3633" y2="36.0962"/>
 <line class="a" x1="16.757" x2="21.5375" y1="22.6049" y2="11.9038"/>
 <line class="a" x1="26.1198" x2="21.5375" y1="22.6368" y2="11.9038"/>
 <line class="a" x1="24.5869" x2="18.3467" y1="19.0464" y2="19.0464"/>
</svg>
