<svg id="Layer_2" data-name="Layer 2" viewBox="0 0 48 48" xmlns="http://www.w3.org/2000/svg">
 <defs>
  <style>.cls-1{fill:none;stroke:#fff;stroke-linecap:round;stroke-linejoin:round;}</style>
 </defs>
 <path class="cls-1" d="m39.81 16.7 2.73-2.7a3.18 3.18 0 0 0 0-4.5 3.18 3.18 0 0 0-4.52 0l-2.72 2.7a19.4 19.4 0 0 0-22.68 0l-2.62-2.66a3.2 3.2 0 0 0-4.53 0 3.19 3.19 0 0 0 0 4.5l2.72 2.68a19.44 19.44 0 0 0-3.69 11.36v9.29a2.05 2.05 0 0 0 2.05 2.05h34.9a2.05 2.05 0 0 0 2-2.05v-9.29a19.41 19.41 0 0 0-3.64-11.38zm-24 14.49a3.6 3.6 0 1 1 3.59-3.59 3.59 3.59 0 0 1-3.61 3.59zm16.42 0a3.6 3.6 0 1 1 3.57-3.59 3.59 3.59 0 0 1-3.59 3.59z"/>
</svg>
