<svg viewBox="0 0 48 48" xmlns="http://www.w3.org/2000/svg">
 <defs>
  <style>.a{fill:none;stroke:#fff;stroke-linecap:round;stroke-linejoin:round;}</style>
 </defs>
 <path class="a" d="M24,4.5A10.72,10.72,0,0,0,13.27,15.23v5.85H10.35A1.94,1.94,0,0,0,8.4,23V41.55a2,2,0,0,0,1.95,2h27.3a2,2,0,0,0,2-2V23a1.94,1.94,0,0,0-2-1.94H34.73V15.23A10.72,10.72,0,0,0,24,4.5Zm0,2.92a7.43,7.43,0,0,1,7.8,7.81C31.8,20.17,27.9,24,23,27.9l.43-4.9A7.8,7.8,0,0,1,24,7.42Z"/>
 <path class="a" d="m20.45 37.93a1.22 1.22 0 1 1 1.22-1.22 1.22 1.22 0 0 1-1.22 1.22z"/>
 <path class="a" d="m27.57 37.93a1.22 1.22 0 1 1 1.22-1.22 1.22 1.22 0 0 1-1.22 1.22z"/>
 <path class="a" d="m24 30.4a8.72 8.72 0 0 1 8.72 8.72 1.24 1.24 0 0 1-1.24 1.24h-15a1.24 1.24 0 0 1-1.24-1.24 8.72 8.72 0 0 1 8.76-8.72z"/>
 <line class="a" x1="16.47" x2="18.95" y1="29.1" y2="32.01"/>
 <line class="a" x1="31.53" x2="29.05" y1="29.1" y2="32.01"/>
</svg>
