<svg viewBox="0 0 48 48" xmlns="http://www.w3.org/2000/svg">
 <defs>
  <style>.a{fill:none;stroke:#fff;stroke-linecap:round;stroke-linejoin:round;}</style>
 </defs>
 <path class="a" d="M41.68,13H24.77c-2-.1-5.93-4.23-8.19-4.23H6.68A2.18,2.18,0,0,0,4.5,11h0v7.29h39V14.87A1.83,1.83,0,0,0,41.68,13Z"/>
 <path class="a" d="M43.5,18.28H4.5V37A2.18,2.18,0,0,0,6.67,39.2H41.32A2.18,2.18,0,0,0,43.5,37h0Z"/>
 <path class="a" d="m27.46 32.18a1.23 1.23 0 1 1 1.22-1.18 1.22 1.22 0 0 1-1.22 1.18z"/>
 <path class="a" d="m34.58 32.18a1.23 1.23 0 1 1 1.22-1.18 1.22 1.22 0 0 1-1.22 1.18z"/>
 <path class="a" d="m31 24.65a8.72 8.72 0 0 1 8.72 8.72 1.24 1.24 0 0 1-1.24 1.24h-15a1.24 1.24 0 0 1-1.24-1.24 8.72 8.72 0 0 1 8.76-8.72z"/>
 <line class="a" x1="23.48" x2="25.96" y1="23.35" y2="26.26"/>
 <line class="a" x1="38.54" x2="36.07" y1="23.35" y2="26.26"/>
</svg>
