<svg viewBox="0 0 48 48" xmlns="http://www.w3.org/2000/svg">
 <defs>
  <style>.a{fill:none;stroke:#fff;stroke-linecap:round;stroke-linejoin:round;}</style>
 </defs>
 <path class="a" d="M41.38,19.84H33.52l-7.77-13a2,2,0,0,0-3.5,0l-7.77,13H6.62a3.12,3.12,0,0,0-3,3.93L8,40.08a2.84,2.84,0,0,0,2.74,2.1H37.24A2.84,2.84,0,0,0,40,40.08l4.41-16.31A3.12,3.12,0,0,0,41.38,19.84ZM24,11.84l4.77,8H19.23Z"/>
 <line class="a" x1="14.48" x2="33.52" y1="19.84" y2="19.84"/>
 <path class="a" d="m20.45 34.16a1.23 1.23 0 1 1 1.22-1.22 1.23 1.23 0 0 1-1.22 1.22z"/>
 <path class="a" d="m27.57 34.16a1.23 1.23 0 1 1 1.22-1.22 1.23 1.23 0 0 1-1.22 1.22z"/>
 <path class="a" d="m24 26.63a8.72 8.72 0 0 1 8.72 8.72 1.24 1.24 0 0 1-1.24 1.24h-15a1.24 1.24 0 0 1-1.24-1.24 8.72 8.72 0 0 1 8.76-8.72z"/>
 <line class="a" x1="16.47" x2="18.95" y1="25.32" y2="28.24"/>
 <line class="a" x1="31.53" x2="29.05" y1="25.32" y2="28.24"/>
</svg>
