<svg viewBox="0 0 48 48" xmlns="http://www.w3.org/2000/svg">
 <defs>
  <style>.a{fill:none;stroke:#fff;stroke-linecap:round;stroke-linejoin:round;}</style>
 </defs>
 <path class="a" d="m29.55 14.64a1.9 1.9 0 1 1-1.91 1.9 1.9 1.9 0 0 1 1.91-1.9zm-11.08 0a1.9 1.9 0 1 1-1.9 1.9 1.91 1.91 0 0 1 1.9-1.9z"/>
 <path class="a" d="m35.69 22.18h-23.38a1.87 1.87 0 0 0-1.87 1.87v5.89a13.56 13.56 0 0 0 27.12 0v-5.89a1.87 1.87 0 0 0-1.87-1.87z"/>
 <polygon class="a" points="22.01 34.55 25.99 34.55 24 31.04"/>
 <path class="a" d="m30.35 37.09a1.7 1.7 0 0 1-1.46 0.84h-9.78a1.69 1.69 0 0 1-1.47-2.52l4.89-8.62a1.69 1.69 0 0 1 2.94 0l4.89 8.62a1.71 1.71 0 0 1-0.01 1.68z"/>
 <path class="a" d="m24 6.75a13.56 13.56 0 0 1 13.56 13.56 1.87 1.87 0 0 1-1.87 1.87h-23.38a1.87 1.87 0 0 1-1.87-1.87 13.56 13.56 0 0 1 13.56-13.56z"/>
 <line class="a" x1="11.76" x2="16.16" y1="4.87" y2="9.26"/>
 <line class="a" x1="36.23" x2="31.84" y1="4.87" y2="9.27"/>
</svg>
