<svg viewBox="0 0 48 48" xmlns="http://www.w3.org/2000/svg">
 <defs>
  <style>.a{fill:none;stroke:#fff;stroke-linecap:round;stroke-linejoin:round;}</style>
 </defs>
 <path class="a" d="m20.5 4.5h6.67a1 1 0 0 1 1 1v3h4.63a2 2 0 0 1 2 2v31a2 2 0 0 1-2 2h-17.61a2 2 0 0 1-2-2v-31a2 2 0 0 1 2-2h4.31v-3a1 1 0 0 1 1-1z"/>
 <line class="a" x1="13.19" x2="34.8" y1="18.59" y2="18.59"/>
 <line class="a" x1="19.5" x2="28.17" y1="8.5" y2="8.5"/>
 <path class="a" d="M24,23.43h0a7.78,7.78,0,0,1-3.88,1,7.54,7.54,0,0,1-1.94-.25v9.35c0,2,2.33,3.78,5.82,5.24,3.49-1.74,5.82-3.2,5.82-5.24V24.23a7.94,7.94,0,0,1-1.94.25A7.66,7.66,0,0,1,24,23.43Z"/>
 <line class="a" x1="24" x2="24" y1="23.44" y2="38.82"/>
 <line class="a" x1="18.18" x2="29.82" y1="31.13" y2="31.13"/>
</svg>
