<svg viewBox="0 0 48 48" xmlns="http://www.w3.org/2000/svg">
 <defs>
  <style>.a{fill:none;stroke:#fff;stroke-linecap:round;stroke-linejoin:round;}</style>
 </defs>
 <path class="a" d="m14.25 6.86c0.7 1.61 2.15 3.64 2.1 4.82a2 2 0 0 1-2.1 2.11 2 2 0 0 1-2.1-2.11c-0.05-1.18 1.4-3.21 2.11-4.82z"/>
 <path class="a" d="m40.62 25.64v11.52c-0.09 3-7.5 5.34-16.62 5.34s-16.53-2.38-16.62-5.34v-11.52"/>
 <path class="a" d="m24 5.5c0.71 1.61 2.16 3.64 2.11 4.82a2 2 0 0 1-2.11 2.12 2.06 2.06 0 0 1-2.11-2.12c0-1.18 1.4-3.21 2.11-4.82z"/>
 <path class="a" d="m33.68 6.85c0.71 1.61 2.15 3.64 2.11 4.82a2.05 2.05 0 0 1-2.11 2.12 2.05 2.05 0 0 1-2.11-2.12c0-1.18 1.4-3.21 2.11-4.82z"/>
 <path class="a" d="m40.63 25.69c-0.1 2.96-7.51 5.31-16.63 5.31s-16.53-2.35-16.62-5.31v-0.05"/>
 <path class="a" d="m7.37 25.63c0.09-3 7.5-5.34 16.62-5.34s16.53 2.38 16.62 5.34v0.05"/>
 <line class="a" x1="23.97" x2="23.97" y1="14.44" y2="22.33"/>
 <line class="a" x1="14.25" x2="14.25" y1="15.79" y2="24"/>
 <line class="a" x1="33.68" x2="33.68" y1="15.79" y2="24"/>
</svg>
