<svg viewBox="0 0 48 48" xmlns="http://www.w3.org/2000/svg">
 <defs>
  <style>.a,.b{fill:none;stroke:#fff;stroke-linecap:round;stroke-linejoin:round;}.a{stroke-width:0.87px;}</style>
 </defs>
 <path class="a" d="m27.13 24.84a5.33 5.33 0 0 1-2.76 10.29l-8.49-2.28 5.51-20.58 8.49 2.28a5.33 5.33 0 1 1-2.75 10.29z"/>
 <line class="a" x1="27.13" x2="18.64" y1="24.84" y2="22.56"/>
 <line class="a" x1="21.39" x2="18.38" y1="12.27" y2="11.47"/>
 <line class="a" x1="15.88" x2="12.86" y1="32.85" y2="32.04"/>
 <line class="a" x1="24.01" x2="24.99" y1="12.98" y2="9.33"/>
 <line class="a" x1="28.21" x2="29.19" y1="14.1" y2="10.45"/>
 <line class="a" x1="17.52" x2="18.5" y1="37.2" y2="33.55"/>
 <line class="a" x1="21.72" x2="22.7" y1="38.33" y2="34.68"/>
 <path class="b" d="m40.5 5.5h-33a2 2 0 0 0-2 2v33a2 2 0 0 0 2 2h33a2 2 0 0 0 2-2v-33a2 2 0 0 0-2-2z"/>
</svg>
