<svg viewBox="0 0 48 48" xmlns="http://www.w3.org/2000/svg">
 <defs>
  <style>.a{fill:none;stroke:#fff;stroke-linecap:round;stroke-linejoin:round;}</style>
 </defs>
 <path class="a" d="m40.5 5.5h-33a2 2 0 0 0-2 2v33a2 2 0 0 0 2 2h33a2 2 0 0 0 2-2v-33a2 2 0 0 0-2-2z"/>
 <line class="a" x1="16.35" x2="16.35" y1="37.5" y2="13.35"/>
 <path class="a" d="m16.35 24h11.3a6.75 6.75 0 0 0 6.74-6.75 6.75 6.75 0 0 0-6.74-6.75h-14l2.74 2.85"/>
 <path class="a" d="m16.35 24h11.3a6.75 6.75 0 0 1 6.74 6.75 6.75 6.75 0 0 1-6.74 6.75h-11.3"/>
</svg>
