<svg viewBox="0 0 48 48" xmlns="http://www.w3.org/2000/svg">
 <defs>
  <style>.a,.b{fill:none;stroke:#fff;stroke-linecap:round;stroke-linejoin:round;}.b{stroke-width:0.87px;}</style>
 </defs>
 <path class="a" d="m40.5 5.5h-33a2 2 0 0 0-2 2v33a2 2 0 0 0 2 2h33a2 2 0 0 0 2-2v-33a2 2 0 0 0-2-2z"/>
 <path class="a" d="M14.37,13.08h6.24V5.51"/>
 <path class="a" d="M11.17,10.38h2.46a.76.76,0,0,1,.74.78v4.93a.76.76,0,0,1-.74.78H11.17a.76.76,0,0,1-.74-.78V11.16A.76.76,0,0,1,11.17,10.38Z"/>
 <path class="a" d="M13.45,33.62h4.83a.76.76,0,0,1,.74.78v2.4a.76.76,0,0,1-.74.78H13.45a.76.76,0,0,1-.74-.78V34.4A.76.76,0,0,1,13.45,33.62Z"/>
 <path class="a" d="M34.35,8.07h2.41a.76.76,0,0,1,.74.78v2.37a.76.76,0,0,1-.74.78H34.35a.76.76,0,0,1-.74-.78V8.85A.76.76,0,0,1,34.35,8.07Z"/>
 <path class="a" d="M27.44,15.13h2.41a.76.76,0,0,1,.74.78v2.36a.76.76,0,0,1-.74.78H27.44a.76.76,0,0,1-.74-.78V15.91A.76.76,0,0,1,27.44,15.13Z"/>
 <path class="a" d="M32,36h2.41a.76.76,0,0,1,.74.78v2.37a.75.75,0,0,1-.74.77H32a.75.75,0,0,1-.74-.77V36.8A.76.76,0,0,1,32,36Z"/>
 <path class="a" d="M11.84,10.38V5.51"/>
 <path class="a" d="M12.7,35.67H5.51"/>
 <path class="a" d="m14.18 37.59v4.91"/>
 <path class="a" d="m34.24 40v2.5"/>
 <path class="a" d="m37.5 9.35h5"/>
 <path class="a" d="m33.61 10.41h-5.35v4.72"/>
 <path class="a" d="m23.58 20v-1.77h-5.17v-5.14"/>
 <path class="a" d="m28.1 19.06v1"/>
 <path class="a" d="m17.29 30.92v2.7"/>
 <path class="a" d="m23.57 31v6.9h7.7"/>
 <path class="a" d="M34.15,30.89V36"/>
 <path class="a" d="m34.15 32.71h8.35"/>
 <path class="a" d="m35.12 12v5h2.61v3"/>
 <path class="a" d="m24.87 27a2 2 0 0 1-1.74 1 2 2 0 0 1-2-2v-1.3a2 2 0 0 1 2-2 2 2 0 0 1 2 2v0.65h-4"/>
 <path class="a" d="m30.87 27a2 2 0 0 1-1.74 1 2 2 0 0 1-2-2v-1.3a2 2 0 0 1 2-2 2 2 0 0 1 2 2v0.65h-4"/>
 <path class="a" d="M18.32,20v7a1,1,0,0,0,1,1h.3"/>
 <path class="a" d="m37.1 28v-3.3a2 2 0 0 0-2-2 2 2 0 0 0-2 2v3.3"/>
 <line class="a" x1="33.1" x2="33.1" y1="24.7" y2="22.7"/>
 <path class="b" d="m14.2 24a2 2 0 1 1 0 4h-3.3v-8h3.3a2 2 0 1 1 0 4z"/>
 <line class="b" x1="14.2" x2="10.9" y1="24" y2="24"/>
</svg>
