<svg id="Layer_2" data-name="Layer 2" viewBox="0 0 48 48" xmlns="http://www.w3.org/2000/svg">
 <defs>
  <style>.cls-1{fill:none;stroke:#fff;stroke-linecap:round;stroke-linejoin:round;}</style>
 </defs>
 <rect class="cls-1" transform="translate(26.26 -4.49) rotate(45)" x="10.04" y="27.52" width="17.02" height="3.87" rx="1.93"/>
 <rect class="cls-1" transform="translate(27.43 -.57) rotate(45)" x="13.27" y="29.45" width="2.26" height="6.75"/>
 <rect class="cls-1" transform="translate(44.31 54.26) rotate(135)" x="9.37" y="31.4" width="3.1" height="9.81" rx="1.55"/>
 <path class="cls-1" transform="translate(22.33 -13.25) rotate(45)" d="m27.16 9.72a5.66 5.66 0 0 1 5.66 5.66v15.56h-11.32v-15.56a5.66 5.66 0 0 1 5.66-5.66z"/>
 <line class="cls-1" x1="34.67" x2="37.53" y1="12.83" y2="9.96"/>
 <line class="cls-1" x1="25.76" x2="28.08" y1="13.73" y2="16.05"/>
 <line class="cls-1" x1="20.54" x2="22.86" y1="18.95" y2="21.27"/>
 <line class="cls-1" x1="23.15" x2="27.02" y1="16.34" y2="20.21"/>
 <line class="cls-1" x1="17.93" x2="21.8" y1="21.56" y2="25.43"/>
</svg>
