<svg viewBox="0 0 48 48" xmlns="http://www.w3.org/2000/svg">
 <defs>
  <style>.a{fill:none;stroke:#fff;stroke-linecap:round;stroke-linejoin:round;}</style>
 </defs>
 <path class="a" d="m40.5 5.5h-33a2 2 0 0 0-2 2v33a2 2 0 0 0 2 2h33a2 2 0 0 0 2-2v-33a2 2 0 0 0-2-2z"/>
 <path class="a" d="m17.49 20.57v4.27a2.59 2.59 0 0 0 2.59 2.59 2.58 2.58 0 0 0 2.58-2.59v-4.27"/>
 <path class="a" d="m30.59 27.43v-4.27a2.59 2.59 0 0 0-2.59-2.59 2.58 2.58 0 0 0-2.58 2.59v4.27"/>
 <path class="a" d="m9.5 23.16a2.59 2.59 0 0 1 2.59-2.59 2.59 2.59 0 0 1 2.59 2.59v1.68a2.59 2.59 0 0 1-2.59 2.59 2.59 2.59 0 0 1-2.59-2.59"/>
 <line class="a" x1="9.5" x2="9.5" y1="27.43" y2="17.08"/>
 <path class="a" d="m38.5 24.84a2.59 2.59 0 0 1-2.59 2.59 2.59 2.59 0 0 1-2.59-2.59v-1.68a2.59 2.59 0 0 1 2.59-2.59 2.59 2.59 0 0 1 2.59 2.59"/>
 <line class="a" x1="38.5" x2="38.5" y1="20.57" y2="30.92"/>
</svg>
