<svg viewBox="0 0 48 48" xmlns="http://www.w3.org/2000/svg">
 <defs>
  <style>.a{fill:none;stroke:#fff;stroke-linecap:round;stroke-linejoin:round;}</style>
 </defs>
 <path class="a" d="m40.5 5.5h-33a2 2 0 0 0-2 2v33a2 2 0 0 0 2 2h33a2 2 0 0 0 2-2v-33a2 2 0 0 0-2-2z"/>
 <path class="a" d="M42.135,12.856H12.641V33.519h20.76m6.1,0h2.9466"/>
 <circle class="a" cx="36.373" cy="31.007" r="3.8898"/>
 <circle class="a" cx="36.373" cy="31.007" r="1.7782"/>
 <path class="a" d="m39.5 33.52z"/>
 <path class="a" d="m19.777 33.52a3.8824 3.8824 0 0 0 5.9316 0"/>
 <path class="a" d="M12.64,12.856H10.1717v5.7718s.0891,1.6536,2.2843,1.6536"/>
 <path class="a" d="m28.001 12.856v20.592"/>
 <path class="a" d="m12.874 29.65h14.921"/>
 <path class="a" d="m28.254 24.177h14.06"/>
 <path class="a" d="M38.62,24.078V13.19"/>
 <path class="a" d="M28.001,12.856H25.5327v5.7718s.0891,1.6536,2.2843,1.6536"/>
 <path class="a" d="M12.624,27.691h3.5972s1.92.1211,1.92,1.92"/>
 <path class="a" d="M27.994,27.691H24.3968s-1.92.1211-1.92,1.92"/>
</svg>
