<svg viewBox="0 0 48 48" xmlns="http://www.w3.org/2000/svg">
 <defs>
  <style>.a{fill:none;stroke:#fff;stroke-linecap:round;stroke-linejoin:round;}</style>
 </defs>
 <path class="a" d="m40.5 42.5h-33a2 2 0 0 1-2-2v-33a2 2 0 0 1 2-2h33a2 2 0 0 1 2 2v33a2 2 0 0 1-2 2z"/>
 <path class="a" d="m24.15 37.41a13.41 13.41 0 1 1 9.47-22.88l-4.52 4.52a7 7 0 1 0 0 9.91l4.52 4.52a13.37 13.37 0 0 1-9.47 3.93z"/>
 <line class="a" x1="27.38" x2="27.38" y1="21.27" y2="26.27"/>
 <line class="a" x1="24.88" x2="29.88" y1="23.77" y2="23.77"/>
 <line class="a" x1="34.77" x2="34.77" y1="21.27" y2="26.27"/>
 <line class="a" x1="32.27" x2="37.27" y1="23.77" y2="23.77"/>
 <line class="a" x1="40.31" x2="37.91" y1="7.69" y2="10.09"/>
 <line class="a" x1="37.91" x2="40.31" y1="7.69" y2="10.09"/>
 <polyline class="a" points="35.72 5.5 35.72 12.29 42.5 12.29"/>
</svg>
