<svg viewBox="0 0 48 48" xmlns="http://www.w3.org/2000/svg">
 <defs>
  <style>.a{fill:none;stroke:#fff;stroke-linecap:round;stroke-linejoin:round;}</style>
 </defs>
 <path class="a" d="m40.5 5.5h-33a2 2 0 0 0-2 2v33a2 2 0 0 0 2 2h33a2 2 0 0 0 2-2v-33a2 2 0 0 0-2-2z"/>
 <rect class="a" x="7.8551" y="8.5002" width="32.2897" height="16.1936"/>
 <rect class="a" x="7.8551" y="29.1446" width="7.7296" height="3.8646"/>
 <rect class="a" x="32.4152" y="29.1446" width="7.7296" height="3.8646"/>
 <circle class="a" cx="24" cy="31.0769" r="4"/>
 <rect class="a" x="7.8551" y="36.9065" width="5.0002" height="3.0002"/>
 <rect class="a" x="16.9521" y="36.9065" width="4.9995" height="2.9995"/>
 <rect class="a" x="26.0483" y="36.9065" width="5.0003" height="3.0003"/>
 <rect class="a" x="35.1451" y="36.9065" width="4.9997" height="2.9997"/>
 <path class="a" d="M9.7491,21.67c0,.5154.5878.8912,1.2931.8912.67,0,1.0933-.7194,1.2461-2.48l.2234-2.6736c.1058-1.2992.529-4.3272.67-4.9177.2-.8161.6584-1.8576,1.7752-1.8576.7053,0,1.2931.3758,1.2931.8912,0,.3221-.1947.6753-.43.6753"/>
 <line class="a" x1="37.2011" x2="34.1021" y1="16.5729" y2="20.6791"/>
 <line class="a" x1="37.2011" x2="34.1021" y1="20.6791" y2="16.5729"/>
 <line class="a" x1="25.0302" x2="21.9312" y1="16.5729" y2="20.6791"/>
 <line class="a" x1="25.0302" x2="21.9312" y1="20.6791" y2="16.5729"/>
 <path class="a" d="m20.9166 14.6979a6.7114 6.7114 0 0 0-1.5495 3.9321 6.7119 6.7119 0 0 0 1.5495 3.9319"/>
 <path class="a" d="m26.0447 14.6979a6.7114 6.7114 0 0 1 1.55 3.9318 6.7119 6.7119 0 0 1-1.55 3.9319"/>
 <path class="a" d="m32.27 18.1224a1.55 1.55 0 0 0-1.5494-1.5495 1.55 1.55 0 0 0-1.5494 1.5495v1.0076a1.5494 1.5494 0 0 0 1.5494 1.5495 1.5494 1.5494 0 0 0 1.5494-1.5495"/>
 <line class="a" x1="32.2702" x2="32.2702" y1="20.6791" y2="14.4811"/>
 <path class="a" d="m16.23 20.6791v-5.1133a1.0847 1.0847 0 0 1 1.0847-1.0847 1.263 1.263 0 0 1 1.0956 0.4538"/>
 <line class="a" x1="15.3109" x2="17.4802" y1="16.5729" y2="16.5729"/>
</svg>
