<svg id="Layer_1" data-name="Layer 1" viewBox="0 0 48 48" xmlns="http://www.w3.org/2000/svg">
 <defs>
  <style>.cls-1{fill:none;stroke:#fff;stroke-linecap:round;stroke-linejoin:round;}</style>
 </defs>
 <path class="cls-1" d="m15.8 8.58a2.51 2.51 0 1 1-2.51 2.51 2.51 2.51 0 0 1 2.51-2.51zm16.4 0a2.51 2.51 0 0 1 2.51 2.51 2.51 2.51 0 0 1-2.51 2.51 2.51 2.51 0 1 1 0-5z"/>
 <path class="cls-1" d="m7.5 5.5a2 2 0 0 0-2 2v33a2 2 0 0 0 2 2h33a2 2 0 0 0 2-2v-33a2 2 0 0 0-2-2z"/>
 <path class="cls-1" d="m11.53 25a5.94 5.94 0 0 1 5.78-6 6 6 0 0 1 4.22 10.22c-2.44 2-10 7.78-10 7.78h11.78"/>
 <line class="cls-1" x1="27.47" x2="36.47" y1="37" y2="37"/>
 <line class="cls-1" x1="27.47" x2="31.97" y1="21.47" y2="19"/>
 <line class="cls-1" x1="31.97" x2="31.97" y1="19" y2="37"/>
</svg>
