<svg id="Layer_1" data-name="Layer 1" viewBox="0 0 48 48" xmlns="http://www.w3.org/2000/svg">
 <defs>
  <style>.cls-1,.cls-2{fill:none;stroke:#fff;stroke-linecap:round;stroke-linejoin:round;}.cls-1{stroke-width:0.96px;}</style>
 </defs>
 <line class="cls-1" x1="27.43" x2="36.43" y1="37" y2="37"/>
 <line class="cls-1" x1="27.43" x2="31.93" y1="21.45" y2="19"/>
 <line class="cls-1" x1="31.93" x2="31.93" y1="19" y2="37"/>
 <path class="cls-1" d="m18.7 37a4.5 4.5 0 0 0 4.5-4.5 4.51 4.51 0 0 0-4.5-4.5 4.5 4.5 0 0 0 4.5-4.5 4.51 4.51 0 0 0-4.5-4.5"/>
 <path class="cls-1" d="m11.57 35.48c1.24 1 2.59 1.52 5.6 1.52h1.53"/>
 <path class="cls-1" d="m11.57 20.5c1.25-1 2.59-1.51 5.6-1.5h1.53"/>
 <path class="cls-2" d="m15.8 8.58a2.51 2.51 0 1 1-2.51 2.51 2.51 2.51 0 0 1 2.51-2.51zm16.4 0a2.51 2.51 0 0 1 2.51 2.51 2.51 2.51 0 0 1-2.51 2.51 2.51 2.51 0 1 1 0-5z"/>
 <path class="cls-2" d="m7.5 5.5a2 2 0 0 0-2 2v33a2 2 0 0 0 2 2h33a2 2 0 0 0 2-2v-33a2 2 0 0 0-2-2z"/>
</svg>
