<svg viewBox="0 0 48 48" xmlns="http://www.w3.org/2000/svg">
 <defs>
  <style>.a{fill:none;stroke:#fff;stroke-linecap:round;stroke-linejoin:round;}</style>
 </defs>
 <path class="a" d="M38.0891,24.3858V39.5131H10.1154V13.6115a2.0721,2.0721,0,0,1,2.0721-2.0721h7.7679"/>
 <path class="a" d="m13.623 39.5785h3.5512v2.8855a1.0361 1.0361 0 0 1-1.0361 1.036h-1.479a1.0361 1.0361 0 0 1-1.0361-1.0361v-2.8854z"/>
 <path class="a" d="m31.0085 39.5785h3.5515v2.8855a1.0361 1.0361 0 0 1-1.0364 1.036h-1.479a1.0361 1.0361 0 0 1-1.0361-1.0361v-2.8854z"/>
 <polyline class="a" points="20.05 20.472 13.645 20.472 13.645 30.581 34.56 30.581 34.56 26.542"/>
 <line class="a" x1="13.6448" x2="18.8299" y1="35.1123" y2="35.1123"/>
 <line class="a" x1="29.3745" x2="34.5597" y1="35.1123" y2="35.1123"/>
 <line class="a" x1="15.4639" x2="19.0912" y1="15.8967" y2="15.8967"/>
 <circle class="a" cx="30.4879" cy="15.8967" r="11.3967"/>
 <circle class="a" cx="34.6659" cy="13.3259" r="1.4505"/>
 <path class="a" d="m34.9564 20.4718c-1.0167 1.4815-2.1977 2.8758-4.4685 2.8758s-3.4518-1.3943-4.4685-2.8758"/>
 <path class="a" d="m34.6659 18.6s3.5152-2.7251 3.5152-5.3319a3.5152 3.5152 0 0 0-7.03 0c0 2.6068 3.5152 5.3319 3.5152 5.3319"/>
 <circle class="a" cx="26.3099" cy="13.3259" r="1.4505"/>
</svg>
