<svg viewBox="0 0 48 48" xmlns="http://www.w3.org/2000/svg">
 <defs>
  <style>.a{fill:none;stroke:#fff;stroke-linecap:round;stroke-linejoin:round;}.b{fill:#fff;}</style>
 </defs>
 <path class="a" d="m8.4 6.5v35a2 2 0 0 0 2 2h2.33v-39h-2.33a2 2 0 0 0-2 2z"/>
 <path class="a" d="m12.7311 4.5v39h24.87a2 2 0 0 0 2-2v-35a2 2 0 0 0-2-2z"/>
 <path class="a" d="m16.6661 28.6645v-8.8372h1.9883a3.8663 3.8663 0 0 1 3.8663 3.8663v1.1046a3.8663 3.8663 0 0 1-3.8663 3.8663z"/>
 <circle class="b" cx="24.7418" cy="20.1035" r=".75"/>
 <line class="a" x1="24.7418" x2="24.7418" y1="22.8099" y2="28.6645"/>
 <path class="a" d="M34.23,20.9925v6.5726A1.1047,1.1047,0,0,0,35.3347,28.67h.3314"/>
 <line class="a" x1="33.0701" x2="35.3899" y1="22.8151" y2="22.8151"/>
 <path class="a" d="m31.0907 27.557a2.2085 2.2085 0 0 1-1.9184 1.113 2.2093 2.2093 0 0 1-2.2093-2.2093v-1.4363a2.2092 2.2092 0 0 1 2.2093-2.2092 2.2085 2.2085 0 0 1 1.9162 1.1089"/>
</svg>
