<svg viewBox="0 0 48 48" xmlns="http://www.w3.org/2000/svg">
 <defs>
  <style>.a{fill:none;stroke:#fff;stroke-linecap:round;stroke-linejoin:round;}</style>
 </defs>
 <ellipse class="a" cx="24" cy="28.2" rx="3.2" ry="3.25"/>
 <path class="a" d="M27,10.64C25.56,7.9,23.34,4.5,23.34,4.5s-1.63,3.3-3.21,6.27"/>
 <path class="a" d="M21.68,37.69l2.18-3.84L26,37.69Z"/>
 <path class="a" d="m15.86 33.15 4.21-1.15-1.14 4.28z"/>
 <path class="a" d="m14.65 25.85 3.79 2.21-3.79 2.2z"/>
 <path class="a" d="m19.13 19.94 1.15 4.28-4.22-1.16z"/>
 <path class="a" d="m32.14 33.5-4.21-1.16 1.14 4.28z"/>
 <path class="a" d="m33.35 26.14-3.79 2.21 3.79 2.21z"/>
 <path class="a" d="m29.07 20.08-1.14 4.28 4.21-1.16z"/>
 <line class="a" x1="33.35" x2="38.66" y1="28.35" y2="28.35"/>
 <line class="a" x1="30.58" x2="34.48" y1="35.09" y2="39.09"/>
 <line class="a" x1="23.86" x2="23.86" y1="37.69" y2="43.5"/>
 <line class="a" x1="17.39" x2="13.32" y1="34.71" y2="38.89"/>
 <line class="a" x1="14.65" x2="9.35" y1="28.06" y2="28.06"/>
 <path class="a" d="M17.53,21.56,14,18A14.85,14.85,0,0,0,9.33,28.83a14.67,14.67,0,0,0,25,10.37,14.53,14.53,0,0,0,4.3-10.37,14.35,14.35,0,0,0-4.52-10.18,13.11,13.11,0,0,0-4.75-2.8c-2.16-.87-5.61-1.92-5.78-4.16-.24-3.08-.28-7.19-.28-7.19"/>
 <line class="a" x1="30.58" x2="33.84" y1="21.61" y2="18.37"/>
</svg>
