<svg viewBox="0 0 48 48" xmlns="http://www.w3.org/2000/svg">
 <defs>
  <style>.a{fill:none;stroke:#fff;stroke-linecap:round;stroke-linejoin:round;}</style>
 </defs>
 <path class="a" d="M42.8,31.84l.7-2.12-1.3-2.45L41.08,27l-2.62-3.63c0-2.73-1.6-3.36-3.67-3.3V25l3.92,3.07-.79.89.26,2.93,1.93.81"/>
 <line class="a" x1="38.82" x2="41.19" y1="28.05" y2="26.96"/>
 <path class="a" d="M24,22.9h0a2.42,2.42,0,0,1,.78,4.71l1.06,5.12L24,33.24l-1.86-.51,1.06-5.12A2.42,2.42,0,0,1,24,22.9Z"/>
 <path class="a" d="M27.26,37.6c.14,1.48.42,3,.73,3l6.83,0c2.23,0,2.26-8.88.16-8.88H33.81"/>
 <path class="a" d="M5.2,31.84l-.7-2.12,1.3-2.45L6.92,27l2.62-3.63c0-2.73,1.6-3.36,3.67-3.3V25L9.29,28.05l.79.89-.26,2.93-1.93.81"/>
 <line class="a" x1="9.29" x2="6.92" y1="28.05" y2="26.96"/>
 <path class="a" d="M20.86,37.6c-.14,1.48-.42,3-.74,3l-6.83,0c-2.22,0-2.26-8.88-.16-8.88h1.18"/>
 <path class="a" d="M29.93,15.85h-3v-.76a1.52,1.52,0,0,1,3,0Zm-8.81,0h-3v-.76a1.52,1.52,0,0,1,3,0Z"/>
 <path class="a" d="m33.31 19.59h-18.62a1.48 1.48 0 0 0-1.48 1.48v6.24a10.79 10.79 0 0 0 21.58 0v-6.24a1.48 1.48 0 0 0-1.48-1.48z"/>
 <path class="a" d="m24 7.31a10.79 10.79 0 0 1 10.79 10.79 1.49 1.49 0 0 1-1.49 1.49h-18.61a1.49 1.49 0 0 1-1.49-1.49 10.79 10.79 0 0 1 10.8-10.79z"/>
</svg>
