<svg viewBox="0 0 48 48" xmlns="http://www.w3.org/2000/svg">
 <defs>
  <style>.a,.b{fill:none;stroke:#fff;stroke-linejoin:round;}.b{stroke-linecap:round;}</style>
 </defs>
 <path class="a" d="m22.1 25.69a1.58 1.58 0 0 1 1.12 0.46l1.38 1.39a9.78 9.78 0 0 1 11.45 0l1.39-1.39a1.59 1.59 0 1 1 2.24 2.25l-1.38 1.38a9.81 9.81 0 0 1 1.85 5.73v8h-19.64v-8a9.76 9.76 0 0 1 1.85-5.72l-1.36-1.39a1.59 1.59 0 0 1 1.13-2.71zm4.07 8.13a1.83 1.83 0 0 0-1.83 1.83 1.84 1.84 0 0 0 1.83 1.83 1.83 1.83 0 0 0 1.83-1.83 1.84 1.84 0 0 0-1.83-1.83zm8.32 0a1.83 1.83 0 1 0 1.83 1.83 1.83 1.83 0 0 0-1.83-1.83z"/>
 <line class="b" x1="7.85" x2="24.61" y1="19.17" y2="19.17"/>
 <line class="b" x1="13.57" x2="7.85" y1="24.63" y2="19.17"/>
 <line class="b" x1="13.57" x2="7.85" y1="13.74" y2="19.17"/>
 <line class="b" x1="38.39" x2="21.63" y1="9.95" y2="9.95"/>
 <line class="b" x1="32.67" x2="38.39" y1="4.5" y2="9.95"/>
 <line class="b" x1="32.67" x2="38.39" y1="15.39" y2="9.95"/>
</svg>
