<svg id="Layer_2" data-name="Layer 2" viewBox="0 0 48 48" xmlns="http://www.w3.org/2000/svg">
 <defs>
  <style>.cls-1{fill:none;stroke:#fff;stroke-linecap:round;stroke-linejoin:round;}</style>
 </defs>
 <line class="cls-1" x1="29.7" x2="29.7" y1="29.54" y2="18.42"/>
 <path class="cls-1" d="m29.7 18.42h4.68a2.79 2.79 0 0 1 2.79 2.79 2.79 2.79 0 0 1-2.79 2.79h-4.68"/>
 <path class="cls-1" d="m29.7 24h4.68a2.79 2.79 0 0 1 2.79 2.79 2.79 2.79 0 0 1-2.79 2.79h-4.68"/>
 <path class="cls-1" d="M10.83,29.58V18.42h1.89A5.58,5.58,0,0,1,18.3,24h0a5.58,5.58,0,0,1-5.58,5.58Z"/>
 <line class="cls-1" x1="21.22" x2="21.22" y1="18.42" y2="29.57"/>
 <line class="cls-1" x1="22.66" x2="26.78" y1="23.99" y2="18.45"/>
 <line class="cls-1" x1="22.66" x2="26.78" y1="23.99" y2="29.58"/>
 <line class="cls-1" x1="22.66" x2="21.22" y1="23.99" y2="23.99"/>
 <rect class="cls-1" x="5.5" y="5.5" width="37" height="37" rx="2"/>
</svg>
