<svg viewBox="0 0 48 48" xmlns="http://www.w3.org/2000/svg">
 <defs>
  <style>.a{fill:none;stroke:#fff;stroke-linecap:round;stroke-linejoin:round;}</style>
 </defs>
 <path class="a" d="m41.303 14.8411-15.1506-8.7483a4.4236 4.4236 0 0 0-4.4232-5e-4l-15.032 8.6753a1.1059 1.1059 0 0 0 0 1.9155l15.1506 8.7483a4.4236 4.4236 0 0 0 4.4232 0l15.032-8.6753a1.1059 1.1059 0 0 0 0-1.915z"/>
 <path class="a" d="m12.1732 19.8452-5.476 3.16a1.1059 1.1059 0 0 0 0 1.9155l15.1506 8.7483a4.4236 4.4236 0 0 0 4.4232 5e-4l15.032-8.6753a1.1059 1.1059 0 0 0 0-1.9155l-5.4763-3.1621"/>
 <path class="a" d="m12.1732 28.0831-5.476 3.16a1.1059 1.1059 0 0 0 0 1.9155l15.1506 8.7483a4.4236 4.4236 0 0 0 4.4232 0l15.032-8.6753a1.1059 1.1059 0 0 0 0-1.9155l-5.4762-3.1621"/>
</svg>
