<svg id="Layer_2" data-name="Layer 2" viewBox="0 0 48 48" xmlns="http://www.w3.org/2000/svg">
 <defs>
  <style>.cls-1{fill:none;stroke:#fff;stroke-linejoin:round;}</style>
 </defs>
 <path class="cls-1" d="m6.45 8.4a2 2 0 0 0-1.95 1.95v27.3a2 2 0 0 0 2 2h35.1a2 2 0 0 0 2-2v-27.3a2 2 0 0 0-2-1.95zm3.63 2.46h2a1.68 1.68 0 0 1 1.68 1.68v2a1.68 1.68 0 0 1-1.68 1.68h-2a1.68 1.68 0 0 1-1.68-1.69v-2a1.68 1.68 0 0 1 1.68-1.67zm25.86 0h2a1.68 1.68 0 0 1 1.68 1.68v2a1.68 1.68 0 0 1-1.68 1.68h-2a1.68 1.68 0 0 1-1.68-1.68v-2a1.68 1.68 0 0 1 1.68-1.68zm-25.86 7h2a1.68 1.68 0 0 1 1.68 1.68v2a1.67 1.67 0 0 1-1.68 1.67h-2a1.67 1.67 0 0 1-1.68-1.7v-2a1.68 1.68 0 0 1 1.68-1.67zm25.86 0h2a1.68 1.68 0 0 1 1.68 1.68v2a1.67 1.67 0 0 1-1.68 1.67h-2a1.67 1.67 0 0 1-1.68-1.67v-2a1.68 1.68 0 0 1 1.68-1.7zm-25.86 7h2a1.67 1.67 0 0 1 1.68 1.67v2a1.68 1.68 0 0 1-1.68 1.68h-2a1.68 1.68 0 0 1-1.68-1.73v-2a1.67 1.67 0 0 1 1.68-1.66zm25.86 0h2a1.67 1.67 0 0 1 1.68 1.67v2a1.68 1.68 0 0 1-1.68 1.68h-2a1.68 1.68 0 0 1-1.68-1.68v-2a1.67 1.67 0 0 1 1.68-1.71zm-25.86 7h2a1.68 1.68 0 0 1 1.68 1.68v2a1.69 1.69 0 0 1-1.68 1.69h-2a1.69 1.69 0 0 1-1.68-1.78v-2a1.68 1.68 0 0 1 1.68-1.66zm25.86 0h2a1.68 1.68 0 0 1 1.68 1.68v2a1.69 1.69 0 0 1-1.68 1.69h-2a1.69 1.69 0 0 1-1.68-1.69v-2a1.68 1.68 0 0 1 1.68-1.75z"/>
</svg>
