<svg id="Layer_2" data-name="Layer 2" viewBox="0 0 48 48" xmlns="http://www.w3.org/2000/svg">
 <defs>
  <style>.cls-1,.cls-2{fill:none;stroke:#fff;stroke-linejoin:round;}.cls-2{stroke-linecap:round;}</style>
 </defs>
 <path class="cls-1" d="m16.55 6.45a4.31 4.31 0 0 0-4 2.29l-7.45 13a4.37 4.37 0 0 0 0 4.58l7.45 13a4.31 4.31 0 0 0 4 2.29h14.89a4.28 4.28 0 0 0 3.94-2.29l7.46-13a4.34 4.34 0 0 0 0-4.58l-7.47-13a4.28 4.28 0 0 0-3.94-2.29z"/>
 <line class="cls-2" x1="29.8" x2="29.8" y1="28.93" y2="19.04"/>
 <path class="cls-2" d="M29.8,19H34a2.48,2.48,0,0,1,2.48,2.48h0A2.48,2.48,0,0,1,34,24H29.8"/>
 <path class="cls-2" d="M29.8,24H34a2.48,2.48,0,0,1,2.48,2.48h0A2.48,2.48,0,0,1,34,29H29.8"/>
 <path class="cls-2" d="m11.55 29v-10h1.69a5 5 0 0 1 5 5 5 5 0 0 1-5 5z"/>
 <path class="cls-2" d="m23.07 19a2.47 2.47 0 0 0-2.47 2.47 2.48 2.48 0 0 0 2.47 2.53h0.84"/>
 <path class="cls-2" d="m23.91 24h0.84a2.47 2.47 0 0 1 2.47 2.47 2.47 2.47 0 0 1-2.47 2.47"/>
 <path class="cls-2" d="M27,19.87A4.21,4.21,0,0,0,23.91,19h-.84"/>
 <path class="cls-2" d="M20.84,28.1a4.2,4.2,0,0,0,3.07.83h.84"/>
</svg>
