<svg viewBox="0 0 48 48" xmlns="http://www.w3.org/2000/svg">
 <defs>
  <style>.a{fill:none;stroke:#fff;stroke-linecap:round;stroke-linejoin:round;}</style>
 </defs>
 <path class="a" d="m10.07 29.56a19.61 19.61 0 0 1-4.32-20.56m36.62 0.4a19.54 19.54 0 0 1-4.37 20.16m-14-19c1.36 0 2.46 2 2.46 4.43s-1.1 4.42-2.46 4.42-2.46-2-2.46-4.42 1.1-4.4 2.46-4.4z"/>
 <line class="a" x1="24.08" x2="24.08" y1="23.08" y2="39.02"/>
 <path class="a" d="m15.62 9.45c-1.14 1.23-1.86 4.46-1.86 6.05 0 6.83 4.4 11.74 10.32 11.74"/>
 <path class="a" d="m32.55 9.45c1.14 1.23 1.86 4.46 1.86 6.05 0 6.83-4.4 11.74-10.33 11.74"/>
</svg>
