<svg viewBox="0 0 48 48" xmlns="http://www.w3.org/2000/svg">
 <defs>
  <style>.a{fill:none;stroke:#fff;stroke-linecap:round;stroke-linejoin:round;}</style>
 </defs>
 <path class="a" d="m18.6 28.69a2.36 2.36 0 0 0-2.36 2.37 2.36 2.36 0 0 0 2.36 2.36 2.36 2.36 0 0 0 2.4-2.36 2.37 2.37 0 0 0-2.4-2.37z"/>
 <path class="a" d="m29.4 28.69a2.37 2.37 0 0 0-2.4 2.37 2.36 2.36 0 0 0 4.72 0 2.36 2.36 0 0 0-2.32-2.37z"/>
 <path class="a" d="m11.17 37.07v-6.35a12.84 12.84 0 0 1 2.44-7.49l-1.8-1.77a2.09 2.09 0 0 1 0-3 2 2 0 0 1 1.47-0.6 2.17 2.17 0 0 1 1.51 0.63l1.78 1.77a12.77 12.77 0 0 1 14.92 0l1.79-1.78a2.1 2.1 0 0 1 3 0 2.09 2.09 0 0 1 0 3l-1.8 1.77a12.83 12.83 0 0 1 2.43 7.49v6.35h-25.74z"/>
 <rect class="a" x="4.5" y="10.07" width="39" height="31.2" rx="3"/>
 <line class="a" x1="21.9" x2="18.45" y1="4.13" y2="10.07"/>
 <line class="a" x1="10.72" x2="13.01" y1="5.84" y2="10.07"/>
</svg>
