<svg id="Layer_2" data-name="Layer 2" viewBox="0 0 48 48" xmlns="http://www.w3.org/2000/svg">
 <defs>
  <style>.cls-1{fill:none;stroke:#fff;stroke-linecap:round;stroke-linejoin:round;}</style>
 </defs>
 <path class="cls-1" d="m7.45 5.5a2 2 0 0 0-1.95 2v6.7l28.3 28.3h6.75a2 2 0 0 0 2-2v-33.05a2 2 0 0 0-2-1.95zm22.71 3.89a8.47 8.47 0 0 1 8.45 8.45c0 4.92-4 8.75-8.45 13.78-4.26-4.82-8.1-8.54-8.42-13.16v-0.05-0.57a8.45 8.45 0 0 1 8.45-8.45zm0 4.39a4.06 4.06 0 0 0-4.06 4.06 4.06 4.06 0 0 0 4.06 4.06 4.06 4.06 0 0 0 0-8.12zm-24.66 13.4v13.37a2 2 0 0 0 2 2h13.32z"/>
</svg>
