<svg id="Layer_2" data-name="Layer 2" viewBox="0 0 48 48" xmlns="http://www.w3.org/2000/svg">
 <defs>
  <style>.cls-1{fill:none;stroke:#fff;stroke-linecap:round;stroke-linejoin:round;}</style>
 </defs>
 <path class="cls-1" d="m14.75 13.51a9.25 9.25 0 0 1 9.25 9.25v1.24h-17.26a1.24 1.24 0 0 1-1.24-1.24 9.25 9.25 0 0 1 9.25-9.25z"/>
 <path class="cls-1" transform="translate(66.5 58.49) rotate(180)" d="m33.25 24a9.25 9.25 0 0 1 9.25 9.25v1.24h-17.26a1.24 1.24 0 0 1-1.24-1.24 9.25 9.25 0 0 1 9.25-9.25z"/>
 <path class="cls-1" transform="translate(-14.5 52) rotate(-90)" d="m18.75 28a9.25 9.25 0 0 1 9.25 9.25v1.25h-17.25a1.24 1.24 0 0 1-1.25-1.25 9.25 9.25 0 0 1 9.25-9.25z"/>
 <path class="cls-1" transform="translate(44 -14.5) rotate(90)" d="m29.25 9.5a9.25 9.25 0 0 1 9.25 9.25v1.25h-17.26a1.24 1.24 0 0 1-1.24-1.25 9.25 9.25 0 0 1 9.25-9.25z"/>
</svg>
