<svg id="Layer_2" data-name="Layer 2" viewBox="0 0 48 48" xmlns="http://www.w3.org/2000/svg">
 <defs>
  <style>.cls-1{fill:none;stroke:#fff;stroke-linecap:round;stroke-linejoin:round;}</style>
 </defs>
 <path class="cls-1" d="m10.4 4.5a2 2 0 0 0-2 2v35a2 2 0 0 0 2 2h27.2a2 2 0 0 0 2-2v-27h-8a2 2 0 0 1-2-2v-8zm6.15 13.5h14.9a1 1 0 0 1 1 1v19.7a1 1 0 0 1-1 1h-14.9a1 1 0 0 1-1-1v-19.7a1 1 0 0 1 1-1z"/>
 <line class="cls-1" x1="29.61" x2="39.6" y1="4.5" y2="14.49"/>
 <line class="cls-1" x1="18.47" x2="29.53" y1="23.32" y2="23.32"/>
 <line class="cls-1" x1="18.47" x2="29.53" y1="28.79" y2="28.79"/>
 <line class="cls-1" x1="18.47" x2="29.53" y1="34.28" y2="34.28"/>
</svg>
