<svg viewBox="0 0 48 48" xmlns="http://www.w3.org/2000/svg">
 <defs>
  <style>.a{fill:none;stroke:#fff;stroke-linecap:round;stroke-linejoin:round;}</style>
 </defs>
 <path class="a" d="m29.93 15.52 1.55-1.52 2.37 2.38-1.55 1.52m-5.16-1.16 2-2 4 4-2 2m-4.85-4.87 5.71 5.72-5.7 5.66-5.66-5.68zm-1 10.34-2.09 2.09-3.67-3.69 2.1-2.08"/>
 <path class="a" d="M12.71,37.09c-.47.48-1,.14-1.59-.41s-.86-1.13-.4-1.59,1.06-.17,1.61.38.86,1.12.38,1.62Z"/>
 <path class="a" d="m16.26 31.59-3.93 3.88"/>
 <path class="a" d="M26.79,18.66,23.46,22"/>
 <path class="a" d="m29.19 21.06-3.33 3.31"/>
 <path class="a" d="m7.92 7.83 11.65 11.65m-9.31-14 11.65 11.67-4.66 4.65-11.66-11.65z"/>
 <path class="a" d="m28.42 28.53 11.65 11.65m-9.32-14 11.66 11.67-4.67 4.65-11.65-11.65z"/>
</svg>
