<svg viewBox="0 0 48 48" xmlns="http://www.w3.org/2000/svg">
 <defs>
  <style>.a,.b{fill:none;stroke:#fff;stroke-linecap:round;stroke-linejoin:round;}.b{stroke-width:0.87px;}</style>
 </defs>
 <line class="a" x1="13.27" x2="21.83" y1="17.86" y2="17.86"/>
 <line class="a" x1="13.27" x2="20.69" y1="21.86" y2="21.86"/>
 <line class="a" x1="13.27" x2="19.01" y1="25.86" y2="25.86"/>
 <path class="b" d="m30.17 24.73a3.56 3.56 0 0 1-2 6.83l-5.63-1.65 4-13.65 5.63 1.64a3.56 3.56 0 0 1-2 6.83z"/>
 <line class="b" x1="30.17" x2="24.54" y1="24.73" y2="23.09"/>
 <line class="b" x1="26.53" x2="24.53" y1="16.26" y2="15.68"/>
 <line class="b" x1="22.55" x2="20.55" y1="29.91" y2="29.33"/>
 <line class="b" x1="28.27" x2="28.98" y1="16.77" y2="14.35"/>
 <line class="b" x1="31.06" x2="31.76" y1="17.58" y2="15.16"/>
 <line class="b" x1="23.58" x2="24.29" y1="32.84" y2="30.42"/>
 <line class="b" x1="26.37" x2="27.08" y1="33.65" y2="31.23"/>
 <path class="a" d="M22.2,4.86,6.69,11.25V27C6.69,35.44,24,43.5,24,43.5S41.31,35.44,41.31,27V11.25L25.8,4.86A4.68,4.68,0,0,0,22.2,4.86Z"/>
</svg>
