<svg id="Layer_2" data-name="Layer 2" viewBox="0 0 48 48" xmlns="http://www.w3.org/2000/svg">
 <defs>
  <style>.cls-1{fill:none;stroke:#fff;stroke-linecap:round;stroke-linejoin:round;}</style>
 </defs>
 <path class="cls-1" d="M7.45,5.5a2,2,0,0,0-1.95,2v33.1a2,2,0,0,0,2,2h33.1a2,2,0,0,0,2-2V7.45a2,2,0,0,0-2-1.95Z"/>
 <line class="cls-1" x1="12.59" x2="18.53" y1="30.12" y2="30.12"/>
 <line class="cls-1" x1="12.59" x2="18.53" y1="18.24" y2="18.24"/>
 <line class="cls-1" x1="12.59" x2="16.46" y1="24.18" y2="24.18"/>
 <line class="cls-1" x1="12.59" x2="12.59" y1="18.24" y2="30.12"/>
 <path class="cls-1" d="m35.41 27.73a3 3 0 0 1-2.94 2.57 3 3 0 0 1-3-3v-2a3 3 0 0 1 3-3 3 3 0 0 1 2.94 2.7"/>
 <path class="cls-1" d="m26.9 22.6h-3.78a1.88 1.88 0 0 0-1.88 1.88 1.88 1.88 0 0 0 1.88 1.88h1.88a1.88 1.88 0 0 1 1.88 1.88 1.88 1.88 0 0 1-1.88 1.88h-3.76"/>
</svg>
