<svg viewBox="0 0 48 48" xmlns="http://www.w3.org/2000/svg">
 <defs>
  <style>.a{fill:none;stroke:#fff;stroke-linecap:round;stroke-linejoin:round;}</style>
 </defs>
 <path class="a" d="m42.87 16.87-11.74-11.74a4 4 0 0 0-3.87-1l-16 4.3a4 4 0 0 0-2.86 2.79l-4.3 16a4 4 0 0 0 1 3.87l11.77 11.78a4 4 0 0 0 3.87 1l16-4.3a4 4 0 0 0 2.82-2.82l4.3-16a4 4 0 0 0-0.99-3.88z"/>
 <line class="a" x1="21.31" x2="27.08" y1="29.77" y2="29.77"/>
 <line class="a" x1="21.31" x2="27.08" y1="18.23" y2="18.23"/>
 <line class="a" x1="21.31" x2="25.08" y1="24" y2="24"/>
 <line class="a" x1="21.31" x2="21.31" y1="18.23" y2="29.77"/>
 <line class="a" x1="29.85" x2="37.5" y1="18.23" y2="29.77"/>
 <line class="a" x1="37.5" x2="29.85" y1="18.23" y2="29.77"/>
 <line class="a" x1="10.5" x2="10.5" y1="18.23" y2="29.77"/>
 <line class="a" x1="18.15" x2="18.15" y1="18.23" y2="29.77"/>
 <line class="a" x1="10.5" x2="18.15" y1="23.98" y2="23.98"/>
</svg>
