<svg id="Layer_2" data-name="Layer 2" viewBox="0 0 48 48" xmlns="http://www.w3.org/2000/svg">
 <defs>
  <style>.cls-1{fill:none;stroke:#fff;stroke-linecap:round;stroke-linejoin:round;}</style>
 </defs>
 <path class="cls-1" d="M10.74,31.29v3.77a1.64,1.64,0,0,0,1.71,1.57H32.67l6.93,6.24V36.63h2.19a1.64,1.64,0,0,0,1.71-1.57V16.37a1.64,1.64,0,0,0-1.71-1.58H37.87"/>
 <path class="cls-1" d="m6.18 8.55a1.68 1.68 0 0 0-1.68 1.68v19.38a1.68 1.68 0 0 0 1.68 1.68h30a1.69 1.69 0 0 0 1.69-1.67v-19.38a1.69 1.69 0 0 0-1.68-1.69h-30zm28.42 3.26-13.42 9.88-13.42-9.88"/>
</svg>
