<svg viewBox="0 0 48 48" xmlns="http://www.w3.org/2000/svg">
 <defs>
  <style>.a{fill:none;stroke:#fff;stroke-linecap:round;stroke-linejoin:round;}</style>
 </defs>
 <path class="a" d="m28.41 25.61v-4.7m-8.87 7.19a4.42 4.42 0 0 0 4.46 4.41 4.42 4.42 0 0 0 4.44-4.38m-8.87-7.19v4.7m8.87 2.52v4.38m-23.94-4.44v4.42m0-17v10.09m8.85 2.49v4.42m-8.85-7a4.36 4.36 0 0 1 4.42-4.26 4.36 4.36 0 0 1 4.43 4.26v0.12m29.48 4.72a4.28 4.28 0 0 1-3.76 2.18 4.42 4.42 0 0 1-4.44-4.37v-2.87a4.41 4.41 0 0 1 4.44-4.36 4.41 4.41 0 0 1 4.43 4.36v1.53h-11.59"/>
</svg>
