<svg viewBox="0 0 48 48" xmlns="http://www.w3.org/2000/svg">
 <defs>
  <style>.a{fill:none;stroke:#fff;stroke-linecap:round;stroke-linejoin:round;}</style>
 </defs>
 <path class="a" d="m19.06 22v5a3 3 0 0 0 3 3 3 3 0 0 0 3-3v-5"/>
 <path class="a" d="m32.43 22v5a3 3 0 0 0 3 3 3 3 0 0 0 3-3v-5"/>
 <line class="a" x1="9.5" x2="9.5" y1="17.93" y2="30.07"/>
 <path class="a" d="m9.5 25.06a3 3 0 0 1 3-3 3 3 0 0 1 3 3v5"/>
 <line class="a" x1="28.73" x2="28.73" y1="17.93" y2="30.07"/>
 <path class="a" d="m7.48 5.5a2 2 0 0 0-2 2v33a2 2 0 0 0 2 2h33.04a2 2 0 0 0 2-2v-33a2 2 0 0 0-2-2h-33.04z"/>
</svg>
