<svg viewBox="0 0 48 48" xmlns="http://www.w3.org/2000/svg">
 <defs>
  <style>.a,.b,.c,.d{fill:none;stroke:#fff;stroke-linecap:round;stroke-linejoin:round;}.b{stroke-dasharray:2.8966 4.8276;}.c{stroke-dasharray:2.9189 4.8649;}.d{stroke-dasharray:2.0675 2.0675;}.e{fill:#fff;}</style>
 </defs>
 <path class="a" d="m42 39.5a1.5 1.5 0 0 0 1.5-1.5"/>
 <line class="b" x1="43.5" x2="43.5" y1="33.1724" y2="12.4138"/>
 <path class="a" d="m43.5 10a1.5 1.5 0 0 0-1.5-1.5"/>
 <line class="c" x1="37.1351" x2="8.4324" y1="8.5" y2="8.5"/>
 <path class="a" d="m6 8.5a1.5 1.5 0 0 0-1.5 1.5"/>
 <line class="b" x1="4.5" x2="4.5" y1="14.8276" y2="35.5862"/>
 <path class="a" d="m4.5 38a1.5 1.5 0 0 0 1.5 1.5"/>
 <line class="c" x1="10.8649" x2="39.5676" y1="39.5" y2="39.5"/>
 <line class="a" x1="43.5" x2="42.5" y1="20.4" y2="20.4"/>
 <path class="d" d="M40.4326,20.4H36.3481A2.8481,2.8481,0,0,0,33.5,23.2482v1.5036A2.8481,2.8481,0,0,0,36.3481,27.6h5.1181"/>
 <line class="a" x1="42.5" x2="43.5" y1="27.6" y2="27.6"/>
 <circle class="e" cx="36.472" cy="24" r=".795"/>
</svg>
