<svg viewBox="0 0 48 48" xmlns="http://www.w3.org/2000/svg">
 <defs>
  <style>.a{fill:none;stroke:#fff;stroke-linecap:round;stroke-linejoin:round;}</style>
 </defs>
 <path class="a" d="m24.22 27.81h0.28v15.69h-6.28v-9.69a6 6 0 0 1 6-6z"/>
 <path class="a" d="m24.49 14.9v6.27h6.09a3.32 3.32 0 0 1 3.32 3.32 3.31 3.31 0 0 1-3.32 3.32h-6.09v6.28h6.09a9.6 9.6 0 0 0 9.6-9.6 9.59 9.59 0 0 0-9.6-9.59z"/>
 <rect class="a" x="18.22" y="14.9" width="6.28" height="6.28"/>
 <rect class="a" x="11.96" y="8.63" width="3.53" height="3.53"/>
 <rect class="a" x="7.82" y="4.5" width="2.19" height="2.19"/>
 <rect class="a" x="12.63" y="4.5" width="2.19" height="2.19"/>
 <rect class="a" x="7.82" y="9.31" width="2.19" height="2.19"/>
 <rect class="a" x="11.96" y="14.9" width="3.53" height="3.53"/>
 <rect class="a" x="18.22" y="8.63" width="3.53" height="3.53"/>
</svg>
