<svg viewBox="0 0 48 48" xmlns="http://www.w3.org/2000/svg">
 <defs>
  <style>.a{fill:none;stroke:#fff;stroke-linecap:round;stroke-linejoin:round;}</style>
 </defs>
 <path class="a" d="M6.5249,30.1231a18.497,18.497,0,1,1,34.9487.0044"/>
 <path class="a" d="M19.2312,40.4668A8.3328,8.3328,0,0,1,8.4345,27.7715Z"/>
 <path class="a" d="m28.7688 40.4668a8.3328 8.3328 0 1 0 10.7967-12.6953z"/>
 <path class="a" d="M25.1055,20.6363a2.5249,2.5249,0,1,1,0,5.05H20.94V15.5867h4.166a2.5249,2.5249,0,1,1,0,5.05Z"/>
 <line class="a" x1="25.1055" x2="20.9398" y1="20.6363" y2="20.6363"/>
 <path class="a" d="m18.3692 15.5862v7.5746a2.5323 2.5323 0 0 1-2.5249 2.5249 2.5324 2.5324 0 0 1-2.5249-2.5249v-0.8837"/>
 <path class="a" d="m30.0128 15.5862v10.0993h5.05"/>
</svg>
