<svg viewBox="0 0 48 48" xmlns="http://www.w3.org/2000/svg">
 <defs>
  <style>.a{fill:none;stroke:#fff;stroke-linecap:round;stroke-linejoin:round;}</style>
 </defs>
 <rect class="a" x="21.5927" y="5.5" width="19.9531" height="35.0527" rx="1.7976"/>
 <line class="a" x1="21.5927" x2="41.5457" y1="9.9939" y2="9.9939"/>
 <line class="a" x1="21.5927" x2="41.5457" y1="36.0588" y2="36.0588"/>
 <path class="a" d="M21.5927,7.4473H8.2518A1.7976,1.7976,0,0,0,6.4543,9.2449V40.7024A1.7976,1.7976,0,0,0,8.2518,42.5H24.61a1.7976,1.7976,0,0,0,1.7975-1.7976"/>
 <line class="a" x1="6.4543" x2="21.5927" y1="11.9412" y2="11.9412"/>
 <line class="a" x1="6.4543" x2="21.5927" y1="38.0061" y2="38.0061"/>
 <circle class="a" cx="15.4834" cy="25.1867" r="1.8947"/>
 <line class="a" x1="17.3782" x2="21.5927" y1="25.1867" y2="25.1867"/>
 <line class="a" x1="21.5927" x2="31.3036" y1="23.292" y2="23.292"/>
 <polyline class="a" points="28.222 26.639 31.569 23.292 28.222 19.945"/>
</svg>
