<svg viewBox="0 0 48 48" xmlns="http://www.w3.org/2000/svg">
 <defs>
  <style>.a{fill:none;stroke:#fff;stroke-linecap:round;stroke-linejoin:round;}</style>
 </defs>
 <path class="a" d="m24.87 7.45h15.42a1.57 1.57 0 0 1 1.56 1.74l-2.35 22a2.1 2.1 0 0 1-1 1.58l-12.28 7.4a2.6 2.6 0 0 1-2.69 0l-12.29-7.36a2.1 2.1 0 0 1-1-1.58l-2.35-22a1.58 1.58 0 0 1 1.57-1.78h15.41"/>
 <polyline class="a" points="8.29 12.88 2.86 13.46 3.98 23.91 9.4 23.33"/>
 <line class="a" x1="19.79" x2="19.79" y1="12.16" y2="31.08"/>
 <polyline class="a" points="29.96 31.08 22.17 21.62 29.96 12.22"/>
 <line class="a" x1="22.17" x2="19.79" y1="21.62" y2="21.62"/>
</svg>
