<svg id="Layer_2" data-name="Layer 2" viewBox="0 0 48 48" xmlns="http://www.w3.org/2000/svg">
 <defs>
  <style>.cls-1{fill:none;stroke:#fff;stroke-linecap:round;stroke-linejoin:round;}</style>
 </defs>
 <circle class="cls-1" cx="24" cy="24" r="21.5"/>
 <line class="cls-1" x1="10.06" x2="10.06" y1="16.68" y2="27.77"/>
 <line class="cls-1" x1="10.06" x2="15.04" y1="25.37" y2="20.4"/>
 <line class="cls-1" x1="11.38" x2="15.04" y1="24.06" y2="27.72"/>
 <path class="cls-1" d="m23 24.94a2.84 2.84 0 0 1-2.84 2.83 2.83 2.83 0 0 1-2.83-2.83v-4.54"/>
 <line class="cls-1" x1="23" x2="23" y1="27.77" y2="20.4"/>
 <path class="cls-1" d="m27.15 20.4a1.84 1.84 0 0 0-1.84 1.84 1.84 1.84 0 0 0 1.84 1.84h0.63"/>
 <path class="cls-1" d="m27.78 24.08h0.62a1.84 1.84 0 0 1 1.84 1.85 1.84 1.84 0 0 1-1.84 1.84"/>
 <path class="cls-1" d="M30.07,21a3.13,3.13,0,0,0-2.29-.62h-.63"/>
 <path class="cls-1" d="M25.49,27.15a3.11,3.11,0,0,0,2.29.62h.62"/>
 <path class="cls-1" d="m37.94 25.37a2.78 2.78 0 0 1-2.75 2.4 2.77 2.77 0 0 1-2.77-2.77v-1.83a2.77 2.77 0 0 1 2.77-2.77 2.76 2.76 0 0 1 2.74 2.39"/>
</svg>
