<svg viewBox="0 0 48 48" xmlns="http://www.w3.org/2000/svg">
 <defs>
  <style>.a{fill:none;stroke:#fff;stroke-linecap:round;stroke-linejoin:round;}.b{fill:#fff;}</style>
 </defs>
 <path class="a" d="M13.2,18.4H34.7V35.5l-1.8,1.8H15l-1.8-1.8Z"/>
 <path class="a" d="m13.2 16.4c0-12.8 21.5-12.7 21.5 0z"/>
 <line class="a" x1="33.3" x2="33.3" y1="16.4" y2="18.4"/>
 <line class="a" x1="15.1" x2="15.1" y1="18.4" y2="16.4"/>
 <circle class="b" cx="19" cy="12.4" r=".8"/>
 <circle class="b" cx="29" cy="12.4" r=".8"/>
 <path class="a" d="m35 43.5h-5.6v-6.2"/>
 <path class="a" d="M18.5,37.3v6.2H13"/>
 <path class="a" d="m29 7.8 1.5-3.3"/>
 <path class="a" d="m17.4 4.5 1.5 3.3"/>
 <path class="a" d="M15.3,20.5V30.8h3.4v1.8h1.7V35h7.2V32.6h1.7V30.8h3.4V20.4Z"/>
 <path class="a" d="m17.6 22.7v2"/>
 <path class="a" d="m19.5 22.7v2"/>
 <path class="a" d="m21.3 22.7v2"/>
 <path class="a" d="m23.1 22.7v2"/>
 <path class="a" d="m24.9 22.7v2"/>
 <path class="a" d="m26.7 22.7v2"/>
 <path class="a" d="m28.6 22.7v2"/>
 <path class="a" d="m30.4 22.7v2"/>
 <path class="a" d="M10.4,30.8h0a.79.79,0,0,1-.8-.8V20a.79.79,0,0,1,.8-.8h0a.79.79,0,0,1,.8.8V30C11.3,30.4,10.9,30.8,10.4,30.8Z"/>
 <path class="a" d="M37.6,30.8h0a.79.79,0,0,1-.8-.8V20a.79.79,0,0,1,.8-.8h0a.79.79,0,0,1,.8.8V30A.86.86,0,0,1,37.6,30.8Z"/>
 <line class="a" x1="18.5" x2="29.4" y1="43.5" y2="43.5"/>
</svg>
