<svg id="Layer_2" data-name="Layer 2" viewBox="0 0 48 48" xmlns="http://www.w3.org/2000/svg">
 <defs>
  <style>.cls-1{fill:none;stroke:#fff;stroke-linecap:round;stroke-linejoin:round;}</style>
 </defs>
 <path class="cls-1" d="m43.5 21.33c0-8.67-8.73-15.7-19.5-15.7-10.26 0-18.77 6.37-19.45 14.65v1c-0.05 8.19 7.63 14.88 17.45 15.72 2 0.1 1.79 0.31 1.79 1.62s-0.05 2.83-0.05 2.83c0 0.92 0.51 1 1.19 1 1.3 0 6.37-3.19 9.07-5.46a30.93 30.93 0 0 0 7.79-9.21 13.13 13.13 0 0 0 1.65-5.32c0.04-0.46 0.06-0.78 0.06-1.13z"/>
 <polyline class="cls-1" points="10.5 16.51 10.5 25.09 14.79 25.09"/>
 <line class="cls-1" x1="18.07" x2="22.36" y1="25.09" y2="25.09"/>
 <line class="cls-1" x1="18.07" x2="22.36" y1="16.51" y2="16.51"/>
 <line class="cls-1" x1="20.21" x2="20.21" y1="16.51" y2="25.09"/>
 <line class="cls-1" x1="33.21" x2="37.5" y1="25.09" y2="25.09"/>
 <line class="cls-1" x1="33.21" x2="37.5" y1="16.51" y2="16.51"/>
 <line class="cls-1" x1="33.21" x2="35.36" y1="20.8" y2="20.8"/>
 <line class="cls-1" x1="33.21" x2="33.21" y1="16.51" y2="25.09"/>
 <line class="cls-1" x1="24.55" x2="24.55" y1="25.09" y2="16.51"/>
 <line class="cls-1" x1="31.02" x2="31.02" y1="25.09" y2="16.51"/>
 <line class="cls-1" x1="24.55" x2="31.02" y1="16.51" y2="25.09"/>
</svg>
