<svg viewBox="0 0 48 48" xmlns="http://www.w3.org/2000/svg">
 <defs>
  <style>.a{fill:none;stroke:#fff;stroke-linecap:round;stroke-linejoin:round;}</style>
 </defs>
 <path class="a" d="M33.35,5.6c6.12,0,10.15,3.21,10.15,10.81s-4.08,26-17.8,26S4.5,29.2,4.5,22.87C4.5,13.13,23.62,5.6,33.35,5.6Z"/>
 <path class="a" d="m16.27 23.58h0.84a1 1 0 0 1 1 1v6.92a1 1 0 0 1-1 1h-0.84a4.43 4.43 0 0 1-4.44-4.5 4.43 4.43 0 0 1 4.44-4.42z"/>
 <path class="a" d="m31.73 23.28a7.73 7.73 0 0 0-15.46 0"/>
 <line class="a" x1="16.27" x2="16.27" y1="23.58" y2="32.45"/>
 <path class="a" transform="translate(66.09 55.44) rotate(180)" d="m34.35 23.28h0.84a1 1 0 0 1 1 1v6.92a1 1 0 0 1-1 1h-0.84a4.43 4.43 0 0 1-4.43-4.43 4.43 4.43 0 0 1 4.43-4.49z"/>
 <line class="a" x1="31.73" x2="31.73" y1="23.28" y2="32.15"/>
</svg>
