<svg viewBox="0 0 48 48" xmlns="http://www.w3.org/2000/svg">
 <defs>
  <style>.a,.c{fill:none;stroke:#fff;stroke-linecap:round;stroke-linejoin:round;}.b{fill:#fff;}</style>
 </defs>
 <line class="a" x1="29.18" x2="33.16" y1="17.61" y2="17.61"/>
 <line class="a" x1="29.18" x2="31.17" y1="10.8" y2="9.71"/>
 <line class="a" x1="31.17" x2="31.17" y1="9.71" y2="17.61"/>
 <path class="a" d="m11.62 17.6a2 2 0 0 0 2-2 2 2 0 0 0-2-2 2 2 0 0 0 2-2 2 2 0 0 0-2-2"/>
 <path class="a" d="M8.34,16.92a3.27,3.27,0,0,0,2.49.69h.79"/>
 <path class="a" d="M8.34,10.39a3.42,3.42,0,0,1,2.49-.69h.79"/>
 <path class="a" d="M15.71,16.92a3.15,3.15,0,0,0,2.39.69h.3A2.62,2.62,0,0,0,21,15h0a2.62,2.62,0,0,0-2.58-2.57H15.71V9.71H21"/>
 <line class="a" x1="35.68" x2="39.66" y1="17.61" y2="17.61"/>
 <line class="a" x1="35.68" x2="37.67" y1="10.8" y2="9.71"/>
 <line class="a" x1="37.67" x2="37.67" y1="9.71" y2="17.61"/>
 <line class="a" x1="23.56" x2="26.62" y1="12.65" y2="15.71"/>
 <line class="a" x1="26.61" x2="23.55" y1="12.68" y2="15.74"/>
 <path class="a" d="m24.19 33.58a2 2 0 0 0 2-2 2 2 0 0 0-2-2h-1.29a2 2 0 0 0-2 2 2 2 0 0 0 2 2 2 2 0 0 0-2 2 2 2 0 0 0 2 2h1.29a2 2 0 0 0 2-2 2 2 0 0 0-2-2"/>
 <path class="a" d="m16.54 38.62a2 2 0 0 0 2-2 2 2 0 0 0-2-2 2 2 0 0 0 2-2 2 2 0 0 0-2-2"/>
 <path class="a" d="M13.22,37.93a3.29,3.29,0,0,0,2.52.7h.8"/>
 <path class="a" d="M13.22,31.32a3.44,3.44,0,0,1,2.52-.7h.8"/>
 <path class="a" d="M28.53,38a3.19,3.19,0,0,0,2.42.7h.3a2.66,2.66,0,0,0,2.62-2.6h0a2.66,2.66,0,0,0-2.62-2.6H28.53v-2.8h5.34"/>
 <circle class="b" cx="36.73" cy="38.72" r=".75"/>
 <line class="a" x1="36.73" x2="36.73" y1="29.8" y2="36.18"/>
 <path class="c" d="m40.5 42.5h-33a2 2 0 0 1-2-2v-33a2 2 0 0 1 2-2h33a2 2 0 0 1 2 2v33a2 2 0 0 1-2 2z"/>
 <line class="a" x1="20.82" x2="27.18" y1="22.06" y2="22.06"/>
 <line class="a" x1="20.82" x2="27.18" y1="25.94" y2="25.94"/>
</svg>
