<svg id="Layer_2" data-name="Layer 2" viewBox="0 0 48 48" xmlns="http://www.w3.org/2000/svg">
 <defs>
  <style>.cls-1{fill:none;stroke:#fff;stroke-linecap:round;stroke-linejoin:round;}</style>
 </defs>
 <polyline class="cls-1" points="11.82 18.5 15.5 24 11.82 29.5"/>
 <polyline class="cls-1" points="19.18 18.5 15.5 24 19.18 29.5"/>
 <path class="cls-1" d="m5.5 16v16a2 2 0 0 0 2 2h16a2 2 0 0 0 2-2v-16a2 2 0 0 0-2-2h-16a2 2 0 0 0-2 2z"/>
 <path class="cls-1" d="M13.23,14V6.5a2,2,0,0,1,2-2H40.5a2,2,0,0,1,2,2v35a2,2,0,0,1-2,2H15.23a2,2,0,0,1-2-2V34"/>
</svg>
