<svg viewBox="0 0 48 48" xmlns="http://www.w3.org/2000/svg">
 <defs>
  <style>.a{fill:none;stroke:#fff;stroke-linecap:round;stroke-linejoin:round;}</style>
 </defs>
 <path class="a" d="m33.38 18.62a2.48 2.48 0 0 1 2.46 2.47"/>
 <path class="a" d="m33.38 16.72a4.27 4.27 0 0 1 4.29 4.28"/>
 <path class="a" d="m33.38 14.89a6.12 6.12 0 0 1 6.12 6.11"/>
 <polyline class="a" points="8.5 29.51 8.5 20.93 12.79 29.51 17.09 20.93 17.09 29.51"/>
 <line class="a" x1="27.1" x2="32.82" y1="20.93" y2="20.93"/>
 <line class="a" x1="29.96" x2="29.96" y1="29.51" y2="20.93"/>
 <path class="a" d="m25.35 26.65a2.85 2.85 0 0 1-2.86 2.86 2.85 2.85 0 0 1-2.86-2.86v-2.86a2.85 2.85 0 0 1 2.86-2.86 2.85 2.85 0 0 1 2.86 2.86"/>
 <rect class="a" x="4.5" y="8.4" width="39" height="31.2" rx="1.95"/>
</svg>
