<svg viewBox="0 0 48 48" xmlns="http://www.w3.org/2000/svg">
 <defs>
  <style>.a,.b{fill:none;stroke:#fff;}.a{stroke-miterlimit:10;}.b{stroke-linecap:round;stroke-linejoin:round;}</style>
 </defs>
 <path class="a" d="m15.24 22.65a2.2 2.2 0 1 1 2.19-2.19 2.19 2.19 0 0 1-2.19 2.19zm5.76-3.76a3 3 0 1 1 3-3 3 3 0 0 1-3 3z"/>
 <circle class="b" cx="24.01" cy="24" r="15.73"/>
 <line class="b" x1="24" x2="24" y1="2.5" y2="8.27"/>
 <line class="b" x1="45.51" x2="39.75" y1="23.98" y2="23.98"/>
 <line class="b" x1="24.03" x2="24.03" y1="45.5" y2="39.73"/>
 <line class="b" x1="2.51" x2="8.28" y1="24.02" y2="24.02"/>
 <line class="b" x1="35.14" x2="37.18" y1="12.88" y2="10.84"/>
 <line class="b" x1="35.14" x2="37.18" y1="35.12" y2="37.16"/>
 <line class="b" x1="12.89" x2="10.85" y1="35.12" y2="37.16"/>
 <line class="b" x1="12.89" x2="10.85" y1="12.88" y2="10.84"/>
</svg>
