<svg viewBox="0 0 48 48" xmlns="http://www.w3.org/2000/svg">
 <defs>
  <style>.a{fill:none;stroke:#fff;stroke-linecap:round;stroke-linejoin:round;}</style>
 </defs>
 <path class="a" d="M14.5,5.5V22.7l1.9-1.8,2.5,2.4,2.5-2.5,2.5,2.6,2.5-2.5,2.5,2.4,2.5-2.5,2,2V5.5"/>
 <path class="a" d="m34.4 35.6c0-3.3 5.2-3.5 5.2 0"/>
 <rect class="a" x="34.4" y="35.6" width="5.2" height="4.3"/>
 <path class="a" d="m38.2 40v2.5"/>
 <path class="a" d="m35.7 40v2.5"/>
 <path class="a" d="m32.9 35.2v4"/>
 <path class="a" d="m41.1 35.2v4"/>
 <path class="a" d="m36.1 33.2-1.1-1.5"/>
 <path class="a" d="m37.9 33.2 1.1-1.5"/>
 <polyline class="a" points="27.6 9.7 27.6 17.7 31.6 17.7"/>
 <polyline class="a" points="17.3 17.7 17.3 9.7 21.3 17.7 25.3 9.7 25.3 17.7"/>
 <path class="a" d="m37 28.6a8.5 8.5 0 1 0 8.5 8.5 8.49 8.49 0 0 0-8.5-8.5z"/>
 <path class="a" d="m30.5 42.5h-23a2 2 0 0 1-2-2v-33a2 2 0 0 1 2-2h33a2 2 0 0 1 2 2v23.1"/>
</svg>
