<svg viewBox="0 0 48 48" xmlns="http://www.w3.org/2000/svg">
 <defs>
  <style>.a{fill:none;stroke:#fff;stroke-linecap:round;stroke-linejoin:round;}</style>
 </defs>
 <rect class="a" x="8.5397" y="39.0756" width="4.7422" height="4.4244"/>
 <rect class="a" x="34.7183" y="39.0756" width="4.7422" height="4.4244"/>
 <path class="a" d="m7.2894 10.9915h1.2022v7.9346a2.4335 2.4335 0 0 1-2.4045-2.4621v-4.2415a1.2183 1.2183 0 0 1 1.2022-1.231z"/>
 <path class="a" d="m40.7106 10.9915h-1.2022v7.9346a2.4335 2.4335 0 0 0 2.4045-2.4621v-4.2415a1.2183 1.2183 0 0 0-1.2022-1.231z"/>
 <path class="a" d="M24,4.5c-5.511,0-15.46.856-15.46,3.0969V39.0756h30.921V7.5969C39.4607,5.3559,29.4387,4.5,24,4.5Zm.024,4.2318q8.1848,0,12.1972,1.2246a.9611.9611,0,0,1,.6663.9257V27.9006a.975.975,0,0,1-.975.975H12.1353a.975.975,0,0,1-.9749-.975l0-17.0185a.9611.9611,0,0,1,.6664-.9257q4.0146-1.2246,12.1972-1.2246Zm-10.4353,22.77a2.5016,2.5016,0,0,1,0,5.0011h0a2.4653,2.4653,0,0,1-2.4286-2.5h0A2.4654,2.4654,0,0,1,13.5889,31.5018Zm20.8707,0a2.5016,2.5016,0,0,1,0,5.0011h0a2.4653,2.4653,0,0,1-2.4285-2.5h0A2.4654,2.4654,0,0,1,34.46,31.5018Z"/>
</svg>
