<svg viewBox="0 0 48 48" xmlns="http://www.w3.org/2000/svg">
 <defs>
  <style>.a{fill:none;stroke:#fff;stroke-linecap:round;stroke-linejoin:round;}</style>
 </defs>
 <line class="a" x1="10.01" x2="38.9" y1="9.99" y2="9.99"/>
 <line class="a" x1="24.46" x2="24.46" y1="5.51" y2="24.22"/>
 <line class="a" x1="12.92" x2="35.99" y1="17.26" y2="17.26"/>
 <line class="a" x1="31.57" x2="43" y1="24.22" y2="24.22"/>
 <rect class="a" x="21.66" y="24.22" width="5.61" height="6.58"/>
 <path class="a" d="M33.84,24.22c0,4.31-.81,11.15,5.71,18.27"/>
 <line class="a" x1="43" x2="33.51" y1="33.81" y2="38.39"/>
 <line class="a" x1="33.94" x2="37.29" y1="30.15" y2="30.15"/>
 <path class="a" d="M26.08,36.61C23.49,39,18,41.9,14.54,42.49"/>
 <path class="a" d="M5.86,24.16h5.82l2.08,2.08,2-2h1.83c0,5.06.06,9.59-2.64,13.15"/>
 <path class="a" d="m5 41c2.64-2.91 5-6.57 5-16.81"/>
</svg>
