<svg viewBox="0 0 48 48" xmlns="http://www.w3.org/2000/svg">
 <defs>
  <style>.a{fill:none;stroke:#fff;stroke-linecap:round;stroke-linejoin:round;}.b{fill:#fff;}</style>
 </defs>
 <path class="a" d="m40.5 5.5h-33a2 2 0 0 0-2 2v33a2 2 0 0 0 2 2h33a2 2 0 0 0 2-2v-33a2 2 0 0 0-2-2z"/>
 <path class="a" d="m19.66 16.34v11.49a3.82 3.82 0 0 1-3.83 3.83 3.83 3.83 0 0 1-3.83-3.83v-1.27"/>
 <rect class="a" x="28.34" y="21.51" width="7.66" height="10.15" rx="3.83"/>
 <circle class="b" cx="24.1" cy="18.07" r=".75"/>
 <line class="a" x1="24.1" x2="24.1" y1="21.51" y2="31.66"/>
</svg>
