<svg viewBox="0 0 48 48" xmlns="http://www.w3.org/2000/svg">
 <defs>
  <style>.a{fill:none;stroke:#fff;stroke-linecap:round;stroke-linejoin:round;}</style>
 </defs>
 <path class="a" d="m43.5 31.15-37.8 2.7-1.2-17 37.8-2.7z"/>
 <path class="a" d="m21 29.55a2.69 2.69 0 0 1-2.7-2.7v-1.8a2.69 2.69 0 0 1 2.7-2.7 2.69 2.69 0 0 1 2.7 2.7v1.8a2.75 2.75 0 0 1-2.7 2.7z"/>
 <line class="a" x1="34.4" x2="34.4" y1="18.55" y2="29.55"/>
 <path class="a" d="m34.4 25.05a2.69 2.69 0 0 1 2.7-2.7 2.69 2.69 0 0 1 2.7 2.7v4.5"/>
 <path class="a" d="m8.3 28.35a3 3 0 0 0 2.7 1.2h1.6a2.69 2.69 0 0 0 2.7-2.7 2.69 2.69 0 0 0-2.7-2.7h-1.8a2.69 2.69 0 0 1-2.7-2.7 2.69 2.69 0 0 1 2.7-2.7h1.6a3 3 0 0 1 2.7 1.25"/>
 <path class="a" d="M26.8,29a3.17,3.17,0,0,0,2.3.6h.6a1.79,1.79,0,0,0,1.8-1.8h0A1.79,1.79,0,0,0,29.7,26H28.5a1.79,1.79,0,0,1-1.8-1.8h0a1.79,1.79,0,0,1,1.8-1.8h.6a3.34,3.34,0,0,1,2.3.6"/>
</svg>
