<svg id="Layer_2" data-name="Layer 2" viewBox="0 0 48 48" xmlns="http://www.w3.org/2000/svg">
 <defs>
  <style>.cls-1{fill:none;stroke:#fff;stroke-linecap:round;stroke-linejoin:round;}</style>
 </defs>
 <path class="cls-1" d="M33.05,19.55a9.06,9.06,0,0,0-9.54-9c-4.89.26-8.56,4.65-8.56,9.55"/>
 <path class="cls-1" d="M33.05,37.5H15L28.6,28.07a10,10,0,0,0,4.12-5.48,10.21,10.21,0,0,0,.33-2.53"/>
 <path class="cls-1" d="m40.5 5.5h-33a2 2 0 0 0-2 2v33a2 2 0 0 0 2 2h33a2 2 0 0 0 2-2v-33a2 2 0 0 0-2-2z"/>
</svg>
