<svg viewBox="0 0 48 48" xmlns="http://www.w3.org/2000/svg">
 <defs>
  <style>.a{fill:none;stroke:#fff;stroke-linecap:round;stroke-linejoin:round;}</style>
 </defs>
 <path class="a" d="m30.35 4.58c9.84-1.19 11.33 11.7 1.42 11.7-4.34 0-12.4-3.75-15.71-3.75-3.77 0-4.62 3.75-2.41 5.45"/>
 <path class="a" d="M30.35,4.58c4.68.66,3.34,4.64,1.21,4.64-5.85,0-9.73-3.58-15.27-3.58C8.78,5.64,7.2,16.47,13.65,18"/>
 <rect class="a" transform="translate(27.07 -15.15) rotate(45)" x="29.18" y="22.46" width="5.27" height="5.27"/>
 <line class="a" x1="31.82" x2="31.82" y1="21.37" y2="16.28"/>
 <line class="a" x1="31.82" x2="31.82" y1="28.83" y2="36.48"/>
 <path class="a" d="m39.13 29c-1.77 4.27-4.67 8.39-13.21 8.39-6.23 0-10.43-4.74-10.43-10.87s1.51-8.94 6.09-11.89"/>
 <polyline class="a" points="26.2 32.18 26.2 16.71 16.15 20.96"/>
 <line class="a" x1="19.69" x2="26.2" y1="34.93" y2="32.18"/>
 <line class="a" x1="19.69" x2="19.69" y1="19.47" y2="34.41"/>
 <path class="a" d="m39.13 29c0.87 6.2-3.61 14.5-14.51 14.5-8.47 0-15.85-6-15.85-14.44 0-8.77 7.22-12.71 12.81-14.43"/>
</svg>
