<svg id="Layer_2" data-name="Layer 2" viewBox="0 0 48 48" xmlns="http://www.w3.org/2000/svg">
 <defs>
  <style>.cls-1{fill:none;stroke:#fff;stroke-linecap:round;stroke-linejoin:round;}</style>
 </defs>
 <path class="cls-1" d="m30.82 24.09a6.82 6.82 0 1 0-9.92 6.17l-2.73 14.62a21.62 21.62 0 0 0 5.83 0.61 21.3 21.3 0 0 0 5.84-0.61l-2.72-14.62a6.88 6.88 0 0 0 3.7-6.17z"/>
 <path class="cls-1" d="M24,2.5A21.62,21.62,0,0,0,13.13,42.74l3.32-10.18a11.42,11.42,0,0,1-.83-16,11.22,11.22,0,0,1,15.93-.84,11.42,11.42,0,0,1,.83,16,9.41,9.41,0,0,1-.83.84l3.32,10.18a21.68,21.68,0,0,0,7.7-29.53A21.41,21.41,0,0,0,24,2.5Z"/>
</svg>
