<svg viewBox="0 0 48 48" xmlns="http://www.w3.org/2000/svg">
 <defs>
  <style>.a{fill:none;stroke:#fff;stroke-linecap:round;stroke-linejoin:round;}</style>
 </defs>
 <path class="a" d="m7.5 5.5a2.0027 2.0027 0 0 0-2 2v33a2.0027 2.0027 0 0 0 2 2h33a2.0027 2.0027 0 0 0 2-2v-33a2.0027 2.0027 0 0 0-2-2z"/>
 <path class="a" d="M37.7,24.6l4.78-.736"/>
 <path class="a" d="m5.5 29.6 18.4-2.83"/>
 <path class="a" d="M27.1,8.38a10.2,10.2,0,0,1,12.4962,7.2059L39.6,15.6a10.2,10.2,0,0,1-6.45,12.2l.144.52,1.11.645,2.83,10.6-3.32.892-2.83-10.6.641-1.11-.14-.526a10.2,10.2,0,0,1-4.47-19.9Zm.819,3.09a6.9079,6.9079,0,1,0,.0032-.0009Z"/>
 <line class="a" x1="33.1" x2="31.5" y1="27.8" y2="28.3"/>
 <line class="a" x1="17.9" x2="14.2" y1="27.7" y2="5.5"/>
</svg>
