<svg id="Layer_2" data-name="Layer 2" viewBox="0 0 48 48" xmlns="http://www.w3.org/2000/svg">
 <defs>
  <style>.cls-1{fill:none;stroke:#fff;stroke-linecap:round;stroke-linejoin:round;}</style>
 </defs>
 <path class="cls-1" d="m13.37 10.35h-6.37a2.48 2.48 0 0 0-2.5 2.48v22.34a2.5 2.5 0 0 0 5 0v-6.83h3.89c5.74 0 9-3.28 9-9s-3.28-8.99-9.02-8.99zm0 13h-3.89v-8h3.89c3 0 4.05 1.09 4.05 4s-1.1 4.01-4.05 4.01z"/>
 <path class="cls-1" d="m34.47 19.66h-3.89v-0.45a2.5 2.5 0 0 0-5 0v16a2.48 2.48 0 0 0 2.48 2.48h6.39c5.74 0 9-3.27 9-9s-3.24-9.03-8.98-9.03zm0 13h-3.89v-8h3.89c3 0 4.05 1.08 4.05 4s-1.1 4.01-4.05 4.01z"/>
 <circle class="cls-1" cx="28.08" cy="12.83" r="2.48"/>
</svg>
