<svg viewBox="0 0 48 48" xmlns="http://www.w3.org/2000/svg">
 <defs>
  <style>.a{fill:none;stroke:#fff;stroke-linecap:round;stroke-linejoin:round;}</style>
 </defs>
 <path class="a" d="m40.5 42.5h-33a2.0059 2.0059 0 0 1-2-2v-33a2.0059 2.0059 0 0 1 2-2h33a2.0059 2.0059 0 0 1 2 2v33a2.0059 2.0059 0 0 1-2 2z"/>
 <polygon class="a" points="31.804 12.936 31.804 15.975 37.545 15.975 37.545 35.064 10.455 35.064 10.455 15.975 16.196 15.975 16.196 12.936"/>
 <line class="a" x1="26.222" x2="26.222" y1="30.6786" y2="35.0644"/>
 <line class="a" x1="21.7781" x2="21.7781" y1="30.6786" y2="35.0644"/>
 <line class="a" x1="17.3412" x2="17.3412" y1="30.6786" y2="35.0644"/>
 <line class="a" x1="30.6835" x2="30.6835" y1="30.6786" y2="35.0644"/>
</svg>
