<svg viewBox="0 0 48 48" xmlns="http://www.w3.org/2000/svg">
 <defs>
  <style>.a{fill:none;stroke:#fff;stroke-linecap:round;stroke-linejoin:round;}</style>
 </defs>
 <path class="a" d="m8.4 6.5v35a2 2 0 0 0 2 2h2.33v-39h-2.33a2 2 0 0 0-2 2z"/>
 <path class="a" d="M12.73,4.5v39H37.6a2,2,0,0,0,2-2V6.5a2,2,0,0,0-2-2Z"/>
 <path class="a" d="m34.21 26.83a3.43 3.43 0 0 1-3 1.74 3.45 3.45 0 0 1-3.45-3.45v-2.24a3.45 3.45 0 0 1 3.45-3.45 3.45 3.45 0 0 1 3.44 3.45v1.12h-6.88"/>
 <path class="a" d="m24.1 26.83a3.43 3.43 0 0 1-3 1.74 3.46 3.46 0 0 1-3.45-3.45v-2.24a3.46 3.46 0 0 1 3.45-3.45 3.46 3.46 0 0 1 3 1.73"/>
 <polyline class="a" points="19.33 16.5 20.88 15.63 22.43 16.5"/>
</svg>
