<svg viewBox="0 0 48 48" xmlns="http://www.w3.org/2000/svg">
 <defs>
  <style>.a{fill:none;stroke:#fff;stroke-linecap:round;stroke-linejoin:round;}</style>
 </defs>
 <path class="a" d="m21.51 18.62a2.23 2.23 0 0 0 2 0.88h1.18a2 2 0 0 0 2-2 2 2 0 0 0-2-2h-1.3a2 2 0 0 1-2-2 2 2 0 0 1 2-2h1.18a2.23 2.23 0 0 1 2 0.88"/>
 <line class="a" x1="24" x2="24" y1="11.5" y2="10.5"/>
 <line class="a" x1="24" x2="24" y1="20.5" y2="19.5"/>
 <rect class="a" x="5.5" y="5.5" width="37" height="20" rx="1"/>
 <path class="a" d="M8.69,5.5A3.19,3.19,0,0,1,5.5,8.69"/>
 <path class="a" d="m42.5 8.69a3.19 3.19 0 0 1-3.19-3.19"/>
 <path class="a" d="m8.69 25.5a3.19 3.19 0 0 0-3.19-3.19"/>
 <path class="a" d="m42.5 22.31a3.19 3.19 0 0 0-3.19 3.19"/>
 <circle class="a" cx="34" cy="15.5" r="2"/>
 <circle class="a" cx="14" cy="15.5" r="2"/>
 <path class="a" d="M39.32,25.5H8.68a1,1,0,0,0-.91,1.43l1.1,2.31a1,1,0,0,0,.9.57H38.23a1,1,0,0,0,.9-.57l1.1-2.31A1,1,0,0,0,39.32,25.5Z"/>
 <rect class="a" x="16.39" y="29.81" width="15.21" height="4.54"/>
 <path class="a" d="m35.88 34.35h-23.76a1 1 0 0 0-1 0.75l-1.89 7.4h29.54l-1.92-7.4a1 1 0 0 0-0.97-0.75z"/>
</svg>
