<svg viewBox="0 0 48 48" xmlns="http://www.w3.org/2000/svg">
 <defs>
  <style>.a{fill:none;stroke:#fff;stroke-linecap:round;stroke-linejoin:round;}</style>
 </defs>
 <path class="a" d="m22.5 22.92a3.33 3.33 0 0 1 3.33-3.34"/>
 <line class="a" x1="22.5" x2="22.5" y1="19.58" y2="28.42"/>
 <polyline class="a" points="15.17 15.99 12.5 15.99 12.5 32.01 15.17 32.01"/>
 <polyline class="a" points="32.83 15.99 35.5 15.99 35.5 32.01 32.83 32.01"/>
 <path class="a" d="m40.5 42.5h-33a2 2 0 0 1-2-2v-33a2 2 0 0 1 2-2h33a2 2 0 0 1 2 2v33a2 2 0 0 1-2 2z"/>
</svg>
