<svg viewBox="0 0 48 48" xmlns="http://www.w3.org/2000/svg">
 <defs>
  <style>.a{fill:none;stroke:#fff;stroke-linecap:round;stroke-linejoin:round;}</style>
 </defs>
 <rect class="a" x="17.35" y="39.92" width="13.63" height="2.58"/>
 <rect class="a" x="27.94" y="22.52" width="2.92" height="2.92"/>
 <line class="a" x1="11.67" x2="11.67" y1="5.5" y2="18.85"/>
 <line class="a" x1="5.5" x2="5.5" y1="5.5" y2="18.85"/>
 <line class="a" x1="17.83" x2="17.83" y1="5.5" y2="18.85"/>
 <line class="a" x1="24" x2="24" y1="5.5" y2="18.85"/>
 <line class="a" x1="30.17" x2="30.17" y1="5.5" y2="18.85"/>
 <line class="a" x1="36.33" x2="36.33" y1="5.5" y2="18.85"/>
 <line class="a" x1="42.5" x2="42.5" y1="5.5" y2="18.85"/>
 <line class="a" x1="5.5" x2="42.5" y1="8.17" y2="8.17"/>
 <line class="a" x1="5.5" x2="42.5" y1="10.84" y2="10.84"/>
 <line class="a" x1="5.5" x2="42.5" y1="13.51" y2="13.51"/>
 <line class="a" x1="5.5" x2="42.5" y1="16.18" y2="16.18"/>
 <line class="a" x1="5.5" x2="42.5" y1="5.5" y2="5.5"/>
 <line class="a" x1="11.67" x2="5.5" y1="18.85" y2="18.85"/>
 <line class="a" x1="17.83" x2="42.5" y1="18.85" y2="18.85"/>
</svg>
