<svg id="Layer_2" data-name="Layer 2" viewBox="0 0 48 48" xmlns="http://www.w3.org/2000/svg">
 <defs>
  <style>.cls-1{fill:none;stroke:#fff;stroke-linecap:round;stroke-linejoin:round;}</style>
 </defs>
 <path class="cls-1" d="m38.87 28.74h-4.73v2.68h-4.69v2.68h-9.38v-5.36h4.69v-2.68h4.69v-2.68h9.42z"/>
 <path class="cls-1" d="M41.68,13H24.77c-2-.1-5.93-4.23-8.19-4.23H6.68A2.18,2.18,0,0,0,4.5,11h0v7.29h39V14.87A1.83,1.83,0,0,0,41.68,13Z"/>
 <path class="cls-1" d="M43.5,18.28H4.5V37A2.18,2.18,0,0,0,6.67,39.2H41.32A2.18,2.18,0,0,0,43.5,37h0Z"/>
 <polyline class="cls-1" points="29.45 26.06 29.45 28.74 34.14 28.74"/>
 <polyline class="cls-1" points="24.76 28.74 24.76 31.42 29.47 31.42"/>
</svg>
