<svg viewBox="0 0 48 48" xmlns="http://www.w3.org/2000/svg">
 <defs>
  <style>.a{fill:none;stroke:#fff;stroke-linecap:round;stroke-linejoin:round;}</style>
 </defs>
 <path class="a" d="m8.66 12.5v-2.21a1.93 1.93 0 0 1 1.94-1.94h8.85c2 0 5.56 3.69 7.32 3.78h15.1a1.63 1.63 0 0 1 1.63 1.63v19.79a1.94 1.94 0 0 1-2 1.94h-2.16v-17.57a1.62 1.62 0 0 0-1.62-1.63h-15.11c-1.75-0.1-5.3-3.79-7.32-3.79h-8.84a1.94 1.94 0 0 0-1.95 1.94v23.27a1.94 1.94 0 0 0 1.94 1.94h31a1.93 1.93 0 0 0 1.94-1.94v-16.71"/>
</svg>
