<svg viewBox="0 0 48 48" xmlns="http://www.w3.org/2000/svg">
 <defs>
  <style>.a{fill:none;stroke:#fff;stroke-linecap:round;stroke-linejoin:round;}</style>
 </defs>
 <path class="a" d="m43.39 22a11.63 11.63 0 0 0-6.9-10.62 11.62 11.62 0 0 0-17.94-4.28h-0.3a11.63 11.63 0 0 0-11.56 12.8 11.61 11.61 0 0 0 4.87 17.26 11.6 11.6 0 0 0 17.44 3.9h0.86a11.63 11.63 0 0 0 11.65-11.59c0-0.35 0-0.69-0.06-1a11.51 11.51 0 0 0 1.94-6.47z"/>
 <path class="a" d="M6.69,19.9c.95,5.33,2.76,6.86,4.19,8.3s5.95,5.25,7,6.79"/>
 <path class="a" d="m41.45 28.44c-1-5.33-2.76-6.87-4.19-8.3s-5.95-5.26-7-6.8"/>
 <path class="a" d="M29,41.06c4.14-3.5,4.57-5.83,5.09-7.79s.89-5.47,2.38-9.46a17,17,0,0,0,0-12.41"/>
 <path class="a" d="m18.55 7.1c-4.14 3.5-4.09 6.23-4.61 8.19a69.25 69.25 0 0 1-2.38 9.46 17 17 0 0 0 0 12.41"/>
 <path class="a" d="M38.46,31.24c-4.71,3.34-7.43,2.76-11,4-2.12.71-3.42,2.19-9.94,2.62-4.28.29-5.92-.66-5.92-.66"/>
 <path class="a" d="M9.59,17.32c4.71-3.33,7.43-2.76,11-4,2.12-.71,3.42-2.19,9.94-2.62,4.28-.28,5.92.66,5.92.66"/>
 <path class="a" d="m27.18 11.12c-1.57-1.66-5.05-4-8.63-4"/>
 <path class="a" d="m20.8 37.45a11.85 11.85 0 0 0 8.2 3.61"/>
</svg>
