<svg id="Layer_2" data-name="Layer 2" viewBox="0 0 48 48" xmlns="http://www.w3.org/2000/svg">
 <defs>
  <style>.cls-1{fill:none;stroke:#fff;stroke-linecap:round;stroke-linejoin:round;}</style>
 </defs>
 <path class="cls-1" d="m35.77 6.79a6.73 6.73 0 1 1 0 13.45h-6.72v-6.73a6.72 6.72 0 0 1 6.72-6.72zm-19.67 0h0.33a6.6 6.6 0 0 1 3.2 0.9 6.72 6.72 0 0 1 3.37 5.82h-4a6.73 6.73 0 1 1-13.45 0h4a6.72 6.72 0 0 1 3.35-5.82 6.6 6.6 0 0 1 3.2-0.9zm17.77 18.28a8.08 8.08 0 1 1-8.07 8.07 8.07 8.07 0 0 1 8.07-8.07zm-19.62 1.93 8.12 14h-16.25l4.07-7 4.06-7z"/>
</svg>
