<svg id="Layer_2" data-name="Layer 2" viewBox="0 0 48 48" xmlns="http://www.w3.org/2000/svg">
 <defs>
  <style>.cls-1{fill:none;stroke:#fff;stroke-linecap:round;stroke-linejoin:round;}</style>
 </defs>
 <path class="cls-1" d="m17.51 19.5 13 7.5-13 7.5v-15z"/>
 <path class="cls-1" d="m43.5 37.5v-21a2 2 0 0 0-2-2h-35a2 2 0 0 0-2 2v21a2 2 0 0 0 2 2h35a2 2 0 0 0 2-2z"/>
 <path class="cls-1" d="M36.89,11.37V9.62A1.12,1.12,0,0,0,35.77,8.5H12.23a1.12,1.12,0,0,0-1.12,1.12v1.75"/>
 <path class="cls-1" d="M39.89,14.5v-2a1.12,1.12,0,0,0-1.12-1.12H9.23a1.12,1.12,0,0,0-1.12,1.12v2"/>
</svg>
