<svg id="Layer_2" data-name="Layer 2" viewBox="0 0 48 48" xmlns="http://www.w3.org/2000/svg">
 <defs>
  <style>.cls-1{fill:none;stroke:#fff;stroke-linecap:round;stroke-linejoin:round;}</style>
 </defs>
 <line class="cls-1" x1="5.5" x2="42.5" y1="17.89" y2="17.89"/>
 <line class="cls-1" x1="5.5" x2="42.5" y1="30.11" y2="30.11"/>
 <line class="cls-1" x1="30.11" x2="30.11" y1="5.5" y2="42.5"/>
 <line class="cls-1" x1="17.89" x2="17.89" y1="5.5" y2="42.5"/>
 <path class="cls-1" d="m38.82 22.76a2.52 2.52 0 0 0-2.65-2.51 2.61 2.61 0 0 0-2.38 2.66v2.33a2.52 2.52 0 0 0 2.52 2.51 2.52 2.52 0 0 0 2.51-2.51v-2.48"/>
 <path class="cls-1" d="m21.48 32.85v5a2.52 2.52 0 0 0 2.52 2.5 2.52 2.52 0 0 0 2.52-2.51v-5"/>
 <path class="cls-1" d="M21.48,7v5A2.51,2.51,0,0,0,24,14.45h0a2.51,2.51,0,0,0,2.52-2.51V7"/>
 <path class="cls-1" d="m21.49 27.75v-7.5h1.27a3.75 3.75 0 0 1 3.75 3.75 3.75 3.75 0 0 1-3.75 3.75z"/>
 <path class="cls-1" d="m14.2 7h-3.14a1.88 1.88 0 0 0-1.88 1.83 1.88 1.88 0 0 0 1.88 1.87h0.63"/>
 <path class="cls-1" d="m11.69 10.7h0.64a1.87 1.87 0 0 1 1.87 1.88 1.87 1.87 0 0 1-1.87 1.87h-3.15"/>
 <line class="cls-1" x1="9.83" x2="9.83" y1="33.03" y2="40.52"/>
 <line class="cls-1" x1="10.8" x2="13.56" y1="36.77" y2="33.05"/>
 <line class="cls-1" x1="10.8" x2="13.56" y1="36.77" y2="40.53"/>
 <line class="cls-1" x1="10.8" x2="9.83" y1="36.77" y2="36.77"/>
</svg>
