<svg viewBox="0 0 48 48" xmlns="http://www.w3.org/2000/svg">
 <defs>
  <style>.a{fill:none;stroke:#fff;stroke-linecap:round;stroke-linejoin:round;}</style>
 </defs>
 <path class="a" d="m40.5 42.5h-33a2 2 0 0 1-2-2v-33a2 2 0 0 1 2-2h33a2 2 0 0 1 2 2v33a2 2 0 0 1-2 2z"/>
 <path class="a" d="M18.11,27.3a3.34,3.34,0,0,0,2.46.67h.67a2,2,0,0,0,2-2h0a2,2,0,0,0-2-2H19.9a2,2,0,0,1-2-2h0a2,2,0,0,1,2-2h.67A3.38,3.38,0,0,1,23,20.7"/>
 <path class="a" d="m15.1 26.46a3 3 0 0 1-2.6 1.54 3 3 0 0 1-3-3v-2a3 3 0 0 1 3-3 3 3 0 0 1 3 3v1h-6"/>
 <path class="a" d="m38.5 25a3 3 0 0 1-3 3 3 3 0 0 1-3-3v-2a3 3 0 0 1 3-3 3 3 0 0 1 3 3"/>
 <line class="a" x1="38.5" x2="38.5" y1="27.97" y2="20.03"/>
 <path class="a" d="m25.67 20h2.39a2 2 0 0 1 2 2 2 2 0 0 1-2 2h-2.39"/>
 <line class="a" x1="25.67" x2="30.05" y1="24" y2="27.97"/>
</svg>
