<svg viewBox="0 0 48 48" xmlns="http://www.w3.org/2000/svg">
 <defs>
  <style>.a{fill:none;stroke:#fff;stroke-linecap:round;stroke-linejoin:round;}</style>
 </defs>
 <path class="a" d="m40.5 5.5h-33a2 2 0 0 0-2 2v33a2 2 0 0 0 2 2h33a2 2 0 0 0 2-2v-33a2 2 0 0 0-2-2z"/>
 <path class="a" d="m17.27 32.43a6 6 0 0 0 5.3 2.37h3.2a5.41 5.41 0 0 0 5.39-5.4 5.4 5.4 0 0 0-5.39-5.4h-3.54a5.4 5.4 0 0 1-5.39-5.4 5.4 5.4 0 0 1 5.39-5.4h3.2a6 6 0 0 1 5.3 2.37"/>
 <line class="a" x1="24" x2="24" y1="13.2" y2="10.5"/>
 <line class="a" x1="24" x2="24" y1="37.5" y2="34.8"/>
</svg>
