<svg viewBox="0 0 48 48" xmlns="http://www.w3.org/2000/svg">
 <defs>
  <style>.a,.b{fill:none;stroke:#fff;}.b{stroke-linecap:round;stroke-linejoin:round;}</style>
 </defs>
 <path class="a" d="m24 9.2a16.85 16.85 0 1 1-16.9 16.9 16.94 16.94 0 0 1 16.9-16.9z"/>
 <path class="b" d="m35.31 19.3-5.5 1.5"/>
 <path class="b" d="m12.71 19.3 5.5 1.5"/>
 <path class="b" d="M17.68,5c-5.45-3.29-12,.8-11.1,7.5.1.8,1.57,1.78,2.4.8a17.48,17.48,0,0,1,9.1-5.7C19.57,7.24,18.49,5.49,17.68,5Z"/>
 <path class="b" d="M30.32,5c5.45-3.29,12,.8,11.1,7.5-.1.8-1.57,1.78-2.4.8a17.48,17.48,0,0,0-9.1-5.7C28.43,7.24,29.51,5.49,30.32,5Z"/>
 <path class="b" d="m24 13.4v12.65l4.5 6"/>
</svg>
