<svg viewBox="0 0 48 48" xmlns="http://www.w3.org/2000/svg">
 <defs>
  <style>.a{fill:none;stroke:#fff;stroke-linecap:round;stroke-linejoin:round;}</style>
 </defs>
 <path class="a" d="m40.5 42.5h-33a2 2 0 0 1-2-2v-33a2 2 0 0 1 2-2h33a2 2 0 0 1 2 2v33a2 2 0 0 1-2 2z"/>
 <line class="a" x1="19.72" x2="19.72" y1="18.15" y2="28.15"/>
 <line class="a" x1="23.28" x2="28.28" y1="28.15" y2="28.15"/>
 <line class="a" x1="23.28" x2="28.28" y1="18.15" y2="18.15"/>
 <line class="a" x1="23.28" x2="26.54" y1="23.15" y2="23.15"/>
 <line class="a" x1="23.28" x2="23.28" y1="18.15" y2="28.15"/>
 <path class="a" d="m31.85 28.15v-10h3.27a3.36 3.36 0 0 1 0 6.72h-3.27"/>
 <line class="a" x1="35.12" x2="38.4" y1="24.87" y2="28.15"/>
 <line class="a" x1="9.53" x2="16.15" y1="18.15" y2="18.15"/>
 <line class="a" x1="12.84" x2="12.84" y1="28.15" y2="18.15"/>
</svg>
