<svg viewBox="0 0 48 48" xmlns="http://www.w3.org/2000/svg">
 <defs>
  <style>.a{fill:none;stroke:#fff;stroke-linecap:round;stroke-linejoin:round;}</style>
 </defs>
 <path class="a" d="M7.8684,5.1128A2.863,2.863,0,0,0,5,7.9812v25.89A2.8622,2.8622,0,0,0,7.8684,36.74H31.0945L24.23,42.8987H40.1316A2.86,2.86,0,0,0,43,40.03l-.07-25.9018A2.865,2.865,0,0,0,40.0612,11.26H24.8292L23.1444,5.1013Z"/>
 <path class="a" d="m31.0945 36.74-6.2653-25.48"/>
 <path class="a" d="m19.9077 16.8235h-3.3334v9.3955"/>
 <circle class="a" cx="13.8302" cy="26.1265" r="2.7416"/>
 <path class="a" d="m27.0327 19.2078h3.7952"/>
 <path class="a" d="m29.7449 30.4116h6.3958"/>
 <circle class="a" cx="32.5523" cy="19.2222" r="1.6224"/>
 <circle class="a" cx="38.0302" cy="30.4588" r="1.6224"/>
 <path class="a" d="M28.0261,23.2011a1.6224,1.6224,0,1,1,.7331,3.1538"/>
 <path class="a" d="m24.23 42.8986-2.1281-5.9473"/>
 <path class="a" d="m34.499 19.2078h4.2256"/>
 <path class="a" d="m30.4361 24.7254h8.2885"/>
</svg>
