<svg viewBox="0 0 48 48" xmlns="http://www.w3.org/2000/svg">
 <defs>
  <style>.a{fill:none;stroke:#fff;stroke-linecap:round;stroke-linejoin:round;}</style>
 </defs>
 <path class="a" d="m39.5 15.5h-9a2 2 0 0 1-2-2v-9h-18a2 2 0 0 0-2 2v35a2 2 0 0 0 2 2h27a2 2 0 0 0 2-2z"/>
 <line class="a" x1="28.5" x2="39.5" y1="4.5" y2="15.5"/>
 <path class="a" d="m16.32 40.19v-9.27h2.08a4.05 4.05 0 0 1 4.06 4v1.16a4.06 4.06 0 0 1-4.06 4.06z"/>
 <line class="a" x1="16.32" x2="22.46" y1="18.5" y2="18.5"/>
 <line class="a" x1="19.39" x2="19.39" y1="27.77" y2="18.5"/>
 <path class="a" d="m25.54 24.7a3.07 3.07 0 1 0 6.14 0v-3.13a3.07 3.07 0 0 0-6.14 0z"/>
 <path class="a" d="M25.54,37.12a3.07,3.07,0,1,0,6.14,0V34a3.07,3.07,0,1,0-6.14,0Z"/>
</svg>
