<svg viewBox="0 0 48 48" xmlns="http://www.w3.org/2000/svg">
 <defs>
  <style>.a{fill:none;stroke:#fff;stroke-linecap:round;stroke-linejoin:round;}.b{fill:#fff;}</style>
 </defs>
 <circle class="a" cx="24" cy="24" r="21.5"/>
 <polyline class="a" points="22.313 21.575 20.313 26.875 18.313 21.575"/>
 <path class="a" d="m34.0033 21.5748v6a2.0059 2.0059 0 0 1-2 2 1.6781 1.6781 0 0 1-1.4-0.6"/>
 <path class="a" d="m32.0033 21.5748a2.0059 2.0059 0 0 1 2 2v1.3a2.0059 2.0059 0 0 1-2 2 2.0059 2.0059 0 0 1-2-2v-1.3a2.0059 2.0059 0 0 1 2-2z"/>
 <path class="a" d="m38.0012 26.8751a2.0059 2.0059 0 0 1-2-2v-1.3a2.0059 2.0059 0 0 1 2-2 2.0059 2.0059 0 0 1 2 2v1.3a2.0059 2.0059 0 0 1-2 2z"/>
 <path class="a" d="m12.2958 23.5755a2.0059 2.0059 0 0 1 2-2"/>
 <line class="a" x1="12.2958" x2="12.2958" y1="21.5755" y2="26.8755"/>
 <circle class="b" cx="16.3063" cy="19.1752" r=".75"/>
 <line class="a" x1="16.3063" x2="16.3063" y1="21.5752" y2="26.8752"/>
 <path class="a" d="M8.9988,19.8752v6a.9448.9448,0,0,0,1,1h.3"/>
 <line class="a" x1="7.9988" x2="10.0988" y1="21.5752" y2="21.5752"/>
 <path class="a" d="m27.9988 24.8752a2.0059 2.0059 0 0 1-2 2 2.0059 2.0059 0 0 1-2-2v-1.3a2.0059 2.0059 0 0 1 2-2 2.0059 2.0059 0 0 1 2 2"/>
 <line class="a" x1="27.9988" x2="27.9988" y1="26.8752" y2="21.5752"/>
</svg>
