<svg viewBox="0 0 48 48" xmlns="http://www.w3.org/2000/svg">
 <defs>
  <style>.a{fill:none;stroke:#fff;stroke-linecap:round;stroke-linejoin:round;}</style>
 </defs>
 <path class="a" d="m40.5 42.5h-33a2 2 0 0 1-2-2v-33a2 2 0 0 1 2-2h33a2 2 0 0 1 2 2v33a2 2 0 0 1-2 2z"/>
 <line class="a" x1="11.5" x2="16.18" y1="34.77" y2="34.77"/>
 <line class="a" x1="11.5" x2="16.18" y1="25.4" y2="25.4"/>
 <line class="a" x1="11.5" x2="14.55" y1="30.08" y2="30.08"/>
 <line class="a" x1="11.5" x2="11.5" y1="25.4" y2="34.77"/>
 <path class="a" d="m34.16 18.74a2.35 2.35 0 0 1 2.34-2.35"/>
 <line class="a" x1="34.16" x2="34.16" y1="16.39" y2="22.6"/>
 <path class="a" d="M30.64,34.24a2.61,2.61,0,0,0,1.92.53h.53a1.56,1.56,0,0,0,1.55-1.55h0a1.56,1.56,0,0,0-1.55-1.56H32a1.54,1.54,0,0,1-1.55-1.55h0A1.55,1.55,0,0,1,32,28.56h.52a2.69,2.69,0,0,1,1.93.52"/>
 <path class="a" d="M31.42,21.42a2.35,2.35,0,0,1-2,1.18h0A2.34,2.34,0,0,1,27,20.26V18.74a2.35,2.35,0,0,1,2.34-2.35h0a2.34,2.34,0,0,1,2.34,2.35v.76H27"/>
 <path class="a" d="M26.64,26.63v7a1.17,1.17,0,0,0,1.17,1.17h.35"/>
 <line class="a" x1="25.41" x2="27.87" y1="28.56" y2="28.56"/>
 <path class="a" d="m22.94 32.43a2.34 2.34 0 0 1-2.34 2.34 2.34 2.34 0 0 1-2.34-2.34v-1.53a2.34 2.34 0 0 1 2.34-2.34 2.34 2.34 0 0 1 2.34 2.34"/>
 <line class="a" x1="22.94" x2="22.94" y1="34.77" y2="28.56"/>
 <path class="a" d="m11.5 13.23v6.27a3.11 3.11 0 0 0 6.21 0v-6.27"/>
 <path class="a" d="m20.12 18.74a2.35 2.35 0 0 1 2.34-2.35 2.35 2.35 0 0 1 2.34 2.35v1.52a2.34 2.34 0 0 1-2.34 2.34 2.34 2.34 0 0 1-2.34-2.34"/>
 <line class="a" x1="20.12" x2="20.12" y1="22.6" y2="13.23"/>
</svg>
