<svg viewBox="0 0 48 48" xmlns="http://www.w3.org/2000/svg">
 <defs>
  <style>.a{fill:none;stroke:#fff;stroke-linecap:round;stroke-linejoin:round;}</style>
 </defs>
 <path class="a" d="M19.0856,16.2885l2.6329-1.52.198-1.9237L24.297,11.47l.3411,2.0007-.4447,5.7835,6.526,11.3034v4.71L26.64,32.9129,20.1142,21.61l-5.2311-2.5067-1.562-1.2957,2.38-1.3744,1.765.79,2.6328-1.52"/>
 <path class="a" d="m26.64 32.9133 4.08-2.3551"/>
 <path class="a" d="m20.1142 21.61-2.5916-4.4888"/>
 <path class="a" d="m24.1931 19.2546-2.4679-4.2746"/>
 <path class="a" d="m22.5959 25.8883 3.9019-2.2527"/>
 <path class="a" d="M42.2674,15.67V32.33a3.84,3.84,0,0,1-1.92,3.3252L25.92,43.9856a3.84,3.84,0,0,1-3.84,0l-14.4278-8.33a3.84,3.84,0,0,1-1.92-3.3252V15.67a3.84,3.84,0,0,1,1.92-3.3252L22.08,4.0144a3.84,3.84,0,0,1,3.84,0l14.4278,8.33A3.84,3.84,0,0,1,42.2674,15.67Z"/>
</svg>
