<svg viewBox="0 0 48 48" xmlns="http://www.w3.org/2000/svg">
 <defs>
  <style>.a{fill:none;stroke:#fff;stroke-linecap:round;stroke-linejoin:round;}</style>
 </defs>
 <path class="a" d="m40.5 42.5h-33a2 2 0 0 1-2-2v-33a2 2 0 0 1 2-2h33a2 2 0 0 1 2 2v33a2 2 0 0 1-2 2z"/>
 <polyline class="a" points="18.71 19.23 15.55 28.77 12.39 19.23"/>
 <rect class="a" x="30.84" y="22.45" width="4.77" height="6.32" rx="2.39"/>
 <path class="a" d="m26.73 24.83a2.38 2.38 0 0 1 2.38-2.38"/>
 <line class="a" x1="26.73" x2="26.73" y1="22.45" y2="28.77"/>
 <path class="a" d="m24.29 26.39a2.39 2.39 0 0 1-2.39 2.38 2.39 2.39 0 0 1-2.38-2.38v-1.56a2.39 2.39 0 0 1 2.38-2.38 2.39 2.39 0 0 1 2.39 2.38"/>
 <line class="a" x1="24.29" x2="24.29" y1="28.77" y2="22.45"/>
</svg>
