<svg viewBox="0 0 48 48" xmlns="http://www.w3.org/2000/svg">
 <defs>
  <style>.a{fill:none;stroke:#fff;stroke-linecap:round;stroke-linejoin:round;}</style>
 </defs>
 <path class="a" d="M13.1,37.5c.8583-1.4075,7.93-11.1227,10.2988-11.1227,3.6046,0,9.1121,8.4459,10.9854,11.1227"/>
 <path class="a" d="m13.2721 26.2572c1.9224-1.6822 6.6255-3.6733 11.02-4.2912s9.6462-3.021 10.6079-4.4285"/>
 <path class="a" d="m24.5664 10.5c1.9225 0 2.7807 1.5105 2.7807 3.2613s-1.5105 4.3941-3.6046 4.3941a2.8487 2.8487 0 0 1-2.8493-3.1239c0-1.4075 1.0985-4.5315 3.6732-4.5315z"/>
 <path class="a" d="m40.5 5.5h-33a2 2 0 0 0-2 2v33a2 2 0 0 0 2 2h33a2 2 0 0 0 2-2v-33a2 2 0 0 0-2-2z"/>
</svg>
