<svg viewBox="0 0 48 48" xmlns="http://www.w3.org/2000/svg">
 <defs>
  <style>.a{fill:none;stroke:#fff;stroke-linecap:round;stroke-linejoin:round;}</style>
 </defs>
 <path class="a" d="m26.77 2.67-3.05 12.54a8.79 8.79 0 0 0-4.23 1.25l-9.34-8.91c5.39-3.85 10.69-5.63 16.62-4.88zm4.55 1.1a22.92 22.92 0 0 1 12.52 12l-12.37 3.6a8.27 8.27 0 0 0-3.2-3.05zm-24.4 7.17 9.34 8.91a8.76 8.76 0 0 0-1.05 4.29l-12.38 3.63a21.53 21.53 0 0 1 4.09-16.83zm38.25 9.29a21.54 21.54 0 0 1-4.09 16.83l-9.34-8.91a8.79 8.79 0 0 0 1.05-4.29zm-28.64 8.4a8.34 8.34 0 0 0 3.2 3.05l-3.05 12.54a22 22 0 0 1-12.52-11.95zm12 2.91 9.34 8.91a21.44 21.44 0 0 1-16.61 4.87l3-12.53a8.79 8.79 0 0 0 4.25-1.25z"/>
</svg>
