<svg viewBox="0 0 48 48" xmlns="http://www.w3.org/2000/svg">
 <defs>
  <style>.a{fill:none;stroke:#fff;stroke-linecap:round;stroke-linejoin:round;}.b{fill:#fff;}</style>
 </defs>
 <path class="a" d="m40.61 26.64a12.31 12.31 0 0 0-4.32-9.37 7.68 7.68 0 0 0-9.91-7.38 10.86 10.86 0 0 0-17.24 12.16 12.41 12.41 0 0 0 10.68 18.77h19.45l-6.37-2.75a12.34 12.34 0 0 0 7.71-11.43z"/>
 <polyline class="a" points="36.47 22.79 34.82 28.09 33.17 22.79 31.52 28.09 29.87 22.79"/>
 <polyline class="a" points="18.13 22.79 16.48 28.09 14.83 22.79 13.18 28.09 11.53 22.79"/>
 <circle class="b" cx="26.38" cy="18.12" r=".75"/>
 <circle class="b" cx="21.62" cy="18.12" r=".75"/>
 <circle class="a" cx="24" cy="24.09" r="4"/>
</svg>
