<svg viewBox="0 0 48 48" xmlns="http://www.w3.org/2000/svg">
 <defs>
  <style>.a{fill:none;stroke:#fff;stroke-linecap:round;stroke-linejoin:round;}</style>
 </defs>
 <path class="a" d="m43.5 27.026h-39a19.5 19.5 0 0 1 39 0z"/>
 <line class="a" x1="6.3293" x2="12.7237" y1="18.7745" y2="18.7745"/>
 <line class="a" x1="37.6764" x2="22.8382" y1="13.1299" y2="13.1299"/>
 <line class="a" x1="30.2573" x2="35.294" y1="11.1595" y2="11.1595"/>
 <line class="a" x1="20.2896" x2="27.1768" y1="30.0781" y2="30.0781"/>
 <line class="a" x1="23.7332" x2="23.7332" y1="40.4739" y2="30.0781"/>
 <polyline class="a" points="35.613 40.474 35.613 30.078 42.5 40.474 42.5 30.078"/>
 <path class="a" d="M12.3873,36.9877V37.03a3.4436,3.4436,0,0,1-3.4437,3.4436h0A3.4436,3.4436,0,0,1,5.5,37.03V33.5217a3.4437,3.4437,0,0,1,3.4436-3.4436h0a3.4437,3.4437,0,0,1,3.4437,3.4436v.0426"/>
 <line class="a" x1="14.1629" x2="17.6131" y1="40.4431" y2="30.0781"/>
 <line class="a" x1="20.9202" x2="17.6131" y1="40.474" y2="30.0781"/>
 <line class="a" x1="19.8139" x2="15.3102" y1="36.9964" y2="36.9964"/>
 <line class="a" x1="26.3555" x2="29.8057" y1="40.4431" y2="30.0781"/>
 <line class="a" x1="33.1128" x2="29.8057" y1="40.474" y2="30.0781"/>
 <line class="a" x1="32.0065" x2="27.5028" y1="36.9964" y2="36.9964"/>
 <line class="a" x1="7.3124" x2="10.0935" y1="16.9331" y2="16.9331"/>
</svg>
