<?xml version="1.0" encoding="UTF-8" standalone="no"?>
<svg
   viewBox="0 0 48 48"
   version="1.1"
   id="svg2"
   sodipodi:docname="folder-music.svg"
   xmlns:inkscape="http://www.inkscape.org/namespaces/inkscape"
   xmlns:sodipodi="http://sodipodi.sourceforge.net/DTD/sodipodi-0.dtd"
   xmlns="http://www.w3.org/2000/svg"
   xmlns:svg="http://www.w3.org/2000/svg">
  <sodipodi:namedview
     id="namedview2"
     pagecolor="#ffffff"
     bordercolor="#666666"
     borderopacity="1.0"
     inkscape:showpageshadow="2"
     inkscape:pageopacity="0.0"
     inkscape:pagecheckerboard="0"
     inkscape:deskcolor="#d1d1d1" />
  <defs
     id="defs1">
    <style
       id="style1">.c{fill:none;stroke:#fff;stroke-width:2px;stroke-linecap:round;stroke-linejoin:round;}</style>
  </defs>
  <g
     id="a">
    <path
       style="color:#000000;fill:#ffffff;stroke-linecap:round;stroke-linejoin:round;-inkscape-stroke:none"
       d="m 7.5,7.5 c -2.1973046,0 -4,1.8026954 -4,4 v 25 c 0,2.197305 1.8026954,4 4,4 h 33 c 2.197305,0 4,-1.802695 4,-4 v -20 c 0,-2.197305 -1.802695,-4 -4,-4 H 25.78125 c -0.625391,0 -1.233313,-0.195091 -1.742188,-0.558594 L 19.125,8.4316406 C 18.277059,7.8260218 17.260757,7.5 16.21875,7.5 Z m 0,2 h 8.71875 c 0.625391,0 1.23313,0.1950136 1.742187,0.558594 L 22.875,13.568359 C 23.722924,14.174055 24.739243,14.5 25.78125,14.5 H 40.5 c 1.116492,0 2,0.883508 2,2 v 20 c 0,1.116492 -0.883508,2 -2,2 h -33 c -1.1164921,0 -2,-0.883508 -2,-2 v -25 c 0,-1.116492 0.8835079,-2 2,-2 z"
       id="path1" />
  </g>
  <g
     id="b">
    <path
       style="color:#000000;fill:#ffffff;stroke-linecap:round;stroke-linejoin:round;-inkscape-stroke:none"
       d="m 29.496094,19.509766 -7.722657,1.070312 a 1.0001,1.0001 0 0 0 -0.861328,0.990234 v 2.732422 6.425782 a 1,1 0 0 0 1,1 1,1 0 0 0 1,-1 v -6.425782 -1.861328 l 5.720703,-0.792969 v 1.583985 5.277344 a 1,1 0 0 0 1,1 1,1 0 0 0 1,-1 V 23.232422 20.5 a 1.0001,1.0001 0 0 0 -1.136718,-0.990234 z"
       id="polyline1" />
    <path
       style="color:#000000;fill:#ffffff;stroke-linecap:round;stroke-linejoin:round;-inkscape-stroke:none"
       d="m 20.138672,27.957031 c -1.519032,0 -2.771485,1.252453 -2.771485,2.771485 0,1.519032 1.252453,2.771484 2.771485,2.771484 1.519032,0 2.773437,-1.252452 2.773437,-2.771484 0,-1.519032 -1.254405,-2.771485 -2.773437,-2.771485 z m 0,2 c 0.438153,0 0.773437,0.333332 0.773437,0.771485 0,0.438152 -0.335284,0.771484 -0.773437,0.771484 -0.438153,0 -0.771485,-0.333332 -0.771485,-0.771484 0,-0.438153 0.333332,-0.771485 0.771485,-0.771485 z"
       id="circle1" />
    <path
       style="color:#000000;fill:#ffffff;stroke-linecap:round;stroke-linejoin:round;-inkscape-stroke:none"
       d="m 27.861328,25.738281 c -1.519032,0 -2.773437,1.252453 -2.773437,2.771485 0,1.519032 1.254405,2.771484 2.773437,2.771484 1.519032,0 2.771485,-1.252452 2.771484,-2.771484 0,-1.519032 -1.252452,-2.771485 -2.771484,-2.771485 z m 0,2 c 0.438153,0 0.771485,0.333332 0.771484,0.771485 0,0.438152 -0.333331,0.771484 -0.771484,0.771484 -0.438153,0 -0.773437,-0.333332 -0.773437,-0.771484 0,-0.438153 0.335284,-0.771485 0.773437,-0.771485 z"
       id="circle2" />
  </g>
</svg>
