<?xml version="1.0" encoding="UTF-8"?>
<svg id="svg6" version="1.1" viewBox="0 0 48 48" xmlns="http://www.w3.org/2000/svg">
 <defs id="defs1">
  <style id="style1">.c{stroke-miterlimit:10;}.c,.d{fill:none;stroke:#fff;stroke-width:2px;}.d{stroke-linecap:round;stroke-linejoin:round;}.e{fill:#fff;stroke-width:2px;}</style>
 </defs>
 <g id="a">
  <path id="path1" d="m7.5 7.5c-2.1973 0-4 1.8027-4 4v25c0 2.1973 1.8027 4 4 4h33c2.1973 0 4-1.8027 4-4v-20c0-2.1973-1.8027-4-4-4h-14.719c-0.62539 0-1.2333-0.19509-1.7422-0.55859l-4.9141-3.5098c-0.84794-0.60562-1.8642-0.93164-2.9062-0.93164zm0 2h8.7188c0.62539 0 1.2331 0.19501 1.7422 0.55859l4.9141 3.5098c0.84792 0.6057 1.8642 0.93164 2.9062 0.93164h14.719c1.1165 0 2 0.88351 2 2v20c0 1.1165-0.88351 2-2 2h-33c-1.1165 0-2-0.88351-2-2v-25c0-1.1165 0.88351-2 2-2z" color="#000000" fill="#fff" stroke-linecap="round" stroke-linejoin="round" style="-inkscape-stroke:none"/>
 </g>
 <g id="b">
  <path id="path2" d="m18.018 20.465c-3.3218 0.010629-6.0282 2.7329-6.0176 6.0547 0.01063 3.3218 2.7329 6.0263 6.0547 6.0156 1.3025-0.0041 2.5309-0.48783 3.5664-1.2637h4.9785c1.0384 0.77508 2.27 1.2575 3.5742 1.2559h0.04101c3.319-0.13782 5.9171-2.9623 5.7793-6.2812-0.12991-3.1279-2.6513-5.6515-5.7793-5.7812h-0.06059zm2e-3 2c0.0013-6e-6 0.0026 4e-6 0.0039 0h12.115c2.1027 0.09148 3.77 1.7594 3.8574 3.8633 0.09266 2.2313-1.6161 4.0904-3.8438 4.1953-0.97457-0.0037-1.9157-0.35655-2.6465-1.002l-0.2832-0.25h-6.2266l-0.28516 0.25c-0.73498 0.65073-1.6805 1.0105-2.6621 1.0137-2.2409 0.0072-4.0417-1.7805-4.0488-4.0215-0.0072-2.2395 1.7804-4.0395 4.0195-4.0488z" color="#000000" fill="#fff" stroke-miterlimit="10" style="-inkscape-stroke:none"/>
  <path id="line2" d="m15.783 25.379a1 1 0 0 0-1 1 1 1 0 0 0 1 1h4.4824a1 1 0 0 0 1-1 1 1 0 0 0-1-1z" color="#000000" fill="#fff" stroke-linecap="round" stroke-linejoin="round" style="-inkscape-stroke:none"/>
  <path id="line3" d="m18.029 23.211a1 1 0 0 0-1 1v4.4043a1 1 0 0 0 1 1 1 1 0 0 0 1-1v-4.4043a1 1 0 0 0-1-1z" color="#000000" fill="#fff" stroke-linecap="round" stroke-linejoin="round" style="-inkscape-stroke:none"/>
  <path id="path3" class="e" d="m28.0143,27.0114c-.359,0-.6501-.2911-.6501-.6501s.2911-.6501.6501-.6501.6501.2911.6501.6501-.2911.6501-.6501.6501Z"/>
  <path id="path4" class="e" d="m30.164,29.1698c-.359,0-.6501-.2911-.6501-.6501s.2911-.6501.6501-.6501.6501.2911.6501.6501-.2911.6501-.6501.6501Z"/>
  <path id="path5" class="e" d="m32.3223,27.0114c-.359,0-.6501-.2911-.6501-.6501s.2911-.6501.6501-.6501.6501.2911.6501.6501-.2911.6501-.6501.6501Z"/>
  <path id="path6" class="e" d="m30.164,24.8617c-.359,0-.6501-.2911-.6501-.6501s.2911-.6501.6501-.6501.6501.2911.6501.6501-.2911.6501-.6501.6501Z"/>
 </g>
</svg>
