<?xml version="1.0" encoding="UTF-8"?>
<svg id="svg2" version="1.1" viewBox="0 0 48 48" xmlns="http://www.w3.org/2000/svg">
 <defs id="defs1">
  <style id="style1">.c{fill:none;stroke:#fff;stroke-width:2px;stroke-linecap:round;stroke-linejoin:round;}</style>
 </defs>
 <g id="a">
  <path id="path1" d="m7.5 7.5c-2.1973 0-4 1.8027-4 4v25c0 2.1973 1.8027 4 4 4h33c2.1973 0 4-1.8027 4-4v-20c0-2.1973-1.8027-4-4-4h-14.719c-0.62539 0-1.2333-0.19509-1.7422-0.55859l-4.9141-3.5098c-0.84794-0.60562-1.8642-0.93164-2.9062-0.93164zm0 2h8.7188c0.62539 0 1.2331 0.19501 1.7422 0.55859l4.9141 3.5098c0.84792 0.6057 1.8642 0.93164 2.9062 0.93164h14.719c1.1165 0 2 0.88351 2 2v20c0 1.1165-0.88351 2-2 2h-33c-1.1165 0-2-0.88351-2-2v-25c0-1.1165 0.88351-2 2-2z" fill="#fff" stroke-linecap="round" stroke-linejoin="round"/>
 </g>
 <g id="b" fill="#fff" stroke-linecap="round" stroke-linejoin="round">
  <path id="circle1" d="m24 18.5c-2.5086 0-4.5645 2.0559-4.5645 4.5645s2.0559 4.5625 4.5645 4.5625 4.5645-2.0539 4.5645-4.5625-2.0559-4.5645-4.5645-4.5645zm0 2c1.4277 0 2.5645 1.1368 2.5645 2.5645s-1.1368 2.5625-2.5645 2.5625-2.5645-1.1348-2.5645-2.5625 1.1368-2.5645 2.5645-2.5645z"/>
  <path id="path2" d="m24 25.627c-4.3361 0-7.873 3.5369-7.873 7.873a1.0001 1.0001 0 0 0 1 1h13.746v-2l1 1c0-4.3361-3.5369-7.873-7.873-7.873zm0 2c2.9 0 5.184 2.118 5.6719 4.873h-11.344c0.4879-2.755 2.7718-4.873 5.6719-4.873z"/>
 </g>
</svg>
