<?xml version="1.0" encoding="UTF-8"?>
<svg id="svg9" version="1.1" viewBox="0 0 48 48" xmlns="http://www.w3.org/2000/svg">
 <defs id="defs1">
  <style id="style1">.c{fill:none;stroke:#fff;stroke-width:2px;stroke-linecap:round;stroke-linejoin:round;}</style>
 </defs>
 <g id="a">
  <path id="path1" d="m7.5 7.5c-2.1973 0-4 1.8027-4 4v25c0 2.1973 1.8027 4 4 4h33c2.1973 0 4-1.8027 4-4v-20c0-2.1973-1.8027-4-4-4h-14.719c-0.62539 0-1.2333-0.19509-1.7422-0.55859l-4.9141-3.5098c-0.84794-0.60562-1.8642-0.93164-2.9062-0.93164zm0 2h8.7188c0.62539 0 1.2331 0.19501 1.7422 0.55859l4.9141 3.5098c0.84792 0.6057 1.8642 0.93164 2.9062 0.93164h14.719c1.1165 0 2 0.88351 2 2v20c0 1.1165-0.88351 2-2 2h-33c-1.1165 0-2-0.88351-2-2v-25c0-1.1165 0.88351-2 2-2z" fill="#fff" stroke-linecap="round" stroke-linejoin="round"/>
 </g>
 <g id="b" fill="#fff" stroke-linecap="round" stroke-linejoin="round">
  <path id="path2" d="m24 21.744c-2.6149 0-4.7559 2.141-4.7559 4.7559s2.141 4.7559 4.7559 4.7559 4.7559-2.141 4.7559-4.7559-2.141-4.7559-4.7559-4.7559zm0 2c1.5339 0 2.7559 1.2219 2.7559 2.7559s-1.2219 2.7559-2.7559 2.7559-2.7559-1.2219-2.7559-2.7559 1.2219-2.7559 2.7559-2.7559z"/>
  <path id="line2" d="m24 18.5a1 1 0 0 0-1 1v0.91992a1 1 0 0 0 1 1 1 1 0 0 0 1-1v-0.91992a1 1 0 0 0-1-1z"/>
  <path id="line3" d="m30.08 25.5a1 1 0 0 0-1 1 1 1 0 0 0 1 1h0.91992a1 1 0 0 0 1-1 1 1 0 0 0-1-1z"/>
  <path id="line4" d="m24 31.58a1 1 0 0 0-1 1v0.91992a1 1 0 0 0 1 1 1 1 0 0 0 1-1v-0.91992a1 1 0 0 0-1-1z"/>
  <path id="line5" d="m17 25.5a1 1 0 0 0-1 1 1 1 0 0 0 1 1h0.91992a1 1 0 0 0 1-1 1 1 0 0 0-1-1z"/>
  <path id="line6" d="m28.242 20.844-0.64844 0.64844a1 1 0 0 0 0 1.4141 1 1 0 0 0 1.4141 0l0.64844-0.64844a1 1 0 0 0 0-1.4141 1 1 0 0 0-1.4141 0z"/>
  <path id="line7" d="m27.594 30.094a1 1 0 0 0 0 1.4141l0.64844 0.64844a1 1 0 0 0 1.4141 0 1 1 0 0 0 0-1.4141l-0.64844-0.64844a1 1 0 0 0-1.4141 0z"/>
  <path id="line8" d="m18.992 30.094-0.64844 0.64844a1 1 0 0 0 0 1.4141 1 1 0 0 0 1.4141 0l0.64844-0.64844a1 1 0 0 0 0-1.4141 1 1 0 0 0-1.4141 0z"/>
  <path id="line9" d="m18.344 20.844a1 1 0 0 0 0 1.4141l0.64844 0.64844a1 1 0 0 0 1.4141 0 1 1 0 0 0 0-1.4141l-0.64844-0.64844a1 1 0 0 0-1.4141 0z"/>
 </g>
</svg>
