<?xml version="1.0" encoding="UTF-8"?>
<svg id="svg1" version="1.1" viewBox="0 0 48 48" xmlns="http://www.w3.org/2000/svg">
 <defs id="defs1">
  <style id="style1">.c{fill:none;stroke:#fff;stroke-width:2px;stroke-linecap:round;stroke-linejoin:round;}</style>
 </defs>
 <g id="a">
  <path id="path1" d="m7.5 7.5c-2.1973 0-4 1.8027-4 4v25c0 2.1973 1.8027 4 4 4h33c2.1973 0 4-1.8027 4-4v-20c0-2.1973-1.8027-4-4-4h-14.719c-0.62539 0-1.2333-0.19509-1.7422-0.55859l-4.9141-3.5098c-0.84794-0.60562-1.8642-0.93164-2.9062-0.93164zm0 2h8.7188c0.62539 0 1.2331 0.19501 1.7422 0.55859l4.9141 3.5098c0.84792 0.6057 1.8642 0.93164 2.9062 0.93164h14.719c1.1165 0 2 0.88351 2 2v20c0 1.1165-0.88351 2-2 2h-33c-1.1165 0-2-0.88351-2-2v-25c0-1.1165 0.88351-2 2-2z" fill="#fff" stroke-linecap="round" stroke-linejoin="round"/>
 </g>
 <g id="b" fill="#fff" stroke-linecap="round" stroke-linejoin="round">
  <path id="rect1" d="m19 17.049c-1.0907 0-2 0.9093-2 2v14c0 1.0907 0.9093 2 2 2h10c1.0907 0 2-0.9093 2-2v-14c0-1.0907-0.9093-2-2-2zm0 2h10v14h-10z"/>
  <path id="line1" d="m21 17.049a1 1 0 0 0-1 1v16a1 1 0 0 0 1 1 1 1 0 0 0 1-1v-16a1 1 0 0 0-1-1z"/>
 </g>
</svg>
