<?xml version="1.0" encoding="UTF-8" standalone="no"?>
<svg
   viewBox="0 0 48 48"
   version="1.1"
   id="svg1"
   sodipodi:docname="folder-html.svg"
   xmlns:inkscape="http://www.inkscape.org/namespaces/inkscape"
   xmlns:sodipodi="http://sodipodi.sourceforge.net/DTD/sodipodi-0.dtd"
   xmlns="http://www.w3.org/2000/svg"
   xmlns:svg="http://www.w3.org/2000/svg">
  <sodipodi:namedview
     id="namedview1"
     pagecolor="#ffffff"
     bordercolor="#666666"
     borderopacity="1.0"
     inkscape:showpageshadow="2"
     inkscape:pageopacity="0.0"
     inkscape:pagecheckerboard="0"
     inkscape:deskcolor="#d1d1d1" />
  <defs
     id="defs1">
    <style
       id="style1">.c{fill:none;stroke:#fff;stroke-width:2px;stroke-linecap:round;stroke-linejoin:round;}</style>
  </defs>
  <g
     id="a">
    <path
       style="color:#000000;fill:#ffffff;stroke-linecap:round;stroke-linejoin:round;-inkscape-stroke:none"
       d="m 7.5,7.5 c -2.1973046,0 -4,1.8026954 -4,4 v 25 c 0,2.197305 1.8026954,4 4,4 h 33 c 2.197305,0 4,-1.802695 4,-4 v -20 c 0,-2.197305 -1.802695,-4 -4,-4 H 25.78125 c -0.625391,0 -1.233313,-0.195091 -1.742188,-0.558594 L 19.125,8.4316406 C 18.277059,7.8260218 17.260757,7.5 16.21875,7.5 Z m 0,2 h 8.71875 c 0.625391,0 1.23313,0.1950136 1.742187,0.558594 L 22.875,13.568359 C 23.722924,14.174055 24.739243,14.5 25.78125,14.5 H 40.5 c 1.116492,0 2,0.883508 2,2 v 20 c 0,1.116492 -0.883508,2 -2,2 h -33 c -1.1164921,0 -2,-0.883508 -2,-2 v -25 c 0,-1.116492 0.8835079,-2 2,-2 z"
       id="path1" />
  </g>
  <g
     id="b">
    <path
       style="color:#000000;fill:#ffffff;stroke-linecap:round;stroke-linejoin:round;-inkscape-stroke:none"
       d="m 25.435547,18.5 c -3.614012,0 -6.566406,2.950442 -6.566406,6.564453 0,3.614012 2.952394,6.566406 6.566406,6.566406 C 29.049558,31.630859 32,28.678465 32,25.064453 32,21.450442 29.049558,18.5 25.435547,18.5 Z m 0,2 C 27.968679,20.5 30,22.531321 30,25.064453 c 0,2.533132 -2.031321,4.566406 -4.564453,4.566406 -2.533132,0 -4.566406,-2.033274 -4.566406,-4.566406 0,-2.533132 2.033274,-4.564453 4.566406,-4.564453 z"
       id="circle1" />
    <path
       style="color:#000000;fill:#ffffff;stroke-linecap:round;stroke-linejoin:round;-inkscape-stroke:none"
       d="m 20.792969,28.292969 -4.5,4.5 a 1,1 0 0 0 0,1.414062 1,1 0 0 0 1.414062,0 l 4.5,-4.5 a 1,1 0 0 0 0,-1.414062 1,1 0 0 0 -1.414062,0 z"
       id="line1" />
  </g>
</svg>
