<?xml version="1.0" encoding="UTF-8"?>
<svg id="svg6" version="1.1" viewBox="0 0 48 48" xmlns="http://www.w3.org/2000/svg">
 <defs id="defs1">
  <style id="style1">.c{stroke-miterlimit:10;}.c,.d{fill:none;stroke:#fff;}.d{stroke-linecap:round;stroke-linejoin:round;}.e{fill:#fff;stroke-width:2px;}</style>
 </defs>
 <g id="a">
  <path id="path1" d="m7.5 8c-1.9271 0-3.5 1.5729-3.5 3.5v25c0 1.9271 1.5729 3.5 3.5 3.5h33c1.9271 0 3.5-1.5729 3.5-3.5v-20c0-1.9271-1.5729-3.5-3.5-3.5h-14.719c-0.72954 0-1.4396-0.22829-2.0332-0.65234l-4.9141-3.5098c-0.76322-0.54511-1.6774-0.83789-2.6152-0.83789zm0 1h8.7188c0.72954 0 1.4394 0.22825 2.0332 0.65234l4.9141 3.5098c0.76316 0.54515 1.6774 0.83789 2.6152 0.83789h14.719c1.3867 0 2.5 1.1133 2.5 2.5v20c0 1.3867-1.1133 2.5-2.5 2.5h-33c-1.3867 0-2.5-1.1133-2.5-2.5v-25c0-1.3867 1.1133-2.5 2.5-2.5z" color="#000000" fill="#fff" stroke-linecap="round" stroke-linejoin="round" style="-inkscape-stroke:none"/>
 </g>
 <g id="b">
  <path id="path2" d="m18.018 20.965c-3.0516 0.0098-5.5273 2.5012-5.5176 5.5527 0.0098 3.0516 2.5032 5.5273 5.5547 5.5176 1.2631-4e-3 2.463-0.47264 3.4414-1.2637h5.2285c0.98074 0.7901 2.185 1.2574 3.4492 1.2559h0.0196c3.049-0.12661 5.4274-2.7127 5.3008-5.7617-0.1193-2.8726-2.4282-5.1816-5.3008-5.3008h-12.174zm2e-3 1h12.141c2.3581 0.1021 4.238 1.9826 4.3359 4.3418 0.10407 2.5062-1.831 4.6102-4.3359 4.7188-1.0994-0.0016-2.16-0.40094-2.9844-1.1289l-0.14258-0.125h-5.8477l-0.14258 0.125c-0.82589 0.73121-1.8891 1.1352-2.9922 1.1387-2.5111 8e-3 -4.5427-2.0103-4.5508-4.5215-8e-3 -2.5104 2.0093-4.5397 4.5195-4.5488z" color="#000000" fill="#fff" stroke-miterlimit="10" style="-inkscape-stroke:none"/>
  <path id="line2" d="m15.783 25.879a0.5 0.5 0 0 0-0.5 0.5 0.5 0.5 0 0 0 0.5 0.5h4.4824a0.5 0.5 0 0 0 0.5-0.5 0.5 0.5 0 0 0-0.5-0.5z" color="#000000" fill="#fff" stroke-linecap="round" stroke-linejoin="round" style="-inkscape-stroke:none"/>
  <path id="line3" d="m18.029 23.711a0.5 0.5 0 0 0-0.5 0.5v4.4043a0.5 0.5 0 0 0 0.5 0.5 0.5 0.5 0 0 0 0.5-0.5v-4.4043a0.5 0.5 0 0 0-0.5-0.5z" color="#000000" fill="#fff" stroke-linecap="round" stroke-linejoin="round" style="-inkscape-stroke:none"/>
  <path id="path3" class="e" d="m28.0143,27.0114c-.359,0-.6501-.2911-.6501-.6501s.2911-.6501.6501-.6501.6501.2911.6501.6501-.2911.6501-.6501.6501Z"/>
  <path id="path4" class="e" d="m30.164,29.1698c-.359,0-.6501-.2911-.6501-.6501s.2911-.6501.6501-.6501.6501.2911.6501.6501-.2911.6501-.6501.6501Z"/>
  <path id="path5" class="e" d="m32.3223,27.0114c-.359,0-.6501-.2911-.6501-.6501s.2911-.6501.6501-.6501.6501.2911.6501.6501-.2911.6501-.6501.6501Z"/>
  <path id="path6" class="e" d="m30.164,24.8617c-.359,0-.6501-.2911-.6501-.6501s.2911-.6501.6501-.6501.6501.2911.6501.6501-.2911.6501-.6501.6501Z"/>
 </g>
</svg>
