<?xml version="1.0" encoding="UTF-8" standalone="no"?>
<svg
   viewBox="0 0 48 48"
   version="1.1"
   id="svg2"
   sodipodi:docname="folder-gdrive.svg"
   xmlns:inkscape="http://www.inkscape.org/namespaces/inkscape"
   xmlns:sodipodi="http://sodipodi.sourceforge.net/DTD/sodipodi-0.dtd"
   xmlns="http://www.w3.org/2000/svg"
   xmlns:svg="http://www.w3.org/2000/svg">
  <sodipodi:namedview
     id="namedview2"
     pagecolor="#ffffff"
     bordercolor="#666666"
     borderopacity="1.0"
     inkscape:showpageshadow="2"
     inkscape:pageopacity="0.0"
     inkscape:pagecheckerboard="0"
     inkscape:deskcolor="#d1d1d1" />
  <defs
     id="defs1">
    <style
       id="style1">.c{fill:none;stroke:#fff;stroke-width:2px;stroke-linecap:round;stroke-linejoin:round;}</style>
  </defs>
  <g
     id="a">
    <path
       style="color:#000000;fill:#ffffff;stroke-linecap:round;stroke-linejoin:round;-inkscape-stroke:none"
       d="m 7.5,7.5 c -2.1973046,0 -4,1.8026954 -4,4 v 25 c 0,2.197305 1.8026954,4 4,4 h 33 c 2.197305,0 4,-1.802695 4,-4 v -20 c 0,-2.197305 -1.802695,-4 -4,-4 H 25.78125 c -0.625391,0 -1.233313,-0.195091 -1.742188,-0.558594 L 19.125,8.4316406 C 18.277059,7.8260218 17.260757,7.5 16.21875,7.5 Z m 0,2 h 8.71875 c 0.625391,0 1.23313,0.1950136 1.742187,0.558594 L 22.875,13.568359 C 23.722924,14.174055 24.739243,14.5 25.78125,14.5 H 40.5 c 1.116492,0 2,0.883508 2,2 v 20 c 0,1.116492 -0.883508,2 -2,2 h -33 c -1.1164921,0 -2,-0.883508 -2,-2 v -25 c 0,-1.116492 0.8835079,-2 2,-2 z"
       id="path1" />
  </g>
  <g
     id="b">
    <path
       style="color:#000000;fill:#ffffff;stroke-linecap:round;stroke-linejoin:round;-inkscape-stroke:none"
       d="m 23.369141,20.167969 c -1.332656,0.07408 -2.677939,0.550349 -3.722657,1.498047 -0.826937,0.750142 -1.325262,1.87425 -1.542968,3.154296 -1.04138,-0.01317 -1.992744,0.186989 -2.667969,0.730469 -0.892096,0.718037 -1.34131,1.774965 -1.421875,2.822266 -0.08057,1.047301 0.189528,2.123011 0.84375,2.988281 0.654222,0.86527 1.746251,1.480469 3.042969,1.480469 h 11.066406 c 1.752644,0 3.156169,-0.70231 4.001953,-1.753906 0.845784,-1.051596 1.150276,-2.38715 0.992187,-3.640625 -0.158088,-1.253476 -0.791909,-2.469901 -1.914062,-3.21875 -0.879619,-0.586999 -2.075785,-0.703049 -3.365234,-0.50586 -0.267488,-1.040693 -0.769309,-1.961188 -1.564454,-2.535156 -1.07113,-0.773186 -2.415391,-1.09361 -3.748046,-1.019531 z m 0.111328,1.998047 c 0.927292,-0.05155 1.842966,0.192271 2.466797,0.642578 0.62383,0.450307 0.998046,1.043298 0.998046,1.998047 a 1.0001,1.0001 0 0 0 1.314454,0.949218 c 1.284602,-0.42739 2.102792,-0.247608 2.675781,0.134766 0.572989,0.382374 0.945679,1.050718 1.041015,1.806641 0.09534,0.755922 -0.09933,1.555991 -0.566406,2.136718 -0.467071,0.580728 -1.192307,1.007813 -2.443359,1.007813 H 17.900391 c -0.713381,0 -1.129802,-0.26504 -1.449219,-0.6875 -0.319418,-0.42246 -0.488432,-1.042984 -0.44336,-1.628906 0.04507,-0.585923 0.286004,-1.099526 0.681641,-1.417969 0.395637,-0.318444 0.98321,-0.523658 2.019531,-0.316406 a 1.0001,1.0001 0 0 0 1.195313,-0.980469 c 0,-1.256069 0.435694,-2.074206 1.085937,-2.664063 0.650244,-0.589857 1.562942,-0.928922 2.490235,-0.980468 z"
       id="path2" />
  </g>
</svg>
