<?xml version="1.0" encoding="UTF-8" standalone="no"?>
<svg
   viewBox="0 0 48 48"
   version="1.1"
   id="svg6"
   sodipodi:docname="folder-games.svg"
   xmlns:inkscape="http://www.inkscape.org/namespaces/inkscape"
   xmlns:sodipodi="http://sodipodi.sourceforge.net/DTD/sodipodi-0.dtd"
   xmlns="http://www.w3.org/2000/svg"
   xmlns:svg="http://www.w3.org/2000/svg">
  <sodipodi:namedview
     id="namedview6"
     pagecolor="#ffffff"
     bordercolor="#666666"
     borderopacity="1.0"
     inkscape:showpageshadow="2"
     inkscape:pageopacity="0.0"
     inkscape:pagecheckerboard="0"
     inkscape:deskcolor="#d1d1d1" />
  <defs
     id="defs1">
    <style
       id="style1">.c{stroke-miterlimit:10;}.c,.d{fill:none;stroke:#fff;}.d{stroke-linecap:round;stroke-linejoin:round;}.e{fill:#fff;stroke-width:2px;}</style>
  </defs>
  <g
     id="a">
    <path
       style="color:#000000;fill:#ffffff;stroke-linecap:round;stroke-linejoin:round;-inkscape-stroke:none"
       d="M 7.5,8 C 5.5728985,8 4,9.5728985 4,11.5 v 25 C 4,38.427101 5.5728985,40 7.5,40 h 33 c 1.927101,0 3.5,-1.572899 3.5,-3.5 v -20 C 44,14.572899 42.427101,13 40.5,13 H 25.78125 c -0.729545,0 -1.439566,-0.228292 -2.033203,-0.652344 L 18.833984,8.8378906 C 18.070764,8.2927814 17.156603,8 16.21875,8 Z m 0,1 h 8.71875 c 0.729545,0 1.439425,0.2282539 2.033203,0.6523438 l 4.914063,3.5097652 C 23.929177,13.707257 24.843397,14 25.78125,14 H 40.5 c 1.386695,0 2.5,1.113305 2.5,2.5 v 20 C 43,37.886695 41.886695,39 40.5,39 H 7.5 C 6.1133048,39 5,37.886695 5,36.5 v -25 C 5,10.113305 6.1133048,9 7.5,9 Z"
       id="path1" />
  </g>
  <g
     id="b">
    <path
       style="color:#000000;fill:#ffffff;stroke-miterlimit:10;-inkscape-stroke:none"
       d="m 18.017578,20.964844 c -3.051617,0.0098 -5.527343,2.501215 -5.517578,5.552734 0.0098,3.051618 2.503169,5.527343 5.554687,5.517578 1.263114,-0.004 2.462993,-0.47264 3.441407,-1.263672 h 5.228515 c 0.980742,0.790104 2.184969,1.257407 3.449219,1.25586 h 0.0098 0.0098 c 3.048976,-0.126611 5.427393,-2.712732 5.300782,-5.761719 -0.119303,-2.872601 -2.428156,-5.181587 -5.300782,-5.300781 h -0.0098 -0.02734 -0.002 -12.134766 z m 0.002,1 h 12.134766 0.002 0.0039 c 2.358052,0.1021 4.237957,1.982591 4.335938,4.341797 0.104072,2.506206 -1.830992,4.610212 -4.335938,4.71875 -1.099436,-0.0016 -2.16005,-0.400938 -2.984375,-1.128907 l -0.142578,-0.125 h -5.847656 l -0.142578,0.125 c -0.825892,0.731214 -1.889135,1.135159 -2.992188,1.138672 -2.511075,0.008 -4.542746,-2.010307 -4.550781,-4.521484 -0.008,-2.51041 2.009281,-4.539722 4.519531,-4.548828 z"
       id="path2" />
    <path
       style="color:#000000;fill:#ffffff;stroke-linecap:round;stroke-linejoin:round;-inkscape-stroke:none"
       d="m 15.783203,25.878906 a 0.5,0.5 0 0 0 -0.5,0.5 0.5,0.5 0 0 0 0.5,0.5 h 4.482422 a 0.5,0.5 0 0 0 0.5,-0.5 0.5,0.5 0 0 0 -0.5,-0.5 z"
       id="line2" />
    <path
       style="color:#000000;fill:#ffffff;stroke-linecap:round;stroke-linejoin:round;-inkscape-stroke:none"
       d="m 18.029297,23.710937 a 0.5,0.5 0 0 0 -0.5,0.5 v 4.404297 a 0.5,0.5 0 0 0 0.5,0.5 0.5,0.5 0 0 0 0.5,-0.5 v -4.404297 a 0.5,0.5 0 0 0 -0.5,-0.5 z"
       id="line3" />
    <path
       class="e"
       d="m28.0143,27.0114c-.359,0-.6501-.2911-.6501-.6501s.2911-.6501.6501-.6501.6501.2911.6501.6501-.2911.6501-.6501.6501Z"
       id="path3" />
    <path
       class="e"
       d="m30.164,29.1698c-.359,0-.6501-.2911-.6501-.6501s.2911-.6501.6501-.6501.6501.2911.6501.6501-.2911.6501-.6501.6501Z"
       id="path4" />
    <path
       class="e"
       d="m32.3223,27.0114c-.359,0-.6501-.2911-.6501-.6501s.2911-.6501.6501-.6501.6501.2911.6501.6501-.2911.6501-.6501.6501Z"
       id="path5" />
    <path
       class="e"
       d="m30.164,24.8617c-.359,0-.6501-.2911-.6501-.6501s.2911-.6501.6501-.6501.6501.2911.6501.6501-.2911.6501-.6501.6501Z"
       id="path6" />
  </g>
</svg>
