<?xml version="1.0" encoding="UTF-8" standalone="no"?>
<svg
   viewBox="0 0 48 48"
   version="1.1"
   id="svg2"
   sodipodi:docname="folder-image-people.svg"
   xmlns:inkscape="http://www.inkscape.org/namespaces/inkscape"
   xmlns:sodipodi="http://sodipodi.sourceforge.net/DTD/sodipodi-0.dtd"
   xmlns="http://www.w3.org/2000/svg"
   xmlns:svg="http://www.w3.org/2000/svg">
  <sodipodi:namedview
     id="namedview2"
     pagecolor="#ffffff"
     bordercolor="#666666"
     borderopacity="1.0"
     inkscape:showpageshadow="2"
     inkscape:pageopacity="0.0"
     inkscape:pagecheckerboard="0"
     inkscape:deskcolor="#d1d1d1" />
  <defs
     id="defs1">
    <style
       id="style1">.c{fill:none;stroke:#fff;stroke-width:2px;stroke-linecap:round;stroke-linejoin:round;}</style>
  </defs>
  <g
     id="a">
    <path
       style="color:#000000;fill:#ffffff;stroke-linecap:round;stroke-linejoin:round;-inkscape-stroke:none"
       d="m 7.5,7.5 c -2.1973046,0 -4,1.8026954 -4,4 v 25 c 0,2.197305 1.8026954,4 4,4 h 33 c 2.197305,0 4,-1.802695 4,-4 v -20 c 0,-2.197305 -1.802695,-4 -4,-4 H 25.78125 c -0.625391,0 -1.233313,-0.195091 -1.742188,-0.558594 L 19.125,8.4316406 C 18.277059,7.8260218 17.260757,7.5 16.21875,7.5 Z m 0,2 h 8.71875 c 0.625391,0 1.23313,0.1950136 1.742187,0.558594 L 22.875,13.568359 C 23.722924,14.174055 24.739243,14.5 25.78125,14.5 H 40.5 c 1.116492,0 2,0.883508 2,2 v 20 c 0,1.116492 -0.883508,2 -2,2 h -33 c -1.1164921,0 -2,-0.883508 -2,-2 v -25 c 0,-1.116492 0.8835079,-2 2,-2 z"
       id="path1" />
  </g>
  <g
     id="b">
    <path
       style="color:#000000;fill:#ffffff;stroke-linecap:round;stroke-linejoin:round;-inkscape-stroke:none"
       d="m 24,18.5 c -2.50856,0 -4.564453,2.055894 -4.564453,4.564453 0,2.50856 2.055893,4.5625 4.564453,4.5625 2.50856,0 4.564453,-2.05394 4.564453,-4.5625 C 28.564453,20.555894 26.50856,18.5 24,18.5 Z m 0,2 c 1.42768,0 2.564453,1.136773 2.564453,2.564453 0,1.427681 -1.136773,2.5625 -2.564453,2.5625 -1.42768,0 -2.564453,-1.134819 -2.564453,-2.5625 C 21.435547,21.636773 22.57232,20.5 24,20.5 Z"
       id="circle1" />
    <path
       style="color:#000000;fill:#ffffff;stroke-linecap:round;stroke-linejoin:round;-inkscape-stroke:none"
       d="m 24,25.626953 c -4.336132,0 -7.873047,3.536915 -7.873047,7.873047 a 1.0001,1.0001 0 0 0 1,1 h 13.746094 v -2 l 1,1 c 0,-4.336132 -3.536915,-7.873047 -7.873047,-7.873047 z m 0,2 c 2.900042,0 5.183973,2.118016 5.671875,4.873047 H 18.328125 C 18.816027,29.744969 21.099958,27.626953 24,27.626953 Z"
       id="path2" />
  </g>
</svg>
