<?xml version="1.0" encoding="UTF-8"?>
<svg id="svg3" version="1.1" viewBox="0 0 48 48" xmlns="http://www.w3.org/2000/svg">
 <defs id="defs1">
  <style id="style1">.c{fill:none;stroke:#fff;stroke-width:2px;stroke-linecap:round;stroke-linejoin:round;}</style>
 </defs>
 <g id="a">
  <path id="path1" d="m7.5 7.5c-2.1973 0-4 1.8027-4 4v25c0 2.1973 1.8027 4 4 4h33c2.1973 0 4-1.8027 4-4v-20c0-2.1973-1.8027-4-4-4h-14.719c-0.62539 0-1.2333-0.19509-1.7422-0.55859l-4.9141-3.5098c-0.84794-0.60562-1.8642-0.93164-2.9062-0.93164zm0 2h8.7188c0.62539 0 1.2331 0.19501 1.7422 0.55859l4.9141 3.5098c0.84792 0.6057 1.8642 0.93164 2.9062 0.93164h14.719c1.1165 0 2 0.88351 2 2v20c0 1.1165-0.88351 2-2 2h-33c-1.1165 0-2-0.88351-2-2v-25c0-1.1165 0.88351-2 2-2z" fill="#fff" stroke-linecap="round" stroke-linejoin="round"/>
 </g>
 <g id="b" fill="#fff" stroke-linecap="round" stroke-linejoin="round">
  <path id="path2" d="m17.398 25.143c-0.84552 0-1.6904 0.34907-2.2832 1.0449l-4.3223 5.0742c-1.0594 1.2438-0.11236 3.2969 1.5215 3.2969h10.168c1.6338 0 2.5828-2.053 1.5234-3.2969l-4.3223-5.0742c-0.59276-0.69585-1.4396-1.0449-2.2852-1.0449zm0 1.9785c0.27773 0 0.55588 0.12164 0.76172 0.36328l4.3223 5.0742h-10.168l4.3242-5.0742c0.20584-0.24165 0.48204-0.36328 0.75976-0.36328z"/>
  <path id="path3" d="m27.295 21.262c-0.84552 0-1.6904 0.34712-2.2832 1.043l-5.0801 5.9629a1 1 0 0 0 0.11328 1.4102 1 1 0 0 0 1.4102-0.11328l5.0781-5.9629c0.41169-0.48329 1.1117-0.48329 1.5234 0l7.6289 8.957h-13.203a1 1 0 0 0-1 1 1 1 0 0 0 1 1h13.203c1.6338 0 2.5808-2.053 1.5215-3.2969l-7.6289-8.957c-0.59276-0.69585-1.4377-1.043-2.2832-1.043z"/>
  <path id="circle3" d="m15.119 18.441c-1.7992 0-3.2793 1.4801-3.2793 3.2793 0 1.7992 1.4801 3.2793 3.2793 3.2793 1.7992 0 3.2793-1.4801 3.2793-3.2793 0-1.7992-1.4801-3.2793-3.2793-3.2793zm0 2c0.71833 0 1.2793 0.56097 1.2793 1.2793s-0.56097 1.2793-1.2793 1.2793c-0.71833 0-1.2793-0.56097-1.2793-1.2793s0.56097-1.2793 1.2793-1.2793z"/>
 </g>
</svg>
